ply
format ascii 1.0
element vertex 385
property float x
property float y
property float z
property uchar red
property uchar green
property uchar blue
end_header
77.430455 -42.474882 -360.397637 0 120 255
77.187502 -42.528723 -357.935418 0 120 255
76.944548 -42.582563 -355.473199 0 120 255
76.701595 -42.636404 -353.010980 0 120 255
76.458641 -42.690245 -350.548761 0 120 255
76.234566 -42.751911 -348.084940 0 120 255
76.011294 -42.813909 -345.621050 0 120 255
75.788022 -42.875908 -343.157161 0 120 255
75.564750 -42.937907 -340.693271 0 120 255
75.325859 -43.031093 -338.231853 0 120 255
75.085501 -43.127211 -335.770667 0 120 255
74.845143 -43.223329 -333.309481 0 120 255
74.604785 -43.319447 -330.848295 0 120 255
74.330287 -43.437200 -328.391677 0 120 255
74.050449 -43.558338 -325.935773 0 120 255
73.770611 -43.679476 -323.479869 0 120 255
73.490772 -43.800614 -321.023966 0 120 255
73.176196 -43.941946 -318.573427 0 120 255
72.853762 -44.087846 -316.124101 0 120 255
72.531329 -44.233746 -313.674775 0 120 255
72.208895 -44.379647 -311.225450 0 120 255
71.851379 -44.544468 -308.782303 0 120 255
71.483173 -44.715054 -306.341038 0 120 255
71.114967 -44.885641 -303.899774 0 120 255
70.746761 -45.056227 -301.458510 0 120 255
70.343400 -45.244595 -299.024247 0 120 255
69.926202 -45.439963 -296.592741 0 120 255
69.509004 -45.635330 -294.161234 0 120 255
69.091806 -45.830698 -291.729728 0 120 255
68.639667 -46.042821 -289.306043 0 120 255
68.170226 -46.263240 -286.886232 0 120 255
67.700786 -46.483659 -284.466420 0 120 255
67.231346 -46.704078 -282.046609 0 120 255
66.727473 -46.940305 -279.635420 0 120 255
66.202526 -47.186208 -277.229508 0 120 255
65.677579 -47.432111 -274.823597 0 120 255
65.152631 -47.678015 -272.417686 0 120 255
64.594059 -47.938841 -270.021161 0 120 255
64.010329 -48.210832 -267.631657 0 120 255
63.426599 -48.482823 -265.242154 0 120 255
62.842869 -48.754814 -262.852650 0 120 255
62.226647 -49.040870 -260.473226 0 120 255
61.580905 -49.339705 -258.102960 0 120 255
60.935164 -49.638540 -255.732694 0 120 255
60.289423 -49.937374 -253.362427 0 120 255
59.612627 -50.249425 -251.002843 0 120 255
58.901670 -50.576015 -248.655008 0 120 255
58.190712 -50.902605 -246.307174 0 120 255
57.479755 -51.229195 -243.959340 0 120 255
56.739508 -51.568136 -241.622657 0 120 255
55.960223 -51.923537 -239.300836 0 120 255
55.180938 -52.278939 -236.979016 0 120 255
54.401653 -52.634341 -234.657195 0 120 255
53.595160 -53.001183 -232.346823 0 120 255
52.744550 -53.386577 -230.055016 0 120 255
51.893940 -53.771970 -227.763209 0 120 255
51.043330 -54.157363 -225.471401 0 120 255
50.167901 -54.553230 -223.191126 0 120 255
49.243122 -54.969924 -220.933784 0 120 255
48.318342 -55.386618 -218.676441 0 120 255
47.393563 -55.803312 -216.419098 0 120 255
46.446653 -56.229429 -214.173105 0 120 255
45.445070 -56.678829 -211.955152 0 120 255
44.443487 -57.128230 -209.737198 0 120 255
43.441904 -57.577630 -207.519245 0 120 255
42.421154 -58.035309 -205.312140 0 120 255
41.340391 -58.518912 -203.139003 0 120 255
40.259628 -59.002515 -200.965865 0 120 255
39.178865 -59.486117 -198.792728 0 120 255
38.082143 -59.976745 -196.629563 0 120 255
36.920142 -60.496110 -194.507191 0 120 255
35.758140 -61.015475 -192.384820 0 120 255
34.596139 -61.534840 -190.262449 0 120 255
33.421596 -62.059857 -188.148739 0 120 255
32.176688 -62.616583 -186.083623 0 120 255
30.931779 -63.173309 -184.018506 0 120 255
29.686871 -63.730035 -181.953390 0 120 255
28.432996 -64.290916 -179.895127 0 120 255
27.103973 -64.886615 -177.894305 0 120 255
25.774950 -65.482314 -175.893484 0 120 255
24.445928 -66.078014 -173.892662 0 120 255
23.111610 -66.676246 -171.896330 0 120 255
21.697818 -67.312503 -169.967389 0 120 255
20.284026 -67.948760 -168.038447 0 120 255
18.870233 -68.585016 -166.109505 0 120 255
17.454839 -69.222068 -164.182075 0 120 255
15.956247 -69.900411 -162.333152 0 120 255
14.457655 -70.578754 -160.484228 0 120 255
12.959062 -71.257096 -158.635304 0 120 255
11.460470 -71.935439 -156.786380 0 120 255
9.879821 -72.656243 -155.023984 0 120 255
8.297149 -73.378094 -153.263720 0 120 255
6.714477 -74.099945 -151.503457 0 120 255
5.131805 -74.821796 -149.743194 0 120 255
3.472068 -75.585450 -148.074238 0 120 255
1.806853 -76.352077 -146.411773 0 120 255
0.141637 -77.118704 -144.749309 0 120 255
-1.523578 -77.885330 -143.086845 0 120 255
-3.260208 -78.692843 -141.520142 0 120 255
-5.005485 -79.505307 -139.965035 0 120 255
-6.750762 -80.317770 -138.409928 0 120 255
-8.496039 -81.130234 -136.854821 0 120 255
-10.306459 -81.982393 -135.399525 0 120 255
-12.128278 -82.841497 -133.961692 0 120 255
-13.950097 -83.700602 -132.523860 0 120 255
-15.771916 -84.559706 -131.086028 0 120 255
-17.652019 -85.457020 -129.751538 0 120 255
-19.545714 -86.363245 -128.441146 0 120 255
-21.439408 -87.269469 -127.130754 0 120 255
-23.333102 -88.175694 -125.820362 0 120 255
-25.277699 -89.118340 -124.616244 0 120 255
-27.237372 -90.071773 -123.443599 0 120 255
-29.197044 -91.025205 -122.270955 0 120 255
-31.156717 -91.978638 -121.098311 0 120 255
-33.159453 -92.966402 -120.034157 0 120 255
-35.177882 -93.966677 -119.009540 0 120 255
-37.196312 -94.966952 -117.984923 0 120 255
-39.214741 -95.967227 -116.960306 0 120 255
-41.268032 -96.999454 -116.045608 0 120 255
-43.336612 -98.045696 -115.179121 0 120 255
-45.405193 -99.091937 -114.312634 0 120 255
-47.473773 -100.138179 -113.446147 0 120 255
-49.568754 -101.213718 -112.690123 0 120 255
-51.677447 -102.304474 -111.991472 0 120 255
-53.786139 -103.395230 -111.292821 0 120 255
-55.894832 -104.485986 -110.594170 0 120 255
-58.021334 -105.603129 -110.005567 0 120 255
-60.158658 -106.736305 -109.483835 0 120 255
-62.295982 -107.869481 -108.962102 0 120 255
-64.433305 -109.002658 -108.440370 0 120 255
-66.579854 -110.159105 -108.027268 0 120 255
-68.732901 -111.331942 -107.690685 0 120 255
-70.885947 -112.504780 -107.354101 0 120 255
-73.038994 -113.677618 -107.017518 0 120 255
-75.192843 -114.870439 -106.787100 0 120 255
-77.347344 -116.079464 -106.642770 0 120 255
-79.501845 -117.288490 -106.498441 0 120 255
-81.656346 -118.497515 -106.354111 0 120 255
-83.803553 -119.723125 -106.312420 0 120 255
-85.943986 -120.964140 -106.366054 0 120 255
-88.084419 -122.205154 -106.419687 0 120 255
-90.224852 -123.446168 -106.473321 0 120 255
-92.350390 -124.700323 -106.625036 0 120 255
-94.460140 -125.968407 -106.880703 0 120 255
-96.569889 -127.236491 -107.136371 0 120 255
-98.679639 -128.504574 -107.392039 0 120 255
-100.767561 -129.782373 -107.740232 0 120 255
-102.829139 -131.071897 -108.200090 0 120 255
-104.890718 -132.361421 -108.659949 0 120 255
-106.952296 -133.650945 -109.119807 0 120 255
-108.985940 -134.946865 -109.665729 0 120 255
-110.981231 -136.251567 -110.329820 0 120 255
-112.976521 -137.556269 -110.993911 0 120 255
-114.971811 -138.860971 -111.658002 0 120 255
-116.934051 -140.168924 -112.400895 0 120 255
-118.844639 -141.481958 -113.266944 0 120 255
-120.755227 -142.794992 -114.132994 0 120 255
-122.665815 -144.108026 -114.999044 0 120 255
-124.539352 -145.421433 -115.935987 0 120 255
-126.346850 -146.735502 -116.999292 0 120 255
-128.154349 -148.049572 -118.062597 0 120 255
-129.961847 -149.363642 -119.125902 0 120 255
-131.729530 -150.675535 -120.251718 0 120 255
-133.415978 -151.982987 -121.505077 0 120 255
-135.102426 -153.290439 -122.758436 0 120 255
-136.788874 -154.597891 -124.011796 0 120 255
-138.434046 -155.901029 -125.319017 0 120 255
-139.982272 -157.194034 -126.752747 0 120 255
-141.530498 -158.487039 -128.186477 0 120 255
-143.078724 -159.780044 -129.620207 0 120 255
-144.585568 -161.067057 -131.099105 0 120 255
-145.979612 -162.337734 -132.701124 0 120 255
-147.373656 -163.608412 -134.303144 0 120 255
-148.767700 -164.879090 -135.905163 0 120 255
-150.121596 -166.142616 -137.543848 0 120 255
-151.347025 -167.383259 -139.299860 0 120 255
-152.572454 -168.623901 -141.055871 0 120 255
-153.797883 -169.864544 -142.811883 0 120 255
-154.985704 -171.097411 -144.596489 0 120 255
-156.029987 -172.300603 -146.490227 0 120 255
-157.074271 -173.503796 -148.383966 0 120 255
-158.118555 -174.706988 -150.277704 0 120 255
-159.128973 -175.902337 -152.192627 0 120 255
-159.981728 -177.061168 -154.206173 0 120 255
-160.834482 -178.220000 -156.219718 0 120 255
-161.687236 -179.378832 -158.233264 0 120 255
-162.510940 -180.530294 -160.261456 0 120 255
-163.164129 -181.638499 -162.375615 0 120 255
-163.817319 -182.746705 -164.489775 0 120 255
-164.470508 -183.854911 -166.603935 0 120 255
-165.100364 -184.956732 -168.727259 0 120 255
-165.548454 -186.008815 -170.921976 0 120 255
-165.996545 -187.060898 -173.116693 0 120 255
-166.444635 -188.112981 -175.311410 0 120 255
-166.875807 -189.160129 -177.511010 0 120 255
-167.115789 -190.151501 -179.765790 0 120 255
-167.355770 -191.142873 -182.020571 0 120 255
-167.595752 -192.134246 -184.275352 0 120 255
-167.825706 -193.122525 -186.532035 0 120 255
-167.857073 -194.049546 -188.826397 0 120 255
-167.888441 -194.976567 -191.120758 0 120 255
-167.919809 -195.903589 -193.415120 0 120 255
-167.948279 -196.829671 -195.709755 0 120 255
-167.772919 -197.689725 -198.023627 0 120 255
-167.597559 -198.549778 -200.337499 0 120 255
-167.422199 -199.409831 -202.651371 0 120 255
-167.246839 -200.269884 -204.965243 0 120 255
-166.873086 -201.062814 -207.279348 0 120 255
-166.495097 -201.854311 -209.593457 0 120 255
-166.117109 -202.645807 -211.907567 0 120 255
-165.739120 -203.437304 -214.221677 0 120 255
-165.175731 -204.163595 -216.518893 0 120 255
-164.601190 -204.885963 -218.815093 0 120 255
-164.026649 -205.608332 -221.111293 0 120 255
-163.452109 -206.330700 -223.407492 0 120 255
-162.706463 -206.990753 -225.672281 0 120 255
-161.943167 -207.644378 -227.933829 0 120 255
-161.179870 -208.298004 -230.195377 0 120 255
-160.416574 -208.951629 -232.456925 0 120 255
-159.497295 -209.546661 -234.675220 0 120 255
-158.554452 -210.132842 -236.886981 0 120 255
-157.611610 -210.719023 -239.098742 0 120 255
-156.668767 -211.305204 -241.310503 0 120 255
-155.585442 -211.837149 -243.469828 0 120 255
-154.473367 -212.357994 -245.618422 0 120 255
-153.361292 -212.878839 -247.767015 0 120 255
-152.249217 -213.399685 -249.915609 0 120 255
-151.012155 -213.871123 -252.005146 0 120 255
-149.741982 -214.329472 -254.079036 0 120 255
-148.471809 -214.787821 -256.152927 0 120 255
-147.201636 -215.246170 -258.226818 0 120 255
-145.821610 -215.660246 -260.237418 0 120 255
-144.404991 -216.059573 -262.226934 0 120 255
-142.988372 -216.458900 -264.216450 0 120 255
-141.571753 -216.858227 -266.205966 0 120 255
-140.059767 -217.218535 -268.130130 0 120 255
-138.508608 -217.562814 -270.027451 0 120 255
-136.957449 -217.907093 -271.924771 0 120 255
-135.406289 -218.251373 -273.822091 0 120 255
-133.773370 -218.561892 -275.653905 0 120 255
-132.099585 -218.855537 -277.452978 0 120 255
-130.425800 -219.149182 -279.252051 0 120 255
-128.752015 -219.442827 -281.051123 0 120 255
-127.009042 -219.707823 -282.786179 0 120 255
-125.224362 -219.955550 -284.482645 0 120 255
-123.439683 -220.203277 -286.179112 0 120 255
-121.655004 -220.451004 -287.875578 0 120 255
-119.812563 -220.674964 -289.510868 0 120 255
-117.928364 -220.881742 -291.101932 0 120 255
-116.044165 -221.088520 -292.692995 0 120 255
-114.159966 -221.295298 -294.284059 0 120 255
-112.228231 -221.482862 -295.817864 0 120 255
-110.255391 -221.653812 -297.302158 0 120 255
-108.282552 -221.824761 -298.786451 0 120 255
-106.309713 -221.995711 -300.270745 0 120 255
-104.298353 -222.151610 -301.702510 0 120 255
-102.247150 -222.291943 -303.079942 0 120 255
-100.195947 -222.432275 -304.457374 0 120 255
-98.144744 -222.572607 -305.834807 0 120 255
-96.062858 -222.701607 -307.165018 0 120 255
-93.942912 -222.816549 -308.436658 0 120 255
-91.822967 -222.931491 -309.708298 0 120 255
-89.703022 -223.046433 -310.979937 0 120 255
-87.559098 -223.154529 -312.209906 0 120 255
-85.379306 -223.252385 -313.377543 0 120 255
-83.199513 -223.350242 -314.545180 0 120 255
-81.019721 -223.448098 -315.712817 0 120 255
-78.821546 -223.543538 -316.844350 0 120 255
-76.589886 -223.634577 -317.910113 0 120 255
-74.358226 -223.725615 -318.975876 0 120 255
-72.126565 -223.816654 -320.041638 0 120 255
-69.881249 -223.906984 -321.077188 0 120 255
-67.605149 -223.995717 -322.044629 0 120 255
-65.329049 -224.084450 -323.012069 0 120 255
-63.052949 -224.173183 -323.979510 0 120 255
-60.767131 -224.261296 -324.922792 0 120 255
-58.453554 -224.347634 -325.797065 0 120 255
-56.139976 -224.433972 -326.671337 0 120 255
-53.826399 -224.520310 -327.545610 0 120 255
-51.506238 -224.606497 -328.401432 0 120 255
-49.161407 -224.692117 -329.188126 0 120 255
-46.816577 -224.777737 -329.974820 0 120 255
-44.471747 -224.863357 -330.761515 0 120 255
-42.122746 -224.949182 -331.535001 0 120 255
-39.752156 -225.036067 -332.240124 0 120 255
-37.381565 -225.122953 -332.945246 0 120 255
-35.010974 -225.209838 -333.650369 0 120 255
-32.637962 -225.296856 -334.346825 0 120 255
-30.245996 -225.384914 -334.975470 0 120 255
-27.854031 -225.472972 -335.604115 0 120 255
-25.462066 -225.561030 -336.232760 0 120 255
-23.068954 -225.649144 -336.856752 0 120 255
-20.659301 -225.738066 -337.413628 0 120 255
-18.249648 -225.826988 -337.970505 0 120 255
-15.839994 -225.915910 -338.527382 0 120 255
-13.430107 -226.004842 -339.083176 0 120 255
-11.006146 -226.094342 -339.573938 0 120 255
-8.582184 -226.183842 -340.064701 0 120 255
-6.158223 -226.273342 -340.555464 0 120 255
-3.734262 -226.362842 -341.046227 0 120 255
-1.299254 -226.452671 -341.478656 0 120 255
1.136121 -226.542510 -341.909153 0 120 255
3.571495 -226.632350 -342.339649 0 120 255
6.006869 -226.722189 -342.770146 0 120 255
8.450525 -226.812144 -343.150512 0 120 255
10.894905 -226.902109 -343.526490 0 120 255
13.339285 -226.992074 -343.902468 0 120 255
15.783665 -227.082040 -344.278446 0 120 255
18.234167 -227.171954 -344.611804 0 120 255
20.685574 -227.261861 -344.938857 0 120 255
23.136982 -227.351768 -345.265909 0 120 255
25.588390 -227.441675 -345.592962 0 120 255
28.044228 -227.531375 -345.884481 0 120 255
30.501020 -227.621031 -346.168347 0 120 255
32.957813 -227.710686 -346.452213 0 120 255
35.414605 -227.800342 -346.736080 0 120 255
37.874539 -227.889610 -346.990943 0 120 255
40.335387 -227.978766 -347.237366 0 120 255
42.796235 -228.067922 -347.483789 0 120 255
45.257083 -228.157078 -347.730212 0 120 255
47.720131 -228.245473 -347.953429 0 120 255
50.184006 -228.333581 -348.167912 0 120 255
52.647881 -228.421690 -348.382395 0 120 255
55.111756 -228.509799 -348.596879 0 120 255
57.577203 -228.595561 -348.793098 0 120 255
60.043393 -228.680213 -348.980678 0 120 255
62.509583 -228.764865 -349.168257 0 120 255
64.975774 -228.849517 -349.355837 0 120 255
67.443118 -228.928868 -349.529726 0 120 255
69.911135 -229.005125 -349.695622 0 120 255
72.379152 -229.081381 -349.861518 0 120 255
74.847170 -229.157638 -350.027414 0 120 255
77.315993 -229.226494 -350.183986 0 120 255
79.785391 -229.290078 -350.333915 0 120 255
82.254789 -229.353662 -350.483845 0 120 255
84.724186 -229.417247 -350.633775 0 120 255
87.194109 -229.472521 -350.777950 0 120 255
89.664484 -229.520622 -350.917159 0 120 255
92.134859 -229.568723 -351.056368 0 120 255
94.605234 -229.616825 -351.195577 0 120 255
97.075902 -229.655916 -351.332063 0 120 255
99.546874 -229.685613 -351.465709 0 120 255
102.017846 -229.715310 -351.599355 0 120 255
104.488818 -229.745007 -351.733001 0 120 255
106.959875 -229.765220 -351.866429 0 120 255
109.431039 -229.773486 -351.999583 0 120 255
111.902202 -229.781752 -352.132736 0 120 255
114.373365 -229.790018 -352.265889 0 120 255
116.844416 -229.788560 -352.400818 0 120 255
119.315293 -229.772251 -352.538458 0 120 255
121.786171 -229.755942 -352.676098 0 120 255
124.257048 -229.739633 -352.813738 0 120 255
126.727619 -229.713605 -352.954650 0 120 255
129.197615 -229.669454 -353.101664 0 120 255
131.667612 -229.625302 -353.248678 0 120 255
134.137609 -229.581151 -353.395693 0 120 255
136.607110 -229.527554 -353.546994 0 120 255
139.075467 -229.452190 -353.708177 0 120 255
141.543824 -229.376825 -353.869359 0 120 255
144.012181 -229.301460 -354.030542 0 120 255
146.479869 -229.217200 -354.196560 0 120 255
148.945618 -229.107135 -354.376603 0 120 255
151.411367 -228.997071 -354.556647 0 120 255
153.877116 -228.887006 -354.736690 0 120 255
156.342057 -228.768888 -354.921674 0 120 255
158.803970 -228.620538 -355.125204 0 120 255
161.265883 -228.472188 -355.328733 0 120 255
163.727796 -228.323837 -355.532262 0 120 255
166.188147 -228.166103 -355.745180 0 120 255
168.640571 -227.960747 -356.005742 0 120 255
171.092994 -227.755391 -356.266305 0 120 255
173.545418 -227.550034 -356.526867 0 120 255
175.997269 -227.341481 -356.790031 0 120 255
178.445009 -227.109994 -357.071864 0 120 255
180.892749 -226.878507 -357.353696 0 120 255
183.340489 -226.647019 -357.635528 0 120 255
185.788229 -226.415531 -357.917362 0 120 255
188.235966 -226.184033 -358.199207 0 120 255
190.683704 -225.952534 -358.481052 0 120 255
193.131441 -225.721036 -358.762897 0 120 255
195.579178 -225.489538 -359.044741 0 120 255
198.026917 -225.258043 -359.326579 0 120 255
200.474656 -225.026549 -359.608416 0 120 255
202.922395 -224.795055 -359.890253 0 120 255
205.370133 -224.563560 -360.172091 0 120 255
