ply
format ascii 1.0
element vertex 385
property float x
property float y
property float z
property uchar red
property uchar green
property uchar blue
end_header
77.430455 -42.474882 -360.397637 0 120 255
77.187574 -42.528707 -357.936147 0 120 255
76.944692 -42.582531 -355.474657 0 120 255
76.701811 -42.636356 -353.013167 0 120 255
76.458929 -42.690181 -350.551678 0 120 255
76.218599 -42.750962 -348.090100 0 120 255
75.978380 -42.812048 -345.628518 0 120 255
75.738162 -42.873135 -343.166937 0 120 255
75.497944 -42.934221 -340.705355 0 120 255
75.518682 -43.437796 -338.288212 0 120 255
75.563192 -43.981680 -335.875116 0 120 255
75.607703 -44.525565 -333.462021 0 120 255
75.652214 -45.069450 -331.048926 0 120 255
75.940785 -45.964011 -328.766801 0 120 255
76.265062 -46.909874 -326.503837 0 120 255
76.589338 -47.855737 -324.240872 0 120 255
76.913614 -48.801600 -321.977907 0 120 255
77.452078 -50.013364 -319.896705 0 120 255
78.035070 -51.280405 -317.853290 0 120 255
78.618062 -52.547446 -315.809874 0 120 255
79.201054 -53.814487 -313.766459 0 120 255
79.961989 -55.272475 -311.926412 0 120 255
80.772169 -56.783306 -310.142646 0 120 255
81.582349 -58.294137 -308.358881 0 120 255
82.392529 -59.804968 -306.575116 0 120 255
83.344072 -61.445498 -304.995142 0 120 255
84.345650 -63.131936 -303.487299 0 120 255
85.347227 -64.818374 -301.979456 0 120 255
86.348805 -66.504812 -300.471614 0 120 255
87.458447 -68.273943 -299.154217 0 120 255
88.615737 -70.079536 -297.920794 0 120 255
89.773027 -71.885130 -296.687371 0 120 255
90.930318 -73.690723 -295.453947 0 120 255
92.167387 -75.544853 -294.389747 0 120 255
93.447505 -77.425173 -293.416857 0 120 255
94.727622 -79.305494 -292.443966 0 120 255
96.007740 -81.185814 -291.471076 0 120 255
97.344848 -83.091166 -290.642540 0 120 255
98.719132 -85.012848 -289.908166 0 120 255
100.093416 -86.934529 -289.173792 0 120 255
101.467699 -88.856211 -288.439418 0 120 255
102.881469 -90.787711 -287.823734 0 120 255
104.326129 -92.726893 -287.300902 0 120 255
105.770789 -94.666074 -286.778071 0 120 255
107.215449 -96.605256 -286.255239 0 120 255
108.686749 -98.545174 -285.826402 0 120 255
110.182928 -100.485779 -285.485343 0 120 255
111.679106 -102.426384 -285.144283 0 120 255
113.175284 -104.366990 -284.803224 0 120 255
114.689155 -106.303539 -284.533468 0 120 255
116.222712 -108.235576 -284.343059 0 120 255
117.756270 -110.167613 -284.152649 0 120 255
119.289827 -112.099650 -283.962240 0 120 255
120.835214 -114.025655 -283.822971 0 120 255
122.396303 -115.943656 -283.751584 0 120 255
123.957392 -117.861656 -283.680197 0 120 255
125.518481 -119.779657 -283.608809 0 120 255
127.087847 -121.691334 -283.571179 0 120 255
128.670367 -123.592964 -283.587200 0 120 255
130.252887 -125.494593 -283.603221 0 120 255
131.835408 -127.396222 -283.619242 0 120 255
133.424259 -129.292081 -283.654480 0 120 255
135.025241 -131.176884 -283.726542 0 120 255
136.626223 -133.061688 -283.798604 0 120 255
138.227205 -134.946491 -283.870666 0 120 255
139.833553 -136.826355 -283.950194 0 120 255
141.452431 -138.694683 -284.047160 0 120 255
143.071310 -140.563012 -284.144125 0 120 255
144.690188 -142.431340 -284.241090 0 120 255
146.313940 -144.295478 -284.336545 0 120 255
147.951793 -146.147494 -284.427628 0 120 255
149.589646 -147.999510 -284.518711 0 120 255
151.227499 -149.851526 -284.609793 0 120 255
152.869802 -151.699870 -284.693085 0 120 255
154.528442 -153.534739 -284.747775 0 120 255
156.187082 -155.369607 -284.802464 0 120 255
157.845722 -157.204476 -284.857154 0 120 255
159.508209 -159.035959 -284.900428 0 120 255
161.189271 -160.851092 -284.888568 0 120 255
162.870334 -162.666226 -284.876709 0 120 255
164.551396 -164.481359 -284.864850 0 120 255
166.235411 -166.293307 -284.840558 0 120 255
167.939317 -168.083794 -284.732488 0 120 255
169.643224 -169.874281 -284.624418 0 120 255
171.347130 -171.664768 -284.516348 0 120 255
173.052871 -173.452437 -284.397389 0 120 255
174.777827 -175.210567 -284.164311 0 120 255
176.502783 -176.968697 -283.931234 0 120 255
178.227739 -178.726827 -283.698156 0 120 255
179.953417 -180.483009 -283.458187 0 120 255
181.694345 -182.198068 -283.072743 0 120 255
183.435272 -183.913126 -282.687299 0 120 255
185.176199 -185.628185 -282.301854 0 120 255
186.917150 -187.343040 -281.915774 0 120 255
188.664765 -189.001304 -281.352902 0 120 255
190.412380 -190.659567 -280.790031 0 120 255
192.159995 -192.317831 -280.227159 0 120 255
193.907609 -193.976094 -279.664288 0 120 255
195.647991 -195.563900 -278.909883 0 120 255
197.388088 -197.148937 -278.147952 0 120 255
199.128185 -198.733974 -277.386020 0 120 255
200.868283 -200.319011 -276.624089 0 120 255
202.583426 -201.819592 -275.663202 0 120 255
204.296429 -203.312930 -274.685253 0 120 255
206.009432 -204.806267 -273.707304 0 120 255
207.722435 -206.299605 -272.729356 0 120 255
209.389663 -207.695073 -271.551725 0 120 255
211.050653 -209.077203 -270.346881 0 120 255
212.711643 -210.459333 -269.142038 0 120 255
214.372634 -211.841463 -267.937194 0 120 255
215.965032 -213.114202 -266.539025 0 120 255
217.544296 -214.365993 -265.103837 0 120 255
219.123560 -215.617785 -263.668650 0 120 255
220.702824 -216.869577 -262.233463 0 120 255
222.190155 -218.003550 -260.618232 0 120 255
223.654312 -219.107826 -258.957617 0 120 255
225.118468 -220.212101 -257.297002 0 120 255
226.582625 -221.316376 -255.636387 0 120 255
227.932666 -222.298613 -253.815314 0 120 255
229.246313 -223.241929 -251.943068 0 120 255
230.559960 -224.185245 -250.070821 0 120 255
231.873607 -225.128561 -248.198575 0 120 255
233.053848 -225.950533 -246.190547 0 120 255
234.181635 -226.724794 -244.129130 0 120 255
235.309422 -227.499054 -242.067714 0 120 255
236.437209 -228.273314 -240.006298 0 120 255
237.416711 -228.932115 -237.837189 0 120 255
238.325586 -229.535925 -235.616788 0 120 255
239.234461 -230.139734 -233.396387 0 120 255
240.143336 -230.743544 -231.175986 0 120 255
240.894504 -231.242699 -228.877397 0 120 255
241.555786 -231.682205 -226.534245 0 120 255
242.217068 -232.121711 -224.191093 0 120 255
242.878350 -232.561217 -221.847942 0 120 255
243.378525 -232.911030 -219.455530 0 120 255
243.769714 -233.200168 -217.029795 0 120 255
244.160902 -233.489306 -214.604059 0 120 255
244.552091 -233.778444 -212.178324 0 120 255
244.784671 -233.995868 -209.729888 0 120 255
244.890569 -234.156012 -207.263319 0 120 255
244.996467 -234.316156 -204.796751 0 120 255
245.102365 -234.476301 -202.330182 0 120 255
245.057498 -234.584336 -199.863767 0 120 255
244.870840 -234.643362 -197.397496 0 120 255
244.684182 -234.702389 -194.931224 0 120 255
244.497524 -234.761416 -192.464952 0 120 255
244.172210 -234.789535 -190.017202 0 120 255
243.693428 -234.783445 -187.589950 0 120 255
243.214646 -234.777355 -185.162698 0 120 255
242.735865 -234.771265 -182.735446 0 120 255
242.133898 -234.752847 -180.340293 0 120 255
241.371088 -234.718332 -177.987050 0 120 255
240.608279 -234.683816 -175.633808 0 120 255
239.845469 -234.649301 -173.280565 0 120 255
238.977171 -234.610168 -170.968541 0 120 255
237.945539 -234.563886 -168.720339 0 120 255
236.913906 -234.517604 -166.472137 0 120 255
235.882274 -234.471321 -164.223935 0 120 255
234.763386 -234.422095 -162.022023 0 120 255
233.483039 -234.367421 -159.905766 0 120 255
232.202692 -234.312746 -157.789509 0 120 255
230.922346 -234.258072 -155.673252 0 120 255
229.572170 -234.201065 -153.604779 0 120 255
228.065903 -234.138843 -151.643119 0 120 255
226.559637 -234.076621 -149.681458 0 120 255
225.053371 -234.014399 -147.719798 0 120 255
223.493215 -233.950397 -145.804387 0 120 255
221.785301 -233.881514 -144.015782 0 120 255
220.077387 -233.812631 -142.227178 0 120 255
218.369473 -233.743748 -140.438574 0 120 255
216.621792 -233.673587 -138.692164 0 120 255
214.737411 -233.599028 -137.090799 0 120 255
212.853030 -233.524469 -135.489434 0 120 255
210.968650 -233.449910 -133.888068 0 120 255
209.056555 -233.374471 -132.322896 0 120 255
207.021046 -233.295112 -130.918892 0 120 255
204.985537 -233.215754 -129.514889 0 120 255
202.950028 -233.136395 -128.110885 0 120 255
200.896640 -233.056490 -126.735736 0 120 255
198.734642 -232.973265 -125.535880 0 120 255
196.572643 -232.890041 -124.336024 0 120 255
194.410644 -232.806816 -123.136167 0 120 255
192.238443 -232.723295 -121.956940 0 120 255
189.973641 -232.637082 -120.964942 0 120 255
187.708838 -232.550868 -119.972945 0 120 255
185.444036 -232.464654 -118.980948 0 120 255
183.174640 -232.378318 -118.000895 0 120 255
180.829383 -232.289949 -117.218092 0 120 255
178.484126 -232.201581 -116.435289 0 120 255
176.138869 -232.113213 -115.652485 0 120 255
173.792722 -232.024823 -114.872802 0 120 255
171.387893 -231.935063 -114.298726 0 120 255
168.983064 -231.845302 -113.724650 0 120 255
166.578236 -231.755542 -113.150574 0 120 255
164.173407 -231.665781 -112.576499 0 120 255
161.729556 -231.575353 -112.203596 0 120 255
159.284612 -231.484906 -111.836324 0 120 255
156.839667 -231.394459 -111.469053 0 120 255
154.394723 -231.304012 -111.101781 0 120 255
151.929291 -231.213516 -110.924135 0 120 255
149.462329 -231.123016 -110.760636 0 120 255
146.995368 -231.032516 -110.597138 0 120 255
144.528407 -230.942016 -110.433640 0 120 255
142.056860 -230.852009 -110.447924 0 120 255
139.584738 -230.762064 -110.484550 0 120 255
137.112616 -230.672119 -110.521177 0 120 255
134.640493 -230.582174 -110.557804 0 120 255
132.177389 -230.493180 -110.760293 0 120 255
129.715925 -230.404359 -110.992937 0 120 255
127.254460 -230.315538 -111.225580 0 120 255
124.792995 -230.226716 -111.458224 0 120 255
122.352150 -230.139209 -111.844936 0 120 255
119.916333 -230.052023 -112.269214 0 120 255
117.480515 -229.964837 -112.693493 0 120 255
115.044698 -229.877650 -113.117771 0 120 255
112.639376 -229.792104 -113.684590 0 120 255
110.243590 -229.707072 -114.295983 0 120 255
107.847805 -229.622039 -114.907376 0 120 255
105.452019 -229.537006 -115.518768 0 120 255
103.095119 -229.453883 -116.261483 0 120 255
100.753371 -229.371504 -117.055364 0 120 255
98.411622 -229.289125 -117.849246 0 120 255
96.069873 -229.206746 -118.643127 0 120 255
93.774107 -229.126480 -119.557416 0 120 255
91.500233 -229.047220 -120.529030 0 120 255
89.226358 -228.967959 -121.500643 0 120 255
86.952484 -228.888699 -122.472256 0 120 255
84.730534 -228.811748 -123.553633 0 120 255
82.538389 -228.736121 -124.698009 0 120 255
80.346243 -228.660495 -125.842386 0 120 255
78.154097 -228.584869 -126.986763 0 120 255
76.018780 -228.511679 -128.230505 0 120 255
73.922428 -228.440158 -129.542380 0 120 255
71.826077 -228.368637 -130.854255 0 120 255
69.729725 -228.297116 -132.166129 0 120 255
67.694074 -228.228144 -133.567100 0 120 255
65.707851 -228.161247 -135.040621 0 120 255
63.721628 -228.094350 -136.514142 0 120 255
61.735405 -228.027454 -137.987663 0 120 255
59.812673 -227.963158 -139.540048 0 120 255
57.951147 -227.901369 -141.168459 0 120 255
56.089621 -227.839580 -142.796871 0 120 255
54.228095 -227.777791 -144.425282 0 120 255
52.431617 -227.718629 -146.122276 0 120 255
50.709321 -227.662462 -147.897483 0 120 255
48.987025 -227.606296 -149.672691 0 120 255
47.264729 -227.550129 -151.447899 0 120 255
45.607707 -227.496559 -153.281438 0 120 255
44.038898 -227.446498 -155.193806 0 120 255
42.470089 -227.396437 -157.106174 0 120 255
40.901281 -227.346376 -159.018543 0 120 255
39.396510 -227.298825 -160.979124 0 120 255
37.994725 -227.255310 -163.017243 0 120 255
36.592941 -227.211795 -165.055362 0 120 255
35.191157 -227.168280 -167.093480 0 120 255
33.850671 -227.127141 -169.170046 0 120 255
32.628346 -227.090583 -171.320721 0 120 255
31.406021 -227.054025 -173.471396 0 120 255
30.183695 -227.017467 -175.622072 0 120 255
29.018452 -226.983100 -177.802031 0 120 255
27.986549 -226.953851 -180.050395 0 120 255
26.954646 -226.924602 -182.298759 0 120 255
25.922743 -226.895353 -184.547123 0 120 255
24.942375 -226.868059 -186.816492 0 120 255
24.110248 -226.846392 -189.146281 0 120 255
23.278122 -226.824725 -191.476070 0 120 255
22.445995 -226.803058 -193.805859 0 120 255
21.658735 -226.783075 -196.149496 0 120 255
21.034144 -226.769197 -198.543346 0 120 255
20.409554 -226.755319 -200.937195 0 120 255
19.784964 -226.741440 -203.331045 0 120 255
19.197611 -226.728950 -205.732879 0 120 255
18.786517 -226.723029 -208.172507 0 120 255
18.375424 -226.717108 -210.612136 0 120 255
17.964330 -226.711187 -213.051764 0 120 255
17.582116 -226.706332 -215.494952 0 120 255
17.388691 -226.708450 -217.961407 0 120 255
17.195267 -226.710567 -220.427863 0 120 255
17.001843 -226.712685 -222.894319 0 120 255
16.828431 -226.715533 -225.361448 0 120 255
16.855064 -226.725689 -227.835313 0 120 255
16.881697 -226.735846 -230.309178 0 120 255
16.908329 -226.746002 -232.783043 0 120 255
16.945820 -226.756551 -235.256303 0 120 255
17.193074 -226.774693 -237.717879 0 120 255
17.440328 -226.792836 -240.179455 0 120 255
17.687583 -226.810978 -242.641031 0 120 255
17.936484 -226.829179 -245.102366 0 120 255
18.402931 -226.855205 -247.531887 0 120 255
18.869378 -226.881230 -249.961408 0 120 255
19.335825 -226.907255 -252.390928 0 120 255
19.802272 -226.933280 -254.820449 0 120 255
20.476887 -226.966691 -257.200150 0 120 255
21.158867 -227.000364 -259.578088 0 120 255
21.840847 -227.034037 -261.956026 0 120 255
22.522827 -227.067709 -264.333964 0 120 255
23.398336 -227.108202 -266.646806 0 120 255
24.289730 -227.149255 -268.954305 0 120 255
25.181124 -227.190308 -271.261804 0 120 255
26.072518 -227.231361 -273.569303 0 120 255
27.141245 -227.278587 -275.798970 0 120 255
28.233592 -227.326635 -278.018269 0 120 255
29.325939 -227.374683 -280.237569 0 120 255
30.418286 -227.422730 -282.456868 0 120 255
31.670589 -227.476275 -284.588388 0 120 255
32.953199 -227.530861 -286.703276 0 120 255
34.235809 -227.585446 -288.818164 0 120 255
35.518419 -227.640032 -290.933053 0 120 255
36.942885 -227.699417 -292.953167 0 120 255
38.403048 -227.760010 -294.949432 0 120 255
39.863210 -227.820603 -296.945696 0 120 255
41.323373 -227.881196 -298.941961 0 120 255
42.907133 -227.945934 -300.839406 0 120 255
44.530532 -228.012002 -302.705159 0 120 255
46.153931 -228.078069 -304.570911 0 120 255
47.777329 -228.144137 -306.436663 0 120 255
49.506423 -228.213669 -308.202389 0 120 255
51.277578 -228.284579 -309.928310 0 120 255
53.048733 -228.355489 -311.654231 0 120 255
54.819888 -228.426399 -313.380152 0 120 255
56.679646 -228.500227 -315.007464 0 120 255
58.582367 -228.575468 -316.586962 0 120 255
60.485087 -228.650710 -318.166459 0 120 255
62.387808 -228.725952 -319.745957 0 120 255
64.363266 -228.803529 -321.230552 0 120 255
66.381165 -228.882469 -322.659772 0 120 255
68.399065 -228.961409 -324.088993 0 120 255
70.416964 -229.040348 -325.518214 0 120 255
72.493218 -229.121135 -326.858194 0 120 255
74.610099 -229.203208 -328.136043 0 120 255
76.726980 -229.285281 -329.413893 0 120 255
78.843861 -229.367354 -330.691742 0 120 255
81.006305 -229.449843 -331.887822 0 120 255
83.206406 -229.532675 -333.016325 0 120 255
85.406506 -229.615507 -334.144827 0 120 255
87.606607 -229.698338 -335.273329 0 120 255
89.840796 -229.775759 -336.330232 0 120 255
92.108339 -229.847884 -337.317079 0 120 255
94.375882 -229.920009 -338.303926 0 120 255
96.643425 -229.992134 -339.290772 0 120 255
98.935712 -230.053930 -340.216669 0 120 255
101.256660 -230.103763 -341.071970 0 120 255
103.577608 -230.153597 -341.927271 0 120 255
105.898555 -230.203430 -342.782571 0 120 255
108.236918 -230.240369 -343.587142 0 120 255
110.599212 -230.259589 -344.322001 0 120 255
112.961506 -230.278809 -345.056860 0 120 255
115.323800 -230.298028 -345.791719 0 120 255
117.697857 -230.303312 -346.485505 0 120 255
120.091182 -230.285767 -347.112009 0 120 255
122.484507 -230.268221 -347.738512 0 120 255
124.877833 -230.250676 -348.365016 0 120 255
127.278686 -230.219378 -348.959340 0 120 255
129.694357 -230.161010 -349.490327 0 120 255
132.110028 -230.102643 -350.021313 0 120 255
134.525700 -230.044275 -350.552300 0 120 255
136.945850 -229.973279 -351.059072 0 120 255
139.376722 -229.872060 -351.507892 0 120 255
141.807593 -229.770841 -351.956712 0 120 255
144.238464 -229.669623 -352.405532 0 120 255
146.671735 -229.557581 -352.837053 0 120 255
149.112109 -229.413498 -353.217362 0 120 255
151.552483 -229.269415 -353.597670 0 120 255
153.992858 -229.125333 -353.977978 0 120 255
156.434312 -228.972642 -354.346796 0 120 255
158.879825 -228.787620 -354.672454 0 120 255
161.325338 -228.602598 -354.998113 0 120 255
163.770851 -228.417577 -355.323771 0 120 255
166.216670 -228.226487 -355.642966 0 120 255
168.664004 -228.005354 -355.930154 0 120 255
171.111338 -227.784221 -356.217341 0 120 255
173.558672 -227.563087 -356.504529 0 120 255
176.005966 -227.340659 -356.791033 0 120 255
178.452981 -227.109240 -357.072782 0 120 255
180.899996 -226.877821 -357.354531 0 120 255
183.347012 -226.646403 -357.636280 0 120 255
185.794027 -226.414983 -357.918030 0 120 255
188.241039 -226.183553 -358.199791 0 120 255
190.688052 -225.952123 -358.481552 0 120 255
193.135065 -225.720693 -358.763314 0 120 255
195.582077 -225.489264 -359.045075 0 120 255
198.029091 -225.257838 -359.326829 0 120 255
200.476105 -225.026412 -359.608583 0 120 255
202.923119 -224.794986 -359.890337 0 120 255
205.370133 -224.563560 -360.172091 0 120 255
