ply
format ascii 1.0
element vertex 385
property float x
property float y
property float z
property uchar red
property uchar green
property uchar blue
end_header
77.430455 -42.474882 -360.397637 0 120 255
77.187541 -42.528714 -357.935813 0 120 255
76.944626 -42.582546 -355.473990 0 120 255
76.701712 -42.636378 -353.012166 0 120 255
76.458797 -42.690210 -350.550343 0 120 255
76.214142 -42.756125 -348.088987 0 120 255
75.969412 -42.822562 -345.627651 0 120 255
75.724682 -42.889000 -343.166315 0 120 255
75.479952 -42.955437 -340.704980 0 120 255
75.143455 -43.141403 -338.261098 0 120 255
74.798540 -43.338332 -335.818818 0 120 255
74.453625 -43.535262 -333.376538 0 120 255
74.108710 -43.732191 -330.934258 0 120 255
73.683267 -44.025321 -328.514931 0 120 255
73.245894 -44.332705 -326.099004 0 120 255
72.808520 -44.640088 -323.683078 0 120 255
72.371146 -44.947472 -321.267152 0 120 255
71.861844 -45.340204 -318.878413 0 120 255
71.337379 -45.750928 -316.495406 0 120 255
70.812914 -46.161653 -314.112400 0 120 255
70.288448 -46.572377 -311.729393 0 120 255
69.699841 -47.058194 -309.376307 0 120 255
69.093226 -47.565093 -307.031621 0 120 255
68.486611 -48.071991 -304.686934 0 120 255
67.879996 -48.578889 -302.342248 0 120 255
67.216207 -49.151317 -300.029000 0 120 255
66.531880 -49.747287 -297.727045 0 120 255
65.847552 -50.343257 -295.425090 0 120 255
65.163224 -50.939226 -293.123135 0 120 255
64.427909 -51.591920 -290.853176 0 120 255
63.669751 -52.270026 -288.597550 0 120 255
62.911593 -52.948132 -286.341923 0 120 255
62.153435 -53.626239 -284.086297 0 120 255
61.349770 -54.353042 -281.862480 0 120 255
60.521119 -55.106582 -279.656126 0 120 255
59.692468 -55.860122 -277.449773 0 120 255
58.863817 -56.613662 -275.243419 0 120 255
57.994495 -57.408649 -273.068133 0 120 255
57.098117 -58.231205 -270.913513 0 120 255
56.201740 -59.053762 -268.758893 0 120 255
55.305363 -59.876319 -266.604273 0 120 255
54.372592 -60.733833 -264.479577 0 120 255
53.410704 -61.619314 -262.378820 0 120 255
52.448817 -62.504795 -260.278064 0 120 255
51.486930 -63.390275 -258.177307 0 120 255
50.492462 -64.304945 -256.105043 0 120 255
49.466769 -65.247588 -254.060083 0 120 255
48.441077 -66.190231 -252.015124 0 120 255
47.415384 -67.132873 -249.970164 0 120 255
46.360549 -68.099613 -247.952058 0 120 255
45.272294 -69.093988 -245.964749 0 120 255
44.184038 -70.088363 -243.977440 0 120 255
43.095782 -71.082738 -241.990131 0 120 255
41.981525 -72.096747 -240.027894 0 120 255
40.831518 -73.137752 -238.100131 0 120 255
39.681510 -74.178758 -236.172367 0 120 255
38.531502 -75.219763 -234.244604 0 120 255
37.358417 -76.276520 -232.340022 0 120 255
36.147099 -77.359375 -230.473847 0 120 255
34.935780 -78.442230 -228.607671 0 120 255
33.724461 -79.525085 -226.741495 0 120 255
32.492842 -80.620335 -224.896507 0 120 255
31.220350 -81.740542 -223.094181 0 120 255
29.947857 -82.860750 -221.291856 0 120 255
28.675364 -83.980957 -219.489530 0 120 255
27.385258 -85.110684 -217.706295 0 120 255
26.051477 -86.264015 -215.970399 0 120 255
24.717696 -87.417346 -214.234503 0 120 255
23.383915 -88.570677 -212.498607 0 120 255
22.035169 -89.731090 -210.779575 0 120 255
20.639820 -90.913557 -209.113066 0 120 255
19.244471 -92.096023 -207.446557 0 120 255
17.849121 -93.278490 -205.780048 0 120 255
16.441452 -94.465997 -204.128013 0 120 255
14.984147 -95.673811 -202.534298 0 120 255
13.526842 -96.881624 -200.940583 0 120 255
12.069536 -98.089438 -199.346868 0 120 255
10.602583 -99.300614 -197.765021 0 120 255
9.082935 -100.530151 -196.247988 0 120 255
7.563287 -101.759688 -194.730955 0 120 255
6.043639 -102.989225 -193.213922 0 120 255
4.517048 -104.220782 -191.705877 0 120 255
2.934742 -105.468548 -190.269956 0 120 255
1.352437 -106.716314 -188.834035 0 120 255
-0.229868 -107.964081 -187.398113 0 120 255
-1.816382 -109.212841 -185.967964 0 120 255
-3.461484 -110.475438 -184.618160 0 120 255
-5.106586 -111.738034 -183.268357 0 120 255
-6.751687 -113.000631 -181.918553 0 120 255
-8.398254 -114.263497 -180.570894 0 120 255
-10.106002 -115.537572 -179.312797 0 120 255
-11.813750 -116.811648 -178.054700 0 120 255
-13.521498 -118.085724 -176.796603 0 120 255
-15.229246 -119.359799 -175.538506 0 120 255
-16.997842 -120.641843 -174.376332 0 120 255
-18.767687 -121.924050 -173.216128 0 120 255
-20.537532 -123.206257 -172.055923 0 120 255
-22.307377 -124.488464 -170.895719 0 120 255
-24.134371 -125.775124 -169.833549 0 120 255
-25.965235 -127.062087 -168.778019 0 120 255
-27.796099 -128.349049 -167.722489 0 120 255
-29.626963 -129.636012 -166.666959 0 120 255
-31.510785 -130.924140 -165.711504 0 120 255
-33.400923 -132.212406 -164.767985 0 120 255
-35.291061 -133.500673 -163.824467 0 120 255
-37.181199 -134.788940 -162.880948 0 120 255
-39.119576 -136.075287 -162.039374 0 120 255
-41.066435 -137.361297 -161.215724 0 120 255
-43.013294 -138.647307 -160.392074 0 120 255
-44.960152 -139.933317 -159.568423 0 120 255
-46.949992 -141.214501 -158.848292 0 120 255
-48.950064 -142.494536 -158.152804 0 120 255
-50.950136 -143.774571 -157.457317 0 120 255
-52.950208 -145.054606 -156.761829 0 120 255
-54.987453 -146.327097 -156.171002 0 120 255
-57.036107 -147.597272 -155.612295 0 120 255
-59.084761 -148.867446 -155.053588 0 120 255
-61.133415 -150.137621 -154.494881 0 120 255
-63.212934 -151.397702 -154.041425 0 120 255
-65.304290 -152.653913 -153.628331 0 120 255
-67.395646 -153.910123 -153.215237 0 120 255
-69.487002 -155.166333 -152.802143 0 120 255
-71.602459 -156.410100 -152.494189 0 120 255
-73.729222 -157.648028 -152.235559 0 120 255
-75.855986 -158.885957 -151.976929 0 120 255
-77.982750 -160.123885 -151.718300 0 120 255
-80.126491 -161.347234 -151.563876 0 120 255
-82.279835 -162.562336 -151.468384 0 120 255
-84.433178 -163.777438 -151.372892 0 120 255
-86.586521 -164.992541 -151.277400 0 120 255
-88.749486 -166.191168 -151.284224 0 120 255
-90.918943 -167.378678 -151.360096 0 120 255
-93.088401 -168.566187 -151.435968 0 120 255
-95.257858 -169.753696 -151.511840 0 120 255
-97.429501 -170.923125 -151.687103 0 120 255
-99.602893 -172.078090 -151.941864 0 120 255
-101.776285 -173.233056 -152.196625 0 120 255
-103.949676 -174.388022 -152.451385 0 120 255
-106.117935 -175.523627 -152.801490 0 120 255
-108.281349 -176.640951 -153.241612 0 120 255
-110.444762 -177.758276 -153.681734 0 120 255
-112.608176 -178.875601 -154.121856 0 120 255
-114.759473 -179.972663 -154.652135 0 120 255
-116.897289 -181.047178 -155.282720 0 120 255
-119.035105 -182.121694 -155.913306 0 120 255
-121.172921 -183.196210 -156.543891 0 120 255
-123.292220 -184.249974 -157.258314 0 120 255
-125.387227 -185.276514 -158.082715 0 120 255
-127.482235 -186.303055 -158.907117 0 120 255
-129.577243 -187.329595 -159.731519 0 120 255
-131.648167 -188.335360 -160.632382 0 120 255
-133.681733 -189.308896 -161.651850 0 120 255
-135.715299 -190.282433 -162.671318 0 120 255
-137.748865 -191.255969 -163.690787 0 120 255
-139.753868 -192.209196 -164.778428 0 120 255
-141.706196 -193.124966 -165.991796 0 120 255
-143.658524 -194.040737 -167.205163 0 120 255
-145.610852 -194.956507 -168.418531 0 120 255
-147.531471 -195.852935 -169.691059 0 120 255
-149.381967 -196.706587 -171.094420 0 120 255
-151.232463 -197.560240 -172.497781 0 120 255
-153.082959 -198.413892 -173.901142 0 120 255
-154.900135 -199.249661 -175.354198 0 120 255
-156.627831 -200.037407 -176.940704 0 120 255
-158.355527 -200.825153 -178.527211 0 120 255
-160.083223 -201.612899 -180.113718 0 120 255
-161.777672 -202.384692 -181.740311 0 120 255
-163.361713 -203.103506 -183.500027 0 120 255
-164.945754 -203.822319 -185.259743 0 120 255
-166.529795 -204.541133 -187.019460 0 120 255
-168.082440 -205.246327 -188.809868 0 120 255
-169.502644 -205.894071 -190.729745 0 120 255
-170.922848 -206.541815 -192.649622 0 120 255
-172.343053 -207.189559 -194.569499 0 120 255
-173.735494 -207.826343 -196.511263 0 120 255
-174.972946 -208.401946 -198.575209 0 120 255
-176.210398 -208.977549 -200.639155 0 120 255
-177.447850 -209.553152 -202.703101 0 120 255
-178.662863 -210.120667 -204.781103 0 120 255
-179.700439 -210.624227 -206.970245 0 120 255
-180.738015 -211.127787 -209.159387 0 120 255
-181.775590 -211.631347 -211.348530 0 120 255
-182.797578 -212.129772 -213.545215 0 120 255
-183.620515 -212.562627 -215.838224 0 120 255
-184.443452 -212.995483 -218.131233 0 120 255
-185.266390 -213.428338 -220.424242 0 120 255
-186.081854 -213.858949 -222.719908 0 120 255
-186.678203 -214.223762 -225.093462 0 120 255
-187.274551 -214.588574 -227.467017 0 120 255
-187.870900 -214.953386 -229.840571 0 120 255
-188.467248 -215.318199 -232.214126 0 120 255
-188.829808 -215.619366 -234.643099 0 120 255
-189.190793 -215.920104 -237.072446 0 120 255
-189.551777 -216.220842 -239.501793 0 120 255
-189.912761 -216.521580 -241.931140 0 120 255
-190.044190 -216.766181 -244.389314 0 120 255
-190.164441 -217.008048 -246.848891 0 120 255
-190.284691 -217.249915 -249.308469 0 120 255
-190.404942 -217.491782 -251.768046 0 120 255
-190.303562 -217.685688 -254.231731 0 120 255
-190.181259 -217.875067 -256.695805 0 120 255
-190.058957 -218.064446 -259.159878 0 120 255
-189.936654 -218.253825 -261.623952 0 120 255
-189.603872 -218.403800 -264.069882 0 120 255
-189.240689 -218.548084 -266.513191 0 120 255
-188.877506 -218.692368 -268.956500 0 120 255
-188.514323 -218.836652 -271.399810 0 120 255
-187.954483 -218.950226 -273.805632 0 120 255
-187.355421 -219.057675 -276.203977 0 120 255
-186.756360 -219.165125 -278.602322 0 120 255
-186.157298 -219.272574 -281.000667 0 120 255
-185.377479 -219.357890 -283.345386 0 120 255
-184.550629 -219.437447 -285.676152 0 120 255
-183.723780 -219.517004 -288.006919 0 120 255
-182.896930 -219.596562 -290.337685 0 120 255
-181.906416 -219.662799 -292.601904 0 120 255
-180.862275 -219.724673 -294.844318 0 120 255
-179.818133 -219.786546 -297.086732 0 120 255
-178.773992 -219.848419 -299.329146 0 120 255
-177.584099 -219.906427 -301.495332 0 120 255
-176.335456 -219.962878 -303.630790 0 120 255
-175.086812 -220.019328 -305.766248 0 120 255
-173.838169 -220.075779 -307.901707 0 120 255
-172.462635 -220.134274 -309.954950 0 120 255
-171.025172 -220.193766 -311.968067 0 120 255
-169.587708 -220.253259 -313.981183 0 120 255
-168.150244 -220.312751 -315.994300 0 120 255
-166.604732 -220.375362 -317.922753 0 120 255
-164.996054 -220.439794 -319.801711 0 120 255
-163.387375 -220.504227 -321.680669 0 120 255
-161.778697 -220.568659 -323.559627 0 120 255
-160.079653 -220.636483 -325.354202 0 120 255
-158.317819 -220.706663 -327.090145 0 120 255
-156.555986 -220.776842 -328.826087 0 120 255
-154.794152 -220.847022 -330.562030 0 120 255
-152.958205 -220.919854 -332.216257 0 120 255
-151.061348 -220.994866 -333.803326 0 120 255
-149.164491 -221.069878 -335.390395 0 120 255
-147.267635 -221.144890 -336.977464 0 120 255
-145.311158 -221.221859 -338.487269 0 120 255
-143.296858 -221.300725 -339.922142 0 120 255
-141.282559 -221.379592 -341.357014 0 120 255
-139.268259 -221.458458 -342.791886 0 120 255
-137.207034 -221.538790 -344.155343 0 120 255
-135.092092 -221.620800 -345.437052 0 120 255
-132.977151 -221.702809 -346.718760 0 120 255
-130.862209 -221.784818 -348.000469 0 120 255
-128.711226 -221.867901 -349.217615 0 120 255
-126.511430 -221.952438 -350.347319 0 120 255
-124.311635 -222.036975 -351.477024 0 120 255
-122.111839 -222.121512 -352.606728 0 120 255
-119.885124 -222.206815 -353.679357 0 120 255
-117.615064 -222.293352 -354.660079 0 120 255
-115.345003 -222.379888 -355.640801 0 120 255
-113.074942 -222.466425 -356.621523 0 120 255
-110.785410 -222.553484 -357.552930 0 120 255
-108.458308 -222.641552 -358.389183 0 120 255
-106.131205 -222.729620 -359.225436 0 120 255
-103.804103 -222.817687 -360.061690 0 120 255
-101.463464 -222.906090 -360.856431 0 120 255
-99.091164 -222.995275 -361.554083 0 120 255
-96.718864 -223.084460 -362.251736 0 120 255
-94.346564 -223.173646 -362.949389 0 120 255
-91.965306 -223.263025 -363.613134 0 120 255
-89.558226 -223.352963 -364.179135 0 120 255
-87.151146 -223.442900 -364.745137 0 120 255
-84.744066 -223.532838 -365.311138 0 120 255
-82.331425 -223.622877 -365.850417 0 120 255
-79.898539 -223.713280 -366.292428 0 120 255
-77.465653 -223.803683 -366.734439 0 120 255
-75.032767 -223.894086 -367.176450 0 120 255
-72.596727 -223.984526 -367.598402 0 120 255
-70.145650 -224.075140 -367.924731 0 120 255
-67.694573 -224.165754 -368.251059 0 120 255
-65.243496 -224.256369 -368.577388 0 120 255
-62.790861 -224.346982 -368.889692 0 120 255
-60.327910 -224.437588 -369.109114 0 120 255
-57.864960 -224.528193 -369.328536 0 120 255
-55.402010 -224.618799 -369.547958 0 120 255
-52.938457 -224.709392 -369.758682 0 120 255
-50.468739 -224.799851 -369.880281 0 120 255
-47.999020 -224.890311 -370.001880 0 120 255
-45.529301 -224.980771 -370.123479 0 120 255
-43.059453 -225.071219 -370.240955 0 120 255
-40.586955 -225.161437 -370.274082 0 120 255
-38.114458 -225.251654 -370.307209 0 120 255
-35.641960 -225.341872 -370.340336 0 120 255
-33.169464 -225.432088 -370.373128 0 120 255
-30.697160 -225.522005 -370.327222 0 120 255
-28.224855 -225.611922 -370.281316 0 120 255
-25.752551 -225.701839 -370.235410 0 120 255
-23.280247 -225.791757 -370.189504 0 120 255
-20.810120 -225.881346 -370.076605 0 120 255
-18.340078 -225.970922 -369.961050 0 120 255
-15.870037 -226.060498 -369.845494 0 120 255
-13.399996 -226.150074 -369.729939 0 120 255
-10.933211 -226.239325 -369.559005 0 120 255
-8.466712 -226.328549 -369.383221 0 120 255
-6.000213 -226.417772 -369.207436 0 120 255
-3.533713 -226.506995 -369.031651 0 120 255
-1.070839 -226.595928 -368.811334 0 120 255
1.391528 -226.684819 -368.584771 0 120 255
3.853894 -226.773711 -368.358208 0 120 255
6.316260 -226.862603 -368.131646 0 120 255
8.775167 -226.951240 -367.870569 0 120 255
11.233389 -227.039827 -367.602649 0 120 255
13.691610 -227.128414 -367.334729 0 120 255
16.149831 -227.217001 -367.066809 0 120 255
18.605128 -227.305387 -366.773529 0 120 255
21.059657 -227.393721 -366.473590 0 120 255
23.514187 -227.482054 -366.173650 0 120 255
25.968716 -227.570388 -365.873711 0 120 255
28.421087 -227.658613 -365.556733 0 120 255
30.872736 -227.746801 -365.234061 0 120 255
33.324386 -227.834989 -364.911389 0 120 255
35.776035 -227.923178 -364.588717 0 120 255
38.226418 -228.011272 -364.256591 0 120 255
40.676275 -228.099327 -363.920547 0 120 255
43.126133 -228.187382 -363.584504 0 120 255
45.575990 -228.275437 -363.248461 0 120 255
48.025449 -228.363320 -362.909485 0 120 255
50.474706 -228.451115 -362.569029 0 120 255
52.923964 -228.538911 -362.228573 0 120 255
55.373221 -228.626706 -361.888117 0 120 255
57.822915 -228.714199 -361.550747 0 120 255
60.272874 -228.801507 -361.215249 0 120 255
62.722833 -228.888815 -360.879752 0 120 255
65.172792 -228.976123 -360.544254 0 120 255
67.623938 -229.062475 -360.217373 0 120 255
70.075944 -229.148135 -359.896730 0 120 255
72.527949 -229.233795 -359.576087 0 120 255
74.979954 -229.319455 -359.255444 0 120 255
77.433664 -229.400817 -358.947189 0 120 255
79.888835 -229.478491 -358.649565 0 120 255
82.344007 -229.556165 -358.351941 0 120 255
84.799178 -229.633839 -358.054317 0 120 255
87.256330 -229.703612 -357.771980 0 120 255
89.715490 -229.765367 -357.505152 0 120 255
92.174650 -229.827123 -357.238324 0 120 255
94.633810 -229.888878 -356.971496 0 120 255
97.094966 -229.940746 -356.722502 0 120 255
99.558515 -229.980759 -356.494892 0 120 255
102.022064 -230.020772 -356.267282 0 120 255
104.485613 -230.060784 -356.039673 0 120 255
106.950908 -230.089784 -355.831741 0 120 255
109.418682 -230.103142 -355.651761 0 120 255
111.886456 -230.116499 -355.471781 0 120 255
114.354230 -230.129857 -355.291800 0 120 255
116.823275 -230.131683 -355.132644 0 120 255
119.294470 -230.114014 -355.008695 0 120 255
121.765665 -230.096345 -354.884747 0 120 255
124.236860 -230.078676 -354.760798 0 120 255
126.708681 -230.049505 -354.658108 0 120 255
129.181771 -229.997002 -354.598537 0 120 255
131.654862 -229.944499 -354.538966 0 120 255
134.127952 -229.891996 -354.479395 0 120 255
136.600921 -229.828498 -354.440814 0 120 255
139.073593 -229.737928 -354.453906 0 120 255
141.546265 -229.647359 -354.466999 0 120 255
144.018937 -229.556790 -354.480092 0 120 255
146.490723 -229.456144 -354.513188 0 120 255
148.959819 -229.324873 -354.607074 0 120 255
151.428914 -229.193602 -354.700960 0 120 255
153.898010 -229.062331 -354.794846 0 120 255
156.365534 -228.922246 -354.907040 0 120 255
158.827011 -228.748271 -355.089631 0 120 255
161.288489 -228.574296 -355.272222 0 120 255
163.749967 -228.400321 -355.454813 0 120 255
166.209252 -228.218890 -355.654193 0 120 255
168.657462 -227.999811 -355.938362 0 120 255
171.105672 -227.780732 -356.222532 0 120 255
173.553882 -227.561652 -356.506701 0 120 255
176.001985 -227.341035 -356.790574 0 120 255
178.449332 -227.109585 -357.072361 0 120 255
180.896679 -226.878135 -357.354149 0 120 255
183.344026 -226.646685 -357.635936 0 120 255
185.791373 -226.415234 -357.917724 0 120 255
188.238717 -226.183773 -358.199524 0 120 255
190.686061 -225.952311 -358.481323 0 120 255
193.133406 -225.720850 -358.763123 0 120 255
195.580750 -225.489389 -359.044922 0 120 255
198.028096 -225.257932 -359.326714 0 120 255
200.475442 -225.026475 -359.608506 0 120 255
202.922788 -224.795017 -359.890299 0 120 255
205.370133 -224.563560 -360.172091 0 120 255
