ply
format ascii 1.0
element vertex 385
property float x
property float y
property float z
property uchar red
property uchar green
property uchar blue
end_header
77.430455 -42.474882 -360.397637 0 120 255
77.187462 -42.528731 -357.935012 0 120 255
76.944468 -42.582581 -355.472387 0 120 255
76.701475 -42.636431 -353.009762 0 120 255
76.458481 -42.690280 -350.547137 0 120 255
76.212474 -42.785648 -348.086084 0 120 255
75.966341 -42.882753 -345.625097 0 120 255
75.720209 -42.979857 -343.164110 0 120 255
75.474076 -43.076961 -340.703123 0 120 255
75.364945 -43.382273 -338.250426 0 120 255
75.268191 -43.706395 -335.798477 0 120 255
75.171437 -44.030516 -333.346529 0 120 255
75.074682 -44.354637 -330.894581 0 120 255
75.100739 -44.839678 -328.468878 0 120 255
75.145926 -45.349788 -326.047264 0 120 255
75.191114 -45.859897 -323.625650 0 120 255
75.236302 -46.370007 -321.204036 0 120 255
75.388438 -47.030850 -318.825318 0 120 255
75.565250 -47.726474 -316.456497 0 120 255
75.742063 -48.422098 -314.087676 0 120 255
75.918875 -49.117721 -311.718855 0 120 255
76.187802 -49.951542 -309.406033 0 120 255
76.485943 -50.829193 -307.110972 0 120 255
76.784084 -51.706844 -304.815910 0 120 255
77.082225 -52.584494 -302.520848 0 120 255
77.458941 -53.586237 -300.291441 0 120 255
77.868470 -54.639799 -298.089451 0 120 255
78.277998 -55.693360 -295.887460 0 120 255
78.687526 -56.746921 -293.685469 0 120 255
79.163532 -57.909589 -291.555547 0 120 255
79.675125 -59.130663 -289.464203 0 120 255
80.186719 -60.351737 -287.372860 0 120 255
80.698312 -61.572811 -285.281516 0 120 255
81.265761 -62.887717 -283.265679 0 120 255
81.870905 -64.265947 -281.300800 0 120 255
82.476049 -65.644177 -279.335921 0 120 255
83.081193 -67.022406 -277.371042 0 120 255
83.733004 -68.479411 -275.482450 0 120 255
84.424131 -70.002781 -273.658127 0 120 255
85.115258 -71.526152 -271.833804 0 120 255
85.806385 -73.049522 -270.009481 0 120 255
86.536329 -74.637246 -268.259905 0 120 255
87.306920 -76.292358 -266.588600 0 120 255
88.077511 -77.947471 -264.917295 0 120 255
88.848102 -79.602583 -263.245990 0 120 255
89.650844 -81.308580 -261.645887 0 120 255
90.495447 -83.080827 -260.138488 0 120 255
91.340049 -84.853074 -258.631088 0 120 255
92.184652 -86.625322 -257.123688 0 120 255
93.055754 -88.436197 -255.682257 0 120 255
93.969979 -90.309936 -254.348179 0 120 255
94.884204 -92.183674 -253.014101 0 120 255
95.798430 -94.057413 -251.680024 0 120 255
96.734332 -95.958939 -250.405285 0 120 255
97.714807 -97.917601 -249.252558 0 120 255
98.695282 -99.876263 -248.099831 0 120 255
99.675757 -101.834925 -246.947104 0 120 255
100.673733 -103.812102 -245.845956 0 120 255
101.718015 -105.838263 -244.881273 0 120 255
102.762296 -107.864425 -243.916590 0 120 255
103.806577 -109.890586 -242.951907 0 120 255
104.864280 -111.927587 -242.029361 0 120 255
105.969030 -114.002586 -241.254522 0 120 255
107.073780 -116.077585 -240.479683 0 120 255
108.178530 -118.152583 -239.704845 0 120 255
109.293486 -120.232759 -238.963057 0 120 255
110.458172 -122.338158 -238.382310 0 120 255
111.622858 -124.443558 -237.801564 0 120 255
112.787544 -126.548958 -237.220817 0 120 255
113.959605 -128.655675 -236.664231 0 120 255
115.185769 -130.772063 -236.284898 0 120 255
116.411932 -132.888450 -235.905564 0 120 255
117.638096 -135.004838 -235.526230 0 120 255
118.868601 -137.120530 -235.161278 0 120 255
120.156290 -139.227072 -234.985756 0 120 255
121.443979 -141.333613 -234.810235 0 120 255
122.731668 -143.440155 -234.634713 0 120 255
124.020724 -145.545993 -234.463737 0 120 255
125.369987 -147.620866 -234.492962 0 120 255
126.719251 -149.695740 -234.522187 0 120 255
128.068515 -151.770614 -234.551412 0 120 255
129.417779 -153.845487 -234.580637 0 120 255
130.826893 -155.867273 -234.808818 0 120 255
132.237544 -157.887695 -235.042108 0 120 255
133.648195 -159.908117 -235.275399 0 120 255
135.058847 -161.928540 -235.508690 0 120 255
136.525892 -163.876372 -235.929243 0 120 255
137.997253 -165.818650 -236.364123 0 120 255
139.468614 -167.760928 -236.799003 0 120 255
140.939975 -169.703206 -237.233884 0 120 255
142.463730 -171.554741 -237.843013 0 120 255
143.994349 -173.394389 -238.474967 0 120 255
145.524968 -175.234038 -239.106921 0 120 255
147.055587 -177.073687 -239.738876 0 120 255
148.633916 -178.805950 -240.530804 0 120 255
150.221278 -180.517882 -241.353018 0 120 255
151.808639 -182.229815 -242.175233 0 120 255
153.396001 -183.941748 -242.997447 0 120 255
155.025613 -185.531328 -243.964189 0 120 255
156.665861 -187.090110 -244.967310 0 120 255
158.306109 -188.648893 -245.970432 0 120 255
159.946356 -190.207675 -246.973553 0 120 255
161.622563 -191.631020 -248.104668 0 120 255
163.310218 -193.011244 -249.276533 0 120 255
164.997873 -194.391468 -250.448399 0 120 255
166.685528 -195.771693 -251.620264 0 120 255
168.402010 -197.005478 -252.902644 0 120 255
170.129721 -198.182221 -254.228071 0 120 255
171.857432 -199.358964 -255.553499 0 120 255
173.585143 -200.535707 -256.878926 0 120 255
175.333746 -201.557331 -258.296593 0 120 255
177.092071 -202.506765 -259.757187 0 120 255
178.850396 -203.456199 -261.217780 0 120 255
180.608722 -204.405634 -262.678374 0 120 255
182.379289 -205.193771 -264.212377 0 120 255
184.156543 -205.893819 -265.786470 0 120 255
185.933796 -206.593867 -267.360564 0 120 255
187.711050 -207.293915 -268.934657 0 120 255
189.491334 -207.829227 -270.562993 0 120 255
191.273533 -208.260404 -272.225617 0 120 255
193.055733 -208.691581 -273.888240 0 120 255
194.837933 -209.122759 -275.550864 0 120 255
196.613566 -209.388622 -277.248572 0 120 255
198.384447 -209.534842 -278.971670 0 120 255
200.155327 -209.681061 -280.694769 0 120 255
201.926208 -209.827281 -282.417867 0 120 255
203.680779 -209.810599 -284.157245 0 120 255
205.421952 -209.660097 -285.909995 0 120 255
207.163125 -209.509594 -287.662745 0 120 255
208.904297 -209.359092 -289.415496 0 120 255
210.619561 -209.051114 -291.166465 0 120 255
212.310828 -208.597281 -292.915785 0 120 255
214.002094 -208.143448 -294.665105 0 120 255
215.693361 -207.689615 -296.414425 0 120 255
217.349561 -207.086689 -298.145092 0 120 255
218.969323 -206.328835 -299.856378 0 120 255
220.589084 -205.570982 -301.567664 0 120 255
222.208845 -204.813129 -303.278949 0 120 255
223.785165 -203.917359 -304.956343 0 120 255
225.311009 -202.861336 -306.594355 0 120 255
226.836852 -201.805312 -308.232368 0 120 255
228.362695 -200.749289 -309.870380 0 120 255
229.837829 -199.568998 -311.461329 0 120 255
231.247185 -198.227510 -312.991229 0 120 255
232.656540 -196.886021 -314.521129 0 120 255
234.065895 -195.544532 -316.051028 0 120 255
235.418702 -194.094494 -317.523185 0 120 255
236.689605 -192.487238 -318.911709 0 120 255
237.960507 -190.879981 -320.300233 0 120 255
239.231410 -189.272724 -321.688757 0 120 255
240.441638 -187.574112 -323.011656 0 120 255
241.553531 -185.727440 -324.228194 0 120 255
242.665424 -183.880769 -325.444733 0 120 255
243.777317 -182.034098 -326.661271 0 120 255
244.826320 -180.114071 -327.807359 0 120 255
245.760790 -178.060454 -328.825145 0 120 255
246.695261 -176.006837 -329.842931 0 120 255
247.629731 -173.953219 -330.860717 0 120 255
248.501139 -171.844277 -331.806367 0 120 255
249.242609 -169.621338 -332.603382 0 120 255
249.984079 -167.398399 -333.400398 0 120 255
250.725549 -165.175461 -334.197413 0 120 255
251.405849 -162.914448 -334.923694 0 120 255
251.942160 -160.563813 -335.483472 0 120 255
252.478470 -158.213178 -336.043251 0 120 255
253.014781 -155.862542 -336.603029 0 120 255
253.493754 -153.489499 -337.096328 0 120 255
253.816452 -151.055383 -337.408435 0 120 255
254.139149 -148.621266 -337.720542 0 120 255
254.461846 -146.187150 -338.032648 0 120 255
254.732791 -143.743990 -338.284992 0 120 255
254.837404 -141.271766 -338.345256 0 120 255
254.942017 -138.799542 -338.405521 0 120 255
255.046631 -136.327318 -338.465785 0 120 255
255.106504 -133.856519 -338.474909 0 120 255
254.992508 -131.391257 -338.285289 0 120 255
254.878512 -128.925995 -338.095669 0 120 255
254.764515 -126.460733 -337.906048 0 120 255
254.613826 -124.004055 -337.675190 0 120 255
254.284428 -121.589186 -337.243485 0 120 255
253.955030 -119.174316 -336.811781 0 120 255
253.625632 -116.759446 -336.380076 0 120 255
253.268196 -114.356802 -335.917607 0 120 255
252.730053 -112.032953 -335.256855 0 120 255
252.191909 -109.709104 -334.596102 0 120 255
251.653765 -107.385255 -333.935350 0 120 255
251.096392 -105.073757 -333.254180 0 120 255
250.359093 -102.877828 -332.381968 0 120 255
249.621794 -100.681899 -331.509755 0 120 255
248.884495 -98.485971 -330.637542 0 120 255
248.136512 -96.299203 -329.754471 0 120 255
247.212107 -94.263696 -328.692089 0 120 255
246.287703 -92.228188 -327.629708 0 120 255
245.363298 -90.192681 -326.567326 0 120 255
244.436115 -88.160193 -325.502281 0 120 255
243.338543 -86.312808 -324.273878 0 120 255
242.240971 -84.465424 -323.045475 0 120 255
241.143399 -82.618039 -321.817073 0 120 255
240.045827 -80.770655 -320.588670 0 120 255
238.794612 -79.128529 -319.224098 0 120 255
237.539214 -77.491992 -317.855818 0 120 255
236.283816 -75.855454 -316.487539 0 120 255
235.028418 -74.218917 -315.119259 0 120 255
233.641386 -72.794892 -313.646439 0 120 255
232.244380 -71.386969 -312.165697 0 120 255
230.847375 -69.979045 -310.684956 0 120 255
229.450370 -68.571122 -309.204215 0 120 255
227.942861 -67.376913 -307.648754 0 120 255
226.420916 -66.210626 -306.083531 0 120 255
224.898970 -65.044339 -304.518308 0 120 255
223.377024 -63.878052 -302.953085 0 120 255
221.764440 -62.921502 -301.340464 0 120 255
220.134368 -62.005417 -299.718699 0 120 255
218.504297 -61.089332 -298.096934 0 120 255
216.874225 -60.173247 -296.475168 0 120 255
215.171770 -59.458686 -294.830396 0 120 255
213.450212 -58.797305 -293.179553 0 120 255
211.728655 -58.135924 -291.528710 0 120 255
210.007098 -57.474543 -289.877866 0 120 255
208.229644 -57.003162 -288.225176 0 120 255
206.432899 -56.597354 -286.571848 0 120 255
204.636154 -56.191545 -284.918519 0 120 255
202.839409 -55.785737 -283.265191 0 120 255
201.001409 -55.555946 -281.627824 0 120 255
199.145313 -55.403363 -279.997458 0 120 255
197.289217 -55.250781 -278.367092 0 120 255
195.433121 -55.098198 -276.736726 0 120 255
193.548556 -55.105962 -275.136787 0 120 255
191.648415 -55.201461 -273.553495 0 120 255
189.748275 -55.296959 -271.970204 0 120 255
187.848134 -55.392458 -270.386912 0 120 255
185.930507 -55.631629 -268.845263 0 120 255
184.001093 -55.967655 -267.331686 0 120 255
182.071679 -56.303682 -265.818109 0 120 255
180.142265 -56.639708 -264.304533 0 120 255
178.204627 -57.102308 -262.840727 0 120 255
176.260211 -57.669238 -261.417947 0 120 255
174.315795 -58.236168 -259.995166 0 120 255
172.371379 -58.803098 -258.572386 0 120 255
170.426386 -59.479560 -257.204620 0 120 255
168.480815 -60.266001 -255.892092 0 120 255
166.535243 -61.052442 -254.579565 0 120 255
164.589671 -61.838883 -253.267038 0 120 255
162.649649 -62.718267 -252.012125 0 120 255
160.716414 -63.711301 -250.827662 0 120 255
158.783179 -64.704335 -249.643199 0 120 255
156.849943 -65.697370 -248.458737 0 120 255
154.926962 -66.767536 -247.332098 0 120 255
153.019299 -67.952930 -246.291844 0 120 255
151.111636 -69.138324 -245.251589 0 120 255
149.203972 -70.323718 -244.211335 0 120 255
147.309932 -71.571466 -243.226972 0 120 255
145.440931 -72.933832 -242.345345 0 120 255
143.571931 -74.296198 -241.463719 0 120 255
141.702931 -75.658563 -240.582093 0 120 255
139.849650 -77.069753 -239.752557 0 120 255
138.032344 -78.592682 -239.042237 0 120 255
136.215039 -80.115612 -238.331917 0 120 255
134.397734 -81.638541 -237.621597 0 120 255
132.597021 -83.198172 -236.957956 0 120 255
130.844468 -84.864330 -236.429802 0 120 255
129.091916 -86.530487 -235.901648 0 120 255
127.339363 -88.196644 -235.373495 0 120 255
125.603086 -89.888928 -234.885272 0 120 255
123.928439 -91.680139 -234.548249 0 120 255
122.253792 -93.471351 -234.211225 0 120 255
120.579144 -95.262562 -233.874202 0 120 255
118.919283 -97.070981 -233.569308 0 120 255
117.335810 -98.968290 -233.430392 0 120 255
115.752336 -100.865599 -233.291477 0 120 255
114.168863 -102.762908 -233.152561 0 120 255
112.597529 -104.670250 -233.037203 0 120 255
111.118648 -106.654003 -233.101252 0 120 255
109.639767 -108.637756 -233.165302 0 120 255
108.160886 -110.621509 -233.229351 0 120 255
106.690468 -112.609980 -233.308174 0 120 255
105.331389 -114.660524 -233.581377 0 120 255
103.972310 -116.711069 -233.854580 0 120 255
102.613231 -118.761613 -234.127782 0 120 255
101.257628 -120.813335 -234.406417 0 120 255
100.032130 -122.909126 -234.888373 0 120 255
98.806631 -125.004916 -235.370329 0 120 255
97.581132 -127.100707 -235.852286 0 120 255
96.355634 -129.196498 -236.334242 0 120 255
95.272378 -131.315286 -237.014411 0 120 255
94.191796 -133.434507 -237.698307 0 120 255
93.111214 -135.553728 -238.382202 0 120 255
92.030632 -137.672949 -239.066098 0 120 255
91.097797 -139.794194 -239.933802 0 120 255
90.174773 -141.915574 -240.813712 0 120 255
89.251749 -144.036954 -241.693622 0 120 255
88.328725 -146.158334 -242.573532 0 120 255
87.557532 -148.262718 -243.621024 0 120 255
86.804225 -150.365100 -244.688255 0 120 255
86.050918 -152.467483 -245.755487 0 120 255
85.297610 -154.569865 -246.822719 0 120 255
84.698679 -156.638290 -248.039741 0 120 255
84.126522 -158.700826 -249.282741 0 120 255
83.554364 -160.763362 -250.525740 0 120 255
82.982206 -162.825898 -251.768740 0 120 255
82.565375 -164.839694 -253.142476 0 120 255
82.184862 -166.842095 -254.546780 0 120 255
81.804348 -168.844495 -255.951084 0 120 255
81.423834 -170.846895 -257.355388 0 120 255
81.197923 -172.788047 -258.870447 0 120 255
81.018320 -174.710853 -260.418681 0 120 255
80.838717 -176.633658 -261.966915 0 120 255
80.659114 -178.556464 -263.515149 0 120 255
80.631676 -180.407854 -265.153610 0 120 255
80.660751 -182.232721 -266.825580 0 120 255
80.689827 -184.057587 -268.497549 0 120 255
80.718902 -185.882454 -270.169519 0 120 255
80.895969 -187.628165 -271.910998 0 120 255
81.139678 -189.338232 -273.683777 0 120 255
81.383387 -191.048298 -275.456556 0 120 255
81.627096 -192.758365 -277.229335 0 120 255
82.012927 -194.383953 -279.051170 0 120 255
82.475134 -195.964142 -280.899367 0 120 255
82.937341 -197.544332 -282.747565 0 120 255
83.399548 -199.124521 -284.595762 0 120 255
83.996366 -200.617333 -286.473237 0 120 255
84.678553 -202.054731 -288.369279 0 120 255
85.360740 -203.492129 -290.265321 0 120 255
86.042927 -204.929526 -292.161363 0 120 255
86.850708 -206.278999 -294.068021 0 120 255
87.751746 -207.563183 -295.982562 0 120 255
88.652785 -208.847368 -297.897103 0 120 255
89.553824 -210.131553 -299.811643 0 120 255
90.570108 -211.329482 -301.719690 0 120 255
91.686059 -212.452817 -303.622120 0 120 255
92.802009 -213.576152 -305.524550 0 120 255
93.917960 -214.699486 -307.426981 0 120 255
95.137712 -215.740300 -309.307737 0 120 255
96.461720 -216.698233 -311.166725 0 120 255
97.785728 -217.656166 -313.025712 0 120 255
99.109736 -218.614099 -314.884700 0 120 255
100.525283 -219.495049 -316.709133 0 120 255
102.047514 -220.286280 -318.493295 0 120 255
103.569745 -221.077512 -320.277457 0 120 255
105.091976 -221.868743 -322.061619 0 120 255
106.692990 -222.590038 -323.800930 0 120 255
108.400675 -223.216640 -325.479516 0 120 255
110.108359 -223.843243 -327.158101 0 120 255
111.816044 -224.469846 -328.836686 0 120 255
113.589621 -225.034741 -330.462907 0 120 255
115.467210 -225.502229 -332.006469 0 120 255
117.344799 -225.969717 -333.550030 0 120 255
119.222388 -226.437205 -335.093592 0 120 255
121.153215 -226.851995 -336.580172 0 120 255
123.182599 -227.169231 -337.961270 0 120 255
125.211983 -227.486466 -339.342367 0 120 255
127.241367 -227.803701 -340.723464 0 120 255
129.311946 -228.077620 -342.045875 0 120 255
131.472754 -228.256659 -343.239742 0 120 255
133.633563 -228.435698 -344.433610 0 120 255
135.794371 -228.614737 -345.627477 0 120 255
137.985303 -228.759780 -346.763754 0 120 255
140.255304 -228.815585 -347.748867 0 120 255
142.525306 -228.871390 -348.733980 0 120 255
144.795307 -228.927195 -349.719093 0 120 255
147.085659 -228.957857 -350.650304 0 120 255
149.441202 -228.907977 -351.408855 0 120 255
151.796744 -228.858098 -352.167406 0 120 255
154.152286 -228.808218 -352.925957 0 120 255
156.519986 -228.741180 -353.636578 0 120 255
158.936463 -228.605293 -354.154882 0 120 255
161.352940 -228.469406 -354.673187 0 120 255
163.769417 -228.333520 -355.191491 0 120 255
166.191332 -228.185684 -355.671438 0 120 255
168.641671 -227.975387 -355.950873 0 120 255
171.092009 -227.765089 -356.230309 0 120 255
173.542347 -227.554792 -356.509744 0 120 255
175.992422 -227.341940 -356.789473 0 120 255
178.440565 -227.110414 -357.071352 0 120 255
180.888709 -226.878889 -357.353231 0 120 255
183.336853 -226.647363 -357.635110 0 120 255
185.784996 -226.415837 -357.916990 0 120 255
188.233137 -226.184300 -358.198881 0 120 255
190.681279 -225.952764 -358.480773 0 120 255
193.129420 -225.721227 -358.762664 0 120 255
195.577561 -225.489691 -359.044555 0 120 255
198.025704 -225.258158 -359.326431 0 120 255
200.473848 -225.026625 -359.608308 0 120 255
202.921991 -224.795093 -359.890184 0 120 255
205.370134 -224.563560 -360.172061 0 120 255
