ply
format ascii 1.0
element vertex 385
property float x
property float y
property float z
property uchar red
property uchar green
property uchar blue
end_header
77.430455 -42.474882 -360.397637 0 120 255
77.187555 -42.528711 -357.935956 0 120 255
76.944655 -42.582540 -355.474276 0 120 255
76.701754 -42.636369 -353.012595 0 120 255
76.458854 -42.690198 -350.550915 0 120 255
76.215008 -42.754231 -348.089573 0 120 255
75.971120 -42.818708 -345.628246 0 120 255
75.727233 -42.883185 -343.166919 0 120 255
75.483346 -42.947662 -340.705593 0 120 255
75.081882 -43.491393 -338.330492 0 120 255
74.666072 -44.078755 -335.963241 0 120 255
74.250261 -44.666117 -333.595990 0 120 255
73.834451 -45.253479 -331.228739 0 120 255
73.283073 -46.187312 -329.010220 0 120 255
72.711532 -47.172675 -326.813821 0 120 255
72.139991 -48.158038 -324.617421 0 120 255
71.568450 -49.143401 -322.421022 0 120 255
70.884204 -50.363474 -320.385065 0 120 255
70.176009 -51.633422 -318.383201 0 120 255
69.467814 -52.903371 -316.381337 0 120 255
68.759619 -54.173319 -314.379473 0 120 255
67.963653 -55.590403 -312.517695 0 120 255
67.142844 -57.049132 -310.695567 0 120 255
66.322034 -58.507861 -308.873439 0 120 255
65.501225 -59.966590 -307.051311 0 120 255
64.619760 -61.511939 -305.334145 0 120 255
63.716372 -63.088596 -303.654915 0 120 255
62.812984 -64.665253 -301.975685 0 120 255
61.909597 -66.241909 -300.296455 0 120 255
60.974131 -67.868865 -298.685241 0 120 255
60.024258 -69.518413 -297.104577 0 120 255
59.074384 -71.167961 -295.523913 0 120 255
58.124510 -72.817510 -293.943248 0 120 255
57.171050 -74.499694 -292.400012 0 120 255
56.215623 -76.199771 -290.877294 0 120 255
55.260197 -77.899847 -289.354577 0 120 255
54.304770 -79.599923 -287.831859 0 120 255
53.372167 -81.327421 -286.326291 0 120 255
52.454653 -83.073048 -284.832061 0 120 255
51.537140 -84.818675 -283.337831 0 120 255
50.619626 -86.564301 -281.843600 0 120 255
49.747303 -88.338910 -280.357244 0 120 255
48.910742 -90.136454 -278.877119 0 120 255
48.074182 -91.933998 -277.396993 0 120 255
47.237621 -93.731542 -275.916868 0 120 255
46.463100 -95.561864 -274.444760 0 120 255
45.747116 -97.423112 -272.980216 0 120 255
45.031131 -99.284360 -271.515671 0 120 255
44.315147 -101.145608 -270.051127 0 120 255
43.671854 -103.042515 -268.601273 0 120 255
43.110247 -104.979494 -267.167927 0 120 255
42.548640 -106.916472 -265.734581 0 120 255
41.987033 -108.853451 -264.301235 0 120 255
41.502672 -110.826303 -262.892520 0 120 255
41.121867 -112.847248 -261.516825 0 120 255
40.741062 -114.868194 -260.141131 0 120 255
40.360258 -116.889140 -258.765436 0 120 255
40.055950 -118.942959 -257.424576 0 120 255
39.874542 -121.049592 -256.139681 0 120 255
39.693135 -123.156225 -254.854786 0 120 255
39.511727 -125.262859 -253.569890 0 120 255
39.401943 -127.396493 -252.327969 0 120 255
39.431131 -129.582517 -251.169428 0 120 255
39.460319 -131.768541 -250.010888 0 120 255
39.489507 -133.954565 -248.852347 0 120 255
39.582643 -136.159761 -247.741370 0 120 255
39.827402 -138.410417 -246.743166 0 120 255
40.072160 -140.661073 -245.744963 0 120 255
40.316919 -142.911729 -244.746759 0 120 255
40.616339 -145.172980 -243.796529 0 120 255
41.076885 -147.465463 -242.987711 0 120 255
41.537431 -149.757946 -242.178892 0 120 255
41.997977 -152.050429 -241.370074 0 120 255
42.503242 -154.345442 -240.605569 0 120 255
43.176592 -156.649967 -240.007628 0 120 255
43.849941 -158.954492 -239.409686 0 120 255
44.523291 -161.259017 -238.811745 0 120 255
45.231395 -163.559662 -238.251043 0 120 255
46.112669 -165.840974 -237.875888 0 120 255
46.993943 -168.122286 -237.500734 0 120 255
47.875217 -170.403598 -237.125579 0 120 255
48.781629 -172.677192 -236.778259 0 120 255
49.865035 -174.896447 -236.626914 0 120 255
50.948442 -177.115702 -236.475570 0 120 255
52.031849 -179.334957 -236.324225 0 120 255
53.131277 -181.545843 -236.190310 0 120 255
54.410568 -183.662767 -236.252071 0 120 255
55.689859 -185.779691 -236.313833 0 120 255
56.969150 -187.896616 -236.375594 0 120 255
58.255903 -190.007953 -236.444868 0 120 255
59.724421 -191.983198 -236.697121 0 120 255
61.192938 -193.958443 -236.949373 0 120 255
62.661455 -195.933689 -237.201626 0 120 255
64.129973 -197.908934 -237.453879 0 120 255
65.779713 -199.707072 -237.862029 0 120 255
67.429944 -201.504730 -238.270602 0 120 255
69.080175 -203.302388 -238.679174 0 120 255
70.730406 -205.100046 -239.087746 0 120 255
72.545562 -206.699394 -239.602942 0 120 255
74.368419 -208.289481 -240.123118 0 120 255
76.191277 -209.879568 -240.643293 0 120 255
78.014134 -211.469655 -241.163469 0 120 255
79.984047 -212.850295 -241.736695 0 120 255
81.967857 -214.211142 -242.314935 0 120 255
83.951668 -215.571989 -242.893175 0 120 255
85.935478 -216.932836 -243.471415 0 120 255
88.046347 -218.083794 -244.048016 0 120 255
90.175849 -219.203971 -244.624377 0 120 255
92.305351 -220.324148 -245.200737 0 120 255
94.434854 -221.444325 -245.777098 0 120 255
96.668869 -222.364812 -246.299302 0 120 255
98.924185 -223.244601 -246.810469 0 120 255
101.179500 -224.124390 -247.321635 0 120 255
103.434816 -225.004179 -247.832802 0 120 255
105.769528 -225.704094 -248.242622 0 120 255
108.125419 -226.356031 -248.625410 0 120 255
110.481310 -227.007967 -249.008197 0 120 255
112.837201 -227.659904 -249.390985 0 120 255
115.245086 -228.159700 -249.633322 0 120 255
117.670464 -228.608311 -249.828405 0 120 255
120.095842 -229.056922 -250.023489 0 120 255
122.521220 -229.505533 -250.218573 0 120 255
124.969578 -229.835222 -250.244265 0 120 255
127.427452 -230.115666 -250.199812 0 120 255
129.885326 -230.396110 -250.155359 0 120 255
132.343200 -230.676553 -250.110906 0 120 255
134.794339 -230.874697 -249.879587 0 120 255
137.242102 -231.031593 -249.554616 0 120 255
139.689865 -231.188489 -249.229646 0 120 255
142.137629 -231.345386 -248.904675 0 120 255
144.549513 -231.456373 -248.387021 0 120 255
146.939880 -231.539829 -247.753814 0 120 255
149.330246 -231.623284 -247.120607 0 120 255
151.720613 -231.706740 -246.487400 0 120 255
154.048071 -231.766002 -245.667031 0 120 255
156.330713 -231.808030 -244.713331 0 120 255
158.613356 -231.850059 -243.759630 0 120 255
160.895999 -231.892087 -242.805930 0 120 255
163.091090 -231.919101 -241.678713 0 120 255
165.212464 -231.933473 -240.405396 0 120 255
167.333838 -231.947845 -239.132080 0 120 255
169.455212 -231.962218 -237.858764 0 120 255
171.468380 -231.967630 -236.432575 0 120 255
173.374209 -231.964154 -234.854737 0 120 255
175.280038 -231.960679 -233.276899 0 120 255
177.185868 -231.957203 -231.699061 0 120 255
178.968694 -231.950230 -229.994161 0 120 255
180.607764 -231.939170 -228.140760 0 120 255
182.246834 -231.928111 -226.287359 0 120 255
183.885904 -231.917051 -224.433958 0 120 255
185.394010 -231.905975 -222.481989 0 120 255
186.721370 -231.894879 -220.393985 0 120 255
188.048730 -231.883782 -218.305981 0 120 255
189.376089 -231.872685 -216.217977 0 120 255
190.571602 -231.863327 -214.060203 0 120 255
191.551208 -231.856817 -211.788178 0 120 255
192.530814 -231.850306 -209.516152 0 120 255
193.510419 -231.843796 -207.244127 0 120 255
194.363928 -231.839482 -204.929276 0 120 255
194.970506 -231.839468 -202.530562 0 120 255
195.577084 -231.839455 -200.131847 0 120 255
196.183662 -231.839442 -197.733133 0 120 255
196.675495 -231.841210 -195.314916 0 120 255
196.895527 -231.847199 -192.850506 0 120 255
197.115559 -231.853187 -190.386096 0 120 255
197.335592 -231.859175 -187.921685 0 120 255
197.456425 -231.866092 -185.456234 0 120 255
197.288297 -231.875716 -182.987751 0 120 255
197.120169 -231.885340 -180.519268 0 120 255
196.952041 -231.894964 -178.050785 0 120 255
196.702842 -231.904592 -175.594172 0 120 255
196.156209 -231.914236 -173.181110 0 120 255
195.609575 -231.923880 -170.768048 0 120 255
195.062942 -231.933523 -168.354987 0 120 255
194.454352 -231.942436 -165.961000 0 120 255
193.548964 -231.947847 -163.658390 0 120 255
192.643575 -231.953258 -161.355780 0 120 255
191.738187 -231.958668 -159.053171 0 120 255
190.789447 -231.962971 -156.771441 0 120 255
189.553428 -231.959927 -154.628075 0 120 255
188.317408 -231.956883 -152.484710 0 120 255
187.081389 -231.953840 -150.341344 0 120 255
185.818890 -231.949712 -148.215922 0 120 255
184.286844 -231.934544 -146.273147 0 120 255
182.754798 -231.919377 -144.330372 0 120 255
181.222752 -231.904209 -142.387597 0 120 255
179.678453 -231.888336 -140.455975 0 120 255
177.889472 -231.858380 -138.747052 0 120 255
176.100490 -231.828424 -137.038130 0 120 255
174.311508 -231.798467 -135.329208 0 120 255
172.521268 -231.768417 -133.621798 0 120 255
170.516989 -231.722353 -132.171795 0 120 255
168.512710 -231.676289 -130.721791 0 120 255
166.508430 -231.630226 -129.271787 0 120 255
164.504151 -231.584162 -127.821784 0 120 255
162.333257 -231.522805 -126.637923 0 120 255
160.156127 -231.460876 -125.464024 0 120 255
157.978997 -231.398948 -124.290125 0 120 255
155.801867 -231.337019 -123.116227 0 120 255
153.503912 -231.262218 -122.206044 0 120 255
151.195723 -231.186327 -121.318196 0 120 255
148.887534 -231.110437 -120.430348 0 120 255
146.579345 -231.034546 -119.542500 0 120 255
144.191040 -230.949752 -118.909393 0 120 255
141.791793 -230.863742 -118.311074 0 120 255
139.392546 -230.777732 -117.712755 0 120 255
136.993299 -230.691723 -117.114436 0 120 255
134.549048 -230.601976 -116.757072 0 120 255
132.096079 -230.511506 -116.446379 0 120 255
129.643111 -230.421036 -116.135686 0 120 255
127.190143 -230.330565 -115.824993 0 120 255
124.721712 -230.240188 -115.738561 0 120 255
122.249310 -230.149835 -115.709732 0 120 255
119.776907 -230.059482 -115.680903 0 120 255
117.304505 -229.969129 -115.652073 0 120 255
114.841076 -229.879974 -115.829335 0 120 255
112.380583 -229.791210 -116.074001 0 120 255
109.920089 -229.702447 -116.318667 0 120 255
107.459596 -229.613683 -116.563333 0 120 255
105.027828 -229.526694 -116.994854 0 120 255
102.607708 -229.440425 -117.502146 0 120 255
100.187588 -229.354156 -118.009439 0 120 255
97.767468 -229.267887 -118.516732 0 120 255
95.391534 -229.183848 -119.191181 0 120 255
93.037420 -229.100911 -119.948173 0 120 255
90.683306 -229.017975 -120.705165 0 120 255
88.329192 -228.935038 -121.462157 0 120 255
86.030856 -228.854674 -122.366691 0 120 255
83.765645 -228.775839 -123.358846 0 120 255
81.500434 -228.697004 -124.351002 0 120 255
79.235223 -228.618168 -125.343158 0 120 255
77.033979 -228.542126 -126.463832 0 120 255
74.878041 -228.468062 -127.675530 0 120 255
72.722102 -228.393998 -128.887228 0 120 255
70.566163 -228.319934 -130.098925 0 120 255
68.479365 -228.248801 -131.420943 0 120 255
66.450661 -228.180130 -132.835657 0 120 255
64.421957 -228.111460 -134.250370 0 120 255
62.393253 -228.042790 -135.665083 0 120 255
60.436252 -227.977080 -137.173008 0 120 255
58.550539 -227.914314 -138.773606 0 120 255
56.664825 -227.851548 -140.374204 0 120 255
54.779112 -227.788782 -141.974802 0 120 255
52.965413 -227.728922 -143.652757 0 120 255
51.236418 -227.672480 -145.421700 0 120 255
49.507422 -227.616039 -147.190643 0 120 255
47.778427 -227.559597 -148.959586 0 120 255
46.119835 -227.505958 -150.791395 0 120 255
44.559424 -227.456226 -152.710878 0 120 255
42.999013 -227.406494 -154.630361 0 120 255
41.438603 -227.356762 -156.549843 0 120 255
39.945364 -227.309663 -158.519147 0 120 255
38.563728 -227.266942 -160.571225 0 120 255
37.182092 -227.224220 -162.623303 0 120 255
35.800455 -227.181498 -164.675381 0 120 255
34.481416 -227.141199 -166.765724 0 120 255
33.287254 -227.105734 -168.932400 0 120 255
32.093092 -227.070270 -171.099077 0 120 255
30.898930 -227.034805 -173.265754 0 120 255
29.761683 -227.001517 -175.460643 0 120 255
28.762373 -226.973507 -177.723907 0 120 255
27.763064 -226.945498 -179.987171 0 120 255
26.763755 -226.917488 -182.250435 0 120 255
25.814761 -226.891384 -184.533360 0 120 255
25.016458 -226.870991 -186.875168 0 120 255
24.218155 -226.850597 -189.216977 0 120 255
23.419852 -226.830203 -191.558785 0 120 255
22.664507 -226.811422 -193.913196 0 120 255
22.072163 -226.798757 -196.315432 0 120 255
21.479819 -226.786093 -198.717668 0 120 255
20.887474 -226.773428 -201.119904 0 120 255
20.330135 -226.762064 -203.529185 0 120 255
19.947564 -226.757193 -205.973645 0 120 255
19.564993 -226.752322 -208.418105 0 120 255
19.182422 -226.747450 -210.862565 0 120 255
18.826443 -226.743560 -213.310017 0 120 255
18.656259 -226.746520 -215.778376 0 120 255
18.486075 -226.749480 -218.246736 0 120 255
18.315891 -226.752441 -220.715095 0 120 255
18.163566 -226.756053 -223.183910 0 120 255
18.207042 -226.766819 -225.657726 0 120 255
18.250517 -226.777585 -228.131541 0 120 255
18.293993 -226.788351 -230.605356 0 120 255
18.346435 -226.799441 -233.078624 0 120 255
18.603330 -226.817902 -235.539403 0 120 255
18.860226 -226.836363 -238.000182 0 120 255
19.117121 -226.854824 -240.460961 0 120 255
19.374116 -226.873289 -242.921725 0 120 255
19.842522 -226.899318 -245.351063 0 120 255
20.310928 -226.925348 -247.780402 0 120 255
20.779334 -226.951377 -250.209741 0 120 255
21.247740 -226.977407 -252.639080 0 120 255
21.915316 -227.010521 -255.020931 0 120 255
22.591419 -227.043938 -257.400750 0 120 255
23.267523 -227.077356 -259.780568 0 120 255
23.943626 -227.110773 -262.160387 0 120 255
24.804950 -227.150695 -264.478762 0 120 255
25.682943 -227.191202 -266.791608 0 120 255
26.560936 -227.231709 -269.104454 0 120 255
27.438929 -227.272216 -271.417300 0 120 255
28.486965 -227.318654 -273.657026 0 120 255
29.559087 -227.365932 -275.886396 0 120 255
30.631208 -227.413211 -278.115766 0 120 255
31.703329 -227.460489 -280.345135 0 120 255
32.929425 -227.513059 -282.492142 0 120 255
34.186075 -227.566680 -284.622805 0 120 255
35.442724 -227.620301 -286.753468 0 120 255
36.699374 -227.673922 -288.884131 0 120 255
38.093310 -227.732215 -290.925777 0 120 255
39.523102 -227.791728 -292.944172 0 120 255
40.952894 -227.851241 -294.962568 0 120 255
42.382686 -227.910754 -296.980964 0 120 255
43.933002 -227.974305 -298.906209 0 120 255
45.523200 -228.039192 -300.800628 0 120 255
47.113399 -228.104078 -302.695048 0 120 255
48.703598 -228.168965 -304.589468 0 120 255
50.397825 -228.237293 -306.389076 0 120 255
52.134584 -228.307028 -308.149921 0 120 255
53.871343 -228.376763 -309.910765 0 120 255
55.608103 -228.446498 -311.671609 0 120 255
57.433057 -228.519126 -313.338272 0 120 255
59.301806 -228.593192 -314.958166 0 120 255
61.170556 -228.667257 -316.578061 0 120 255
63.039305 -228.741322 -318.197956 0 120 255
64.981410 -228.817864 -319.726333 0 120 255
66.967230 -228.895882 -321.200172 0 120 255
68.953050 -228.973900 -322.674011 0 120 255
70.938870 -229.051917 -324.147850 0 120 255
72.984456 -229.132109 -325.534569 0 120 255
75.072448 -229.213843 -326.859476 0 120 255
77.160440 -229.295576 -328.184383 0 120 255
79.248432 -229.377310 -329.509290 0 120 255
81.383844 -229.459926 -330.753302 0 120 255
83.559120 -229.543284 -331.929309 0 120 255
85.734397 -229.626642 -333.105316 0 120 255
87.909673 -229.710000 -334.281323 0 120 255
90.121014 -229.789002 -335.385428 0 120 255
92.368195 -229.863675 -336.418082 0 120 255
94.615375 -229.938348 -337.450735 0 120 255
96.862555 -230.013021 -338.483388 0 120 255
99.136263 -230.078059 -339.454136 0 120 255
101.441136 -230.131778 -340.352159 0 120 255
103.746009 -230.185498 -341.250181 0 120 255
106.050882 -230.239217 -342.148203 0 120 255
108.374632 -230.279857 -342.994257 0 120 255
110.724664 -230.302288 -343.767961 0 120 255
113.074695 -230.324719 -344.541665 0 120 255
115.424727 -230.347150 -345.315369 0 120 255
117.787655 -230.355050 -346.046570 0 120 255
120.171966 -230.338859 -346.707301 0 120 255
122.556278 -230.322668 -347.368031 0 120 255
124.940589 -230.306476 -348.028762 0 120 255
127.333256 -230.275812 -348.655784 0 120 255
129.742554 -230.216337 -349.215706 0 120 255
132.151853 -230.156863 -349.775627 0 120 255
134.561151 -230.097388 -350.335549 0 120 255
136.975501 -230.024711 -350.869694 0 120 255
139.402069 -229.920104 -351.341495 0 120 255
141.828636 -229.815497 -351.813296 0 120 255
144.255204 -229.710889 -352.285097 0 120 255
146.684558 -229.595213 -352.738060 0 120 255
149.122244 -229.446441 -353.134698 0 120 255
151.559930 -229.297669 -353.531337 0 120 255
153.997616 -229.148897 -353.927975 0 120 255
156.436659 -228.991675 -354.311648 0 120 255
158.880845 -228.802419 -354.646169 0 120 255
161.325031 -228.613164 -354.980690 0 120 255
163.769218 -228.423908 -355.315211 0 120 255
166.213947 -228.229227 -355.641873 0 120 255
168.661391 -228.007440 -355.929273 0 120 255
171.108835 -227.785653 -356.216674 0 120 255
173.556278 -227.563867 -356.504074 0 120 255
176.003692 -227.340874 -356.790771 0 120 255
178.450897 -227.109437 -357.072542 0 120 255
180.898101 -226.878001 -357.354312 0 120 255
183.345306 -226.646564 -357.636083 0 120 255
185.792511 -226.415126 -357.917855 0 120 255
188.239713 -226.183678 -358.199638 0 120 255
190.686915 -225.952231 -358.481422 0 120 255
193.134117 -225.720783 -358.763205 0 120 255
195.581319 -225.489335 -359.044988 0 120 255
198.028523 -225.257891 -359.326764 0 120 255
200.475726 -225.026448 -359.608539 0 120 255
202.922930 -224.795004 -359.890315 0 120 255
205.370133 -224.563560 -360.172091 0 120 255
