ply
format ascii 1.0
element vertex 385
property float x
property float y
property float z
property uchar red
property uchar green
property uchar blue
end_header
77.430455 -42.474882 -360.397637 0 120 255
77.187552 -42.528711 -357.935922 0 120 255
76.944648 -42.582541 -355.474208 0 120 255
76.701744 -42.636371 -353.012494 0 120 255
76.458840 -42.690201 -350.550779 0 120 255
76.213791 -42.754708 -348.089535 0 120 255
75.968648 -42.819679 -345.628312 0 120 255
75.723505 -42.884650 -343.167088 0 120 255
75.478362 -42.949621 -340.705865 0 120 255
75.067338 -43.378141 -338.307012 0 120 255
74.641230 -43.839720 -335.913832 0 120 255
74.215121 -44.301300 -333.520651 0 120 255
73.789013 -44.762880 -331.127471 0 120 255
73.234349 -45.478858 -328.827826 0 120 255
72.660693 -46.232418 -326.541999 0 120 255
72.087038 -46.985977 -324.256172 0 120 255
71.513383 -47.739537 -321.970345 0 120 255
70.849479 -48.669772 -319.778153 0 120 255
70.166592 -49.637171 -317.605656 0 120 255
69.483704 -50.604571 -315.433160 0 120 255
68.800817 -51.571970 -313.260664 0 120 255
68.065289 -52.662888 -311.166849 0 120 255
67.315039 -53.788352 -309.095040 0 120 255
66.564789 -54.913816 -307.023230 0 120 255
65.814540 -56.039280 -304.951421 0 120 255
65.045891 -57.256712 -302.940322 0 120 255
64.270675 -58.506970 -300.950891 0 120 255
63.495460 -59.757227 -298.961460 0 120 255
62.720244 -61.007484 -296.972030 0 120 255
61.955577 -62.334043 -295.029387 0 120 255
61.195589 -63.694452 -293.107502 0 120 255
60.435602 -65.054861 -291.185616 0 120 255
59.675614 -66.415270 -289.263731 0 120 255
58.948694 -67.846025 -287.381622 0 120 255
58.239693 -69.314901 -285.521069 0 120 255
57.530693 -70.783777 -283.660515 0 120 255
56.821692 -72.252653 -281.799962 0 120 255
56.161479 -73.790340 -279.979003 0 120 255
55.533191 -75.373056 -278.183953 0 120 255
54.904903 -76.955771 -276.388904 0 120 255
54.276615 -78.538487 -274.593854 0 120 255
53.706407 -80.189062 -272.843256 0 120 255
53.181763 -81.892872 -271.127530 0 120 255
52.657119 -83.596683 -269.411804 0 120 255
52.132474 -85.300493 -267.696078 0 120 255
51.669703 -87.069496 -266.032252 0 120 255
51.264896 -88.899572 -264.417046 0 120 255
50.860090 -90.729649 -262.801841 0 120 255
50.455284 -92.559726 -261.186636 0 120 255
50.111923 -94.449669 -259.631012 0 120 255
49.837236 -96.406518 -258.141977 0 120 255
49.562549 -98.363367 -256.652943 0 120 255
49.287861 -100.320217 -255.163908 0 120 255
49.071333 -102.328960 -253.740481 0 120 255
48.932467 -104.407000 -252.404665 0 120 255
48.793601 -106.485039 -251.068849 0 120 255
48.654735 -108.563079 -249.733033 0 120 255
48.569106 -110.683059 -248.466010 0 120 255
48.568792 -112.870250 -247.309233 0 120 255
48.568478 -115.057441 -246.152456 0 120 255
48.568164 -117.244632 -244.995680 0 120 255
48.615484 -119.462766 -243.907462 0 120 255
48.755111 -121.740864 -242.952103 0 120 255
48.894737 -124.018962 -241.996743 0 120 255
49.034363 -126.297060 -241.041383 0 120 255
49.215952 -128.595088 -240.150917 0 120 255
49.497012 -130.940363 -239.414283 0 120 255
49.778072 -133.285637 -238.677649 0 120 255
50.059132 -135.630912 -237.941015 0 120 255
50.376680 -137.986029 -237.262533 0 120 255
50.801856 -140.370178 -236.755590 0 120 255
51.227033 -142.754328 -236.248647 0 120 255
51.652209 -145.138478 -235.741703 0 120 255
52.108594 -147.524107 -235.283758 0 120 255
52.682451 -149.915303 -235.010244 0 120 255
53.256309 -152.306498 -234.736731 0 120 255
53.830166 -154.697693 -234.463217 0 120 255
54.429936 -157.084345 -234.227952 0 120 255
55.159077 -159.448309 -234.183644 0 120 255
55.888219 -161.812273 -234.139337 0 120 255
56.617361 -164.176237 -234.095029 0 120 255
57.366814 -166.532403 -234.077589 0 120 255
58.259591 -168.833544 -234.249741 0 120 255
59.152369 -171.134685 -234.421892 0 120 255
60.045147 -173.435826 -234.594043 0 120 255
60.952044 -175.728923 -234.782103 0 120 255
62.017725 -177.931559 -235.149057 0 120 255
63.083406 -180.134195 -235.516011 0 120 255
64.149087 -182.336831 -235.882965 0 120 255
65.221953 -184.534215 -236.256400 0 120 255
66.469515 -186.603889 -236.787414 0 120 255
67.717077 -188.673563 -237.318428 0 120 255
68.964640 -190.743236 -237.849443 0 120 255
70.212202 -192.812910 -238.380457 0 120 255
71.648235 -194.718272 -239.035557 0 120 255
73.084713 -196.623248 -239.690949 0 120 255
74.521191 -198.528223 -240.346342 0 120 255
75.957669 -200.433198 -241.001734 0 120 255
77.577913 -202.154471 -241.730170 0 120 255
79.206596 -203.867308 -242.461961 0 120 255
80.835279 -205.580145 -243.193751 0 120 255
82.463963 -207.292982 -243.925541 0 120 255
84.266289 -208.810421 -244.676898 0 120 255
86.084787 -210.309662 -245.430077 0 120 255
87.903284 -211.808904 -246.183256 0 120 255
89.721782 -213.308146 -246.936435 0 120 255
91.697564 -214.608624 -247.655832 0 120 255
93.696068 -215.880389 -248.370348 0 120 255
95.694572 -217.152153 -249.084865 0 120 255
97.693076 -218.423918 -249.799381 0 120 255
99.826033 -219.502135 -250.429714 0 120 255
101.985955 -220.541535 -251.043164 0 120 255
104.145878 -221.580935 -251.656615 0 120 255
106.305800 -222.620336 -252.270065 0 120 255
108.571387 -223.479589 -252.754789 0 120 255
110.864675 -224.291616 -253.205766 0 120 255
113.157962 -225.103642 -253.656744 0 120 255
115.451250 -225.915669 -254.107721 0 120 255
117.816646 -226.568240 -254.393930 0 120 255
120.205851 -227.168160 -254.625733 0 120 255
122.595056 -227.768081 -254.857535 0 120 255
124.984261 -228.368001 -255.089338 0 120 255
127.409110 -228.834825 -255.130919 0 120 255
129.848425 -229.247633 -255.095299 0 120 255
132.287740 -229.660441 -255.059679 0 120 255
134.727055 -230.073248 -255.024059 0 120 255
137.164891 -230.382985 -254.784572 0 120 255
139.602002 -230.642160 -254.445075 0 120 255
142.039113 -230.901334 -254.105578 0 120 255
144.476223 -231.160508 -253.766081 0 120 255
146.876453 -231.348423 -253.221105 0 120 255
149.255065 -231.494569 -252.555684 0 120 255
151.633677 -231.640714 -251.890263 0 120 255
154.012288 -231.786860 -251.224843 0 120 255
156.322694 -231.892667 -250.363598 0 120 255
158.585685 -231.970432 -249.366219 0 120 255
160.848675 -232.048196 -248.368839 0 120 255
163.111665 -232.125961 -247.371460 0 120 255
165.280586 -232.183154 -246.196342 0 120 255
167.372284 -232.223460 -244.875315 0 120 255
169.463982 -232.263766 -243.554288 0 120 255
171.555679 -232.304072 -242.233260 0 120 255
173.532663 -232.330871 -240.757863 0 120 255
175.398672 -232.344603 -239.133130 0 120 255
177.264682 -232.358335 -237.508398 0 120 255
179.130692 -232.372068 -235.883665 0 120 255
180.867778 -232.377310 -234.132333 0 120 255
182.457990 -232.372881 -232.236774 0 120 255
184.048203 -232.368452 -230.341215 0 120 255
185.638415 -232.364023 -228.445657 0 120 255
187.092965 -232.355692 -226.453463 0 120 255
188.365122 -232.342114 -224.331349 0 120 255
189.637279 -232.328536 -222.209235 0 120 255
190.909436 -232.314958 -220.087120 0 120 255
192.046512 -232.300345 -217.897937 0 120 255
192.968272 -232.284081 -215.601846 0 120 255
193.890033 -232.267817 -213.305756 0 120 255
194.811793 -232.251553 -211.009666 0 120 255
195.605623 -232.235724 -208.673576 0 120 255
196.155900 -232.220725 -206.261335 0 120 255
196.706176 -232.205726 -203.849093 0 120 255
197.256452 -232.190727 -201.436852 0 120 255
197.691277 -232.176615 -199.007582 0 120 255
197.860653 -232.164545 -196.539161 0 120 255
198.030029 -232.152475 -194.070740 0 120 255
198.199404 -232.140405 -191.602319 0 120 255
198.269583 -232.129034 -189.134704 0 120 255
198.059929 -232.119634 -186.669366 0 120 255
197.850274 -232.110234 -184.204027 0 120 255
197.640620 -232.100834 -181.738688 0 120 255
197.350177 -232.091645 -179.286388 0 120 255
196.773611 -232.083203 -176.880263 0 120 255
196.197045 -232.074762 -174.474138 0 120 255
195.620479 -232.066320 -172.068013 0 120 255
194.982125 -232.057579 -169.681590 0 120 255
194.059530 -232.047459 -167.385799 0 120 255
193.136936 -232.037339 -165.090008 0 120 255
192.214342 -232.027220 -162.794218 0 120 255
191.248224 -232.016453 -160.519654 0 120 255
190.007522 -232.001608 -158.379005 0 120 255
188.766820 -231.986762 -156.238357 0 120 255
187.526118 -231.971917 -154.097708 0 120 255
186.258348 -231.956336 -151.975382 0 120 255
184.732681 -231.933747 -150.027623 0 120 255
183.207013 -231.911159 -148.079864 0 120 255
181.681346 -231.888571 -146.132104 0 120 255
180.142497 -231.865436 -144.196197 0 120 255
178.368499 -231.832550 -142.471730 0 120 255
176.594501 -231.799665 -140.747263 0 120 255
174.820502 -231.766779 -139.022797 0 120 255
173.044181 -231.733759 -137.301059 0 120 255
171.060353 -231.688812 -135.823106 0 120 255
169.076525 -231.643864 -134.345154 0 120 255
167.092697 -231.598917 -132.867202 0 120 255
165.108869 -231.553969 -131.389249 0 120 255
162.959540 -231.496630 -130.166106 0 120 255
160.804918 -231.438895 -128.951113 0 120 255
158.650296 -231.381159 -127.736121 0 120 255
156.495674 -231.323424 -126.521128 0 120 255
154.218383 -231.254264 -125.559441 0 120 255
151.931415 -231.184203 -124.617738 0 120 255
149.644446 -231.114142 -123.676035 0 120 255
147.357478 -231.044081 -122.734332 0 120 255
144.986190 -230.964642 -122.038788 0 120 255
142.603910 -230.883981 -121.375331 0 120 255
140.221630 -230.803320 -120.711874 0 120 255
137.839351 -230.722659 -120.048418 0 120 255
135.406292 -230.635867 -119.619653 0 120 255
132.963737 -230.547928 -119.234780 0 120 255
130.521181 -230.459989 -118.849908 0 120 255
128.078626 -230.372050 -118.465035 0 120 255
125.613974 -230.282149 -118.300354 0 120 255
123.143806 -230.191757 -118.190653 0 120 255
120.673637 -230.101366 -118.080952 0 120 255
118.203469 -230.010975 -117.971250 0 120 255
115.735326 -229.921275 -118.065497 0 120 255
113.267831 -229.831796 -118.224862 0 120 255
110.800336 -229.742316 -118.384227 0 120 255
108.332840 -229.652837 -118.543592 0 120 255
105.887338 -229.564955 -118.889583 0 120 255
103.450567 -229.477708 -119.309673 0 120 255
101.013797 -229.390460 -119.729764 0 120 255
98.577027 -229.303212 -120.149855 0 120 255
96.178367 -229.218017 -120.738600 0 120 255
93.798169 -229.133816 -121.409053 0 120 255
91.417971 -229.049614 -122.079505 0 120 255
89.037774 -228.965413 -122.749958 0 120 255
86.708280 -228.883621 -123.570924 0 120 255
84.408373 -228.803234 -124.479715 0 120 255
82.108465 -228.722847 -125.388506 0 120 255
79.808558 -228.642460 -126.297296 0 120 255
77.568760 -228.564744 -127.338660 0 120 255
75.370833 -228.488890 -128.472371 0 120 255
73.172906 -228.413036 -129.606083 0 120 255
70.974979 -228.337182 -130.739794 0 120 255
68.843703 -228.264170 -131.988643 0 120 255
66.767542 -228.193508 -133.332705 0 120 255
64.691382 -228.122846 -134.676766 0 120 255
62.615222 -228.052184 -136.020828 0 120 255
60.609703 -227.984461 -137.463349 0 120 255
58.673334 -227.919617 -139.002247 0 120 255
56.736965 -227.854772 -140.541145 0 120 255
54.800596 -227.789927 -142.080042 0 120 255
52.936547 -227.728025 -143.701600 0 120 255
51.156259 -227.669530 -145.418891 0 120 255
49.375971 -227.611035 -147.136183 0 120 255
47.595683 -227.552540 -148.853474 0 120 255
45.887326 -227.496918 -150.638667 0 120 255
44.277728 -227.445242 -152.517087 0 120 255
42.668131 -227.393565 -154.395508 0 120 255
41.058533 -227.341888 -156.273928 0 120 255
39.518621 -227.292952 -158.206656 0 120 255
38.092642 -227.248497 -160.228177 0 120 255
36.666664 -227.204042 -162.249698 0 120 255
35.240685 -227.159588 -164.271219 0 120 255
33.880507 -227.117687 -166.334742 0 120 255
32.649403 -227.080795 -168.480659 0 120 255
31.418298 -227.043903 -170.626576 0 120 255
30.187194 -227.007011 -172.772492 0 120 255
29.016541 -226.972439 -174.949487 0 120 255
27.989773 -226.943386 -177.200451 0 120 255
26.963005 -226.914334 -179.451416 0 120 255
25.936238 -226.885282 -181.702380 0 120 255
24.963326 -226.858271 -183.974988 0 120 255
24.148538 -226.837256 -186.311142 0 120 255
23.333750 -226.816240 -188.647296 0 120 255
22.518961 -226.795225 -190.983450 0 120 255
21.750395 -226.775944 -193.333393 0 120 255
21.153312 -226.763099 -195.734489 0 120 255
20.556230 -226.750254 -198.135586 0 120 255
19.959147 -226.737409 -200.536682 0 120 255
19.399843 -226.725968 -202.945366 0 120 255
19.024200 -226.721353 -205.390935 0 120 255
18.648556 -226.716738 -207.836504 0 120 255
18.272913 -226.712124 -210.282073 0 120 255
17.926029 -226.708566 -212.730733 0 120 255
17.773482 -226.712147 -215.200279 0 120 255
17.620934 -226.715729 -217.669824 0 120 255
17.468386 -226.719310 -220.139369 0 120 255
17.335265 -226.723599 -222.609236 0 120 255
17.405366 -226.735293 -225.082470 0 120 255
17.475468 -226.746986 -227.555704 0 120 255
17.545569 -226.758680 -230.028938 0 120 255
17.625710 -226.770736 -232.501436 0 120 255
17.915945 -226.790380 -234.958531 0 120 255
18.206181 -226.810024 -237.415626 0 120 255
18.496417 -226.829668 -239.872720 0 120 255
18.787504 -226.849342 -242.329676 0 120 255
19.293304 -226.876710 -244.751525 0 120 255
19.799103 -226.904078 -247.173375 0 120 255
20.304902 -226.931446 -249.595225 0 120 255
20.810702 -226.958814 -252.017074 0 120 255
21.517627 -226.993306 -254.387583 0 120 255
22.232432 -227.028077 -256.756081 0 120 255
22.947236 -227.062848 -259.124580 0 120 255
23.662040 -227.097619 -261.493078 0 120 255
24.561557 -227.138880 -263.796944 0 120 255
25.476992 -227.180701 -266.095241 0 120 255
26.392426 -227.222522 -268.393538 0 120 255
27.307860 -227.264343 -270.691834 0 120 255
28.390904 -227.311986 -272.914903 0 120 255
29.497020 -227.360430 -275.127616 0 120 255
30.603136 -227.408874 -277.340329 0 120 255
31.709251 -227.457318 -279.553042 0 120 255
32.965539 -227.510919 -281.682613 0 120 255
34.251004 -227.565522 -283.796031 0 120 255
35.536469 -227.620125 -285.909449 0 120 255
36.821934 -227.674728 -288.022867 0 120 255
38.240177 -227.733844 -290.047833 0 120 255
39.692530 -227.794119 -292.050075 0 120 255
41.144883 -227.854395 -294.052318 0 120 255
42.597237 -227.914670 -296.054560 0 120 255
44.165401 -227.978812 -297.965470 0 120 255
45.771377 -228.044217 -299.846560 0 120 255
47.377353 -228.109622 -301.727650 0 120 255
48.983329 -228.175026 -303.608740 0 120 255
50.688871 -228.243739 -305.397849 0 120 255
52.434665 -228.313788 -307.149772 0 120 255
54.180459 -228.383838 -308.901695 0 120 255
55.926253 -228.453887 -310.653618 0 120 255
57.756368 -228.526724 -312.314873 0 120 255
59.627949 -228.600933 -313.931540 0 120 255
61.499531 -228.675141 -315.548208 0 120 255
63.371112 -228.749349 -317.164875 0 120 255
65.312969 -228.825990 -318.693858 0 120 255
67.296362 -228.904068 -320.171016 0 120 255
69.279754 -228.982146 -321.648173 0 120 255
71.263147 -229.060224 -323.125331 0 120 255
73.304032 -229.140311 -324.519283 0 120 255
75.385420 -229.221813 -325.854618 0 120 255
77.466807 -229.303315 -327.189954 0 120 255
79.548195 -229.384818 -328.525289 0 120 255
81.675521 -229.466881 -329.783441 0 120 255
83.841226 -229.549413 -330.977111 0 120 255
86.006930 -229.631946 -332.170782 0 120 255
88.172635 -229.714478 -333.364452 0 120 255
90.373577 -229.791741 -334.489586 0 120 255
92.609346 -229.863796 -335.546981 0 120 255
94.845114 -229.935851 -336.604375 0 120 255
97.080883 -230.007906 -337.661770 0 120 255
99.342992 -230.069956 -338.659713 0 120 255
101.635899 -230.120306 -339.588140 0 120 255
103.928807 -230.170657 -340.516567 0 120 255
106.221715 -230.221008 -341.444993 0 120 255
108.533779 -230.258584 -342.322833 0 120 255
110.872404 -230.278449 -343.130530 0 120 255
113.211030 -230.298313 -343.938226 0 120 255
115.549655 -230.318178 -344.745923 0 120 255
117.901724 -230.324067 -345.511510 0 120 255
120.276006 -230.306864 -346.207517 0 120 255
122.650288 -230.289660 -346.903524 0 120 255
125.024571 -230.272457 -347.599530 0 120 255
127.407871 -230.241356 -348.261334 0 120 255
129.809071 -230.182667 -348.855245 0 120 255
132.210271 -230.123978 -349.449156 0 120 255
134.611471 -230.065290 -350.043067 0 120 255
137.018379 -229.993826 -350.609983 0 120 255
139.439061 -229.891533 -351.111752 0 120 255
141.859743 -229.789239 -351.613522 0 120 255
144.280425 -229.686946 -352.115291 0 120 255
146.704459 -229.573750 -352.596467 0 120 255
149.138499 -229.428004 -353.016162 0 120 255
151.572539 -229.282258 -353.435856 0 120 255
154.006579 -229.136512 -353.855551 0 120 255
156.442400 -228.982190 -354.260217 0 120 255
158.884965 -228.795375 -354.607943 0 120 255
161.327530 -228.608559 -354.955669 0 120 255
163.770095 -228.421744 -355.303394 0 120 255
166.213476 -228.229106 -355.641095 0 120 255
168.660936 -228.007360 -355.928684 0 120 255
171.108395 -227.785614 -356.216272 0 120 255
173.555855 -227.563868 -356.503861 0 120 255
176.003287 -227.340912 -356.790724 0 120 255
178.450526 -227.109472 -357.072499 0 120 255
180.897764 -226.878032 -357.354273 0 120 255
183.345002 -226.646593 -357.636048 0 120 255
185.792241 -226.415152 -357.917824 0 120 255
188.239477 -226.183701 -358.199611 0 120 255
190.686713 -225.952250 -358.481398 0 120 255
193.133948 -225.720799 -358.763185 0 120 255
195.581184 -225.489348 -359.044972 0 120 255
198.028422 -225.257901 -359.326752 0 120 255
200.475659 -225.026454 -359.608531 0 120 255
202.922896 -224.795007 -359.890311 0 120 255
205.370133 -224.563560 -360.172091 0 120 255
