ply
format ascii 1.0
element vertex 385
property float x
property float y
property float z
property uchar red
property uchar green
property uchar blue
end_header
77.430455 -42.474882 -360.397637 0 120 255
77.187556 -42.528710 -357.935969 0 120 255
76.944657 -42.582539 -355.474301 0 120 255
76.701758 -42.636368 -353.012634 0 120 255
76.458859 -42.690197 -350.550966 0 120 255
76.213233 -42.754268 -348.089815 0 120 255
75.967488 -42.818785 -345.628687 0 120 255
75.721743 -42.883302 -343.167558 0 120 255
75.475999 -42.947819 -340.706430 0 120 255
75.088202 -43.320181 -338.293554 0 120 255
74.687453 -43.720614 -335.885077 0 120 255
74.286704 -44.121048 -333.476601 0 120 255
73.885954 -44.521481 -331.068125 0 120 255
73.385643 -45.142971 -328.728085 0 120 255
72.870652 -45.797056 -326.398136 0 120 255
72.355660 -46.451141 -324.068187 0 120 255
71.840668 -47.105227 -321.738238 0 120 255
71.265224 -47.925062 -319.477506 0 120 255
70.677112 -48.779630 -317.231277 0 120 255
70.089000 -49.634197 -314.985048 0 120 255
69.500888 -50.488765 -312.738819 0 120 255
68.886997 -51.473959 -310.555197 0 120 255
68.265928 -52.495524 -308.389006 0 120 255
67.644859 -53.517090 -306.222815 0 120 255
67.023790 -54.538655 -304.056624 0 120 255
66.405147 -55.670955 -301.946791 0 120 255
65.787366 -56.842607 -299.856986 0 120 255
65.169584 -58.014258 -297.767181 0 120 255
64.551802 -59.185910 -295.677377 0 120 255
63.957436 -60.457873 -293.641556 0 120 255
63.373417 -61.774169 -291.629594 0 120 255
62.789399 -63.090465 -289.617631 0 120 255
62.205381 -64.406762 -287.605669 0 120 255
61.658774 -65.817407 -285.649718 0 120 255
61.132380 -67.279027 -283.724028 0 120 255
60.605985 -68.740648 -281.798339 0 120 255
60.079591 -70.202268 -279.872649 0 120 255
59.598509 -71.753140 -278.008227 0 120 255
59.147017 -73.362292 -276.183812 0 120 255
58.695525 -74.971444 -274.359398 0 120 255
58.244032 -76.580597 -272.534983 0 120 255
57.840995 -78.272678 -270.778486 0 120 255
57.475923 -80.029738 -269.075204 0 120 255
57.110851 -81.786798 -267.371922 0 120 255
56.745780 -83.543857 -265.668640 0 120 255
56.428979 -85.375455 -264.039511 0 120 255
56.157376 -87.276848 -262.479818 0 120 255
55.885774 -89.178240 -260.920124 0 120 255
55.614172 -91.079633 -259.360431 0 120 255
55.388680 -93.045157 -257.879317 0 120 255
55.214722 -95.082358 -256.486026 0 120 255
55.040765 -97.119558 -255.092736 0 120 255
54.866807 -99.156759 -253.699446 0 120 255
54.735892 -101.246240 -252.386476 0 120 255
54.662475 -103.405561 -251.180802 0 120 255
54.589059 -105.564882 -249.975128 0 120 255
54.515642 -107.724202 -248.769454 0 120 255
54.482041 -109.923321 -247.642796 0 120 255
54.512283 -112.186253 -246.642831 0 120 255
54.542526 -114.449186 -245.642867 0 120 255
54.572768 -116.712118 -244.642902 0 120 255
54.639821 -119.002570 -243.717634 0 120 255
54.778244 -121.346380 -242.937185 0 120 255
54.916667 -123.690190 -242.156736 0 120 255
55.055090 -126.034000 -241.376287 0 120 255
55.227613 -128.394012 -240.663516 0 120 255
55.480988 -130.792443 -240.111214 0 120 255
55.734362 -133.190873 -239.558912 0 120 255
55.987737 -135.589304 -239.006609 0 120 255
56.272614 -137.994204 -238.512771 0 120 255
56.650381 -140.418182 -238.191327 0 120 255
57.028147 -142.842161 -237.869883 0 120 255
57.405914 -145.266139 -237.548438 0 120 255
57.812360 -147.688931 -237.274704 0 120 255
58.326626 -150.107264 -237.180339 0 120 255
58.840893 -152.525596 -237.085974 0 120 255
59.355159 -154.943928 -236.991609 0 120 255
59.894646 -157.355855 -236.933395 0 120 255
60.559702 -159.735893 -237.055164 0 120 255
61.224757 -162.115930 -237.176933 0 120 255
61.889812 -164.495968 -237.298702 0 120 255
62.575618 -166.867065 -237.445106 0 120 255
63.407035 -169.175423 -237.764380 0 120 255
64.238451 -171.483781 -238.083653 0 120 255
65.069868 -173.792139 -238.402927 0 120 255
65.916289 -176.091835 -238.736289 0 120 255
66.929531 -178.295232 -239.226276 0 120 255
67.942772 -180.498629 -239.716264 0 120 255
68.956014 -182.702026 -240.206252 0 120 255
69.977199 -184.899850 -240.701748 0 120 255
71.185920 -186.966102 -241.327290 0 120 255
72.394641 -189.032354 -241.952832 0 120 255
73.603362 -191.098605 -242.578375 0 120 255
74.812083 -193.164857 -243.203917 0 120 255
76.225866 -195.064301 -243.921526 0 120 255
77.639839 -196.963590 -244.639220 0 120 255
79.053812 -198.862880 -245.356914 0 120 255
80.467785 -200.762170 -246.074608 0 120 255
82.081968 -202.476617 -246.831872 0 120 255
83.704967 -204.182927 -247.590878 0 120 255
85.327965 -205.889236 -248.349884 0 120 255
86.950964 -207.595545 -249.108890 0 120 255
88.761658 -209.106101 -249.853622 0 120 255
90.589371 -210.598907 -250.597060 0 120 255
92.417085 -212.091712 -251.340497 0 120 255
94.244799 -213.584518 -252.083935 0 120 255
96.239571 -214.878528 -252.760669 0 120 255
98.257958 -216.144435 -253.427973 0 120 255
100.276346 -217.410342 -254.095276 0 120 255
102.294734 -218.676250 -254.762580 0 120 255
104.451744 -219.748618 -255.315120 0 120 255
106.636023 -220.782915 -255.845084 0 120 255
108.820301 -221.817212 -256.375049 0 120 255
111.004580 -222.851509 -256.905013 0 120 255
113.292518 -223.705604 -257.279460 0 120 255
115.607146 -224.513302 -257.613864 0 120 255
117.921774 -225.321001 -257.948269 0 120 255
120.236402 -226.128699 -258.282674 0 120 255
122.615239 -226.776812 -258.430684 0 120 255
125.014918 -227.373125 -258.518190 0 120 255
127.414597 -227.969437 -258.605696 0 120 255
129.814276 -228.565749 -258.693202 0 120 255
132.236906 -229.028819 -258.575076 0 120 255
134.668700 -229.438691 -258.374851 0 120 255
137.100494 -229.848562 -258.174625 0 120 255
139.532287 -230.258434 -257.974399 0 120 255
141.946876 -230.565104 -257.561688 0 120 255
144.353156 -230.821935 -257.046365 0 120 255
146.759437 -231.078766 -256.531042 0 120 255
149.165717 -231.335597 -256.015719 0 120 255
151.518496 -231.521156 -255.293023 0 120 255
153.840381 -231.665563 -254.450586 0 120 255
156.162267 -231.809969 -253.608150 0 120 255
158.484152 -231.954375 -252.765713 0 120 255
160.722431 -232.058047 -251.731354 0 120 255
162.903414 -232.133802 -250.565474 0 120 255
165.084398 -232.209558 -249.399593 0 120 255
167.265381 -232.285314 -248.233712 0 120 255
169.340258 -232.344429 -246.899263 0 120 255
171.329229 -232.390071 -245.428341 0 120 255
173.318201 -232.435713 -243.957418 0 120 255
175.307173 -232.481355 -242.486496 0 120 255
177.172809 -232.515581 -240.872286 0 120 255
178.920645 -232.538902 -239.121220 0 120 255
180.668480 -232.562223 -237.370153 0 120 255
182.416315 -232.585544 -235.619087 0 120 255
184.029696 -232.600948 -233.752781 0 120 255
185.491713 -232.607440 -231.756742 0 120 255
186.953729 -232.613932 -229.760704 0 120 255
188.415745 -232.620424 -227.764665 0 120 255
189.739594 -232.622790 -225.682853 0 120 255
190.879734 -232.619668 -223.486999 0 120 255
192.019875 -232.616546 -221.291145 0 120 255
193.160016 -232.613424 -219.095291 0 120 255
194.165018 -232.608509 -216.841932 0 120 255
194.956874 -232.600766 -214.497874 0 120 255
195.748731 -232.593023 -212.153816 0 120 255
196.540587 -232.585280 -209.809758 0 120 255
197.206191 -232.576920 -207.433498 0 120 255
197.633841 -232.567397 -204.996547 0 120 255
198.061491 -232.557875 -202.559596 0 120 255
198.489141 -232.548352 -200.122645 0 120 255
198.804000 -232.538597 -197.674538 0 120 255
198.862064 -232.528311 -195.201033 0 120 255
198.920128 -232.518025 -192.727528 0 120 255
198.978192 -232.507739 -190.254023 0 120 255
198.940041 -232.497120 -187.785377 0 120 255
198.633110 -232.485572 -185.330308 0 120 255
198.326180 -232.474023 -182.875238 0 120 255
198.019250 -232.462474 -180.420169 0 120 255
197.634317 -232.450305 -177.980660 0 120 255
196.975922 -232.435964 -175.595704 0 120 255
196.317527 -232.421622 -173.210748 0 120 255
195.659132 -232.407281 -170.825792 0 120 255
194.941212 -232.392054 -168.461915 0 120 255
193.952413 -232.372800 -166.193961 0 120 255
192.963615 -232.353545 -163.926008 0 120 255
191.974816 -232.334291 -161.658055 0 120 255
190.944078 -232.314035 -159.411963 0 120 255
189.651990 -232.287539 -157.302102 0 120 255
188.359903 -232.261044 -155.192241 0 120 255
187.067815 -232.234549 -153.082380 0 120 255
185.749548 -232.207155 -150.991100 0 120 255
184.185757 -232.171327 -149.074077 0 120 255
182.621965 -232.135499 -147.157053 0 120 255
181.058174 -232.099671 -145.240030 0 120 255
179.481498 -232.063252 -143.335019 0 120 255
177.680596 -232.016543 -141.639061 0 120 255
175.879693 -231.969833 -139.943103 0 120 255
174.078791 -231.923124 -138.247144 0 120 255
172.275426 -231.876272 -136.554165 0 120 255
170.273691 -231.817938 -135.101113 0 120 255
168.271956 -231.759603 -133.648061 0 120 255
166.270222 -231.701269 -132.195009 0 120 255
164.268487 -231.642934 -130.741957 0 120 255
162.107632 -231.573549 -129.539928 0 120 255
159.941878 -231.503824 -128.345627 0 120 255
157.776125 -231.434099 -127.151325 0 120 255
155.610371 -231.364374 -125.957024 0 120 255
153.326229 -231.285340 -125.012452 0 120 255
151.032895 -231.205584 -124.087268 0 120 255
148.739562 -231.125827 -123.162084 0 120 255
146.446228 -231.046071 -122.236900 0 120 255
144.071212 -230.959778 -121.554949 0 120 255
141.685656 -230.872641 -120.904382 0 120 255
139.300101 -230.785505 -120.253815 0 120 255
136.914545 -230.698369 -119.603249 0 120 255
134.479685 -230.608458 -119.185433 0 120 255
132.035674 -230.518033 -118.810813 0 120 255
129.591663 -230.427607 -118.436193 0 120 255
127.147653 -230.337182 -118.061573 0 120 255
124.682423 -230.246626 -117.906351 0 120 255
122.211929 -230.156039 -117.805565 0 120 255
119.741435 -230.065451 -117.704780 0 120 255
117.270941 -229.974863 -117.603994 0 120 255
114.803191 -229.885274 -117.707271 0 120 255
112.336314 -229.796000 -117.875347 0 120 255
109.869436 -229.706727 -118.043424 0 120 255
107.402558 -229.617454 -118.211501 0 120 255
104.958446 -229.529743 -118.566844 0 120 255
102.523329 -229.442649 -118.996173 0 120 255
100.088212 -229.355555 -119.425503 0 120 255
97.653094 -229.268461 -119.854832 0 120 255
95.257016 -229.183424 -120.453730 0 120 255
92.879765 -229.099379 -121.134407 0 120 255
90.502515 -229.015334 -121.815083 0 120 255
88.125264 -228.931289 -122.495760 0 120 255
85.799832 -228.849681 -123.327935 0 120 255
83.504510 -228.769489 -124.248135 0 120 255
81.209187 -228.689296 -125.168336 0 120 255
78.913864 -228.609104 -126.088536 0 120 255
76.679926 -228.531638 -127.142217 0 120 255
74.488577 -228.456062 -128.288508 0 120 255
72.297228 -228.380487 -129.434799 0 120 255
70.105879 -228.304912 -130.581090 0 120 255
67.982542 -228.232237 -131.843227 0 120 255
65.915234 -228.161952 -133.200800 0 120 255
63.847926 -228.091666 -134.558373 0 120 255
61.780619 -228.021381 -135.915945 0 120 255
59.785280 -227.954083 -137.372382 0 120 255
57.860133 -227.889699 -138.925240 0 120 255
55.934987 -227.825315 -140.478099 0 120 255
54.009840 -227.760931 -142.030958 0 120 255
52.158204 -227.699533 -143.666571 0 120 255
50.391407 -227.641581 -145.397690 0 120 255
48.624609 -227.583629 -147.128810 0 120 255
46.857812 -227.525677 -148.859929 0 120 255
45.163927 -227.470633 -150.658781 0 120 255
43.569807 -227.419569 -152.550309 0 120 255
41.975687 -227.368505 -154.441837 0 120 255
40.381567 -227.317441 -156.333365 0 120 255
38.857867 -227.269144 -158.278841 0 120 255
37.448922 -227.225358 -160.312227 0 120 255
36.039976 -227.181572 -162.345614 0 120 255
34.631030 -227.137785 -164.379000 0 120 255
33.288334 -227.096565 -166.453900 0 120 255
32.075175 -227.060361 -168.609971 0 120 255
30.862017 -227.024157 -170.766041 0 120 255
29.648858 -226.987953 -172.922112 0 120 255
28.496344 -226.954073 -175.108733 0 120 255
27.487726 -226.925709 -177.367846 0 120 255
26.479109 -226.897345 -179.626959 0 120 255
25.470491 -226.868980 -181.886072 0 120 255
24.515730 -226.842657 -184.166342 0 120 255
23.718606 -226.822307 -186.508539 0 120 255
22.921482 -226.801958 -188.850736 0 120 255
22.124358 -226.781609 -191.192932 0 120 255
21.373320 -226.762988 -193.548515 0 120 255
20.792729 -226.750763 -195.953608 0 120 255
20.212138 -226.738537 -198.358700 0 120 255
19.631546 -226.726312 -200.763793 0 120 255
19.088529 -226.715482 -203.176180 0 120 255
18.727603 -226.711419 -205.623918 0 120 255
18.366677 -226.707356 -208.071656 0 120 255
18.005752 -226.703293 -210.519394 0 120 255
17.673387 -226.700279 -212.970041 0 120 255
17.533360 -226.704331 -215.440280 0 120 255
17.393333 -226.708382 -217.910519 0 120 255
17.253305 -226.712434 -220.380758 0 120 255
17.132566 -226.717187 -222.851229 0 120 255
17.212798 -226.729252 -225.324106 0 120 255
17.293030 -226.741317 -227.796983 0 120 255
17.373262 -226.753382 -230.269861 0 120 255
17.463482 -226.765808 -232.741969 0 120 255
17.761451 -226.785741 -235.198089 0 120 255
18.059419 -226.805674 -237.654208 0 120 255
18.357388 -226.825607 -240.110328 0 120 255
18.656248 -226.845572 -242.566299 0 120 255
19.167520 -226.873131 -244.986949 0 120 255
19.678792 -226.900691 -247.407599 0 120 255
20.190064 -226.928250 -249.828249 0 120 255
20.701336 -226.955809 -252.248899 0 120 255
21.411885 -226.990436 -254.618282 0 120 255
22.130199 -227.025338 -256.985667 0 120 255
22.848512 -227.060240 -259.353053 0 120 255
23.566826 -227.095142 -261.720438 0 120 255
24.468489 -227.136486 -264.023425 0 120 255
25.385919 -227.178384 -266.320874 0 120 255
26.303349 -227.220282 -268.618323 0 120 255
27.220779 -227.262179 -270.915772 0 120 255
28.304926 -227.309871 -273.138261 0 120 255
29.411993 -227.358358 -275.350445 0 120 255
30.519060 -227.406846 -277.562629 0 120 255
31.626127 -227.455334 -279.774812 0 120 255
32.882904 -227.508963 -281.904049 0 120 255
34.168745 -227.563590 -284.017183 0 120 255
35.454586 -227.618217 -286.130316 0 120 255
36.740427 -227.672843 -288.243450 0 120 255
38.158925 -227.731970 -290.268183 0 120 255
39.611482 -227.792252 -292.270220 0 120 255
41.064038 -227.852534 -294.272256 0 120 255
42.516595 -227.912816 -296.274293 0 120 255
44.085092 -227.976988 -298.184864 0 120 255
45.691419 -228.042430 -300.065592 0 120 255
47.297746 -228.107872 -301.946320 0 120 255
48.904072 -228.173314 -303.827048 0 120 255
50.610232 -228.242046 -305.615491 0 120 255
52.356727 -228.312107 -307.366648 0 120 255
54.103223 -228.382168 -309.117805 0 120 255
55.849718 -228.452230 -310.868962 0 120 255
57.680856 -228.525098 -312.528999 0 120 255
59.553596 -228.599347 -314.144250 0 120 255
61.426336 -228.673596 -315.759502 0 120 255
63.299076 -228.747845 -317.374753 0 120 255
65.242378 -228.824532 -318.901797 0 120 255
67.227357 -228.902660 -320.376741 0 120 255
69.212336 -228.980788 -321.851685 0 120 255
71.197315 -229.058915 -323.326630 0 120 255
73.240023 -229.139011 -324.717795 0 120 255
75.323376 -229.220492 -326.049977 0 120 255
77.406728 -229.301973 -327.382158 0 120 255
79.490081 -229.383454 -328.714340 0 120 255
81.619516 -229.465481 -329.968799 0 120 255
83.787423 -229.547964 -331.158370 0 120 255
85.955331 -229.630447 -332.347941 0 120 255
88.123239 -229.712930 -333.537511 0 120 255
90.326445 -229.790170 -334.658073 0 120 255
92.564515 -229.862231 -335.710478 0 120 255
94.802585 -229.934292 -336.762883 0 120 255
97.040654 -230.006354 -337.815288 0 120 255
99.305059 -230.068400 -338.807870 0 120 255
101.600233 -230.118745 -339.730555 0 120 255
103.895407 -230.169091 -340.653239 0 120 255
106.190581 -230.219436 -341.575923 0 120 255
108.504848 -230.256998 -342.447793 0 120 255
110.845564 -230.276849 -343.249266 0 120 255
113.186280 -230.296700 -344.050739 0 120 255
115.526996 -230.316551 -344.852212 0 120 255
117.881062 -230.322417 -345.611482 0 120 255
120.257164 -230.305197 -346.301080 0 120 255
122.633267 -230.287977 -346.990678 0 120 255
125.009369 -230.270757 -347.680276 0 120 255
127.394381 -230.239644 -348.335719 0 120 255
129.797057 -230.180982 -348.923435 0 120 255
132.199733 -230.122320 -349.511152 0 120 255
134.602410 -230.063658 -350.098868 0 120 255
137.010688 -229.992221 -350.659754 0 120 255
139.432470 -229.889987 -351.155965 0 120 255
141.854252 -229.787753 -351.652175 0 120 255
144.276034 -229.685519 -352.148386 0 120 255
146.701073 -229.572384 -352.624283 0 120 255
149.135820 -229.426742 -353.039614 0 120 255
151.570567 -229.281101 -353.454945 0 120 255
154.005314 -229.135460 -353.870276 0 120 255
156.441767 -228.981241 -354.270924 0 120 255
158.884668 -228.794572 -354.616020 0 120 255
161.327570 -228.607903 -354.961117 0 120 255
163.770471 -228.421234 -355.306213 0 120 255
166.214130 -228.228723 -355.641686 0 120 255
168.661566 -228.007062 -355.929139 0 120 255
171.109002 -227.785402 -356.216592 0 120 255
173.556438 -227.563742 -356.504046 0 120 255
176.003843 -227.340860 -356.790788 0 120 255
178.451036 -227.109424 -357.072558 0 120 255
180.898228 -226.877989 -357.354327 0 120 255
183.345420 -226.646553 -357.636096 0 120 255
185.792612 -226.415117 -357.917867 0 120 255
188.239801 -226.183670 -358.199648 0 120 255
190.686991 -225.952223 -358.481430 0 120 255
193.134180 -225.720777 -358.763212 0 120 255
195.581370 -225.489330 -359.044994 0 120 255
198.028561 -225.257888 -359.326768 0 120 255
200.475752 -225.026445 -359.608542 0 120 255
202.922942 -224.795003 -359.890316 0 120 255
205.370133 -224.563560 -360.172091 0 120 255
