ply
format ascii 1.0
element vertex 385
property float x
property float y
property float z
property uchar red
property uchar green
property uchar blue
end_header
77.430455 -42.474882 -360.397637 0 120 255
77.187548 -42.528712 -357.935889 0 120 255
76.944641 -42.582543 -355.474142 0 120 255
76.701734 -42.636373 -353.012395 0 120 255
76.458827 -42.690203 -350.550648 0 120 255
76.219764 -42.753075 -348.088739 0 120 255
75.980868 -42.816338 -345.626824 0 120 255
75.741971 -42.879602 -343.164909 0 120 255
75.503075 -42.942866 -340.702993 0 120 255
75.253011 -43.339953 -338.275729 0 120 255
75.001928 -43.767471 -335.851624 0 120 255
74.750846 -44.194990 -333.427518 0 120 255
74.499763 -44.622508 -331.003413 0 120 255
74.239408 -45.339324 -328.652377 0 120 255
73.977687 -46.098734 -326.312099 0 120 255
73.715967 -46.858143 -323.971821 0 120 255
73.454246 -47.617553 -321.631544 0 120 255
73.188889 -48.629591 -319.392810 0 120 255
72.922770 -49.694563 -317.175353 0 120 255
72.656651 -50.759535 -314.957895 0 120 255
72.390532 -51.824508 -312.740438 0 120 255
72.126387 -53.105961 -310.644488 0 120 255
71.862792 -54.447816 -308.582439 0 120 255
71.599197 -55.789671 -306.520391 0 120 255
71.335602 -57.131526 -304.458342 0 120 255
71.079438 -58.655362 -302.530617 0 120 255
70.825927 -60.244152 -300.650835 0 120 255
70.572416 -61.832942 -298.771053 0 120 255
70.318905 -63.421732 -296.891272 0 120 255
70.078063 -65.160283 -295.152703 0 120 255
69.842855 -66.965437 -293.476934 0 120 255
69.607646 -68.770590 -291.801166 0 120 255
69.372438 -70.575743 -290.125398 0 120 255
69.154805 -72.501097 -288.592902 0 120 255
68.946740 -74.491886 -287.138402 0 120 255
68.738675 -76.482674 -285.683902 0 120 255
68.530609 -78.473463 -284.229402 0 120 255
68.344620 -80.557695 -282.916292 0 120 255
68.173163 -82.703440 -281.696259 0 120 255
68.001707 -84.849185 -280.476226 0 120 255
67.830250 -86.994931 -279.256193 0 120 255
67.684849 -89.210216 -278.172477 0 120 255
67.560024 -91.480418 -277.196411 0 120 255
67.435200 -93.750619 -276.220345 0 120 255
67.310375 -96.020821 -275.244279 0 120 255
67.214963 -98.339493 -274.396859 0 120 255
67.147284 -100.703870 -273.670743 0 120 255
67.079605 -103.068246 -272.944627 0 120 255
67.011926 -105.432623 -272.218512 0 120 255
66.976280 -107.827215 -271.611319 0 120 255
66.976636 -110.255766 -271.137778 0 120 255
66.976992 -112.684317 -270.664238 0 120 255
66.977348 -115.112868 -270.190698 0 120 255
67.011513 -117.556158 -269.824725 0 120 255
67.091004 -120.019205 -269.602960 0 120 255
67.170495 -122.482252 -269.381196 0 120 255
67.249986 -124.945300 -269.159432 0 120 255
67.364122 -127.410373 -269.032684 0 120 255
67.533871 -129.878697 -269.058451 0 120 255
67.703619 -132.347021 -269.084217 0 120 255
67.873367 -134.815344 -269.109983 0 120 255
68.077582 -137.275735 -269.217434 0 120 255
68.348494 -139.720772 -269.482948 0 120 255
68.619405 -142.165810 -269.748461 0 120 255
68.890316 -144.610848 -270.013975 0 120 255
69.194451 -147.040730 -270.347486 0 120 255
69.576935 -149.434869 -270.841355 0 120 255
69.959420 -151.829007 -271.335224 0 120 255
70.341904 -154.223146 -271.829092 0 120 255
70.755299 -156.597599 -272.377372 0 120 255
71.258981 -158.914547 -273.084589 0 120 255
71.762663 -161.231495 -273.791806 0 120 255
72.266346 -163.548444 -274.499023 0 120 255
72.797594 -165.843780 -275.247628 0 120 255
73.431010 -168.059017 -276.149632 0 120 255
74.064426 -170.274254 -277.051635 0 120 255
74.697843 -172.489491 -277.953639 0 120 255
75.354540 -174.683653 -278.885023 0 120 255
76.124864 -176.774957 -279.959802 0 120 255
76.895188 -178.866261 -281.034581 0 120 255
77.665513 -180.957565 -282.109359 0 120 255
78.454035 -183.030549 -283.203016 0 120 255
79.366783 -184.978477 -284.425542 0 120 255
80.279531 -186.926405 -285.648068 0 120 255
81.192278 -188.874332 -286.870594 0 120 255
82.117527 -190.808614 -288.103390 0 120 255
83.176378 -192.597047 -289.445940 0 120 255
84.235228 -194.385481 -290.788490 0 120 255
85.294079 -196.173915 -292.131040 0 120 255
86.359346 -197.954887 -293.477508 0 120 255
87.565964 -199.571466 -294.910284 0 120 255
88.772582 -201.188044 -296.343060 0 120 255
89.979200 -202.804623 -297.775836 0 120 255
91.186009 -204.420968 -299.208688 0 120 255
92.539961 -205.857460 -300.700467 0 120 255
93.893913 -207.293953 -302.192246 0 120 255
95.247865 -208.730446 -303.684025 0 120 255
96.601817 -210.166938 -305.175804 0 120 255
98.094663 -211.426967 -306.693587 0 120 255
99.593419 -212.679485 -308.212478 0 120 255
101.092175 -213.932004 -309.731368 0 120 255
102.590931 -215.184523 -311.250259 0 120 255
104.218284 -216.268866 -312.764843 0 120 255
105.857274 -217.337991 -314.279037 0 120 255
107.496264 -218.407117 -315.793232 0 120 255
109.135253 -219.476242 -317.307426 0 120 255
110.891253 -220.389285 -318.790441 0 120 255
112.663997 -221.279993 -320.268995 0 120 255
114.436741 -222.170701 -321.747548 0 120 255
116.209484 -223.061409 -323.226101 0 120 255
118.086751 -223.811222 -324.650520 0 120 255
119.985045 -224.532691 -326.064049 0 120 255
121.883339 -225.254159 -327.477578 0 120 255
123.781634 -225.975628 -328.891107 0 120 255
125.768667 -226.574285 -330.235744 0 120 255
127.779269 -227.140325 -331.562085 0 120 255
129.789871 -227.706365 -332.888425 0 120 255
131.800473 -228.272405 -334.214766 0 120 255
133.887824 -228.734464 -335.457163 0 120 255
136.001090 -229.161411 -336.671215 0 120 255
138.114357 -229.588358 -337.885266 0 120 255
140.227624 -230.015306 -339.099318 0 120 255
142.410941 -230.356444 -340.207965 0 120 255
144.623479 -230.661789 -341.272643 0 120 255
146.836018 -230.967133 -342.337321 0 120 255
149.048557 -231.272477 -343.401998 0 120 255
151.320527 -231.510726 -344.346523 0 120 255
153.622552 -231.715045 -345.230286 0 120 255
155.924577 -231.919363 -346.114048 0 120 255
158.226602 -232.123681 -346.997810 0 120 255
160.575386 -232.280690 -347.751267 0 120 255
162.952490 -232.409046 -348.425805 0 120 255
165.329595 -232.537402 -349.100342 0 120 255
167.706699 -232.665757 -349.774880 0 120 255
170.116661 -232.767264 -350.312569 0 120 255
172.550269 -232.849447 -350.751770 0 120 255
174.983877 -232.931630 -351.190971 0 120 255
177.417486 -233.013813 -351.630171 0 120 255
179.868941 -233.076127 -351.934208 0 120 255
182.335576 -233.121542 -352.123286 0 120 255
184.802211 -233.166956 -352.312363 0 120 255
187.268846 -233.212371 -352.501441 0 120 255
189.738805 -233.240562 -352.561449 0 120 255
192.212095 -233.251486 -352.492056 0 120 255
194.685386 -233.262410 -352.422662 0 120 255
197.158676 -233.273333 -352.353268 0 120 255
199.622046 -233.271787 -352.162790 0 120 255
202.073688 -233.255503 -351.829196 0 120 255
204.525331 -233.239219 -351.495603 0 120 255
206.976973 -233.222935 -351.162010 0 120 255
209.407223 -233.198545 -350.717594 0 120 255
211.807595 -233.162832 -350.118392 0 120 255
214.207966 -233.127119 -349.519191 0 120 255
216.608338 -233.091406 -348.919989 0 120 255
218.978077 -233.051070 -348.222090 0 120 255
221.297012 -233.003067 -347.360500 0 120 255
223.615947 -232.955063 -346.498911 0 120 255
225.934882 -232.907059 -345.637321 0 120 255
228.216504 -232.857061 -344.690437 0 120 255
230.424065 -232.803103 -343.574253 0 120 255
232.631626 -232.749145 -342.458070 0 120 255
234.839186 -232.695187 -341.341887 0 120 255
237.005508 -232.641086 -340.154474 0 120 255
239.072730 -232.586639 -338.795898 0 120 255
241.139952 -232.532193 -337.437321 0 120 255
243.207173 -232.477746 -336.078745 0 120 255
245.232028 -232.424313 -334.663034 0 120 255
247.131550 -232.373876 -333.078302 0 120 255
249.031072 -232.323439 -331.493570 0 120 255
250.930594 -232.273002 -329.908839 0 120 255
252.789351 -232.224157 -328.280516 0 120 255
254.496015 -232.181255 -326.489550 0 120 255
256.202679 -232.138353 -324.698584 0 120 255
257.909343 -232.095451 -322.907618 0 120 255
259.579388 -232.054262 -321.085514 0 120 255
261.070722 -232.021438 -319.111445 0 120 255
262.562055 -231.988614 -317.137376 0 120 255
264.053388 -231.955790 -315.163307 0 120 255
265.514509 -231.924468 -313.168996 0 120 255
266.771105 -231.903317 -311.037654 0 120 255
268.027702 -231.882165 -308.906311 0 120 255
269.284298 -231.861014 -306.774969 0 120 255
270.519001 -231.840943 -304.632342 0 120 255
271.524823 -231.832168 -302.371734 0 120 255
272.530645 -231.823393 -300.111127 0 120 255
273.536468 -231.814618 -297.850520 0 120 255
274.530218 -231.806405 -295.585344 0 120 255
275.272784 -231.809901 -293.225114 0 120 255
276.015350 -231.813397 -290.864885 0 120 255
276.757916 -231.816893 -288.504655 0 120 255
277.499301 -231.820438 -286.144126 0 120 255
277.969838 -231.835398 -283.715037 0 120 255
278.440375 -231.850357 -281.285949 0 120 255
278.910912 -231.865316 -278.856860 0 120 255
279.381449 -231.880275 -276.427771 0 120 255
279.585199 -231.904913 -273.962578 0 120 255
279.778645 -231.929924 -271.495991 0 120 255
279.972090 -231.954935 -269.029403 0 120 255
280.165535 -231.979946 -266.562815 0 120 255
280.102440 -232.012467 -264.090685 0 120 255
280.017411 -232.045630 -261.618081 0 120 255
279.932381 -232.078793 -259.145477 0 120 255
279.847352 -232.111957 -256.672873 0 120 255
279.519363 -232.150313 -254.222382 0 120 255
279.158124 -232.189379 -251.774918 0 120 255
278.796885 -232.228446 -249.327454 0 120 255
278.435646 -232.267513 -246.879989 0 120 255
277.847773 -232.309426 -244.479073 0 120 255
277.216083 -232.351889 -242.087156 0 120 255
276.584394 -232.394352 -239.695239 0 120 255
275.952704 -232.436816 -237.303323 0 120 255
275.112876 -232.479910 -234.978955 0 120 255
274.219809 -232.523166 -232.671866 0 120 255
273.326742 -232.566421 -230.364776 0 120 255
272.433675 -232.609677 -228.057687 0 120 255
271.352546 -232.651551 -225.835603 0 120 255
270.210271 -232.692976 -223.641157 0 120 255
269.067997 -232.734401 -221.446711 0 120 255
267.925722 -232.775826 -219.252265 0 120 255
266.616513 -232.814152 -217.156688 0 120 255
265.240084 -232.851231 -215.100922 0 120 255
263.863656 -232.888309 -213.045157 0 120 255
262.487227 -232.925388 -210.989392 0 120 255
260.965482 -232.957992 -209.042822 0 120 255
259.372554 -232.988405 -207.149741 0 120 255
257.779625 -233.018817 -205.256660 0 120 255
256.186697 -233.049230 -203.363579 0 120 255
254.470080 -233.074166 -201.586573 0 120 255
252.680655 -233.095879 -199.877893 0 120 255
250.891230 -233.117591 -198.169213 0 120 255
249.101805 -233.139304 -196.460533 0 120 255
247.209836 -233.154925 -194.871552 0 120 255
245.245935 -233.166273 -193.366540 0 120 255
243.282033 -233.177621 -191.861527 0 120 255
241.318132 -233.188969 -190.356514 0 120 255
239.271942 -233.193972 -188.971781 0 120 255
237.157318 -233.193699 -187.687076 0 120 255
235.042694 -233.193425 -186.402371 0 120 255
232.928070 -233.193152 -185.117667 0 120 255
230.750148 -233.186630 -183.951037 0 120 255
228.509978 -233.173963 -182.900523 0 120 255
226.269807 -233.161296 -181.850010 0 120 255
224.029637 -233.148629 -180.799497 0 120 255
221.743562 -233.130097 -179.862388 0 120 255
219.404112 -233.104747 -179.057134 0 120 255
217.064663 -233.079397 -178.251879 0 120 255
214.725213 -233.054047 -177.446625 0 120 255
212.355389 -233.023471 -176.747956 0 120 255
209.943716 -232.985695 -176.196132 0 120 255
207.532044 -232.947918 -175.644307 0 120 255
205.120372 -232.910142 -175.092482 0 120 255
202.691771 -232.867955 -174.638643 0 120 255
200.235404 -232.818535 -174.345522 0 120 255
197.779037 -232.769115 -174.052400 0 120 255
195.322670 -232.719695 -173.759278 0 120 255
192.860579 -232.666786 -173.554116 0 120 255
190.387221 -232.607010 -173.522066 0 120 255
187.913862 -232.547234 -173.490015 0 120 255
185.440504 -232.487458 -173.457964 0 120 255
182.970272 -232.425158 -173.502807 0 120 255
180.507509 -232.356826 -173.731347 0 120 255
178.044746 -232.288495 -173.959886 0 120 255
175.581984 -232.220163 -174.188426 0 120 255
173.128790 -232.150238 -174.482121 0 120 255
170.703821 -232.075614 -174.967977 0 120 255
168.278851 -232.000990 -175.453833 0 120 255
165.853882 -231.926366 -175.939688 0 120 255
163.442512 -231.850975 -176.478661 0 120 255
161.081886 -231.772727 -177.215833 0 120 255
158.721260 -231.694478 -177.953005 0 120 255
156.360634 -231.616229 -178.690177 0 120 255
154.015250 -231.538031 -179.468469 0 120 255
151.744564 -231.460083 -180.448268 0 120 255
149.473877 -231.382134 -181.428068 0 120 255
147.203190 -231.304186 -182.407867 0 120 255
144.947110 -231.226762 -183.417212 0 120 255
142.790912 -231.152916 -184.628600 0 120 255
140.634714 -231.079070 -185.839987 0 120 255
138.478516 -231.005224 -187.051374 0 120 255
136.334131 -230.931855 -188.281457 0 120 255
134.315895 -230.863585 -189.711199 0 120 255
132.297658 -230.795315 -191.140940 0 120 255
130.279421 -230.727045 -192.570682 0 120 255
128.268158 -230.659058 -194.009264 0 120 255
126.409785 -230.597289 -195.641666 0 120 255
124.551413 -230.535519 -197.274068 0 120 255
122.693040 -230.473749 -198.906470 0 120 255
120.834961 -230.411991 -200.539174 0 120 255
119.156886 -230.357445 -202.356641 0 120 255
117.478811 -230.302899 -204.174109 0 120 255
115.800735 -230.248353 -205.991577 0 120 255
114.122660 -230.193807 -207.809045 0 120 255
112.635605 -230.146801 -209.785395 0 120 255
111.156578 -230.100112 -211.768423 0 120 255
109.677551 -230.053422 -213.751451 0 120 255
108.198524 -230.006733 -215.734480 0 120 255
106.917594 -229.967737 -217.849830 0 120 255
105.654425 -229.929430 -219.977043 0 120 255
104.391256 -229.891123 -222.104257 0 120 255
103.128087 -229.852816 -224.231470 0 120 255
102.066920 -229.822251 -226.464786 0 120 255
101.034398 -229.792784 -228.713148 0 120 255
100.001876 -229.763317 -230.961510 0 120 255
98.969354 -229.733850 -233.209872 0 120 255
98.139618 -229.712061 -235.538750 0 120 255
97.350267 -229.691803 -237.883662 0 120 255
96.560917 -229.671544 -240.228575 0 120 255
95.771566 -229.651285 -242.573488 0 120 255
95.182838 -229.638555 -244.974309 0 120 255
94.646772 -229.627803 -247.389804 0 120 255
94.110705 -229.617050 -249.805299 0 120 255
93.574638 -229.606297 -252.220795 0 120 255
93.234300 -229.602839 -254.668883 0 120 255
92.959098 -229.601809 -257.127819 0 120 255
92.683895 -229.600778 -259.586754 0 120 255
92.408693 -229.599747 -262.045690 0 120 255
92.321752 -229.605748 -264.515480 0 120 255
92.312237 -229.614640 -266.989733 0 120 255
92.302723 -229.623532 -269.463987 0 120 255
92.293208 -229.632424 -271.938241 0 120 255
92.462080 -229.648093 -274.403475 0 120 255
92.720055 -229.667147 -276.864204 0 120 255
92.978030 -229.686201 -279.324933 0 120 255
93.236004 -229.705254 -281.785662 0 120 255
93.660419 -229.730700 -284.219643 0 120 255
94.184621 -229.759979 -286.637587 0 120 255
94.708823 -229.789257 -289.055532 0 120 255
95.233025 -229.818535 -291.473477 0 120 255
95.910280 -229.852623 -293.849241 0 120 255
96.696797 -229.890143 -296.194893 0 120 255
97.483314 -229.927664 -298.540545 0 120 255
98.269831 -229.965184 -300.886197 0 120 255
99.194533 -230.005035 -303.176769 0 120 255
100.236105 -230.046857 -305.420757 0 120 255
101.277676 -230.088678 -307.664744 0 120 255
102.319248 -230.130499 -309.908732 0 120 255
103.483813 -230.170157 -312.087008 0 120 255
104.771242 -230.207653 -314.199642 0 120 255
106.058671 -230.245149 -316.312276 0 120 255
107.346100 -230.282645 -318.424910 0 120 255
108.740607 -230.313616 -320.463658 0 120 255
110.261297 -230.336900 -322.415341 0 120 255
111.781986 -230.360184 -324.367023 0 120 255
113.302675 -230.383468 -326.318705 0 120 255
114.913667 -230.397585 -328.191247 0 120 255
116.650405 -230.398938 -329.953586 0 120 255
118.387143 -230.400292 -331.715925 0 120 255
120.123881 -230.401645 -333.478265 0 120 255
121.935767 -230.391353 -335.156937 0 120 255
123.871836 -230.361820 -336.697349 0 120 255
125.807904 -230.332287 -338.237760 0 120 255
127.743973 -230.302754 -339.778172 0 120 255
129.737592 -230.260838 -341.236103 0 120 255
131.844761 -230.194490 -342.531302 0 120 255
133.951930 -230.128142 -343.826500 0 120 255
136.059098 -230.061794 -345.121699 0 120 255
138.205463 -229.984326 -346.343274 0 120 255
140.445776 -229.880203 -347.388385 0 120 255
142.686090 -229.776081 -348.433496 0 120 255
144.926403 -229.671958 -349.478607 0 120 255
147.191989 -229.557860 -350.459268 0 120 255
149.532517 -229.414185 -351.248817 0 120 255
151.873045 -229.270510 -352.038366 0 120 255
154.213572 -229.126834 -352.827915 0 120 255
156.568503 -228.974672 -353.563635 0 120 255
158.977684 -228.790541 -354.096593 0 120 255
161.386864 -228.606410 -354.629552 0 120 255
163.796045 -228.422279 -355.162510 0 120 255
166.211686 -228.231747 -355.653893 0 120 255
168.659505 -228.009329 -355.938167 0 120 255
171.107324 -227.786911 -356.222441 0 120 255
173.555144 -227.564493 -356.506716 0 120 255
176.002894 -227.340949 -356.790679 0 120 255
178.450166 -227.109506 -357.072457 0 120 255
180.897437 -226.878063 -357.354236 0 120 255
183.344708 -226.646620 -357.636014 0 120 255
185.791979 -226.415176 -357.917794 0 120 255
188.239248 -226.183722 -358.199585 0 120 255
190.686516 -225.952268 -358.481376 0 120 255
193.133785 -225.720814 -358.763167 0 120 255
195.581054 -225.489360 -359.044957 0 120 255
198.028324 -225.257910 -359.326741 0 120 255
200.475593 -225.026460 -359.608524 0 120 255
202.922863 -224.795010 -359.890307 0 120 255
205.370133 -224.563560 -360.172091 0 120 255
