ply
format ascii 1.0
element vertex 385
property float x
property float y
property float z
property uchar red
property uchar green
property uchar blue
end_header
77.430455 -42.474882 -360.397637 0 120 255
77.187559 -42.528710 -357.935999 0 120 255
76.944663 -42.582538 -355.474360 0 120 255
76.701767 -42.636366 -353.012722 0 120 255
76.458870 -42.690194 -350.551084 0 120 255
76.223005 -42.753231 -348.088982 0 120 255
75.987446 -42.816670 -345.626860 0 120 255
75.751888 -42.880109 -343.164738 0 120 255
75.516329 -42.943548 -340.702616 0 120 255
75.248923 -42.988369 -338.243365 0 120 255
74.978540 -43.031449 -335.784382 0 120 255
74.708157 -43.074530 -333.325400 0 120 255
74.437773 -43.117610 -330.866417 0 120 255
74.125796 -43.136897 -328.412134 0 120 255
73.807550 -43.152599 -325.958559 0 120 255
73.489304 -43.168301 -323.504984 0 120 255
73.171057 -43.184002 -321.051409 0 120 255
72.808736 -43.179683 -318.604012 0 120 255
72.436981 -43.171078 -316.157937 0 120 255
72.065225 -43.162473 -313.711862 0 120 255
71.693469 -43.153868 -311.265787 0 120 255
71.275864 -43.129004 -308.827375 0 120 255
70.845209 -43.099512 -306.391143 0 120 255
70.414554 -43.070020 -303.954912 0 120 255
69.983899 -43.040528 -301.518680 0 120 255
69.506320 -42.998471 -299.091579 0 120 255
69.011675 -42.951844 -296.667799 0 120 255
68.517031 -42.905216 -294.244019 0 120 255
68.022386 -42.858589 -291.820239 0 120 255
67.480402 -42.802961 -289.407022 0 120 255
66.916973 -42.743257 -286.998591 0 120 255
66.353544 -42.683552 -284.590159 0 120 255
65.790115 -42.623848 -282.181728 0 120 255
65.179589 -42.558528 -279.785226 0 120 255
64.542948 -42.490094 -277.395338 0 120 255
63.906307 -42.421660 -275.005451 0 120 255
63.269666 -42.353226 -272.615563 0 120 255
62.586781 -42.282326 -270.238875 0 120 255
61.872871 -42.209773 -267.871044 0 120 255
61.158962 -42.137219 -265.503212 0 120 255
60.445052 -42.064665 -263.135380 0 120 255
59.686335 -41.992515 -260.781890 0 120 255
58.891511 -41.920691 -258.439956 0 120 255
58.096686 -41.848866 -256.098022 0 120 255
57.301862 -41.777041 -253.756089 0 120 255
56.464210 -41.708161 -251.429471 0 120 255
55.585275 -41.642119 -249.117617 0 120 255
54.706339 -41.576077 -246.805763 0 120 255
53.827404 -41.510034 -244.493909 0 120 255
52.908115 -41.449112 -242.198141 0 120 255
51.942347 -41.394086 -239.920901 0 120 255
50.976580 -41.339060 -237.643660 0 120 255
50.010812 -41.284035 -235.366420 0 120 255
49.007614 -41.235902 -233.105788 0 120 255
47.952811 -41.197273 -230.868054 0 120 255
46.898008 -41.158643 -228.630319 0 120 255
45.843204 -41.120014 -226.392584 0 120 255
44.754281 -41.089618 -224.171691 0 120 255
43.608784 -41.072875 -221.978722 0 120 255
42.463287 -41.056131 -219.785753 0 120 255
41.317790 -41.039388 -217.592783 0 120 255
40.141812 -41.031763 -215.416553 0 120 255
38.904560 -41.042470 -213.273973 0 120 255
37.667309 -41.053177 -211.131392 0 120 255
36.430057 -41.063883 -208.988812 0 120 255
35.166223 -41.084119 -206.862488 0 120 255
33.836782 -41.127874 -204.776288 0 120 255
32.507340 -41.171628 -202.690088 0 120 255
31.177899 -41.215383 -200.603888 0 120 255
29.825963 -41.268589 -198.533036 0 120 255
28.404577 -41.350978 -196.509566 0 120 255
26.983192 -41.433366 -194.486095 0 120 255
25.561806 -41.515754 -192.462624 0 120 255
24.122117 -41.607027 -190.453121 0 120 255
22.609748 -41.733578 -188.499078 0 120 255
21.097379 -41.860129 -186.545035 0 120 255
19.585010 -41.986679 -184.590993 0 120 255
18.058548 -42.121060 -182.649022 0 120 255
16.456920 -42.297201 -180.771439 0 120 255
14.855291 -42.473342 -178.893856 0 120 255
13.253663 -42.649484 -177.016272 0 120 255
11.642078 -42.831923 -175.148310 0 120 255
9.953730 -43.062915 -173.354520 0 120 255
8.265383 -43.293908 -171.560729 0 120 255
6.577036 -43.524900 -169.766939 0 120 255
4.882692 -43.760204 -167.979727 0 120 255
3.111023 -44.051096 -166.277338 0 120 255
1.339354 -44.341987 -164.574948 0 120 255
-0.432315 -44.632879 -162.872559 0 120 255
-2.206305 -44.925670 -161.173085 0 120 255
-4.056999 -45.281226 -159.569941 0 120 255
-5.907693 -45.636782 -157.966797 0 120 255
-7.758387 -45.992338 -156.363654 0 120 255
-9.609081 -46.347894 -154.760510 0 120 255
-11.532585 -46.771634 -153.263227 0 120 255
-13.457046 -47.196270 -151.767334 0 120 255
-15.381506 -47.620906 -150.271442 0 120 255
-17.305967 -48.045541 -148.775550 0 120 255
-19.294238 -48.539229 -147.388683 0 120 255
-21.286226 -49.036938 -146.008166 0 120 255
-23.278215 -49.534648 -144.627650 0 120 255
-25.270203 -50.032357 -143.247133 0 120 255
-27.316618 -50.599233 -141.978185 0 120 255
-29.368869 -51.173525 -140.721199 0 120 255
-31.421120 -51.747816 -139.464213 0 120 255
-33.473371 -52.322108 -138.207227 0 120 255
-35.570381 -52.964911 -137.063650 0 120 255
-37.674577 -53.618712 -135.938278 0 120 255
-39.778773 -54.272514 -134.812906 0 120 255
-41.882968 -54.926315 -133.687534 0 120 255
-44.022088 -55.647225 -132.676646 0 120 255
-46.168849 -56.382817 -131.690805 0 120 255
-48.315609 -57.118409 -130.704964 0 120 255
-50.462369 -57.854001 -129.719123 0 120 255
-52.634168 -58.654565 -128.848001 0 120 255
-54.813045 -59.473494 -128.009305 0 120 255
-56.991921 -60.292423 -127.170608 0 120 255
-59.170797 -61.111352 -126.331912 0 120 255
-61.364917 -61.992416 -125.607285 0 120 255
-63.564418 -62.895414 -124.922925 0 120 255
-65.763918 -63.798413 -124.238565 0 120 255
-67.963419 -64.701411 -123.554205 0 120 255
-70.168594 -65.663054 -122.982315 0 120 255
-72.376214 -66.649964 -122.458884 0 120 255
-74.583834 -67.636875 -121.935453 0 120 255
-76.791454 -68.623785 -121.412022 0 120 255
-78.995563 -69.665260 -120.998511 0 120 255
-81.197856 -70.734969 -120.641877 0 120 255
-83.400149 -71.804678 -120.285243 0 120 255
-85.602442 -72.874386 -119.928609 0 120 255
-87.792572 -73.994068 -119.678362 0 120 255
-89.975230 -75.144448 -119.493469 0 120 255
-92.157889 -76.294828 -119.308577 0 120 255
-94.340548 -77.445208 -119.123684 0 120 255
-96.503089 -78.640540 -119.040687 0 120 255
-98.651077 -79.868392 -119.031403 0 120 255
-100.799065 -81.096243 -119.022118 0 120 255
-102.947052 -82.324095 -119.012834 0 120 255
-105.067815 -83.591563 -119.100028 0 120 255
-107.165511 -84.892598 -119.268965 0 120 255
-109.263207 -86.193633 -119.437902 0 120 255
-111.360902 -87.494667 -119.606838 0 120 255
-113.425260 -88.829783 -119.865981 0 120 255
-115.456642 -90.198610 -120.214348 0 120 255
-117.488024 -91.567436 -120.562715 0 120 255
-119.519406 -92.936262 -120.911082 0 120 255
-121.512462 -94.333566 -121.342616 0 120 255
-123.461317 -95.763713 -121.870066 0 120 255
-125.410171 -97.193860 -122.397515 0 120 255
-127.359026 -98.624006 -122.924964 0 120 255
-129.265810 -100.077089 -123.527899 0 120 255
-131.115983 -101.561035 -124.232402 0 120 255
-132.966156 -103.044980 -124.936905 0 120 255
-134.816329 -104.528925 -125.641408 0 120 255
-136.622006 -106.030476 -126.413221 0 120 255
-138.357645 -107.559741 -127.290982 0 120 255
-140.093284 -109.089006 -128.168743 0 120 255
-141.828923 -110.618271 -129.046504 0 120 255
-143.519027 -112.160154 -129.983079 0 120 255
-145.124880 -113.725382 -131.028475 0 120 255
-146.730734 -115.290610 -132.073871 0 120 255
-148.336587 -116.855838 -133.119267 0 120 255
-149.897260 -118.429178 -134.214859 0 120 255
-151.358929 -120.020293 -135.420444 0 120 255
-152.820597 -121.611408 -136.626030 0 120 255
-154.282266 -123.202523 -137.831616 0 120 255
-155.700494 -124.797841 -139.078852 0 120 255
-157.004748 -126.404188 -140.435365 0 120 255
-158.309002 -128.010536 -141.791878 0 120 255
-159.613257 -129.616883 -143.148390 0 120 255
-160.877119 -131.224234 -144.538306 0 120 255
-162.012117 -132.834786 -146.034789 0 120 255
-163.147115 -134.445338 -147.531271 0 120 255
-164.282113 -136.055889 -149.027754 0 120 255
-165.380984 -137.665029 -150.549895 0 120 255
-166.336551 -139.268567 -152.173815 0 120 255
-167.292119 -140.872104 -153.797735 0 120 255
-168.247686 -142.475642 -155.421655 0 120 255
-169.172460 -144.076196 -157.064194 0 120 255
-169.940267 -145.661541 -158.801637 0 120 255
-170.708073 -147.246886 -160.539081 0 120 255
-171.475880 -148.832232 -162.276525 0 120 255
-172.219116 -150.413893 -164.026433 0 120 255
-172.792830 -151.970134 -165.862331 0 120 255
-173.366544 -153.526376 -167.698228 0 120 255
-173.940258 -155.082618 -169.534126 0 120 255
-174.496314 -156.635338 -171.377371 0 120 255
-174.871719 -158.152028 -173.295777 0 120 255
-175.247123 -159.668718 -175.214183 0 120 255
-175.622528 -161.185408 -177.132589 0 120 255
-175.987650 -162.699568 -179.054380 0 120 255
-176.162679 -164.166953 -181.038744 0 120 255
-176.337709 -165.634338 -183.023109 0 120 255
-176.512739 -167.101723 -185.007474 0 120 255
-176.685088 -168.568330 -186.992496 0 120 255
-176.659802 -169.977516 -189.025993 0 120 255
-176.634517 -171.386703 -191.059491 0 120 255
-176.609231 -172.795890 -193.092988 0 120 255
-176.583945 -174.205077 -195.126485 0 120 255
-176.365401 -175.549843 -197.191508 0 120 255
-176.141938 -176.892970 -199.257332 0 120 255
-175.918476 -178.236097 -201.323157 0 120 255
-175.695013 -179.579224 -203.388982 0 120 255
-175.289713 -180.854188 -205.469654 0 120 255
-174.872123 -182.124544 -207.551329 0 120 255
-174.454533 -183.394901 -209.633004 0 120 255
-174.036943 -184.665257 -211.714679 0 120 255
-173.450276 -185.865370 -213.796336 0 120 255
-172.844378 -187.057494 -215.877990 0 120 255
-172.238480 -188.249618 -217.959645 0 120 255
-171.632582 -189.441742 -220.041300 0 120 255
-170.871280 -190.563115 -222.110038 0 120 255
-170.084411 -191.672849 -224.176650 0 120 255
-169.297543 -192.782583 -226.243262 0 120 255
-168.510674 -193.892317 -228.309875 0 120 255
-167.582657 -194.932236 -230.352744 0 120 255
-166.623490 -195.956748 -232.390373 0 120 255
-165.664322 -196.981259 -234.428002 0 120 255
-164.705155 -198.005771 -236.465631 0 120 255
-163.619258 -198.962668 -238.470772 0 120 255
-162.497473 -199.900417 -240.466714 0 120 255
-161.375687 -200.838166 -242.462655 0 120 255
-160.253902 -201.775915 -244.458596 0 120 255
-159.019682 -202.649350 -246.415355 0 120 255
-157.745760 -203.500075 -248.358277 0 120 255
-156.471838 -204.350800 -250.301200 0 120 255
-155.197916 -205.201525 -252.244122 0 120 255
-153.825416 -205.992114 -254.143117 0 120 255
-152.410345 -206.756731 -256.023141 0 120 255
-150.995273 -207.521349 -257.903165 0 120 255
-149.580201 -208.285967 -259.783188 0 120 255
-148.079749 -208.995305 -261.616357 0 120 255
-146.534798 -209.675831 -263.425105 0 120 255
-144.989848 -210.356357 -265.233852 0 120 255
-143.444897 -211.036884 -267.042600 0 120 255
-141.826909 -211.667469 -268.803200 0 120 255
-140.163394 -212.266924 -270.533786 0 120 255
-138.499879 -212.866379 -272.264373 0 120 255
-136.836364 -213.465834 -273.994959 0 120 255
-135.111164 -214.020967 -275.677542 0 120 255
-133.340234 -214.543243 -277.324537 0 120 255
-131.569305 -215.065519 -278.971533 0 120 255
-129.798375 -215.587795 -280.618529 0 120 255
-127.976052 -216.071474 -282.218906 0 120 255
-126.108556 -216.521230 -283.778309 0 120 255
-124.241061 -216.970986 -285.337712 0 120 255
-122.373565 -217.420743 -286.897115 0 120 255
-120.463848 -217.837571 -288.412295 0 120 255
-118.510159 -218.220105 -289.881419 0 120 255
-116.556470 -218.602640 -291.350542 0 120 255
-114.602781 -218.985175 -292.819666 0 120 255
-112.614928 -219.340254 -294.247763 0 120 255
-110.584839 -219.661392 -295.625140 0 120 255
-108.554750 -219.982530 -297.002518 0 120 255
-106.524662 -220.303667 -298.379895 0 120 255
-104.467394 -220.602513 -299.720058 0 120 255
-102.370070 -220.868506 -301.005374 0 120 255
-100.272746 -221.134499 -302.290690 0 120 255
-98.175421 -221.400492 -303.576006 0 120 255
-96.056869 -221.648949 -304.828321 0 120 255
-93.900749 -221.866371 -306.022236 0 120 255
-91.744629 -222.083794 -307.216150 0 120 255
-89.588508 -222.301216 -308.410064 0 120 255
-87.416166 -222.505372 -309.575446 0 120 255
-85.208978 -222.681030 -310.679539 0 120 255
-83.001789 -222.856688 -311.783632 0 120 255
-80.794601 -223.032347 -312.887725 0 120 255
-78.575334 -223.198470 -313.967848 0 120 255
-76.324074 -223.339339 -314.984481 0 120 255
-74.072814 -223.480208 -316.001114 0 120 255
-71.821554 -223.621077 -317.017747 0 120 255
-69.561590 -223.755561 -318.014935 0 120 255
-67.272538 -223.868709 -318.947133 0 120 255
-64.983485 -223.981856 -319.879331 0 120 255
-62.694432 -224.095003 -320.811530 0 120 255
-60.399450 -224.205173 -321.728758 0 120 255
-58.078584 -224.302344 -322.580635 0 120 255
-55.757717 -224.399515 -323.432512 0 120 255
-53.436851 -224.496686 -324.284389 0 120 255
-51.112198 -224.593176 -325.125487 0 120 255
-48.764683 -224.685554 -325.901501 0 120 255
-46.417168 -224.777931 -326.677516 0 120 255
-44.069654 -224.870308 -327.453531 0 120 255
-41.719918 -224.962463 -328.222491 0 120 255
-39.349569 -225.052554 -328.925974 0 120 255
-36.979221 -225.142644 -329.629458 0 120 255
-34.608872 -225.232734 -330.332941 0 120 255
-32.237520 -225.322733 -331.032870 0 120 255
-29.847892 -225.411049 -331.668036 0 120 255
-27.458264 -225.499366 -332.303203 0 120 255
-25.068636 -225.587682 -332.938369 0 120 255
-22.678901 -225.675997 -333.573112 0 120 255
-20.273463 -225.764070 -334.145535 0 120 255
-17.868025 -225.852144 -334.717958 0 120 255
-15.462587 -225.940217 -335.290381 0 120 255
-13.057149 -226.028291 -335.862804 0 120 255
-10.639181 -226.117139 -336.379492 0 120 255
-8.220713 -226.206017 -336.893955 0 120 255
-5.802246 -226.294896 -337.408419 0 120 255
-3.383778 -226.383775 -337.922883 0 120 255
-0.955483 -226.473178 -338.388415 0 120 255
1.473708 -226.562628 -338.849491 0 120 255
3.902898 -226.652079 -339.310566 0 120 255
6.332088 -226.741530 -339.771641 0 120 255
8.768879 -226.831286 -340.190306 0 120 255
11.206791 -226.921088 -340.602710 0 120 255
13.644704 -227.010890 -341.015113 0 120 255
16.082616 -227.100692 -341.427516 0 120 255
18.526331 -227.190606 -341.803611 0 120 255
20.971266 -227.280545 -342.172071 0 120 255
23.416201 -227.370484 -342.540531 0 120 255
25.861135 -227.460422 -342.908991 0 120 255
28.310420 -227.550308 -343.246954 0 120 255
30.760922 -227.640179 -343.576378 0 120 255
33.211424 -227.730051 -343.905802 0 120 255
35.661926 -227.819922 -344.235225 0 120 255
38.115635 -227.909572 -344.539538 0 120 255
40.570491 -227.999144 -344.834860 0 120 255
43.025348 -228.088715 -345.130181 0 120 255
45.480204 -228.178287 -345.425503 0 120 255
47.937432 -228.267434 -345.700187 0 120 255
50.395717 -228.356393 -345.965666 0 120 255
52.854002 -228.445352 -346.231145 0 120 255
55.312287 -228.534311 -346.496623 0 120 255
57.772355 -228.622353 -346.745032 0 120 255
60.233398 -228.709894 -346.984126 0 120 255
62.694440 -228.797436 -347.223220 0 120 255
65.155482 -228.884978 -347.462314 0 120 255
67.617860 -228.969454 -347.688128 0 120 255
70.081119 -229.051910 -347.905186 0 120 255
72.544378 -229.134366 -348.122245 0 120 255
75.007637 -229.216822 -348.339303 0 120 255
77.471883 -229.292776 -348.547097 0 120 255
79.936909 -229.363593 -348.747570 0 120 255
82.401935 -229.434411 -348.948044 0 120 255
84.866961 -229.505228 -349.148518 0 120 255
87.332676 -229.567314 -349.343067 0 120 255
89.799039 -229.621168 -349.532032 0 120 255
92.265403 -229.675022 -349.720996 0 120 255
94.731767 -229.728875 -349.909961 0 120 255
97.198541 -229.773044 -350.095749 0 120 255
99.665775 -229.806331 -350.277967 0 120 255
102.133010 -229.839618 -350.460186 0 120 255
104.600244 -229.872906 -350.642404 0 120 255
107.067633 -229.895922 -350.823737 0 120 255
109.535227 -229.905167 -351.003882 0 120 255
112.002821 -229.914412 -351.184027 0 120 255
114.470415 -229.923656 -351.364171 0 120 255
116.937917 -229.922412 -351.545303 0 120 255
119.405273 -229.904308 -351.728022 0 120 255
121.872629 -229.886203 -351.910740 0 120 255
124.339984 -229.868099 -352.093458 0 120 255
126.807016 -229.839629 -352.278608 0 120 255
129.273420 -229.791033 -352.468477 0 120 255
131.739823 -229.742438 -352.658346 0 120 255
134.206227 -229.693843 -352.848215 0 120 255
136.672093 -229.635326 -353.041548 0 120 255
139.136683 -229.553278 -353.243094 0 120 255
141.601273 -229.471229 -353.444640 0 120 255
144.065863 -229.389181 -353.646187 0 120 255
146.529734 -229.297963 -353.851808 0 120 255
148.991483 -229.179711 -354.069442 0 120 255
151.453233 -229.061459 -354.287077 0 120 255
153.914982 -228.943207 -354.504712 0 120 255
156.375877 -228.816812 -354.726647 0 120 255
158.833562 -228.659811 -354.964750 0 120 255
161.291247 -228.502810 -355.202854 0 120 255
163.748932 -228.345809 -355.440957 0 120 255
166.205301 -228.180098 -355.685423 0 120 255
168.655108 -227.970979 -355.961599 0 120 255
171.104914 -227.761859 -356.237776 0 120 255
173.554721 -227.552739 -356.513953 0 120 255
176.004197 -227.340826 -356.790829 0 120 255
178.451360 -227.109393 -357.072595 0 120 255
180.898522 -226.877961 -357.354361 0 120 255
183.345685 -226.646528 -357.636127 0 120 255
185.792847 -226.415094 -357.917894 0 120 255
188.240007 -226.183651 -358.199672 0 120 255
190.687167 -225.952207 -358.481451 0 120 255
193.134328 -225.720763 -358.763229 0 120 255
195.581488 -225.489319 -359.045007 0 120 255
198.028649 -225.257880 -359.326778 0 120 255
200.475810 -225.026440 -359.608549 0 120 255
202.922972 -224.795000 -359.890320 0 120 255
205.370133 -224.563560 -360.172091 0 120 255
