ply
format ascii 1.0
element vertex 385
property float x
property float y
property float z
property uchar red
property uchar green
property uchar blue
end_header
77.430455 -42.474882 -360.397637 0 120 255
77.187553 -42.528711 -357.935942 0 120 255
76.944652 -42.582540 -355.474247 0 120 255
76.701750 -42.636370 -353.012553 0 120 255
76.458848 -42.690199 -350.550858 0 120 255
76.213863 -42.754417 -348.089620 0 120 255
75.968788 -42.819086 -345.628402 0 120 255
75.723712 -42.883755 -343.167184 0 120 255
75.478637 -42.948424 -340.705966 0 120 255
75.067586 -43.392495 -338.310201 0 120 255
74.641437 -43.871079 -335.920391 0 120 255
74.215288 -44.349662 -333.530580 0 120 255
73.789139 -44.828246 -331.140770 0 120 255
73.231290 -45.575273 -328.852130 0 120 255
72.653981 -46.361965 -326.578440 0 120 255
72.076673 -47.148657 -324.304749 0 120 255
71.499365 -47.935348 -322.031058 0 120 255
70.826016 -48.908475 -319.860814 0 120 255
70.132455 -49.920836 -317.712341 0 120 255
69.438895 -50.933197 -315.563867 0 120 255
68.745335 -51.945557 -313.415393 0 120 255
67.991575 -53.086231 -311.355114 0 120 255
67.220969 -54.262808 -309.319513 0 120 255
66.450364 -55.439386 -307.283912 0 120 255
65.679759 -56.615963 -305.248310 0 120 255
64.882561 -57.884808 -303.280722 0 120 255
64.075867 -59.186603 -301.337423 0 120 255
63.269173 -60.488398 -299.394124 0 120 255
62.462479 -61.790194 -297.450824 0 120 255
61.658695 -63.165235 -295.558339 0 120 255
60.856203 -64.572787 -293.688407 0 120 255
60.053711 -65.980339 -291.818476 0 120 255
59.251220 -67.387891 -289.948545 0 120 255
58.475715 -68.860743 -288.118912 0 120 255
57.714838 -70.368989 -286.311124 0 120 255
56.953961 -71.877235 -284.503336 0 120 255
56.193084 -73.385481 -282.695547 0 120 255
55.477126 -74.956796 -280.924844 0 120 255
54.790560 -76.569380 -279.178408 0 120 255
54.103993 -78.181963 -277.431971 0 120 255
53.417427 -79.794547 -275.685535 0 120 255
52.787538 -81.469543 -273.978886 0 120 255
52.202092 -83.193482 -272.303437 0 120 255
51.616647 -84.917420 -270.627989 0 120 255
51.031201 -86.641359 -268.952540 0 120 255
50.508558 -88.425965 -267.323204 0 120 255
50.044699 -90.267358 -265.737030 0 120 255
49.580840 -92.108751 -264.150857 0 120 255
49.116981 -93.950144 -262.564684 0 120 255
48.717406 -95.848033 -261.032099 0 120 255
48.389572 -97.808973 -259.559319 0 120 255
48.061739 -99.769913 -258.086540 0 120 255
47.733905 -101.730853 -256.613761 0 120 255
47.468366 -103.741457 -255.201134 0 120 255
47.285850 -105.818253 -253.868674 0 120 255
47.103334 -107.895048 -252.536215 0 120 255
46.920818 -109.971844 -251.203756 0 120 255
46.796337 -112.089260 -249.935582 0 120 255
46.764621 -114.271606 -248.770164 0 120 255
46.732905 -116.453952 -247.604746 0 120 255
46.701189 -118.636298 -246.439328 0 120 255
46.721968 -120.848897 -245.339094 0 120 255
46.844144 -123.119931 -244.364765 0 120 255
46.966320 -125.390965 -243.390436 0 120 255
47.088497 -127.661999 -242.416107 0 120 255
47.257092 -129.952616 -241.504384 0 120 255
47.535286 -132.289473 -240.740480 0 120 255
47.813480 -134.626329 -239.976576 0 120 255
48.091675 -136.963185 -239.212671 0 120 255
48.410096 -139.309661 -238.505558 0 120 255
48.846596 -141.684373 -237.965143 0 120 255
49.283096 -144.059085 -237.424727 0 120 255
49.719597 -146.433798 -236.884312 0 120 255
50.190168 -148.809753 -236.392227 0 120 255
50.788214 -151.190363 -236.080974 0 120 255
51.386260 -153.570972 -235.769720 0 120 255
51.984306 -155.951582 -235.458466 0 120 255
52.610243 -158.327346 -235.185260 0 120 255
53.374364 -160.679108 -235.100562 0 120 255
54.138485 -163.030870 -235.015864 0 120 255
54.902606 -165.382632 -234.931165 0 120 255
55.688238 -167.726245 -234.873404 0 120 255
56.624120 -170.012937 -235.003799 0 120 255
57.560002 -172.299629 -235.134193 0 120 255
58.495884 -174.586322 -235.264588 0 120 255
59.446505 -176.864620 -235.411077 0 120 255
60.560396 -179.049936 -235.735853 0 120 255
61.674288 -181.235252 -236.060628 0 120 255
62.788179 -183.420568 -236.385404 0 120 255
63.909542 -185.600344 -236.716861 0 120 255
65.207228 -187.649393 -237.205990 0 120 255
66.504914 -189.698443 -237.695120 0 120 255
67.802599 -191.747492 -238.184249 0 120 255
69.100285 -193.796542 -238.673379 0 120 255
70.585484 -195.677669 -239.287614 0 120 255
72.070911 -197.558593 -239.902001 0 120 255
73.556337 -199.439517 -240.516389 0 120 255
75.041764 -201.320442 -241.130776 0 120 255
76.707400 -203.014437 -241.819696 0 120 255
78.381096 -204.700072 -242.511949 0 120 255
80.054792 -206.385708 -243.204203 0 120 255
81.728487 -208.071343 -243.896456 0 120 255
83.570396 -209.559122 -244.610240 0 120 255
85.427759 -211.028723 -245.326002 0 120 255
87.285121 -212.498324 -246.041765 0 120 255
89.142484 -213.967925 -246.757527 0 120 255
91.150663 -215.237352 -247.441982 0 120 255
93.180433 -216.478122 -248.121955 0 120 255
95.210203 -217.718892 -248.801928 0 120 255
97.239973 -218.959662 -249.481900 0 120 255
99.397521 -220.006686 -250.080667 0 120 255
101.580524 -221.015113 -250.663257 0 120 255
103.763527 -222.023540 -251.245847 0 120 255
105.946530 -223.031968 -251.828437 0 120 255
108.229063 -223.861277 -252.285693 0 120 255
110.537550 -224.643877 -252.710265 0 120 255
112.846038 -225.426477 -253.134838 0 120 255
115.154525 -226.209077 -253.559410 0 120 255
117.530091 -226.834373 -253.822807 0 120 255
119.927710 -227.407950 -254.033212 0 120 255
122.325329 -227.981527 -254.243617 0 120 255
124.722948 -228.555104 -254.454022 0 120 255
127.152598 -228.998649 -254.477725 0 120 255
129.595200 -229.389611 -254.425929 0 120 255
132.037802 -229.780574 -254.374133 0 120 255
134.480404 -230.171536 -254.322337 0 120 255
136.919358 -230.463151 -254.069808 0 120 255
139.356527 -230.706187 -253.719127 0 120 255
141.793697 -230.949223 -253.368447 0 120 255
144.230866 -231.192259 -253.017766 0 120 255
146.630188 -231.368359 -252.464099 0 120 255
149.007392 -231.505343 -251.791807 0 120 255
151.384596 -231.642326 -251.119514 0 120 255
153.761800 -231.779309 -250.447222 0 120 255
156.070581 -231.880640 -249.580718 0 120 255
158.331933 -231.957257 -248.579590 0 120 255
160.593285 -232.033874 -247.578463 0 120 255
162.854637 -232.110491 -246.577336 0 120 255
165.022408 -232.167646 -245.399880 0 120 255
167.113556 -232.208867 -244.078048 0 120 255
169.204704 -232.250087 -242.756216 0 120 255
171.295852 -232.291308 -241.434384 0 120 255
173.273098 -232.319657 -239.959204 0 120 255
175.140414 -232.335583 -238.336023 0 120 255
177.007731 -232.351509 -236.712843 0 120 255
178.875047 -232.367435 -235.089662 0 120 255
180.614287 -232.375392 -233.340369 0 120 255
182.207957 -232.374292 -231.447737 0 120 255
183.801626 -232.373192 -229.555105 0 120 255
185.395295 -232.372092 -227.662473 0 120 255
186.854006 -232.367266 -225.673248 0 120 255
188.131698 -232.357445 -223.554464 0 120 255
189.409389 -232.347623 -221.435680 0 120 255
190.687081 -232.337802 -219.316895 0 120 255
191.830116 -232.326894 -217.130769 0 120 255
192.759044 -232.314259 -214.837568 0 120 255
193.687972 -232.301625 -212.544366 0 120 255
194.616899 -232.288990 -210.251165 0 120 255
195.417995 -232.276597 -207.917541 0 120 255
195.976369 -232.264664 -205.507165 0 120 255
196.534743 -232.252730 -203.096788 0 120 255
197.093117 -232.240796 -200.686411 0 120 255
197.535827 -232.229492 -198.258583 0 120 255
197.713390 -232.219634 -195.790747 0 120 255
197.890952 -232.209776 -193.322911 0 120 255
198.068515 -232.199917 -190.855075 0 120 255
198.146440 -232.190496 -188.387736 0 120 255
197.944237 -232.182302 -185.921790 0 120 255
197.742034 -232.174109 -183.455845 0 120 255
197.539831 -232.165915 -180.989900 0 120 255
197.256273 -232.157707 -178.536854 0 120 255
196.685741 -232.149447 -176.129311 0 120 255
196.115208 -232.141187 -173.721768 0 120 255
195.544676 -232.132927 -171.314225 0 120 255
194.911770 -232.124191 -168.926424 0 120 255
193.993315 -232.113279 -166.628999 0 120 255
193.074859 -232.102368 -164.331574 0 120 255
192.156404 -232.091456 -162.034150 0 120 255
191.193902 -232.079779 -159.758133 0 120 255
189.955279 -232.063300 -157.616316 0 120 255
188.716655 -232.046822 -155.474499 0 120 255
187.478032 -232.030344 -153.332682 0 120 255
186.211925 -232.013063 -151.209449 0 120 255
184.686338 -231.988209 -149.261680 0 120 255
183.160751 -231.963355 -147.313911 0 120 255
181.635164 -231.938501 -145.366141 0 120 255
180.096107 -231.913071 -143.430496 0 120 255
178.320502 -231.877521 -141.707765 0 120 255
176.544897 -231.841972 -139.985034 0 120 255
174.769292 -231.806422 -138.262304 0 120 255
172.991177 -231.770727 -136.542530 0 120 255
171.004528 -231.722969 -135.068493 0 120 255
169.017879 -231.675211 -133.594457 0 120 255
167.031229 -231.627453 -132.120421 0 120 255
165.044580 -231.579694 -130.646385 0 120 255
162.891677 -231.519635 -129.429703 0 120 255
160.733601 -231.459193 -128.221028 0 120 255
158.575526 -231.398751 -127.012352 0 120 255
156.417450 -231.338309 -125.803677 0 120 255
154.136573 -231.266747 -124.850768 0 120 255
151.846127 -231.194319 -123.917791 0 120 255
149.555680 -231.121891 -122.984813 0 120 255
147.265233 -231.049464 -122.051836 0 120 255
144.890868 -230.968164 -121.367199 0 120 255
142.505654 -230.885718 -120.714670 0 120 255
140.120440 -230.803272 -120.062141 0 120 255
137.735225 -230.720825 -119.409612 0 120 255
135.300040 -230.632913 -118.993531 0 120 255
132.855568 -230.543985 -118.621396 0 120 255
130.411095 -230.455057 -118.249260 0 120 255
127.966622 -230.366129 -117.877125 0 120 255
125.501118 -230.276004 -117.726419 0 120 255
123.030388 -230.185582 -117.630723 0 120 255
120.559658 -230.095159 -117.535026 0 120 255
118.088929 -230.004737 -117.439329 0 120 255
115.621426 -229.915120 -117.548422 0 120 255
113.154949 -229.825758 -117.722619 0 120 255
110.688472 -229.736397 -117.896816 0 120 255
108.221995 -229.647036 -118.071013 0 120 255
105.778719 -229.559310 -118.432255 0 120 255
103.344621 -229.472231 -118.867479 0 120 255
100.910522 -229.385151 -119.302703 0 120 255
98.476423 -229.298072 -119.737928 0 120 255
96.081556 -229.213073 -120.341862 0 120 255
93.705629 -229.129079 -121.027251 0 120 255
91.329703 -229.045086 -121.712640 0 120 255
88.953777 -228.961092 -122.398029 0 120 255
86.629517 -228.879538 -123.233681 0 120 255
84.335309 -228.799405 -124.156735 0 120 255
82.041101 -228.719271 -125.079788 0 120 255
79.746893 -228.639137 -126.002842 0 120 255
77.513557 -228.561704 -127.057998 0 120 255
75.322499 -228.486145 -128.204905 0 120 255
73.131442 -228.410586 -129.351812 0 120 255
70.940384 -228.335028 -130.498719 0 120 255
68.816517 -228.262331 -131.760146 0 120 255
66.748062 -228.191993 -133.116016 0 120 255
64.679606 -228.121656 -134.471886 0 120 255
62.611151 -228.051319 -135.827757 0 120 255
60.613633 -227.983929 -137.281363 0 120 255
58.685373 -227.919417 -138.830393 0 120 255
56.757114 -227.854906 -140.379422 0 120 255
54.828855 -227.790394 -141.928452 0 120 255
52.972998 -227.728827 -143.559409 0 120 255
51.200788 -227.670661 -145.285020 0 120 255
49.428579 -227.612495 -147.010630 0 120 255
47.656370 -227.554329 -148.736240 0 120 255
45.955993 -227.499027 -150.529067 0 120 255
44.354004 -227.447648 -152.413963 0 120 255
42.752015 -227.396268 -154.298858 0 120 255
41.150026 -227.344889 -156.183753 0 120 255
39.617487 -227.296243 -158.122364 0 120 255
38.198234 -227.252054 -160.148594 0 120 255
36.778981 -227.207866 -162.174824 0 120 255
35.359728 -227.163677 -164.201054 0 120 255
34.005954 -227.122027 -166.268811 0 120 255
32.780328 -227.085342 -168.417842 0 120 255
31.554702 -227.048658 -170.566873 0 120 255
30.329077 -227.011974 -172.715905 0 120 255
29.163556 -226.977595 -174.895672 0 120 255
28.140770 -226.948690 -177.148428 0 120 255
27.117983 -226.919786 -179.401184 0 120 255
26.095196 -226.890882 -181.653941 0 120 255
25.125944 -226.864008 -183.928125 0 120 255
24.313504 -226.843081 -186.265077 0 120 255
23.501064 -226.822154 -188.602028 0 120 255
22.688624 -226.801227 -190.938980 0 120 255
21.922140 -226.782025 -193.289608 0 120 255
21.325735 -226.769209 -195.690853 0 120 255
20.729330 -226.756393 -198.092097 0 120 255
20.132924 -226.743577 -200.493342 0 120 255
19.574113 -226.732159 -202.902138 0 120 255
19.197565 -226.727518 -205.347548 0 120 255
18.821017 -226.722877 -207.792958 0 120 255
18.444469 -226.718236 -210.238368 0 120 255
18.096586 -226.714648 -212.686877 0 120 255
17.941758 -226.718149 -215.156260 0 120 255
17.786931 -226.721651 -217.625644 0 120 255
17.632103 -226.725153 -220.095028 0 120 255
17.496685 -226.729361 -222.564755 0 120 255
17.563422 -226.740928 -225.038063 0 120 255
17.630160 -226.752496 -227.511370 0 120 255
17.696898 -226.764063 -229.984678 0 120 255
17.773710 -226.775995 -232.457263 0 120 255
18.059782 -226.795485 -234.914827 0 120 255
18.345855 -226.814975 -237.372391 0 120 255
18.631928 -226.834465 -239.829955 0 120 255
18.918919 -226.853989 -242.287371 0 120 255
19.420035 -226.881189 -244.710176 0 120 255
19.921151 -226.908390 -247.132980 0 120 255
20.422267 -226.935591 -249.555785 0 120 255
20.923384 -226.962792 -251.978589 0 120 255
21.625453 -226.997112 -254.350527 0 120 255
22.335326 -227.031709 -256.720490 0 120 255
23.045199 -227.066305 -259.090452 0 120 255
23.755072 -227.100902 -261.460415 0 120 255
24.649758 -227.141998 -263.766146 0 120 255
25.560308 -227.183652 -266.066364 0 120 255
26.470858 -227.225306 -268.366582 0 120 255
27.381408 -227.266959 -270.666800 0 120 255
28.459860 -227.314447 -272.892082 0 120 255
29.561363 -227.362735 -275.107076 0 120 255
30.662865 -227.411023 -277.322070 0 120 255
31.764368 -227.459311 -279.537064 0 120 255
33.016470 -227.512772 -281.669078 0 120 255
34.297778 -227.567237 -283.784999 0 120 255
35.579086 -227.621702 -285.900921 0 120 255
36.860394 -227.676166 -288.016842 0 120 255
38.274989 -227.735159 -290.044331 0 120 255
39.723770 -227.795314 -292.049138 0 120 255
41.172552 -227.855469 -294.053945 0 120 255
42.621334 -227.915623 -296.058753 0 120 255
44.186482 -227.979673 -297.972101 0 120 255
45.789569 -228.044993 -299.855630 0 120 255
47.392656 -228.110312 -301.739160 0 120 255
48.995743 -228.175632 -303.622690 0 120 255
50.698922 -228.244261 -305.414011 0 120 255
52.442510 -228.314228 -307.168104 0 120 255
54.186098 -228.384194 -308.922198 0 120 255
55.929686 -228.454160 -310.676291 0 120 255
57.758069 -228.526940 -312.339408 0 120 255
59.628102 -228.601102 -313.957839 0 120 255
61.498134 -228.675264 -315.576269 0 120 255
63.368167 -228.749426 -317.194699 0 120 255
65.308862 -228.826031 -318.725108 0 120 255
67.291270 -228.904078 -320.203554 0 120 255
69.273679 -228.982125 -321.682000 0 120 255
71.256088 -229.060172 -323.160446 0 120 255
73.296325 -229.140230 -324.555290 0 120 255
75.377255 -229.221703 -325.891303 0 120 255
77.458185 -229.303176 -327.227317 0 120 255
79.539115 -229.384650 -328.563330 0 120 255
81.666224 -229.466685 -329.821788 0 120 255
83.831871 -229.549190 -331.015523 0 120 255
85.997518 -229.631695 -332.209258 0 120 255
88.163166 -229.714199 -333.402993 0 120 255
90.364199 -229.791412 -334.527887 0 120 255
92.600173 -229.863399 -335.584806 0 120 255
94.836147 -229.935386 -336.641724 0 120 255
97.072122 -230.007373 -337.698642 0 120 255
99.334521 -230.069357 -338.695863 0 120 255
101.627793 -230.119654 -339.623340 0 120 255
103.921064 -230.169952 -340.550818 0 120 255
106.214336 -230.220250 -341.478296 0 120 255
108.526803 -230.257774 -342.355006 0 120 255
110.865863 -230.277602 -343.161382 0 120 255
113.204924 -230.297429 -343.967759 0 120 255
115.543984 -230.317257 -344.774135 0 120 255
117.896493 -230.323112 -345.538295 0 120 255
120.271207 -230.305901 -346.232758 0 120 255
122.645920 -230.288689 -346.927222 0 120 255
125.020633 -230.271478 -347.621685 0 120 255
127.404354 -230.240375 -348.281896 0 120 255
129.805938 -230.181720 -348.874174 0 120 255
132.207522 -230.123066 -349.466452 0 120 255
134.609105 -230.064411 -350.058730 0 120 255
137.016375 -229.992981 -350.624029 0 120 255
139.437355 -229.890746 -351.124272 0 120 255
141.858335 -229.788510 -351.624515 0 120 255
144.279315 -229.686275 -352.124758 0 120 255
146.703624 -229.573133 -352.604466 0 120 255
149.137861 -229.427457 -353.022920 0 120 255
151.572099 -229.281780 -353.441374 0 120 255
154.006337 -229.136104 -353.859828 0 120 255
156.442334 -228.981845 -354.263344 0 120 255
158.884992 -228.795094 -354.610312 0 120 255
161.327650 -228.608344 -354.957279 0 120 255
163.770308 -228.421594 -355.304247 0 120 255
166.213764 -228.229008 -355.641301 0 120 255
168.661211 -228.007282 -355.928844 0 120 255
171.108658 -227.785556 -356.216386 0 120 255
173.556105 -227.563829 -356.503929 0 120 255
176.003523 -227.340890 -356.790751 0 120 255
178.450742 -227.109452 -357.072524 0 120 255
180.897960 -226.878014 -357.354296 0 120 255
183.345179 -226.646576 -357.636069 0 120 255
185.792398 -226.415137 -357.917842 0 120 255
188.239614 -226.183688 -358.199627 0 120 255
190.686830 -225.952239 -358.481412 0 120 255
193.134047 -225.720790 -358.763197 0 120 255
195.581263 -225.489341 -359.044981 0 120 255
198.028481 -225.257895 -359.326759 0 120 255
200.475698 -225.026450 -359.608536 0 120 255
202.922916 -224.795005 -359.890313 0 120 255
205.370133 -224.563560 -360.172091 0 120 255
