ply
format ascii 1.0
element vertex 385
property float x
property float y
property float z
property uchar red
property uchar green
property uchar blue
end_header
77.430455 -42.474882 -360.397637 0 120 255
77.187561 -42.528709 -357.936017 0 120 255
76.944666 -42.582537 -355.474397 0 120 255
76.701772 -42.636365 -353.012777 0 120 255
76.458878 -42.690192 -350.551157 0 120 255
76.225270 -42.750675 -348.088795 0 120 255
75.992068 -42.811448 -345.626399 0 120 255
75.758865 -42.872221 -343.164004 0 120 255
75.525663 -42.932994 -340.701609 0 120 255
75.462275 -43.145751 -338.238389 0 120 255
75.414359 -43.372355 -335.775094 0 120 255
75.366442 -43.598959 -333.311799 0 120 255
75.318525 -43.825563 -330.848504 0 120 255
75.426177 -44.181811 -328.403727 0 120 255
75.556520 -44.556968 -325.961651 0 120 255
75.686863 -44.932125 -323.519575 0 120 255
75.817206 -45.307281 -321.077499 0 120 255
76.094116 -45.795789 -318.669428 0 120 255
76.401340 -46.307741 -316.268389 0 120 255
76.708565 -46.819693 -313.867351 0 120 255
77.015789 -47.331645 -311.466313 0 120 255
77.457727 -47.941033 -309.111186 0 120 255
77.936717 -48.577220 -306.768687 0 120 255
78.415707 -49.213406 -304.426187 0 120 255
78.894696 -49.849592 -302.083688 0 120 255
79.494493 -50.568324 -299.795332 0 120 255
80.136782 -51.316091 -297.526020 0 120 255
80.779071 -52.063858 -295.256708 0 120 255
81.421361 -52.811625 -292.987396 0 120 255
82.169335 -53.628515 -290.776925 0 120 255
82.963657 -54.475717 -288.592259 0 120 255
83.757979 -55.322920 -286.407593 0 120 255
84.552302 -56.170122 -284.222926 0 120 255
85.436746 -57.074730 -282.098587 0 120 255
86.369631 -58.010192 -280.006673 0 120 255
87.302516 -58.945654 -277.914760 0 120 255
88.235401 -59.881117 -275.822846 0 120 255
89.243079 -60.864031 -273.789978 0 120 255
90.299463 -61.877846 -271.795561 0 120 255
91.355847 -62.891661 -269.801144 0 120 255
92.412230 -63.905476 -267.806727 0 120 255
93.528846 -64.958483 -265.867821 0 120 255
94.692629 -66.042183 -263.972386 0 120 255
95.856412 -67.125882 -262.076952 0 120 255
97.020195 -68.209581 -260.181517 0 120 255
98.230813 -69.325736 -258.336346 0 120 255
99.485352 -70.472327 -256.538312 0 120 255
100.739892 -71.618919 -254.740278 0 120 255
101.994431 -72.765511 -252.942245 0 120 255
103.283843 -73.939114 -251.188049 0 120 255
104.612369 -75.143016 -249.483026 0 120 255
105.940895 -76.346918 -247.778002 0 120 255
107.269421 -77.550820 -246.072979 0 120 255
108.622441 -78.777332 -244.404696 0 120 255
110.008368 -80.034222 -242.785777 0 120 255
111.394296 -81.291113 -241.166858 0 120 255
112.780223 -82.548004 -239.547939 0 120 255
114.181897 -83.823900 -237.958448 0 120 255
115.609026 -85.130523 -236.416532 0 120 255
117.036156 -86.437146 -234.874617 0 120 255
118.463286 -87.743769 -233.332701 0 120 255
119.899043 -89.066357 -231.813092 0 120 255
121.351715 -90.420247 -230.337223 0 120 255
122.804388 -91.774137 -228.861354 0 120 255
124.257061 -93.128027 -227.385484 0 120 255
125.712797 -94.495221 -225.925334 0 120 255
127.175906 -95.894439 -224.503023 0 120 255
128.639016 -97.293656 -223.080713 0 120 255
130.102125 -98.692874 -221.658403 0 120 255
131.564206 -100.102971 -220.246043 0 120 255
133.023187 -101.545811 -218.863636 0 120 255
134.482169 -102.988652 -217.481229 0 120 255
135.941151 -104.431493 -216.098821 0 120 255
137.396384 -105.882935 -214.721638 0 120 255
138.837117 -107.367641 -213.364655 0 120 255
140.277850 -108.852348 -212.007672 0 120 255
141.718583 -110.337054 -210.650690 0 120 255
143.154134 -111.828191 -209.295403 0 120 255
144.562830 -113.352655 -207.948907 0 120 255
145.971526 -114.877119 -206.602410 0 120 255
147.380222 -116.401583 -205.255914 0 120 255
148.783513 -117.930430 -203.908877 0 120 255
150.146499 -119.491958 -202.557817 0 120 255
151.509485 -121.053487 -201.206756 0 120 255
152.872471 -122.615016 -199.855696 0 120 255
154.231004 -124.179059 -198.503188 0 120 255
155.534605 -125.774117 -197.132830 0 120 255
156.838206 -127.369175 -195.762472 0 120 255
158.141807 -128.964233 -194.392114 0 120 255
159.443063 -130.560217 -193.020688 0 120 255
160.673381 -132.184214 -191.616973 0 120 255
161.903698 -133.808212 -190.213258 0 120 255
163.134016 -135.432210 -188.809542 0 120 255
164.364334 -137.056207 -187.405827 0 120 255
165.508050 -138.703085 -185.956322 0 120 255
166.650829 -140.350211 -184.506322 0 120 255
167.793609 -141.997336 -183.056322 0 120 255
168.936388 -143.644461 -181.606322 0 120 255
169.982325 -145.306687 -180.101734 0 120 255
171.022831 -146.969760 -178.594086 0 120 255
172.063338 -148.632832 -177.086438 0 120 255
173.103845 -150.295905 -175.578790 0 120 255
174.038007 -151.965613 -174.010573 0 120 255
174.960986 -153.636018 -172.435987 0 120 255
175.883965 -155.306424 -170.861400 0 120 255
176.806943 -156.976830 -169.286814 0 120 255
177.614878 -158.644823 -167.648594 0 120 255
178.404569 -160.312433 -166.000282 0 120 255
179.194259 -161.980044 -164.351970 0 120 255
179.983949 -163.647655 -162.703659 0 120 255
180.650871 -165.303479 -160.991715 0 120 255
181.291166 -166.956747 -159.265971 0 120 255
181.931462 -168.610016 -157.540227 0 120 255
182.571757 -170.263284 -155.814483 0 120 255
183.082727 -171.895268 -154.028104 0 120 255
183.557388 -173.521277 -152.224701 0 120 255
184.032049 -175.147285 -150.421299 0 120 255
184.506710 -176.773294 -148.617897 0 120 255
184.846948 -178.368733 -146.759791 0 120 255
185.140006 -179.953443 -144.882485 0 120 255
185.433064 -181.538153 -143.005179 0 120 255
185.726121 -183.122864 -141.127872 0 120 255
185.881401 -184.668254 -139.204486 0 120 255
185.977631 -186.196792 -137.261350 0 120 255
186.073860 -187.725331 -135.318214 0 120 255
186.170090 -189.253869 -133.375078 0 120 255
186.127252 -190.735216 -131.396820 0 120 255
186.012820 -192.192268 -129.400480 0 120 255
185.898389 -193.649321 -127.404141 0 120 255
185.783957 -195.106373 -125.407802 0 120 255
185.531479 -196.509606 -123.389154 0 120 255
185.194631 -197.879946 -121.356872 0 120 255
184.857782 -199.250286 -119.324591 0 120 255
184.520934 -200.620626 -117.292309 0 120 255
184.049558 -201.932081 -115.251773 0 120 255
183.481372 -203.201161 -113.205296 0 120 255
182.913186 -204.470242 -111.158819 0 120 255
182.345000 -205.739322 -109.112342 0 120 255
181.648378 -206.946288 -107.072188 0 120 255
180.843517 -208.100908 -105.037361 0 120 255
180.038656 -209.255528 -103.002535 0 120 255
179.233795 -210.410148 -100.967708 0 120 255
178.309118 -211.501461 -98.953512 0 120 255
177.266557 -212.530491 -96.959613 0 120 255
176.223997 -213.559520 -94.965714 0 120 255
175.181437 -214.588550 -92.971815 0 120 255
174.029925 -215.555176 -91.011786 0 120 255
172.753394 -216.450197 -89.090621 0 120 255
171.476863 -217.345218 -87.169456 0 120 255
170.200332 -218.240239 -85.248291 0 120 255
168.827613 -219.075825 -83.372383 0 120 255
167.326022 -219.831782 -81.557109 0 120 255
165.824432 -220.587740 -79.741834 0 120 255
164.322842 -221.343697 -77.926559 0 120 255
162.739137 -222.045042 -76.165424 0 120 255
161.026557 -222.660677 -74.489259 0 120 255
159.313977 -223.276312 -72.813093 0 120 255
157.601398 -223.891947 -71.136927 0 120 255
155.821445 -224.459343 -69.520777 0 120 255
153.916917 -224.937544 -68.015598 0 120 255
152.012389 -225.415746 -66.510419 0 120 255
150.107861 -225.893947 -65.005240 0 120 255
148.150634 -226.331371 -63.562665 0 120 255
146.077603 -226.679188 -62.257662 0 120 255
144.004572 -227.027005 -60.952660 0 120 255
141.931541 -227.374822 -59.647657 0 120 255
139.819707 -227.689907 -58.404511 0 120 255
137.605257 -227.918433 -57.324948 0 120 255
135.390807 -228.146959 -56.245385 0 120 255
133.176358 -228.375485 -55.165822 0 120 255
130.935565 -228.579357 -54.144233 0 120 255
128.609421 -228.703352 -53.310478 0 120 255
126.283278 -228.827347 -52.476723 0 120 255
123.957134 -228.951343 -51.642968 0 120 255
121.615139 -229.058248 -50.860575 0 120 255
119.208579 -229.095541 -50.287385 0 120 255
116.802019 -229.132835 -49.714196 0 120 255
114.395459 -229.170128 -49.141007 0 120 255
111.981196 -229.196904 -48.610426 0 120 255
109.525933 -229.167701 -48.306619 0 120 255
107.070670 -229.138498 -48.002813 0 120 255
104.615407 -229.109295 -47.699007 0 120 255
102.158039 -229.075236 -47.427524 0 120 255
99.685078 -229.005218 -47.395390 0 120 255
97.212118 -228.935200 -47.363256 0 120 255
94.739158 -228.865182 -47.331122 0 120 255
92.267116 -228.793945 -47.320271 0 120 255
89.805733 -228.708549 -47.556423 0 120 255
87.344350 -228.623154 -47.792576 0 120 255
84.882967 -228.537759 -48.028728 0 120 255
82.423124 -228.452275 -48.275110 0 120 255
80.001060 -228.364618 -48.772494 0 120 255
77.578996 -228.276961 -49.269878 0 120 255
75.156932 -228.189303 -49.767262 0 120 255
72.734869 -228.101646 -50.264645 0 120 255
70.378135 -228.016608 -51.012939 0 120 255
68.021498 -227.931574 -51.761604 0 120 255
65.664861 -227.846541 -52.510269 0 120 255
63.308225 -227.761507 -53.258934 0 120 255
61.037315 -227.681499 -54.236373 0 120 255
58.770208 -227.601714 -55.223960 0 120 255
56.503102 -227.521930 -56.211547 0 120 255
54.235995 -227.442145 -57.199134 0 120 255
52.070903 -227.367263 -58.392207 0 120 255
49.915137 -227.292830 -59.604065 0 120 255
47.759371 -227.218396 -60.815924 0 120 255
45.603605 -227.143963 -62.027782 0 120 255
43.561859 -227.074477 -63.421098 0 120 255
41.536440 -227.005700 -64.840400 0 120 255
39.511022 -226.936923 -66.259701 0 120 255
37.485603 -226.868145 -67.679002 0 120 255
35.582111 -226.804596 -69.255769 0 120 255
33.703048 -226.742093 -70.864086 0 120 255
31.823986 -226.679591 -72.472403 0 120 255
29.944923 -226.617088 -74.080721 0 120 255
28.191968 -226.559919 -75.823246 0 120 255
26.472278 -226.504156 -77.601172 0 120 255
24.752588 -226.448393 -79.379099 0 120 255
23.032898 -226.392630 -81.157026 0 120 255
21.440198 -226.342099 -83.047160 0 120 255
19.889978 -226.293319 -84.974829 0 120 255
18.339759 -226.244538 -86.902497 0 120 255
16.789539 -226.195757 -88.830166 0 120 255
15.364361 -226.151955 -90.849681 0 120 255
13.990936 -226.110213 -92.907211 0 120 255
12.617510 -226.068471 -94.964741 0 120 255
11.244085 -226.026729 -97.022270 0 120 255
9.991404 -225.989620 -99.153189 0 120 255
8.799527 -225.954844 -101.321065 0 120 255
7.607649 -225.920068 -103.488941 0 120 255
6.415772 -225.885292 -105.656817 0 120 255
5.338462 -225.854796 -107.881679 0 120 255
4.330547 -225.826894 -110.141059 0 120 255
3.322633 -225.798991 -112.400438 0 120 255
2.314718 -225.771089 -114.659818 0 120 255
1.413770 -225.747140 -116.961900 0 120 255
0.590162 -225.726049 -119.294858 0 120 255
-0.233446 -225.704959 -121.627816 0 120 255
-1.057053 -225.683868 -123.960774 0 120 255
-1.782295 -225.666434 -126.324259 0 120 255
-2.423020 -225.652141 -128.713974 0 120 255
-3.063746 -225.637848 -131.103688 0 120 255
-3.704471 -225.623554 -133.493402 0 120 255
-4.256076 -225.612577 -135.903495 0 120 255
-4.716861 -225.604979 -138.334357 0 120 255
-5.177645 -225.597380 -140.765218 0 120 255
-5.638429 -225.589782 -143.196080 0 120 255
-6.019649 -225.585116 -145.639084 0 120 255
-6.304639 -225.583997 -148.096775 0 120 255
-6.589628 -225.582878 -150.554467 0 120 255
-6.874617 -225.581760 -153.012158 0 120 255
-7.089616 -225.583206 -155.475516 0 120 255
-7.203829 -225.588347 -157.947033 0 120 255
-7.318041 -225.593487 -160.418550 0 120 255
-7.432253 -225.598628 -162.890067 0 120 255
-7.485850 -225.605976 -165.362352 0 120 255
-7.434908 -225.617132 -167.835962 0 120 255
-7.383965 -225.628287 -170.309573 0 120 255
-7.333023 -225.639442 -172.783183 0 120 255
-7.230505 -225.652450 -175.254057 0 120 255
-7.020456 -225.669320 -177.719227 0 120 255
-6.810407 -225.686190 -180.184397 0 120 255
-6.600359 -225.703060 -182.649566 0 120 255
-6.347342 -225.721462 -185.109713 0 120 255
-5.984519 -225.743777 -187.557024 0 120 255
-5.621697 -225.766092 -190.004334 0 120 255
-5.258874 -225.788408 -192.451645 0 120 255
-4.861193 -225.811962 -194.892700 0 120 255
-4.352103 -225.839476 -197.313761 0 120 255
-3.843013 -225.866991 -199.734822 0 120 255
-3.333923 -225.894505 -202.155883 0 120 255
-2.797538 -225.922983 -204.570360 0 120 255
-2.148720 -225.955427 -206.957712 0 120 255
-1.499903 -225.987870 -209.345064 0 120 255
-0.851085 -226.020314 -211.732416 0 120 255
-0.181971 -226.053471 -214.113624 0 120 255
0.600082 -226.090594 -216.460639 0 120 255
1.382135 -226.127717 -218.807655 0 120 255
2.164188 -226.164841 -221.154670 0 120 255
2.960113 -226.202451 -223.496630 0 120 255
3.869076 -226.244030 -225.797397 0 120 255
4.778039 -226.285610 -228.098163 0 120 255
5.687001 -226.327190 -230.398929 0 120 255
6.603970 -226.369049 -232.696278 0 120 255
7.633755 -226.414847 -234.945481 0 120 255
8.663539 -226.460645 -237.194684 0 120 255
9.693323 -226.506443 -239.443887 0 120 255
10.725775 -226.552333 -241.691782 0 120 255
11.870519 -226.602100 -243.884624 0 120 255
13.015262 -226.651867 -246.077465 0 120 255
14.160006 -226.701633 -248.270306 0 120 255
15.304749 -226.751400 -250.463147 0 120 255
16.556663 -226.804862 -252.596458 0 120 255
17.810749 -226.858398 -254.728563 0 120 255
19.064835 -226.911935 -256.860667 0 120 255
20.318920 -226.965471 -258.992772 0 120 255
21.670455 -227.022319 -261.064173 0 120 255
23.028536 -227.079390 -263.131497 0 120 255
24.386617 -227.136461 -265.198820 0 120 255
25.744698 -227.193532 -267.266143 0 120 255
27.191186 -227.253613 -269.272173 0 120 255
28.648161 -227.314051 -271.270933 0 120 255
30.105136 -227.374489 -273.269692 0 120 255
31.562111 -227.434927 -275.268451 0 120 255
33.099074 -227.498058 -277.205832 0 120 255
34.650056 -227.561661 -279.132454 0 120 255
36.201038 -227.625264 -281.059077 0 120 255
37.752021 -227.688868 -282.985700 0 120 255
39.375201 -227.754908 -284.851246 0 120 255
41.015563 -227.821527 -286.702257 0 120 255
42.655925 -227.888147 -288.553268 0 120 255
44.296287 -227.954767 -290.404279 0 120 255
46.001576 -228.023624 -292.194892 0 120 255
47.726845 -228.093170 -293.966918 0 120 255
49.452114 -228.162716 -295.738944 0 120 255
51.177383 -228.232262 -297.510971 0 120 255
52.960735 -228.303882 -299.223668 0 120 255
54.766498 -228.376303 -300.913473 0 120 255
56.572262 -228.448724 -302.603278 0 120 255
58.378025 -228.521145 -304.293083 0 120 255
60.235747 -228.595393 -305.924626 0 120 255
62.118091 -228.670506 -307.528561 0 120 255
64.000434 -228.745620 -309.132496 0 120 255
65.882778 -228.820734 -310.736432 0 120 255
67.811440 -228.897021 -312.283303 0 120 255
69.766674 -228.973982 -313.797438 0 120 255
71.721908 -229.050942 -315.311572 0 120 255
73.677142 -229.127903 -316.825707 0 120 255
75.672997 -229.204780 -318.284783 0 120 255
77.696791 -229.281599 -319.705987 0 120 255
79.720585 -229.358419 -321.127191 0 120 255
81.744380 -229.435239 -322.548396 0 120 255
83.803711 -229.508876 -323.916552 0 120 255
85.892157 -229.579907 -325.241246 0 120 255
87.980604 -229.650937 -326.565939 0 120 255
90.069051 -229.721968 -327.890632 0 120 255
92.188280 -229.785942 -329.164509 0 120 255
94.337437 -229.843055 -330.388980 0 120 255
96.486594 -229.900168 -331.613450 0 120 255
98.635752 -229.957282 -332.837921 0 120 255
100.811063 -230.004958 -334.014206 0 120 255
103.016531 -230.041754 -335.134931 0 120 255
105.221998 -230.078550 -336.255657 0 120 255
107.427466 -230.115346 -337.376382 0 120 255
109.654708 -230.141292 -338.451820 0 120 255
111.911783 -230.152374 -339.465207 0 120 255
114.168859 -230.163455 -340.478595 0 120 255
116.425934 -230.174537 -341.491983 0 120 255
118.700673 -230.174031 -342.463273 0 120 255
121.004303 -230.154571 -343.365701 0 120 255
123.307933 -230.135111 -344.268129 0 120 255
125.611563 -230.115651 -345.170557 0 120 255
127.929048 -230.084494 -346.034373 0 120 255
130.273802 -230.030315 -346.822194 0 120 255
132.618555 -229.976137 -347.610015 0 120 255
134.963309 -229.921958 -348.397837 0 120 255
137.318457 -229.856529 -349.150827 0 120 255
139.698512 -229.764141 -349.820358 0 120 255
142.078566 -229.671753 -350.489890 0 120 255
144.458620 -229.579365 -351.159422 0 120 255
146.846001 -229.476668 -351.798216 0 120 255
149.255123 -229.343373 -352.345783 0 120 255
151.664245 -229.210078 -352.893351 0 120 255
154.073367 -229.076782 -353.440918 0 120 255
156.487189 -228.934506 -353.962151 0 120 255
158.918735 -228.758365 -354.384083 0 120 255
161.350281 -228.582225 -354.806015 0 120 255
163.781827 -228.406084 -355.227947 0 120 255
166.215975 -228.222594 -355.627984 0 120 255
168.663084 -228.002502 -355.918991 0 120 255
171.110193 -227.782410 -356.209998 0 120 255
173.557302 -227.562318 -356.501005 0 120 255
176.004415 -227.340806 -356.790854 0 120 255
178.451559 -227.109375 -357.072618 0 120 255
180.898704 -226.877944 -357.354382 0 120 255
183.345848 -226.646513 -357.636146 0 120 255
185.792992 -226.415081 -357.917910 0 120 255
188.240134 -226.183639 -358.199687 0 120 255
190.687276 -225.952196 -358.481463 0 120 255
193.134418 -225.720754 -358.763239 0 120 255
195.581560 -225.489312 -359.045016 0 120 255
198.028704 -225.257874 -359.326784 0 120 255
200.475847 -225.026436 -359.608553 0 120 255
202.922990 -224.794998 -359.890322 0 120 255
205.370133 -224.563560 -360.172091 0 120 255
