ply
format ascii 1.0
element vertex 385
property float x
property float y
property float z
property uchar red
property uchar green
property uchar blue
end_header
77.430455 -42.474882 -360.397637 0 120 255
77.187557 -42.528710 -357.935979 0 120 255
76.944659 -42.582539 -355.474321 0 120 255
76.701761 -42.636367 -353.012664 0 120 255
76.458863 -42.690196 -350.551006 0 120 255
76.214972 -42.751873 -348.089631 0 120 255
75.971037 -42.813891 -345.628269 0 120 255
75.727103 -42.875910 -343.166906 0 120 255
75.483169 -42.937929 -340.705544 0 120 255
75.115994 -43.371578 -338.300440 0 120 255
74.737585 -43.839109 -335.900466 0 120 255
74.359175 -44.306639 -333.500491 0 120 255
73.980765 -44.774169 -331.100517 0 120 255
73.511141 -45.558488 -328.805219 0 120 255
73.028127 -46.389309 -326.525287 0 120 255
72.545113 -47.220130 -324.245356 0 120 255
72.062099 -48.050951 -321.965424 0 120 255
71.517961 -49.150553 -319.821421 0 120 255
70.961076 -50.306213 -317.705770 0 120 255
70.404190 -51.461873 -315.590118 0 120 255
69.847305 -52.617534 -313.474466 0 120 255
69.256977 -53.996256 -311.511896 0 120 255
68.657372 -55.436860 -309.591795 0 120 255
68.057766 -56.877464 -307.671693 0 120 255
67.458161 -58.318068 -305.751592 0 120 255
66.849710 -59.939979 -303.990864 0 120 255
66.238125 -61.626155 -302.286625 0 120 255
65.626539 -63.312331 -300.582387 0 120 255
65.014954 -64.998508 -298.878149 0 120 255
64.415725 -66.828934 -297.331569 0 120 255
63.821948 -68.722997 -295.854542 0 120 255
63.228171 -70.617060 -294.377514 0 120 255
62.634394 -72.511123 -292.900487 0 120 255
62.070759 -74.517165 -291.573710 0 120 255
61.523381 -76.583604 -290.327972 0 120 255
60.976003 -78.650042 -289.082233 0 120 255
60.428626 -80.716481 -287.836495 0 120 255
59.925843 -82.867148 -286.729694 0 120 255
59.452111 -85.072681 -285.713399 0 120 255
58.978378 -87.278214 -284.697103 0 120 255
58.504645 -89.483747 -283.680807 0 120 255
58.086758 -91.749862 -282.789609 0 120 255
57.712453 -94.063259 -281.996043 0 120 255
57.338148 -96.376656 -281.202477 0 120 255
56.963843 -98.690053 -280.408911 0 120 255
56.653568 -101.044034 -279.725098 0 120 255
56.402872 -103.435779 -279.143410 0 120 255
56.152175 -105.827524 -278.561721 0 120 255
55.901479 -108.219270 -277.980032 0 120 255
55.720068 -110.634830 -277.492023 0 120 255
55.615364 -113.076758 -277.107727 0 120 255
55.510660 -115.518685 -276.723430 0 120 255
55.405956 -117.960612 -276.339134 0 120 255
55.372979 -120.412470 -276.032316 0 120 255
55.434538 -122.877418 -275.827616 0 120 255
55.496098 -125.342365 -275.622916 0 120 255
55.557657 -127.807312 -275.418216 0 120 255
55.690711 -130.270938 -275.275177 0 120 255
55.936311 -132.732487 -275.229206 0 120 255
56.181912 -135.194036 -275.183236 0 120 255
56.427512 -137.655585 -275.137265 0 120 255
56.741864 -140.107029 -275.137969 0 120 255
57.186293 -142.539357 -275.226982 0 120 255
57.630721 -144.971684 -275.315995 0 120 255
58.075150 -147.404011 -275.405007 0 120 255
58.583304 -149.819817 -275.526956 0 120 255
59.237814 -152.197679 -275.724546 0 120 255
59.892325 -154.575542 -275.922137 0 120 255
60.546835 -156.953404 -276.119728 0 120 255
61.258061 -159.310643 -276.338140 0 120 255
62.129760 -161.609532 -276.615465 0 120 255
63.001459 -163.908420 -276.892789 0 120 255
63.873158 -166.207309 -277.170114 0 120 255
64.792987 -168.483741 -277.458151 0 120 255
65.884299 -170.680167 -277.784355 0 120 255
66.975611 -172.876592 -278.110560 0 120 255
68.066922 -175.073018 -278.436765 0 120 255
69.196692 -177.247366 -278.765893 0 120 255
70.504802 -179.319339 -279.108574 0 120 255
71.812913 -181.391312 -279.451255 0 120 255
73.121023 -183.463285 -279.793937 0 120 255
74.457442 -185.515647 -280.134341 0 120 255
75.973983 -187.443220 -280.460253 0 120 255
77.490524 -189.370794 -280.786166 0 120 255
79.007065 -191.298367 -281.112078 0 120 255
80.541948 -193.210685 -281.433260 0 120 255
82.252790 -194.976645 -281.709049 0 120 255
83.963632 -196.742605 -281.984839 0 120 255
85.674474 -198.508565 -282.260628 0 120 255
87.394585 -200.265208 -282.532029 0 120 255
89.279951 -201.855724 -282.725173 0 120 255
91.165318 -203.446241 -282.918317 0 120 255
93.050685 -205.036757 -283.111461 0 120 255
94.937835 -206.625064 -283.303251 0 120 255
96.972631 -208.030377 -283.382985 0 120 255
99.007427 -209.435689 -283.462718 0 120 255
101.042223 -210.841002 -283.542451 0 120 255
103.077018 -212.246315 -283.622184 0 120 255
105.228016 -213.466786 -283.564620 0 120 255
107.382507 -214.681702 -283.502928 0 120 255
109.536998 -215.896618 -283.441237 0 120 255
111.691488 -217.111533 -283.379546 0 120 255
113.926116 -218.149247 -283.163694 0 120 255
116.166798 -219.173573 -282.936195 0 120 255
118.407480 -220.197898 -282.708696 0 120 255
120.648163 -221.222223 -282.481197 0 120 255
122.933328 -222.081554 -282.088572 0 120 255
125.224064 -222.920221 -281.675266 0 120 255
127.514800 -223.758887 -281.261959 0 120 255
129.805536 -224.597553 -280.848653 0 120 255
132.106849 -225.287385 -280.265100 0 120 255
134.410063 -225.950458 -279.650939 0 120 255
136.713277 -226.613530 -279.036777 0 120 255
139.016491 -227.276603 -278.422615 0 120 255
141.299331 -227.810020 -277.638581 0 120 255
143.577282 -228.312329 -276.813791 0 120 255
145.855233 -228.814638 -275.989000 0 120 255
148.133185 -229.316947 -275.164209 0 120 255
150.363686 -229.710913 -274.174905 0 120 255
152.579637 -230.071660 -273.135157 0 120 255
154.795589 -230.432407 -272.095410 0 120 255
157.011541 -230.793154 -271.055662 0 120 255
159.157478 -231.067935 -269.860976 0 120 255
161.276741 -231.309964 -268.607260 0 120 255
163.396003 -231.551993 -267.353544 0 120 255
165.515265 -231.794022 -266.099828 0 120 255
167.546782 -231.972599 -264.704156 0 120 255
169.537544 -232.121705 -263.242550 0 120 255
171.528305 -232.270810 -261.780944 0 120 255
173.519067 -232.419915 -260.319338 0 120 255
175.409294 -232.529128 -258.731471 0 120 255
177.243339 -232.616047 -257.073044 0 120 255
179.077384 -232.702966 -255.414617 0 120 255
180.911429 -232.789885 -253.756190 0 120 255
182.636918 -232.857180 -251.988769 0 120 255
184.290021 -232.911389 -250.148669 0 120 255
185.943123 -232.965597 -248.308569 0 120 255
187.596226 -233.019806 -246.468469 0 120 255
189.136880 -233.067087 -244.537354 0 120 255
190.588528 -233.108886 -242.534200 0 120 255
192.040177 -233.150685 -240.531046 0 120 255
193.491825 -233.192483 -238.527893 0 120 255
194.828163 -233.230775 -236.450220 0 120 255
196.056505 -233.265782 -234.302755 0 120 255
197.284847 -233.300789 -232.155290 0 120 255
198.513189 -233.335796 -230.007825 0 120 255
199.625111 -233.366789 -227.802023 0 120 255
200.608333 -233.393345 -225.531731 0 120 255
201.591555 -233.419902 -223.261439 0 120 255
202.574777 -233.446458 -220.991148 0 120 255
203.443709 -233.468700 -218.678847 0 120 255
204.163419 -233.485309 -216.311697 0 120 255
204.883128 -233.501919 -213.944547 0 120 255
205.602838 -233.518528 -211.577398 0 120 255
206.213359 -233.531142 -209.183822 0 120 255
206.654896 -233.537571 -206.749349 0 120 255
207.096434 -233.544001 -204.314876 0 120 255
207.537972 -233.550431 -201.880403 0 120 255
207.878103 -233.553280 -199.433636 0 120 255
208.031023 -233.549521 -196.964171 0 120 255
208.183943 -233.545761 -194.494706 0 120 255
208.336863 -233.542002 -192.025241 0 120 255
208.398460 -233.535074 -189.555576 0 120 255
208.256972 -233.521101 -187.085466 0 120 255
208.115485 -233.507128 -184.615357 0 120 255
207.973998 -233.493155 -182.145247 0 120 255
207.753086 -233.476442 -179.684521 0 120 255
207.316364 -233.452287 -177.249291 0 120 255
206.879643 -233.428132 -174.814060 0 120 255
206.442921 -233.403977 -172.378830 0 120 255
205.939913 -233.377527 -169.959708 0 120 255
205.212267 -233.343299 -167.595175 0 120 255
204.484622 -233.309071 -165.230642 0 120 255
203.756976 -233.274843 -162.866109 0 120 255
202.976793 -233.238783 -160.521344 0 120 255
201.967679 -233.194740 -158.262715 0 120 255
200.958564 -233.150697 -156.004086 0 120 255
199.949450 -233.106654 -153.745458 0 120 255
198.901498 -233.061245 -151.507134 0 120 255
197.625337 -233.007813 -149.388121 0 120 255
196.349176 -232.954380 -147.269109 0 120 255
195.073015 -232.900948 -145.150097 0 120 255
193.771016 -232.846607 -143.048901 0 120 255
192.246843 -232.784455 -141.100905 0 120 255
190.722670 -232.722302 -139.152909 0 120 255
189.198497 -232.660150 -137.204912 0 120 255
187.660185 -232.597509 -135.269453 0 120 255
185.911173 -232.527572 -133.520819 0 120 255
184.162161 -232.457635 -131.772185 0 120 255
182.413149 -232.387698 -130.023551 0 120 255
180.659871 -232.317621 -128.279740 0 120 255
178.712694 -232.241170 -126.755170 0 120 255
176.765516 -232.164719 -125.230601 0 120 255
174.818339 -232.088268 -123.706032 0 120 255
172.871162 -232.011816 -122.181462 0 120 255
170.758689 -231.930254 -120.896651 0 120 255
168.642864 -231.848588 -119.616701 0 120 255
166.527040 -231.766922 -118.336750 0 120 255
164.411216 -231.685256 -117.056800 0 120 255
162.166762 -231.599798 -116.021527 0 120 255
159.913907 -231.514091 -115.002237 0 120 255
157.661051 -231.428385 -113.982948 0 120 255
155.408195 -231.342679 -112.963659 0 120 255
153.061898 -231.254461 -112.188460 0 120 255
150.704891 -231.165955 -111.441239 0 120 255
148.347883 -231.077450 -110.694019 0 120 255
145.990876 -230.988944 -109.946798 0 120 255
143.573314 -230.899114 -109.438119 0 120 255
141.145530 -230.809061 -108.969705 0 120 255
138.717746 -230.719007 -108.501291 0 120 255
136.289962 -230.628954 -108.032877 0 120 255
133.831532 -230.538633 -107.793205 0 120 255
131.366096 -230.448251 -107.605819 0 120 255
128.900660 -230.357870 -107.418432 0 120 255
126.435225 -230.267488 -107.231046 0 120 255
123.965588 -230.177716 -107.259131 0 120 255
121.494711 -230.088124 -107.350770 0 120 255
119.023834 -229.998532 -107.442409 0 120 255
116.552958 -229.908940 -107.534048 0 120 255
114.100545 -229.820761 -107.825155 0 120 255
111.654947 -229.733105 -108.189875 0 120 255
109.209349 -229.645448 -108.554595 0 120 255
106.763750 -229.557791 -108.919316 0 120 255
104.355377 -229.472160 -109.465678 0 120 255
101.963837 -229.387445 -110.094181 0 120 255
99.572297 -229.302730 -110.722683 0 120 255
97.180757 -229.218015 -111.351186 0 120 255
94.841302 -229.135799 -112.142332 0 120 255
92.530297 -229.054949 -113.022316 0 120 255
90.219291 -228.974098 -113.902300 0 120 255
87.908285 -228.893248 -114.782284 0 120 255
85.660487 -228.815224 -115.805490 0 120 255
83.453983 -228.739046 -116.922269 0 120 255
81.247479 -228.662868 -118.039048 0 120 255
79.040976 -228.586690 -119.155826 0 120 255
76.905371 -228.513554 -120.396649 0 120 255
74.824820 -228.442780 -121.733793 0 120 255
72.744269 -228.372006 -123.070937 0 120 255
70.663718 -228.301232 -124.408081 0 120 255
68.658606 -228.233595 -125.850695 0 120 255
66.722866 -228.168842 -127.390296 0 120 255
64.787125 -228.104090 -128.929897 0 120 255
62.851385 -228.039337 -130.469498 0 120 255
60.992842 -227.977716 -132.097005 0 120 255
59.218270 -227.919503 -133.820130 0 120 255
57.443698 -227.861290 -135.543256 0 120 255
55.669126 -227.803076 -137.266381 0 120 255
53.971076 -227.747917 -139.061117 0 120 255
52.371612 -227.696693 -140.948111 0 120 255
50.772148 -227.645469 -142.835106 0 120 255
49.172685 -227.594245 -144.722100 0 120 255
47.646999 -227.545920 -146.665888 0 120 255
46.234310 -227.502036 -148.696661 0 120 255
44.821621 -227.458151 -150.727435 0 120 255
43.408932 -227.414267 -152.758208 0 120 255
42.065532 -227.373061 -154.832561 0 120 255
40.849117 -227.336765 -156.986783 0 120 255
39.632702 -227.300469 -159.141005 0 120 255
38.416286 -227.264172 -161.295227 0 120 255
37.263230 -227.230298 -163.481499 0 120 255
36.250514 -227.201789 -165.738766 0 120 255
35.237799 -227.173279 -167.996032 0 120 255
34.225084 -227.144770 -170.253298 0 120 255
33.268586 -227.118388 -172.532800 0 120 255
32.464816 -227.097788 -174.872711 0 120 255
31.661046 -227.077188 -177.212623 0 120 255
30.857275 -227.056588 -179.552534 0 120 255
30.101688 -227.037796 -181.906635 0 120 255
29.510093 -227.025160 -184.309032 0 120 255
28.918498 -227.012523 -186.711429 0 120 255
28.326903 -226.999887 -189.113826 0 120 255
27.774818 -226.988719 -191.524132 0 120 255
27.396657 -226.984018 -193.969255 0 120 255
27.018497 -226.979318 -196.414379 0 120 255
26.640337 -226.974617 -198.859502 0 120 255
26.292624 -226.971038 -201.307994 0 120 255
26.127171 -226.974172 -203.776652 0 120 255
25.961718 -226.977305 -206.245310 0 120 255
25.796266 -226.980439 -208.713967 0 120 255
25.652061 -226.984350 -211.183142 0 120 255
25.696700 -226.995162 -213.656914 0 120 255
25.741340 -227.005974 -216.130686 0 120 255
25.785979 -227.016786 -218.604457 0 120 255
25.842785 -227.028037 -221.077499 0 120 255
26.093241 -227.046292 -223.538920 0 120 255
26.343696 -227.064547 -226.000341 0 120 255
26.594152 -227.082802 -228.461762 0 120 255
26.848015 -227.101178 -230.922694 0 120 255
27.298466 -227.126584 -233.355410 0 120 255
27.748917 -227.151991 -235.788125 0 120 255
28.199369 -227.177397 -238.220840 0 120 255
28.649820 -227.202803 -240.653556 0 120 255
29.288270 -227.234894 -243.043545 0 120 255
29.931554 -227.267157 -245.432436 0 120 255
30.574839 -227.299419 -247.821327 0 120 255
31.218123 -227.331682 -250.210218 0 120 255
32.033507 -227.370037 -252.545382 0 120 255
32.861293 -227.408831 -254.876673 0 120 255
33.689078 -227.447625 -257.207965 0 120 255
34.516864 -227.486419 -259.539257 0 120 255
35.500702 -227.530651 -261.808241 0 120 255
36.503712 -227.575552 -264.069570 0 120 255
37.506722 -227.620453 -266.330900 0 120 255
38.509731 -227.665353 -268.592229 0 120 255
39.652952 -227.715105 -270.784914 0 120 255
40.821239 -227.765724 -272.965327 0 120 255
41.989525 -227.816343 -275.145739 0 120 255
43.157812 -227.866962 -277.326152 0 120 255
44.450893 -227.921875 -279.433651 0 120 255
45.773997 -227.977822 -281.523608 0 120 255
47.097102 -228.033769 -283.613565 0 120 255
48.420207 -228.089715 -285.703522 0 120 255
49.853341 -228.149394 -287.718147 0 120 255
51.320511 -228.210228 -289.709470 0 120 255
52.787680 -228.271062 -291.700793 0 120 255
54.254850 -228.331895 -293.692117 0 120 255
55.818098 -228.396011 -295.607317 0 120 255
57.418453 -228.461394 -297.493118 0 120 255
59.018807 -228.526778 -299.378919 0 120 255
60.619162 -228.592161 -301.264720 0 120 255
62.302552 -228.660435 -303.075034 0 120 255
64.025193 -228.730076 -304.849664 0 120 255
65.747834 -228.799716 -306.624295 0 120 255
67.470476 -228.869357 -308.398925 0 120 255
69.264055 -228.941244 -310.099982 0 120 255
71.098132 -229.014412 -311.759037 0 120 255
72.932210 -229.087581 -313.418091 0 120 255
74.766287 -229.160750 -315.077146 0 120 255
76.660268 -229.235199 -316.665568 0 120 255
78.595182 -229.310524 -318.205727 0 120 255
80.530097 -229.385848 -319.745886 0 120 255
82.465011 -229.461173 -321.286044 0 120 255
84.449528 -229.534584 -322.759945 0 120 255
86.474386 -229.606441 -324.179960 0 120 255
88.499245 -229.678297 -325.599974 0 120 255
90.524103 -229.750153 -327.019988 0 120 255
92.589850 -229.815519 -328.378197 0 120 255
94.695072 -229.874619 -329.676736 0 120 255
96.800294 -229.933719 -330.975274 0 120 255
98.905516 -229.992820 -332.273812 0 120 255
101.044081 -230.042294 -333.515023 0 120 255
103.220841 -230.080743 -334.690563 0 120 255
105.397601 -230.119191 -335.866102 0 120 255
107.574361 -230.157639 -337.041642 0 120 255
109.777727 -230.184774 -338.164676 0 120 255
112.017325 -230.196504 -339.216207 0 120 255
114.256923 -230.208233 -340.267738 0 120 255
116.496521 -230.219962 -341.319270 0 120 255
118.756844 -230.219578 -342.323253 0 120 255
121.050877 -230.199491 -343.249893 0 120 255
123.344911 -230.179404 -344.176534 0 120 255
125.638944 -230.159318 -345.103174 0 120 255
127.948619 -230.127079 -345.987322 0 120 255
130.288923 -230.071043 -346.788254 0 120 255
132.629227 -230.015006 -347.589186 0 120 255
134.969531 -229.958970 -348.390118 0 120 255
137.321147 -229.891390 -349.153685 0 120 255
139.699753 -229.796268 -349.828105 0 120 255
142.078359 -229.701146 -350.502525 0 120 255
144.456964 -229.606024 -351.176946 0 120 255
146.843275 -229.500491 -351.819191 0 120 255
149.252379 -229.364163 -352.366267 0 120 255
151.661482 -229.227835 -352.913343 0 120 255
154.070585 -229.091507 -353.460419 0 120 255
156.484483 -228.946294 -353.980565 0 120 255
158.916424 -228.767647 -354.399378 0 120 255
161.348365 -228.588999 -354.818192 0 120 255
163.780305 -228.410352 -355.237005 0 120 255
166.214814 -228.224685 -355.634172 0 120 255
168.662104 -228.004064 -355.923568 0 120 255
171.109395 -227.783443 -356.212964 0 120 255
173.556686 -227.562822 -356.502360 0 120 255
176.003963 -227.340848 -356.790802 0 120 255
178.451145 -227.109414 -357.072570 0 120 255
180.898327 -226.877979 -357.354338 0 120 255
183.345509 -226.646545 -357.636107 0 120 255
185.792691 -226.415109 -357.917876 0 120 255
188.239871 -226.183663 -358.199656 0 120 255
190.687050 -225.952218 -358.481437 0 120 255
193.134230 -225.720772 -358.763218 0 120 255
195.581410 -225.489327 -359.044998 0 120 255
198.028591 -225.257885 -359.326771 0 120 255
200.475772 -225.026443 -359.608544 0 120 255
202.922952 -224.795002 -359.890318 0 120 255
205.370133 -224.563560 -360.172091 0 120 255
