ply
format ascii 1.0
element vertex 385
property float x
property float y
property float z
property uchar red
property uchar green
property uchar blue
end_header
77.430455 -42.474882 -360.397637 0 120 255
77.187547 -42.528712 -357.935879 0 120 255
76.944639 -42.582543 -355.474121 0 120 255
76.701731 -42.636374 -353.012364 0 120 255
76.458823 -42.690204 -350.550606 0 120 255
76.212885 -42.755453 -348.089426 0 120 255
75.966816 -42.821197 -345.628272 0 120 255
75.720746 -42.886940 -343.167118 0 120 255
75.474676 -42.952684 -340.705964 0 120 255
75.107223 -43.159786 -338.268547 0 120 255
74.728619 -43.379873 -335.833311 0 120 255
74.350016 -43.599959 -333.398075 0 120 255
73.971412 -43.820046 -330.962839 0 120 255
73.489259 -44.153737 -328.559786 0 120 255
72.991720 -44.504306 -326.161513 0 120 255
72.494181 -44.854876 -323.763241 0 120 255
71.996643 -45.205445 -321.364969 0 120 255
71.408649 -45.654306 -319.004702 0 120 255
70.801517 -46.123964 -316.652476 0 120 255
70.194385 -46.593621 -314.300251 0 120 255
69.587254 -47.063279 -311.948025 0 120 255
68.901175 -47.617184 -309.637095 0 120 255
68.192842 -48.194839 -307.337805 0 120 255
67.484509 -48.772494 -305.038516 0 120 255
66.776176 -49.350149 -302.739226 0 120 255
65.998918 -49.999379 -300.482613 0 120 255
65.196790 -50.674434 -298.241398 0 120 255
64.394661 -51.349490 -296.000184 0 120 255
63.592533 -52.024545 -293.758969 0 120 255
62.730146 -52.759889 -291.560419 0 120 255
61.840639 -53.522367 -289.381071 0 120 255
60.951132 -54.284846 -287.201723 0 120 255
60.061625 -55.047324 -285.022375 0 120 255
59.119350 -55.860145 -282.884689 0 120 255
58.147962 -56.700740 -280.769989 0 120 255
57.176574 -57.541335 -278.655289 0 120 255
56.205186 -58.381930 -276.540588 0 120 255
55.187490 -59.264187 -274.465881 0 120 255
54.138835 -60.174298 -272.417913 0 120 255
53.090180 -61.084410 -270.369945 0 120 255
52.041525 -61.994521 -268.321977 0 120 255
50.952174 -62.938771 -266.311894 0 120 255
49.830096 -63.910474 -264.332276 0 120 255
48.708019 -64.882178 -262.352658 0 120 255
47.585941 -65.853881 -260.373040 0 120 255
46.428065 -66.853258 -258.428938 0 120 255
45.235697 -67.879299 -256.519055 0 120 255
44.043329 -68.905340 -254.609172 0 120 255
42.850961 -69.931381 -252.699290 0 120 255
41.627128 -70.979568 -250.822396 0 120 255
40.367008 -72.053292 -248.983547 0 120 255
39.106888 -73.127017 -247.144698 0 120 255
37.846768 -74.200742 -245.305850 0 120 255
36.559065 -75.291926 -243.497386 0 120 255
35.233212 -76.407256 -241.730947 0 120 255
33.907360 -77.522587 -239.964509 0 120 255
32.581507 -78.637918 -238.198070 0 120 255
31.231607 -79.766761 -236.459368 0 120 255
29.841617 -80.918133 -234.766907 0 120 255
28.451627 -82.069504 -233.074446 0 120 255
27.061636 -83.220875 -231.381985 0 120 255
25.650879 -84.382462 -229.714570 0 120 255
24.198024 -85.564756 -228.097923 0 120 255
22.745169 -86.747050 -226.481276 0 120 255
21.292314 -87.929344 -224.864630 0 120 255
19.821782 -89.119133 -223.270287 0 120 255
18.307094 -90.327642 -221.731658 0 120 255
16.792406 -91.536151 -220.193029 0 120 255
15.277718 -92.744660 -218.654400 0 120 255
13.748309 -93.958448 -217.135248 0 120 255
12.172672 -95.188811 -215.677261 0 120 255
10.597035 -96.419175 -214.219274 0 120 255
9.021398 -97.649538 -212.761287 0 120 255
7.433899 -98.883412 -211.319821 0 120 255
5.798149 -100.131567 -209.945564 0 120 255
4.162398 -101.379722 -208.571307 0 120 255
2.526648 -102.627877 -207.197051 0 120 255
0.881822 -103.878172 -205.836171 0 120 255
-0.813161 -105.140296 -204.549225 0 120 255
-2.508143 -106.402420 -203.262279 0 120 255
-4.203126 -107.664544 -201.975333 0 120 255
-5.904468 -108.927799 -200.698375 0 120 255
-7.657665 -110.200269 -199.502852 0 120 255
-9.410861 -111.472739 -198.307328 0 120 255
-11.164057 -112.745209 -197.111805 0 120 255
-12.920980 -114.018129 -195.922568 0 120 255
-14.731120 -115.297471 -194.823101 0 120 255
-16.541261 -116.576813 -193.723633 0 120 255
-18.351401 -117.856155 -192.624166 0 120 255
-20.162747 -119.135573 -191.526903 0 120 255
-22.028211 -120.418410 -190.528643 0 120 255
-23.893676 -121.701248 -189.530384 0 120 255
-25.759141 -122.984086 -188.532124 0 120 255
-27.624606 -124.266923 -187.533865 0 120 255
-29.542155 -125.549942 -186.640156 0 120 255
-31.460863 -126.832965 -185.748770 0 120 255
-33.379570 -128.115987 -184.857384 0 120 255
-35.298277 -129.399010 -183.965998 0 120 255
-37.264274 -130.679134 -183.180277 0 120 255
-39.233563 -131.959056 -182.401911 0 120 255
-41.202851 -133.238978 -181.623545 0 120 255
-43.172140 -134.518900 -180.845179 0 120 255
-45.183541 -135.793100 -180.173439 0 120 255
-47.200055 -137.066605 -179.514645 0 120 255
-49.216569 -138.340110 -178.855851 0 120 255
-51.233083 -139.613615 -178.197057 0 120 255
-53.286136 -140.878812 -177.645604 0 120 255
-55.345701 -142.142528 -177.113284 0 120 255
-57.405266 -143.406245 -176.580963 0 120 255
-59.464832 -144.669961 -176.048642 0 120 255
-61.554964 -145.923018 -175.624025 0 120 255
-63.652459 -147.173508 -175.225346 0 120 255
-65.749953 -148.423998 -174.826667 0 120 255
-67.847448 -149.674488 -174.427987 0 120 255
-69.969177 -150.912164 -174.136865 0 120 255
-72.098423 -152.145867 -173.879100 0 120 255
-74.227669 -153.379569 -173.621335 0 120 255
-76.356915 -154.613272 -173.363570 0 120 255
-78.503755 -155.832217 -173.212637 0 120 255
-80.657408 -157.045447 -173.103078 0 120 255
-82.811062 -158.258676 -172.993519 0 120 255
-84.964715 -159.471906 -172.883960 0 120 255
-87.129084 -160.668653 -172.879781 0 120 255
-89.298527 -161.857592 -172.925514 0 120 255
-91.467970 -163.046532 -172.971248 0 120 255
-93.637414 -164.235471 -173.016981 0 120 255
-95.810564 -165.406433 -173.165828 0 120 255
-97.985831 -166.567130 -173.373551 0 120 255
-100.161098 -167.727827 -173.581274 0 120 255
-102.336365 -168.888523 -173.788997 0 120 255
-104.508339 -170.029993 -174.096672 0 120 255
-106.678067 -171.158359 -174.472468 0 120 255
-108.847795 -172.286725 -174.848263 0 120 255
-111.017524 -173.415091 -175.224059 0 120 255
-113.177116 -174.523268 -175.695679 0 120 255
-115.328516 -175.615130 -176.244738 0 120 255
-117.479917 -176.706991 -176.793797 0 120 255
-119.631318 -177.798853 -177.342857 0 120 255
-121.766082 -178.869874 -177.982634 0 120 255
-123.884965 -179.921002 -178.709007 0 120 255
-126.003848 -180.972129 -179.435380 0 120 255
-128.122732 -182.023256 -180.161753 0 120 255
-130.219022 -183.053236 -180.972754 0 120 255
-132.289874 -184.059404 -181.879037 0 120 255
-134.360725 -185.065573 -182.785321 0 120 255
-136.431577 -186.071742 -183.691604 0 120 255
-138.474637 -187.056821 -184.675502 0 120 255
-140.480757 -188.013868 -185.762560 0 120 255
-142.486878 -188.970916 -186.849618 0 120 255
-144.492998 -189.927964 -187.936676 0 120 255
-146.467089 -190.864385 -189.093518 0 120 255
-148.390765 -191.768338 -190.360203 0 120 255
-150.314440 -192.672292 -191.626888 0 120 255
-152.238116 -193.576246 -192.893573 0 120 255
-154.126700 -194.460447 -194.221545 0 120 255
-155.949485 -195.307608 -195.664434 0 120 255
-157.772269 -196.154770 -197.107322 0 120 255
-159.595053 -197.001932 -198.550211 0 120 255
-161.381037 -197.830626 -200.045432 0 120 255
-163.084068 -198.617691 -201.658617 0 120 255
-164.787099 -199.404755 -203.271803 0 120 255
-166.490131 -200.191820 -204.884988 0 120 255
-168.156152 -200.962100 -206.541351 0 120 255
-169.720539 -201.686283 -208.316289 0 120 255
-171.284926 -202.410466 -210.091227 0 120 255
-172.849313 -203.134650 -211.866165 0 120 255
-174.378076 -203.844095 -213.675221 0 120 255
-175.785328 -204.503268 -215.600653 0 120 255
-177.192580 -205.162440 -217.526085 0 120 255
-178.599831 -205.821613 -219.451516 0 120 255
-179.974476 -206.468403 -221.402423 0 120 255
-181.206971 -207.061208 -223.464385 0 120 255
-182.439467 -207.654013 -225.526348 0 120 255
-183.671962 -208.246819 -227.588311 0 120 255
-184.876463 -208.829834 -229.667854 0 120 255
-185.917924 -209.355829 -231.849789 0 120 255
-186.959386 -209.881824 -234.031724 0 120 255
-188.000847 -210.407819 -236.213659 0 120 255
-189.020409 -210.926750 -238.406362 0 120 255
-189.856373 -211.386455 -240.689340 0 120 255
-190.692337 -211.846161 -242.972318 0 120 255
-191.528301 -212.305867 -245.255296 0 120 255
-192.349757 -212.761261 -247.543608 0 120 255
-192.968009 -213.156271 -249.906632 0 120 255
-193.586261 -213.551281 -252.269657 0 120 255
-194.204513 -213.946292 -254.632681 0 120 255
-194.816696 -214.339646 -256.997238 0 120 255
-195.207640 -214.672666 -259.417654 0 120 255
-195.598585 -215.005685 -261.838070 0 120 255
-195.989530 -215.338704 -264.258486 0 120 255
-196.380475 -215.671723 -266.678902 0 120 255
-196.540546 -215.947344 -269.132428 0 120 255
-196.697520 -216.222194 -271.586398 0 120 255
-196.854493 -216.497045 -274.040368 0 120 255
-197.011467 -216.771895 -276.494338 0 120 255
-196.943556 -216.996304 -278.956896 0 120 255
-196.863005 -217.217878 -281.419937 0 120 255
-196.782454 -217.439452 -283.882978 0 120 255
-196.701903 -217.661026 -286.346018 0 120 255
-196.405655 -217.839681 -288.794993 0 120 255
-196.087228 -218.013923 -291.242522 0 120 255
-195.768801 -218.188166 -293.690051 0 120 255
-195.450375 -218.362408 -296.137580 0 120 255
-194.928234 -218.501600 -298.550750 0 120 255
-194.374749 -218.635399 -300.958634 0 120 255
-193.821265 -218.769198 -303.366518 0 120 255
-193.267780 -218.902997 -305.774402 0 120 255
-192.524901 -219.009741 -308.130381 0 120 255
-191.742250 -219.110804 -310.475460 0 120 255
-190.959599 -219.211867 -312.820540 0 120 255
-190.176947 -219.312930 -315.165619 0 120 255
-189.220979 -219.394865 -317.444235 0 120 255
-188.217865 -219.471597 -319.704772 0 120 255
-187.214751 -219.548330 -321.965309 0 120 255
-186.211637 -219.625062 -324.225846 0 120 255
-185.052266 -219.691749 -326.408305 0 120 255
-183.839629 -219.755012 -328.564149 0 120 255
-182.626991 -219.818275 -330.719993 0 120 255
-181.414354 -219.881538 -332.875836 0 120 255
-180.063217 -219.943171 -334.945045 0 120 255
-178.654173 -220.004122 -336.978031 0 120 255
-177.245130 -220.065074 -339.011018 0 120 255
-175.836086 -220.126025 -341.044004 0 120 255
-174.307086 -220.189414 -342.985339 0 120 255
-172.717499 -220.254033 -344.880382 0 120 255
-171.127911 -220.318653 -346.775425 0 120 255
-169.538323 -220.383272 -348.670468 0 120 255
-167.847283 -220.450870 -350.472274 0 120 255
-166.095017 -220.520264 -352.217811 0 120 255
-164.342750 -220.589658 -353.963348 0 120 255
-162.590483 -220.659053 -355.708885 0 120 255
-160.754093 -220.731497 -357.362188 0 120 255
-158.857477 -220.806125 -358.949459 0 120 255
-156.960861 -220.880752 -360.536731 0 120 255
-155.064244 -220.955380 -362.124002 0 120 255
-153.099511 -221.032328 -363.622488 0 120 255
-151.077167 -221.111238 -365.045882 0 120 255
-149.054823 -221.190148 -366.469276 0 120 255
-147.032479 -221.269059 -367.892670 0 120 255
-144.956344 -221.349692 -369.232626 0 120 255
-142.826558 -221.432042 -370.489361 0 120 255
-140.696772 -221.514393 -371.746097 0 120 255
-138.566986 -221.596743 -373.002832 0 120 255
-136.395846 -221.680329 -374.182818 0 120 255
-134.176033 -221.765369 -375.272476 0 120 255
-131.956221 -221.850409 -376.362133 0 120 255
-129.736408 -221.935449 -377.451791 0 120 255
-127.485807 -222.021353 -378.472381 0 120 255
-125.192324 -222.108461 -379.396771 0 120 255
-122.898840 -222.195568 -380.321162 0 120 255
-120.605356 -222.282675 -381.245552 0 120 255
-118.289819 -222.370366 -382.109161 0 120 255
-115.937733 -222.459024 -382.872042 0 120 255
-113.585648 -222.547681 -383.634924 0 120 255
-111.233563 -222.636339 -384.397805 0 120 255
-108.866428 -222.725346 -385.108458 0 120 255
-106.469368 -222.815048 -385.715261 0 120 255
-104.072308 -222.904750 -386.322065 0 120 255
-101.675248 -222.994453 -386.928869 0 120 255
-99.268552 -223.084339 -387.491933 0 120 255
-96.838583 -223.174671 -387.949364 0 120 255
-94.408614 -223.265003 -388.406795 0 120 255
-91.978644 -223.355335 -388.864225 0 120 255
-89.543052 -223.445736 -389.286138 0 120 255
-87.090670 -223.536345 -389.601997 0 120 255
-84.638289 -223.626953 -389.917856 0 120 255
-82.185907 -223.717561 -390.233715 0 120 255
-79.730710 -223.808171 -390.521813 0 120 255
-77.264849 -223.898788 -390.704760 0 120 255
-74.798987 -223.989405 -390.887707 0 120 255
-72.333126 -224.080022 -391.070654 0 120 255
-69.866252 -224.170596 -391.232987 0 120 255
-67.394316 -224.260957 -391.292334 0 120 255
-64.922380 -224.351318 -391.351680 0 120 255
-62.450445 -224.441679 -391.411026 0 120 255
-59.978493 -224.531986 -391.456191 0 120 255
-57.506429 -224.621914 -391.401714 0 120 255
-55.034366 -224.711842 -391.347237 0 120 255
-52.562302 -224.801770 -391.292759 0 120 255
-50.090605 -224.891652 -391.229738 0 120 255
-47.622989 -224.981022 -391.071505 0 120 255
-45.155373 -225.070392 -390.913272 0 120 255
-42.687757 -225.159762 -390.755038 0 120 255
-40.220452 -225.249107 -390.593060 0 120 255
-37.760592 -225.337854 -390.341331 0 120 255
-35.300733 -225.426601 -390.089603 0 120 255
-32.840873 -225.515349 -389.837875 0 120 255
-30.381013 -225.604096 -389.586147 0 120 255
-27.931040 -225.692171 -389.251465 0 120 255
-25.481090 -225.780245 -388.916595 0 120 255
-23.031139 -225.868319 -388.581725 0 120 255
-20.581188 -225.956393 -388.246855 0 120 255
-18.141766 -226.043825 -387.842508 0 120 255
-15.702835 -226.131228 -387.434919 0 120 255
-13.263904 -226.218630 -387.027329 0 120 255
-10.824973 -226.306032 -386.619739 0 120 255
-8.396284 -226.392840 -386.155231 0 120 255
-5.968570 -226.479591 -385.685302 0 120 255
-3.540856 -226.566342 -385.215374 0 120 255
-1.113142 -226.653093 -384.745445 0 120 255
1.305315 -226.739336 -384.230216 0 120 255
3.722398 -226.825502 -383.708257 0 120 255
6.139480 -226.911669 -383.186299 0 120 255
8.556562 -226.997836 -382.664340 0 120 255
10.965882 -227.083592 -382.107818 0 120 255
13.373592 -227.169262 -381.544129 0 120 255
15.781303 -227.254932 -380.980441 0 120 255
18.189013 -227.340603 -380.416753 0 120 255
20.590775 -227.425953 -379.828340 0 120 255
22.990918 -227.511216 -379.233192 0 120 255
25.391060 -227.596479 -378.638044 0 120 255
27.791202 -227.681742 -378.042896 0 120 255
30.187364 -227.766776 -377.431966 0 120 255
32.582155 -227.851732 -376.815593 0 120 255
34.976945 -227.936688 -376.199220 0 120 255
37.371735 -228.021644 -375.582847 0 120 255
39.764543 -228.106458 -374.958825 0 120 255
42.156506 -228.191212 -374.331543 0 120 255
44.548469 -228.275965 -373.704261 0 120 255
46.940432 -228.360718 -373.076979 0 120 255
49.332324 -228.445359 -372.449412 0 120 255
51.724180 -228.529941 -371.821698 0 120 255
54.116035 -228.614523 -371.193983 0 120 255
56.507891 -228.699104 -370.566268 0 120 255
58.901410 -228.783470 -369.944918 0 120 255
61.295962 -228.867702 -369.327524 0 120 255
63.690515 -228.951933 -368.710130 0 120 255
66.085068 -229.036165 -368.092735 0 120 255
68.482737 -229.119482 -367.487527 0 120 255
70.882711 -229.202123 -366.891335 0 120 255
73.282686 -229.284764 -366.295143 0 120 255
75.682661 -229.367405 -365.698952 0 120 255
78.087036 -229.445717 -365.120423 0 120 255
80.495265 -229.520237 -364.557367 0 120 255
82.903494 -229.594756 -363.994311 0 120 255
85.311723 -229.669276 -363.431254 0 120 255
87.725151 -229.736025 -362.890458 0 120 255
90.143955 -229.794737 -362.372682 0 120 255
92.562760 -229.853450 -361.854906 0 120 255
94.981564 -229.912163 -361.337130 0 120 255
97.405757 -229.961365 -360.845135 0 120 255
99.836531 -229.998955 -360.384613 0 120 255
102.267304 -230.036546 -359.924090 0 120 255
104.698078 -230.074137 -359.463568 0 120 255
107.133912 -230.101121 -359.031392 0 120 255
109.577056 -230.112784 -358.640161 0 120 255
112.020201 -230.124448 -358.248930 0 120 255
114.463345 -230.136111 -357.857699 0 120 255
116.910765 -230.136622 -357.496445 0 120 255
119.365524 -230.117983 -357.186667 0 120 255
121.820283 -230.099343 -356.876889 0 120 255
124.275042 -230.080704 -356.567110 0 120 255
126.732913 -230.050865 -356.287951 0 120 255
129.197182 -229.997992 -356.071771 0 120 255
131.661452 -229.945118 -355.855592 0 120 255
134.125721 -229.892245 -355.639413 0 120 255
136.591680 -229.828588 -355.453487 0 120 255
139.061850 -229.738059 -355.342952 0 120 255
141.532020 -229.647529 -355.232418 0 120 255
144.002190 -229.557000 -355.121883 0 120 255
146.472518 -229.456498 -355.040217 0 120 255
148.943331 -229.325390 -355.047145 0 120 255
151.414143 -229.194283 -355.054072 0 120 255
153.884956 -229.063175 -355.061000 0 120 255
156.354460 -228.923262 -355.094376 0 120 255
158.818897 -228.749266 -355.230120 0 120 255
161.283335 -228.575270 -355.365864 0 120 255
163.747772 -228.401273 -355.501608 0 120 255
166.209552 -228.219795 -355.661541 0 120 255
168.657890 -228.000464 -355.943838 0 120 255
171.106227 -227.781133 -356.226135 0 120 255
173.554564 -227.561801 -356.508432 0 120 255
176.002770 -227.340961 -356.790665 0 120 255
178.450051 -227.109517 -357.072444 0 120 255
180.897333 -226.878073 -357.354224 0 120 255
183.344614 -226.646629 -357.636003 0 120 255
185.791896 -226.415184 -357.917784 0 120 255
188.239175 -226.183729 -358.199576 0 120 255
190.686454 -225.952274 -358.481368 0 120 255
193.133733 -225.720819 -358.763161 0 120 255
195.581012 -225.489364 -359.044952 0 120 255
198.028292 -225.257913 -359.326737 0 120 255
200.475573 -225.026462 -359.608522 0 120 255
202.922853 -224.795011 -359.890306 0 120 255
205.370133 -224.563560 -360.172091 0 120 255
