ply
format ascii 1.0
element vertex 385
property float x
property float y
property float z
property uchar red
property uchar green
property uchar blue
end_header
77.430455 -42.474882 -360.397637 0 120 255
77.187576 -42.528706 -357.936172 0 120 255
76.944697 -42.582530 -355.474708 0 120 255
76.701818 -42.636355 -353.013243 0 120 255
76.458939 -42.690179 -350.551779 0 120 255
76.230513 -42.736899 -348.088788 0 120 255
76.002722 -42.783308 -345.625731 0 120 255
75.774931 -42.829716 -343.162673 0 120 255
75.547140 -42.876125 -340.699616 0 120 255
75.299743 -42.925885 -338.238523 0 120 255
75.050456 -42.975969 -335.777621 0 120 255
74.801170 -43.026052 -333.316718 0 120 255
74.551883 -43.076136 -330.855815 0 120 255
74.268826 -43.136802 -328.398847 0 120 255
73.980392 -43.199154 -325.942506 0 120 255
73.691959 -43.261506 -323.486164 0 120 255
73.403526 -43.323857 -321.029823 0 120 255
73.080882 -43.397518 -318.578116 0 120 255
72.750389 -43.473773 -316.127472 0 120 255
72.419896 -43.550029 -313.676829 0 120 255
72.089403 -43.626284 -311.226185 0 120 255
71.724517 -43.714485 -308.780913 0 120 255
71.349020 -43.806372 -306.337298 0 120 255
70.973524 -43.898259 -303.893683 0 120 255
70.598027 -43.990146 -301.450068 0 120 255
70.188217 -44.094512 -299.012587 0 120 255
69.764744 -44.203848 -296.577549 0 120 255
69.341272 -44.313183 -294.142511 0 120 255
68.917799 -44.422518 -291.707472 0 120 255
68.460372 -44.544756 -289.279340 0 120 255
67.985948 -44.673452 -286.854664 0 120 255
67.511524 -44.802148 -284.429987 0 120 255
67.037101 -44.930844 -282.005311 0 120 255
66.529353 -45.072741 -279.588305 0 120 255
66.000989 -45.222806 -277.176043 0 120 255
65.472625 -45.372871 -274.763781 0 120 255
64.944260 -45.522935 -272.351520 0 120 255
64.383495 -45.686359 -269.947659 0 120 255
63.798221 -45.859887 -267.550152 0 120 255
63.212947 -46.033416 -265.152646 0 120 255
62.627674 -46.206944 -262.755139 0 120 255
62.011205 -46.393842 -260.366710 0 120 255
61.366072 -46.593025 -257.986621 0 120 255
60.720939 -46.792207 -255.606531 0 120 255
60.075805 -46.991390 -253.226442 0 120 255
59.400978 -47.203785 -250.856018 0 120 255
58.693092 -47.430891 -248.496354 0 120 255
57.985206 -47.657996 -246.136690 0 120 255
57.277319 -47.885101 -243.777025 0 120 255
56.541531 -48.125087 -241.427493 0 120 255
55.768071 -48.382466 -239.091640 0 120 255
54.994611 -48.639844 -236.755786 0 120 255
54.221151 -48.897223 -234.419933 0 120 255
53.421869 -49.166963 -232.094518 0 120 255
52.580120 -49.457033 -229.786269 0 120 255
51.738370 -49.747104 -227.478020 0 120 255
50.896621 -50.037174 -225.169772 0 120 255
50.031410 -50.338888 -222.872063 0 120 255
49.118797 -50.664127 -220.595651 0 120 255
48.206184 -50.989365 -218.319239 0 120 255
47.293571 -51.314604 -216.042827 0 120 255
46.360126 -51.650561 -213.776805 0 120 255
45.374264 -52.013487 -211.536927 0 120 255
44.388402 -52.376413 -209.297048 0 120 255
43.402540 -52.739339 -207.057170 0 120 255
42.398722 -53.111846 -204.827228 0 120 255
41.337455 -53.515005 -202.629076 0 120 255
40.276187 -53.918164 -200.430925 0 120 255
39.214919 -54.321323 -198.232774 0 120 255
38.138795 -54.732706 -196.043744 0 120 255
37.000255 -55.178639 -193.893031 0 120 255
35.861715 -55.624572 -191.742318 0 120 255
34.723175 -56.070505 -189.591605 0 120 255
33.573063 -56.523091 -187.448779 0 120 255
32.355733 -57.014319 -185.351758 0 120 255
31.138402 -57.505547 -183.254737 0 120 255
29.921072 -57.996774 -181.157716 0 120 255
28.695594 -58.492873 -179.066865 0 120 255
27.398372 -59.031858 -177.030347 0 120 255
26.101150 -59.570843 -174.993829 0 120 255
24.803929 -60.109828 -172.957311 0 120 255
23.502068 -60.651702 -170.924705 0 120 255
22.124363 -61.240810 -168.956057 0 120 255
20.746658 -61.829918 -166.987409 0 120 255
19.368953 -62.419025 -165.018760 0 120 255
17.990132 -63.008858 -163.051163 0 120 255
16.531922 -63.650315 -161.158321 0 120 255
15.073712 -64.291771 -159.265478 0 120 255
13.615502 -64.933227 -157.372635 0 120 255
12.157293 -65.574683 -155.479793 0 120 255
10.621578 -66.268930 -153.668763 0 120 255
9.083524 -66.964770 -151.860202 0 120 255
7.545470 -67.660610 -150.051641 0 120 255
6.007417 -68.356450 -148.243081 0 120 255
4.396574 -69.104432 -146.521104 0 120 255
2.780101 -69.856448 -144.805825 0 120 255
1.163628 -70.608463 -143.090546 0 120 255
-0.452845 -71.360478 -141.375267 0 120 255
-2.136789 -72.163604 -139.751064 0 120 255
-3.829381 -72.973280 -138.138534 0 120 255
-5.521972 -73.782956 -136.526003 0 120 255
-7.214563 -74.592632 -134.913473 0 120 255
-8.968739 -75.451985 -133.396150 0 120 255
-10.734184 -76.320428 -131.896248 0 120 255
-12.499629 -77.188871 -130.396345 0 120 255
-14.265073 -78.057314 -128.896443 0 120 255
-16.085671 -78.973599 -127.495414 0 120 255
-17.919626 -79.901471 -126.118332 0 120 255
-19.753582 -80.829344 -124.741250 0 120 255
-21.587538 -81.757216 -123.364169 0 120 255
-23.469727 -82.730690 -122.089072 0 120 255
-25.366691 -83.718132 -120.845216 0 120 255
-27.263655 -84.705575 -119.601359 0 120 255
-29.160620 -85.693017 -118.357502 0 120 255
-31.098466 -86.723425 -117.218079 0 120 255
-33.051678 -87.769982 -116.117908 0 120 255
-35.004890 -88.816539 -115.017737 0 120 255
-36.958101 -89.863096 -113.917565 0 120 255
-38.944504 -90.949601 -112.923531 0 120 255
-40.945889 -92.054139 -111.977408 0 120 255
-42.947273 -93.158677 -111.031284 0 120 255
-44.948658 -94.263215 -110.085161 0 120 255
-46.975292 -95.404333 -109.246034 0 120 255
-49.015402 -96.564976 -108.464015 0 120 255
-51.055512 -97.725619 -107.681995 0 120 255
-53.095622 -98.886262 -106.899976 0 120 255
-55.152910 -100.079804 -106.224901 0 120 255
-57.220912 -101.293865 -105.616528 0 120 255
-59.288914 -102.507926 -105.008155 0 120 255
-61.356916 -103.721987 -104.399782 0 120 255
-63.434022 -104.965003 -103.897317 0 120 255
-65.517703 -106.228934 -103.471352 0 120 255
-67.601384 -107.492865 -103.045387 0 120 255
-69.685065 -108.756796 -102.619422 0 120 255
-71.769917 -110.045540 -102.297314 0 120 255
-73.855741 -111.354900 -102.061501 0 120 255
-75.941566 -112.664260 -101.825688 0 120 255
-78.027390 -113.973620 -101.589876 0 120 255
-80.106745 -115.303523 -101.454819 0 120 255
-82.179948 -116.652962 -101.415579 0 120 255
-84.253151 -118.002400 -101.376339 0 120 255
-86.326354 -119.351839 -101.337100 0 120 255
-88.385904 -120.717503 -101.394487 0 120 255
-90.430647 -122.100766 -101.556675 0 120 255
-92.475390 -123.484028 -101.718863 0 120 255
-94.520134 -124.867291 -101.881051 0 120 255
-96.544657 -126.262508 -102.134735 0 120 255
-98.544222 -127.672481 -102.501356 0 120 255
-100.543787 -129.082454 -102.867977 0 120 255
-102.543352 -130.492426 -103.234597 0 120 255
-104.516905 -131.910223 -103.686654 0 120 255
-106.453947 -133.339001 -104.258630 0 120 255
-108.390990 -134.767779 -104.830605 0 120 255
-110.328032 -136.196557 -105.402581 0 120 255
-112.234189 -137.629270 -106.053110 0 120 255
-114.091024 -139.068269 -106.829088 0 120 255
-115.947859 -140.507267 -107.605067 0 120 255
-117.804693 -141.946266 -108.381045 0 120 255
-119.626829 -143.385646 -109.228002 0 120 255
-121.385785 -144.825723 -110.204192 0 120 255
-123.144742 -146.265799 -111.180382 0 120 255
-124.903698 -147.705876 -112.156571 0 120 255
-126.625297 -149.143217 -113.195647 0 120 255
-128.269058 -150.574858 -114.365753 0 120 255
-129.912819 -152.006499 -115.535859 0 120 255
-131.556580 -153.438141 -116.705965 0 120 255
-133.161567 -154.864442 -117.930541 0 120 255
-134.673563 -156.277937 -119.285752 0 120 255
-136.185560 -157.691431 -120.640962 0 120 255
-137.697556 -159.104926 -121.996173 0 120 255
-139.170643 -160.511065 -123.397329 0 120 255
-140.535422 -161.896732 -124.926381 0 120 255
-141.900201 -163.282399 -126.455434 0 120 255
-143.264981 -164.668065 -127.984486 0 120 255
-144.591998 -166.044999 -129.551091 0 120 255
-145.795584 -167.393390 -131.240446 0 120 255
-146.999169 -168.741780 -132.929801 0 120 255
-148.202754 -170.090171 -134.619156 0 120 255
-149.370967 -171.429127 -136.338033 0 120 255
-150.401162 -172.731270 -138.172104 0 120 255
-151.431358 -174.033414 -140.006174 0 120 255
-152.461553 -175.335557 -141.840245 0 120 255
-153.459925 -176.628243 -143.696406 0 120 255
-154.306597 -177.875840 -145.657870 0 120 255
-155.153268 -179.123437 -147.619335 0 120 255
-155.999940 -180.371034 -149.580799 0 120 255
-156.819372 -181.609812 -151.557735 0 120 255
-157.474629 -182.795431 -153.627913 0 120 255
-158.129887 -183.981051 -155.698091 0 120 255
-158.785145 -185.166670 -157.768270 0 120 255
-159.418619 -186.344726 -159.848302 0 120 255
-159.876965 -187.461971 -162.007556 0 120 255
-160.335311 -188.579216 -164.166810 0 120 255
-160.793657 -189.696461 -166.326063 0 120 255
-161.236354 -190.807948 -168.490710 0 120 255
-161.494681 -191.851589 -170.718887 0 120 255
-161.753007 -192.895231 -172.947065 0 120 255
-162.011334 -193.938872 -175.175242 0 120 255
-162.260619 -194.979018 -177.405613 0 120 255
-162.318217 -195.945076 -179.682477 0 120 255
-162.375815 -196.911134 -181.959341 0 120 255
-162.433412 -197.877192 -184.236205 0 120 255
-162.488823 -198.842368 -186.513385 0 120 255
-162.347254 -199.728167 -188.819033 0 120 255
-162.205685 -200.613965 -191.124681 0 120 255
-162.064116 -201.499763 -193.430330 0 120 255
-161.922547 -202.385562 -195.735978 0 120 255
-161.590146 -203.191698 -198.050993 0 120 255
-161.253051 -203.995875 -200.366238 0 120 255
-160.915956 -204.800052 -202.681484 0 120 255
-160.578861 -205.604230 -204.996729 0 120 255
-160.063167 -206.331587 -207.303955 0 120 255
-159.536082 -207.054046 -209.610669 0 120 255
-159.008998 -207.776505 -211.917383 0 120 255
-158.481914 -208.498964 -214.224097 0 120 255
-157.789680 -209.148640 -216.507927 0 120 255
-157.079733 -209.790509 -218.789302 0 120 255
-156.369786 -210.432378 -221.070678 0 120 255
-155.659838 -211.074247 -223.352053 0 120 255
-154.798995 -211.648335 -225.598297 0 120 255
-153.914647 -212.211865 -227.839069 0 120 255
-153.030300 -212.775395 -230.079841 0 120 255
-152.145953 -213.338925 -232.320612 0 120 255
-151.125332 -213.840422 -234.516608 0 120 255
-150.076077 -214.328886 -236.703195 0 120 255
-149.026822 -214.817349 -238.889782 0 120 255
-147.977568 -215.305812 -241.076369 0 120 255
-146.806664 -215.738494 -243.211053 0 120 255
-145.602749 -216.156039 -245.331652 0 120 255
-144.398834 -216.573584 -247.452251 0 120 255
-143.194919 -216.991129 -249.572850 0 120 255
-141.883651 -217.359459 -251.636767 0 120 255
-140.535800 -217.711019 -253.681370 0 120 255
-139.187950 -218.062579 -255.725972 0 120 255
-137.840099 -218.414140 -257.770575 0 120 255
-136.398588 -218.723143 -259.755854 0 120 255
-134.917752 -219.014278 -261.716227 0 120 255
-133.436917 -219.305414 -263.676600 0 120 255
-131.956081 -219.596549 -265.636972 0 120 255
-130.394477 -219.851712 -267.537273 0 120 255
-128.791623 -220.088504 -269.406894 0 120 255
-127.188769 -220.325297 -271.276515 0 120 255
-125.585915 -220.562089 -273.146136 0 120 255
-123.914237 -220.769252 -274.956566 0 120 255
-122.200176 -220.958170 -276.730545 0 120 255
-120.486115 -221.147087 -278.504523 0 120 255
-118.772053 -221.336004 -280.278502 0 120 255
-117.000056 -221.501282 -281.995509 0 120 255
-115.185260 -221.649098 -283.670430 0 120 255
-113.370464 -221.796913 -285.345351 0 120 255
-111.555668 -221.944729 -287.020272 0 120 255
-109.692741 -222.074428 -288.641534 0 120 255
-107.787267 -222.188114 -290.215364 0 120 255
-105.881793 -222.301800 -291.789194 0 120 255
-103.976320 -222.415486 -293.363024 0 120 255
-102.031347 -222.519334 -294.887035 0 120 255
-100.044585 -222.612776 -296.358342 0 120 255
-98.057824 -222.706217 -297.829648 0 120 255
-96.071062 -222.799658 -299.300955 0 120 255
-94.052399 -222.890643 -300.726964 0 120 255
-91.993178 -222.978505 -302.095389 0 120 255
-89.933958 -223.066367 -303.463814 0 120 255
-87.874738 -223.154228 -304.832239 0 120 255
-85.790544 -223.241764 -306.161070 0 120 255
-83.667868 -223.328796 -307.428890 0 120 255
-81.545193 -223.415829 -308.696711 0 120 255
-79.422517 -223.502861 -309.964531 0 120 255
-77.280556 -223.589886 -311.198320 0 120 255
-75.102177 -223.676896 -312.367844 0 120 255
-72.923797 -223.763906 -313.537368 0 120 255
-70.745417 -223.850916 -314.706892 0 120 255
-68.552389 -223.937800 -315.847649 0 120 255
-66.325015 -224.024388 -316.920964 0 120 255
-64.097641 -224.110977 -317.994278 0 120 255
-61.870268 -224.197565 -319.067593 0 120 255
-59.632247 -224.283877 -320.117623 0 120 255
-57.362605 -224.369367 -321.098495 0 120 255
-55.092963 -224.454857 -322.079367 0 120 255
-52.823320 -224.540348 -323.060239 0 120 255
-50.546288 -224.625819 -324.023065 0 120 255
-48.240547 -224.711218 -324.915792 0 120 255
-45.934806 -224.796616 -325.808518 0 120 255
-43.629065 -224.882015 -326.701244 0 120 255
-41.318492 -224.967600 -327.580771 0 120 255
-38.982085 -225.054177 -328.389723 0 120 255
-36.645679 -225.140754 -329.198675 0 120 255
-34.309272 -225.227331 -330.007627 0 120 255
-31.969995 -225.314025 -330.807797 0 120 255
-29.607596 -225.401659 -331.537239 0 120 255
-27.245197 -225.489294 -332.266681 0 120 255
-24.882798 -225.576928 -332.996123 0 120 255
-22.519014 -225.664613 -333.720808 0 120 255
-20.134754 -225.753053 -334.375162 0 120 255
-17.750494 -225.841492 -335.029517 0 120 255
-15.366235 -225.929932 -335.683871 0 120 255
-12.981679 -226.018380 -336.337078 0 120 255
-10.579190 -226.107373 -336.920877 0 120 255
-8.176701 -226.196366 -337.504676 0 120 255
-5.774211 -226.285359 -338.088474 0 120 255
-3.371722 -226.374352 -338.672273 0 120 255
-0.954703 -226.463674 -339.192464 0 120 255
1.462779 -226.553006 -339.710630 0 120 255
3.880261 -226.642338 -340.228796 0 120 255
6.297742 -226.731671 -340.746962 0 120 255
8.726513 -226.821141 -341.209005 0 120 255
11.156239 -226.910624 -341.666303 0 120 255
13.585965 -227.000106 -342.123600 0 120 255
16.015690 -227.089589 -342.580897 0 120 255
18.454109 -227.179047 -342.988881 0 120 255
20.893769 -227.268501 -343.389816 0 120 255
23.333430 -227.357956 -343.790750 0 120 255
25.773091 -227.447411 -344.191684 0 120 255
28.219286 -227.536677 -344.550109 0 120 255
30.666842 -227.625905 -344.899684 0 120 255
33.114398 -227.715132 -345.249260 0 120 255
35.561954 -227.804360 -345.598835 0 120 255
38.014302 -227.893224 -345.912551 0 120 255
40.468001 -227.981985 -346.216164 0 120 255
42.921699 -228.070746 -346.519777 0 120 255
45.375397 -228.159508 -346.823390 0 120 255
47.832556 -228.247696 -347.097173 0 120 255
50.290979 -228.335676 -347.360062 0 120 255
52.749402 -228.423655 -347.622951 0 120 255
55.207825 -228.511634 -347.885840 0 120 255
57.668645 -228.598335 -348.125183 0 120 255
60.130569 -228.684446 -348.353676 0 120 255
62.592493 -228.770558 -348.582170 0 120 255
65.054417 -228.856669 -348.810664 0 120 255
67.518037 -228.938106 -349.021497 0 120 255
69.982623 -229.016876 -349.222257 0 120 255
72.447209 -229.095646 -349.423017 0 120 255
74.911796 -229.174417 -349.623777 0 120 255
77.377617 -229.245171 -349.811529 0 120 255
79.844299 -229.310337 -349.990215 0 120 255
82.310981 -229.375503 -350.168901 0 120 255
84.777662 -229.440669 -350.347587 0 120 255
87.245169 -229.496779 -350.517347 0 120 255
89.713374 -229.545230 -350.679560 0 120 255
92.181579 -229.593682 -350.841772 0 120 255
94.649783 -229.642134 -351.003985 0 120 255
97.118481 -229.680922 -351.160813 0 120 255
99.587684 -229.709834 -351.312139 0 120 255
102.056886 -229.738746 -351.463465 0 120 255
104.526088 -229.767657 -351.614791 0 120 255
106.995504 -229.786564 -351.763756 0 120 255
109.465185 -229.793113 -351.909805 0 120 255
111.934865 -229.799662 -352.055854 0 120 255
114.404545 -229.806212 -352.201904 0 120 255
116.874195 -229.802684 -352.348060 0 120 255
119.343798 -229.784069 -352.494375 0 120 255
121.813401 -229.765453 -352.640690 0 120 255
124.283005 -229.746838 -352.787006 0 120 255
126.752353 -229.718338 -352.935372 0 120 255
129.221237 -229.671773 -353.087486 0 120 255
131.690121 -229.625209 -353.239601 0 120 255
134.159005 -229.578644 -353.391715 0 120 255
136.627431 -229.522644 -353.547295 0 120 255
139.094823 -229.445355 -353.710693 0 120 255
141.562214 -229.368065 -353.874091 0 120 255
144.029606 -229.290775 -354.037490 0 120 255
146.496361 -229.204758 -354.205256 0 120 255
148.961310 -229.093997 -354.385403 0 120 255
151.426259 -228.983237 -354.565550 0 120 255
153.891208 -228.872476 -354.745697 0 120 255
156.355381 -228.753938 -354.930602 0 120 255
158.816714 -228.606950 -355.132911 0 120 255
161.278047 -228.459963 -355.335221 0 120 255
163.739380 -228.312975 -355.537531 0 120 255
166.199127 -228.156513 -355.749532 0 120 255
168.651068 -227.953436 -356.009221 0 120 255
171.103009 -227.750358 -356.268910 0 120 255
173.554950 -227.547280 -356.528598 0 120 255
176.006268 -227.340630 -356.791067 0 120 255
178.453258 -227.109214 -357.072813 0 120 255
180.900248 -226.877798 -357.354559 0 120 255
183.347238 -226.646381 -357.636306 0 120 255
185.794228 -226.414964 -357.918053 0 120 255
188.241215 -226.183536 -358.199811 0 120 255
190.688203 -225.952109 -358.481570 0 120 255
193.135190 -225.720681 -358.763328 0 120 255
195.582178 -225.489254 -359.045087 0 120 255
198.029167 -225.257831 -359.326838 0 120 255
200.476156 -225.026407 -359.608589 0 120 255
202.923144 -224.794984 -359.890340 0 120 255
205.370133 -224.563560 -360.172091 0 120 255
