ply
format ascii 1.0
element vertex 385
property float x
property float y
property float z
property uchar red
property uchar green
property uchar blue
end_header
77.430455 -42.474882 -360.397637 0 120 255
77.187572 -42.528707 -357.936125 0 120 255
76.944688 -42.582532 -355.474613 0 120 255
76.701804 -42.636358 -353.013100 0 120 255
76.458920 -42.690183 -350.551588 0 120 255
76.215754 -42.752382 -348.090302 0 120 255
75.972576 -42.814948 -345.629026 0 120 255
75.729398 -42.877513 -343.167750 0 120 255
75.486219 -42.940079 -340.706473 0 120 255
75.257789 -43.517835 -338.316865 0 120 255
75.030706 -44.142624 -335.933799 0 120 255
74.803623 -44.767413 -333.550733 0 120 255
74.576539 -45.392203 -331.167667 0 120 255
74.376186 -46.429141 -328.936761 0 120 255
74.179781 -47.526937 -326.728323 0 120 255
73.983375 -48.624733 -324.519885 0 120 255
73.786969 -49.722530 -322.311446 0 120 255
73.626478 -51.138601 -320.296391 0 120 255
73.473546 -52.621667 -318.322040 0 120 255
73.320614 -54.104732 -316.347690 0 120 255
73.167682 -55.587798 -314.373340 0 120 255
73.057575 -57.306470 -312.605015 0 120 255
72.959485 -59.091253 -310.894501 0 120 255
72.861394 -60.876036 -309.183986 0 120 255
72.763303 -62.660819 -307.473472 0 120 255
72.713091 -64.613258 -305.963147 0 120 255
72.680072 -66.625905 -304.524712 0 120 255
72.647053 -68.638551 -303.086277 0 120 255
72.614033 -70.651197 -301.647841 0 120 255
72.632545 -72.778179 -300.393088 0 120 255
72.674114 -74.956317 -299.220519 0 120 255
72.715683 -77.134455 -298.047950 0 120 255
72.757251 -79.312593 -296.875381 0 120 255
72.852929 -81.564596 -295.864786 0 120 255
72.978233 -83.857044 -294.942880 0 120 255
73.103537 -86.149492 -294.020973 0 120 255
73.228842 -88.441940 -293.099067 0 120 255
73.409974 -90.778250 -292.315644 0 120 255
73.628057 -93.143589 -291.623876 0 120 255
73.846139 -95.508928 -290.932109 0 120 255
74.064222 -97.874267 -290.240341 0 120 255
74.339102 -100.261633 -289.663825 0 120 255
74.659060 -102.666479 -289.178776 0 120 255
74.979018 -105.071325 -288.693728 0 120 255
75.298976 -107.476172 -288.208680 0 120 255
75.675953 -109.887403 -287.817007 0 120 255
76.106940 -112.304682 -287.513783 0 120 255
76.537928 -114.721960 -287.210559 0 120 255
76.968916 -117.139239 -286.907335 0 120 255
77.456379 -119.551867 -286.677476 0 120 255
78.007580 -121.959248 -286.530415 0 120 255
78.558780 -124.366629 -286.383353 0 120 255
79.109980 -126.774010 -286.236292 0 120 255
79.716246 -129.169121 -286.144673 0 120 255
80.396626 -131.547718 -286.127677 0 120 255
81.077007 -133.926316 -286.110680 0 120 255
81.757387 -136.304913 -286.093684 0 120 255
82.490494 -138.666158 -286.116332 0 120 255
83.308549 -140.999445 -286.202849 0 120 255
84.126604 -143.332733 -286.289366 0 120 255
84.944658 -145.666021 -286.375883 0 120 255
85.812081 -147.978810 -286.488381 0 120 255
86.775376 -150.251791 -286.651331 0 120 255
87.738671 -152.524772 -286.814282 0 120 255
88.701966 -154.797753 -286.977232 0 120 255
89.710231 -157.048623 -287.154646 0 120 255
90.824905 -159.247178 -287.366285 0 120 255
91.939579 -161.445733 -287.577924 0 120 255
93.054253 -163.644287 -287.789562 0 120 255
94.208477 -165.820427 -288.006318 0 120 255
95.478580 -167.930892 -288.238066 0 120 255
96.748683 -170.041356 -288.469815 0 120 255
98.018787 -172.151821 -288.701563 0 120 255
99.322122 -174.240746 -288.931352 0 120 255
100.748924 -176.249640 -289.153859 0 120 255
102.175727 -178.258534 -289.376367 0 120 255
103.602530 -180.267428 -289.598874 0 120 255
105.055564 -182.256799 -289.814709 0 120 255
106.636753 -184.150789 -289.997943 0 120 255
108.217941 -186.044779 -290.181178 0 120 255
109.799130 -187.938769 -290.364412 0 120 255
111.399224 -189.816384 -290.538739 0 120 255
113.128160 -191.582397 -290.652357 0 120 255
114.857096 -193.348411 -290.765975 0 120 255
116.586031 -195.114424 -290.879593 0 120 255
118.326698 -196.868329 -290.984609 0 120 255
120.191708 -198.493899 -290.998446 0 120 255
122.056718 -200.119469 -291.012284 0 120 255
123.921728 -201.745039 -291.026122 0 120 255
125.792046 -203.363829 -291.034198 0 120 255
127.775889 -204.837611 -290.919026 0 120 255
129.759732 -206.311393 -290.803855 0 120 255
131.743575 -207.785175 -290.688683 0 120 255
133.727734 -209.258426 -290.572997 0 120 255
135.807336 -210.570869 -290.301558 0 120 255
137.886938 -211.883313 -290.030119 0 120 255
139.966540 -213.195756 -289.758681 0 120 255
142.046142 -214.508200 -289.487242 0 120 255
144.190148 -215.658695 -289.042111 0 120 255
146.336693 -216.802809 -288.590136 0 120 255
148.483237 -217.946923 -288.138162 0 120 255
150.629782 -219.091037 -287.686187 0 120 255
152.806611 -220.076815 -287.049452 0 120 255
154.986038 -221.049012 -286.396872 0 120 255
157.165465 -222.021209 -285.744291 0 120 255
159.344892 -222.993407 -285.091711 0 120 255
161.519529 -223.814781 -284.249553 0 120 255
163.693512 -224.615594 -283.381551 0 120 255
165.867495 -225.416406 -282.513549 0 120 255
168.041478 -226.217219 -281.645548 0 120 255
170.176291 -226.878673 -280.589523 0 120 255
172.303595 -227.513408 -279.497451 0 120 255
174.430898 -228.148144 -278.405378 0 120 255
176.558202 -228.782880 -277.313306 0 120 255
178.614359 -229.293354 -276.040844 0 120 255
180.652536 -229.772426 -274.722794 0 120 255
182.690713 -230.251498 -273.404744 0 120 255
184.728890 -230.730569 -272.086695 0 120 255
186.667917 -231.103616 -270.601355 0 120 255
188.575186 -231.442704 -269.062436 0 120 255
190.482455 -231.781792 -267.523516 0 120 255
192.389725 -232.120880 -265.984596 0 120 255
194.175040 -232.374457 -264.295918 0 120 255
195.912116 -232.594210 -262.548003 0 120 255
197.649192 -232.813963 -260.800089 0 120 255
199.386268 -233.033716 -259.052174 0 120 255
200.984681 -233.189853 -257.175346 0 120 255
202.516537 -233.315455 -255.236642 0 120 255
204.048393 -233.441057 -253.297938 0 120 255
205.580249 -233.566659 -251.359235 0 120 255
206.963117 -233.652132 -249.314454 0 120 255
208.260266 -233.714516 -247.208642 0 120 255
209.557415 -233.776899 -245.102830 0 120 255
210.854564 -233.839283 -242.997018 0 120 255
211.998818 -233.882842 -240.808681 0 120 255
213.038442 -233.913518 -238.563871 0 120 255
214.078067 -233.944195 -236.319062 0 120 255
215.117691 -233.974871 -234.074252 0 120 255
216.005980 -233.998524 -231.769940 0 120 255
216.771655 -234.016486 -229.417420 0 120 255
217.537330 -234.034448 -227.064900 0 120 255
218.303005 -234.052411 -224.712380 0 120 255
218.922390 -234.065214 -222.321726 0 120 255
219.401742 -234.073078 -219.894569 0 120 255
219.881094 -234.080942 -217.467412 0 120 255
220.360446 -234.088807 -215.040255 0 120 255
220.702102 -234.091789 -212.594375 0 120 255
220.888071 -234.089250 -210.127324 0 120 255
221.074040 -234.086711 -207.660273 0 120 255
221.260009 -234.084172 -205.193222 0 120 255
221.319841 -234.077124 -202.724219 0 120 255
221.210874 -234.064043 -200.252602 0 120 255
221.101907 -234.050961 -197.780986 0 120 255
220.992940 -234.037879 -195.309370 0 120 255
220.771487 -234.020768 -192.849446 0 120 255
220.371116 -233.997247 -190.408118 0 120 255
219.970745 -233.973726 -187.966790 0 120 255
219.570374 -233.950205 -185.525463 0 120 255
219.072573 -233.923207 -183.106087 0 120 255
218.389234 -233.889590 -180.728515 0 120 255
217.705896 -233.855972 -178.350942 0 120 255
217.022557 -233.822355 -175.973370 0 120 255
216.257489 -233.785866 -173.624552 0 120 255
215.304032 -233.742759 -171.342011 0 120 255
214.350576 -233.699651 -169.059470 0 120 255
213.397119 -233.656544 -166.776929 0 120 255
212.377539 -233.611147 -164.526601 0 120 255
211.170525 -233.559259 -162.367583 0 120 255
209.963511 -233.507371 -160.208566 0 120 255
208.756497 -233.455483 -158.049549 0 120 255
207.498264 -233.401838 -155.923109 0 120 255
206.057296 -233.341926 -153.912896 0 120 255
204.616329 -233.282014 -151.902684 0 120 255
203.175361 -233.222102 -149.892471 0 120 255
201.696832 -233.160940 -147.912489 0 120 255
200.043700 -233.093968 -146.073033 0 120 255
198.390567 -233.026995 -144.233577 0 120 255
196.737435 -232.960023 -142.394121 0 120 255
195.058811 -232.892214 -140.580227 0 120 255
193.217010 -232.819047 -138.929971 0 120 255
191.375209 -232.745881 -137.279714 0 120 255
189.533408 -232.672714 -135.629458 0 120 255
187.676323 -232.599059 -133.998218 0 120 255
185.670409 -232.520649 -132.552157 0 120 255
183.664495 -232.442238 -131.106096 0 120 255
181.658581 -232.363827 -129.660035 0 120 255
179.645559 -232.285199 -128.225013 0 120 255
177.500601 -232.202531 -126.994869 0 120 255
175.355644 -232.119863 -125.764724 0 120 255
173.210687 -232.037195 -124.534580 0 120 255
171.064691 -231.954496 -123.306484 0 120 255
168.805791 -231.868503 -122.301044 0 120 255
166.546892 -231.782510 -121.295604 0 120 255
164.287992 -231.696517 -120.290163 0 120 255
162.029093 -231.610524 -119.284723 0 120 255
159.684050 -231.522231 -118.502445 0 120 255
157.336075 -231.433861 -117.727760 0 120 255
154.988100 -231.345490 -116.953075 0 120 255
152.640126 -231.257119 -116.178390 0 120 255
150.232312 -231.167379 -115.620527 0 120 255
147.819650 -231.077529 -115.080228 0 120 255
145.406989 -230.987678 -114.539929 0 120 255
142.994327 -230.897828 -113.999630 0 120 255
140.545534 -230.807405 -113.667591 0 120 255
138.091955 -230.716906 -113.363142 0 120 255
135.638376 -230.626408 -113.058693 0 120 255
133.184796 -230.535909 -112.754244 0 120 255
130.716195 -230.445579 -112.647842 0 120 255
128.244754 -230.355282 -112.578890 0 120 255
125.773312 -230.264984 -112.509938 0 120 255
123.301871 -230.174687 -112.440986 0 120 255
120.834010 -230.085230 -112.558589 0 120 255
118.367050 -229.995986 -112.723140 0 120 255
115.900091 -229.906741 -112.887692 0 120 255
113.433131 -229.817496 -113.052244 0 120 255
110.985959 -229.729621 -113.390911 0 120 255
108.545142 -229.642187 -113.785496 0 120 255
106.104325 -229.554752 -114.180081 0 120 255
103.663507 -229.467318 -114.574667 0 120 255
101.256417 -229.381694 -115.130289 0 120 255
98.862776 -229.296793 -115.750133 0 120 255
96.469135 -229.211892 -116.369977 0 120 255
94.075494 -229.126991 -116.989821 0 120 255
91.727395 -229.044294 -117.757236 0 120 255
89.401435 -228.962670 -118.596389 0 120 255
87.075474 -228.881046 -119.435542 0 120 255
84.749514 -228.799421 -120.274695 0 120 255
82.478876 -228.720317 -121.247634 0 120 255
80.240601 -228.642686 -122.298838 0 120 255
78.002326 -228.565055 -123.350042 0 120 255
75.764051 -228.487424 -124.401245 0 120 255
73.588949 -228.412534 -125.572328 0 120 255
71.457933 -228.339556 -126.827069 0 120 255
69.326916 -228.266578 -128.081811 0 120 255
67.195900 -228.193601 -129.336552 0 120 255
65.133939 -228.123534 -130.697108 0 120 255
63.129146 -228.055878 -132.145265 0 120 255
61.124353 -227.988221 -133.593422 0 120 255
59.119560 -227.920565 -135.041580 0 120 255
57.187589 -227.855904 -136.581327 0 120 255
55.326934 -227.794176 -138.210769 0 120 255
53.466278 -227.732449 -139.840211 0 120 255
51.605623 -227.670721 -141.469653 0 120 255
49.819400 -227.611999 -143.176557 0 120 255
48.119368 -227.556756 -144.973156 0 120 255
46.419335 -227.501513 -146.769755 0 120 255
44.719302 -227.446270 -148.566354 0 120 255
43.093102 -227.393954 -150.426626 0 120 255
41.568191 -227.345654 -152.374252 0 120 255
40.043280 -227.297353 -154.321878 0 120 255
38.518370 -227.249052 -156.269504 0 120 255
37.064589 -227.203529 -158.267734 0 120 255
35.726957 -227.162544 -160.348597 0 120 255
34.389324 -227.121558 -162.429460 0 120 255
33.051692 -227.080573 -164.510323 0 120 255
31.780559 -227.042150 -166.629777 0 120 255
30.639660 -227.008746 -168.824809 0 120 255
29.498762 -226.975342 -171.019841 0 120 255
28.357863 -226.941938 -173.214873 0 120 255
27.277214 -226.910831 -175.437860 0 120 255
26.339719 -226.885181 -177.727265 0 120 255
25.402223 -226.859532 -180.016670 0 120 255
24.464727 -226.833883 -182.306074 0 120 255
23.580017 -226.810225 -184.614414 0 120 255
22.850007 -226.792406 -186.978245 0 120 255
22.119998 -226.774586 -189.342077 0 120 255
21.389988 -226.756766 -191.705909 0 120 255
20.704597 -226.740614 -194.081413 0 120 255
20.184455 -226.730638 -196.500149 0 120 255
19.664313 -226.720662 -198.918885 0 120 255
19.144171 -226.710686 -201.337621 0 120 255
18.660023 -226.702046 -203.762487 0 120 255
18.350628 -226.699894 -206.217116 0 120 255
18.041234 -226.697742 -208.671745 0 120 255
17.731840 -226.695589 -211.126373 0 120 255
17.449566 -226.694432 -213.583250 0 120 255
17.350428 -226.699995 -216.055308 0 120 255
17.251290 -226.705558 -218.527367 0 120 255
17.152152 -226.711121 -220.999425 0 120 255
17.071196 -226.717347 -223.471443 0 120 255
17.180615 -226.730511 -225.943038 0 120 255
17.290033 -226.743675 -228.414634 0 120 255
17.399451 -226.756840 -230.886230 0 120 255
17.518210 -226.770341 -233.357018 0 120 255
17.833413 -226.790942 -235.810822 0 120 255
18.148616 -226.811542 -238.264626 0 120 255
18.463819 -226.832143 -240.718430 0 120 255
18.779754 -226.852770 -243.172109 0 120 255
19.296950 -226.880591 -245.591337 0 120 255
19.814145 -226.908412 -248.010565 0 120 255
20.331340 -226.936234 -250.429794 0 120 255
20.848536 -226.964055 -252.849022 0 120 255
21.555387 -226.998620 -255.219376 0 120 255
22.269756 -227.033452 -257.587792 0 120 255
22.984125 -227.068285 -259.956208 0 120 255
23.698495 -227.103117 -262.324624 0 120 255
24.588992 -227.144133 -264.631839 0 120 255
25.494774 -227.185686 -266.933743 0 120 255
26.400557 -227.227238 -269.235647 0 120 255
27.306340 -227.268791 -271.537552 0 120 255
28.374278 -227.315990 -273.767766 0 120 255
29.464659 -227.363970 -275.988058 0 120 255
30.555040 -227.411950 -278.208351 0 120 255
31.645422 -227.459930 -280.428643 0 120 255
32.883641 -227.512986 -282.568596 0 120 255
34.150706 -227.567033 -284.692874 0 120 255
35.417771 -227.621080 -286.817152 0 120 255
36.684837 -227.675126 -288.941429 0 120 255
38.085041 -227.733710 -290.978683 0 120 255
39.519565 -227.793464 -292.993503 0 120 255
40.954090 -227.853217 -295.008323 0 120 255
42.388614 -227.912971 -297.023143 0 120 255
43.941240 -227.976696 -298.946398 0 120 255
45.532523 -228.041721 -300.839681 0 120 255
47.123806 -228.106747 -302.732964 0 120 255
48.715089 -228.171772 -304.626248 0 120 255
50.409305 -228.240189 -306.425698 0 120 255
52.145208 -228.309980 -308.187146 0 120 255
53.881112 -228.379771 -309.948594 0 120 255
55.617015 -228.449561 -311.710042 0 120 255
57.440907 -228.522217 -313.377652 0 120 255
59.308120 -228.596284 -314.999058 0 120 255
61.175333 -228.670351 -316.620465 0 120 255
63.042546 -228.744417 -318.241872 0 120 255
64.983415 -228.820869 -319.771555 0 120 255
66.967840 -228.898731 -321.246995 0 120 255
68.952266 -228.976593 -322.722436 0 120 255
70.936691 -229.054456 -324.197876 0 120 255
72.981352 -229.134235 -325.585664 0 120 255
75.068452 -229.215365 -326.911697 0 120 255
77.155552 -229.296495 -328.237729 0 120 255
79.242652 -229.377624 -329.563762 0 120 255
81.377610 -229.459170 -330.808258 0 120 255
83.552537 -229.541063 -331.984659 0 120 255
85.727463 -229.622956 -333.161061 0 120 255
87.902390 -229.704849 -334.337462 0 120 255
90.113591 -229.781292 -335.441633 0 120 255
92.360615 -229.852352 -336.474476 0 120 255
94.607640 -229.923412 -337.507318 0 120 255
96.854664 -229.994473 -338.540161 0 120 255
99.128345 -230.055266 -339.510798 0 120 255
101.433158 -230.104070 -340.408790 0 120 255
103.737970 -230.152874 -341.306782 0 120 255
106.042782 -230.201677 -342.204774 0 120 255
108.366599 -230.237759 -343.050337 0 120 255
110.716722 -230.256230 -343.823325 0 120 255
113.066846 -230.274700 -344.596313 0 120 255
115.416969 -230.293171 -345.369301 0 120 255
117.780095 -230.297907 -346.099307 0 120 255
120.164659 -230.279998 -346.758447 0 120 255
122.549223 -230.262089 -347.417587 0 120 255
124.933786 -230.244180 -348.076727 0 120 255
127.326796 -230.212706 -348.701736 0 120 255
129.736522 -230.154380 -349.259183 0 120 255
132.146249 -230.096055 -349.816630 0 120 255
134.555975 -230.037729 -350.374077 0 120 255
136.970820 -229.966922 -350.905462 0 120 255
139.397975 -229.866098 -351.374171 0 120 255
141.825129 -229.765274 -351.842880 0 120 255
144.252283 -229.664450 -352.311588 0 120 255
146.682255 -229.552882 -352.761353 0 120 255
149.120601 -229.409383 -353.154811 0 120 255
151.558946 -229.265884 -353.548268 0 120 255
153.997292 -229.122385 -353.941726 0 120 255
156.436973 -228.970287 -354.322311 0 120 255
158.881684 -228.785797 -354.654402 0 120 255
161.326395 -228.601307 -354.986493 0 120 255
163.771105 -228.416816 -355.318583 0 120 255
166.216262 -228.226192 -355.643132 0 120 255
168.663632 -228.005141 -355.930269 0 120 255
171.111002 -227.784090 -356.217406 0 120 255
173.558372 -227.563039 -356.504543 0 120 255
176.005700 -227.340684 -356.791002 0 120 255
178.452738 -227.109263 -357.072753 0 120 255
180.899775 -226.877842 -357.354505 0 120 255
183.346812 -226.646421 -357.636257 0 120 255
185.793849 -226.415000 -357.918009 0 120 255
188.240884 -226.183568 -358.199773 0 120 255
190.687919 -225.952136 -358.481537 0 120 255
193.134954 -225.720704 -358.763301 0 120 255
195.581989 -225.489272 -359.045065 0 120 255
198.029025 -225.257844 -359.326821 0 120 255
200.476061 -225.026416 -359.608578 0 120 255
202.923097 -224.794988 -359.890334 0 120 255
205.370133 -224.563560 -360.172091 0 120 255
