ply
format ascii 1.0
element vertex 385
property float x
property float y
property float z
property uchar red
property uchar green
property uchar blue
end_header
77.430455 -42.474882 -360.397637 0 120 255
77.187502 -42.528723 -357.935419 0 120 255
76.944548 -42.582563 -355.473200 0 120 255
76.701595 -42.636404 -353.010982 0 120 255
76.458642 -42.690245 -350.548764 0 120 255
76.219230 -42.761853 -348.086655 0 120 255
75.979969 -42.834217 -345.624550 0 120 255
75.740708 -42.906582 -343.162445 0 120 255
75.501447 -42.978946 -340.700340 0 120 255
75.224919 -43.312140 -338.265016 0 120 255
74.945122 -43.668220 -335.832042 0 120 255
74.665325 -44.024300 -333.399068 0 120 255
74.385528 -44.380381 -330.966093 0 120 255
74.079417 -44.962625 -328.581958 0 120 255
73.769604 -45.576684 -326.204692 0 120 255
73.459791 -46.190742 -323.827427 0 120 255
73.149978 -46.804801 -321.450161 0 120 255
72.827746 -47.624798 -319.139574 0 120 255
72.503031 -48.485972 -316.842319 0 120 255
72.178316 -49.347146 -314.545063 0 120 255
71.853601 -50.208320 -312.247808 0 120 255
71.529410 -51.253884 -310.030747 0 120 255
71.205360 -52.348618 -307.835071 0 120 255
70.881310 -53.443352 -305.639395 0 120 255
70.557259 -54.538086 -303.443719 0 120 255
70.245441 -55.795013 -301.337646 0 120 255
69.937809 -57.107445 -299.262236 0 120 255
69.630177 -58.419877 -297.186826 0 120 255
69.322545 -59.732309 -295.111415 0 120 255
69.037393 -61.184712 -293.131222 0 120 255
68.761868 -62.697060 -291.191806 0 120 255
68.486343 -64.209407 -289.252390 0 120 255
68.210818 -65.721755 -287.312974 0 120 255
67.966418 -67.352343 -285.470960 0 120 255
67.738418 -69.045240 -283.680273 0 120 255
67.510419 -70.738136 -281.889585 0 120 255
67.282419 -72.431033 -280.098898 0 120 255
67.092483 -74.221393 -278.404798 0 120 255
66.926949 -76.074240 -276.772621 0 120 255
66.761416 -77.927087 -275.140444 0 120 255
66.595882 -79.779933 -273.508267 0 120 255
66.473597 -81.710795 -271.969317 0 120 255
66.384808 -83.702081 -270.502573 0 120 255
66.296020 -85.693367 -269.035828 0 120 255
66.207231 -87.684653 -267.569084 0 120 255
66.165129 -89.736119 -266.190109 0 120 255
66.166547 -91.843683 -264.892952 0 120 255
66.167965 -93.951246 -263.595795 0 120 255
66.169383 -96.058810 -262.298638 0 120 255
66.219225 -98.210548 -261.082139 0 120 255
66.323354 -100.411812 -259.956066 0 120 255
66.427483 -102.613075 -258.829993 0 120 255
66.531612 -104.814338 -257.703919 0 120 255
66.684276 -107.045777 -256.650198 0 120 255
66.902527 -109.317993 -255.694246 0 120 255
67.120777 -111.590209 -254.738294 0 120 255
67.339028 -113.862425 -253.782342 0 120 255
67.604415 -116.152919 -252.889644 0 120 255
67.946999 -118.473348 -252.100536 0 120 255
68.289583 -120.793776 -251.311428 0 120 255
68.632167 -123.114205 -250.522321 0 120 255
69.019112 -125.443170 -249.786954 0 120 255
69.494915 -127.789236 -249.159236 0 120 255
69.970719 -130.135301 -248.531518 0 120 255
70.446523 -132.481367 -247.903800 0 120 255
70.962700 -134.828406 -247.320270 0 120 255
71.579206 -137.177863 -246.846545 0 120 255
72.195711 -139.527320 -246.372820 0 120 255
72.812216 -141.876777 -245.899095 0 120 255
73.464078 -144.221797 -245.460268 0 120 255
74.227273 -146.552843 -245.131326 0 120 255
74.990467 -148.883888 -244.802384 0 120 255
75.753662 -151.214934 -244.473442 0 120 255
76.544176 -153.538859 -244.167878 0 120 255
77.447260 -155.833440 -243.958642 0 120 255
78.350345 -158.128021 -243.749406 0 120 255
79.253429 -160.422602 -243.540170 0 120 255
80.177935 -162.709074 -243.346982 0 120 255
81.224392 -164.949387 -243.245155 0 120 255
82.270848 -167.189701 -243.143328 0 120 255
83.317304 -169.430014 -243.041500 0 120 255
84.380485 -171.662023 -242.951450 0 120 255
85.584869 -173.823924 -242.960829 0 120 255
86.789253 -175.985825 -242.970208 0 120 255
87.993636 -178.147726 -242.979587 0 120 255
89.208142 -180.303292 -242.995296 0 120 255
90.572444 -182.365126 -243.104686 0 120 255
91.936745 -184.426960 -243.214076 0 120 255
93.301047 -186.488794 -243.323466 0 120 255
94.668747 -188.548033 -243.434725 0 120 255
96.191823 -190.488650 -243.631416 0 120 255
97.714900 -192.429267 -243.828108 0 120 255
99.237976 -194.369884 -244.024799 0 120 255
100.761052 -196.310501 -244.221490 0 120 255
102.436138 -198.111981 -244.490257 0 120 255
104.114290 -199.910656 -244.760478 0 120 255
105.792442 -201.709330 -245.030699 0 120 255
107.470594 -203.508004 -245.300919 0 120 255
109.288471 -205.154476 -245.626443 0 120 255
111.115304 -206.791192 -245.955512 0 120 255
112.942137 -208.427907 -246.284581 0 120 255
114.768971 -210.064623 -246.613649 0 120 255
116.721340 -211.538503 -246.981760 0 120 255
118.687664 -212.994282 -247.354210 0 120 255
120.653989 -214.450060 -247.726661 0 120 255
122.620313 -215.905839 -248.099112 0 120 255
124.696349 -217.190735 -248.495094 0 120 255
126.790126 -218.447998 -248.894883 0 120 255
128.883903 -219.705261 -249.294671 0 120 255
130.977680 -220.962524 -249.694459 0 120 255
133.164041 -222.043535 -250.103237 0 120 255
135.370414 -223.086448 -250.513958 0 120 255
137.576788 -224.129361 -250.924679 0 120 255
139.783161 -225.172274 -251.335400 0 120 255
142.064035 -226.036338 -251.741750 0 120 255
144.365403 -226.851203 -252.146898 0 120 255
146.666771 -227.666067 -252.552046 0 120 255
148.968138 -228.480932 -252.957195 0 120 255
151.325372 -229.117150 -253.345969 0 120 255
153.701552 -229.692782 -253.729190 0 120 255
156.077733 -230.268413 -254.112412 0 120 255
158.453913 -230.844045 -254.495633 0 120 255
160.867212 -231.243966 -254.852012 0 120 255
163.295697 -231.571995 -255.197407 0 120 255
165.724183 -231.900024 -255.542803 0 120 255
168.152668 -232.228053 -255.888198 0 120 255
170.599526 -232.392662 -256.198842 0 120 255
173.055315 -232.477825 -256.492592 0 120 255
175.511105 -232.562987 -256.786341 0 120 255
177.966894 -232.648149 -257.080091 0 120 255
180.425088 -232.588336 -257.335528 0 120 255
182.884661 -232.445366 -257.568991 0 120 255
185.344233 -232.302396 -257.802454 0 120 255
187.803806 -232.159426 -258.035917 0 120 255
190.251293 -231.870901 -258.223938 0 120 255
192.690694 -231.484998 -258.381557 0 120 255
195.130095 -231.099094 -258.539176 0 120 255
197.569496 -230.713190 -258.696795 0 120 255
199.979417 -230.178307 -258.800733 0 120 255
202.366820 -229.529622 -258.863665 0 120 255
204.754222 -228.880936 -258.926597 0 120 255
207.141624 -228.232251 -258.989529 0 120 255
209.483140 -227.444617 -258.995466 0 120 255
211.784936 -226.536710 -258.952071 0 120 255
214.086732 -225.628804 -258.908675 0 120 255
216.388528 -224.720898 -258.865280 0 120 255
218.629221 -223.686167 -258.763300 0 120 255
220.810333 -222.527771 -258.604194 0 120 255
222.991444 -221.369375 -258.445089 0 120 255
225.172555 -220.210978 -258.285983 0 120 255
227.279055 -218.939742 -258.068482 0 120 255
229.303929 -217.545055 -257.787094 0 120 255
231.328803 -216.150368 -257.505706 0 120 255
233.353676 -214.755682 -257.224318 0 120 255
235.292624 -213.263647 -256.886388 0 120 255
237.126353 -211.652407 -256.479220 0 120 255
238.960083 -210.041168 -256.072052 0 120 255
240.793813 -208.429928 -255.664884 0 120 255
242.532934 -206.737891 -255.204613 0 120 255
244.142477 -204.935192 -254.671611 0 120 255
245.752020 -203.132494 -254.138609 0 120 255
247.361563 -201.329795 -253.605607 0 120 255
248.870814 -199.463376 -253.024350 0 120 255
250.226247 -197.499230 -252.369083 0 120 255
251.581680 -195.535084 -251.713816 0 120 255
252.937114 -193.570938 -251.058550 0 120 255
254.189794 -191.560057 -250.361012 0 120 255
255.265444 -189.468656 -249.590647 0 120 255
256.341094 -187.377255 -248.820281 0 120 255
257.416744 -185.285854 -248.049916 0 120 255
258.390501 -183.163963 -247.244091 0 120 255
259.165957 -180.982731 -246.369255 0 120 255
259.941413 -178.801499 -245.494418 0 120 255
260.716868 -176.620267 -244.619582 0 120 255
261.394528 -174.423390 -243.716560 0 120 255
261.855422 -172.191835 -242.751062 0 120 255
262.316317 -169.960281 -241.785565 0 120 255
262.777211 -167.728727 -240.820067 0 120 255
263.147389 -165.494373 -239.833697 0 120 255
263.285929 -163.252869 -238.794029 0 120 255
263.424469 -161.011364 -237.754361 0 120 255
263.563010 -158.769860 -236.714694 0 120 255
263.620435 -156.535877 -235.661101 0 120 255
263.435494 -154.324366 -234.565904 0 120 255
263.250554 -152.112854 -233.470707 0 120 255
263.065613 -149.901342 -232.375510 0 120 255
262.811133 -147.704768 -231.272580 0 120 255
262.308232 -145.561552 -230.142022 0 120 255
261.805331 -143.418336 -229.011464 0 120 255
261.302430 -141.275121 -227.880907 0 120 255
260.742819 -139.151143 -226.747689 0 120 255
259.933602 -137.111839 -225.602765 0 120 255
259.124385 -135.072536 -224.457840 0 120 255
258.315168 -133.033233 -223.312915 0 120 255
257.462595 -131.014313 -222.169014 0 120 255
256.364247 -129.110944 -221.030920 0 120 255
255.265899 -127.207574 -219.892825 0 120 255
254.167552 -125.304204 -218.754730 0 120 255
253.038973 -123.419351 -217.619763 0 120 255
251.673367 -121.679674 -216.509319 0 120 255
250.307760 -119.939998 -215.398874 0 120 255
248.942153 -118.200322 -214.288429 0 120 255
247.558511 -116.474586 -213.181535 0 120 255
245.951234 -114.921713 -212.118667 0 120 255
244.343956 -113.368841 -211.055799 0 120 255
242.736678 -111.815969 -209.992931 0 120 255
241.122038 -110.270175 -208.932346 0 120 255
239.301495 -108.922350 -207.935635 0 120 255
237.480952 -107.574525 -206.938923 0 120 255
235.660409 -106.226700 -205.942211 0 120 255
233.839866 -104.878875 -204.945499 0 120 255
231.837572 -103.747955 -204.031356 0 120 255
229.833977 -102.618586 -203.117803 0 120 255
227.830383 -101.489218 -202.204250 0 120 255
225.826788 -100.359849 -201.290697 0 120 255
223.678954 -99.446313 -200.470523 0 120 255
221.523507 -98.544167 -199.655277 0 120 255
219.368061 -97.642021 -198.840031 0 120 255
217.212614 -96.739875 -198.024785 0 120 255
214.948101 -96.047501 -197.310540 0 120 255
212.672212 -95.377005 -196.606828 0 120 255
210.396324 -94.706509 -195.903116 0 120 255
208.120436 -94.036013 -195.199405 0 120 255
205.767607 -93.565188 -194.601321 0 120 255
203.402264 -93.126842 -194.020419 0 120 255
201.036921 -92.688495 -193.439517 0 120 255
198.671578 -92.250148 -192.858615 0 120 255
196.257919 -91.998268 -192.385219 0 120 255
193.833194 -91.789092 -191.936443 0 120 255
191.408470 -91.579916 -191.487668 0 120 255
188.983745 -91.370741 -191.038892 0 120 255
186.535562 -91.332612 -190.697112 0 120 255
184.080229 -91.346626 -190.387948 0 120 255
181.624895 -91.360639 -190.078784 0 120 255
179.169561 -91.374653 -189.769621 0 120 255
176.711792 -91.542875 -189.564872 0 120 255
174.253070 -91.771543 -189.401054 0 120 255
171.794347 -92.000212 -189.237236 0 120 255
169.335624 -92.228881 -189.073417 0 120 255
166.891721 -92.594213 -189.009705 0 120 255
164.455121 -93.026898 -188.995330 0 120 255
162.018521 -93.459583 -188.980955 0 120 255
159.581920 -93.892268 -188.966580 0 120 255
157.173789 -94.443955 -189.046608 0 120 255
154.783040 -95.068301 -189.184276 0 120 255
152.392290 -95.692647 -189.321944 0 120 255
150.001541 -96.316993 -189.459612 0 120 255
147.649540 -97.043049 -189.684886 0 120 255
145.326574 -97.845321 -189.975807 0 120 255
143.003609 -98.647593 -190.266727 0 120 255
140.680644 -99.449865 -190.557648 0 120 255
138.403618 -100.337324 -190.928573 0 120 255
136.168624 -101.302726 -191.372698 0 120 255
133.933631 -102.268127 -191.816824 0 120 255
131.698638 -103.233529 -192.260949 0 120 255
129.513970 -104.268649 -192.776889 0 120 255
127.385443 -105.381545 -193.372943 0 120 255
125.256916 -106.494440 -193.968996 0 120 255
123.128389 -107.607336 -194.565050 0 120 255
121.052076 -108.775775 -195.224396 0 120 255
119.046932 -110.019920 -195.970011 0 120 255
117.041788 -111.264066 -196.715625 0 120 255
115.036644 -112.508212 -197.461240 0 120 255
113.083380 -113.795172 -198.261465 0 120 255
111.217033 -115.153861 -199.153179 0 120 255
109.350685 -116.512551 -200.044894 0 120 255
107.484338 -117.871240 -200.936609 0 120 255
105.667585 -119.261578 -201.874272 0 120 255
103.954044 -120.717783 -202.907561 0 120 255
102.240502 -122.173989 -203.940850 0 120 255
100.526961 -123.630194 -204.974138 0 120 255
98.859030 -125.108519 -206.044912 0 120 255
97.310993 -126.644988 -207.214222 0 120 255
95.762955 -128.181458 -208.383531 0 120 255
94.214918 -129.717928 -209.552840 0 120 255
92.707032 -131.268666 -210.751512 0 120 255
91.335937 -132.868014 -212.050213 0 120 255
89.964842 -134.467363 -213.348915 0 120 255
88.593747 -136.066711 -214.647616 0 120 255
87.256090 -137.674176 -215.968055 0 120 255
86.072168 -139.318956 -217.388431 0 120 255
84.888247 -140.963737 -218.808808 0 120 255
83.704326 -142.608518 -220.229185 0 120 255
82.546070 -144.256957 -221.664322 0 120 255
81.558372 -145.929712 -223.197550 0 120 255
80.570673 -147.602467 -224.730777 0 120 255
79.582975 -149.275222 -226.264005 0 120 255
78.612302 -150.948860 -227.805813 0 120 255
77.828687 -152.632199 -229.441892 0 120 255
77.045071 -154.315539 -231.077972 0 120 255
76.261455 -155.998879 -232.714052 0 120 255
75.485987 -157.681669 -234.353921 0 120 255
74.925144 -159.349995 -236.093631 0 120 255
74.364302 -161.018320 -237.833341 0 120 255
73.803460 -162.686645 -239.573051 0 120 255
73.242618 -164.354970 -241.312761 0 120 255
72.906972 -165.990031 -243.139712 0 120 255
72.573625 -167.624753 -244.967555 0 120 255
72.240279 -169.259475 -246.795397 0 120 255
71.906933 -170.894196 -248.623240 0 120 255
71.777016 -172.491700 -250.508083 0 120 255
71.659972 -174.086849 -252.396534 0 120 255
71.542929 -175.681998 -254.284984 0 120 255
71.425885 -177.277146 -256.173434 0 120 255
71.501399 -178.824996 -258.101624 0 120 255
71.600393 -180.367079 -260.034658 0 120 255
71.699386 -181.909162 -261.967693 0 120 255
71.798380 -183.451245 -263.900728 0 120 255
72.078049 -184.938118 -265.857423 0 120 255
72.391511 -186.414665 -267.818544 0 120 255
72.704974 -187.891211 -269.779665 0 120 255
73.018437 -189.367758 -271.740785 0 120 255
73.499890 -190.783172 -273.710793 0 120 255
74.024963 -192.182713 -275.683108 0 120 255
74.550035 -193.582254 -277.655424 0 120 255
75.075107 -194.981795 -279.627739 0 120 255
75.754891 -196.316163 -281.595524 0 120 255
76.487445 -197.628301 -283.561764 0 120 255
77.220000 -198.940439 -285.528004 0 120 255
77.952555 -200.252578 -287.494244 0 120 255
78.826134 -201.497224 -289.443976 0 120 255
79.760775 -202.712648 -291.386561 0 120 255
80.695416 -203.928071 -293.329145 0 120 255
81.630058 -205.143495 -295.271730 0 120 255
82.691791 -206.290701 -297.187326 0 120 255
83.821827 -207.401246 -299.088419 0 120 255
84.951863 -208.511790 -300.989511 0 120 255
86.081899 -209.622335 -302.890604 0 120 255
87.325024 -210.665385 -304.755780 0 120 255
88.642462 -211.664085 -306.597355 0 120 255
89.959901 -212.662784 -308.438931 0 120 255
91.277339 -213.661483 -310.280506 0 120 255
92.693944 -214.594707 -312.078851 0 120 255
94.189434 -215.475847 -313.842808 0 120 255
95.684924 -216.356988 -315.606765 0 120 255
97.180414 -217.238128 -317.370723 0 120 255
98.761403 -218.056971 -319.085777 0 120 255
100.424233 -218.816183 -320.754021 0 120 255
102.087063 -219.575395 -322.422264 0 120 255
103.749893 -220.334606 -324.090508 0 120 255
105.484969 -221.035677 -325.705860 0 120 255
107.303030 -221.669965 -327.260458 0 120 255
109.121091 -222.304253 -328.815057 0 120 255
110.939152 -222.938541 -330.369655 0 120 255
112.816777 -223.519674 -331.869078 0 120 255
114.776515 -224.027527 -333.292438 0 120 255
116.736254 -224.535380 -334.715798 0 120 255
118.695992 -225.043233 -336.139158 0 120 255
120.703369 -225.503568 -337.506746 0 120 255
122.789819 -225.885031 -338.781758 0 120 255
124.876268 -226.266493 -340.056770 0 120 255
126.962718 -226.647956 -341.331783 0 120 255
129.085798 -226.988003 -342.552102 0 120 255
131.282559 -227.244741 -343.662403 0 120 255
133.479320 -227.501479 -344.772704 0 120 255
135.676081 -227.758216 -345.883006 0 120 255
137.899561 -227.979914 -346.941300 0 120 255
140.188866 -228.115281 -347.871461 0 120 255
142.478171 -228.250648 -348.801623 0 120 255
144.767476 -228.386015 -349.731785 0 120 255
147.074846 -228.492796 -350.614153 0 120 255
149.437612 -228.511912 -351.349962 0 120 255
151.800378 -228.531028 -352.085771 0 120 255
154.163144 -228.550145 -352.821580 0 120 255
156.536739 -228.546987 -353.515212 0 120 255
158.952673 -228.456748 -354.043951 0 120 255
161.368606 -228.366508 -354.572689 0 120 255
163.784540 -228.276269 -355.101427 0 120 255
166.205655 -228.167328 -355.593072 0 120 255
168.653566 -227.961655 -355.892862 0 120 255
171.101477 -227.755983 -356.192651 0 120 255
173.549388 -227.550311 -356.492440 0 120 255
175.997278 -227.341481 -356.790032 0 120 255
178.445017 -227.109993 -357.071865 0 120 255
180.892756 -226.878506 -357.353697 0 120 255
183.340495 -226.647019 -357.635529 0 120 255
185.788234 -226.415531 -357.917363 0 120 255
188.235971 -226.184032 -358.199207 0 120 255
190.683708 -225.952534 -358.481052 0 120 255
193.131445 -225.721036 -358.762897 0 120 255
195.579181 -225.489537 -359.044742 0 120 255
198.026919 -225.258043 -359.326579 0 120 255
200.474657 -225.026549 -359.608416 0 120 255
202.922395 -224.795055 -359.890253 0 120 255
205.370133 -224.563560 -360.172091 0 120 255
