ply
format ascii 1.0
element vertex 385
property float x
property float y
property float z
property uchar red
property uchar green
property uchar blue
end_header
77.430455 -42.474882 -360.397637 0 120 255
77.187380 -42.528750 -357.934183 0 120 255
76.944305 -42.582617 -355.470729 0 120 255
76.701229 -42.636485 -353.007275 0 120 255
76.458154 -42.690353 -350.543821 0 120 255
76.159741 -42.798882 -348.088314 0 120 255
75.859096 -42.909616 -345.633127 0 120 255
75.558450 -43.020351 -343.177940 0 120 255
75.257805 -43.131085 -340.722753 0 120 255
74.947961 -43.363757 -338.277559 0 120 255
74.637214 -43.608383 -335.833344 0 120 255
74.326468 -43.853010 -333.389129 0 120 255
74.015721 -44.097636 -330.944914 0 120 255
73.750560 -44.398698 -328.501829 0 120 255
73.493894 -44.710277 -326.058955 0 120 255
73.237229 -45.021856 -323.616081 0 120 255
72.980563 -45.333435 -321.173207 0 120 255
72.779237 -45.694363 -318.732264 0 120 255
72.593897 -46.069546 -316.291879 0 120 255
72.408557 -46.444728 -313.851494 0 120 255
72.223216 -46.819911 -311.411109 0 120 255
72.093693 -47.233683 -308.973749 0 120 255
71.986966 -47.663215 -306.537624 0 120 255
71.880239 -48.092748 -304.101500 0 120 255
71.773511 -48.522280 -301.665375 0 120 255
71.715977 -48.977374 -299.232584 0 120 255
71.685549 -49.446553 -296.801630 0 120 255
71.655121 -49.915732 -294.370676 0 120 255
71.624693 -50.384911 -291.939722 0 120 255
71.642458 -50.871526 -289.512466 0 120 255
71.695074 -51.370752 -287.087884 0 120 255
71.747690 -51.869977 -284.663302 0 120 255
71.800306 -52.369202 -282.238720 0 120 255
71.899255 -52.878888 -279.818204 0 120 255
72.041501 -53.398348 -277.401487 0 120 255
72.183747 -53.917809 -274.984771 0 120 255
72.325993 -54.437270 -272.568054 0 120 255
72.511895 -54.961355 -270.155787 0 120 255
72.750170 -55.490989 -267.748859 0 120 255
72.988446 -56.020622 -265.341930 0 120 255
73.226721 -56.550256 -262.935001 0 120 255
73.505205 -57.079820 -260.532904 0 120 255
73.845672 -57.609278 -258.138254 0 120 255
74.186139 -58.138736 -255.743604 0 120 255
74.526605 -58.668194 -253.348954 0 120 255
74.903121 -59.194033 -250.959467 0 120 255
75.351633 -59.712644 -248.580292 0 120 255
75.800145 -60.231255 -246.201118 0 120 255
76.248657 -60.749865 -243.821943 0 120 255
76.728415 -61.262460 -241.448143 0 120 255
77.290445 -61.759215 -239.088493 0 120 255
77.852476 -62.255970 -236.728843 0 120 255
78.414506 -62.752726 -234.369193 0 120 255
79.002414 -63.242229 -232.014908 0 120 255
79.682928 -63.705779 -229.679825 0 120 255
80.363442 -64.169329 -227.344741 0 120 255
81.043956 -64.632879 -225.009658 0 120 255
81.744522 -65.089099 -222.679594 0 120 255
82.547846 -65.507757 -220.375253 0 120 255
83.351171 -65.926415 -218.070912 0 120 255
84.154495 -66.345073 -215.766571 0 120 255
84.971720 -66.757472 -213.466432 0 120 255
85.901368 -67.119247 -211.200275 0 120 255
86.831016 -67.481022 -208.934119 0 120 255
87.760664 -67.842798 -206.667962 0 120 255
88.697895 -68.200505 -204.404573 0 120 255
89.756363 -68.493175 -202.185433 0 120 255
90.814832 -68.785844 -199.966293 0 120 255
91.873300 -69.078513 -197.747153 0 120 255
92.933060 -69.370373 -195.528583 0 120 255
94.121592 -69.581572 -193.366783 0 120 255
95.310124 -69.792771 -191.204984 0 120 255
96.498656 -70.003970 -189.043184 0 120 255
97.687189 -70.215168 -186.881384 0 120 255
99.000769 -70.335971 -184.786286 0 120 255
100.319090 -70.453346 -182.693718 0 120 255
101.637412 -70.570721 -180.601149 0 120 255
102.955734 -70.688097 -178.508580 0 120 255
104.391495 -70.708009 -176.492087 0 120 255
105.837517 -70.719405 -174.482241 0 120 255
107.283540 -70.730802 -172.472395 0 120 255
108.729562 -70.742198 -170.462549 0 120 255
110.284083 -70.650186 -168.538628 0 120 255
111.853582 -70.543898 -166.626570 0 120 255
113.423081 -70.437610 -164.714511 0 120 255
114.992580 -70.331322 -162.802453 0 120 255
116.660283 -70.116889 -160.986527 0 120 255
118.346581 -69.881979 -159.188804 0 120 255
120.032879 -69.647068 -157.391081 0 120 255
121.719178 -69.412157 -155.593358 0 120 255
123.492022 -69.065650 -153.902199 0 120 255
125.285683 -68.692302 -152.236670 0 120 255
127.079343 -68.318954 -150.571141 0 120 255
128.873003 -67.945606 -148.905613 0 120 255
130.740169 -67.458608 -147.357126 0 120 255
132.628698 -66.938580 -145.842655 0 120 255
134.517227 -66.418552 -144.328184 0 120 255
136.405756 -65.898524 -142.813714 0 120 255
138.353378 -65.264287 -141.426629 0 120 255
140.321015 -64.591368 -140.082688 0 120 255
142.288652 -63.918449 -138.738747 0 120 255
144.256289 -63.245531 -137.394806 0 120 255
146.267271 -62.459467 -136.188251 0 120 255
148.294883 -61.629987 -135.034412 0 120 255
150.322496 -60.800508 -133.880574 0 120 255
152.350109 -59.971029 -132.726736 0 120 255
154.404017 -59.031225 -131.719656 0 120 255
156.469095 -58.044564 -130.774909 0 120 255
158.534172 -57.057902 -129.830162 0 120 255
160.599249 -56.071240 -128.885416 0 120 255
162.672379 -54.978968 -128.095864 0 120 255
164.749221 -53.838004 -127.377867 0 120 255
166.826063 -52.697040 -126.659870 0 120 255
168.902905 -51.556075 -125.941872 0 120 255
170.968535 -50.316253 -125.386211 0 120 255
173.028648 -49.027772 -124.910454 0 120 255
175.088760 -47.739291 -124.434697 0 120 255
177.148873 -46.450809 -123.958940 0 120 255
179.177751 -45.072370 -123.650937 0 120 255
181.190444 -43.647313 -123.429868 0 120 255
183.203137 -42.222255 -123.208799 0 120 255
185.215830 -40.797198 -122.987731 0 120 255
187.176883 -39.293275 -122.937649 0 120 255
189.110073 -37.746799 -122.979823 0 120 255
191.043264 -36.200323 -123.021998 0 120 255
192.976455 -34.653847 -123.064172 0 120 255
194.837750 -33.041766 -123.277926 0 120 255
196.658992 -31.393137 -123.587267 0 120 255
198.480234 -29.744508 -123.896608 0 120 255
200.301476 -28.095879 -124.205948 0 120 255
202.031365 -26.396891 -124.684408 0 120 255
203.708978 -24.669086 -125.259644 0 120 255
205.386591 -22.941281 -125.834879 0 120 255
207.064204 -21.213476 -126.410115 0 120 255
208.632581 -19.452213 -127.148651 0 120 255
210.136876 -17.671321 -127.982988 0 120 255
211.641170 -15.890430 -128.817324 0 120 255
213.145464 -14.109539 -129.651660 0 120 255
214.525030 -12.313221 -130.640008 0 120 255
215.829470 -10.507612 -131.721121 0 120 255
217.133910 -8.702003 -132.802233 0 120 255
218.438350 -6.896394 -133.883346 0 120 255
219.605768 -5.093835 -135.105810 0 120 255
220.688037 -3.293172 -136.416115 0 120 255
221.770305 -1.492508 -137.726419 0 120 255
222.852574 0.308155 -139.036724 0 120 255
223.789398 2.087649 -140.472752 0 120 255
224.632223 3.853462 -141.990034 0 120 255
225.475048 5.619274 -143.507316 0 120 255
226.317873 7.385086 -145.024598 0 120 255
227.011189 9.112838 -146.649628 0 120 255
227.602922 10.814728 -148.347866 0 120 255
228.194654 12.516619 -150.046104 0 120 255
228.786386 14.218510 -151.744343 0 120 255
229.229063 15.867505 -153.530875 0 120 255
229.563868 17.478219 -155.381307 0 120 255
229.898672 19.088933 -157.231739 0 120 255
230.233477 20.699647 -159.082171 0 120 255
230.424098 22.245391 -161.000949 0 120 255
230.501921 23.740307 -162.973197 0 120 255
230.579745 25.235223 -164.945445 0 120 255
230.657568 26.730139 -166.917693 0 120 255
230.600021 28.151299 -168.938858 0 120 255
230.426147 29.509076 -171.002060 0 120 255
230.252273 30.866854 -173.065261 0 120 255
230.078399 32.224631 -175.128462 0 120 255
229.781235 33.503397 -177.222631 0 120 255
229.365738 34.706327 -179.346522 0 120 255
228.950241 35.909256 -181.470414 0 120 255
228.534743 37.112186 -183.594305 0 120 255
228.010411 38.234427 -185.733455 0 120 255
227.367342 39.268638 -187.889252 0 120 255
226.724272 40.302848 -190.045050 0 120 255
226.081202 41.337059 -192.200847 0 120 255
225.345174 42.292251 -194.359007 0 120 255
224.491736 43.147640 -196.520152 0 120 255
223.638298 44.003030 -198.681296 0 120 255
222.784860 44.858419 -200.842440 0 120 255
221.854810 45.639422 -202.996168 0 120 255
220.810480 46.309466 -205.138831 0 120 255
219.766150 46.979510 -207.281495 0 120 255
218.721821 47.649555 -209.424159 0 120 255
217.616836 48.252275 -211.552816 0 120 255
216.402550 48.733674 -213.656231 0 120 255
215.188263 49.215074 -215.759646 0 120 255
213.973976 49.696473 -217.863061 0 120 255
212.713891 50.119466 -219.948926 0 120 255
211.351310 50.411747 -221.995518 0 120 255
209.988730 50.704029 -224.042110 0 120 255
208.626149 50.996310 -226.088702 0 120 255
207.230979 51.240368 -228.116951 0 120 255
205.741874 51.345428 -230.092330 0 120 255
204.252769 51.450489 -232.067709 0 120 255
202.763664 51.555550 -234.043087 0 120 255
201.253164 51.623287 -236.001669 0 120 255
199.658915 51.544933 -237.894504 0 120 255
198.064667 51.466579 -239.787339 0 120 255
196.470418 51.388225 -241.680174 0 120 255
194.863743 51.283687 -243.559628 0 120 255
193.184956 51.027207 -245.361428 0 120 255
191.506168 50.770726 -247.163227 0 120 255
189.827381 50.514246 -248.965027 0 120 255
188.142847 50.242576 -250.758252 0 120 255
186.399079 49.814337 -252.463092 0 120 255
184.655312 49.386099 -254.167932 0 120 255
182.911545 48.957861 -255.872773 0 120 255
181.166462 48.524977 -257.574775 0 120 255
179.376098 47.932092 -259.179043 0 120 255
177.585734 47.339208 -260.783311 0 120 255
175.795370 46.746324 -262.387579 0 120 255
174.005006 46.153439 -263.991848 0 120 255
172.186098 45.408706 -265.497297 0 120 255
170.366205 44.658733 -266.999336 0 120 255
168.546311 43.908759 -268.501375 0 120 255
166.726418 43.158786 -270.003414 0 120 255
164.894096 42.273826 -271.413086 0 120 255
163.060453 41.374537 -272.812953 0 120 255
161.226811 40.475248 -274.212820 0 120 255
159.393169 39.575959 -275.612687 0 120 255
157.560161 38.557701 -276.927899 0 120 255
155.727273 37.516891 -278.227063 0 120 255
153.894385 36.476080 -279.526228 0 120 255
152.061497 35.435270 -280.825392 0 120 255
150.239516 34.290512 -282.048379 0 120 255
148.420670 33.115874 -283.249469 0 120 255
146.601824 31.941237 -284.450560 0 120 255
144.782978 30.766600 -285.651650 0 120 255
142.982829 29.501948 -286.785438 0 120 255
141.190225 28.200974 -287.892068 0 120 255
139.397621 26.900000 -288.998698 0 120 255
137.605017 25.599026 -290.105327 0 120 255
135.836657 24.220850 -291.153525 0 120 255
134.081461 22.800756 -292.169994 0 120 255
132.326265 21.380662 -293.186464 0 120 255
130.571068 19.960567 -294.202934 0 120 255
128.843729 18.474989 -295.169665 0 120 255
127.136254 16.942710 -296.100926 0 120 255
125.428780 15.410431 -297.032186 0 120 255
123.721306 13.878153 -297.963446 0 120 255
122.043576 12.291043 -298.853225 0 120 255
120.393358 10.653217 -299.704635 0 120 255
118.743140 9.015391 -300.556046 0 120 255
117.092922 7.377565 -301.407456 0 120 255
115.472830 5.694563 -302.225079 0 120 255
113.888749 3.957560 -303.002318 0 120 255
112.304668 2.220557 -303.779557 0 120 255
110.720586 0.483554 -304.556795 0 120 255
109.165699 -1.289916 -305.307277 0 120 255
107.656109 -3.119971 -306.016241 0 120 255
106.146519 -4.950026 -306.725205 0 120 255
104.636929 -6.780080 -307.434169 0 120 255
103.154435 -8.638769 -308.122683 0 120 255
101.727262 -10.555921 -308.769443 0 120 255
100.300089 -12.473073 -309.416202 0 120 255
98.872916 -14.390225 -310.062962 0 120 255
97.469696 -16.329006 -310.694791 0 120 255
96.132518 -18.327422 -311.285454 0 120 255
94.795340 -20.325837 -311.876117 0 120 255
93.458162 -22.324252 -312.466780 0 120 255
92.140854 -24.338077 -313.047240 0 120 255
90.900994 -26.411961 -313.587927 0 120 255
89.661134 -28.485846 -314.128615 0 120 255
88.421274 -30.559730 -314.669302 0 120 255
87.196341 -32.643564 -315.203720 0 120 255
86.060937 -34.787071 -315.700537 0 120 255
84.925533 -36.930578 -316.197354 0 120 255
83.790129 -39.074085 -316.694171 0 120 255
82.663911 -41.222837 -317.187868 0 120 255
81.639968 -43.429981 -317.646828 0 120 255
80.616024 -45.637126 -318.105789 0 120 255
79.592081 -47.844271 -318.564749 0 120 255
78.570614 -50.052634 -319.022983 0 120 255
77.655324 -52.313264 -319.450056 0 120 255
76.740033 -54.573893 -319.877130 0 120 255
75.824743 -56.834522 -320.304204 0 120 255
74.909453 -59.095151 -320.731277 0 120 255
74.106185 -61.402344 -321.133324 0 120 255
73.307108 -63.711278 -321.534434 0 120 255
72.508032 -66.020213 -321.935544 0 120 255
71.708955 -68.329148 -322.336654 0 120 255
71.031296 -70.679320 -322.719198 0 120 255
70.366098 -73.033724 -323.099836 0 120 255
69.700900 -75.388128 -323.480474 0 120 255
69.035702 -77.742532 -323.861113 0 120 255
68.491147 -80.129182 -324.228801 0 120 255
67.967677 -82.521469 -324.594226 0 120 255
67.444208 -84.913756 -324.959651 0 120 255
66.920739 -87.306043 -325.325075 0 120 255
66.516399 -89.721759 -325.682350 0 120 255
66.142409 -92.143444 -326.037548 0 120 255
65.768419 -94.565129 -326.392747 0 120 255
65.394430 -96.986814 -326.747945 0 120 255
65.137334 -99.423303 -327.098999 0 120 255
64.920405 -101.864879 -327.448629 0 120 255
64.703477 -104.306455 -327.798258 0 120 255
64.486549 -106.748031 -328.147888 0 120 255
64.383543 -109.196013 -328.496607 0 120 255
64.330948 -111.646830 -328.844923 0 120 255
64.278354 -114.097646 -329.193239 0 120 255
64.225760 -116.548463 -329.541555 0 120 255
64.283385 -118.997567 -329.891475 0 120 255
64.401932 -121.445724 -330.242282 0 120 255
64.520479 -123.893881 -330.593088 0 120 255
64.639025 -126.342038 -330.943895 0 120 255
64.863386 -128.780713 -331.298136 0 120 255
65.159245 -131.212980 -331.654699 0 120 255
65.455103 -133.645247 -332.011261 0 120 255
65.750962 -136.077514 -332.367824 0 120 255
66.147530 -138.492956 -332.729035 0 120 255
66.625971 -140.894719 -333.094025 0 120 255
67.104412 -143.296483 -333.459015 0 120 255
67.582853 -145.698247 -333.824005 0 120 255
68.156265 -148.076355 -334.194285 0 120 255
68.821435 -150.431610 -334.569676 0 120 255
69.486605 -152.786864 -334.945067 0 120 255
70.151775 -155.142118 -335.320458 0 120 255
70.905586 -157.467490 -335.701278 0 120 255
71.760182 -159.758886 -336.088269 0 120 255
72.614778 -162.050282 -336.475261 0 120 255
73.469374 -164.341678 -336.862252 0 120 255
74.405777 -166.597650 -337.254361 0 120 255
75.450759 -168.806606 -337.653261 0 120 255
76.495741 -171.015561 -338.052162 0 120 255
77.540723 -173.224516 -338.451062 0 120 255
78.660265 -175.393262 -338.854406 0 120 255
79.894515 -177.500149 -339.264587 0 120 255
81.128765 -179.607035 -339.674768 0 120 255
82.363015 -181.713922 -340.084949 0 120 255
83.664268 -183.776634 -340.498609 0 120 255
85.084264 -185.761061 -340.918433 0 120 255
86.504260 -187.745488 -341.338258 0 120 255
87.924256 -189.729915 -341.758083 0 120 255
89.403515 -191.667065 -342.180176 0 120 255
91.003067 -193.508248 -342.606870 0 120 255
92.602619 -195.349432 -343.033565 0 120 255
94.202171 -197.190616 -343.460259 0 120 255
95.853173 -198.982304 -343.887866 0 120 255
97.623157 -200.659533 -344.317580 0 120 255
99.393140 -202.336761 -344.747294 0 120 255
101.163124 -204.013990 -345.177009 0 120 255
102.976799 -205.640398 -345.606189 0 120 255
104.905014 -207.133577 -346.033969 0 120 255
106.833228 -208.626757 -346.461749 0 120 255
108.761443 -210.119936 -346.889529 0 120 255
110.725756 -211.561862 -347.315291 0 120 255
112.796881 -212.852139 -347.735078 0 120 255
114.868006 -214.142415 -348.154866 0 120 255
116.939130 -215.432692 -348.574653 0 120 255
119.039036 -216.672161 -348.990972 0 120 255
121.234694 -217.742595 -349.395753 0 120 255
123.430352 -218.813030 -349.800533 0 120 255
125.626010 -219.883465 -350.205314 0 120 255
127.843513 -220.904400 -350.605259 0 120 255
130.142525 -221.740631 -350.987163 0 120 255
132.441538 -222.576861 -351.369067 0 120 255
134.740551 -223.413092 -351.750971 0 120 255
137.054959 -224.201967 -352.126818 0 120 255
139.433744 -224.792824 -352.477340 0 120 255
141.812528 -225.383682 -352.827861 0 120 255
144.191312 -225.974540 -353.178382 0 120 255
146.579638 -226.521004 -353.521826 0 120 255
149.012752 -226.859101 -353.832051 0 120 255
151.445866 -227.197198 -354.142276 0 120 255
153.878980 -227.535295 -354.452501 0 120 255
156.316499 -227.832735 -354.754887 0 120 255
158.777353 -227.914828 -355.015756 0 120 255
161.238206 -227.996922 -355.276626 0 120 255
163.699060 -228.079015 -355.537495 0 120 255
166.159228 -228.121926 -355.796389 0 120 255
168.615260 -227.928266 -356.043358 0 120 255
171.071293 -227.734606 -356.290327 0 120 255
173.527325 -227.540946 -356.537296 0 120 255
175.982536 -227.342875 -356.788335 0 120 255
178.431504 -227.111271 -357.070309 0 120 255
180.880471 -226.879668 -357.352282 0 120 255
183.329439 -226.648064 -357.634256 0 120 255
185.778406 -226.416460 -357.916231 0 120 255
188.227372 -226.184846 -358.198217 0 120 255
190.676337 -225.953231 -358.480204 0 120 255
193.125302 -225.721617 -358.762190 0 120 255
195.574267 -225.490002 -359.044176 0 120 255
198.023234 -225.258392 -359.326155 0 120 255
200.472200 -225.026781 -359.608133 0 120 255
202.921167 -224.795171 -359.890112 0 120 255
205.370133 -224.563560 -360.172091 0 120 255
