ply
format ascii 1.0
element vertex 385
property float x
property float y
property float z
property uchar red
property uchar green
property uchar blue
end_header
77.430455 -42.474882 -360.397637 0 120 255
77.187579 -42.528705 -357.936204 0 120 255
76.944703 -42.582529 -355.474771 0 120 255
76.701827 -42.636352 -353.013339 0 120 255
76.458952 -42.690176 -350.551906 0 120 255
76.212913 -42.751427 -348.090962 0 120 255
75.966735 -42.813005 -345.630039 0 120 255
75.720557 -42.874583 -343.169116 0 120 255
75.474379 -42.936161 -340.708193 0 120 255
75.088810 -43.382566 -338.308846 0 120 255
74.690441 -43.864310 -335.915154 0 120 255
74.292073 -44.346054 -333.521462 0 120 255
73.893704 -44.827798 -331.127770 0 120 255
73.387816 -45.605453 -328.837875 0 120 255
72.866035 -46.426849 -326.563322 0 120 255
72.344254 -47.248245 -324.288769 0 120 255
71.822473 -48.069641 -322.014216 0 120 255
71.222048 -49.116725 -319.858130 0 120 255
70.605119 -50.211170 -317.726903 0 120 255
69.988191 -51.305614 -315.595677 0 120 255
69.371262 -52.400059 -313.464450 0 120 255
68.702720 -53.665429 -311.449564 0 120 255
68.019790 -54.978448 -309.467110 0 120 255
67.336859 -56.291468 -307.484657 0 120 255
66.653929 -57.604487 -305.502203 0 120 255
65.943671 -59.048543 -303.625933 0 120 255
65.223691 -60.539217 -301.787440 0 120 255
64.503710 -62.029891 -299.948948 0 120 255
63.783730 -63.520566 -298.110455 0 120 255
63.057573 -65.114575 -296.365826 0 120 255
62.328685 -66.754286 -294.662709 0 120 255
61.599797 -68.393997 -292.959593 0 120 255
60.870908 -70.033709 -291.256477 0 120 255
60.153774 -71.757906 -289.636053 0 120 255
59.442990 -73.527745 -288.060301 0 120 255
58.732206 -75.297583 -286.484549 0 120 255
58.021422 -77.067422 -284.908797 0 120 255
57.337160 -78.908592 -283.407110 0 120 255
56.670190 -80.796269 -281.953713 0 120 255
56.003220 -82.683946 -280.500316 0 120 255
55.336251 -84.571623 -279.046919 0 120 255
54.707561 -86.520659 -277.661700 0 120 255
54.108762 -88.517605 -276.329716 0 120 255
53.509962 -90.514551 -274.997731 0 120 255
52.911163 -92.511497 -273.665746 0 120 255
52.359588 -94.561163 -272.398213 0 120 255
51.851970 -96.659901 -271.190670 0 120 255
51.344351 -98.758639 -269.983127 0 120 255
50.836733 -100.857376 -268.775584 0 120 255
50.382686 -103.000405 -267.630074 0 120 255
49.987979 -105.192493 -266.553276 0 120 255
49.593273 -107.384581 -265.476479 0 120 255
49.198566 -109.576669 -264.399681 0 120 255
48.861390 -111.804262 -263.382871 0 120 255
48.600113 -114.078696 -262.445204 0 120 255
48.338836 -116.353130 -261.507536 0 120 255
48.077559 -118.627564 -260.569869 0 120 255
47.875561 -120.928265 -259.689719 0 120 255
47.767049 -123.270388 -258.900277 0 120 255
47.658537 -125.612512 -258.110835 0 120 255
47.550025 -127.954636 -257.321393 0 120 255
47.500480 -130.313563 -256.585948 0 120 255
47.562814 -132.704372 -255.952954 0 120 255
47.625148 -135.095182 -255.319960 0 120 255
47.687482 -137.485991 -254.686966 0 120 255
47.806516 -139.884392 -254.103072 0 120 255
48.056312 -142.300301 -253.632407 0 120 255
48.306107 -144.716209 -253.161742 0 120 255
48.555902 -147.132117 -252.691077 0 120 255
48.858271 -149.547262 -252.263149 0 120 255
49.310260 -151.960231 -251.956847 0 120 255
49.762248 -154.373201 -251.650545 0 120 255
50.214237 -156.786170 -251.344244 0 120 255
50.712938 -159.191544 -251.073058 0 120 255
51.379395 -161.569636 -250.927984 0 120 255
52.045852 -163.947729 -250.782911 0 120 255
52.712309 -166.325822 -250.637837 0 120 255
53.418061 -168.691653 -250.519451 0 120 255
54.307983 -171.000014 -250.526145 0 120 255
55.197905 -173.308375 -250.532839 0 120 255
56.087827 -175.616736 -250.539534 0 120 255
57.008372 -177.910866 -250.564363 0 120 255
58.126620 -180.113119 -250.706271 0 120 255
59.244868 -182.315373 -250.848178 0 120 255
60.363116 -184.517627 -250.990086 0 120 255
61.502488 -186.706712 -251.142282 0 120 255
62.848810 -188.766798 -251.395266 0 120 255
64.195132 -190.826884 -251.648250 0 120 255
65.541454 -192.886969 -251.901235 0 120 255
66.899166 -194.938032 -252.158304 0 120 255
68.467408 -196.822320 -252.490887 0 120 255
70.035650 -198.706609 -252.823470 0 120 255
71.603891 -200.590897 -253.156052 0 120 255
73.174270 -202.473096 -253.489058 0 120 255
74.951747 -204.152747 -253.863070 0 120 255
76.729224 -205.832398 -254.237081 0 120 255
78.506701 -207.512049 -254.611093 0 120 255
80.284178 -209.191700 -254.985105 0 120 255
82.245647 -210.651881 -255.357187 0 120 255
84.212954 -212.105098 -255.729208 0 120 255
86.180261 -213.558316 -256.101229 0 120 255
88.147567 -215.011533 -256.473250 0 120 255
90.267029 -216.242758 -256.799992 0 120 255
92.398227 -217.456858 -257.123242 0 120 255
94.529425 -218.670959 -257.446491 0 120 255
96.660623 -219.885060 -257.769741 0 120 255
98.909093 -220.885049 -258.007372 0 120 255
101.172411 -221.857929 -258.234163 0 120 255
103.435729 -222.830809 -258.460955 0 120 255
105.699046 -223.803689 -258.687746 0 120 255
108.043316 -224.580149 -258.793828 0 120 255
110.402220 -225.321101 -258.878089 0 120 255
112.761123 -226.062054 -258.962351 0 120 255
115.120027 -226.803006 -259.046612 0 120 255
117.523790 -227.373585 -258.982317 0 120 255
119.938336 -227.903213 -258.882314 0 120 255
122.352881 -228.432840 -258.782311 0 120 255
124.767427 -228.962468 -258.682308 0 120 255
127.192470 -229.354131 -258.414349 0 120 255
129.620727 -229.703540 -258.094953 0 120 255
132.048985 -230.052949 -257.775556 0 120 255
134.477243 -230.402358 -257.456159 0 120 255
136.884621 -230.650076 -256.958599 0 120 255
139.284074 -230.859197 -256.393418 0 120 255
141.683527 -231.068318 -255.828237 0 120 255
144.082980 -231.277439 -255.263056 0 120 255
146.434048 -231.424560 -254.518920 0 120 255
148.762785 -231.543067 -253.692194 0 120 255
151.091523 -231.661574 -252.865469 0 120 255
153.420260 -231.780080 -252.038743 0 120 255
155.677797 -231.872009 -251.040676 0 120 255
157.895870 -231.949206 -249.947639 0 120 255
160.113943 -232.026403 -248.854603 0 120 255
162.332016 -232.103599 -247.761566 0 120 255
164.459725 -232.174770 -246.510032 0 120 255
166.527809 -232.241964 -245.153915 0 120 255
168.595892 -232.309158 -243.797798 0 120 255
170.663975 -232.376352 -242.441681 0 120 255
172.624842 -232.439976 -240.942824 0 120 255
174.501920 -232.500812 -239.332415 0 120 255
176.378997 -232.561648 -237.722007 0 120 255
178.256075 -232.622484 -236.111598 0 120 255
180.012078 -232.678342 -234.377743 0 120 255
181.656340 -232.729606 -232.529958 0 120 255
183.300602 -232.780870 -230.682173 0 120 255
184.944865 -232.832135 -228.834388 0 120 255
186.458680 -232.878372 -226.885762 0 120 255
187.830490 -232.919137 -224.827362 0 120 255
189.202300 -232.959901 -222.768961 0 120 255
190.574110 -233.000666 -220.710561 0 120 255
191.811357 -233.036667 -218.575698 0 120 255
192.875636 -233.066543 -216.342549 0 120 255
193.939915 -233.096420 -214.109400 0 120 255
195.004193 -233.126296 -211.876251 0 120 255
195.935315 -233.151593 -209.591134 0 120 255
196.663612 -233.169913 -207.226862 0 120 255
197.391910 -233.188233 -204.862590 0 120 255
198.120208 -233.206553 -202.498317 0 120 255
198.722076 -233.220482 -200.105096 0 120 255
199.094304 -233.226432 -197.659294 0 120 255
199.466532 -233.232383 -195.213492 0 120 255
199.838760 -233.238333 -192.767690 0 120 255
200.095997 -233.240190 -190.313054 0 120 255
200.101753 -233.233096 -187.839099 0 120 255
200.107509 -233.226001 -185.365145 0 120 255
200.113265 -233.218907 -182.891190 0 120 255
200.019144 -233.208150 -180.424462 0 120 255
199.658274 -233.187614 -177.977037 0 120 255
199.297404 -233.167078 -175.529613 0 120 255
198.936534 -233.146541 -173.082188 0 120 255
198.493300 -233.122928 -170.653244 0 120 255
197.775857 -233.089073 -168.285826 0 120 255
197.058415 -233.055217 -165.918408 0 120 255
196.340973 -233.021361 -163.550990 0 120 255
195.559670 -232.985128 -161.208187 0 120 255
194.505173 -232.938723 -158.970684 0 120 255
193.450676 -232.892319 -156.733181 0 120 255
192.396179 -232.845915 -154.495678 0 120 255
191.295944 -232.797910 -152.283933 0 120 255
189.932067 -232.740676 -150.220659 0 120 255
188.568190 -232.683442 -148.157384 0 120 255
187.204314 -232.626209 -146.094110 0 120 255
185.811201 -232.567994 -144.053296 0 120 255
184.171757 -232.501517 -142.201717 0 120 255
182.532313 -232.435039 -140.350139 0 120 255
180.892870 -232.368561 -138.498561 0 120 255
179.238162 -232.301584 -136.662509 0 120 255
177.361171 -232.227340 -135.052562 0 120 255
175.484180 -232.153096 -133.442615 0 120 255
173.607189 -232.078852 -131.832668 0 120 255
171.725800 -232.004470 -130.228606 0 120 255
169.651689 -231.924004 -128.882455 0 120 255
167.577577 -231.843538 -127.536304 0 120 255
165.503466 -231.763073 -126.190152 0 120 255
163.429354 -231.682607 -124.844001 0 120 255
161.202347 -231.597569 -123.770793 0 120 255
158.972264 -231.512439 -122.703077 0 120 255
156.742180 -231.427309 -121.635362 0 120 255
154.512097 -231.342179 -120.567646 0 120 255
152.173617 -231.254082 -119.768421 0 120 255
149.827991 -231.165790 -118.986895 0 120 255
147.482366 -231.077498 -118.205370 0 120 255
145.136740 -230.989206 -117.423844 0 120 255
142.722177 -230.899339 -116.900333 0 120 255
140.299610 -230.809291 -116.406777 0 120 255
137.877043 -230.719242 -115.913221 0 120 255
135.454476 -230.629193 -115.419665 0 120 255
132.996979 -230.538780 -115.169189 0 120 255
130.533498 -230.448305 -114.960350 0 120 255
128.070018 -230.357830 -114.751512 0 120 255
125.606537 -230.267355 -114.542674 0 120 255
123.136636 -230.177461 -114.558943 0 120 255
120.665244 -230.087702 -114.627508 0 120 255
118.193852 -229.997943 -114.696072 0 120 255
115.722460 -229.908183 -114.764636 0 120 255
113.267894 -229.819789 -115.038641 0 120 255
110.818378 -229.731804 -115.374298 0 120 255
108.368862 -229.643819 -115.709956 0 120 255
105.919346 -229.555834 -116.045614 0 120 255
103.505040 -229.469821 -116.566144 0 120 255
101.103966 -229.384549 -117.156153 0 120 255
98.702892 -229.299277 -117.746161 0 120 255
96.301818 -229.214005 -118.336169 0 120 255
93.949962 -229.131122 -119.090417 0 120 255
91.620791 -229.049339 -119.920362 0 120 255
89.291620 -228.967556 -120.750308 0 120 255
86.962449 -228.885773 -121.580254 0 120 255
84.692680 -228.806683 -122.554360 0 120 255
82.456012 -228.729093 -123.608794 0 120 255
80.219343 -228.651503 -124.663227 0 120 255
77.982675 -228.573914 -125.717661 0 120 255
75.812317 -228.499207 -126.897126 0 120 255
73.686199 -228.426423 -128.160004 0 120 255
71.560081 -228.353639 -129.422882 0 120 255
69.433963 -228.280855 -130.685760 0 120 255
67.378278 -228.211037 -132.055714 0 120 255
65.378498 -228.143574 -133.510659 0 120 255
63.378718 -228.076111 -134.965604 0 120 255
61.378938 -228.008647 -136.420550 0 120 255
59.451389 -227.944150 -137.965965 0 120 255
57.591818 -227.882444 -139.596525 0 120 255
55.732248 -227.820738 -141.227085 0 120 255
53.872677 -227.759032 -142.857646 0 120 255
52.085208 -227.700232 -144.563491 0 120 255
50.378123 -227.644670 -146.353270 0 120 255
48.671037 -227.589107 -148.143049 0 120 255
46.963951 -227.533545 -149.932828 0 120 255
45.327227 -227.480777 -151.784130 0 120 255
43.783565 -227.431704 -153.716806 0 120 255
42.239903 -227.382632 -155.649482 0 120 255
40.696242 -227.333559 -157.582159 0 120 255
39.219861 -227.287122 -159.564008 0 120 255
37.849483 -227.244837 -161.623332 0 120 255
36.479105 -227.202552 -163.682655 0 120 255
35.108728 -227.160268 -165.741979 0 120 255
33.801398 -227.120421 -167.839491 0 120 255
32.613230 -227.085182 -170.009180 0 120 255
31.425062 -227.049943 -172.178869 0 120 255
30.236894 -227.014704 -174.348559 0 120 255
29.106550 -226.981678 -176.546792 0 120 255
28.108712 -226.953723 -178.810434 0 120 255
27.110874 -226.925768 -181.074076 0 120 255
26.113037 -226.897814 -183.337718 0 120 255
25.166891 -226.871818 -185.621566 0 120 255
24.366623 -226.851349 -187.962440 0 120 255
23.566356 -226.830880 -190.303314 0 120 255
22.766089 -226.810411 -192.644188 0 120 255
22.010589 -226.791621 -194.998258 0 120 255
21.414267 -226.778800 -197.399252 0 120 255
20.817944 -226.765978 -199.800246 0 120 255
20.221622 -226.753157 -202.201240 0 120 255
19.662415 -226.741718 -204.609774 0 120 255
19.275290 -226.736692 -207.053264 0 120 255
18.888164 -226.731666 -209.496754 0 120 255
18.501039 -226.726640 -211.940245 0 120 255
18.142755 -226.722675 -214.387031 0 120 255
17.968670 -226.725488 -216.854869 0 120 255
17.794584 -226.728300 -219.322707 0 120 255
17.620499 -226.731113 -221.790545 0 120 255
17.466523 -226.734661 -224.258921 0 120 255
17.507782 -226.745353 -226.732525 0 120 255
17.549042 -226.756045 -229.206130 0 120 255
17.590301 -226.766737 -231.679735 0 120 255
17.642656 -226.777830 -234.152666 0 120 255
17.899693 -226.796329 -236.613180 0 120 255
18.156730 -226.814827 -239.073693 0 120 255
18.413767 -226.833326 -241.534207 0 120 255
18.672837 -226.851897 -243.994417 0 120 255
19.144045 -226.878066 -246.422958 0 120 255
19.615254 -226.904235 -248.851500 0 120 255
20.086463 -226.930405 -251.280041 0 120 255
20.557671 -226.956574 -253.708583 0 120 255
21.232449 -226.989965 -256.088210 0 120 255
21.914048 -227.023598 -258.466199 0 120 255
22.595647 -227.057231 -260.844187 0 120 255
23.277245 -227.090864 -263.222175 0 120 255
24.148018 -227.131145 -265.536796 0 120 255
25.033977 -227.171960 -267.846330 0 120 255
25.919936 -227.212774 -270.155864 0 120 255
26.805895 -227.253589 -272.465398 0 120 255
27.865380 -227.300449 -274.699480 0 120 255
28.947676 -227.348105 -276.923643 0 120 255
30.029973 -227.395760 -279.147806 0 120 255
31.112269 -227.443415 -281.371969 0 120 255
32.351447 -227.496460 -283.511169 0 120 255
33.620079 -227.550515 -285.634418 0 120 255
34.888711 -227.604571 -287.757668 0 120 255
36.157343 -227.658627 -289.880917 0 120 255
37.565626 -227.717428 -291.912378 0 120 255
39.008814 -227.777415 -293.920896 0 120 255
40.452003 -227.837401 -295.929414 0 120 255
41.895192 -227.897388 -297.937932 0 120 255
43.460717 -227.961485 -299.850480 0 120 255
45.065275 -228.026892 -301.732407 0 120 255
46.669833 -228.092300 -303.614335 0 120 255
48.274391 -228.157708 -305.496263 0 120 255
49.984256 -228.226594 -307.280635 0 120 255
51.735854 -228.296857 -309.026345 0 120 255
53.487452 -228.367121 -310.772056 0 120 255
55.239050 -228.437385 -312.517766 0 120 255
57.079618 -228.510573 -314.166747 0 120 255
58.963176 -228.585176 -315.768989 0 120 255
60.846735 -228.659778 -317.371230 0 120 255
62.730294 -228.734380 -318.973472 0 120 255
64.687523 -228.811461 -320.481973 0 120 255
66.687606 -228.889984 -321.935947 0 120 255
68.687689 -228.968506 -323.389920 0 120 255
70.687772 -229.047029 -324.843894 0 120 255
72.747489 -229.127454 -326.209063 0 120 255
74.848609 -229.209199 -327.512576 0 120 255
76.949730 -229.290944 -328.816090 0 120 255
79.050850 -229.372689 -330.119603 0 120 255
81.198970 -229.455121 -331.341058 0 120 255
83.385832 -229.538117 -332.494869 0 120 255
85.572695 -229.621114 -333.648680 0 120 255
87.759558 -229.704111 -334.802491 0 120 255
89.981881 -229.782200 -335.883852 0 120 255
92.238819 -229.855499 -336.894495 0 120 255
94.495756 -229.928798 -337.905137 0 120 255
96.752693 -230.002097 -338.915779 0 120 255
99.035542 -230.065345 -339.864353 0 120 255
101.348335 -230.116980 -340.741201 0 120 255
103.661127 -230.168614 -341.618048 0 120 255
105.973920 -230.220248 -342.494895 0 120 255
108.305038 -230.258839 -343.319849 0 120 255
110.661282 -230.279547 -344.073655 0 120 255
113.017526 -230.300255 -344.827461 0 120 255
115.373769 -230.320963 -345.581267 0 120 255
117.742449 -230.327388 -346.292853 0 120 255
120.131453 -230.310468 -346.935432 0 120 255
122.520458 -230.293549 -347.578010 0 120 255
124.909462 -230.276629 -348.220589 0 120 255
127.306460 -230.245554 -348.829918 0 120 255
129.719156 -230.186677 -349.373949 0 120 255
132.131852 -230.127800 -349.917979 0 120 255
134.544548 -230.068924 -350.462010 0 120 255
136.962026 -229.997089 -350.980861 0 120 255
139.390923 -229.894314 -351.439591 0 120 255
141.819820 -229.791539 -351.898320 0 120 255
144.248717 -229.688763 -352.357050 0 120 255
146.680203 -229.574992 -352.797641 0 120 255
149.119335 -229.428744 -353.184658 0 120 255
151.558467 -229.282496 -353.571674 0 120 255
153.997600 -229.136248 -353.958690 0 120 255
156.437935 -228.981417 -354.333507 0 120 255
158.882778 -228.794424 -354.662619 0 120 255
161.327621 -228.607431 -354.991730 0 120 255
163.772463 -228.420438 -355.320841 0 120 255
166.217710 -228.227644 -355.642899 0 120 255
168.664954 -228.006196 -355.930125 0 120 255
171.112197 -227.784748 -356.217351 0 120 255
173.559440 -227.563300 -356.504577 0 120 255
176.006647 -227.340594 -356.791111 0 120 255
178.453605 -227.109181 -357.072853 0 120 255
180.900564 -226.877768 -357.354596 0 120 255
183.347522 -226.646354 -357.636338 0 120 255
185.794480 -226.414940 -357.918082 0 120 255
188.241436 -226.183515 -358.199837 0 120 255
190.688392 -225.952091 -358.481592 0 120 255
193.135348 -225.720666 -358.763347 0 120 255
195.582304 -225.489242 -359.045101 0 120 255
198.029262 -225.257822 -359.326849 0 120 255
200.476219 -225.026401 -359.608596 0 120 255
202.923176 -224.794981 -359.890343 0 120 255
205.370133 -224.563560 -360.172091 0 120 255
