ply
format ascii 1.0
element vertex 385
property float x
property float y
property float z
property uchar red
property uchar green
property uchar blue
end_header
77.430455 -42.474882 -360.397637 0 120 255
77.187553 -42.528711 -357.935936 0 120 255
76.944651 -42.582541 -355.474235 0 120 255
76.701748 -42.636370 -353.012535 0 120 255
76.458846 -42.690199 -350.550834 0 120 255
76.213601 -42.754561 -348.089620 0 120 255
75.968254 -42.819380 -345.628426 0 120 255
75.722907 -42.884200 -343.167233 0 120 255
75.477561 -42.949019 -340.706040 0 120 255
75.069992 -43.362464 -338.303739 0 120 255
74.647663 -43.807633 -335.906796 0 120 255
74.225334 -44.252801 -333.509854 0 120 255
73.803005 -44.697969 -331.112912 0 120 255
73.257650 -45.388067 -328.802930 0 120 255
72.694133 -46.114322 -326.505785 0 120 255
72.130617 -46.840576 -324.208641 0 120 255
71.567101 -47.566831 -321.911496 0 120 255
70.919697 -48.465991 -319.701315 0 120 255
70.254669 -49.401478 -317.509405 0 120 255
69.589641 -50.336965 -315.317495 0 120 255
68.924614 -51.272452 -313.125584 0 120 255
68.213156 -52.332465 -311.007659 0 120 255
67.488730 -53.427262 -308.910400 0 120 255
66.764304 -54.522058 -306.813140 0 120 255
66.039878 -55.616854 -304.715881 0 120 255
65.302239 -56.807875 -302.677591 0 120 255
64.559890 -58.033195 -300.660321 0 120 255
63.817542 -59.258515 -298.643051 0 120 255
63.075193 -60.483835 -296.625781 0 120 255
62.346887 -61.791363 -294.656592 0 120 255
61.624803 -63.135320 -292.708710 0 120 255
60.902720 -64.479276 -290.760828 0 120 255
60.180636 -65.823233 -288.812946 0 120 255
59.493116 -67.243713 -286.908588 0 120 255
58.824309 -68.705624 -285.027795 0 120 255
58.155501 -70.167535 -283.147002 0 120 255
57.486694 -71.629447 -281.266209 0 120 255
56.866216 -73.165645 -279.430313 0 120 255
56.277341 -74.750423 -277.623776 0 120 255
55.688466 -76.335200 -275.817239 0 120 255
55.099592 -77.919978 -274.010702 0 120 255
54.566715 -79.576845 -272.254518 0 120 255
54.077749 -81.290239 -270.537818 0 120 255
53.588782 -83.003634 -268.821117 0 120 255
53.099816 -84.717028 -267.104417 0 120 255
52.669528 -86.498436 -265.445308 0 120 255
52.294196 -88.343544 -263.840137 0 120 255
51.918864 -90.188651 -262.234966 0 120 255
51.543532 -92.033758 -260.629795 0 120 255
51.225905 -93.940256 -259.089124 0 120 255
50.972759 -95.915352 -257.620525 0 120 255
50.719613 -97.890448 -256.151926 0 120 255
50.466467 -99.865544 -254.683327 0 120 255
50.267710 -101.893028 -253.284178 0 120 255
50.141569 -103.990459 -251.977755 0 120 255
50.015428 -106.087889 -250.671331 0 120 255
49.889287 -108.185320 -249.364907 0 120 255
49.812996 -110.324482 -248.129968 0 120 255
49.816576 -112.530510 -247.009567 0 120 255
49.820156 -114.736537 -245.889166 0 120 255
49.823737 -116.942565 -244.768766 0 120 255
49.872198 -119.178938 -243.718563 0 120 255
50.007608 -121.474097 -242.804354 0 120 255
50.143018 -123.769256 -241.890145 0 120 255
50.278428 -126.064415 -240.975937 0 120 255
50.453797 -128.378765 -240.127392 0 120 255
50.723847 -130.738586 -239.434437 0 120 255
50.993898 -133.098407 -238.741481 0 120 255
51.263948 -135.458228 -238.048526 0 120 255
51.569222 -137.827186 -237.413865 0 120 255
51.978325 -140.223077 -236.951039 0 120 255
52.387428 -142.618969 -236.488214 0 120 255
52.796531 -145.014860 -236.025388 0 120 255
53.236215 -147.411655 -235.611292 0 120 255
53.790892 -149.811843 -235.380428 0 120 255
54.345569 -152.212031 -235.149563 0 120 255
54.900246 -154.612220 -234.918699 0 120 255
55.480688 -157.007451 -234.725615 0 120 255
56.189541 -159.377972 -234.720827 0 120 255
56.898393 -161.748494 -234.716038 0 120 255
57.607246 -164.119016 -234.711250 0 120 255
58.336556 -166.481476 -234.732832 0 120 255
59.209822 -168.787200 -234.939980 0 120 255
60.083089 -171.092924 -235.147128 0 120 255
60.956356 -173.398649 -235.354276 0 120 255
61.844004 -175.696172 -235.576935 0 120 255
62.892579 -177.901930 -235.973156 0 120 255
63.941153 -180.107688 -236.369376 0 120 255
64.989728 -182.313447 -236.765597 0 120 255
66.045717 -184.513852 -237.168107 0 120 255
67.279804 -186.585676 -237.721680 0 120 255
68.513891 -188.657500 -238.275254 0 120 255
69.747978 -190.729324 -238.828828 0 120 255
70.982065 -192.801148 -239.382401 0 120 255
72.409102 -194.708005 -240.052619 0 120 255
73.836487 -196.614564 -240.723047 0 120 255
75.263872 -198.521123 -241.393474 0 120 255
76.691256 -200.427682 -242.063902 0 120 255
78.306894 -202.150148 -242.799679 0 120 255
79.931047 -203.864286 -243.538412 0 120 255
81.555199 -205.578425 -244.277145 0 120 255
83.179352 -207.292564 -245.015878 0 120 255
84.981092 -208.811044 -245.766455 0 120 255
86.799216 -210.311472 -246.518124 0 120 255
88.617341 -211.811901 -247.269793 0 120 255
90.435465 -213.312330 -248.021462 0 120 255
92.413805 -214.613771 -248.731877 0 120 255
94.415118 -215.886679 -249.436376 0 120 255
96.416432 -217.159587 -250.140875 0 120 255
98.417746 -218.432495 -250.845374 0 120 255
100.555111 -219.511592 -251.458774 0 120 255
102.719587 -220.552069 -252.054021 0 120 255
104.884064 -221.592547 -252.649268 0 120 255
107.048540 -222.633024 -253.244514 0 120 255
109.318792 -223.493057 -253.704987 0 120 255
111.616609 -224.306065 -254.130337 0 120 255
113.914426 -225.119073 -254.555687 0 120 255
116.212243 -225.932081 -254.981038 0 120 255
118.580850 -226.585314 -255.236730 0 120 255
120.972701 -227.186084 -255.436714 0 120 255
123.364552 -227.786853 -255.636698 0 120 255
125.756403 -228.387623 -255.836682 0 120 255
128.181404 -228.854984 -255.842952 0 120 255
130.619786 -229.268491 -255.771024 0 120 255
133.058168 -229.681998 -255.699096 0 120 255
135.496550 -230.095504 -255.627168 0 120 255
137.930196 -230.405661 -255.349416 0 120 255
140.361529 -230.665382 -254.971221 0 120 255
142.792863 -230.925103 -254.593026 0 120 255
145.224196 -231.184824 -254.214831 0 120 255
147.615128 -231.373114 -253.630706 0 120 255
149.982495 -231.519743 -252.926477 0 120 255
152.349863 -231.666372 -252.222247 0 120 255
154.717231 -231.813001 -251.518018 0 120 255
157.013162 -231.918955 -250.618910 0 120 255
159.259672 -231.996769 -249.584982 0 120 255
161.506182 -232.074584 -248.551054 0 120 255
163.752692 -232.152398 -247.517127 0 120 255
165.902433 -232.210971 -246.307247 0 120 255
167.973118 -232.253826 -244.953624 0 120 255
170.043802 -232.296681 -243.600000 0 120 255
172.114487 -232.339535 -242.246376 0 120 255
174.068456 -232.369584 -240.740585 0 120 255
175.910055 -232.387303 -239.088294 0 120 255
177.751655 -232.405022 -237.436002 0 120 255
179.593254 -232.422741 -235.783711 0 120 255
181.304643 -232.432096 -234.007165 0 120 255
182.868367 -232.431964 -232.089710 0 120 255
184.432091 -232.431833 -230.172254 0 120 255
185.995816 -232.431701 -228.254799 0 120 255
187.423243 -232.427552 -226.242961 0 120 255
188.668228 -232.418024 -224.104786 0 120 255
189.913213 -232.408497 -221.966612 0 120 255
191.158198 -232.398969 -219.828437 0 120 255
192.267991 -232.388130 -217.625172 0 120 255
193.163215 -232.375207 -215.318600 0 120 255
194.058440 -232.362284 -213.012028 0 120 255
194.953664 -232.349362 -210.705455 0 120 255
195.721213 -232.336519 -208.360488 0 120 255
196.246701 -232.323829 -205.942726 0 120 255
196.772189 -232.311138 -203.524965 0 120 255
197.297677 -232.298448 -201.107203 0 120 255
197.708153 -232.286266 -198.673611 0 120 255
197.855304 -232.275248 -196.203774 0 120 255
198.002455 -232.264229 -193.733938 0 120 255
198.149606 -232.253211 -191.264101 0 120 255
198.198054 -232.242547 -188.795895 0 120 255
197.969273 -232.232877 -186.332273 0 120 255
197.740492 -232.223207 -183.868651 0 120 255
197.511711 -232.213537 -181.405029 0 120 255
197.202573 -232.203804 -178.954967 0 120 255
196.610187 -232.193848 -176.552708 0 120 255
196.017801 -232.183892 -174.150449 0 120 255
195.425416 -232.173937 -171.748190 0 120 255
194.771562 -232.163484 -169.365941 0 120 255
193.836419 -232.150761 -167.075261 0 120 255
192.901275 -232.138037 -164.784581 0 120 255
191.966131 -232.125313 -162.493901 0 120 255
190.987640 -232.111819 -160.224632 0 120 255
189.737402 -232.093496 -158.089582 0 120 255
188.487163 -232.075173 -155.954532 0 120 255
187.236924 -232.056850 -153.819483 0 120 255
185.959662 -232.037730 -151.702886 0 120 255
184.427074 -232.011088 -149.760636 0 120 255
182.894487 -231.984446 -147.818386 0 120 255
181.361899 -231.957804 -145.876136 0 120 255
179.816075 -231.930594 -143.945867 0 120 255
178.037281 -231.893387 -142.226455 0 120 255
176.258487 -231.856180 -140.507043 0 120 255
174.479693 -231.818973 -138.787632 0 120 255
172.698454 -231.781625 -137.071108 0 120 255
170.711465 -231.732407 -135.597566 0 120 255
168.724477 -231.683188 -134.124025 0 120 255
166.737489 -231.633969 -132.650483 0 120 255
164.750501 -231.584750 -131.176941 0 120 255
162.599035 -231.523457 -129.957750 0 120 255
160.442421 -231.461786 -128.746517 0 120 255
158.285808 -231.400115 -127.535284 0 120 255
156.129195 -231.338444 -126.324051 0 120 255
153.850558 -231.265912 -125.365799 0 120 255
151.562384 -231.192533 -124.427318 0 120 255
149.274211 -231.119153 -123.488836 0 120 255
146.986037 -231.045773 -122.550355 0 120 255
144.613921 -230.963778 -121.857937 0 120 255
142.230930 -230.880667 -121.197396 0 120 255
139.847939 -230.797557 -120.536854 0 120 255
137.464948 -230.714446 -119.876312 0 120 255
135.031407 -230.626117 -119.450635 0 120 255
132.588458 -230.536817 -119.068675 0 120 255
130.145509 -230.447517 -118.686715 0 120 255
127.702560 -230.358217 -118.304754 0 120 255
125.237712 -230.267978 -118.143425 0 120 255
122.767419 -230.177506 -118.036969 0 120 255
120.297125 -230.087034 -117.930513 0 120 255
117.826831 -229.996562 -117.824057 0 120 255
115.358863 -229.906881 -117.922219 0 120 255
112.891635 -229.817451 -118.085494 0 120 255
110.424408 -229.728022 -118.248770 0 120 255
107.957180 -229.638593 -118.412045 0 120 255
105.512345 -229.550776 -118.762559 0 120 255
103.076374 -229.463596 -119.187195 0 120 255
100.640403 -229.376417 -119.611830 0 120 255
98.204432 -229.289237 -120.036465 0 120 255
95.807045 -229.204114 -120.630273 0 120 255
93.428299 -229.119985 -121.305817 0 120 255
91.049553 -229.035855 -121.981362 0 120 255
88.670808 -228.951726 -122.656906 0 120 255
86.343273 -228.870022 -123.483340 0 120 255
84.045544 -228.789731 -124.397596 0 120 255
81.747815 -228.709440 -125.311852 0 120 255
79.450086 -228.629150 -126.226109 0 120 255
77.212969 -228.551547 -127.273170 0 120 255
75.017974 -228.475813 -128.412526 0 120 255
72.822979 -228.400080 -129.551882 0 120 255
70.627985 -228.324346 -130.691238 0 120 255
68.500106 -228.251478 -131.945834 0 120 255
66.427609 -228.180974 -133.295520 0 120 255
64.355111 -228.110470 -134.645206 0 120 255
62.282614 -228.039966 -135.994892 0 120 255
60.281163 -227.972414 -137.443027 0 120 255
58.349113 -227.907747 -138.987329 0 120 255
56.417063 -227.843080 -140.531631 0 120 255
54.485012 -227.778413 -142.075933 0 120 255
52.625623 -227.716700 -143.702813 0 120 255
50.850217 -227.658401 -145.425138 0 120 255
49.074811 -227.600103 -147.147464 0 120 255
47.299405 -227.541805 -148.869789 0 120 255
45.596195 -227.486392 -150.659880 0 120 255
43.991912 -227.434933 -152.542829 0 120 255
42.387629 -227.383474 -154.425779 0 120 255
40.783346 -227.332015 -156.308728 0 120 255
39.248950 -227.283301 -158.245828 0 120 255
37.828589 -227.239065 -160.271288 0 120 255
36.408229 -227.194830 -162.296748 0 120 255
34.987868 -227.150595 -164.322208 0 120 255
33.633441 -227.108917 -166.389503 0 120 255
32.408092 -227.072247 -168.538699 0 120 255
31.182743 -227.035577 -170.687895 0 120 255
29.957394 -226.998907 -172.837092 0 120 255
28.792582 -226.964557 -175.017209 0 120 255
27.771580 -226.935717 -177.270782 0 120 255
26.750578 -226.906877 -179.524356 0 120 255
25.729575 -226.878037 -181.777929 0 120 255
24.762479 -226.851241 -184.053010 0 120 255
23.953334 -226.830435 -186.391112 0 120 255
23.144189 -226.809629 -188.729214 0 120 255
22.335044 -226.788822 -191.067315 0 120 255
21.572151 -226.769753 -193.419097 0 120 255
20.980479 -226.757114 -195.821519 0 120 255
20.388807 -226.744474 -198.223942 0 120 255
19.797135 -226.731835 -200.626364 0 120 255
19.243259 -226.720600 -203.036292 0 120 255
18.872706 -226.716173 -205.482624 0 120 255
18.502153 -226.711747 -207.928956 0 120 255
18.131600 -226.707321 -210.375288 0 120 255
17.789822 -226.703951 -212.824655 0 120 255
17.641954 -226.707704 -215.294471 0 120 255
17.494087 -226.711457 -217.764286 0 120 255
17.346219 -226.715210 -220.234102 0 120 255
17.217798 -226.719672 -222.704205 0 120 255
17.292111 -226.731518 -225.177302 0 120 255
17.366425 -226.743365 -227.650398 0 120 255
17.440738 -226.755211 -230.123495 0 120 255
17.525121 -226.767421 -232.595837 0 120 255
17.819049 -226.787190 -235.052478 0 120 255
18.112977 -226.806960 -237.509119 0 120 255
18.406905 -226.826729 -239.965759 0 120 255
18.701732 -226.846531 -242.422252 0 120 255
19.210647 -226.874010 -244.843434 0 120 255
19.719563 -226.901489 -247.264615 0 120 255
20.228478 -226.928968 -249.685796 0 120 255
20.737393 -226.956447 -252.106978 0 120 255
21.447017 -226.991034 -254.476668 0 120 255
22.164459 -227.025898 -256.844353 0 120 255
22.881901 -227.060762 -259.212037 0 120 255
23.599344 -227.095626 -261.579722 0 120 255
24.501159 -227.136975 -263.882677 0 120 255
25.418825 -227.178881 -266.180067 0 120 255
26.336491 -227.220787 -268.477458 0 120 255
27.254157 -227.262694 -270.774848 0 120 255
28.339131 -227.310407 -272.996962 0 120 255
29.447103 -227.358919 -275.208729 0 120 255
30.555076 -227.407431 -277.420496 0 120 255
31.663048 -227.455942 -279.632263 0 120 255
32.920937 -227.509599 -281.760877 0 120 255
34.207927 -227.564254 -283.873349 0 120 255
35.494916 -227.618909 -285.985822 0 120 255
36.781905 -227.673565 -288.098294 0 120 255
38.201494 -227.732723 -290.122302 0 120 255
39.655126 -227.793038 -292.123598 0 120 255
41.108758 -227.853352 -294.124894 0 120 255
42.562390 -227.913667 -296.126190 0 120 255
44.131716 -227.977855 -298.036130 0 120 255
45.738792 -228.043308 -299.916261 0 120 255
47.345867 -228.108760 -301.796392 0 120 255
48.952943 -228.174212 -303.676523 0 120 255
50.659522 -228.242965 -305.464624 0 120 255
52.406306 -228.313050 -307.215538 0 120 255
54.153091 -228.383136 -308.966453 0 120 255
55.899875 -228.453221 -310.717367 0 120 255
57.730947 -228.526090 -312.377545 0 120 255
59.603455 -228.600328 -313.993117 0 120 255
61.475962 -228.674566 -315.608689 0 120 255
63.348470 -228.748804 -317.224261 0 120 255
65.291211 -228.825461 -318.752098 0 120 255
67.275444 -228.903547 -320.228103 0 120 255
69.259678 -228.981633 -321.704107 0 120 255
71.243911 -229.059719 -323.180111 0 120 255
73.285626 -229.139828 -324.572820 0 120 255
75.367820 -229.221363 -325.906870 0 120 255
77.450013 -229.302897 -327.240921 0 120 255
79.532207 -229.384431 -328.574971 0 120 255
81.660320 -229.466503 -329.831762 0 120 255
83.826783 -229.549025 -331.024027 0 120 255
85.993246 -229.631547 -332.216293 0 120 255
88.159710 -229.714068 -333.408558 0 120 255
90.361376 -229.791303 -334.532243 0 120 255
92.597827 -229.863315 -335.588165 0 120 255
94.834278 -229.935326 -336.644088 0 120 255
97.070728 -230.007338 -337.700010 0 120 255
99.333490 -230.069331 -338.696439 0 120 255
101.627008 -230.119613 -339.623324 0 120 255
103.920526 -230.169896 -340.550210 0 120 255
106.214044 -230.220178 -341.477095 0 120 255
108.526690 -230.257696 -342.353364 0 120 255
110.865849 -230.277523 -343.159471 0 120 255
113.205009 -230.297349 -343.965578 0 120 255
115.544168 -230.317176 -344.771686 0 120 255
117.896743 -230.323037 -345.535674 0 120 255
120.271476 -230.305829 -346.230089 0 120 255
122.646210 -230.288622 -346.924505 0 120 255
125.020944 -230.271414 -347.618920 0 120 255
127.404667 -230.240320 -348.279152 0 120 255
129.806226 -230.181672 -348.871556 0 120 255
132.207785 -230.123024 -349.463960 0 120 255
134.609345 -230.064376 -350.056364 0 120 255
137.016586 -229.992960 -350.621812 0 120 255
139.437536 -229.890741 -351.122234 0 120 255
141.858486 -229.788523 -351.622655 0 120 255
144.279436 -229.686304 -352.123077 0 120 255
146.703714 -229.573182 -352.602977 0 120 255
149.137924 -229.427519 -353.021637 0 120 255
151.572133 -229.281856 -353.440298 0 120 255
154.006342 -229.136193 -353.858958 0 120 255
156.442313 -228.981947 -354.262673 0 120 255
158.884956 -228.795196 -354.609789 0 120 255
161.327599 -228.608444 -354.956904 0 120 255
163.770242 -228.421693 -355.304019 0 120 255
166.213686 -228.229105 -355.641203 0 120 255
168.661134 -228.007355 -355.928769 0 120 255
171.108582 -227.785606 -356.216335 0 120 255
173.556030 -227.563856 -356.503901 0 120 255
176.003451 -227.340897 -356.790743 0 120 255
178.450675 -227.109458 -357.072516 0 120 255
180.897900 -226.878020 -357.354289 0 120 255
183.345125 -226.646581 -357.636062 0 120 255
185.792350 -226.415141 -357.917836 0 120 255
188.239572 -226.183692 -358.199622 0 120 255
190.686794 -225.952242 -358.481408 0 120 255
193.134017 -225.720792 -358.763193 0 120 255
195.581239 -225.489343 -359.044979 0 120 255
198.028463 -225.257897 -359.326757 0 120 255
200.475686 -225.026452 -359.608535 0 120 255
202.922910 -224.795006 -359.890313 0 120 255
205.370133 -224.563560 -360.172091 0 120 255
