ply
format ascii 1.0
element vertex 385
property float x
property float y
property float z
property uchar red
property uchar green
property uchar blue
end_header
77.430455 -42.474882 -360.397637 0 120 255
77.187540 -42.528714 -357.935805 0 120 255
76.944625 -42.582546 -355.473973 0 120 255
76.701709 -42.636379 -353.012141 0 120 255
76.458794 -42.690211 -350.550308 0 120 255
76.225371 -42.755050 -348.087825 0 120 255
75.992359 -42.820364 -345.625314 0 120 255
75.759346 -42.885678 -343.162803 0 120 255
75.526334 -42.950993 -340.700291 0 120 255
75.283299 -43.277893 -338.260978 0 120 255
75.039344 -43.628825 -335.823796 0 120 255
74.795388 -43.979757 -333.386615 0 120 255
74.551433 -44.330690 -330.949433 0 120 255
74.292361 -44.913565 -328.560455 0 120 255
74.031024 -45.531212 -326.178705 0 120 255
73.769686 -46.148860 -323.796954 0 120 255
73.508348 -46.766508 -321.415203 0 120 255
73.236434 -47.596014 -319.102233 0 120 255
72.962250 -48.470986 -316.804022 0 120 255
72.688066 -49.345958 -314.505812 0 120 255
72.413882 -50.220929 -312.207602 0 120 255
72.134088 -51.286506 -309.994854 0 120 255
71.852684 -52.406780 -307.806630 0 120 255
71.571280 -53.527054 -305.618407 0 120 255
71.289876 -54.647328 -303.430184 0 120 255
71.008068 -55.936302 -301.340302 0 120 255
70.726110 -57.287421 -299.286647 0 120 255
70.444153 -58.638541 -297.232992 0 120 255
70.162196 -59.989660 -295.179337 0 120 255
69.885067 -61.487399 -293.233248 0 120 255
69.610162 -63.052653 -291.336690 0 120 255
69.335257 -64.617906 -289.440132 0 120 255
69.060352 -66.183160 -287.543575 0 120 255
68.795364 -67.873202 -285.760336 0 120 255
68.535982 -69.633800 -284.041167 0 120 255
68.276601 -71.394397 -282.321999 0 120 255
68.017219 -73.154994 -280.602830 0 120 255
67.772509 -75.019193 -278.999493 0 120 255
67.537862 -76.954459 -277.475613 0 120 255
67.303216 -78.889725 -275.951733 0 120 255
67.068570 -80.824991 -274.427854 0 120 255
66.852860 -82.843658 -273.019328 0 120 255
66.652787 -84.931198 -271.706060 0 120 255
66.452715 -87.018737 -270.392792 0 120 255
66.252642 -89.106276 -269.079524 0 120 255
66.075131 -91.258325 -267.878431 0 120 255
65.919949 -93.474220 -266.788362 0 120 255
65.764767 -95.690115 -265.698294 0 120 255
65.609586 -97.906011 -264.608225 0 120 255
65.479815 -100.169114 -263.624775 0 120 255
65.380145 -102.488139 -262.767622 0 120 255
65.280475 -104.807165 -261.910470 0 120 255
65.180805 -107.126190 -261.053317 0 120 255
65.108528 -109.476956 -260.295173 0 120 255
65.075144 -111.872789 -259.677601 0 120 255
65.041759 -114.268621 -259.060030 0 120 255
65.008374 -116.664454 -258.442458 0 120 255
65.003404 -119.078613 -257.914620 0 120 255
65.047006 -121.524101 -257.540169 0 120 255
65.090608 -123.969588 -257.165719 0 120 255
65.134210 -126.415076 -256.791269 0 120 255
65.206250 -128.867697 -256.495972 0 120 255
65.337289 -131.335118 -256.364881 0 120 255
65.468328 -133.802539 -256.233789 0 120 255
65.599367 -136.269960 -256.102698 0 120 255
65.757846 -138.735680 -256.039311 0 120 255
65.986283 -141.197064 -256.148528 0 120 255
66.214720 -143.658448 -256.257745 0 120 255
66.443156 -146.119832 -256.366963 0 120 255
66.697033 -148.573122 -256.531971 0 120 255
67.032123 -151.000570 -256.875090 0 120 255
67.367214 -153.428019 -257.218209 0 120 255
67.702304 -155.855468 -257.561327 0 120 255
68.059887 -158.270906 -257.948285 0 120 255
68.509975 -160.636950 -258.515541 0 120 255
68.960064 -163.002994 -259.082798 0 120 255
69.410152 -165.369038 -259.650054 0 120 255
69.878927 -167.721611 -260.249600 0 120 255
70.451205 -169.999575 -261.027998 0 120 255
71.023482 -172.277538 -261.806396 0 120 255
71.595760 -174.555502 -262.584793 0 120 255
72.182182 -176.820920 -263.384730 0 120 255
72.882500 -178.985319 -264.358102 0 120 255
73.582818 -181.149719 -265.331475 0 120 255
74.283135 -183.314118 -266.304847 0 120 255
74.992480 -185.469140 -267.290216 0 120 255
75.825158 -187.496041 -268.439495 0 120 255
76.657836 -189.522942 -269.588773 0 120 255
77.490514 -191.549844 -270.738052 0 120 255
78.326711 -193.572587 -271.891349 0 120 255
79.294379 -195.439988 -273.194790 0 120 255
80.262046 -197.307388 -274.498231 0 120 255
81.229714 -199.174788 -275.801672 0 120 255
82.197382 -201.042188 -277.105113 0 120 255
83.298676 -202.733219 -278.536556 0 120 255
84.402138 -204.421388 -279.970076 0 120 255
85.505601 -206.109556 -281.403596 0 120 255
86.609063 -207.797724 -282.837116 0 120 255
87.836652 -209.303526 -284.368302 0 120 255
89.071881 -210.798101 -285.905499 0 120 255
90.307110 -212.292677 -287.442696 0 120 255
91.542340 -213.787253 -288.979893 0 120 255
92.888837 -215.100896 -290.585589 0 120 255
94.247729 -216.394386 -292.198915 0 120 255
95.606621 -217.687876 -293.812241 0 120 255
96.965512 -218.981365 -295.425567 0 120 255
98.430847 -220.089341 -297.080816 0 120 255
99.913788 -221.166632 -298.743000 0 120 255
101.396728 -222.243924 -300.405183 0 120 255
102.879669 -223.321215 -302.067366 0 120 255
104.463950 -224.207768 -303.745510 0 120 255
106.070774 -225.051889 -305.427205 0 120 255
107.677599 -225.896011 -307.108899 0 120 255
109.284423 -226.740133 -308.790594 0 120 255
110.981374 -227.396925 -310.463666 0 120 255
112.704001 -228.000350 -312.134283 0 120 255
114.426627 -228.603775 -313.804899 0 120 255
116.149254 -229.207200 -315.475515 0 120 255
117.949650 -229.629715 -317.115188 0 120 255
119.777546 -229.988258 -318.743918 0 120 255
121.605443 -230.346802 -320.372649 0 120 255
123.433340 -230.705345 -322.001380 0 120 255
125.325846 -230.892145 -323.579504 0 120 255
127.246120 -231.005133 -325.135880 0 120 255
129.166394 -231.118121 -326.692255 0 120 255
131.086668 -231.231109 -328.248630 0 120 255
133.057694 -231.192692 -329.738839 0 120 255
135.054846 -231.076331 -331.194987 0 120 255
137.051999 -230.959969 -332.651134 0 120 255
139.049151 -230.843608 -334.107281 0 120 255
141.084725 -230.586878 -335.484344 0 120 255
143.143758 -230.244444 -336.813120 0 120 255
145.202790 -229.902010 -338.141896 0 120 255
147.261823 -229.559575 -339.470672 0 120 255
149.345796 -229.081375 -340.708167 0 120 255
151.447537 -228.506459 -341.880634 0 120 255
153.549278 -227.931543 -343.053102 0 120 255
155.651018 -227.356627 -344.225570 0 120 255
157.764213 -226.660302 -345.298701 0 120 255
159.886877 -225.863593 -346.289697 0 120 255
162.009541 -225.066884 -347.280693 0 120 255
164.132205 -224.270174 -348.271689 0 120 255
166.253524 -223.367456 -349.158532 0 120 255
168.373556 -222.363291 -349.945706 0 120 255
170.493588 -221.359126 -350.732879 0 120 255
172.613619 -220.354961 -351.520053 0 120 255
174.720610 -219.260776 -352.201477 0 120 255
176.813170 -218.066971 -352.765876 0 120 255
178.905729 -216.873166 -353.330276 0 120 255
180.998289 -215.679361 -353.894675 0 120 255
183.067595 -214.411634 -354.354835 0 120 255
185.107107 -213.049194 -354.681436 0 120 255
187.146620 -211.686753 -355.008036 0 120 255
189.186132 -210.324312 -355.334636 0 120 255
191.193979 -208.903649 -355.561368 0 120 255
193.154696 -207.396330 -355.639459 0 120 255
195.115414 -205.889011 -355.717549 0 120 255
197.076132 -204.381692 -355.795639 0 120 255
198.998832 -202.830977 -355.780778 0 120 255
200.855432 -201.204811 -355.604302 0 120 255
202.712032 -199.578645 -355.427827 0 120 255
204.568632 -197.952479 -355.251351 0 120 255
206.383103 -196.296433 -354.990918 0 120 255
208.111287 -194.579186 -354.558519 0 120 255
209.839470 -192.861939 -354.126119 0 120 255
211.567653 -191.144693 -353.693720 0 120 255
213.251911 -189.409365 -353.187966 0 120 255
214.828910 -187.629887 -352.503092 0 120 255
216.405909 -185.850408 -351.818218 0 120 255
217.982909 -184.070930 -351.133344 0 120 255
219.516493 -182.283145 -350.386747 0 120 255
220.921566 -180.470773 -349.457446 0 120 255
222.326640 -178.658402 -348.528145 0 120 255
223.731713 -176.846030 -347.598843 0 120 255
225.096088 -175.032871 -346.619906 0 120 255
226.310937 -173.216817 -345.458607 0 120 255
227.525786 -171.400764 -344.297308 0 120 255
228.740635 -169.584711 -343.136010 0 120 255
229.919517 -167.772996 -341.937031 0 120 255
230.928597 -165.981763 -340.560162 0 120 255
231.937677 -164.190531 -339.183294 0 120 255
232.946756 -162.399298 -337.806426 0 120 255
233.926362 -160.615096 -336.403154 0 120 255
234.717127 -158.875939 -334.830721 0 120 255
235.507891 -157.136783 -333.258287 0 120 255
236.298656 -155.397626 -331.685853 0 120 255
237.067871 -153.665815 -330.097096 0 120 255
237.630866 -152.004295 -328.352128 0 120 255
238.193860 -150.342775 -326.607160 0 120 255
238.756854 -148.681256 -324.862192 0 120 255
239.307304 -147.025157 -323.109346 0 120 255
239.636325 -145.464753 -321.217413 0 120 255
239.965345 -143.904349 -319.325481 0 120 255
240.294365 -142.343945 -317.433549 0 120 255
240.620534 -140.785011 -315.540179 0 120 255
240.712544 -139.346818 -313.528797 0 120 255
240.804555 -137.908625 -311.517416 0 120 255
240.896565 -136.470431 -309.506034 0 120 255
240.988575 -135.032238 -307.494652 0 120 255
240.850758 -133.730499 -305.395474 0 120 255
240.705803 -132.432997 -303.293570 0 120 255
240.560848 -131.135496 -301.191666 0 120 255
240.415893 -129.837994 -299.089762 0 120 255
240.054022 -128.685513 -296.931577 0 120 255
239.675124 -127.544414 -294.768973 0 120 255
239.296227 -126.403315 -292.606370 0 120 255
238.917330 -125.262216 -290.443767 0 120 255
238.336752 -124.270815 -288.254198 0 120 255
237.729743 -123.299033 -286.061094 0 120 255
237.122733 -122.327251 -283.867991 0 120 255
236.515724 -121.355469 -281.674888 0 120 255
235.724081 -120.534473 -279.481485 0 120 255
234.897434 -119.742066 -277.288025 0 120 255
234.070786 -118.949658 -275.094564 0 120 255
233.244138 -118.157251 -272.901104 0 120 255
232.251135 -117.513544 -270.731019 0 120 255
231.215704 -116.907761 -268.566895 0 120 255
230.180273 -116.301979 -266.402771 0 120 255
229.144842 -115.696196 -264.238647 0 120 255
227.962110 -115.234283 -262.118330 0 120 255
226.730979 -114.819641 -260.012407 0 120 255
225.499848 -114.404999 -257.906484 0 120 255
224.268717 -113.990357 -255.800561 0 120 255
222.909635 -113.712461 -253.755511 0 120 255
221.497883 -113.490855 -251.735519 0 120 255
220.086130 -113.269250 -249.715526 0 120 255
218.674378 -113.047645 -247.695534 0 120 255
217.153910 -112.953791 -245.750068 0 120 255
215.578416 -112.924599 -243.842324 0 120 255
214.002921 -112.895407 -241.934580 0 120 255
212.427426 -112.866215 -240.026836 0 120 255
210.761950 -112.954369 -238.203902 0 120 255
209.041189 -113.114619 -236.433076 0 120 255
207.320429 -113.274870 -234.662250 0 120 255
205.599668 -113.435121 -232.891424 0 120 255
203.806843 -113.701294 -231.212411 0 120 255
201.960734 -114.045788 -229.601285 0 120 255
200.114625 -114.390282 -227.990159 0 120 255
198.268515 -114.734776 -226.379033 0 120 255
196.367134 -115.173156 -224.863620 0 120 255
194.416824 -115.694646 -223.432934 0 120 255
192.466514 -116.216136 -222.002248 0 120 255
190.516204 -116.737626 -220.571562 0 120 255
188.526055 -117.340693 -219.237568 0 120 255
186.493781 -118.030014 -218.005812 0 120 255
184.461508 -118.719335 -216.774055 0 120 255
182.429235 -119.408656 -215.542298 0 120 255
180.370976 -120.167309 -214.405542 0 120 255
178.279893 -121.013542 -213.388789 0 120 255
176.188811 -121.859774 -212.372036 0 120 255
174.097728 -122.706006 -211.355283 0 120 255
171.992754 -123.609690 -210.429452 0 120 255
169.866756 -124.600330 -209.641233 0 120 255
167.740759 -125.590970 -208.853014 0 120 255
165.614761 -126.581609 -208.064794 0 120 255
163.485063 -127.618443 -207.361329 0 120 255
161.348614 -128.739535 -206.812454 0 120 255
159.212166 -129.860628 -206.263580 0 120 255
157.075717 -130.981720 -205.714706 0 120 255
154.943743 -132.138607 -205.242652 0 120 255
152.821697 -133.374932 -204.941082 0 120 255
150.699651 -134.611256 -204.639512 0 120 255
148.577604 -135.847581 -204.337942 0 120 255
146.466106 -137.110358 -204.103848 0 120 255
144.383497 -138.445585 -204.054558 0 120 255
142.300887 -139.780811 -204.005267 0 120 255
140.218277 -141.116038 -203.955976 0 120 255
138.150142 -142.469605 -203.963781 0 120 255
136.131963 -143.886471 -204.168642 0 120 255
134.113785 -145.303338 -204.373503 0 120 255
132.095607 -146.720205 -204.578365 0 120 255
130.093672 -148.148669 -204.829281 0 120 255
128.164651 -149.629193 -205.286936 0 120 255
126.235629 -151.109717 -205.744591 0 120 255
124.306608 -152.590242 -206.202247 0 120 255
122.393462 -154.077087 -206.694665 0 120 255
120.577767 -155.602732 -207.400483 0 120 255
118.762072 -157.128377 -208.106301 0 120 255
116.946376 -158.654023 -208.812120 0 120 255
115.144123 -160.182255 -209.541558 0 120 255
113.465105 -161.734200 -210.487543 0 120 255
111.786086 -163.286145 -211.433528 0 120 255
110.107068 -164.838089 -212.379513 0 120 255
108.437099 -166.390455 -213.338530 0 120 255
106.916955 -167.949788 -214.513335 0 120 255
105.396811 -169.509121 -215.688139 0 120 255
103.876666 -171.068454 -216.862943 0 120 255
102.359381 -172.627607 -218.041156 0 120 255
101.018859 -174.175619 -219.430106 0 120 255
99.678337 -175.723632 -220.819055 0 120 255
98.337815 -177.271644 -222.208005 0 120 255
96.997293 -178.819656 -223.596955 0 120 255
95.850417 -180.338817 -225.177285 0 120 255
94.708467 -181.857244 -226.762483 0 120 255
93.566516 -183.375670 -228.347681 0 120 255
92.424566 -184.894097 -229.932879 0 120 255
91.483968 -186.368494 -231.681910 0 120 255
90.557424 -187.839818 -233.442378 0 120 255
89.630881 -189.311142 -235.202845 0 120 255
88.704337 -190.782466 -236.963313 0 120 255
87.983359 -192.196881 -238.859260 0 120 255
87.286610 -193.604589 -240.771176 0 120 255
86.589860 -195.012297 -242.683092 0 120 255
85.893111 -196.420005 -244.595007 0 120 255
85.402696 -197.760355 -246.613799 0 120 255
84.947391 -199.089243 -248.650776 0 120 255
84.492085 -200.418131 -250.687753 0 120 255
84.036780 -201.747019 -252.724731 0 120 255
83.785245 -203.000564 -254.840326 0 120 255
83.580037 -204.236980 -256.973794 0 120 255
83.374829 -205.473396 -259.107262 0 120 255
83.169621 -206.709812 -261.240731 0 120 255
83.162463 -207.865404 -263.425459 0 120 255
83.212789 -208.997536 -265.625065 0 120 255
83.263115 -210.129668 -267.824671 0 120 255
83.313441 -211.261801 -270.024277 0 120 255
83.553195 -212.310040 -272.249262 0 120 255
83.861114 -213.328090 -274.483379 0 120 255
84.169034 -214.346141 -276.717497 0 120 255
84.476953 -215.364192 -278.951615 0 120 255
84.964498 -216.295397 -281.187742 0 120 255
85.530615 -217.188615 -283.424748 0 120 255
86.096732 -218.081833 -285.661754 0 120 255
86.662848 -218.975051 -287.898760 0 120 255
87.398958 -219.778490 -290.115867 0 120 255
88.224213 -220.534849 -292.322538 0 120 255
89.049468 -221.291207 -294.529210 0 120 255
89.874724 -222.047565 -296.735881 0 120 255
90.851795 -222.720838 -298.902644 0 120 255
91.923658 -223.342234 -301.044489 0 120 255
92.995521 -223.963630 -303.186334 0 120 255
94.067384 -224.585025 -305.328179 0 120 255
95.269638 -225.134053 -307.415500 0 120 255
96.568950 -225.629214 -309.462236 0 120 255
97.868263 -226.124374 -311.508971 0 120 255
99.167575 -226.619535 -313.555707 0 120 255
100.579122 -227.050187 -315.537115 0 120 255
102.090063 -227.423711 -317.460668 0 120 255
103.601004 -227.797235 -319.384222 0 120 255
105.111945 -228.170759 -321.307776 0 120 255
106.717151 -228.488361 -323.158932 0 120 255
108.421721 -228.747016 -324.933773 0 120 255
110.126292 -229.005670 -326.708614 0 120 255
111.830862 -229.264325 -328.483455 0 120 255
113.612392 -229.475962 -330.182395 0 120 255
115.490779 -229.628427 -331.785810 0 120 255
117.369165 -229.780893 -333.389226 0 120 255
119.247551 -229.933358 -334.992642 0 120 255
121.186699 -230.047648 -336.519935 0 120 255
123.217686 -230.104239 -337.932172 0 120 255
125.248672 -230.160830 -339.344409 0 120 255
127.279659 -230.217421 -340.756646 0 120 255
129.356659 -230.244258 -342.095491 0 120 255
131.517955 -230.216584 -343.299881 0 120 255
133.679251 -230.188911 -344.504271 0 120 255
135.840548 -230.161238 -345.708661 0 120 255
138.034841 -230.111535 -346.844947 0 120 255
140.303409 -230.012246 -347.827935 0 120 255
142.571977 -229.912957 -348.810922 0 120 255
144.840544 -229.813668 -349.793910 0 120 255
147.131038 -229.699130 -350.716212 0 120 255
149.483380 -229.541579 -351.467336 0 120 255
151.835722 -229.384029 -352.218461 0 120 255
154.188064 -229.226479 -352.969586 0 120 255
156.553354 -229.059344 -353.669132 0 120 255
158.965770 -228.857329 -354.180955 0 120 255
161.378186 -228.655314 -354.692778 0 120 255
163.790601 -228.453298 -355.204601 0 120 255
166.209072 -228.247165 -355.676941 0 120 255
168.657302 -228.020793 -355.955238 0 120 255
171.105532 -227.794420 -356.233535 0 120 255
173.553762 -227.568048 -356.511832 0 120 255
176.001883 -227.341045 -356.790562 0 120 255
178.449238 -227.109594 -357.072351 0 120 255
180.896594 -226.878143 -357.354139 0 120 255
183.343949 -226.646692 -357.635927 0 120 255
185.791305 -226.415240 -357.917716 0 120 255
188.238658 -226.183778 -358.199517 0 120 255
190.686010 -225.952316 -358.481317 0 120 255
193.133363 -225.720854 -358.763118 0 120 255
195.580716 -225.489392 -359.044918 0 120 255
198.028071 -225.257934 -359.326711 0 120 255
200.475425 -225.026476 -359.608505 0 120 255
202.922779 -224.795018 -359.890298 0 120 255
205.370133 -224.563560 -360.172091 0 120 255
