ply
format ascii 1.0
element vertex 385
property float x
property float y
property float z
property uchar red
property uchar green
property uchar blue
end_header
77.430455 -42.474882 -360.397637 0 120 255
77.187560 -42.528710 -357.936007 0 120 255
76.944664 -42.582538 -355.474377 0 120 255
76.701769 -42.636365 -353.012747 0 120 255
76.458874 -42.690193 -350.551117 0 120 255
76.213495 -42.753860 -348.089969 0 120 255
75.968009 -42.817956 -345.628842 0 120 255
75.722522 -42.882052 -343.167715 0 120 255
75.477036 -42.946148 -340.706588 0 120 255
75.074850 -43.358623 -338.303257 0 120 255
74.658358 -43.802903 -335.905202 0 120 255
74.241867 -44.247184 -333.507147 0 120 255
73.825375 -44.691465 -331.109093 0 120 255
73.291397 -45.384176 -328.797326 0 120 255
72.740043 -46.113626 -326.498320 0 120 255
72.188690 -46.843076 -324.199313 0 120 255
71.637336 -47.572527 -321.900307 0 120 255
71.006476 -48.480962 -319.689294 0 120 255
70.358891 -49.427049 -317.496790 0 120 255
69.711306 -50.373135 -315.304287 0 120 255
69.063721 -51.319222 -313.111783 0 120 255
68.372202 -52.397236 -310.996570 0 120 255
67.668400 -53.512136 -308.902966 0 120 255
66.964598 -54.627035 -306.809361 0 120 255
66.260795 -55.741934 -304.715757 0 120 255
65.544022 -56.960381 -302.686527 0 120 255
64.822620 -58.215776 -300.680266 0 120 255
64.101218 -59.471170 -298.674006 0 120 255
63.379816 -60.726565 -296.667745 0 120 255
62.670534 -62.070257 -294.716317 0 120 255
61.966631 -63.453123 -292.789217 0 120 255
61.262727 -64.835990 -290.862116 0 120 255
60.558823 -66.218857 -288.935015 0 120 255
59.885845 -67.682417 -287.058537 0 120 255
59.229632 -69.189724 -285.209503 0 120 255
58.573419 -70.697032 -283.360469 0 120 255
57.917206 -72.204339 -281.511435 0 120 255
57.304648 -73.787996 -279.713790 0 120 255
56.720677 -75.421650 -277.949798 0 120 255
56.136706 -77.055305 -276.185806 0 120 255
55.552735 -78.688959 -274.421814 0 120 255
55.019807 -80.394879 -272.713372 0 120 255
54.526958 -82.157543 -271.048549 0 120 255
54.034110 -83.920207 -269.383727 0 120 255
53.541261 -85.682871 -267.718905 0 120 255
53.102544 -87.512303 -266.115225 0 120 255
52.714587 -89.404346 -264.568880 0 120 255
52.326631 -91.296388 -263.022536 0 120 255
51.938675 -93.188431 -261.476191 0 120 255
51.604803 -95.139741 -259.996222 0 120 255
51.331424 -97.157341 -258.590494 0 120 255
51.058045 -99.174941 -257.184766 0 120 255
50.784666 -101.192541 -255.779037 0 120 255
50.563277 -103.260037 -254.443183 0 120 255
50.411345 -105.394190 -253.200676 0 120 255
50.259412 -107.528343 -251.958169 0 120 255
50.107480 -109.662496 -250.715661 0 120 255
50.004293 -111.835906 -249.543976 0 120 255
49.979215 -114.072221 -248.485778 0 120 255
49.954138 -116.308536 -247.427579 0 120 255
49.929060 -118.544850 -246.369380 0 120 255
49.948950 -120.809285 -245.380018 0 120 255
50.055906 -123.128164 -244.523936 0 120 255
50.162862 -125.447043 -243.667854 0 120 255
50.269818 -127.765923 -242.811772 0 120 255
50.417764 -130.102119 -242.019655 0 120 255
50.662698 -132.479291 -241.378888 0 120 255
50.907631 -134.856462 -240.738122 0 120 255
51.152565 -137.233633 -240.097355 0 120 255
51.434381 -139.618418 -239.513121 0 120 255
51.824646 -142.025590 -239.095109 0 120 255
52.214911 -144.432762 -238.677098 0 120 255
52.605176 -146.839934 -238.259086 0 120 255
53.027969 -149.246783 -237.888180 0 120 255
53.572584 -151.652419 -237.693693 0 120 255
54.117198 -154.058056 -237.499206 0 120 255
54.661813 -156.463692 -237.304719 0 120 255
55.234109 -158.863373 -237.146641 0 120 255
55.943532 -161.233550 -237.168926 0 120 255
56.652954 -163.603728 -237.191210 0 120 255
57.362377 -165.973905 -237.213495 0 120 255
58.093895 -168.335199 -237.261108 0 120 255
58.979414 -170.634575 -237.485256 0 120 255
59.864934 -172.933951 -237.709405 0 120 255
60.750453 -175.233327 -237.933554 0 120 255
61.651551 -177.523843 -238.172540 0 120 255
62.724160 -179.716819 -238.574890 0 120 255
63.796768 -181.909795 -238.977240 0 120 255
64.869377 -184.102770 -239.379590 0 120 255
65.950108 -186.289917 -239.787964 0 120 255
67.219070 -188.341984 -240.335938 0 120 255
68.488033 -190.394050 -240.883913 0 120 255
69.756995 -192.446116 -241.431887 0 120 255
71.025958 -194.498183 -241.979861 0 120 255
72.496998 -196.377585 -242.632076 0 120 255
73.968091 -198.256942 -243.284317 0 120 255
75.439184 -200.136299 -243.936558 0 120 255
76.910277 -202.015657 -244.588800 0 120 255
78.575531 -203.703316 -245.293712 0 120 255
80.249214 -205.382654 -246.000910 0 120 255
81.922896 -207.061992 -246.708108 0 120 255
83.596578 -208.741329 -247.415306 0 120 255
85.450011 -210.218017 -248.121765 0 120 255
87.319649 -211.676435 -248.828156 0 120 255
89.189286 -213.134854 -249.534548 0 120 255
91.058923 -214.593272 -250.240939 0 120 255
93.087053 -215.846958 -250.894107 0 120 255
95.137531 -217.071774 -251.539771 0 120 255
97.188010 -218.296590 -252.185434 0 120 255
99.238488 -219.521406 -252.831097 0 120 255
101.419670 -220.548562 -253.375010 0 120 255
103.626547 -221.536858 -253.898920 0 120 255
105.833424 -222.525154 -254.422829 0 120 255
108.040302 -223.513450 -254.946738 0 120 255
110.344671 -224.319875 -255.327277 0 120 255
112.674161 -225.079436 -255.670873 0 120 255
115.003652 -225.838998 -256.014468 0 120 255
117.333143 -226.598559 -256.358064 0 120 255
119.723243 -227.199649 -256.526124 0 120 255
122.133055 -227.749201 -256.637095 0 120 255
124.542868 -228.298754 -256.748067 0 120 255
126.952680 -228.848306 -256.859039 0 120 255
129.384812 -229.268525 -256.773521 0 120 255
131.825880 -229.636963 -256.609337 0 120 255
134.266948 -230.005402 -256.445153 0 120 255
136.708017 -230.373841 -256.280969 0 120 255
139.134137 -230.645500 -255.911411 0 120 255
141.553014 -230.870262 -255.442334 0 120 255
143.971891 -231.095024 -254.973258 0 120 255
146.390769 -231.319786 -254.504181 0 120 255
148.760731 -231.482152 -253.832604 0 120 255
151.102340 -231.608347 -253.043640 0 120 255
153.443948 -231.734541 -252.254677 0 120 255
155.785556 -231.860736 -251.465713 0 120 255
158.049813 -231.956599 -250.487877 0 120 255
160.260829 -232.031583 -249.380039 0 120 255
162.471844 -232.106567 -248.272202 0 120 255
164.682860 -232.181552 -247.164364 0 120 255
166.793434 -232.242380 -245.887043 0 120 255
168.822278 -232.291689 -244.471813 0 120 255
170.851123 -232.340998 -243.056582 0 120 255
172.879967 -232.390307 -241.641352 0 120 255
174.790179 -232.429654 -240.080251 0 120 255
176.586543 -232.459442 -238.379161 0 120 255
178.382907 -232.489230 -236.678071 0 120 255
180.179270 -232.519018 -234.976981 0 120 255
181.845041 -232.542143 -233.157378 0 120 255
183.363058 -232.557730 -231.203689 0 120 255
184.881075 -232.573316 -229.250001 0 120 255
186.399092 -232.588903 -227.296312 0 120 255
187.781507 -232.600900 -225.253035 0 120 255
188.982689 -232.608102 -223.090021 0 120 255
190.183871 -232.615304 -220.927008 0 120 255
191.385053 -232.622505 -218.763994 0 120 255
192.452364 -232.627903 -216.539599 0 120 255
193.307387 -232.630440 -214.217865 0 120 255
194.162409 -232.632977 -211.896131 0 120 255
195.017432 -232.635515 -209.574397 0 120 255
195.746325 -232.637052 -207.216929 0 120 255
196.236167 -232.636694 -204.791734 0 120 255
196.726008 -232.636337 -202.366538 0 120 255
197.215850 -232.635979 -199.941343 0 120 255
197.592164 -232.634795 -197.502094 0 120 255
197.708501 -232.631717 -195.030663 0 120 255
197.824838 -232.628639 -192.559231 0 120 255
197.941175 -232.625561 -190.087800 0 120 255
197.960052 -232.621492 -187.619111 0 120 255
197.705013 -232.614638 -185.158130 0 120 255
197.449973 -232.607784 -182.697150 0 120 255
197.194933 -232.600930 -180.236169 0 120 255
196.860482 -232.592835 -177.789412 0 120 255
196.245801 -232.580361 -175.392846 0 120 255
195.631120 -232.567887 -172.996279 0 120 255
195.016439 -232.555413 -170.599713 0 120 255
194.340945 -232.541546 -168.223547 0 120 255
193.386702 -232.521294 -165.940889 0 120 255
192.432460 -232.501042 -163.658231 0 120 255
191.478217 -232.480790 -161.375573 0 120 255
190.481051 -232.459186 -159.114560 0 120 255
189.214185 -232.429082 -156.989551 0 120 255
187.947319 -232.398979 -154.864543 0 120 255
186.680454 -232.368876 -152.739534 0 120 255
185.386828 -232.337680 -150.633115 0 120 255
183.839494 -232.296128 -148.702947 0 120 255
182.292161 -232.254577 -146.772778 0 120 255
180.744828 -232.213025 -144.842610 0 120 255
179.184413 -232.170816 -142.924475 0 120 255
177.392371 -232.116970 -141.219422 0 120 255
175.600330 -232.063124 -139.514370 0 120 255
173.808288 -232.009278 -137.809317 0 120 255
172.013883 -231.955294 -136.107103 0 120 255
170.014991 -231.889310 -134.650534 0 120 255
168.016098 -231.823327 -133.193966 0 120 255
166.017206 -231.757344 -131.737397 0 120 255
164.018313 -231.691360 -130.280828 0 120 255
161.856369 -231.614840 -129.081361 0 120 255
159.689264 -231.537987 -127.890031 0 120 255
157.522159 -231.461134 -126.698701 0 120 255
155.355054 -231.384281 -125.507371 0 120 255
153.067495 -231.299726 -124.571874 0 120 255
150.770473 -231.214567 -123.656475 0 120 255
148.473451 -231.129408 -122.741075 0 120 255
146.176429 -231.044249 -121.825676 0 120 255
143.797265 -230.955300 -121.159152 0 120 255
141.407424 -230.865859 -120.524978 0 120 255
139.017583 -230.776418 -119.890804 0 120 255
136.627741 -230.686977 -119.256630 0 120 255
134.189494 -230.596511 -118.859996 0 120 255
131.742215 -230.505854 -118.507685 0 120 255
129.294936 -230.415196 -118.155375 0 120 255
126.847656 -230.324539 -117.803064 0 120 255
124.381056 -230.234147 -117.673590 0 120 255
121.909641 -230.143821 -117.599636 0 120 255
119.438227 -230.053495 -117.525682 0 120 255
116.966812 -229.963169 -117.451728 0 120 255
114.500516 -229.873830 -117.583657 0 120 255
112.035852 -229.784806 -117.781191 0 120 255
109.571187 -229.695782 -117.978724 0 120 255
107.106522 -229.606758 -118.176257 0 120 255
104.666988 -229.519341 -118.561417 0 120 255
102.237415 -229.432561 -119.020938 0 120 255
99.807841 -229.345781 -119.480459 0 120 255
97.378268 -229.259001 -119.939980 0 120 255
94.989731 -229.174338 -120.568200 0 120 255
92.621044 -229.090698 -121.278018 0 120 255
90.252357 -229.007059 -121.987837 0 120 255
87.883669 -228.923420 -122.697655 0 120 255
85.568208 -228.842257 -123.557219 0 120 255
83.283762 -228.762538 -124.504040 0 120 255
80.999317 -228.682819 -125.450860 0 120 255
78.714871 -228.603099 -126.397681 0 120 255
76.492548 -228.526129 -127.475736 0 120 255
74.313451 -228.451071 -128.645102 0 120 255
72.134353 -228.376013 -129.814468 0 120 255
69.955255 -228.300955 -130.983834 0 120 255
67.844264 -228.228800 -132.266627 0 120 255
65.789541 -228.159044 -133.643132 0 120 255
63.734818 -228.089287 -135.019636 0 120 255
61.680094 -228.019531 -136.396140 0 120 255
59.696898 -227.952739 -137.869184 0 120 255
57.783668 -227.888847 -139.436662 0 120 255
55.870437 -227.824955 -141.004139 0 120 255
53.957207 -227.761063 -142.571616 0 120 255
52.116685 -227.700117 -144.219830 0 120 255
50.360331 -227.642581 -145.961503 0 120 255
48.603977 -227.585046 -147.703177 0 120 255
46.847623 -227.527510 -149.444850 0 120 255
45.163152 -227.472840 -151.252608 0 120 255
43.577353 -227.422105 -153.151077 0 120 255
41.991554 -227.371369 -155.049546 0 120 255
40.405754 -227.320634 -156.948015 0 120 255
38.889287 -227.272618 -158.899200 0 120 255
37.486180 -227.229048 -160.936579 0 120 255
36.083073 -227.185479 -162.973957 0 120 255
34.679967 -227.141909 -165.011335 0 120 255
33.342053 -227.100868 -167.089369 0 120 255
32.132067 -227.064790 -169.247181 0 120 255
30.922082 -227.028712 -171.404992 0 120 255
29.712097 -226.992634 -173.562804 0 120 255
28.561803 -226.958843 -175.750624 0 120 255
27.553695 -226.930502 -178.009923 0 120 255
26.545587 -226.902160 -180.269222 0 120 255
25.537479 -226.873819 -182.528521 0 120 255
24.582406 -226.847485 -184.808675 0 120 255
23.783240 -226.827055 -187.150134 0 120 255
22.984074 -226.806625 -189.491594 0 120 255
22.184908 -226.786195 -191.833054 0 120 255
21.431162 -226.767470 -194.187773 0 120 255
20.846242 -226.755082 -196.591776 0 120 255
20.261321 -226.742695 -198.995780 0 120 255
19.676401 -226.730308 -201.399783 0 120 255
19.128537 -226.719297 -203.811065 0 120 255
18.761327 -226.715002 -206.257829 0 120 255
18.394116 -226.710706 -208.704593 0 120 255
18.026906 -226.706411 -211.151358 0 120 255
17.687864 -226.703152 -213.601073 0 120 255
17.539961 -226.706933 -216.070816 0 120 255
17.392059 -226.710715 -218.540558 0 120 255
17.244157 -226.714496 -221.010301 0 120 255
17.115250 -226.718967 -223.480336 0 120 255
17.186431 -226.730710 -225.953454 0 120 255
17.257613 -226.742454 -228.426572 0 120 255
17.328794 -226.754197 -230.899690 0 120 255
17.409739 -226.766293 -233.372094 0 120 255
17.697915 -226.785870 -235.829347 0 120 255
17.986092 -226.805447 -238.286599 0 120 255
18.274268 -226.825024 -240.743851 0 120 255
18.563148 -226.844626 -243.200989 0 120 255
19.064382 -226.871842 -245.623703 0 120 255
19.565615 -226.899058 -248.046417 0 120 255
20.066849 -226.926274 -250.469130 0 120 255
20.568083 -226.953489 -252.891844 0 120 255
21.268838 -226.987777 -255.264098 0 120 255
21.977557 -227.022348 -257.634339 0 120 255
22.686275 -227.056918 -260.004580 0 120 255
23.394993 -227.091489 -262.374820 0 120 255
24.287840 -227.132524 -264.681192 0 120 255
25.196703 -227.174123 -266.982008 0 120 255
26.105566 -227.215721 -269.282825 0 120 255
27.014429 -227.257319 -271.583641 0 120 255
28.091247 -227.304750 -273.809633 0 120 255
29.191332 -227.352989 -276.025260 0 120 255
30.291417 -227.401227 -278.240887 0 120 255
31.391502 -227.449466 -280.456515 0 120 255
32.642882 -227.502912 -282.588856 0 120 255
33.923797 -227.557374 -284.704940 0 120 255
35.204711 -227.611836 -286.821024 0 120 255
36.485625 -227.666298 -288.937107 0 120 255
37.900965 -227.725318 -290.963959 0 120 255
39.350964 -227.785513 -292.967805 0 120 255
40.800963 -227.845709 -294.971650 0 120 255
42.250963 -227.905904 -296.975495 0 120 255
43.818646 -227.970035 -298.886626 0 120 255
45.424859 -228.035455 -300.767402 0 120 255
47.031072 -228.100874 -302.648178 0 120 255
48.637285 -228.166294 -304.528953 0 120 255
50.344936 -228.235085 -306.315841 0 120 255
52.093685 -228.305242 -308.064690 0 120 255
53.842434 -228.375399 -309.813539 0 120 255
55.591182 -228.445555 -311.562389 0 120 255
57.425917 -228.518535 -313.218299 0 120 255
59.303013 -228.592905 -314.828423 0 120 255
61.180108 -228.667275 -316.438546 0 120 255
63.057204 -228.741645 -318.048670 0 120 255
65.005838 -228.818455 -319.568739 0 120 255
66.996812 -228.896708 -321.035510 0 120 255
68.987786 -228.974961 -322.502282 0 120 255
70.978759 -229.053214 -323.969053 0 120 255
73.028082 -229.133492 -325.350278 0 120 255
75.118555 -229.215197 -326.671174 0 120 255
77.209028 -229.296903 -327.992069 0 120 255
79.299500 -229.378609 -329.312965 0 120 255
81.436362 -229.460992 -330.554534 0 120 255
83.612008 -229.543940 -331.729778 0 120 255
85.787655 -229.626888 -332.905023 0 120 255
87.963301 -229.709836 -334.080268 0 120 255
90.174312 -229.787882 -335.185119 0 120 255
92.420293 -229.861083 -336.220362 0 120 255
94.666274 -229.934283 -337.255605 0 120 255
96.912255 -230.007484 -338.290848 0 120 255
99.184398 -230.070774 -339.265348 0 120 255
101.487136 -230.122474 -340.168808 0 120 255
103.789875 -230.174174 -341.072268 0 120 255
106.092613 -230.225874 -341.975728 0 120 255
108.414126 -230.264647 -342.827918 0 120 255
110.761668 -230.285496 -343.609026 0 120 255
113.109210 -230.306346 -344.390135 0 120 255
115.456751 -230.327195 -345.171244 0 120 255
117.817242 -230.333838 -345.910166 0 120 255
120.199121 -230.317018 -346.579411 0 120 255
122.580999 -230.300197 -347.248656 0 120 255
124.962878 -230.283376 -347.917901 0 120 255
127.353253 -230.252438 -348.553409 0 120 255
129.760482 -230.193500 -349.122000 0 120 255
132.167710 -230.134561 -349.690591 0 120 255
134.574938 -230.075623 -350.259181 0 120 255
136.987388 -230.003744 -350.801702 0 120 255
139.412425 -229.900672 -351.281379 0 120 255
141.837462 -229.797601 -351.761056 0 120 255
144.262499 -229.694529 -352.240732 0 120 255
146.690479 -229.580484 -352.701087 0 120 255
149.127232 -229.433728 -353.103846 0 120 255
151.563985 -229.286973 -353.506606 0 120 255
154.000738 -229.140218 -353.909366 0 120 255
156.438962 -228.984920 -354.298577 0 120 255
158.882747 -228.797326 -354.636569 0 120 255
161.326533 -228.609733 -354.974562 0 120 255
163.770318 -228.422140 -355.312554 0 120 255
166.214709 -228.228846 -355.642085 0 120 255
168.662113 -228.007144 -355.929449 0 120 255
171.109517 -227.785441 -356.216813 0 120 255
173.556921 -227.563738 -356.504177 0 120 255
176.004294 -227.340817 -356.790840 0 120 255
178.451449 -227.109385 -357.072605 0 120 255
180.898603 -226.877953 -357.354370 0 120 255
183.345758 -226.646521 -357.636135 0 120 255
185.792912 -226.415088 -357.917901 0 120 255
188.240064 -226.183645 -358.199679 0 120 255
190.687216 -225.952202 -358.481456 0 120 255
193.134368 -225.720759 -358.763234 0 120 255
195.581520 -225.489316 -359.045011 0 120 255
198.028673 -225.257877 -359.326781 0 120 255
200.475827 -225.026438 -359.608551 0 120 255
202.922980 -224.794999 -359.890321 0 120 255
205.370133 -224.563560 -360.172091 0 120 255
