ply
format ascii 1.0
element vertex 385
property float x
property float y
property float z
property uchar red
property uchar green
property uchar blue
end_header
77.430455 -42.474882 -360.397637 0 120 255
77.187555 -42.528711 -357.935961 0 120 255
76.944655 -42.582540 -355.474285 0 120 255
76.701756 -42.636368 -353.012610 0 120 255
76.458856 -42.690197 -350.550934 0 120 255
76.213787 -42.754217 -348.089718 0 120 255
75.968623 -42.818680 -345.628523 0 120 255
75.723460 -42.883143 -343.167327 0 120 255
75.478297 -42.947606 -340.706131 0 120 255
75.067751 -43.392138 -338.310394 0 120 255
74.642152 -43.871266 -335.920614 0 120 255
74.216553 -44.350394 -333.530835 0 120 255
73.790953 -44.829522 -331.141055 0 120 255
73.233976 -45.579236 -328.853141 0 120 255
72.657591 -46.368923 -326.580275 0 120 255
72.081206 -47.158611 -324.307409 0 120 255
71.504820 -47.948298 -322.034544 0 120 255
70.832156 -48.927097 -319.866728 0 120 255
70.139237 -49.945681 -317.721013 0 120 255
69.446317 -50.964265 -315.575297 0 120 255
68.753398 -51.982849 -313.429582 0 120 255
67.999386 -53.132319 -311.374394 0 120 255
67.228283 -54.318408 -309.344532 0 120 255
66.457180 -55.504496 -307.314670 0 120 255
65.686077 -56.690584 -305.284808 0 120 255
64.886909 -57.970964 -303.325608 0 120 255
64.077720 -59.285009 -301.391637 0 120 255
63.268531 -60.599055 -299.457667 0 120 255
62.459343 -61.913101 -297.523696 0 120 255
61.651193 -63.301666 -295.643058 0 120 255
60.843505 -64.723299 -293.786087 0 120 255
60.035816 -66.144933 -291.929116 0 120 255
59.228128 -67.566566 -290.072144 0 120 255
58.445397 -69.054035 -288.257521 0 120 255
57.676194 -70.577184 -286.465850 0 120 255
56.906990 -72.100333 -284.674178 0 120 255
56.137786 -73.623482 -282.882506 0 120 255
55.411602 -75.209623 -281.129286 0 120 255
54.713561 -76.836975 -279.401221 0 120 255
54.015521 -78.464328 -277.673155 0 120 255
53.317481 -80.091680 -275.945090 0 120 255
52.674591 -81.780932 -274.257430 0 120 255
52.074933 -83.518709 -272.601444 0 120 255
51.475276 -85.256485 -270.945459 0 120 255
50.875618 -86.994261 -269.289473 0 120 255
50.337772 -88.791961 -267.679560 0 120 255
49.857758 -90.645727 -266.112753 0 120 255
49.377743 -92.499492 -264.545946 0 120 255
48.897728 -94.353258 -262.979139 0 120 255
48.481610 -96.262710 -261.465391 0 120 255
48.136757 -98.234271 -260.010823 0 120 255
47.791905 -100.205832 -258.556255 0 120 255
47.447052 -102.177393 -257.101687 0 120 255
47.164695 -104.197839 -255.706427 0 120 255
46.965558 -106.283380 -254.390141 0 120 255
46.766420 -108.368921 -253.073856 0 120 255
46.567283 -110.454462 -251.757570 0 120 255
46.426871 -112.579938 -250.504602 0 120 255
46.380217 -114.769173 -249.352726 0 120 255
46.333564 -116.958408 -248.200850 0 120 255
46.286911 -119.147643 -247.048974 0 120 255
46.293786 -121.366544 -245.961318 0 120 255
46.403898 -123.642660 -244.997515 0 120 255
46.514011 -125.918776 -244.033713 0 120 255
46.624123 -128.194893 -243.069910 0 120 255
46.781869 -130.490098 -242.167854 0 120 255
47.051858 -132.830284 -241.411296 0 120 255
47.321848 -135.170470 -240.654738 0 120 255
47.591837 -137.510656 -239.898181 0 120 255
47.903290 -139.860034 -239.197698 0 120 255
48.336141 -142.236326 -238.661395 0 120 255
48.768991 -144.612618 -238.125093 0 120 255
49.201842 -146.988910 -237.588790 0 120 255
49.669894 -149.366068 -237.100263 0 120 255
50.269211 -151.746454 -236.789896 0 120 255
50.868529 -154.126839 -236.479530 0 120 255
51.467847 -156.507225 -236.169163 0 120 255
52.095984 -158.882428 -235.896442 0 120 255
52.866289 -161.232067 -235.809429 0 120 255
53.636595 -163.581706 -235.722415 0 120 255
54.406900 -165.931345 -235.635401 0 120 255
55.199405 -168.272538 -235.575066 0 120 255
56.146033 -170.555089 -235.699959 0 120 255
57.092662 -172.837640 -235.824852 0 120 255
58.039291 -175.120192 -235.949745 0 120 255
59.001107 -177.394101 -236.090604 0 120 255
60.129611 -179.573164 -236.406683 0 120 255
61.258115 -181.752228 -236.722763 0 120 255
62.386619 -183.931291 -237.038842 0 120 255
63.522853 -186.104624 -237.361594 0 120 255
64.838036 -188.145289 -237.838799 0 120 255
66.153219 -190.185954 -238.316005 0 120 255
67.468402 -192.226619 -238.793211 0 120 255
68.783584 -194.267283 -239.270417 0 120 255
70.288114 -196.137851 -239.869649 0 120 255
71.792722 -198.008349 -240.468931 0 120 255
73.297330 -199.878846 -241.068213 0 120 255
74.801938 -201.749343 -241.667495 0 120 255
76.487256 -203.431021 -242.338457 0 120 255
78.180492 -205.104425 -243.012560 0 120 255
79.873728 -206.777830 -243.686663 0 120 255
81.566964 -208.451234 -244.360765 0 120 255
83.427680 -209.925300 -245.053889 0 120 255
85.303611 -211.381255 -245.748741 0 120 255
87.179543 -212.837211 -246.443593 0 120 255
89.055474 -214.293167 -247.138444 0 120 255
91.080446 -215.547995 -247.799942 0 120 255
93.126587 -216.774257 -248.456703 0 120 255
95.172728 -218.000519 -249.113464 0 120 255
97.218868 -219.226781 -249.770224 0 120 255
99.390248 -220.258929 -250.344340 0 120 255
101.586422 -221.252648 -250.902095 0 120 255
103.782595 -222.246366 -251.459849 0 120 255
105.978768 -223.240085 -252.017604 0 120 255
108.271497 -224.054937 -252.449243 0 120 255
110.589273 -224.823390 -252.848167 0 120 255
112.907048 -225.591843 -253.247092 0 120 255
115.224824 -226.360297 -253.646016 0 120 255
117.606606 -226.972271 -253.883678 0 120 255
120.009334 -227.533035 -254.068563 0 120 255
122.412063 -228.093799 -254.253449 0 120 255
124.814792 -228.654562 -254.438334 0 120 255
127.246684 -229.086623 -254.437066 0 120 255
129.690320 -229.466858 -254.360837 0 120 255
132.133956 -229.847093 -254.284608 0 120 255
134.577591 -230.227329 -254.208379 0 120 255
137.015149 -230.509929 -253.932491 0 120 255
139.449747 -230.744972 -253.559349 0 120 255
141.884344 -230.980015 -253.186207 0 120 255
144.318941 -231.215058 -252.813064 0 120 255
146.713848 -231.385286 -252.238443 0 120 255
149.085643 -231.517773 -251.546503 0 120 255
151.457438 -231.650261 -250.854563 0 120 255
153.829233 -231.782748 -250.162624 0 120 255
156.131399 -231.881860 -249.278184 0 120 255
158.385466 -231.957914 -248.260764 0 120 255
160.639533 -232.033969 -247.243344 0 120 255
162.893600 -232.110024 -246.225925 0 120 255
165.053228 -232.167786 -245.033502 0 120 255
167.135797 -232.210623 -243.698280 0 120 255
169.218365 -232.253459 -242.363057 0 120 255
171.300933 -232.296295 -241.027835 0 120 255
173.269146 -232.326857 -239.540559 0 120 255
175.127368 -232.345613 -237.907034 0 120 255
176.985590 -232.364369 -236.273509 0 120 255
178.843812 -232.383125 -234.639984 0 120 255
180.573865 -232.394234 -232.881525 0 120 255
182.158706 -232.396678 -230.981521 0 120 255
183.743548 -232.399123 -229.081517 0 120 255
185.328390 -232.401567 -227.181513 0 120 255
186.778378 -232.400337 -225.185842 0 120 255
188.048038 -232.394194 -223.062243 0 120 255
189.317698 -232.388051 -220.938645 0 120 255
190.587358 -232.381908 -218.815047 0 120 255
191.722542 -232.374540 -216.624766 0 120 255
192.644550 -232.365230 -214.328778 0 120 255
193.566558 -232.355919 -212.032790 0 120 255
194.488566 -232.346609 -209.736803 0 120 255
195.282900 -232.337291 -207.400822 0 120 255
195.835545 -232.327959 -204.989134 0 120 255
196.388190 -232.318627 -202.577445 0 120 255
196.940835 -232.309295 -200.165757 0 120 255
197.377902 -232.300302 -197.736882 0 120 255
197.550845 -232.292082 -195.268731 0 120 255
197.723788 -232.283862 -192.800580 0 120 255
197.896731 -232.275642 -190.332430 0 120 255
197.970029 -232.267582 -187.864944 0 120 255
197.764105 -232.259970 -185.399325 0 120 255
197.558180 -232.252358 -182.933705 0 120 255
197.352255 -232.244746 -180.468085 0 120 255
197.064875 -232.236881 -178.015498 0 120 255
196.491243 -232.228127 -175.608713 0 120 255
195.917611 -232.219373 -173.201928 0 120 255
195.343979 -232.210619 -170.795143 0 120 255
194.707814 -232.201214 -168.408236 0 120 255
193.786626 -232.188846 -166.111933 0 120 255
192.865439 -232.176477 -163.815631 0 120 255
191.944251 -232.164109 -161.519328 0 120 255
190.978829 -232.150859 -159.244593 0 120 255
189.737588 -232.132110 -157.104332 0 120 255
188.496347 -232.113362 -154.964072 0 120 255
187.255106 -232.094614 -152.823812 0 120 255
185.986202 -232.075001 -150.702312 0 120 255
184.457995 -232.047289 -148.756659 0 120 255
182.929789 -232.019577 -146.811007 0 120 255
181.401583 -231.991865 -144.865355 0 120 255
179.859745 -231.963551 -142.932011 0 120 255
178.081441 -231.924804 -141.212162 0 120 255
176.303138 -231.886057 -139.492313 0 120 255
174.524835 -231.847310 -137.772464 0 120 255
172.743889 -231.808409 -136.055740 0 120 255
170.754521 -231.757375 -134.585517 0 120 255
168.765153 -231.706341 -133.115294 0 120 255
166.775785 -231.655306 -131.645071 0 120 255
164.786417 -231.604272 -130.174848 0 120 255
162.630774 -231.541111 -128.963206 0 120 255
160.470068 -231.477581 -127.759437 0 120 255
158.309362 -231.414051 -126.555669 0 120 255
156.148657 -231.350521 -125.351900 0 120 255
153.865320 -231.276262 -124.405153 0 120 255
151.572513 -231.201173 -123.478252 0 120 255
149.279706 -231.126085 -122.551352 0 120 255
146.986900 -231.050997 -121.624452 0 120 255
144.610537 -230.967586 -120.947120 0 120 255
142.223437 -230.883106 -120.301862 0 120 255
139.836336 -230.798626 -119.656603 0 120 255
137.449235 -230.714146 -119.011345 0 120 255
135.012709 -230.624903 -118.603639 0 120 255
132.567039 -230.534778 -118.239884 0 120 255
130.121368 -230.444654 -117.876129 0 120 255
127.675697 -230.354529 -117.512375 0 120 255
125.209682 -230.264084 -117.370981 0 120 255
122.738631 -230.173559 -117.284622 0 120 255
120.267580 -230.083034 -117.198263 0 120 255
117.796529 -229.992509 -117.111905 0 120 255
115.329528 -229.902971 -117.231182 0 120 255
112.863810 -229.813745 -117.415620 0 120 255
110.398092 -229.724520 -117.600058 0 120 255
107.932374 -229.635294 -117.784496 0 120 255
105.490754 -229.547715 -118.156585 0 120 255
103.058637 -229.460785 -118.602673 0 120 255
100.626520 -229.373855 -119.048762 0 120 255
98.194403 -229.286925 -119.494850 0 120 255
95.802404 -229.202092 -120.109958 0 120 255
93.429720 -229.118269 -120.806443 0 120 255
91.057037 -229.034446 -121.502928 0 120 255
88.684353 -228.950622 -122.199413 0 120 255
86.364146 -228.869257 -123.046205 0 120 255
84.074383 -228.789319 -123.980197 0 120 255
81.784620 -228.709380 -124.914188 0 120 255
79.494858 -228.629442 -125.848180 0 120 255
77.266647 -228.552225 -126.914093 0 120 255
75.081082 -228.476894 -128.071408 0 120 255
72.895518 -228.401564 -129.228723 0 120 255
70.709953 -228.326233 -130.386038 0 120 255
68.592098 -228.253787 -131.657527 0 120 255
66.529953 -228.183715 -133.022954 0 120 255
64.467808 -228.113643 -134.388381 0 120 255
62.405662 -228.043571 -135.753808 0 120 255
60.414807 -227.976458 -137.216529 0 120 255
58.493398 -227.912228 -138.774029 0 120 255
56.571989 -227.847997 -140.331530 0 120 255
54.650580 -227.783767 -141.889030 0 120 255
52.801755 -227.722482 -143.527965 0 120 255
51.036604 -227.664592 -145.260776 0 120 255
49.271452 -227.606703 -146.993586 0 120 255
47.506301 -227.548813 -148.726397 0 120 255
45.813018 -227.493792 -150.525940 0 120 255
44.217963 -227.442691 -152.416689 0 120 255
42.622908 -227.391590 -154.307439 0 120 255
41.027854 -227.340489 -156.198189 0 120 255
39.502181 -227.292113 -158.142220 0 120 255
38.089441 -227.248175 -160.172979 0 120 255
36.676702 -227.204237 -162.203738 0 120 255
35.263962 -227.160300 -164.234496 0 120 255
33.916559 -227.118895 -166.306422 0 120 255
32.696751 -227.082439 -168.458743 0 120 255
31.476943 -227.045982 -170.611064 0 120 255
30.257135 -227.009526 -172.763384 0 120 255
29.097260 -226.975366 -174.946168 0 120 255
28.079395 -226.946650 -177.201134 0 120 255
27.061530 -226.917933 -179.456100 0 120 255
26.043665 -226.889216 -181.711065 0 120 255
25.079164 -226.862524 -183.987272 0 120 255
24.270612 -226.841747 -186.325553 0 120 255
23.462060 -226.820970 -188.663834 0 120 255
22.653508 -226.800194 -191.002114 0 120 255
21.890782 -226.781137 -193.353962 0 120 255
21.297221 -226.768427 -195.755892 0 120 255
20.703660 -226.755717 -198.157822 0 120 255
20.110098 -226.743007 -200.559753 0 120 255
19.554051 -226.731691 -202.969181 0 120 255
19.179356 -226.727119 -205.414856 0 120 255
18.804661 -226.722547 -207.860531 0 120 255
18.429965 -226.717974 -210.306206 0 120 255
18.083904 -226.714454 -212.754961 0 120 255
17.930017 -226.717994 -215.224384 0 120 255
17.776129 -226.721533 -217.693807 0 120 255
17.622241 -226.725073 -220.163231 0 120 255
17.487777 -226.729319 -222.632993 0 120 255
17.554672 -226.740884 -225.106278 0 120 255
17.621568 -226.752450 -227.579562 0 120 255
17.688464 -226.764016 -230.052847 0 120 255
17.765486 -226.775948 -232.525405 0 120 255
18.051139 -226.795431 -234.982999 0 120 255
18.336792 -226.814913 -237.440593 0 120 255
18.622446 -226.834396 -239.898186 0 120 255
18.909092 -226.853914 -242.355620 0 120 255
19.409447 -226.881087 -244.778562 0 120 255
19.909803 -226.908261 -247.201505 0 120 255
20.410158 -226.935435 -249.624448 0 120 255
20.910513 -226.962608 -252.047390 0 120 255
21.611748 -226.996902 -254.419559 0 120 255
22.320712 -227.031471 -256.789774 0 120 255
23.029675 -227.066039 -259.159990 0 120 255
23.738639 -227.100607 -261.530205 0 120 255
24.632466 -227.141676 -263.836253 0 120 255
25.542089 -227.183301 -266.136817 0 120 255
26.451712 -227.224926 -268.437382 0 120 255
27.361335 -227.266551 -270.737947 0 120 255
28.439013 -227.314012 -272.963584 0 120 255
29.539695 -227.362272 -275.178966 0 120 255
30.640378 -227.410531 -277.394347 0 120 255
31.741060 -227.458791 -279.609728 0 120 255
32.992550 -227.512231 -281.742079 0 120 255
34.273219 -227.566674 -283.858366 0 120 255
35.553888 -227.621117 -285.974652 0 120 255
36.834557 -227.675560 -288.090939 0 120 255
38.248768 -227.734537 -290.118670 0 120 255
39.697168 -227.794675 -292.123730 0 120 255
41.145568 -227.854813 -294.128790 0 120 255
42.593968 -227.914950 -296.133850 0 120 255
44.158978 -227.978992 -298.047282 0 120 255
45.761947 -228.044304 -299.930888 0 120 255
47.364916 -228.109616 -301.814493 0 120 255
48.967885 -228.174928 -303.698098 0 120 255
50.671186 -228.243576 -305.489268 0 120 255
52.414943 -228.313569 -307.243166 0 120 255
54.158700 -228.383563 -308.997063 0 120 255
55.902457 -228.453557 -310.750961 0 120 255
57.731212 -228.526358 -312.413631 0 120 255
59.601669 -228.600538 -314.031541 0 120 255
61.472126 -228.674717 -315.649451 0 120 255
63.342583 -228.748896 -317.267361 0 120 255
65.283866 -228.825509 -318.796979 0 120 255
67.266923 -228.903558 -320.274525 0 120 255
69.249979 -228.981607 -321.752070 0 120 255
71.233036 -229.059656 -323.229615 0 120 255
73.274009 -229.139720 -324.623337 0 120 255
75.355703 -229.221202 -325.958124 0 120 255
77.437397 -229.302684 -327.292910 0 120 255
79.519091 -229.384166 -328.627697 0 120 255
81.647012 -229.466197 -329.884736 0 120 255
83.813482 -229.548685 -331.076939 0 120 255
85.979952 -229.631174 -332.269142 0 120 255
88.146422 -229.713662 -333.461345 0 120 255
90.348296 -229.790884 -334.584542 0 120 255
92.585101 -229.862909 -335.639653 0 120 255
94.821906 -229.934934 -336.694764 0 120 255
97.058711 -230.006960 -337.749875 0 120 255
99.321933 -230.068960 -338.745173 0 120 255
101.615993 -230.119257 -339.670648 0 120 255
103.910053 -230.169554 -340.596124 0 120 255
106.204113 -230.219851 -341.521599 0 120 255
108.517343 -230.257366 -342.396237 0 120 255
110.857111 -230.277186 -343.200498 0 120 255
113.196880 -230.297006 -344.004758 0 120 255
115.536648 -230.316826 -344.809018 0 120 255
117.889834 -230.322666 -345.571031 0 120 255
120.265155 -230.305443 -346.263346 0 120 255
122.640475 -230.288220 -346.955661 0 120 255
125.015796 -230.270998 -347.647976 0 120 255
127.400086 -230.239882 -348.306061 0 120 255
129.802151 -230.181230 -348.896303 0 120 255
132.204217 -230.122579 -349.486546 0 120 255
134.606282 -230.063928 -350.076789 0 120 255
137.013999 -229.992499 -350.640103 0 120 255
139.435335 -229.890281 -351.138529 0 120 255
141.856671 -229.788063 -351.636955 0 120 255
144.278007 -229.685845 -352.135381 0 120 255
146.702640 -229.572720 -352.613366 0 120 255
149.137101 -229.427080 -353.030417 0 120 255
151.571563 -229.281441 -353.447469 0 120 255
154.006024 -229.135802 -353.864520 0 120 255
156.442221 -228.981578 -354.266743 0 120 255
158.884982 -228.794876 -354.612873 0 120 255
161.327743 -228.608175 -354.959003 0 120 255
163.770504 -228.421473 -355.305133 0 120 255
166.214045 -228.228928 -355.641476 0 120 255
168.661478 -228.007217 -355.928981 0 120 255
171.108912 -227.785506 -356.216485 0 120 255
173.556345 -227.563795 -356.503990 0 120 255
176.003749 -227.340868 -356.790777 0 120 255
178.450949 -227.109432 -357.072548 0 120 255
180.898149 -226.877996 -357.354318 0 120 255
183.345349 -226.646560 -357.636088 0 120 255
185.792549 -226.415123 -357.917859 0 120 255
188.239746 -226.183675 -358.199642 0 120 255
190.686944 -225.952228 -358.481425 0 120 255
193.134141 -225.720781 -358.763208 0 120 255
195.581338 -225.489333 -359.044990 0 120 255
198.028537 -225.257890 -359.326765 0 120 255
200.475736 -225.026447 -359.608540 0 120 255
202.922935 -224.795004 -359.890316 0 120 255
205.370133 -224.563560 -360.172091 0 120 255
