ply
format ascii 1.0
element vertex 385
property float x
property float y
property float z
property uchar red
property uchar green
property uchar blue
end_header
77.430455 -42.474882 -360.397637 0 120 255
77.187533 -42.528716 -357.935732 0 120 255
76.944610 -42.582550 -355.473827 0 120 255
76.701688 -42.636383 -353.011923 0 120 255
76.458765 -42.690217 -350.550018 0 120 255
76.215360 -42.757749 -348.088501 0 120 255
75.971934 -42.825871 -345.627000 0 120 255
75.728507 -42.893993 -343.165499 0 120 255
75.485081 -42.962115 -340.703998 0 120 255
75.283340 -43.130202 -338.243742 0 120 255
75.085396 -43.307395 -335.783599 0 120 255
74.887453 -43.484589 -333.323455 0 120 255
74.689509 -43.661782 -330.863312 0 120 255
74.519918 -43.902018 -328.406544 0 120 255
74.354475 -44.151479 -325.950270 0 120 255
74.189031 -44.400939 -323.493996 0 120 255
74.023588 -44.650399 -321.037723 0 120 255
73.872912 -44.944563 -318.585543 0 120 255
73.725298 -45.247994 -316.134212 0 120 255
73.577683 -45.551425 -313.682881 0 120 255
73.430068 -45.854856 -311.231550 0 120 255
73.284423 -46.189213 -308.784183 0 120 255
73.139319 -46.532071 -306.337905 0 120 255
72.994216 -46.874929 -303.891626 0 120 255
72.849112 -47.217788 -301.445348 0 120 255
72.694452 -47.581692 -299.002738 0 120 255
72.536442 -47.952971 -296.561413 0 120 255
72.378433 -48.324250 -294.120088 0 120 255
72.220424 -48.695529 -291.678763 0 120 255
72.042947 -49.081185 -289.241060 0 120 255
71.856995 -49.473099 -286.804934 0 120 255
71.671044 -49.865013 -284.368808 0 120 255
71.485093 -50.256927 -281.932682 0 120 255
71.271588 -50.659072 -279.500582 0 120 255
71.043439 -51.066653 -277.070622 0 120 255
70.815291 -51.474235 -274.640661 0 120 255
70.587143 -51.881817 -272.210700 0 120 255
70.325273 -52.297385 -269.785659 0 120 255
70.041778 -52.718075 -267.363772 0 120 255
69.758283 -53.138764 -264.941886 0 120 255
69.474787 -53.559454 -262.519999 0 120 255
69.153298 -53.987230 -260.104351 0 120 255
68.802631 -54.420447 -257.693492 0 120 255
68.451963 -54.853665 -255.282634 0 120 255
68.101295 -55.286882 -252.871775 0 120 255
67.710193 -55.727154 -250.468760 0 120 255
67.282063 -56.173886 -248.072926 0 120 255
66.853932 -56.620618 -245.677093 0 120 255
66.425801 -57.067350 -243.281259 0 120 255
65.956458 -57.521591 -240.894996 0 120 255
65.442170 -57.984022 -238.519170 0 120 255
64.927881 -58.446453 -236.143344 0 120 255
64.413593 -58.908884 -233.767518 0 120 255
63.858793 -59.379457 -231.402934 0 120 255
63.251315 -59.860618 -229.052969 0 120 255
62.643837 -60.341779 -226.703003 0 120 255
62.036359 -60.822940 -224.353038 0 120 255
61.390321 -61.312827 -222.015765 0 120 255
60.684255 -61.816297 -219.698251 0 120 255
59.978188 -62.319768 -217.380737 0 120 255
59.272122 -62.823239 -215.063223 0 120 255
58.530471 -63.335809 -212.759482 0 120 255
57.722012 -63.865461 -210.481600 0 120 255
56.913553 -64.395113 -208.203718 0 120 255
56.105093 -64.924765 -205.925837 0 120 255
55.264806 -65.463575 -203.662322 0 120 255
54.351627 -66.023358 -201.431710 0 120 255
53.438447 -66.583142 -199.201098 0 120 255
52.525268 -67.142925 -196.970486 0 120 255
51.584579 -67.711557 -194.754253 0 120 255
50.565745 -68.305324 -192.578868 0 120 255
49.546911 -68.899091 -190.403483 0 120 255
48.528078 -69.492858 -188.228097 0 120 255
47.486403 -70.094778 -186.066458 0 120 255
46.362230 -70.726144 -183.954470 0 120 255
45.238058 -71.357510 -181.842481 0 120 255
44.113885 -71.988875 -179.730492 0 120 255
42.971706 -72.627325 -177.630928 0 120 255
41.743641 -73.299562 -175.590624 0 120 255
40.515576 -73.971799 -173.550321 0 120 255
39.287512 -74.644037 -171.510018 0 120 255
38.046274 -75.321950 -169.480106 0 120 255
36.716755 -76.037906 -167.519832 0 120 255
35.387237 -76.753862 -165.559559 0 120 255
34.057718 -77.469817 -163.599286 0 120 255
32.719721 -78.189756 -161.646649 0 120 255
31.292082 -78.951799 -159.774745 0 120 255
29.864444 -79.713842 -157.902842 0 120 255
28.436806 -80.475885 -156.030939 0 120 255
27.005121 -81.239992 -154.163197 0 120 255
25.483473 -82.049976 -152.387979 0 120 255
23.961826 -82.859960 -150.612761 0 120 255
22.440179 -83.669944 -148.837543 0 120 255
20.918531 -84.479928 -147.062325 0 120 255
19.307712 -85.339139 -145.392027 0 120 255
17.696870 -86.198363 -143.721756 0 120 255
16.086027 -87.057587 -142.051486 0 120 255
14.475184 -87.916811 -140.381215 0 120 255
12.784250 -88.823839 -138.819167 0 120 255
11.089674 -89.733041 -137.262039 0 120 255
9.395098 -90.642243 -135.704911 0 120 255
7.700522 -91.551445 -134.147783 0 120 255
5.935001 -92.506432 -132.701415 0 120 255
4.162751 -93.465761 -131.265552 0 120 255
2.390502 -94.425091 -129.829689 0 120 255
0.618252 -95.384420 -128.393826 0 120 255
-1.215822 -96.386992 -127.070509 0 120 255
-3.059108 -97.396006 -125.763960 0 120 255
-4.902394 -98.405020 -124.457411 0 120 255
-6.745680 -99.414034 -123.150861 0 120 255
-8.641764 -100.463294 -121.957883 0 120 255
-10.548860 -101.520948 -120.788596 0 120 255
-12.455956 -102.578602 -119.619308 0 120 255
-14.363053 -103.636256 -118.450020 0 120 255
-16.314077 -104.730768 -117.394570 0 120 255
-18.277159 -105.835398 -116.370372 0 120 255
-20.240242 -106.940028 -115.346173 0 120 255
-22.203325 -108.044657 -114.321975 0 120 255
-24.201673 -109.182429 -113.411106 0 120 255
-26.212288 -110.331728 -112.539658 0 120 255
-28.222903 -111.481027 -111.668209 0 120 255
-30.233518 -112.630326 -110.796761 0 120 255
-32.270986 -113.808813 -110.037347 0 120 255
-34.319993 -114.999844 -109.326084 0 120 255
-36.369001 -116.190875 -108.614821 0 120 255
-38.418009 -117.381907 -107.903557 0 120 255
-40.485767 -118.597979 -107.302218 0 120 255
-42.563313 -119.827123 -106.758257 0 120 255
-44.640858 -121.056267 -106.214297 0 120 255
-46.718404 -122.285410 -105.670337 0 120 255
-48.806959 -123.535353 -105.233359 0 120 255
-50.902410 -124.798325 -104.863402 0 120 255
-52.997862 -126.061297 -104.493446 0 120 255
-55.093313 -127.324269 -104.123490 0 120 255
-57.192468 -128.603764 -103.856709 0 120 255
-59.294386 -129.895581 -103.666883 0 120 255
-61.396303 -131.187399 -103.477057 0 120 255
-63.498221 -132.479216 -103.287232 0 120 255
-65.597051 -133.783341 -103.195913 0 120 255
-67.693154 -135.098338 -103.191627 0 120 255
-69.789257 -136.413336 -103.187342 0 120 255
-71.885359 -137.728333 -103.183056 0 120 255
-73.972194 -139.051572 -103.271729 0 120 255
-76.049352 -140.383415 -103.457449 0 120 255
-78.126510 -141.715258 -103.643169 0 120 255
-80.203669 -143.047100 -103.828889 0 120 255
-82.266102 -144.383352 -104.101186 0 120 255
-84.310374 -145.725043 -104.480267 0 120 255
-86.354646 -147.066733 -104.859347 0 120 255
-88.398918 -148.408423 -105.238428 0 120 255
-90.423848 -149.751032 -105.696896 0 120 255
-92.420531 -151.094982 -106.271300 0 120 255
-94.417214 -152.438932 -106.845704 0 120 255
-96.413897 -153.782881 -107.420108 0 120 255
-98.387584 -155.124690 -108.066008 0 120 255
-100.321321 -156.462777 -108.836117 0 120 255
-102.255057 -157.800864 -109.606227 0 120 255
-104.188794 -159.138951 -110.376336 0 120 255
-106.096970 -160.472363 -111.209454 0 120 255
-107.951909 -161.796037 -112.173805 0 120 255
-109.806848 -163.119710 -113.138156 0 120 255
-111.661787 -164.443384 -114.102507 0 120 255
-113.489800 -165.760457 -115.120957 0 120 255
-115.249794 -167.060856 -116.276060 0 120 255
-117.009788 -168.361256 -117.431163 0 120 255
-118.769783 -169.661656 -118.586266 0 120 255
-120.502772 -170.954217 -119.786332 0 120 255
-122.151626 -172.222358 -121.126475 0 120 255
-123.800479 -173.490498 -122.466619 0 120 255
-125.449333 -174.758638 -123.806762 0 120 255
-127.072452 -176.018433 -125.182751 0 120 255
-128.594227 -177.245363 -126.699896 0 120 255
-130.116001 -178.472293 -128.217041 0 120 255
-131.637776 -179.699222 -129.734186 0 120 255
-133.136451 -180.918063 -131.278342 0 120 255
-134.515787 -182.095110 -132.962051 0 120 255
-135.895124 -183.272158 -134.645759 0 120 255
-137.274460 -184.449205 -136.329467 0 120 255
-138.634671 -185.619171 -138.031925 0 120 255
-139.857141 -186.738136 -139.869415 0 120 255
-141.079611 -187.857100 -141.706905 0 120 255
-142.302082 -188.976065 -143.544394 0 120 255
-143.510652 -190.089670 -145.393228 0 120 255
-144.563127 -191.143088 -147.369459 0 120 255
-145.615602 -192.196506 -149.345691 0 120 255
-146.668077 -193.249925 -151.321922 0 120 255
-147.712991 -194.300341 -153.303223 0 120 255
-148.583974 -195.281702 -155.401127 0 120 255
-149.454958 -196.263063 -157.499031 0 120 255
-150.325942 -197.244424 -159.596935 0 120 255
-151.196620 -198.225661 -161.695003 0 120 255
-151.876561 -199.129631 -163.895776 0 120 255
-152.556503 -200.033601 -166.096549 0 120 255
-153.236444 -200.937570 -168.297322 0 120 255
-153.916385 -201.841540 -170.498096 0 120 255
-154.405546 -202.667258 -172.778412 0 120 255
-154.887078 -203.489846 -175.061909 0 120 255
-155.368609 -204.312434 -177.345406 0 120 255
-155.850140 -205.135022 -179.628904 0 120 255
-156.144263 -205.880361 -181.969217 0 120 255
-156.422411 -206.619115 -184.314374 0 120 255
-156.700559 -207.357870 -186.659530 0 120 255
-156.978708 -208.096624 -189.004687 0 120 255
-157.075407 -208.760710 -191.385269 0 120 255
-157.147674 -209.414741 -193.770621 0 120 255
-157.219941 -210.068772 -196.155973 0 120 255
-157.292208 -210.722803 -198.541325 0 120 255
-157.191291 -211.306230 -200.942503 0 120 255
-157.057664 -211.876321 -203.346671 0 120 255
-156.924038 -212.446413 -205.750839 0 120 255
-156.790412 -213.016504 -208.155007 0 120 255
-156.493805 -213.521288 -210.557596 0 120 255
-156.156672 -214.009832 -212.959793 0 120 255
-155.819539 -214.498376 -215.361990 0 120 255
-155.482406 -214.986920 -217.764187 0 120 255
-154.994062 -215.416470 -220.149875 0 120 255
-154.458094 -215.827440 -222.530363 0 120 255
-153.922126 -216.238410 -224.910852 0 120 255
-153.386158 -216.649379 -227.291340 0 120 255
-152.711821 -217.008386 -229.643031 0 120 255
-151.983668 -217.347182 -231.983521 0 120 255
-151.255515 -217.685978 -234.324011 0 120 255
-150.527363 -218.024774 -236.664501 0 120 255
-149.674359 -218.319085 -238.966601 0 120 255
-148.762430 -218.592400 -241.250582 0 120 255
-147.850501 -218.865715 -243.534562 0 120 255
-146.938571 -219.139030 -245.818543 0 120 255
-145.915554 -219.375512 -248.057177 0 120 255
-144.829677 -219.591151 -250.270151 0 120 255
-143.743799 -219.806791 -252.483124 0 120 255
-142.657921 -220.022430 -254.696098 0 120 255
-141.474594 -220.208782 -256.859257 0 120 255
-140.225689 -220.375425 -258.988893 0 120 255
-138.976784 -220.542068 -261.118529 0 120 255
-137.727879 -220.708711 -263.248165 0 120 255
-136.394722 -220.853297 -265.325778 0 120 255
-134.994491 -220.980323 -267.361977 0 120 255
-133.594261 -221.107349 -269.398175 0 120 255
-132.194031 -221.234376 -271.434373 0 120 255
-130.722045 -221.346053 -273.418320 0 120 255
-129.182659 -221.443314 -275.353189 0 120 255
-127.643273 -221.540574 -277.288057 0 120 255
-126.103887 -221.637834 -279.222925 0 120 255
-124.504640 -221.726473 -281.107215 0 120 255
-122.839077 -221.805560 -282.935473 0 120 255
-121.173515 -221.884647 -284.763732 0 120 255
-119.507952 -221.963734 -286.591991 0 120 255
-117.793074 -222.040144 -288.372455 0 120 255
-116.013639 -222.113049 -290.090355 0 120 255
-114.234204 -222.185954 -291.808255 0 120 255
-112.454769 -222.258859 -293.526155 0 120 255
-110.635003 -222.332074 -295.199588 0 120 255
-108.752585 -222.405768 -296.803943 0 120 255
-106.870167 -222.479462 -298.408298 0 120 255
-104.987749 -222.553156 -300.012653 0 120 255
-103.072917 -222.627823 -301.576535 0 120 255
-101.097852 -222.704297 -303.065210 0 120 255
-99.122787 -222.780772 -304.553885 0 120 255
-97.147721 -222.857246 -306.042559 0 120 255
-95.147329 -222.934724 -307.495486 0 120 255
-93.090029 -223.014454 -308.868090 0 120 255
-91.032728 -223.094183 -310.240695 0 120 255
-88.975428 -223.173913 -311.613299 0 120 255
-86.899048 -223.254328 -312.955500 0 120 255
-84.770011 -223.336631 -314.213797 0 120 255
-82.640973 -223.418934 -315.472094 0 120 255
-80.511936 -223.501237 -316.730390 0 120 255
-78.369004 -223.583986 -317.963696 0 120 255
-76.177903 -223.668276 -319.110368 0 120 255
-73.986803 -223.752566 -320.257040 0 120 255
-71.795702 -223.836857 -321.403712 0 120 255
-69.594924 -223.921435 -322.530718 0 120 255
-67.350570 -224.007308 -323.569171 0 120 255
-65.106216 -224.093181 -324.607624 0 120 255
-62.861863 -224.179055 -325.646077 0 120 255
-60.611192 -224.265105 -326.669998 0 120 255
-58.321569 -224.352249 -327.604296 0 120 255
-56.031945 -224.439392 -328.538595 0 120 255
-53.742322 -224.526536 -329.472893 0 120 255
-51.448992 -224.613776 -330.397509 0 120 255
-49.121272 -224.701908 -331.232277 0 120 255
-46.793553 -224.790041 -332.067045 0 120 255
-44.465833 -224.878174 -332.901813 0 120 255
-42.136370 -224.966350 -333.731386 0 120 255
-39.776930 -225.055272 -334.471672 0 120 255
-37.417491 -225.144195 -335.211957 0 120 255
-35.058052 -225.233118 -335.952242 0 120 255
-32.698282 -225.322049 -336.691400 0 120 255
-30.312760 -225.411569 -337.342672 0 120 255
-27.927238 -225.501090 -337.993943 0 120 255
-25.541716 -225.590611 -338.645214 0 120 255
-23.156194 -225.680131 -339.296485 0 120 255
-20.750143 -225.770079 -339.867011 0 120 255
-18.343464 -225.860039 -340.435065 0 120 255
-15.936784 -225.949999 -341.003119 0 120 255
-13.530105 -226.039960 -341.571173 0 120 255
-11.107737 -226.130192 -342.067618 0 120 255
-8.684150 -226.220445 -342.558499 0 120 255
-6.260563 -226.310698 -343.049380 0 120 255
-3.836976 -226.400951 -343.540260 0 120 255
-1.401637 -226.491347 -343.968405 0 120 255
1.035222 -226.581762 -344.388436 0 120 255
3.472082 -226.672177 -344.808466 0 120 255
5.908941 -226.762591 -345.228496 0 120 255
8.354425 -226.853081 -345.594200 0 120 255
10.801516 -226.943585 -345.949785 0 120 255
13.248606 -227.034089 -346.305370 0 120 255
15.695697 -227.124593 -346.660955 0 120 255
18.148969 -227.215144 -346.970136 0 120 255
20.603782 -227.305706 -347.267751 0 120 255
23.058595 -227.396269 -347.565365 0 120 255
25.513408 -227.486832 -347.862980 0 120 255
27.972547 -227.577435 -348.121468 0 120 255
30.433067 -227.668051 -348.367458 0 120 255
32.893588 -227.758666 -348.613448 0 120 255
35.354108 -227.849282 -348.859438 0 120 255
37.817574 -227.939903 -349.072941 0 120 255
40.282213 -228.030526 -349.273512 0 120 255
42.746851 -228.121149 -349.474083 0 120 255
45.211489 -228.211772 -349.674655 0 120 255
47.678058 -228.302274 -349.849000 0 120 255
50.145566 -228.392717 -350.010579 0 120 255
52.613074 -228.483159 -350.172158 0 120 255
55.080582 -228.573602 -350.333737 0 120 255
57.549324 -228.663680 -350.474541 0 120 255
60.018792 -228.753545 -350.603138 0 120 255
62.488260 -228.843409 -350.731735 0 120 255
64.957727 -228.933273 -350.860332 0 120 255
67.427970 -229.022116 -350.973090 0 120 255
69.898757 -229.110243 -351.074718 0 120 255
72.369544 -229.198369 -351.176345 0 120 255
74.840332 -229.286496 -351.277973 0 120 255
77.311648 -229.370450 -351.369227 0 120 255
79.783405 -229.450920 -351.451816 0 120 255
82.255163 -229.531390 -351.534406 0 120 255
84.726921 -229.611861 -351.616995 0 120 255
87.199073 -229.684354 -351.694497 0 120 255
89.671614 -229.748949 -351.766964 0 120 255
92.144155 -229.813545 -351.839431 0 120 255
94.616696 -229.878140 -351.911898 0 120 255
97.089482 -229.932474 -351.983560 0 120 255
99.562556 -229.974773 -352.054277 0 120 255
102.035630 -230.017071 -352.124994 0 120 255
104.508703 -230.059369 -352.195711 0 120 255
106.981830 -230.090205 -352.269084 0 120 255
109.455031 -230.105078 -352.346157 0 120 255
111.928232 -230.119952 -352.423229 0 120 255
114.401432 -230.134825 -352.500302 0 120 255
116.874444 -230.137722 -352.582765 0 120 255
119.347143 -230.120721 -352.674186 0 120 255
121.819841 -230.103720 -352.765607 0 120 255
124.292539 -230.086718 -352.857028 0 120 255
126.764762 -230.057833 -352.955867 0 120 255
129.236036 -230.005204 -353.069528 0 120 255
131.707310 -229.952575 -353.183189 0 120 255
134.178584 -229.899946 -353.296850 0 120 255
136.649074 -229.836057 -353.419264 0 120 255
139.117658 -229.744794 -353.562962 0 120 255
141.586242 -229.653531 -353.706660 0 120 255
144.054825 -229.562268 -353.850358 0 120 255
146.522328 -229.460807 -354.003446 0 120 255
148.986578 -229.328649 -354.184800 0 120 255
151.450829 -229.196492 -354.366154 0 120 255
153.915079 -229.064334 -354.547508 0 120 255
156.378006 -228.923397 -354.738223 0 120 255
158.835877 -228.748895 -354.964725 0 120 255
161.293748 -228.574393 -355.191228 0 120 255
163.751619 -228.399892 -355.417730 0 120 255
166.207908 -228.218059 -355.653780 0 120 255
168.656213 -227.999217 -355.938026 0 120 255
171.104517 -227.780374 -356.222273 0 120 255
173.552822 -227.561532 -356.506520 0 120 255
176.001018 -227.341127 -356.790463 0 120 255
178.448445 -227.109669 -357.072259 0 120 255
180.895873 -226.878211 -357.354056 0 120 255
183.343300 -226.646753 -357.635852 0 120 255
185.790728 -226.415295 -357.917650 0 120 255
188.238153 -226.183826 -358.199459 0 120 255
190.685578 -225.952357 -358.481268 0 120 255
193.133003 -225.720888 -358.763077 0 120 255
195.580428 -225.489420 -359.044885 0 120 255
198.027854 -225.257955 -359.326687 0 120 255
200.475281 -225.026490 -359.608488 0 120 255
202.922707 -224.795025 -359.890289 0 120 255
205.370133 -224.563560 -360.172091 0 120 255
