ply
format ascii 1.0
element vertex 385
property float x
property float y
property float z
property uchar red
property uchar green
property uchar blue
end_header
77.430455 -42.474882 -360.397637 0 120 255
77.187550 -42.528712 -357.935903 0 120 255
76.944644 -42.582542 -355.474170 0 120 255
76.701738 -42.636372 -353.012436 0 120 255
76.458833 -42.690202 -350.550703 0 120 255
76.213245 -42.754939 -348.089499 0 120 255
75.967542 -42.820148 -345.628318 0 120 255
75.721838 -42.885358 -343.167138 0 120 255
75.476134 -42.950567 -340.705957 0 120 255
75.075844 -43.320736 -338.294748 0 120 255
74.661506 -43.718614 -335.888081 0 120 255
74.247168 -44.116493 -333.481413 0 120 255
73.832831 -44.514372 -331.074745 0 120 255
73.305374 -45.126987 -328.738265 0 120 255
72.761287 -45.771171 -326.412103 0 120 255
72.217200 -46.415356 -324.085941 0 120 255
71.673113 -47.059540 -321.759780 0 120 255
71.055987 -47.859426 -319.502748 0 120 255
70.423599 -48.691846 -317.260161 0 120 255
69.791211 -49.524267 -315.017575 0 120 255
69.158822 -50.356687 -312.774989 0 120 255
68.490720 -51.306851 -310.591485 0 120 255
67.812704 -52.289701 -308.424383 0 120 255
67.134687 -53.272552 -306.257281 0 120 255
66.456670 -54.255402 -304.090179 0 120 255
65.774958 -55.335146 -301.971858 0 120 255
65.091937 -56.449205 -299.870814 0 120 255
64.408917 -57.563265 -297.769770 0 120 255
63.725896 -58.677325 -295.668725 0 120 255
63.064404 -59.878982 -293.610549 0 120 255
62.412390 -61.119205 -291.571246 0 120 255
61.760377 -62.359428 -289.531942 0 120 255
61.108363 -63.599651 -287.492639 0 120 255
60.495840 -64.924281 -285.496004 0 120 255
59.904561 -66.294318 -283.522322 0 120 255
59.313281 -67.664354 -281.548640 0 120 255
58.722002 -69.034391 -279.574957 0 120 255
58.181260 -70.487411 -277.648621 0 120 255
57.673363 -71.994361 -275.753054 0 120 255
57.165465 -73.501310 -273.857486 0 120 255
56.657567 -75.008260 -271.961919 0 120 255
56.205346 -76.595669 -270.121309 0 120 255
55.796522 -78.245794 -268.323538 0 120 255
55.387699 -79.895920 -266.525766 0 120 255
54.978875 -81.546045 -264.727995 0 120 255
54.626320 -83.271538 -262.993508 0 120 255
54.326163 -85.067214 -261.317953 0 120 255
54.026005 -86.862890 -259.642397 0 120 255
53.725848 -88.658566 -257.966842 0 120 255
53.479471 -90.521653 -256.361706 0 120 255
53.292862 -92.459658 -254.834831 0 120 255
53.106254 -94.397663 -253.307957 0 120 255
52.919646 -96.335668 -251.781082 0 120 255
52.782597 -98.330714 -250.329189 0 120 255
52.711380 -100.401526 -248.976895 0 120 255
52.640162 -102.472337 -247.624601 0 120 255
52.568944 -104.543149 -246.272307 0 120 255
52.542394 -106.659120 -244.996261 0 120 255
52.587068 -108.847098 -243.841796 0 120 255
52.631741 -111.035076 -242.687331 0 120 255
52.676414 -113.223054 -241.532867 0 120 255
52.760894 -115.443828 -240.452420 0 120 255
52.922137 -117.727845 -239.514711 0 120 255
53.083380 -120.011863 -238.577003 0 120 255
53.244623 -122.295881 -237.639295 0 120 255
53.441196 -124.600846 -236.770120 0 120 255
53.721126 -126.955233 -236.062637 0 120 255
54.001055 -129.309620 -235.355153 0 120 255
54.280984 -131.664008 -234.647669 0 120 255
54.592177 -134.028852 -234.000497 0 120 255
54.995151 -136.424397 -233.530378 0 120 255
55.398125 -138.819941 -233.060259 0 120 255
55.801100 -141.215486 -232.590140 0 120 255
56.231477 -143.613015 -232.170087 0 120 255
56.764490 -146.017980 -231.937546 0 120 255
57.297503 -148.422944 -231.705004 0 120 255
57.830517 -150.827909 -231.472463 0 120 255
58.386934 -153.228872 -231.278545 0 120 255
59.059552 -155.609966 -231.276395 0 120 255
59.732170 -157.991061 -231.274245 0 120 255
60.404788 -160.372156 -231.272095 0 120 255
61.096288 -162.746038 -231.296840 0 120 255
61.920139 -165.069358 -231.510110 0 120 255
62.743991 -167.392678 -231.723381 0 120 255
63.567843 -169.715999 -231.936652 0 120 255
64.405200 -172.031795 -232.165768 0 120 255
65.392997 -174.263778 -232.571404 0 120 255
66.380795 -176.495761 -232.977039 0 120 255
67.368592 -178.727744 -233.382675 0 120 255
68.363487 -180.954756 -233.794792 0 120 255
69.527703 -183.063173 -234.361551 0 120 255
70.691919 -185.171589 -234.928309 0 120 255
71.856134 -187.280006 -235.495067 0 120 255
73.020350 -189.388422 -236.061825 0 120 255
74.371226 -191.343724 -236.750187 0 120 255
75.722398 -193.298785 -237.438742 0 120 255
77.073569 -195.253845 -238.127297 0 120 255
78.424740 -197.208905 -238.815852 0 120 255
79.961247 -198.992189 -239.576098 0 120 255
81.506094 -200.767743 -240.339571 0 120 255
83.050941 -202.543296 -241.103044 0 120 255
84.595788 -204.318849 -241.866516 0 120 255
86.318832 -205.910604 -242.649720 0 120 255
88.058266 -207.485452 -243.434737 0 120 255
89.797701 -209.060300 -244.219755 0 120 255
91.537136 -210.635148 -245.004773 0 120 255
93.440930 -212.021328 -245.757770 0 120 255
95.368229 -213.380528 -246.506187 0 120 255
97.295528 -214.739727 -247.254605 0 120 255
99.222827 -216.098927 -248.003022 0 120 255
101.293632 -217.272021 -248.670383 0 120 255
103.392949 -218.408139 -249.321639 0 120 255
105.492267 -219.544257 -249.972895 0 120 255
107.591584 -220.680376 -250.624151 0 120 255
109.806961 -221.640202 -251.150707 0 120 255
112.052480 -222.554245 -251.644879 0 120 255
114.297998 -223.468288 -252.139051 0 120 255
116.543516 -224.382330 -252.633223 0 120 255
118.872205 -225.136558 -252.966911 0 120 255
121.228090 -225.838527 -253.248122 0 120 255
123.583974 -226.540496 -253.529333 0 120 255
125.939859 -227.242465 -253.810544 0 120 255
128.342426 -227.806602 -253.905394 0 120 255
130.763745 -228.315373 -253.925384 0 120 255
133.185064 -228.824144 -253.945374 0 120 255
135.606383 -229.332915 -253.965363 0 120 255
138.036618 -229.729790 -253.784352 0 120 255
140.471179 -230.072370 -253.505813 0 120 255
142.905740 -230.414950 -253.227273 0 120 255
145.340301 -230.757531 -252.948734 0 120 255
147.747283 -231.016156 -252.466109 0 120 255
150.138288 -231.226143 -251.865250 0 120 255
152.529294 -231.436129 -251.264390 0 120 255
154.920299 -231.646116 -250.663530 0 120 255
157.250974 -231.800809 -249.866615 0 120 255
159.540239 -231.917548 -248.935126 0 120 255
161.829504 -232.034287 -248.003637 0 120 255
164.118768 -232.151027 -247.072148 0 120 255
166.320864 -232.240485 -245.962087 0 120 255
168.452390 -232.307858 -244.707459 0 120 255
170.583916 -232.375230 -243.452832 0 120 255
172.715443 -232.442603 -242.198205 0 120 255
174.738473 -232.490643 -240.786799 0 120 255
176.658085 -232.520255 -239.225952 0 120 255
178.577697 -232.549867 -237.665104 0 120 255
180.497310 -232.579479 -236.104256 0 120 255
182.293003 -232.595353 -234.412891 0 120 255
183.949681 -232.595817 -232.575107 0 120 255
185.606358 -232.596281 -230.737322 0 120 255
187.263036 -232.596744 -228.899537 0 120 255
188.787582 -232.589337 -226.960226 0 120 255
190.137356 -232.571518 -224.886624 0 120 255
191.487130 -232.553699 -222.813022 0 120 255
192.836903 -232.535881 -220.739420 0 120 255
194.053620 -232.514383 -218.593444 0 120 255
195.061916 -232.487124 -216.334101 0 120 255
196.070212 -232.459865 -214.074759 0 120 255
197.078508 -232.432605 -211.815416 0 120 255
197.959479 -232.404316 -209.510853 0 120 255
198.602559 -232.374102 -207.121801 0 120 255
199.245638 -232.343888 -204.732750 0 120 255
199.888717 -232.313674 -202.343698 0 120 255
200.415728 -232.283840 -199.932890 0 120 255
200.681316 -232.254859 -197.473082 0 120 255
200.946904 -232.225878 -195.013274 0 120 255
201.212493 -232.196898 -192.553466 0 120 255
201.377350 -232.168795 -190.090529 0 120 255
201.264478 -232.143112 -187.618964 0 120 255
201.151607 -232.117428 -185.147399 0 120 255
201.038735 -232.091745 -182.675834 0 120 255
200.842942 -232.066861 -180.214329 0 120 255
200.361053 -232.044737 -177.787536 0 120 255
199.879164 -232.022612 -175.360743 0 120 255
199.397275 -232.000488 -172.933949 0 120 255
198.851199 -231.978805 -170.524887 0 120 255
198.018763 -231.959094 -168.194931 0 120 255
197.186328 -231.939382 -165.864975 0 120 255
196.353892 -231.919671 -163.535019 0 120 255
195.475550 -231.900005 -161.225283 0 120 255
194.318431 -231.880614 -159.038337 0 120 255
193.161312 -231.861223 -156.851391 0 120 255
192.004193 -231.841833 -154.664446 0 120 255
190.817880 -231.822212 -152.495663 0 120 255
189.367537 -231.800512 -150.491151 0 120 255
187.917195 -231.778812 -148.486639 0 120 255
186.466852 -231.757112 -146.482127 0 120 255
185.001650 -231.735121 -144.489989 0 120 255
183.293439 -231.708367 -142.700203 0 120 255
181.585229 -231.681612 -140.910417 0 120 255
179.877018 -231.654858 -139.120631 0 120 255
178.165372 -231.627986 -137.334588 0 120 255
176.236955 -231.593691 -135.784729 0 120 255
174.308538 -231.559397 -134.234869 0 120 255
172.380121 -231.525102 -132.685009 0 120 255
170.451704 -231.490808 -131.135150 0 120 255
168.346486 -231.447284 -129.836837 0 120 255
166.236452 -231.403509 -128.545375 0 120 255
164.126418 -231.359734 -127.253913 0 120 255
162.016384 -231.315959 -125.962451 0 120 255
159.772978 -231.262275 -124.923090 0 120 255
157.519735 -231.207860 -123.902321 0 120 255
155.266493 -231.153445 -122.881552 0 120 255
153.013250 -231.099030 -121.860782 0 120 255
150.665895 -231.034958 -121.086740 0 120 255
148.306799 -230.969682 -120.343478 0 120 255
145.947703 -230.904406 -119.600216 0 120 255
143.588607 -230.839130 -118.856955 0 120 255
141.170083 -230.765383 -118.350459 0 120 255
138.740806 -230.690103 -117.886797 0 120 255
136.311530 -230.614823 -117.423136 0 120 255
133.882253 -230.539543 -116.959475 0 120 255
131.423540 -230.457777 -116.719222 0 120 255
128.957671 -230.374434 -116.533268 0 120 255
126.491802 -230.291091 -116.347314 0 120 255
124.025934 -230.207748 -116.161361 0 120 255
121.556006 -230.120861 -116.183075 0 120 255
119.084812 -230.032869 -116.269609 0 120 255
116.613617 -229.944877 -116.356143 0 120 255
114.142423 -229.856885 -116.442677 0 120 255
111.688178 -229.768957 -116.719702 0 120 255
109.240531 -229.681053 -117.070889 0 120 255
106.792885 -229.593150 -117.422076 0 120 255
104.345238 -229.505246 -117.773263 0 120 255
101.931665 -229.419138 -118.297209 0 120 255
99.534312 -229.333885 -118.903396 0 120 255
97.136959 -229.248632 -119.509584 0 120 255
94.739606 -229.163379 -120.115771 0 120 255
92.389906 -229.080523 -120.876705 0 120 255
90.067567 -228.999044 -121.726490 0 120 255
87.745228 -228.917566 -122.576276 0 120 255
85.422889 -228.836087 -123.426062 0 120 255
83.158515 -228.757261 -124.412614 0 120 255
80.933912 -228.680255 -125.493006 0 120 255
78.709310 -228.603249 -126.573397 0 120 255
76.484707 -228.526244 -127.653789 0 120 255
74.325393 -228.452057 -128.853307 0 120 255
72.219295 -228.380169 -130.149925 0 120 255
70.113198 -228.308280 -131.446543 0 120 255
68.007100 -228.236392 -132.743161 0 120 255
65.970900 -228.167422 -134.141867 0 120 255
64.002171 -228.101269 -135.639119 0 120 255
62.033442 -228.035117 -137.136370 0 120 255
60.064713 -227.968964 -138.633622 0 120 255
58.168027 -227.905742 -140.216739 0 120 255
56.353646 -227.845867 -141.897950 0 120 255
54.539265 -227.785992 -143.579160 0 120 255
52.724884 -227.726117 -145.260371 0 120 255
50.982487 -227.669128 -147.012240 0 120 255
49.337583 -227.616046 -148.859808 0 120 255
47.692680 -227.562964 -150.707376 0 120 255
46.047776 -227.509883 -152.554944 0 120 255
44.472802 -227.459561 -154.459121 0 120 255
43.010600 -227.413689 -156.454589 0 120 255
41.548399 -227.367818 -158.450058 0 120 255
40.086197 -227.321947 -160.445526 0 120 255
38.690117 -227.278648 -162.484871 0 120 255
37.421933 -227.240324 -164.609082 0 120 255
36.153748 -227.202000 -166.733293 0 120 255
34.885564 -227.163677 -168.857504 0 120 255
33.678171 -227.127691 -171.014300 0 120 255
32.613368 -227.097186 -173.247526 0 120 255
31.548565 -227.066682 -175.480751 0 120 255
30.483763 -227.036178 -177.713977 0 120 255
29.473122 -227.007731 -179.970042 0 120 255
28.619051 -226.985232 -182.292129 0 120 255
27.764980 -226.962733 -184.614216 0 120 255
26.910909 -226.940234 -186.936304 0 120 255
26.103329 -226.919483 -189.273124 0 120 255
25.465321 -226.905108 -191.663683 0 120 255
24.827312 -226.890732 -194.054242 0 120 255
24.189304 -226.876357 -196.444801 0 120 255
23.589314 -226.863392 -198.843685 0 120 255
23.170623 -226.857157 -201.282269 0 120 255
22.751933 -226.850922 -203.720853 0 120 255
22.333242 -226.844687 -206.159437 0 120 255
21.943561 -226.839521 -208.601670 0 120 255
21.745406 -226.841410 -211.067996 0 120 255
21.547252 -226.843299 -213.534322 0 120 255
21.349097 -226.845189 -216.000648 0 120 255
21.170664 -226.847798 -218.467677 0 120 255
21.192239 -226.857712 -220.941837 0 120 255
21.213813 -226.867626 -223.415998 0 120 255
21.235387 -226.877540 -225.890158 0 120 255
21.267368 -226.887831 -228.363768 0 120 255
21.505890 -226.905608 -230.826454 0 120 255
21.744411 -226.923384 -233.289141 0 120 255
21.982932 -226.941161 -235.751827 0 120 255
22.222768 -226.958984 -238.214328 0 120 255
22.673580 -226.984378 -240.647054 0 120 255
23.124392 -227.009772 -243.079780 0 120 255
23.575203 -227.035165 -245.512506 0 120 255
24.026015 -227.060559 -247.945233 0 120 255
24.675395 -227.093014 -250.332229 0 120 255
25.332104 -227.125731 -252.717537 0 120 255
25.988813 -227.158447 -255.102845 0 120 255
26.645522 -227.191164 -257.488154 0 120 255
27.484831 -227.230316 -259.814733 0 120 255
28.339453 -227.270008 -262.136387 0 120 255
29.194074 -227.309699 -264.458042 0 120 255
30.048696 -227.349391 -266.779696 0 120 255
31.069404 -227.394868 -269.032192 0 120 255
32.112582 -227.441128 -271.275331 0 120 255
33.155761 -227.487388 -273.518469 0 120 255
34.198940 -227.533648 -275.761608 0 120 255
35.391481 -227.585055 -277.927666 0 120 255
36.612682 -227.637450 -280.078935 0 120 255
37.833883 -227.689844 -282.230203 0 120 255
39.055084 -227.742239 -284.381471 0 120 255
40.409064 -227.799162 -286.450119 0 120 255
41.796826 -227.857238 -288.497747 0 120 255
43.184588 -227.915313 -290.545374 0 120 255
44.572349 -227.973388 -292.593001 0 120 255
46.076735 -228.035397 -294.554686 0 120 255
47.618900 -228.098680 -296.488531 0 120 255
49.161065 -228.161963 -298.422375 0 120 255
50.703230 -228.225245 -300.356220 0 120 255
52.346522 -228.291913 -302.202842 0 120 255
54.030429 -228.359940 -304.014432 0 120 255
55.714337 -228.427967 -305.826023 0 120 255
57.398244 -228.495994 -307.637614 0 120 255
59.168693 -228.566952 -309.362480 0 120 255
60.981467 -228.639342 -311.044931 0 120 255
62.794241 -228.711733 -312.727383 0 120 255
64.607015 -228.784124 -314.409834 0 120 255
66.492781 -228.859118 -316.007627 0 120 255
68.421480 -228.935643 -317.555625 0 120 255
70.350178 -229.012168 -319.103624 0 120 255
72.278876 -229.088694 -320.651622 0 120 255
74.268086 -229.167136 -322.118503 0 120 255
76.299744 -229.246922 -323.528479 0 120 255
78.331402 -229.326709 -324.938455 0 120 255
80.363060 -229.406495 -326.348431 0 120 255
82.443723 -229.486253 -327.682491 0 120 255
84.565174 -229.565988 -328.953365 0 120 255
86.686625 -229.645723 -330.224239 0 120 255
88.808076 -229.725457 -331.495114 0 120 255
90.967738 -229.799548 -332.697755 0 120 255
93.165042 -229.868079 -333.833181 0 120 255
95.362346 -229.936609 -334.968607 0 120 255
97.559650 -230.005140 -336.104032 0 120 255
99.786100 -230.063745 -337.179297 0 120 255
102.046530 -230.110778 -338.184421 0 120 255
104.306961 -230.157811 -339.189545 0 120 255
106.567391 -230.204844 -340.194669 0 120 255
108.849531 -230.239548 -341.147577 0 120 255
111.161695 -230.257201 -342.028271 0 120 255
113.473858 -230.274855 -342.908964 0 120 255
115.786021 -230.292508 -343.789658 0 120 255
118.113850 -230.296731 -344.625880 0 120 255
120.467505 -230.278809 -345.388781 0 120 255
122.821160 -230.260888 -346.151682 0 120 255
125.174816 -230.242967 -346.914584 0 120 255
127.539335 -230.211652 -347.640381 0 120 255
129.925381 -230.153801 -348.292665 0 120 255
132.311426 -230.095950 -348.944949 0 120 255
134.697471 -230.038099 -349.597233 0 120 255
137.090680 -229.967811 -350.219281 0 120 255
139.501152 -229.867555 -350.768470 0 120 255
141.911623 -229.767299 -351.317658 0 120 255
144.322095 -229.667043 -351.866847 0 120 255
146.736989 -229.556002 -352.392085 0 120 255
149.165070 -229.412799 -352.845896 0 120 255
151.593152 -229.269596 -353.299708 0 120 255
154.021234 -229.126393 -353.753519 0 120 255
156.451815 -228.974495 -354.189015 0 120 255
158.891859 -228.789668 -354.555146 0 120 255
161.331904 -228.604841 -354.921278 0 120 255
163.771949 -228.420014 -355.287409 0 120 255
166.213231 -228.229038 -355.640477 0 120 255
168.660694 -228.007315 -355.928218 0 120 255
171.108157 -227.785592 -356.215959 0 120 255
173.555621 -227.563869 -356.503700 0 120 255
176.003058 -227.340934 -356.790698 0 120 255
178.450316 -227.109492 -357.072475 0 120 255
180.897573 -226.878050 -357.354252 0 120 255
183.344831 -226.646609 -357.636028 0 120 255
185.792088 -226.415166 -357.917806 0 120 255
188.239343 -226.183713 -358.199596 0 120 255
190.686598 -225.952261 -358.481385 0 120 255
193.133853 -225.720808 -358.763174 0 120 255
195.581108 -225.489355 -359.044963 0 120 255
198.028364 -225.257906 -359.326745 0 120 255
200.475621 -225.026458 -359.608527 0 120 255
202.922877 -224.795009 -359.890309 0 120 255
205.370133 -224.563560 -360.172091 0 120 255
