ply
format ascii 1.0
element vertex 385
property float x
property float y
property float z
property uchar red
property uchar green
property uchar blue
end_header
77.430455 -42.474882 -360.397637 0 120 255
77.187536 -42.528715 -357.935767 0 120 255
76.944617 -42.582548 -355.473896 0 120 255
76.701698 -42.636381 -353.012026 0 120 255
76.458779 -42.690214 -350.550156 0 120 255
76.224652 -42.761289 -348.087875 0 120 255
75.990904 -42.833109 -345.625576 0 120 255
75.757156 -42.904928 -343.163277 0 120 255
75.523408 -42.976747 -340.700978 0 120 255
75.348916 -43.024652 -338.233268 0 120 255
75.179837 -43.070372 -335.765063 0 120 255
75.010759 -43.116092 -333.296858 0 120 255
74.841681 -43.161812 -330.828654 0 120 255
74.706786 -43.161614 -328.358019 0 120 255
74.576870 -43.154729 -325.887030 0 120 255
74.446954 -43.147843 -323.416041 0 120 255
74.317038 -43.140958 -320.945052 0 120 255
74.205688 -43.084927 -318.473897 0 120 255
74.098147 -43.018811 -316.002707 0 120 255
73.990607 -42.952694 -313.531518 0 120 255
73.883067 -42.886577 -311.060329 0 120 255
73.779641 -42.770049 -308.590968 0 120 255
73.677329 -42.639862 -306.122103 0 120 255
73.575018 -42.509676 -303.653238 0 120 255
73.472706 -42.379490 -301.184372 0 120 255
73.361418 -42.199397 -298.719214 0 120 255
73.247044 -42.002152 -296.255330 0 120 255
73.132671 -41.804908 -293.791446 0 120 255
73.018297 -41.607663 -291.327561 0 120 255
72.883384 -41.362567 -288.869254 0 120 255
72.739750 -41.097153 -286.413315 0 120 255
72.596115 -40.831738 -283.957376 0 120 255
72.452480 -40.566324 -281.501437 0 120 255
72.278399 -40.256437 -279.052999 0 120 255
72.088625 -39.923629 -276.608426 0 120 255
71.898851 -39.590821 -274.163853 0 120 255
71.709077 -39.258013 -271.719280 0 120 255
71.480702 -38.885176 -269.284206 0 120 255
71.228482 -38.487611 -266.855001 0 120 255
70.976261 -38.090047 -264.425795 0 120 255
70.724040 -37.692482 -261.996590 0 120 255
70.426876 -37.260145 -259.578942 0 120 255
70.096717 -36.802281 -257.169778 0 120 255
69.766558 -36.344416 -254.760615 0 120 255
69.436399 -35.886552 -252.351452 0 120 255
69.056781 -35.399717 -249.955918 0 120 255
68.634248 -34.887744 -247.572211 0 120 255
68.211716 -34.375771 -245.188503 0 120 255
67.789183 -33.863798 -242.804795 0 120 255
67.314487 -33.328939 -240.436730 0 120 255
66.786448 -32.770677 -238.084660 0 120 255
66.258409 -32.212415 -235.732591 0 120 255
65.730370 -31.654153 -233.380522 0 120 255
65.149213 -31.079114 -231.045957 0 120 255
64.504076 -30.483869 -228.732476 0 120 255
63.858939 -29.888623 -226.418995 0 120 255
63.213802 -29.293378 -224.105515 0 120 255
62.516232 -28.687250 -221.811147 0 120 255
61.744159 -28.065656 -219.543938 0 120 255
60.972085 -27.444062 -217.276729 0 120 255
60.200011 -26.822469 -215.009520 0 120 255
59.377692 -26.195439 -212.762669 0 120 255
58.470791 -25.559259 -210.550087 0 120 255
57.563890 -24.923079 -208.337506 0 120 255
56.656990 -24.286900 -206.124924 0 120 255
55.703347 -23.650084 -203.933472 0 120 255
54.655846 -23.011991 -201.784452 0 120 255
53.608345 -22.373898 -199.635431 0 120 255
52.560844 -21.735805 -197.486410 0 120 255
51.471208 -21.101058 -195.358717 0 120 255
50.279597 -20.474407 -193.282642 0 120 255
49.087987 -19.847757 -191.206567 0 120 255
47.896377 -19.221107 -189.130493 0 120 255
46.668094 -18.600822 -187.075282 0 120 255
45.331209 -17.999391 -185.081861 0 120 255
43.994323 -17.397959 -183.088439 0 120 255
42.657437 -16.796527 -181.095018 0 120 255
41.289933 -16.203420 -179.121264 0 120 255
39.809015 -15.641145 -177.220358 0 120 255
38.328098 -15.078870 -175.319452 0 120 255
36.847181 -14.516595 -173.418546 0 120 255
35.342004 -13.963477 -171.535331 0 120 255
33.720711 -13.454194 -169.736790 0 120 255
32.099417 -12.944910 -167.938249 0 120 255
30.478124 -12.435626 -166.139708 0 120 255
28.838949 -11.935187 -164.356077 0 120 255
27.083300 -11.492358 -162.669568 0 120 255
25.327652 -11.049529 -160.983058 0 120 255
23.572004 -10.606700 -159.296549 0 120 255
21.804583 -10.171278 -157.621372 0 120 255
19.922898 -9.807745 -156.056183 0 120 255
18.041213 -9.444212 -154.490993 0 120 255
16.159528 -9.080679 -152.925804 0 120 255
14.271632 -8.722051 -151.367605 0 120 255
12.274385 -8.449791 -149.932478 0 120 255
10.277138 -8.177532 -148.497350 0 120 255
8.279891 -7.905272 -147.062222 0 120 255
6.281193 -7.634450 -145.629039 0 120 255
4.180836 -7.464355 -144.332011 0 120 255
2.080479 -7.294260 -143.034983 0 120 255
-0.019878 -7.124165 -141.737955 0 120 255
-2.120235 -6.954070 -140.440928 0 120 255
-4.307198 -6.892893 -139.285451 0 120 255
-6.496437 -6.834579 -138.133695 0 120 255
-8.685677 -6.776265 -136.981938 0 120 255
-10.874916 -6.717951 -135.830181 0 120 255
-13.132506 -6.771756 -134.819985 0 120 255
-15.394874 -6.833397 -133.819683 0 120 255
-17.657242 -6.895039 -132.819381 0 120 255
-19.919610 -6.956680 -131.819079 0 120 255
-22.232187 -7.131583 -130.958846 0 120 255
-24.550660 -7.319787 -130.115061 0 120 255
-26.869134 -7.507992 -129.271276 0 120 255
-29.187607 -7.696196 -128.427491 0 120 255
-31.538666 -7.996844 -127.720857 0 120 255
-33.895248 -8.316549 -127.037467 0 120 255
-36.251831 -8.636254 -126.354077 0 120 255
-38.608413 -8.955959 -125.670687 0 120 255
-40.980829 -9.385485 -125.120174 0 120 255
-43.356836 -9.839909 -124.599785 0 120 255
-45.732842 -10.294332 -124.079397 0 120 255
-48.108849 -10.748755 -123.559008 0 120 255
-50.485132 -11.308755 -123.166002 0 120 255
-52.861496 -11.899366 -122.809931 0 120 255
-55.237860 -12.489977 -122.453860 0 120 255
-57.614223 -13.080589 -122.097790 0 120 255
-59.976763 -13.771127 -121.862521 0 120 255
-62.334323 -14.497663 -121.670768 0 120 255
-64.691883 -15.224198 -121.479015 0 120 255
-67.049443 -15.950734 -121.287262 0 120 255
-69.380751 -16.770382 -121.208816 0 120 255
-71.700539 -17.630887 -121.180086 0 120 255
-74.020327 -18.491392 -121.151357 0 120 255
-76.340116 -19.351897 -121.122627 0 120 255
-78.623051 -20.297790 -121.198970 0 120 255
-80.886557 -21.288697 -121.330704 0 120 255
-83.150063 -22.279605 -121.462439 0 120 255
-85.413569 -23.270513 -121.594174 0 120 255
-87.631551 -24.338424 -121.822198 0 120 255
-89.820971 -25.454648 -122.110637 0 120 255
-92.010391 -26.570872 -122.399075 0 120 255
-94.199811 -27.687096 -122.687514 0 120 255
-96.337012 -28.871542 -123.063093 0 120 255
-98.435466 -30.106610 -123.503332 0 120 255
-100.533919 -31.341678 -123.943571 0 120 255
-102.632373 -32.576747 -124.383811 0 120 255
-104.673885 -33.871099 -124.901876 0 120 255
-106.665612 -35.217283 -125.487985 0 120 255
-108.657338 -36.563468 -126.074094 0 120 255
-110.649065 -37.909653 -126.660203 0 120 255
-112.581051 -39.306260 -127.314814 0 120 255
-114.451576 -40.754741 -128.039900 0 120 255
-116.322102 -42.203221 -128.764986 0 120 255
-118.192628 -43.651702 -129.490072 0 120 255
-120.002438 -45.142031 -130.274521 0 120 255
-121.738693 -46.683059 -131.130887 0 120 255
-123.474948 -48.224087 -131.987254 0 120 255
-125.211203 -49.765115 -132.843620 0 120 255
-126.887475 -51.339892 -133.750522 0 120 255
-128.477915 -52.962961 -134.729736 0 120 255
-130.068355 -54.586030 -135.708950 0 120 255
-131.658796 -56.209098 -136.688164 0 120 255
-133.191526 -57.858449 -137.709554 0 120 255
-134.626185 -59.552461 -138.802617 0 120 255
-136.060844 -61.246474 -139.895680 0 120 255
-137.495503 -62.940487 -140.988742 0 120 255
-138.876094 -64.654083 -142.116187 0 120 255
-140.146632 -66.407541 -143.313615 0 120 255
-141.417169 -68.160998 -144.511043 0 120 255
-142.687706 -69.914455 -145.708472 0 120 255
-143.908992 -71.681663 -146.933160 0 120 255
-145.008709 -73.482812 -148.225134 0 120 255
-146.108426 -75.283961 -149.517109 0 120 255
-147.208142 -77.085109 -150.809083 0 120 255
-148.264389 -78.895119 -152.121941 0 120 255
-149.188203 -80.732125 -153.498419 0 120 255
-150.112016 -82.569131 -154.874897 0 120 255
-151.035829 -84.406136 -156.251374 0 120 255
-151.922719 -86.248101 -157.643153 0 120 255
-152.667142 -88.109198 -159.093967 0 120 255
-153.411565 -89.970296 -160.544782 0 120 255
-154.155988 -91.831393 -161.995596 0 120 255
-154.870591 -93.694550 -163.456964 0 120 255
-155.433664 -95.568172 -164.971956 0 120 255
-155.996737 -97.441795 -166.486948 0 120 255
-156.559810 -99.315417 -168.001940 0 120 255
-157.100525 -101.189199 -169.523583 0 120 255
-157.481738 -103.064121 -171.092677 0 120 255
-157.862951 -104.939044 -172.661771 0 120 255
-158.244164 -106.813966 -174.230864 0 120 255
-158.610651 -108.688118 -175.803554 0 120 255
-158.810853 -110.553565 -177.416854 0 120 255
-159.011054 -112.419013 -179.030154 0 120 255
-159.211256 -114.284461 -180.643454 0 120 255
-159.404359 -116.149126 -182.258126 0 120 255
-159.425671 -117.994864 -183.906006 0 120 255
-159.446983 -119.840602 -185.553887 0 120 255
-159.468296 -121.686339 -187.201768 0 120 255
-159.489608 -123.532077 -188.849648 0 120 255
-159.335655 -125.348580 -190.522747 0 120 255
-159.181334 -127.165022 -192.195898 0 120 255
-159.027014 -128.981465 -193.869049 0 120 255
-158.872694 -130.797907 -195.542201 0 120 255
-158.554559 -132.577833 -197.231004 0 120 255
-158.228894 -134.356081 -198.920528 0 120 255
-157.903228 -136.134329 -200.610051 0 120 255
-157.577563 -137.912577 -202.299574 0 120 255
-157.100027 -139.648472 -203.996336 0 120 255
-156.608217 -141.380386 -205.693777 0 120 255
-156.116407 -143.112300 -207.391219 0 120 255
-155.624597 -144.844214 -209.088661 0 120 255
-154.993103 -146.529339 -210.786040 0 120 255
-154.341109 -148.207598 -212.483410 0 120 255
-153.689115 -149.885856 -214.180780 0 120 255
-153.037122 -151.564115 -215.878150 0 120 255
-152.257709 -153.192449 -217.569276 0 120 255
-151.452173 -154.810548 -219.259122 0 120 255
-150.646638 -156.428647 -220.948969 0 120 255
-149.841103 -158.046747 -222.638815 0 120 255
-148.920271 -159.613006 -224.317287 0 120 255
-147.968352 -161.165288 -225.992692 0 120 255
-147.016432 -162.717570 -227.668097 0 120 255
-146.064513 -164.269852 -229.343503 0 120 255
-145.009141 -165.769506 -231.003398 0 120 255
-143.918413 -167.251174 -232.657993 0 120 255
-142.827685 -168.732841 -234.312588 0 120 255
-141.736957 -170.214509 -235.967183 0 120 255
-140.554197 -171.643770 -237.603067 0 120 255
-139.332528 -173.050873 -239.231040 0 120 255
-138.110859 -174.457977 -240.859014 0 120 255
-136.889190 -175.865080 -242.486987 0 120 255
-135.586392 -177.220888 -244.093924 0 120 255
-134.241858 -178.550307 -245.690040 0 120 255
-132.897324 -179.879726 -247.286156 0 120 255
-131.552790 -181.209145 -248.882272 0 120 255
-130.137409 -182.489162 -250.455813 0 120 255
-128.678175 -183.738601 -252.015380 0 120 255
-127.218942 -184.988041 -253.574948 0 120 255
-125.759708 -186.237480 -255.134515 0 120 255
-124.239226 -187.440057 -256.670697 0 120 255
-122.673463 -188.607989 -258.189589 0 120 255
-121.107701 -189.775922 -259.708482 0 120 255
-119.541939 -190.943854 -261.227374 0 120 255
-117.923796 -192.068011 -262.722704 0 120 255
-116.259595 -193.153678 -264.197315 0 120 255
-114.595395 -194.239344 -265.671926 0 120 255
-112.931195 -195.325011 -267.146537 0 120 255
-111.222715 -196.370409 -268.597967 0 120 255
-109.467996 -197.373758 -270.025189 0 120 255
-107.713277 -198.377108 -271.452411 0 120 255
-105.958558 -199.380457 -272.879634 0 120 255
-104.166903 -200.347353 -274.284568 0 120 255
-102.329400 -201.268999 -275.661834 0 120 255
-100.491897 -202.190645 -277.039101 0 120 255
-98.654394 -203.112291 -278.416367 0 120 255
-96.786521 -204.001516 -279.772636 0 120 255
-94.873664 -204.842717 -281.097804 0 120 255
-92.960807 -205.683919 -282.422972 0 120 255
-91.047950 -206.525121 -283.748140 0 120 255
-89.110545 -207.338033 -285.053969 0 120 255
-87.129466 -208.100612 -286.325389 0 120 255
-85.148387 -208.863190 -287.596810 0 120 255
-83.167307 -209.625769 -288.868231 0 120 255
-81.166776 -210.364215 -290.122246 0 120 255
-79.124233 -211.050540 -291.338671 0 120 255
-77.081691 -211.736866 -292.555096 0 120 255
-75.039148 -212.423191 -293.771520 0 120 255
-72.981563 -213.089477 -294.972698 0 120 255
-70.883931 -213.702412 -296.133287 0 120 255
-68.786300 -214.315347 -297.293875 0 120 255
-66.688669 -214.928283 -298.454463 0 120 255
-64.579759 -215.525132 -299.602124 0 120 255
-62.432995 -216.067995 -300.706396 0 120 255
-60.286231 -216.610858 -301.810667 0 120 255
-58.139467 -217.153721 -302.914939 0 120 255
-55.984598 -217.684238 -304.008726 0 120 255
-53.794253 -218.160714 -305.056616 0 120 255
-51.603909 -218.637190 -306.104506 0 120 255
-49.413564 -219.113666 -307.152396 0 120 255
-47.217743 -219.581277 -308.192291 0 120 255
-44.988906 -219.995449 -309.183987 0 120 255
-42.760070 -220.409621 -310.175683 0 120 255
-40.531233 -220.823793 -311.167380 0 120 255
-38.299066 -221.232259 -312.153595 0 120 255
-36.036417 -221.588511 -313.089659 0 120 255
-33.773768 -221.944762 -314.025724 0 120 255
-31.511118 -222.301013 -314.961788 0 120 255
-29.246852 -222.654353 -315.894855 0 120 255
-26.954619 -222.957345 -316.776089 0 120 255
-24.662385 -223.260337 -317.657322 0 120 255
-22.370151 -223.563328 -318.538556 0 120 255
-20.077641 -223.865801 -319.419213 0 120 255
-17.759653 -224.120451 -320.246739 0 120 255
-15.441666 -224.375100 -321.074265 0 120 255
-13.123678 -224.629749 -321.901791 0 120 255
-10.805690 -224.884399 -322.729317 0 120 255
-8.466105 -225.097260 -323.506221 0 120 255
-6.125776 -225.308682 -324.281381 0 120 255
-3.785448 -225.520104 -325.056542 0 120 255
-1.445119 -225.731526 -325.831703 0 120 255
0.913023 -225.907947 -326.560016 0 120 255
3.272659 -226.081433 -327.284402 0 120 255
5.632294 -226.254919 -328.008787 0 120 255
7.991930 -226.428405 -328.733173 0 120 255
10.366177 -226.573355 -329.414536 0 120 255
12.742445 -226.714357 -330.089949 0 120 255
15.118712 -226.855359 -330.765361 0 120 255
17.494980 -226.996362 -331.440774 0 120 255
19.883159 -227.114901 -332.077036 0 120 255
22.273703 -227.228980 -332.705524 0 120 255
24.664248 -227.343058 -333.334011 0 120 255
27.054792 -227.457137 -333.962498 0 120 255
29.454458 -227.558565 -334.557189 0 120 255
31.856549 -227.656631 -335.142899 0 120 255
34.258640 -227.754698 -335.728609 0 120 255
36.660730 -227.852764 -336.314319 0 120 255
39.070147 -227.944785 -336.869850 0 120 255
41.482056 -228.034748 -337.415112 0 120 255
43.893966 -228.124711 -337.960373 0 120 255
46.305876 -228.214675 -338.505634 0 120 255
48.724228 -228.301278 -339.021780 0 120 255
51.145308 -228.386458 -339.525594 0 120 255
53.566387 -228.471638 -340.029408 0 120 255
55.987467 -228.556818 -340.533222 0 120 255
58.413864 -228.641705 -341.010429 0 120 255
60.843015 -228.726440 -341.473847 0 120 255
63.272166 -228.811175 -341.937265 0 120 255
65.701317 -228.895910 -342.400683 0 120 255
68.134896 -228.979237 -342.840102 0 120 255
70.571255 -229.061679 -343.264451 0 120 255
73.007613 -229.144122 -343.688799 0 120 255
75.443972 -229.226564 -344.113147 0 120 255
77.883761 -229.302831 -344.518122 0 120 255
80.326144 -229.374426 -344.908441 0 120 255
82.768528 -229.446021 -345.298760 0 120 255
85.210912 -229.517616 -345.689080 0 120 255
87.655810 -229.579388 -346.064685 0 120 255
90.102990 -229.632245 -346.426940 0 120 255
92.550170 -229.685103 -346.789194 0 120 255
94.997350 -229.737960 -347.151449 0 120 255
97.446380 -229.780431 -347.502005 0 120 255
99.897420 -229.811618 -347.839853 0 120 255
102.348460 -229.842805 -348.177701 0 120 255
104.799501 -229.873992 -348.515549 0 120 255
107.251830 -229.894539 -348.844354 0 120 255
109.705839 -229.901229 -349.161383 0 120 255
112.159848 -229.907920 -349.478412 0 120 255
114.613857 -229.914610 -349.795442 0 120 255
117.068681 -229.910702 -350.105747 0 120 255
119.524782 -229.890182 -350.405513 0 120 255
121.980883 -229.869662 -350.705280 0 120 255
124.436984 -229.849142 -351.005046 0 120 255
126.893502 -229.818354 -351.300068 0 120 255
129.350814 -229.768048 -351.586070 0 120 255
131.808127 -229.717742 -351.872072 0 120 255
134.265439 -229.667436 -352.158075 0 120 255
136.722842 -229.607457 -352.440994 0 120 255
139.180458 -229.524914 -352.716722 0 120 255
141.638073 -229.442370 -352.992450 0 120 255
144.095688 -229.359827 -353.268178 0 120 255
146.553140 -229.268470 -353.542152 0 120 255
149.010115 -229.151424 -353.811012 0 120 255
151.467090 -229.034379 -354.079872 0 120 255
153.924065 -228.917334 -354.348732 0 120 255
156.380694 -228.792563 -354.616861 0 120 255
158.836028 -228.638900 -354.882257 0 120 255
161.291362 -228.485236 -355.147653 0 120 255
163.746696 -228.331573 -355.413050 0 120 255
166.201167 -228.169154 -355.680442 0 120 255
168.651318 -227.962919 -355.957822 0 120 255
171.101469 -227.756685 -356.235202 0 120 255
173.551620 -227.550451 -356.512583 0 120 255
176.001429 -227.341088 -356.790510 0 120 255
178.448822 -227.109633 -357.072303 0 120 255
180.896215 -226.878179 -357.354095 0 120 255
183.343609 -226.646724 -357.635888 0 120 255
185.791002 -226.415269 -357.917681 0 120 255
188.238392 -226.183803 -358.199486 0 120 255
190.685783 -225.952338 -358.481291 0 120 255
193.133174 -225.720872 -358.763096 0 120 255
195.580565 -225.489407 -359.044901 0 120 255
198.027957 -225.257945 -359.326698 0 120 255
200.475349 -225.026483 -359.608496 0 120 255
202.922741 -224.795022 -359.890293 0 120 255
205.370133 -224.563560 -360.172091 0 120 255
