ply
format ascii 1.0
element vertex 385
property float x
property float y
property float z
property uchar red
property uchar green
property uchar blue
end_header
77.430455 -42.474882 -360.397637 0 120 255
77.187566 -42.528708 -357.936065 0 120 255
76.944676 -42.582535 -355.474492 0 120 255
76.701786 -42.636362 -353.012920 0 120 255
76.458896 -42.690188 -350.551348 0 120 255
76.219958 -42.752397 -348.089588 0 120 255
75.981193 -42.814971 -345.627819 0 120 255
75.742427 -42.877546 -343.166050 0 120 255
75.503661 -42.940121 -340.704282 0 120 255
75.550940 -43.411036 -338.280553 0 120 255
75.624276 -43.919150 -335.860290 0 120 255
75.697612 -44.427263 -333.440028 0 120 255
75.770948 -44.935377 -331.019765 0 120 255
76.089879 -45.759784 -328.714503 0 120 255
76.445079 -46.630901 -326.426225 0 120 255
76.800279 -47.502018 -324.137946 0 120 255
77.155478 -48.373136 -321.849668 0 120 255
77.713527 -49.482184 -319.715607 0 120 255
78.314314 -50.641361 -317.614038 0 120 255
78.915100 -51.800538 -315.512468 0 120 255
79.515887 -52.959715 -313.410899 0 120 255
80.278297 -54.290749 -311.475727 0 120 255
81.086121 -55.670072 -309.587310 0 120 255
81.893945 -57.049394 -307.698892 0 120 255
82.701769 -58.428717 -305.810475 0 120 255
83.635150 -59.927665 -304.083336 0 120 255
84.613698 -61.469647 -302.414216 0 120 255
85.592247 -63.011629 -300.745095 0 120 255
86.570796 -64.553611 -299.075975 0 120 255
87.645206 -66.175791 -297.553215 0 120 255
88.762598 -67.833931 -296.096082 0 120 255
89.879991 -69.492071 -294.638950 0 120 255
90.997384 -71.150211 -293.181817 0 120 255
92.187154 -72.859833 -291.851513 0 120 255
93.416656 -74.597717 -290.590834 0 120 255
94.646159 -76.335601 -289.330155 0 120 255
95.875661 -78.073485 -288.069475 0 120 255
97.159486 -79.842548 -286.914754 0 120 255
98.479379 -81.632313 -285.830387 0 120 255
99.799272 -83.422079 -284.746019 0 120 255
101.119165 -85.211844 -283.661652 0 120 255
102.479768 -87.018832 -282.662964 0 120 255
103.872810 -88.839545 -281.732550 0 120 255
105.265851 -90.660257 -280.802136 0 120 255
106.658893 -92.480969 -279.871722 0 120 255
108.082515 -94.309589 -279.008324 0 120 255
109.535252 -96.145735 -278.208730 0 120 255
110.987989 -97.981882 -277.409137 0 120 255
112.440726 -99.818029 -276.609543 0 120 255
113.916553 -101.656076 -275.860375 0 120 255
115.418607 -103.496280 -275.168485 0 120 255
116.920660 -105.336485 -274.476595 0 120 255
118.422714 -107.176689 -273.784706 0 120 255
119.942317 -109.015100 -273.128890 0 120 255
121.485735 -110.851077 -272.522027 0 120 255
123.029152 -112.687053 -271.915163 0 120 255
124.572569 -114.523030 -271.308300 0 120 255
126.129396 -116.355095 -270.725371 0 120 255
127.708052 -118.180795 -270.181409 0 120 255
129.286709 -120.006494 -269.637446 0 120 255
130.865366 -121.832193 -269.093484 0 120 255
132.454264 -123.652920 -268.563437 0 120 255
134.063321 -125.463859 -268.060779 0 120 255
135.672378 -127.274798 -267.558121 0 120 255
137.281435 -129.085738 -267.055463 0 120 255
138.898231 -130.891327 -266.558727 0 120 255
140.533663 -132.684036 -266.076246 0 120 255
142.169095 -134.476745 -265.593765 0 120 255
143.804526 -136.269454 -265.111284 0 120 255
145.445635 -138.056876 -264.628652 0 120 255
147.103761 -139.828450 -264.145563 0 120 255
148.761887 -141.600023 -263.662474 0 120 255
150.420013 -143.371597 -263.179385 0 120 255
152.082057 -145.138227 -262.691908 0 120 255
153.759111 -146.885916 -262.187623 0 120 255
155.436164 -148.633606 -261.683338 0 120 255
157.113217 -150.381295 -261.179053 0 120 255
158.792670 -152.124589 -260.667947 0 120 255
160.484354 -153.845479 -260.122079 0 120 255
162.176038 -155.566370 -259.576211 0 120 255
163.867722 -157.287260 -259.030343 0 120 255
165.560539 -159.004490 -258.476982 0 120 255
167.261567 -160.695187 -257.869299 0 120 255
168.962595 -162.385884 -257.261617 0 120 255
170.663623 -164.076580 -256.653935 0 120 255
172.364857 -165.764578 -256.039829 0 120 255
174.068506 -167.420937 -255.350419 0 120 255
175.772156 -169.077295 -254.661009 0 120 255
177.475805 -170.733653 -253.971599 0 120 255
179.179237 -172.388584 -253.278533 0 120 255
180.876871 -174.005457 -252.487971 0 120 255
182.574506 -175.622331 -251.697409 0 120 255
184.272140 -177.239205 -250.906848 0 120 255
185.969774 -178.856078 -250.116286 0 120 255
187.650482 -180.427427 -249.206774 0 120 255
189.331086 -181.998496 -248.296532 0 120 255
191.011690 -183.569565 -247.386289 0 120 255
192.692294 -185.140635 -246.476046 0 120 255
194.343573 -186.660824 -245.435614 0 120 255
195.993368 -188.178439 -244.388594 0 120 255
197.643164 -189.696054 -243.341575 0 120 255
199.292959 -191.213669 -242.294555 0 120 255
200.899362 -192.674447 -241.109466 0 120 255
202.501472 -194.129602 -239.910718 0 120 255
204.103582 -195.584757 -238.711970 0 120 255
205.705692 -197.039912 -237.513222 0 120 255
207.248893 -198.431898 -236.172348 0 120 255
208.783161 -199.814306 -234.809924 0 120 255
210.317429 -201.196714 -233.447500 0 120 255
211.851697 -202.579122 -232.085075 0 120 255
213.310521 -203.892002 -230.580751 0 120 255
214.753550 -205.190326 -229.046721 0 120 255
216.196579 -206.488650 -227.512690 0 120 255
217.639609 -207.786974 -225.978659 0 120 255
218.990280 -209.009824 -224.307567 0 120 255
220.315754 -210.212083 -222.599082 0 120 255
221.641228 -211.414342 -220.890596 0 120 255
222.966702 -212.616601 -219.182111 0 120 255
224.183340 -213.738400 -217.346155 0 120 255
225.362649 -214.832601 -215.466479 0 120 255
226.541958 -215.926803 -213.586803 0 120 255
227.721267 -217.021005 -211.707127 0 120 255
228.776695 -218.031236 -209.714163 0 120 255
229.779975 -219.006121 -207.673511 0 120 255
230.783254 -219.981005 -205.632859 0 120 255
231.786534 -220.955889 -203.592207 0 120 255
232.653343 -221.845343 -201.456561 0 120 255
233.450799 -222.691382 -199.272640 0 120 255
234.248255 -223.537422 -197.088719 0 120 255
235.045711 -224.383461 -194.904798 0 120 255
235.697559 -225.145053 -192.647401 0 120 255
236.261090 -225.855423 -190.345437 0 120 255
236.824621 -226.565794 -188.043474 0 120 255
237.388152 -227.276165 -185.741510 0 120 255
237.801174 -227.905777 -183.389600 0 120 255
238.106081 -228.477379 -181.001811 0 120 255
238.410989 -229.048980 -178.614023 0 120 255
238.715896 -229.620581 -176.226235 0 120 255
238.870147 -230.117827 -173.812582 0 120 255
238.896850 -230.552122 -171.377032 0 120 255
238.923552 -230.986416 -168.941481 0 120 255
238.950254 -231.420711 -166.505931 0 120 255
238.830986 -231.789522 -164.067593 0 120 255
238.566395 -232.093139 -161.626479 0 120 255
238.301804 -232.396757 -159.185365 0 120 255
238.037213 -232.700374 -156.744250 0 120 255
237.635841 -232.949350 -154.320953 0 120 255
237.074334 -233.134354 -151.918514 0 120 255
236.512827 -233.319358 -149.516075 0 120 255
235.951320 -233.504362 -147.113636 0 120 255
235.266030 -233.646844 -144.745936 0 120 255
234.409937 -233.730652 -142.426171 0 120 255
233.553844 -233.814461 -140.106405 0 120 255
232.697751 -233.898269 -137.786640 0 120 255
231.733645 -233.952124 -135.514050 0 120 255
230.593048 -233.957034 -133.318545 0 120 255
229.452451 -233.961944 -131.123040 0 120 255
228.311854 -233.966854 -128.927534 0 120 255
227.080521 -233.954841 -126.786872 0 120 255
225.672306 -233.909836 -124.753123 0 120 255
224.264091 -233.864831 -122.719374 0 120 255
222.855876 -233.819826 -120.685625 0 120 255
221.374899 -233.768679 -118.709530 0 120 255
219.722694 -233.703080 -116.869110 0 120 255
218.070489 -233.637482 -115.028691 0 120 255
216.418284 -233.571883 -113.188271 0 120 255
214.711229 -233.504079 -111.403646 0 120 255
212.845595 -233.429900 -109.780336 0 120 255
210.979960 -233.355722 -108.157026 0 120 255
209.114326 -233.281543 -106.533716 0 120 255
207.209732 -233.206149 -104.961078 0 120 255
205.163307 -233.126330 -103.572913 0 120 255
203.116882 -233.046510 -102.184748 0 120 255
201.070456 -232.966691 -100.796583 0 120 255
198.998397 -232.886111 -99.451450 0 120 255
196.804547 -232.801920 -98.310764 0 120 255
194.610697 -232.717729 -97.170078 0 120 255
192.416847 -232.633537 -96.029392 0 120 255
190.207889 -232.548921 -94.922294 0 120 255
187.899741 -232.461516 -94.035703 0 120 255
185.591593 -232.374111 -93.149113 0 120 255
183.283444 -232.286705 -92.262522 0 120 255
180.967840 -232.199116 -91.399040 0 120 255
178.577232 -232.109673 -90.767989 0 120 255
176.186625 -232.020230 -90.136938 0 120 255
173.796017 -231.930788 -89.505886 0 120 255
171.402848 -231.841297 -88.887111 0 120 255
168.959519 -231.750864 -88.508696 0 120 255
166.516191 -231.660430 -88.130280 0 120 255
164.072863 -231.569997 -87.751864 0 120 255
161.629364 -231.479564 -87.375092 0 120 255
159.160453 -231.389097 -87.242704 0 120 255
156.691543 -231.298631 -87.110315 0 120 255
154.222632 -231.208164 -86.977927 0 120 255
151.753722 -231.117698 -86.845538 0 120 255
149.283478 -231.028041 -86.941361 0 120 255
146.813185 -230.938413 -87.045529 0 120 255
144.342892 -230.848786 -87.149697 0 120 255
141.872600 -230.759158 -87.253865 0 120 255
139.420561 -230.670971 -87.565818 0 120 255
136.970051 -230.582904 -87.895172 0 120 255
134.519541 -230.494837 -88.224526 0 120 255
132.069030 -230.406770 -88.553880 0 120 255
129.651983 -230.320615 -89.070399 0 120 255
127.239470 -230.234718 -89.612276 0 120 255
124.826956 -230.148821 -90.154153 0 120 255
122.414443 -230.062924 -90.696030 0 120 255
120.046792 -229.979283 -91.405042 0 120 255
117.687775 -229.896075 -92.146221 0 120 255
115.328758 -229.812868 -92.887400 0 120 255
112.969742 -229.729660 -93.628579 0 120 255
110.663799 -229.648937 -94.517967 0 120 255
108.371416 -229.568849 -95.445219 0 120 255
106.079034 -229.488760 -96.372471 0 120 255
103.786651 -229.408672 -97.299723 0 120 255
101.552953 -229.331207 -98.357619 0 120 255
99.338360 -229.254596 -99.458046 0 120 255
97.123767 -229.177985 -100.558473 0 120 255
94.909174 -229.101374 -101.658900 0 120 255
92.756804 -229.027456 -102.873889 0 120 255
90.629566 -228.954625 -104.135152 0 120 255
88.502328 -228.881795 -105.396415 0 120 255
86.375090 -228.808964 -106.657678 0 120 255
84.311977 -228.738846 -108.018902 0 120 255
82.280422 -228.670063 -109.429322 0 120 255
80.248866 -228.601281 -110.839741 0 120 255
78.217311 -228.532498 -112.250160 0 120 255
76.250515 -228.466388 -113.747365 0 120 255
74.322066 -228.401860 -115.295962 0 120 255
72.393618 -228.337333 -116.844559 0 120 255
70.465169 -228.272805 -118.393156 0 120 255
68.601147 -228.210908 -120.016706 0 120 255
66.782647 -228.150869 -121.693214 0 120 255
64.964146 -228.090830 -123.369722 0 120 255
63.145645 -228.030792 -125.046231 0 120 255
61.390479 -227.973300 -126.787057 0 120 255
59.688423 -227.917943 -128.581820 0 120 255
57.986368 -227.862586 -130.376583 0 120 255
56.284313 -227.807230 -132.171346 0 120 255
54.643889 -227.754322 -134.020856 0 120 255
53.064648 -227.703846 -135.924715 0 120 255
51.485406 -227.653370 -137.828574 0 120 255
49.906165 -227.602894 -139.732432 0 120 255
48.386349 -227.554754 -141.682412 0 120 255
46.936353 -227.509360 -143.686577 0 120 255
45.486356 -227.463965 -145.690743 0 120 255
44.036360 -227.418571 -147.694908 0 120 255
42.643121 -227.375387 -149.737385 0 120 255
41.328980 -227.335284 -151.833250 0 120 255
40.014838 -227.295180 -153.929116 0 120 255
38.700697 -227.255077 -156.024982 0 120 255
37.440198 -227.217045 -158.152074 0 120 255
36.268798 -227.182455 -160.331032 0 120 255
35.097398 -227.147865 -162.509989 0 120 255
33.925997 -227.113276 -164.688946 0 120 255
32.804661 -227.080599 -166.892700 0 120 255
31.783213 -227.051742 -169.145929 0 120 255
30.761764 -227.022884 -171.399158 0 120 255
29.740315 -226.994027 -173.652387 0 120 255
28.764847 -226.966917 -175.924599 0 120 255
27.900885 -226.944043 -178.242847 0 120 255
27.036923 -226.921169 -180.561096 0 120 255
26.172961 -226.898295 -182.879345 0 120 255
25.350325 -226.876979 -185.211371 0 120 255
24.651597 -226.860335 -187.584709 0 120 255
23.952869 -226.843690 -189.958047 0 120 255
23.254142 -226.827046 -192.331385 0 120 255
22.591474 -226.811749 -194.713945 0 120 255
22.065864 -226.801573 -197.131560 0 120 255
21.540254 -226.791397 -199.549174 0 120 255
21.014644 -226.781221 -201.966789 0 120 255
20.519157 -226.772163 -204.389793 0 120 255
20.174414 -226.768698 -206.839766 0 120 255
19.829670 -226.765233 -209.289740 0 120 255
19.484926 -226.761768 -211.739713 0 120 255
19.163677 -226.759168 -214.192081 0 120 255
19.007089 -226.762627 -216.661230 0 120 255
18.850501 -226.766085 -219.130380 0 120 255
18.693913 -226.769544 -221.599529 0 120 255
18.553522 -226.773594 -224.069065 0 120 255
18.591511 -226.784160 -226.542863 0 120 255
18.629500 -226.794726 -229.016661 0 120 255
18.667488 -226.805292 -231.490458 0 120 255
18.713795 -226.816160 -233.963790 0 120 255
18.951339 -226.833963 -236.426408 0 120 255
19.188882 -226.851767 -238.889025 0 120 255
19.426426 -226.869570 -241.351643 0 120 255
19.664008 -226.887375 -243.814255 0 120 255
20.104221 -226.912455 -246.248760 0 120 255
20.544435 -226.937536 -248.683265 0 120 255
20.984648 -226.962616 -251.117770 0 120 255
21.424861 -226.987697 -253.552274 0 120 255
22.060197 -227.019720 -255.942845 0 120 255
22.703930 -227.052043 -258.331525 0 120 255
23.347662 -227.084365 -260.720206 0 120 255
23.991395 -227.116688 -263.108886 0 120 255
24.820198 -227.155543 -265.438994 0 120 255
25.665682 -227.194988 -267.763824 0 120 255
26.511166 -227.234432 -270.088653 0 120 255
27.356650 -227.273876 -272.413482 0 120 255
28.374860 -227.319346 -274.666803 0 120 255
29.417543 -227.365669 -276.909992 0 120 255
30.460225 -227.411992 -279.153181 0 120 255
31.502908 -227.458316 -281.396370 0 120 255
32.704050 -227.510107 -283.557267 0 120 255
33.936616 -227.562983 -285.701845 0 120 255
35.169183 -227.615860 -287.846423 0 120 255
36.401749 -227.668736 -289.991001 0 120 255
37.777084 -227.726478 -292.044993 0 120 255
39.189670 -227.785490 -294.075349 0 120 255
40.602256 -227.844501 -296.105706 0 120 255
42.014842 -227.903513 -298.136063 0 120 255
43.553553 -227.966764 -300.070303 0 120 255
45.133940 -228.031415 -301.972782 0 120 255
46.714327 -228.096066 -303.875261 0 120 255
48.294715 -228.160718 -305.777739 0 120 255
49.984281 -228.228978 -307.581368 0 120 255
51.718408 -228.298711 -309.344653 0 120 255
53.452535 -228.368444 -311.107937 0 120 255
55.186661 -228.438177 -312.871221 0 120 255
57.013271 -228.510917 -314.535659 0 120 255
58.885712 -228.585149 -316.151111 0 120 255
60.758152 -228.659380 -317.766563 0 120 255
62.630593 -228.733611 -319.382015 0 120 255
64.579594 -228.810330 -320.901137 0 120 255
66.574121 -228.888529 -322.362977 0 120 255
68.568649 -228.966727 -323.824816 0 120 255
70.563177 -229.044925 -325.286655 0 120 255
72.619513 -229.125068 -326.656927 0 120 255
74.719607 -229.206587 -327.962373 0 120 255
76.819701 -229.288107 -329.267819 0 120 255
78.919796 -229.369626 -330.573265 0 120 255
81.068313 -229.451573 -331.794090 0 120 255
83.257449 -229.533878 -332.943934 0 120 255
85.446584 -229.616183 -334.093778 0 120 255
87.635719 -229.698487 -335.243623 0 120 255
89.860988 -229.775354 -336.319122 0 120 255
92.122079 -229.846830 -337.320913 0 120 255
94.383171 -229.918306 -338.322704 0 120 255
96.644263 -229.989782 -339.324495 0 120 255
98.931450 -230.050974 -340.262916 0 120 255
101.249223 -230.100112 -341.127057 0 120 255
103.566997 -230.149251 -341.991198 0 120 255
105.884771 -230.198390 -342.855339 0 120 255
108.220780 -230.234786 -343.666770 0 120 255
110.582118 -230.253484 -344.404985 0 120 255
112.943457 -230.272181 -345.143200 0 120 255
115.304795 -230.290878 -345.881414 0 120 255
117.678332 -230.295839 -346.577100 0 120 255
120.072047 -230.278077 -347.202436 0 120 255
122.465761 -230.260315 -347.827772 0 120 255
124.859476 -230.242554 -348.453108 0 120 255
127.260899 -230.211239 -349.045358 0 120 255
129.677630 -230.153010 -349.571904 0 120 255
132.094361 -230.094782 -350.098449 0 120 255
134.511092 -230.036553 -350.624995 0 120 255
136.932333 -229.965865 -351.126933 0 120 255
139.364452 -229.865121 -351.569512 0 120 255
141.796572 -229.764377 -352.012090 0 120 255
144.228691 -229.663634 -352.454668 0 120 255
146.663159 -229.552171 -352.880024 0 120 255
149.104629 -229.408753 -353.254041 0 120 255
151.546098 -229.265336 -353.628059 0 120 255
153.987567 -229.121919 -354.002076 0 120 255
156.430033 -228.969922 -354.365040 0 120 255
158.876265 -228.785511 -354.686242 0 120 255
161.322498 -228.601100 -355.007444 0 120 255
163.768730 -228.416688 -355.328646 0 120 255
166.215168 -228.226149 -355.644101 0 120 255
168.662634 -228.005126 -355.930966 0 120 255
171.110099 -227.784103 -356.217831 0 120 255
173.557565 -227.563080 -356.504696 0 120 255
176.004984 -227.340752 -356.790919 0 120 255
178.452081 -227.109325 -357.072678 0 120 255
180.899178 -226.877899 -357.354436 0 120 255
183.346275 -226.646472 -357.636195 0 120 255
185.793372 -226.415045 -357.917954 0 120 255
188.240466 -226.183607 -358.199725 0 120 255
190.687561 -225.952170 -358.481496 0 120 255
193.134655 -225.720732 -358.763267 0 120 255
195.581750 -225.489294 -359.045037 0 120 255
198.028846 -225.257861 -359.326801 0 120 255
200.475942 -225.026427 -359.608564 0 120 255
202.923037 -224.794994 -359.890327 0 120 255
205.370133 -224.563560 -360.172091 0 120 255
