ply
format ascii 1.0
element vertex 385
property float x
property float y
property float z
property uchar red
property uchar green
property uchar blue
end_header
77.430455 -42.474882 -360.397637 0 120 255
77.187555 -42.528711 -357.935955 0 120 255
76.944654 -42.582540 -355.474274 0 120 255
76.701754 -42.636369 -353.012593 0 120 255
76.458853 -42.690198 -350.550911 0 120 255
76.213668 -42.754284 -348.089703 0 120 255
75.968384 -42.818817 -345.628516 0 120 255
75.723099 -42.883350 -343.167328 0 120 255
75.477815 -42.947883 -340.706140 0 120 255
75.068495 -43.376628 -338.307072 0 120 255
74.644242 -43.838530 -335.913658 0 120 255
74.219988 -44.300432 -333.520244 0 120 255
73.795735 -44.762334 -331.126831 0 120 255
73.243834 -45.482343 -328.827874 0 120 255
72.673080 -46.240472 -326.542868 0 120 255
72.102326 -46.998602 -324.257862 0 120 255
71.531572 -47.756732 -321.972856 0 120 255
70.870091 -48.696364 -319.784088 0 120 255
70.189536 -49.674152 -317.615552 0 120 255
69.508982 -50.651941 -315.447016 0 120 255
68.828427 -51.629730 -313.278480 0 120 255
68.093370 -52.735672 -311.192569 0 120 255
67.343080 -53.877432 -309.129749 0 120 255
66.592790 -55.019192 -307.066930 0 120 255
65.842500 -56.160952 -305.004111 0 120 255
65.070797 -57.398272 -303.006526 0 120 255
64.291456 -58.669675 -301.032207 0 120 255
63.512116 -59.941079 -299.057888 0 120 255
62.732775 -61.212482 -297.083569 0 120 255
61.960261 -62.562376 -295.160323 0 120 255
61.190774 -63.947065 -293.259718 0 120 255
60.421287 -65.331754 -291.359113 0 120 255
59.651800 -66.716443 -289.458508 0 120 255
58.911490 -68.172301 -287.601097 0 120 255
58.186979 -69.666699 -285.767076 0 120 255
57.462469 -71.161097 -283.933055 0 120 255
56.737959 -72.655495 -282.099034 0 120 255
56.058721 -74.218420 -280.306795 0 120 255
55.409083 -75.826149 -278.541873 0 120 255
54.759444 -77.433878 -276.776950 0 120 255
54.109805 -79.041606 -275.012028 0 120 255
53.515531 -80.716196 -273.292481 0 120 255
52.964645 -82.443184 -271.608494 0 120 255
52.413759 -84.170172 -269.924507 0 120 255
51.862873 -85.897159 -268.240521 0 120 255
51.372218 -87.687987 -266.608265 0 120 255
50.937915 -89.538542 -265.024410 0 120 255
50.503612 -91.389097 -263.440554 0 120 255
50.069308 -93.239653 -261.856698 0 120 255
49.695965 -95.148645 -260.331462 0 120 255
49.390628 -97.122831 -258.871622 0 120 255
49.085292 -99.097017 -257.411782 0 120 255
48.779956 -101.071203 -255.951942 0 120 255
48.533351 -103.095966 -254.556307 0 120 255
48.364997 -105.188114 -253.246212 0 120 255
48.196642 -107.280262 -251.936117 0 120 255
48.028287 -109.372409 -250.626022 0 120 255
47.914592 -111.505360 -249.383158 0 120 255
47.888238 -113.703511 -248.247724 0 120 255
47.861885 -115.901662 -247.112289 0 120 255
47.835532 -118.099812 -245.976855 0 120 255
47.858799 -120.327960 -244.908484 0 120 255
47.977874 -122.614024 -243.969599 0 120 255
48.096949 -124.900088 -243.030715 0 120 255
48.216024 -127.186153 -242.091830 0 120 255
48.379314 -129.491354 -241.216537 0 120 255
48.646940 -131.841713 -240.491307 0 120 255
48.914565 -134.192073 -239.766078 0 120 255
49.182191 -136.542433 -239.040848 0 120 255
49.488548 -138.901949 -238.372720 0 120 255
49.908505 -141.288320 -237.872079 0 120 255
50.328463 -143.674691 -237.371439 0 120 255
50.748420 -146.061063 -236.870798 0 120 255
51.201603 -148.448297 -236.418358 0 120 255
51.778958 -150.838755 -236.146061 0 120 255
52.356313 -153.229212 -235.873765 0 120 255
52.933668 -155.619670 -235.601468 0 120 255
53.538581 -158.005022 -235.366858 0 120 255
54.279804 -160.365115 -235.318662 0 120 255
55.021027 -162.725207 -235.270466 0 120 255
55.762251 -165.085300 -235.222270 0 120 255
56.525000 -167.437089 -235.200597 0 120 255
57.437711 -169.731022 -235.363700 0 120 255
58.350422 -172.024955 -235.526803 0 120 255
59.263133 -174.318888 -235.689907 0 120 255
60.190769 -176.604338 -235.868771 0 120 255
61.282950 -178.796271 -236.221399 0 120 255
62.375130 -180.988204 -236.574026 0 120 255
63.467310 -183.180137 -236.926653 0 120 255
64.567161 -185.366462 -237.285799 0 120 255
65.846023 -187.421911 -237.797086 0 120 255
67.124885 -189.477360 -238.308373 0 120 255
68.403747 -191.532809 -238.819659 0 120 255
69.682609 -193.588258 -239.330946 0 120 255
71.152949 -195.475776 -239.961101 0 120 255
72.623423 -197.363176 -240.591339 0 120 255
74.093897 -199.250577 -241.221577 0 120 255
75.564370 -201.137977 -241.851815 0 120 255
77.219324 -202.838539 -242.550206 0 120 255
78.882405 -204.530868 -243.251601 0 120 255
80.545486 -206.223198 -243.952995 0 120 255
82.208567 -207.915528 -244.654389 0 120 255
84.043889 -209.410036 -245.370999 0 120 255
85.894891 -210.886534 -246.088995 0 120 255
87.745893 -212.363033 -246.806990 0 120 255
89.596895 -213.839531 -247.524985 0 120 255
91.602029 -215.115723 -248.205622 0 120 255
93.629071 -216.363444 -248.880948 0 120 255
95.656113 -217.611165 -249.556274 0 120 255
97.683155 -218.858886 -250.231600 0 120 255
99.840227 -219.912495 -250.820180 0 120 255
102.023042 -220.927675 -251.391586 0 120 255
104.205856 -221.942855 -251.962992 0 120 255
106.388670 -222.958035 -252.534398 0 120 255
108.672017 -223.793513 -252.975634 0 120 255
110.981431 -224.582398 -253.383118 0 120 255
113.290844 -225.371282 -253.790603 0 120 255
115.600258 -226.160167 -254.198087 0 120 255
117.976506 -226.790964 -254.440515 0 120 255
120.374609 -227.370065 -254.628968 0 120 255
122.772713 -227.949165 -254.817422 0 120 255
125.170817 -228.528266 -255.005875 0 120 255
127.599643 -228.976435 -255.004859 0 120 255
130.040829 -229.371933 -254.927624 0 120 255
132.482016 -229.767431 -254.850388 0 120 255
134.923202 -230.162929 -254.773153 0 120 255
137.358709 -230.458132 -254.493658 0 120 255
139.791454 -230.704539 -254.115754 0 120 255
142.224198 -230.950945 -253.737850 0 120 255
144.656943 -231.197351 -253.359947 0 120 255
147.049524 -231.375918 -252.778750 0 120 255
149.418746 -231.515030 -252.079316 0 120 255
151.787968 -231.654143 -251.379882 0 120 255
154.157190 -231.793255 -250.680448 0 120 255
156.455907 -231.895639 -249.787678 0 120 255
158.705978 -231.972682 -248.761509 0 120 255
160.956048 -232.049725 -247.735341 0 120 255
163.206118 -232.126767 -246.709173 0 120 255
165.360633 -232.185449 -245.507663 0 120 255
167.437282 -232.229168 -244.163270 0 120 255
169.513931 -232.272887 -242.818878 0 120 255
171.590580 -232.316606 -241.474485 0 120 255
173.551761 -232.348012 -239.978024 0 120 255
175.402043 -232.367593 -238.335512 0 120 255
177.252325 -232.387175 -236.693000 0 120 255
179.102608 -232.406756 -235.050488 0 120 255
180.823771 -232.418396 -233.283363 0 120 255
182.398859 -232.421053 -231.375258 0 120 255
183.973948 -232.423710 -229.467153 0 120 255
185.549036 -232.426366 -227.559049 0 120 255
186.988579 -232.425153 -225.555837 0 120 255
188.247133 -232.418773 -223.425632 0 120 255
189.505688 -232.412393 -221.295427 0 120 255
190.764242 -232.406013 -219.165222 0 120 255
191.887931 -232.398291 -216.969011 0 120 255
192.798121 -232.388444 -214.668309 0 120 255
193.708312 -232.378598 -212.367607 0 120 255
194.618503 -232.368751 -210.066905 0 120 255
195.400914 -232.358833 -207.726880 0 120 255
195.941758 -232.348781 -205.312515 0 120 255
196.482603 -232.338729 -202.898150 0 120 255
197.023447 -232.328676 -200.483784 0 120 255
197.448834 -232.318937 -198.052803 0 120 255
197.610717 -232.309913 -195.583899 0 120 255
197.772599 -232.300889 -193.114995 0 120 255
197.934482 -232.291865 -190.646092 0 120 255
197.996984 -232.282995 -188.178270 0 120 255
197.781363 -232.274556 -185.713476 0 120 255
197.565743 -232.266118 -183.248682 0 120 255
197.350122 -232.257680 -180.783888 0 120 255
197.053369 -232.248998 -178.332375 0 120 255
196.471851 -232.239462 -175.927480 0 120 255
195.890333 -232.229925 -173.522586 0 120 255
195.308816 -232.220389 -171.117691 0 120 255
194.665075 -232.210216 -168.732775 0 120 255
193.738050 -232.197145 -166.438821 0 120 255
192.811026 -232.184075 -164.144866 0 120 255
191.884001 -232.171004 -161.850911 0 120 255
190.912985 -232.157068 -159.578522 0 120 255
189.667990 -232.137740 -157.440442 0 120 255
188.422995 -232.118413 -155.302362 0 120 255
187.177999 -232.099086 -153.164282 0 120 255
185.905491 -232.078904 -151.044915 0 120 255
184.375440 -232.050728 -149.100712 0 120 255
182.845390 -232.022552 -147.156509 0 120 255
181.315340 -231.994375 -145.212306 0 120 255
179.771721 -231.965603 -143.280366 0 120 255
177.993146 -231.926515 -141.560798 0 120 255
176.214571 -231.887427 -139.841229 0 120 255
174.435996 -231.848339 -138.121660 0 120 255
172.654781 -231.809097 -136.405213 0 120 255
170.666278 -231.757836 -134.933819 0 120 255
168.677774 -231.706574 -133.462425 0 120 255
166.689271 -231.655312 -131.991032 0 120 255
164.700767 -231.604051 -130.519638 0 120 255
162.546617 -231.540747 -129.305326 0 120 255
160.387431 -231.477078 -128.098829 0 120 255
158.228244 -231.413409 -126.892332 0 120 255
156.069058 -231.349740 -125.685836 0 120 255
153.787405 -231.275406 -124.734996 0 120 255
151.496299 -231.200250 -123.803890 0 120 255
149.205193 -231.125094 -122.872784 0 120 255
146.914087 -231.049937 -121.941678 0 120 255
144.539225 -230.966493 -121.259040 0 120 255
142.153600 -230.881984 -120.608330 0 120 255
139.767974 -230.797475 -119.957620 0 120 255
137.382349 -230.712966 -119.306909 0 120 255
134.946845 -230.623699 -118.893050 0 120 255
132.502113 -230.533552 -118.523007 0 120 255
130.057381 -230.443405 -118.152963 0 120 255
127.612649 -230.353258 -117.782920 0 120 255
125.147008 -230.262780 -117.634979 0 120 255
122.676193 -230.172221 -117.542000 0 120 255
120.205377 -230.081662 -117.449021 0 120 255
117.734562 -229.991102 -117.356042 0 120 255
115.267238 -229.901529 -117.468605 0 120 255
112.801020 -229.812267 -117.646291 0 120 255
110.334801 -229.723006 -117.823977 0 120 255
107.868583 -229.633744 -118.001662 0 120 255
105.425953 -229.546103 -118.367085 0 120 255
102.992624 -229.459101 -118.806534 0 120 255
100.559295 -229.372098 -119.245982 0 120 255
98.125967 -229.285096 -119.685431 0 120 255
95.732322 -229.200178 -120.294101 0 120 255
93.357781 -229.116263 -120.984238 0 120 255
90.983241 -229.032348 -121.674376 0 120 255
88.608700 -228.948434 -122.364513 0 120 255
86.286289 -228.866971 -123.205233 0 120 255
83.994117 -228.786930 -124.133304 0 120 255
81.701946 -228.706889 -125.061374 0 120 255
79.409774 -228.626848 -125.989445 0 120 255
77.178913 -228.549517 -127.049786 0 120 255
74.990527 -228.474064 -128.201762 0 120 255
72.802142 -228.398610 -129.353738 0 120 255
70.613756 -228.323157 -130.505714 0 120 255
68.492943 -228.250585 -131.772244 0 120 255
66.427722 -228.180384 -133.133018 0 120 255
64.362500 -228.110182 -134.493792 0 120 255
62.297279 -228.039981 -135.854566 0 120 255
60.303306 -227.972739 -137.313016 0 120 255
58.378734 -227.908378 -138.866610 0 120 255
56.454162 -227.844018 -140.420203 0 120 255
54.529590 -227.779658 -141.973797 0 120 255
52.677656 -227.718248 -143.609199 0 120 255
50.909452 -227.660240 -145.338898 0 120 255
49.141247 -227.602231 -147.068598 0 120 255
47.373042 -227.544223 -148.798297 0 120 255
45.676840 -227.489087 -150.595068 0 120 255
44.079035 -227.437877 -152.483499 0 120 255
42.481231 -227.386667 -154.371931 0 120 255
40.883427 -227.335457 -156.260362 0 120 255
39.355193 -227.286982 -158.202362 0 120 255
37.940181 -227.242959 -160.231543 0 120 255
36.525168 -227.198936 -162.260724 0 120 255
35.110156 -227.154913 -164.289905 0 120 255
33.760713 -227.113431 -166.360485 0 120 255
32.539301 -227.076909 -168.511901 0 120 255
31.317889 -227.040387 -170.663317 0 120 255
30.096476 -227.003865 -172.814734 0 120 255
28.935243 -226.969651 -174.996780 0 120 255
27.916584 -226.940904 -177.251393 0 120 255
26.897924 -226.912157 -179.506006 0 120 255
25.879264 -226.883410 -181.760618 0 120 255
24.914213 -226.856695 -184.036578 0 120 255
24.105797 -226.835920 -186.374913 0 120 255
23.297382 -226.815145 -188.713247 0 120 255
22.488966 -226.794370 -191.051581 0 120 255
21.726582 -226.775323 -193.403530 0 120 255
21.134087 -226.762652 -195.805729 0 120 255
20.541592 -226.749982 -198.207929 0 120 255
19.949097 -226.737312 -200.610128 0 120 255
19.394270 -226.726042 -203.019832 0 120 255
19.021508 -226.721542 -205.465809 0 120 255
18.648745 -226.717041 -207.911785 0 120 255
18.275983 -226.712540 -210.357762 0 120 255
17.931959 -226.709094 -212.806802 0 120 255
17.780777 -226.712725 -215.276398 0 120 255
17.629595 -226.716357 -217.745994 0 120 255
17.478413 -226.719988 -220.215590 0 120 255
17.346713 -226.724330 -222.685503 0 120 255
17.416937 -226.736031 -225.158700 0 120 255
17.487161 -226.747733 -227.631897 0 120 255
17.557385 -226.759434 -230.105094 0 120 255
17.637760 -226.771502 -232.577549 0 120 255
17.927174 -226.791117 -235.034707 0 120 255
18.216589 -226.810731 -237.491866 0 120 255
18.506003 -226.830345 -239.949024 0 120 255
18.796414 -226.849995 -242.406020 0 120 255
19.300740 -226.877314 -244.828144 0 120 255
19.805067 -226.904633 -247.250267 0 120 255
20.309393 -226.931952 -249.672391 0 120 255
20.813719 -226.959271 -252.094514 0 120 255
21.519005 -226.993712 -254.465485 0 120 255
22.232019 -227.028427 -256.834489 0 120 255
22.945033 -227.063142 -259.203493 0 120 255
23.658047 -227.097857 -261.572497 0 120 255
24.555839 -227.139052 -263.877007 0 120 255
25.469418 -227.180800 -266.176008 0 120 255
26.382997 -227.222549 -268.475008 0 120 255
27.296577 -227.264298 -270.774009 0 120 255
28.377965 -227.311882 -272.997851 0 120 255
29.482326 -227.360265 -275.211405 0 120 255
30.586686 -227.408648 -277.424959 0 120 255
31.691046 -227.457031 -279.638513 0 120 255
32.945917 -227.510596 -281.768883 0 120 255
34.229910 -227.565164 -283.883158 0 120 255
35.513902 -227.619731 -285.997432 0 120 255
36.797895 -227.674298 -288.111707 0 120 255
38.215062 -227.733381 -290.137384 0 120 255
39.666324 -227.793619 -292.140378 0 120 255
41.117586 -227.853857 -294.143371 0 120 255
42.568848 -227.914096 -296.146365 0 120 255
44.136352 -227.978224 -298.057767 0 120 255
45.741699 -228.043619 -299.939350 0 120 255
47.347047 -228.109013 -301.820933 0 120 255
48.952395 -228.174408 -303.702516 0 120 255
50.657703 -228.243113 -305.491791 0 120 255
52.403325 -228.313153 -307.243840 0 120 255
54.148946 -228.383193 -308.995888 0 120 255
55.894568 -228.453233 -310.747936 0 120 255
57.724842 -228.526074 -312.408953 0 120 255
59.596660 -228.600290 -314.025295 0 120 255
61.468478 -228.674505 -315.641638 0 120 255
63.340296 -228.748721 -317.257980 0 120 255
65.282632 -228.825370 -318.786286 0 120 255
67.266566 -228.903453 -320.262661 0 120 255
69.250500 -228.981537 -321.739035 0 120 255
71.234434 -229.059621 -323.215410 0 120 255
73.276051 -229.139709 -324.608215 0 120 255
75.358230 -229.221206 -325.942256 0 120 255
77.440408 -229.302702 -327.276296 0 120 255
79.522587 -229.384199 -328.610336 0 120 255
81.650835 -229.466246 -329.866846 0 120 255
83.817506 -229.548751 -331.058695 0 120 255
85.984177 -229.631257 -332.250544 0 120 255
88.150848 -229.713762 -333.442393 0 120 255
90.352811 -229.790983 -334.565442 0 120 255
92.589600 -229.862990 -335.620603 0 120 255
94.826389 -229.934996 -336.675763 0 120 255
97.063178 -230.007003 -337.730923 0 120 255
99.326325 -230.068975 -338.726421 0 120 255
101.620244 -230.119231 -339.652261 0 120 255
103.914164 -230.169487 -340.578101 0 120 255
106.208084 -230.219743 -341.503941 0 120 255
108.521142 -230.257221 -342.379060 0 120 255
110.860700 -230.277006 -343.183953 0 120 255
113.200257 -230.296792 -343.988846 0 120 255
115.539815 -230.316577 -344.793740 0 120 255
117.892783 -230.322391 -345.556449 0 120 255
120.267879 -230.305151 -346.249554 0 120 255
122.642975 -230.287912 -346.942659 0 120 255
125.018071 -230.270673 -347.635764 0 120 255
127.402139 -230.239545 -348.294676 0 120 255
129.803990 -230.180889 -348.885812 0 120 255
132.205842 -230.122233 -349.476948 0 120 255
134.607694 -230.063577 -350.068083 0 120 255
137.015210 -229.992153 -350.632281 0 120 255
139.436376 -229.889958 -351.131563 0 120 255
141.857543 -229.787764 -351.630845 0 120 255
144.278709 -229.685569 -352.130126 0 120 255
146.703187 -229.572471 -352.608928 0 120 255
149.137538 -229.426862 -353.026670 0 120 255
151.571889 -229.281254 -353.444411 0 120 255
154.006239 -229.135646 -353.862153 0 120 255
156.442337 -228.981453 -354.265013 0 120 255
158.885046 -228.794782 -354.611568 0 120 255
161.327755 -228.608110 -354.958123 0 120 255
163.770464 -228.421438 -355.304678 0 120 255
166.213962 -228.228919 -355.641381 0 120 255
168.661399 -228.007212 -355.928908 0 120 255
171.108836 -227.785505 -356.216435 0 120 255
173.556273 -227.563798 -356.503962 0 120 255
176.003681 -227.340875 -356.790769 0 120 255
178.450886 -227.109438 -357.072540 0 120 255
180.898092 -226.878001 -357.354311 0 120 255
183.345298 -226.646565 -357.636082 0 120 255
185.792503 -226.415127 -357.917854 0 120 255
188.239706 -226.183679 -358.199637 0 120 255
190.686909 -225.952231 -358.481421 0 120 255
193.134112 -225.720783 -358.763204 0 120 255
195.581316 -225.489336 -359.044987 0 120 255
198.028520 -225.257892 -359.326763 0 120 255
200.475724 -225.026448 -359.608539 0 120 255
202.922929 -224.795004 -359.890315 0 120 255
205.370133 -224.563560 -360.172091 0 120 255
