ply
format ascii 1.0
element vertex 385
property float x
property float y
property float z
property uchar red
property uchar green
property uchar blue
end_header
77.430455 -42.474882 -360.397637 0 120 255
77.187560 -42.528710 -357.936005 0 120 255
76.944664 -42.582538 -355.474374 0 120 255
76.701769 -42.636365 -353.012742 0 120 255
76.458873 -42.690193 -350.551110 0 120 255
76.213464 -42.753704 -348.089960 0 120 255
75.967946 -42.817637 -345.628830 0 120 255
75.722428 -42.881569 -343.167701 0 120 255
75.476909 -42.945502 -340.706571 0 120 255
75.069732 -43.376214 -338.307567 0 120 255
74.647816 -43.840367 -335.914228 0 120 255
74.225900 -44.304520 -333.520888 0 120 255
73.803984 -44.768673 -331.127549 0 120 255
73.255612 -45.497594 -328.830724 0 120 255
72.688571 -46.265605 -326.548149 0 120 255
72.121529 -47.033616 -324.265574 0 120 255
71.554488 -47.801627 -321.982999 0 120 255
70.896051 -48.759144 -319.801323 0 120 255
70.218417 -49.756467 -317.640841 0 120 255
69.540782 -50.753791 -315.480359 0 120 255
68.863148 -51.751115 -313.319877 0 120 255
68.128401 -52.884085 -311.248700 0 120 255
67.377705 -54.054935 -309.202462 0 120 255
66.627009 -55.225785 -307.156223 0 120 255
65.876313 -56.396635 -305.109985 0 120 255
65.099974 -57.668824 -303.136516 0 120 255
64.314497 -58.977128 -301.188982 0 120 255
63.529019 -60.285433 -299.241448 0 120 255
62.743542 -61.593737 -297.293913 0 120 255
61.959618 -62.984093 -295.404624 0 120 255
61.176382 -64.410796 -293.541137 0 120 255
60.393147 -65.837499 -291.677649 0 120 255
59.609911 -67.264202 -289.814161 0 120 255
58.850298 -68.763450 -287.999686 0 120 255
58.103466 -70.301945 -286.211727 0 120 255
57.356633 -71.840441 -284.423768 0 120 255
56.609801 -73.378937 -282.635809 0 120 255
55.903159 -74.985579 -280.893559 0 120 255
55.222767 -76.636728 -279.181164 0 120 255
54.542375 -78.287878 -277.468769 0 120 255
53.861983 -79.939028 -275.756374 0 120 255
53.232990 -81.655436 -274.091235 0 120 255
52.644222 -83.422914 -272.463077 0 120 255
52.055453 -85.190392 -270.834919 0 120 255
51.466685 -86.957871 -269.206762 0 120 255
50.935709 -88.786945 -267.630402 0 120 255
50.458707 -90.673545 -266.102418 0 120 255
49.981705 -92.560145 -264.574434 0 120 255
49.504704 -94.446746 -263.046451 0 120 255
49.087904 -96.389345 -261.575760 0 120 255
48.738113 -98.394277 -260.168840 0 120 255
48.388322 -100.399208 -258.761921 0 120 255
48.038531 -102.404139 -257.355001 0 120 255
47.748303 -104.457321 -256.010076 0 120 255
47.537199 -106.574602 -254.747505 0 120 255
47.326095 -108.691882 -253.484934 0 120 255
47.114991 -110.809162 -252.222363 0 120 255
46.960681 -112.965187 -251.024408 0 120 255
46.896787 -115.182894 -249.929320 0 120 255
46.832893 -117.400602 -248.834232 0 120 255
46.768999 -119.618309 -247.739144 0 120 255
46.757757 -121.864257 -246.708473 0 120 255
46.847699 -124.164477 -245.801597 0 120 255
46.937642 -126.464696 -244.894721 0 120 255
47.027585 -128.764916 -243.987844 0 120 255
47.165220 -131.082784 -243.142132 0 120 255
47.414734 -133.442051 -242.439901 0 120 255
47.664249 -135.801317 -241.737670 0 120 255
47.913763 -138.160584 -241.035439 0 120 255
48.205509 -140.527727 -240.388249 0 120 255
48.620194 -142.917796 -239.901288 0 120 255
49.034878 -145.307865 -239.414326 0 120 255
49.449562 -147.697934 -238.927365 0 120 255
49.900645 -150.087740 -238.486964 0 120 255
50.486444 -152.476568 -238.218892 0 120 255
51.072244 -154.865397 -237.950820 0 120 255
51.658044 -157.254225 -237.682748 0 120 255
52.274009 -159.636945 -237.451144 0 120 255
53.037282 -161.989831 -237.397634 0 120 255
53.800556 -164.342718 -237.344124 0 120 255
54.563830 -166.695604 -237.290614 0 120 255
55.350559 -169.039308 -237.262812 0 120 255
56.297809 -171.320162 -237.410954 0 120 255
57.245058 -173.601017 -237.559095 0 120 255
58.192308 -175.881871 -237.707237 0 120 255
59.155752 -178.153508 -237.870710 0 120 255
60.292889 -180.326273 -238.198634 0 120 255
61.430027 -182.499039 -238.526557 0 120 255
62.567165 -184.671804 -238.854481 0 120 255
63.712720 -186.838390 -239.188856 0 120 255
65.044094 -188.868570 -239.665658 0 120 255
66.375467 -190.898750 -240.142460 0 120 255
67.706841 -192.928930 -240.619261 0 120 255
69.038539 -194.958821 -241.096244 0 120 255
70.565624 -196.815164 -241.682357 0 120 255
72.092709 -198.671507 -242.268469 0 120 255
73.619794 -200.527850 -242.854581 0 120 255
75.146880 -202.384193 -243.440694 0 120 255
76.859214 -204.048369 -244.086339 0 120 255
78.579216 -205.704590 -244.734450 0 120 255
80.299219 -207.360812 -245.382560 0 120 255
82.019222 -209.017033 -246.030670 0 120 255
83.908747 -210.471342 -246.686477 0 120 255
85.813199 -211.907871 -247.342961 0 120 255
87.717650 -213.344401 -247.999445 0 120 255
89.622102 -214.780931 -248.655929 0 120 255
91.675060 -216.014600 -249.269047 0 120 255
93.748631 -217.220113 -249.876147 0 120 255
95.822202 -218.425625 -250.483246 0 120 255
97.895773 -219.631138 -251.090345 0 120 255
100.091672 -220.641694 -251.606516 0 120 255
102.311335 -221.614376 -252.105023 0 120 255
104.530998 -222.587059 -252.603530 0 120 255
106.750661 -223.559742 -253.102037 0 120 255
109.062028 -224.353615 -253.468236 0 120 255
111.396796 -225.101861 -253.800674 0 120 255
113.731563 -225.850107 -254.133112 0 120 255
116.066330 -226.598354 -254.465550 0 120 255
118.458945 -227.191023 -254.632833 0 120 255
120.870213 -227.733528 -254.746864 0 120 255
123.281480 -228.276033 -254.860895 0 120 255
125.692747 -228.818538 -254.974926 0 120 255
128.126445 -229.234001 -254.901246 0 120 255
130.569051 -229.599003 -254.753008 0 120 255
133.011657 -229.964005 -254.604770 0 120 255
135.454263 -230.329007 -254.456533 0 120 255
137.884226 -230.598662 -254.109265 0 120 255
140.308111 -230.822472 -253.666299 0 120 255
142.731995 -231.046282 -253.223333 0 120 255
145.155880 -231.270092 -252.780367 0 120 255
147.534290 -231.432132 -252.138300 0 120 255
149.886550 -231.558649 -251.381732 0 120 255
152.238809 -231.685166 -250.625164 0 120 255
154.591068 -231.811683 -249.868595 0 120 255
156.869319 -231.907832 -248.923491 0 120 255
159.097054 -231.983253 -247.849696 0 120 255
161.324788 -232.058674 -246.775901 0 120 255
163.552522 -232.134095 -245.702105 0 120 255
165.682835 -232.194206 -244.457767 0 120 255
167.734567 -232.241967 -243.075870 0 120 255
169.786298 -232.289727 -241.693972 0 120 255
171.838030 -232.337488 -240.312074 0 120 255
173.773587 -232.374508 -238.782353 0 120 255
175.598653 -232.401311 -237.112042 0 120 255
177.423719 -232.428114 -235.441730 0 120 255
179.248786 -232.454918 -233.771419 0 120 255
180.944831 -232.474541 -231.979938 0 120 255
182.496289 -232.486119 -230.052668 0 120 255
184.047746 -232.497696 -228.125397 0 120 255
185.599204 -232.509273 -226.198127 0 120 255
187.015611 -232.517008 -224.178282 0 120 255
188.253370 -232.519659 -222.035977 0 120 255
189.491129 -232.522310 -219.893672 0 120 255
190.728888 -232.524962 -217.751367 0 120 255
191.832328 -232.525808 -215.544749 0 120 255
192.725133 -232.523822 -213.237278 0 120 255
193.617938 -232.521837 -210.929808 0 120 255
194.510743 -232.519851 -208.622337 0 120 255
195.276123 -232.517075 -206.276582 0 120 255
195.802950 -232.512817 -203.859153 0 120 255
196.329777 -232.508560 -201.441725 0 120 255
196.856604 -232.504302 -199.024296 0 120 255
197.268014 -232.499559 -196.590867 0 120 255
197.418724 -232.493719 -194.121297 0 120 255
197.569435 -232.487879 -191.651726 0 120 255
197.720146 -232.482038 -189.182156 0 120 255
197.771189 -232.475607 -186.714083 0 120 255
197.546437 -232.467540 -184.250154 0 120 255
197.321685 -232.459474 -181.786225 0 120 255
197.096933 -232.451407 -179.322296 0 120 255
196.790504 -232.442487 -176.872035 0 120 255
196.201010 -232.430608 -174.469145 0 120 255
195.611516 -232.418730 -172.066255 0 120 255
195.022022 -232.406852 -169.663364 0 120 255
194.369608 -232.393894 -167.280912 0 120 255
193.434983 -232.376095 -164.990130 0 120 255
192.500358 -232.358295 -162.699347 0 120 255
191.565732 -232.340495 -160.408565 0 120 255
190.586378 -232.321555 -158.139909 0 120 255
189.333590 -232.295641 -156.006513 0 120 255
188.080802 -232.269728 -153.873118 0 120 255
186.828014 -232.243814 -151.739722 0 120 255
185.547026 -232.216908 -149.625676 0 120 255
184.008711 -232.180941 -147.688199 0 120 255
182.470395 -232.144974 -145.750722 0 120 255
180.932080 -232.109006 -143.813245 0 120 255
179.379611 -232.072390 -141.888687 0 120 255
177.592353 -232.025008 -140.178426 0 120 255
175.805096 -231.977625 -138.468166 0 120 255
174.017838 -231.930243 -136.757905 0 120 255
172.227462 -231.882683 -135.051375 0 120 255
170.230147 -231.823362 -133.592355 0 120 255
168.232832 -231.764042 -132.133334 0 120 255
166.235518 -231.704721 -130.674314 0 120 255
164.238203 -231.645401 -129.215294 0 120 255
162.075218 -231.574933 -128.017220 0 120 255
159.907596 -231.504153 -126.826452 0 120 255
157.739974 -231.433374 -125.635684 0 120 255
155.572351 -231.362594 -124.444915 0 120 255
153.282884 -231.282595 -123.513608 0 120 255
150.984333 -231.201908 -122.601644 0 120 255
148.685782 -231.121221 -121.689680 0 120 255
146.387231 -231.040534 -120.777717 0 120 255
144.006155 -230.953590 -120.117711 0 120 255
141.614712 -230.865861 -119.489356 0 120 255
139.223269 -230.778131 -118.861001 0 120 255
136.831826 -230.690402 -118.232646 0 120 255
134.392237 -230.600323 -117.844144 0 120 255
131.943893 -230.509817 -117.499257 0 120 255
129.495550 -230.419311 -117.154370 0 120 255
127.047206 -230.328805 -116.809483 0 120 255
124.580126 -230.238337 -116.689234 0 120 255
122.108475 -230.147879 -116.623793 0 120 255
119.636823 -230.057421 -116.558351 0 120 255
117.165172 -229.966963 -116.492910 0 120 255
114.699417 -229.877599 -116.634781 0 120 255
112.235507 -229.788578 -116.841542 0 120 255
109.771598 -229.699557 -117.048303 0 120 255
107.307688 -229.610535 -117.255064 0 120 255
104.869785 -229.523205 -117.650509 0 120 255
102.442028 -229.436534 -118.119558 0 120 255
100.014270 -229.349863 -118.588607 0 120 255
97.586513 -229.263191 -119.057656 0 120 255
95.200693 -229.178670 -119.696179 0 120 255
92.834869 -229.095174 -120.415504 0 120 255
90.469044 -229.011678 -121.134829 0 120 255
88.103220 -228.928182 -121.854154 0 120 255
85.791478 -228.847210 -122.723726 0 120 255
83.510830 -228.767689 -123.679678 0 120 255
81.230181 -228.688168 -124.635631 0 120 255
78.949533 -228.608647 -125.591584 0 120 255
76.731749 -228.531885 -126.678999 0 120 255
74.557153 -228.457018 -127.856731 0 120 255
72.382557 -228.382152 -129.034463 0 120 255
70.207961 -228.307285 -130.212196 0 120 255
68.102051 -228.235343 -131.503370 0 120 255
66.052203 -228.165787 -132.887137 0 120 255
64.002355 -228.096231 -134.270904 0 120 255
61.952508 -228.026676 -135.654671 0 120 255
59.974590 -227.960097 -137.134853 0 120 255
58.066208 -227.896397 -138.708240 0 120 255
56.157825 -227.832696 -140.281626 0 120 255
54.249443 -227.768996 -141.855012 0 120 255
52.413990 -227.708255 -143.508927 0 120 255
50.661987 -227.650901 -145.254986 0 120 255
48.909984 -227.593548 -147.001044 0 120 255
47.157981 -227.536194 -148.747103 0 120 255
45.477959 -227.481708 -150.559050 0 120 255
43.895602 -227.431112 -152.460395 0 120 255
42.313246 -227.380517 -154.361740 0 120 255
40.730889 -227.329921 -156.263085 0 120 255
39.217865 -227.282046 -158.216991 0 120 255
37.816880 -227.238566 -160.255832 0 120 255
36.415895 -227.195087 -162.294674 0 120 255
35.014910 -227.151607 -164.333516 0 120 255
33.679124 -227.110653 -166.412957 0 120 255
32.469747 -227.074594 -168.571112 0 120 255
31.260369 -227.038536 -170.729267 0 120 255
30.050992 -227.002477 -172.887421 0 120 255
28.901401 -226.968710 -175.075635 0 120 255
27.892424 -226.940332 -177.334548 0 120 255
26.883447 -226.911954 -179.593460 0 120 255
25.874470 -226.883576 -181.852373 0 120 255
24.918746 -226.857216 -184.132266 0 120 255
24.117441 -226.836709 -186.472995 0 120 255
23.316136 -226.816201 -188.813725 0 120 255
22.514831 -226.795694 -191.154455 0 120 255
21.759304 -226.776905 -193.508602 0 120 255
21.171354 -226.764404 -195.911867 0 120 255
20.583404 -226.751904 -198.315133 0 120 255
19.995454 -226.739403 -200.718398 0 120 255
19.445045 -226.728298 -203.129089 0 120 255
19.074421 -226.723876 -205.575339 0 120 255
18.703797 -226.719455 -208.021590 0 120 255
18.333173 -226.715033 -210.467841 0 120 255
17.991291 -226.711668 -212.917143 0 120 255
17.840137 -226.715315 -215.386691 0 120 255
17.688982 -226.718962 -217.856238 0 120 255
17.537828 -226.722609 -220.325786 0 120 255
17.406272 -226.726969 -222.795658 0 120 255
17.474815 -226.738613 -225.268853 0 120 255
17.543358 -226.750257 -227.742048 0 120 255
17.611902 -226.761901 -230.215242 0 120 255
17.690790 -226.773918 -232.687690 0 120 255
17.977276 -226.793431 -235.145142 0 120 255
18.263762 -226.812943 -237.602594 0 120 255
18.550248 -226.832455 -240.060046 0 120 255
18.837964 -226.852012 -242.517299 0 120 255
19.338561 -226.879186 -244.940147 0 120 255
19.839159 -226.906361 -247.362994 0 120 255
20.339757 -226.933536 -249.785841 0 120 255
20.840355 -226.960710 -252.208688 0 120 255
21.541728 -226.995013 -254.580781 0 120 255
22.250593 -227.029581 -256.950979 0 120 255
22.959459 -227.064149 -259.321177 0 120 255
23.668325 -227.098717 -261.691375 0 120 255
24.562216 -227.139789 -263.997360 0 120 255
25.471694 -227.181409 -266.297934 0 120 255
26.381172 -227.223029 -268.598509 0 120 255
27.290650 -227.264649 -270.899083 0 120 255
28.368492 -227.312118 -273.124598 0 120 255
29.469170 -227.360381 -275.339931 0 120 255
30.569848 -227.408644 -277.555265 0 120 255
31.670526 -227.456907 -279.770599 0 120 255
32.922365 -227.510369 -281.902697 0 120 255
34.203249 -227.564830 -284.018800 0 120 255
35.484133 -227.619291 -286.134904 0 120 255
36.765018 -227.673752 -288.251008 0 120 255
38.179853 -227.732761 -290.278247 0 120 255
39.628800 -227.792928 -292.282857 0 120 255
41.077746 -227.853095 -294.287467 0 120 255
42.526692 -227.913263 -296.292076 0 120 255
44.092643 -227.977343 -298.204675 0 120 255
45.696509 -228.042692 -300.087457 0 120 255
47.300374 -228.108041 -301.970240 0 120 255
48.904240 -228.173390 -303.853022 0 120 255
50.608791 -228.242076 -305.642931 0 120 255
52.353783 -228.312103 -307.395536 0 120 255
54.098775 -228.382129 -309.148141 0 120 255
55.843767 -228.452156 -310.900746 0 120 255
57.674040 -228.525004 -312.561664 0 120 255
59.546012 -228.599231 -314.177751 0 120 255
61.417984 -228.673459 -315.793837 0 120 255
63.289957 -228.747687 -317.409924 0 120 255
65.232948 -228.824363 -318.937285 0 120 255
67.217697 -228.902480 -320.412478 0 120 255
69.202446 -228.980596 -321.887672 0 120 255
71.187195 -229.058713 -323.362865 0 120 255
73.229980 -229.138807 -324.753836 0 120 255
75.313457 -229.220288 -326.085757 0 120 255
77.396933 -229.301769 -327.417677 0 120 255
79.480410 -229.383250 -328.749597 0 120 255
81.610178 -229.465259 -330.003402 0 120 255
83.778451 -229.547709 -331.192235 0 120 255
85.946723 -229.630158 -332.381067 0 120 255
88.114995 -229.712607 -333.569900 0 120 255
90.318663 -229.789726 -334.689473 0 120 255
92.557171 -229.861596 -335.740873 0 120 255
94.795679 -229.933467 -336.792273 0 120 255
97.034187 -230.005338 -337.843673 0 120 255
99.299062 -230.067148 -338.835100 0 120 255
101.594649 -230.117239 -339.756675 0 120 255
103.890235 -230.167331 -340.678249 0 120 255
106.185822 -230.217422 -341.599823 0 120 255
108.500517 -230.254736 -342.470457 0 120 255
110.841612 -230.274399 -343.270715 0 120 255
113.182707 -230.294061 -344.070974 0 120 255
115.523802 -230.313723 -344.871232 0 120 255
117.878242 -230.319428 -345.629222 0 120 255
120.254655 -230.302150 -346.317617 0 120 255
122.631069 -230.284872 -347.006011 0 120 255
125.007482 -230.267595 -347.694406 0 120 255
127.392794 -230.236449 -348.348619 0 120 255
129.795709 -230.177868 -348.935213 0 120 255
132.198624 -230.119287 -349.521808 0 120 255
134.601539 -230.060706 -350.108402 0 120 255
137.010044 -229.989370 -350.668171 0 120 255
139.431995 -229.887357 -351.163420 0 120 255
141.853946 -229.785344 -351.658669 0 120 255
144.275898 -229.683330 -352.153918 0 120 255
146.701094 -229.570413 -352.628878 0 120 255
149.135947 -229.425049 -353.043470 0 120 255
151.570800 -229.279686 -353.458061 0 120 255
154.005653 -229.134322 -353.872653 0 120 255
156.442199 -228.980356 -354.272609 0 120 255
158.885137 -228.793905 -354.617303 0 120 255
161.328075 -228.607455 -354.961998 0 120 255
163.771014 -228.421004 -355.306692 0 120 255
166.214698 -228.228667 -355.641812 0 120 255
168.662100 -228.007011 -355.929246 0 120 255
171.109502 -227.785355 -356.216680 0 120 255
173.556904 -227.563699 -356.504114 0 120 255
176.004275 -227.340819 -356.790838 0 120 255
178.451431 -227.109387 -357.072603 0 120 255
180.898587 -226.877955 -357.354368 0 120 255
183.345743 -226.646522 -357.636133 0 120 255
185.792899 -226.415089 -357.917900 0 120 255
188.240053 -226.183646 -358.199677 0 120 255
190.687206 -225.952203 -358.481455 0 120 255
193.134360 -225.720760 -358.763233 0 120 255
195.581514 -225.489317 -359.045010 0 120 255
198.028669 -225.257878 -359.326780 0 120 255
200.475823 -225.026439 -359.608550 0 120 255
202.922978 -224.794999 -359.890321 0 120 255
205.370133 -224.563560 -360.172091 0 120 255
