ply
format ascii 1.0
element vertex 385
property float x
property float y
property float z
property uchar red
property uchar green
property uchar blue
end_header
77.430455 -42.474882 -360.397637 0 120 255
77.187516 -42.528719 -357.935566 0 120 255
76.944578 -42.582557 -355.473495 0 120 255
76.701639 -42.636394 -353.011425 0 120 255
76.458700 -42.690232 -350.549354 0 120 255
76.215423 -42.768548 -348.087979 0 120 255
75.972132 -42.847913 -345.626634 0 120 255
75.728841 -42.927277 -343.165289 0 120 255
75.485550 -43.006641 -340.703944 0 120 255
75.198434 -43.361601 -338.273223 0 120 255
74.907495 -43.740597 -335.845173 0 120 255
74.616556 -44.119593 -333.417123 0 120 255
74.325618 -44.498589 -330.989073 0 120 255
74.008448 -45.106341 -328.612957 0 120 255
73.687596 -45.746212 -326.244133 0 120 255
73.366744 -46.386084 -323.875309 0 120 255
73.045892 -47.025955 -321.506485 0 120 255
72.714673 -47.868362 -319.205357 0 120 255
72.381375 -48.751374 -316.917801 0 120 255
72.048077 -49.634386 -314.630245 0 120 255
71.714780 -50.517398 -312.342689 0 120 255
71.384933 -51.576383 -310.132821 0 120 255
71.056014 -52.682633 -307.943818 0 120 255
70.727094 -53.788884 -305.754816 0 120 255
70.398175 -54.895134 -303.565813 0 120 255
70.084344 -56.151444 -301.459474 0 120 255
69.775735 -57.459700 -299.381750 0 120 255
69.467126 -58.767956 -297.304026 0 120 255
69.158518 -60.076212 -295.226303 0 120 255
68.874435 -61.510015 -293.232044 0 120 255
68.601020 -62.998432 -291.274094 0 120 255
68.327606 -64.486849 -289.316144 0 120 255
68.054192 -65.975267 -287.358195 0 120 255
67.812603 -67.566631 -285.481191 0 120 255
67.588120 -69.213328 -283.647696 0 120 255
67.363637 -70.860025 -281.814200 0 120 255
67.139154 -72.506722 -279.980705 0 120 255
66.951788 -74.235978 -278.223117 0 120 255
66.788791 -76.019441 -276.515369 0 120 255
66.625794 -77.802903 -274.807621 0 120 255
66.462797 -79.586366 -273.099874 0 120 255
66.340361 -81.434356 -271.461209 0 120 255
66.250227 -83.333737 -269.877562 0 120 255
66.160094 -85.233118 -268.293915 0 120 255
66.069960 -87.132499 -266.710267 0 120 255
66.022164 -89.080761 -265.187744 0 120 255
66.015117 -91.076072 -263.724052 0 120 255
66.008069 -93.071383 -262.260361 0 120 255
66.001022 -95.066694 -260.796669 0 120 255
66.036608 -97.097550 -259.385544 0 120 255
66.121760 -99.169730 -258.035534 0 120 255
66.206911 -101.241911 -256.685524 0 120 255
66.292062 -103.314091 -255.335513 0 120 255
66.418844 -105.410680 -254.029390 0 120 255
66.604242 -107.541637 -252.785059 0 120 255
66.789639 -109.672594 -251.540728 0 120 255
66.975036 -111.803551 -250.296397 0 120 255
67.199935 -113.949819 -249.087502 0 120 255
67.492597 -116.122353 -247.939391 0 120 255
67.785259 -118.294886 -246.791281 0 120 255
68.077920 -120.467420 -245.643171 0 120 255
68.406992 -122.648051 -244.522575 0 120 255
68.812931 -124.845776 -243.460067 0 120 255
69.218871 -127.043502 -242.397558 0 120 255
69.624810 -129.241227 -241.335049 0 120 255
70.059849 -131.441375 -240.290693 0 120 255
70.571685 -133.647917 -239.294245 0 120 255
71.083522 -135.854458 -238.297798 0 120 255
71.595358 -138.061000 -237.301350 0 120 255
72.132668 -140.266409 -236.317242 0 120 255
72.755964 -142.467997 -235.374788 0 120 255
73.379260 -144.669586 -234.432334 0 120 255
74.002555 -146.871174 -233.489879 0 120 255
74.650093 -149.069188 -232.557108 0 120 255
75.405085 -151.251358 -231.667259 0 120 255
76.160078 -153.433528 -230.777410 0 120 255
76.915070 -155.615697 -229.887562 0 120 255
77.689442 -157.792908 -229.003743 0 120 255
78.582662 -159.939706 -228.156911 0 120 255
79.475882 -162.086504 -227.310079 0 120 255
80.369103 -164.233302 -226.463247 0 120 255
81.276210 -166.375047 -225.619644 0 120 255
82.312647 -168.469726 -224.806116 0 120 255
83.349085 -170.564405 -223.992589 0 120 255
84.385522 -172.659084 -223.179062 0 120 255
85.429928 -174.749969 -222.366817 0 120 255
86.612827 -176.774921 -221.576861 0 120 255
87.795726 -178.799873 -220.786906 0 120 255
88.978625 -180.824824 -219.996950 0 120 255
90.163382 -182.848667 -219.207170 0 120 255
91.493952 -184.785441 -218.431157 0 120 255
92.824522 -186.722216 -217.655143 0 120 255
94.155091 -188.658991 -216.879129 0 120 255
95.485661 -190.595766 -216.103116 0 120 255
96.958630 -192.428202 -215.331537 0 120 255
98.435777 -194.257577 -214.560088 0 120 255
99.912924 -196.086952 -213.788640 0 120 255
101.390072 -197.916327 -213.017191 0 120 255
103.000272 -199.627209 -212.241626 0 120 255
104.620303 -201.329336 -211.465757 0 120 255
106.240334 -203.031462 -210.689888 0 120 255
107.860365 -204.733589 -209.914019 0 120 255
109.601953 -206.304200 -209.126713 0 120 255
111.358308 -207.858834 -208.338017 0 120 255
113.114662 -209.413468 -207.549321 0 120 255
114.871016 -210.968102 -206.760626 0 120 255
116.735379 -212.379612 -205.954458 0 120 255
118.618359 -213.766451 -205.145278 0 120 255
120.501340 -215.153291 -204.336098 0 120 255
122.384320 -216.540130 -203.526918 0 120 255
124.359891 -217.773951 -202.695568 0 120 255
126.356473 -218.973049 -201.859186 0 120 255
128.353055 -220.172146 -201.022805 0 120 255
130.349637 -221.371244 -200.186423 0 120 255
132.421794 -222.409436 -199.324552 0 120 255
134.515530 -223.401685 -198.455402 0 120 255
136.609266 -224.393933 -197.586253 0 120 255
138.703003 -225.386182 -196.717103 0 120 255
140.854008 -226.211983 -195.820516 0 120 255
143.024985 -226.979743 -194.914361 0 120 255
145.195961 -227.747502 -194.008207 0 120 255
147.366938 -228.515262 -193.102052 0 120 255
149.576030 -229.113620 -192.167875 0 120 255
151.801020 -229.641321 -191.222010 0 120 255
154.026010 -230.169021 -190.276145 0 120 255
156.251000 -230.696722 -189.330280 0 120 255
158.494579 -231.054877 -188.357077 0 120 255
160.747294 -231.329705 -187.370440 0 120 255
163.000009 -231.604533 -186.383802 0 120 255
165.252724 -231.879362 -185.397164 0 120 255
167.503384 -232.000603 -184.382486 0 120 255
169.752867 -232.033856 -183.351744 0 120 255
172.002350 -232.067109 -182.321001 0 120 255
174.251833 -232.100362 -181.290259 0 120 255
176.483126 -231.980003 -180.234693 0 120 255
178.702311 -231.757394 -179.162605 0 120 255
180.921496 -231.534785 -178.090518 0 120 255
183.140681 -231.312176 -177.018430 0 120 255
185.324205 -230.927055 -175.929240 0 120 255
187.480607 -230.418328 -174.827043 0 120 255
189.637009 -229.909600 -173.724846 0 120 255
191.793410 -229.400873 -172.622650 0 120 255
193.895750 -228.736327 -171.509688 0 120 255
195.951442 -227.937331 -170.387437 0 120 255
198.007134 -227.138336 -169.265187 0 120 255
200.062826 -226.339341 -168.142937 0 120 255
202.047287 -225.394685 -167.017043 0 120 255
203.962388 -224.308197 -165.887600 0 120 255
205.877489 -223.221708 -164.758158 0 120 255
207.792590 -222.135219 -163.628716 0 120 255
209.621359 -220.916548 -162.503175 0 120 255
211.355583 -219.553122 -161.381906 0 120 255
213.089808 -218.189696 -160.260637 0 120 255
214.824032 -216.826270 -159.139368 0 120 255
216.459711 -215.347077 -158.029563 0 120 255
217.974196 -213.725512 -156.933859 0 120 255
219.488682 -212.103947 -155.838154 0 120 255
221.003168 -210.482382 -154.742449 0 120 255
222.410477 -208.763753 -153.665352 0 120 255
223.669691 -206.911003 -152.613968 0 120 255
224.928905 -205.058254 -151.562584 0 120 255
226.188119 -203.205504 -150.511200 0 120 255
227.335638 -201.275838 -149.484701 0 120 255
228.309281 -199.226434 -148.496938 0 120 255
229.282924 -197.177031 -147.509175 0 120 255
230.256567 -195.127628 -146.521412 0 120 255
231.118355 -193.021853 -145.563546 0 120 255
231.782971 -190.816707 -144.658379 0 120 255
232.447587 -188.611561 -143.753213 0 120 255
233.112203 -186.406414 -142.848047 0 120 255
233.669125 -184.164723 -141.976203 0 120 255
234.009372 -181.849505 -141.171401 0 120 255
234.349620 -179.534287 -140.366599 0 120 255
234.689867 -177.219069 -139.561796 0 120 255
234.930512 -174.885303 -138.791950 0 120 255
234.939869 -172.508468 -138.103273 0 120 255
234.949225 -170.131633 -137.414596 0 120 255
234.958581 -167.754797 -136.725919 0 120 255
234.879667 -165.374605 -136.071971 0 120 255
234.560538 -162.985275 -135.512533 0 120 255
234.241408 -160.595946 -134.953096 0 120 255
233.922278 -158.206617 -134.393658 0 120 255
233.528533 -155.825564 -133.866949 0 120 255
232.891820 -153.471463 -133.446813 0 120 255
232.255107 -151.117362 -133.026678 0 120 255
231.618395 -148.763260 -132.606543 0 120 255
230.921975 -146.425072 -132.215565 0 120 255
229.986117 -144.150699 -131.941514 0 120 255
229.050259 -141.876325 -131.667462 0 120 255
228.114400 -139.601952 -131.393411 0 120 255
227.133910 -137.347015 -131.143695 0 120 255
225.923582 -135.192175 -131.019293 0 120 255
224.713254 -133.037334 -130.894891 0 120 255
223.502926 -130.882493 -130.770489 0 120 255
222.262210 -128.746701 -130.664713 0 120 255
220.806816 -126.745483 -130.690526 0 120 255
219.351422 -124.744266 -130.716340 0 120 255
217.896028 -122.743049 -130.742153 0 120 255
216.422820 -120.757042 -130.780386 0 120 255
214.754922 -118.937271 -130.954341 0 120 255
213.087023 -117.117501 -131.128296 0 120 255
211.419125 -115.297730 -131.302252 0 120 255
209.743705 -113.486521 -131.482280 0 120 255
207.897560 -111.869601 -131.800134 0 120 255
206.051416 -110.252682 -132.117989 0 120 255
204.205271 -108.635762 -132.435843 0 120 255
202.359127 -107.018843 -132.753698 0 120 255
200.369491 -105.619810 -133.209441 0 120 255
198.379749 -104.220938 -133.665286 0 120 255
196.390007 -102.822067 -134.121131 0 120 255
194.400265 -101.423195 -134.576977 0 120 255
192.305801 -100.241646 -135.157838 0 120 255
190.206418 -99.070300 -135.744570 0 120 255
188.107036 -97.898955 -136.331301 0 120 255
186.007654 -96.727610 -136.918033 0 120 255
183.838051 -95.767305 -137.616757 0 120 255
181.661505 -94.827866 -138.326555 0 120 255
179.484959 -93.888428 -139.036352 0 120 255
177.308413 -92.948989 -139.746149 0 120 255
175.091477 -92.209960 -140.555230 0 120 255
172.868185 -91.502461 -141.379930 0 120 255
170.644894 -90.794963 -142.204631 0 120 255
168.421603 -90.087465 -143.029332 0 120 255
166.183010 -89.566624 -143.941253 0 120 255
163.940998 -89.087487 -144.872660 0 120 255
161.698986 -88.608350 -145.804067 0 120 255
159.456974 -88.129213 -146.735474 0 120 255
157.220173 -87.820968 -147.742929 0 120 255
154.984928 -87.563732 -148.773084 0 120 255
152.749684 -87.306496 -149.803240 0 120 255
150.514439 -87.049260 -150.833395 0 120 255
148.300657 -86.946058 -151.929419 0 120 255
146.095120 -86.902031 -153.050747 0 120 255
143.889583 -86.858004 -154.172076 0 120 255
141.684046 -86.813977 -155.293404 0 120 255
139.512377 -86.906761 -156.471460 0 120 255
137.357057 -87.065581 -157.676897 0 120 255
135.201736 -87.224400 -158.882334 0 120 255
133.046415 -87.383220 -160.087771 0 120 255
130.933970 -87.661837 -161.341799 0 120 255
128.847114 -88.011951 -162.624827 0 120 255
126.760258 -88.362065 -163.907855 0 120 255
124.673401 -88.712178 -165.190883 0 120 255
122.635485 -89.165698 -166.515314 0 120 255
120.633315 -89.694745 -167.869984 0 120 255
118.631145 -90.223791 -169.224655 0 120 255
116.628974 -90.752838 -170.579326 0 120 255
114.679292 -91.369814 -171.969066 0 120 255
112.776246 -92.064918 -173.389966 0 120 255
110.873200 -92.760021 -174.810866 0 120 255
108.970154 -93.455124 -176.231766 0 120 255
107.121011 -94.223784 -177.682157 0 120 255
105.329993 -95.071764 -179.164350 0 120 255
103.538976 -95.919744 -180.646543 0 120 255
101.747958 -96.767723 -182.128737 0 120 255
100.010460 -97.676106 -183.635496 0 120 255
98.343080 -98.663628 -185.174442 0 120 255
96.675700 -99.651151 -186.713388 0 120 255
95.008321 -100.638673 -188.252334 0 120 255
93.392559 -101.674720 -189.811484 0 120 255
91.859348 -102.788372 -191.402947 0 120 255
90.326138 -103.902025 -192.994409 0 120 255
88.792927 -105.015678 -194.585871 0 120 255
87.308150 -106.167284 -196.193655 0 120 255
85.918757 -107.393634 -197.833582 0 120 255
84.529364 -108.619984 -199.473509 0 120 255
83.139971 -109.846335 -201.113436 0 120 255
81.794729 -111.101366 -202.766224 0 120 255
80.558075 -112.426935 -204.450642 0 120 255
79.321421 -113.752504 -206.135060 0 120 255
78.084768 -115.078073 -207.819477 0 120 255
76.887032 -116.424350 -209.513668 0 120 255
75.811429 -117.835608 -211.238526 0 120 255
74.735826 -119.246867 -212.963384 0 120 255
73.660223 -120.658126 -214.688242 0 120 255
72.617470 -122.083399 -216.420145 0 120 255
71.710709 -123.566690 -218.181208 0 120 255
70.803948 -125.049981 -219.942270 0 120 255
69.897187 -126.533272 -221.703333 0 120 255
69.016474 -128.025169 -223.469072 0 120 255
68.285879 -129.566668 -225.261757 0 120 255
67.555284 -131.108166 -227.054443 0 120 255
66.824689 -132.649665 -228.847129 0 120 255
66.114018 -134.195470 -230.643062 0 120 255
65.579577 -135.779366 -232.467714 0 120 255
65.045136 -137.363262 -234.292366 0 120 255
64.510694 -138.947158 -236.117018 0 120 255
63.987326 -140.532548 -237.942990 0 120 255
63.653033 -142.143434 -239.791503 0 120 255
63.318740 -143.754321 -241.640017 0 120 255
62.984447 -145.365208 -243.488530 0 120 255
62.651495 -146.976205 -245.337121 0 120 255
62.504313 -148.602526 -247.196456 0 120 255
62.357130 -150.228847 -249.055791 0 120 255
62.209947 -151.855168 -250.915126 0 120 255
62.062764 -153.481490 -252.774461 0 120 255
62.094806 -155.110228 -254.636859 0 120 255
62.134462 -156.739069 -256.499388 0 120 255
62.174117 -158.367910 -258.361917 0 120 255
62.213773 -159.996750 -260.224446 0 120 255
62.423025 -161.616391 -262.082910 0 120 255
62.648724 -163.235140 -263.940980 0 120 255
62.874424 -164.853888 -265.799049 0 120 255
63.100124 -166.472636 -267.657119 0 120 255
63.485458 -168.072021 -269.504580 0 120 255
63.895878 -169.668363 -271.350375 0 120 255
64.306298 -171.264705 -273.196169 0 120 255
64.716717 -172.861047 -275.041964 0 120 255
65.276541 -174.429177 -276.871183 0 120 255
65.869802 -175.990992 -278.696692 0 120 255
66.463063 -177.552807 -280.522201 0 120 255
67.056324 -179.114622 -282.347711 0 120 255
67.788548 -180.640675 -284.151162 0 120 255
68.562191 -182.156070 -285.948039 0 120 255
69.335833 -183.671464 -287.744916 0 120 255
70.109475 -185.186859 -289.541792 0 120 255
71.011443 -186.660136 -291.311647 0 120 255
71.962327 -188.117359 -293.071201 0 120 255
72.913211 -189.574582 -294.830755 0 120 255
73.864095 -191.031806 -296.590309 0 120 255
74.932514 -192.441737 -298.318369 0 120 255
76.056746 -193.829212 -300.031473 0 120 255
77.180978 -195.216686 -301.744577 0 120 255
78.305210 -196.604161 -303.457682 0 120 255
79.536052 -197.940314 -305.135348 0 120 255
80.828855 -199.246639 -306.792419 0 120 255
82.121658 -200.552965 -308.449489 0 120 255
83.414461 -201.859291 -310.106560 0 120 255
84.802868 -203.111397 -311.724804 0 120 255
86.258467 -204.325398 -313.315761 0 120 255
87.714066 -205.539398 -314.906718 0 120 255
89.169666 -206.753399 -316.497675 0 120 255
90.709829 -207.911409 -318.047025 0 120 255
92.321298 -209.022208 -319.561291 0 120 255
93.932766 -210.133007 -321.075558 0 120 255
95.544235 -211.243805 -322.589825 0 120 255
97.229278 -212.297945 -324.060377 0 120 255
98.988405 -213.295031 -325.486911 0 120 255
100.747533 -214.292118 -326.913445 0 120 255
102.506660 -215.289204 -328.339978 0 120 255
104.328510 -216.230060 -329.721429 0 120 255
106.225645 -217.103423 -331.048766 0 120 255
108.122780 -217.976786 -332.376104 0 120 255
110.019916 -218.850149 -333.703441 0 120 255
111.969176 -219.668786 -334.985145 0 120 255
113.993074 -220.409063 -336.201507 0 120 255
116.016972 -221.149340 -337.417870 0 120 255
118.040869 -221.889617 -338.634232 0 120 255
120.106709 -222.577717 -339.805269 0 120 255
122.244451 -223.176368 -340.898607 0 120 255
124.382192 -223.775020 -341.991945 0 120 255
126.519934 -224.373672 -343.085283 0 120 255
128.689993 -224.923681 -344.134560 0 120 255
130.926824 -225.373192 -345.092808 0 120 255
133.163654 -225.822703 -346.051056 0 120 255
135.400485 -226.272214 -347.009303 0 120 255
137.660775 -226.677525 -347.925719 0 120 255
139.980092 -226.971625 -348.736879 0 120 255
142.299410 -227.265725 -349.548040 0 120 255
144.618727 -227.559825 -350.359200 0 120 255
146.953602 -227.814975 -351.131764 0 120 255
149.336895 -227.948909 -351.784209 0 120 255
151.720189 -228.082842 -352.436653 0 120 255
154.103482 -228.216775 -353.089098 0 120 255
156.495605 -228.317666 -353.707175 0 120 255
158.922505 -228.288413 -354.189887 0 120 255
161.349405 -228.259159 -354.672598 0 120 255
163.776305 -228.229905 -355.155309 0 120 255
166.206648 -228.171826 -355.607729 0 120 255
168.654761 -227.964955 -355.903794 0 120 255
171.102874 -227.758084 -356.199859 0 120 255
173.550988 -227.551213 -356.495924 0 120 255
175.999037 -227.341314 -356.790235 0 120 255
178.446630 -227.109841 -357.072050 0 120 255
180.894222 -226.878367 -357.353866 0 120 255
183.341815 -226.646894 -357.635681 0 120 255
185.789407 -226.415420 -357.917498 0 120 255
188.236997 -226.183935 -358.199326 0 120 255
190.684588 -225.952451 -358.481154 0 120 255
193.132178 -225.720966 -358.762981 0 120 255
195.579768 -225.489482 -359.044809 0 120 255
198.027359 -225.258002 -359.326630 0 120 255
200.474951 -225.026521 -359.608450 0 120 255
202.922542 -224.795041 -359.890270 0 120 255
205.370133 -224.563560 -360.172091 0 120 255
