ply
format ascii 1.0
element vertex 385
property float x
property float y
property float z
property uchar red
property uchar green
property uchar blue
end_header
77.430455 -42.474882 -360.397637 0 120 255
77.187206 -42.528788 -357.932416 0 120 255
76.943956 -42.582695 -355.467195 0 120 255
76.700706 -42.636601 -353.001975 0 120 255
76.457456 -42.690507 -350.536754 0 120 255
76.212538 -42.826740 -348.074927 0 120 255
75.967557 -42.966037 -345.613227 0 120 255
75.722576 -43.105333 -343.151526 0 120 255
75.477595 -43.244630 -340.689826 0 120 255
75.374140 -43.465001 -338.224511 0 120 255
75.283152 -43.692513 -335.758877 0 120 255
75.192163 -43.920026 -333.293244 0 120 255
75.101175 -44.147539 -330.827610 0 120 255
75.141688 -44.368419 -328.360600 0 120 255
75.203601 -44.588219 -325.893366 0 120 255
75.265514 -44.808019 -323.426133 0 120 255
75.327428 -45.027820 -320.958899 0 120 255
75.511408 -45.232332 -318.497197 0 120 255
75.725514 -45.433071 -316.036862 0 120 255
75.939620 -45.633810 -313.576526 0 120 255
76.153725 -45.834549 -311.116191 0 120 255
76.480258 -46.012218 -308.667385 0 120 255
76.845224 -46.182001 -306.222520 0 120 255
77.210191 -46.351783 -303.777656 0 120 255
77.575158 -46.521565 -301.332791 0 120 255
78.042799 -46.661472 -298.904653 0 120 255
78.556632 -46.787939 -296.484039 0 120 255
79.070464 -46.914405 -294.063425 0 120 255
79.584296 -47.040871 -291.642811 0 120 255
80.190992 -47.131689 -289.243408 0 120 255
80.850903 -47.202078 -286.856161 0 120 255
81.510815 -47.272467 -284.468913 0 120 255
82.170726 -47.342856 -282.081665 0 120 255
82.913698 -47.372922 -279.719476 0 120 255
83.716004 -47.374183 -277.375187 0 120 255
84.518310 -47.375443 -275.030897 0 120 255
85.320616 -47.376704 -272.686608 0 120 255
86.196255 -47.334093 -270.370637 0 120 255
87.136211 -47.253001 -268.079503 0 120 255
88.076167 -47.171910 -265.788369 0 120 255
89.016124 -47.090819 -263.497235 0 120 255
90.019820 -46.963441 -261.237119 0 120 255
91.091421 -46.786751 -259.010049 0 120 255
92.163021 -46.610061 -256.782979 0 120 255
93.234622 -46.433371 -254.555909 0 120 255
94.360602 -46.209106 -252.362021 0 120 255
95.556416 -45.923748 -250.210745 0 120 255
96.752229 -45.638390 -248.059468 0 120 255
97.948043 -45.353031 -245.908192 0 120 255
99.189186 -45.019894 -243.791726 0 120 255
100.500114 -44.613202 -241.728850 0 120 255
101.811042 -44.206509 -239.665974 0 120 255
103.121971 -43.799817 -237.603098 0 120 255
104.469589 -43.346157 -235.576128 0 120 255
105.884651 -42.806164 -233.615160 0 120 255
107.299713 -42.266171 -231.654191 0 120 255
108.714774 -41.726178 -229.693223 0 120 255
110.158397 -41.140948 -227.768730 0 120 255
111.664517 -40.456731 -225.924051 0 120 255
113.170636 -39.772515 -224.079372 0 120 255
114.676755 -39.088299 -222.234692 0 120 255
116.203913 -38.361363 -220.426548 0 120 255
117.785724 -37.523450 -218.713317 0 120 255
119.367536 -36.685536 -217.000085 0 120 255
120.949347 -35.847623 -215.286853 0 120 255
122.545357 -34.970140 -213.609738 0 120 255
124.185039 -33.970958 -212.043702 0 120 255
125.824721 -32.971776 -210.477667 0 120 255
127.464403 -31.972593 -208.911631 0 120 255
129.112190 -30.937454 -207.380871 0 120 255
130.789389 -29.771847 -205.978105 0 120 255
132.466588 -28.606240 -204.575339 0 120 255
134.143787 -27.440633 -203.172572 0 120 255
135.823769 -26.242962 -201.803897 0 120 255
137.515602 -24.908719 -200.580424 0 120 255
139.207434 -23.574477 -199.356950 0 120 255
140.899267 -22.240234 -198.133476 0 120 255
142.589314 -20.877930 -196.942662 0 120 255
144.270495 -19.376322 -195.913976 0 120 255
145.951675 -17.874714 -194.885290 0 120 255
147.632855 -16.373106 -193.856604 0 120 255
149.308379 -14.847405 -192.859007 0 120 255
150.951501 -13.183692 -192.039496 0 120 255
152.594623 -11.519979 -191.219985 0 120 255
154.237745 -9.856266 -190.400474 0 120 255
155.871943 -8.172291 -189.610446 0 120 255
157.447932 -6.356143 -189.012738 0 120 255
159.023922 -4.539995 -188.415031 0 120 255
160.599911 -2.723848 -187.817324 0 120 255
162.164193 -0.891081 -187.247534 0 120 255
163.642922 1.063135 -186.881760 0 120 255
165.121651 3.017350 -186.515985 0 120 255
166.600380 4.971566 -186.150210 0 120 255
168.064989 6.938938 -185.810872 0 120 255
169.416129 9.012028 -185.683975 0 120 255
170.767270 11.085119 -185.557077 0 120 255
172.118411 13.158209 -185.430179 0 120 255
173.453298 15.241124 -185.328300 0 120 255
174.647262 17.409211 -185.443335 0 120 255
175.841227 19.577299 -185.558370 0 120 255
177.035191 21.745387 -185.673405 0 120 255
178.211018 23.920028 -185.812031 0 120 255
179.220051 26.154934 -186.167614 0 120 255
180.229083 28.389840 -186.523197 0 120 255
181.238116 30.624745 -186.878780 0 120 255
182.227425 32.862943 -187.256400 0 120 255
183.026722 35.132854 -187.846329 0 120 255
183.826019 37.402765 -188.436258 0 120 255
184.625316 39.672677 -189.026186 0 120 255
185.403729 41.942634 -189.636330 0 120 255
185.972508 44.213051 -190.449402 0 120 255
186.541286 46.483468 -191.262475 0 120 255
187.110065 48.753885 -192.075547 0 120 255
187.657418 51.021210 -192.906632 0 120 255
187.979860 53.256082 -193.926814 0 120 255
188.302302 55.490953 -194.946995 0 120 255
188.624743 57.725825 -195.967176 0 120 255
188.926054 59.954778 -197.002731 0 120 255
188.992007 62.117811 -198.209514 0 120 255
189.057961 64.280844 -199.416298 0 120 255
189.123914 66.443877 -200.623082 0 120 255
189.170052 68.598770 -201.842209 0 120 255
188.975439 70.654760 -203.211303 0 120 255
188.780826 72.710751 -204.580396 0 120 255
188.586213 74.766742 -205.949489 0 120 255
188.374222 76.813326 -207.327669 0 120 255
187.921149 78.729420 -208.831896 0 120 255
187.468076 80.645513 -210.336124 0 120 255
187.015002 82.561606 -211.840351 0 120 255
186.548081 84.468339 -213.350445 0 120 255
185.844565 86.215153 -214.960754 0 120 255
185.141048 87.961966 -216.571063 0 120 255
184.437532 89.708780 -218.181372 0 120 255
183.724603 91.447877 -219.794710 0 120 255
182.784030 93.000353 -221.481283 0 120 255
181.843457 94.552828 -223.167857 0 120 255
180.902884 96.105304 -224.854431 0 120 255
179.957916 97.653477 -226.541942 0 120 255
178.798252 98.991471 -228.275245 0 120 255
177.638589 100.329465 -230.008549 0 120 255
176.478925 101.667460 -231.741852 0 120 255
175.319261 103.005454 -233.475155 0 120 255
173.962866 104.114882 -235.226838 0 120 255
172.605702 105.223417 -236.978593 0 120 255
171.248538 106.331952 -238.730348 0 120 255
169.891374 107.440487 -240.482103 0 120 255
168.366506 108.317471 -242.226333 0 120 255
166.836047 109.186734 -243.970313 0 120 255
165.305588 110.055998 -245.714292 0 120 255
163.775129 110.925261 -247.458272 0 120 255
162.106756 111.566205 -249.172944 0 120 255
160.428789 112.191267 -250.885578 0 120 255
158.750822 112.816329 -252.598212 0 120 255
157.072856 113.441391 -254.310846 0 120 255
155.286183 113.846738 -255.976921 0 120 255
153.487154 114.227111 -257.637704 0 120 255
151.688126 114.607483 -259.298487 0 120 255
149.889097 114.987856 -260.959270 0 120 255
148.008854 115.161434 -262.560869 0 120 255
146.115049 115.300477 -264.152584 0 120 255
144.221243 115.439519 -265.744299 0 120 255
142.327437 115.578561 -267.336014 0 120 255
140.377327 115.526932 -268.860350 0 120 255
138.414193 115.431198 -270.369101 0 120 255
136.451059 115.335464 -271.877852 0 120 255
134.487925 115.239729 -273.386602 0 120 255
132.490225 114.971566 -274.823801 0 120 255
130.481850 114.650147 -276.238901 0 120 255
128.473475 114.328728 -277.654000 0 120 255
126.465099 114.007309 -279.069100 0 120 255
124.440432 113.532820 -280.411983 0 120 255
122.409207 112.996703 -281.725790 0 120 255
120.377981 112.460587 -283.039597 0 120 255
118.346755 111.924470 -284.353404 0 120 255
116.313953 111.254909 -285.597212 0 120 255
114.280337 110.516394 -286.804851 0 120 255
112.246721 109.777880 -288.012489 0 120 255
110.213105 109.039365 -289.220128 0 120 255
108.189157 108.186618 -290.362226 0 120 255
106.171562 107.258812 -291.461260 0 120 255
104.153967 106.331005 -292.560293 0 120 255
102.136372 105.403199 -293.659327 0 120 255
100.136456 104.379428 -294.698921 0 120 255
98.151251 103.275804 -295.689054 0 120 255
96.166046 102.172180 -296.679187 0 120 255
94.180841 101.068555 -297.669320 0 120 255
92.218397 99.885942 -298.607201 0 120 255
90.279962 98.620011 -299.489967 0 120 255
88.341526 97.354080 -300.372732 0 120 255
86.403091 96.088149 -301.255498 0 120 255
84.489918 94.758677 -302.093776 0 120 255
82.610738 93.343707 -302.872191 0 120 255
80.731558 91.928737 -303.650607 0 120 255
78.852378 90.513766 -304.429022 0 120 255
76.998759 89.049067 -305.170900 0 120 255
75.189593 87.497885 -305.849239 0 120 255
73.380427 85.946704 -306.527578 0 120 255
71.571261 84.395523 -307.205917 0 120 255
69.786102 82.806761 -307.855504 0 120 255
68.056121 81.131626 -308.439006 0 120 255
66.326140 79.456490 -309.022509 0 120 255
64.596159 77.781354 -309.606011 0 120 255
62.887117 76.079163 -310.168130 0 120 255
61.244094 74.291668 -310.662827 0 120 255
59.601071 72.504173 -311.157524 0 120 255
57.958048 70.716678 -311.652221 0 120 255
56.331676 68.911108 -312.132271 0 120 255
54.782138 67.022144 -312.544742 0 120 255
53.232600 65.133179 -312.957212 0 120 255
51.683061 63.244214 -313.369682 0 120 255
50.144932 61.344723 -313.773482 0 120 255
48.694335 59.364470 -314.110764 0 120 255
47.243739 57.384218 -314.448046 0 120 255
45.793143 55.403965 -314.785328 0 120 255
44.347976 53.419420 -315.119047 0 120 255
43.000857 51.357361 -315.388436 0 120 255
41.653739 49.295301 -315.657825 0 120 255
40.306620 47.233241 -315.927214 0 120 255
38.959501 45.171182 -316.196603 0 120 255
37.718511 43.036890 -316.406178 0 120 255
36.478623 40.901848 -316.615131 0 120 255
35.238735 38.766806 -316.824085 0 120 255
33.998847 36.631764 -317.033038 0 120 255
32.861254 34.436679 -317.192976 0 120 255
31.731700 32.236876 -317.349061 0 120 255
30.602146 30.037072 -317.505147 0 120 255
29.472592 27.837269 -317.661232 0 120 255
28.440674 25.588102 -317.778147 0 120 255
27.424019 23.331218 -317.888939 0 120 255
26.407364 21.074333 -317.999731 0 120 255
25.390710 18.817449 -318.110522 0 120 255
24.466393 16.520529 -318.190966 0 120 255
23.564763 14.213772 -318.263953 0 120 255
22.663133 11.907016 -318.336941 0 120 255
21.761503 9.600259 -318.409928 0 120 255
20.946432 7.261595 -318.460391 0 120 255
20.161601 4.911783 -318.502985 0 120 255
19.376770 2.561972 -318.545579 0 120 255
18.591939 0.212160 -318.588173 0 120 255
17.887527 -2.162502 -318.615035 0 120 255
17.220991 -4.548867 -318.634489 0 120 255
16.554455 -6.935233 -318.653942 0 120 255
15.887919 -9.321598 -318.673396 0 120 255
15.295396 -11.726711 -318.682879 0 120 255
14.748431 -14.143363 -318.686225 0 120 255
14.201465 -16.560014 -318.689572 0 120 255
13.654499 -18.976666 -318.692918 0 120 255
13.174954 -21.406824 -318.691086 0 120 255
12.748671 -23.847651 -318.685164 0 120 255
12.322387 -26.288478 -318.679241 0 120 255
11.896104 -28.729305 -318.673318 0 120 255
11.530509 -31.179181 -318.666053 0 120 255
11.225886 -33.638148 -318.657439 0 120 255
10.921263 -36.097115 -318.648824 0 120 255
10.616640 -38.556082 -318.640210 0 120 255
10.365881 -41.020371 -318.633178 0 120 255
10.183798 -43.491446 -318.628163 0 120 255
10.001714 -45.962520 -318.623147 0 120 255
9.819630 -48.433595 -318.618132 0 120 255
9.684522 -50.906956 -318.616763 0 120 255
9.625770 -53.384034 -318.621320 0 120 255
9.567018 -55.861113 -318.625878 0 120 255
9.508266 -58.338191 -318.630435 0 120 255
9.489563 -60.815192 -318.639896 0 120 255
9.554861 -63.292032 -318.659640 0 120 255
9.620159 -65.768871 -318.679385 0 120 255
9.685457 -68.245711 -318.699129 0 120 255
9.783856 -70.720777 -318.724288 0 120 255
9.973845 -73.190936 -318.764430 0 120 255
10.163834 -75.661094 -318.804572 0 120 255
10.353823 -78.131252 -318.844715 0 120 255
10.569961 -80.598616 -318.890122 0 120 255
10.885191 -83.055392 -318.955483 0 120 255
11.200420 -85.512168 -319.020844 0 120 255
11.515650 -87.968943 -319.086205 0 120 255
11.850090 -90.422603 -319.156080 0 120 255
12.291001 -92.858990 -319.250974 0 120 255
12.731911 -95.295377 -319.345869 0 120 255
13.172822 -97.731764 -319.440763 0 120 255
13.626041 -100.165441 -319.538914 0 120 255
14.192934 -102.574087 -319.667147 0 120 255
14.759828 -104.982733 -319.795379 0 120 255
15.326721 -107.391380 -319.923612 0 120 255
15.899086 -109.798487 -320.053431 0 120 255
16.592079 -112.171670 -320.218216 0 120 255
17.285072 -114.544852 -320.383002 0 120 255
17.978065 -116.918035 -320.547787 0 120 255
18.671058 -119.291217 -320.712573 0 120 255
19.488778 -121.621260 -320.916118 0 120 255
20.307764 -123.950865 -321.120056 0 120 255
21.126750 -126.280471 -321.323994 0 120 255
21.945736 -128.610076 -321.527932 0 120 255
22.882459 -130.890863 -321.770348 0 120 255
23.827039 -133.168393 -322.015331 0 120 255
24.771619 -135.445922 -322.260315 0 120 255
25.716198 -137.723452 -322.505298 0 120 255
26.771385 -139.946986 -322.787668 0 120 255
27.840818 -142.163567 -323.074853 0 120 255
28.910250 -144.380147 -323.362038 0 120 255
29.979683 -146.596727 -323.649222 0 120 255
31.152440 -148.754707 -323.971902 0 120 255
32.345559 -150.901139 -324.301577 0 120 255
33.538679 -153.047571 -324.631252 0 120 255
34.731798 -155.194003 -324.960926 0 120 255
36.020820 -157.277856 -325.323554 0 120 255
37.335967 -159.344662 -325.695159 0 120 255
38.651115 -161.411467 -326.066764 0 120 255
39.966262 -163.478273 -326.438369 0 120 255
41.369756 -165.479228 -326.839785 0 120 255
42.804688 -167.456751 -327.251809 0 120 255
44.239621 -169.434273 -327.663833 0 120 255
45.674553 -171.411795 -328.075858 0 120 255
47.190181 -173.320963 -328.514049 0 120 255
48.742013 -175.199465 -328.963979 0 120 255
50.293845 -177.077967 -329.413909 0 120 255
51.845677 -178.956469 -329.863839 0 120 255
53.470497 -180.764949 -330.335887 0 120 255
55.135626 -182.534758 -330.820151 0 120 255
56.800755 -184.304567 -331.304414 0 120 255
58.465884 -186.074376 -331.788677 0 120 255
60.196275 -187.773387 -332.290761 0 120 255
61.970295 -189.425067 -332.804758 0 120 255
63.744315 -191.076748 -333.318755 0 120 255
65.518335 -192.728428 -333.832752 0 120 255
67.349956 -194.309464 -334.360098 0 120 255
69.227644 -195.834000 -334.898120 0 120 255
71.105332 -197.358535 -335.436142 0 120 255
72.983020 -198.883071 -335.974164 0 120 255
74.910768 -200.338076 -336.521059 0 120 255
76.886021 -201.727102 -337.076374 0 120 255
78.861273 -203.116127 -337.631689 0 120 255
80.836525 -204.505153 -338.187004 0 120 255
82.854518 -205.826720 -338.746816 0 120 255
84.920372 -207.072749 -339.311663 0 120 255
86.986225 -208.318777 -339.876510 0 120 255
89.052078 -209.564806 -340.441357 0 120 255
91.153653 -210.746384 -341.006591 0 120 255
93.302286 -211.843060 -341.572337 0 120 255
95.450919 -212.939736 -342.138083 0 120 255
97.599552 -214.036412 -342.703828 0 120 255
99.777291 -215.072535 -343.266217 0 120 255
102.000103 -216.014891 -343.823406 0 120 255
104.222915 -216.957247 -344.380596 0 120 255
106.445728 -217.899603 -344.937785 0 120 255
108.691524 -218.786107 -345.488395 0 120 255
110.979216 -219.570803 -346.027010 0 120 255
113.266908 -220.355498 -346.565625 0 120 255
115.554601 -221.140193 -347.104241 0 120 255
117.859745 -221.874431 -347.633646 0 120 255
120.202485 -222.499972 -348.143209 0 120 255
122.545226 -223.125513 -348.652773 0 120 255
124.887966 -223.751054 -349.162336 0 120 255
127.243290 -224.332083 -349.660772 0 120 255
129.630875 -224.799004 -350.130681 0 120 255
132.018459 -225.265925 -350.600589 0 120 255
134.406044 -225.732845 -351.070498 0 120 255
136.802074 -226.161587 -351.528134 0 120 255
139.224147 -226.472597 -351.947924 0 120 255
141.646220 -226.783608 -352.367714 0 120 255
144.068293 -227.094619 -352.787505 0 120 255
146.495448 -227.373975 -353.194682 0 120 255
148.941760 -227.534013 -353.554313 0 120 255
151.388072 -227.694051 -353.913944 0 120 255
153.834384 -227.854089 -354.273575 0 120 255
156.283206 -227.988987 -354.621073 0 120 255
158.743874 -228.005236 -354.911307 0 120 255
161.204543 -228.021484 -355.201540 0 120 255
163.665211 -228.037733 -355.491773 0 120 255
166.125670 -228.027991 -355.776576 0 120 255
168.584845 -227.858896 -356.028085 0 120 255
171.044019 -227.689800 -356.279593 0 120 255
173.503194 -227.520705 -356.531101 0 120 255
175.961459 -227.344868 -356.785908 0 120 255
178.412183 -227.113098 -357.068084 0 120 255
180.862908 -226.881329 -357.350260 0 120 255
183.313632 -226.649559 -357.632436 0 120 255
185.764356 -226.417789 -357.914613 0 120 255
188.215077 -226.186008 -358.196802 0 120 255
190.665799 -225.954228 -358.478990 0 120 255
193.116520 -225.722447 -358.761179 0 120 255
195.567242 -225.490667 -359.043367 0 120 255
198.017965 -225.258890 -359.325548 0 120 255
200.468688 -225.027113 -359.607729 0 120 255
202.919410 -224.795337 -359.889910 0 120 255
205.370133 -224.563560 -360.172091 0 120 255
