ply
format ascii 1.0
element vertex 385
property float x
property float y
property float z
property uchar red
property uchar green
property uchar blue
end_header
77.430455 -42.474882 -360.397637 0 120 255
77.187599 -42.528701 -357.936399 0 120 255
76.944742 -42.582520 -355.475162 0 120 255
76.701885 -42.636340 -353.013924 0 120 255
76.459029 -42.690159 -350.552687 0 120 255
76.212852 -42.748986 -348.091894 0 120 255
75.966528 -42.808035 -345.631121 0 120 255
75.720205 -42.867084 -343.170348 0 120 255
75.473881 -42.926133 -340.709575 0 120 255
75.114474 -43.422668 -338.316961 0 120 255
74.744645 -43.959521 -335.930629 0 120 255
74.374816 -44.496375 -333.544297 0 120 255
74.004987 -45.033229 -331.157965 0 120 255
73.552253 -45.929200 -328.901999 0 120 255
73.087340 -46.877924 -326.665184 0 120 255
72.622428 -47.826648 -324.428368 0 120 255
72.157516 -48.775373 -322.191552 0 120 255
71.633904 -50.008555 -320.117516 0 120 255
71.098098 -51.300830 -318.077294 0 120 255
70.562293 -52.593105 -316.037073 0 120 255
70.026487 -53.885380 -313.996852 0 120 255
69.452971 -55.394826 -312.128512 0 120 255
68.869065 -56.964103 -310.307525 0 120 255
68.285160 -58.533379 -308.486539 0 120 255
67.701254 -60.102656 -306.665553 0 120 255
67.097768 -61.833097 -305.009619 0 120 255
66.487404 -63.620149 -303.411662 0 120 255
65.877040 -65.407200 -301.813704 0 120 255
65.266675 -67.194252 -300.215747 0 120 255
64.652576 -69.098660 -298.766609 0 120 255
64.036846 -71.054277 -297.382412 0 120 255
63.421117 -73.009895 -295.998214 0 120 255
62.805387 -74.965512 -294.614017 0 120 255
62.200041 -77.005899 -293.358114 0 120 255
61.600225 -79.091437 -292.170546 0 120 255
61.000409 -81.176975 -290.982978 0 120 255
60.400593 -83.262513 -289.795409 0 120 255
59.823943 -85.409449 -288.714860 0 120 255
59.262171 -87.595816 -287.703042 0 120 255
58.700399 -89.782183 -286.691224 0 120 255
58.138627 -91.968550 -285.679406 0 120 255
57.611638 -94.199841 -284.754815 0 120 255
57.111364 -96.465636 -283.897224 0 120 255
56.611091 -98.731432 -283.039632 0 120 255
56.110818 -100.997227 -282.182041 0 120 255
55.655715 -103.296112 -281.394497 0 120 255
55.241901 -105.625243 -280.670983 0 120 255
54.828088 -107.954374 -279.947469 0 120 255
54.414275 -110.283505 -279.223955 0 120 255
54.054555 -112.636632 -278.556291 0 120 255
53.753546 -115.015803 -277.949245 0 120 255
53.452537 -117.394974 -277.342198 0 120 255
53.151527 -119.774145 -276.735152 0 120 255
52.911689 -122.169525 -276.172581 0 120 255
52.750705 -124.585799 -275.667340 0 120 255
52.589720 -127.002073 -275.162099 0 120 255
52.428736 -129.418348 -274.656858 0 120 255
52.333731 -131.843446 -274.187065 0 120 255
52.340020 -134.282092 -273.771694 0 120 255
52.346309 -136.720738 -273.356323 0 120 255
52.352599 -139.159383 -272.940951 0 120 255
52.426988 -141.599488 -272.553743 0 120 255
52.626586 -144.042276 -272.218314 0 120 255
52.826184 -146.485065 -271.882885 0 120 255
53.025782 -148.927853 -271.547456 0 120 255
53.292615 -151.364852 -271.234089 0 120 255
53.708833 -153.788991 -270.969740 0 120 255
54.125050 -156.213130 -270.705392 0 120 255
54.541268 -158.637269 -270.441043 0 120 255
55.020750 -161.048960 -270.193378 0 120 255
55.672378 -163.426781 -269.991108 0 120 255
56.324006 -165.804602 -269.788839 0 120 255
56.975635 -168.182423 -269.586570 0 120 255
57.683630 -170.542440 -269.396090 0 120 255
58.583200 -172.841944 -269.245683 0 120 255
59.482770 -175.141447 -269.095275 0 120 255
60.382340 -177.440951 -268.944867 0 120 255
61.328925 -179.719377 -268.801778 0 120 255
62.481061 -181.905654 -268.690686 0 120 255
63.633197 -184.091931 -268.579593 0 120 255
64.785333 -186.278208 -268.468500 0 120 255
65.973489 -188.442880 -268.360861 0 120 255
67.373794 -190.480302 -268.273557 0 120 255
68.774100 -192.517724 -268.186254 0 120 255
70.174405 -194.555146 -268.098950 0 120 255
71.599136 -196.573547 -268.012162 0 120 255
73.233676 -198.428556 -267.929800 0 120 255
74.868217 -200.283566 -267.847438 0 120 255
76.502757 -202.138575 -267.765076 0 120 255
78.150707 -203.980190 -267.681627 0 120 255
79.996477 -205.624210 -267.582134 0 120 255
81.842247 -207.268229 -267.482642 0 120 255
83.688017 -208.912249 -267.383149 0 120 255
85.537887 -210.551000 -267.282706 0 120 255
87.563982 -211.963279 -267.141395 0 120 255
89.590078 -213.375559 -267.000084 0 120 255
91.616173 -214.787839 -266.858773 0 120 255
93.642269 -216.200119 -266.717462 0 120 255
95.809342 -217.374204 -266.509144 0 120 255
97.979001 -218.543920 -266.299598 0 120 255
100.148660 -219.713636 -266.090051 0 120 255
102.318319 -220.883351 -265.880505 0 120 255
104.585161 -221.825233 -265.581306 0 120 255
106.858073 -222.752884 -265.276508 0 120 255
109.130984 -223.680535 -264.971710 0 120 255
111.403896 -224.608186 -264.666912 0 120 255
113.732464 -225.328796 -264.252606 0 120 255
116.067188 -226.026503 -263.826186 0 120 255
118.401912 -226.724211 -263.399766 0 120 255
120.736636 -227.421918 -262.973346 0 120 255
123.089635 -227.941925 -262.421295 0 120 255
125.445620 -228.432900 -261.848718 0 120 255
127.801605 -228.923874 -261.276142 0 120 255
130.157590 -229.414849 -260.703565 0 120 255
132.499657 -229.763625 -259.993671 0 120 255
134.838642 -230.080916 -259.253372 0 120 255
137.177627 -230.398208 -258.513074 0 120 255
139.516612 -230.715499 -257.772776 0 120 255
141.814921 -230.929742 -256.888460 0 120 255
144.101617 -231.114564 -255.963026 0 120 255
146.388313 -231.299387 -255.037593 0 120 255
148.675009 -231.484209 -254.112159 0 120 255
150.899311 -231.609354 -253.041546 0 120 255
153.101366 -231.713220 -251.919168 0 120 255
155.303421 -231.817086 -250.796790 0 120 255
157.505476 -231.920952 -249.674412 0 120 255
159.628032 -232.002964 -248.411098 0 120 255
161.715904 -232.075441 -247.086294 0 120 255
163.803776 -232.147919 -245.761491 0 120 255
165.891647 -232.220396 -244.436688 0 120 255
167.885050 -232.287170 -242.978152 0 120 255
169.828728 -232.350942 -241.449226 0 120 255
171.772406 -232.414714 -239.920300 0 120 255
173.716084 -232.478485 -238.391374 0 120 255
175.551330 -232.538216 -236.738843 0 120 255
177.318390 -232.595406 -235.008585 0 120 255
179.085451 -232.652596 -233.278327 0 120 255
180.852511 -232.709786 -231.548069 0 120 255
182.499072 -232.762535 -229.708022 0 120 255
184.055704 -232.811969 -227.786038 0 120 255
185.612335 -232.861402 -225.864055 0 120 255
187.168967 -232.910836 -223.942072 0 120 255
188.595899 -232.955311 -221.927373 0 120 255
189.908431 -232.995413 -219.830896 0 120 255
191.220964 -233.035515 -217.734419 0 120 255
192.533496 -233.075616 -215.637941 0 120 255
193.710858 -233.110546 -213.468253 0 120 255
194.747577 -233.140094 -211.222388 0 120 255
195.784295 -233.169642 -208.976524 0 120 255
196.821013 -233.199191 -206.730659 0 120 255
197.721438 -233.223589 -204.432401 0 120 255
198.454500 -233.241665 -202.069805 0 120 255
199.187561 -233.259741 -199.707209 0 120 255
199.920623 -233.277817 -197.344613 0 120 255
200.520871 -233.290937 -194.950458 0 120 255
200.928105 -233.296857 -192.510439 0 120 255
201.335339 -233.302776 -190.070420 0 120 255
201.742573 -233.308695 -187.630402 0 120 255
202.024986 -233.310021 -185.178347 0 120 255
202.091526 -233.303404 -182.705475 0 120 255
202.158066 -233.296787 -180.232603 0 120 255
202.224606 -233.290170 -177.759731 0 120 255
202.178313 -233.279457 -175.291778 0 120 255
201.897781 -233.260242 -172.834036 0 120 255
201.617248 -233.241026 -170.376293 0 120 255
201.336715 -233.221811 -167.918551 0 120 255
200.958493 -233.199102 -165.479076 0 120 255
200.333682 -233.167573 -163.085714 0 120 255
199.708870 -233.136045 -160.692352 0 120 255
199.084059 -233.104516 -158.298990 0 120 255
198.378735 -233.070153 -155.932921 0 120 255
197.421685 -233.026929 -153.652186 0 120 255
196.464636 -232.983705 -151.371450 0 120 255
195.507587 -232.940480 -149.090715 0 120 255
194.487958 -232.895091 -146.841655 0 120 255
193.219299 -232.841087 -144.718650 0 120 255
191.950640 -232.787083 -142.595644 0 120 255
190.681981 -232.733079 -140.472638 0 120 255
189.368193 -232.677546 -138.381123 0 120 255
187.816057 -232.613939 -136.455923 0 120 255
186.263922 -232.550332 -134.530723 0 120 255
184.711786 -232.486726 -132.605522 0 120 255
183.130351 -232.422151 -130.707511 0 120 255
181.328784 -232.350304 -129.013769 0 120 255
179.527217 -232.278456 -127.320028 0 120 255
177.725650 -232.206609 -125.626287 0 120 255
175.908109 -232.134251 -123.952039 0 120 255
173.895285 -232.055652 -122.516097 0 120 255
171.882462 -231.977053 -121.080154 0 120 255
169.869639 -231.898454 -119.644212 0 120 255
167.851070 -231.819680 -118.217571 0 120 255
165.667431 -231.735876 -117.058147 0 120 255
163.483792 -231.652072 -115.898722 0 120 255
161.300154 -231.568268 -114.739297 0 120 255
159.116515 -231.484465 -113.579873 0 120 255
156.804133 -231.397022 -112.705818 0 120 255
154.490653 -231.309548 -111.834195 0 120 255
152.177174 -231.222074 -110.962572 0 120 255
149.863694 -231.134600 -110.090949 0 120 255
147.464953 -231.045035 -109.496733 0 120 255
145.061664 -230.955359 -108.917314 0 120 255
142.658375 -230.865683 -108.337895 0 120 255
140.255087 -230.776006 -107.758476 0 120 255
137.804714 -230.685590 -107.442691 0 120 255
135.349519 -230.595098 -107.153911 0 120 255
132.894324 -230.504606 -106.865131 0 120 255
130.439129 -230.414114 -106.576350 0 120 255
127.969289 -230.323987 -106.533245 0 120 255
125.497158 -230.233918 -106.528577 0 120 255
123.025027 -230.143849 -106.523909 0 120 255
120.552896 -230.053780 -106.519241 0 120 255
118.092789 -229.964967 -106.739626 0 120 255
115.635280 -229.876425 -107.008654 0 120 255
113.177771 -229.787882 -107.277681 0 120 255
110.720262 -229.699340 -107.546709 0 120 255
108.295958 -229.612759 -108.018795 0 120 255
105.881033 -229.526732 -108.548229 0 120 255
103.466107 -229.440705 -109.077662 0 120 255
101.051182 -229.354677 -109.607096 0 120 255
98.685644 -229.271121 -110.317239 0 120 255
96.337708 -229.188445 -111.091790 0 120 255
93.989773 -229.105769 -111.866341 0 120 255
91.641837 -229.023093 -112.640892 0 120 255
89.355077 -228.943233 -113.574261 0 120 255
87.095206 -228.864611 -114.577440 0 120 255
84.835335 -228.785989 -115.580620 0 120 255
82.575465 -228.707367 -116.583799 0 120 255
80.384800 -228.631779 -117.724908 0 120 255
78.231065 -228.557810 -118.939618 0 120 255
76.077330 -228.483841 -120.154327 0 120 255
73.923594 -228.409872 -121.369037 0 120 255
71.843946 -228.339043 -122.702119 0 120 255
69.811777 -228.270225 -124.111061 0 120 255
67.779608 -228.201407 -125.520004 0 120 255
65.747439 -228.132588 -126.928946 0 120 255
63.791658 -228.066927 -128.438253 0 120 255
61.894258 -228.003677 -130.024266 0 120 255
59.996857 -227.940427 -131.610279 0 120 255
58.099457 -227.877177 -133.196292 0 120 255
56.278643 -227.817030 -134.866278 0 120 255
54.527350 -227.759699 -136.612489 0 120 255
52.776058 -227.702368 -138.358700 0 120 255
51.024766 -227.645037 -140.104911 0 120 255
49.348555 -227.590699 -141.920317 0 120 255
47.753176 -227.539583 -143.810216 0 120 255
46.157796 -227.488466 -145.700115 0 120 255
44.562417 -227.437350 -147.590013 0 120 255
43.039212 -227.389072 -149.535883 0 120 255
41.608249 -227.344420 -151.553288 0 120 255
40.177287 -227.299769 -153.570692 0 120 255
38.746325 -227.255117 -155.588096 0 120 255
37.383479 -227.213110 -157.649745 0 120 255
36.124360 -227.175131 -159.778768 0 120 255
34.865241 -227.137152 -161.907792 0 120 255
33.606122 -227.099173 -164.036816 0 120 255
32.410097 -227.063622 -166.199787 0 120 255
31.329290 -227.032504 -168.424748 0 120 255
30.248483 -227.001386 -170.649709 0 120 255
29.167675 -226.970268 -172.874671 0 120 255
28.144121 -226.941327 -175.124653 0 120 255
27.247213 -226.917201 -177.429981 0 120 255
26.350305 -226.893075 -179.735310 0 120 255
25.453397 -226.868949 -182.040638 0 120 255
24.607228 -226.846738 -184.363402 0 120 255
23.899048 -226.829733 -186.733583 0 120 255
23.190867 -226.812729 -189.103764 0 120 255
22.482687 -226.795724 -191.473945 0 120 255
21.818158 -226.780353 -193.855286 0 120 255
21.302783 -226.770560 -196.274761 0 120 255
20.787408 -226.760768 -198.694236 0 120 255
20.272033 -226.750976 -201.113711 0 120 255
19.792746 -226.742522 -203.539370 0 120 255
19.473505 -226.740002 -205.992459 0 120 255
19.154264 -226.737481 -208.445548 0 120 255
18.835024 -226.734961 -210.898637 0 120 255
18.543923 -226.733474 -213.354238 0 120 255
18.423370 -226.738252 -215.825070 0 120 255
18.302817 -226.743030 -218.295902 0 120 255
18.182265 -226.747808 -220.766734 0 120 255
18.081603 -226.753311 -223.237727 0 120 255
18.161378 -226.765395 -225.710187 0 120 255
18.241152 -226.777479 -228.182646 0 120 255
18.320926 -226.789562 -230.655106 0 120 255
18.412157 -226.802060 -233.126725 0 120 255
18.692878 -226.821415 -235.584445 0 120 255
18.973599 -226.840770 -238.042165 0 120 255
19.254320 -226.860125 -240.499885 0 120 255
19.537999 -226.879586 -242.957142 0 120 255
20.019068 -226.906125 -245.383546 0 120 255
20.500138 -226.932664 -247.809949 0 120 255
20.981208 -226.959203 -250.236352 0 120 255
21.462278 -226.985742 -252.662756 0 120 255
22.136287 -227.019138 -255.042472 0 120 255
22.815737 -227.052728 -257.420872 0 120 255
23.495187 -227.086317 -259.799271 0 120 255
24.174637 -227.119907 -262.177671 0 120 255
25.035295 -227.159873 -264.495970 0 120 255
25.909504 -227.200316 -266.809774 0 120 255
26.783713 -227.240758 -269.123578 0 120 255
27.657922 -227.281201 -271.437382 0 120 255
28.700275 -227.327508 -273.679415 0 120 255
29.763772 -227.374551 -275.912424 0 120 255
30.827268 -227.421595 -278.145432 0 120 255
31.890765 -227.468639 -280.378441 0 120 255
33.108160 -227.520963 -282.530013 0 120 255
34.353527 -227.574248 -284.666783 0 120 255
35.598895 -227.627532 -286.803553 0 120 255
36.844263 -227.680816 -288.940323 0 120 255
38.228288 -227.738811 -290.988264 0 120 255
39.646098 -227.797953 -293.014562 0 120 255
41.063908 -227.857096 -295.040860 0 120 255
42.481718 -227.916239 -297.067158 0 120 255
44.022379 -227.979515 -298.999632 0 120 255
45.601412 -228.044083 -300.902801 0 120 255
47.180445 -228.108651 -302.805969 0 120 255
48.759479 -228.173219 -304.709138 0 120 255
50.445374 -228.241333 -306.515965 0 120 255
52.172848 -228.310828 -308.285306 0 120 255
53.900323 -228.380322 -310.054647 0 120 255
55.627798 -228.449817 -311.823988 0 120 255
57.446395 -228.522304 -313.496902 0 120 255
59.308318 -228.596213 -315.123970 0 120 255
61.170240 -228.670123 -316.751037 0 120 255
63.032162 -228.744033 -318.378105 0 120 255
64.970127 -228.820462 -319.910947 0 120 255
66.951687 -228.898335 -321.389773 0 120 255
68.933246 -228.976209 -322.868598 0 120 255
70.914805 -229.054082 -324.347424 0 120 255
72.958332 -229.133889 -325.736315 0 120 255
75.044315 -229.215020 -327.063589 0 120 255
77.130298 -229.296150 -328.390864 0 120 255
79.216281 -229.377281 -329.718139 0 120 255
81.351342 -229.459068 -330.961819 0 120 255
83.526364 -229.541390 -332.137434 0 120 255
85.701386 -229.623711 -333.313048 0 120 255
87.876407 -229.706033 -334.488663 0 120 255
90.088563 -229.783245 -335.590170 0 120 255
92.336549 -229.855527 -336.620169 0 120 255
94.584536 -229.927808 -337.650168 0 120 255
96.832522 -230.000090 -338.680167 0 120 255
99.107693 -230.062162 -339.646451 0 120 255
101.413942 -230.112563 -340.539895 0 120 255
103.720191 -230.162963 -341.433339 0 120 255
106.026440 -230.213364 -342.326783 0 120 255
108.351952 -230.250747 -343.166751 0 120 255
110.703607 -230.270464 -343.934145 0 120 255
113.055263 -230.290181 -344.701538 0 120 255
115.406919 -230.309898 -345.468931 0 120 255
117.771668 -230.315448 -346.192679 0 120 255
120.157613 -230.298063 -346.845770 0 120 255
122.543559 -230.280678 -347.498862 0 120 255
124.929504 -230.263293 -348.151953 0 120 255
127.323882 -230.231889 -348.770582 0 120 255
129.734670 -230.173204 -349.322147 0 120 255
132.145458 -230.114519 -349.873711 0 120 255
134.556246 -230.055833 -350.425276 0 120 255
136.972091 -229.984286 -350.950695 0 120 255
139.399908 -229.882295 -351.414234 0 120 255
141.827725 -229.780304 -351.877773 0 120 255
144.255542 -229.678314 -352.341313 0 120 255
146.686105 -229.565350 -352.786014 0 120 255
149.124705 -229.420255 -353.175552 0 120 255
151.563306 -229.275160 -353.565091 0 120 255
154.001906 -229.130064 -353.954630 0 120 255
156.441784 -228.976311 -354.331515 0 120 255
158.886407 -228.790398 -354.661392 0 120 255
161.331031 -228.604484 -354.991270 0 120 255
163.775654 -228.418570 -355.321147 0 120 255
166.220694 -228.226663 -355.643765 0 120 255
168.667774 -228.005413 -355.930838 0 120 255
171.114855 -227.784163 -356.217912 0 120 255
173.561935 -227.562914 -356.504986 0 120 255
176.008976 -227.340374 -356.791379 0 120 255
178.455740 -227.108979 -357.073099 0 120 255
180.902504 -226.877584 -357.354819 0 120 255
183.349269 -226.646189 -357.636539 0 120 255
185.796033 -226.414793 -357.918261 0 120 255
188.242795 -226.183387 -358.199993 0 120 255
190.689557 -225.951981 -358.481726 0 120 255
193.136319 -225.720575 -358.763458 0 120 255
195.583081 -225.489169 -359.045191 0 120 255
198.029844 -225.257767 -359.326916 0 120 255
200.476607 -225.026364 -359.608641 0 120 255
202.923370 -224.794962 -359.890366 0 120 255
205.370133 -224.563560 -360.172091 0 120 255
