ply
format ascii 1.0
element vertex 385
property float x
property float y
property float z
property uchar red
property uchar green
property uchar blue
end_header
77.430455 -42.474882 -360.397637 0 120 255
77.187432 -42.528738 -357.934715 0 120 255
76.944409 -42.582594 -355.471793 0 120 255
76.701387 -42.636450 -353.008871 0 120 255
76.458364 -42.690306 -350.545949 0 120 255
76.251619 -42.731019 -348.079477 0 120 255
76.046371 -42.771189 -345.612859 0 120 255
75.841124 -42.811358 -343.146241 0 120 255
75.635876 -42.851528 -340.679622 0 120 255
75.442878 -42.898319 -338.212136 0 120 255
75.251041 -42.945737 -335.744567 0 120 255
75.059204 -42.993156 -333.276998 0 120 255
74.867368 -43.040574 -330.809430 0 120 255
74.651901 -43.106590 -328.344270 0 120 255
74.432549 -43.175665 -325.879507 0 120 255
74.213197 -43.244739 -323.414743 0 120 255
73.993845 -43.313814 -320.949980 0 120 255
73.749462 -43.401430 -318.488210 0 120 255
73.498994 -43.493555 -316.027169 0 120 255
73.248526 -43.585679 -313.566128 0 120 255
72.998058 -43.677804 -311.105086 0 120 255
72.721510 -43.788307 -308.647667 0 120 255
72.436287 -43.904924 -306.191451 0 120 255
72.151063 -44.021542 -303.735236 0 120 255
71.865839 -44.138159 -301.279021 0 120 255
71.553854 -44.272881 -298.827083 0 120 255
71.230213 -44.415489 -296.377009 0 120 255
70.906573 -44.558096 -293.926934 0 120 255
70.582932 -44.700703 -291.476860 0 120 255
70.232210 -44.861027 -289.031734 0 120 255
69.866461 -45.031179 -286.589353 0 120 255
69.500712 -45.201331 -284.146973 0 120 255
69.134963 -45.371484 -281.704593 0 120 255
68.742181 -45.558838 -279.267826 0 120 255
68.330619 -45.758143 -276.834960 0 120 255
67.919056 -45.957448 -274.402093 0 120 255
67.507494 -46.156753 -271.969227 0 120 255
67.069321 -46.372618 -269.542609 0 120 255
66.608236 -46.602742 -267.121372 0 120 255
66.147152 -46.832866 -264.700135 0 120 255
65.686067 -47.062991 -262.278898 0 120 255
65.199173 -47.308895 -259.864485 0 120 255
64.684879 -47.571553 -257.457317 0 120 255
64.170585 -47.834211 -255.050149 0 120 255
63.656292 -48.096869 -252.642981 0 120 255
63.117355 -48.374387 -250.243122 0 120 255
62.546181 -48.671346 -247.852824 0 120 255
61.975006 -48.968304 -245.462527 0 120 255
61.403832 -49.265263 -243.072230 0 120 255
60.809558 -49.576012 -240.689594 0 120 255
60.177905 -49.909078 -238.319357 0 120 255
59.546252 -50.242143 -235.949119 0 120 255
58.914599 -50.575209 -233.578881 0 120 255
58.261747 -50.920844 -231.216485 0 120 255
57.566092 -51.291858 -228.869922 0 120 255
56.870436 -51.662873 -226.523359 0 120 255
56.174781 -52.033888 -224.176796 0 120 255
55.460177 -52.416094 -221.838033 0 120 255
54.697116 -52.826918 -219.519218 0 120 255
53.934055 -53.237742 -217.200402 0 120 255
53.170993 -53.648567 -214.881586 0 120 255
52.391566 -54.069047 -212.570255 0 120 255
51.557854 -54.521555 -210.283750 0 120 255
50.724143 -54.974064 -207.997245 0 120 255
49.890431 -55.426572 -205.710739 0 120 255
49.043240 -55.887045 -203.431074 0 120 255
48.135835 -56.383094 -201.181964 0 120 255
47.228431 -56.879142 -198.932853 0 120 255
46.321027 -57.375191 -196.683742 0 120 255
45.403299 -57.877363 -194.440440 0 120 255
44.419420 -58.418776 -192.234358 0 120 255
43.435541 -58.960188 -190.028275 0 120 255
42.451661 -59.501600 -187.822193 0 120 255
41.460842 -60.047156 -185.620439 0 120 255
40.398023 -60.635701 -183.463595 0 120 255
39.335205 -61.224246 -181.306751 0 120 255
38.272386 -61.812791 -179.149907 0 120 255
37.206183 -62.403374 -176.995403 0 120 255
36.062345 -63.040726 -174.894603 0 120 255
34.918507 -63.678077 -172.793802 0 120 255
33.774669 -64.315429 -170.693002 0 120 255
32.630831 -64.952781 -168.592201 0 120 255
31.404645 -65.640313 -166.554637 0 120 255
30.178178 -66.328017 -164.517289 0 120 255
28.951712 -67.015720 -162.479940 0 120 255
27.725245 -67.703424 -160.442591 0 120 255
26.419060 -68.440402 -158.473323 0 120 255
25.108900 -69.179837 -156.507448 0 120 255
23.798741 -69.919271 -154.541573 0 120 255
22.488581 -70.658706 -152.575698 0 120 255
21.101917 -71.446251 -150.682674 0 120 255
19.707646 -72.238578 -148.796893 0 120 255
18.313376 -73.030906 -146.911111 0 120 255
16.919106 -73.823234 -145.025329 0 120 255
15.452122 -74.662244 -143.217039 0 120 255
13.974065 -75.508363 -141.420549 0 120 255
12.496008 -76.354481 -139.624058 0 120 255
11.017951 -77.200600 -137.827568 0 120 255
9.471537 -78.091692 -136.113011 0 120 255
7.910865 -78.992166 -134.415544 0 120 255
6.350192 -79.892640 -132.718077 0 120 255
4.789519 -80.793113 -131.020611 0 120 255
3.165400 -81.736581 -129.409250 0 120 255
1.524246 -82.691593 -127.821009 0 120 255
-0.116908 -83.646604 -126.232767 0 120 255
-1.758062 -84.601616 -124.644525 0 120 255
-3.457238 -85.597371 -123.146239 0 120 255
-5.175683 -86.606658 -121.677827 0 120 255
-6.894128 -87.615944 -120.209415 0 120 255
-8.612573 -88.625231 -118.741003 0 120 255
-10.383124 -89.672738 -117.365988 0 120 255
-12.174491 -90.735515 -116.028282 0 120 255
-13.965857 -91.798291 -114.690576 0 120 255
-15.757224 -92.861067 -113.352870 0 120 255
-17.594341 -93.959283 -112.111531 0 120 255
-19.452992 -95.074180 -110.915551 0 120 255
-21.311642 -96.189076 -109.719571 0 120 255
-23.170293 -97.303973 -108.523590 0 120 255
-25.067943 -98.451291 -107.426412 0 120 255
-26.986874 -99.616302 -106.383148 0 120 255
-28.905806 -100.781312 -105.339885 0 120 255
-30.824737 -101.946323 -104.296622 0 120 255
-32.775591 -103.140507 -103.353995 0 120 255
-34.746380 -104.352908 -102.474211 0 120 255
-36.717169 -105.565310 -101.594428 0 120 255
-38.687958 -106.777712 -100.714644 0 120 255
-40.683327 -108.015853 -99.936681 0 120 255
-42.696074 -109.272190 -99.230696 0 120 255
-44.708820 -110.528527 -98.524710 0 120 255
-46.721566 -111.784864 -97.818724 0 120 255
-48.751368 -113.063336 -97.215034 0 120 255
-50.794693 -114.359359 -96.692452 0 120 255
-52.838019 -115.655382 -96.169870 0 120 255
-54.881344 -116.951405 -95.647289 0 120 255
-56.934101 -118.265826 -95.226729 0 120 255
-58.995181 -119.596478 -94.896181 0 120 255
-61.056260 -120.927130 -94.565633 0 120 255
-63.117340 -122.257782 -94.235084 0 120 255
-65.180215 -123.603008 -94.005499 0 120 255
-67.244842 -124.962442 -93.874346 0 120 255
-69.309468 -126.321877 -93.743194 0 120 255
-71.374094 -127.681312 -93.612041 0 120 255
-73.432970 -129.051449 -93.579980 0 120 255
-75.485688 -130.433046 -93.654031 0 120 255
-77.538405 -131.814644 -93.728082 0 120 255
-79.591123 -133.196241 -93.802132 0 120 255
-81.630736 -134.584676 -93.972571 0 120 255
-83.655014 -135.981110 -94.255791 0 120 255
-85.679293 -137.377543 -94.539010 0 120 255
-87.703572 -138.773977 -94.822230 0 120 255
-89.707699 -140.173439 -95.198297 0 120 255
-91.686174 -141.576754 -95.692553 0 120 255
-93.664648 -142.980070 -96.186809 0 120 255
-95.643123 -144.383385 -96.681065 0 120 255
-97.594823 -145.786038 -97.263802 0 120 255
-99.509573 -147.187777 -97.968648 0 120 255
-101.424322 -148.589516 -98.673494 0 120 255
-103.339071 -149.991255 -99.378339 0 120 255
-105.220972 -151.388826 -100.166498 0 120 255
-107.053850 -152.780176 -101.078995 0 120 255
-108.886727 -154.171526 -101.991493 0 120 255
-110.719604 -155.562876 -102.903990 0 120 255
-112.514241 -156.946797 -103.893883 0 120 255
-114.247249 -158.318744 -105.008508 0 120 255
-115.980257 -159.690692 -106.123133 0 120 255
-117.713265 -161.062639 -107.237758 0 120 255
-119.403444 -162.424220 -108.423186 0 120 255
-121.019107 -163.767764 -109.731799 0 120 255
-122.634769 -165.111309 -111.040412 0 120 255
-124.250432 -166.454853 -112.349025 0 120 255
-125.819601 -167.785488 -113.721275 0 120 255
-127.301352 -169.091851 -115.213179 0 120 255
-128.783103 -170.398214 -116.705083 0 120 255
-130.264853 -171.704577 -118.196986 0 120 255
-131.697490 -172.995937 -119.744927 0 120 255
-133.030067 -174.256730 -121.407028 0 120 255
-134.362645 -175.517524 -123.069130 0 120 255
-135.695222 -176.778318 -124.731232 0 120 255
-136.977186 -178.022536 -126.441496 0 120 255
-138.146957 -179.230012 -128.258522 0 120 255
-139.316729 -180.437489 -130.075547 0 120 255
-140.486500 -181.644965 -131.892572 0 120 255
-141.605348 -182.834849 -133.749810 0 120 255
-142.600609 -183.982036 -135.704641 0 120 255
-143.595871 -185.129223 -137.659471 0 120 255
-144.591132 -186.276410 -139.614301 0 120 255
-145.536373 -187.405587 -141.601521 0 120 255
-146.347584 -188.486506 -143.675526 0 120 255
-147.158795 -189.567424 -145.749531 0 120 255
-147.970006 -190.648343 -147.823536 0 120 255
-148.733296 -191.711425 -149.922467 0 120 255
-149.353244 -192.721156 -152.095956 0 120 255
-149.973191 -193.730887 -154.269445 0 120 255
-150.593138 -194.740617 -156.442934 0 120 255
-151.168394 -195.733277 -158.634462 0 120 255
-151.592250 -196.668105 -160.887103 0 120 255
-152.016106 -197.602933 -163.139743 0 120 255
-152.439962 -198.537761 -165.392383 0 120 255
-152.823383 -199.456822 -167.656967 0 120 255
-153.048714 -200.314236 -169.968246 0 120 255
-153.274044 -201.171650 -172.279526 0 120 255
-153.499374 -202.029065 -174.590805 0 120 255
-153.689407 -202.872502 -176.908899 0 120 255
-153.716097 -203.651257 -179.258532 0 120 255
-153.742787 -204.430012 -181.608165 0 120 255
-153.769477 -205.208767 -183.957797 0 120 255
-153.766706 -205.975727 -186.310233 0 120 255
-153.596808 -206.675778 -188.678567 0 120 255
-153.426911 -207.375829 -191.046902 0 120 255
-153.257013 -208.075879 -193.415237 0 120 255
-153.063989 -208.766609 -195.783575 0 120 255
-152.701535 -209.389055 -198.151936 0 120 255
-152.339081 -210.011500 -200.520297 0 120 255
-151.976627 -210.633945 -202.888658 0 120 255
-151.597665 -211.249724 -205.255482 0 120 255
-151.048415 -211.796737 -207.606449 0 120 255
-150.499165 -212.343750 -209.957416 0 120 255
-149.949915 -212.890763 -212.308384 0 120 255
-149.390846 -213.433822 -214.657528 0 120 255
-148.662032 -213.908526 -216.975163 0 120 255
-147.933219 -214.383231 -219.292798 0 120 255
-147.204405 -214.857935 -221.610433 0 120 255
-146.472332 -215.331338 -223.927161 0 120 255
-145.572372 -215.737679 -226.197162 0 120 255
-144.672412 -216.144021 -228.467162 0 120 255
-143.772452 -216.550363 -230.737163 0 120 255
-142.872492 -216.956705 -233.007164 0 120 255
-141.813704 -217.300502 -235.218070 0 120 255
-140.751927 -217.643123 -237.427863 0 120 255
-139.690150 -217.985743 -239.637656 0 120 255
-138.628373 -218.328364 -241.847450 0 120 255
-137.423555 -218.615857 -243.990342 0 120 255
-136.209960 -218.899969 -246.129130 0 120 255
-134.996366 -219.184081 -248.267918 0 120 255
-133.782772 -219.468193 -250.406707 0 120 255
-132.441734 -219.704649 -252.473359 0 120 255
-131.086716 -219.935878 -254.532097 0 120 255
-129.731699 -220.167106 -256.590836 0 120 255
-128.376681 -220.398335 -258.649575 0 120 255
-126.909327 -220.589275 -260.633280 0 120 255
-125.423456 -220.773574 -262.604616 0 120 255
-123.937584 -220.957873 -264.575952 0 120 255
-122.451713 -221.142172 -266.547288 0 120 255
-120.867901 -221.293261 -268.442784 0 120 255
-119.261762 -221.436780 -270.320992 0 120 255
-117.655623 -221.580298 -272.199201 0 120 255
-116.049484 -221.723816 -274.077409 0 120 255
-114.358880 -221.840774 -275.880762 0 120 255
-112.642885 -221.949747 -277.661613 0 120 255
-110.926889 -222.058720 -279.442464 0 120 255
-109.210893 -222.167694 -281.223314 0 120 255
-107.422550 -222.262306 -282.931142 0 120 255
-105.606367 -222.351394 -284.610871 0 120 255
-103.790185 -222.440481 -286.290600 0 120 255
-101.974002 -222.529568 -287.970330 0 120 255
-100.096303 -222.615618 -289.579852 0 120 255
-98.188832 -222.700198 -291.155399 0 120 255
-96.281360 -222.784778 -292.730945 0 120 255
-94.373889 -222.869357 -294.306491 0 120 255
-92.415963 -222.953832 -295.817550 0 120 255
-90.427677 -223.038244 -297.289806 0 120 255
-88.439391 -223.122656 -298.762063 0 120 255
-86.451106 -223.207068 -300.234320 0 120 255
-84.421698 -223.291665 -301.648002 0 120 255
-82.361816 -223.376400 -303.018276 0 120 255
-80.301934 -223.461135 -304.388551 0 120 255
-78.242052 -223.545869 -305.758825 0 120 255
-76.148742 -223.629985 -307.076158 0 120 255
-74.025090 -223.713539 -308.345435 0 120 255
-71.901437 -223.797092 -309.614712 0 120 255
-69.777784 -223.880646 -310.883989 0 120 255
-67.627691 -223.963333 -312.106695 0 120 255
-65.448143 -224.045054 -313.277524 0 120 255
-63.268596 -224.126775 -314.448352 0 120 255
-61.089048 -224.208496 -315.619181 0 120 255
-58.888950 -224.290342 -316.749666 0 120 255
-56.660606 -224.372360 -317.824701 0 120 255
-54.432261 -224.454378 -318.899736 0 120 255
-52.203917 -224.536396 -319.974771 0 120 255
-49.960003 -224.619055 -321.015713 0 120 255
-47.689458 -224.702812 -321.998339 0 120 255
-45.418912 -224.786569 -322.980964 0 120 255
-43.148367 -224.870327 -323.963590 0 120 255
-40.866354 -224.954578 -324.918204 0 120 255
-38.559582 -225.039897 -325.812333 0 120 255
-36.252810 -225.125216 -326.706463 0 120 255
-33.946037 -225.210535 -327.600593 0 120 255
-31.631103 -225.296182 -328.472439 0 120 255
-29.293396 -225.382741 -329.282119 0 120 255
-26.955690 -225.469301 -330.091799 0 120 255
-24.617983 -225.555861 -330.901479 0 120 255
-22.274744 -225.642610 -331.694235 0 120 255
-19.910780 -225.730071 -332.423598 0 120 255
-17.546816 -225.817533 -333.152961 0 120 255
-15.182853 -225.904994 -333.882325 0 120 255
-12.815443 -225.992551 -334.599843 0 120 255
-10.429512 -226.080621 -335.253697 0 120 255
-8.043582 -226.168690 -335.907552 0 120 255
-5.657652 -226.256760 -336.561406 0 120 255
-3.269851 -226.344867 -337.208012 0 120 255
-0.865665 -226.433299 -337.791118 0 120 255
1.538522 -226.521731 -338.374224 0 120 255
3.942708 -226.610163 -338.957330 0 120 255
6.347605 -226.698601 -339.537324 0 120 255
8.766746 -226.787155 -340.054877 0 120 255
11.185887 -226.875708 -340.572429 0 120 255
13.605028 -226.964262 -341.089982 0 120 255
16.024169 -227.052815 -341.607534 0 120 255
18.455358 -227.141290 -342.065144 0 120 255
20.886644 -227.229765 -342.522269 0 120 255
23.317931 -227.318239 -342.979394 0 120 255
25.749218 -227.406713 -343.436519 0 120 255
28.189551 -227.494914 -343.842416 0 120 255
30.630504 -227.583096 -344.244805 0 120 255
33.071457 -227.671279 -344.647195 0 120 255
35.512411 -227.759461 -345.049584 0 120 255
37.960007 -227.847147 -345.409128 0 120 255
40.408514 -227.934766 -345.762797 0 120 255
42.857021 -228.022385 -346.116466 0 120 255
45.305528 -228.110003 -346.470135 0 120 255
47.758966 -228.196690 -346.787603 0 120 255
50.213464 -228.283176 -347.097283 0 120 255
52.667963 -228.369662 -347.406962 0 120 255
55.122462 -228.456148 -347.716642 0 120 255
57.580586 -228.539529 -347.996540 0 120 255
60.039813 -228.621966 -348.267380 0 120 255
62.499039 -228.704402 -348.538221 0 120 255
64.958266 -228.786839 -348.809061 0 120 255
67.420166 -228.862227 -349.056153 0 120 255
69.883154 -228.934750 -349.293589 0 120 255
72.346142 -229.007272 -349.531024 0 120 255
74.809131 -229.079795 -349.768459 0 120 255
77.274048 -229.142896 -349.987354 0 120 255
79.739981 -229.201041 -350.196493 0 120 255
82.205914 -229.259185 -350.405631 0 120 255
84.671847 -229.317330 -350.614770 0 120 255
87.139094 -229.365572 -350.810008 0 120 255
89.607217 -229.407204 -350.995967 0 120 255
92.075340 -229.448835 -351.181926 0 120 255
94.543463 -229.490467 -351.367885 0 120 255
97.012424 -229.521983 -351.543995 0 120 255
99.482088 -229.545028 -351.711857 0 120 255
101.951751 -229.568074 -351.879720 0 120 255
104.421414 -229.591119 -352.047582 0 120 255
106.891547 -229.604081 -352.209050 0 120 255
109.362170 -229.606506 -352.363836 0 120 255
111.832794 -229.608930 -352.518623 0 120 255
114.303418 -229.611355 -352.673409 0 120 255
116.774220 -229.603978 -352.824690 0 120 255
119.245255 -229.583818 -352.971400 0 120 255
121.716290 -229.563657 -353.118110 0 120 255
124.187326 -229.543497 -353.264820 0 120 255
126.658308 -229.514051 -353.410349 0 120 255
129.129205 -229.469406 -353.553946 0 120 255
131.600103 -229.424762 -353.697543 0 120 255
134.071000 -229.380117 -353.841140 0 120 255
136.541663 -229.326929 -353.985306 0 120 255
139.011842 -229.255979 -354.130657 0 120 255
141.482022 -229.185029 -354.276009 0 120 255
143.952201 -229.114079 -354.421360 0 120 255
146.422010 -229.035539 -354.568511 0 120 255
148.890824 -228.936545 -354.720511 0 120 255
151.359638 -228.837550 -354.872512 0 120 255
153.828451 -228.738555 -355.024513 0 120 255
156.296809 -228.633121 -355.179003 0 120 255
158.763518 -228.504422 -355.342488 0 120 255
161.230227 -228.375723 -355.505973 0 120 255
163.696937 -228.247024 -355.669458 0 120 255
166.162054 -228.108270 -355.844575 0 120 255
168.619013 -227.917998 -356.079295 0 120 255
171.075972 -227.727726 -356.314015 0 120 255
173.532932 -227.537454 -356.548735 0 120 255
175.988878 -227.342275 -356.789065 0 120 255
178.437317 -227.110721 -357.070978 0 120 255
180.885756 -226.879168 -357.352891 0 120 255
183.334195 -226.647615 -357.634804 0 120 255
185.782634 -226.416060 -357.916718 0 120 255
188.231070 -226.184496 -358.198643 0 120 255
190.679507 -225.952931 -358.480569 0 120 255
193.127943 -225.721367 -358.762494 0 120 255
195.576380 -225.489802 -359.044419 0 120 255
198.024819 -225.258242 -359.326329 0 120 255
200.473257 -225.026681 -359.608240 0 120 255
202.921696 -224.795121 -359.890150 0 120 255
205.370134 -224.563560 -360.172061 0 120 255
