ply
format ascii 1.0
element vertex 385
property float x
property float y
property float z
property uchar red
property uchar green
property uchar blue
end_header
77.430455 -42.474882 -360.397637 0 120 255
77.187510 -42.528721 -357.935499 0 120 255
76.944564 -42.582560 -355.473361 0 120 255
76.701619 -42.636399 -353.011223 0 120 255
76.458673 -42.690238 -350.549085 0 120 255
76.222188 -42.758615 -348.086682 0 120 255
75.985978 -42.827612 -345.624267 0 120 255
75.749769 -42.896610 -343.161851 0 120 255
75.513559 -42.965608 -340.699436 0 120 255
75.318506 -43.195476 -338.243694 0 120 255
75.127162 -43.439844 -335.788554 0 120 255
74.935819 -43.684212 -333.333413 0 120 255
74.744475 -43.928580 -330.878272 0 120 255
74.586941 -44.295690 -328.436538 0 120 255
74.434341 -44.680714 -325.996761 0 120 255
74.281741 -45.065738 -323.556984 0 120 255
74.129142 -45.450762 -321.117206 0 120 255
74.007901 -45.936878 -318.694264 0 120 255
73.893179 -46.444006 -316.274821 0 120 255
73.778457 -46.951135 -313.855379 0 120 255
73.663735 -47.458263 -311.435936 0 120 255
73.576887 -48.047215 -309.034378 0 120 255
73.497756 -48.658821 -306.637772 0 120 255
73.418626 -49.270426 -304.241166 0 120 255
73.339495 -49.882031 -301.844560 0 120 255
73.283966 -50.558637 -299.465197 0 120 255
73.236797 -51.258261 -297.091941 0 120 255
73.189627 -51.957886 -294.718685 0 120 255
73.142457 -52.657510 -292.345429 0 120 255
73.114093 -53.407725 -289.987670 0 120 255
73.094029 -54.180266 -287.636751 0 120 255
73.073964 -54.952806 -285.285831 0 120 255
73.053900 -55.725347 -282.934912 0 120 255
73.047540 -56.536361 -280.597121 0 120 255
73.048586 -57.368162 -278.266424 0 120 255
73.049631 -58.199963 -275.935727 0 120 255
73.050677 -59.031764 -273.605030 0 120 255
73.060236 -59.892035 -271.284849 0 120 255
73.075360 -60.770915 -268.971543 0 120 255
73.090484 -61.649795 -266.658237 0 120 255
73.105608 -62.528675 -264.344931 0 120 255
73.124160 -63.427948 -262.039585 0 120 255
73.145401 -64.343223 -259.740484 0 120 255
73.166642 -65.258498 -257.441383 0 120 255
73.187883 -66.173772 -255.142282 0 120 255
73.207749 -67.103052 -252.848841 0 120 255
73.226326 -68.045462 -250.560706 0 120 255
73.244903 -68.987872 -248.272571 0 120 255
73.263479 -69.930282 -245.984436 0 120 255
73.276314 -70.881796 -243.700064 0 120 255
73.282725 -71.843494 -241.419902 0 120 255
73.289135 -72.805193 -239.139740 0 120 255
73.295546 -73.766892 -236.859578 0 120 255
73.292432 -74.734046 -234.581755 0 120 255
73.276590 -75.708492 -232.307058 0 120 255
73.260748 -76.682937 -230.032360 0 120 255
73.244906 -77.657383 -227.757663 0 120 255
73.216452 -78.634687 -225.484374 0 120 255
73.167785 -79.616572 -223.213344 0 120 255
73.119118 -80.598456 -220.942314 0 120 255
73.070452 -81.580341 -218.671284 0 120 255
73.006893 -82.563341 -216.401200 0 120 255
72.914501 -83.548499 -214.132947 0 120 255
72.822109 -84.533657 -211.864694 0 120 255
72.729717 -85.518816 -209.596442 0 120 255
72.621033 -86.504016 -207.329068 0 120 255
72.473807 -87.489316 -205.063775 0 120 255
72.326582 -88.474616 -202.798482 0 120 255
72.179356 -89.459916 -200.533190 0 120 255
72.015378 -90.444696 -198.269004 0 120 255
71.802160 -91.427945 -196.008075 0 120 255
71.588942 -92.411194 -193.747145 0 120 255
71.375723 -93.394443 -191.486215 0 120 255
71.146269 -94.376972 -189.226783 0 120 255
70.856015 -95.356804 -186.972958 0 120 255
70.565760 -96.336636 -184.719134 0 120 255
70.275505 -97.316468 -182.465309 0 120 255
69.970512 -98.295618 -180.213379 0 120 255
69.592459 -99.271386 -177.970836 0 120 255
69.214407 -100.247154 -175.728294 0 120 255
68.836355 -101.222922 -173.485751 0 120 255
68.446024 -102.198176 -171.245332 0 120 255
67.969892 -103.169838 -169.019750 0 120 255
67.493760 -104.141500 -166.794168 0 120 255
67.017628 -105.113162 -164.568586 0 120 255
66.532585 -106.084521 -162.345005 0 120 255
65.948755 -107.052529 -160.143608 0 120 255
65.364924 -108.020537 -157.942212 0 120 255
64.781094 -108.988544 -155.740815 0 120 255
64.192546 -109.956438 -153.540754 0 120 255
63.492279 -110.921631 -151.372328 0 120 255
62.792012 -111.886824 -149.203902 0 120 255
62.091744 -112.852017 -147.035476 0 120 255
61.391477 -113.817210 -144.867050 0 120 255
60.567316 -114.780690 -142.741848 0 120 255
59.742971 -115.744168 -140.616710 0 120 255
58.918626 -116.707645 -138.491573 0 120 255
58.094280 -117.671123 -136.366435 0 120 255
57.145175 -118.634170 -134.294008 0 120 255
56.190434 -119.597198 -132.223962 0 120 255
55.235693 -120.560226 -130.153916 0 120 255
54.280951 -121.523254 -128.083871 0 120 255
53.202494 -122.487066 -126.076319 0 120 255
52.112584 -123.450951 -124.074554 0 120 255
51.022673 -124.414835 -122.072788 0 120 255
49.932763 -125.378720 -120.071023 0 120 255
48.722099 -126.344444 -118.141552 0 120 255
47.494032 -127.310433 -116.222499 0 120 255
46.265965 -128.276421 -114.303447 0 120 255
45.037898 -129.242410 -112.384395 0 120 255
43.693913 -130.211048 -110.547154 0 120 255
42.326698 -131.180216 -108.726308 0 120 255
40.959482 -132.149384 -106.905463 0 120 255
39.592267 -133.118552 -105.084617 0 120 255
38.115756 -134.090881 -103.354518 0 120 255
36.610600 -135.064040 -101.648203 0 120 255
35.105443 -136.037198 -99.941888 0 120 255
33.600286 -137.010356 -98.235574 0 120 255
31.994124 -137.986870 -96.628055 0 120 255
30.354629 -138.964492 -95.053141 0 120 255
28.715133 -139.942113 -93.478227 0 120 255
27.075638 -140.919735 -91.903313 0 120 255
25.344891 -141.900544 -90.434071 0 120 255
23.577173 -142.882645 -89.007644 0 120 255
21.809455 -143.864746 -87.581217 0 120 255
20.041737 -144.846846 -86.154789 0 120 255
18.193774 -145.831648 -84.839472 0 120 255
16.306593 -146.817769 -83.578458 0 120 255
14.419413 -147.803890 -82.317444 0 120 255
12.532232 -148.790011 -81.056429 0 120 255
10.576765 -149.778028 -79.910299 0 120 255
8.581537 -150.767149 -78.831064 0 120 255
6.586308 -151.756270 -77.751830 0 120 255
4.591080 -152.745391 -76.672595 0 120 255
2.540170 -153.735346 -75.710157 0 120 255
0.450966 -154.725875 -74.828046 0 120 255
-1.638239 -155.716404 -73.945935 0 120 255
-3.727443 -156.706933 -73.063823 0 120 255
-5.859450 -157.697040 -72.298450 0 120 255
-8.026022 -158.686806 -71.627354 0 120 255
-10.192595 -159.676572 -70.956258 0 120 255
-12.359168 -160.666338 -70.285162 0 120 255
-14.555772 -161.654294 -69.728708 0 120 255
-16.780758 -162.640539 -69.280600 0 120 255
-19.005744 -163.626783 -68.832491 0 120 255
-21.230731 -164.613028 -68.384383 0 120 255
-23.473477 -165.596044 -68.046810 0 120 255
-25.735840 -166.575495 -67.831324 0 120 255
-27.998203 -167.554946 -67.615838 0 120 255
-30.260566 -168.534397 -67.400353 0 120 255
-32.529313 -169.509242 -67.289379 0 120 255
-34.806308 -170.478139 -67.313409 0 120 255
-37.083303 -171.447036 -67.337439 0 120 255
-39.360298 -172.415933 -67.361469 0 120 255
-41.633558 -173.378990 -67.482271 0 120 255
-43.901159 -174.333202 -67.749676 0 120 255
-46.168761 -175.287415 -68.017082 0 120 255
-48.436363 -176.241627 -68.284487 0 120 255
-50.691692 -177.188985 -68.639451 0 120 255
-52.925106 -178.124104 -69.150784 0 120 255
-55.158519 -179.059223 -69.662116 0 120 255
-57.391933 -179.994342 -70.173449 0 120 255
-59.606384 -180.921881 -70.761993 0 120 255
-61.780596 -181.833336 -71.514387 0 120 255
-63.954807 -182.744791 -72.266781 0 120 255
-66.129019 -183.656246 -73.019175 0 120 255
-68.279614 -184.559746 -73.837675 0 120 255
-70.369967 -185.442957 -74.824795 0 120 255
-72.460320 -186.326168 -75.811915 0 120 255
-74.550673 -187.209378 -76.799035 0 120 255
-76.614895 -188.084640 -77.840819 0 120 255
-78.597667 -188.935127 -79.052978 0 120 255
-80.580439 -189.785613 -80.265137 0 120 255
-82.563212 -190.636100 -81.477296 0 120 255
-84.519489 -191.479049 -82.732759 0 120 255
-86.372441 -192.292605 -84.157098 0 120 255
-88.225393 -193.106160 -85.581437 0 120 255
-90.078344 -193.919716 -87.005776 0 120 255
-91.906511 -194.726537 -88.462563 0 120 255
-93.609383 -195.499313 -90.083394 0 120 255
-95.312254 -196.272090 -91.704224 0 120 255
-97.015125 -197.044866 -93.325054 0 120 255
-98.696829 -197.812081 -94.968365 0 120 255
-100.231759 -198.540732 -96.767559 0 120 255
-101.766689 -199.269383 -98.566754 0 120 255
-103.301620 -199.998034 -100.365948 0 120 255
-104.820668 -200.722618 -102.178874 0 120 255
-106.172515 -201.404395 -104.136355 0 120 255
-107.524363 -202.086171 -106.093836 0 120 255
-108.876211 -202.767947 -108.051317 0 120 255
-110.218833 -203.447409 -110.015261 0 120 255
-111.375412 -204.080204 -112.109524 0 120 255
-112.531992 -204.712999 -114.203787 0 120 255
-113.688571 -205.345794 -116.298050 0 120 255
-114.843614 -205.978211 -118.393173 0 120 255
-115.795799 -206.560631 -120.601832 0 120 255
-116.747985 -207.143050 -122.810491 0 120 255
-117.700170 -207.725470 -125.019150 0 120 255
-118.652355 -208.307890 -127.227809 0 120 255
-119.400916 -208.840932 -129.525162 0 120 255
-120.142648 -209.372318 -131.825490 0 120 255
-120.884379 -209.903704 -134.125817 0 120 255
-121.626111 -210.435090 -136.426145 0 120 255
-122.169824 -210.919194 -138.790567 0 120 255
-122.698016 -211.399592 -141.160013 0 120 255
-123.226208 -211.879991 -143.529459 0 120 255
-123.754400 -212.360389 -145.898905 0 120 255
-124.092970 -212.796252 -148.310206 0 120 255
-124.407343 -213.226432 -150.726848 0 120 255
-124.721715 -213.656612 -153.143490 0 120 255
-125.036088 -214.086792 -155.560132 0 120 255
-125.171458 -214.475693 -157.999035 0 120 255
-125.274268 -214.857085 -160.441987 0 120 255
-125.377078 -215.238478 -162.884938 0 120 255
-125.479888 -215.619870 -165.327890 0 120 255
-125.416008 -215.963604 -167.776305 0 120 255
-125.311779 -216.298222 -170.226042 0 120 255
-125.207550 -216.632840 -172.675779 0 120 255
-125.103321 -216.967458 -175.125515 0 120 255
-124.845858 -217.268324 -177.566745 0 120 255
-124.541027 -217.558756 -180.005346 0 120 255
-124.236197 -217.849188 -182.443946 0 120 255
-123.931366 -218.139620 -184.882546 0 120 255
-123.487417 -218.400341 -187.301441 0 120 255
-122.990010 -218.649647 -189.712764 0 120 255
-122.492603 -218.898952 -192.124086 0 120 255
-121.995196 -219.148257 -194.535409 0 120 255
-121.373009 -219.371914 -196.918457 0 120 255
-120.692292 -219.583541 -199.288242 0 120 255
-120.011576 -219.795167 -201.658028 0 120 255
-119.330859 -220.006794 -204.027813 0 120 255
-118.539546 -220.196792 -206.363175 0 120 255
-117.685698 -220.374560 -208.679074 0 120 255
-116.831849 -220.552328 -210.994972 0 120 255
-115.978000 -220.730096 -213.310870 0 120 255
-115.027287 -220.890095 -215.588377 0 120 255
-114.011104 -221.038083 -217.839935 0 120 255
-112.994921 -221.186072 -220.091494 0 120 255
-111.978738 -221.334060 -222.343052 0 120 255
-110.878733 -221.467924 -224.554158 0 120 255
-109.711356 -221.590436 -226.732751 0 120 255
-108.543980 -221.712947 -228.911344 0 120 255
-107.376603 -221.835458 -231.089937 0 120 255
-106.137586 -221.947223 -233.227644 0 120 255
-104.830272 -222.048744 -235.326374 0 120 255
-103.522959 -222.150266 -237.425104 0 120 255
-102.215645 -222.251787 -239.523835 0 120 255
-100.847896 -222.345615 -241.582596 0 120 255
-99.411816 -222.430745 -243.596168 0 120 255
-97.975736 -222.515874 -245.609739 0 120 255
-96.539656 -222.601004 -247.623311 0 120 255
-95.053315 -222.681425 -249.598913 0 120 255
-93.499419 -222.755517 -251.523481 0 120 255
-91.945522 -222.829608 -253.448048 0 120 255
-90.391626 -222.903699 -255.372616 0 120 255
-88.796588 -222.976257 -257.262041 0 120 255
-87.135465 -223.046351 -259.095017 0 120 255
-85.474341 -223.116445 -260.927992 0 120 255
-83.813218 -223.186539 -262.760968 0 120 255
-82.118944 -223.256798 -264.562207 0 120 255
-80.360475 -223.327379 -266.301992 0 120 255
-78.602006 -223.397959 -268.041776 0 120 255
-76.843537 -223.468540 -269.781560 0 120 255
-75.058986 -223.539666 -271.493555 0 120 255
-73.212766 -223.612083 -273.139846 0 120 255
-71.366547 -223.684500 -274.786137 0 120 255
-69.520328 -223.756917 -276.432428 0 120 255
-67.654119 -223.830046 -278.055125 0 120 255
-65.729151 -223.905272 -279.608471 0 120 255
-63.804183 -223.980497 -281.161817 0 120 255
-61.879216 -224.055722 -282.715164 0 120 255
-59.939454 -224.131491 -284.249247 0 120 255
-57.944162 -224.209300 -285.711027 0 120 255
-55.948870 -224.287109 -287.172806 0 120 255
-53.953578 -224.364918 -288.634586 0 120 255
-51.947890 -224.443088 -290.081480 0 120 255
-49.890269 -224.523062 -291.454012 0 120 255
-47.832648 -224.603036 -292.826544 0 120 255
-45.775028 -224.683009 -294.199076 0 120 255
-43.710617 -224.763207 -295.560943 0 120 255
-41.597882 -224.844993 -296.846909 0 120 255
-39.485148 -224.926779 -298.132874 0 120 255
-37.372413 -225.008565 -299.418840 0 120 255
-35.255822 -225.090471 -300.698173 0 120 255
-33.094602 -225.173766 -301.900769 0 120 255
-30.933382 -225.257060 -303.103364 0 120 255
-28.772163 -225.340355 -304.305959 0 120 255
-26.609419 -225.423696 -305.505691 0 120 255
-24.405680 -225.508265 -306.628377 0 120 255
-22.201941 -225.592835 -307.751064 0 120 255
-19.998202 -225.677405 -308.873751 0 120 255
-17.794462 -225.761974 -309.996437 0 120 255
-15.553878 -225.847610 -311.043545 0 120 255
-13.313000 -225.933253 -312.090051 0 120 255
-11.072122 -226.018897 -313.136556 0 120 255
-8.831243 -226.104541 -314.183062 0 120 255
-6.559715 -226.191029 -315.161027 0 120 255
-4.286516 -226.277564 -316.135256 0 120 255
-2.013317 -226.364099 -317.109484 0 120 255
0.259882 -226.450633 -318.083713 0 120 255
2.558433 -226.537849 -318.996197 0 120 255
4.859662 -226.625137 -319.902163 0 120 255
7.160890 -226.712425 -320.808128 0 120 255
9.462118 -226.799713 -321.714093 0 120 255
11.784157 -226.887506 -322.564922 0 120 255
14.109565 -226.975382 -323.406824 0 120 255
16.434973 -227.063258 -324.248727 0 120 255
18.760381 -227.151133 -325.090629 0 120 255
21.102732 -227.239409 -325.883753 0 120 255
23.448883 -227.327775 -326.665935 0 120 255
25.795034 -227.416140 -327.448118 0 120 255
28.141186 -227.504506 -328.230300 0 120 255
30.501050 -227.593126 -328.969647 0 120 255
32.864943 -227.681822 -329.696411 0 120 255
35.228836 -227.770518 -330.423176 0 120 255
37.592729 -227.859213 -331.149941 0 120 255
39.967667 -227.948014 -331.839336 0 120 255
42.346708 -228.036854 -332.514847 0 120 255
44.725749 -228.125694 -333.190358 0 120 255
47.104790 -228.214533 -333.865869 0 120 255
49.492580 -228.303265 -334.509394 0 120 255
51.884388 -228.391947 -335.138228 0 120 255
54.276196 -228.480628 -335.767062 0 120 255
56.668005 -228.569310 -336.395896 0 120 255
59.066676 -228.657430 -336.997744 0 120 255
61.469183 -228.745235 -337.584509 0 120 255
63.871690 -228.833041 -338.171274 0 120 255
66.274198 -228.920846 -338.758039 0 120 255
68.682231 -229.006344 -339.321711 0 120 255
71.093982 -229.090290 -339.869847 0 120 255
73.505733 -229.174236 -340.417983 0 120 255
75.917485 -229.258182 -340.966119 0 120 255
78.333880 -229.336379 -341.493932 0 120 255
80.754009 -229.409955 -342.005408 0 120 255
83.174137 -229.483530 -342.516883 0 120 255
85.594266 -229.557105 -343.028359 0 120 255
88.018229 -229.622274 -343.522140 0 120 255
90.445861 -229.679395 -343.998986 0 120 255
92.873494 -229.736516 -344.475833 0 120 255
95.301126 -229.793637 -344.952679 0 120 255
97.731787 -229.841100 -345.414530 0 120 255
100.165896 -229.877564 -345.859306 0 120 255
102.600005 -229.914029 -346.304083 0 120 255
105.034114 -229.950493 -346.748859 0 120 255
107.470545 -229.976488 -347.181065 0 120 255
109.910127 -229.988274 -347.596210 0 120 255
112.349709 -230.000060 -348.011355 0 120 255
114.789291 -230.011846 -348.426500 0 120 255
117.230570 -230.012766 -348.831253 0 120 255
119.674609 -229.996028 -349.219118 0 120 255
122.118647 -229.979290 -349.606983 0 120 255
124.562686 -229.962552 -349.994848 0 120 255
127.007876 -229.934940 -350.374260 0 120 255
129.455324 -229.885993 -350.737090 0 120 255
131.902772 -229.837046 -351.099919 0 120 255
134.350220 -229.788098 -351.462748 0 120 255
136.798348 -229.728647 -351.818845 0 120 255
139.248105 -229.644014 -352.158802 0 120 255
141.697863 -229.559382 -352.498759 0 120 255
144.147620 -229.474749 -352.838716 0 120 255
146.597663 -229.380321 -353.173452 0 120 255
149.048559 -229.256681 -353.492612 0 120 255
151.499456 -229.133041 -353.811773 0 120 255
153.950352 -229.009401 -354.130934 0 120 255
156.401226 -228.877001 -354.446178 0 120 255
158.852016 -228.711217 -354.746495 0 120 255
161.302805 -228.545433 -355.046813 0 120 255
163.753595 -228.379649 -355.347130 0 120 255
166.204021 -228.205665 -355.645153 0 120 255
168.652602 -227.990084 -355.931541 0 120 255
171.101183 -227.774503 -356.217928 0 120 255
173.549765 -227.558922 -356.504315 0 120 255
175.998233 -227.341390 -356.790142 0 120 255
178.445892 -227.109910 -357.071965 0 120 255
180.893552 -226.878431 -357.353788 0 120 255
183.341211 -226.646951 -357.635612 0 120 255
185.788871 -226.415470 -357.917436 0 120 255
188.236527 -226.183980 -358.199271 0 120 255
190.684184 -225.952489 -358.481107 0 120 255
193.131841 -225.720998 -358.762943 0 120 255
195.579498 -225.489507 -359.044778 0 120 255
198.027157 -225.258021 -359.326599 0 120 255
200.474816 -225.026534 -359.608419 0 120 255
202.922475 -224.795047 -359.890240 0 120 255
205.370134 -224.563560 -360.172061 0 120 255
