ply
format ascii 1.0
element vertex 385
property float x
property float y
property float z
property uchar red
property uchar green
property uchar blue
end_header
77.430455 -42.474882 -360.397637 0 120 255
77.187565 -42.528709 -357.936055 0 120 255
76.944674 -42.582535 -355.474474 0 120 255
76.701784 -42.636362 -353.012893 0 120 255
76.458893 -42.690189 -350.551312 0 120 255
76.218007 -42.759774 -348.089931 0 120 255
75.977210 -42.830047 -345.628559 0 120 255
75.736412 -42.900320 -343.167187 0 120 255
75.495614 -42.970593 -340.705815 0 120 255
75.339139 -43.023499 -338.237353 0 120 255
75.190442 -43.074802 -335.768237 0 120 255
75.041744 -43.126106 -333.299122 0 120 255
74.893047 -43.177409 -330.830006 0 120 255
74.806205 -43.184245 -328.357591 0 120 255
74.728417 -43.184570 -325.884693 0 120 255
74.650630 -43.184896 -323.411795 0 120 255
74.572843 -43.185222 -320.938898 0 120 255
74.536842 -43.132515 -318.465790 0 120 255
74.509443 -43.068894 -315.992638 0 120 255
74.482043 -43.005273 -313.519487 0 120 255
74.454643 -42.941652 -311.046336 0 120 255
74.449786 -42.819615 -308.575447 0 120 255
74.451045 -42.681732 -306.105171 0 120 255
74.452304 -42.543849 -303.634896 0 120 255
74.453563 -42.405966 -301.164620 0 120 255
74.459386 -42.207315 -298.698754 0 120 255
74.466779 -41.987776 -296.234404 0 120 255
74.474171 -41.768237 -293.770053 0 120 255
74.481563 -41.548698 -291.305703 0 120 255
74.477226 -41.268811 -288.847798 0 120 255
74.467909 -40.963306 -286.392629 0 120 255
74.458591 -40.657800 -283.937460 0 120 255
74.449274 -40.352295 -281.482291 0 120 255
74.413949 -39.989319 -279.035622 0 120 255
74.365228 -39.596740 -276.593332 0 120 255
74.316507 -39.204161 -274.151041 0 120 255
74.267786 -38.811583 -271.708751 0 120 255
74.181077 -38.366470 -269.277091 0 120 255
74.070912 -37.888923 -266.851996 0 120 255
73.960748 -37.411375 -264.426901 0 120 255
73.850583 -36.933828 -262.001806 0 120 255
73.692947 -36.410306 -259.589540 0 120 255
73.500461 -35.853035 -257.186693 0 120 255
73.307976 -35.295763 -254.783847 0 120 255
73.115490 -34.738491 -252.381000 0 120 255
72.868661 -34.142958 -249.993185 0 120 255
72.574634 -33.514196 -247.618426 0 120 255
72.280607 -32.885433 -245.243667 0 120 255
71.986580 -32.256670 -242.868908 0 120 255
71.633961 -31.598026 -240.511285 0 120 255
71.221280 -30.908750 -238.171228 0 120 255
70.808599 -30.219473 -235.831171 0 120 255
70.395917 -29.530197 -233.491114 0 120 255
69.922961 -28.819599 -231.170068 0 120 255
69.377067 -28.083198 -228.872028 0 120 255
68.831172 -27.346798 -226.573988 0 120 255
68.285278 -26.610398 -224.275947 0 120 255
67.679799 -25.860957 -221.998432 0 120 255
66.988987 -25.092841 -219.750310 0 120 255
66.298176 -24.324725 -217.502188 0 120 255
65.607364 -23.556609 -215.254066 0 120 255
64.859792 -22.783041 -213.027483 0 120 255
64.015508 -22.000185 -210.837598 0 120 255
63.171225 -21.217329 -208.647713 0 120 255
62.326942 -20.434473 -206.457828 0 120 255
61.430514 -19.652702 -204.289884 0 120 255
60.427483 -18.873151 -202.166795 0 120 255
59.424453 -18.093600 -200.043707 0 120 255
58.421422 -17.314049 -197.920618 0 120 255
57.372275 -16.540790 -195.819168 0 120 255
56.208577 -15.783161 -193.771467 0 120 255
55.044879 -15.025531 -191.723766 0 120 255
53.881180 -14.267902 -189.676065 0 120 255
52.678378 -13.520240 -187.648940 0 120 255
51.355389 -12.803212 -185.685055 0 120 255
50.032400 -12.086185 -183.721169 0 120 255
48.709411 -11.369157 -181.757284 0 120 255
47.354879 -10.664130 -179.812127 0 120 255
45.877137 -10.005976 -177.940126 0 120 255
44.399395 -9.347822 -176.068125 0 120 255
42.921653 -8.689668 -174.196125 0 120 255
41.420045 -8.043876 -172.340236 0 120 255
39.795010 -7.462016 -170.567674 0 120 255
38.169976 -6.880156 -168.795111 0 120 255
36.544942 -6.298296 -167.022549 0 120 255
34.903432 -5.727544 -165.262755 0 120 255
33.141199 -5.238178 -163.596522 0 120 255
31.378967 -4.748813 -161.930289 0 120 255
29.616735 -4.259447 -160.264055 0 120 255
27.844767 -3.778439 -158.606594 0 120 255
25.957712 -3.396225 -157.052820 0 120 255
24.070657 -3.014011 -155.499047 0 120 255
22.183602 -2.631797 -153.945274 0 120 255
20.292593 -2.253877 -152.395712 0 120 255
18.295001 -1.991697 -150.959689 0 120 255
16.297409 -1.729517 -149.523666 0 120 255
14.299817 -1.467338 -148.087643 0 120 255
12.302225 -1.205158 -146.651620 0 120 255
10.210515 -1.073077 -145.336968 0 120 255
8.118179 -0.941861 -144.023123 0 120 255
6.025843 -0.810645 -142.709279 0 120 255
3.933508 -0.679428 -141.395434 0 120 255
1.767169 -0.681187 -140.201149 0 120 255
-0.402990 -0.689814 -139.013038 0 120 255
-2.573150 -0.698440 -137.824928 0 120 255
-4.743310 -0.707066 -136.636817 0 120 255
-6.968105 -0.848865 -135.565374 0 120 255
-9.198417 -1.004111 -134.505714 0 120 255
-11.428729 -1.159358 -133.446053 0 120 255
-13.659041 -1.314605 -132.386392 0 120 255
-15.925758 -1.600828 -131.439555 0 120 255
-18.198128 -1.907394 -130.510241 0 120 255
-20.470499 -2.213960 -129.580927 0 120 255
-22.742870 -2.520526 -128.651614 0 120 255
-25.034878 -2.953785 -127.830519 0 120 255
-27.331116 -3.414338 -127.032738 0 120 255
-29.627355 -3.874890 -126.234957 0 120 255
-31.923593 -4.335443 -125.437175 0 120 255
-34.224377 -4.916656 -124.742371 0 120 255
-36.526443 -5.531925 -124.076630 0 120 255
-38.828510 -6.147193 -123.410890 0 120 255
-41.130576 -6.762461 -122.745149 0 120 255
-43.423922 -7.490940 -122.176659 0 120 255
-45.714156 -8.259822 -121.642876 0 120 255
-48.004389 -9.028705 -121.109094 0 120 255
-50.294623 -9.797587 -120.575311 0 120 255
-52.564778 -10.671141 -120.132702 0 120 255
-54.826082 -11.590836 -119.730283 0 120 255
-57.087386 -12.510531 -119.327865 0 120 255
-59.348690 -13.430226 -118.925447 0 120 255
-61.580486 -14.445272 -118.607885 0 120 255
-63.796471 -15.511410 -118.335792 0 120 255
-66.012456 -16.577549 -118.063700 0 120 255
-68.228441 -17.643687 -117.791607 0 120 255
-70.407394 -18.795367 -117.597916 0 120 255
-72.562490 -20.002154 -117.454731 0 120 255
-74.717586 -21.208940 -117.311547 0 120 255
-76.872682 -22.415727 -117.168363 0 120 255
-78.985067 -23.698015 -117.097065 0 120 255
-81.064609 -25.038358 -117.081045 0 120 255
-83.144152 -26.378702 -117.065025 0 120 255
-85.223694 -27.719046 -117.049004 0 120 255
-87.256603 -29.124858 -117.098360 0 120 255
-89.246891 -30.590507 -117.207466 0 120 255
-91.237178 -32.056156 -117.316573 0 120 255
-93.227465 -33.521805 -117.425680 0 120 255
-95.168846 -35.043108 -117.593710 0 120 255
-97.057182 -36.624773 -117.825649 0 120 255
-98.945519 -38.206439 -118.057588 0 120 255
-100.833855 -39.788104 -118.289527 0 120 255
-102.672542 -41.416008 -118.574033 0 120 255
-104.447272 -43.103476 -118.926256 0 120 255
-106.222001 -44.790944 -119.278479 0 120 255
-107.996731 -46.478412 -119.630701 0 120 255
-109.722467 -48.203268 -120.029270 0 120 255
-111.372987 -49.985520 -120.498989 0 120 255
-113.023507 -51.767772 -120.968708 0 120 255
-114.674026 -53.550025 -121.438427 0 120 255
-116.277473 -55.361513 -121.948430 0 120 255
-117.794253 -57.226827 -122.532602 0 120 255
-119.311032 -59.092142 -123.116773 0 120 255
-120.827812 -60.957456 -123.700945 0 120 255
-122.300569 -62.844674 -124.319523 0 120 255
-123.675164 -64.780734 -125.014820 0 120 255
-125.049758 -66.716793 -125.710118 0 120 255
-126.424353 -68.652852 -126.405415 0 120 255
-127.758965 -70.604400 -127.129463 0 120 255
-128.984025 -72.598385 -127.932287 0 120 255
-130.209085 -74.592370 -128.735112 0 120 255
-131.434145 -76.586355 -129.537936 0 120 255
-132.624110 -78.590417 -130.364092 0 120 255
-133.693390 -80.629134 -131.270485 0 120 255
-134.762670 -82.667851 -132.176878 0 120 255
-135.831950 -84.706568 -133.083272 0 120 255
-136.871734 -86.751013 -134.007863 0 120 255
-137.780110 -88.820981 -135.013529 0 120 255
-138.688485 -90.890948 -136.019195 0 120 255
-139.596861 -92.960915 -137.024861 0 120 255
-140.481906 -95.033375 -138.043907 0 120 255
-141.225372 -97.120955 -139.144153 0 120 255
-141.968838 -99.208536 -140.244399 0 120 255
-142.712304 -101.296116 -141.344645 0 120 255
-143.439033 -103.384090 -142.453814 0 120 255
-144.014725 -105.475612 -143.643515 0 120 255
-144.590418 -107.567134 -144.833216 0 120 255
-145.166110 -109.658656 -146.022917 0 120 255
-145.731943 -111.749617 -147.217500 0 120 255
-146.138151 -113.831490 -148.491107 0 120 255
-146.544358 -115.913363 -149.764714 0 120 255
-146.950565 -117.995236 -151.038321 0 120 255
-147.353931 -120.076725 -152.313230 0 120 255
-147.590068 -122.135609 -153.664714 0 120 255
-147.826205 -124.194493 -155.016199 0 120 255
-148.062342 -126.253377 -156.367684 0 120 255
-148.298479 -128.312261 -157.719168 0 120 255
-148.369258 -130.336067 -159.140305 0 120 255
-148.435857 -132.358986 -160.563203 0 120 255
-148.502456 -134.381905 -161.986101 0 120 255
-148.569055 -136.404824 -163.408998 0 120 255
-148.478862 -138.382533 -164.892127 0 120 255
-148.377604 -140.357052 -166.379506 0 120 255
-148.276345 -142.331571 -167.866885 0 120 255
-148.175087 -144.306090 -169.354265 0 120 255
-147.926367 -146.226890 -170.892665 0 120 255
-147.659961 -148.141247 -172.437184 0 120 255
-147.393555 -150.055603 -173.981704 0 120 255
-147.127149 -151.969960 -175.526223 0 120 255
-146.723283 -153.823774 -177.112826 0 120 255
-146.295500 -155.667054 -178.706750 0 120 255
-145.867717 -157.510335 -180.300675 0 120 255
-145.439935 -159.353615 -181.894599 0 120 255
-144.885130 -161.131206 -183.522051 0 120 255
-144.300673 -162.893464 -185.157329 0 120 255
-143.716217 -164.655721 -186.792607 0 120 255
-143.131760 -166.417978 -188.427885 0 120 255
-142.431025 -168.111087 -190.088595 0 120 255
-141.695503 -169.783509 -191.756914 0 120 255
-140.959981 -171.455931 -193.425233 0 120 255
-140.224460 -173.128352 -195.093552 0 120 255
-139.383485 -174.729779 -196.779771 0 120 255
-138.503253 -176.304776 -198.472653 0 120 255
-137.623021 -177.879773 -200.165536 0 120 255
-136.742789 -179.454770 -201.858418 0 120 255
-135.767886 -180.958487 -203.562309 0 120 255
-134.749994 -182.429836 -205.271197 0 120 255
-133.732101 -183.901186 -206.980086 0 120 255
-132.714209 -185.372535 -208.688975 0 120 255
-131.612190 -186.773746 -210.402705 0 120 255
-130.464214 -188.136640 -212.119081 0 120 255
-129.316237 -189.499533 -213.835457 0 120 255
-128.168261 -190.862427 -215.551833 0 120 255
-126.946332 -192.157624 -217.267666 0 120 255
-125.676250 -193.408742 -218.983145 0 120 255
-124.406167 -194.659860 -220.698625 0 120 255
-123.136085 -195.910977 -222.414105 0 120 255
-121.801722 -197.097975 -224.124487 0 120 255
-120.417777 -198.235514 -225.830938 0 120 255
-119.033831 -199.373052 -227.537389 0 120 255
-117.649886 -200.510591 -229.243841 0 120 255
-116.210731 -201.588542 -230.941501 0 120 255
-114.721301 -202.612228 -232.631158 0 120 255
-113.231870 -203.635914 -234.320814 0 120 255
-111.742439 -204.659600 -236.010470 0 120 255
-110.206176 -205.628970 -237.688511 0 120 255
-108.619612 -206.540002 -239.354077 0 120 255
-107.033049 -207.451034 -241.019644 0 120 255
-105.446485 -208.362066 -242.685210 0 120 255
-103.820719 -209.224614 -244.337181 0 120 255
-102.145225 -210.025657 -245.971904 0 120 255
-100.469730 -210.826700 -247.606628 0 120 255
-98.794235 -211.627743 -249.241352 0 120 255
-97.086397 -212.386466 -250.861325 0 120 255
-95.329922 -213.081545 -252.459116 0 120 255
-93.573448 -213.776624 -254.056907 0 120 255
-91.816973 -214.471704 -255.654698 0 120 255
-90.034237 -215.130756 -257.237353 0 120 255
-88.204378 -215.725161 -258.792851 0 120 255
-86.374519 -216.319567 -260.348349 0 120 255
-84.544660 -216.913972 -261.903847 0 120 255
-82.693851 -217.478588 -263.444511 0 120 255
-80.797741 -217.978790 -264.953100 0 120 255
-78.901632 -218.478991 -266.461689 0 120 255
-77.005522 -218.979193 -267.970278 0 120 255
-75.093052 -219.455600 -269.464954 0 120 255
-73.137341 -219.869116 -270.922854 0 120 255
-71.181629 -220.282631 -272.380754 0 120 255
-69.225918 -220.696146 -273.838654 0 120 255
-67.257760 -221.091450 -275.284077 0 120 255
-65.248548 -221.426683 -276.688342 0 120 255
-63.239336 -221.761916 -278.092607 0 120 255
-61.230124 -222.097149 -279.496872 0 120 255
-59.211769 -222.419211 -280.890510 0 120 255
-57.154616 -222.685378 -282.239046 0 120 255
-55.097463 -222.951545 -283.587583 0 120 255
-53.040310 -223.217712 -284.936120 0 120 255
-50.976773 -223.475071 -286.276182 0 120 255
-48.876682 -223.681993 -287.567723 0 120 255
-46.776591 -223.888914 -288.859263 0 120 255
-44.676500 -224.095836 -290.150803 0 120 255
-42.572315 -224.297548 -291.436226 0 120 255
-40.433811 -224.455581 -292.670365 0 120 255
-38.295307 -224.613614 -293.904505 0 120 255
-36.156803 -224.771647 -295.138644 0 120 255
-34.016086 -224.927223 -296.369111 0 120 255
-31.843219 -225.047090 -297.546207 0 120 255
-29.670351 -225.166958 -298.723302 0 120 255
-27.497484 -225.286825 -299.900398 0 120 255
-25.323960 -225.406179 -301.076293 0 120 255
-23.121425 -225.502860 -302.199133 0 120 255
-20.918891 -225.599541 -303.321972 0 120 255
-18.716356 -225.696221 -304.444812 0 120 255
-16.513821 -225.792902 -305.567651 0 120 255
-14.286027 -225.880515 -306.640247 0 120 255
-12.057711 -225.967941 -307.711807 0 120 255
-9.829395 -226.055367 -308.783367 0 120 255
-7.601079 -226.142793 -309.854927 0 120 255
-5.350291 -226.227122 -310.878611 0 120 255
-3.098003 -226.311244 -311.899099 0 120 255
-0.845715 -226.395366 -312.919587 0 120 255
1.406574 -226.479489 -313.940075 0 120 255
3.679433 -226.563682 -314.913723 0 120 255
5.954707 -226.647883 -315.881873 0 120 255
8.229981 -226.732084 -316.850022 0 120 255
10.505255 -226.816286 -317.818171 0 120 255
12.799345 -226.901760 -318.740501 0 120 255
15.096699 -226.987455 -319.654885 0 120 255
17.394052 -227.073151 -320.569270 0 120 255
19.691405 -227.158846 -321.483654 0 120 255
22.005357 -227.245549 -322.354790 0 120 255
24.323222 -227.332491 -323.215732 0 120 255
26.641086 -227.419432 -324.076674 0 120 255
28.958950 -227.506373 -324.937617 0 120 255
31.291054 -227.593932 -325.758807 0 120 255
33.627504 -227.681678 -326.567866 0 120 255
35.963955 -227.769425 -327.376925 0 120 255
38.300405 -227.857172 -328.185983 0 120 255
40.648957 -227.945233 -328.958811 0 120 255
43.002146 -228.033415 -329.717758 0 120 255
45.355335 -228.121596 -330.476706 0 120 255
47.708524 -228.209778 -331.235653 0 120 255
50.071714 -228.297964 -331.962493 0 120 255
52.439616 -228.386152 -332.674207 0 120 255
54.807518 -228.474341 -333.385921 0 120 255
57.175421 -228.562529 -334.097636 0 120 255
59.551479 -228.650249 -334.781333 0 120 255
61.932194 -228.737701 -335.449031 0 120 255
64.312909 -228.825152 -336.116730 0 120 255
66.693625 -228.912604 -336.784429 0 120 255
69.081216 -228.997900 -337.427034 0 120 255
71.473518 -229.081718 -338.052447 0 120 255
73.865819 -229.165536 -338.677860 0 120 255
76.258121 -229.249355 -339.303274 0 120 255
78.656328 -229.327575 -339.906006 0 120 255
81.059356 -229.401227 -340.490222 0 120 255
83.462383 -229.474878 -341.074437 0 120 255
85.865411 -229.548529 -341.658653 0 120 255
88.273391 -229.613751 -342.222715 0 120 255
90.686171 -229.670806 -342.767244 0 120 255
93.098951 -229.727861 -343.311774 0 120 255
95.511731 -229.784915 -343.856303 0 120 255
97.928546 -229.832199 -344.383143 0 120 255
100.349999 -229.868249 -344.889640 0 120 255
102.771452 -229.904299 -345.396138 0 120 255
105.192905 -229.940349 -345.902636 0 120 255
107.617557 -229.965780 -346.393756 0 120 255
110.046582 -229.976697 -346.863858 0 120 255
112.475606 -229.987613 -347.333959 0 120 255
114.904631 -229.998529 -347.804060 0 120 255
117.336102 -229.998458 -348.260933 0 120 255
119.771565 -229.980450 -348.696213 0 120 255
122.207028 -229.962442 -349.131493 0 120 255
124.642492 -229.944434 -349.566774 0 120 255
127.079734 -229.915528 -349.990801 0 120 255
129.520473 -229.865213 -350.392721 0 120 255
131.961211 -229.814898 -350.794641 0 120 255
134.401949 -229.764582 -351.196562 0 120 255
136.843886 -229.703874 -351.589067 0 120 255
139.288689 -229.618301 -351.959051 0 120 255
141.733493 -229.532729 -352.329035 0 120 255
144.178296 -229.447157 -352.699019 0 120 255
146.623813 -229.352076 -353.061283 0 120 255
149.071445 -229.228815 -353.400670 0 120 255
151.519076 -229.105555 -353.740057 0 120 255
153.966707 -228.982295 -354.079444 0 120 255
156.414669 -228.850723 -354.412672 0 120 255
158.863879 -228.687860 -354.722710 0 120 255
161.313088 -228.524996 -355.032749 0 120 255
163.762297 -228.362133 -355.342788 0 120 255
166.211374 -228.191048 -355.648745 0 120 255
168.659790 -227.979087 -355.934408 0 120 255
171.108207 -227.767126 -356.220071 0 120 255
173.556624 -227.555165 -356.505734 0 120 255
176.004876 -227.340762 -356.790907 0 120 255
178.451982 -227.109335 -357.072666 0 120 255
180.899088 -226.877907 -357.354426 0 120 255
183.346194 -226.646480 -357.636185 0 120 255
185.793300 -226.415052 -357.917946 0 120 255
188.240403 -226.183613 -358.199718 0 120 255
190.687507 -225.952175 -358.481490 0 120 255
193.134611 -225.720736 -358.763262 0 120 255
195.581714 -225.489298 -359.045033 0 120 255
198.028819 -225.257863 -359.326798 0 120 255
200.475924 -225.026429 -359.608562 0 120 255
202.923028 -224.794995 -359.890326 0 120 255
205.370133 -224.563560 -360.172091 0 120 255
