ply
format ascii 1.0
element vertex 385
property float x
property float y
property float z
property uchar red
property uchar green
property uchar blue
end_header
77.430455 -42.474882 -360.397637 0 120 255
77.187506 -42.528722 -357.935462 0 120 255
76.944557 -42.582561 -355.473287 0 120 255
76.701608 -42.636401 -353.011112 0 120 255
76.458659 -42.690241 -350.548937 0 120 255
76.209714 -42.774244 -348.088214 0 120 255
75.960513 -42.859532 -345.627553 0 120 255
75.711313 -42.944820 -343.166892 0 120 255
75.462113 -43.030109 -340.706231 0 120 255
75.271761 -43.384611 -338.265836 0 120 255
75.086646 -43.763072 -335.827245 0 120 255
74.901531 -44.141534 -333.388654 0 120 255
74.716416 -44.519995 -330.950063 0 120 255
74.589287 -45.116544 -328.553315 0 120 255
74.470743 -45.745378 -326.162763 0 120 255
74.352198 -46.374212 -323.772210 0 120 255
74.233654 -47.003046 -321.381657 0 120 255
74.167437 -47.825632 -319.050611 0 120 255
74.112471 -48.689877 -316.732361 0 120 255
74.057505 -49.554123 -314.414110 0 120 255
74.002539 -50.418368 -312.095859 0 120 255
73.995234 -51.451516 -309.849462 0 120 255
74.001817 -52.533878 -307.624001 0 120 255
74.008399 -53.616240 -305.398540 0 120 255
74.014982 -54.698603 -303.173079 0 120 255
74.065464 -55.925483 -301.027057 0 120 255
74.132581 -57.207121 -298.911135 0 120 255
74.199698 -58.488760 -296.795213 0 120 255
74.266815 -59.770399 -294.679292 0 120 255
74.374836 -61.173387 -292.646310 0 120 255
74.502489 -62.634613 -290.653134 0 120 255
74.630142 -64.095839 -288.659958 0 120 255
74.757795 -65.557065 -286.666782 0 120 255
74.923972 -67.118170 -284.756652 0 120 255
75.113166 -68.738949 -282.896139 0 120 255
75.302361 -70.359727 -281.035625 0 120 255
75.491555 -71.980506 -279.175112 0 120 255
75.717334 -73.681715 -277.395046 0 120 255
75.970026 -75.442089 -275.674157 0 120 255
76.222718 -77.202463 -273.953269 0 120 255
76.475410 -78.962838 -272.232380 0 120 255
76.763015 -80.786368 -270.587269 0 120 255
77.082041 -82.666742 -269.010359 0 120 255
77.401068 -84.547115 -267.433449 0 120 255
77.720095 -86.427489 -265.856539 0 120 255
78.072463 -88.355947 -264.349212 0 120 255
78.461454 -90.337225 -262.918321 0 120 255
78.850446 -92.318504 -261.487431 0 120 255
79.239438 -94.299783 -260.056540 0 120 255
79.660160 -96.316251 -258.688022 0 120 255
80.123480 -98.379962 -257.403242 0 120 255
80.586801 -100.443672 -256.118462 0 120 255
81.050121 -102.507383 -254.833682 0 120 255
81.543369 -104.595469 -253.603451 0 120 255
82.085976 -106.723755 -252.463186 0 120 255
82.628583 -108.852041 -251.322921 0 120 255
83.171189 -110.980327 -250.182656 0 120 255
83.741563 -113.124120 -249.088773 0 120 255
84.368743 -115.299639 -248.089777 0 120 255
84.995923 -117.475158 -247.090782 0 120 255
85.623102 -119.650677 -246.091787 0 120 255
86.275511 -121.834694 -245.131025 0 120 255
86.992972 -124.040623 -244.268845 0 120 255
87.710433 -126.246552 -243.406666 0 120 255
88.427894 -128.452482 -242.544487 0 120 255
89.167815 -130.661659 -241.712960 0 120 255
89.982540 -132.881653 -240.983524 0 120 255
90.797265 -135.101647 -240.254087 0 120 255
91.611989 -137.321641 -239.524651 0 120 255
92.445129 -139.541210 -238.817646 0 120 255
93.360501 -141.758882 -238.210807 0 120 255
94.275872 -143.976554 -237.603969 0 120 255
95.191244 -146.194227 -236.997130 0 120 255
96.121077 -148.409439 -236.405915 0 120 255
97.143371 -150.608925 -235.914585 0 120 255
98.165665 -152.808411 -235.423256 0 120 255
99.187960 -155.007896 -234.931926 0 120 255
100.220451 -157.204311 -234.450504 0 120 255
101.358165 -159.369041 -234.071320 0 120 255
102.495879 -161.533771 -233.692137 0 120 255
103.633593 -163.698500 -233.312953 0 120 255
104.776331 -165.861076 -232.938072 0 120 255
106.033966 -167.974400 -232.661586 0 120 255
107.291600 -170.087724 -232.385099 0 120 255
108.549235 -172.201048 -232.108613 0 120 255
109.806870 -174.314372 -231.832127 0 120 255
111.188557 -176.359282 -231.649370 0 120 255
112.570725 -178.403926 -231.466977 0 120 255
113.952894 -180.448571 -231.284585 0 120 255
115.335063 -182.493215 -231.102192 0 120 255
116.838990 -184.455525 -231.000582 0 120 255
118.349176 -186.413603 -230.903124 0 120 255
119.859361 -188.371681 -230.805666 0 120 255
121.369547 -190.329759 -230.708207 0 120 255
122.997522 -192.192611 -230.678603 0 120 255
124.637595 -194.045683 -230.655966 0 120 255
126.277667 -195.898756 -230.633330 0 120 255
127.917739 -197.751829 -230.610693 0 120 255
129.669989 -199.497823 -230.643335 0 120 255
131.439988 -201.226874 -230.684724 0 120 255
133.209986 -202.955926 -230.726112 0 120 255
134.979985 -204.684977 -230.767501 0 120 255
136.854846 -206.296231 -230.852048 0 120 255
138.752606 -207.881760 -230.946021 0 120 255
140.650367 -209.467289 -231.039994 0 120 255
142.548127 -211.052818 -231.133967 0 120 255
144.541708 -212.511116 -231.259474 0 120 255
146.562469 -213.933324 -231.393925 0 120 255
148.583229 -215.355533 -231.528377 0 120 255
150.603990 -216.777742 -231.662828 0 120 255
152.709834 -218.064767 -231.817801 0 120 255
154.845850 -219.303854 -231.980051 0 120 255
156.981867 -220.542941 -232.142302 0 120 255
159.117883 -221.782027 -232.304552 0 120 255
161.326667 -222.879655 -232.477011 0 120 255
163.566883 -223.916176 -232.653880 0 120 255
165.807099 -224.952697 -232.830749 0 120 255
168.047316 -225.989218 -233.007618 0 120 255
170.346569 -226.879912 -233.185220 0 120 255
172.676315 -227.695284 -233.363200 0 120 255
175.006062 -228.510656 -233.541180 0 120 255
177.335809 -229.326028 -233.719161 0 120 255
179.709713 -229.993310 -233.889321 0 120 255
182.110520 -230.570371 -234.054716 0 120 255
184.511326 -231.147432 -234.220111 0 120 255
186.912133 -231.724493 -234.385506 0 120 255
189.341393 -232.153521 -234.535603 0 120 255
191.790892 -232.477252 -234.674819 0 120 255
194.240391 -232.800982 -234.814035 0 120 255
196.689890 -233.124713 -234.953251 0 120 255
199.151656 -233.306832 -235.070337 0 120 255
201.623534 -233.372226 -235.169181 0 120 255
204.095413 -233.437620 -235.268026 0 120 255
206.567291 -233.503014 -235.366871 0 120 255
209.036062 -233.430036 -235.438812 0 120 255
211.501880 -233.225538 -235.485179 0 120 255
213.967698 -233.021039 -235.531547 0 120 255
216.433515 -232.816541 -235.577915 0 120 255
218.880203 -232.475764 -235.594270 0 120 255
221.306106 -231.986931 -235.578018 0 120 255
223.732009 -231.498097 -235.561766 0 120 255
226.157912 -231.009263 -235.545515 0 120 255
228.549265 -230.392581 -235.496964 0 120 255
230.897848 -229.617631 -235.408429 0 120 255
233.246431 -228.842681 -235.319894 0 120 255
235.595014 -228.067731 -235.231359 0 120 255
237.894983 -227.175872 -235.109600 0 120 255
240.126485 -226.119361 -234.941049 0 120 255
242.357988 -225.062850 -234.772499 0 120 255
244.589490 -224.006339 -234.603948 0 120 255
246.760332 -222.846058 -234.402595 0 120 255
248.833951 -221.519464 -234.148670 0 120 255
250.907571 -220.192870 -233.894745 0 120 255
252.981190 -218.866276 -233.640821 0 120 255
254.984741 -217.450798 -233.355776 0 120 255
256.860226 -215.872865 -233.013853 0 120 255
258.735710 -214.294931 -232.671930 0 120 255
260.611195 -212.716998 -232.330007 0 120 255
262.410331 -211.066166 -231.959760 0 120 255
264.049612 -209.262705 -231.530209 0 120 255
265.688893 -207.459244 -231.100659 0 120 255
267.328174 -205.655783 -230.671108 0 120 255
268.888324 -203.795791 -230.216933 0 120 255
270.257290 -201.799218 -229.703266 0 120 255
271.626257 -199.802645 -229.189599 0 120 255
272.995223 -197.806071 -228.675931 0 120 255
274.285891 -195.768874 -228.141951 0 120 255
275.355875 -193.617175 -227.550719 0 120 255
276.425860 -191.465477 -226.959488 0 120 255
277.495844 -189.313778 -226.368256 0 120 255
278.491888 -187.136069 -225.761321 0 120 255
279.241029 -184.871506 -225.101949 0 120 255
279.990170 -182.606944 -224.442578 0 120 255
280.739310 -180.342381 -223.783206 0 120 255
281.422050 -178.064349 -223.112689 0 120 255
281.836167 -175.731832 -222.397079 0 120 255
282.250285 -173.399314 -221.681470 0 120 255
282.664402 -171.066797 -220.965861 0 120 255
283.022257 -168.730628 -220.243266 0 120 255
283.095257 -166.375974 -219.485306 0 120 255
283.168257 -164.021320 -218.727347 0 120 255
283.241257 -161.666666 -217.969387 0 120 255
283.269993 -159.314999 -217.207896 0 120 255
283.003878 -156.983227 -216.422879 0 120 255
282.737762 -154.651455 -215.637863 0 120 255
282.471646 -152.319683 -214.852847 0 120 255
282.174277 -149.994126 -214.066791 0 120 255
281.578687 -147.727870 -213.270811 0 120 255
280.983098 -145.461614 -212.474830 0 120 255
280.387508 -143.195359 -211.678849 0 120 255
279.773790 -140.935151 -210.883177 0 120 255
278.865076 -138.773359 -210.092529 0 120 255
277.956361 -136.611568 -209.301882 0 120 255
277.047647 -134.449776 -208.511234 0 120 255
276.133220 -132.290707 -207.721004 0 120 255
274.933415 -130.267637 -206.951665 0 120 255
273.733610 -128.244566 -206.182327 0 120 255
272.533806 -126.221496 -205.412988 0 120 255
271.334001 -124.198426 -204.643649 0 120 255
269.874817 -122.339665 -203.910113 0 120 255
268.410360 -120.484244 -203.177305 0 120 255
266.945903 -118.628824 -202.444496 0 120 255
265.481446 -116.773403 -201.711688 0 120 255
263.796166 -115.097355 -201.026451 0 120 255
262.096618 -113.432898 -200.344289 0 120 255
260.397069 -111.768441 -199.662127 0 120 255
258.697521 -110.103984 -198.979964 0 120 255
256.815221 -108.626794 -198.354755 0 120 255
254.912032 -107.171008 -197.736056 0 120 255
253.008844 -105.715222 -197.117357 0 120 255
251.105656 -104.259435 -196.498658 0 120 255
249.056043 -102.992496 -195.943892 0 120 255
246.981505 -101.757705 -195.400009 0 120 255
244.906967 -100.522913 -194.856127 0 120 255
242.832428 -99.288122 -194.312245 0 120 255
240.645052 -98.238507 -193.837014 0 120 255
238.431335 -97.232118 -193.377809 0 120 255
236.217619 -96.225729 -192.918604 0 120 255
234.003903 -95.219340 -192.459399 0 120 255
231.707569 -94.390243 -192.071523 0 120 255
229.386022 -93.615250 -191.705414 0 120 255
227.064476 -92.840257 -191.339306 0 120 255
224.742929 -92.065263 -190.973197 0 120 255
222.365251 -91.456530 -190.679289 0 120 255
219.965849 -90.912140 -190.413324 0 120 255
217.566447 -90.367751 -190.147359 0 120 255
215.167045 -89.823361 -189.881394 0 120 255
212.734152 -89.431970 -189.686940 0 120 255
210.285149 -89.114172 -189.526884 0 120 255
207.836146 -88.796375 -189.366828 0 120 255
205.387143 -88.478577 -189.206772 0 120 255
202.923493 -88.299152 -189.116257 0 120 255
200.451205 -88.201335 -189.066754 0 120 255
197.978917 -88.103517 -189.017252 0 120 255
195.506629 -88.005700 -188.967750 0 120 255
193.034933 -88.030937 -188.984754 0 120 255
190.563662 -88.144365 -189.049422 0 120 255
188.092391 -88.257794 -189.114090 0 120 255
185.621121 -88.371222 -189.178759 0 120 255
183.162344 -88.592283 -189.306055 0 120 255
180.714392 -88.906606 -189.487616 0 120 255
178.266441 -89.220928 -189.669177 0 120 255
175.818490 -89.535250 -189.850738 0 120 255
173.391907 -89.942105 -190.090389 0 120 255
170.987665 -90.445707 -190.390775 0 120 255
168.583422 -90.949310 -190.691161 0 120 255
166.179180 -91.452912 -190.991547 0 120 255
163.802477 -92.034617 -191.344979 0 120 255
161.460558 -92.714969 -191.765412 0 120 255
159.118639 -93.395322 -192.185845 0 120 255
156.776720 -94.075674 -192.606278 0 120 255
154.466125 -94.820605 -193.074343 0 120 255
152.203531 -95.664497 -193.615399 0 120 255
149.940937 -96.508389 -194.156456 0 120 255
147.678343 -97.352281 -194.697512 0 120 255
145.448764 -98.248309 -195.280525 0 120 255
143.281063 -99.242049 -195.942173 0 120 255
141.113361 -100.235789 -196.603820 0 120 255
138.945659 -101.229529 -197.265468 0 120 255
136.810835 -102.264161 -197.963229 0 120 255
134.752336 -103.393724 -198.744830 0 120 255
132.693838 -104.523287 -199.526431 0 120 255
130.635340 -105.652850 -200.308033 0 120 255
128.607982 -106.813329 -201.119832 0 120 255
126.671913 -108.064440 -202.020157 0 120 255
124.735843 -109.315550 -202.920482 0 120 255
122.799774 -110.566661 -203.820806 0 120 255
120.891699 -111.840029 -204.745410 0 120 255
119.090329 -113.198233 -205.762551 0 120 255
117.288959 -114.556436 -206.779692 0 120 255
115.487588 -115.914640 -207.796833 0 120 255
113.709829 -117.287785 -208.832427 0 120 255
112.054604 -118.738467 -209.963788 0 120 255
110.399378 -120.189149 -211.095148 0 120 255
108.744152 -121.639831 -212.226509 0 120 255
107.107069 -123.099488 -213.370707 0 120 255
105.608855 -124.627845 -214.613168 0 120 255
104.110642 -126.156202 -215.855629 0 120 255
102.612428 -127.684559 -217.098090 0 120 255
101.125895 -129.217299 -218.348026 0 120 255
99.794856 -130.808394 -219.697462 0 120 255
98.463816 -132.399489 -221.046898 0 120 255
97.132776 -133.990584 -222.396335 0 120 255
95.806048 -135.582860 -223.748237 0 120 255
94.650662 -137.222085 -225.198151 0 120 255
93.495276 -138.861310 -226.648066 0 120 255
92.339890 -140.500535 -228.097981 0 120 255
91.184504 -142.139760 -229.547895 0 120 255
90.212535 -143.809913 -231.093593 0 120 255
89.244385 -145.480710 -232.641285 0 120 255
88.276235 -147.151507 -234.188977 0 120 255
87.308086 -148.822304 -235.736670 0 120 255
86.522277 -150.508155 -237.368179 0 120 255
85.749155 -152.195053 -239.005520 0 120 255
84.976034 -153.881951 -240.642861 0 120 255
84.202913 -155.568849 -242.280202 0 120 255
83.606984 -157.258065 -243.986420 0 120 255
83.032948 -158.947567 -245.701149 0 120 255
82.458911 -160.637069 -247.415877 0 120 255
81.884874 -162.326571 -249.130605 0 120 255
81.485182 -164.004966 -250.902976 0 120 255
81.117251 -165.681337 -252.685849 0 120 255
80.749319 -167.357708 -254.468721 0 120 255
80.381387 -169.034079 -256.251593 0 120 255
80.182712 -170.687906 -258.079684 0 120 255
80.025789 -172.336171 -259.918930 0 120 255
79.868866 -173.984437 -261.758175 0 120 255
79.711943 -175.632702 -263.597421 0 120 255
79.717989 -177.248436 -265.469444 0 120 255
79.775851 -178.853827 -267.351889 0 120 255
79.833713 -180.459219 -269.234334 0 120 255
79.891575 -182.064610 -271.116779 0 120 255
80.105052 -183.628807 -273.019800 0 120 255
80.380295 -185.176654 -274.930988 0 120 255
80.655537 -186.724500 -276.842176 0 120 255
80.930779 -188.272347 -278.753364 0 120 255
81.353155 -189.771795 -280.673212 0 120 255
81.846865 -191.247777 -282.597258 0 120 255
82.340576 -192.723760 -284.521304 0 120 255
82.834287 -194.199742 -286.445350 0 120 255
83.465574 -195.621634 -288.366594 0 120 255
84.177115 -197.011972 -290.286202 0 120 255
84.888657 -198.402310 -292.205811 0 120 255
85.600198 -199.792648 -294.125420 0 120 255
86.438798 -201.124718 -296.031428 0 120 255
87.365628 -202.416328 -297.927993 0 120 255
88.292459 -203.707938 -299.824557 0 120 255
89.219289 -204.999548 -301.721122 0 120 255
90.261789 -206.230241 -303.594178 0 120 255
91.399204 -207.410948 -305.447943 0 120 255
92.536620 -208.591655 -307.301708 0 120 255
93.674036 -209.772361 -309.155473 0 120 255
94.915047 -210.891061 -310.976888 0 120 255
96.256058 -211.949904 -312.767074 0 120 255
97.597069 -213.008748 -314.557260 0 120 255
98.938081 -214.067592 -316.347446 0 120 255
100.370098 -215.064824 -318.097761 0 120 255
101.905203 -215.992263 -319.802911 0 120 255
103.440308 -216.919702 -321.508061 0 120 255
104.975414 -217.847140 -323.213211 0 120 255
106.588673 -218.714814 -324.872457 0 120 255
108.305815 -219.503048 -326.470687 0 120 255
110.022957 -220.291281 -328.068917 0 120 255
111.740099 -221.079514 -329.667147 0 120 255
113.522541 -221.811170 -331.215110 0 120 255
115.407034 -222.454406 -332.684518 0 120 255
117.291528 -223.097643 -334.153927 0 120 255
119.176021 -223.740879 -335.623335 0 120 255
121.113250 -224.331914 -337.039930 0 120 255
123.147802 -224.826613 -338.359058 0 120 255
125.182354 -225.321312 -339.678186 0 120 255
127.216906 -225.816010 -340.997314 0 120 255
129.292241 -226.263906 -342.262962 0 120 255
131.457096 -226.609066 -343.411218 0 120 255
133.621952 -226.954226 -344.559474 0 120 255
135.786808 -227.299386 -345.707730 0 120 255
137.981421 -227.603911 -346.803755 0 120 255
140.254562 -227.801204 -347.761948 0 120 255
142.527703 -227.998496 -348.720141 0 120 255
144.800844 -228.195788 -349.678334 0 120 255
147.093953 -228.359127 -350.587416 0 120 255
149.451399 -228.413063 -351.338260 0 120 255
151.808845 -228.467000 -352.089103 0 120 255
154.166291 -228.520936 -352.839947 0 120 255
156.535435 -228.547817 -353.546551 0 120 255
158.951652 -228.465824 -354.075135 0 120 255
161.367869 -228.383830 -354.603718 0 120 255
163.784086 -228.301837 -355.132302 0 120 255
166.205446 -228.198589 -355.622744 0 120 255
168.653545 -227.984843 -355.914897 0 120 255
171.101644 -227.771097 -356.207050 0 120 255
173.549742 -227.557351 -356.499204 0 120 255
175.997792 -227.341432 -356.790091 0 120 255
178.445488 -227.109949 -357.071919 0 120 255
180.893184 -226.878466 -357.353746 0 120 255
183.340880 -226.646982 -357.635574 0 120 255
185.788576 -226.415498 -357.917402 0 120 255
188.236270 -226.184004 -358.199242 0 120 255
190.683964 -225.952510 -358.481082 0 120 255
193.131657 -225.721015 -358.762922 0 120 255
195.579351 -225.489521 -359.044761 0 120 255
198.027047 -225.258031 -359.326586 0 120 255
200.474743 -225.026541 -359.608411 0 120 255
202.922439 -224.795050 -359.890236 0 120 255
205.370134 -224.563560 -360.172061 0 120 255
