ply
format ascii 1.0
element vertex 385
property float x
property float y
property float z
property uchar red
property uchar green
property uchar blue
end_header
77.430455 -42.474882 -360.397637 0 120 255
77.187531 -42.528716 -357.935712 0 120 255
76.944606 -42.582550 -355.473788 0 120 255
76.701682 -42.636385 -353.011863 0 120 255
76.458757 -42.690219 -350.549939 0 120 255
76.220067 -42.756306 -348.087900 0 120 255
75.981560 -42.822921 -345.625857 0 120 255
75.743052 -42.889536 -343.163813 0 120 255
75.504544 -42.956151 -340.701769 0 120 255
75.357184 -43.374533 -338.269823 0 120 255
75.217953 -43.824289 -335.840560 0 120 255
75.078722 -44.274045 -333.411298 0 120 255
74.939491 -44.723802 -330.982035 0 120 255
74.888718 -45.466845 -328.625334 0 120 255
74.850664 -46.252058 -326.279066 0 120 255
74.812610 -47.037272 -323.932798 0 120 255
74.774556 -47.822486 -321.586530 0 120 255
74.823759 -48.852397 -319.340655 0 120 255
74.890836 -49.932435 -317.115346 0 120 255
74.957914 -51.012474 -314.890037 0 120 255
75.024991 -52.092512 -312.664728 0 120 255
75.176415 -53.370689 -310.555232 0 120 255
75.350898 -54.703035 -308.477399 0 120 255
75.525382 -56.035382 -306.399566 0 120 255
75.699866 -57.367729 -304.321733 0 120 255
75.954633 -58.855712 -302.365187 0 120 255
76.237547 -60.398259 -300.451162 0 120 255
76.520461 -61.940806 -298.537137 0 120 255
76.803375 -63.483353 -296.623113 0 120 255
77.161809 -65.144229 -294.828361 0 120 255
77.553321 -66.856934 -293.085850 0 120 255
77.944834 -68.569639 -291.343340 0 120 255
78.336346 -70.282344 -289.600829 0 120 255
78.798213 -72.081643 -287.970261 0 120 255
79.297902 -73.927497 -286.399874 0 120 255
79.797592 -75.773351 -284.829487 0 120 255
80.297281 -77.619205 -283.259100 0 120 255
80.861975 -79.525404 -281.789843 0 120 255
81.469049 -81.470944 -280.386520 0 120 255
82.076124 -83.416484 -278.983196 0 120 255
82.683198 -85.362024 -277.579873 0 120 255
83.349876 -87.346760 -276.264870 0 120 255
84.063311 -89.362245 -275.019151 0 120 255
84.776746 -91.377729 -273.773432 0 120 255
85.490181 -93.393213 -272.527713 0 120 255
86.257825 -95.431298 -271.356627 0 120 255
87.076403 -97.490619 -270.255669 0 120 255
87.894982 -99.549939 -269.154711 0 120 255
88.713560 -101.609260 -268.053752 0 120 255
89.580984 -103.678539 -267.013714 0 120 255
90.503298 -105.759009 -266.042135 0 120 255
91.425612 -107.839478 -265.070556 0 120 255
92.347925 -109.919948 -264.098977 0 120 255
93.313761 -112.001095 -263.175211 0 120 255
94.338162 -114.083155 -262.315784 0 120 255
95.362563 -116.165214 -261.456358 0 120 255
96.386964 -118.247274 -260.596932 0 120 255
97.449601 -120.323526 -259.773237 0 120 255
98.574111 -122.390382 -259.007362 0 120 255
99.698621 -124.457238 -258.241486 0 120 255
100.823131 -126.524095 -257.475611 0 120 255
101.980626 -128.580966 -256.734724 0 120 255
103.202792 -130.618263 -256.042831 0 120 255
104.424958 -132.655559 -255.350939 0 120 255
105.647124 -134.692856 -254.659046 0 120 255
106.897080 -136.717868 -253.982955 0 120 255
108.213839 -138.713350 -253.344849 0 120 255
109.530597 -140.708833 -252.706742 0 120 255
110.847356 -142.704315 -252.068636 0 120 255
112.186797 -144.686723 -251.438813 0 120 255
113.594283 -146.629909 -250.833839 0 120 255
115.001768 -148.573095 -250.228864 0 120 255
116.409254 -150.516281 -249.623890 0 120 255
117.834468 -152.446817 -249.021454 0 120 255
119.327825 -154.328731 -248.428776 0 120 255
120.821181 -156.210645 -247.836097 0 120 255
122.314538 -158.092559 -247.243418 0 120 255
123.820911 -159.963218 -246.649339 0 120 255
125.394052 -161.776141 -246.048075 0 120 255
126.967194 -163.589064 -245.446811 0 120 255
128.540335 -165.401987 -244.845547 0 120 255
130.122154 -167.205823 -244.240767 0 120 255
131.767569 -168.943066 -243.610228 0 120 255
133.412983 -170.680309 -242.979689 0 120 255
135.058398 -172.417552 -242.349149 0 120 255
136.708686 -174.148497 -241.714777 0 120 255
138.417177 -175.804225 -241.034625 0 120 255
140.125668 -177.459953 -240.354474 0 120 255
141.834159 -179.115681 -239.674323 0 120 255
143.544456 -180.768399 -238.991765 0 120 255
145.304928 -182.337480 -238.242295 0 120 255
147.065400 -183.906561 -237.492825 0 120 255
148.825872 -185.475642 -236.743355 0 120 255
150.586345 -187.044723 -235.993885 0 120 255
152.385283 -188.523319 -235.156970 0 120 255
154.184513 -190.001227 -234.319391 0 120 255
155.983743 -191.479136 -233.481812 0 120 255
157.782974 -192.957044 -232.644233 0 120 255
159.604288 -194.344470 -231.706218 0 120 255
161.426752 -195.727184 -230.762974 0 120 255
163.249216 -197.109898 -229.819730 0 120 255
165.071680 -198.492612 -228.876486 0 120 255
166.898926 -199.785599 -227.822777 0 120 255
168.726653 -201.069587 -226.757990 0 120 255
170.554379 -202.353576 -225.693203 0 120 255
172.382105 -203.637565 -224.628416 0 120 255
174.196621 -204.833267 -223.446260 0 120 255
176.009118 -206.015486 -222.246179 0 120 255
177.821615 -207.197705 -221.046098 0 120 255
179.634113 -208.379924 -219.846017 0 120 255
181.415032 -209.475951 -218.524960 0 120 255
183.189321 -210.553884 -217.178506 0 120 255
184.963611 -211.631817 -215.832051 0 120 255
186.737900 -212.709750 -214.485597 0 120 255
188.462268 -213.704232 -213.017957 0 120 255
190.173027 -214.675965 -211.517284 0 120 255
191.883786 -215.647698 -210.016611 0 120 255
193.594545 -216.619432 -208.515939 0 120 255
195.237528 -217.511131 -206.897311 0 120 255
196.857365 -218.375499 -205.238402 0 120 255
198.477202 -219.239867 -203.579493 0 120 255
200.097039 -220.104235 -201.920585 0 120 255
201.632308 -220.892647 -200.150341 0 120 255
203.132256 -221.649335 -198.333596 0 120 255
204.632204 -222.406023 -196.516851 0 120 255
206.132151 -223.162711 -194.700105 0 120 255
207.532366 -223.848226 -192.781842 0 120 255
208.882487 -224.497993 -190.812589 0 120 255
210.232608 -225.147760 -188.843336 0 120 255
211.582729 -225.797526 -186.874082 0 120 255
212.820218 -226.381568 -184.816015 0 120 255
213.990475 -226.926377 -182.704934 0 120 255
215.160732 -227.471187 -180.593853 0 120 255
216.330989 -228.015996 -178.482772 0 120 255
217.378530 -228.501165 -176.297977 0 120 255
218.339738 -228.944376 -174.061322 0 120 255
219.300946 -229.387588 -171.824667 0 120 255
220.262154 -229.830799 -169.588012 0 120 255
221.093901 -230.221015 -167.294519 0 120 255
221.818898 -230.567531 -164.954158 0 120 255
222.543894 -230.914048 -162.613797 0 120 255
223.268891 -231.260564 -160.273436 0 120 255
223.861376 -231.561161 -157.894114 0 120 255
224.326194 -231.817516 -155.477255 0 120 255
224.791013 -232.073872 -153.060396 0 120 255
225.255831 -232.330228 -150.643537 0 120 255
225.588974 -232.547997 -148.205729 0 120 255
225.774040 -232.722374 -145.744362 0 120 255
225.959106 -232.896751 -143.282996 0 120 255
226.144173 -233.071127 -140.821629 0 120 255
226.202267 -233.214322 -138.356548 0 120 255
226.093525 -233.316546 -135.886587 0 120 255
225.984783 -233.418769 -133.416626 0 120 255
225.876041 -233.520992 -130.946665 0 120 255
225.648623 -233.599248 -128.488547 0 120 255
225.238411 -233.640586 -126.048670 0 120 255
224.828199 -233.681924 -123.608793 0 120 255
224.417987 -233.723262 -121.168916 0 120 255
223.900491 -233.747430 -118.753956 0 120 255
223.188185 -233.740422 -116.384240 0 120 255
222.475880 -233.733414 -114.014523 0 120 255
221.763574 -233.726406 -111.644807 0 120 255
220.957773 -233.708803 -109.309938 0 120 255
219.950091 -233.668320 -107.050309 0 120 255
218.942409 -233.627837 -104.790681 0 120 255
217.934727 -233.587354 -102.531052 0 120 255
216.848827 -233.542151 -100.312636 0 120 255
215.559479 -233.484672 -98.201414 0 120 255
214.270131 -233.427193 -96.090191 0 120 255
212.980783 -233.369714 -93.978968 0 120 255
211.629242 -233.310067 -91.911539 0 120 255
210.079049 -233.243500 -89.983988 0 120 255
208.528855 -233.176932 -88.056437 0 120 255
206.978662 -233.110364 -86.128887 0 120 255
205.381935 -233.042246 -84.244021 0 120 255
203.597601 -232.967874 -82.531244 0 120 255
201.813268 -232.893502 -80.818467 0 120 255
200.028934 -232.819130 -79.105691 0 120 255
198.212274 -232.743571 -77.431268 0 120 255
196.224467 -232.661729 -75.959905 0 120 255
194.236660 -232.579887 -74.488543 0 120 255
192.248854 -232.498045 -73.017180 0 120 255
190.240895 -232.415552 -71.577027 0 120 255
188.083493 -232.328225 -70.368320 0 120 255
185.926090 -232.240898 -69.159613 0 120 255
183.768688 -232.153571 -67.950906 0 120 255
181.600799 -232.065989 -66.764024 0 120 255
179.309870 -231.975404 -65.833208 0 120 255
177.018941 -231.884820 -64.902391 0 120 255
174.728011 -231.794235 -63.971574 0 120 255
172.433412 -231.703600 -63.051667 0 120 255
170.045904 -231.611689 -62.407974 0 120 255
167.658396 -231.519777 -61.764282 0 120 255
165.270889 -231.427865 -61.120589 0 120 255
162.883381 -231.335953 -60.476896 0 120 255
160.436123 -231.244346 -60.122952 0 120 255
157.988698 -231.152739 -59.769820 0 120 255
155.541274 -231.061132 -59.416687 0 120 255
153.093849 -230.969526 -59.063555 0 120 255
150.622937 -230.879478 -58.986393 0 120 255
148.150949 -230.789502 -58.921881 0 120 255
145.678961 -230.699526 -58.857369 0 120 255
143.206973 -230.609550 -58.792858 0 120 255
140.742888 -230.522021 -58.986266 0 120 255
138.279537 -230.434720 -59.203670 0 120 255
135.816186 -230.347419 -59.421073 0 120 255
133.352836 -230.260117 -59.638477 0 120 255
130.923585 -230.175840 -60.092699 0 120 255
128.499278 -230.092002 -60.581258 0 120 255
126.074971 -230.008163 -61.069816 0 120 255
123.650664 -229.924324 -61.558374 0 120 255
121.281430 -229.843832 -62.260771 0 120 255
118.923345 -229.764018 -63.006456 0 120 255
116.565260 -229.684203 -63.752142 0 120 255
114.207175 -229.604389 -64.497827 0 120 255
111.920106 -229.528072 -65.433516 0 120 255
109.651946 -229.452685 -66.419797 0 120 255
107.383786 -229.377299 -67.406079 0 120 255
105.115627 -229.301913 -68.392360 0 120 255
102.929771 -229.230032 -69.544851 0 120 255
100.771700 -229.159336 -70.753451 0 120 255
98.613630 -229.088639 -71.962052 0 120 255
96.455559 -229.017942 -73.170652 0 120 255
94.386909 -228.950694 -74.522407 0 120 255
92.355613 -228.884887 -75.933962 0 120 255
90.324317 -228.819079 -77.345518 0 120 255
88.293021 -228.753272 -78.757073 0 120 255
86.354648 -228.690810 -80.290012 0 120 255
84.463519 -228.630049 -81.884666 0 120 255
82.572390 -228.569288 -83.479320 0 120 255
80.681261 -228.508526 -85.073975 0 120 255
78.883509 -228.451013 -86.769895 0 120 255
77.142891 -228.395486 -88.527777 0 120 255
75.402273 -228.339960 -90.285658 0 120 255
73.661655 -228.284433 -92.043540 0 120 255
72.012389 -228.232075 -93.884468 0 120 255
70.429888 -228.182032 -95.786090 0 120 255
68.847386 -228.131989 -97.687713 0 120 255
67.264885 -228.081946 -99.589335 0 120 255
65.769757 -228.035105 -101.557800 0 120 255
64.350570 -227.991045 -103.584361 0 120 255
62.931384 -227.946986 -105.610922 0 120 255
61.512197 -227.902927 -107.637483 0 120 255
60.174899 -227.862005 -109.716702 0 120 255
58.922100 -227.824321 -111.850257 0 120 255
57.669301 -227.786637 -113.983812 0 120 255
56.416501 -227.748953 -116.117366 0 120 255
55.239096 -227.714186 -118.291418 0 120 255
54.154126 -227.682997 -120.515120 0 120 255
53.069156 -227.651807 -122.738822 0 120 255
51.984186 -227.620618 -124.962523 0 120 255
50.967392 -227.592028 -127.216444 0 120 255
50.050234 -227.567236 -129.514528 0 120 255
49.133077 -227.542445 -131.812612 0 120 255
48.215920 -227.517654 -134.110696 0 120 255
47.359283 -227.495149 -136.430479 0 120 255
46.608749 -227.476651 -138.788304 0 120 255
45.858215 -227.458154 -141.146129 0 120 255
45.107682 -227.439656 -143.503954 0 120 255
44.409801 -227.423127 -145.876571 0 120 255
43.823748 -227.410779 -148.280603 0 120 255
43.237696 -227.398432 -150.684636 0 120 255
42.651643 -227.386085 -153.088668 0 120 255
42.110338 -227.375404 -155.502047 0 120 255
41.685842 -227.369076 -157.939821 0 120 255
41.261346 -227.362749 -160.377596 0 120 255
40.836850 -227.356421 -162.815371 0 120 255
40.449307 -227.351454 -165.258360 0 120 255
40.182871 -227.350950 -167.718440 0 120 255
39.916435 -227.350447 -170.178520 0 120 255
39.649999 -227.349943 -172.638600 0 120 255
39.412928 -227.350517 -175.100935 0 120 255
39.300578 -227.355672 -177.572843 0 120 255
39.188228 -227.360826 -180.044752 0 120 255
39.075878 -227.365981 -182.516661 0 120 255
38.985618 -227.371941 -184.988901 0 120 255
39.023206 -227.382564 -187.463059 0 120 255
39.060793 -227.393187 -189.937217 0 120 255
39.098381 -227.403810 -192.411374 0 120 255
39.151123 -227.414981 -194.884852 0 120 255
39.334354 -227.430875 -197.352474 0 120 255
39.517585 -227.446770 -199.820095 0 120 255
39.700816 -227.462665 -202.287717 0 120 255
39.892634 -227.478868 -204.754450 0 120 255
40.217174 -227.499850 -207.207451 0 120 255
40.541715 -227.520832 -209.660452 0 120 255
40.866255 -227.541814 -212.113454 0 120 255
41.193188 -227.562882 -214.566069 0 120 255
41.654680 -227.588776 -216.996982 0 120 255
42.116171 -227.614670 -219.427895 0 120 255
42.577663 -227.640564 -221.858808 0 120 255
43.039154 -227.666458 -224.289721 0 120 255
43.629939 -227.696930 -226.692336 0 120 255
44.224153 -227.727523 -229.094202 0 120 255
44.818367 -227.758116 -231.496067 0 120 255
45.412580 -227.788708 -233.897932 0 120 255
46.126679 -227.823543 -236.266620 0 120 255
46.849682 -227.858693 -238.632843 0 120 255
47.572685 -227.893843 -240.999066 0 120 255
48.295689 -227.928992 -243.365290 0 120 255
49.129721 -227.968030 -245.694261 0 120 255
49.977818 -228.007560 -248.018514 0 120 255
50.825915 -228.047090 -250.342767 0 120 255
51.674012 -228.086620 -252.667020 0 120 255
52.624862 -228.129753 -254.950603 0 120 255
53.594664 -228.173550 -257.226684 0 120 255
54.564467 -228.217347 -259.502766 0 120 255
55.534270 -228.261144 -261.778847 0 120 255
56.599000 -228.308239 -264.011425 0 120 255
57.687309 -228.356152 -266.233196 0 120 255
58.775619 -228.404066 -268.454968 0 120 255
59.863929 -228.451979 -270.676739 0 120 255
61.039788 -228.502933 -272.852657 0 120 255
62.243630 -228.554857 -275.013918 0 120 255
63.447473 -228.606782 -277.175179 0 120 255
64.651315 -228.658706 -279.336440 0 120 255
65.935701 -228.713389 -281.449930 0 120 255
67.252259 -228.769172 -283.544338 0 120 255
68.568816 -228.824956 -285.638747 0 120 255
69.885374 -228.880739 -287.733155 0 120 255
71.275794 -228.938898 -289.778264 0 120 255
72.702362 -228.998218 -291.799245 0 120 255
74.128931 -229.057539 -293.820227 0 120 255
75.555499 -229.116859 -295.841208 0 120 255
77.049581 -229.178172 -297.811673 0 120 255
78.583604 -229.240663 -299.752254 0 120 255
80.117627 -229.303154 -301.692834 0 120 255
81.651649 -229.365645 -303.633414 0 120 255
83.247267 -229.429103 -305.522432 0 120 255
84.886528 -229.493247 -307.374914 0 120 255
86.525789 -229.557391 -309.227396 0 120 255
88.165050 -229.621534 -311.079878 0 120 255
89.861050 -229.683097 -312.879233 0 120 255
91.604921 -229.742482 -314.633761 0 120 255
93.348792 -229.801866 -316.388289 0 120 255
95.092663 -229.861251 -318.142818 0 120 255
96.888395 -229.914276 -319.842758 0 120 255
98.736053 -229.960932 -321.488044 0 120 255
100.583711 -230.007589 -323.133330 0 120 255
102.431369 -230.054245 -324.778616 0 120 255
104.325347 -230.092353 -326.368620 0 120 255
106.274328 -230.120311 -327.892981 0 120 255
108.223308 -230.148269 -329.417342 0 120 255
110.172289 -230.176227 -330.941702 0 120 255
112.161692 -230.194282 -332.410775 0 120 255
114.208126 -230.198365 -333.801844 0 120 255
116.254560 -230.202448 -335.192913 0 120 255
118.300995 -230.206532 -336.583982 0 120 255
120.381733 -230.199965 -337.920501 0 120 255
122.520237 -230.175463 -339.165162 0 120 255
124.658742 -230.150960 -340.409822 0 120 255
126.797247 -230.126458 -341.654483 0 120 255
128.963814 -230.091114 -342.846209 0 120 255
131.187215 -230.033811 -343.930730 0 120 255
133.410616 -229.976509 -345.015252 0 120 255
135.634017 -229.919206 -346.099773 0 120 255
137.879266 -229.851382 -347.133963 0 120 255
140.178345 -229.757636 -348.044144 0 120 255
142.477424 -229.663890 -348.954325 0 120 255
144.776503 -229.570143 -349.864506 0 120 255
147.091424 -229.466654 -350.728064 0 120 255
149.454627 -229.333473 -351.449533 0 120 255
151.817830 -229.200292 -352.171001 0 120 255
154.181033 -229.067111 -352.892469 0 120 255
156.554517 -228.925364 -353.572209 0 120 255
158.967717 -228.750526 -354.090746 0 120 255
161.380917 -228.575687 -354.609283 0 120 255
163.794117 -228.400849 -355.127820 0 120 255
166.212868 -228.218747 -355.609703 0 120 255
168.659831 -227.999733 -355.905314 0 120 255
171.106794 -227.780719 -356.200924 0 120 255
173.553758 -227.561704 -356.496535 0 120 255
176.000781 -227.341149 -356.790436 0 120 255
178.448228 -227.109690 -357.072234 0 120 255
180.895676 -226.878230 -357.354033 0 120 255
183.343123 -226.646770 -357.635832 0 120 255
185.790570 -226.415310 -357.917632 0 120 255
188.238015 -226.183839 -358.199443 0 120 255
190.685459 -225.952368 -358.481254 0 120 255
193.132904 -225.720898 -358.763065 0 120 255
195.580349 -225.489427 -359.044876 0 120 255
198.027795 -225.257960 -359.326680 0 120 255
200.475241 -225.026494 -359.608483 0 120 255
202.922687 -224.795027 -359.890287 0 120 255
205.370133 -224.563560 -360.172091 0 120 255
