ply
format ascii 1.0
element vertex 385
property float x
property float y
property float z
property uchar red
property uchar green
property uchar blue
end_header
77.430455 -42.474882 -360.397637 0 120 255
77.187565 -42.528708 -357.936061 0 120 255
76.944675 -42.582535 -355.474485 0 120 255
76.701785 -42.636362 -353.012909 0 120 255
76.458895 -42.690188 -350.551333 0 120 255
76.215375 -42.752963 -348.090032 0 120 255
75.971828 -42.816128 -345.628743 0 120 255
75.728281 -42.879293 -343.167454 0 120 255
75.484734 -42.942458 -340.706165 0 120 255
75.268329 -43.510978 -338.312964 0 120 255
75.054400 -44.125609 -335.925976 0 120 255
74.840471 -44.740240 -333.538988 0 120 255
74.626542 -45.354871 -331.152000 0 120 255
74.437660 -46.374843 -328.912001 0 120 255
74.252489 -47.454864 -326.693777 0 120 255
74.067317 -48.534884 -324.475553 0 120 255
73.882146 -49.614905 -322.257330 0 120 255
73.722230 -51.009981 -320.227350 0 120 255
73.567656 -52.471688 -318.237183 0 120 255
73.413082 -53.933395 -316.247015 0 120 255
73.258508 -55.395103 -314.256847 0 120 255
73.131455 -57.092247 -312.468709 0 120 255
73.012166 -58.855820 -310.737574 0 120 255
72.892878 -60.619393 -309.006439 0 120 255
72.773590 -62.382966 -307.275303 0 120 255
72.685379 -64.316352 -305.742150 0 120 255
72.608395 -66.311084 -304.280517 0 120 255
72.531411 -68.305815 -302.818885 0 120 255
72.454426 -70.300546 -301.357252 0 120 255
72.412746 -72.413363 -300.079165 0 120 255
72.386960 -74.579348 -298.883717 0 120 255
72.361174 -76.745332 -297.688270 0 120 255
72.335389 -78.911317 -296.492822 0 120 255
72.349339 -81.155818 -295.461218 0 120 255
72.385186 -83.443588 -294.519902 0 120 255
72.421033 -85.731357 -293.578586 0 120 255
72.456881 -88.019126 -292.637271 0 120 255
72.536735 -90.355754 -291.838080 0 120 255
72.645907 -92.724932 -291.133577 0 120 255
72.755079 -95.094111 -290.429075 0 120 255
72.864251 -97.463289 -289.724572 0 120 255
73.021228 -99.859402 -289.140380 0 120 255
73.216403 -102.277036 -288.652321 0 120 255
73.411579 -104.694669 -288.164261 0 120 255
73.606754 -107.112303 -287.676201 0 120 255
73.852808 -109.540812 -287.287559 0 120 255
74.147394 -111.979693 -286.993750 0 120 255
74.441981 -114.418575 -286.699941 0 120 255
74.736567 -116.857457 -286.406132 0 120 255
75.084143 -119.295539 -286.192266 0 120 255
75.491957 -121.732711 -286.069277 0 120 255
75.899770 -124.169884 -285.946288 0 120 255
76.307583 -126.607057 -285.823299 0 120 255
76.769334 -129.035027 -285.762426 0 120 255
77.304227 -131.450517 -285.785783 0 120 255
77.839120 -133.866007 -285.809140 0 120 255
78.374012 -136.281497 -285.832497 0 120 255
78.962444 -138.681855 -285.901884 0 120 255
79.637810 -141.057640 -286.046011 0 120 255
80.313176 -143.433426 -286.190138 0 120 255
80.988542 -145.809212 -286.334264 0 120 255
81.715571 -148.165867 -286.510148 0 120 255
82.543755 -150.485067 -286.748212 0 120 255
83.371939 -152.804266 -286.986276 0 120 255
84.200123 -155.123465 -287.224340 0 120 255
85.076552 -157.421136 -287.481777 0 120 255
86.068143 -159.667415 -287.785459 0 120 255
87.059735 -161.913695 -288.089141 0 120 255
88.051327 -164.159975 -288.392823 0 120 255
89.086220 -166.383750 -288.705527 0 120 255
90.249196 -168.540959 -289.044916 0 120 255
91.412172 -170.698168 -289.384305 0 120 255
92.575148 -172.855377 -289.723694 0 120 255
93.775109 -174.990459 -290.063973 0 120 255
95.113935 -177.042462 -290.407593 0 120 255
96.452762 -179.094466 -290.751213 0 120 255
97.791588 -181.146469 -291.094833 0 120 255
99.159987 -183.178083 -291.433635 0 120 255
100.674622 -185.108865 -291.748608 0 120 255
102.189257 -187.039647 -292.063580 0 120 255
103.703893 -188.970430 -292.378553 0 120 255
105.240049 -190.883926 -292.685648 0 120 255
106.925034 -192.677877 -292.938262 0 120 255
108.610019 -194.471828 -293.190876 0 120 255
110.295004 -196.265779 -293.443490 0 120 255
111.993421 -198.046907 -293.687957 0 120 255
113.837061 -199.689401 -293.844340 0 120 255
115.680701 -201.331894 -294.000724 0 120 255
117.524341 -202.974387 -294.157107 0 120 255
119.374037 -204.609781 -294.307908 0 120 255
121.357898 -206.087891 -294.335043 0 120 255
123.341759 -207.566001 -294.362177 0 120 255
125.325620 -209.044111 -294.389312 0 120 255
127.309696 -210.521893 -294.416146 0 120 255
129.408412 -211.825333 -294.283150 0 120 255
131.507127 -213.128772 -294.150155 0 120 255
133.605842 -214.432212 -294.017159 0 120 255
135.704558 -215.735652 -293.884163 0 120 255
137.882936 -216.864810 -293.570978 0 120 255
140.064574 -217.986840 -293.250421 0 120 255
142.246211 -219.108870 -292.929865 0 120 255
144.427849 -220.230899 -292.609309 0 120 255
146.651103 -221.184063 -292.095535 0 120 255
148.877994 -222.122468 -291.564875 0 120 255
151.104885 -223.060873 -291.034215 0 120 255
153.331776 -223.999279 -290.503555 0 120 255
155.561548 -224.778971 -289.773834 0 120 255
157.791717 -225.536737 -289.016613 0 120 255
160.021887 -226.294504 -288.259393 0 120 255
162.252056 -227.052270 -287.502173 0 120 255
164.447695 -227.666022 -286.547237 0 120 255
166.636641 -228.251863 -285.553983 0 120 255
168.825588 -228.837704 -284.560729 0 120 255
171.014534 -229.423545 -283.567475 0 120 255
173.134853 -229.883971 -282.384634 0 120 255
175.237661 -230.312394 -281.153414 0 120 255
177.340469 -230.740817 -279.922193 0 120 255
179.443276 -231.169240 -278.690973 0 120 255
181.448321 -231.493872 -277.284161 0 120 255
183.421763 -231.784954 -275.820588 0 120 255
185.395205 -232.076037 -274.357015 0 120 255
187.368647 -232.367119 -272.893442 0 120 255
189.221354 -232.577913 -271.272927 0 120 255
191.025862 -232.756656 -269.589760 0 120 255
192.830370 -232.935399 -267.906593 0 120 255
194.634877 -233.114142 -266.223426 0 120 255
196.302499 -233.236790 -264.405239 0 120 255
197.903792 -233.332257 -262.521626 0 120 255
199.505085 -233.427724 -260.638014 0 120 255
201.106378 -233.523191 -258.754401 0 120 255
202.561600 -233.587852 -256.759593 0 120 255
203.931934 -233.634610 -254.700164 0 120 255
205.302267 -233.681368 -252.640735 0 120 255
206.672601 -233.728126 -250.581306 0 120 255
207.894397 -233.765629 -248.435026 0 120 255
209.013442 -233.796730 -246.228667 0 120 255
210.132488 -233.827831 -244.022308 0 120 255
211.251533 -233.858932 -241.815950 0 120 255
212.222287 -233.884597 -239.545098 0 120 255
213.071487 -233.905806 -237.221381 0 120 255
213.920687 -233.927014 -234.897665 0 120 255
214.769887 -233.948223 -232.573948 0 120 255
215.475793 -233.964489 -230.207310 0 120 255
216.042856 -233.975967 -227.799083 0 120 255
216.609920 -233.987445 -225.390856 0 120 255
217.176984 -233.998922 -222.982630 0 120 255
217.609435 -234.005594 -220.551008 0 120 255
217.887716 -234.006760 -218.092593 0 120 255
218.165997 -234.007927 -215.634177 0 120 255
218.444279 -234.009094 -213.175761 0 120 255
218.599260 -234.005762 -210.710704 0 120 255
218.586992 -233.996328 -208.236636 0 120 255
218.574724 -233.986893 -205.762569 0 120 255
218.562457 -233.977459 -203.288502 0 120 255
218.440163 -233.964039 -200.821424 0 120 255
218.140297 -233.944185 -198.365628 0 120 255
217.840430 -233.924332 -195.909832 0 120 255
217.540564 -233.904478 -193.454036 0 120 255
217.145247 -233.881203 -191.015552 0 120 255
216.565258 -233.851309 -188.610564 0 120 255
215.985268 -233.821415 -186.205576 0 120 255
215.405279 -233.791520 -183.800588 0 120 255
214.744955 -233.758786 -181.419914 0 120 255
213.896192 -233.719389 -179.096276 0 120 255
213.047428 -233.679992 -176.772637 0 120 255
212.198665 -233.640594 -174.448998 0 120 255
211.284612 -233.598912 -172.153482 0 120 255
210.181794 -233.550623 -169.939276 0 120 255
209.078977 -233.502335 -167.725069 0 120 255
207.976159 -233.454046 -165.510863 0 120 255
206.822472 -233.404017 -163.325632 0 120 255
205.483140 -233.347636 -161.246147 0 120 255
204.143807 -233.291255 -159.166661 0 120 255
202.804475 -233.234874 -157.087176 0 120 255
201.427599 -233.177216 -155.034894 0 120 255
199.871408 -233.113461 -153.112537 0 120 255
198.315217 -233.049706 -151.190181 0 120 255
196.759027 -232.985951 -149.267825 0 120 255
195.177189 -232.921350 -147.368627 0 120 255
193.425449 -232.851139 -145.622854 0 120 255
191.673708 -232.780929 -143.877080 0 120 255
189.921968 -232.710719 -142.131307 0 120 255
188.154802 -232.640013 -140.402748 0 120 255
186.230115 -232.564236 -138.849981 0 120 255
184.305428 -232.488459 -137.297213 0 120 255
182.380741 -232.412682 -135.744446 0 120 255
180.448991 -232.336681 -134.201434 0 120 255
178.374698 -232.256157 -132.855301 0 120 255
176.300405 -232.175633 -131.509167 0 120 255
174.226113 -232.095109 -130.163034 0 120 255
172.151163 -232.014566 -128.818037 0 120 255
169.951057 -231.930284 -127.689463 0 120 255
167.750951 -231.846002 -126.560890 0 120 255
165.550845 -231.761720 -125.432316 0 120 255
163.350738 -231.677437 -124.303743 0 120 255
161.052514 -231.590392 -123.392886 0 120 255
158.750545 -231.503241 -122.490339 0 120 255
156.448575 -231.416090 -121.587793 0 120 255
154.146606 -231.328939 -120.685247 0 120 255
151.772787 -231.239925 -119.996807 0 120 255
149.392825 -231.150751 -119.326673 0 120 255
147.012864 -231.061576 -118.656539 0 120 255
144.632902 -230.972402 -117.986405 0 120 255
142.205263 -230.882267 -117.524419 0 120 255
139.771076 -230.792000 -117.091020 0 120 255
137.336889 -230.701732 -116.657621 0 120 255
134.902703 -230.611465 -116.224222 0 120 255
132.442861 -230.521022 -115.991153 0 120 255
129.978034 -230.430545 -115.797020 0 120 255
127.513206 -230.340068 -115.602886 0 120 255
125.048378 -230.249592 -115.408753 0 120 255
122.577801 -230.159599 -115.405517 0 120 255
120.105744 -230.069732 -115.451408 0 120 255
117.633687 -229.979864 -115.497299 0 120 255
115.161629 -229.889996 -115.543191 0 120 255
112.701642 -229.801213 -115.769343 0 120 255
110.245606 -229.712784 -116.054500 0 120 255
107.789569 -229.624356 -116.339657 0 120 255
105.333533 -229.535927 -116.624813 0 120 255
102.905359 -229.449155 -117.078526 0 120 255
100.488483 -229.363056 -117.600586 0 120 255
98.071607 -229.276956 -118.122646 0 120 255
95.654731 -229.190856 -118.644706 0 120 255
93.279475 -229.106851 -119.322583 0 120 255
90.924752 -229.023880 -120.077329 0 120 255
88.570028 -228.940909 -120.832075 0 120 255
86.215305 -228.857938 -121.586822 0 120 255
83.913840 -228.777437 -122.483688 0 120 255
81.643945 -228.698402 -123.464798 0 120 255
79.374049 -228.619366 -124.445909 0 120 255
77.104154 -228.540330 -125.427019 0 120 255
74.896847 -228.464048 -126.535612 0 120 255
72.733745 -228.389711 -127.734240 0 120 255
70.570642 -228.315374 -128.932868 0 120 255
68.407539 -228.241037 -130.131496 0 120 255
66.313920 -228.169655 -131.442344 0 120 255
64.278462 -228.100746 -132.847125 0 120 255
62.243004 -228.031837 -134.251907 0 120 255
60.207546 -227.962928 -135.656689 0 120 255
58.245883 -227.897063 -137.158073 0 120 255
56.357239 -227.834210 -138.755047 0 120 255
54.468596 -227.771357 -140.352020 0 120 255
52.579952 -227.708504 -141.948993 0 120 255
50.766780 -227.648684 -143.627006 0 120 255
49.041875 -227.592414 -145.399796 0 120 255
47.316970 -227.536143 -147.172586 0 120 255
45.592066 -227.479872 -148.945377 0 120 255
43.941807 -227.426570 -150.784203 0 120 255
42.394966 -227.377380 -152.714517 0 120 255
40.848125 -227.328190 -154.644831 0 120 255
39.301284 -227.279000 -156.575145 0 120 255
37.825980 -227.232604 -158.557482 0 120 255
36.468654 -227.190816 -160.625613 0 120 255
35.111328 -227.149029 -162.693745 0 120 255
33.754002 -227.107242 -164.761877 0 120 255
32.463157 -227.068028 -166.869388 0 120 255
31.303850 -227.033906 -169.054815 0 120 255
30.144542 -226.999785 -171.240242 0 120 255
28.985235 -226.965663 -173.425669 0 120 255
27.885874 -226.933828 -175.639502 0 120 255
26.930493 -226.907485 -177.921563 0 120 255
25.975113 -226.881142 -180.203625 0 120 255
25.019732 -226.854799 -182.485686 0 120 255
24.116767 -226.830440 -184.787001 0 120 255
23.369235 -226.811961 -187.145412 0 120 255
22.621702 -226.793483 -189.503823 0 120 255
21.874170 -226.775004 -191.862234 0 120 255
21.170865 -226.758181 -194.232560 0 120 255
20.633515 -226.747568 -196.647594 0 120 255
20.096166 -226.736955 -199.062629 0 120 255
19.558817 -226.726342 -201.477664 0 120 255
19.057065 -226.717048 -203.899018 0 120 255
18.730786 -226.714258 -206.351523 0 120 255
18.404507 -226.711468 -208.804029 0 120 255
18.078228 -226.708678 -211.256534 0 120 255
17.778687 -226.706872 -213.711439 0 120 255
17.663113 -226.711837 -216.182848 0 120 255
17.547538 -226.716802 -218.654258 0 120 255
17.431964 -226.721767 -221.125668 0 120 255
17.334206 -226.727382 -223.597155 0 120 255
17.427833 -226.739974 -226.069466 0 120 255
17.521459 -226.752565 -228.541778 0 120 255
17.615086 -226.765157 -231.014090 0 120 255
17.717691 -226.778073 -233.485681 0 120 255
18.018034 -226.798135 -235.941417 0 120 255
18.318377 -226.818198 -238.397154 0 120 255
18.618719 -226.838260 -240.852890 0 120 255
18.919415 -226.858336 -243.308568 0 120 255
19.422982 -226.885679 -245.730741 0 120 255
19.926550 -226.913022 -248.152914 0 120 255
20.430117 -226.940365 -250.575086 0 120 255
20.933685 -226.967708 -252.997259 0 120 255
21.628040 -227.001828 -255.371357 0 120 255
22.330336 -227.036231 -257.743455 0 120 255
23.032631 -227.070633 -260.115552 0 120 255
23.734926 -227.105035 -262.487650 0 120 255
24.614733 -227.145673 -264.799014 0 120 255
25.510314 -227.186866 -267.104982 0 120 255
26.405895 -227.228058 -269.410950 0 120 255
27.301476 -227.269251 -271.716917 0 120 255
28.360813 -227.316154 -273.951276 0 120 255
29.443168 -227.363860 -276.175569 0 120 255
30.525523 -227.411566 -278.399863 0 120 255
31.607877 -227.459272 -280.624157 0 120 255
32.839607 -227.512110 -282.767893 0 120 255
34.100818 -227.565960 -284.895732 0 120 255
35.362029 -227.619810 -287.023570 0 120 255
36.623240 -227.673661 -289.151409 0 120 255
38.019020 -227.732096 -291.191733 0 120 255
39.449803 -227.791723 -293.209294 0 120 255
40.880586 -227.851350 -295.226856 0 120 255
42.311369 -227.910978 -297.244417 0 120 255
43.861422 -227.974597 -299.169784 0 120 255
45.450801 -228.039534 -301.064753 0 120 255
47.040181 -228.104470 -302.959721 0 120 255
48.629560 -228.169407 -304.854689 0 120 255
50.322796 -228.237771 -306.655101 0 120 255
52.058358 -228.307533 -308.416977 0 120 255
53.793920 -228.377294 -310.178853 0 120 255
55.529482 -228.447056 -311.940729 0 120 255
57.353720 -228.519727 -313.608001 0 120 255
59.221859 -228.593838 -315.228438 0 120 255
61.089997 -228.667950 -316.848874 0 120 255
62.958135 -228.742061 -318.469311 0 120 255
64.900374 -228.818576 -319.997303 0 120 255
66.886646 -228.896519 -321.470360 0 120 255
68.872918 -228.974461 -322.943418 0 120 255
70.859189 -229.052404 -324.416475 0 120 255
72.905943 -229.132270 -325.801237 0 120 255
74.995491 -229.213498 -327.123522 0 120 255
77.085040 -229.294725 -328.445807 0 120 255
79.174588 -229.375952 -329.768092 0 120 255
81.312085 -229.457723 -331.008291 0 120 255
83.489782 -229.539949 -332.179667 0 120 255
85.667479 -229.622175 -333.351044 0 120 255
87.845176 -229.704402 -334.522420 0 120 255
90.059142 -229.781437 -335.621102 0 120 255
92.309055 -229.853328 -336.647734 0 120 255
94.558968 -229.925219 -337.674366 0 120 255
96.808880 -229.997110 -338.700998 0 120 255
99.085346 -230.058848 -339.665167 0 120 255
101.392925 -230.108689 -340.556145 0 120 255
103.700505 -230.158530 -341.447123 0 120 255
106.008084 -230.208371 -342.338101 0 120 255
108.334500 -230.245409 -343.176628 0 120 255
110.687071 -230.264672 -343.942321 0 120 255
113.039643 -230.283934 -344.708014 0 120 255
115.392214 -230.303196 -345.473707 0 120 255
117.757601 -230.308574 -346.196578 0 120 255
120.144180 -230.290990 -346.848636 0 120 255
122.530759 -230.273407 -347.500693 0 120 255
124.917339 -230.255824 -348.152750 0 120 255
127.312186 -230.224519 -348.770968 0 120 255
129.723446 -230.165972 -349.322009 0 120 255
132.134706 -230.107425 -349.873050 0 120 255
134.545966 -230.048878 -350.424090 0 120 255
136.962196 -229.977732 -350.949435 0 120 255
139.390410 -229.876201 -351.412810 0 120 255
141.818624 -229.774670 -351.876186 0 120 255
144.246838 -229.673138 -352.339561 0 120 255
146.677755 -229.560817 -352.784400 0 120 255
149.116729 -229.416339 -353.173992 0 120 255
151.555703 -229.271860 -353.563583 0 120 255
153.994677 -229.127381 -353.953175 0 120 255
156.434910 -228.974342 -354.330293 0 120 255
158.879902 -228.788965 -354.660289 0 120 255
161.324894 -228.603587 -354.990286 0 120 255
163.769886 -228.418210 -355.320282 0 120 255
166.215285 -228.226837 -355.643102 0 120 255
168.662709 -228.005637 -355.930224 0 120 255
171.110132 -227.784438 -356.217345 0 120 255
173.557556 -227.563239 -356.504466 0 120 255
176.004938 -227.340756 -356.790914 0 120 255
178.452039 -227.109329 -357.072673 0 120 255
180.899140 -226.877902 -357.354432 0 120 255
183.346241 -226.646475 -357.636191 0 120 255
185.793342 -226.415048 -357.917951 0 120 255
188.240440 -226.183610 -358.199722 0 120 255
190.687538 -225.952172 -358.481493 0 120 255
193.134637 -225.720734 -358.763265 0 120 255
195.581735 -225.489296 -359.045036 0 120 255
198.028834 -225.257862 -359.326799 0 120 255
200.475934 -225.026428 -359.608563 0 120 255
202.923034 -224.794994 -359.890327 0 120 255
205.370133 -224.563560 -360.172091 0 120 255
