ply
format ascii 1.0
element vertex 385
property float x
property float y
property float z
property uchar red
property uchar green
property uchar blue
end_header
77.430455 -42.474882 -360.397637 0 120 255
77.187552 -42.528711 -357.935931 0 120 255
76.944650 -42.582541 -355.474226 0 120 255
76.701747 -42.636370 -353.012520 0 120 255
76.458844 -42.690200 -350.550815 0 120 255
76.223839 -42.755646 -348.088626 0 120 255
75.989178 -42.821596 -345.626416 0 120 255
75.754516 -42.887546 -343.164206 0 120 255
75.519855 -42.953497 -340.701996 0 120 255
75.257908 -42.973133 -338.241788 0 120 255
74.993419 -42.988452 -335.781767 0 120 255
74.728929 -43.003771 -333.321746 0 120 255
74.464440 -43.019091 -330.861725 0 120 255
74.160712 -42.981887 -328.406605 0 120 255
73.851110 -42.936819 -325.952220 0 120 255
73.541508 -42.891751 -323.497834 0 120 255
73.231905 -42.846684 -321.043449 0 120 255
72.879151 -42.754360 -318.596399 0 120 255
72.517240 -42.652012 -316.150905 0 120 255
72.155330 -42.549663 -313.705411 0 120 255
71.793420 -42.447314 -311.259918 0 120 255
71.385168 -42.303284 -308.824069 0 120 255
70.963872 -42.147522 -306.390935 0 120 255
70.542577 -41.991760 -303.957801 0 120 255
70.121281 -41.835998 -301.524667 0 120 255
69.651207 -41.644334 -299.103340 0 120 255
69.163627 -41.439785 -296.686251 0 120 255
68.676047 -41.235236 -294.269162 0 120 255
68.188468 -41.030687 -291.852074 0 120 255
67.650482 -40.796113 -289.448780 0 120 255
67.090023 -40.548150 -287.051637 0 120 255
66.529563 -40.300188 -284.654495 0 120 255
65.969104 -40.052226 -282.257352 0 120 255
65.357432 -39.780092 -279.875794 0 120 255
64.717880 -39.494800 -277.502721 0 120 255
64.078328 -39.209508 -275.129649 0 120 255
63.438776 -38.924216 -272.756576 0 120 255
62.748044 -38.620481 -270.400649 0 120 255
62.023691 -38.304631 -268.055986 0 120 255
61.299338 -37.988781 -265.711323 0 120 255
60.574986 -37.672931 -263.366660 0 120 255
59.800290 -37.344114 -261.040456 0 120 255
58.985991 -37.005096 -258.728773 0 120 255
58.171691 -36.666079 -256.417091 0 120 255
57.357391 -36.327061 -254.105408 0 120 255
56.494380 -35.980200 -251.813214 0 120 255
55.585684 -35.625984 -249.539298 0 120 255
54.676987 -35.271767 -247.265381 0 120 255
53.768291 -34.917551 -244.991465 0 120 255
52.813247 -34.560154 -242.737760 0 120 255
51.806461 -34.199207 -240.506619 0 120 255
50.799675 -33.838260 -238.275477 0 120 255
49.792889 -33.477313 -236.044336 0 120 255
48.742791 -33.117290 -233.833790 0 120 255
47.635077 -32.758498 -231.650643 0 120 255
46.527364 -32.399705 -229.467496 0 120 255
45.419650 -32.040913 -227.284349 0 120 255
44.272245 -31.686510 -225.121818 0 120 255
43.061684 -31.339091 -222.992091 0 120 255
41.851123 -30.991673 -220.862365 0 120 255
40.640562 -30.644255 -218.732638 0 120 255
39.394418 -30.303976 -216.623155 0 120 255
38.080071 -29.977381 -214.552473 0 120 255
36.765725 -29.650786 -212.481792 0 120 255
35.451378 -29.324191 -210.411110 0 120 255
34.105934 -29.006716 -208.359879 0 120 255
32.687904 -28.710527 -206.354049 0 120 255
31.269873 -28.414338 -204.348219 0 120 255
29.851843 -28.118149 -202.342389 0 120 255
28.407455 -27.832248 -200.354770 0 120 255
26.886927 -27.576071 -198.419761 0 120 255
25.366399 -27.319893 -196.484751 0 120 255
23.845871 -27.063716 -194.549742 0 120 255
22.303849 -26.818162 -192.631237 0 120 255
20.683126 -26.611510 -190.773161 0 120 255
19.062402 -26.404858 -188.915086 0 120 255
17.441679 -26.198206 -187.057011 0 120 255
15.804309 -26.001677 -185.213244 0 120 255
14.086829 -25.853864 -183.438333 0 120 255
12.369350 -25.706050 -181.663422 0 120 255
10.651871 -25.558237 -179.888511 0 120 255
8.922434 -25.419224 -178.125209 0 120 255
7.112789 -25.339242 -176.439776 0 120 255
5.303144 -25.259260 -174.754344 0 120 255
3.493500 -25.179278 -173.068912 0 120 255
1.676284 -25.105987 -171.391875 0 120 255
-0.219787 -25.102389 -169.802285 0 120 255
-2.115857 -25.098790 -168.212695 0 120 255
-4.011928 -25.095192 -166.623106 0 120 255
-5.911628 -25.095444 -165.038179 0 120 255
-7.887247 -25.176235 -163.550800 0 120 255
-9.862866 -25.257027 -162.063421 0 120 255
-11.838485 -25.337818 -160.576042 0 120 255
-13.814376 -25.418959 -159.089077 0 120 255
-15.861560 -25.591480 -157.710248 0 120 255
-17.908744 -25.764002 -156.331420 0 120 255
-19.955928 -25.936523 -154.952591 0 120 255
-22.003112 -26.109045 -153.573763 0 120 255
-24.110424 -26.376147 -152.305374 0 120 255
-26.220100 -26.646966 -151.041326 0 120 255
-28.329776 -26.917785 -149.777277 0 120 255
-30.439451 -27.188604 -148.513228 0 120 255
-32.597368 -27.555171 -147.360465 0 120 255
-34.759436 -27.929978 -146.217280 0 120 255
-36.921505 -28.304785 -145.074095 0 120 255
-39.083574 -28.679593 -143.930910 0 120 255
-41.281984 -29.150006 -142.899182 0 120 255
-43.485373 -29.633518 -141.882723 0 120 255
-45.688761 -30.117029 -140.866265 0 120 255
-47.892150 -30.600541 -139.849807 0 120 255
-50.120139 -31.178255 -138.944264 0 120 255
-52.352868 -31.774117 -138.060089 0 120 255
-54.585596 -32.369979 -137.175915 0 120 255
-56.818325 -32.965842 -136.291740 0 120 255
-59.064246 -33.653312 -135.517213 0 120 255
-61.313514 -34.364025 -134.770506 0 120 255
-63.562783 -35.074738 -134.023798 0 120 255
-65.812051 -35.785451 -133.277091 0 120 255
-68.063605 -36.584068 -132.638023 0 120 255
-70.315893 -37.410904 -132.033509 0 120 255
-72.568180 -38.237739 -131.428995 0 120 255
-74.820468 -39.064575 -130.824481 0 120 255
-77.064785 -39.974614 -130.324833 0 120 255
-79.305951 -40.917561 -129.866662 0 120 255
-81.547116 -41.860508 -129.408490 0 120 255
-83.788282 -42.803455 -128.950318 0 120 255
-86.012033 -43.824028 -128.593512 0 120 255
-88.227452 -44.881742 -128.285204 0 120 255
-90.442871 -45.939455 -127.976896 0 120 255
-92.658290 -46.997169 -127.668588 0 120 255
-94.847792 -48.126194 -127.457413 0 120 255
-97.022487 -49.295963 -127.301734 0 120 255
-99.197182 -50.465733 -127.146055 0 120 255
-101.371877 -51.635502 -126.990376 0 120 255
-103.513218 -52.869688 -126.926906 0 120 255
-105.632010 -54.147426 -126.925777 0 120 255
-107.750801 -55.425164 -126.924648 0 120 255
-109.869593 -56.702901 -126.923519 0 120 255
-111.948769 -58.037742 -127.009036 0 120 255
-113.996445 -59.417985 -127.163447 0 120 255
-116.044122 -60.798228 -127.317859 0 120 255
-118.091799 -62.178471 -127.472270 0 120 255
-120.094858 -63.608256 -127.707181 0 120 255
-122.056351 -65.084195 -128.017087 0 120 255
-124.017844 -66.560134 -128.326992 0 120 255
-125.979338 -68.036073 -128.636897 0 120 255
-127.892533 -69.553932 -129.020669 0 120 255
-129.753098 -71.117469 -129.484933 0 120 255
-131.613664 -72.681006 -129.949197 0 120 255
-133.474229 -74.244543 -130.413461 0 120 255
-135.284182 -75.842488 -130.944558 0 120 255
-137.029601 -77.484307 -131.560869 0 120 255
-138.775020 -79.126125 -132.177179 0 120 255
-140.520439 -80.767943 -132.793490 0 120 255
-142.214303 -82.436951 -133.469322 0 120 255
-143.831069 -84.146623 -134.234166 0 120 255
-145.447835 -85.856294 -134.999010 0 120 255
-147.064600 -87.565965 -135.763854 0 120 255
-148.630231 -89.296072 -136.580742 0 120 255
-150.105757 -91.062189 -137.489339 0 120 255
-151.581282 -92.828307 -138.397936 0 120 255
-153.056808 -94.594424 -139.306532 0 120 255
-154.482930 -96.374843 -140.259681 0 120 255
-155.805729 -98.185173 -141.306008 0 120 255
-157.128528 -99.995503 -142.352335 0 120 255
-158.451327 -101.805834 -143.398662 0 120 255
-159.727686 -103.625095 -144.482179 0 120 255
-160.887536 -105.466761 -145.658999 0 120 255
-162.047386 -107.308427 -146.835820 0 120 255
-163.207236 -109.150093 -148.012641 0 120 255
-164.324741 -110.996202 -149.219560 0 120 255
-165.312864 -112.855882 -150.518441 0 120 255
-166.300987 -114.715563 -151.817323 0 120 255
-167.289111 -116.575243 -153.116205 0 120 255
-168.239978 -118.435853 -154.438516 0 120 255
-169.049164 -120.299996 -155.849928 0 120 255
-169.858350 -122.164139 -157.261340 0 120 255
-170.667537 -124.028281 -158.672751 0 120 255
-171.445392 -125.890881 -160.101485 0 120 255
-172.070092 -127.745938 -161.614893 0 120 255
-172.694791 -129.600996 -163.128302 0 120 255
-173.319491 -131.456053 -164.641711 0 120 255
-173.919446 -133.308165 -166.167026 0 120 255
-174.355859 -135.140815 -167.771031 0 120 255
-174.792272 -136.973464 -169.375037 0 120 255
-175.228685 -138.806114 -170.979042 0 120 255
-175.647411 -140.635486 -172.590340 0 120 255
-175.893512 -142.432869 -174.272821 0 120 255
-176.139612 -144.230253 -175.955301 0 120 255
-176.385712 -146.027636 -177.637782 0 120 255
-176.621456 -147.822441 -179.323839 0 120 255
-176.676989 -149.572379 -181.072132 0 120 255
-176.732523 -151.322316 -182.820425 0 120 255
-176.788056 -153.072254 -184.568717 0 120 255
-176.840631 -154.821273 -186.317836 0 120 255
-176.707066 -156.512467 -188.118923 0 120 255
-176.573501 -158.203662 -189.920010 0 120 255
-176.439937 -159.894856 -191.721098 0 120 255
-176.306372 -161.586050 -193.522185 0 120 255
-175.991137 -163.209876 -195.361962 0 120 255
-175.671583 -164.832101 -197.202660 0 120 255
-175.352030 -166.454325 -199.043357 0 120 255
-175.032476 -168.076550 -200.884054 0 120 255
-174.542861 -169.625659 -202.749561 0 120 255
-174.041951 -171.169911 -204.616715 0 120 255
-173.541040 -172.714164 -206.483870 0 120 255
-173.040130 -174.258416 -208.351024 0 120 255
-172.381681 -175.725731 -210.230342 0 120 255
-171.705423 -177.184349 -212.111034 0 120 255
-171.029166 -178.642967 -213.991726 0 120 255
-170.352908 -180.101584 -215.872419 0 120 255
-169.532215 -181.481312 -217.753976 0 120 255
-168.687797 -182.848081 -219.635676 0 120 255
-167.843379 -184.214851 -221.517375 0 120 255
-166.998961 -185.581620 -223.399074 0 120 255
-166.023533 -186.869274 -225.271824 0 120 255
-165.019177 -188.139458 -227.142598 0 120 255
-164.014822 -189.409642 -229.013372 0 120 255
-163.010466 -190.679827 -230.884146 0 120 255
-161.888517 -191.872263 -232.737656 0 120 255
-160.733222 -193.042653 -234.586270 0 120 255
-159.577927 -194.213043 -236.434884 0 120 255
-158.422631 -195.383433 -238.283498 0 120 255
-157.162928 -196.478818 -240.108086 0 120 255
-155.866298 -197.547676 -241.924177 0 120 255
-154.569667 -198.616535 -243.740267 0 120 255
-153.273037 -199.685393 -245.556358 0 120 255
-151.884709 -200.683193 -247.343155 0 120 255
-150.456723 -201.650261 -249.117282 0 120 255
-149.028737 -202.617330 -250.891409 0 120 255
-147.600751 -203.584398 -252.665536 0 120 255
-146.093125 -204.485298 -254.406563 0 120 255
-144.543949 -205.351676 -256.130319 0 120 255
-142.994772 -206.218053 -257.854075 0 120 255
-141.445596 -207.084431 -259.577832 0 120 255
-139.828050 -207.890265 -261.266050 0 120 255
-138.167867 -208.658343 -262.932105 0 120 255
-136.507683 -209.426421 -264.598161 0 120 255
-134.847500 -210.194499 -266.264216 0 120 255
-133.129313 -210.908170 -267.893545 0 120 255
-131.368140 -211.581520 -269.495657 0 120 255
-129.606967 -212.254870 -271.097769 0 120 255
-127.845794 -212.928220 -272.699881 0 120 255
-126.036014 -213.553581 -274.265202 0 120 255
-124.183565 -214.136816 -275.798226 0 120 255
-122.331116 -214.720052 -277.331250 0 120 255
-120.478667 -215.303287 -278.864274 0 120 255
-118.586022 -215.845052 -280.361430 0 120 255
-116.651610 -216.343727 -281.821317 0 120 255
-114.717199 -216.842402 -283.281203 0 120 255
-112.782788 -217.341078 -284.741090 0 120 255
-110.815594 -217.804696 -286.166863 0 120 255
-108.808016 -218.225127 -287.550612 0 120 255
-106.800438 -218.645559 -288.934361 0 120 255
-104.792860 -219.065990 -290.318109 0 120 255
-102.758950 -219.457528 -291.670179 0 120 255
-100.686424 -219.806690 -292.975787 0 120 255
-98.613898 -220.155852 -294.281396 0 120 255
-96.541372 -220.505014 -295.587005 0 120 255
-94.448060 -220.831063 -296.863910 0 120 255
-92.318207 -221.116475 -298.090351 0 120 255
-90.188354 -221.401887 -299.316792 0 120 255
-88.058500 -221.687300 -300.543233 0 120 255
-85.912559 -221.954865 -301.744333 0 120 255
-83.732350 -222.184417 -302.891455 0 120 255
-81.552142 -222.413969 -304.038577 0 120 255
-79.371933 -222.643521 -305.185699 0 120 255
-77.179566 -222.859907 -306.311095 0 120 255
-74.955336 -223.041791 -307.379559 0 120 255
-72.731106 -223.223676 -308.448022 0 120 255
-70.506877 -223.405560 -309.516486 0 120 255
-68.273732 -223.578292 -310.566969 0 120 255
-66.011196 -223.720851 -311.558183 0 120 255
-63.748661 -223.863410 -312.549396 0 120 255
-61.486126 -224.005969 -313.540610 0 120 255
-59.217310 -224.142745 -314.517585 0 120 255
-56.921570 -224.254727 -315.433515 0 120 255
-54.625829 -224.366709 -316.349446 0 120 255
-52.330089 -224.478691 -317.265377 0 120 255
-50.030104 -224.588308 -318.170424 0 120 255
-47.705166 -224.684025 -319.011492 0 120 255
-45.380228 -224.779741 -319.852560 0 120 255
-43.055290 -224.875458 -320.693628 0 120 255
-40.727886 -224.970667 -321.527605 0 120 255
-38.378620 -225.061384 -322.298716 0 120 255
-36.029354 -225.152100 -323.069827 0 120 255
-33.680087 -225.242817 -323.840937 0 120 255
-31.329676 -225.333349 -324.608417 0 120 255
-28.960341 -225.420829 -325.315872 0 120 255
-26.591007 -225.508309 -326.023328 0 120 255
-24.221672 -225.595789 -326.730784 0 120 255
-21.852121 -225.683259 -327.437483 0 120 255
-19.465832 -225.769946 -328.085559 0 120 255
-17.079543 -225.856633 -328.733634 0 120 255
-14.693253 -225.943320 -329.381710 0 120 255
-12.306964 -226.030006 -330.029785 0 120 255
-9.907287 -226.117785 -330.626145 0 120 255
-7.507171 -226.205599 -331.220809 0 120 255
-5.107055 -226.293414 -331.815473 0 120 255
-2.706939 -226.381228 -332.410137 0 120 255
-0.295994 -226.469938 -332.958937 0 120 255
2.115846 -226.558721 -333.503950 0 120 255
4.527686 -226.647505 -334.048963 0 120 255
6.939526 -226.736289 -334.593976 0 120 255
9.360103 -226.825609 -335.098440 0 120 255
11.781882 -226.915004 -335.597331 0 120 255
14.203660 -227.004399 -336.096221 0 120 255
16.625438 -227.093794 -336.595112 0 120 255
19.054101 -227.183454 -337.059006 0 120 255
21.484129 -227.273167 -337.515963 0 120 255
23.914157 -227.362880 -337.972921 0 120 255
26.344184 -227.452593 -338.429878 0 120 255
28.779497 -227.542328 -338.857494 0 120 255
31.216216 -227.632070 -339.277307 0 120 255
33.652934 -227.721811 -339.697120 0 120 255
36.089653 -227.811552 -340.116933 0 120 255
38.530375 -227.901116 -340.512585 0 120 255
40.972467 -227.990620 -340.899975 0 120 255
43.414558 -228.080123 -341.287365 0 120 255
45.856650 -228.169627 -341.674755 0 120 255
48.301714 -228.258733 -342.042794 0 120 255
50.748048 -228.347669 -342.402558 0 120 255
53.194383 -228.436605 -342.762322 0 120 255
55.640718 -228.525541 -343.122086 0 120 255
58.089236 -228.613585 -343.466728 0 120 255
60.538901 -228.701159 -343.803428 0 120 255
62.988565 -228.788734 -344.140129 0 120 255
65.438230 -228.876309 -344.476829 0 120 255
67.889596 -228.960951 -344.801536 0 120 255
70.342046 -229.043725 -345.118600 0 120 255
72.794496 -229.126499 -345.435665 0 120 255
75.246946 -229.209273 -345.752729 0 120 255
77.700847 -229.285518 -346.059881 0 120 255
80.155860 -229.356755 -346.359433 0 120 255
82.610872 -229.427992 -346.658984 0 120 255
85.065885 -229.499229 -346.958536 0 120 255
87.522057 -229.561380 -347.250281 0 120 255
89.979294 -229.615189 -347.534858 0 120 255
92.436531 -229.668999 -347.819435 0 120 255
94.893768 -229.722808 -348.104013 0 120 255
97.351823 -229.766574 -348.382940 0 120 255
99.810774 -229.799316 -348.655667 0 120 255
102.269725 -229.832058 -348.928394 0 120 255
104.728676 -229.864801 -349.201121 0 120 255
107.188132 -229.886968 -349.470034 0 120 255
109.648250 -229.895245 -349.733936 0 120 255
112.108368 -229.903523 -349.997838 0 120 255
114.568486 -229.911800 -350.261740 0 120 255
117.028822 -229.909374 -350.523360 0 120 255
119.489502 -229.890051 -350.781380 0 120 255
121.950182 -229.870729 -351.039399 0 120 255
124.410862 -229.851406 -351.297419 0 120 255
126.871504 -229.821633 -351.554387 0 120 255
129.332077 -229.771889 -351.809346 0 120 255
131.792649 -229.722145 -352.064304 0 120 255
134.253221 -229.672401 -352.319263 0 120 255
136.713537 -229.612809 -352.574131 0 120 255
139.173255 -229.530166 -352.828787 0 120 255
141.632974 -229.447524 -353.083442 0 120 255
144.092692 -229.364881 -353.338098 0 120 255
146.551984 -229.273308 -353.593353 0 120 255
149.010033 -229.155673 -353.850357 0 120 255
151.468082 -229.038038 -354.107362 0 120 255
153.926131 -228.920403 -354.364366 0 120 255
156.383641 -228.795020 -354.622404 0 120 255
158.839142 -228.640693 -354.884304 0 120 255
161.294643 -228.486366 -355.146204 0 120 255
163.750144 -228.332040 -355.408104 0 120 255
166.204684 -228.169030 -355.672927 0 120 255
168.654440 -227.962784 -355.952305 0 120 255
171.104196 -227.756539 -356.231682 0 120 255
173.553952 -227.550293 -356.511060 0 120 255
176.003393 -227.340902 -356.790736 0 120 255
178.450622 -227.109463 -357.072510 0 120 255
180.897852 -226.878024 -357.354284 0 120 255
183.345082 -226.646585 -357.636057 0 120 255
185.792311 -226.415145 -357.917832 0 120 255
188.239538 -226.183695 -358.199618 0 120 255
190.686765 -225.952245 -358.481404 0 120 255
193.133993 -225.720795 -358.763190 0 120 255
195.581220 -225.489345 -359.044976 0 120 255
198.028448 -225.257899 -359.326755 0 120 255
200.475676 -225.026452 -359.608534 0 120 255
202.922905 -224.795006 -359.890312 0 120 255
205.370133 -224.563560 -360.172091 0 120 255
