ply
format ascii 1.0
element vertex 385
property float x
property float y
property float z
property uchar red
property uchar green
property uchar blue
end_header
77.430455 -42.474882 -360.397637 0 120 255
77.187543 -42.528713 -357.935837 0 120 255
76.944631 -42.582545 -355.474036 0 120 255
76.701719 -42.636377 -353.012236 0 120 255
76.458807 -42.690208 -350.550436 0 120 255
76.216744 -42.756881 -348.088868 0 120 255
75.974719 -42.824110 -345.627310 0 120 255
75.732694 -42.891339 -343.165752 0 120 255
75.490668 -42.958568 -340.704194 0 120 255
75.394113 -43.374421 -338.269622 0 120 255
75.310707 -43.821788 -335.837489 0 120 255
75.227301 -44.269154 -333.405356 0 120 255
75.143894 -44.716521 -330.973223 0 120 255
75.184106 -45.462794 -328.617890 0 120 255
75.242470 -46.252959 -326.273834 0 120 255
75.300834 -47.043123 -323.929779 0 120 255
75.359197 -47.833288 -321.585723 0 120 255
75.520866 -48.879166 -319.353286 0 120 255
75.704234 -49.978755 -317.144295 0 120 255
75.887602 -51.078344 -314.935303 0 120 255
76.070970 -52.177933 -312.726312 0 120 255
76.339729 -53.488760 -310.649690 0 120 255
76.632480 -54.858936 -308.610259 0 120 255
76.925231 -56.229113 -306.570829 0 120 255
77.217982 -57.599289 -304.531398 0 120 255
77.581396 -59.138172 -302.633279 0 120 255
77.970309 -60.737936 -300.786156 0 120 255
78.359222 -62.337699 -298.939032 0 120 255
78.748136 -63.937463 -297.091908 0 120 255
79.196295 -65.667404 -295.385859 0 120 255
79.671197 -67.456102 -293.743484 0 120 255
80.146098 -69.244800 -292.101110 0 120 255
80.621000 -71.033497 -290.458736 0 120 255
81.146776 -72.918879 -288.950539 0 120 255
81.700762 -74.857870 -287.516740 0 120 255
82.254747 -76.796860 -286.082941 0 120 255
82.808733 -78.735851 -284.649142 0 120 255
83.407774 -80.743375 -283.338156 0 120 255
84.037133 -82.797015 -282.109810 0 120 255
84.666492 -84.850654 -280.881463 0 120 255
85.295851 -86.904294 -279.653117 0 120 255
85.966384 -89.003490 -278.533525 0 120 255
86.670278 -91.139597 -277.502046 0 120 255
87.374171 -93.275703 -276.470568 0 120 255
88.078065 -95.411809 -275.439089 0 120 255
88.820572 -97.575205 -274.500934 0 120 255
89.600580 -99.765104 -273.653413 0 120 255
90.380588 -101.955003 -272.805891 0 120 255
91.160597 -104.144903 -271.958370 0 120 255
91.977422 -106.347976 -271.188395 0 120 255
92.837047 -108.566362 -270.508565 0 120 255
93.696671 -110.784749 -269.828735 0 120 255
94.556295 -113.003136 -269.148904 0 120 255
95.451202 -115.224131 -268.531193 0 120 255
96.395272 -117.448759 -268.000038 0 120 255
97.339341 -119.673388 -267.468883 0 120 255
98.283411 -121.898016 -266.937728 0 120 255
99.261103 -124.117680 -266.454162 0 120 255
100.295206 -126.329015 -266.050439 0 120 255
101.329309 -128.540350 -265.646715 0 120 255
102.363411 -130.751685 -265.242992 0 120 255
103.429052 -132.952981 -264.873615 0 120 255
104.558915 -135.133832 -264.574182 0 120 255
105.688778 -137.314683 -264.274748 0 120 255
106.818641 -139.495535 -263.975315 0 120 255
107.977344 -141.663342 -263.698573 0 120 255
109.208222 -143.798506 -263.478618 0 120 255
110.439100 -145.933670 -263.258664 0 120 255
111.669977 -148.068833 -263.038710 0 120 255
112.926298 -150.189672 -262.831649 0 120 255
114.262347 -152.265620 -262.664991 0 120 255
115.598396 -154.341569 -262.498333 0 120 255
116.934444 -156.417517 -262.331676 0 120 255
118.291864 -158.479296 -262.170162 0 120 255
119.735514 -160.483897 -262.029404 0 120 255
121.179165 -162.488497 -261.888646 0 120 255
122.622816 -164.493098 -261.747888 0 120 255
124.083219 -166.484895 -261.606763 0 120 255
125.634557 -168.407194 -261.463648 0 120 255
127.185895 -170.329492 -261.320533 0 120 255
128.737234 -172.251791 -261.177418 0 120 255
130.300395 -174.163685 -261.030786 0 120 255
131.956568 -175.993732 -260.856483 0 120 255
133.612741 -177.823780 -260.682181 0 120 255
135.268914 -179.653827 -260.507878 0 120 255
136.932008 -181.476756 -260.329351 0 120 255
138.686667 -183.205510 -260.094940 0 120 255
140.441325 -184.934264 -259.860528 0 120 255
142.195983 -186.663018 -259.626116 0 120 255
143.953112 -188.388703 -259.389224 0 120 255
145.795928 -190.007994 -259.066286 0 120 255
147.638744 -191.627286 -258.743349 0 120 255
149.481560 -193.246577 -258.420412 0 120 255
151.324377 -194.865868 -258.097474 0 120 255
153.239647 -196.370057 -257.660357 0 120 255
155.155943 -197.872616 -257.221622 0 120 255
157.072240 -199.375175 -256.782887 0 120 255
158.988536 -200.877734 -256.344153 0 120 255
160.956060 -202.264124 -255.772193 0 120 255
162.926606 -203.643662 -255.192375 0 120 255
164.897152 -205.023199 -254.612556 0 120 255
166.867698 -206.402737 -254.032738 0 120 255
168.865699 -207.666602 -253.305324 0 120 255
170.866657 -208.918013 -252.562019 0 120 255
172.867615 -210.169423 -251.818713 0 120 255
174.868573 -211.420834 -251.075408 0 120 255
176.871438 -212.558619 -250.175236 0 120 255
178.874610 -213.678140 -249.249850 0 120 255
180.877781 -214.797660 -248.324463 0 120 255
182.880953 -215.917181 -247.399077 0 120 255
184.859606 -216.926758 -246.312973 0 120 255
186.832893 -217.912274 -245.191697 0 120 255
188.806180 -218.897790 -244.070421 0 120 255
190.779467 -219.883306 -242.949144 0 120 255
192.702016 -220.764149 -241.668791 0 120 255
194.610215 -221.615389 -240.343450 0 120 255
196.518414 -222.466630 -239.018109 0 120 255
198.426613 -223.317870 -237.692768 0 120 255
200.259195 -224.071288 -236.215342 0 120 255
202.065042 -224.790120 -234.684146 0 120 255
203.870889 -225.508953 -233.152950 0 120 255
205.676736 -226.227786 -231.621755 0 120 255
207.384570 -226.857071 -229.950363 0 120 255
209.050030 -227.447644 -228.218361 0 120 255
210.715490 -228.038216 -226.486359 0 120 255
212.380950 -228.628789 -224.754357 0 120 255
213.929546 -229.139338 -222.898262 0 120 255
215.417301 -229.608226 -220.977560 0 120 255
216.905056 -230.077114 -219.056859 0 120 255
218.392810 -230.546002 -217.136157 0 120 255
219.749260 -230.945316 -215.110707 0 120 255
221.024244 -231.301465 -213.020268 0 120 255
222.299229 -231.657614 -210.929829 0 120 255
223.574214 -232.013762 -208.839389 0 120 255
224.708453 -232.311377 -206.665651 0 120 255
225.739362 -232.566018 -204.430758 0 120 255
226.770271 -232.820659 -202.195864 0 120 255
227.801179 -233.075300 -199.960971 0 120 255
228.687196 -233.282603 -197.665095 0 120 255
229.447860 -233.448953 -195.316461 0 120 255
230.208524 -233.615303 -192.967827 0 120 255
230.969189 -233.781653 -190.619193 0 120 255
231.586015 -233.911606 -188.231507 0 120 255
232.056448 -234.004516 -185.804076 0 120 255
232.526882 -234.097426 -183.376644 0 120 255
232.997315 -234.190336 -180.949212 0 120 255
233.329781 -234.257116 -178.503127 0 120 255
233.496973 -234.292594 -176.034696 0 120 255
233.664165 -234.328073 -173.566265 0 120 255
233.831358 -234.363551 -171.097834 0 120 255
233.870570 -234.382157 -168.628640 0 120 255
233.728828 -234.376904 -166.158368 0 120 255
233.587086 -234.371652 -163.688095 0 120 255
233.445344 -234.366400 -161.217823 0 120 255
233.189051 -234.352949 -158.761393 0 120 255
232.740558 -234.325742 -156.328190 0 120 255
232.292064 -234.298534 -153.894987 0 120 255
231.843571 -234.271327 -151.461784 0 120 255
231.295143 -234.240339 -149.053613 0 120 255
230.546016 -234.201759 -146.695715 0 120 255
229.796889 -234.163179 -144.337817 0 120 255
229.047761 -234.124599 -141.979919 0 120 255
228.214543 -234.083130 -139.654714 0 120 255
227.176845 -234.034636 -137.409008 0 120 255
226.139148 -233.986142 -135.163302 0 120 255
225.101450 -233.937648 -132.917596 0 120 255
223.996089 -233.886818 -130.708473 0 120 255
222.688133 -233.828993 -128.608884 0 120 255
221.380178 -233.771168 -126.509295 0 120 255
220.072223 -233.713343 -124.409707 0 120 255
218.712503 -233.653960 -122.347010 0 120 255
217.157137 -233.588689 -120.423747 0 120 255
215.601770 -233.523419 -118.500484 0 120 255
214.046404 -233.458148 -116.577222 0 120 255
212.453930 -233.391866 -114.687921 0 120 255
210.677658 -233.320573 -112.966834 0 120 255
208.901387 -233.249280 -111.245747 0 120 255
207.125115 -233.177988 -109.524660 0 120 255
205.324559 -233.106067 -107.831849 0 120 255
203.356542 -233.029820 -106.334031 0 120 255
201.388525 -232.953572 -104.836213 0 120 255
199.420508 -232.877324 -103.338395 0 120 255
197.438778 -232.800724 -101.860981 0 120 255
195.309827 -232.720342 -100.602621 0 120 255
193.180876 -232.639960 -99.344262 0 120 255
191.051924 -232.559578 -98.085902 0 120 255
188.917322 -232.479046 -96.838494 0 120 255
186.658971 -232.395224 -95.830930 0 120 255
184.400619 -232.311401 -94.823367 0 120 255
182.142267 -232.227578 -93.815803 0 120 255
179.883715 -232.143750 -92.808765 0 120 255
177.527382 -232.057144 -92.058725 0 120 255
175.171050 -231.970537 -91.308685 0 120 255
172.814717 -231.883931 -90.558645 0 120 255
170.458385 -231.797324 -89.808605 0 120 255
168.037349 -231.708738 -89.308253 0 120 255
165.613639 -231.620070 -88.818217 0 120 255
163.189930 -231.531402 -88.328182 0 120 255
160.766221 -231.442734 -87.838146 0 120 255
158.307466 -231.352979 -87.585726 0 120 255
155.845603 -231.263129 -87.354381 0 120 255
153.383740 -231.173279 -87.123036 0 120 255
150.921876 -231.083428 -86.891692 0 120 255
148.450596 -230.993602 -86.883076 0 120 255
145.977990 -230.903780 -86.905794 0 120 255
143.505384 -230.813958 -86.928513 0 120 255
141.032778 -230.724135 -86.951231 0 120 255
138.572337 -230.635429 -87.179917 0 120 255
136.114304 -230.546943 -87.449378 0 120 255
133.656271 -230.458457 -87.718838 0 120 255
131.198239 -230.369971 -87.988299 0 120 255
128.770078 -230.283287 -88.445902 0 120 255
126.349725 -230.197074 -88.952680 0 120 255
123.929373 -230.110861 -89.459457 0 120 255
121.509020 -230.024647 -89.966235 0 120 255
119.132601 -229.940671 -90.642796 0 120 255
116.770764 -229.857437 -91.375708 0 120 255
114.408926 -229.774203 -92.108620 0 120 255
112.047089 -229.690969 -92.841532 0 120 255
109.739847 -229.610279 -93.725759 0 120 255
107.455035 -229.530633 -94.672147 0 120 255
105.170222 -229.450987 -95.618535 0 120 255
102.885409 -229.371342 -96.564924 0 120 255
100.662794 -229.294452 -97.644564 0 120 255
98.471259 -229.218940 -98.790792 0 120 255
96.279725 -229.143428 -99.937020 0 120 255
94.088190 -229.067916 -101.083247 0 120 255
91.963779 -228.995276 -102.345458 0 120 255
89.879682 -228.924361 -103.677327 0 120 255
87.795585 -228.853445 -105.009196 0 120 255
85.711488 -228.782530 -106.341065 0 120 255
83.697145 -228.714518 -107.772688 0 120 255
81.732747 -228.648586 -109.275737 0 120 255
79.768349 -228.582653 -110.778787 0 120 255
77.803952 -228.516720 -112.281836 0 120 255
75.909981 -228.453664 -113.869586 0 120 255
74.075832 -228.393052 -115.529281 0 120 255
72.241682 -228.332439 -117.188975 0 120 255
70.407533 -228.271827 -118.848670 0 120 255
68.642868 -228.214006 -120.579294 0 120 255
66.948050 -228.158992 -122.381218 0 120 255
65.253232 -228.103977 -124.183142 0 120 255
63.558415 -228.048962 -125.985066 0 120 255
61.930783 -227.996610 -127.845441 0 120 255
60.383078 -227.947424 -129.775352 0 120 255
58.835374 -227.898237 -131.705262 0 120 255
57.287669 -227.849051 -133.635173 0 120 255
55.803753 -227.802356 -135.612360 0 120 255
54.409860 -227.759176 -137.656269 0 120 255
53.015967 -227.715995 -139.700177 0 120 255
51.622074 -227.672815 -141.744085 0 120 255
50.287666 -227.631936 -143.825368 0 120 255
49.053354 -227.594928 -145.969538 0 120 255
47.819042 -227.557920 -148.113709 0 120 255
46.584730 -227.520912 -150.257880 0 120 255
45.404856 -227.485991 -152.430752 0 120 255
44.335090 -227.455290 -154.661676 0 120 255
43.265323 -227.424589 -156.892600 0 120 255
42.195557 -227.393888 -159.123523 0 120 255
41.174574 -227.365046 -161.375667 0 120 255
40.273634 -227.340777 -163.680029 0 120 255
39.372695 -227.316507 -165.984391 0 120 255
38.471755 -227.292238 -168.288752 0 120 255
37.613438 -227.269577 -170.608003 0 120 255
36.884988 -227.251813 -172.972619 0 120 255
36.156538 -227.234049 -175.337235 0 120 255
35.428088 -227.216286 -177.701851 0 120 255
34.735680 -227.199871 -180.076144 0 120 255
34.182789 -227.188680 -182.487897 0 120 255
33.629899 -227.177488 -184.899649 0 120 255
33.077009 -227.166297 -187.311402 0 120 255
32.553237 -227.156187 -189.728720 0 120 255
32.178398 -227.151610 -192.174499 0 120 255
31.803558 -227.147032 -194.620279 0 120 255
31.428718 -227.142455 -197.066058 0 120 255
31.075802 -227.138686 -199.514381 0 120 255
30.880889 -227.140743 -201.981032 0 120 255
30.685975 -227.142799 -204.447684 0 120 255
30.491062 -227.144856 -206.914335 0 120 255
30.310674 -227.147443 -209.381599 0 120 255
30.296904 -227.156114 -211.855886 0 120 255
30.283135 -227.164784 -214.330174 0 120 255
30.269365 -227.173455 -216.804461 0 120 255
30.262606 -227.182379 -219.278529 0 120 255
30.430439 -227.197613 -221.747125 0 120 255
30.598272 -227.212847 -224.215720 0 120 255
30.766105 -227.228081 -226.684316 0 120 255
30.933938 -227.243315 -229.152911 0 120 255
31.282410 -227.265049 -231.602475 0 120 255
31.631415 -227.286802 -234.051982 0 120 255
31.980419 -227.308556 -236.501489 0 120 255
32.329424 -227.330309 -238.950997 0 120 255
32.850184 -227.358203 -241.369462 0 120 255
33.378933 -227.386382 -243.786484 0 120 255
33.907683 -227.414560 -246.203506 0 120 255
34.436432 -227.442739 -248.620528 0 120 255
35.127215 -227.476664 -250.995690 0 120 255
35.833230 -227.511128 -253.366917 0 120 255
36.539245 -227.545593 -255.738145 0 120 255
37.245259 -227.580057 -258.109372 0 120 255
38.102787 -227.619852 -260.429218 0 120 255
38.982431 -227.660424 -262.741564 0 120 255
39.862074 -227.700997 -265.053910 0 120 255
40.741718 -227.741570 -267.366257 0 120 255
41.761689 -227.787022 -269.619084 0 120 255
42.810163 -227.833466 -271.859823 0 120 255
43.858636 -227.879910 -274.100562 0 120 255
44.907110 -227.926354 -276.341301 0 120 255
46.084205 -227.977248 -278.515845 0 120 255
47.295540 -228.029326 -280.672769 0 120 255
48.506875 -228.081404 -282.829692 0 120 255
49.718210 -228.133483 -284.986616 0 120 255
51.046155 -228.189567 -287.072159 0 120 255
52.413313 -228.246999 -289.133698 0 120 255
53.780472 -228.304430 -291.195237 0 120 255
55.147631 -228.361862 -293.256775 0 120 255
56.619223 -228.422880 -295.243279 0 120 255
58.134110 -228.485386 -297.198675 0 120 255
59.648996 -228.547891 -299.154072 0 120 255
61.163883 -228.610396 -301.109469 0 120 255
62.771094 -228.676132 -302.987667 0 120 255
64.424712 -228.743490 -304.827062 0 120 255
66.078331 -228.810849 -306.666456 0 120 255
67.731949 -228.878207 -308.505851 0 120 255
69.465963 -228.948306 -310.267413 0 120 255
71.248409 -229.020054 -311.982085 0 120 255
73.030855 -229.091802 -313.696758 0 120 255
74.813301 -229.163551 -315.411430 0 120 255
76.664529 -229.237043 -317.049200 0 120 255
78.565035 -229.311784 -318.631873 0 120 255
80.465541 -229.386525 -320.214547 0 120 255
82.366047 -229.461267 -321.797220 0 120 255
84.323883 -229.534768 -323.306000 0 120 255
86.330337 -229.607218 -324.752119 0 120 255
88.336790 -229.679668 -326.198239 0 120 255
90.343243 -229.752117 -327.644358 0 120 255
92.396112 -229.818779 -329.021565 0 120 255
94.495471 -229.879643 -330.329752 0 120 255
96.594830 -229.940507 -331.637938 0 120 255
98.694189 -230.001371 -332.946125 0 120 255
100.830296 -230.052866 -334.191256 0 120 255
103.009883 -230.093276 -335.361782 0 120 255
105.189470 -230.133686 -336.532308 0 120 255
107.369057 -230.174095 -337.702833 0 120 255
109.577109 -230.203187 -338.816464 0 120 255
111.825049 -230.216420 -339.850368 0 120 255
114.072988 -230.229652 -340.884271 0 120 255
116.320928 -230.242885 -341.918174 0 120 255
118.590255 -230.243851 -342.901672 0 120 255
120.895256 -230.224357 -343.801091 0 120 255
123.200257 -230.204863 -344.700509 0 120 255
125.505258 -230.185369 -345.599928 0 120 255
127.825738 -230.153537 -346.455556 0 120 255
130.177205 -230.097009 -347.223521 0 120 255
132.528672 -230.040480 -347.991486 0 120 255
134.880140 -229.983952 -348.759451 0 120 255
137.242283 -229.915747 -349.490216 0 120 255
139.630384 -229.819151 -350.130535 0 120 255
142.018485 -229.722556 -350.770853 0 120 255
144.406585 -229.625961 -351.411172 0 120 255
146.801589 -229.518923 -352.020721 0 120 255
149.217334 -229.380505 -352.537809 0 120 255
151.633079 -229.242086 -353.054897 0 120 255
154.048824 -229.103668 -353.571985 0 120 255
156.468635 -228.956459 -354.064472 0 120 255
158.903938 -228.775761 -354.463238 0 120 255
161.339240 -228.595064 -354.862004 0 120 255
163.774542 -228.414366 -355.260770 0 120 255
166.211888 -228.226947 -355.641067 0 120 255
168.659490 -228.005782 -355.928631 0 120 255
171.107092 -227.784618 -356.216196 0 120 255
173.554694 -227.563453 -356.503760 0 120 255
176.002262 -227.341009 -356.790606 0 120 255
178.449586 -227.109561 -357.072391 0 120 255
180.896909 -226.878113 -357.354175 0 120 255
183.344233 -226.646665 -357.635960 0 120 255
185.791556 -226.415216 -357.917745 0 120 255
188.238878 -226.183757 -358.199542 0 120 255
190.686199 -225.952298 -358.481339 0 120 255
193.133520 -225.720839 -358.763136 0 120 255
195.580841 -225.489380 -359.044932 0 120 255
198.028165 -225.257925 -359.326715 0 120 255
200.475488 -225.026470 -359.608497 0 120 255
202.922811 -224.795015 -359.890279 0 120 255
205.370134 -224.563560 -360.172061 0 120 255
