ply
format ascii 1.0
element vertex 385
property float x
property float y
property float z
property uchar red
property uchar green
property uchar blue
end_header
77.430455 -42.474882 -360.397637 0 120 255
77.187561 -42.528709 -357.936020 0 120 255
76.944667 -42.582537 -355.474404 0 120 255
76.701773 -42.636364 -353.012788 0 120 255
76.458879 -42.690192 -350.551172 0 120 255
76.215654 -42.750908 -348.089749 0 120 255
75.972414 -42.811924 -345.628334 0 120 255
75.729174 -42.872940 -343.166920 0 120 255
75.485934 -42.933957 -340.705506 0 120 255
75.150992 -43.304489 -338.284287 0 120 255
74.807671 -43.703301 -335.866741 0 120 255
74.464350 -44.102113 -333.449195 0 120 255
74.121030 -44.500925 -331.031649 0 120 255
73.708855 -45.173711 -328.689337 0 120 255
73.286611 -45.886563 -326.358028 0 120 255
72.864368 -46.599416 -324.026719 0 120 255
72.442124 -47.312268 -321.695411 0 120 255
71.973300 -48.268289 -319.465420 0 120 255
71.494830 -49.274663 -317.256409 0 120 255
71.016360 -50.281036 -315.047399 0 120 255
70.537891 -51.287410 -312.838388 0 120 255
70.034044 -52.505565 -310.748584 0 120 255
69.523224 -53.781923 -308.691542 0 120 255
69.012403 -55.058281 -306.634501 0 120 255
68.501582 -56.334640 -304.577459 0 120 255
67.984973 -57.791865 -302.650374 0 120 255
67.466335 -59.312504 -300.768852 0 120 255
66.947696 -60.833142 -298.887331 0 120 255
66.429058 -62.353780 -297.005809 0 120 255
65.922188 -64.025635 -295.258955 0 120 255
65.420446 -65.763398 -293.570794 0 120 255
64.918705 -67.501160 -291.882633 0 120 255
64.416964 -69.238922 -290.194472 0 120 255
63.942256 -71.100014 -288.640656 0 120 255
63.481940 -73.026758 -287.158355 0 120 255
63.021623 -74.953502 -285.676054 0 120 255
62.561307 -76.880246 -284.193753 0 120 255
62.140819 -78.904544 -282.841393 0 120 255
61.745917 -80.991510 -281.572505 0 120 255
61.351016 -83.078476 -280.303618 0 120 255
60.956114 -85.165441 -279.034730 0 120 255
60.611268 -87.326502 -277.888127 0 120 255
60.304913 -89.544541 -276.835557 0 120 255
59.998559 -91.762579 -275.782987 0 120 255
59.692205 -93.980617 -274.730417 0 120 255
59.443511 -96.251751 -273.789992 0 120 255
59.247637 -98.571525 -272.952296 0 120 255
59.051763 -100.891298 -272.114600 0 120 255
58.855889 -103.211071 -271.276903 0 120 255
58.722682 -105.565489 -270.539403 0 120 255
58.657714 -107.957632 -269.911007 0 120 255
58.592745 -110.349774 -269.282610 0 120 255
58.527777 -112.741917 -268.654214 0 120 255
58.527921 -115.152859 -268.112877 0 120 255
58.612383 -117.588145 -267.684279 0 120 255
58.696846 -120.023432 -267.255681 0 120 255
58.781308 -122.458718 -266.827083 0 120 255
58.930891 -124.899609 -266.471811 0 120 255
59.181069 -127.349160 -266.229812 0 120 255
59.431247 -129.798710 -265.987813 0 120 255
59.681425 -132.248260 -265.745814 0 120 255
59.994443 -134.692895 -265.563340 0 120 255
60.423961 -137.128416 -265.491216 0 120 255
60.853478 -139.563937 -265.419093 0 120 255
61.282995 -141.999458 -265.346969 0 120 255
61.771030 -144.422215 -265.321018 0 120 255
62.390512 -146.816300 -265.398781 0 120 255
63.009993 -149.210386 -265.476545 0 120 255
63.629475 -151.604471 -265.554309 0 120 255
64.301388 -153.980586 -265.665819 0 120 255
65.118068 -156.307082 -265.870510 0 120 255
65.934748 -158.633578 -266.075201 0 120 255
66.751428 -160.960075 -266.279892 0 120 255
67.613059 -163.265951 -266.507286 0 120 255
68.630498 -165.500359 -266.813373 0 120 255
69.647937 -167.734767 -267.119459 0 120 255
70.665376 -169.969175 -267.425546 0 120 255
71.719304 -172.182738 -267.745052 0 120 255
72.937131 -174.302669 -268.124836 0 120 255
74.154958 -176.422601 -268.504621 0 120 255
75.372785 -178.542533 -268.884405 0 120 255
76.618130 -180.643605 -269.270426 0 120 255
78.031918 -182.629232 -269.694619 0 120 255
79.445705 -184.614859 -270.118813 0 120 255
80.859493 -186.600485 -270.543006 0 120 255
82.291812 -188.571172 -270.968594 0 120 255
83.893014 -190.405701 -271.406891 0 120 255
85.494216 -192.240231 -271.845187 0 120 255
87.095418 -194.074760 -272.283484 0 120 255
88.706662 -195.899844 -272.720832 0 120 255
90.482742 -197.569900 -273.142615 0 120 255
92.258823 -199.239957 -273.564398 0 120 255
94.034903 -200.910013 -273.986181 0 120 255
95.813526 -202.577277 -274.407213 0 120 255
97.748168 -204.073276 -274.782175 0 120 255
99.682810 -205.569275 -275.157137 0 120 255
101.617452 -207.065274 -275.532098 0 120 255
103.552094 -208.561274 -275.907060 0 120 255
105.622045 -209.882185 -276.207944 0 120 255
107.695509 -211.198552 -276.506904 0 120 255
109.768972 -212.514919 -276.805864 0 120 255
111.842436 -213.831286 -277.104825 0 120 255
114.024272 -214.978689 -277.307222 0 120 255
116.213842 -216.114034 -277.502727 0 120 255
118.403413 -217.249379 -277.698232 0 120 255
120.592984 -218.384724 -277.893738 0 120 255
122.863718 -219.361055 -277.974643 0 120 255
125.144273 -220.318147 -278.041683 0 120 255
127.424828 -221.275238 -278.108722 0 120 255
129.705383 -222.232330 -278.175762 0 120 255
132.040428 -223.043598 -278.114700 0 120 255
134.385033 -223.829281 -278.031163 0 120 255
136.729638 -224.614963 -277.947625 0 120 255
139.074243 -225.400646 -277.864087 0 120 255
141.447946 -226.056199 -277.643565 0 120 255
143.828501 -226.681102 -277.390780 0 120 255
146.209057 -227.306006 -277.137995 0 120 255
148.589612 -227.930909 -276.885209 0 120 255
150.975763 -228.443192 -276.490983 0 120 255
153.363604 -228.921447 -276.054022 0 120 255
155.751446 -229.399701 -275.617061 0 120 255
158.139287 -229.877956 -275.180100 0 120 255
160.511623 -230.262123 -274.601394 0 120 255
162.878123 -230.610871 -273.969330 0 120 255
165.244622 -230.959619 -273.337266 0 120 255
167.611121 -231.308367 -272.705201 0 120 255
169.943772 -231.581881 -271.934838 0 120 255
172.260858 -231.820801 -271.100884 0 120 255
174.577944 -232.059721 -270.266931 0 120 255
176.895030 -232.298641 -269.432977 0 120 255
179.162896 -232.480820 -268.467411 0 120 255
181.403494 -232.631564 -267.428927 0 120 255
183.644091 -232.782307 -266.390443 0 120 255
185.884689 -232.933051 -265.351959 0 120 255
188.064231 -233.047786 -264.192284 0 120 255
190.203392 -233.138707 -262.952458 0 120 255
192.342554 -233.229627 -261.712631 0 120 255
194.481716 -233.320548 -260.472804 0 120 255
196.551533 -233.394513 -259.124265 0 120 255
198.566905 -233.455166 -257.690374 0 120 255
200.582277 -233.515819 -256.256482 0 120 255
202.597649 -233.576472 -254.822591 0 120 255
204.534874 -233.622973 -253.289161 0 120 255
206.399598 -233.656345 -251.663387 0 120 255
208.264322 -233.689717 -250.037613 0 120 255
210.129045 -233.723089 -248.411840 0 120 255
211.907865 -233.742590 -246.697205 0 120 255
213.592850 -233.746938 -244.885505 0 120 255
215.277836 -233.751287 -243.073805 0 120 255
216.962821 -233.755635 -241.262106 0 120 255
218.556919 -233.748371 -239.374755 0 120 255
220.034152 -233.726175 -237.390129 0 120 255
221.511384 -233.703978 -235.405503 0 120 255
222.988617 -233.681781 -233.420877 0 120 255
224.372846 -233.650811 -231.375036 0 120 255
225.615903 -233.606523 -229.236275 0 120 255
226.858960 -233.562235 -227.097514 0 120 255
228.102017 -233.517947 -224.958754 0 120 255
229.252866 -233.467372 -222.773539 0 120 255
230.237598 -233.405469 -220.504636 0 120 255
231.222330 -233.343565 -218.235733 0 120 255
232.207061 -233.281662 -215.966830 0 120 255
233.103348 -233.215570 -213.665825 0 120 255
233.808923 -233.140445 -211.295600 0 120 255
234.514498 -233.065320 -208.925374 0 120 255
235.220073 -232.990195 -206.555148 0 120 255
235.843794 -232.912566 -204.166019 0 120 255
236.253617 -232.828396 -201.727493 0 120 255
236.663441 -232.744225 -199.288967 0 120 255
237.073265 -232.660055 -196.850441 0 120 255
237.410350 -232.574663 -194.404366 0 120 255
237.512914 -232.485330 -191.933951 0 120 255
237.615478 -232.395998 -189.463536 0 120 255
237.718042 -232.306665 -186.993121 0 120 255
237.759030 -232.217004 -184.524065 0 120 255
237.548553 -232.125998 -182.060558 0 120 255
237.338076 -232.034992 -179.597051 0 120 255
237.127600 -231.943985 -177.133544 0 120 255
236.868143 -231.853192 -174.677392 0 120 255
236.344997 -231.763542 -172.260839 0 120 255
235.821851 -231.673893 -169.844285 0 120 255
235.298704 -231.584244 -167.427732 0 120 255
234.739902 -231.495045 -165.021321 0 120 255
233.910783 -231.409264 -162.691803 0 120 255
233.081664 -231.323482 -160.362286 0 120 255
232.252545 -231.237701 -158.032768 0 120 255
231.401063 -231.152364 -155.712860 0 120 255
230.278896 -231.072405 -153.509273 0 120 255
229.156729 -230.992446 -151.305686 0 120 255
228.034562 -230.912487 -149.102098 0 120 255
226.902527 -230.832788 -146.904357 0 120 255
225.506122 -230.760051 -144.863226 0 120 255
224.109718 -230.687314 -142.822096 0 120 255
222.713313 -230.614578 -140.780966 0 120 255
221.316909 -230.541841 -138.739835 0 120 255
219.671456 -230.477141 -136.893406 0 120 255
218.024884 -230.412478 -135.047853 0 120 255
216.378312 -230.347815 -133.202299 0 120 255
214.731740 -230.283151 -131.356745 0 120 255
212.873516 -230.226512 -129.725501 0 120 255
211.005297 -230.170252 -128.104378 0 120 255
209.137078 -230.113991 -126.483254 0 120 255
207.268859 -230.057731 -124.862130 0 120 255
205.227337 -230.009041 -123.468000 0 120 255
203.169533 -229.961063 -122.095197 0 120 255
201.111728 -229.913085 -120.722394 0 120 255
199.053923 -229.865107 -119.349591 0 120 255
196.860743 -229.823904 -118.209788 0 120 255
194.647891 -229.783685 -117.103840 0 120 255
192.435040 -229.743466 -115.997892 0 120 255
190.222188 -229.703248 -114.891944 0 120 255
187.910269 -229.668773 -114.018816 0 120 255
185.578341 -229.635458 -113.192711 0 120 255
183.246412 -229.602143 -112.366605 0 120 255
180.914484 -229.568828 -111.540500 0 120 255
178.517175 -229.540126 -110.941559 0 120 255
176.102551 -229.512647 -110.402778 0 120 255
173.687927 -229.485168 -109.863998 0 120 255
171.273302 -229.457689 -109.325218 0 120 255
168.823590 -229.433655 -109.003337 0 120 255
166.362125 -229.410776 -108.754112 0 120 255
163.900659 -229.387898 -108.504887 0 120 255
161.439194 -229.365019 -108.255662 0 120 255
158.969009 -229.344489 -108.209393 0 120 255
156.495217 -229.324931 -108.247094 0 120 255
154.021426 -229.305373 -108.284796 0 120 255
151.547634 -229.285816 -108.322498 0 120 255
149.087270 -229.267616 -108.546514 0 120 255
146.633658 -229.250100 -108.864208 0 120 255
144.180045 -229.232583 -109.181901 0 120 255
141.726433 -229.215066 -109.499595 0 120 255
139.304089 -229.198081 -109.985174 0 120 255
136.900638 -229.181416 -110.572197 0 120 255
134.497188 -229.164751 -111.159221 0 120 255
132.093737 -229.148086 -111.746245 0 120 255
129.735185 -229.131314 -112.481801 0 120 255
127.408998 -229.114464 -113.324427 0 120 255
125.082811 -229.097614 -114.167054 0 120 255
122.756624 -229.080764 -115.009681 0 120 255
120.484998 -229.063358 -115.981310 0 120 255
118.260090 -229.045475 -117.063397 0 120 255
116.035181 -229.027592 -118.145485 0 120 255
113.810273 -229.009710 -119.227572 0 120 255
111.645959 -228.991021 -120.419566 0 120 255
109.543168 -228.971515 -121.723153 0 120 255
107.440377 -228.952009 -123.026740 0 120 255
105.337586 -228.932503 -124.330327 0 120 255
103.298207 -228.912108 -125.725669 0 120 255
101.335232 -228.890642 -127.231563 0 120 255
99.372257 -228.869175 -128.737457 0 120 255
97.409282 -228.847709 -130.243352 0 120 255
95.509768 -228.825421 -131.824165 0 120 255
93.701284 -228.801954 -133.512443 0 120 255
91.892800 -228.778488 -135.200722 0 120 255
90.084316 -228.755021 -136.889000 0 120 255
88.337022 -228.730926 -138.636937 0 120 255
86.694861 -228.705753 -140.487376 0 120 255
85.052700 -228.680580 -142.337815 0 120 255
83.410539 -228.655407 -144.188253 0 120 255
81.825421 -228.629869 -146.084833 0 120 255
80.358813 -228.603576 -148.077274 0 120 255
78.892205 -228.577282 -150.069714 0 120 255
77.425597 -228.550989 -152.062155 0 120 255
76.010413 -228.524636 -154.089036 0 120 255
74.726233 -228.498130 -156.203659 0 120 255
73.442052 -228.471624 -158.318281 0 120 255
72.157872 -228.445118 -160.432904 0 120 255
70.918397 -228.418854 -162.572100 0 120 255
69.821446 -228.393364 -164.789644 0 120 255
68.724495 -228.367874 -167.007187 0 120 255
67.627544 -228.342384 -169.224731 0 120 255
66.567783 -228.317495 -171.458769 0 120 255
65.660963 -228.295079 -173.760643 0 120 255
64.754143 -228.272663 -176.062517 0 120 255
63.847323 -228.250247 -178.364392 0 120 255
62.969676 -228.228679 -180.676406 0 120 255
62.254312 -228.211830 -183.044827 0 120 255
61.538947 -228.194981 -185.413248 0 120 255
60.823583 -228.178133 -187.781670 0 120 255
60.129158 -228.162028 -190.155515 0 120 255
59.605628 -228.151992 -192.573627 0 120 255
59.082098 -228.141957 -194.991739 0 120 255
58.558568 -228.131922 -197.409850 0 120 255
58.047649 -228.122347 -199.830180 0 120 255
57.715367 -228.119291 -202.281920 0 120 255
57.383085 -228.116235 -204.733660 0 120 255
57.050803 -228.113179 -207.185400 0 120 255
56.722830 -228.110281 -209.637555 0 120 255
56.580266 -228.114199 -212.107598 0 120 255
56.437703 -228.118116 -214.577640 0 120 255
56.295140 -228.122034 -217.047683 0 120 255
56.152577 -228.125952 -219.517725 0 120 255
56.193663 -228.136539 -221.991374 0 120 255
56.238600 -228.147265 -224.465099 0 120 255
56.283536 -228.157992 -226.938824 0 120 255
56.328473 -228.168719 -229.412549 0 120 255
56.546111 -228.185727 -231.876642 0 120 255
56.775516 -228.203163 -234.340078 0 120 255
57.004921 -228.220599 -236.803515 0 120 255
57.234327 -228.238036 -239.266951 0 120 255
57.625251 -228.261272 -241.709266 0 120 255
58.035541 -228.285204 -244.149049 0 120 255
58.445831 -228.309137 -246.588831 0 120 255
58.856121 -228.333069 -249.028613 0 120 255
59.416577 -228.362373 -251.437413 0 120 255
60.003606 -228.392629 -253.840730 0 120 255
60.590635 -228.422884 -256.244046 0 120 255
61.177664 -228.453139 -258.647363 0 120 255
61.903522 -228.488343 -261.011329 0 120 255
62.662715 -228.524735 -263.365846 0 120 255
63.421908 -228.561127 -265.720363 0 120 255
64.181101 -228.597519 -268.074880 0 120 255
65.067859 -228.638499 -270.383063 0 120 255
65.994218 -228.680904 -272.676861 0 120 255
66.920577 -228.723310 -274.970659 0 120 255
67.846936 -228.765715 -277.264457 0 120 255
68.889680 -228.812301 -279.506249 0 120 255
69.977725 -228.860513 -281.727799 0 120 255
71.065770 -228.908726 -283.949349 0 120 255
72.153815 -228.956939 -286.170899 0 120 255
73.347335 -229.008781 -288.335944 0 120 255
74.591271 -229.062357 -290.473981 0 120 255
75.835208 -229.115933 -292.612017 0 120 255
77.079145 -229.169509 -294.750054 0 120 255
78.418077 -229.225983 -296.828084 0 120 255
79.811985 -229.284133 -298.871388 0 120 255
81.205893 -229.342284 -300.914691 0 120 255
82.599800 -229.400434 -302.957995 0 120 255
84.078595 -229.460248 -304.938732 0 120 255
85.616283 -229.521215 -306.876062 0 120 255
87.153971 -229.582183 -308.813392 0 120 255
88.691659 -229.643151 -310.750722 0 120 255
90.304452 -229.702307 -312.623898 0 120 255
91.979293 -229.759965 -314.444071 0 120 255
93.654135 -229.817624 -316.264244 0 120 255
95.328977 -229.875283 -318.084417 0 120 255
97.069379 -229.927077 -319.839811 0 120 255
98.874047 -229.973122 -321.531704 0 120 255
100.678716 -230.019167 -323.223597 0 120 255
102.483384 -230.065212 -324.915490 0 120 255
104.344213 -230.102921 -326.542996 0 120 255
106.270322 -230.130941 -328.095661 0 120 255
108.196431 -230.158962 -329.648326 0 120 255
110.122540 -230.186982 -331.200991 0 120 255
112.095710 -230.205103 -332.690636 0 120 255
114.133875 -230.209555 -334.093246 0 120 255
116.172039 -230.214006 -335.495856 0 120 255
118.210203 -230.218458 -336.898467 0 120 255
120.286718 -230.212105 -338.240411 0 120 255
122.426443 -230.187943 -339.482361 0 120 255
124.566169 -230.163781 -340.724311 0 120 255
126.705895 -230.139619 -341.966261 0 120 255
128.875759 -230.104376 -343.150887 0 120 255
131.105368 -230.047166 -344.221878 0 120 255
133.334976 -229.989957 -345.292869 0 120 255
135.564585 -229.932748 -346.363860 0 120 255
137.816747 -229.864741 -347.381851 0 120 255
140.123310 -229.770692 -348.272004 0 120 255
142.429872 -229.676642 -349.162158 0 120 255
144.736435 -229.582593 -350.052311 0 120 255
147.058736 -229.478529 -350.894752 0 120 255
149.428013 -229.344572 -351.594771 0 120 255
151.797291 -229.210616 -352.294791 0 120 255
154.166569 -229.076659 -352.994811 0 120 255
156.545695 -228.933890 -353.653324 0 120 255
158.962120 -228.757747 -354.154636 0 120 255
161.378545 -228.581603 -354.655947 0 120 255
163.794970 -228.405459 -355.157259 0 120 255
166.216496 -228.222005 -355.623655 0 120 255
168.663481 -228.002064 -355.915780 0 120 255
171.110467 -227.782123 -356.207906 0 120 255
173.557452 -227.562182 -356.500032 0 120 255
176.004457 -227.340802 -356.790859 0 120 255
178.451598 -227.109371 -357.072622 0 120 255
180.898739 -226.877940 -357.354386 0 120 255
183.345880 -226.646510 -357.636149 0 120 255
185.793021 -226.415078 -357.917914 0 120 255
188.240159 -226.183636 -358.199690 0 120 255
190.687298 -225.952194 -358.481466 0 120 255
193.134436 -225.720753 -358.763242 0 120 255
195.581575 -225.489311 -359.045017 0 120 255
198.028714 -225.257873 -359.326786 0 120 255
200.475854 -225.026436 -359.608554 0 120 255
202.922994 -224.794998 -359.890322 0 120 255
205.370133 -224.563560 -360.172091 0 120 255
