ply
format ascii 1.0
element vertex 385
property float x
property float y
property float z
property uchar red
property uchar green
property uchar blue
end_header
77.430455 -42.474882 -360.397637 0 120 255
77.187530 -42.528716 -357.935701 0 120 255
76.944604 -42.582551 -355.473766 0 120 255
76.701679 -42.636385 -353.011830 0 120 255
76.458753 -42.690220 -350.549895 0 120 255
76.211627 -42.770298 -348.089098 0 120 255
75.964321 -42.851505 -345.628349 0 120 255
75.717015 -42.932713 -343.167601 0 120 255
75.469708 -43.013920 -340.706853 0 120 255
75.345809 -43.306031 -338.253915 0 120 255
75.233170 -43.617387 -335.801690 0 120 255
75.120532 -43.928743 -333.349465 0 120 255
75.007893 -44.240098 -330.897240 0 120 255
75.004663 -44.731030 -328.473356 0 120 255
75.017949 -45.249073 -326.053750 0 120 255
75.031236 -45.767115 -323.634144 0 120 255
75.044522 -46.285158 -321.214538 0 120 255
75.150261 -46.972884 -318.841723 0 120 255
75.276201 -47.697689 -316.479132 0 120 255
75.402142 -48.422493 -314.116541 0 120 255
75.528082 -49.147297 -311.753951 0 120 255
75.730900 -50.028853 -309.452942 0 120 255
75.956420 -50.956698 -307.170119 0 120 255
76.181940 -51.884543 -304.887296 0 120 255
76.407460 -52.812388 -302.604473 0 120 255
76.695982 -53.881967 -300.394371 0 120 255
77.008648 -55.005861 -298.212139 0 120 255
77.321315 -56.129756 -296.029907 0 120 255
77.633981 -57.253651 -293.847675 0 120 255
77.997654 -58.503037 -291.745821 0 120 255
78.386047 -59.813243 -289.682923 0 120 255
78.774441 -61.123449 -287.620025 0 120 255
79.162834 -62.433655 -285.557127 0 120 255
79.592158 -63.852620 -283.579052 0 120 255
80.046147 -65.337123 -281.652090 0 120 255
80.500136 -66.821626 -279.725128 0 120 255
80.954125 -68.306129 -277.798166 0 120 255
81.440816 -69.882798 -275.957606 0 120 255
81.951748 -71.527785 -274.181092 0 120 255
82.462681 -73.172772 -272.404577 0 120 255
82.973613 -74.817758 -270.628063 0 120 255
83.510720 -76.538939 -268.937032 0 120 255
84.071549 -78.329175 -267.323476 0 120 255
84.632378 -80.119411 -265.709920 0 120 255
85.193208 -81.909647 -264.096364 0 120 255
85.775176 -83.761095 -262.565240 0 120 255
86.380515 -85.680222 -261.125256 0 120 255
86.985855 -87.599348 -259.685271 0 120 255
87.591194 -89.518475 -258.245287 0 120 255
88.213880 -91.485102 -256.882903 0 120 255
88.859996 -93.515891 -255.625339 0 120 255
89.506112 -95.546680 -254.367775 0 120 255
90.152228 -97.577469 -253.110211 0 120 255
90.812882 -99.643514 -251.923966 0 120 255
91.497655 -101.768052 -250.856042 0 120 255
92.182429 -103.892590 -249.788118 0 120 255
92.867202 -106.017128 -248.720195 0 120 255
93.564423 -108.166277 -247.716143 0 120 255
94.287260 -110.366070 -246.843531 0 120 255
95.010096 -112.565864 -245.970918 0 120 255
95.732932 -114.765658 -245.098306 0 120 255
96.466592 -116.981108 -244.281222 0 120 255
97.228319 -119.237156 -243.608126 0 120 255
97.990045 -121.493204 -242.935029 0 120 255
98.751771 -123.749251 -242.261933 0 120 255
99.522922 -126.013758 -241.635363 0 120 255
100.325624 -128.306583 -241.164556 0 120 255
101.128326 -130.599408 -240.693749 0 120 255
101.931027 -132.892234 -240.222942 0 120 255
102.741774 -135.188123 -239.789227 0 120 255
103.588645 -137.497771 -239.522069 0 120 255
104.435517 -139.807418 -239.254910 0 120 255
105.282388 -142.117066 -238.987752 0 120 255
106.135764 -144.426225 -238.748025 0 120 255
107.030901 -146.732243 -238.684402 0 120 255
107.926038 -149.038261 -238.620778 0 120 255
108.821174 -151.344279 -238.557155 0 120 255
109.720977 -153.648133 -238.511290 0 120 255
110.669161 -155.929551 -238.649552 0 120 255
111.617345 -158.210969 -238.787814 0 120 255
112.565530 -160.492387 -238.926076 0 120 255
113.516148 -162.771879 -239.072632 0 120 255
114.522610 -165.007190 -239.409466 0 120 255
115.529073 -167.242500 -239.746299 0 120 255
116.535535 -169.477811 -240.083132 0 120 255
117.541997 -171.713122 -240.419966 0 120 255
118.611894 -173.880556 -240.949507 0 120 255
119.682032 -176.047732 -241.479779 0 120 255
120.752170 -178.214909 -242.010051 0 120 255
121.822307 -180.382086 -242.540323 0 120 255
122.958050 -182.463017 -243.247884 0 120 255
124.097145 -184.539541 -243.964507 0 120 255
125.236241 -186.616065 -244.681129 0 120 255
126.375337 -188.692588 -245.397752 0 120 255
127.581394 -190.666087 -246.275013 0 120 255
128.794295 -192.629056 -247.168691 0 120 255
130.007196 -194.592025 -248.062370 0 120 255
131.220096 -196.554994 -248.956048 0 120 255
132.500275 -198.399867 -249.992627 0 120 255
133.791048 -200.226142 -251.051712 0 120 255
135.081822 -202.052418 -252.110796 0 120 255
136.372596 -203.878693 -253.169881 0 120 255
137.729740 -205.573679 -254.353164 0 120 255
139.101316 -207.240117 -255.563454 0 120 255
140.472892 -208.906555 -256.773743 0 120 255
141.844468 -210.572993 -257.984033 0 120 255
143.280171 -212.097009 -259.299014 0 120 255
144.733996 -213.580780 -260.643578 0 120 255
146.187821 -215.064552 -261.988143 0 120 255
147.641645 -216.548323 -263.332707 0 120 255
149.155916 -217.880811 -264.761897 0 120 255
150.691556 -219.159816 -266.221004 0 120 255
152.227196 -220.438821 -267.680111 0 120 255
153.762836 -221.717826 -269.139218 0 120 255
155.353799 -222.839168 -270.662586 0 120 255
156.968611 -223.892543 -272.213656 0 120 255
158.583424 -224.945919 -273.764726 0 120 255
160.198237 -225.999294 -275.315796 0 120 255
161.861865 -226.891299 -276.910800 0 120 255
163.550693 -227.699999 -278.528483 0 120 255
165.239521 -228.508698 -280.146167 0 120 255
166.928350 -229.317398 -281.763851 0 120 255
168.658230 -229.963841 -283.405563 0 120 255
170.413157 -230.511289 -285.061936 0 120 255
172.168083 -231.058736 -286.718309 0 120 255
173.923010 -231.606184 -288.374682 0 120 255
175.710167 -231.993420 -290.036026 0 120 255
177.520342 -232.266236 -291.700920 0 120 255
179.330518 -232.539052 -293.365815 0 120 255
181.140693 -232.811868 -295.030709 0 120 255
182.973680 -232.932246 -296.682629 0 120 255
184.825607 -232.926052 -298.323776 0 120 255
186.677535 -232.919858 -299.964923 0 120 255
188.529463 -232.913664 -301.606070 0 120 255
190.394429 -232.761536 -303.218641 0 120 255
192.271923 -232.469214 -304.803761 0 120 255
194.149416 -232.176892 -306.388880 0 120 255
196.026910 -231.884570 -307.973999 0 120 255
197.906747 -231.452856 -309.516537 0 120 255
199.789171 -230.867315 -311.012083 0 120 255
201.671595 -230.281773 -312.507629 0 120 255
203.554020 -229.696232 -314.003175 0 120 255
205.428370 -228.983097 -315.444302 0 120 255
207.292499 -228.108450 -316.816545 0 120 255
209.156629 -227.233803 -318.188788 0 120 255
211.020758 -226.359156 -319.561031 0 120 255
212.867021 -225.370960 -320.869760 0 120 255
214.687330 -224.217829 -322.086229 0 120 255
216.507640 -223.064698 -323.302699 0 120 255
218.327950 -221.911567 -324.519169 0 120 255
220.121717 -220.660652 -325.666082 0 120 255
221.871130 -219.246339 -326.696766 0 120 255
223.620543 -217.832027 -327.727450 0 120 255
225.369957 -216.417715 -328.758135 0 120 255
227.085726 -214.922440 -329.716449 0 120 255
228.736512 -213.270791 -330.534982 0 120 255
230.387298 -211.619142 -331.353516 0 120 255
232.038084 -209.967492 -332.172050 0 120 255
233.650086 -208.252003 -332.918631 0 120 255
235.174851 -206.392912 -333.503365 0 120 255
236.699615 -204.533822 -334.088098 0 120 255
238.224380 -202.674731 -334.672831 0 120 255
239.707474 -200.768422 -335.189099 0 120 255
241.080190 -198.737038 -335.524008 0 120 255
242.452906 -196.705653 -335.858917 0 120 255
243.825622 -194.674268 -336.193825 0 120 255
245.156177 -192.610974 -336.466463 0 120 255
246.353132 -190.446565 -336.541775 0 120 255
247.550087 -188.282157 -336.617086 0 120 255
248.747042 -186.117749 -336.692398 0 120 255
249.903739 -183.934690 -336.713830 0 120 255
250.904352 -181.679326 -336.526371 0 120 255
251.904966 -179.423961 -336.338913 0 120 255
252.905580 -177.168597 -336.151455 0 120 255
253.870094 -174.905185 -335.920055 0 120 255
254.657646 -172.602325 -335.473252 0 120 255
255.445198 -170.299464 -335.026448 0 120 255
256.232750 -167.996604 -334.579645 0 120 255
256.990315 -165.693193 -334.099661 0 120 255
257.552279 -163.386193 -333.403256 0 120 255
258.114243 -161.079192 -332.706850 0 120 255
258.676207 -158.772191 -332.010444 0 120 255
259.215863 -156.468800 -331.291677 0 120 255
259.544224 -154.199605 -330.361103 0 120 255
259.872585 -151.930409 -329.430530 0 120 255
260.200946 -149.661213 -328.499956 0 120 255
260.515773 -147.396419 -327.557183 0 120 255
260.606939 -145.204350 -326.412823 0 120 255
260.698106 -143.012282 -325.268462 0 120 255
260.789273 -140.820213 -324.124101 0 120 255
260.876269 -138.630135 -322.976402 0 120 255
260.730879 -136.550927 -321.642687 0 120 255
260.585490 -134.471720 -320.308972 0 120 255
260.440101 -132.392512 -318.975257 0 120 255
260.294711 -130.313305 -317.641542 0 120 255
259.922583 -128.375137 -316.149624 0 120 255
259.545171 -126.440257 -314.654019 0 120 255
259.167759 -124.505377 -313.158413 0 120 255
258.790347 -122.570496 -311.662808 0 120 255
258.203171 -120.795749 -310.043328 0 120 255
257.601633 -119.031966 -308.415367 0 120 255
257.000094 -117.268183 -306.787406 0 120 255
256.398556 -115.504400 -305.159445 0 120 255
255.606313 -113.913078 -303.440653 0 120 255
254.791399 -112.342259 -301.711064 0 120 255
253.976485 -110.771439 -299.981475 0 120 255
253.161571 -109.200620 -298.251885 0 120 255
252.176249 -107.808450 -296.462271 0 120 255
251.161049 -106.447603 -294.662131 0 120 255
250.145849 -105.086756 -292.861992 0 120 255
249.130648 -103.725909 -291.061853 0 120 255
247.965765 -102.544510 -289.229616 0 120 255
246.765134 -101.405967 -287.389713 0 120 255
245.564503 -100.267424 -285.549810 0 120 255
244.363872 -99.128882 -283.709907 0 120 255
243.034112 -98.166035 -281.862499 0 120 255
241.664245 -97.257760 -280.012759 0 120 255
240.294378 -96.349485 -278.163019 0 120 255
238.924511 -95.441210 -276.313279 0 120 255
237.445352 -94.701203 -274.477072 0 120 255
235.923337 -94.027180 -272.646170 0 120 255
234.401321 -93.353158 -270.815269 0 120 255
232.879306 -92.679135 -268.984368 0 120 255
231.266749 -92.163120 -267.184405 0 120 255
229.610247 -91.723797 -265.399459 0 120 255
227.953745 -91.284474 -263.614513 0 120 255
226.297242 -90.845151 -261.829567 0 120 255
224.567600 -90.551509 -260.089391 0 120 255
222.794606 -90.344217 -258.375752 0 120 255
221.021612 -90.136925 -256.662113 0 120 255
219.248617 -89.929633 -254.948474 0 120 255
217.418348 -89.854325 -253.290029 0 120 255
215.546985 -89.873711 -251.671182 0 120 255
213.675623 -89.893098 -250.052336 0 120 255
211.804260 -89.912485 -248.433489 0 120 255
209.889856 -90.049375 -246.877063 0 120 255
207.938270 -90.287775 -245.374561 0 120 255
205.986683 -90.526175 -243.872059 0 120 255
204.035097 -90.764576 -242.369557 0 120 255
202.053027 -91.105738 -240.933763 0 120 255
200.039322 -91.553550 -239.567202 0 120 255
198.025616 -92.001362 -238.200640 0 120 255
196.011910 -92.449174 -236.834078 0 120 255
193.978592 -92.985142 -235.535852 0 120 255
191.920806 -93.631090 -234.322878 0 120 255
189.863020 -94.277037 -233.109905 0 120 255
187.805234 -94.922985 -231.896931 0 120 255
185.737036 -95.642975 -230.751538 0 120 255
183.653170 -96.474393 -229.707851 0 120 255
181.569304 -97.305811 -228.664163 0 120 255
179.485438 -98.137229 -227.620476 0 120 255
177.398708 -99.029325 -226.641520 0 120 255
175.306740 -100.032327 -225.780883 0 120 255
173.214773 -101.035330 -224.920246 0 120 255
171.122806 -102.038332 -224.059609 0 120 255
169.033898 -103.089629 -223.259031 0 120 255
166.951856 -104.249314 -222.593245 0 120 255
164.869814 -105.408998 -221.927460 0 120 255
162.787773 -106.568683 -221.261674 0 120 255
160.713102 -107.765425 -220.649734 0 120 255
158.659079 -109.065963 -220.188619 0 120 255
156.605056 -110.366501 -219.727504 0 120 255
154.551033 -111.667039 -219.266388 0 120 255
152.507100 -112.994688 -218.851628 0 120 255
150.499312 -114.419460 -218.602935 0 120 255
148.491524 -115.844233 -218.354241 0 120 255
146.483736 -117.269005 -218.105547 0 120 255
144.487164 -118.712345 -217.894724 0 120 255
142.543954 -120.244021 -217.864069 0 120 255
140.600744 -121.775697 -217.833413 0 120 255
138.657534 -123.307374 -217.802758 0 120 255
136.725078 -124.850569 -217.800778 0 120 255
134.864902 -126.471185 -217.991527 0 120 255
133.004726 -128.091802 -218.182275 0 120 255
131.144550 -129.712418 -218.373023 0 120 255
129.293081 -131.339073 -218.582836 0 120 255
127.534463 -133.030120 -218.995943 0 120 255
125.775844 -134.721167 -219.409051 0 120 255
124.017226 -136.412215 -219.822158 0 120 255
122.263696 -138.105443 -220.244623 0 120 255
120.625135 -139.847955 -220.878505 0 120 255
118.986573 -141.590466 -221.512387 0 120 255
117.348011 -143.332978 -222.146269 0 120 255
115.709450 -145.075489 -222.780151 0 120 255
114.209212 -146.850135 -223.630400 0 120 255
112.709046 -148.624797 -224.480761 0 120 255
111.208880 -150.399459 -225.331122 0 120 255
109.708714 -152.174121 -226.181483 0 120 255
108.358205 -153.960862 -227.232152 0 120 255
107.014414 -155.748146 -228.291812 0 120 255
105.670622 -157.535429 -229.351473 0 120 255
104.326830 -159.322712 -230.411133 0 120 255
103.142044 -161.103631 -231.652991 0 120 255
101.972019 -162.883960 -232.911763 0 120 255
100.801993 -164.664289 -234.170535 0 120 255
99.631967 -166.444617 -235.429307 0 120 255
98.628158 -168.201903 -236.850385 0 120 255
97.648408 -169.955854 -238.294956 0 120 255
96.668659 -171.709804 -239.739527 0 120 255
95.688909 -173.463755 -241.184098 0 120 255
94.880298 -175.179896 -242.769616 0 120 255
94.106115 -176.888432 -244.383489 0 120 255
93.331933 -178.596968 -245.997361 0 120 255
92.557750 -180.305503 -247.611234 0 120 255
91.957214 -181.963533 -249.343587 0 120 255
91.402302 -183.608294 -251.107070 0 120 255
90.847390 -185.253054 -252.870553 0 120 255
90.292478 -186.897815 -254.634036 0 120 255
89.911229 -188.481550 -256.492874 0 120 255
89.587329 -190.045133 -258.383201 0 120 255
89.263428 -191.608715 -260.273527 0 120 255
88.939528 -193.172298 -262.163854 0 120 255
88.786751 -194.666646 -264.126184 0 120 255
88.703207 -196.132982 -266.117645 0 120 255
88.619664 -197.599318 -268.109106 0 120 255
88.536121 -199.065653 -270.100567 0 120 255
88.618658 -200.456888 -272.140995 0 120 255
88.782067 -201.811552 -274.205267 0 120 255
88.945475 -203.166216 -276.269539 0 120 255
89.108883 -204.520881 -278.333811 0 120 255
89.430921 -205.796936 -280.424853 0 120 255
89.844769 -207.027495 -282.531389 0 120 255
90.258617 -208.258053 -284.637924 0 120 255
90.672465 -209.488612 -286.744460 0 120 255
91.235258 -210.639398 -288.856922 0 120 255
91.899638 -211.735777 -290.973427 0 120 255
92.564017 -212.832156 -293.089931 0 120 255
93.228396 -213.928535 -295.206435 0 120 255
94.030059 -214.946182 -297.309914 0 120 255
94.941420 -215.900915 -299.402984 0 120 255
95.852781 -216.855649 -301.496053 0 120 255
96.764142 -217.810383 -303.589123 0 120 255
97.799502 -218.689497 -305.652547 0 120 255
98.950588 -219.498035 -307.688304 0 120 255
100.101674 -220.306573 -309.724060 0 120 255
101.252760 -221.115111 -311.759816 0 120 255
102.513328 -221.852924 -313.752072 0 120 255
103.893101 -222.513728 -315.696963 0 120 255
105.272874 -223.174532 -317.641854 0 120 255
106.652647 -223.835337 -319.586745 0 120 255
108.126644 -224.431840 -321.477314 0 120 255
109.720470 -224.946567 -323.298800 0 120 255
111.314296 -225.461294 -325.120286 0 120 255
112.908122 -225.976022 -326.941772 0 120 255
114.580648 -226.434006 -328.701377 0 120 255
116.370458 -226.807428 -330.368763 0 120 255
118.160267 -227.180850 -332.036148 0 120 255
119.950077 -227.554272 -333.703534 0 120 255
121.803331 -227.879279 -335.304780 0 120 255
123.768021 -228.119245 -336.789853 0 120 255
125.732712 -228.359211 -338.274927 0 120 255
127.697403 -228.599177 -339.760001 0 120 255
129.711028 -228.799396 -341.177940 0 120 255
131.826839 -228.916614 -342.455689 0 120 255
133.942649 -229.033832 -343.733438 0 120 255
136.058460 -229.151051 -345.011187 0 120 255
138.209915 -229.237115 -346.223867 0 120 255
140.450977 -229.244862 -347.272972 0 120 255
142.692038 -229.252610 -348.322077 0 120 255
144.933099 -229.260358 -349.371181 0 120 255
147.198134 -229.245084 -350.360037 0 120 255
149.537021 -229.158892 -351.163291 0 120 255
151.875908 -229.072700 -351.966545 0 120 255
154.214795 -228.986509 -352.769799 0 120 255
156.567928 -228.884598 -353.519973 0 120 255
158.976236 -228.721806 -354.064570 0 120 255
161.384545 -228.559015 -354.609166 0 120 255
163.792854 -228.396224 -355.153762 0 120 255
166.207753 -228.223934 -355.655329 0 120 255
168.656002 -228.003585 -355.939165 0 120 255
171.104250 -227.783235 -356.223001 0 120 255
173.552499 -227.562886 -356.506837 0 120 255
176.000649 -227.341162 -356.790420 0 120 255
178.448108 -227.109701 -357.072220 0 120 255
180.895566 -226.878240 -357.354020 0 120 255
183.343024 -226.646780 -357.635820 0 120 255
185.790482 -226.415318 -357.917621 0 120 255
188.237938 -226.183846 -358.199434 0 120 255
190.685394 -225.952375 -358.481246 0 120 255
193.132849 -225.720903 -358.763059 0 120 255
195.580305 -225.489431 -359.044871 0 120 255
198.027762 -225.257963 -359.326676 0 120 255
200.475219 -225.026496 -359.608481 0 120 255
202.922676 -224.795028 -359.890286 0 120 255
205.370133 -224.563560 -360.172091 0 120 255
