ply
format ascii 1.0
element vertex 385
property float x
property float y
property float z
property uchar red
property uchar green
property uchar blue
end_header
77.430455 -42.474882 -360.397637 0 120 255
77.187553 -42.528711 -357.935933 0 120 255
76.944650 -42.582541 -355.474229 0 120 255
76.701747 -42.636370 -353.012525 0 120 255
76.458844 -42.690200 -350.550821 0 120 255
76.215246 -42.755093 -348.089453 0 120 255
75.971617 -42.820467 -345.628100 0 120 255
75.727988 -42.885841 -343.166748 0 120 255
75.484360 -42.951215 -340.705395 0 120 255
75.370705 -43.310877 -338.261999 0 120 255
75.268853 -43.697264 -335.820234 0 120 255
75.167002 -44.083650 -333.378468 0 120 255
75.065151 -44.470037 -330.936703 0 120 255
75.067995 -45.123737 -328.553003 0 120 255
75.086129 -45.816475 -326.177783 0 120 255
75.104263 -46.509213 -323.802562 0 120 255
75.122396 -47.201951 -321.427342 0 120 255
75.221498 -48.138394 -319.142668 0 120 255
75.337421 -49.125466 -316.876805 0 120 255
75.453344 -50.112538 -314.610941 0 120 255
75.569267 -51.099610 -312.345078 0 120 255
75.745639 -52.302211 -310.194031 0 120 255
75.938752 -53.564500 -308.074782 0 120 255
76.131864 -54.826790 -305.955532 0 120 255
76.324977 -56.089079 -303.836283 0 120 255
76.561663 -57.536515 -301.848360 0 120 255
76.813812 -59.049660 -299.907046 0 120 255
77.065962 -60.562804 -297.965732 0 120 255
77.318111 -62.075949 -296.024418 0 120 255
77.600692 -63.743525 -294.224017 0 120 255
77.896760 -65.479544 -292.486068 0 120 255
78.192828 -67.215563 -290.748119 0 120 255
78.488896 -68.951582 -289.010170 0 120 255
78.805777 -70.812379 -287.416797 0 120 255
79.133977 -72.741037 -285.902052 0 120 255
79.462178 -74.669694 -284.387308 0 120 255
79.790379 -76.598352 -282.872563 0 120 255
80.132943 -78.624177 -281.501197 0 120 255
80.484980 -80.714085 -280.224387 0 120 255
80.837018 -82.803992 -278.947578 0 120 255
81.189055 -84.893899 -277.670768 0 120 255
81.551682 -87.056019 -276.532250 0 120 255
81.922713 -89.275442 -275.503471 0 120 255
82.293744 -91.494864 -274.474692 0 120 255
82.664774 -93.714287 -273.445913 0 120 255
83.044769 -95.983964 -272.547320 0 120 255
83.433283 -98.301411 -271.772480 0 120 255
83.821798 -100.618859 -270.997639 0 120 255
84.210313 -102.936307 -270.222798 0 120 255
84.607769 -105.285206 -269.567780 0 120 255
85.015390 -107.669864 -269.048996 0 120 255
85.423012 -110.054522 -268.530213 0 120 255
85.830633 -112.439180 -268.011430 0 120 255
86.248250 -114.839659 -267.600485 0 120 255
86.679476 -117.261677 -267.336374 0 120 255
87.110703 -119.683696 -267.072263 0 120 255
87.541929 -122.105715 -266.808153 0 120 255
87.984781 -124.531029 -266.638798 0 120 255
88.446669 -126.961737 -266.624598 0 120 255
88.908556 -129.392446 -266.610397 0 120 255
89.370444 -131.823155 -266.596197 0 120 255
89.845711 -134.247625 -266.663086 0 120 255
90.347524 -136.659718 -266.890852 0 120 255
90.849336 -139.071811 -267.118619 0 120 255
91.351148 -141.483904 -267.346386 0 120 255
91.867821 -143.883061 -267.641404 0 120 255
92.420641 -146.250754 -268.099995 0 120 255
92.973460 -148.618447 -268.558586 0 120 255
93.526279 -150.986140 -269.017178 0 120 255
94.094830 -153.336861 -269.529414 0 120 255
94.711130 -155.636070 -270.204469 0 120 255
95.327430 -157.935279 -270.879524 0 120 255
95.943731 -160.234488 -271.554579 0 120 255
96.575754 -162.515147 -272.270322 0 120 255
97.268915 -164.723683 -273.144269 0 120 255
97.962076 -166.932219 -274.018217 0 120 255
98.655236 -169.140754 -274.892165 0 120 255
99.363039 -171.331396 -275.794893 0 120 255
100.146823 -173.429182 -276.846967 0 120 255
100.930608 -175.526969 -277.899041 0 120 255
101.714392 -177.624756 -278.951115 0 120 255
102.510564 -179.707276 -280.021512 0 120 255
103.398596 -181.676596 -281.227772 0 120 255
104.286628 -183.645916 -282.434032 0 120 255
105.174660 -185.615236 -283.640293 0 120 255
106.071632 -187.573600 -284.856262 0 120 255
107.076776 -189.399386 -286.189706 0 120 255
108.081920 -191.225172 -287.523151 0 120 255
109.087064 -193.050959 -288.856596 0 120 255
110.096593 -194.871438 -290.193360 0 120 255
111.230404 -196.541495 -291.624188 0 120 255
112.364215 -198.211552 -293.055016 0 120 255
113.498025 -199.881610 -294.485844 0 120 255
114.631836 -201.551667 -295.916672 0 120 255
115.902811 -203.058285 -297.412068 0 120 255
117.174887 -204.563591 -298.907983 0 120 255
118.446964 -206.068898 -300.403897 0 120 255
119.719040 -207.574205 -301.899812 0 120 255
121.129286 -208.917598 -303.424923 0 120 255
122.546775 -210.252505 -304.951566 0 120 255
123.964263 -211.587412 -306.478208 0 120 255
125.381752 -212.922319 -308.004850 0 120 255
126.935095 -214.100519 -309.526862 0 120 255
128.502115 -215.262944 -311.048409 0 120 255
130.069134 -216.425369 -312.569956 0 120 255
131.636153 -217.587794 -314.091502 0 120 255
133.333414 -218.602008 -315.576895 0 120 255
135.050646 -219.593495 -317.056744 0 120 255
136.767878 -220.584982 -318.536593 0 120 255
138.485110 -221.576470 -320.016442 0 120 255
140.323798 -222.431129 -321.431619 0 120 255
142.188126 -223.256900 -322.833141 0 120 255
144.052455 -224.082672 -324.234664 0 120 255
145.916784 -224.908444 -325.636186 0 120 255
147.890898 -225.611082 -326.948199 0 120 255
149.895182 -226.279883 -328.235615 0 120 255
151.899465 -226.948685 -329.523030 0 120 255
153.903748 -227.617486 -330.810446 0 120 255
156.003677 -228.178611 -331.987719 0 120 255
158.136640 -228.702546 -333.126949 0 120 255
160.269604 -229.226481 -334.266179 0 120 255
162.402567 -229.750416 -335.405409 0 120 255
164.615112 -230.183220 -336.418450 0 120 255
166.861407 -230.577375 -337.377973 0 120 255
169.107703 -230.971531 -338.337496 0 120 255
171.353998 -231.365686 -339.297018 0 120 255
173.662483 -231.685709 -340.119149 0 120 255
176.002838 -231.967739 -340.870868 0 120 255
178.343194 -232.249769 -341.622587 0 120 255
180.683549 -232.531799 -342.374306 0 120 255
183.068066 -232.756492 -342.982263 0 120 255
185.479631 -232.946066 -343.502169 0 120 255
187.891196 -233.135641 -344.022075 0 120 255
190.302761 -233.325215 -344.541980 0 120 255
192.740445 -233.474409 -344.916540 0 120 255
195.197106 -233.594264 -345.185492 0 120 255
197.653768 -233.714119 -345.454444 0 120 255
200.110429 -233.833973 -345.723396 0 120 255
202.575885 -233.931413 -345.849830 0 120 255
205.048890 -234.009612 -345.853922 0 120 255
207.521895 -234.087810 -345.858015 0 120 255
209.994900 -234.166009 -345.862107 0 120 255
212.460987 -234.227231 -345.730009 0 120 255
214.920075 -234.271279 -345.460132 0 120 255
217.379162 -234.315327 -345.190254 0 120 255
219.838250 -234.359374 -344.920377 0 120 255
222.276244 -234.388650 -344.523768 0 120 255
224.689114 -234.400332 -343.976223 0 120 255
227.101984 -234.412014 -343.428677 0 120 255
229.514855 -234.423696 -342.881132 0 120 255
231.894618 -234.425254 -342.218969 0 120 255
234.227847 -234.412583 -341.395701 0 120 255
236.561075 -234.399912 -340.572433 0 120 255
238.894304 -234.387240 -339.749165 0 120 255
241.185190 -234.368203 -338.825343 0 120 255
243.405482 -234.338551 -337.733871 0 120 255
245.625774 -234.308899 -336.642399 0 120 255
247.846066 -234.279247 -335.550927 0 120 255
250.017867 -234.246128 -334.374132 0 120 255
252.093007 -234.206100 -333.027255 0 120 255
254.168147 -234.166072 -331.680378 0 120 255
256.243288 -234.126043 -330.333502 0 120 255
258.267019 -234.084648 -328.916955 0 120 255
260.166802 -234.039955 -327.332432 0 120 255
262.066585 -233.995262 -325.747910 0 120 255
263.966368 -233.950569 -324.163387 0 120 255
265.815017 -233.905896 -322.524522 0 120 255
267.512022 -233.861282 -320.724503 0 120 255
269.209027 -233.816668 -318.924484 0 120 255
270.906033 -233.772054 -317.124465 0 120 255
272.555163 -233.728247 -315.284416 0 120 255
274.025355 -233.687455 -313.294754 0 120 255
275.495547 -233.646664 -311.305091 0 120 255
276.965739 -233.605872 -309.315428 0 120 255
278.393981 -233.566196 -307.298454 0 120 255
279.617245 -233.531974 -305.148026 0 120 255
280.840509 -233.497751 -302.997598 0 120 255
282.063773 -233.463528 -300.847170 0 120 255
283.253248 -233.430379 -298.680074 0 120 255
284.213693 -233.404511 -296.399994 0 120 255
285.174137 -233.378642 -294.119914 0 120 255
286.134582 -233.352773 -291.839835 0 120 255
287.071109 -233.327710 -289.551292 0 120 255
287.757181 -233.311076 -287.174127 0 120 255
288.443253 -233.294442 -284.796961 0 120 255
289.129325 -233.277808 -282.419796 0 120 255
289.802552 -233.261600 -280.039721 0 120 255
290.207180 -233.254290 -277.598797 0 120 255
290.611808 -233.246980 -275.157874 0 120 255
291.016437 -233.239670 -272.716950 0 120 255
291.419919 -233.232396 -270.275904 0 120 255
291.540265 -233.233803 -267.804588 0 120 255
291.660612 -233.235210 -265.333272 0 120 255
291.780959 -233.236617 -262.861957 0 120 255
291.901306 -233.238024 -260.390641 0 120 255
291.749379 -233.246670 -257.921669 0 120 255
291.586792 -233.255599 -255.452788 0 120 255
291.424205 -233.264528 -252.983907 0 120 255
291.261618 -233.273457 -250.515027 0 120 255
290.843336 -233.287805 -248.077612 0 120 255
290.402982 -233.302621 -245.642914 0 120 255
289.962629 -233.317437 -243.208216 0 120 255
289.522275 -233.332253 -240.773518 0 120 255
288.845516 -233.350512 -238.395412 0 120 255
288.136114 -233.369246 -236.025120 0 120 255
287.426712 -233.387980 -233.654828 0 120 255
286.717311 -233.406714 -231.284536 0 120 255
285.792718 -233.426914 -228.991853 0 120 255
284.826136 -233.447400 -226.714313 0 120 255
283.859553 -233.467886 -224.436774 0 120 255
282.892971 -233.488372 -222.159235 0 120 255
281.733639 -233.508473 -219.976226 0 120 255
280.524523 -233.528475 -217.817633 0 120 255
279.315406 -233.548477 -215.659040 0 120 255
278.106289 -233.568479 -213.500448 0 120 255
276.727453 -233.586443 -211.449323 0 120 255
275.292845 -233.603737 -209.433514 0 120 255
273.858237 -233.621032 -207.417705 0 120 255
272.423629 -233.638326 -205.401895 0 120 255
270.842351 -233.652207 -203.502700 0 120 255
269.201322 -233.664699 -201.651010 0 120 255
267.560292 -233.677190 -199.799321 0 120 255
265.919263 -233.689681 -197.947632 0 120 255
264.154121 -233.697713 -196.218173 0 120 255
262.327395 -233.703533 -194.549364 0 120 255
260.500668 -233.709354 -192.880555 0 120 255
258.673942 -233.715174 -191.211746 0 120 255
256.744735 -233.715819 -189.667568 0 120 255
254.754342 -233.713374 -188.197801 0 120 255
252.763949 -233.710928 -186.728034 0 120 255
250.773555 -233.708483 -185.258268 0 120 255
248.701055 -233.700496 -183.912623 0 120 255
246.570044 -233.688559 -182.655430 0 120 255
244.439032 -233.676622 -181.398237 0 120 255
242.308021 -233.664685 -180.141044 0 120 255
240.113703 -233.647147 -179.004947 0 120 255
237.865808 -233.624868 -177.971332 0 120 255
235.617914 -233.602589 -176.937717 0 120 255
233.370019 -233.580310 -175.904102 0 120 255
231.075844 -233.552661 -174.986363 0 120 255
228.735266 -233.519629 -174.184808 0 120 255
226.394688 -233.486597 -173.383254 0 120 255
224.054110 -233.453565 -172.581699 0 120 255
221.682335 -233.415650 -171.888970 0 120 255
219.273493 -233.371933 -171.325537 0 120 255
216.864652 -233.328215 -170.762103 0 120 255
214.455810 -233.284498 -170.198670 0 120 255
212.028797 -233.236564 -169.735520 0 120 255
209.576134 -233.182679 -169.413916 0 120 255
207.123472 -233.128794 -169.092311 0 120 255
204.670809 -233.074909 -168.770707 0 120 255
202.210872 -233.017606 -168.539693 0 120 255
199.738671 -232.954543 -168.461388 0 120 255
197.266470 -232.891480 -168.383083 0 120 255
194.794269 -232.828417 -168.304778 0 120 255
192.323531 -232.762807 -168.306528 0 120 255
189.855762 -232.692027 -168.470827 0 120 255
187.387993 -232.621247 -168.635125 0 120 255
184.920225 -232.550467 -168.799423 0 120 255
182.460497 -232.478008 -169.032709 0 120 255
180.020686 -232.401391 -169.436859 0 120 255
177.580875 -232.324774 -169.841009 0 120 255
175.141063 -232.248157 -170.245159 0 120 255
172.713743 -232.170673 -170.706981 0 120 255
170.324858 -232.090521 -171.346270 0 120 255
167.935973 -232.010369 -171.985559 0 120 255
165.547088 -231.930217 -172.624848 0 120 255
163.173046 -231.850064 -173.310475 0 120 255
160.857306 -231.769907 -174.178123 0 120 255
158.541567 -231.689749 -175.045770 0 120 255
156.225827 -231.609592 -175.913417 0 120 255
153.925284 -231.529986 -176.816369 0 120 255
151.704188 -231.453263 -177.903905 0 120 255
149.483092 -231.376541 -178.991440 0 120 255
147.261996 -231.299819 -180.078975 0 120 255
145.054567 -231.223664 -181.191338 0 120 255
142.949053 -231.151741 -182.488844 0 120 255
140.843539 -231.079818 -183.786350 0 120 255
138.738024 -231.007895 -185.083857 0 120 255
136.642822 -230.936398 -186.396429 0 120 255
134.673064 -230.870073 -187.892269 0 120 255
132.703305 -230.803748 -189.388110 0 120 255
130.733547 -230.737424 -190.883950 0 120 255
128.769025 -230.671313 -192.386038 0 120 255
126.954447 -230.611308 -194.066988 0 120 255
125.139870 -230.551303 -195.747938 0 120 255
123.325292 -230.491298 -197.428888 0 120 255
121.510714 -230.431294 -199.109838 0 120 255
119.868296 -230.378167 -200.959442 0 120 255
118.227334 -230.325097 -202.810472 0 120 255
116.586372 -230.272028 -204.661502 0 120 255
114.945409 -230.218959 -206.512532 0 120 255
113.485785 -230.173028 -208.509129 0 120 255
112.035797 -230.127476 -210.513460 0 120 255
110.585808 -230.081924 -212.517792 0 120 255
109.135820 -230.036372 -214.522123 0 120 255
107.873743 -229.998114 -216.648731 0 120 255
106.630803 -229.960600 -218.787791 0 120 255
105.387864 -229.923085 -220.926852 0 120 255
104.144924 -229.885571 -223.065912 0 120 255
103.093886 -229.855410 -225.304003 0 120 255
102.072628 -229.826391 -227.557462 0 120 255
101.051369 -229.797371 -229.810920 0 120 255
100.030111 -229.768352 -232.064379 0 120 255
99.202212 -229.746655 -234.393918 0 120 255
98.415654 -229.726523 -236.739725 0 120 255
97.629097 -229.706391 -239.085532 0 120 255
96.842540 -229.686260 -241.431338 0 120 255
96.248231 -229.673364 -243.830797 0 120 255
95.707473 -229.662484 -246.245202 0 120 255
95.166716 -229.651605 -248.659607 0 120 255
94.625959 -229.640725 -251.074011 0 120 255
94.273814 -229.636919 -253.520442 0 120 255
93.987766 -229.635592 -255.978095 0 120 255
93.701717 -229.634264 -258.435749 0 120 255
93.415669 -229.632937 -260.893402 0 120 255
93.312127 -229.638489 -263.362554 0 120 255
93.287187 -229.647003 -265.836658 0 120 255
93.262247 -229.655517 -268.310762 0 120 255
93.237308 -229.664031 -270.784867 0 120 255
93.386542 -229.679169 -273.251348 0 120 255
93.626504 -229.697757 -275.713859 0 120 255
93.866466 -229.716346 -278.176369 0 120 255
94.106429 -229.734934 -280.638880 0 120 255
94.510294 -229.759420 -283.076304 0 120 255
95.016240 -229.787579 -285.498103 0 120 255
95.522187 -229.815738 -287.919902 0 120 255
96.028133 -229.843897 -290.341701 0 120 255
96.685687 -229.876365 -292.722928 0 120 255
97.455262 -229.912016 -295.074177 0 120 255
98.224836 -229.947667 -297.425426 0 120 255
98.994410 -229.983318 -299.776674 0 120 255
99.901191 -230.019591 -302.074367 0 120 255
100.927671 -230.056408 -304.325338 0 120 255
101.954151 -230.093225 -306.576309 0 120 255
102.980630 -230.130042 -308.827280 0 120 255
104.128464 -230.163519 -311.014498 0 120 255
105.401002 -230.193563 -313.136202 0 120 255
106.673541 -230.223608 -315.257906 0 120 255
107.946079 -230.253652 -317.379611 0 120 255
109.323336 -230.277359 -319.430232 0 120 255
110.827375 -230.293395 -321.394791 0 120 255
112.331414 -230.309431 -323.359351 0 120 255
113.835452 -230.325466 -325.323911 0 120 255
115.427268 -230.333114 -327.213010 0 120 255
117.144588 -230.328767 -328.994211 0 120 255
118.861908 -230.324421 -330.775412 0 120 255
120.579229 -230.320075 -332.556614 0 120 255
122.367580 -230.305992 -334.260941 0 120 255
124.276492 -230.275384 -335.834791 0 120 255
126.185405 -230.244777 -337.408640 0 120 255
128.094317 -230.214169 -338.982490 0 120 255
130.058236 -230.173174 -340.480927 0 120 255
132.133877 -230.111080 -341.826194 0 120 255
134.209519 -230.048987 -343.171461 0 120 255
136.285160 -229.986894 -344.516729 0 120 255
138.401012 -229.914420 -345.790726 0 120 255
140.615761 -229.816414 -346.889437 0 120 255
142.830511 -229.718409 -347.988148 0 120 255
145.045260 -229.620404 -349.086859 0 120 255
147.287131 -229.512600 -350.120811 0 120 255
149.611163 -229.375112 -350.958580 0 120 255
151.935195 -229.237625 -351.796349 0 120 255
154.259228 -229.100137 -352.634119 0 120 255
156.599385 -228.953932 -353.415647 0 120 255
159.001231 -228.774381 -353.982028 0 120 255
161.403076 -228.594829 -354.548409 0 120 255
163.804921 -228.415278 -355.114790 0 120 255
166.214317 -228.228728 -355.635088 0 120 255
168.661592 -228.007077 -355.924231 0 120 255
171.108867 -227.785425 -356.213373 0 120 255
173.556141 -227.563774 -356.502516 0 120 255
176.003410 -227.340901 -356.790738 0 120 255
178.450638 -227.109462 -357.072512 0 120 255
180.897866 -226.878023 -357.354285 0 120 255
183.345095 -226.646584 -357.636059 0 120 255
185.792323 -226.415144 -357.917833 0 120 255
188.239548 -226.183694 -358.199619 0 120 255
190.686774 -225.952244 -358.481405 0 120 255
193.134000 -225.720794 -358.763191 0 120 255
195.581225 -225.489344 -359.044977 0 120 255
198.028452 -225.257898 -359.326755 0 120 255
200.475679 -225.026452 -359.608534 0 120 255
202.922906 -224.795006 -359.890312 0 120 255
205.370133 -224.563560 -360.172091 0 120 255
