ply
format ascii 1.0
element vertex 385
property float x
property float y
property float z
property uchar red
property uchar green
property uchar blue
end_header
77.430455 -42.474882 -360.397637 0 120 255
77.187556 -42.528711 -357.935963 0 120 255
76.944656 -42.582539 -355.474290 0 120 255
76.701756 -42.636368 -353.012616 0 120 255
76.458856 -42.690197 -350.550943 0 120 255
76.221829 -42.766823 -348.089306 0 120 255
75.985056 -42.844441 -345.627671 0 120 255
75.748284 -42.922060 -343.166035 0 120 255
75.511511 -42.999678 -340.704400 0 120 255
75.355754 -42.970365 -338.235605 0 120 255
75.207464 -42.931195 -335.766149 0 120 255
75.059174 -42.892026 -333.296694 0 120 255
74.910883 -42.852857 -330.827239 0 120 255
74.821353 -42.681572 -328.361199 0 120 255
74.740329 -42.491160 -325.895654 0 120 255
74.659305 -42.300748 -323.430109 0 120 255
74.578281 -42.110337 -320.964564 0 120 255
74.539245 -41.786449 -318.512765 0 120 255
74.508680 -41.435632 -316.063739 0 120 255
74.478115 -41.084815 -313.614713 0 120 255
74.447550 -40.733998 -311.165687 0 120 255
74.442226 -40.250528 -308.740196 0 120 255
74.443558 -39.732080 -306.320910 0 120 255
74.444889 -39.213632 -303.901625 0 120 255
74.446220 -38.695183 -301.482339 0 120 255
74.456419 -38.047164 -299.095759 0 120 255
74.469553 -37.356240 -296.720010 0 120 255
74.482687 -36.665316 -294.344260 0 120 255
74.495822 -35.974392 -291.968511 0 120 255
74.502192 -35.159243 -289.633929 0 120 255
74.505824 -34.293795 -287.316016 0 120 255
74.509455 -33.428348 -284.998103 0 120 255
74.513087 -32.562900 -282.680190 0 120 255
74.495406 -31.580776 -280.411079 0 120 255
74.467370 -30.541958 -278.165683 0 120 255
74.439334 -29.503140 -275.920287 0 120 255
74.411298 -28.464322 -273.674890 0 120 255
74.348854 -27.318444 -271.484969 0 120 255
74.266616 -26.110981 -269.326960 0 120 255
74.184379 -24.903517 -267.168951 0 120 255
74.102141 -23.696054 -265.010942 0 120 255
73.974144 -22.392978 -262.913980 0 120 255
73.815287 -21.025418 -260.858188 0 120 255
73.656430 -19.657859 -258.802396 0 120 255
73.497572 -18.290299 -256.746604 0 120 255
73.283637 -16.840097 -254.756182 0 120 255
73.026454 -15.325002 -252.817091 0 120 255
72.769271 -13.809907 -250.877999 0 120 255
72.512087 -12.294812 -248.938907 0 120 255
72.192751 -10.711171 -247.068131 0 120 255
71.816855 -9.065151 -245.259526 0 120 255
71.440959 -7.419131 -243.450920 0 120 255
71.065063 -5.773110 -241.642315 0 120 255
70.622339 -4.073298 -239.903493 0 120 255
70.109314 -2.316895 -238.238083 0 120 255
69.596288 -0.560493 -236.572674 0 120 255
69.083263 1.195910 -234.907264 0 120 255
68.501183 2.991208 -233.311557 0 120 255
67.835182 4.833776 -231.800557 0 120 255
67.169182 6.676344 -230.289556 0 120 255
66.503181 8.518911 -228.778556 0 120 255
65.768321 10.385897 -227.335620 0 120 255
64.936668 12.287208 -225.988362 0 120 255
64.105014 14.188518 -224.641104 0 120 255
63.273360 16.089828 -223.293845 0 120 255
62.375312 18.002050 -222.011507 0 120 255
61.368956 19.932070 -220.835069 0 120 255
60.362601 21.862090 -219.658632 0 120 255
59.356245 23.792110 -218.482195 0 120 255
58.287991 25.721040 -217.366149 0 120 255
57.101900 27.647892 -216.365068 0 120 255
55.915809 29.574744 -215.363988 0 120 255
54.729718 31.501597 -214.362908 0 120 255
53.487916 33.417326 -213.416482 0 120 255
52.121302 35.308134 -212.592501 0 120 255
50.754687 37.198941 -211.768519 0 120 255
49.388073 39.089749 -210.944538 0 120 255
47.973205 40.961749 -210.168520 0 120 255
46.429579 42.783562 -209.520485 0 120 255
44.885954 44.605376 -208.872449 0 120 255
43.342328 46.427189 -208.224414 0 120 255
41.758704 48.225121 -207.616990 0 120 255
40.045791 49.945860 -207.140838 0 120 255
38.332879 51.666599 -206.664685 0 120 255
36.619966 53.387338 -206.188533 0 120 255
34.875599 55.081857 -205.745309 0 120 255
33.005054 56.671195 -205.434182 0 120 255
31.134509 58.260533 -205.123055 0 120 255
29.263964 59.849871 -204.811927 0 120 255
27.370298 61.413375 -204.526056 0 120 255
25.357314 62.843562 -204.370514 0 120 255
23.344330 64.273750 -204.214972 0 120 255
21.331346 65.703937 -204.059430 0 120 255
19.302884 67.111246 -203.921813 0 120 255
17.165651 68.357775 -203.910160 0 120 255
15.028418 69.604303 -203.898507 0 120 255
12.891185 70.850832 -203.886854 0 120 255
10.745013 72.079735 -203.886440 0 120 255
8.504122 73.121877 -204.005107 0 120 255
6.263231 74.164018 -204.123774 0 120 255
4.022339 75.206160 -204.242442 0 120 255
1.777601 76.237848 -204.366564 0 120 255
-0.544613 77.059004 -204.600562 0 120 255
-2.866828 77.880160 -204.834560 0 120 255
-5.189043 78.701316 -205.068558 0 120 255
-7.511707 79.520665 -205.303325 0 120 255
-9.891832 80.108535 -205.636711 0 120 255
-12.271957 80.696406 -205.970096 0 120 255
-14.652082 81.284277 -206.303481 0 120 255
-17.032208 81.872148 -206.636866 0 120 255
-19.445285 82.226559 -207.050515 0 120 255
-21.859467 82.573147 -207.466852 0 120 255
-24.273649 82.919736 -207.883189 0 120 255
-26.687830 83.266325 -208.299527 0 120 255
-29.111595 83.385749 -208.777497 0 120 255
-31.536116 83.487234 -209.260333 0 120 255
-33.960638 83.588720 -209.743170 0 120 255
-36.385159 83.690205 -210.226006 0 120 255
-38.798414 83.574728 -210.753489 0 120 255
-41.210211 83.431190 -211.286746 0 120 255
-43.622009 83.287653 -211.820004 0 120 255
-46.033807 83.144115 -212.353261 0 120 255
-48.416326 82.796941 -212.916109 0 120 255
-50.793416 82.412014 -213.484443 0 120 255
-53.170507 82.027087 -214.052778 0 120 255
-55.547598 81.642160 -214.621112 0 120 255
-57.880403 81.069237 -215.206084 0 120 255
-60.202221 80.449675 -215.795184 0 120 255
-62.524039 79.830114 -216.384284 0 120 255
-64.845857 79.210552 -216.973383 0 120 255
-67.111418 78.420194 -217.568355 0 120 255
-69.359056 77.575425 -218.165197 0 120 255
-71.606694 76.730656 -218.762039 0 120 255
-73.854333 75.885887 -219.358881 0 120 255
-76.036707 74.888368 -219.952970 0 120 255
-78.193088 73.830012 -220.545962 0 120 255
-80.349468 72.771655 -221.138953 0 120 255
-82.505848 71.713299 -221.731945 0 120 255
-84.590759 70.520479 -222.315623 0 120 255
-86.640715 69.261897 -222.894745 0 120 255
-88.690672 68.003314 -223.473868 0 120 255
-90.740628 66.744732 -224.052991 0 120 255
-92.715485 65.369680 -224.618141 0 120 255
-94.645789 63.925531 -225.175002 0 120 255
-96.576093 62.481382 -225.731864 0 120 255
-98.506397 61.037233 -226.288725 0 120 255
-100.360288 59.493892 -226.828656 0 120 255
-102.159626 57.879737 -227.356501 0 120 255
-103.958964 56.265582 -227.884347 0 120 255
-105.758302 54.651427 -228.412192 0 120 255
-107.481936 52.954306 -228.921623 0 120 255
-109.140835 51.186238 -229.415309 0 120 255
-110.799734 49.418171 -229.908995 0 120 255
-112.458633 47.650103 -230.402680 0 120 255
-114.044275 45.814008 -230.877711 0 120 255
-115.555015 43.908358 -231.333667 0 120 255
-117.065756 42.002709 -231.789624 0 120 255
-118.576496 40.097059 -232.245580 0 120 255
-120.017868 38.136864 -232.683637 0 120 255
-121.374357 36.109923 -233.099791 0 120 255
-122.730846 34.082983 -233.515944 0 120 255
-124.087335 32.056042 -233.932098 0 120 255
-125.379521 29.986491 -234.331853 0 120 255
-126.577177 27.854299 -234.707502 0 120 255
-127.774832 25.722107 -235.083151 0 120 255
-128.972488 23.589915 -235.458800 0 120 255
-130.111824 21.425462 -235.820083 0 120 255
-131.147437 19.203633 -236.155818 0 120 255
-132.183050 16.981805 -236.491552 0 120 255
-133.218663 14.759976 -236.827286 0 120 255
-134.202631 12.514662 -237.150998 0 120 255
-135.074243 10.218255 -237.448554 0 120 255
-135.945856 7.921848 -237.746109 0 120 255
-136.817469 5.625441 -238.043665 0 120 255
-137.644589 3.312792 -238.331669 0 120 255
-138.351348 0.956206 -238.593832 0 120 255
-139.058107 -1.400379 -238.855994 0 120 255
-139.764866 -3.756965 -239.118157 0 120 255
-140.434590 -6.124006 -239.373190 0 120 255
-140.976655 -8.527085 -239.603647 0 120 255
-141.518720 -10.930164 -239.834105 0 120 255
-142.060784 -13.333243 -240.064563 0 120 255
-142.573415 -15.742360 -240.290120 0 120 255
-142.951832 -18.179005 -240.493334 0 120 255
-143.330250 -20.615649 -240.696547 0 120 255
-143.708668 -23.052294 -240.899761 0 120 255
-144.065258 -25.491827 -241.099990 0 120 255
-144.281870 -27.949879 -241.281075 0 120 255
-144.498483 -30.407932 -241.462160 0 120 255
-144.715095 -32.865984 -241.643245 0 120 255
-144.917374 -35.324938 -241.822846 0 120 255
-144.974706 -37.793005 -241.987437 0 120 255
-145.032039 -40.261072 -242.152028 0 120 255
-145.089371 -42.729140 -242.316619 0 120 255
-145.139654 -45.197179 -242.480738 0 120 255
-145.040877 -47.664610 -242.634878 0 120 255
-144.942100 -50.132041 -242.789018 0 120 255
-144.843322 -52.599473 -242.943158 0 120 255
-144.744484 -55.066900 -243.097296 0 120 255
-144.493326 -57.523757 -243.247317 0 120 255
-144.242168 -59.980615 -243.397337 0 120 255
-143.991010 -62.437472 -243.547358 0 120 255
-143.739852 -64.894329 -243.697378 0 120 255
-143.347058 -67.332220 -243.849651 0 120 255
-142.947707 -69.769234 -244.002027 0 120 255
-142.548355 -72.206247 -244.154404 0 120 255
-142.149004 -74.643260 -244.306780 0 120 255
-141.618861 -77.054315 -244.467282 0 120 255
-141.075973 -79.462839 -244.628575 0 120 255
-140.533085 -81.871364 -244.789869 0 120 255
-139.990197 -84.279889 -244.951162 0 120 255
-139.327247 -86.656721 -245.125807 0 120 255
-138.645846 -89.028683 -245.302505 0 120 255
-137.964445 -91.400646 -245.479202 0 120 255
-137.283043 -93.772608 -245.655899 0 120 255
-136.492144 -96.108292 -245.850451 0 120 255
-135.677613 -98.436147 -246.048857 0 120 255
-134.863081 -100.764002 -246.247263 0 120 255
-134.048550 -103.091856 -246.445668 0 120 255
-133.134826 -105.379878 -246.665695 0 120 255
-132.192851 -107.656555 -246.891880 0 120 255
-131.250876 -109.933232 -247.118064 0 120 255
-130.308901 -112.209909 -247.344249 0 120 255
-129.277716 -114.444133 -247.595018 0 120 255
-128.214253 -116.662996 -247.854681 0 120 255
-127.150789 -118.881859 -248.114345 0 120 255
-126.087325 -121.100722 -248.374009 0 120 255
-124.944252 -123.275363 -248.660396 0 120 255
-123.765482 -125.430174 -248.958765 0 120 255
-122.586712 -127.584985 -249.257135 0 120 255
-121.407942 -129.739796 -249.555504 0 120 255
-120.158737 -131.849393 -249.881945 0 120 255
-118.871050 -133.934287 -250.223722 0 120 255
-117.583362 -136.019181 -250.565499 0 120 255
-116.295675 -138.104076 -250.907276 0 120 255
-114.946238 -140.143472 -251.277687 0 120 255
-113.556164 -142.152927 -251.666942 0 120 255
-112.166090 -144.162382 -252.056198 0 120 255
-110.776016 -146.171836 -252.445453 0 120 255
-109.332370 -148.136178 -252.863166 0 120 255
-107.846575 -150.065027 -253.303270 0 120 255
-106.360779 -151.993875 -253.743373 0 120 255
-104.874984 -153.922723 -254.183476 0 120 255
-103.343233 -155.807459 -254.651164 0 120 255
-101.768441 -157.650879 -255.144687 0 120 255
-100.193649 -159.494299 -255.638210 0 120 255
-98.618856 -161.337719 -256.131733 0 120 255
-97.005147 -163.138607 -256.651370 0 120 255
-95.348115 -164.892146 -257.200077 0 120 255
-93.691083 -166.645685 -257.748785 0 120 255
-92.034051 -168.399224 -258.297492 0 120 255
-90.344534 -170.112350 -258.870321 0 120 255
-88.611986 -171.771945 -259.475100 0 120 255
-86.879439 -173.431541 -260.079879 0 120 255
-85.146892 -175.091136 -260.684658 0 120 255
-83.387674 -176.712947 -261.311142 0 120 255
-81.586257 -178.274978 -261.971968 0 120 255
-79.784839 -179.837008 -262.632794 0 120 255
-77.983422 -181.399038 -263.293621 0 120 255
-76.160523 -182.926381 -263.973433 0 120 255
-74.296745 -184.387713 -264.689374 0 120 255
-72.432966 -185.849046 -265.405315 0 120 255
-70.569188 -187.310378 -266.121256 0 120 255
-68.688493 -188.740546 -266.853263 0 120 255
-66.768658 -190.098606 -267.622444 0 120 255
-64.848823 -191.456666 -268.391625 0 120 255
-62.928987 -192.814727 -269.160805 0 120 255
-60.996190 -194.145514 -269.943069 0 120 255
-59.026338 -195.398340 -270.762732 0 120 255
-57.056487 -196.651165 -271.582395 0 120 255
-55.086635 -197.903991 -272.402057 0 120 255
-53.107187 -199.133749 -273.231866 0 120 255
-51.093028 -200.280078 -274.098369 0 120 255
-49.078869 -201.426408 -274.964872 0 120 255
-47.064711 -202.572737 -275.831375 0 120 255
-45.043766 -203.700440 -276.705263 0 120 255
-42.990628 -204.739780 -277.614180 0 120 255
-40.937490 -205.779120 -278.523098 0 120 255
-38.884352 -206.818460 -279.432016 0 120 255
-36.826726 -207.843764 -280.345836 0 120 255
-34.739485 -208.776467 -281.292000 0 120 255
-32.652245 -209.709170 -282.238165 0 120 255
-30.565005 -210.641873 -283.184329 0 120 255
-28.475115 -211.565181 -284.133300 0 120 255
-26.358164 -212.392513 -285.110935 0 120 255
-24.241212 -213.219846 -286.088570 0 120 255
-22.124260 -214.047178 -287.066205 0 120 255
-20.006101 -214.869694 -288.045017 0 120 255
-17.863292 -215.593899 -289.047828 0 120 255
-15.720483 -216.318105 -290.050640 0 120 255
-13.577675 -217.042310 -291.053451 0 120 255
-11.434771 -217.766094 -292.056341 0 120 255
-9.269398 -218.390435 -293.077661 0 120 255
-7.104026 -219.014775 -294.098981 0 120 255
-4.938653 -219.639116 -295.120301 0 120 255
-2.773281 -220.263456 -296.141621 0 120 255
-0.588837 -220.795923 -297.174124 0 120 255
1.596367 -221.324729 -298.207073 0 120 255
3.781571 -221.853535 -299.240022 0 120 255
5.966774 -222.382341 -300.272970 0 120 255
8.168218 -222.828298 -301.310213 0 120 255
10.371092 -223.266962 -302.347833 0 120 255
12.573965 -223.705626 -303.385454 0 120 255
14.776839 -224.144291 -304.423074 0 120 255
16.993782 -224.509633 -305.458756 0 120 255
19.212708 -224.864640 -306.494165 0 120 255
21.431634 -225.219646 -307.529573 0 120 255
23.650560 -225.574653 -308.564982 0 120 255
25.881943 -225.866176 -309.593005 0 120 255
28.115811 -226.145038 -310.619555 0 120 255
30.349678 -226.423901 -311.646105 0 120 255
32.583546 -226.702763 -312.672656 0 120 255
34.828684 -226.928156 -313.687279 0 120 255
37.076801 -227.139415 -314.698749 0 120 255
39.324919 -227.350674 -315.710219 0 120 255
41.573036 -227.561933 -316.721689 0 120 255
43.831577 -227.729695 -317.717595 0 120 255
46.093629 -227.882807 -318.708258 0 120 255
48.355681 -228.035918 -319.698920 0 120 255
50.617732 -228.189029 -320.689583 0 120 255
52.888782 -228.312716 -321.663367 0 120 255
55.163596 -228.424093 -322.630089 0 120 255
57.438409 -228.535471 -323.596811 0 120 255
59.713223 -228.646848 -324.563534 0 120 255
61.996037 -228.741019 -325.512894 0 120 255
64.282943 -228.826394 -326.453378 0 120 255
66.569848 -228.911769 -327.393862 0 120 255
68.856753 -228.997143 -328.334346 0 120 255
71.150909 -229.075298 -329.257506 0 120 255
73.449543 -229.148994 -330.169965 0 120 255
75.748178 -229.222689 -331.082425 0 120 255
78.046813 -229.296385 -331.994884 0 120 255
80.354233 -229.368902 -332.884744 0 120 255
82.668163 -229.440545 -333.757859 0 120 255
84.982092 -229.512189 -334.630974 0 120 255
87.296022 -229.583832 -335.504089 0 120 255
89.619878 -229.646875 -336.350655 0 120 255
91.952545 -229.702285 -337.173655 0 120 255
94.285212 -229.757695 -337.996655 0 120 255
96.617879 -229.813104 -338.819656 0 120 255
98.959437 -229.854587 -339.617240 0 120 255
101.310464 -229.881237 -340.387755 0 120 255
103.661492 -229.907887 -341.158269 0 120 255
106.012519 -229.934536 -341.928784 0 120 255
108.371502 -229.948190 -342.674200 0 120 255
110.740659 -229.945223 -343.387519 0 120 255
113.109815 -229.942257 -344.100837 0 120 255
115.478971 -229.939290 -344.814156 0 120 255
117.855023 -229.924688 -345.503145 0 120 255
120.241702 -229.892154 -346.154633 0 120 255
122.628381 -229.859619 -346.806122 0 120 255
125.015061 -229.827085 -347.457611 0 120 255
127.407491 -229.784421 -348.086056 0 120 255
129.810684 -229.722803 -348.671376 0 120 255
132.213877 -229.661184 -349.256696 0 120 255
134.617071 -229.599566 -349.842016 0 120 255
137.024847 -229.529409 -350.406082 0 120 255
139.443162 -229.439622 -350.921275 0 120 255
141.861477 -229.349834 -351.436469 0 120 255
144.279792 -229.260047 -351.951663 0 120 255
146.701564 -229.163331 -352.447837 0 120 255
149.133278 -229.046686 -352.889306 0 120 255
151.564992 -228.930042 -353.330775 0 120 255
153.996706 -228.813397 -353.772244 0 120 255
156.430842 -228.691400 -354.197348 0 120 255
158.873932 -228.549617 -354.561965 0 120 255
161.317021 -228.407834 -354.926581 0 120 255
163.760111 -228.266051 -355.291197 0 120 255
166.204351 -228.115750 -355.642807 0 120 255
168.654293 -227.923246 -355.929969 0 120 255
171.104234 -227.730742 -356.217131 0 120 255
173.554176 -227.538238 -356.504293 0 120 255
176.003775 -227.340866 -356.790780 0 120 255
178.450973 -227.109430 -357.072550 0 120 255
180.898170 -226.877994 -357.354320 0 120 255
183.345368 -226.646558 -357.636090 0 120 255
185.792566 -226.415121 -357.917861 0 120 255
188.239761 -226.183674 -358.199644 0 120 255
190.686956 -225.952227 -358.481426 0 120 255
193.134152 -225.720780 -358.763209 0 120 255
195.581347 -225.489333 -359.044991 0 120 255
198.028544 -225.257890 -359.326766 0 120 255
200.475740 -225.026446 -359.608541 0 120 255
202.922937 -224.795003 -359.890316 0 120 255
205.370133 -224.563560 -360.172091 0 120 255
