ply
format ascii 1.0
element vertex 385
property float x
property float y
property float z
property uchar red
property uchar green
property uchar blue
end_header
77.430455 -42.474882 -360.397637 0 120 255
77.187561 -42.528709 -357.936014 0 120 255
76.944666 -42.582537 -355.474392 0 120 255
76.701771 -42.636365 -353.012769 0 120 255
76.458877 -42.690193 -350.551147 0 120 255
76.218688 -42.753394 -348.089483 0 120 255
75.978617 -42.817004 -345.627817 0 120 255
75.738546 -42.880614 -343.166151 0 120 255
75.498475 -42.944225 -340.704485 0 120 255
75.479072 -43.482599 -338.294894 0 120 255
75.479703 -44.064077 -335.890032 0 120 255
75.480335 -44.645555 -333.485170 0 120 255
75.480966 -45.227034 -331.080307 0 120 255
75.670444 -46.179515 -328.810927 0 120 255
75.887778 -47.186722 -326.561532 0 120 255
76.105112 -48.193929 -324.312136 0 120 255
76.322445 -49.201136 -322.062740 0 120 255
76.696077 -50.487935 -319.989615 0 120 255
77.102659 -51.833678 -317.953652 0 120 255
77.509242 -53.179422 -315.917689 0 120 255
77.915824 -54.525165 -313.881726 0 120 255
78.448422 -56.072201 -312.032731 0 120 255
79.016493 -57.675901 -310.236368 0 120 255
79.584564 -59.279601 -308.440004 0 120 255
80.152635 -60.883301 -306.643641 0 120 255
80.821067 -62.625861 -305.026227 0 120 255
81.525698 -64.418504 -303.473357 0 120 255
82.230328 -66.211148 -301.920488 0 120 255
82.934959 -68.003792 -300.367618 0 120 255
83.719474 -69.887913 -298.975557 0 120 255
84.539926 -71.813186 -297.655836 0 120 255
85.360377 -73.738459 -296.336115 0 120 255
86.180829 -75.663733 -295.016395 0 120 255
87.065439 -77.645809 -293.834983 0 120 255
87.985399 -79.659183 -292.729778 0 120 255
88.905359 -81.672557 -291.624572 0 120 255
89.825319 -83.685931 -290.519367 0 120 255
90.797633 -85.731456 -289.529122 0 120 255
91.804848 -87.798415 -288.615515 0 120 255
92.812063 -89.865374 -287.701908 0 120 255
93.819278 -91.932333 -286.788300 0 120 255
94.870094 -94.014354 -285.967399 0 120 255
95.955798 -96.108426 -285.220682 0 120 255
97.041503 -98.202498 -284.473965 0 120 255
98.127207 -100.296571 -283.727248 0 120 255
99.249997 -102.394169 -283.053045 0 120 255
100.408249 -104.495138 -282.448181 0 120 255
101.566501 -106.596108 -281.843316 0 120 255
102.724753 -108.697077 -281.238452 0 120 255
103.915139 -110.794031 -280.688334 0 120 255
105.142187 -112.886404 -280.200680 0 120 255
106.369235 -114.978777 -279.713025 0 120 255
107.596284 -117.071150 -279.225370 0 120 255
108.851544 -119.154803 -278.777168 0 120 255
110.145258 -121.226569 -278.382746 0 120 255
111.438972 -123.298335 -277.988323 0 120 255
112.732686 -125.370101 -277.593901 0 120 255
114.051302 -127.430445 -277.226020 0 120 255
115.410645 -129.472107 -276.901546 0 120 255
116.769988 -131.513769 -276.577072 0 120 255
118.129330 -133.555431 -276.252598 0 120 255
119.510585 -135.584374 -275.943991 0 120 255
120.935159 -137.588173 -275.666753 0 120 255
122.359733 -139.591971 -275.389515 0 120 255
123.784307 -141.595769 -275.112277 0 120 255
125.227896 -143.586559 -274.842323 0 120 255
126.717470 -145.545889 -274.589982 0 120 255
128.207043 -147.505220 -274.337642 0 120 255
129.696617 -149.464550 -274.085301 0 120 255
131.202278 -151.411311 -273.833650 0 120 255
132.756369 -153.320236 -273.584076 0 120 255
134.310460 -155.229161 -273.334502 0 120 255
135.864551 -157.138086 -273.084928 0 120 255
137.431705 -159.035448 -272.831363 0 120 255
139.049093 -160.888343 -272.562453 0 120 255
140.666482 -162.741239 -272.293543 0 120 255
142.283870 -164.594135 -272.024633 0 120 255
143.911217 -166.436945 -271.748935 0 120 255
145.589489 -168.228182 -271.438526 0 120 255
147.267760 -170.019420 -271.128118 0 120 255
148.946032 -171.810657 -270.817709 0 120 255
150.631166 -173.593729 -270.499590 0 120 255
152.366177 -175.317451 -270.125430 0 120 255
154.101189 -177.041174 -269.751271 0 120 255
155.836201 -178.764896 -269.377111 0 120 255
157.575165 -180.482826 -268.996205 0 120 255
159.360521 -182.132767 -268.536119 0 120 255
161.145877 -183.782708 -268.076033 0 120 255
162.931232 -185.432649 -267.615947 0 120 255
164.718081 -187.079666 -267.151947 0 120 255
166.544565 -188.649035 -266.584040 0 120 255
168.371049 -190.218403 -266.016133 0 120 255
170.197534 -191.787771 -265.448226 0 120 255
172.024018 -193.357139 -264.880319 0 120 255
173.878875 -194.839104 -264.184170 0 120 255
175.733895 -196.320564 -263.487281 0 120 255
177.588916 -197.802025 -262.790392 0 120 255
179.443936 -199.283486 -262.093504 0 120 255
181.310484 -200.673753 -261.254926 0 120 255
183.177607 -202.059468 -260.409276 0 120 255
185.044730 -203.445184 -259.563626 0 120 255
186.911853 -204.830899 -258.717976 0 120 255
188.771170 -206.121992 -257.720795 0 120 255
190.629724 -207.403825 -256.708785 0 120 255
192.488277 -208.685658 -255.696775 0 120 255
194.346830 -209.967492 -254.684765 0 120 255
196.176129 -211.151904 -253.515557 0 120 255
198.001038 -212.321692 -252.322751 0 120 255
199.825946 -213.491479 -251.129945 0 120 255
201.650854 -214.661267 -249.937139 0 120 255
203.423573 -215.731840 -248.586200 0 120 255
205.185471 -216.781844 -247.202479 0 120 255
206.947370 -217.831848 -245.818757 0 120 255
208.709269 -218.881852 -244.435036 0 120 255
210.395389 -219.832260 -242.897322 0 120 255
212.061034 -220.755759 -241.318001 0 120 255
213.726680 -221.679259 -239.738680 0 120 255
215.392326 -222.602758 -238.159360 0 120 255
216.959121 -223.428075 -236.435471 0 120 255
218.492339 -224.220044 -234.662477 0 120 255
220.025558 -225.012013 -232.889484 0 120 255
221.558776 -225.803982 -231.116490 0 120 255
222.971823 -226.501288 -229.213405 0 120 255
224.334780 -227.159136 -227.256094 0 120 255
225.697736 -227.816984 -225.298783 0 120 255
227.060692 -228.474832 -223.341472 0 120 255
228.285268 -229.043865 -221.273072 0 120 255
229.440212 -229.568207 -219.148772 0 120 255
230.595156 -230.092549 -217.024472 0 120 255
231.750100 -230.616891 -214.900172 0 120 255
232.752797 -231.060593 -212.687329 0 120 255
233.664065 -231.455869 -210.421313 0 120 255
234.575333 -231.851144 -208.155297 0 120 255
235.486601 -232.246419 -205.889281 0 120 255
236.237091 -232.571405 -203.559508 0 120 255
236.873242 -232.846404 -201.184394 0 120 255
237.509393 -233.121403 -198.809280 0 120 255
238.145545 -233.396402 -196.434166 0 120 255
238.618296 -233.613182 -194.020756 0 120 255
238.954099 -233.781168 -191.575251 0 120 255
239.289901 -233.949154 -189.129745 0 120 255
239.625704 -234.117140 -186.684239 0 120 255
239.801517 -234.240149 -184.224965 0 120 255
239.819660 -234.318835 -181.752120 0 120 255
239.837802 -234.397521 -179.279276 0 120 255
239.855944 -234.476206 -176.806431 0 120 255
239.723100 -234.523651 -174.341892 0 120 255
239.415299 -234.534895 -171.886976 0 120 255
239.107498 -234.546139 -169.432060 0 120 255
238.799697 -234.557383 -166.977144 0 120 255
238.354461 -234.551828 -164.548964 0 120 255
237.721558 -234.523332 -162.157290 0 120 255
237.088654 -234.494835 -159.765617 0 120 255
236.455751 -234.466339 -157.373943 0 120 255
235.702827 -234.432124 -155.022904 0 120 255
234.755742 -234.388655 -152.737599 0 120 255
233.808656 -234.345187 -150.452293 0 120 255
232.861570 -234.301718 -148.166988 0 120 255
231.814758 -234.254764 -145.931033 0 120 255
230.575122 -234.201070 -143.790495 0 120 255
229.335487 -234.147375 -141.649958 0 120 255
228.095851 -234.093681 -139.509420 0 120 255
226.777029 -234.037434 -137.421891 0 120 255
225.273053 -233.975218 -135.458306 0 120 255
223.769078 -233.913003 -133.494721 0 120 255
222.265102 -233.850787 -131.531136 0 120 255
220.701100 -233.786620 -129.619847 0 120 255
218.964498 -233.716843 -127.858931 0 120 255
217.227896 -233.647065 -126.098016 0 120 255
215.491294 -233.577288 -124.337100 0 120 255
213.711618 -233.506125 -122.624178 0 120 255
211.775957 -233.429943 -121.085056 0 120 255
209.840296 -233.353762 -119.545935 0 120 255
207.904636 -233.277580 -118.006814 0 120 255
205.940191 -233.200502 -116.508592 0 120 255
203.839686 -233.119188 -115.203699 0 120 255
201.739180 -233.037873 -113.898806 0 120 255
199.638675 -232.956558 -112.593913 0 120 255
197.520716 -232.874726 -111.320976 0 120 255
195.288716 -232.789513 -110.256836 0 120 255
193.056716 -232.704301 -109.192695 0 120 255
190.824716 -232.619089 -108.128555 0 120 255
188.583650 -232.533626 -107.086372 0 120 255
186.251763 -232.445654 -106.264151 0 120 255
183.919877 -232.357681 -105.441930 0 120 255
181.587991 -232.269709 -104.619710 0 120 255
179.252653 -232.181655 -103.809124 0 120 255
176.849893 -232.091994 -103.225871 0 120 255
174.447133 -232.002334 -102.642617 0 120 255
172.044373 -231.912674 -102.059364 0 120 255
169.641318 -231.823009 -101.477641 0 120 255
167.193742 -231.732559 -101.127398 0 120 255
164.746166 -231.642109 -100.777155 0 120 255
162.298590 -231.551659 -100.426912 0 120 255
159.851014 -231.461208 -100.076669 0 120 255
157.382463 -231.370781 -99.943228 0 120 255
154.913137 -231.280355 -99.817794 0 120 255
152.443811 -231.189929 -99.692359 0 120 255
149.974486 -231.099502 -99.566924 0 120 255
147.503710 -231.009774 -99.640172 0 120 255
145.032812 -230.920106 -99.730187 0 120 255
142.561914 -230.830437 -99.820203 0 120 255
140.091016 -230.740768 -99.910218 0 120 255
137.634233 -230.652282 -100.181099 0 120 255
135.179376 -230.563957 -100.476657 0 120 255
132.724519 -230.475632 -100.772216 0 120 255
130.269661 -230.387307 -101.067774 0 120 255
127.841154 -230.300544 -101.527095 0 120 255
125.417753 -230.214084 -102.018146 0 120 255
122.994352 -230.127624 -102.509197 0 120 255
120.570951 -230.041164 -103.000248 0 120 255
118.183410 -229.956547 -103.639017 0 120 255
115.805090 -229.872404 -104.315770 0 120 255
113.426770 -229.788262 -104.992523 0 120 255
111.048450 -229.704119 -105.669276 0 120 255
108.713298 -229.622045 -106.478854 0 120 255
106.392290 -229.540649 -107.331952 0 120 255
104.071282 -229.459254 -108.185050 0 120 255
101.750274 -229.377858 -109.038148 0 120 255
99.477997 -229.298685 -110.010379 0 120 255
97.225528 -229.220416 -111.031034 0 120 255
94.973059 -229.142148 -112.051690 0 120 255
92.720590 -229.063879 -113.072345 0 120 255
90.521028 -228.987926 -114.199567 0 120 255
88.347668 -228.913120 -115.379562 0 120 255
86.174307 -228.838315 -116.559557 0 120 255
84.000947 -228.763509 -117.739552 0 120 255
81.883585 -228.691097 -119.014605 0 120 255
79.799592 -228.620111 -120.346301 0 120 255
77.715600 -228.549125 -121.677998 0 120 255
75.631607 -228.478139 -123.009694 0 120 255
73.605823 -228.409584 -124.425850 0 120 255
71.621426 -228.342756 -125.902055 0 120 255
69.637029 -228.275929 -127.378261 0 120 255
67.652632 -228.209101 -128.854466 0 120 255
65.727898 -228.144729 -130.405281 0 120 255
63.853508 -228.082428 -132.019054 0 120 255
61.979119 -228.020127 -133.632827 0 120 255
60.104730 -227.957826 -135.246600 0 120 255
58.290756 -227.897966 -136.925730 0 120 255
56.537131 -227.840543 -138.670145 0 120 255
54.783505 -227.783121 -140.414559 0 120 255
53.029880 -227.725698 -142.158973 0 120 255
51.336713 -227.670687 -143.959953 0 120 255
49.715019 -227.618526 -145.827804 0 120 255
48.093326 -227.566365 -147.695656 0 120 255
46.471632 -227.514205 -149.563507 0 120 255
44.909652 -227.464403 -151.479483 0 120 255
43.431402 -227.417910 -153.462938 0 120 255
41.953151 -227.371417 -155.446393 0 120 255
40.474901 -227.324923 -157.429849 0 120 255
39.054761 -227.280692 -159.453311 0 120 255
37.731726 -227.240240 -161.543627 0 120 255
36.408690 -227.199788 -163.633943 0 120 255
35.085655 -227.159336 -165.724259 0 120 255
33.818120 -227.121030 -167.846780 0 120 255
32.661977 -227.087030 -170.033937 0 120 255
31.505833 -227.053030 -172.221094 0 120 255
30.349689 -227.019031 -174.408251 0 120 255
29.245330 -226.987007 -176.620218 0 120 255
28.267278 -226.959802 -178.892695 0 120 255
27.289226 -226.932597 -181.165173 0 120 255
26.311174 -226.905392 -183.437650 0 120 255
25.380026 -226.879964 -185.728104 0 120 255
24.590301 -226.859889 -188.072760 0 120 255
23.800576 -226.839815 -190.417416 0 120 255
23.010852 -226.819741 -192.762072 0 120 255
22.262039 -226.801202 -195.118652 0 120 255
21.669586 -226.788534 -197.520801 0 120 255
21.077133 -226.775865 -199.922949 0 120 255
20.484680 -226.763196 -202.325098 0 120 255
19.926129 -226.751789 -204.734111 0 120 255
19.538210 -226.746730 -207.177668 0 120 255
19.150290 -226.741672 -209.621226 0 120 255
18.762371 -226.736613 -212.064783 0 120 255
18.400517 -226.732516 -214.511345 0 120 255
18.222518 -226.735197 -216.979094 0 120 255
18.044519 -226.737877 -219.446844 0 120 255
17.866520 -226.740558 -221.914594 0 120 255
17.706126 -226.743882 -224.382851 0 120 255
17.741236 -226.754347 -226.856743 0 120 255
17.776347 -226.764812 -229.330634 0 120 255
17.811458 -226.775277 -231.804525 0 120 255
17.855360 -226.786061 -234.277908 0 120 255
18.104600 -226.804279 -236.739417 0 120 255
18.353840 -226.822497 -239.200926 0 120 255
18.603080 -226.840715 -241.662436 0 120 255
18.852320 -226.858933 -244.123945 0 120 255
19.314312 -226.884789 -246.554450 0 120 255
19.776402 -226.910648 -248.984940 0 120 255
20.238491 -226.936506 -251.415431 0 120 255
20.700581 -226.962365 -253.845922 0 120 255
21.363343 -226.995368 -256.229044 0 120 255
22.034894 -227.028683 -258.610092 0 120 255
22.706444 -227.061998 -260.991140 0 120 255
23.377995 -227.095313 -263.372188 0 120 255
24.236527 -227.135213 -265.691515 0 120 255
25.112084 -227.175712 -268.005222 0 120 255
25.987641 -227.216211 -270.318929 0 120 255
26.863198 -227.256709 -272.632636 0 120 255
27.910814 -227.303197 -274.872460 0 120 255
28.982992 -227.350540 -277.101736 0 120 255
30.055170 -227.397882 -279.331012 0 120 255
31.127348 -227.445225 -281.560289 0 120 255
32.355669 -227.497959 -283.705902 0 120 255
33.615155 -227.551769 -285.834817 0 120 255
34.874641 -227.605579 -287.963732 0 120 255
36.134128 -227.659389 -290.092647 0 120 255
37.533162 -227.717929 -292.130655 0 120 255
38.968809 -227.777710 -294.144810 0 120 255
40.404456 -227.837490 -296.158966 0 120 255
41.840103 -227.897271 -298.173122 0 120 255
43.398418 -227.961178 -300.091720 0 120 255
44.997469 -228.026455 -301.978583 0 120 255
46.596521 -228.091733 -303.865446 0 120 255
48.195573 -228.157010 -305.752309 0 120 255
49.900498 -228.225782 -307.541576 0 120 255
51.648832 -228.295988 -309.290826 0 120 255
53.397167 -228.366194 -311.040077 0 120 255
55.145501 -228.436400 -312.789328 0 120 255
56.983372 -228.509506 -314.441503 0 120 255
58.865802 -228.584054 -316.045366 0 120 255
60.748233 -228.658603 -317.649229 0 120 255
62.630664 -228.733152 -319.253092 0 120 255
64.587193 -228.810108 -320.762718 0 120 255
66.587963 -228.888502 -322.216078 0 120 255
68.588733 -228.966896 -323.669438 0 120 255
70.589502 -229.045291 -325.122797 0 120 255
72.650178 -229.125566 -326.486770 0 120 255
74.753430 -229.207178 -327.787213 0 120 255
76.856681 -229.288791 -329.087656 0 120 255
78.959933 -229.370403 -330.388099 0 120 255
81.110212 -229.452395 -331.606077 0 120 255
83.300082 -229.534707 -332.754630 0 120 255
85.489952 -229.617019 -333.903182 0 120 255
87.679823 -229.699331 -335.051735 0 120 255
89.904969 -229.776173 -336.127743 0 120 255
92.165213 -229.847574 -337.131576 0 120 255
94.425456 -229.918975 -338.135409 0 120 255
96.685700 -229.990375 -339.139242 0 120 255
98.971588 -230.051495 -340.081070 0 120 255
101.287635 -230.100525 -340.949980 0 120 255
103.603681 -230.149555 -341.818891 0 120 255
105.919728 -230.198585 -342.687801 0 120 255
108.253836 -230.234907 -343.504921 0 120 255
110.613108 -230.253523 -344.249882 0 120 255
112.972381 -230.272140 -344.994843 0 120 255
115.331653 -230.290756 -345.739804 0 120 255
117.703114 -230.295680 -346.442759 0 120 255
120.094794 -230.277890 -347.076028 0 120 255
122.486474 -230.260100 -347.709298 0 120 255
124.878154 -230.242310 -348.342568 0 120 255
127.277620 -230.211008 -348.942916 0 120 255
129.692591 -230.152803 -349.477713 0 120 255
132.107562 -230.094598 -350.012510 0 120 255
134.522533 -230.036392 -350.547307 0 120 255
136.942122 -229.965751 -351.057379 0 120 255
139.372882 -229.865035 -351.507653 0 120 255
141.803641 -229.764318 -351.957927 0 120 255
144.234400 -229.663602 -352.408201 0 120 255
146.667618 -229.552186 -352.840904 0 120 255
149.108186 -229.408796 -353.221099 0 120 255
151.548754 -229.265405 -353.601294 0 120 255
153.989321 -229.122014 -353.981489 0 120 255
156.430981 -228.970055 -354.350133 0 120 255
158.876776 -228.785648 -354.675034 0 120 255
161.322571 -228.601241 -354.999936 0 120 255
163.768366 -228.416834 -355.324837 0 120 255
166.214445 -228.226306 -355.643411 0 120 255
168.661941 -228.005256 -355.930435 0 120 255
171.109436 -227.784207 -356.217460 0 120 255
173.556932 -227.563158 -356.504485 0 120 255
176.004384 -227.340808 -356.790850 0 120 255
178.451531 -227.109377 -357.072615 0 120 255
180.898678 -226.877946 -357.354379 0 120 255
183.345825 -226.646515 -357.636143 0 120 255
185.792972 -226.415083 -357.917908 0 120 255
188.240116 -226.183640 -358.199685 0 120 255
190.687261 -225.952198 -358.481461 0 120 255
193.134405 -225.720756 -358.763238 0 120 255
195.581550 -225.489313 -359.045014 0 120 255
198.028696 -225.257875 -359.326783 0 120 255
200.475842 -225.026437 -359.608553 0 120 255
202.922987 -224.794999 -359.890322 0 120 255
205.370133 -224.563560 -360.172091 0 120 255
