ply
format ascii 1.0
element vertex 385
property float x
property float y
property float z
property uchar red
property uchar green
property uchar blue
end_header
77.430455 -42.474882 -360.397637 0 120 255
77.187527 -42.528717 -357.935669 0 120 255
76.944598 -42.582552 -355.473701 0 120 255
76.701669 -42.636388 -353.011733 0 120 255
76.458740 -42.690223 -350.549765 0 120 255
76.223303 -42.753912 -348.087305 0 120 255
75.988188 -42.818025 -345.624825 0 120 255
75.753074 -42.882138 -343.162344 0 120 255
75.517959 -42.946250 -340.699864 0 120 255
75.250571 -43.067354 -338.242908 0 120 255
74.980182 -43.193756 -335.786465 0 120 255
74.709793 -43.320158 -333.330022 0 120 255
74.439404 -43.446560 -330.873579 0 120 255
74.130465 -43.615282 -328.424338 0 120 255
73.815673 -43.790430 -325.976190 0 120 255
73.500881 -43.965577 -323.528042 0 120 255
73.186088 -44.140725 -321.079894 0 120 255
72.833409 -44.353914 -318.640073 0 120 255
72.472497 -44.575370 -316.202062 0 120 255
72.111585 -44.796825 -313.764050 0 120 255
71.750673 -45.018281 -311.326039 0 120 255
71.352577 -45.273924 -308.897336 0 120 255
70.943674 -45.539502 -306.471338 0 120 255
70.534772 -45.805081 -304.045340 0 120 255
70.125869 -46.070659 -301.619342 0 120 255
69.680550 -46.366957 -299.203517 0 120 255
69.221641 -46.674718 -296.791488 0 120 255
68.762732 -46.982479 -294.379459 0 120 255
68.303824 -47.290240 -291.967429 0 120 255
67.809365 -47.625607 -289.566339 0 120 255
67.298311 -47.973859 -287.170354 0 120 255
66.787258 -48.322112 -284.774369 0 120 255
66.276204 -48.670365 -282.378384 0 120 255
65.730588 -49.043418 -279.994015 0 120 255
65.165137 -49.430704 -277.616311 0 120 255
64.599686 -49.817990 -275.238607 0 120 255
64.034236 -50.205276 -272.860904 0 120 255
63.435364 -50.614832 -270.495405 0 120 255
62.813181 -51.039922 -268.138418 0 120 255
62.190998 -51.465012 -265.781431 0 120 255
61.568816 -51.890101 -263.424444 0 120 255
60.914516 -52.335167 -261.080160 0 120 255
60.233182 -52.797048 -258.746569 0 120 255
59.551848 -53.258929 -256.412977 0 120 255
58.870514 -53.720810 -254.079386 0 120 255
58.158565 -54.200574 -251.758889 0 120 255
57.415625 -54.698441 -249.451646 0 120 255
56.672685 -55.196308 -247.144404 0 120 255
55.929744 -55.694176 -244.837162 0 120 255
55.157898 -56.208003 -242.543281 0 120 255
54.350877 -56.741253 -240.265659 0 120 255
53.543856 -57.274502 -237.988037 0 120 255
52.736835 -57.807752 -235.710415 0 120 255
51.902835 -58.355171 -233.446271 0 120 255
51.029266 -58.923375 -231.201896 0 120 255
50.155697 -59.491580 -228.957521 0 120 255
49.282128 -60.059784 -226.713146 0 120 255
48.383744 -60.640475 -224.482179 0 120 255
47.441221 -61.243380 -222.275065 0 120 255
46.498698 -61.846284 -220.067950 0 120 255
45.556175 -62.449188 -217.860835 0 120 255
44.591236 -63.062973 -215.666836 0 120 255
43.577445 -63.700468 -213.501420 0 120 255
42.563654 -64.337963 -211.336003 0 120 255
41.549864 -64.975457 -209.170587 0 120 255
40.516287 -65.622278 -207.017725 0 120 255
39.429059 -66.294386 -204.898903 0 120 255
38.341832 -66.966493 -202.780080 0 120 255
37.254605 -67.638601 -200.661258 0 120 255
36.150445 -68.318509 -198.554107 0 120 255
34.987819 -69.025352 -196.487256 0 120 255
33.825192 -69.732195 -194.420406 0 120 255
32.662566 -70.439037 -192.353555 0 120 255
31.486066 -71.152169 -190.297116 0 120 255
30.246341 -71.893959 -188.288130 0 120 255
29.006615 -72.635750 -186.279143 0 120 255
27.766890 -73.377541 -184.270157 0 120 255
26.516526 -74.124105 -182.269887 0 120 255
25.198336 -74.901098 -180.325187 0 120 255
23.880147 -75.678091 -178.380487 0 120 255
22.561957 -76.455084 -176.435788 0 120 255
21.236500 -77.235324 -174.497609 0 120 255
19.838898 -78.047795 -172.624163 0 120 255
18.441297 -78.860267 -170.750717 0 120 255
17.043695 -79.672739 -168.877272 0 120 255
15.642279 -80.486918 -167.007589 0 120 255
14.164823 -81.335130 -165.212914 0 120 255
12.687367 -82.183342 -163.418239 0 120 255
11.209910 -83.031554 -161.623564 0 120 255
9.732107 -83.879923 -159.829267 0 120 255
8.174945 -84.764069 -158.121422 0 120 255
6.617784 -85.648214 -156.413578 0 120 255
5.060623 -86.532360 -154.705733 0 120 255
3.503461 -87.416506 -152.997888 0 120 255
1.870505 -88.335289 -151.381760 0 120 255
0.234497 -89.255467 -149.769323 0 120 255
-1.401510 -90.175645 -148.156887 0 120 255
-3.037517 -91.095823 -146.544450 0 120 255
-4.744436 -92.049049 -145.027997 0 120 255
-6.457636 -93.005202 -143.520046 0 120 255
-8.170836 -93.961356 -142.012095 0 120 255
-9.884036 -94.917509 -140.504144 0 120 255
-11.662615 -95.904959 -139.096078 0 120 255
-13.450416 -96.896825 -137.702103 0 120 255
-15.238218 -97.888691 -136.308129 0 120 255
-17.026020 -98.880557 -134.914154 0 120 255
-18.873065 -99.901789 -133.623524 0 120 255
-20.731857 -100.928844 -132.353387 0 120 255
-22.590650 -101.955898 -131.083249 0 120 255
-24.449442 -102.982953 -129.813112 0 120 255
-26.360755 -104.037252 -128.649206 0 120 255
-28.285767 -105.098658 -127.513007 0 120 255
-30.210779 -106.160063 -126.376809 0 120 255
-32.135791 -107.221469 -125.240611 0 120 255
-34.106086 -108.307798 -124.212860 0 120 255
-36.091299 -109.402338 -123.220836 0 120 255
-38.076512 -110.496877 -122.228812 0 120 255
-40.061725 -111.591417 -121.236788 0 120 255
-42.084537 -112.708366 -120.354637 0 120 255
-44.122575 -113.834390 -119.516980 0 120 255
-46.160613 -114.960414 -118.679323 0 120 255
-48.198651 -116.086438 -117.841666 0 120 255
-50.266262 -117.232177 -117.114413 0 120 255
-52.348319 -118.387546 -116.441093 0 120 255
-54.430376 -119.542915 -115.767774 0 120 255
-56.512434 -120.698284 -115.094455 0 120 255
-58.615816 -121.870521 -114.531087 0 120 255
-60.731597 -123.052563 -114.031640 0 120 255
-62.847377 -124.234606 -113.532193 0 120 255
-64.963158 -125.416649 -113.032746 0 120 255
-67.091943 -126.612590 -112.641729 0 120 255
-69.229637 -127.818055 -112.325000 0 120 255
-71.367332 -129.023519 -112.008270 0 120 255
-73.505026 -130.228983 -111.691540 0 120 255
-75.647493 -131.445311 -111.480597 0 120 255
-77.793785 -132.670350 -111.354473 0 120 255
-79.940078 -133.895388 -111.228349 0 120 255
-82.086371 -135.120427 -111.102225 0 120 255
-84.229482 -136.353272 -111.078092 0 120 255
-86.369623 -137.593409 -111.149213 0 120 255
-88.509764 -138.833545 -111.220333 0 120 255
-90.649905 -140.073681 -111.291454 0 120 255
-92.779379 -141.318626 -111.459631 0 120 255
-94.897281 -142.568787 -111.733105 0 120 255
-97.015183 -143.818948 -112.006578 0 120 255
-99.133085 -145.069108 -112.280052 0 120 255
-101.233510 -146.321200 -112.644552 0 120 255
-103.311929 -147.575723 -113.123662 0 120 255
-105.390347 -148.830246 -113.602773 0 120 255
-107.468766 -150.084769 -114.081883 0 120 255
-109.523766 -151.338556 -114.644979 0 120 255
-111.544517 -152.591266 -115.330895 0 120 255
-113.565269 -153.843976 -116.016810 0 120 255
-115.586020 -155.096686 -116.702726 0 120 255
-117.578474 -156.346272 -117.464714 0 120 255
-119.522735 -157.590538 -118.356257 0 120 255
-121.466996 -158.834804 -119.247800 0 120 255
-123.411258 -160.079071 -120.139343 0 120 255
-125.323569 -161.318189 -121.098349 0 120 255
-127.172208 -162.547048 -122.191802 0 120 255
-129.020847 -163.775908 -123.285254 0 120 255
-130.869485 -165.004767 -124.378707 0 120 255
-132.683888 -166.226881 -125.530537 0 120 255
-134.417862 -167.433148 -126.819510 0 120 255
-136.151836 -168.639416 -128.108484 0 120 255
-137.885810 -169.845683 -129.397457 0 120 255
-139.584719 -171.044101 -130.735496 0 120 255
-141.185491 -172.220549 -132.210860 0 120 255
-142.786263 -173.396997 -133.686224 0 120 255
-144.387035 -174.573446 -135.161588 0 120 255
-145.953417 -175.741467 -136.676765 0 120 255
-147.403391 -176.880963 -138.326712 0 120 255
-148.853365 -178.020460 -139.976658 0 120 255
-150.303339 -179.159957 -141.626604 0 120 255
-151.721088 -180.291006 -143.307459 0 120 255
-153.004038 -181.386719 -145.117612 0 120 255
-154.286988 -182.482432 -146.927764 0 120 255
-155.569937 -183.578145 -148.737917 0 120 255
-156.824254 -184.665944 -150.570711 0 120 255
-157.925734 -185.711499 -152.524363 0 120 255
-159.027213 -186.757054 -154.478015 0 120 255
-160.128693 -187.802609 -156.431668 0 120 255
-161.206424 -188.841315 -158.400611 0 120 255
-162.114149 -189.830989 -160.479019 0 120 255
-163.021873 -190.820664 -162.557426 0 120 255
-163.929598 -191.810339 -164.635834 0 120 255
-164.819576 -192.794712 -166.723341 0 120 255
-165.523680 -193.723565 -168.906154 0 120 255
-166.227784 -194.652418 -171.088966 0 120 255
-166.931888 -195.581271 -173.271778 0 120 255
-167.625134 -196.506785 -175.458859 0 120 255
-168.118418 -197.370796 -177.724549 0 120 255
-168.611701 -198.234807 -179.990240 0 120 255
-169.104985 -199.098819 -182.255931 0 120 255
-169.594923 -199.961777 -184.522565 0 120 255
-169.872942 -200.757972 -186.848930 0 120 255
-170.150960 -201.554168 -189.175296 0 120 255
-170.428979 -202.350363 -191.501662 0 120 255
-170.706997 -203.146559 -193.828028 0 120 255
-170.772638 -203.874488 -196.191906 0 120 255
-170.833765 -204.600966 -198.556582 0 120 255
-170.894891 -205.327444 -200.921258 0 120 255
-170.956018 -206.053922 -203.285934 0 120 255
-170.813758 -206.713981 -205.665949 0 120 255
-170.659071 -207.369981 -208.046901 0 120 255
-170.504385 -208.025982 -210.427854 0 120 255
-170.349698 -208.681982 -212.808806 0 120 255
-170.002974 -209.274506 -215.185277 0 120 255
-169.636134 -209.860380 -217.561277 0 120 255
-169.269295 -210.446254 -219.937278 0 120 255
-168.902456 -211.032128 -222.313279 0 120 255
-168.356774 -211.558419 -224.667625 0 120 255
-167.783766 -212.075606 -227.018663 0 120 255
-167.210758 -212.592793 -229.369701 0 120 255
-166.637750 -213.109980 -231.720739 0 120 255
-165.900440 -213.572240 -234.035785 0 120 255
-165.129289 -214.023186 -236.343418 0 120 255
-164.358137 -214.474133 -238.651052 0 120 255
-163.586986 -214.925080 -240.958685 0 120 255
-162.666914 -215.326325 -243.218893 0 120 255
-161.707358 -215.714393 -245.466526 0 120 255
-160.747802 -216.102461 -247.714159 0 120 255
-159.788246 -216.490529 -249.961792 0 120 255
-158.695506 -216.834515 -252.153420 0 120 255
-157.558635 -217.163894 -254.326489 0 120 255
-156.421763 -217.493274 -256.499559 0 120 255
-155.284892 -217.822653 -258.672629 0 120 255
-154.030489 -218.113758 -260.783831 0 120 255
-152.728381 -218.389327 -262.869922 0 120 255
-151.426272 -218.664897 -264.956012 0 120 255
-150.124164 -218.940466 -267.042103 0 120 255
-148.719731 -219.183582 -269.062976 0 120 255
-147.265122 -219.410784 -271.051867 0 120 255
-145.810513 -219.637987 -273.040759 0 120 255
-144.355904 -219.865189 -275.029651 0 120 255
-142.813416 -220.065641 -276.952206 0 120 255
-141.219358 -220.250393 -278.835831 0 120 255
-139.625299 -220.435146 -280.719455 0 120 255
-138.031240 -220.619898 -282.603080 0 120 255
-136.362785 -220.783337 -284.421203 0 120 255
-134.642402 -220.931898 -286.193605 0 120 255
-132.922018 -221.080458 -287.966007 0 120 255
-131.201635 -221.229019 -289.738409 0 120 255
-129.419179 -221.361322 -291.447752 0 120 255
-127.585369 -221.480173 -293.104922 0 120 255
-125.751559 -221.599024 -294.762093 0 120 255
-123.917749 -221.717875 -296.419263 0 120 255
-122.032981 -221.825343 -298.017132 0 120 255
-120.098299 -221.921661 -299.556914 0 120 255
-118.163617 -222.017979 -301.096696 0 120 255
-116.228936 -222.114297 -302.636478 0 120 255
-114.253040 -222.205587 -304.121475 0 120 255
-112.229298 -222.291039 -305.542870 0 120 255
-110.205555 -222.376492 -306.964264 0 120 255
-108.181812 -222.461944 -308.385658 0 120 255
-106.125300 -222.546380 -309.757499 0 120 255
-104.023477 -222.629411 -311.060820 0 120 255
-101.921655 -222.712442 -312.364141 0 120 255
-99.819832 -222.795473 -313.667463 0 120 255
-97.692678 -222.878099 -314.927382 0 120 255
-95.523457 -222.960053 -316.115220 0 120 255
-93.354235 -223.042007 -317.303059 0 120 255
-91.185014 -223.123960 -318.490898 0 120 255
-88.996854 -223.206200 -319.641957 0 120 255
-86.770480 -223.289017 -320.718804 0 120 255
-84.544106 -223.371834 -321.795652 0 120 255
-82.317732 -223.454651 -322.872499 0 120 255
-80.077584 -223.538091 -323.919022 0 120 255
-77.803158 -223.623085 -324.890084 0 120 255
-75.528732 -223.708078 -325.861146 0 120 255
-73.254305 -223.793072 -326.832207 0 120 255
-70.970075 -223.878501 -327.778788 0 120 255
-68.655133 -223.965295 -328.648678 0 120 255
-66.340191 -224.052090 -329.518569 0 120 255
-64.025249 -224.138885 -330.388459 0 120 255
-61.703621 -224.225945 -331.239347 0 120 255
-59.354791 -224.314089 -332.012927 0 120 255
-57.005960 -224.402233 -332.786508 0 120 255
-54.657130 -224.490376 -333.560088 0 120 255
-52.304053 -224.578668 -334.319874 0 120 255
-49.927389 -224.667781 -335.003046 0 120 255
-47.550724 -224.756895 -335.686217 0 120 255
-45.174059 -224.846008 -336.369388 0 120 255
-42.794959 -224.935196 -337.043477 0 120 255
-40.395694 -225.024997 -337.642360 0 120 255
-37.996429 -225.114798 -338.241243 0 120 255
-35.597163 -225.204599 -338.840126 0 120 255
-33.196759 -225.294428 -339.434106 0 120 255
-30.779367 -225.384685 -339.954937 0 120 255
-28.361974 -225.474941 -340.475768 0 120 255
-25.944581 -225.565198 -340.996599 0 120 255
-23.526933 -225.655460 -341.516154 0 120 255
-21.095220 -225.746031 -341.965339 0 120 255
-18.663507 -225.836602 -342.414524 0 120 255
-16.231793 -225.927174 -342.863708 0 120 255
-13.800080 -226.017745 -343.312893 0 120 255
-11.357538 -226.108490 -343.698688 0 120 255
-8.914693 -226.199239 -344.082705 0 120 255
-6.471847 -226.289989 -344.466722 0 120 255
-4.029002 -226.380739 -344.850739 0 120 255
-1.578280 -226.471533 -345.180409 0 120 255
0.873057 -226.562330 -345.505835 0 120 255
3.324394 -226.653127 -345.831262 0 120 255
5.775731 -226.743925 -346.156689 0 120 255
8.232673 -226.834674 -346.436177 0 120 255
10.690362 -226.925417 -346.709544 0 120 255
13.148051 -227.016161 -346.982910 0 120 255
15.605740 -227.106904 -347.256277 0 120 255
18.067320 -227.197533 -347.491487 0 120 255
20.529657 -227.288140 -347.719277 0 120 255
22.991993 -227.378747 -347.947068 0 120 255
25.454330 -227.469354 -348.174858 0 120 255
27.919279 -227.559747 -348.371845 0 120 255
30.384914 -227.650082 -348.560742 0 120 255
32.850549 -227.740418 -348.749638 0 120 255
35.316184 -227.830754 -348.938535 0 120 255
37.783518 -227.920771 -349.103338 0 120 255
40.251429 -228.010679 -349.259968 0 120 255
42.719339 -228.100587 -349.416599 0 120 255
45.187250 -228.190495 -349.573229 0 120 255
47.656243 -228.279853 -349.711597 0 120 255
50.125697 -228.368976 -349.842188 0 120 255
52.595150 -228.458100 -349.972780 0 120 255
55.064604 -228.547223 -350.103371 0 120 255
57.534736 -228.635203 -350.220925 0 120 255
60.005223 -228.722583 -350.331641 0 120 255
62.475710 -228.809963 -350.442356 0 120 255
64.946197 -228.897344 -350.553072 0 120 255
67.417183 -228.980716 -350.655144 0 120 255
69.888487 -229.061534 -350.751706 0 120 255
72.359791 -229.142352 -350.848269 0 120 255
74.831095 -229.223170 -350.944831 0 120 255
77.302788 -229.297039 -351.036578 0 120 255
79.774781 -229.365574 -351.124627 0 120 255
82.246774 -229.434110 -351.212677 0 120 255
84.718767 -229.502645 -351.300727 0 120 255
87.191013 -229.562955 -351.387323 0 120 255
89.663491 -229.615697 -351.472583 0 120 255
92.135969 -229.668439 -351.557842 0 120 255
94.608447 -229.721181 -351.643101 0 120 255
97.081038 -229.764751 -351.729713 0 120 255
99.553753 -229.798223 -351.817813 0 120 255
102.026467 -229.831696 -351.905914 0 120 255
104.499182 -229.865168 -351.994014 0 120 255
106.971849 -229.888788 -352.085730 0 120 255
109.444454 -229.899414 -352.182213 0 120 255
111.917060 -229.910039 -352.278695 0 120 255
114.389665 -229.920665 -352.375178 0 120 255
116.862037 -229.921053 -352.476997 0 120 255
119.334037 -229.905198 -352.587280 0 120 255
121.806037 -229.889342 -352.697563 0 120 255
124.278037 -229.873487 -352.807846 0 120 255
126.749590 -229.847300 -352.924681 0 120 255
129.220284 -229.801247 -353.054117 0 120 255
131.690977 -229.755193 -353.183552 0 120 255
134.161670 -229.709140 -353.312988 0 120 255
136.631688 -229.652964 -353.449691 0 120 255
139.100113 -229.572916 -353.603534 0 120 255
141.568539 -229.492868 -353.757377 0 120 255
144.036964 -229.412819 -353.911220 0 120 255
146.504491 -229.323169 -354.072563 0 120 255
148.969375 -229.205250 -354.255984 0 120 255
151.434258 -229.087331 -354.439406 0 120 255
153.899142 -228.969412 -354.622827 0 120 255
156.362940 -228.842738 -354.813504 0 120 255
158.822644 -228.683025 -355.031559 0 120 255
161.282348 -228.523311 -355.249614 0 120 255
163.742052 -228.363598 -355.467669 0 120 255
166.200166 -228.195079 -355.694924 0 120 255
168.650270 -227.982182 -355.968533 0 120 255
171.100375 -227.769286 -356.242143 0 120 255
173.550479 -227.556389 -356.515753 0 120 255
176.000261 -227.341198 -356.790376 0 120 255
178.447751 -227.109735 -357.072179 0 120 255
180.895242 -226.878271 -357.353983 0 120 255
183.342733 -226.646807 -357.635787 0 120 255
185.790223 -226.415343 -357.917592 0 120 255
188.237711 -226.183868 -358.199408 0 120 255
190.685199 -225.952393 -358.481224 0 120 255
193.132688 -225.720918 -358.763040 0 120 255
195.580176 -225.489443 -359.044856 0 120 255
198.027665 -225.257973 -359.326665 0 120 255
200.475154 -225.026502 -359.608473 0 120 255
202.922644 -224.795031 -359.890282 0 120 255
205.370133 -224.563560 -360.172091 0 120 255
