ply
format ascii 1.0
element vertex 385
property float x
property float y
property float z
property uchar red
property uchar green
property uchar blue
end_header
77.430455 -42.474882 -360.397637 0 120 255
77.187541 -42.528714 -357.935811 0 120 255
76.944626 -42.582546 -355.473984 0 120 255
76.701711 -42.636378 -353.012158 0 120 255
76.458796 -42.690210 -350.550332 0 120 255
76.219914 -42.753636 -348.088341 0 120 255
75.981206 -42.817477 -345.626343 0 120 255
75.742499 -42.881317 -343.164344 0 120 255
75.503791 -42.945158 -340.702346 0 120 255
75.371790 -43.236520 -338.249920 0 120 255
75.249550 -43.548694 -335.798370 0 120 255
75.127309 -43.860867 -333.346820 0 120 255
75.005069 -44.173041 -330.895270 0 120 255
74.971937 -44.664062 -328.471583 0 120 255
74.952027 -45.181619 -326.052031 0 120 255
74.932116 -45.699176 -323.632479 0 120 255
74.912206 -46.216733 -321.212928 0 120 255
74.967764 -46.879139 -318.830767 0 120 255
75.039280 -47.572174 -316.456513 0 120 255
75.110796 -48.265208 -314.082259 0 120 255
75.182311 -48.958243 -311.708005 0 120 255
75.316400 -49.767242 -309.374623 0 120 255
75.468118 -50.608912 -307.052756 0 120 255
75.619836 -51.450582 -304.730889 0 120 255
75.771554 -52.292252 -302.409022 0 120 255
75.974095 -53.225820 -300.127496 0 120 255
76.194953 -54.192508 -297.860510 0 120 255
76.415812 -55.159197 -295.593523 0 120 255
76.636670 -56.125886 -293.326537 0 120 255
76.897913 -57.164739 -291.096889 0 120 255
77.177295 -58.236007 -288.884012 0 120 255
77.456677 -59.307275 -286.671135 0 120 255
77.736060 -60.378543 -284.458259 0 120 255
78.046698 -61.505959 -282.278336 0 120 255
78.374528 -62.664258 -280.116539 0 120 255
78.702358 -63.822557 -277.954743 0 120 255
79.030189 -64.980855 -275.792946 0 120 255
79.381396 -66.182409 -273.659103 0 120 255
79.748164 -67.412755 -271.543867 0 120 255
80.114932 -68.643101 -269.428631 0 120 255
80.481700 -69.873446 -267.313395 0 120 255
80.865101 -71.136739 -265.221008 0 120 255
81.261799 -72.426373 -263.146890 0 120 255
81.658498 -73.716007 -261.072771 0 120 255
82.055197 -75.005641 -258.998653 0 120 255
82.462801 -76.320030 -256.942509 0 120 255
82.880832 -77.658090 -254.903554 0 120 255
83.298863 -78.996151 -252.864599 0 120 255
83.716895 -80.334211 -250.825645 0 120 255
84.141019 -81.690548 -248.800223 0 120 255
84.572102 -83.067762 -246.790263 0 120 255
85.003186 -84.444976 -244.780303 0 120 255
85.434270 -85.822191 -242.770343 0 120 255
85.867452 -87.212598 -240.770032 0 120 255
86.303503 -88.621039 -238.782911 0 120 255
86.739553 -90.029480 -236.795791 0 120 255
87.175603 -91.437921 -234.808671 0 120 255
87.610503 -92.855588 -232.827922 0 120 255
88.043513 -94.288417 -230.857643 0 120 255
88.476523 -95.721246 -228.887365 0 120 255
88.909533 -97.154074 -226.917086 0 120 255
89.338844 -98.593072 -224.950531 0 120 255
89.760787 -100.044357 -222.991391 0 120 255
90.182730 -101.495643 -221.032252 0 120 255
90.604673 -102.946928 -219.073112 0 120 255
91.021030 -104.402058 -217.115660 0 120 255
91.423729 -105.866585 -215.162333 0 120 255
91.826428 -107.331112 -213.209006 0 120 255
92.229127 -108.795640 -211.255679 0 120 255
92.625015 -110.262288 -209.302591 0 120 255
93.000083 -111.735419 -207.350233 0 120 255
93.375150 -113.208550 -205.397875 0 120 255
93.750218 -114.681681 -203.445516 0 120 255
94.117912 -116.155706 -201.492486 0 120 255
94.456629 -117.633243 -199.536816 0 120 255
94.795347 -119.110781 -197.581146 0 120 255
95.134065 -120.588319 -195.625475 0 120 255
95.465542 -122.065939 -193.668700 0 120 255
95.758809 -123.543996 -191.706090 0 120 255
96.052077 -125.022053 -189.743481 0 120 255
96.345344 -126.500109 -187.780872 0 120 255
96.632235 -127.977800 -185.817126 0 120 255
96.870501 -129.452692 -183.844713 0 120 255
97.108767 -130.927585 -181.872300 0 120 255
97.347033 -132.402478 -179.899887 0 120 255
97.580571 -133.876881 -177.926617 0 120 255
97.753794 -135.345025 -175.942420 0 120 255
97.927016 -136.813170 -173.958222 0 120 255
98.100239 -138.281314 -171.974025 0 120 255
98.271224 -139.749153 -169.989451 0 120 255
98.368862 -141.206963 -167.992515 0 120 255
98.466500 -142.664772 -165.995580 0 120 255
98.564138 -144.122582 -163.998645 0 120 255
98.661776 -145.580392 -162.001709 0 120 255
98.673939 -147.024381 -159.992447 0 120 255
98.684947 -148.468184 -157.983018 0 120 255
98.695954 -149.911987 -155.973588 0 120 255
98.706962 -151.355790 -153.964159 0 120 255
98.625369 -152.782705 -151.944452 0 120 255
98.538273 -154.208616 -149.924135 0 120 255
98.451178 -155.634528 -147.903817 0 120 255
98.364082 -157.060440 -145.883499 0 120 255
98.177912 -158.466500 -143.856259 0 120 255
97.980896 -159.870387 -141.828260 0 120 255
97.783881 -161.274275 -139.800261 0 120 255
97.586865 -162.678162 -137.772263 0 120 255
97.285118 -164.059249 -135.741954 0 120 255
96.966176 -165.436592 -133.711265 0 120 255
96.647233 -166.813935 -131.680577 0 120 255
96.328290 -168.191278 -129.649889 0 120 255
95.899979 -169.542916 -127.622753 0 120 255
95.447134 -170.888788 -125.596413 0 120 255
94.994289 -172.234661 -123.570073 0 120 255
94.541444 -173.580533 -121.543733 0 120 255
93.975837 -174.897836 -119.527963 0 120 255
93.377455 -176.206836 -117.515265 0 120 255
92.779074 -177.515836 -115.502568 0 120 255
92.180692 -178.824835 -113.489870 0 120 255
91.467627 -180.102465 -111.495774 0 120 255
90.712796 -181.368670 -109.508452 0 120 255
89.957965 -182.634875 -107.521130 0 120 255
89.203134 -183.901080 -105.533808 0 120 255
88.333386 -185.133263 -103.573958 0 120 255
87.412369 -186.350267 -101.626364 0 120 255
86.491352 -187.567272 -99.678771 0 120 255
85.570335 -188.784276 -97.731177 0 120 255
84.536087 -189.964839 -95.820483 0 120 255
83.440922 -191.125797 -93.929641 0 120 255
82.345756 -192.286754 -92.038799 0 120 255
81.250591 -193.447712 -90.147958 0 120 255
80.045942 -194.570147 -88.303664 0 120 255
78.771038 -195.667862 -86.489240 0 120 255
77.496133 -196.765578 -84.674817 0 120 255
76.221229 -197.863293 -82.860393 0 120 255
74.842752 -198.920890 -81.101976 0 120 255
73.385593 -199.948009 -79.386108 0 120 255
71.928433 -200.975128 -77.670239 0 120 255
70.471273 -202.002247 -75.954370 0 120 255
68.918600 -202.988271 -74.303304 0 120 255
67.280433 -203.937510 -72.710242 0 120 255
65.642266 -204.886749 -71.117180 0 120 255
64.004099 -205.835988 -69.524118 0 120 255
62.280495 -206.743914 -68.003473 0 120 255
60.466996 -207.608371 -66.559025 0 120 255
58.653498 -208.472828 -65.114576 0 120 255
56.840000 -209.337285 -63.670128 0 120 255
54.952867 -210.161079 -62.304021 0 120 255
52.974677 -210.934589 -61.034794 0 120 255
50.996487 -211.708100 -59.765566 0 120 255
49.018297 -212.481610 -58.496338 0 120 255
46.979568 -213.216069 -57.309210 0 120 255
44.852674 -213.893657 -56.241648 0 120 255
42.725779 -214.571245 -55.174086 0 120 255
40.598885 -215.248832 -54.106525 0 120 255
38.425246 -215.889945 -53.122275 0 120 255
36.171077 -216.468220 -52.281552 0 120 255
33.916909 -217.046494 -51.440828 0 120 255
31.662740 -217.624769 -50.600105 0 120 255
29.375625 -218.170073 -49.841114 0 120 255
27.020877 -218.647696 -49.249901 0 120 255
24.666129 -219.125319 -48.658688 0 120 255
22.311382 -219.602942 -48.067475 0 120 255
19.936713 -220.051886 -47.553569 0 120 255
17.512786 -220.429915 -47.230829 0 120 255
15.088858 -220.807945 -46.908089 0 120 255
12.664930 -221.185974 -46.585349 0 120 255
10.232565 -221.540200 -46.332802 0 120 255
7.774671 -221.822401 -46.292653 0 120 255
5.316777 -222.104602 -46.252505 0 120 255
2.858883 -222.386803 -46.212357 0 120 255
0.401792 -222.650370 -46.232976 0 120 255
-2.052253 -222.843345 -46.483804 0 120 255
-4.506299 -223.036321 -46.734632 0 120 255
-6.960344 -223.229297 -46.985460 0 120 255
-9.407139 -223.408770 -47.285883 0 120 255
-11.818349 -223.521977 -47.829704 0 120 255
-14.229560 -223.635184 -48.373525 0 120 255
-16.640770 -223.748390 -48.917346 0 120 255
-19.041422 -223.852835 -49.498557 0 120 255
-21.371183 -223.898453 -50.330799 0 120 255
-23.700943 -223.944072 -51.163041 0 120 255
-26.030704 -223.989690 -51.995283 0 120 255
-28.349840 -224.030545 -52.852466 0 120 255
-30.561437 -224.023185 -53.962097 0 120 255
-32.773033 -224.015824 -55.071728 0 120 255
-34.984629 -224.008464 -56.181359 0 120 255
-37.188632 -223.999293 -57.304034 0 120 255
-39.248605 -223.955774 -58.674111 0 120 255
-41.308577 -223.912255 -60.044188 0 120 255
-43.368550 -223.868736 -61.414266 0 120 255
-45.426686 -223.825071 -62.786767 0 120 255
-47.305391 -223.767147 -64.395991 0 120 255
-49.184097 -223.709222 -66.005216 0 120 255
-51.062802 -223.651298 -67.614440 0 120 255
-52.941508 -223.593373 -69.223665 0 120 255
-54.621479 -223.539357 -71.038803 0 120 255
-56.295280 -223.485461 -72.860335 0 120 255
-57.969082 -223.431566 -74.681867 0 120 255
-59.642883 -223.377670 -76.503399 0 120 255
-61.111984 -223.331270 -78.492552 0 120 255
-62.565451 -223.285442 -80.494508 0 120 255
-64.018919 -223.239614 -82.496463 0 120 255
-65.472386 -223.193786 -84.498418 0 120 255
-66.720488 -223.155927 -86.632842 0 120 255
-67.942699 -223.119072 -88.783966 0 120 255
-69.164911 -223.082217 -90.935090 0 120 255
-70.387122 -223.045363 -93.086214 0 120 255
-71.408920 -223.016386 -95.337546 0 120 255
-72.394486 -222.988833 -97.606994 0 120 255
-73.380053 -222.961281 -99.876441 0 120 255
-74.365619 -222.933728 -102.145889 0 120 255
-75.159725 -222.913502 -104.487124 0 120 255
-75.907644 -222.895044 -106.845676 0 120 255
-76.655563 -222.876585 -109.204229 0 120 255
-77.403481 -222.858126 -111.562781 0 120 255
-77.972061 -222.846398 -113.968701 0 120 255
-78.485333 -222.836745 -116.389228 0 120 255
-78.998605 -222.827093 -118.809755 0 120 255
-79.511877 -222.817440 -121.230282 0 120 255
-79.860169 -222.813897 -123.677820 0 120 255
-80.145198 -222.812696 -126.135716 0 120 255
-80.430227 -222.811496 -128.593611 0 120 255
-80.715256 -222.810295 -131.051507 0 120 255
-80.851010 -222.814566 -133.520019 0 120 255
-80.916915 -222.821396 -135.993499 0 120 255
-80.982819 -222.828227 -138.466979 0 120 255
-81.048723 -222.835058 -140.940459 0 120 255
-80.981582 -222.846727 -143.411867 0 120 255
-80.839457 -222.861122 -145.882107 0 120 255
-80.697331 -222.875517 -148.352347 0 120 255
-80.555205 -222.889913 -150.822587 0 120 255
-80.296150 -222.908522 -153.281395 0 120 255
-79.958414 -222.929967 -155.732511 0 120 255
-79.620677 -222.951412 -158.183626 0 120 255
-79.282941 -222.972857 -160.634742 0 120 255
-78.843812 -222.997921 -163.067960 0 120 255
-78.323682 -223.025878 -165.486881 0 120 255
-77.803552 -223.053835 -167.905801 0 120 255
-77.283421 -223.081791 -170.324722 0 120 255
-76.676470 -223.112829 -172.721709 0 120 255
-75.987413 -223.146779 -175.097954 0 120 255
-75.298357 -223.180729 -177.474199 0 120 255
-74.609300 -223.214679 -179.850445 0 120 255
-73.846821 -223.251204 -182.202699 0 120 255
-73.002197 -223.290612 -184.528113 0 120 255
-72.157574 -223.330020 -186.853528 0 120 255
-71.312951 -223.369428 -189.178942 0 120 255
-70.407023 -223.410979 -191.479871 0 120 255
-69.419806 -223.455371 -193.748335 0 120 255
-68.432589 -223.499763 -196.016798 0 120 255
-67.445372 -223.544155 -198.285261 0 120 255
-66.407644 -223.590303 -200.529935 0 120 255
-65.290195 -223.639220 -202.737062 0 120 255
-64.172747 -223.688137 -204.944188 0 120 255
-63.055298 -223.737055 -207.151315 0 120 255
-61.896842 -223.787383 -209.336222 0 120 255
-60.660785 -223.840380 -211.479082 0 120 255
-59.424728 -223.893377 -213.621942 0 120 255
-58.188671 -223.946374 -215.764801 0 120 255
-56.919892 -224.000487 -217.887626 0 120 255
-55.576050 -224.057163 -219.964491 0 120 255
-54.232207 -224.113839 -222.041356 0 120 255
-52.888364 -224.170515 -224.118221 0 120 255
-51.518943 -224.228061 -226.177628 0 120 255
-50.077252 -224.288065 -228.187707 0 120 255
-48.635560 -224.348070 -230.197786 0 120 255
-47.193868 -224.408074 -232.207865 0 120 255
-45.732705 -224.468731 -234.203284 0 120 255
-44.202186 -224.531713 -236.146488 0 120 255
-42.671668 -224.594695 -238.089691 0 120 255
-41.141149 -224.657676 -240.032894 0 120 255
-39.596355 -224.721135 -241.964341 0 120 255
-37.985179 -224.786813 -243.841118 0 120 255
-36.374003 -224.852491 -245.717895 0 120 255
-34.762828 -224.918169 -247.594672 0 120 255
-33.141774 -224.984174 -249.462611 0 120 255
-31.457310 -225.052278 -251.273808 0 120 255
-29.772847 -225.120383 -253.085006 0 120 255
-28.088383 -225.188488 -254.896203 0 120 255
-26.397746 -225.256796 -256.701433 0 120 255
-24.646582 -225.327092 -258.448136 0 120 255
-22.895417 -225.397387 -260.194840 0 120 255
-21.144253 -225.467683 -261.941544 0 120 255
-19.390027 -225.538079 -263.685064 0 120 255
-17.578019 -225.610357 -265.368482 0 120 255
-15.766012 -225.682635 -267.051901 0 120 255
-13.954005 -225.754913 -268.735320 0 120 255
-12.141549 -225.827205 -270.418239 0 120 255
-10.273965 -225.901274 -272.039700 0 120 255
-8.406382 -225.975344 -273.661162 0 120 255
-6.538798 -226.049413 -275.282624 0 120 255
-4.671214 -226.123482 -276.904086 0 120 255
-2.754483 -226.199132 -278.467001 0 120 255
-0.836013 -226.274838 -280.027846 0 120 255
1.082456 -226.350544 -281.588690 0 120 255
3.000926 -226.426250 -283.149535 0 120 255
4.962623 -226.503327 -284.655487 0 120 255
6.927896 -226.580517 -286.156899 0 120 255
8.893169 -226.657708 -287.658311 0 120 255
10.858441 -226.734899 -289.159723 0 120 255
12.861788 -226.813279 -290.609689 0 120 255
14.870258 -226.891819 -292.052731 0 120 255
16.878729 -226.970360 -293.495773 0 120 255
18.887200 -227.048901 -294.938815 0 120 255
20.929183 -227.128484 -296.333736 0 120 255
22.977591 -227.208267 -297.719431 0 120 255
25.025999 -227.288049 -299.105127 0 120 255
27.074407 -227.367832 -300.490823 0 120 255
29.152390 -227.448537 -301.831430 0 120 255
31.237909 -227.529477 -303.160546 0 120 255
33.323429 -227.610417 -304.489662 0 120 255
35.408949 -227.691357 -305.818778 0 120 255
37.520542 -227.773082 -307.105707 0 120 255
39.640613 -227.855062 -308.378922 0 120 255
41.760683 -227.937042 -309.652136 0 120 255
43.880753 -228.019022 -310.925350 0 120 255
46.023792 -228.101711 -312.159124 0 120 255
48.176103 -228.184687 -313.376977 0 120 255
50.328414 -228.267662 -314.594831 0 120 255
52.480725 -228.350637 -315.812684 0 120 255
54.653232 -228.434234 -316.993720 0 120 255
56.835679 -228.518136 -318.156640 0 120 255
59.018125 -228.602039 -319.319559 0 120 255
61.200571 -228.685942 -320.482479 0 120 255
63.400768 -228.770250 -321.611033 0 120 255
65.611479 -228.854798 -322.719230 0 120 255
67.822190 -228.939347 -323.827427 0 120 255
70.032902 -229.023896 -324.935624 0 120 255
72.259327 -229.108160 -326.011499 0 120 255
74.496866 -229.192223 -327.064518 0 120 255
76.734404 -229.276287 -328.117537 0 120 255
78.971942 -229.360350 -329.170555 0 120 255
81.223821 -229.441172 -330.192320 0 120 255
83.487740 -229.519273 -331.187841 0 120 255
85.751660 -229.597374 -332.183362 0 120 255
88.015579 -229.675475 -333.178883 0 120 255
90.292735 -229.746300 -334.143700 0 120 255
92.583050 -229.809892 -335.077995 0 120 255
94.873365 -229.873484 -336.012290 0 120 255
97.163680 -229.937076 -336.946585 0 120 255
99.465925 -229.990620 -337.850995 0 120 255
101.782206 -230.032343 -338.720246 0 120 255
104.098486 -230.074067 -339.589497 0 120 255
106.414766 -230.115790 -340.458748 0 120 255
108.741496 -230.146001 -341.299236 0 120 255
111.082805 -230.160148 -342.099587 0 120 255
113.424115 -230.174294 -342.899938 0 120 255
115.765425 -230.188441 -343.700290 0 120 255
118.115623 -230.190432 -344.473224 0 120 255
120.480606 -230.172204 -345.200560 0 120 255
122.845589 -230.153977 -345.927896 0 120 255
125.210572 -230.135749 -346.655232 0 120 255
127.582852 -230.105418 -347.356751 0 120 255
129.969714 -230.050900 -348.006682 0 120 255
132.356576 -229.996382 -348.656612 0 120 255
134.743438 -229.941865 -349.306543 0 120 255
137.136021 -229.875887 -349.932562 0 120 255
139.542502 -229.782070 -350.500489 0 120 255
141.948983 -229.688254 -351.068417 0 120 255
144.355464 -229.594437 -351.636344 0 120 255
146.766164 -229.490296 -352.182592 0 120 255
149.189544 -229.355129 -352.663687 0 120 255
151.612924 -229.219962 -353.144782 0 120 255
154.036304 -229.084795 -353.625877 0 120 255
156.462533 -228.940805 -354.087888 0 120 255
158.899629 -228.763164 -354.477122 0 120 255
161.336724 -228.585524 -354.866355 0 120 255
163.773820 -228.407883 -355.255589 0 120 255
166.212613 -228.223187 -355.628498 0 120 255
168.659948 -228.003000 -355.919296 0 120 255
171.107283 -227.782812 -356.210094 0 120 255
173.554617 -227.562625 -356.500892 0 120 255
176.001954 -227.341038 -356.790571 0 120 255
178.449303 -227.109588 -357.072358 0 120 255
180.896653 -226.878137 -357.354146 0 120 255
183.344003 -226.646687 -357.635933 0 120 255
185.791352 -226.415236 -357.917722 0 120 255
188.238699 -226.183774 -358.199522 0 120 255
190.686046 -225.952313 -358.481321 0 120 255
193.133393 -225.720851 -358.763121 0 120 255
195.580740 -225.489390 -359.044921 0 120 255
198.028088 -225.257933 -359.326713 0 120 255
200.475437 -225.026475 -359.608506 0 120 255
202.922785 -224.795018 -359.890298 0 120 255
205.370133 -224.563560 -360.172091 0 120 255
