ply
format ascii 1.0
element vertex 385
property float x
property float y
property float z
property uchar red
property uchar green
property uchar blue
end_header
77.430455 -42.474882 -360.397637 0 120 255
77.187545 -42.528713 -357.935855 0 120 255
76.944634 -42.582544 -355.474073 0 120 255
76.701724 -42.636375 -353.012291 0 120 255
76.458814 -42.690207 -350.550509 0 120 255
76.217122 -42.752938 -348.088819 0 120 255
75.975482 -42.816056 -345.627132 0 120 255
75.733843 -42.879173 -343.165446 0 120 255
75.492203 -42.942291 -340.703760 0 120 255
75.237843 -43.143785 -338.251172 0 120 255
74.982309 -43.358036 -335.799423 0 120 255
74.726776 -43.572288 -333.347674 0 120 255
74.471242 -43.786539 -330.895925 0 120 255
74.202071 -44.111585 -328.458246 0 120 255
73.930867 -44.453139 -326.022664 0 120 255
73.659664 -44.794693 -323.587081 0 120 255
73.388460 -45.136247 -321.151499 0 120 255
73.103446 -45.572182 -318.733026 0 120 255
72.815505 -46.028122 -316.318180 0 120 255
72.527564 -46.484061 -313.903333 0 120 255
72.239623 -46.940001 -311.488487 0 120 255
71.937426 -47.475878 -309.092276 0 120 255
71.631206 -48.034309 -306.701323 0 120 255
71.324986 -48.592740 -304.310369 0 120 255
71.018766 -49.151170 -301.919416 0 120 255
70.697688 -49.776940 -299.547551 0 120 255
70.371247 -50.427013 -297.182574 0 120 255
70.044806 -51.077085 -294.817597 0 120 255
69.718365 -51.727157 -292.452620 0 120 255
69.376392 -52.433652 -290.106455 0 120 255
69.027432 -53.165528 -287.768751 0 120 255
68.678472 -53.897404 -285.431047 0 120 255
68.329511 -54.629279 -283.093344 0 120 255
67.964335 -55.408187 -280.773715 0 120 255
67.590223 -56.213014 -278.464047 0 120 255
67.216111 -57.017840 -276.154378 0 120 255
66.841999 -57.822667 -273.844710 0 120 255
66.451050 -58.666476 -271.552109 0 120 255
66.048867 -59.536296 -269.270895 0 120 255
65.646684 -60.406117 -266.989682 0 120 255
65.244501 -61.275938 -264.708469 0 120 255
64.824968 -62.177878 -262.443188 0 120 255
64.391520 -63.105579 -260.190686 0 120 255
63.958072 -64.033280 -257.938183 0 120 255
63.524625 -64.960980 -255.685680 0 120 255
63.073469 -65.914973 -253.447946 0 120 255
62.605312 -66.894208 -251.224390 0 120 255
62.137155 -67.873444 -249.000834 0 120 255
61.668998 -68.852679 -246.777279 0 120 255
61.182967 -69.853266 -244.567354 0 120 255
60.676412 -70.878370 -242.373080 0 120 255
60.169858 -71.903473 -240.178805 0 120 255
59.663303 -72.928577 -237.984531 0 120 255
59.138944 -73.970865 -235.802812 0 120 255
58.590092 -75.036792 -233.638365 0 120 255
58.041240 -76.102719 -231.473917 0 120 255
57.492388 -77.168646 -229.309469 0 120 255
56.926066 -78.248242 -227.156567 0 120 255
56.330811 -79.350477 -225.022786 0 120 255
55.735555 -80.452713 -222.889004 0 120 255
55.140300 -81.554948 -220.755223 0 120 255
54.528212 -82.667903 -218.632036 0 120 255
53.882273 -83.802415 -216.530151 0 120 255
53.236335 -84.936927 -214.428267 0 120 255
52.590397 -86.071440 -212.326382 0 120 255
51.928586 -87.214199 -210.234168 0 120 255
51.227514 -88.377359 -208.165877 0 120 255
50.526442 -89.540519 -206.097585 0 120 255
49.825370 -90.703678 -204.029293 0 120 255
49.109742 -91.873021 -201.969736 0 120 255
48.348964 -93.061542 -199.937272 0 120 255
47.588186 -94.250062 -197.904809 0 120 255
46.827408 -95.438583 -195.872345 0 120 255
46.053769 -96.631572 -193.847610 0 120 255
45.228624 -97.842451 -191.853825 0 120 255
44.403479 -99.053331 -189.860040 0 120 255
43.578334 -100.264211 -187.866254 0 120 255
42.742415 -101.478143 -185.879053 0 120 255
41.848200 -102.708590 -183.927476 0 120 255
40.953985 -103.939038 -181.975899 0 120 255
40.059769 -105.169485 -180.024323 0 120 255
39.157272 -106.401834 -178.077967 0 120 255
38.189304 -107.649215 -176.172881 0 120 255
37.221337 -108.896597 -174.267795 0 120 255
36.253370 -110.143978 -172.362709 0 120 255
35.280015 -111.392349 -170.461172 0 120 255
34.233715 -112.654124 -168.607674 0 120 255
33.187416 -113.915899 -166.754175 0 120 255
32.141117 -115.177674 -164.900677 0 120 255
31.092713 -116.439751 -163.048643 0 120 255
29.963686 -117.713404 -161.252710 0 120 255
28.834658 -118.987058 -159.456777 0 120 255
27.705630 -120.260711 -157.660844 0 120 255
26.576602 -121.534365 -155.864910 0 120 255
25.362303 -122.817176 -154.132299 0 120 255
24.146465 -124.100153 -152.400831 0 120 255
22.930627 -125.383130 -150.669363 0 120 255
21.714789 -126.666106 -148.937895 0 120 255
20.413987 -127.955354 -147.274387 0 120 255
19.107692 -129.245007 -145.615272 0 120 255
17.801398 -130.534661 -143.956157 0 120 255
16.495104 -131.824314 -142.297041 0 120 255
15.104987 -133.117407 -140.710746 0 120 255
13.705193 -134.410897 -139.132856 0 120 255
12.305400 -135.704387 -137.554966 0 120 255
10.905607 -136.997877 -135.977077 0 120 255
9.424044 -138.292036 -134.477004 0 120 255
7.928498 -139.586310 -132.990240 0 120 255
6.432951 -140.880584 -131.503475 0 120 255
4.937405 -142.174858 -130.016710 0 120 255
3.363118 -143.467032 -128.612734 0 120 255
1.770556 -144.758719 -127.227973 0 120 255
0.177994 -146.050405 -125.843211 0 120 255
-1.414569 -147.342092 -124.458450 0 120 255
-3.081809 -148.628927 -123.161275 0 120 255
-4.771415 -149.914309 -121.890331 0 120 255
-6.461021 -151.199692 -120.619388 0 120 255
-8.150627 -152.485074 -119.348444 0 120 255
-9.909797 -153.762858 -118.169521 0 120 255
-11.695000 -155.037799 -117.025034 0 120 255
-13.480203 -156.312739 -115.880547 0 120 255
-15.265406 -157.587680 -114.736061 0 120 255
-17.114014 -158.852314 -113.687478 0 120 255
-18.991632 -160.112232 -112.682774 0 120 255
-20.869250 -161.372151 -111.678069 0 120 255
-22.746867 -162.632069 -110.673364 0 120 255
-24.680721 -163.879049 -109.767667 0 120 255
-26.645555 -165.118902 -108.916512 0 120 255
-28.610390 -166.358755 -108.065357 0 120 255
-30.575224 -167.598608 -107.214203 0 120 255
-32.588224 -168.823014 -106.464176 0 120 255
-34.632838 -170.037283 -105.780524 0 120 255
-36.677451 -171.251552 -105.096872 0 120 255
-38.722064 -172.465821 -104.413220 0 120 255
-40.806011 -173.662337 -103.831616 0 120 255
-42.920490 -174.845070 -103.329232 0 120 255
-45.034970 -176.027804 -102.826849 0 120 255
-47.149450 -177.210538 -102.324465 0 120 255
-49.293873 -178.373496 -101.923665 0 120 255
-51.465664 -179.518381 -101.615707 0 120 255
-53.637455 -180.663266 -101.307749 0 120 255
-55.809245 -181.808150 -100.999791 0 120 255
-58.001301 -182.931610 -100.791412 0 120 255
-60.215114 -184.032068 -100.689939 0 120 255
-62.428927 -185.132527 -100.588466 0 120 255
-64.642740 -186.232985 -100.486993 0 120 255
-66.867174 -187.310827 -100.481459 0 120 255
-69.105001 -188.360150 -100.596898 0 120 255
-71.342828 -189.409473 -100.712338 0 120 255
-73.580654 -190.458796 -100.827778 0 120 255
-75.819852 -191.484860 -101.033849 0 120 255
-78.061083 -192.476405 -101.374425 0 120 255
-80.302315 -193.467950 -101.715001 0 120 255
-82.543547 -194.459494 -102.055576 0 120 255
-84.777685 -195.427755 -102.479879 0 120 255
-86.999378 -196.355167 -103.051071 0 120 255
-89.221072 -197.282579 -103.622262 0 120 255
-91.442765 -198.209991 -104.193454 0 120 255
-93.650083 -199.114758 -104.840019 0 120 255
-95.827375 -199.972223 -105.644026 0 120 255
-98.004667 -200.829688 -106.448032 0 120 255
-100.181959 -201.687152 -107.252039 0 120 255
-102.339154 -202.523276 -108.121881 0 120 255
-104.445829 -203.305751 -109.157221 0 120 255
-106.552503 -204.088225 -110.192561 0 120 255
-108.659178 -204.870700 -111.227900 0 120 255
-110.741907 -205.633794 -112.318697 0 120 255
-112.751064 -206.337339 -113.579881 0 120 255
-114.760221 -207.040883 -114.841065 0 120 255
-116.769378 -207.744428 -116.102249 0 120 255
-118.752856 -208.431120 -117.408105 0 120 255
-120.637714 -209.053091 -118.885513 0 120 255
-122.522572 -209.675061 -120.362921 0 120 255
-124.407431 -210.297032 -121.840329 0 120 255
-126.267115 -210.905143 -123.351695 0 120 255
-128.001840 -211.444455 -125.031619 0 120 255
-129.736565 -211.983768 -126.711543 0 120 255
-131.471290 -212.523081 -128.391467 0 120 255
-133.183593 -213.051832 -130.095204 0 120 255
-134.744159 -213.509102 -131.960092 0 120 255
-136.304726 -213.966372 -133.824981 0 120 255
-137.865292 -214.423642 -135.689870 0 120 255
-139.408300 -214.873764 -137.569483 0 120 255
-140.773264 -215.251409 -139.598407 0 120 255
-142.138227 -215.629055 -141.627331 0 120 255
-143.503190 -216.006700 -143.656255 0 120 255
-144.857315 -216.380524 -145.692293 0 120 255
-146.008488 -216.682794 -147.861558 0 120 255
-147.159661 -216.985064 -150.030822 0 120 255
-148.310833 -217.287334 -152.200086 0 120 255
-149.459381 -217.588807 -154.370669 0 120 255
-150.382395 -217.821740 -156.654539 0 120 255
-151.305408 -218.054673 -158.938409 0 120 255
-152.228421 -218.287606 -161.222279 0 120 255
-153.151434 -218.520539 -163.506149 0 120 255
-153.842674 -218.693534 -165.875259 0 120 255
-154.527277 -218.864812 -168.246811 0 120 255
-155.211879 -219.036091 -170.618362 0 120 255
-155.896482 -219.207370 -172.989914 0 120 255
-156.353167 -219.329707 -175.417792 0 120 255
-156.793388 -219.448508 -177.849738 0 120 255
-157.233609 -219.567310 -180.281685 0 120 255
-157.673831 -219.686111 -182.713632 0 120 255
-157.894258 -219.767379 -185.175544 0 120 255
-158.088327 -219.844145 -187.641049 0 120 255
-158.282395 -219.920911 -190.106555 0 120 255
-158.476464 -219.997676 -192.572060 0 120 255
-158.462466 -220.048353 -195.044291 0 120 255
-158.412614 -220.094535 -197.517680 0 120 255
-158.362762 -220.140716 -199.991070 0 120 255
-158.312909 -220.186897 -202.464459 0 120 255
-158.069141 -220.220611 -204.924740 0 120 255
-157.780746 -220.251455 -207.382005 0 120 255
-157.492351 -220.282300 -209.839270 0 120 255
-157.203956 -220.313144 -212.296535 0 120 255
-156.738504 -220.343712 -214.724540 0 120 255
-156.220902 -220.374198 -217.143926 0 120 255
-155.703300 -220.404684 -219.563313 0 120 255
-155.185698 -220.435170 -221.982700 0 120 255
-154.509907 -220.469421 -224.360636 0 120 255
-153.776028 -220.505053 -226.723352 0 120 255
-153.042150 -220.540686 -229.086068 0 120 255
-152.308271 -220.576319 -231.448783 0 120 255
-151.434229 -220.616360 -233.761086 0 120 255
-150.497200 -220.658382 -236.050733 0 120 255
-149.560172 -220.700405 -238.340380 0 120 255
-148.623144 -220.742427 -240.630028 0 120 255
-147.563762 -220.788813 -242.863407 0 120 255
-146.438017 -220.837567 -245.066268 0 120 255
-145.312272 -220.886321 -247.269128 0 120 255
-144.186527 -220.935075 -249.471989 0 120 255
-142.955656 -220.987636 -251.615587 0 120 255
-141.656623 -221.042666 -253.720762 0 120 255
-140.357591 -221.097696 -255.825936 0 120 255
-139.058558 -221.152726 -257.931111 0 120 255
-137.670387 -221.210869 -259.976344 0 120 255
-136.213560 -221.271410 -261.975409 0 120 255
-134.756732 -221.331951 -263.974475 0 120 255
-133.299905 -221.392492 -265.973540 0 120 255
-131.768605 -221.455554 -267.913957 0 120 255
-130.169393 -221.520914 -269.800892 0 120 255
-128.570182 -221.586275 -271.687827 0 120 255
-126.970970 -221.651636 -273.574762 0 120 255
-125.310505 -221.719021 -275.405932 0 120 255
-123.583971 -221.788591 -277.176951 0 120 255
-121.857436 -221.858161 -278.947971 0 120 255
-120.130901 -221.927731 -280.718990 0 120 255
-118.354812 -221.998915 -282.438339 0 120 255
-116.515400 -222.072161 -284.091661 0 120 255
-114.675988 -222.145406 -285.744983 0 120 255
-112.836576 -222.218652 -287.398304 0 120 255
-110.957793 -222.293159 -289.004923 0 120 255
-109.019171 -222.369583 -290.540559 0 120 255
-107.080549 -222.446007 -292.076195 0 120 255
-105.141927 -222.522431 -293.611830 0 120 255
-103.172640 -222.599812 -295.106284 0 120 255
-101.147535 -222.678934 -296.525778 0 120 255
-99.122430 -222.758056 -297.945272 0 120 255
-97.097325 -222.837178 -299.364766 0 120 255
-95.048830 -222.917021 -300.748816 0 120 255
-92.948814 -222.998451 -302.054792 0 120 255
-90.848797 -223.079881 -303.360768 0 120 255
-88.748781 -223.161311 -304.666744 0 120 255
-86.631409 -223.243264 -305.943109 0 120 255
-84.467080 -223.326630 -307.139353 0 120 255
-82.302750 -223.409996 -308.335597 0 120 255
-80.138420 -223.493362 -309.531841 0 120 255
-77.961630 -223.577091 -310.704179 0 120 255
-75.742506 -223.662052 -311.795299 0 120 255
-73.523381 -223.747014 -312.886419 0 120 255
-71.304257 -223.831975 -313.977539 0 120 255
-69.076577 -223.917179 -315.050215 0 120 255
-66.811185 -224.003448 -316.041592 0 120 255
-64.545793 -224.089718 -317.032969 0 120 255
-62.280401 -224.175987 -318.024347 0 120 255
-60.009489 -224.262408 -319.002358 0 120 255
-57.705337 -224.349738 -319.899870 0 120 255
-55.401184 -224.437068 -320.797382 0 120 255
-53.097031 -224.524397 -321.694893 0 120 255
-50.789655 -224.611811 -322.583634 0 120 255
-48.453216 -224.699984 -323.393296 0 120 255
-46.116777 -224.788157 -324.202958 0 120 255
-43.780339 -224.876329 -325.012620 0 120 255
-41.442374 -224.964540 -325.817613 0 120 255
-39.079293 -225.053373 -326.545784 0 120 255
-36.716213 -225.142207 -327.273956 0 120 255
-34.353133 -225.231040 -328.002127 0 120 255
-31.989731 -225.319882 -328.729194 0 120 255
-29.604862 -225.409238 -329.382406 0 120 255
-27.219992 -225.498595 -330.035618 0 120 255
-24.835123 -225.587951 -330.688830 0 120 255
-22.450253 -225.677308 -331.342042 0 120 255
-20.048211 -225.767047 -331.928796 0 120 255
-17.645678 -225.856797 -332.513647 0 120 255
-15.243144 -225.946547 -333.098497 0 120 255
-12.840611 -226.036297 -333.683348 0 120 255
-10.424877 -226.126301 -334.210738 0 120 255
-8.008143 -226.216324 -334.733776 0 120 255
-5.591410 -226.306347 -335.256814 0 120 255
-3.174677 -226.396370 -335.779852 0 120 255
-0.747899 -226.486567 -336.253736 0 120 255
1.680159 -226.576786 -336.721359 0 120 255
4.108216 -226.667005 -337.188982 0 120 255
6.536273 -226.757224 -337.656605 0 120 255
8.971853 -226.847570 -338.082914 0 120 255
11.408817 -226.937939 -338.501614 0 120 255
13.845782 -227.028309 -338.920314 0 120 255
16.282747 -227.118678 -339.339013 0 120 255
18.725257 -227.209111 -339.723652 0 120 255
21.169136 -227.299560 -340.099877 0 120 255
23.613016 -227.390008 -340.476102 0 120 255
26.056895 -227.480457 -340.852327 0 120 255
28.504804 -227.570945 -341.201016 0 120 255
30.953989 -227.661445 -341.540977 0 120 255
33.403175 -227.751945 -341.880939 0 120 255
35.852360 -227.842445 -342.220901 0 120 255
38.304415 -227.932922 -342.539219 0 120 255
40.757603 -228.023389 -342.848985 0 120 255
43.210792 -228.113857 -343.158751 0 120 255
45.663980 -228.204324 -343.468518 0 120 255
48.119158 -228.294694 -343.761904 0 120 255
50.575298 -228.385016 -344.047377 0 120 255
53.031437 -228.475339 -344.332850 0 120 255
55.487576 -228.565661 -344.618323 0 120 255
57.945046 -228.655681 -344.892056 0 120 255
60.403292 -228.745524 -345.158946 0 120 255
62.861537 -228.835368 -345.425835 0 120 255
65.319783 -228.925211 -345.692725 0 120 255
67.778903 -229.013885 -345.951750 0 120 255
70.238632 -229.101745 -346.205296 0 120 255
72.698362 -229.189604 -346.458841 0 120 255
75.158091 -229.277464 -346.712387 0 120 255
77.618568 -229.360310 -346.960206 0 120 255
80.079664 -229.439003 -347.203282 0 120 255
82.540760 -229.517696 -347.446359 0 120 255
85.001857 -229.596389 -347.689435 0 120 255
87.463585 -229.666645 -347.928486 0 120 255
89.925934 -229.728618 -348.163584 0 120 255
92.388282 -229.790591 -348.398683 0 120 255
94.850631 -229.852564 -348.633782 0 120 255
97.313395 -229.904491 -348.866697 0 120 255
99.776641 -229.944730 -349.097071 0 120 255
102.239887 -229.984969 -349.327445 0 120 255
104.703133 -230.025209 -349.557819 0 120 255
107.166560 -230.054386 -349.787557 0 120 255
109.630237 -230.068282 -350.016416 0 120 255
112.093914 -230.082179 -350.245276 0 120 255
114.557591 -230.096075 -350.474136 0 120 255
117.021203 -230.098443 -350.703623 0 120 255
119.484708 -230.081810 -350.934143 0 120 255
121.948213 -230.065178 -351.164663 0 120 255
124.411718 -230.048546 -351.395183 0 120 255
126.874913 -230.020409 -351.627313 0 120 255
129.337493 -229.969469 -351.862632 0 120 255
131.800074 -229.918530 -352.097952 0 120 255
134.262655 -229.867590 -352.333271 0 120 255
136.724697 -229.805612 -352.570906 0 120 255
139.185442 -229.717004 -352.814129 0 120 255
141.646187 -229.628397 -353.057351 0 120 255
144.106932 -229.539790 -353.300573 0 120 255
146.566947 -229.440998 -353.546544 0 120 255
149.024786 -229.311786 -353.800727 0 120 255
151.482624 -229.182573 -354.054910 0 120 255
153.940462 -229.053361 -354.309093 0 120 255
156.397437 -228.915154 -354.566195 0 120 255
158.851139 -228.742812 -354.834377 0 120 255
161.304840 -228.570471 -355.102559 0 120 255
163.758541 -228.398129 -355.370741 0 120 255
166.211265 -228.218050 -355.642102 0 120 255
168.659085 -227.999176 -355.929406 0 120 255
171.106905 -227.780302 -356.216710 0 120 255
173.554725 -227.561427 -356.504015 0 120 255
176.002481 -227.340988 -356.790631 0 120 255
178.449787 -227.109542 -357.072414 0 120 255
180.897093 -226.878096 -357.354196 0 120 255
183.344398 -226.646650 -357.635979 0 120 255
185.791703 -226.415203 -357.917762 0 120 255
188.239007 -226.183745 -358.199557 0 120 255
190.686310 -225.952288 -358.481352 0 120 255
193.133613 -225.720831 -358.763147 0 120 255
195.580916 -225.489373 -359.044941 0 120 255
198.028220 -225.257920 -359.326729 0 120 255
200.475525 -225.026467 -359.608516 0 120 255
202.922829 -224.795014 -359.890303 0 120 255
205.370133 -224.563560 -360.172091 0 120 255
