ply
format ascii 1.0
element vertex 385
property float x
property float y
property float z
property uchar red
property uchar green
property uchar blue
end_header
77.430455 -42.474882 -360.397637 0 120 255
77.187548 -42.528712 -357.935887 0 120 255
76.944641 -42.582543 -355.474137 0 120 255
76.701734 -42.636373 -353.012387 0 120 255
76.458826 -42.690204 -350.550637 0 120 255
76.215955 -42.754228 -348.089129 0 120 255
75.973085 -42.818694 -345.627631 0 120 255
75.730216 -42.883160 -343.166133 0 120 255
75.487346 -42.947626 -340.704635 0 120 255
75.299138 -43.430926 -338.288690 0 120 255
75.115874 -43.952106 -335.876865 0 120 255
74.932609 -44.473285 -333.465040 0 120 255
74.749345 -44.994464 -331.053215 0 120 255
74.616449 -45.865202 -328.745309 0 120 255
74.490926 -46.787103 -326.452612 0 120 255
74.365402 -47.709004 -324.159916 0 120 255
74.239879 -48.630904 -321.867220 0 120 255
74.162204 -49.840335 -319.715128 0 120 255
74.094517 -51.109778 -317.592383 0 120 255
74.026830 -52.379222 -315.469639 0 120 255
73.959142 -53.648666 -313.346894 0 120 255
73.938281 -55.146811 -311.383480 0 120 255
73.930459 -56.708643 -309.464435 0 120 255
73.922637 -58.270474 -307.545389 0 120 255
73.914816 -59.832305 -305.626343 0 120 255
73.953946 -61.570227 -303.871717 0 120 255
74.009827 -63.370969 -302.175744 0 120 255
74.065707 -65.171710 -300.479772 0 120 255
74.121588 -66.972451 -298.783800 0 120 255
74.225307 -68.904202 -297.247679 0 120 255
74.350315 -70.894257 -295.782699 0 120 255
74.475324 -72.884313 -294.317719 0 120 255
74.600333 -74.874368 -292.852739 0 120 255
74.774452 -76.957993 -291.536636 0 120 255
74.975351 -79.092641 -290.301715 0 120 255
75.176250 -81.227290 -289.066795 0 120 255
75.377148 -83.361939 -287.831874 0 120 255
75.628480 -85.559833 -286.730948 0 120 255
75.913098 -87.799468 -285.718456 0 120 255
76.197715 -90.039104 -284.705964 0 120 255
76.482332 -92.278739 -283.693473 0 120 255
76.818458 -94.557593 -282.798052 0 120 255
77.195400 -96.867524 -281.995401 0 120 255
77.572342 -99.177455 -281.192751 0 120 255
77.949284 -101.487385 -280.390101 0 120 255
78.378301 -103.817864 -279.686815 0 120 255
78.856631 -106.167801 -279.077627 0 120 255
79.334961 -108.517738 -278.468438 0 120 255
79.813290 -110.867675 -277.859249 0 120 255
80.343555 -113.223975 -277.331871 0 120 255
80.932486 -115.587465 -276.896910 0 120 255
81.521418 -117.950954 -276.461949 0 120 255
82.110350 -120.314444 -276.026988 0 120 255
82.750192 -122.673813 -275.657025 0 120 255
83.458702 -125.027627 -275.374732 0 120 255
84.167212 -127.381441 -275.092439 0 120 255
84.875722 -129.735254 -274.810146 0 120 255
85.633126 -132.077515 -274.577254 0 120 255
86.469572 -134.401102 -274.424222 0 120 255
87.306018 -136.724688 -274.271190 0 120 255
88.142465 -139.048274 -274.118159 0 120 255
89.024738 -141.355391 -274.000425 0 120 255
89.996433 -143.630371 -273.951569 0 120 255
90.968128 -145.905352 -273.902713 0 120 255
91.939823 -148.180332 -273.853857 0 120 255
92.953232 -150.436027 -273.827963 0 120 255
94.065973 -152.645799 -273.856747 0 120 255
95.178715 -154.855571 -273.885532 0 120 255
96.291456 -157.065343 -273.914316 0 120 255
97.440820 -159.254797 -273.955716 0 120 255
98.698359 -161.384239 -274.034378 0 120 255
99.955898 -163.513680 -274.113041 0 120 255
101.213437 -165.643122 -274.191704 0 120 255
102.501692 -167.752748 -274.274792 0 120 255
103.905261 -169.787979 -274.374497 0 120 255
105.308829 -171.823211 -274.474201 0 120 255
106.712398 -173.858442 -274.573906 0 120 255
108.140184 -175.875711 -274.672166 0 120 255
109.687910 -177.804015 -274.763277 0 120 255
111.235635 -179.732320 -274.854387 0 120 255
112.783360 -181.660625 -274.945497 0 120 255
114.348550 -183.574006 -275.031738 0 120 255
116.034980 -185.383790 -275.084183 0 120 255
117.721410 -187.193574 -275.136628 0 120 255
119.407839 -189.003358 -275.189073 0 120 255
121.105127 -190.802309 -275.235745 0 120 255
122.920738 -192.483204 -275.219519 0 120 255
124.736348 -194.164100 -275.203292 0 120 255
126.551958 -195.844995 -275.187065 0 120 255
128.372461 -197.520037 -275.166679 0 120 255
130.303321 -199.063037 -275.052462 0 120 255
132.234181 -200.606037 -274.938245 0 120 255
134.165041 -202.149037 -274.824029 0 120 255
136.096002 -203.691884 -274.709680 0 120 255
138.123485 -205.089649 -274.469516 0 120 255
140.150968 -206.487414 -274.229353 0 120 255
142.178451 -207.885180 -273.989189 0 120 255
144.205934 -209.282945 -273.749026 0 120 255
146.303792 -210.536066 -273.363247 0 120 255
148.404592 -211.783139 -272.971380 0 120 255
150.505393 -213.030212 -272.579514 0 120 255
152.606193 -214.277286 -272.187647 0 120 255
154.748751 -215.383001 -271.635589 0 120 255
156.894997 -216.476235 -271.069387 0 120 255
159.041242 -217.569469 -270.503185 0 120 255
161.187487 -218.662703 -269.936982 0 120 255
163.345577 -219.620329 -269.201351 0 120 255
165.505311 -220.559119 -268.442185 0 120 255
167.665046 -221.497909 -267.683019 0 120 255
169.824781 -222.436698 -266.923853 0 120 255
171.966194 -223.248117 -265.991636 0 120 255
174.104049 -224.034792 -265.025802 0 120 255
176.241903 -224.821467 -264.059968 0 120 255
178.379757 -225.608142 -263.094133 0 120 255
180.470070 -226.277919 -261.957219 0 120 255
182.548254 -226.917874 -260.776659 0 120 255
184.626439 -227.557829 -259.596100 0 120 255
186.704624 -228.197784 -258.415541 0 120 255
188.708149 -228.733320 -257.071203 0 120 255
190.687608 -229.235199 -255.674073 0 120 255
192.667067 -229.737077 -254.276942 0 120 255
194.646526 -230.238955 -252.879812 0 120 255
196.527442 -230.650443 -251.331033 0 120 255
198.369231 -231.026040 -249.722042 0 120 255
200.211020 -231.401637 -248.113050 0 120 255
202.052809 -231.777234 -246.504058 0 120 255
203.776358 -232.077556 -244.759627 0 120 255
205.443070 -232.341695 -242.950093 0 120 255
207.109782 -232.605834 -241.140559 0 120 255
208.776494 -232.869973 -239.331024 0 120 255
210.310160 -233.074442 -237.405357 0 120 255
211.767326 -233.244602 -235.412914 0 120 255
213.224491 -233.414762 -233.420471 0 120 255
214.681657 -233.584922 -231.428029 0 120 255
215.996272 -233.710907 -229.340758 0 120 255
217.213640 -233.806758 -227.188795 0 120 255
218.431008 -233.902609 -225.036833 0 120 255
219.648377 -233.998460 -222.884871 0 120 255
220.719037 -234.065856 -220.660231 0 120 255
221.671569 -234.110339 -218.377072 0 120 255
222.624100 -234.154823 -216.093912 0 120 255
223.576632 -234.199306 -213.810752 0 120 255
224.383587 -234.228936 -211.476805 0 120 255
225.052494 -234.244480 -209.094698 0 120 255
225.721401 -234.260023 -206.712591 0 120 255
226.390308 -234.275567 -204.330483 0 120 255
226.919426 -234.284452 -201.918187 0 120 255
227.292406 -234.285898 -199.472170 0 120 255
227.665385 -234.287344 -197.026153 0 120 255
228.038364 -234.288790 -194.580136 0 120 255
228.281385 -234.286198 -192.122380 0 120 255
228.352997 -234.278281 -189.649138 0 120 255
228.424609 -234.270364 -187.175897 0 120 255
228.496220 -234.262447 -184.702655 0 120 255
228.450279 -234.250520 -182.233204 0 120 255
228.220402 -234.232317 -179.769682 0 120 255
227.990525 -234.214114 -177.306161 0 120 255
227.760648 -234.195912 -174.842639 0 120 255
227.427404 -234.174066 -172.395168 0 120 255
226.901009 -234.145414 -169.977690 0 120 255
226.374614 -234.116763 -167.560212 0 120 255
225.848220 -234.088111 -165.142733 0 120 255
225.233834 -234.056485 -162.750083 0 120 255
224.421024 -234.018154 -160.413422 0 120 255
223.608215 -233.979823 -158.076761 0 120 255
222.795405 -233.941493 -155.740100 0 120 255
221.910375 -233.900770 -153.433534 0 120 255
220.825808 -233.853441 -151.210115 0 120 255
219.741241 -233.806111 -148.986697 0 120 255
218.656675 -233.758782 -146.763279 0 120 255
217.515334 -233.709581 -144.571858 0 120 255
216.177560 -233.653905 -142.491143 0 120 255
214.839786 -233.598229 -140.410427 0 120 255
213.502012 -233.542553 -138.329712 0 120 255
212.121977 -233.485470 -136.279808 0 120 255
210.552782 -233.422088 -134.367814 0 120 255
208.983586 -233.358706 -132.455820 0 120 255
207.414390 -233.295323 -130.543826 0 120 255
205.815998 -233.230957 -128.658755 0 120 255
204.039636 -233.160591 -126.937796 0 120 255
202.263274 -233.090225 -125.216837 0 120 255
200.486911 -233.019859 -123.495878 0 120 255
198.692585 -232.948887 -121.795698 0 120 255
196.735103 -232.872408 -120.284232 0 120 255
194.777621 -232.795929 -118.772766 0 120 255
192.820140 -232.719449 -117.261299 0 120 255
190.853824 -232.642683 -115.762692 0 120 255
188.742391 -232.561197 -114.475321 0 120 255
186.630957 -232.479712 -113.187951 0 120 255
184.519524 -232.398226 -111.900580 0 120 255
182.406132 -232.316682 -110.616855 0 120 255
180.168433 -232.231401 -109.564455 0 120 255
177.930735 -232.146121 -108.512055 0 120 255
175.693036 -232.060840 -107.459655 0 120 255
173.455337 -231.975560 -106.407255 0 120 255
171.121626 -231.887643 -105.590914 0 120 255
168.785309 -231.799654 -104.780978 0 120 255
166.448993 -231.711666 -103.971041 0 120 255
164.112676 -231.623677 -103.161105 0 120 255
161.709864 -231.534113 -102.581121 0 120 255
159.302173 -231.444432 -102.018009 0 120 255
156.894482 -231.354752 -101.454898 0 120 255
154.486791 -231.265072 -100.891786 0 120 255
152.039221 -231.174743 -100.549578 0 120 255
149.586705 -231.084333 -100.234770 0 120 255
147.134188 -230.993923 -99.919963 0 120 255
144.681672 -230.903513 -99.605155 0 120 255
142.212876 -230.813275 -99.499934 0 120 255
139.741153 -230.723069 -99.432386 0 120 255
137.269430 -230.632862 -99.364839 0 120 255
134.797707 -230.542656 -99.297291 0 120 255
132.330285 -230.453333 -99.426283 0 120 255
129.863901 -230.364223 -99.602695 0 120 255
127.397516 -230.275113 -99.779106 0 120 255
124.931132 -230.186003 -99.955517 0 120 255
122.486680 -230.098355 -100.314198 0 120 255
120.049017 -230.011160 -100.729303 0 120 255
117.611355 -229.923964 -101.144407 0 120 255
115.173692 -229.836769 -101.559512 0 120 255
112.772741 -229.751529 -102.141738 0 120 255
110.385954 -229.667044 -102.788440 0 120 255
107.999167 -229.582558 -103.435142 0 120 255
105.612380 -229.498073 -104.081844 0 120 255
103.274345 -229.415921 -104.879981 0 120 255
100.959293 -229.334870 -105.749509 0 120 255
98.644241 -229.253819 -106.619036 0 120 255
96.329189 -229.172767 -107.488564 0 120 255
94.072318 -229.094337 -108.493617 0 120 255
91.848512 -229.017396 -109.575689 0 120 255
89.624706 -228.940455 -110.657761 0 120 255
87.400899 -228.863514 -111.739833 0 120 255
85.242224 -228.789386 -112.941555 0 120 255
83.127759 -228.717168 -114.224495 0 120 255
81.013293 -228.644949 -115.507435 0 120 255
78.898828 -228.572731 -116.790375 0 120 255
76.854081 -228.503440 -118.177341 0 120 255
74.865524 -228.436507 -119.648149 0 120 255
72.876968 -228.369574 -121.118957 0 120 255
70.888411 -228.302641 -122.589765 0 120 255
68.971957 -228.238662 -124.149482 0 120 255
67.124286 -228.177501 -125.794013 0 120 255
65.276614 -228.116339 -127.438545 0 120 255
63.428943 -228.055178 -129.083076 0 120 255
61.653751 -227.996934 -130.802149 0 120 255
59.960339 -227.941983 -132.605326 0 120 255
58.266926 -227.887032 -134.408502 0 120 255
56.573513 -227.832080 -136.211679 0 120 255
54.951108 -227.779943 -138.075938 0 120 255
53.423624 -227.731568 -140.021848 0 120 255
51.896140 -227.683193 -141.967758 0 120 255
50.368656 -227.634818 -143.913668 0 120 255
48.909064 -227.589095 -145.908286 0 120 255
47.557449 -227.547589 -147.980369 0 120 255
46.205834 -227.506083 -150.052452 0 120 255
44.854218 -227.464578 -152.124534 0 120 255
43.565953 -227.425515 -154.234182 0 120 255
42.398422 -227.391108 -156.415420 0 120 255
41.230892 -227.356700 -158.596659 0 120 255
40.063361 -227.322293 -160.777897 0 120 255
38.953419 -227.290078 -162.986892 0 120 255
37.976433 -227.262926 -165.259969 0 120 255
36.999448 -227.235773 -167.533045 0 120 255
36.022462 -227.208621 -169.806121 0 120 255
35.096305 -227.183390 -172.098564 0 120 255
34.314557 -227.163621 -174.446029 0 120 255
33.532809 -227.143851 -176.793494 0 120 255
32.751061 -227.124082 -179.140959 0 120 255
32.012633 -227.105937 -181.500881 0 120 255
31.429200 -227.093606 -183.905370 0 120 255
30.845767 -227.081274 -186.309859 0 120 255
30.262335 -227.068943 -188.714348 0 120 255
29.714203 -227.057925 -191.125882 0 120 255
29.330721 -227.053031 -193.570269 0 120 255
28.947238 -227.048137 -196.014657 0 120 255
28.563756 -227.043244 -198.459045 0 120 255
28.207213 -227.039342 -200.906542 0 120 255
28.023789 -227.041817 -203.374023 0 120 255
27.840366 -227.044291 -205.841504 0 120 255
27.656942 -227.046766 -208.308985 0 120 255
27.491957 -227.049915 -210.777092 0 120 255
27.507325 -227.059658 -213.251316 0 120 255
27.522692 -227.069402 -215.725539 0 120 255
27.538060 -227.079145 -218.199763 0 120 255
27.563411 -227.089251 -220.673526 0 120 255
27.775118 -227.106122 -223.138685 0 120 255
27.986824 -227.122993 -225.603844 0 120 255
28.198531 -227.139865 -228.069003 0 120 255
28.411961 -227.156798 -230.533945 0 120 255
28.816344 -227.180571 -232.974851 0 120 255
29.220726 -227.204343 -235.415758 0 120 255
29.625109 -227.228116 -237.856664 0 120 255
30.029492 -227.251889 -240.297570 0 120 255
30.615506 -227.282134 -242.701028 0 120 255
31.207713 -227.312599 -245.103210 0 120 255
31.799920 -227.343065 -247.505392 0 120 255
32.392127 -227.373531 -249.907573 0 120 255
33.152669 -227.409933 -252.261268 0 120 255
33.926839 -227.446816 -254.611037 0 120 255
34.701009 -227.483699 -256.960806 0 120 255
35.475179 -227.520582 -259.310575 0 120 255
36.403955 -227.562901 -261.602755 0 120 255
37.353185 -227.605940 -263.887318 0 120 255
38.302415 -227.648978 -266.171880 0 120 255
39.251645 -227.692016 -268.456442 0 120 255
40.341647 -227.739937 -270.676166 0 120 255
41.458221 -227.788780 -272.883651 0 120 255
42.574796 -227.837622 -275.091136 0 120 255
43.691370 -227.886465 -277.298620 0 120 255
44.934944 -227.939683 -279.435794 0 120 255
46.210418 -227.994000 -281.555305 0 120 255
47.485892 -228.048317 -283.674816 0 120 255
48.761367 -228.102634 -285.794328 0 120 255
50.150303 -228.160824 -287.839735 0 120 255
51.575615 -228.220256 -289.861384 0 120 255
53.000928 -228.279689 -291.883034 0 120 255
54.426240 -228.339121 -293.904683 0 120 255
55.951854 -228.401972 -295.850020 0 120 255
57.517406 -228.466184 -297.764971 0 120 255
59.082958 -228.530397 -299.679922 0 120 255
60.648510 -228.594609 -301.594873 0 120 255
62.301780 -228.661863 -303.432716 0 120 255
63.997631 -228.730594 -305.233126 0 120 255
65.693482 -228.799324 -307.033537 0 120 255
67.389333 -228.868055 -308.833948 0 120 255
69.160911 -228.939205 -310.557835 0 120 255
70.976745 -229.011769 -312.237000 0 120 255
72.792579 -229.084332 -313.916165 0 120 255
74.608412 -229.156896 -315.595331 0 120 255
76.488685 -229.230888 -317.199833 0 120 255
78.413912 -229.305875 -318.752247 0 120 255
80.339140 -229.380863 -320.304660 0 120 255
82.264368 -229.455850 -321.857074 0 120 255
84.243169 -229.529124 -323.338470 0 120 255
86.266348 -229.600980 -324.761037 0 120 255
88.289528 -229.672835 -326.183604 0 120 255
90.312707 -229.744690 -327.606170 0 120 255
92.379361 -229.810304 -328.962856 0 120 255
94.488672 -229.869796 -330.254903 0 120 255
96.597982 -229.929288 -331.546949 0 120 255
98.707292 -229.988780 -332.838996 0 120 255
100.851284 -230.038786 -334.070737 0 120 255
103.035574 -230.077769 -335.232403 0 120 255
105.219865 -230.116752 -336.394069 0 120 255
107.404156 -230.155736 -337.555735 0 120 255
109.615577 -230.183472 -338.662832 0 120 255
111.864418 -230.195697 -339.694666 0 120 255
114.113258 -230.207921 -340.726500 0 120 255
116.362098 -230.220146 -341.758334 0 120 255
118.631605 -230.220277 -342.741498 0 120 255
120.935111 -230.200514 -343.644596 0 120 255
123.238616 -230.180751 -344.547693 0 120 255
125.542122 -230.160988 -345.450791 0 120 255
127.860847 -230.129083 -346.311169 0 120 255
130.209676 -230.073161 -347.087048 0 120 255
132.558505 -230.017239 -347.862927 0 120 255
134.907334 -229.961317 -348.638807 0 120 255
137.266882 -229.893863 -349.377888 0 120 255
139.652228 -229.798654 -350.028406 0 120 255
142.037574 -229.703446 -350.678925 0 120 255
144.422920 -229.608238 -351.329444 0 120 255
146.815365 -229.502644 -351.948991 0 120 255
149.228968 -229.366101 -352.476239 0 120 255
151.642571 -229.229557 -353.003486 0 120 255
154.056174 -229.093014 -353.530734 0 120 255
156.474071 -228.947621 -354.032690 0 120 255
158.908226 -228.768721 -354.438889 0 120 255
161.342382 -228.589822 -354.845087 0 120 255
163.776537 -228.410922 -355.251286 0 120 255
166.212914 -228.225060 -355.637861 0 120 255
168.660409 -228.004368 -355.926271 0 120 255
171.107903 -227.783676 -356.214682 0 120 255
173.555397 -227.562984 -356.503092 0 120 255
176.002864 -227.340952 -356.790675 0 120 255
178.450138 -227.109509 -357.072454 0 120 255
180.897411 -226.878066 -357.354233 0 120 255
183.344685 -226.646623 -357.636012 0 120 255
185.791959 -226.415178 -357.917791 0 120 255
188.239230 -226.183724 -358.199583 0 120 255
190.686501 -225.952270 -358.481374 0 120 255
193.133772 -225.720815 -358.763165 0 120 255
195.581043 -225.489361 -359.044956 0 120 255
198.028316 -225.257911 -359.326740 0 120 255
200.475588 -225.026461 -359.608523 0 120 255
202.922861 -224.795011 -359.890307 0 120 255
205.370133 -224.563560 -360.172091 0 120 255
