ply
format ascii 1.0
element vertex 385
property float x
property float y
property float z
property uchar red
property uchar green
property uchar blue
end_header
77.430455 -42.474882 -360.397637 0 120 255
77.187551 -42.528712 -357.935918 0 120 255
76.944647 -42.582541 -355.474199 0 120 255
76.701743 -42.636371 -353.012481 0 120 255
76.458839 -42.690201 -350.550762 0 120 255
76.213707 -42.754733 -348.089522 0 120 255
75.968478 -42.819730 -345.628304 0 120 255
75.723250 -42.884727 -343.167085 0 120 255
75.478021 -42.949724 -340.705866 0 120 255
75.070810 -43.360344 -338.302958 0 120 255
74.648866 -43.802401 -335.905353 0 120 255
74.226922 -44.244458 -333.507749 0 120 255
73.804977 -44.686515 -331.110144 0 120 255
73.260699 -45.369628 -328.797739 0 120 255
72.698363 -46.088325 -326.497911 0 120 255
72.136026 -46.807022 -324.198082 0 120 255
71.573689 -47.525720 -321.898254 0 120 255
70.928865 -48.413593 -319.682648 0 120 255
70.266710 -49.337007 -317.484736 0 120 255
69.604556 -50.260422 -315.286824 0 120 255
68.942402 -51.183837 -313.088913 0 120 255
68.235908 -52.228782 -310.961745 0 120 255
67.517032 -53.307664 -308.854331 0 120 255
66.798156 -54.386546 -306.746918 0 120 255
66.079280 -55.465427 -304.639505 0 120 255
65.349758 -56.638566 -302.587874 0 120 255
64.616441 -57.845289 -300.556120 0 120 255
63.883125 -59.052013 -298.524366 0 120 255
63.149809 -60.258737 -296.492612 0 120 255
62.433280 -61.546769 -294.506271 0 120 255
61.724187 -62.870817 -292.540046 0 120 255
61.015094 -64.194865 -290.573820 0 120 255
60.306000 -65.518913 -288.607594 0 120 255
59.634048 -66.919507 -286.683038 0 120 255
58.982195 -68.361529 -284.781034 0 120 255
58.330342 -69.803550 -282.879029 0 120 255
57.678490 -71.245572 -280.977025 0 120 255
57.077065 -72.762563 -279.118965 0 120 255
56.508604 -74.328561 -277.289632 0 120 255
55.940143 -75.894560 -275.460298 0 120 255
55.371682 -77.460558 -273.630965 0 120 255
54.860618 -79.099726 -271.851880 0 120 255
54.394547 -80.796252 -270.112186 0 120 255
53.928476 -82.492778 -268.372492 0 120 255
53.462405 -84.189305 -266.632798 0 120 255
53.055612 -85.955075 -264.951256 0 120 255
52.704327 -87.785688 -263.324168 0 120 255
52.353042 -89.616301 -261.697080 0 120 255
52.001757 -91.446914 -260.069992 0 120 255
51.707997 -93.340115 -258.508394 0 120 255
51.478516 -95.303253 -257.019978 0 120 255
51.249035 -97.266392 -255.531561 0 120 255
51.019554 -99.229531 -254.043145 0 120 255
50.843610 -101.246129 -252.625393 0 120 255
50.739168 -103.334125 -251.302017 0 120 255
50.634725 -105.422121 -249.978641 0 120 255
50.530283 -107.510117 -248.655265 0 120 255
50.474346 -109.640740 -247.404622 0 120 255
50.496170 -111.839702 -246.270581 0 120 255
50.517995 -114.038664 -245.136540 0 120 255
50.539820 -116.237626 -244.002499 0 120 255
50.604896 -118.467660 -242.939815 0 120 255
50.753842 -120.757947 -242.015498 0 120 255
50.902788 -123.048233 -241.091180 0 120 255
51.051733 -125.338520 -240.166863 0 120 255
51.238918 -127.648586 -239.309209 0 120 255
51.516830 -130.005585 -238.609722 0 120 255
51.794742 -132.362583 -237.910235 0 120 255
52.072654 -134.719582 -237.210749 0 120 255
52.384161 -137.086206 -236.570367 0 120 255
52.794877 -139.481257 -236.104530 0 120 255
53.205593 -141.876308 -235.638693 0 120 255
53.616309 -144.271358 -235.172857 0 120 255
54.056194 -146.667733 -234.756382 0 120 255
54.606031 -149.069097 -234.525976 0 120 255
55.155868 -151.470462 -234.295571 0 120 255
55.705704 -153.871827 -234.065165 0 120 255
56.280194 -156.268602 -233.873003 0 120 255
56.977977 -158.642430 -233.872100 0 120 255
57.675760 -161.016257 -233.871197 0 120 255
58.373543 -163.390085 -233.870293 0 120 255
59.090998 -165.756170 -233.896070 0 120 255
59.947567 -168.067502 -234.110526 0 120 255
60.804137 -170.378834 -234.324982 0 120 255
61.660706 -172.690167 -234.539438 0 120 255
62.531176 -174.993559 -234.769577 0 120 255
63.558410 -177.207399 -235.176588 0 120 255
64.585645 -179.421239 -235.583599 0 120 255
65.612880 -181.635080 -235.990611 0 120 255
66.647278 -183.843756 -236.403949 0 120 255
67.856670 -185.926263 -236.971835 0 120 255
69.066061 -188.008770 -237.539722 0 120 255
70.275452 -190.091277 -238.107609 0 120 255
71.484844 -192.173784 -238.675496 0 120 255
72.885248 -194.094023 -239.363475 0 120 255
74.286131 -196.013857 -240.051754 0 120 255
75.687013 -197.933690 -240.740033 0 120 255
77.087895 -199.853523 -241.428312 0 120 255
78.676757 -201.591720 -242.185141 0 120 255
80.274270 -203.321556 -242.945124 0 120 255
81.871784 -205.051392 -243.705108 0 120 255
83.469298 -206.781229 -244.465092 0 120 255
85.245672 -208.317416 -245.239745 0 120 255
87.038711 -209.835561 -246.015766 0 120 255
88.831749 -211.353705 -246.791786 0 120 255
90.624788 -212.871850 -247.567807 0 120 255
92.580607 -214.192388 -248.304844 0 120 255
94.559935 -215.484388 -249.036251 0 120 255
96.539262 -216.776389 -249.767659 0 120 255
98.518590 -218.068389 -250.499066 0 120 255
100.637454 -219.167212 -251.140920 0 120 255
102.784279 -220.227324 -251.764828 0 120 255
104.931105 -221.287436 -252.388736 0 120 255
107.077931 -222.347548 -253.012643 0 120 255
109.334509 -223.227020 -253.502477 0 120 255
111.619826 -224.059191 -253.957204 0 120 255
113.905143 -224.891362 -254.411930 0 120 255
116.190460 -225.723533 -254.866657 0 120 255
118.550580 -226.394907 -255.151564 0 120 255
120.935364 -227.013261 -255.380477 0 120 255
123.320148 -227.631616 -255.609390 0 120 255
125.704933 -228.249970 -255.838304 0 120 255
128.126504 -228.733159 -255.872510 0 120 255
130.562980 -229.161581 -255.827823 0 120 255
132.999456 -229.590003 -255.783137 0 120 255
135.435932 -230.018426 -255.738451 0 120 255
137.870612 -230.341152 -255.486285 0 120 255
140.304413 -230.612118 -255.132516 0 120 255
142.738213 -230.883084 -254.778748 0 120 255
145.172013 -231.154051 -254.424979 0 120 255
147.567479 -231.350655 -253.863169 0 120 255
149.940514 -231.503749 -253.179631 0 120 255
152.313550 -231.656844 -252.496093 0 120 255
154.686585 -231.809938 -251.812556 0 120 255
156.989267 -231.919130 -250.931702 0 120 255
159.243131 -231.997859 -249.913929 0 120 255
161.496994 -232.076588 -248.896157 0 120 255
163.750857 -232.155317 -247.878384 0 120 255
165.908609 -232.213595 -246.683010 0 120 255
167.987620 -232.255118 -245.342134 0 120 255
170.066631 -232.296641 -244.001259 0 120 255
172.145642 -232.338163 -242.660383 0 120 255
174.108228 -232.366271 -241.165930 0 120 255
175.958401 -232.381427 -239.523192 0 120 255
177.808575 -232.396582 -237.880454 0 120 255
179.658748 -232.411737 -236.237715 0 120 255
181.378622 -232.418139 -234.469482 0 120 255
182.950322 -232.414588 -232.558539 0 120 255
184.522022 -232.411036 -230.647595 0 120 255
186.093722 -232.407485 -228.736652 0 120 255
187.528876 -232.399821 -226.730412 0 120 255
188.780765 -232.386638 -224.596270 0 120 255
190.032654 -232.373454 -222.462129 0 120 255
191.284543 -232.360271 -220.327988 0 120 255
192.400960 -232.345891 -218.128150 0 120 255
193.301785 -232.329609 -215.823761 0 120 255
194.202611 -232.313327 -213.519373 0 120 255
195.103437 -232.297044 -211.214984 0 120 255
195.876379 -232.281071 -208.871841 0 120 255
196.406207 -232.265687 -206.455024 0 120 255
196.936035 -232.250302 -204.038207 0 120 255
197.465863 -232.234917 -201.621390 0 120 255
197.880595 -232.220322 -199.188545 0 120 255
198.031049 -232.207540 -196.718897 0 120 255
198.181503 -232.194757 -194.249250 0 120 255
198.331957 -232.181975 -191.779602 0 120 255
198.383746 -232.169826 -189.311466 0 120 255
198.157548 -232.159463 -186.847590 0 120 255
197.931350 -232.149101 -184.383714 0 120 255
197.705152 -232.138738 -181.919838 0 120 255
197.398743 -232.128544 -179.469416 0 120 255
196.808583 -232.118943 -177.066588 0 120 255
196.218423 -232.109343 -174.663761 0 120 255
195.628263 -232.099743 -172.260934 0 120 255
194.976837 -232.089823 -169.877986 0 120 255
194.043874 -232.078433 -167.586391 0 120 255
193.110912 -232.067044 -165.294796 0 120 255
192.177949 -232.055654 -163.003200 0 120 255
191.201863 -232.043609 -160.732847 0 120 255
189.953999 -232.027437 -158.596370 0 120 255
188.706135 -232.011265 -156.459893 0 120 255
187.458272 -231.995092 -154.323416 0 120 255
186.183592 -231.978186 -152.205200 0 120 255
184.653674 -231.954297 -150.260787 0 120 255
183.123756 -231.930408 -148.316375 0 120 255
181.593838 -231.906518 -146.371963 0 120 255
180.050855 -231.882086 -144.439337 0 120 255
178.275023 -231.847982 -142.716776 0 120 255
176.499191 -231.813878 -140.994214 0 120 255
174.723359 -231.779774 -139.271653 0 120 255
172.945218 -231.745537 -137.551809 0 120 255
170.961365 -231.699515 -136.073915 0 120 255
168.977513 -231.653494 -134.596021 0 120 255
166.993661 -231.607472 -133.118126 0 120 255
165.009808 -231.561450 -131.640232 0 120 255
162.861567 -231.503198 -130.415197 0 120 255
160.708069 -231.444556 -129.198247 0 120 255
158.554572 -231.385913 -127.981297 0 120 255
156.401074 -231.327271 -126.764347 0 120 255
154.125382 -231.257389 -125.798880 0 120 255
151.840049 -231.186620 -124.853256 0 120 255
149.554717 -231.115852 -123.907632 0 120 255
147.269384 -231.045083 -122.962007 0 120 255
144.899691 -230.965132 -122.261020 0 120 255
142.519002 -230.883985 -121.591923 0 120 255
140.138312 -230.802837 -120.922825 0 120 255
137.757623 -230.721689 -120.253728 0 120 255
135.325750 -230.634602 -119.818219 0 120 255
132.884304 -230.546405 -119.426399 0 120 255
130.442859 -230.458208 -119.034579 0 120 255
128.001413 -230.370010 -118.642758 0 120 255
125.537265 -230.280033 -118.470499 0 120 255
123.067449 -230.189611 -118.353064 0 120 255
120.597633 -230.099189 -118.235629 0 120 255
118.127817 -230.008767 -118.118194 0 120 255
115.659375 -229.919023 -118.204496 0 120 255
113.191373 -229.829496 -118.355849 0 120 255
110.723370 -229.739969 -118.507202 0 120 255
108.255368 -229.650441 -118.658554 0 120 255
105.808762 -229.562490 -118.996657 0 120 255
103.370652 -229.475164 -119.408908 0 120 255
100.932541 -229.387839 -119.821160 0 120 255
98.494431 -229.300513 -120.233411 0 120 255
96.093970 -229.215222 -120.814732 0 120 255
93.711748 -229.130916 -121.477959 0 120 255
91.329526 -229.046611 -122.141187 0 120 255
88.947304 -228.962305 -122.804414 0 120 255
86.615497 -228.880407 -123.618735 0 120 255
84.313103 -228.799913 -124.521210 0 120 255
82.010709 -228.719420 -125.423686 0 120 255
79.708315 -228.638926 -126.326161 0 120 255
77.465924 -228.561096 -127.361877 0 120 255
75.265325 -228.485122 -128.490394 0 120 255
73.064726 -228.409147 -129.618911 0 120 255
70.864126 -228.333172 -130.747428 0 120 255
68.730240 -228.260047 -131.991761 0 120 255
66.651513 -228.189277 -133.331852 0 120 255
64.572786 -228.118506 -134.671943 0 120 255
62.494059 -228.047736 -136.012035 0 120 255
60.486169 -227.979915 -137.451204 0 120 255
58.547606 -227.914980 -138.987341 0 120 255
56.609043 -227.850045 -140.523478 0 120 255
54.670480 -227.785110 -142.059614 0 120 255
52.804518 -227.723131 -143.678929 0 120 255
51.022622 -227.664575 -145.394557 0 120 255
49.240727 -227.606019 -147.110184 0 120 255
47.458832 -227.547464 -148.825812 0 120 255
45.749186 -227.491792 -150.609738 0 120 255
44.138712 -227.440081 -152.487412 0 120 255
42.528238 -227.388369 -154.365086 0 120 255
40.917765 -227.336658 -156.242760 0 120 255
39.377306 -227.287699 -158.175026 0 120 255
37.951287 -227.243239 -160.196524 0 120 255
36.525267 -227.198779 -162.218021 0 120 255
35.099248 -227.154319 -164.239518 0 120 255
33.739326 -227.112426 -166.303192 0 120 255
32.509025 -227.075569 -168.449574 0 120 255
31.278723 -227.038712 -170.595957 0 120 255
30.048421 -227.001855 -172.742339 0 120 255
28.878829 -226.967323 -174.919890 0 120 255
27.853695 -226.938326 -177.171605 0 120 255
26.828562 -226.909329 -179.423319 0 120 255
25.803429 -226.880331 -181.675034 0 120 255
24.832348 -226.853385 -183.948417 0 120 255
24.019924 -226.832459 -186.285400 0 120 255
23.207501 -226.811532 -188.622383 0 120 255
22.395078 -226.790606 -190.959366 0 120 255
21.629017 -226.771421 -193.310122 0 120 255
21.034911 -226.758690 -195.711962 0 120 255
20.440806 -226.745960 -198.113802 0 120 255
19.846700 -226.733230 -200.515642 0 120 255
19.290455 -226.721908 -202.925034 0 120 255
18.918233 -226.717427 -205.371131 0 120 255
18.546010 -226.712946 -207.817227 0 120 255
18.173788 -226.708465 -210.263324 0 120 255
17.830370 -226.705041 -212.712474 0 120 255
17.681544 -226.708752 -215.182251 0 120 255
17.532718 -226.712462 -217.652027 0 120 255
17.383893 -226.716173 -220.121804 0 120 255
17.254510 -226.720592 -222.591872 0 120 255
17.328478 -226.732418 -225.064998 0 120 255
17.402445 -226.744245 -227.538123 0 120 255
17.476413 -226.756072 -230.011248 0 120 255
17.560416 -226.768261 -232.483621 0 120 255
17.854477 -226.788039 -234.940265 0 120 255
18.148538 -226.807817 -237.396908 0 120 255
18.442598 -226.827595 -239.853551 0 120 255
18.737509 -226.847403 -242.310054 0 120 255
19.246939 -226.874897 -244.731146 0 120 255
19.756368 -226.902390 -247.152237 0 120 255
20.265798 -226.929884 -249.573329 0 120 255
20.775228 -226.957378 -251.994421 0 120 255
21.485479 -226.991998 -254.363939 0 120 255
22.203600 -227.026897 -256.731436 0 120 255
22.921721 -227.061796 -259.098934 0 120 255
23.639842 -227.096695 -261.466431 0 120 255
24.542276 -227.138063 -263.769161 0 120 255
25.460599 -227.179989 -266.066308 0 120 255
26.378922 -227.221914 -268.363455 0 120 255
27.297245 -227.263840 -270.660602 0 120 255
28.382707 -227.311563 -272.882498 0 120 255
29.491182 -227.360085 -275.094033 0 120 255
30.599658 -227.408607 -277.305568 0 120 255
31.708133 -227.457129 -279.517103 0 120 255
32.966297 -227.510797 -281.645577 0 120 255
34.253552 -227.565465 -283.757909 0 120 255
35.540807 -227.620133 -285.870241 0 120 255
36.828062 -227.674801 -287.982572 0 120 255
38.247675 -227.733958 -290.006590 0 120 255
39.701299 -227.794269 -292.007914 0 120 255
41.154923 -227.854580 -294.009238 0 120 255
42.608547 -227.914891 -296.010562 0 120 255
44.177625 -227.979067 -297.920737 0 120 255
45.784401 -228.044506 -299.801148 0 120 255
47.391177 -228.109945 -301.681560 0 120 255
48.997953 -228.175384 -303.561971 0 120 255
50.703997 -228.244104 -305.350619 0 120 255
52.450174 -228.314151 -307.102166 0 120 255
54.196352 -228.384199 -308.853712 0 120 255
55.942529 -228.454246 -310.605259 0 120 255
57.772794 -228.527088 -312.266367 0 120 255
59.644417 -228.601305 -313.882993 0 120 255
61.516040 -228.675522 -315.499619 0 120 255
63.387662 -228.749739 -317.116244 0 120 255
65.329386 -228.826371 -318.645416 0 120 255
67.312547 -228.904431 -320.122893 0 120 255
69.295708 -228.982491 -321.600370 0 120 255
71.278869 -229.060550 -323.077848 0 120 255
73.319420 -229.140635 -324.472307 0 120 255
75.400404 -229.222148 -325.808278 0 120 255
77.481389 -229.303660 -327.144250 0 120 255
79.562373 -229.385172 -328.480221 0 120 255
81.689251 -229.467238 -329.739147 0 120 255
83.854473 -229.549767 -330.933701 0 120 255
86.019696 -229.632296 -332.128256 0 120 255
88.184918 -229.714825 -333.322810 0 120 255
90.385338 -229.792049 -334.448987 0 120 255
92.620548 -229.864029 -335.507577 0 120 255
94.855758 -229.936009 -336.566168 0 120 255
97.090968 -230.007989 -337.624758 0 120 255
99.352514 -230.069965 -338.623998 0 120 255
101.644857 -230.120241 -339.553834 0 120 255
103.937200 -230.170517 -340.483671 0 120 255
106.229543 -230.220793 -341.413507 0 120 255
108.541056 -230.258306 -342.292815 0 120 255
110.879153 -230.278121 -343.102055 0 120 255
113.217250 -230.297935 -343.911295 0 120 255
115.555347 -230.317749 -344.720535 0 120 255
117.906912 -230.323603 -345.487681 0 120 255
120.280736 -230.306385 -346.185264 0 120 255
122.654560 -230.289167 -346.882847 0 120 255
125.028384 -230.271949 -347.580430 0 120 255
127.411255 -230.240847 -348.243792 0 120 255
129.812085 -230.182180 -348.839217 0 120 255
132.212916 -230.123513 -349.434642 0 120 255
134.613746 -230.064846 -350.030066 0 120 255
137.020314 -229.993412 -350.598437 0 120 255
139.440732 -229.891162 -351.101510 0 120 255
141.861150 -229.788912 -351.604583 0 120 255
144.281568 -229.686662 -352.107655 0 120 255
146.705361 -229.573512 -352.590065 0 120 255
149.139234 -229.427815 -353.010772 0 120 255
151.573106 -229.282117 -353.431479 0 120 255
154.006979 -229.136420 -353.852186 0 120 255
156.442650 -228.982144 -354.257781 0 120 255
158.885136 -228.795358 -354.606109 0 120 255
161.327622 -228.608571 -354.954436 0 120 255
163.770108 -228.421785 -355.302764 0 120 255
166.213423 -228.229169 -355.640973 0 120 255
168.660883 -228.007408 -355.928592 0 120 255
171.108342 -227.785647 -356.216210 0 120 255
173.555801 -227.563886 -356.503829 0 120 255
176.003233 -227.340917 -356.790718 0 120 255
178.450476 -227.109477 -357.072493 0 120 255
180.897719 -226.878037 -357.354268 0 120 255
183.344961 -226.646596 -357.636043 0 120 255
185.792204 -226.415155 -357.917820 0 120 255
188.239444 -226.183704 -358.199607 0 120 255
190.686685 -225.952252 -358.481395 0 120 255
193.133925 -225.720801 -358.763183 0 120 255
195.581165 -225.489350 -359.044970 0 120 255
198.028407 -225.257906 -359.326750 0 120 255
200.475649 -225.026463 -359.608530 0 120 255
202.922891 -224.795019 -359.890311 0 120 255
205.370133 -224.563575 -360.172091 0 120 255
