ply
format ascii 1.0
element vertex 385
property float x
property float y
property float z
property uchar red
property uchar green
property uchar blue
end_header
77.430455 -42.474882 -360.397637 0 120 255
77.187553 -42.528711 -357.935935 0 120 255
76.944650 -42.582541 -355.474234 0 120 255
76.701748 -42.636370 -353.012533 0 120 255
76.458846 -42.690199 -350.550832 0 120 255
76.213527 -42.754577 -348.089625 0 120 255
75.968103 -42.819413 -345.628439 0 120 255
75.722680 -42.884249 -343.167253 0 120 255
75.477256 -42.949085 -340.706067 0 120 255
75.074845 -43.345462 -338.299763 0 120 255
74.658142 -43.772022 -335.898456 0 120 255
74.241438 -44.198583 -333.497149 0 120 255
73.824735 -44.625144 -331.095842 0 120 255
73.292209 -45.284497 -328.773636 0 120 255
72.742591 -45.978204 -326.463103 0 120 255
72.192972 -46.671911 -324.152570 0 120 255
71.643354 -47.365618 -321.842037 0 120 255
71.018087 -48.225959 -319.609907 0 120 255
70.376940 -49.121278 -317.394233 0 120 255
69.735794 -50.016596 -315.178560 0 120 255
69.094648 -50.911915 -312.962887 0 120 255
68.415330 -51.930768 -310.814301 0 120 255
67.725364 -52.984082 -308.684431 0 120 255
67.035398 -54.037396 -306.554561 0 120 255
66.345432 -55.090711 -304.424690 0 120 255
65.649508 -56.243179 -302.349892 0 120 255
64.951465 -57.430945 -300.294699 0 120 255
64.253421 -58.618710 -298.239505 0 120 255
63.555377 -59.806476 -296.184312 0 120 255
62.876826 -61.081703 -294.176656 0 120 255
62.206904 -62.395639 -292.190039 0 120 255
61.536981 -63.709575 -290.203422 0 120 255
60.867058 -65.023511 -288.216805 0 120 255
60.234878 -66.420079 -286.276131 0 120 255
59.623110 -67.861336 -284.360304 0 120 255
59.011343 -69.302592 -282.444478 0 120 255
58.399575 -70.743848 -280.528651 0 120 255
57.836941 -72.265219 -278.662270 0 120 255
57.306408 -73.838934 -276.828195 0 120 255
56.775875 -75.412648 -274.994121 0 120 255
56.245343 -76.986363 -273.160046 0 120 255
55.769462 -78.637007 -271.382030 0 120 255
55.336413 -80.347942 -269.647947 0 120 255
54.903365 -82.058877 -267.913865 0 120 255
54.470316 -83.769813 -266.179783 0 120 255
54.092934 -85.552302 -264.509241 0 120 255
53.767675 -87.401791 -262.898195 0 120 255
53.442416 -89.251279 -261.287148 0 120 255
53.117157 -91.100768 -259.676102 0 120 255
52.845513 -93.013882 -258.135042 0 120 255
52.633783 -94.998095 -256.672187 0 120 255
52.422052 -96.982307 -255.209333 0 120 255
52.210322 -98.966520 -253.746479 0 120 255
52.048412 -101.004264 -252.357670 0 120 255
51.953043 -103.113506 -251.067758 0 120 255
51.857675 -105.222749 -249.777845 0 120 255
51.762306 -107.331991 -248.487932 0 120 255
51.712263 -109.483313 -247.273013 0 120 255
51.734888 -111.702100 -246.178323 0 120 255
51.757512 -113.920887 -245.083633 0 120 255
51.780136 -116.139673 -243.988943 0 120 255
51.843561 -118.388674 -242.966877 0 120 255
51.986095 -120.696260 -242.085626 0 120 255
52.128629 -123.003846 -241.204375 0 120 255
52.271164 -125.311432 -240.323123 0 120 255
52.450273 -127.637870 -239.509018 0 120 255
52.716140 -130.009026 -238.854187 0 120 255
52.982008 -132.380183 -238.199355 0 120 255
53.247875 -134.751339 -237.544524 0 120 255
53.546396 -137.131279 -236.948720 0 120 255
53.941294 -139.537146 -236.527138 0 120 255
54.336192 -141.943013 -236.105557 0 120 255
54.731090 -144.348881 -235.683975 0 120 255
55.154805 -146.755397 -235.311327 0 120 255
55.687057 -149.164361 -235.122980 0 120 255
56.219308 -151.573325 -234.934634 0 120 255
56.751560 -153.982288 -234.746288 0 120 255
57.308522 -156.386181 -234.595602 0 120 255
57.988890 -158.764746 -234.632993 0 120 255
58.669257 -161.143312 -234.670384 0 120 255
59.349624 -163.521877 -234.707775 0 120 255
60.049945 -165.892388 -234.771267 0 120 255
60.891024 -168.206073 -235.018888 0 120 255
61.732103 -170.519759 -235.266509 0 120 255
62.573182 -172.833445 -235.514130 0 120 255
63.428493 -175.139004 -235.776982 0 120 255
64.443574 -177.353335 -236.210831 0 120 255
65.458655 -179.567665 -236.644679 0 120 255
66.473736 -181.781995 -237.078528 0 120 255
67.496227 -183.991051 -237.518478 0 120 255
68.697782 -186.072662 -238.105874 0 120 255
69.899337 -188.154272 -238.693271 0 120 255
71.100892 -190.235883 -239.280668 0 120 255
72.302447 -192.317494 -239.868065 0 120 255
73.699844 -194.235795 -240.567434 0 120 255
75.097631 -196.153771 -241.267026 0 120 255
76.495419 -198.071747 -241.966618 0 120 255
77.893207 -199.989723 -242.666211 0 120 255
79.483491 -201.725317 -243.425966 0 120 255
81.082511 -203.452633 -244.188452 0 120 255
82.681532 -205.179950 -244.950937 0 120 255
84.280552 -206.907266 -245.713423 0 120 255
86.062076 -208.440404 -246.482169 0 120 255
87.860456 -209.955608 -247.251493 0 120 255
89.658836 -211.470811 -248.020817 0 120 255
91.457216 -212.986015 -248.790141 0 120 255
93.420738 -214.303208 -249.512362 0 120 255
95.407945 -215.592001 -250.227827 0 120 255
97.395153 -216.880794 -250.943292 0 120 255
99.382361 -218.169586 -251.658757 0 120 255
101.509900 -219.264896 -252.277218 0 120 255
103.665390 -220.321669 -252.876357 0 120 255
105.820879 -221.378441 -253.475497 0 120 255
107.976369 -222.435213 -254.074636 0 120 255
110.240777 -223.311128 -254.533284 0 120 255
112.533547 -224.139946 -254.955347 0 120 255
114.826317 -224.968764 -255.377410 0 120 255
117.119088 -225.797582 -255.799473 0 120 255
119.484337 -226.465512 -256.046638 0 120 255
121.873360 -227.080667 -256.236433 0 120 255
124.262384 -227.695821 -256.426228 0 120 255
126.651408 -228.310976 -256.616023 0 120 255
129.073748 -228.791008 -256.607657 0 120 255
131.509520 -229.216559 -256.519395 0 120 255
133.945293 -229.642110 -256.431133 0 120 255
136.381065 -230.067661 -256.342870 0 120 255
138.810922 -230.387698 -256.045424 0 120 255
141.237896 -230.656309 -255.646025 0 120 255
143.664869 -230.924920 -255.246625 0 120 255
146.091842 -231.193532 -254.847225 0 120 255
148.476248 -231.388153 -254.239669 0 120 255
150.835858 -231.539679 -253.510867 0 120 255
153.195468 -231.691204 -252.782066 0 120 255
155.555078 -231.842729 -252.053264 0 120 255
157.840595 -231.950790 -251.128600 0 120 255
160.074919 -232.028819 -250.068609 0 120 255
162.309243 -232.106849 -249.008619 0 120 255
164.543567 -232.184879 -247.948628 0 120 255
166.678962 -232.243819 -246.713634 0 120 255
168.733639 -232.287182 -245.335847 0 120 255
170.788315 -232.330544 -243.958060 0 120 255
172.842991 -232.373907 -242.580273 0 120 255
174.779251 -232.404501 -241.051763 0 120 255
176.601616 -232.422814 -239.378287 0 120 255
178.423982 -232.441126 -237.704812 0 120 255
180.246348 -232.459439 -236.031337 0 120 255
181.937222 -232.469241 -234.235227 0 120 255
183.479113 -232.469400 -232.300170 0 120 255
185.021004 -232.469559 -230.365114 0 120 255
186.562894 -232.469719 -228.430057 0 120 255
187.967753 -232.465750 -226.402347 0 120 255
189.189323 -232.456261 -224.250708 0 120 255
190.410893 -232.446772 -222.099070 0 120 255
191.632462 -232.437283 -219.947431 0 120 255
192.718619 -232.426388 -217.732359 0 120 255
193.589986 -232.413263 -215.416669 0 120 255
194.461353 -232.400139 -213.100979 0 120 255
195.332719 -232.387014 -210.785289 0 120 255
196.076614 -232.373893 -208.432643 0 120 255
196.578950 -232.360776 -206.009968 0 120 255
197.081287 -232.347659 -203.587292 0 120 255
197.583624 -232.334542 -201.164616 0 120 255
197.971453 -232.321877 -198.727242 0 120 255
198.097193 -232.310244 -196.256224 0 120 255
198.222933 -232.298611 -193.785207 0 120 255
198.348672 -232.286978 -191.314190 0 120 255
198.376365 -232.275657 -188.845595 0 120 255
198.128706 -232.265214 -186.383801 0 120 255
197.881046 -232.254771 -183.922007 0 120 255
197.633387 -232.244327 -181.460214 0 120 255
197.306062 -232.233789 -179.012449 0 120 255
196.697895 -232.222914 -176.614140 0 120 255
196.089728 -232.212040 -174.215831 0 120 255
195.481560 -232.201166 -171.817522 0 120 255
194.812546 -232.189779 -169.439426 0 120 255
193.864954 -232.176049 -167.153873 0 120 255
192.917363 -232.162318 -164.868319 0 120 255
191.969771 -232.148588 -162.582766 0 120 255
190.979319 -232.134082 -160.318643 0 120 255
189.719926 -232.114711 -158.188989 0 120 255
188.460534 -232.095340 -156.059335 0 120 255
187.201141 -232.075969 -153.929681 0 120 255
185.915051 -232.055804 -151.818404 0 120 255
184.376328 -232.028118 -149.881024 0 120 255
182.837605 -232.000433 -147.943645 0 120 255
181.298883 -231.972748 -146.006266 0 120 255
179.747100 -231.944499 -144.080770 0 120 255
177.964738 -231.906298 -142.365078 0 120 255
176.182376 -231.868096 -140.649386 0 120 255
174.400014 -231.829895 -138.933694 0 120 255
172.615267 -231.791556 -137.220829 0 120 255
170.626710 -231.741429 -135.749434 0 120 255
168.638154 -231.691301 -134.278039 0 120 255
166.649597 -231.641173 -132.806645 0 120 255
164.661041 -231.591046 -131.335250 0 120 255
162.509378 -231.528978 -130.116434 0 120 255
160.352578 -231.466534 -128.905571 0 120 255
158.195778 -231.404090 -127.694709 0 120 255
156.038978 -231.341646 -126.483847 0 120 255
153.760909 -231.268475 -125.524261 0 120 255
151.473333 -231.194462 -124.584370 0 120 255
149.185758 -231.120449 -123.644480 0 120 255
146.898183 -231.046437 -122.704590 0 120 255
144.526915 -230.963958 -122.009267 0 120 255
142.144783 -230.880380 -121.345691 0 120 255
139.762650 -230.796803 -120.682115 0 120 255
137.380518 -230.713225 -120.018540 0 120 255
134.947708 -230.624580 -119.588678 0 120 255
132.505449 -230.534991 -119.202390 0 120 255
130.063190 -230.445401 -118.816102 0 120 255
127.620932 -230.355811 -118.429813 0 120 255
125.156413 -230.265468 -118.263395 0 120 255
122.686351 -230.174937 -118.151740 0 120 255
120.216288 -230.084406 -118.040084 0 120 255
117.746226 -229.993874 -117.928428 0 120 255
115.278031 -229.904169 -118.020936 0 120 255
112.810431 -229.814728 -118.178492 0 120 255
110.342832 -229.725286 -118.336048 0 120 255
107.875232 -229.635844 -118.493604 0 120 255
105.429571 -229.547986 -118.838316 0 120 255
102.992605 -229.460757 -119.257193 0 120 255
100.555639 -229.373527 -119.676070 0 120 255
98.118672 -229.286297 -120.094947 0 120 255
95.719929 -229.201114 -120.683215 0 120 255
93.339669 -229.116920 -121.353400 0 120 255
90.959409 -229.032727 -122.023584 0 120 255
88.579150 -228.948533 -122.693769 0 120 255
86.249875 -228.866755 -123.515240 0 120 255
83.950299 -228.786383 -124.424835 0 120 255
81.650723 -228.706011 -125.334430 0 120 255
79.351148 -228.625639 -126.244026 0 120 255
77.112113 -228.547951 -127.286929 0 120 255
74.915183 -228.472129 -128.422545 0 120 255
72.718254 -228.396307 -129.558160 0 120 255
70.521324 -228.320485 -130.693776 0 120 255
68.391599 -228.247534 -131.945182 0 120 255
66.317366 -228.176953 -133.292196 0 120 255
64.243132 -228.106373 -134.639209 0 120 255
62.168898 -228.035792 -135.986222 0 120 255
60.165919 -227.968179 -137.432192 0 120 255
58.232584 -227.903466 -138.974885 0 120 255
56.299249 -227.838753 -140.517578 0 120 255
54.365914 -227.774041 -142.060271 0 120 255
52.505516 -227.712287 -143.685955 0 120 255
50.729467 -227.653955 -145.407617 0 120 255
48.953417 -227.595624 -147.129278 0 120 255
47.177368 -227.537292 -148.850940 0 120 255
45.473815 -227.481861 -150.640670 0 120 255
43.869652 -227.430407 -152.523723 0 120 255
42.265489 -227.378953 -154.406775 0 120 255
40.661326 -227.327498 -156.289827 0 120 255
39.127331 -227.278797 -158.227220 0 120 255
37.707891 -227.234590 -160.253326 0 120 255
36.288450 -227.190383 -162.279432 0 120 255
34.869009 -227.146177 -164.305538 0 120 255
33.515728 -227.104539 -166.373565 0 120 255
32.292040 -227.067933 -168.523710 0 120 255
31.068353 -227.031327 -170.673855 0 120 255
29.844666 -226.994721 -172.823999 0 120 255
28.681677 -226.960442 -175.005079 0 120 255
27.662966 -226.931693 -177.259691 0 120 255
26.644256 -226.902944 -179.514302 0 120 255
25.625545 -226.874195 -181.768914 0 120 255
24.660839 -226.847494 -184.045004 0 120 255
23.854471 -226.826796 -186.384067 0 120 255
23.048104 -226.806098 -188.723130 0 120 255
22.241736 -226.785400 -191.062192 0 120 255
21.481660 -226.766440 -193.414884 0 120 255
20.893075 -226.753916 -195.818066 0 120 255
20.304489 -226.741392 -198.221248 0 120 255
19.715904 -226.728868 -200.624430 0 120 255
19.165107 -226.717749 -203.035064 0 120 255
18.797750 -226.713448 -205.481879 0 120 255
18.430393 -226.709147 -207.928694 0 120 255
18.063036 -226.704846 -210.375509 0 120 255
17.724423 -226.701600 -212.825317 0 120 255
17.579711 -226.705469 -215.295320 0 120 255
17.434999 -226.709338 -217.765323 0 120 255
17.290287 -226.713207 -220.235326 0 120 255
17.164982 -226.717782 -222.705592 0 120 255
17.242291 -226.729733 -225.178597 0 120 255
17.319599 -226.741685 -227.651601 0 120 255
17.396908 -226.753637 -230.124606 0 120 255
17.484248 -226.765951 -232.596848 0 120 255
17.780902 -226.785829 -235.053161 0 120 255
18.077555 -226.805708 -237.509474 0 120 255
18.374209 -226.825586 -239.965787 0 120 255
18.671738 -226.845496 -242.421954 0 120 255
19.183092 -226.873055 -244.842621 0 120 255
19.694445 -226.900613 -247.263289 0 120 255
20.205798 -226.928172 -249.683956 0 120 255
20.717152 -226.955730 -252.104623 0 120 255
21.428784 -226.990399 -254.473711 0 120 255
22.148239 -227.025345 -256.840784 0 120 255
22.867694 -227.060291 -259.207858 0 120 255
23.587149 -227.095237 -261.574931 0 120 255
24.490543 -227.136636 -263.877268 0 120 255
25.409775 -227.178589 -266.174033 0 120 255
26.329006 -227.220543 -268.470797 0 120 255
27.248238 -227.262496 -270.767561 0 120 255
28.334389 -227.310247 -272.989103 0 120 255
29.443507 -227.358794 -275.200296 0 120 255
30.552625 -227.407342 -277.411488 0 120 255
31.661744 -227.455890 -279.622681 0 120 255
32.920468 -227.509578 -281.750804 0 120 255
34.208251 -227.564263 -283.862793 0 120 255
35.496033 -227.618949 -285.974782 0 120 255
36.783815 -227.673635 -288.086771 0 120 255
38.203954 -227.732816 -290.110398 0 120 255
39.658086 -227.793151 -292.111331 0 120 255
41.112218 -227.853487 -294.112264 0 120 255
42.566349 -227.913822 -296.113197 0 120 255
44.135997 -227.978025 -298.022877 0 120 255
45.743350 -228.043490 -299.902772 0 120 255
47.350702 -228.108955 -301.782667 0 120 255
48.958054 -228.174420 -303.662562 0 120 255
50.664779 -228.243176 -305.450528 0 120 255
52.411669 -228.313261 -307.201338 0 120 255
54.158559 -228.383346 -308.952148 0 120 255
55.905449 -228.453432 -310.702958 0 120 255
57.736527 -228.526297 -312.363135 0 120 255
59.609002 -228.600531 -313.978746 0 120 255
61.481477 -228.674764 -315.594356 0 120 255
63.353953 -228.748997 -317.209967 0 120 255
65.296603 -228.825647 -318.737924 0 120 255
67.280724 -228.903726 -320.214081 0 120 255
69.264846 -228.981805 -321.690237 0 120 255
71.248967 -229.059884 -323.166394 0 120 255
73.290521 -229.139978 -324.559344 0 120 255
75.372529 -229.221492 -325.893687 0 120 255
77.454536 -229.303005 -327.228031 0 120 255
79.536544 -229.384519 -328.562374 0 120 255
81.664457 -229.466579 -329.819507 0 120 255
83.830714 -229.549094 -331.012148 0 120 255
85.996971 -229.631610 -332.204790 0 120 255
88.163229 -229.714125 -333.397431 0 120 255
90.364694 -229.791368 -334.521511 0 120 255
92.600952 -229.863400 -335.577842 0 120 255
94.837210 -229.935432 -336.634172 0 120 255
97.073468 -230.007464 -337.690502 0 120 255
99.336044 -230.069483 -338.687354 0 120 255
101.629386 -230.119797 -339.614675 0 120 255
103.922728 -230.170112 -340.541996 0 120 255
106.216069 -230.220426 -341.469316 0 120 255
108.528551 -230.257970 -342.346018 0 120 255
110.867565 -230.277811 -343.152549 0 120 255
113.206579 -230.297652 -343.959080 0 120 255
115.545593 -230.317493 -344.765611 0 120 255
117.898030 -230.323360 -345.530022 0 120 255
120.272643 -230.306142 -346.224854 0 120 255
122.647255 -230.288924 -346.919686 0 120 255
125.021868 -230.271706 -347.614517 0 120 255
127.405479 -230.240598 -348.275151 0 120 255
129.806948 -230.181926 -348.867921 0 120 255
132.208417 -230.123254 -349.460691 0 120 255
134.609886 -230.064581 -350.053462 0 120 255
137.017044 -229.993139 -350.619264 0 120 255
139.437927 -229.890890 -351.120008 0 120 255
141.858809 -229.788641 -351.620751 0 120 255
144.279692 -229.686392 -352.121495 0 120 255
146.703910 -229.573241 -352.601691 0 120 255
149.138082 -229.427556 -353.020564 0 120 255
151.572254 -229.281871 -353.439437 0 120 255
154.006426 -229.136185 -353.858310 0 120 255
156.442364 -228.981919 -354.262220 0 120 255
158.884988 -228.795156 -354.609461 0 120 255
161.327613 -228.608393 -354.956702 0 120 255
163.770238 -228.421630 -355.303942 0 120 255
166.213667 -228.229035 -355.641230 0 120 255
168.661118 -228.007304 -355.928789 0 120 255
171.108570 -227.785572 -356.216347 0 120 255
173.556021 -227.563841 -356.503906 0 120 255
176.003444 -227.340897 -356.790742 0 120 255
178.450669 -227.109459 -357.072515 0 120 255
180.897894 -226.878020 -357.354289 0 120 255
183.345120 -226.646581 -357.636062 0 120 255
185.792345 -226.415142 -357.917836 0 120 255
188.239568 -226.183692 -358.199622 0 120 255
190.686791 -225.952242 -358.481407 0 120 255
193.134014 -225.720793 -358.763193 0 120 255
195.581237 -225.489343 -359.044978 0 120 255
198.028461 -225.257897 -359.326756 0 120 255
200.475685 -225.026452 -359.608534 0 120 255
202.922909 -224.795006 -359.890313 0 120 255
205.370133 -224.563560 -360.172091 0 120 255
