ply
format ascii 1.0
element vertex 385
property float x
property float y
property float z
property uchar red
property uchar green
property uchar blue
end_header
77.430455 -42.474882 -360.397637 0 120 255
77.187385 -42.528748 -357.934238 0 120 255
76.944316 -42.582615 -355.470840 0 120 255
76.701246 -42.636481 -353.007442 0 120 255
76.458176 -42.690348 -350.544044 0 120 255
76.257101 -42.750066 -348.077013 0 120 255
76.057725 -42.810022 -345.609834 0 120 255
75.858349 -42.869977 -343.142656 0 120 255
75.658973 -42.929932 -340.675477 0 120 255
75.468664 -42.932126 -338.206919 0 120 255
75.279179 -42.929074 -335.738235 0 120 255
75.089694 -42.926022 -333.269550 0 120 255
74.900209 -42.922970 -330.800866 0 120 255
74.675675 -42.863723 -328.335970 0 120 255
74.445760 -42.795850 -325.871655 0 120 255
74.215846 -42.727978 -323.407340 0 120 255
73.985932 -42.660105 -320.943026 0 120 255
73.717264 -42.542623 -318.484685 0 120 255
73.439948 -42.414069 -316.027678 0 120 255
73.162631 -42.285516 -313.570671 0 120 255
72.885315 -42.156962 -311.113663 0 120 255
72.566251 -41.985286 -308.664595 0 120 255
72.234621 -41.800631 -306.217916 0 120 255
71.902991 -41.615975 -303.771236 0 120 255
71.571361 -41.431320 -301.324557 0 120 255
71.195720 -41.209872 -298.887581 0 120 255
70.802984 -40.974134 -296.454373 0 120 255
70.410248 -40.738396 -294.021165 0 120 255
70.017512 -40.502657 -291.587957 0 120 255
69.579244 -40.236242 -289.166030 0 120 255
69.118794 -39.954882 -286.749600 0 120 255
68.658343 -39.673521 -284.333169 0 120 255
68.197892 -39.392161 -281.916739 0 120 255
67.691124 -39.085969 -279.512993 0 120 255
67.156584 -38.764888 -277.116852 0 120 255
66.622045 -38.443807 -274.720712 0 120 255
66.087506 -38.122726 -272.324571 0 120 255
65.506595 -37.782329 -269.942343 0 120 255
64.891905 -37.427862 -267.570251 0 120 255
64.277216 -37.073394 -265.198158 0 120 255
63.662526 -36.718927 -262.826065 0 120 255
63.002118 -36.350275 -260.468934 0 120 255
62.301592 -35.969176 -258.124933 0 120 255
61.601066 -35.588077 -255.780932 0 120 255
60.900540 -35.206979 -253.436931 0 120 255
60.155629 -34.816392 -251.108748 0 120 255
59.364039 -34.415828 -248.797201 0 120 255
58.572448 -34.015263 -246.485655 0 120 255
57.780857 -33.614698 -244.174109 0 120 255
56.946852 -33.208858 -241.879025 0 120 255
56.059499 -32.796382 -239.604650 0 120 255
55.172146 -32.383907 -237.330275 0 120 255
54.284793 -31.971431 -235.055899 0 120 255
53.357581 -31.557358 -232.798398 0 120 255
52.370379 -31.140881 -230.566293 0 120 255
51.383176 -30.724404 -228.334188 0 120 255
50.395973 -30.307928 -226.102083 0 120 255
49.371989 -29.892962 -223.886998 0 120 255
48.281552 -29.480725 -221.702662 0 120 255
47.191115 -29.068488 -219.518326 0 120 255
46.100678 -28.656251 -217.333990 0 120 255
44.976984 -28.248026 -215.166524 0 120 255
43.780721 -27.848553 -213.035869 0 120 255
42.584458 -27.449079 -210.905214 0 120 255
41.388196 -27.049606 -208.774558 0 120 255
40.162562 -26.656012 -206.660293 0 120 255
38.858761 -26.278062 -204.589648 0 120 255
37.554960 -25.900112 -202.519003 0 120 255
36.251159 -25.522163 -200.448357 0 120 255
34.922139 -25.151306 -198.393259 0 120 255
33.510061 -24.803812 -196.389363 0 120 255
32.097984 -24.456319 -194.385467 0 120 255
30.685906 -24.108825 -192.381570 0 120 255
29.252923 -23.768979 -190.391982 0 120 255
27.732899 -23.460974 -188.461962 0 120 255
26.212874 -23.152969 -186.531943 0 120 255
24.692850 -22.844964 -184.601924 0 120 255
23.156281 -22.544504 -182.684549 0 120 255
21.529802 -22.285045 -180.835884 0 120 255
19.903323 -22.025586 -178.987219 0 120 255
18.276844 -21.766127 -177.138554 0 120 255
16.638107 -21.513465 -175.300424 0 120 255
14.907893 -21.311530 -173.540908 0 120 255
13.177679 -21.109595 -171.781392 0 120 255
11.447465 -20.907661 -170.021875 0 120 255
9.709079 -20.711163 -168.270325 0 120 255
7.879171 -20.575559 -166.607988 0 120 255
6.049263 -20.439955 -164.945652 0 120 255
4.219354 -20.304352 -163.283315 0 120 255
2.385032 -20.172253 -161.625913 0 120 255
0.460847 -20.111494 -160.068949 0 120 255
-1.463338 -20.050734 -158.511985 0 120 255
-3.387522 -19.989975 -156.955022 0 120 255
-5.312821 -19.930273 -155.399506 0 120 255
-7.324431 -19.952459 -153.956159 0 120 255
-9.336040 -19.974644 -152.512812 0 120 255
-11.347650 -19.996830 -151.069465 0 120 255
-13.359259 -20.019016 -149.626119 0 120 255
-15.448398 -20.129862 -148.302130 0 120 255
-17.539142 -20.242545 -146.980614 0 120 255
-19.629887 -20.355227 -145.659098 0 120 255
-21.720631 -20.467910 -144.337582 0 120 255
-23.877120 -20.672868 -143.139115 0 120 255
-26.037235 -20.882916 -141.947437 0 120 255
-28.197350 -21.092964 -140.755758 0 120 255
-30.357464 -21.303011 -139.564079 0 120 255
-32.570915 -21.607863 -138.498481 0 120 255
-34.789209 -21.921323 -137.444331 0 120 255
-37.007502 -22.234782 -136.390182 0 120 255
-39.225796 -22.548242 -135.336032 0 120 255
-41.484533 -22.957917 -134.410238 0 120 255
-43.748434 -23.379877 -133.500834 0 120 255
-46.012335 -23.801837 -132.591430 0 120 255
-48.276236 -24.223798 -131.682026 0 120 255
-50.567360 -24.742244 -130.902397 0 120 255
-52.862999 -25.276697 -130.144298 0 120 255
-55.158638 -25.811150 -129.386198 0 120 255
-57.454278 -26.345603 -128.628098 0 120 255
-59.763769 -26.975680 -128.000277 0 120 255
-62.076108 -27.625409 -127.399228 0 120 255
-64.388446 -28.275137 -126.798179 0 120 255
-66.700784 -28.924865 -126.197131 0 120 255
-69.013649 -29.668230 -125.725896 0 120 255
-71.326643 -30.434692 -125.286684 0 120 255
-73.639637 -31.201155 -124.847472 0 120 255
-75.952632 -31.967617 -124.408260 0 120 255
-78.253064 -32.824641 -124.097384 0 120 255
-80.549859 -33.707892 -123.823674 0 120 255
-82.846654 -34.591142 -123.549964 0 120 255
-85.143449 -35.474393 -123.276254 0 120 255
-87.415033 -36.444101 -123.128336 0 120 255
-89.678185 -37.442729 -123.022497 0 120 255
-91.941336 -38.441358 -122.916659 0 120 255
-94.204487 -39.439986 -122.810820 0 120 255
-96.430433 -40.520010 -122.827205 0 120 255
-98.642175 -41.631106 -122.890251 0 120 255
-100.853918 -42.742203 -122.953297 0 120 255
-103.065660 -43.853300 -123.016343 0 120 255
-105.229054 -45.039877 -123.196998 0 120 255
-107.371573 -46.259043 -123.428430 0 120 255
-109.514092 -47.478209 -123.659863 0 120 255
-111.656611 -48.697375 -123.891296 0 120 255
-113.740688 -49.985372 -124.234754 0 120 255
-115.796418 -51.306753 -124.632547 0 120 255
-117.852148 -52.628135 -125.030340 0 120 255
-119.907879 -53.949516 -125.428133 0 120 255
-121.896300 -55.332482 -125.931466 0 120 255
-123.848223 -56.748844 -126.492030 0 120 255
-125.800146 -58.165206 -127.052594 0 120 255
-127.752069 -59.581567 -127.613157 0 120 255
-129.629201 -61.051836 -128.271968 0 120 255
-131.461140 -62.554679 -128.990146 0 120 255
-133.293078 -64.057522 -129.708324 0 120 255
-135.125016 -65.560365 -130.426502 0 120 255
-136.876198 -67.109168 -131.234961 0 120 255
-138.573100 -68.688862 -132.104100 0 120 255
-140.270002 -70.268557 -132.973240 0 120 255
-141.966904 -71.848252 -133.842379 0 120 255
-143.578680 -73.465883 -134.793311 0 120 255
-145.126857 -75.111858 -135.805354 0 120 255
-146.675033 -76.757833 -136.817397 0 120 255
-148.223210 -78.403808 -137.829440 0 120 255
-149.683558 -80.079796 -138.914421 0 120 255
-151.070923 -81.780724 -140.060011 0 120 255
-152.458287 -83.481653 -141.205601 0 120 255
-153.845652 -85.182581 -142.351191 0 120 255
-155.144149 -86.905882 -143.560695 0 120 255
-156.360380 -88.649893 -144.829365 0 120 255
-157.576611 -90.393904 -146.098035 0 120 255
-158.792842 -92.137914 -147.366705 0 120 255
-159.920793 -93.897113 -148.690278 0 120 255
-160.957463 -95.672016 -150.070622 0 120 255
-161.994134 -97.446919 -151.450966 0 120 255
-163.030805 -99.221822 -152.831310 0 120 255
-163.981339 -101.005342 -154.257740 0 120 255
-164.832007 -102.798853 -155.737604 0 120 255
-165.682674 -104.592364 -157.217469 0 120 255
-166.533341 -106.385875 -158.697333 0 120 255
-167.301450 -108.182177 -160.214848 0 120 255
-167.961687 -109.982127 -161.781559 0 120 255
-168.621924 -111.782077 -163.348270 0 120 255
-169.282161 -113.582027 -164.914981 0 120 255
-169.864678 -115.379800 -166.511455 0 120 255
-170.332012 -117.174347 -168.152039 0 120 255
-170.799346 -118.968893 -169.792623 0 120 255
-171.266680 -120.763440 -171.433207 0 120 255
-171.662232 -122.551774 -173.096353 0 120 255
-171.936136 -124.329578 -174.797736 0 120 255
-172.210041 -126.107383 -176.499118 0 120 255
-172.483946 -127.885188 -178.200500 0 120 255
-172.692880 -129.653723 -179.918056 0 120 255
-172.774618 -131.404113 -181.667276 0 120 255
-172.856356 -133.154502 -183.416496 0 120 255
-172.938094 -134.904892 -185.165716 0 120 255
-172.962327 -136.643954 -186.925620 0 120 255
-172.854819 -138.357064 -188.709999 0 120 255
-172.747310 -140.070174 -190.494379 0 120 255
-172.639801 -141.783284 -192.278758 0 120 255
-172.482693 -143.483983 -194.069296 0 120 255
-172.190364 -145.150845 -195.876623 0 120 255
-171.898036 -146.817707 -197.683949 0 120 255
-171.605707 -148.484570 -199.491275 0 120 255
-171.271900 -150.138873 -201.301224 0 120 255
-170.800488 -151.751514 -203.119871 0 120 255
-170.329075 -153.364154 -204.938518 0 120 255
-169.857663 -154.976794 -206.757165 0 120 255
-169.352900 -156.577590 -208.575891 0 120 255
-168.709225 -158.129054 -210.394945 0 120 255
-168.065551 -159.680517 -212.214000 0 120 255
-167.421877 -161.231981 -214.033054 0 120 255
-166.752808 -162.773092 -215.850609 0 120 255
-165.944623 -164.257491 -217.659950 0 120 255
-165.136439 -165.741890 -219.469290 0 120 255
-164.328254 -167.226289 -221.278630 0 120 255
-163.502288 -168.702494 -223.085809 0 120 255
-162.538047 -170.114983 -224.876180 0 120 255
-161.573806 -171.527472 -226.666551 0 120 255
-160.609566 -172.939961 -228.456923 0 120 255
-159.634680 -174.346970 -230.245316 0 120 255
-158.523346 -175.683739 -232.008353 0 120 255
-157.412012 -177.020508 -233.771391 0 120 255
-156.300679 -178.357277 -235.534428 0 120 255
-155.185252 -179.691713 -237.296433 0 120 255
-153.936134 -180.949944 -239.024690 0 120 255
-152.687015 -182.208175 -240.752947 0 120 255
-151.437897 -183.466406 -242.481204 0 120 255
-150.188778 -184.724637 -244.209461 0 120 255
-148.813169 -185.903584 -245.896992 0 120 255
-147.435763 -187.081404 -247.583944 0 120 255
-146.058357 -188.259224 -249.270896 0 120 255
-144.680951 -189.437044 -250.957848 0 120 255
-143.191741 -190.538231 -252.600617 0 120 255
-141.695559 -191.634638 -254.240630 0 120 255
-140.199376 -192.731045 -255.880644 0 120 255
-138.703194 -193.827453 -257.520657 0 120 255
-137.109061 -194.850785 -259.114350 0 120 255
-135.503519 -195.865605 -260.702648 0 120 255
-133.897977 -196.880425 -262.290945 0 120 255
-132.292435 -197.895246 -263.879243 0 120 255
-130.601848 -198.841254 -265.420274 0 120 255
-128.896157 -199.775042 -266.952910 0 120 255
-127.190466 -200.708830 -268.485546 0 120 255
-125.484775 -201.642617 -270.018183 0 120 255
-123.705931 -202.512406 -271.503650 0 120 255
-121.909016 -203.366386 -272.977464 0 120 255
-120.112101 -204.220365 -274.451279 0 120 255
-118.315186 -205.074345 -275.925094 0 120 255
-116.455945 -205.869531 -277.352723 0 120 255
-114.576358 -206.645525 -278.765275 0 120 255
-112.696771 -207.421518 -280.177826 0 120 255
-110.817184 -208.197511 -281.590378 0 120 255
-108.885030 -208.920153 -282.958484 0 120 255
-106.930899 -209.620490 -284.308007 0 120 255
-104.976767 -210.320827 -285.657531 0 120 255
-103.022636 -211.021163 -287.007054 0 120 255
-101.024635 -211.673720 -288.314471 0 120 255
-99.003612 -212.301201 -289.599791 0 120 255
-96.982589 -212.928683 -290.885111 0 120 255
-94.961566 -213.556165 -292.170431 0 120 255
-92.904354 -214.141428 -293.416484 0 120 255
-90.823605 -214.699232 -294.636998 0 120 255
-88.742856 -215.257035 -295.857512 0 120 255
-86.662108 -215.814839 -297.078026 0 120 255
-84.551885 -216.335884 -298.262496 0 120 255
-82.418075 -216.827513 -299.418123 0 120 255
-80.284266 -217.319142 -300.573750 0 120 255
-78.150457 -217.810771 -301.729378 0 120 255
-75.992965 -218.270922 -302.852425 0 120 255
-73.812218 -218.700167 -303.943483 0 120 255
-71.631471 -219.129411 -305.034541 0 120 255
-69.450723 -219.558655 -306.125598 0 120 255
-67.251254 -219.961438 -307.187737 0 120 255
-65.029198 -220.332298 -308.214988 0 120 255
-62.807142 -220.703159 -309.242239 0 120 255
-60.585086 -221.074020 -310.269490 0 120 255
-58.348501 -221.423119 -311.271572 0 120 255
-56.090261 -221.739783 -312.236139 0 120 255
-53.832021 -222.056447 -313.200705 0 120 255
-51.573780 -222.373111 -314.165272 0 120 255
-49.304509 -222.672347 -315.108424 0 120 255
-47.014703 -222.939138 -316.011710 0 120 255
-44.724897 -223.205928 -316.914997 0 120 255
-42.435091 -223.472719 -317.818283 0 120 255
-40.137145 -223.726013 -318.703875 0 120 255
-37.819939 -223.947370 -319.547600 0 120 255
-35.502733 -224.168728 -320.391325 0 120 255
-33.185527 -224.390085 -321.235050 0 120 255
-30.862530 -224.601436 -322.064691 0 120 255
-28.521631 -224.781854 -322.850792 0 120 255
-26.180732 -224.962271 -323.636894 0 120 255
-23.839832 -225.142689 -324.422995 0 120 255
-21.495027 -225.316140 -325.198477 0 120 255
-19.133732 -225.460186 -325.929129 0 120 255
-16.772437 -225.604233 -326.659781 0 120 255
-14.411143 -225.748279 -327.390433 0 120 255
-12.047411 -225.888406 -328.113599 0 120 255
-9.668506 -226.004136 -328.790161 0 120 255
-7.289602 -226.119866 -329.466723 0 120 255
-4.910698 -226.235597 -330.143285 0 120 255
-2.530528 -226.350122 -330.815403 0 120 255
-0.136718 -226.451668 -331.439647 0 120 255
2.257091 -226.553213 -332.063890 0 120 255
4.650900 -226.654759 -332.688134 0 120 255
7.045090 -226.756044 -333.310899 0 120 255
9.451364 -226.849044 -333.886669 0 120 255
11.857638 -226.942044 -334.462438 0 120 255
14.263912 -227.035044 -335.038208 0 120 255
16.670187 -227.128044 -335.613977 0 120 255
19.086869 -227.212809 -336.145695 0 120 255
21.503813 -227.297366 -336.676305 0 120 255
23.920757 -227.381923 -337.206914 0 120 255
26.337701 -227.466480 -337.737523 0 120 255
28.762687 -227.548446 -338.230381 0 120 255
31.188365 -227.630189 -338.719996 0 120 255
33.614042 -227.711932 -339.209611 0 120 255
36.039719 -227.793676 -339.699226 0 120 255
38.471356 -227.875723 -340.158112 0 120 255
40.903907 -227.957817 -340.612279 0 120 255
43.336459 -228.039911 -341.066447 0 120 255
45.769011 -228.122005 -341.520614 0 120 255
48.206479 -228.204315 -341.947354 0 120 255
50.645081 -228.286675 -342.367775 0 120 255
53.083683 -228.369035 -342.788195 0 120 255
55.522285 -228.451395 -343.208616 0 120 255
57.965084 -228.532845 -343.603839 0 120 255
60.409226 -228.614004 -343.991010 0 120 255
62.853367 -228.695163 -344.378180 0 120 255
65.297508 -228.776322 -344.765351 0 120 255
67.745088 -228.851293 -345.131188 0 120 255
70.194121 -228.923647 -345.487999 0 120 255
72.643155 -228.996001 -345.844810 0 120 255
75.092189 -229.068354 -346.201621 0 120 255
77.543978 -229.129873 -346.540767 0 120 255
79.997265 -229.185506 -346.870317 0 120 255
82.450552 -229.241139 -347.199867 0 120 255
84.903839 -229.296773 -347.529418 0 120 255
87.359209 -229.341325 -347.844469 0 120 255
89.816006 -229.378286 -348.149587 0 120 255
92.272803 -229.415247 -348.454705 0 120 255
94.729600 -229.452208 -348.759823 0 120 255
97.187909 -229.478606 -349.053290 0 120 255
99.647511 -229.495967 -349.336790 0 120 255
102.107112 -229.513327 -349.620291 0 120 255
104.566714 -229.530688 -349.903791 0 120 255
107.027360 -229.538121 -350.178181 0 120 255
109.489115 -229.534995 -350.442880 0 120 255
111.950870 -229.531869 -350.707579 0 120 255
114.412626 -229.528742 -350.972279 0 120 255
116.875046 -229.516431 -351.230101 0 120 255
119.338348 -229.491959 -351.478818 0 120 255
121.801650 -229.467487 -351.727536 0 120 255
124.264952 -229.443015 -351.976253 0 120 255
126.728621 -229.410208 -352.220011 0 120 255
129.192898 -229.363580 -352.455544 0 120 255
131.657176 -229.316951 -352.691077 0 120 255
134.121454 -229.270323 -352.926610 0 120 255
136.585870 -229.216312 -353.158802 0 120 255
139.050577 -229.146769 -353.383965 0 120 255
141.515284 -229.077226 -353.609128 0 120 255
143.979991 -229.007684 -353.834290 0 120 255
146.444672 -228.931807 -354.057414 0 120 255
148.909283 -228.838661 -354.274976 0 120 255
151.373893 -228.745515 -354.492539 0 120 255
153.838504 -228.652370 -354.710102 0 120 255
156.302981 -228.554018 -354.926640 0 120 255
158.766973 -228.436626 -355.139432 0 120 255
161.230964 -228.319234 -355.352224 0 120 255
163.694956 -228.201843 -355.565016 0 120 255
166.157753 -228.074135 -355.783842 0 120 255
168.614338 -227.892767 -356.034060 0 120 255
171.070924 -227.711400 -356.284277 0 120 255
173.527509 -227.530033 -356.534494 0 120 255
175.983200 -227.342812 -356.788411 0 120 255
178.432113 -227.111214 -357.070379 0 120 255
180.881025 -226.879615 -357.352346 0 120 255
183.329937 -226.648017 -357.634314 0 120 255
185.778850 -226.416418 -357.916282 0 120 255
188.227759 -226.184809 -358.198262 0 120 255
190.676669 -225.953200 -358.480242 0 120 255
193.125579 -225.721590 -358.762222 0 120 255
195.574489 -225.489981 -359.044201 0 120 255
198.023400 -225.258376 -359.326174 0 120 255
200.472311 -225.026771 -359.608146 0 120 255
202.921222 -224.795165 -359.890118 0 120 255
205.370133 -224.563560 -360.172091 0 120 255
