ply
format ascii 1.0
element vertex 385
property float x
property float y
property float z
property uchar red
property uchar green
property uchar blue
end_header
77.430455 -42.474882 -360.397637 0 120 255
77.187562 -42.528709 -357.936032 0 120 255
76.944669 -42.582536 -355.474427 0 120 255
76.701776 -42.636364 -353.012822 0 120 255
76.458884 -42.690191 -350.551217 0 120 255
76.215895 -42.749889 -348.089757 0 120 255
75.972903 -42.809842 -345.628304 0 120 255
75.729911 -42.869796 -343.166850 0 120 255
75.486918 -42.929750 -340.705397 0 120 255
75.168199 -43.265377 -338.276486 0 120 255
74.842568 -43.626162 -335.850544 0 120 255
74.516937 -43.986948 -333.424603 0 120 255
74.191306 -44.347733 -330.998662 0 120 255
73.808216 -44.958016 -328.633894 0 120 255
73.416779 -45.604536 -326.278012 0 120 255
73.025342 -46.251057 -323.922130 0 120 255
72.633905 -46.897578 -321.566248 0 120 255
72.203242 -47.770797 -319.294440 0 120 255
71.764538 -48.690493 -317.039869 0 120 255
71.325833 -49.610188 -314.785297 0 120 255
70.887128 -50.529884 -312.530726 0 120 255
70.426863 -51.651969 -310.377487 0 120 255
69.960745 -52.829003 -308.251760 0 120 255
69.494627 -54.006037 -306.126032 0 120 255
69.028509 -55.183070 -304.000304 0 120 255
68.557481 -56.537434 -301.987866 0 120 255
68.084756 -57.953107 -300.014596 0 120 255
67.612031 -59.368780 -298.041326 0 120 255
67.139306 -60.784453 -296.068057 0 120 255
66.676896 -62.352329 -294.215187 0 120 255
66.218913 -63.985525 -292.413989 0 120 255
65.760930 -65.618722 -290.612791 0 120 255
65.302947 -67.251918 -288.811593 0 120 255
64.868775 -69.012690 -287.133554 0 120 255
64.447069 -70.840249 -285.519992 0 120 255
64.025364 -72.667808 -283.906429 0 120 255
63.603658 -74.495368 -282.292867 0 120 255
63.217294 -76.426841 -280.801383 0 120 255
62.853228 -78.423877 -279.386924 0 120 255
62.489163 -80.420913 -277.972464 0 120 255
62.125098 -82.417950 -276.558005 0 120 255
61.805764 -84.496632 -275.261277 0 120 255
61.520173 -86.636903 -274.053357 0 120 255
61.234582 -88.777174 -272.845437 0 120 255
60.948991 -90.917445 -271.637517 0 120 255
60.715281 -93.118813 -270.540248 0 120 255
60.528130 -95.375012 -269.542283 0 120 255
60.340980 -97.631211 -268.544318 0 120 255
60.153829 -99.887410 -267.546353 0 120 255
60.023421 -102.186160 -266.649794 0 120 255
59.953463 -104.530244 -265.861271 0 120 255
59.883505 -106.874328 -265.072747 0 120 255
59.813547 -109.218412 -264.284223 0 120 255
59.802930 -111.588725 -263.586221 0 120 255
59.867377 -113.992217 -263.002728 0 120 255
59.931825 -116.395709 -262.419235 0 120 255
59.996273 -118.799202 -261.835741 0 120 255
60.120464 -121.215009 -261.330824 0 120 255
60.334648 -123.649365 -260.944270 0 120 255
60.548833 -126.083722 -260.557716 0 120 255
60.763018 -128.518079 -260.171161 0 120 255
61.035291 -130.953359 -259.850684 0 120 255
61.412352 -133.390305 -259.649406 0 120 255
61.789413 -135.827251 -259.448128 0 120 255
62.166475 -138.264197 -259.246851 0 120 255
62.598109 -140.693267 -259.099109 0 120 255
63.148713 -143.105168 -259.068079 0 120 255
63.699316 -145.517069 -259.037048 0 120 255
64.249920 -147.928970 -259.006017 0 120 255
64.849959 -150.326801 -259.016432 0 120 255
65.582020 -152.687058 -259.137530 0 120 255
66.314080 -155.047316 -259.258628 0 120 255
67.046141 -157.407573 -259.379726 0 120 255
67.821182 -159.750120 -259.531087 0 120 255
68.739660 -162.033563 -259.783439 0 120 255
69.658138 -164.317005 -260.035792 0 120 255
70.576616 -166.600448 -260.288144 0 120 255
71.530635 -168.864980 -260.560883 0 120 255
72.637347 -171.048268 -260.921206 0 120 255
73.744059 -173.231557 -261.281528 0 120 255
74.850771 -175.414845 -261.641851 0 120 255
75.984982 -177.580282 -262.014350 0 120 255
77.278539 -179.642271 -262.457411 0 120 255
78.572097 -181.704260 -262.900472 0 120 255
79.865655 -183.766249 -263.343532 0 120 255
81.178455 -185.813463 -263.792509 0 120 255
82.654181 -187.735588 -264.291572 0 120 255
84.129907 -189.657712 -264.790635 0 120 255
85.605633 -191.579837 -265.289698 0 120 255
87.092540 -193.491981 -265.790578 0 120 255
88.742543 -195.258542 -266.317970 0 120 255
90.392546 -197.025104 -266.845362 0 120 255
92.042550 -198.791665 -267.372754 0 120 255
93.696264 -200.554407 -267.900151 0 120 255
95.509546 -202.152862 -268.427731 0 120 255
97.322828 -203.751317 -268.955312 0 120 255
99.136111 -205.349772 -269.482893 0 120 255
100.949393 -206.948227 -270.010473 0 120 255
102.909247 -208.372669 -270.510805 0 120 255
104.871890 -209.793800 -271.010618 0 120 255
106.834532 -211.214931 -271.510432 0 120 255
108.797175 -212.636062 -272.010245 0 120 255
110.884624 -213.885117 -272.458298 0 120 255
112.980048 -215.123176 -272.903045 0 120 255
115.075473 -216.361235 -273.347791 0 120 255
117.170897 -217.599295 -273.792538 0 120 255
119.368628 -218.670824 -274.164398 0 120 255
121.577913 -219.723549 -274.528028 0 120 255
123.787197 -220.776274 -274.891658 0 120 255
125.996481 -221.828999 -275.255288 0 120 255
128.285438 -222.723894 -275.528518 0 120 255
130.587680 -223.592475 -275.786676 0 120 255
132.889921 -224.461055 -276.044833 0 120 255
135.192163 -225.329635 -276.302991 0 120 255
137.551872 -226.051708 -276.457022 0 120 255
139.924572 -226.740663 -276.587513 0 120 255
142.297272 -227.429618 -276.718005 0 120 255
144.669973 -228.118572 -276.848496 0 120 255
147.078879 -228.674401 -276.864968 0 120 255
149.498351 -229.191376 -276.848164 0 120 255
151.917823 -229.708352 -276.831360 0 120 255
154.337296 -230.225328 -276.814556 0 120 255
156.773109 -230.624016 -276.677550 0 120 255
159.214890 -230.979501 -276.496644 0 120 255
161.656671 -231.334987 -276.315737 0 120 255
164.098453 -231.690473 -276.134830 0 120 255
166.538411 -231.946853 -275.832692 0 120 255
168.977554 -232.158873 -275.476290 0 120 255
171.416697 -232.370893 -275.119887 0 120 255
173.855840 -232.582913 -274.763484 0 120 255
176.277805 -232.713632 -274.287169 0 120 255
178.690481 -232.800383 -273.746002 0 120 255
181.103157 -232.887133 -273.204834 0 120 255
183.515833 -232.973884 -272.663667 0 120 255
185.897908 -232.994895 -272.004639 0 120 255
188.260240 -232.973495 -271.269572 0 120 255
190.622571 -232.952095 -270.534505 0 120 255
192.984903 -232.930695 -269.799438 0 120 255
195.303394 -232.848292 -268.948206 0 120 255
197.588424 -232.719328 -268.008312 0 120 255
199.873454 -232.590365 -267.068418 0 120 255
202.158483 -232.461401 -266.128525 0 120 255
204.385839 -232.272683 -265.076281 0 120 255
206.561634 -232.030546 -263.923598 0 120 255
208.737429 -231.788409 -262.770916 0 120 255
210.913225 -231.546273 -261.618233 0 120 255
213.019654 -231.252394 -260.361688 0 120 255
215.053660 -230.904494 -258.996707 0 120 255
217.087667 -230.556594 -257.631725 0 120 255
219.121674 -230.208695 -256.266743 0 120 255
221.076756 -229.817352 -254.808837 0 120 255
222.935686 -229.373084 -253.237724 0 120 255
224.794617 -228.928816 -251.666611 0 120 255
226.653547 -228.484548 -250.095498 0 120 255
228.426672 -228.005180 -248.444353 0 120 255
230.077670 -227.475857 -246.679298 0 120 255
231.728667 -226.946534 -244.914244 0 120 255
233.379665 -226.417211 -243.149190 0 120 255
234.941046 -225.860910 -241.318298 0 120 255
236.352911 -225.259601 -239.377561 0 120 255
237.764776 -224.658291 -237.436825 0 120 255
239.176640 -224.056982 -235.496089 0 120 255
240.498405 -223.436338 -233.504282 0 120 255
241.642889 -222.777653 -231.411991 0 120 255
242.787374 -222.118968 -229.319700 0 120 255
243.931859 -221.460283 -227.227409 0 120 255
244.989117 -220.789149 -225.098590 0 120 255
245.842107 -220.088859 -222.884229 0 120 255
246.695096 -219.388570 -220.669867 0 120 255
247.548086 -218.688280 -218.455506 0 120 255
248.319931 -217.981440 -216.218138 0 120 255
248.862593 -217.256099 -213.915794 0 120 255
249.405255 -216.530758 -211.613449 0 120 255
249.947917 -215.805417 -209.311104 0 120 255
250.418357 -215.078239 -206.997508 0 120 255
250.638025 -214.344682 -204.644843 0 120 255
250.857694 -213.611126 -202.292177 0 120 255
251.077362 -212.877569 -199.939512 0 120 255
251.236006 -212.145573 -197.584935 0 120 255
251.126775 -211.420426 -195.221966 0 120 255
251.017544 -210.695278 -192.858997 0 120 255
250.908312 -209.970131 -190.496028 0 120 255
250.750832 -209.248563 -188.137585 0 120 255
250.313873 -208.547724 -185.805357 0 120 255
249.876915 -207.846886 -183.473130 0 120 255
249.439956 -207.146047 -181.140902 0 120 255
248.968303 -206.449444 -178.816433 0 120 255
248.211823 -205.787616 -176.555655 0 120 255
247.455344 -205.125788 -174.294878 0 120 255
246.698864 -204.463960 -172.034100 0 120 255
245.921186 -203.805759 -169.781012 0 120 255
244.860026 -203.196057 -167.630757 0 120 255
243.798866 -202.586355 -165.480503 0 120 255
242.737706 -201.976653 -163.330248 0 120 255
241.667988 -201.368860 -161.184419 0 120 255
240.323026 -200.822458 -159.180944 0 120 255
238.978063 -200.276057 -157.177468 0 120 255
237.633101 -199.729655 -155.173993 0 120 255
236.288138 -199.183254 -153.170517 0 120 255
234.687870 -198.708486 -151.344556 0 120 255
233.085105 -198.234418 -149.520331 0 120 255
231.482339 -197.760351 -147.696106 0 120 255
229.879574 -197.286284 -145.871882 0 120 255
228.060479 -196.887357 -144.244507 0 120 255
226.230004 -196.492383 -142.627488 0 120 255
224.399529 -196.097408 -141.010469 0 120 255
222.569055 -195.702434 -139.393450 0 120 255
220.561600 -195.383457 -137.985721 0 120 255
218.536490 -195.072061 -136.598870 0 120 255
216.511381 -194.760665 -135.212018 0 120 255
214.486272 -194.449268 -133.825166 0 120 255
212.322542 -194.212397 -132.653518 0 120 255
210.137755 -193.986845 -131.514560 0 120 255
207.952967 -193.761294 -130.375603 0 120 255
205.768180 -193.535743 -129.236646 0 120 255
203.480978 -193.381335 -128.312918 0 120 255
201.172283 -193.241858 -127.434358 0 120 255
198.863589 -193.102380 -126.555797 0 120 255
196.554894 -192.962902 -125.677237 0 120 255
194.176948 -192.889660 -125.008844 0 120 255
191.779985 -192.834607 -124.398164 0 120 255
189.383022 -192.779553 -123.787483 0 120 255
186.986059 -192.724499 -123.176802 0 120 255
184.549337 -192.729713 -122.767020 0 120 255
182.098805 -192.755859 -122.427014 0 120 255
179.648273 -192.782004 -122.087008 0 120 255
177.197742 -192.808150 -121.747002 0 120 255
174.732893 -192.887889 -121.595354 0 120 255
172.261896 -192.990646 -121.524605 0 120 255
169.790898 -193.093404 -121.453857 0 120 255
167.319901 -193.196161 -121.383108 0 120 255
164.855829 -193.345519 -121.485782 0 120 255
162.395380 -193.519253 -121.679172 0 120 255
159.934931 -193.692987 -121.872563 0 120 255
157.474482 -193.866721 -122.065953 0 120 255
155.038030 -194.080024 -122.416269 0 120 255
152.616709 -194.318276 -122.865527 0 120 255
150.195388 -194.556528 -123.314785 0 120 255
147.774067 -194.794780 -123.764044 0 120 255
145.389823 -195.065795 -124.352910 0 120 255
143.033568 -195.361543 -125.047163 0 120 255
140.677313 -195.657291 -125.741417 0 120 255
138.321058 -195.953039 -126.435671 0 120 255
136.011246 -196.275152 -127.252011 0 120 255
133.743259 -196.621009 -128.178302 0 120 255
131.475273 -196.966866 -129.104592 0 120 255
129.207286 -197.312724 -130.030882 0 120 255
126.991743 -197.679113 -131.062050 0 120 255
124.832493 -198.067541 -132.205797 0 120 255
122.673243 -198.455969 -133.349543 0 120 255
120.513993 -198.844397 -134.493290 0 120 255
118.410213 -199.248173 -135.725444 0 120 255
116.377522 -199.671618 -137.070900 0 120 255
114.344830 -200.095064 -138.416356 0 120 255
112.312138 -200.518510 -139.761812 0 120 255
110.335362 -200.952837 -141.180239 0 120 255
108.444522 -201.403887 -142.710818 0 120 255
106.553682 -201.854938 -144.241396 0 120 255
104.662842 -202.305989 -145.771974 0 120 255
102.826167 -202.764186 -147.361348 0 120 255
101.090099 -203.235656 -149.059930 0 120 255
99.354032 -203.707126 -150.758511 0 120 255
97.617965 -204.178596 -152.457093 0 120 255
95.932498 -204.654207 -154.201719 0 120 255
94.361970 -205.139224 -156.050932 0 120 255
92.791441 -205.624242 -157.900146 0 120 255
91.220912 -206.109260 -159.749359 0 120 255
89.695935 -206.596122 -161.633372 0 120 255
88.299716 -207.088198 -163.615751 0 120 255
86.903498 -207.580275 -165.598131 0 120 255
85.507280 -208.072352 -167.580510 0 120 255
84.150392 -208.564644 -169.588004 0 120 255
82.935474 -209.057718 -171.686158 0 120 255
81.720556 -209.550792 -173.784311 0 120 255
80.505639 -210.043865 -175.882464 0 120 255
79.322928 -210.536146 -177.997619 0 120 255
78.294703 -211.024622 -180.194330 0 120 255
77.266479 -211.513099 -182.391041 0 120 255
76.238254 -212.001575 -184.587751 0 120 255
75.234449 -212.488804 -186.794913 0 120 255
74.396878 -212.967542 -189.073219 0 120 255
73.559306 -213.446279 -191.351525 0 120 255
72.721735 -213.925017 -193.629830 0 120 255
71.900338 -214.402551 -195.913568 0 120 255
71.256109 -214.866904 -198.256800 0 120 255
70.611881 -215.331257 -200.600033 0 120 255
69.967653 -215.795610 -202.943266 0 120 255
69.331071 -216.259236 -205.288404 0 120 255
68.881739 -216.705050 -207.680212 0 120 255
68.432408 -217.150864 -210.072019 0 120 255
67.983077 -217.596678 -212.463827 0 120 255
67.533745 -218.042492 -214.855635 0 120 255
67.278839 -218.466195 -217.279823 0 120 255
67.024945 -218.889782 -219.704179 0 120 255
66.771051 -219.313370 -222.128536 0 120 255
66.517158 -219.736958 -224.552892 0 120 255
66.448650 -220.136400 -226.993242 0 120 255
66.389808 -220.534583 -229.434427 0 120 255
66.330966 -220.932765 -231.875611 0 120 255
66.272123 -221.330948 -234.316795 0 120 255
66.388908 -221.703622 -236.759254 0 120 255
66.523893 -222.073652 -239.201845 0 120 255
66.658878 -222.443682 -241.644436 0 120 255
66.793863 -222.813713 -244.087026 0 120 255
67.094160 -223.157527 -246.517765 0 120 255
67.420965 -223.497138 -248.946604 0 120 255
67.747771 -223.836748 -251.375442 0 120 255
68.074577 -224.176359 -253.804280 0 120 255
68.555953 -224.489601 -256.209678 0 120 255
69.071821 -224.796959 -258.609846 0 120 255
69.587688 -225.104317 -261.010014 0 120 255
70.103556 -225.411675 -263.410181 0 120 255
70.762953 -225.693009 -265.776798 0 120 255
71.464408 -225.966718 -268.133583 0 120 255
72.165863 -226.240427 -270.490369 0 120 255
72.867318 -226.514136 -272.847154 0 120 255
73.701055 -226.762595 -275.161705 0 120 255
74.583901 -227.001680 -277.460578 0 120 255
75.466746 -227.240764 -279.759451 0 120 255
76.349591 -227.479849 -282.058323 0 120 255
77.353343 -227.694806 -284.307670 0 120 255
78.412630 -227.898680 -286.534268 0 120 255
79.471918 -228.102555 -288.760866 0 120 255
80.531205 -228.306429 -290.987464 0 120 255
81.699993 -228.487615 -293.158589 0 120 255
82.930029 -228.656109 -295.298685 0 120 255
84.160066 -228.824604 -297.438782 0 120 255
85.390102 -228.993099 -299.578878 0 120 255
86.718263 -229.140568 -301.658882 0 120 255
88.112546 -229.273868 -303.698392 0 120 255
89.506829 -229.407168 -305.737901 0 120 255
90.901112 -229.540468 -307.777410 0 120 255
92.382380 -229.655486 -309.753361 0 120 255
93.933774 -229.755766 -311.678072 0 120 255
95.485169 -229.856045 -313.602783 0 120 255
97.036563 -229.956324 -315.527494 0 120 255
98.663715 -230.040512 -317.386741 0 120 255
100.363680 -230.109233 -319.183068 0 120 255
102.063645 -230.177954 -320.979394 0 120 255
103.763610 -230.246676 -322.775721 0 120 255
105.528176 -230.300794 -324.506268 0 120 255
107.366723 -230.338190 -326.161484 0 120 255
109.205270 -230.375586 -327.816699 0 120 255
111.043817 -230.412981 -329.471915 0 120 255
112.936777 -230.436162 -331.061691 0 120 255
114.904067 -230.439925 -332.562074 0 120 255
116.871356 -230.443689 -334.062458 0 120 255
118.838646 -230.447452 -335.562842 0 120 255
120.850567 -230.437273 -336.999221 0 120 255
122.935484 -230.404293 -338.330921 0 120 255
125.020402 -230.371312 -339.662621 0 120 255
127.105319 -230.338332 -340.994321 0 120 255
129.225453 -230.292704 -342.264832 0 120 255
131.415049 -230.222130 -343.414650 0 120 255
133.604644 -230.151557 -344.564468 0 120 255
135.794240 -230.080983 -345.714287 0 120 255
138.010304 -229.999257 -346.806961 0 120 255
140.290041 -229.890703 -347.762159 0 120 255
142.569779 -229.782149 -348.717358 0 120 255
144.849517 -229.673595 -349.672557 0 120 255
147.147810 -229.555534 -350.575871 0 120 255
149.501456 -229.409115 -351.324405 0 120 255
151.855103 -229.262697 -352.072938 0 120 255
154.208750 -229.116278 -352.821472 0 120 255
156.574067 -228.962096 -353.524546 0 120 255
158.983632 -228.778486 -354.055280 0 120 255
161.393197 -228.594875 -354.586014 0 120 255
163.802761 -228.411264 -355.116748 0 120 255
166.218482 -228.221616 -355.608378 0 120 255
168.664990 -228.001772 -355.904451 0 120 255
171.111499 -227.781929 -356.200523 0 120 255
173.558007 -227.562085 -356.496596 0 120 255
176.004593 -227.340789 -356.790874 0 120 255
178.451723 -227.109359 -357.072637 0 120 255
180.898852 -226.877930 -357.354399 0 120 255
183.345982 -226.646500 -357.636161 0 120 255
185.793111 -226.415069 -357.917924 0 120 255
188.240238 -226.183629 -358.199699 0 120 255
190.687365 -225.952188 -358.481473 0 120 255
193.134493 -225.720747 -358.763248 0 120 255
195.581620 -225.489307 -359.045022 0 120 255
198.028748 -225.257870 -359.326789 0 120 255
200.475876 -225.026434 -359.608557 0 120 255
202.923005 -224.794997 -359.890324 0 120 255
205.370133 -224.563560 -360.172091 0 120 255
