ply
format ascii 1.0
element vertex 385
property float x
property float y
property float z
property uchar red
property uchar green
property uchar blue
end_header
77.430455 -42.474882 -360.397637 0 120 255
77.187547 -42.528712 -357.935881 0 120 255
76.944640 -42.582543 -355.474124 0 120 255
76.701732 -42.636374 -353.012368 0 120 255
76.458824 -42.690204 -350.550612 0 120 255
76.218968 -42.758195 -348.088909 0 120 255
75.979245 -42.826799 -345.627208 0 120 255
75.739521 -42.895404 -343.165508 0 120 255
75.499798 -42.964008 -340.703807 0 120 255
75.299063 -43.079592 -338.240446 0 120 255
75.101907 -43.199490 -335.776932 0 120 255
74.904752 -43.319388 -333.313418 0 120 255
74.707597 -43.439285 -330.849905 0 120 255
74.534173 -43.580272 -328.385753 0 120 255
74.364240 -43.724362 -325.921508 0 120 255
74.194306 -43.868451 -323.457262 0 120 255
74.024373 -44.012540 -320.993017 0 120 255
73.866480 -44.168378 -318.528697 0 120 255
73.711093 -44.326662 -316.064362 0 120 255
73.555706 -44.484946 -313.600028 0 120 255
73.400320 -44.643229 -311.135693 0 120 255
73.246132 -44.806334 -308.671598 0 120 255
73.092274 -44.970770 -306.207571 0 120 255
72.938417 -45.135205 -303.743543 0 120 255
72.784559 -45.299640 -301.279515 0 120 255
72.622106 -45.464104 -298.816046 0 120 255
72.456631 -45.628577 -296.352773 0 120 255
72.291157 -45.793051 -293.889501 0 120 255
72.125682 -45.957524 -291.426228 0 120 255
71.943038 -46.119046 -288.964001 0 120 255
71.752902 -46.279280 -286.502229 0 120 255
71.562766 -46.439513 -284.040458 0 120 255
71.372630 -46.599747 -281.578687 0 120 255
71.158085 -46.755554 -279.118705 0 120 255
70.930542 -46.909005 -276.659676 0 120 255
70.703000 -47.062456 -274.200647 0 120 255
70.475458 -47.215907 -271.741619 0 120 255
70.217672 -47.364644 -269.285410 0 120 255
69.940467 -47.510354 -266.831012 0 120 255
69.663262 -47.656065 -264.376613 0 120 255
69.386057 -47.801775 -261.922215 0 120 255
69.074215 -47.943395 -259.471930 0 120 255
68.735760 -48.081873 -257.024806 0 120 255
68.397305 -48.220350 -254.577682 0 120 255
68.058850 -48.358828 -252.130558 0 120 255
67.682795 -48.494462 -249.689041 0 120 255
67.272325 -48.627493 -247.252658 0 120 255
66.861856 -48.760523 -244.816275 0 120 255
66.451386 -48.893554 -242.379892 0 120 255
66.001743 -49.025374 -239.950724 0 120 255
65.509454 -49.155876 -237.529409 0 120 255
65.017166 -49.286377 -235.108094 0 120 255
64.524878 -49.416878 -232.686778 0 120 255
63.993160 -49.547962 -230.274286 0 120 255
63.410339 -49.679799 -227.873227 0 120 255
62.827519 -49.811637 -225.472168 0 120 255
62.244698 -49.943475 -223.071109 0 120 255
61.623410 -50.077662 -220.680361 0 120 255
60.942543 -50.215488 -218.305584 0 120 255
60.261676 -50.353313 -215.930806 0 120 255
59.580809 -50.491139 -213.556028 0 120 255
58.863522 -50.632895 -211.192810 0 120 255
58.078363 -50.781974 -208.851134 0 120 255
57.293204 -50.931054 -206.509458 0 120 255
56.508045 -51.080133 -204.167783 0 120 255
55.689458 -51.234407 -201.838552 0 120 255
54.795108 -51.400456 -199.537528 0 120 255
53.900759 -51.566504 -197.236504 0 120 255
53.006409 -51.732553 -194.935480 0 120 255
52.082401 -51.904648 -192.647313 0 120 255
51.075342 -52.093676 -190.395149 0 120 255
50.068282 -52.282705 -188.142984 0 120 255
49.061222 -52.471733 -185.890820 0 120 255
48.028885 -52.667177 -183.651345 0 120 255
46.907029 -52.885343 -181.456810 0 120 255
45.785172 -53.103509 -179.262274 0 120 255
44.663315 -53.321676 -177.067739 0 120 255
43.520988 -53.546101 -174.885060 0 120 255
42.283674 -53.799570 -172.757396 0 120 255
41.046360 -54.053038 -170.629732 0 120 255
39.809047 -54.306507 -168.502068 0 120 255
38.556312 -54.565535 -166.384689 0 120 255
37.204314 -54.860344 -164.333510 0 120 255
35.852316 -55.155154 -162.282332 0 120 255
34.500318 -55.449963 -160.231153 0 120 255
33.138004 -55.749095 -158.187895 0 120 255
31.673518 -56.091043 -156.223080 0 120 255
30.209032 -56.432990 -154.258264 0 120 255
28.744547 -56.774938 -152.293449 0 120 255
27.274723 -57.119463 -150.333360 0 120 255
25.701348 -57.513991 -148.464942 0 120 255
24.127973 -57.908519 -146.596525 0 120 255
22.554599 -58.303047 -144.728107 0 120 255
20.980558 -58.697944 -142.860372 0 120 255
19.303247 -59.150051 -141.098449 0 120 255
17.625937 -59.602158 -139.336526 0 120 255
15.948626 -60.054265 -137.574602 0 120 255
14.271316 -60.506372 -135.812679 0 120 255
12.499888 -61.018267 -134.163068 0 120 255
10.724935 -61.532402 -132.517666 0 120 255
8.949982 -62.046538 -130.872263 0 120 255
7.175028 -62.560673 -129.226860 0 120 255
5.317073 -63.135495 -127.697916 0 120 255
3.452043 -63.715490 -126.178899 0 120 255
1.587012 -64.295485 -124.659883 0 120 255
-0.278019 -64.875481 -123.140867 0 120 255
-2.214510 -65.516137 -121.741390 0 120 255
-4.160827 -66.165135 -120.358352 0 120 255
-6.107145 -66.814134 -118.975315 0 120 255
-8.053463 -67.463132 -117.592277 0 120 255
-10.059471 -68.171870 -116.330731 0 120 255
-12.077114 -68.892253 -115.092866 0 120 255
-14.094757 -69.612636 -113.855001 0 120 255
-16.112400 -70.333020 -112.617136 0 120 255
-18.177937 -71.111387 -111.501554 0 120 255
-20.255843 -71.904729 -110.417552 0 120 255
-22.333749 -72.698071 -109.333549 0 120 255
-24.411655 -73.491413 -108.249547 0 120 255
-26.525822 -74.340214 -107.287438 0 120 255
-28.651900 -75.207231 -106.365365 0 120 255
-30.777978 -76.074249 -105.443291 0 120 255
-32.904056 -76.941266 -104.521218 0 120 255
-35.055109 -77.860530 -103.719459 0 120 255
-37.216319 -78.801042 -102.966630 0 120 255
-39.377530 -79.741554 -102.213801 0 120 255
-41.538740 -80.682067 -101.460973 0 120 255
-43.714165 -81.671015 -100.825710 0 120 255
-45.896618 -82.683912 -100.248576 0 120 255
-48.079071 -83.696808 -99.671441 0 120 255
-50.261524 -84.709705 -99.094307 0 120 255
-52.448120 -85.766737 -98.630852 0 120 255
-54.637176 -86.849962 -98.234867 0 120 255
-56.826231 -87.933188 -97.838882 0 120 255
-59.015286 -89.016414 -97.442897 0 120 255
-61.199259 -90.139095 -97.155621 0 120 255
-63.379644 -91.289641 -96.945118 0 120 255
-65.560029 -92.440187 -96.734615 0 120 255
-67.740414 -93.590732 -96.524112 0 120 255
-69.907486 -94.775792 -96.416343 0 120 255
-72.063435 -95.989691 -96.394420 0 120 255
-74.219383 -97.203590 -96.372497 0 120 255
-76.375331 -98.417489 -96.350575 0 120 255
-78.510859 -99.660824 -96.424495 0 120 255
-80.626259 -100.933173 -96.592883 0 120 255
-82.741660 -102.205522 -96.761270 0 120 255
-84.857060 -103.477871 -96.929658 0 120 255
-86.946167 -104.774572 -97.186211 0 120 255
-89.004728 -106.099565 -97.545190 0 120 255
-91.063290 -107.424557 -97.904169 0 120 255
-93.121851 -108.749549 -98.263148 0 120 255
-95.149577 -110.093932 -98.701954 0 120 255
-97.135017 -111.464905 -99.250230 0 120 255
-99.120456 -112.835878 -99.798506 0 120 255
-101.105896 -114.206851 -100.346782 0 120 255
-103.057357 -115.592499 -100.966060 0 120 255
-104.953598 -117.001998 -101.700722 0 120 255
-106.849840 -118.411496 -102.435383 0 120 255
-108.746081 -119.820995 -103.170044 0 120 255
-110.606639 -121.240830 -103.966565 0 120 255
-112.398024 -122.680703 -104.882997 0 120 255
-114.189410 -124.120577 -105.799428 0 120 255
-115.980796 -125.560450 -106.715860 0 120 255
-117.736239 -127.006808 -107.684897 0 120 255
-119.407740 -128.468312 -108.776792 0 120 255
-121.079242 -129.929816 -109.868687 0 120 255
-122.750743 -131.391320 -110.960581 0 120 255
-124.387475 -132.856042 -112.095912 0 120 255
-125.924934 -134.329951 -113.355261 0 120 255
-127.462392 -135.803860 -114.614609 0 120 255
-128.999851 -137.277769 -115.873957 0 120 255
-130.505080 -138.752304 -117.167871 0 120 255
-131.895417 -140.229070 -118.585006 0 120 255
-133.285754 -141.705836 -120.002140 0 120 255
-134.676091 -143.182602 -121.419274 0 120 255
-136.038012 -144.658141 -122.862615 0 120 255
-137.269441 -146.128046 -124.426298 0 120 255
-138.500871 -147.597951 -125.989981 0 120 255
-139.732301 -149.067856 -127.553664 0 120 255
-140.940274 -150.535460 -129.135907 0 120 255
-142.002484 -151.988769 -130.833478 0 120 255
-143.064694 -153.442079 -132.531049 0 120 255
-144.126905 -154.895388 -134.228620 0 120 255
-145.171602 -156.346121 -135.938000 0 120 255
-146.055942 -157.773269 -137.755508 0 120 255
-146.940282 -159.200417 -139.573016 0 120 255
-147.824622 -160.627566 -141.390524 0 120 255
-148.698189 -162.052651 -143.214149 0 120 255
-149.397792 -163.444423 -145.136562 0 120 255
-150.097396 -164.836195 -147.058974 0 120 255
-150.797000 -166.227967 -148.981387 0 120 255
-151.493156 -167.618939 -150.905417 0 120 255
-152.003023 -168.966623 -152.916866 0 120 255
-152.512891 -170.314307 -154.928315 0 120 255
-153.022759 -171.661991 -156.939764 0 120 255
-153.532627 -173.009675 -158.951213 0 120 255
-153.853955 -174.306382 -161.033633 0 120 255
-154.171040 -175.601942 -163.117650 0 120 255
-154.488124 -176.897502 -165.201667 0 120 255
-154.805209 -178.193062 -167.285684 0 120 255
-154.940461 -179.432971 -169.422012 0 120 255
-155.063646 -180.669185 -171.561812 0 120 255
-155.186831 -181.905400 -173.701612 0 120 255
-155.310015 -183.141615 -175.841411 0 120 255
-155.259884 -184.318931 -178.016174 0 120 255
-155.189951 -185.489517 -180.194931 0 120 255
-155.120018 -186.660104 -182.373688 0 120 255
-155.050085 -187.830690 -184.552445 0 120 255
-154.816859 -188.940546 -186.750363 0 120 255
-154.556404 -190.040276 -188.951477 0 120 255
-154.295949 -191.140006 -191.152591 0 120 255
-154.035494 -192.239736 -193.353705 0 120 255
-153.622947 -193.278226 -195.559933 0 120 255
-153.176240 -194.302963 -197.767310 0 120 255
-152.729534 -195.327700 -199.974687 0 120 255
-152.282827 -196.352437 -202.182064 0 120 255
-151.696094 -197.316692 -204.382375 0 120 255
-151.068938 -198.263488 -206.580647 0 120 255
-150.441783 -199.210284 -208.778919 0 120 255
-149.814628 -200.157080 -210.977190 0 120 255
-149.060031 -201.045249 -213.158175 0 120 255
-148.259548 -201.912308 -215.332934 0 120 255
-147.459065 -202.779367 -217.507694 0 120 255
-146.658582 -203.646426 -219.682454 0 120 255
-145.743459 -204.457688 -221.831665 0 120 255
-144.777883 -205.244393 -223.969632 0 120 255
-143.812307 -206.031099 -226.107598 0 120 255
-142.846730 -206.817804 -228.245565 0 120 255
-141.779245 -207.552340 -230.351648 0 120 255
-140.657693 -208.259197 -232.440815 0 120 255
-139.536140 -208.966054 -234.529982 0 120 255
-138.414588 -209.672912 -236.619149 0 120 255
-137.203535 -210.331844 -238.671936 0 120 255
-135.935785 -210.960418 -240.701677 0 120 255
-134.668035 -211.588992 -242.731418 0 120 255
-133.400286 -212.217566 -244.761160 0 120 255
-132.054899 -212.802922 -246.751725 0 120 255
-130.651149 -213.355790 -248.712838 0 120 255
-129.247399 -213.908659 -250.673952 0 120 255
-127.843649 -214.461527 -252.635066 0 120 255
-126.373428 -214.976152 -254.555763 0 120 255
-124.844118 -215.456783 -256.440531 0 120 255
-123.314808 -215.937413 -258.325299 0 120 255
-121.785498 -216.418043 -260.210067 0 120 255
-120.200045 -216.865524 -262.054539 0 120 255
-118.555636 -217.278194 -263.856695 0 120 255
-116.911227 -217.690865 -265.658851 0 120 255
-115.266818 -218.103535 -267.461007 0 120 255
-113.575671 -218.488123 -269.224151 0 120 255
-111.826466 -218.837827 -270.938833 0 120 255
-110.077262 -219.187531 -272.653516 0 120 255
-108.328057 -219.537235 -274.368198 0 120 255
-106.540556 -219.863755 -276.046120 0 120 255
-104.696572 -220.156081 -277.669823 0 120 255
-102.852588 -220.448406 -279.293527 0 120 255
-101.008604 -220.740732 -280.917231 0 120 255
-99.133788 -221.014491 -282.507191 0 120 255
-97.204631 -221.255526 -284.037681 0 120 255
-95.275474 -221.496561 -285.568171 0 120 255
-93.346317 -221.737596 -287.098662 0 120 255
-91.392836 -221.964307 -288.599006 0 120 255
-89.387628 -222.160556 -290.035241 0 120 255
-87.382420 -222.356804 -291.471477 0 120 255
-85.377212 -222.553053 -292.907712 0 120 255
-83.353265 -222.738768 -294.317785 0 120 255
-81.280531 -222.897058 -295.659748 0 120 255
-79.207798 -223.055348 -297.001711 0 120 255
-77.135064 -223.213638 -298.343675 0 120 255
-75.048321 -223.364661 -299.663699 0 120 255
-72.916001 -223.492041 -300.912350 0 120 255
-70.783680 -223.619422 -302.161001 0 120 255
-68.651360 -223.746802 -303.409652 0 120 255
-66.508972 -223.869626 -304.640674 0 120 255
-64.324380 -223.973348 -305.797802 0 120 255
-62.139788 -224.077070 -306.954930 0 120 255
-59.955196 -224.180793 -308.112058 0 120 255
-57.763676 -224.282602 -309.255598 0 120 255
-55.532908 -224.373573 -310.322154 0 120 255
-53.302140 -224.464544 -311.388711 0 120 255
-51.071372 -224.555515 -312.455267 0 120 255
-48.836341 -224.646163 -313.512473 0 120 255
-46.565870 -224.734123 -314.491947 0 120 255
-44.295398 -224.822082 -315.471420 0 120 255
-42.024927 -224.910042 -316.450893 0 120 255
-39.752308 -224.997933 -317.425141 0 120 255
-37.448609 -225.084834 -318.323787 0 120 255
-35.144909 -225.171734 -319.222432 0 120 255
-32.841210 -225.258635 -320.121077 0 120 255
-30.536895 -225.345535 -321.018065 0 120 255
-28.205185 -225.432421 -321.841304 0 120 255
-25.873475 -225.519306 -322.664543 0 120 255
-23.541764 -225.606191 -323.487782 0 120 255
-21.210054 -225.693076 -324.311021 0 120 255
-18.855433 -225.781009 -325.066048 0 120 255
-16.500328 -225.868964 -325.819632 0 120 255
-14.145223 -225.956919 -326.573215 0 120 255
-11.790118 -226.044874 -327.326799 0 120 255
-9.416492 -226.133630 -328.019544 0 120 255
-7.041613 -226.222440 -328.708171 0 120 255
-4.666734 -226.311251 -329.396797 0 120 255
-2.291855 -226.400061 -330.085423 0 120 255
0.097858 -226.489381 -330.720300 0 120 255
2.489333 -226.578761 -331.348796 0 120 255
4.880807 -226.668141 -331.977291 0 120 255
7.272281 -226.757521 -332.605787 0 120 255
9.675516 -226.847230 -333.187293 0 120 255
12.080808 -226.936997 -333.760582 0 120 255
14.486099 -227.026764 -334.333870 0 120 255
16.891391 -227.116531 -334.907158 0 120 255
19.305897 -227.206475 -335.439891 0 120 255
21.722587 -227.296460 -335.963011 0 120 255
24.139278 -227.386445 -336.486132 0 120 255
26.555968 -227.476430 -337.009252 0 120 255
28.979814 -227.566490 -337.497741 0 120 255
31.405851 -227.656574 -337.975630 0 120 255
33.831887 -227.746658 -338.453518 0 120 255
36.257923 -227.836742 -338.931407 0 120 255
38.689486 -227.926809 -339.379953 0 120 255
41.123168 -228.016869 -339.817250 0 120 255
43.556849 -228.106930 -340.254547 0 120 255
45.990530 -228.196990 -340.691844 0 120 255
48.428366 -228.286827 -341.105067 0 120 255
50.868155 -228.376558 -341.506965 0 120 255
53.307944 -228.466289 -341.908862 0 120 255
55.747733 -228.556021 -342.310760 0 120 255
58.190547 -228.645145 -342.693716 0 120 255
60.635082 -228.733925 -343.065883 0 120 255
63.079618 -228.822704 -343.438050 0 120 255
65.524154 -228.911484 -343.810218 0 120 255
67.970978 -228.998249 -344.167295 0 120 255
70.419367 -229.083637 -344.514062 0 120 255
72.867755 -229.169025 -344.860829 0 120 255
75.316144 -229.254414 -345.207596 0 120 255
77.766400 -229.334274 -345.542048 0 120 255
80.218179 -229.409630 -345.866466 0 120 255
82.669958 -229.484986 -346.190885 0 120 255
85.121737 -229.560342 -346.515303 0 120 255
87.574993 -229.627128 -346.830032 0 120 255
90.029679 -229.685620 -347.135383 0 120 255
92.484365 -229.744111 -347.440734 0 120 255
94.939052 -229.802602 -347.746085 0 120 255
97.394798 -229.851225 -348.044277 0 120 255
99.851762 -229.888509 -348.334243 0 120 255
102.308727 -229.925792 -348.624210 0 120 255
104.765691 -229.963076 -348.914176 0 120 255
107.223338 -229.989659 -349.199166 0 120 255
109.681917 -230.001618 -349.477356 0 120 255
112.140497 -230.013577 -349.755546 0 120 255
114.599076 -230.025536 -350.033735 0 120 255
117.057991 -230.026420 -350.308807 0 120 255
119.517455 -230.009216 -350.578786 0 120 255
121.976918 -229.992012 -350.848765 0 120 255
124.436381 -229.974808 -351.118744 0 120 255
126.895869 -229.946586 -351.387115 0 120 255
129.355406 -229.896686 -351.652322 0 120 255
131.814942 -229.846786 -351.917529 0 120 255
134.274479 -229.796887 -352.182736 0 120 255
136.733767 -229.736409 -352.447541 0 120 255
139.192459 -229.650568 -352.711382 0 120 255
141.651150 -229.564728 -352.975222 0 120 255
144.109842 -229.478887 -353.239063 0 120 255
146.568062 -229.383265 -353.503392 0 120 255
149.024879 -229.258558 -353.769177 0 120 255
151.481697 -229.133852 -354.034961 0 120 255
153.938514 -229.009145 -354.300745 0 120 255
156.394701 -228.875775 -354.567607 0 120 255
158.848500 -228.709626 -354.838545 0 120 255
161.302300 -228.543478 -355.109483 0 120 255
163.756099 -228.377330 -355.380421 0 120 255
166.209013 -228.203047 -355.653592 0 120 255
168.657495 -227.988037 -355.937941 0 120 255
171.105976 -227.773027 -356.222290 0 120 255
173.554458 -227.558017 -356.506638 0 120 255
176.002789 -227.340959 -356.790667 0 120 255
178.450069 -227.109515 -357.072446 0 120 255
180.897349 -226.878072 -357.354226 0 120 255
183.344629 -226.646628 -357.636005 0 120 255
185.791909 -226.415183 -357.917786 0 120 255
188.239186 -226.183728 -358.199578 0 120 255
190.686464 -225.952273 -358.481370 0 120 255
193.133741 -225.720818 -358.763162 0 120 255
195.581019 -225.489364 -359.044953 0 120 255
198.028297 -225.257913 -359.326738 0 120 255
200.475576 -225.026462 -359.608522 0 120 255
202.922855 -224.795011 -359.890306 0 120 255
205.370133 -224.563560 -360.172091 0 120 255
