ply
format ascii 1.0
element vertex 385
property float x
property float y
property float z
property uchar red
property uchar green
property uchar blue
end_header
77.430455 -42.474882 -360.397637 0 120 255
77.187466 -42.528730 -357.935056 0 120 255
76.944477 -42.582579 -355.472475 0 120 255
76.701488 -42.636428 -353.009893 0 120 255
76.458498 -42.690276 -350.547312 0 120 255
76.226598 -42.770912 -348.084401 0 120 255
75.995163 -42.852669 -345.621475 0 120 255
75.763728 -42.934426 -343.158550 0 120 255
75.532292 -43.016184 -340.695624 0 120 255
75.468185 -43.278195 -338.236300 0 120 255
75.418496 -43.555739 -335.777286 0 120 255
75.368806 -43.833283 -333.318272 0 120 255
75.319117 -44.110826 -330.859258 0 120 255
75.416368 -44.512775 -328.419999 0 120 255
75.534192 -44.932142 -325.983507 0 120 255
75.652017 -45.351510 -323.547014 0 120 255
75.769842 -45.770878 -321.110521 0 120 255
76.022274 -46.285011 -318.703740 0 120 255
76.301642 -46.818107 -316.302905 0 120 255
76.581010 -47.351203 -313.902069 0 120 255
76.860378 -47.884299 -311.501234 0 120 255
77.260647 -48.484648 -309.134763 0 120 255
77.693237 -49.102974 -306.777479 0 120 255
78.125826 -49.721301 -304.420195 0 120 255
78.558416 -50.339628 -302.062912 0 120 255
79.097346 -51.000539 -299.740394 0 120 255
79.672718 -51.676044 -297.429790 0 120 255
80.248089 -52.351549 -295.119186 0 120 255
80.823461 -53.027054 -292.808583 0 120 255
81.490184 -53.723764 -290.529958 0 120 255
82.195954 -54.429538 -288.265004 0 120 255
82.901723 -55.135311 -286.000049 0 120 255
83.607493 -55.841085 -283.735094 0 120 255
84.389548 -56.550172 -281.497147 0 120 255
85.211509 -57.260992 -279.273330 0 120 255
86.033471 -57.971812 -277.049513 0 120 255
86.855432 -58.682632 -274.825695 0 120 255
87.738829 -59.382352 -272.622626 0 120 255
88.661033 -60.075061 -270.432662 0 120 255
89.583237 -60.767770 -268.242697 0 120 255
90.505440 -61.460479 -266.052733 0 120 255
91.474708 -62.131040 -263.876745 0 120 255
92.479536 -62.784867 -261.711316 0 120 255
93.484363 -63.438693 -259.545887 0 120 255
94.489190 -64.092520 -257.380459 0 120 255
95.527406 -64.716283 -255.222354 0 120 255
96.595604 -65.313050 -253.070826 0 120 255
97.663802 -65.909817 -250.919299 0 120 255
98.731999 -66.506585 -248.767771 0 120 255
99.820811 -67.068214 -246.617528 0 120 255
100.931533 -67.592492 -244.468650 0 120 255
102.042256 -68.116771 -242.319772 0 120 255
103.152979 -68.641049 -240.170894 0 120 255
104.272652 -69.127636 -238.018242 0 120 255
105.403568 -69.566876 -235.860849 0 120 255
106.534484 -70.006116 -233.703455 0 120 255
107.665400 -70.445356 -231.546062 0 120 255
108.794899 -70.846520 -229.381043 0 120 255
109.922295 -71.191139 -227.204701 0 120 255
111.049690 -71.535759 -225.028359 0 120 255
112.177086 -71.880378 -222.852017 0 120 255
113.294185 -72.188341 -220.665521 0 120 255
114.393160 -72.431782 -218.461153 0 120 255
115.492135 -72.675222 -216.256785 0 120 255
116.591111 -72.918663 -214.052416 0 120 255
117.672575 -73.128309 -211.836694 0 120 255
118.717321 -73.267093 -209.597165 0 120 255
119.762067 -73.405876 -207.357635 0 120 255
120.806813 -73.544660 -205.118105 0 120 255
121.828645 -73.653583 -202.867249 0 120 255
122.792780 -73.687319 -200.587873 0 120 255
123.756916 -73.721055 -198.308497 0 120 255
124.721051 -73.754792 -196.029121 0 120 255
125.658807 -73.763314 -193.739494 0 120 255
126.515854 -73.694697 -191.418501 0 120 255
127.372902 -73.626079 -189.097507 0 120 255
128.229950 -73.557461 -186.776514 0 120 255
129.059160 -73.468633 -184.447131 0 120 255
129.783088 -73.303370 -182.086015 0 120 255
130.507015 -73.138107 -179.724900 0 120 255
131.230943 -72.972844 -177.363784 0 120 255
131.927593 -72.792391 -174.996610 0 120 255
132.493453 -72.539099 -172.600385 0 120 255
133.059312 -72.285806 -170.204160 0 120 255
133.625172 -72.032514 -167.807935 0 120 255
134.166274 -71.768745 -165.408095 0 120 255
134.550902 -71.438756 -162.985407 0 120 255
134.935530 -71.108767 -160.562719 0 120 255
135.320158 -70.778778 -158.140031 0 120 255
135.684360 -70.442423 -155.715904 0 120 255
135.867135 -70.049536 -153.279005 0 120 255
136.049911 -69.656649 -150.842105 0 120 255
136.232687 -69.263762 -148.405205 0 120 255
136.400941 -68.867762 -145.968400 0 120 255
136.364489 -68.427883 -143.532948 0 120 255
136.328037 -67.988004 -141.097496 0 120 255
136.291585 -67.548126 -138.662044 0 120 255
136.247776 -67.107318 -136.227230 0 120 255
135.978710 -66.638049 -133.811937 0 120 255
135.709644 -66.168780 -131.396644 0 120 255
135.440578 -65.699511 -128.981352 0 120 255
135.171511 -65.230242 -126.566059 0 120 255
134.661654 -64.750399 -124.192058 0 120 255
134.151137 -64.270528 -121.818170 0 120 255
133.640620 -63.790657 -119.444281 0 120 255
133.130103 -63.310786 -117.070393 0 120 255
132.383391 -62.839404 -114.758646 0 120 255
131.627614 -62.368348 -112.449283 0 120 255
130.871836 -61.897293 -110.139920 0 120 255
130.116059 -61.426237 -107.830558 0 120 255
129.133881 -60.981430 -105.603627 0 120 255
128.134351 -60.538635 -103.383014 0 120 255
127.134821 -60.095840 -101.162401 0 120 255
126.135291 -59.653045 -98.941788 0 120 255
124.923880 -59.252406 -96.822472 0 120 255
123.687470 -58.856741 -94.715106 0 120 255
122.451061 -58.461075 -92.607741 0 120 255
121.214651 -58.065410 -90.500375 0 120 255
119.784957 -57.725504 -88.510946 0 120 255
118.323770 -57.394683 -86.540734 0 120 255
116.862583 -57.063862 -84.570521 0 120 255
115.401395 -56.733041 -82.600308 0 120 255
113.768753 -56.468932 -80.761801 0 120 255
112.099731 -56.218977 -78.951237 0 120 255
110.430710 -55.969023 -77.140674 0 120 255
108.761689 -55.719068 -75.330111 0 120 255
106.945324 -55.543939 -73.661657 0 120 255
105.089695 -55.388750 -72.031072 0 120 255
103.234066 -55.233561 -70.400487 0 120 255
101.378437 -55.078371 -68.769903 0 120 255
99.400832 -55.003216 -67.288187 0 120 255
97.383363 -54.954218 -65.855125 0 120 255
95.365894 -54.905220 -64.422064 0 120 255
93.348424 -54.856222 -62.989002 0 120 255
91.234583 -54.889647 -61.707845 0 120 255
89.082737 -54.955577 -60.486592 0 120 255
86.930890 -55.021507 -59.265339 0 120 255
84.779044 -55.087436 -58.044086 0 120 255
82.555714 -55.235564 -56.974154 0 120 255
80.298748 -55.422371 -55.975426 0 120 255
78.041782 -55.609177 -54.976698 0 120 255
75.784816 -55.795983 -53.977970 0 120 255
73.479700 -56.062456 -53.126653 0 120 255
71.147752 -56.373321 -52.357476 0 120 255
68.815805 -56.684186 -51.588298 0 120 255
66.483858 -56.995051 -50.819121 0 120 255
64.124855 -57.381127 -50.190531 0 120 255
61.748086 -57.816593 -49.654257 0 120 255
59.371318 -58.252058 -49.117984 0 120 255
56.994549 -58.687524 -48.581711 0 120 255
54.609076 -59.192244 -48.176813 0 120 255
52.216884 -59.750419 -47.873315 0 120 255
49.824693 -60.308593 -47.569818 0 120 255
47.432502 -60.866768 -47.266321 0 120 255
45.046896 -61.487174 -47.083154 0 120 255
42.667262 -62.164009 -47.009094 0 120 255
40.287628 -62.840843 -46.935034 0 120 255
37.907993 -63.517677 -46.860974 0 120 255
35.547031 -64.249083 -46.894952 0 120 255
33.205985 -65.038695 -47.044166 0 120 255
30.864939 -65.828308 -47.193380 0 120 255
28.523893 -66.617920 -47.342594 0 120 255
26.210417 -67.454189 -47.586853 0 120 255
23.931651 -68.349195 -47.950768 0 120 255
21.652884 -69.244202 -48.314683 0 120 255
19.374117 -70.139208 -48.678598 0 120 255
17.128776 -71.073044 -49.124368 0 120 255
14.933384 -72.064902 -49.692453 0 120 255
12.737992 -73.056761 -50.260537 0 120 255
10.542601 -74.048619 -50.828622 0 120 255
8.383694 -75.071844 -51.465609 0 120 255
6.290042 -76.151166 -52.225826 0 120 255
4.196389 -77.230489 -52.986044 0 120 255
2.102736 -78.309811 -53.746261 0 120 255
0.046148 -79.413624 -54.563018 0 120 255
-1.930155 -80.570486 -55.502244 0 120 255
-3.906458 -81.727349 -56.441470 0 120 255
-5.882760 -82.884211 -57.380696 0 120 255
-7.823546 -84.059434 -58.364959 0 120 255
-9.669582 -85.283637 -59.469372 0 120 255
-11.515617 -86.507841 -60.573784 0 120 255
-13.361653 -87.732045 -61.678197 0 120 255
-15.175477 -88.969326 -62.817201 0 120 255
-16.880894 -90.250621 -64.072623 0 120 255
-18.586312 -91.531915 -65.328045 0 120 255
-20.291729 -92.813210 -66.583468 0 120 255
-21.969633 -94.103203 -67.864216 0 120 255
-23.526464 -95.431474 -69.256416 0 120 255
-25.083296 -96.759746 -70.648616 0 120 255
-26.640127 -98.088017 -72.040816 0 120 255
-28.175195 -99.421526 -73.450317 0 120 255
-29.577650 -100.786949 -74.965239 0 120 255
-30.980106 -102.152371 -76.480161 0 120 255
-32.382561 -103.517793 -77.995083 0 120 255
-33.769742 -104.885893 -79.520532 0 120 255
-35.013980 -106.279042 -81.144495 0 120 255
-36.258217 -107.672192 -82.768458 0 120 255
-37.502454 -109.065342 -84.392422 0 120 255
-38.738368 -110.459467 -86.021362 0 120 255
-39.822258 -111.871404 -87.741206 0 120 255
-40.906147 -113.283341 -89.461051 0 120 255
-41.990036 -114.695279 -91.180895 0 120 255
-43.072783 -116.107290 -92.901332 0 120 255
-43.995677 -117.529624 -94.704519 0 120 255
-44.918571 -118.951957 -96.507705 0 120 255
-45.841465 -120.374291 -98.310892 0 120 255
-46.764359 -121.796625 -100.114079 0 120 255
-47.532945 -123.221439 -101.986057 0 120 255
-48.295462 -124.646352 -103.860742 0 120 255
-49.057978 -126.071264 -105.735427 0 120 255
-49.820494 -127.496176 -107.610112 0 120 255
-50.437465 -128.916829 -109.540176 0 120 255
-51.041277 -130.337096 -111.475247 0 120 255
-51.645089 -131.757363 -113.410319 0 120 255
-52.248901 -133.177630 -115.345390 0 120 255
-52.716551 -134.588064 -117.324079 0 120 255
-53.164201 -135.997054 -119.309175 0 120 255
-53.611851 -137.406044 -121.294271 0 120 255
-54.059501 -138.815034 -123.279367 0 120 255
-54.380731 -140.209708 -125.297861 0 120 255
-54.675461 -141.601380 -127.323356 0 120 255
-54.970191 -142.993053 -129.348851 0 120 255
-55.264921 -144.384725 -131.374347 0 120 255
-55.443119 -145.758590 -133.424452 0 120 255
-55.588724 -147.127475 -135.481441 0 120 255
-55.734329 -148.496360 -137.538430 0 120 255
-55.879934 -149.865244 -139.595418 0 120 255
-55.918863 -151.213717 -141.669550 0 120 255
-55.919557 -152.554873 -143.749826 0 120 255
-55.920251 -153.896029 -145.830102 0 120 255
-55.920944 -155.237185 -147.910378 0 120 255
-55.824658 -156.556136 -150.001518 0 120 255
-55.684966 -157.865147 -152.097520 0 120 255
-55.545275 -159.174159 -154.193522 0 120 255
-55.405583 -160.483170 -156.289523 0 120 255
-55.178337 -161.768903 -158.391183 0 120 255
-54.903001 -163.041851 -160.495950 0 120 255
-54.627666 -164.314798 -162.600717 0 120 255
-54.352331 -165.587746 -164.705484 0 120 255
-53.998514 -166.836967 -166.811672 0 120 255
-53.592406 -168.070380 -168.918807 0 120 255
-53.186297 -169.303792 -171.025942 0 120 255
-52.780188 -170.537205 -173.133077 0 120 255
-52.304268 -171.746999 -175.238258 0 120 255
-51.772330 -172.937840 -177.341871 0 120 255
-51.240391 -174.128681 -179.445484 0 120 255
-50.708453 -175.319523 -181.549097 0 120 255
-50.114930 -176.487335 -183.648147 0 120 255
-49.462117 -177.632976 -185.742805 0 120 255
-48.809304 -178.778617 -187.837462 0 120 255
-48.156491 -179.924258 -189.932120 0 120 255
-47.449857 -181.047863 -192.020295 0 120 255
-46.681093 -182.146032 -194.100986 0 120 255
-45.912330 -183.244201 -196.181678 0 120 255
-45.143566 -184.342369 -198.262369 0 120 255
-44.328270 -185.419861 -200.335259 0 120 255
-43.448422 -186.468671 -202.397325 0 120 255
-42.568575 -187.517480 -204.459391 0 120 255
-41.688727 -188.566289 -206.521457 0 120 255
-40.769156 -189.596061 -208.574949 0 120 255
-39.782996 -190.593921 -210.614070 0 120 255
-38.796836 -191.591781 -212.653191 0 120 255
-37.810676 -192.589640 -214.692312 0 120 255
-36.791133 -193.570354 -216.722568 0 120 255
-35.703320 -194.516004 -218.734695 0 120 255
-34.615507 -195.461654 -220.746823 0 120 255
-33.527694 -196.407304 -222.758950 0 120 255
-32.412378 -197.337891 -224.762360 0 120 255
-31.227455 -198.230351 -226.743703 0 120 255
-30.042532 -199.122812 -228.725046 0 120 255
-28.857608 -200.015272 -230.706388 0 120 255
-27.650616 -200.894906 -232.679549 0 120 255
-26.372980 -201.733483 -234.626517 0 120 255
-25.095344 -202.572060 -236.573485 0 120 255
-23.817708 -203.410637 -238.520452 0 120 255
-22.523010 -204.238734 -240.460134 0 120 255
-21.156932 -205.022988 -242.369329 0 120 255
-19.790855 -205.807243 -244.278524 0 120 255
-18.424777 -206.591497 -246.187719 0 120 255
-17.046236 -207.367693 -248.090851 0 120 255
-15.595835 -208.097423 -249.959026 0 120 255
-14.145433 -208.827153 -251.827201 0 120 255
-12.695032 -209.556883 -253.695377 0 120 255
-11.236378 -210.281017 -255.559018 0 120 255
-9.705638 -210.956274 -257.383055 0 120 255
-8.174898 -211.631531 -259.207092 0 120 255
-6.644158 -212.306788 -261.031130 0 120 255
-5.109006 -212.978919 -262.852448 0 120 255
-3.501766 -213.599977 -264.629331 0 120 255
-1.894525 -214.221036 -266.406214 0 120 255
-0.287285 -214.842094 -268.183097 0 120 255
1.320877 -215.462473 -269.959346 0 120 255
3.000899 -216.029820 -271.686161 0 120 255
4.680922 -216.597167 -273.412977 0 120 255
6.360944 -217.164514 -275.139792 0 120 255
8.040966 -217.731861 -276.866608 0 120 255
9.787965 -218.247902 -278.542203 0 120 255
11.537201 -218.762230 -280.216087 0 120 255
13.286437 -219.276557 -281.889972 0 120 255
15.035674 -219.790884 -283.563856 0 120 255
16.845574 -220.257126 -285.186324 0 120 255
18.660556 -220.719341 -286.804486 0 120 255
20.475538 -221.181556 -288.422648 0 120 255
22.290520 -221.643771 -290.040810 0 120 255
24.160269 -222.061203 -291.607645 0 120 255
26.037644 -222.472399 -293.167334 0 120 255
27.915019 -222.883596 -294.727022 0 120 255
29.792394 -223.294793 -296.286711 0 120 255
31.719034 -223.664573 -297.795425 0 120 255
33.655559 -224.026042 -299.293911 0 120 255
35.592084 -224.387512 -300.792397 0 120 255
37.528608 -224.748981 -302.290883 0 120 255
39.509253 -225.072433 -303.739013 0 120 255
41.501767 -225.385657 -305.173596 0 120 255
43.494280 -225.698880 -306.608180 0 120 255
45.486794 -226.012104 -308.042763 0 120 255
47.518621 -226.290704 -309.427867 0 120 255
49.564035 -226.557338 -310.795873 0 120 255
51.609448 -226.823972 -312.163878 0 120 255
53.654862 -227.090607 -313.531884 0 120 255
55.735114 -227.325981 -314.851520 0 120 255
57.830415 -227.547853 -316.150264 0 120 255
59.925716 -227.769724 -317.449007 0 120 255
62.021018 -227.991596 -318.747751 0 120 255
64.146978 -228.185527 -319.999489 0 120 255
66.289191 -228.364648 -321.226310 0 120 255
68.431403 -228.543768 -322.453131 0 120 255
70.573616 -228.722889 -323.679952 0 120 255
72.742610 -228.877299 -324.861346 0 120 255
74.928814 -229.015831 -326.013547 0 120 255
77.115019 -229.154362 -327.165749 0 120 255
79.301223 -229.292893 -328.317951 0 120 255
81.510594 -229.409845 -329.426556 0 120 255
83.737871 -229.510118 -330.501466 0 120 255
85.965149 -229.610390 -331.576375 0 120 255
88.192426 -229.710663 -332.651285 0 120 255
90.440111 -229.796172 -333.683049 0 120 255
92.706685 -229.868016 -334.674881 0 120 255
94.973259 -229.939860 -335.666713 0 120 255
97.239832 -230.011705 -336.658545 0 120 255
99.523438 -230.069931 -337.610223 0 120 255
101.825896 -230.113085 -338.517459 0 120 255
104.128353 -230.156238 -339.424695 0 120 255
106.430810 -230.199392 -340.331931 0 120 255
108.746769 -230.226991 -341.203463 0 120 255
111.080629 -230.233966 -342.027659 0 120 255
113.414489 -230.240941 -342.851854 0 120 255
115.748349 -230.247917 -343.676049 0 120 255
118.092999 -230.240957 -344.467648 0 120 255
120.454863 -230.211764 -345.207238 0 120 255
122.816727 -230.182571 -345.946828 0 120 255
125.178592 -230.153378 -346.686418 0 120 255
127.548830 -230.111925 -347.396633 0 120 255
129.935274 -230.046741 -348.049995 0 120 255
132.321719 -229.981558 -348.703356 0 120 255
134.708164 -229.916374 -349.356717 0 120 255
137.100861 -229.840647 -349.984050 0 120 255
139.508423 -229.739852 -350.549500 0 120 255
141.915986 -229.639056 -351.114950 0 120 255
144.323548 -229.538261 -351.680399 0 120 255
146.735538 -229.428657 -352.223297 0 120 255
149.160702 -229.292844 -352.699093 0 120 255
151.585866 -229.157031 -353.174890 0 120 255
154.011030 -229.021219 -353.650687 0 120 255
156.439095 -228.878320 -354.107560 0 120 255
158.878268 -228.708289 -354.491976 0 120 255
161.317441 -228.538257 -354.876392 0 120 255
163.756613 -228.368225 -355.260807 0 120 255
166.197371 -228.191403 -355.629892 0 120 255
168.646290 -227.979619 -355.920052 0 120 255
171.095209 -227.767836 -356.210212 0 120 255
173.544128 -227.556053 -356.500372 0 120 255
175.992948 -227.341890 -356.789534 0 120 255
178.441048 -227.110369 -357.071408 0 120 255
180.889148 -226.878847 -357.353281 0 120 255
183.337248 -226.647326 -357.635155 0 120 255
185.785348 -226.415804 -357.917030 0 120 255
188.233445 -226.184271 -358.198917 0 120 255
190.681543 -225.952739 -358.480803 0 120 255
193.129640 -225.721206 -358.762689 0 120 255
195.577738 -225.489674 -359.044575 0 120 255
198.025837 -225.258146 -359.326454 0 120 255
200.473936 -225.026617 -359.608333 0 120 255
202.922034 -224.795089 -359.890212 0 120 255
205.370133 -224.563560 -360.172091 0 120 255
