ply
format ascii 1.0
element vertex 385
property float x
property float y
property float z
property uchar red
property uchar green
property uchar blue
end_header
77.430455 -42.474882 -360.397637 0 120 255
77.187543 -42.528713 -357.935838 0 120 255
76.944631 -42.582545 -355.474039 0 120 255
76.701719 -42.636376 -353.012240 0 120 255
76.458807 -42.690208 -350.550441 0 120 255
76.214863 -42.754700 -348.089002 0 120 255
75.970874 -42.819653 -345.627578 0 120 255
75.726884 -42.884607 -343.166154 0 120 255
75.482895 -42.949560 -340.704730 0 120 255
75.297835 -43.402256 -338.282108 0 120 255
75.118116 -43.890103 -335.863004 0 120 255
74.938398 -44.377950 -333.443900 0 120 255
74.758679 -44.865797 -331.024796 0 120 255
74.622213 -45.684025 -328.697422 0 120 255
74.492109 -46.550852 -326.383542 0 120 255
74.362006 -47.417678 -324.069662 0 120 255
74.231902 -48.284505 -321.755781 0 120 255
74.133732 -49.430303 -319.569487 0 120 255
74.042271 -50.634703 -317.409993 0 120 255
73.950810 -51.839102 -315.250499 0 120 255
73.859348 -53.043502 -313.091005 0 120 255
73.793347 -54.476192 -311.079930 0 120 255
73.734487 -55.972910 -309.110481 0 120 255
73.675626 -57.469628 -307.141032 0 120 255
73.616766 -58.966346 -305.171583 0 120 255
73.580910 -60.644504 -303.359419 0 120 255
73.553325 -62.387891 -301.603800 0 120 255
73.525740 -64.131278 -299.848181 0 120 255
73.498155 -65.874665 -298.092562 0 120 255
73.494179 -67.758075 -296.494134 0 120 255
73.500795 -69.704317 -294.966241 0 120 255
73.507412 -71.650559 -293.438349 0 120 255
73.514029 -73.596801 -291.910456 0 120 255
73.547005 -75.647602 -290.533287 0 120 255
73.594480 -77.755915 -289.239023 0 120 255
73.641954 -79.864229 -287.944759 0 120 255
73.689429 -81.972542 -286.650496 0 120 255
73.767304 -84.155755 -285.496164 0 120 255
73.865425 -86.388852 -284.435029 0 120 255
73.963546 -88.621949 -283.373895 0 120 255
74.061668 -90.855047 -282.312761 0 120 255
74.194783 -93.138702 -281.378013 0 120 255
74.355891 -95.462802 -280.544370 0 120 255
74.517000 -97.786902 -279.710727 0 120 255
74.678108 -100.111002 -278.877084 0 120 255
74.878716 -102.465991 -278.154649 0 120 255
75.117099 -104.850518 -277.538566 0 120 255
75.355481 -107.235046 -276.922483 0 120 255
75.593863 -109.619574 -276.306399 0 120 255
75.875640 -112.019353 -275.785585 0 120 255
76.206937 -114.436537 -275.373487 0 120 255
76.538233 -116.853720 -274.961389 0 120 255
76.869530 -119.270903 -274.549291 0 120 255
77.247063 -121.691133 -274.216347 0 120 255
77.687612 -124.115513 -273.991287 0 120 255
78.128162 -126.539894 -273.766227 0 120 255
78.568711 -128.964275 -273.541167 0 120 255
79.056944 -131.382436 -273.379501 0 120 255
79.623093 -133.790435 -273.321424 0 120 255
80.189243 -136.198434 -273.263348 0 120 255
80.755392 -138.606433 -273.205271 0 120 255
81.369037 -141.001492 -273.195565 0 120 255
82.076382 -143.371022 -273.281286 0 120 255
82.783728 -145.740552 -273.367006 0 120 255
83.491073 -148.110082 -273.452726 0 120 255
84.243970 -150.462198 -273.572971 0 120 255
85.106559 -152.772378 -273.776352 0 120 255
85.969148 -155.082559 -273.979734 0 120 255
86.831737 -157.392739 -274.183115 0 120 255
87.736162 -159.683065 -274.408720 0 120 255
88.765593 -161.914065 -274.700725 0 120 255
89.795024 -164.145066 -274.992731 0 120 255
90.824455 -166.376066 -275.284737 0 120 255
91.890378 -168.586643 -275.588602 0 120 255
93.094935 -170.719636 -275.937519 0 120 255
94.299492 -172.852628 -276.286436 0 120 255
95.504049 -174.985621 -276.635352 0 120 255
96.738398 -177.099373 -276.988076 0 120 255
98.122104 -179.116666 -277.359886 0 120 255
99.505811 -181.133959 -277.731695 0 120 255
100.889518 -183.151252 -278.103504 0 120 255
102.295396 -185.152111 -278.473712 0 120 255
103.857221 -187.037374 -278.832657 0 120 255
105.419046 -188.922638 -279.191602 0 120 255
106.980871 -190.807901 -279.550548 0 120 255
108.556899 -192.681010 -279.905380 0 120 255
110.290017 -194.419678 -280.214722 0 120 255
112.023135 -196.158346 -280.524065 0 120 255
113.756254 -197.897014 -280.833407 0 120 255
115.495950 -199.629073 -281.139158 0 120 255
117.387255 -201.208820 -281.362146 0 120 255
119.278560 -202.788566 -281.585134 0 120 255
121.169865 -204.368313 -281.808122 0 120 255
123.061233 -205.947984 -282.031055 0 120 255
125.091111 -207.359273 -282.132115 0 120 255
127.120990 -208.770562 -282.233175 0 120 255
129.150868 -210.181851 -282.334234 0 120 255
131.180747 -211.593141 -282.435294 0 120 255
133.318653 -212.836854 -282.387555 0 120 255
135.461120 -214.073493 -282.333535 0 120 255
137.603586 -215.310132 -282.279514 0 120 255
139.746053 -216.546771 -282.225493 0 120 255
141.962690 -217.620831 -282.002102 0 120 255
144.185895 -218.680496 -281.763714 0 120 255
146.409100 -219.740161 -281.525326 0 120 255
148.632305 -220.799825 -281.286938 0 120 255
150.894098 -221.705795 -280.865381 0 120 255
153.161257 -222.590395 -280.418357 0 120 255
155.428416 -223.474995 -279.971333 0 120 255
157.695575 -224.359595 -279.524309 0 120 255
159.965672 -225.102946 -278.887468 0 120 255
162.236340 -225.818842 -278.213733 0 120 255
164.507007 -226.534738 -277.539998 0 120 255
166.777675 -227.250634 -276.866263 0 120 255
169.017238 -227.840734 -276.003102 0 120 255
171.248859 -228.398714 -275.091574 0 120 255
173.480481 -228.956694 -274.180047 0 120 255
175.712102 -229.514674 -273.268519 0 120 255
177.881738 -229.964598 -272.174517 0 120 255
180.031361 -230.379634 -271.021596 0 120 255
182.180983 -230.794669 -269.868674 0 120 255
184.330605 -231.209704 -268.715753 0 120 255
186.391806 -231.535838 -267.392992 0 120 255
188.417796 -231.826568 -266.002597 0 120 255
190.443786 -232.117299 -264.612202 0 120 255
192.469776 -232.408030 -263.221807 0 120 255
194.386291 -232.629512 -261.678783 0 120 255
196.249949 -232.817559 -260.062065 0 120 255
198.113606 -233.005605 -258.445347 0 120 255
199.977264 -233.193652 -256.828629 0 120 255
201.716292 -233.331708 -255.079761 0 120 255
203.383208 -233.440839 -253.254428 0 120 255
205.050123 -233.549970 -251.429095 0 120 255
206.717039 -233.659101 -249.603763 0 120 255
208.250275 -233.737123 -247.668762 0 120 255
209.691549 -233.793743 -245.658320 0 120 255
211.132823 -233.850364 -243.647877 0 120 255
212.574098 -233.906985 -241.637434 0 120 255
213.878619 -233.950009 -239.540469 0 120 255
215.071806 -233.981964 -237.373065 0 120 255
216.264993 -234.013918 -235.205661 0 120 255
217.458179 -234.045873 -233.038256 0 120 255
218.514816 -234.070151 -230.805937 0 120 255
219.440148 -234.087046 -228.511197 0 120 255
220.365480 -234.103942 -226.216457 0 120 255
221.290812 -234.120838 -223.921717 0 120 255
222.083265 -234.131495 -221.582499 0 120 255
222.724936 -234.135075 -219.192812 0 120 255
223.366607 -234.138654 -216.803125 0 120 255
224.008278 -234.142234 -214.413439 0 120 255
224.524512 -234.140788 -211.998103 0 120 255
224.872546 -234.132604 -209.548376 0 120 255
225.220581 -234.124420 -207.098649 0 120 255
225.568615 -234.116235 -204.648922 0 120 255
225.801644 -234.104461 -202.189917 0 120 255
225.851636 -234.086973 -199.716144 0 120 255
225.901627 -234.069485 -197.242371 0 120 255
225.951619 -234.051997 -194.768598 0 120 255
225.899256 -234.031894 -192.298936 0 120 255
225.652121 -234.006815 -189.837096 0 120 255
225.404987 -233.981736 -187.375257 0 120 255
225.157853 -233.956657 -184.913417 0 120 255
224.822470 -233.929604 -182.465815 0 120 255
224.284109 -233.898009 -180.050960 0 120 255
223.745748 -233.866415 -177.636105 0 120 255
223.207387 -233.834821 -175.221249 0 120 255
222.595607 -233.801666 -172.827401 0 120 255
221.776486 -233.764106 -170.492880 0 120 255
220.957366 -233.726545 -168.158359 0 120 255
220.138246 -233.688985 -165.823838 0 120 255
219.260570 -233.650143 -163.513808 0 120 255
218.175193 -233.606759 -161.290650 0 120 255
217.089816 -233.563374 -159.067492 0 120 255
216.004438 -233.519989 -156.844334 0 120 255
214.874785 -233.475548 -154.646069 0 120 255
213.541059 -233.426237 -152.562538 0 120 255
212.207333 -233.376926 -150.479007 0 120 255
210.873606 -233.327615 -148.395477 0 120 255
209.508797 -233.277463 -146.334452 0 120 255
207.947479 -233.221998 -144.415711 0 120 255
206.386160 -233.166533 -142.496970 0 120 255
204.824842 -233.111068 -140.578229 0 120 255
203.244119 -233.054999 -138.677193 0 120 255
201.478193 -232.993170 -136.945131 0 120 255
199.712266 -232.931340 -135.213069 0 120 255
197.946340 -232.869511 -133.481006 0 120 255
196.170866 -232.807340 -131.759833 0 120 255
194.224992 -232.739074 -130.232982 0 120 255
192.279119 -232.670808 -128.706131 0 120 255
190.333246 -232.602541 -127.179280 0 120 255
188.385641 -232.534204 -125.654905 0 120 255
186.285653 -232.459657 -124.348440 0 120 255
184.185665 -232.385111 -123.041975 0 120 255
182.085677 -232.310564 -121.735510 0 120 255
179.985689 -232.236017 -120.429045 0 120 255
177.762027 -232.155825 -119.347764 0 120 255
175.534457 -232.075456 -118.273599 0 120 255
173.306887 -231.995086 -117.199434 0 120 255
171.079317 -231.914716 -116.125268 0 120 255
168.758307 -231.829760 -115.274706 0 120 255
166.429989 -231.744445 -114.441630 0 120 255
164.101672 -231.659130 -113.608553 0 120 255
161.773354 -231.573815 -112.775477 0 120 255
159.379557 -231.485254 -112.161054 0 120 255
156.977297 -231.396272 -111.574892 0 120 255
154.575037 -231.307291 -110.988729 0 120 255
152.172777 -231.218310 -110.402567 0 120 255
149.730476 -231.128005 -110.027302 0 120 255
147.280751 -231.037455 -109.691135 0 120 255
144.831027 -230.946905 -109.354968 0 120 255
142.381302 -230.856355 -109.018800 0 120 255
139.914360 -230.765932 -108.883409 0 120 255
137.443158 -230.675541 -108.797691 0 120 255
134.971956 -230.585149 -108.711972 0 120 255
132.500754 -230.494758 -108.626253 0 120 255
130.032470 -230.405236 -108.729387 0 120 255
127.565108 -230.315988 -108.892234 0 120 255
125.097747 -230.226741 -109.055082 0 120 255
122.630385 -230.137493 -109.217929 0 120 255
120.183352 -230.049651 -109.556184 0 120 255
117.744307 -229.962361 -109.963367 0 120 255
115.305262 -229.875071 -110.370550 0 120 255
112.866217 -229.787781 -110.777734 0 120 255
110.462169 -229.702369 -111.345741 0 120 255
108.074893 -229.617856 -111.990821 0 120 255
105.687617 -229.533343 -112.635900 0 120 255
103.300341 -229.448830 -113.280980 0 120 255
100.960030 -229.366564 -114.071578 0 120 255
98.646811 -229.285595 -114.946118 0 120 255
96.333592 -229.204625 -115.820658 0 120 255
94.020373 -229.123655 -116.695197 0 120 255
91.763432 -229.045216 -117.699512 0 120 255
89.545221 -228.968518 -118.793137 0 120 255
87.327011 -228.891820 -119.886762 0 120 255
85.108800 -228.815122 -120.980387 0 120 255
82.953627 -228.741143 -122.187972 0 120 255
80.849920 -228.669382 -123.488597 0 120 255
78.746214 -228.597621 -124.789223 0 120 255
76.642507 -228.525861 -126.089848 0 120 255
74.606152 -228.456916 -127.488824 0 120 255
72.634838 -228.390690 -128.982776 0 120 255
70.663524 -228.324464 -130.476728 0 120 255
68.692210 -228.258238 -131.970681 0 120 255
66.790273 -228.194844 -133.547880 0 120 255
64.967540 -228.134683 -135.220118 0 120 255
63.144807 -228.074522 -136.892357 0 120 255
61.322074 -228.014362 -138.564596 0 120 255
59.568643 -227.956972 -140.305750 0 120 255
57.908918 -227.903331 -142.140087 0 120 255
56.249192 -227.849690 -143.974424 0 120 255
54.589467 -227.796048 -145.808761 0 120 255
52.997045 -227.745057 -147.698653 0 120 255
51.512879 -227.698329 -149.677901 0 120 255
50.028712 -227.651601 -151.657149 0 120 255
48.544545 -227.604873 -153.636397 0 120 255
47.124011 -227.560623 -155.659029 0 120 255
45.826117 -227.521150 -157.765274 0 120 255
44.528222 -227.481677 -159.871520 0 120 255
43.230328 -227.442204 -161.977765 0 120 255
41.990922 -227.404983 -164.116544 0 120 255
40.888079 -227.373021 -166.331284 0 120 255
39.785237 -227.341058 -168.546024 0 120 255
38.682394 -227.309095 -170.760764 0 120 255
37.631667 -227.279118 -172.998638 0 120 255
36.730723 -227.254845 -175.302996 0 120 255
35.829779 -227.230572 -177.607355 0 120 255
34.928835 -227.206299 -179.911713 0 120 255
34.072656 -227.183714 -182.231345 0 120 255
33.378571 -227.167241 -184.606284 0 120 255
32.684486 -227.150768 -186.981222 0 120 255
31.990402 -227.134295 -189.356161 0 120 255
31.332993 -227.119187 -191.740106 0 120 255
30.848863 -227.110534 -194.166606 0 120 255
30.364734 -227.101881 -196.593106 0 120 255
29.880604 -227.093227 -199.019606 0 120 255
29.424561 -227.085611 -201.450459 0 120 255
29.151647 -227.084753 -203.909702 0 120 255
28.878732 -227.083896 -206.368945 0 120 255
28.605817 -227.083038 -208.828187 0 120 255
28.352129 -227.082885 -211.288736 0 120 255
28.289892 -227.089742 -213.762283 0 120 255
28.227656 -227.096600 -216.235830 0 120 255
28.165419 -227.103458 -218.709378 0 120 255
28.113512 -227.110692 -221.182748 0 120 255
28.259759 -227.125140 -223.652720 0 120 255
28.406007 -227.139589 -226.122692 0 120 255
28.552254 -227.154038 -228.592664 0 120 255
28.700100 -227.168544 -231.062473 0 120 255
29.051029 -227.190366 -233.511704 0 120 255
29.401957 -227.212189 -235.960935 0 120 255
29.752886 -227.234012 -238.410165 0 120 255
30.103815 -227.255834 -240.859396 0 120 255
30.647287 -227.284533 -243.272863 0 120 255
31.197525 -227.313473 -245.685073 0 120 255
31.747763 -227.342414 -248.097283 0 120 255
32.298000 -227.371354 -250.509494 0 120 255
33.026246 -227.406598 -252.873385 0 120 255
33.769074 -227.442358 -255.233318 0 120 255
34.511902 -227.478118 -257.593252 0 120 255
35.254730 -227.513879 -259.953185 0 120 255
36.160559 -227.555361 -262.254513 0 120 255
37.088093 -227.597605 -264.548038 0 120 255
38.015627 -227.639849 -266.841562 0 120 255
38.943161 -227.682093 -269.135086 0 120 255
40.018490 -227.729488 -271.361920 0 120 255
41.121836 -227.777858 -273.576112 0 120 255
42.225181 -227.826229 -275.790305 0 120 255
43.328526 -227.874600 -278.004497 0 120 255
44.564511 -227.927528 -280.146022 0 120 255
45.833909 -227.981604 -282.269242 0 120 255
47.103307 -228.035680 -284.392462 0 120 255
48.372705 -228.089757 -286.515682 0 120 255
49.759910 -228.147855 -288.562213 0 120 255
51.184957 -228.207245 -290.584111 0 120 255
52.610004 -228.266635 -292.606009 0 120 255
54.035051 -228.326025 -294.627907 0 120 255
55.563657 -228.388959 -296.570841 0 120 255
57.133554 -228.453306 -298.482291 0 120 255
58.703451 -228.517652 -300.393741 0 120 255
60.273348 -228.581999 -302.305190 0 120 255
61.933221 -228.649500 -304.137021 0 120 255
63.636816 -228.718534 -305.930163 0 120 255
65.340411 -228.787567 -307.723304 0 120 255
67.044007 -228.856601 -309.516445 0 120 255
68.824792 -228.928285 -311.230767 0 120 255
70.650724 -229.001520 -312.898990 0 120 255
72.476656 -229.074754 -314.567213 0 120 255
74.302588 -229.147988 -316.235435 0 120 255
76.193704 -229.222790 -317.827095 0 120 255
78.130320 -229.298686 -319.365314 0 120 255
80.066936 -229.374581 -320.903532 0 120 255
82.003552 -229.450477 -322.441751 0 120 255
83.993920 -229.524762 -323.907537 0 120 255
86.028836 -229.597713 -325.313295 0 120 255
88.063751 -229.670664 -326.719052 0 120 255
90.098667 -229.743614 -328.124810 0 120 255
92.176887 -229.810445 -329.463699 0 120 255
94.297616 -229.871268 -330.736950 0 120 255
96.418345 -229.932091 -332.010201 0 120 255
98.539073 -229.992914 -333.283452 0 120 255
100.694046 -230.044196 -334.495910 0 120 255
102.888828 -230.084388 -335.637695 0 120 255
105.083611 -230.124580 -336.779480 0 120 255
107.278393 -230.164772 -337.921265 0 120 255
109.499725 -230.193574 -339.008438 0 120 255
111.757693 -230.206658 -340.020252 0 120 255
114.015660 -230.219743 -341.032066 0 120 255
116.273628 -230.232827 -342.043881 0 120 255
118.551633 -230.233630 -343.007363 0 120 255
120.862617 -230.214220 -343.891292 0 120 255
123.173602 -230.194810 -344.775222 0 120 255
125.484586 -230.175400 -345.659151 0 120 255
127.810183 -230.143657 -346.501008 0 120 255
130.164699 -230.087506 -347.259598 0 120 255
132.519215 -230.031356 -348.018188 0 120 255
134.873732 -229.975206 -348.776777 0 120 255
137.238440 -229.907379 -349.499425 0 120 255
139.627699 -229.811427 -350.135501 0 120 255
142.016958 -229.715475 -350.771576 0 120 255
144.406217 -229.619523 -351.407652 0 120 255
146.802162 -229.513101 -352.013735 0 120 255
149.218052 -229.375449 -352.530346 0 120 255
151.633941 -229.237796 -353.046957 0 120 255
154.049831 -229.100143 -353.563568 0 120 255
156.469730 -228.953642 -354.055903 0 120 255
158.904827 -228.773596 -354.456204 0 120 255
161.339925 -228.593550 -354.856505 0 120 255
163.775022 -228.413504 -355.256806 0 120 255
166.212188 -228.226632 -355.638466 0 120 255
168.659717 -228.005548 -355.926702 0 120 255
171.107246 -227.784464 -356.214938 0 120 255
173.554776 -227.563381 -356.503174 0 120 255
176.002279 -227.341008 -356.790608 0 120 255
178.449602 -227.109560 -357.072392 0 120 255
180.896924 -226.878112 -357.354177 0 120 255
183.344246 -226.646664 -357.635961 0 120 255
185.791569 -226.415215 -357.917747 0 120 255
188.238889 -226.183756 -358.199543 0 120 255
190.686209 -225.952297 -358.481340 0 120 255
193.133528 -225.720839 -358.763137 0 120 255
195.580848 -225.489380 -359.044934 0 120 255
198.028170 -225.257925 -359.326723 0 120 255
200.475491 -225.026470 -359.608512 0 120 255
202.922812 -224.795015 -359.890301 0 120 255
205.370133 -224.563560 -360.172091 0 120 255
