ply
format ascii 1.0
element vertex 385
property float x
property float y
property float z
property uchar red
property uchar green
property uchar blue
end_header
77.430455 -42.474882 -360.397637 0 120 255
77.187526 -42.528717 -357.935660 0 120 255
76.944596 -42.582553 -355.473684 0 120 255
76.701667 -42.636388 -353.011708 0 120 255
76.458737 -42.690224 -350.549732 0 120 255
76.224357 -42.752736 -348.087134 0 120 255
75.990345 -42.815622 -345.624508 0 120 255
75.756332 -42.878508 -343.161883 0 120 255
75.522320 -42.941394 -340.699258 0 120 255
75.333474 -43.103010 -338.237475 0 120 255
75.148775 -43.273690 -335.775769 0 120 255
74.964075 -43.444370 -333.314064 0 120 255
74.779376 -43.615051 -330.852358 0 120 255
74.629124 -43.868686 -328.395709 0 120 255
74.484003 -44.134680 -325.939812 0 120 255
74.338883 -44.400673 -323.483916 0 120 255
74.193762 -44.666667 -321.028020 0 120 255
74.079980 -45.008662 -318.580188 0 120 255
73.972859 -45.366813 -316.134070 0 120 255
73.865738 -45.724965 -313.687952 0 120 255
73.758618 -46.083116 -311.241834 0 120 255
73.679186 -46.510423 -308.806114 0 120 255
73.607610 -46.957348 -306.373343 0 120 255
73.536033 -47.404273 -303.940572 0 120 255
73.464456 -47.851197 -301.507801 0 120 255
73.416508 -48.360643 -299.087113 0 120 255
73.377153 -48.892825 -296.670820 0 120 255
73.337798 -49.425006 -294.254527 0 120 255
73.298442 -49.957188 -291.838233 0 120 255
73.278398 -50.545539 -289.435110 0 120 255
73.267126 -51.159404 -287.037970 0 120 255
73.255854 -51.773269 -284.640829 0 120 255
73.244582 -52.387134 -282.243689 0 120 255
73.248189 -53.051145 -279.860270 0 120 255
73.260093 -53.743120 -277.484503 0 120 255
73.271997 -54.435094 -275.108736 0 120 255
73.283902 -55.127068 -272.732969 0 120 255
73.306271 -55.863516 -270.371012 0 120 255
73.335722 -56.630059 -268.018399 0 120 255
73.365173 -57.396601 -265.665787 0 120 255
73.394624 -58.163144 -263.313175 0 120 255
73.430281 -58.968857 -260.974080 0 120 255
73.470998 -59.806508 -258.646007 0 120 255
73.511716 -60.644159 -256.317935 0 120 255
73.552433 -61.481810 -253.989862 0 120 255
73.595365 -62.353680 -251.674711 0 120 255
73.640463 -63.259036 -249.372204 0 120 255
73.685562 -64.164392 -247.069698 0 120 255
73.730660 -65.069748 -244.767191 0 120 255
73.774362 -66.004721 -242.476787 0 120 255
73.816426 -66.974451 -240.200585 0 120 255
73.858489 -67.944180 -237.924383 0 120 255
73.900552 -68.913910 -235.648182 0 120 255
73.938084 -69.908985 -233.383111 0 120 255
73.969225 -70.939810 -231.133740 0 120 255
74.000366 -71.970635 -228.884369 0 120 255
74.031507 -73.001460 -226.634998 0 120 255
74.055532 -74.053674 -224.395697 0 120 255
74.067429 -75.142345 -222.173560 0 120 255
74.079326 -76.231016 -219.951423 0 120 255
74.091223 -77.319687 -217.729285 0 120 255
74.094053 -78.426087 -215.516116 0 120 255
74.078034 -79.569338 -213.321586 0 120 255
74.062015 -80.712589 -211.127057 0 120 255
74.045997 -81.855840 -208.932527 0 120 255
74.019643 -83.013449 -206.745858 0 120 255
73.966721 -84.207971 -204.579396 0 120 255
73.913799 -85.402494 -202.412935 0 120 255
73.860876 -86.597016 -200.246473 0 120 255
73.797092 -87.802809 -198.086776 0 120 255
73.698039 -89.045202 -195.949047 0 120 255
73.598986 -90.287595 -193.811317 0 120 255
73.499933 -91.529988 -191.673588 0 120 255
73.390268 -92.780851 -189.541537 0 120 255
73.235674 -94.067570 -187.433530 0 120 255
73.081081 -95.354290 -185.325523 0 120 255
72.926487 -96.641009 -183.217516 0 120 255
72.762333 -97.933692 -181.114089 0 120 255
72.542662 -99.261001 -179.037257 0 120 255
72.322991 -100.588310 -176.960424 0 120 255
72.103320 -101.915620 -174.883591 0 120 255
71.875962 -103.246700 -172.810180 0 120 255
71.581656 -104.610624 -170.766572 0 120 255
71.287351 -105.974548 -168.722964 0 120 255
70.993046 -107.338472 -166.679355 0 120 255
70.693748 -108.704315 -164.637884 0 120 255
70.315308 -110.100577 -162.630279 0 120 255
69.936868 -111.496838 -160.622674 0 120 255
69.558427 -112.893099 -158.615069 0 120 255
69.178494 -114.289802 -156.608097 0 120 255
68.706584 -115.713784 -154.640150 0 120 255
68.234674 -117.137766 -152.672202 0 120 255
67.762764 -118.561748 -150.704255 0 120 255
67.290854 -119.985729 -148.736308 0 120 255
66.719224 -121.431808 -146.811472 0 120 255
66.144818 -122.878501 -144.887836 0 120 255
65.570412 -124.325195 -142.964200 0 120 255
64.996007 -125.771889 -141.040564 0 120 255
64.318288 -127.234640 -139.163515 0 120 255
63.632815 -128.698596 -137.289963 0 120 255
62.947342 -130.162552 -135.416410 0 120 255
62.261870 -131.626508 -133.542858 0 120 255
61.470755 -133.100533 -131.719980 0 120 255
60.666291 -134.575829 -129.903507 0 120 255
59.861827 -136.051126 -128.087033 0 120 255
59.057362 -137.526422 -126.270559 0 120 255
58.146285 -139.005887 -124.509387 0 120 255
57.215773 -140.486112 -122.758295 0 120 255
56.285261 -141.966337 -121.007203 0 120 255
55.354749 -143.446562 -119.256112 0 120 255
54.318074 -144.925164 -117.565358 0 120 255
53.255554 -146.403372 -115.889294 0 120 255
52.193034 -147.881580 -114.213229 0 120 255
51.130514 -149.359788 -112.537165 0 120 255
49.963775 -150.830777 -110.926753 0 120 255
48.764671 -152.299523 -109.336731 0 120 255
47.565567 -153.768270 -107.746708 0 120 255
46.366464 -155.237017 -106.156685 0 120 255
45.066621 -156.693197 -104.637709 0 120 255
43.728047 -158.144544 -103.146049 0 120 255
42.389474 -159.595892 -101.654389 0 120 255
41.050900 -161.047240 -100.162729 0 120 255
39.616599 -162.481008 -98.747386 0 120 255
38.137664 -163.906580 -97.367627 0 120 255
36.658729 -165.332152 -95.987868 0 120 255
35.179793 -166.757724 -94.608109 0 120 255
33.611651 -168.161134 -93.309561 0 120 255
31.993802 -169.552195 -92.056264 0 120 255
30.375952 -170.943256 -90.802967 0 120 255
28.758103 -172.334316 -89.549671 0 120 255
27.058976 -173.699161 -88.381859 0 120 255
25.306291 -175.046730 -87.270376 0 120 255
23.553607 -176.394299 -86.158893 0 120 255
21.800922 -177.741868 -85.047410 0 120 255
19.976163 -179.059801 -84.024796 0 120 255
18.095657 -180.354812 -83.070918 0 120 255
16.215151 -181.649823 -82.117040 0 120 255
14.334645 -182.944834 -81.163161 0 120 255
12.392323 -184.207518 -80.300400 0 120 255
10.394161 -185.441002 -79.519946 0 120 255
8.396000 -186.674485 -78.739493 0 120 255
6.397838 -187.907969 -77.959039 0 120 255
4.348906 -189.107260 -77.270581 0 120 255
2.246569 -190.270585 -76.678892 0 120 255
0.144233 -191.433910 -76.087202 0 120 255
-1.958103 -192.597235 -75.495513 0 120 255
-4.099723 -193.725394 -74.995158 0 120 255
-6.289410 -194.810522 -74.606566 0 120 255
-8.479098 -195.895651 -74.217973 0 120 255
-10.668785 -196.980780 -73.829380 0 120 255
-12.886217 -198.030700 -73.529785 0 120 255
-15.143176 -199.030457 -73.356985 0 120 255
-17.400135 -200.030214 -73.184186 0 120 255
-19.657095 -201.029971 -73.011386 0 120 255
-21.930637 -201.995429 -72.923542 0 120 255
-24.231765 -202.903828 -72.977025 0 120 255
-26.532893 -203.812226 -73.030507 0 120 255
-28.834021 -204.720625 -73.083990 0 120 255
-31.141401 -205.596541 -73.216713 0 120 255
-33.460985 -206.409038 -73.504146 0 120 255
-35.780569 -207.221534 -73.791579 0 120 255
-38.100154 -208.034030 -74.079013 0 120 255
-40.416925 -208.816692 -74.438458 0 120 255
-42.727198 -209.530452 -74.964217 0 120 255
-45.037472 -210.244212 -75.489976 0 120 255
-47.347745 -210.957971 -76.015735 0 120 255
-49.647808 -211.645254 -76.604995 0 120 255
-51.919653 -212.259371 -77.369730 0 120 255
-54.191498 -212.873489 -78.134465 0 120 255
-56.463343 -213.487606 -78.899199 0 120 255
-58.719575 -214.079136 -79.717978 0 120 255
-60.923338 -214.594755 -80.718382 0 120 255
-63.127100 -215.110375 -81.718786 0 120 255
-65.330862 -215.625994 -82.719190 0 120 255
-67.515839 -216.123246 -83.763630 0 120 255
-69.622208 -216.543640 -84.992335 0 120 255
-71.728578 -216.964034 -86.221040 0 120 255
-73.834948 -217.384428 -87.449745 0 120 255
-75.921702 -217.790774 -88.712372 0 120 255
-77.902607 -218.121311 -90.158055 0 120 255
-79.883513 -218.451847 -91.603738 0 120 255
-81.864418 -218.782384 -93.049421 0 120 255
-83.827208 -219.103050 -94.519264 0 120 255
-85.656670 -219.351073 -96.166927 0 120 255
-87.486132 -219.599095 -97.814590 0 120 255
-89.315594 -219.847118 -99.462253 0 120 255
-91.130628 -220.089072 -101.125103 0 120 255
-92.785518 -220.263674 -102.956521 0 120 255
-94.440408 -220.438276 -104.787939 0 120 255
-96.095298 -220.612878 -106.619358 0 120 255
-97.741371 -220.784627 -108.458170 0 120 255
-99.202027 -220.896399 -110.452469 0 120 255
-100.662683 -221.008171 -112.446769 0 120 255
-102.123339 -221.119943 -114.441069 0 120 255
-103.582355 -221.231316 -116.436462 0 120 255
-104.833015 -221.291970 -118.570802 0 120 255
-106.083675 -221.352624 -120.705143 0 120 255
-107.334335 -221.413278 -122.839484 0 120 255
-108.584995 -221.473931 -124.973825 0 120 255
-109.620738 -221.497108 -127.220615 0 120 255
-110.649802 -221.519121 -129.470900 0 120 255
-111.678866 -221.541133 -131.721185 0 120 255
-112.707930 -221.563146 -133.971470 0 120 255
-113.523859 -221.563643 -136.306763 0 120 255
-114.324124 -221.562559 -138.648304 0 120 255
-115.124388 -221.561476 -140.989845 0 120 255
-115.924652 -221.560392 -143.331387 0 120 255
-116.517941 -221.553269 -145.732556 0 120 255
-117.086338 -221.545420 -148.140896 0 120 255
-117.654735 -221.537571 -150.549236 0 120 255
-118.223132 -221.529721 -152.957577 0 120 255
-118.594181 -221.524247 -155.402692 0 120 255
-118.931223 -221.519183 -157.854144 0 120 255
-119.268265 -221.514118 -160.305596 0 120 255
-119.605307 -221.509053 -162.757048 0 120 255
-119.756908 -221.509138 -165.225298 0 120 255
-119.865774 -221.510409 -167.697420 0 120 255
-119.974640 -221.511680 -170.169542 0 120 255
-120.083506 -221.512951 -172.641663 0 120 255
-120.020797 -221.518917 -175.113619 0 120 255
-119.907381 -221.526269 -177.585526 0 120 255
-119.793966 -221.533621 -180.057432 0 120 255
-119.680550 -221.540974 -182.529339 0 120 255
-119.410839 -221.552183 -184.987241 0 120 255
-119.083482 -221.564814 -187.439978 0 120 255
-118.756124 -221.577445 -189.892714 0 120 255
-118.428766 -221.590076 -192.345451 0 120 255
-117.960847 -221.607194 -194.773370 0 120 255
-117.429459 -221.626337 -197.190083 0 120 255
-116.898072 -221.645480 -199.606795 0 120 255
-116.366684 -221.664624 -202.023508 0 120 255
-115.710546 -221.688494 -204.407426 0 120 255
-114.986353 -221.714944 -206.773453 0 120 255
-114.262161 -221.741394 -209.139480 0 120 255
-113.537969 -221.767843 -211.505508 0 120 255
-112.704489 -221.798950 -213.833342 0 120 255
-111.799623 -221.833100 -216.136230 0 120 255
-110.894757 -221.867249 -218.439118 0 120 255
-109.989892 -221.901398 -220.742005 0 120 255
-108.990520 -221.939915 -223.003581 0 120 255
-107.917652 -221.981828 -225.233029 0 120 255
-106.844784 -222.023741 -227.462476 0 120 255
-105.771915 -222.065654 -229.691924 0 120 255
-104.618406 -222.111495 -231.878902 0 120 255
-103.390447 -222.160962 -234.026670 0 120 255
-102.162488 -222.210429 -236.174438 0 120 255
-100.934529 -222.259896 -238.322207 0 120 255
-99.638701 -222.312760 -240.427981 0 120 255
-98.268521 -222.369348 -242.487749 0 120 255
-96.898341 -222.425935 -244.547517 0 120 255
-95.528161 -222.482522 -246.607285 0 120 255
-94.101683 -222.541946 -248.626845 0 120 255
-92.601868 -222.605063 -250.594028 0 120 255
-91.102053 -222.668180 -252.561212 0 120 255
-89.602238 -222.731298 -254.528395 0 120 255
-88.056471 -222.796689 -256.458188 0 120 255
-86.439200 -222.865620 -258.329798 0 120 255
-84.821929 -222.934551 -260.201408 0 120 255
-83.204659 -223.003482 -262.073017 0 120 255
-81.550547 -223.074162 -263.910806 0 120 255
-79.827421 -223.148119 -265.685237 0 120 255
-78.104295 -223.222077 -267.459669 0 120 255
-76.381169 -223.296034 -269.234100 0 120 255
-74.629120 -223.371275 -270.978799 0 120 255
-72.811077 -223.449446 -272.655655 0 120 255
-70.993033 -223.527618 -274.332512 0 120 255
-69.174990 -223.605789 -276.009368 0 120 255
-67.334820 -223.684844 -277.660902 0 120 255
-65.432096 -223.766401 -279.240848 0 120 255
-63.529372 -223.847958 -280.820794 0 120 255
-61.626648 -223.929515 -282.400740 0 120 255
-59.707547 -224.011639 -283.959916 0 120 255
-57.729620 -224.095799 -285.444491 0 120 255
-55.751693 -224.179960 -286.929066 0 120 255
-53.773767 -224.264120 -288.413641 0 120 255
-51.784261 -224.348606 -289.882003 0 120 255
-49.739857 -224.434633 -291.273496 0 120 255
-47.695454 -224.520659 -292.664990 0 120 255
-45.651051 -224.606686 -294.056483 0 120 255
-43.599011 -224.692874 -295.436204 0 120 255
-41.496088 -224.780130 -296.737489 0 120 255
-39.393165 -224.867386 -298.038774 0 120 255
-37.290243 -224.954642 -299.340059 0 120 255
-35.182871 -225.041955 -300.633811 0 120 255
-33.028672 -225.129865 -301.848282 0 120 255
-30.874474 -225.217775 -303.062753 0 120 255
-28.720275 -225.305685 -304.277224 0 120 255
-26.564153 -225.393604 -305.488126 0 120 255
-24.365203 -225.481730 -306.619537 0 120 255
-22.166252 -225.569856 -307.750947 0 120 255
-19.967302 -225.657982 -308.882358 0 120 255
-17.768351 -225.746108 -310.013769 0 120 255
-15.530567 -225.834111 -311.066293 0 120 255
-13.292748 -225.922114 -312.118749 0 120 255
-11.054930 -226.010116 -313.171205 0 120 255
-8.817111 -226.098119 -314.223661 0 120 255
-6.547169 -226.185823 -315.204795 0 120 255
-4.275722 -226.273513 -316.182588 0 120 255
-2.004276 -226.361203 -317.160382 0 120 255
0.267171 -226.448892 -318.138175 0 120 255
2.564955 -226.536522 -319.052116 0 120 255
4.865301 -226.624145 -319.959843 0 120 255
7.165647 -226.711769 -320.867571 0 120 255
9.465993 -226.799392 -321.775298 0 120 255
11.787783 -226.887395 -322.626311 0 120 255
14.112853 -226.975455 -323.468651 0 120 255
16.437923 -227.063516 -324.310990 0 120 255
18.762992 -227.151576 -325.153330 0 120 255
21.105426 -227.240147 -325.945667 0 120 255
23.451585 -227.328828 -326.727275 0 120 255
25.797745 -227.417509 -327.508883 0 120 255
28.143904 -227.506190 -328.290491 0 120 255
30.504024 -227.595384 -329.028411 0 120 255
32.868097 -227.684723 -329.753957 0 120 255
35.232170 -227.774062 -330.479503 0 120 255
37.596243 -227.863401 -331.205049 0 120 255
39.971484 -227.953145 -331.892690 0 120 255
42.350748 -228.043034 -332.566679 0 120 255
44.730012 -228.132924 -333.240669 0 120 255
47.109277 -228.222813 -333.914658 0 120 255
49.497425 -228.312488 -334.556091 0 120 255
51.889545 -228.402066 -335.182971 0 120 255
54.281664 -228.491644 -335.809852 0 120 255
56.673784 -228.581222 -336.436732 0 120 255
59.072935 -228.670064 -337.035878 0 120 255
61.475922 -228.758504 -337.619890 0 120 255
63.878909 -228.846943 -338.203902 0 120 255
66.281897 -228.935383 -338.787914 0 120 255
68.690373 -229.022585 -339.348716 0 120 255
71.102465 -229.108971 -339.894236 0 120 255
73.514556 -229.195358 -340.439755 0 120 255
75.926648 -229.281745 -340.985275 0 120 255
78.343305 -229.363275 -341.510639 0 120 255
80.763561 -229.440975 -342.020108 0 120 255
83.183818 -229.518675 -342.529577 0 120 255
85.604075 -229.596376 -343.039046 0 120 255
88.028167 -229.665508 -343.530842 0 120 255
90.455866 -229.726581 -344.006015 0 120 255
92.883564 -229.787655 -344.481188 0 120 255
95.311263 -229.848728 -344.956361 0 120 255
97.742006 -229.899512 -345.416543 0 120 255
100.176161 -229.938766 -345.859925 0 120 255
102.610316 -229.978020 -346.303307 0 120 255
105.044471 -230.017273 -346.746690 0 120 255
107.480948 -230.045280 -347.177559 0 120 255
109.920530 -230.058245 -347.591696 0 120 255
112.360113 -230.071211 -348.005834 0 120 255
114.799695 -230.084177 -348.419971 0 120 255
117.240958 -230.085478 -348.823800 0 120 255
119.684917 -230.068078 -349.211104 0 120 255
122.128875 -230.050678 -349.598409 0 120 255
124.572833 -230.033277 -349.985713 0 120 255
127.017910 -230.004300 -350.364660 0 120 255
129.465155 -229.952896 -350.727415 0 120 255
131.912399 -229.901492 -351.090171 0 120 255
134.359644 -229.850087 -351.452927 0 120 255
136.807529 -229.787650 -351.809026 0 120 255
139.256931 -229.699070 -352.149352 0 120 255
141.706333 -229.610490 -352.489679 0 120 255
144.155735 -229.521910 -352.830006 0 120 255
146.605388 -229.423247 -353.165162 0 120 255
149.055778 -229.294830 -353.485059 0 120 255
151.506169 -229.166414 -353.804955 0 120 255
153.956560 -229.037998 -354.124852 0 120 255
156.406909 -228.900786 -354.440849 0 120 255
158.857099 -228.730388 -354.742129 0 120 255
161.307290 -228.559989 -355.043408 0 120 255
163.757481 -228.389590 -355.344688 0 120 255
166.207346 -228.211443 -355.643574 0 120 255
168.655573 -227.994327 -355.930428 0 120 255
171.103800 -227.777212 -356.217281 0 120 255
173.552027 -227.560096 -356.504135 0 120 255
176.000164 -227.341208 -356.790364 0 120 255
178.447663 -227.109743 -357.072169 0 120 255
180.895161 -226.878279 -357.353974 0 120 255
183.342660 -226.646814 -357.635778 0 120 255
185.790158 -226.415349 -357.917584 0 120 255
188.237655 -226.183873 -358.199401 0 120 255
190.685151 -225.952397 -358.481218 0 120 255
193.132647 -225.720922 -358.763036 0 120 255
195.580143 -225.489446 -359.044852 0 120 255
198.027641 -225.257975 -359.326662 0 120 255
200.475138 -225.026503 -359.608472 0 120 255
202.922636 -224.795032 -359.890281 0 120 255
205.370133 -224.563560 -360.172091 0 120 255
