ply
format ascii 1.0
element vertex 385
property float x
property float y
property float z
property uchar red
property uchar green
property uchar blue
end_header
77.430455 -42.474882 -360.397637 0 120 255
77.187338 -42.528759 -357.933761 0 120 255
76.944221 -42.582636 -355.469886 0 120 255
76.701104 -42.636513 -353.006011 0 120 255
76.457987 -42.690390 -350.542136 0 120 255
76.258034 -42.744038 -348.074393 0 120 255
76.059789 -42.797678 -345.606497 0 120 255
75.861544 -42.851318 -343.138601 0 120 255
75.663299 -42.904958 -340.670705 0 120 255
75.498873 -42.996349 -338.201481 0 120 255
75.337560 -43.091214 -335.732135 0 120 255
75.176246 -43.186080 -333.262790 0 120 255
75.014933 -43.280945 -330.793444 0 120 255
74.844751 -43.412288 -328.326412 0 120 255
74.673129 -43.549550 -325.859756 0 120 255
74.501508 -43.686813 -323.393099 0 120 255
74.329886 -43.824075 -320.926442 0 120 255
74.147708 -43.996845 -318.462844 0 120 255
73.962977 -44.178205 -315.999985 0 120 255
73.778245 -44.359564 -313.537127 0 120 255
73.593514 -44.540924 -311.074268 0 120 255
73.396689 -44.756533 -308.615200 0 120 255
73.195839 -44.983543 -306.157393 0 120 255
72.994988 -45.210552 -303.699586 0 120 255
72.794138 -45.437562 -301.241779 0 120 255
72.579832 -45.697297 -298.788466 0 120 255
72.359634 -45.971358 -296.337121 0 120 255
72.139437 -46.245419 -293.885776 0 120 255
71.919239 -46.519480 -291.434431 0 120 255
71.684428 -46.824510 -288.988242 0 120 255
71.441433 -47.146884 -286.544941 0 120 255
71.198438 -47.469259 -284.101641 0 120 255
70.955443 -47.791633 -281.658340 0 120 255
70.696919 -48.143013 -279.220800 0 120 255
70.427459 -48.514820 -276.787317 0 120 255
70.157998 -48.886626 -274.353834 0 120 255
69.888538 -49.258433 -271.920351 0 120 255
69.602913 -49.657104 -269.493156 0 120 255
69.303121 -50.079322 -267.071474 0 120 255
69.003329 -50.501540 -264.649791 0 120 255
68.703537 -50.923758 -262.228109 0 120 255
68.387253 -51.370546 -259.813148 0 120 255
68.053060 -51.844013 -257.405487 0 120 255
67.718867 -52.317481 -254.997825 0 120 255
67.384675 -52.790948 -252.590164 0 120 255
67.034004 -53.286561 -250.189540 0 120 255
66.661159 -53.811974 -247.798386 0 120 255
66.288315 -54.337388 -245.407232 0 120 255
65.915470 -54.862801 -243.016078 0 120 255
65.526537 -55.407834 -240.632133 0 120 255
65.110638 -55.985748 -238.260270 0 120 255
64.694740 -56.563662 -235.888408 0 120 255
64.278841 -57.141575 -233.516545 0 120 255
63.847638 -57.736501 -231.151888 0 120 255
63.384149 -58.367316 -228.802433 0 120 255
62.920659 -58.998131 -226.452977 0 120 255
62.457170 -59.628946 -224.103522 0 120 255
61.979579 -60.274112 -221.761060 0 120 255
61.463870 -60.958073 -219.437500 0 120 255
60.948160 -61.642035 -217.113940 0 120 255
60.432451 -62.325996 -214.790380 0 120 255
59.904272 -63.021618 -212.473349 0 120 255
59.331653 -63.758794 -210.179581 0 120 255
58.759035 -64.495971 -207.885814 0 120 255
58.186416 -65.233148 -205.592047 0 120 255
57.603393 -65.979294 -203.304046 0 120 255
56.969167 -66.769583 -201.044425 0 120 255
56.334941 -67.559872 -198.784803 0 120 255
55.700715 -68.350161 -196.525181 0 120 255
55.058578 -69.146755 -194.270215 0 120 255
54.358094 -69.989846 -192.049582 0 120 255
53.657610 -70.832938 -189.828950 0 120 255
52.957126 -71.676029 -187.608317 0 120 255
52.251634 -72.522819 -185.390824 0 120 255
51.480345 -73.418196 -183.214565 0 120 255
50.709056 -74.313572 -181.038306 0 120 255
49.937767 -75.208949 -178.862046 0 120 255
49.164751 -76.105509 -176.686944 0 120 255
48.318293 -77.052401 -174.561010 0 120 255
47.471836 -77.999294 -172.435077 0 120 255
46.625378 -78.946187 -170.309143 0 120 255
45.778920 -79.893079 -168.183210 0 120 255
44.855074 -80.889260 -166.112813 0 120 255
43.929340 -81.886643 -164.043772 0 120 255
43.003606 -82.884027 -161.974730 0 120 255
42.077872 -83.881410 -159.905689 0 120 255
41.074887 -84.924544 -157.896283 0 120 255
40.066128 -85.971097 -155.891334 0 120 255
39.057369 -87.017651 -153.886385 0 120 255
38.048610 -88.064204 -151.881436 0 120 255
36.963386 -89.152856 -149.940222 0 120 255
35.868308 -90.246932 -148.007221 0 120 255
34.773230 -91.341007 -146.074220 0 120 255
33.678153 -92.435083 -144.141219 0 120 255
32.508061 -93.567504 -142.276009 0 120 255
31.323942 -94.707095 -140.423474 0 120 255
30.139824 -95.846687 -138.570939 0 120 255
28.955705 -96.986278 -136.718404 0 120 255
27.698701 -98.160377 -134.937614 0 120 255
26.423521 -99.343082 -133.174715 0 120 255
25.148341 -100.525787 -131.411815 0 120 255
23.873161 -101.708492 -129.648916 0 120 255
22.527891 -102.921802 -127.961563 0 120 255
21.160454 -104.144792 -126.298101 0 120 255
19.793017 -105.367781 -124.634640 0 120 255
18.425581 -106.590770 -122.971178 0 120 255
16.991517 -107.840405 -121.386837 0 120 255
15.531611 -109.100374 -119.833182 0 120 255
14.071705 -110.360343 -118.279528 0 120 255
12.611799 -111.620312 -116.725873 0 120 255
11.089366 -112.902941 -115.254635 0 120 255
9.537902 -114.196091 -113.821663 0 120 255
7.986438 -115.489242 -112.388690 0 120 255
6.434973 -116.782392 -110.955717 0 120 255
4.825693 -118.094211 -109.608110 0 120 255
3.184860 -119.416217 -108.307088 0 120 255
1.544028 -120.738223 -107.006066 0 120 255
-0.096804 -122.060229 -105.705043 0 120 255
-1.790179 -123.396922 -104.491925 0 120 255
-3.516768 -124.742900 -103.334375 0 120 255
-5.243358 -126.088878 -102.176825 0 120 255
-6.969947 -127.434856 -101.019275 0 120 255
-8.743283 -128.791591 -99.951698 0 120 255
-10.550440 -130.156109 -98.949221 0 120 255
-12.357598 -131.520627 -97.946744 0 120 255
-14.164756 -132.885145 -96.944267 0 120 255
-16.012413 -134.256549 -96.033303 0 120 255
-17.893270 -135.633598 -95.197359 0 120 255
-19.774127 -137.010647 -94.361414 0 120 255
-21.654984 -138.387696 -93.525469 0 120 255
-23.569703 -139.767864 -92.782005 0 120 255
-25.515593 -141.150903 -92.123672 0 120 255
-27.461483 -142.533942 -91.465338 0 120 255
-29.407373 -143.916981 -90.807004 0 120 255
-31.380177 -145.299501 -90.241499 0 120 255
-33.380579 -146.681488 -89.771189 0 120 255
-35.380982 -148.063475 -89.300878 0 120 255
-37.381384 -149.445462 -88.830567 0 120 255
-39.401518 -150.823450 -88.452774 0 120 255
-41.444032 -152.196904 -88.179920 0 120 255
-43.486547 -153.570357 -87.907065 0 120 255
-45.529061 -154.943811 -87.634211 0 120 255
-47.583983 -156.309975 -87.452866 0 120 255
-49.654369 -157.667054 -87.385582 0 120 255
-51.724755 -159.024133 -87.318298 0 120 255
-53.795141 -160.381212 -87.251014 0 120 255
-55.870559 -161.727937 -87.273513 0 120 255
-57.952827 -163.060564 -87.418263 0 120 255
-60.035096 -164.393192 -87.563013 0 120 255
-62.117364 -165.725819 -87.707763 0 120 255
-64.197339 -167.045285 -87.939832 0 120 255
-66.273921 -168.345279 -88.301099 0 120 255
-68.350503 -169.645273 -88.662365 0 120 255
-70.427085 -170.945266 -89.023631 0 120 255
-72.494208 -172.229590 -89.468997 0 120 255
-74.546192 -173.488833 -90.048960 0 120 255
-76.598176 -174.748076 -90.628924 0 120 255
-78.650160 -176.007320 -91.208888 0 120 255
-80.685800 -177.248713 -91.868977 0 120 255
-82.693251 -178.459319 -92.667263 0 120 255
-84.700703 -179.669925 -93.465549 0 120 255
-86.708154 -180.880532 -94.263836 0 120 255
-88.692783 -182.071488 -95.137529 0 120 255
-90.635110 -183.226022 -96.150991 0 120 255
-92.577437 -184.380556 -97.164454 0 120 255
-94.519764 -185.535090 -98.177917 0 120 255
-96.433341 -186.668582 -99.261358 0 120 255
-98.289743 -187.760230 -100.483964 0 120 255
-100.146146 -188.851877 -101.706570 0 120 255
-102.002548 -189.943524 -102.929176 0 120 255
-103.824968 -191.013191 -104.215677 0 120 255
-105.574903 -192.035971 -105.638470 0 120 255
-107.324837 -193.058751 -107.061264 0 120 255
-109.074771 -194.081532 -108.484057 0 120 255
-110.786337 -195.081871 -109.964097 0 120 255
-112.410008 -196.030804 -111.575280 0 120 255
-114.033679 -196.979736 -113.186462 0 120 255
-115.657350 -197.928669 -114.797644 0 120 255
-117.239258 -198.855205 -116.458980 0 120 255
-118.718112 -199.726477 -118.244076 0 120 255
-120.196965 -200.597749 -120.029172 0 120 255
-121.675819 -201.469021 -121.814268 0 120 255
-123.110636 -202.318443 -123.642143 0 120 255
-124.427804 -203.109491 -125.584306 0 120 255
-125.744973 -203.900539 -127.526470 0 120 255
-127.062141 -204.691587 -129.468634 0 120 255
-128.334227 -205.461827 -131.446107 0 120 255
-129.474951 -206.171438 -133.526465 0 120 255
-130.615674 -206.881049 -135.606824 0 120 255
-131.756398 -207.590659 -137.687183 0 120 255
-132.852277 -208.280966 -139.795512 0 120 255
-133.804199 -208.909303 -141.993631 0 120 255
-134.756121 -209.537640 -144.191749 0 120 255
-135.708043 -210.165977 -146.389868 0 120 255
-136.616666 -210.776912 -148.608982 0 120 255
-137.370087 -211.325468 -150.903352 0 120 255
-138.123508 -211.874024 -153.197722 0 120 255
-138.876929 -212.422580 -155.492091 0 120 255
-139.589864 -212.955963 -157.801081 0 120 255
-140.137871 -213.427532 -160.169625 0 120 255
-140.685877 -213.899101 -162.538169 0 120 255
-141.233884 -214.370670 -164.906713 0 120 255
-141.745390 -214.829510 -167.284326 0 120 255
-142.083890 -215.228019 -169.704924 0 120 255
-142.422391 -215.626527 -172.125523 0 120 255
-142.760892 -216.025036 -174.546122 0 120 255
-143.067900 -216.413377 -176.971255 0 120 255
-143.195554 -216.743811 -179.422215 0 120 255
-143.323209 -217.074245 -181.873176 0 120 255
-143.450863 -217.404680 -184.324136 0 120 255
-143.552868 -217.727493 -186.776265 0 120 255
-143.470954 -217.995656 -189.236766 0 120 255
-143.389040 -218.263819 -191.697268 0 120 255
-143.307126 -218.531982 -194.157769 0 120 255
-143.206009 -218.794944 -196.617334 0 120 255
-142.918171 -219.007333 -199.067789 0 120 255
-142.630333 -219.219723 -201.518244 0 120 255
-142.342495 -219.432112 -203.968699 0 120 255
-142.042257 -219.641478 -206.417413 0 120 255
-141.554254 -219.805056 -208.839764 0 120 255
-141.066251 -219.968635 -211.262115 0 120 255
-140.578247 -220.132213 -213.684466 0 120 255
-140.084760 -220.294608 -216.105552 0 120 255
-139.404163 -220.416628 -218.483490 0 120 255
-138.723566 -220.538647 -220.861428 0 120 255
-138.042969 -220.660666 -223.239366 0 120 255
-137.362372 -220.782686 -225.617304 0 120 255
-136.499526 -220.870743 -227.936821 0 120 255
-135.635375 -220.958557 -230.255920 0 120 255
-134.771223 -221.046371 -232.575019 0 120 255
-133.907072 -221.134185 -234.894118 0 120 255
-132.875777 -221.201702 -237.144232 0 120 255
-131.836655 -221.268270 -239.391115 0 120 255
-130.797534 -221.334837 -241.637999 0 120 255
-129.758412 -221.401404 -243.884882 0 120 255
-128.569404 -221.462524 -246.055735 0 120 255
-127.366560 -221.523142 -248.219570 0 120 255
-126.163715 -221.583760 -250.383404 0 120 255
-124.960871 -221.644378 -252.547239 0 120 255
-123.625948 -221.704172 -254.631378 0 120 255
-122.271821 -221.763846 -256.703929 0 120 255
-120.917693 -221.823520 -258.776480 0 120 255
-119.563565 -221.883195 -260.849030 0 120 255
-118.093795 -221.942240 -262.840220 0 120 255
-116.600076 -222.001155 -264.814561 0 120 255
-115.106357 -222.060070 -266.788902 0 120 255
-113.612637 -222.118985 -268.763243 0 120 255
-112.020588 -222.179891 -270.657946 0 120 255
-110.401169 -222.241352 -272.530483 0 120 255
-108.781751 -222.302812 -274.403021 0 120 255
-107.162333 -222.364272 -276.275559 0 120 255
-105.459151 -222.429170 -278.070819 0 120 255
-103.725768 -222.495307 -279.838219 0 120 255
-101.992386 -222.561444 -281.605618 0 120 255
-100.259004 -222.627582 -283.373018 0 120 255
-98.454802 -222.695604 -285.066577 0 120 255
-96.618291 -222.764486 -286.726448 0 120 255
-94.781780 -222.833368 -288.386318 0 120 255
-92.945269 -222.902250 -290.046189 0 120 255
-91.050267 -222.972076 -291.637464 0 120 255
-89.121956 -223.042439 -293.189673 0 120 255
-87.193644 -223.112802 -294.741882 0 120 255
-85.265333 -223.183165 -296.294091 0 120 255
-83.289240 -223.254949 -297.783454 0 120 255
-81.279467 -223.327733 -299.228515 0 120 255
-79.269694 -223.400517 -300.673577 0 120 255
-77.259920 -223.473301 -302.118639 0 120 255
-75.211749 -223.547791 -303.507190 0 120 255
-73.130204 -223.623764 -304.846626 0 120 255
-71.048659 -223.699736 -306.186062 0 120 255
-68.967114 -223.775709 -307.525498 0 120 255
-66.855258 -223.853436 -308.815095 0 120 255
-64.710913 -223.933043 -310.051273 0 120 255
-62.566568 -224.012651 -311.287451 0 120 255
-60.422222 -224.092258 -312.523629 0 120 255
-58.254424 -224.173471 -313.716754 0 120 255
-56.055487 -224.256815 -314.852720 0 120 255
-53.856550 -224.340158 -315.988687 0 120 255
-51.657613 -224.423502 -317.124653 0 120 255
-49.440959 -224.508187 -318.224312 0 120 255
-47.194897 -224.595096 -319.263707 0 120 255
-44.948834 -224.682005 -320.303101 0 120 255
-42.702772 -224.768915 -321.342495 0 120 255
-40.443711 -224.856833 -322.352139 0 120 255
-38.157252 -224.946879 -323.299075 0 120 255
-35.870794 -225.036925 -324.246011 0 120 255
-33.584335 -225.126971 -325.192946 0 120 255
-31.288689 -225.217681 -326.116377 0 120 255
-28.967842 -225.310212 -326.975328 0 120 255
-26.646995 -225.402743 -327.834278 0 120 255
-24.326148 -225.495274 -328.693228 0 120 255
-21.999136 -225.588152 -329.534526 0 120 255
-19.649232 -225.682319 -330.310266 0 120 255
-17.299328 -225.776485 -331.086007 0 120 255
-14.949424 -225.870652 -331.861748 0 120 255
-12.595701 -225.964919 -332.625227 0 120 255
-10.221442 -226.059727 -333.322792 0 120 255
-7.847183 -226.154535 -334.020357 0 120 255
-5.472925 -226.249342 -334.717922 0 120 255
-3.096613 -226.344100 -335.408089 0 120 255
-0.702086 -226.438411 -336.032616 0 120 255
1.692442 -226.532723 -336.657142 0 120 255
4.086969 -226.627034 -337.281668 0 120 255
6.482258 -226.721267 -337.903111 0 120 255
8.893501 -226.813855 -338.459909 0 120 255
11.304744 -226.906443 -339.016707 0 120 255
13.715987 -226.999031 -339.573505 0 120 255
16.127230 -227.091619 -340.130303 0 120 255
18.551960 -227.181934 -340.625456 0 120 255
20.976831 -227.272225 -341.119963 0 120 255
23.401702 -227.362516 -341.614469 0 120 255
25.826573 -227.452807 -342.108976 0 120 255
28.261727 -227.541668 -342.550120 0 120 255
30.697613 -227.630428 -342.987465 0 120 255
33.133499 -227.719187 -343.424810 0 120 255
35.569385 -227.807947 -343.862154 0 120 255
38.012954 -227.895993 -344.254086 0 120 255
40.457600 -227.983939 -344.639656 0 120 255
42.902245 -228.071885 -345.025226 0 120 255
45.346890 -228.159831 -345.410796 0 120 255
47.797122 -228.246964 -345.758853 0 120 255
50.248579 -228.333918 -346.098687 0 120 255
52.700036 -228.420873 -346.438522 0 120 255
55.151493 -228.507828 -346.778356 0 120 255
57.606887 -228.593496 -347.088370 0 120 255
60.063503 -228.678765 -347.389137 0 120 255
62.520118 -228.764034 -347.689904 0 120 255
64.976733 -228.849304 -347.990671 0 120 255
67.436269 -228.930485 -348.267307 0 120 255
69.897017 -229.009972 -348.533942 0 120 255
72.357764 -229.089460 -348.800576 0 120 255
74.818511 -229.168947 -349.067211 0 120 255
77.281526 -229.239833 -349.314132 0 120 255
79.745756 -229.306113 -349.550493 0 120 255
82.209986 -229.372392 -349.786855 0 120 255
84.674217 -229.438672 -350.023216 0 120 255
87.140064 -229.493963 -350.244562 0 120 255
89.607008 -229.541797 -350.455716 0 120 255
92.073953 -229.589630 -350.666870 0 120 255
94.540897 -229.637464 -350.878024 0 120 255
97.008899 -229.673969 -351.078312 0 120 255
99.477799 -229.700835 -351.269354 0 120 255
101.946700 -229.727700 -351.460396 0 120 255
104.415601 -229.754566 -351.651438 0 120 255
106.885116 -229.770118 -351.835140 0 120 255
109.355285 -229.773657 -352.011051 0 120 255
111.825453 -229.777196 -352.186961 0 120 255
114.295622 -229.780736 -352.362871 0 120 255
116.766053 -229.773329 -352.534392 0 120 255
119.236833 -229.751412 -352.700093 0 120 255
121.707613 -229.729494 -352.865794 0 120 255
124.178392 -229.707577 -353.031495 0 120 255
126.649157 -229.675387 -353.195180 0 120 255
129.119897 -229.626088 -353.355506 0 120 255
131.590636 -229.576789 -353.515833 0 120 255
134.061376 -229.527490 -353.676159 0 120 255
136.531888 -229.468877 -353.836284 0 120 255
139.001918 -229.390523 -353.995981 0 120 255
141.471948 -229.312169 -354.155678 0 120 255
143.941977 -229.233815 -354.315375 0 120 255
146.411630 -229.147350 -354.476140 0 120 255
148.880242 -229.038526 -354.639850 0 120 255
151.348854 -228.929703 -354.803560 0 120 255
153.817466 -228.820879 -354.967269 0 120 255
156.285615 -228.705349 -355.132802 0 120 255
158.752046 -228.564911 -355.305105 0 120 255
161.218476 -228.424473 -355.477408 0 120 255
163.684906 -228.284036 -355.649711 0 120 255
166.149864 -228.134667 -355.832351 0 120 255
168.606997 -227.937832 -356.069934 0 120 255
171.064129 -227.740996 -356.307516 0 120 255
173.521262 -227.544160 -356.545099 0 120 255
175.977509 -227.343350 -356.787756 0 120 255
178.426896 -227.111707 -357.069778 0 120 255
180.876283 -226.880064 -357.351800 0 120 255
183.325669 -226.648421 -357.633822 0 120 255
185.775056 -226.416777 -357.915845 0 120 255
188.224440 -226.185123 -358.197880 0 120 255
190.673824 -225.953469 -358.479914 0 120 255
193.123208 -225.721815 -358.761949 0 120 255
195.572592 -225.490161 -359.043983 0 120 255
198.021977 -225.258511 -359.326010 0 120 255
200.471363 -225.026860 -359.608037 0 120 255
202.920748 -224.795210 -359.890064 0 120 255
205.370133 -224.563560 -360.172091 0 120 255
