ply
format ascii 1.0
element vertex 385
property float x
property float y
property float z
property uchar red
property uchar green
property uchar blue
end_header
77.430455 -42.474882 -360.397637 0 120 255
77.187545 -42.528713 -357.935860 0 120 255
76.944635 -42.582544 -355.474083 0 120 255
76.701726 -42.636375 -353.012306 0 120 255
76.458816 -42.690206 -350.550529 0 120 255
76.224322 -42.748840 -348.088047 0 120 255
75.990193 -42.807683 -345.625534 0 120 255
75.756064 -42.866525 -343.163022 0 120 255
75.521935 -42.925367 -340.700509 0 120 255
75.281114 -43.035269 -338.240443 0 120 255
75.039665 -43.149958 -335.780606 0 120 255
74.798216 -43.264647 -333.320769 0 120 255
74.556768 -43.379336 -330.860932 0 120 255
74.299049 -43.536594 -328.405168 0 120 255
74.038839 -43.700367 -325.950027 0 120 255
73.778630 -43.864140 -323.494886 0 120 255
73.518421 -44.027913 -321.039745 0 120 255
73.240427 -44.231060 -318.589585 0 120 255
72.958536 -44.442834 -316.140516 0 120 255
72.676645 -44.654608 -313.691448 0 120 255
72.394754 -44.866382 -311.242379 0 120 255
72.093723 -45.114524 -308.799113 0 120 255
71.787082 -45.373323 -306.357547 0 120 255
71.480441 -45.632123 -303.915982 0 120 255
71.173800 -45.890922 -301.474416 0 120 255
70.846841 -46.183252 -299.039402 0 120 255
70.512234 -46.488206 -296.606854 0 120 255
70.177627 -46.793159 -294.174306 0 120 255
69.843019 -47.098113 -291.741758 0 120 255
69.487127 -47.433916 -289.316447 0 120 255
69.121204 -47.784256 -286.894544 0 120 255
68.755282 -48.134597 -284.472642 0 120 255
68.389360 -48.484937 -282.050740 0 120 255
68.001421 -48.863594 -279.636700 0 120 255
67.600721 -49.258665 -277.227217 0 120 255
67.200020 -49.653736 -274.817735 0 120 255
66.799319 -50.048807 -272.408252 0 120 255
66.376119 -50.469788 -270.007202 0 120 255
65.937053 -50.909038 -267.612097 0 120 255
65.497988 -51.348289 -265.216992 0 120 255
65.058922 -51.787540 -262.821887 0 120 255
64.597150 -52.250407 -260.435721 0 120 255
64.116035 -52.733391 -258.057171 0 120 255
63.634919 -53.216375 -255.678620 0 120 255
63.153804 -53.699360 -253.300070 0 120 255
62.650078 -54.203758 -250.930891 0 120 255
62.123162 -54.730119 -248.571325 0 120 255
61.596246 -55.256480 -246.211759 0 120 255
61.069330 -55.782841 -243.852193 0 120 255
60.520206 -56.328493 -241.502345 0 120 255
59.943664 -56.897965 -239.164493 0 120 255
59.367121 -57.467436 -236.826642 0 120 255
58.790579 -58.036907 -234.488790 0 120 255
58.192566 -58.623610 -232.160888 0 120 255
57.562549 -59.236001 -229.847815 0 120 255
56.932531 -59.848393 -227.534743 0 120 255
56.302513 -60.460784 -225.221671 0 120 255
55.652099 -61.088396 -222.918639 0 120 255
54.964735 -61.743584 -220.633796 0 120 255
54.277371 -62.398771 -218.348953 0 120 255
53.590006 -63.053959 -216.064110 0 120 255
52.883675 -63.722392 -213.789219 0 120 255
52.135134 -64.420302 -211.536475 0 120 255
51.386592 -65.118212 -209.283731 0 120 255
50.638051 -65.816123 -207.030987 0 120 255
49.872323 -66.525326 -204.787886 0 120 255
49.058834 -67.265913 -202.571579 0 120 255
48.245346 -68.006499 -200.355272 0 120 255
47.431857 -68.747086 -198.138965 0 120 255
46.603313 -69.497033 -195.931720 0 120 255
45.721218 -70.280271 -193.756704 0 120 255
44.839124 -71.063509 -191.581687 0 120 255
43.957030 -71.846748 -189.406671 0 120 255
43.062351 -72.637421 -187.239805 0 120 255
42.108164 -73.463253 -185.111478 0 120 255
41.153977 -74.289085 -182.983151 0 120 255
40.199790 -75.114917 -180.854823 0 120 255
39.235813 -75.946271 -178.733341 0 120 255
38.206286 -76.814601 -176.657690 0 120 255
37.176759 -77.682930 -174.582040 0 120 255
36.147232 -78.551260 -172.506389 0 120 255
35.111002 -79.423214 -170.435816 0 120 255
34.003186 -80.333868 -168.419457 0 120 255
32.895370 -81.244521 -166.403098 0 120 255
31.787555 -82.155174 -164.386739 0 120 255
30.676372 -83.067579 -162.373153 0 120 255
29.487721 -84.020263 -160.423345 0 120 255
28.299070 -84.972946 -158.473537 0 120 255
27.110420 -85.925630 -156.523729 0 120 255
25.921769 -86.878314 -154.573921 0 120 255
24.650387 -87.872484 -152.698438 0 120 255
23.378844 -88.866735 -150.823101 0 120 255
22.107300 -89.860985 -148.947763 0 120 255
20.835757 -90.855236 -147.072426 0 120 255
19.483665 -91.888544 -145.276404 0 120 255
18.127763 -92.923700 -143.484135 0 120 255
16.771860 -93.958855 -141.691865 0 120 255
15.415958 -94.994011 -139.899596 0 120 255
13.982436 -96.065631 -138.191527 0 120 255
12.541427 -97.140768 -136.491580 0 120 255
11.100418 -98.215905 -134.791632 0 120 255
9.659410 -99.291043 -133.091684 0 120 255
8.144478 -100.399866 -131.480608 0 120 255
6.618469 -101.513737 -129.882847 0 120 255
5.092460 -102.627608 -128.285087 0 120 255
3.566452 -103.741478 -126.687327 0 120 255
1.970970 -104.886076 -125.182810 0 120 255
0.361036 -106.037066 -123.697689 0 120 255
-1.248898 -107.188055 -122.212569 0 120 255
-2.858832 -108.339045 -120.727448 0 120 255
-4.533035 -109.517614 -119.339508 0 120 255
-6.224692 -110.703673 -117.977962 0 120 255
-7.916349 -111.889732 -116.616416 0 120 255
-9.608007 -113.075791 -115.254870 0 120 255
-11.358008 -114.286103 -113.993889 0 120 255
-13.127921 -115.504692 -112.767229 0 120 255
-14.897835 -116.723281 -111.540568 0 120 255
-16.667748 -117.941870 -110.313908 0 120 255
-18.489415 -119.181227 -109.190514 0 120 255
-20.332714 -120.429264 -108.110283 0 120 255
-22.176014 -121.677301 -107.030051 0 120 255
-24.019313 -122.925338 -105.949820 0 120 255
-25.907186 -124.190525 -104.974742 0 120 255
-27.817467 -125.464335 -104.052524 0 120 255
-29.727747 -126.738145 -103.130307 0 120 255
-31.638028 -128.011954 -102.208090 0 120 255
-33.585216 -129.299210 -101.391976 0 120 255
-35.554428 -130.594489 -100.639180 0 120 255
-37.523641 -131.889768 -99.886383 0 120 255
-39.492853 -133.185047 -99.133587 0 120 255
-41.490948 -134.490033 -98.486795 0 120 255
-43.509310 -135.801829 -97.914383 0 120 255
-45.527671 -137.113626 -97.341971 0 120 255
-47.546032 -138.425422 -96.769559 0 120 255
-49.585054 -139.743210 -96.301904 0 120 255
-51.641007 -141.065907 -95.920094 0 120 255
-53.696960 -142.388603 -95.538284 0 120 255
-55.752914 -143.711300 -95.156475 0 120 255
-57.821290 -145.036375 -94.876973 0 120 255
-59.901500 -146.363715 -94.694930 0 120 255
-61.981710 -147.691056 -94.512887 0 120 255
-64.061921 -149.018396 -94.330843 0 120 255
-66.146501 -150.344688 -94.247411 0 120 255
-68.235908 -151.669822 -94.272876 0 120 255
-70.325315 -152.994956 -94.298341 0 120 255
-72.414721 -154.320090 -94.323806 0 120 255
-74.500851 -155.641019 -94.442950 0 120 255
-76.582790 -156.956572 -94.681904 0 120 255
-78.664729 -158.272125 -94.920857 0 120 255
-80.746668 -159.587677 -95.159810 0 120 255
-82.818319 -160.896228 -95.486328 0 120 255
-84.874719 -162.194400 -95.942633 0 120 255
-86.931120 -163.492572 -96.398938 0 120 255
-88.987520 -164.790744 -96.855243 0 120 255
-91.027476 -166.079564 -97.391926 0 120 255
-93.039115 -167.352280 -98.067021 0 120 255
-95.050753 -168.624997 -98.742115 0 120 255
-97.062391 -169.897713 -99.417210 0 120 255
-99.052504 -171.159245 -100.164575 0 120 255
-100.999358 -172.398300 -101.057185 0 120 255
-102.946212 -173.637354 -101.949795 0 120 255
-104.893065 -174.876409 -102.842405 0 120 255
-106.814570 -176.103036 -103.798469 0 120 255
-108.676198 -177.300307 -104.904421 0 120 255
-110.537827 -178.497578 -106.010374 0 120 255
-112.399455 -179.694848 -107.116326 0 120 255
-114.233323 -180.879077 -108.276458 0 120 255
-115.989333 -182.026725 -109.588549 0 120 255
-117.745343 -183.174373 -110.900639 0 120 255
-119.501353 -184.322021 -112.212729 0 120 255
-121.228709 -185.456657 -113.569557 0 120 255
-122.859245 -186.547329 -115.077547 0 120 255
-124.489782 -187.638000 -116.585538 0 120 255
-126.120318 -188.728671 -118.093529 0 120 255
-127.722866 -189.807005 -119.636958 0 120 255
-129.209104 -190.834070 -121.327663 0 120 255
-130.695342 -191.861135 -123.018368 0 120 255
-132.181580 -192.888200 -124.709073 0 120 255
-133.642041 -193.904209 -126.426382 0 120 255
-134.966667 -194.861960 -128.283888 0 120 255
-136.291293 -195.819710 -130.141394 0 120 255
-137.615919 -196.777461 -131.998899 0 120 255
-138.918443 -197.725980 -133.874949 0 120 255
-140.066115 -198.609818 -135.880922 0 120 255
-141.213786 -199.493656 -137.886895 0 120 255
-142.361458 -200.377494 -139.892868 0 120 255
-143.492017 -201.254370 -141.910386 0 120 255
-144.449715 -202.060925 -144.044521 0 120 255
-145.407413 -202.867479 -146.178656 0 120 255
-146.365111 -203.674034 -148.312791 0 120 255
-147.311804 -204.476233 -150.452768 0 120 255
-148.069164 -205.203509 -152.693242 0 120 255
-148.826524 -205.930785 -154.933716 0 120 255
-149.583884 -206.658061 -157.174190 0 120 255
-150.337209 -207.383786 -159.416286 0 120 255
-150.886674 -208.031172 -161.740340 0 120 255
-151.436139 -208.678557 -164.064394 0 120 255
-151.985604 -209.325943 -166.388449 0 120 255
-152.535069 -209.973328 -168.712503 0 120 255
-152.875535 -210.542954 -171.095980 0 120 255
-153.212481 -211.111270 -173.480457 0 120 255
-153.549427 -211.679586 -175.864934 0 120 255
-153.886373 -212.247902 -178.249412 0 120 255
-154.020423 -212.743412 -180.669344 0 120 255
-154.143110 -213.234845 -183.091263 0 120 255
-154.265797 -213.726277 -185.513182 0 120 255
-154.388483 -214.217709 -187.935101 0 120 255
-154.317161 -214.642338 -190.370807 0 120 255
-154.226640 -215.060355 -192.807878 0 120 255
-154.136118 -215.478373 -195.244949 0 120 255
-154.045596 -215.896390 -197.682020 0 120 255
-153.772207 -216.254413 -200.113872 0 120 255
-153.472060 -216.603656 -202.544960 0 120 255
-153.171912 -216.952900 -204.976048 0 120 255
-152.871765 -217.302144 -207.407136 0 120 255
-152.401672 -217.598729 -209.816890 0 120 255
-151.897798 -217.884847 -212.222403 0 120 255
-151.393924 -218.170965 -214.627917 0 120 255
-150.890051 -218.457083 -217.033431 0 120 255
-150.230374 -218.698162 -219.404482 0 120 255
-149.530629 -218.927660 -221.766671 0 120 255
-148.830884 -219.157157 -224.128860 0 120 255
-148.131139 -219.386654 -226.491049 0 120 255
-147.290453 -219.578768 -228.808609 0 120 255
-146.404306 -219.758823 -231.111775 0 120 255
-145.518159 -219.938879 -233.414940 0 120 255
-144.632011 -220.118934 -235.718105 0 120 255
-143.620036 -220.269074 -237.969308 0 120 255
-142.558210 -220.407363 -240.199925 0 120 255
-141.496385 -220.545651 -242.430542 0 120 255
-140.434559 -220.683940 -244.661158 0 120 255
-139.261865 -220.799423 -246.835098 0 120 255
-138.035994 -220.903968 -248.981854 0 120 255
-136.810124 -221.008513 -251.128609 0 120 255
-135.584253 -221.113057 -253.275365 0 120 255
-134.262120 -221.202140 -255.363142 0 120 255
-132.884647 -221.282333 -257.417012 0 120 255
-131.507173 -221.362527 -259.470883 0 120 255
-130.129700 -221.442720 -261.524753 0 120 255
-128.669381 -221.516832 -263.519012 0 120 255
-127.152340 -221.586779 -265.472456 0 120 255
-125.635299 -221.656726 -267.425899 0 120 255
-124.118258 -221.726673 -269.379343 0 120 255
-122.531284 -221.796698 -271.274634 0 120 255
-120.887427 -221.866786 -273.122625 0 120 255
-119.243570 -221.936875 -274.970616 0 120 255
-117.599714 -222.006963 -276.818607 0 120 255
-115.898029 -222.077530 -278.611759 0 120 255
-114.140405 -222.148561 -280.351862 0 120 255
-112.382781 -222.219591 -282.091966 0 120 255
-110.625157 -222.290621 -283.832069 0 120 255
-108.820092 -222.362311 -285.521230 0 120 255
-106.960327 -222.434761 -287.151651 0 120 255
-105.100562 -222.507210 -288.782072 0 120 255
-103.240797 -222.579660 -290.412493 0 120 255
-101.342778 -222.653310 -291.996591 0 120 255
-99.391999 -222.728616 -293.516801 0 120 255
-97.441220 -222.803921 -295.037011 0 120 255
-95.490441 -222.879226 -296.557221 0 120 255
-93.509385 -222.955721 -298.036232 0 120 255
-91.478092 -223.034187 -299.446885 0 120 255
-89.446799 -223.112654 -300.857537 0 120 255
-87.415506 -223.191120 -302.268190 0 120 255
-85.360792 -223.270474 -303.643116 0 120 255
-83.258877 -223.351615 -304.946042 0 120 255
-81.156962 -223.432757 -306.248968 0 120 255
-79.055046 -223.513898 -307.551894 0 120 255
-76.935483 -223.595656 -308.824679 0 120 255
-74.772089 -223.678942 -310.022610 0 120 255
-72.608696 -223.762229 -311.220542 0 120 255
-70.445302 -223.845516 -312.418473 0 120 255
-68.269049 -223.929220 -313.591827 0 120 255
-66.052588 -224.014229 -314.688331 0 120 255
-63.836127 -224.099239 -315.784835 0 120 255
-61.619666 -224.184249 -316.881339 0 120 255
-59.394231 -224.269529 -317.958645 0 120 255
-57.132307 -224.355912 -318.957889 0 120 255
-54.870383 -224.442294 -319.957132 0 120 255
-52.608460 -224.528677 -320.956375 0 120 255
-50.340646 -224.615227 -321.941501 0 120 255
-48.040047 -224.702708 -322.848056 0 120 255
-45.739448 -224.790188 -323.754610 0 120 255
-43.438850 -224.877669 -324.661165 0 120 255
-41.134757 -224.965244 -325.558325 0 120 255
-38.801528 -225.053607 -326.377155 0 120 255
-36.468299 -225.141969 -327.195985 0 120 255
-34.135070 -225.230332 -328.014816 0 120 255
-31.800155 -225.318735 -328.828552 0 120 255
-29.439628 -225.407753 -329.564919 0 120 255
-27.079101 -225.496771 -330.301285 0 120 255
-24.718574 -225.585788 -331.037652 0 120 255
-22.357677 -225.674814 -331.772760 0 120 255
-19.974524 -225.764319 -332.432168 0 120 255
-17.591371 -225.853824 -333.091576 0 120 255
-15.208218 -225.943329 -333.750983 0 120 255
-12.825065 -226.032834 -334.410391 0 120 255
-10.423867 -226.122671 -335.000537 0 120 255
-8.022127 -226.212518 -335.588602 0 120 255
-5.620387 -226.302366 -336.176668 0 120 255
-3.218647 -226.392213 -336.764733 0 120 255
-0.802921 -226.482266 -337.292079 0 120 255
1.613934 -226.572336 -337.814523 0 120 255
4.030789 -226.662405 -338.336966 0 120 255
6.447644 -226.752475 -338.859409 0 120 255
8.875191 -226.842622 -339.329241 0 120 255
11.304201 -226.932780 -339.791877 0 120 255
13.733211 -227.022938 -340.254512 0 120 255
16.162220 -227.113095 -340.717147 0 120 255
18.599274 -227.203235 -341.134854 0 120 255
21.037928 -227.293371 -341.543619 0 120 255
23.476582 -227.383507 -341.952383 0 120 255
25.915237 -227.473643 -342.361147 0 120 255
28.359820 -227.563652 -342.732319 0 120 255
30.805996 -227.653627 -343.093398 0 120 255
33.252171 -227.743602 -343.454477 0 120 255
35.698347 -227.833576 -343.815556 0 120 255
38.148798 -227.923309 -344.145934 0 120 255
40.600731 -228.012956 -344.465679 0 120 255
43.052664 -228.102604 -344.785423 0 120 255
45.504597 -228.192252 -345.105168 0 120 255
47.959562 -228.281467 -345.400414 0 120 255
50.415843 -228.370494 -345.685026 0 120 255
52.872125 -228.459521 -345.969638 0 120 255
55.328406 -228.548548 -346.254250 0 120 255
57.786805 -228.636755 -346.519855 0 120 255
60.246334 -228.724524 -346.775319 0 120 255
62.705863 -228.812293 -347.030783 0 120 255
65.165392 -228.900062 -347.286247 0 120 255
67.626458 -228.985374 -347.527039 0 120 255
70.088518 -229.069098 -347.758338 0 120 255
72.550578 -229.152821 -347.989638 0 120 255
75.012638 -229.236544 -348.220937 0 120 255
77.475885 -229.314159 -348.441185 0 120 255
79.940057 -229.387024 -348.652841 0 120 255
82.404228 -229.459889 -348.864496 0 120 255
84.868400 -229.532754 -349.076152 0 120 255
87.333429 -229.596703 -349.280260 0 120 255
89.799256 -229.652363 -349.477353 0 120 255
92.265084 -229.708024 -349.674445 0 120 255
94.730911 -229.763684 -349.871538 0 120 255
97.197268 -229.809396 -350.064173 0 120 255
99.664214 -229.844067 -350.251860 0 120 255
102.131159 -229.878739 -350.439548 0 120 255
104.598104 -229.913410 -350.627235 0 120 255
107.065283 -229.937503 -350.813100 0 120 255
109.532770 -229.947558 -350.996547 0 120 255
112.000258 -229.957614 -351.179993 0 120 255
114.467745 -229.967669 -351.363440 0 120 255
116.935191 -229.966907 -351.547210 0 120 255
119.402571 -229.948911 -351.731496 0 120 255
121.869950 -229.930915 -351.915782 0 120 255
124.337330 -229.912919 -352.100068 0 120 255
126.804412 -229.884226 -352.286359 0 120 255
129.270919 -229.834916 -352.476516 0 120 255
131.737426 -229.785606 -352.666673 0 120 255
134.203933 -229.736296 -352.856830 0 120 255
136.669908 -229.676759 -353.050216 0 120 255
139.134628 -229.593094 -353.251218 0 120 255
141.599349 -229.509429 -353.452221 0 120 255
144.064069 -229.425765 -353.653223 0 120 255
146.528058 -229.332655 -353.858229 0 120 255
148.989896 -229.211791 -354.075000 0 120 255
151.451735 -229.090927 -354.291772 0 120 255
153.913574 -228.970062 -354.508543 0 120 255
156.374534 -228.840830 -354.729643 0 120 255
158.832194 -228.680156 -354.967004 0 120 255
161.289854 -228.519483 -355.204365 0 120 255
163.747513 -228.358809 -355.441726 0 120 255
166.203855 -228.189658 -355.685541 0 120 255
168.653603 -227.978108 -355.961639 0 120 255
171.103351 -227.766559 -356.237736 0 120 255
173.553099 -227.555009 -356.513833 0 120 255
176.002542 -227.340983 -356.790638 0 120 255
178.449843 -227.109537 -357.072420 0 120 255
180.897143 -226.878091 -357.354202 0 120 255
183.344444 -226.646645 -357.635984 0 120 255
185.791744 -226.415199 -357.917767 0 120 255
188.239042 -226.183742 -358.199561 0 120 255
190.686340 -225.952285 -358.481355 0 120 255
193.133638 -225.720828 -358.763150 0 120 255
195.580936 -225.489371 -359.044944 0 120 255
198.028235 -225.257919 -359.326730 0 120 255
200.475535 -225.026466 -359.608517 0 120 255
202.922834 -224.795013 -359.890304 0 120 255
205.370133 -224.563560 -360.172091 0 120 255
