ply
format ascii 1.0
element vertex 385
property float x
property float y
property float z
property uchar red
property uchar green
property uchar blue
end_header
77.430455 -42.474882 -360.397637 0 120 255
77.187560 -42.528710 -357.936006 0 120 255
76.944664 -42.582538 -355.474375 0 120 255
76.701769 -42.636365 -353.012744 0 120 255
76.458873 -42.690193 -350.551113 0 120 255
76.213086 -42.753931 -348.090007 0 120 255
75.967172 -42.818100 -345.628923 0 120 255
75.721258 -42.882270 -343.167840 0 120 255
75.475345 -42.946439 -340.706756 0 120 255
75.087508 -43.325181 -338.295000 0 120 255
74.686719 -43.732632 -335.887746 0 120 255
74.285930 -44.140084 -333.480491 0 120 255
73.885141 -44.547535 -331.073237 0 120 255
73.383401 -45.183770 -328.737642 0 120 255
72.866771 -45.853750 -326.412617 0 120 255
72.350140 -46.523731 -324.087592 0 120 255
71.833510 -47.193711 -321.762566 0 120 255
71.253488 -48.036321 -319.511596 0 120 255
70.660178 -48.915118 -317.276149 0 120 255
70.066869 -49.793914 -315.040702 0 120 255
69.473559 -50.672710 -312.805255 0 120 255
68.850387 -51.687229 -310.637939 0 120 255
68.218898 -52.739548 -308.489598 0 120 255
67.587409 -53.791867 -306.341257 0 120 255
66.955920 -54.844186 -304.192916 0 120 255
66.322229 -56.010209 -302.106196 0 120 255
65.687754 -57.216651 -300.041381 0 120 255
65.053279 -58.423094 -297.976566 0 120 255
64.418805 -59.629537 -295.911751 0 120 255
63.803206 -60.937257 -293.905203 0 120 255
63.195953 -62.289758 -291.924418 0 120 255
62.588700 -63.642258 -289.943633 0 120 255
61.981448 -64.994758 -287.962848 0 120 255
61.407748 -66.440972 -286.040967 0 120 255
60.852184 -67.937837 -284.150923 0 120 255
60.296620 -69.434702 -282.260879 0 120 255
59.741056 -70.931568 -280.370836 0 120 255
59.228053 -72.515990 -278.543488 0 120 255
58.742851 -74.157604 -276.757094 0 120 255
58.257648 -75.799218 -274.970700 0 120 255
57.772446 -77.440833 -273.184306 0 120 255
57.334288 -79.163139 -271.465953 0 120 255
56.932993 -80.948676 -269.800918 0 120 255
56.531699 -82.734213 -268.135882 0 120 255
56.130404 -84.519750 -266.470847 0 120 255
55.777336 -86.377449 -264.879073 0 120 255
55.469415 -88.302702 -263.355883 0 120 255
55.161494 -90.227955 -261.832692 0 120 255
54.853573 -92.153207 -260.309502 0 120 255
54.592937 -94.140366 -258.863340 0 120 255
54.385118 -96.196674 -257.503218 0 120 255
54.177298 -98.252982 -256.143095 0 120 255
53.969478 -100.309289 -254.782973 0 120 255
53.806834 -102.415951 -253.501283 0 120 255
53.704478 -104.589813 -252.324266 0 120 255
53.602122 -106.763675 -251.147249 0 120 255
53.499766 -108.937537 -249.970231 0 120 255
53.439990 -111.149612 -248.870263 0 120 255
53.448389 -113.422869 -247.893661 0 120 255
53.456788 -115.696126 -246.917058 0 120 255
53.465187 -117.969384 -245.940455 0 120 255
53.513455 -120.268883 -245.036669 0 120 255
53.638864 -122.619158 -244.273778 0 120 255
53.764273 -124.969433 -243.510886 0 120 255
53.889683 -127.319707 -242.747995 0 120 255
54.052235 -129.685153 -242.051101 0 120 255
54.302618 -132.086472 -241.510269 0 120 255
54.553001 -134.487790 -240.969438 0 120 255
54.803385 -136.889109 -240.428607 0 120 255
55.088045 -139.296043 -239.944810 0 120 255
55.473424 -141.719473 -239.628597 0 120 255
55.858803 -144.142903 -239.312383 0 120 255
56.244182 -146.566334 -238.996170 0 120 255
56.660568 -148.987843 -238.726494 0 120 255
57.192981 -151.402161 -238.630962 0 120 255
57.725394 -153.816479 -238.535430 0 120 255
58.257807 -156.230797 -238.439898 0 120 255
58.817227 -158.638065 -238.379610 0 120 255
59.510251 -161.010454 -238.493672 0 120 255
60.203275 -163.382843 -238.607734 0 120 255
60.896299 -165.755233 -238.721796 0 120 255
61.611300 -168.118123 -238.859845 0 120 255
62.479152 -170.414948 -239.164718 0 120 255
63.347004 -172.711774 -239.469591 0 120 255
64.214856 -175.008599 -239.774464 0 120 255
65.098455 -177.296306 -240.093037 0 120 255
66.154675 -179.484043 -240.561787 0 120 255
67.210895 -181.671780 -241.030538 0 120 255
68.267116 -183.859518 -241.499288 0 120 255
69.331677 -186.041346 -241.973417 0 120 255
70.587498 -188.087684 -242.570859 0 120 255
71.843319 -190.134022 -243.168302 0 120 255
73.099140 -192.180359 -243.765745 0 120 255
74.355022 -194.226647 -244.363213 0 120 255
75.817456 -196.101861 -245.046135 0 120 255
77.279890 -197.977075 -245.729056 0 120 255
78.742324 -199.852289 -246.411977 0 120 255
80.204758 -201.727503 -247.094898 0 120 255
81.866190 -203.414032 -247.811510 0 120 255
83.536108 -205.092513 -248.529560 0 120 255
85.206027 -206.770995 -249.247609 0 120 255
86.875945 -208.449476 -249.965658 0 120 255
88.729827 -209.929198 -250.664584 0 120 255
90.600105 -211.391206 -251.361806 0 120 255
92.470382 -212.853214 -252.059028 0 120 255
94.340659 -214.315222 -252.756250 0 120 255
96.372294 -215.576536 -253.383242 0 120 255
98.426461 -216.809825 -254.000427 0 120 255
100.480628 -218.043115 -254.617612 0 120 255
102.534795 -219.276405 -255.234798 0 120 255
104.720625 -220.315555 -255.735260 0 120 255
106.932105 -221.316883 -256.212983 0 120 255
109.143586 -222.318211 -256.690706 0 120 255
111.355066 -223.319539 -257.168429 0 120 255
113.662787 -224.141438 -257.490361 0 120 255
115.995088 -224.917512 -257.772503 0 120 255
118.327389 -225.693586 -258.054646 0 120 255
120.659690 -226.469659 -258.336789 0 120 255
123.049122 -227.088228 -258.433886 0 120 255
125.456968 -227.656028 -258.471337 0 120 255
127.864814 -228.223828 -258.508789 0 120 255
130.272660 -228.791628 -258.546240 0 120 255
132.697398 -229.229379 -258.380766 0 120 255
135.128837 -229.615531 -258.134779 0 120 255
137.560277 -230.001683 -257.888791 0 120 255
139.991717 -230.387835 -257.642804 0 120 255
142.401372 -230.674838 -257.188017 0 120 255
144.800567 -230.914230 -256.632970 0 120 255
147.199762 -231.153623 -256.077922 0 120 255
149.598957 -231.393016 -255.522874 0 120 255
151.941769 -231.566043 -254.764738 0 120 255
154.252195 -231.700951 -253.889952 0 120 255
156.562622 -231.835860 -253.015166 0 120 255
158.873049 -231.970768 -252.140380 0 120 255
161.098738 -232.069972 -251.078178 0 120 255
163.266645 -232.144829 -249.888179 0 120 255
165.434552 -232.219687 -248.698180 0 120 255
167.602459 -232.294544 -247.508181 0 120 255
169.663512 -232.354862 -246.152300 0 120 255
171.638485 -232.403467 -244.662791 0 120 255
173.613459 -232.452072 -243.173281 0 120 255
175.588433 -232.500677 -241.683771 0 120 255
177.439777 -232.538792 -240.053114 0 120 255
179.173676 -232.566942 -238.288369 0 120 255
180.907575 -232.595092 -236.523624 0 120 255
182.641474 -232.623242 -234.758879 0 120 255
184.241108 -232.643868 -232.880688 0 120 255
185.690376 -232.656068 -230.875446 0 120 255
187.139644 -232.668268 -228.870203 0 120 255
188.588912 -232.680468 -226.864961 0 120 255
189.900308 -232.688490 -224.775204 0 120 255
191.029334 -232.690986 -222.573656 0 120 255
192.158359 -232.693482 -220.372107 0 120 255
193.287385 -232.695978 -218.170558 0 120 255
194.281504 -232.696343 -215.912319 0 120 255
195.063948 -232.693362 -213.565130 0 120 255
195.846392 -232.690382 -211.217941 0 120 255
196.628836 -232.687402 -208.870753 0 120 255
197.285089 -232.683335 -206.491866 0 120 255
197.704770 -232.677228 -204.053557 0 120 255
198.124451 -232.671122 -201.615247 0 120 255
198.544132 -232.665016 -199.176938 0 120 255
198.850881 -232.658165 -196.727807 0 120 255
198.901974 -232.649628 -194.254178 0 120 255
198.953067 -232.641091 -191.780549 0 120 255
199.004160 -232.632554 -189.306921 0 120 255
198.958722 -232.623225 -186.838434 0 120 255
198.645298 -232.611698 -184.384222 0 120 255
198.331875 -232.600170 -181.930010 0 120 255
198.018451 -232.588642 -179.475799 0 120 255
197.626595 -232.576121 -177.037455 0 120 255
196.961702 -232.560145 -174.654351 0 120 255
196.296808 -232.544168 -172.271247 0 120 255
195.631914 -232.528191 -169.888144 0 120 255
194.907034 -232.511057 -167.526479 0 120 255
193.911424 -232.488703 -165.261577 0 120 255
192.915814 -232.466349 -162.996674 0 120 255
191.920204 -232.443994 -160.731772 0 120 255
190.882213 -232.420477 -158.489140 0 120 255
189.582840 -232.389782 -156.383858 0 120 255
188.283466 -232.359087 -154.278577 0 120 255
186.984093 -232.328392 -152.173296 0 120 255
185.658164 -232.296717 -150.087016 0 120 255
184.086673 -232.255973 -148.176446 0 120 255
182.515183 -232.215230 -146.265875 0 120 255
180.943692 -232.174486 -144.355305 0 120 255
179.359012 -232.133122 -142.457141 0 120 255
177.550227 -232.081222 -140.769798 0 120 255
175.741443 -232.029321 -139.082455 0 120 255
173.932658 -231.977421 -137.395112 0 120 255
172.121166 -231.925366 -135.711078 0 120 255
170.111715 -231.862003 -134.268991 0 120 255
168.102264 -231.798639 -132.826903 0 120 255
166.092814 -231.735276 -131.384816 0 120 255
164.083363 -231.671913 -129.942729 0 120 255
161.915188 -231.598067 -128.754268 0 120 255
159.742330 -231.523913 -127.573287 0 120 255
157.569473 -231.449758 -126.392307 0 120 255
155.396616 -231.375604 -125.211326 0 120 255
153.106203 -231.293036 -124.282449 0 120 255
150.806829 -231.209826 -123.372793 0 120 255
148.507454 -231.126617 -122.463136 0 120 255
146.208079 -231.043407 -121.553480 0 120 255
143.828233 -230.954881 -120.889010 0 120 255
141.438125 -230.865677 -120.255804 0 120 255
139.048017 -230.776474 -119.622599 0 120 255
136.657909 -230.687270 -118.989394 0 120 255
134.219958 -230.596787 -118.590367 0 120 255
131.773206 -230.506069 -118.234421 0 120 255
129.326454 -230.415351 -117.878475 0 120 255
126.879702 -230.324633 -117.522529 0 120 255
124.413343 -230.234188 -117.387077 0 120 255
121.942155 -230.143811 -117.305935 0 120 255
119.470967 -230.053433 -117.224792 0 120 255
116.999779 -229.963055 -117.143649 0 120 255
114.532984 -229.873653 -117.267094 0 120 255
112.067575 -229.784559 -117.455094 0 120 255
109.602167 -229.695465 -117.643095 0 120 255
107.136758 -229.606371 -117.831095 0 120 255
104.695638 -229.518863 -118.206322 0 120 255
102.264061 -229.431978 -118.655106 0 120 255
99.832484 -229.345092 -119.103890 0 120 255
97.400907 -229.258207 -119.552674 0 120 255
95.009659 -229.173413 -120.170543 0 120 255
92.637761 -229.089624 -120.869546 0 120 255
90.265864 -229.005835 -121.568549 0 120 255
87.893967 -228.922046 -122.267551 0 120 255
85.574880 -228.840731 -123.117254 0 120 255
83.286336 -228.760848 -124.054115 0 120 255
80.997792 -228.680965 -124.990976 0 120 255
78.709248 -228.601081 -125.927837 0 120 255
76.482755 -228.523942 -126.997186 0 120 255
74.299129 -228.448699 -128.158064 0 120 255
72.115503 -228.373456 -129.318943 0 120 255
69.931877 -228.298212 -130.479821 0 120 255
67.816626 -228.225879 -131.755496 0 120 255
65.757478 -228.155932 -133.125365 0 120 255
63.698330 -228.085986 -134.495234 0 120 255
61.639182 -228.016040 -135.865102 0 120 255
59.652122 -227.949088 -137.332845 0 120 255
57.735102 -227.885044 -138.895681 0 120 255
55.818082 -227.821001 -140.458516 0 120 255
53.901063 -227.756958 -142.021352 0 120 255
52.057503 -227.695892 -143.666087 0 120 255
50.298414 -227.638249 -145.404996 0 120 255
48.539325 -227.580607 -147.143906 0 120 255
46.780235 -227.522965 -148.882815 0 120 255
45.093903 -227.468220 -150.688764 0 120 255
43.506767 -227.417424 -152.586116 0 120 255
41.919632 -227.366629 -154.483467 0 120 255
40.332496 -227.315833 -156.380819 0 120 255
38.815569 -227.267797 -158.331587 0 120 255
37.412645 -227.224242 -160.369093 0 120 255
36.009721 -227.180687 -162.406599 0 120 255
34.606797 -227.137132 -164.444104 0 120 255
33.269929 -227.096136 -166.522761 0 120 255
32.061757 -227.060128 -168.681591 0 120 255
30.853586 -227.024120 -170.840421 0 120 255
29.645414 -226.988111 -172.999251 0 120 255
28.497730 -226.954420 -175.188400 0 120 255
27.493036 -226.926205 -177.449222 0 120 255
26.488343 -226.897990 -179.710045 0 120 255
25.483649 -226.869775 -181.970867 0 120 255
24.532691 -226.843597 -184.252708 0 120 255
23.738404 -226.823362 -186.595830 0 120 255
22.944117 -226.803127 -188.938952 0 120 255
22.149829 -226.782892 -191.282074 0 120 255
21.401552 -226.764381 -193.638512 0 120 255
20.822726 -226.752221 -196.043992 0 120 255
20.243901 -226.740061 -198.449473 0 120 255
19.665075 -226.727902 -200.854953 0 120 255
19.123805 -226.717137 -203.267704 0 120 255
18.763674 -226.713099 -205.715522 0 120 255
18.403543 -226.709062 -208.163339 0 120 255
18.043412 -226.705024 -210.611157 0 120 255
17.711862 -226.702038 -213.061882 0 120 255
17.571715 -226.706093 -215.532078 0 120 255
17.431568 -226.710147 -218.002273 0 120 255
17.291421 -226.714201 -220.472468 0 120 255
17.170618 -226.718959 -222.942900 0 120 255
17.249874 -226.730992 -225.415772 0 120 255
17.329130 -226.743025 -227.888644 0 120 255
17.408386 -226.755058 -230.361516 0 120 255
17.497715 -226.767455 -232.833618 0 120 255
17.793939 -226.787321 -235.289912 0 120 255
18.090163 -226.807188 -237.746206 0 120 255
18.386387 -226.827055 -240.202500 0 120 255
18.683609 -226.846957 -242.658628 0 120 255
19.192542 -226.874440 -245.079734 0 120 255
19.701474 -226.901923 -247.500841 0 120 255
20.210406 -226.929406 -249.921947 0 120 255
20.719338 -226.956889 -252.343053 0 120 255
21.427278 -226.991420 -254.713186 0 120 255
22.142865 -227.026222 -257.081359 0 120 255
22.858452 -227.061024 -259.449533 0 120 255
23.574039 -227.095826 -261.817707 0 120 255
24.472928 -227.137079 -264.121745 0 120 255
25.387477 -227.178883 -266.420305 0 120 255
26.302026 -227.220688 -268.718864 0 120 255
27.216574 -227.262492 -271.017424 0 120 255
28.298017 -227.310097 -273.241194 0 120 255
29.402305 -227.358496 -275.454727 0 120 255
30.506593 -227.406895 -277.668260 0 120 255
31.610882 -227.455294 -279.881793 0 120 255
32.865240 -227.508835 -282.012414 0 120 255
34.148635 -227.563370 -284.126993 0 120 255
35.432031 -227.617906 -286.241572 0 120 255
36.715426 -227.672442 -288.356151 0 120 255
38.131951 -227.731500 -290.382217 0 120 255
39.582560 -227.791716 -292.385622 0 120 255
41.033169 -227.851932 -294.389026 0 120 255
42.483779 -227.912148 -296.392431 0 120 255
44.050887 -227.976271 -298.304084 0 120 255
45.655918 -228.041666 -300.185871 0 120 255
47.260948 -228.107061 -302.067658 0 120 255
48.865979 -228.172456 -303.949445 0 120 255
50.571405 -228.241176 -305.738521 0 120 255
52.317307 -228.311236 -307.490217 0 120 255
54.063208 -228.381296 -309.241914 0 120 255
55.809110 -228.451356 -310.993611 0 120 255
57.640140 -228.524224 -312.653691 0 120 255
59.512928 -228.598471 -314.268830 0 120 255
61.385717 -228.672717 -315.883969 0 120 255
63.258505 -228.746964 -317.499108 0 120 255
65.202251 -228.823680 -319.025500 0 120 255
67.187832 -228.901852 -320.499570 0 120 255
69.173413 -228.980024 -321.973639 0 120 255
71.158994 -229.058197 -323.447708 0 120 255
73.202580 -229.138295 -324.837493 0 120 255
75.286934 -229.219748 -326.168040 0 120 255
77.371288 -229.301200 -327.498587 0 120 255
79.455642 -229.382652 -328.829135 0 120 255
81.586250 -229.464655 -330.081504 0 120 255
83.755416 -229.547116 -331.268703 0 120 255
85.924582 -229.629577 -332.455903 0 120 255
88.093748 -229.712038 -333.643102 0 120 255
90.298293 -229.789242 -334.760927 0 120 255
92.537732 -229.861261 -335.810331 0 120 255
94.777171 -229.933280 -336.859736 0 120 255
97.016610 -230.005298 -337.909140 0 120 255
99.282396 -230.067284 -338.898461 0 120 255
101.578922 -230.117562 -339.817677 0 120 255
103.875449 -230.167841 -340.736894 0 120 255
106.171976 -230.218120 -341.656111 0 120 255
108.487573 -230.255612 -342.524328 0 120 255
110.829553 -230.275414 -343.321986 0 120 255
113.171534 -230.295216 -344.119643 0 120 255
115.513514 -230.315019 -344.917301 0 120 255
117.868793 -230.320839 -345.672674 0 120 255
120.245997 -230.303608 -346.358333 0 120 255
122.623200 -230.286377 -347.043992 0 120 255
125.000404 -230.269146 -347.729651 0 120 255
127.386454 -230.238025 -348.381170 0 120 255
129.790020 -230.179396 -348.965081 0 120 255
132.193587 -230.120768 -349.548992 0 120 255
134.597154 -230.062139 -350.132902 0 120 255
137.006259 -229.990741 -350.690083 0 120 255
139.428698 -229.888601 -351.182913 0 120 255
141.851137 -229.786462 -351.675743 0 120 255
144.273575 -229.684322 -352.168573 0 120 255
146.699214 -229.571276 -352.641250 0 120 255
149.134384 -229.425754 -353.053918 0 120 255
151.569554 -229.280233 -353.466586 0 120 255
154.004723 -229.134712 -353.879253 0 120 255
156.441553 -228.980603 -354.277444 0 120 255
158.884651 -228.794051 -354.620945 0 120 255
161.327749 -228.607499 -354.964446 0 120 255
163.770847 -228.420946 -355.307947 0 120 255
166.214666 -228.228531 -355.642064 0 120 255
168.662078 -228.006910 -355.929433 0 120 255
171.109490 -227.785289 -356.216802 0 120 255
173.556902 -227.563668 -356.504171 0 120 255
176.004282 -227.340818 -356.790839 0 120 255
178.451437 -227.109386 -357.072604 0 120 255
180.898593 -226.877954 -357.354369 0 120 255
183.345748 -226.646522 -357.636134 0 120 255
185.792904 -226.415089 -357.917900 0 120 255
188.240057 -226.183646 -358.199678 0 120 255
190.687210 -225.952203 -358.481455 0 120 255
193.134363 -225.720760 -358.763233 0 120 255
195.581516 -225.489317 -359.045010 0 120 255
198.028670 -225.257878 -359.326780 0 120 255
200.475825 -225.026438 -359.608551 0 120 255
202.922979 -224.794999 -359.890321 0 120 255
205.370133 -224.563560 -360.172091 0 120 255
