ply
format ascii 1.0
element vertex 385
property float x
property float y
property float z
property uchar red
property uchar green
property uchar blue
end_header
77.430455 -42.474882 -360.397637 0 120 255
77.187564 -42.528709 -357.936046 0 120 255
76.944672 -42.582536 -355.474456 0 120 255
76.701781 -42.636363 -353.012866 0 120 255
76.458889 -42.690190 -350.551276 0 120 255
76.214721 -42.753507 -348.090039 0 120 255
75.970496 -42.817240 -345.628817 0 120 255
75.726272 -42.880972 -343.167596 0 120 255
75.482048 -42.944704 -340.706374 0 120 255
75.328219 -43.440749 -338.291085 0 120 255
75.182630 -43.976201 -335.879982 0 120 255
75.037041 -44.511653 -333.468880 0 120 255
74.891452 -45.047106 -331.057778 0 120 255
74.819404 -45.944507 -328.758023 0 120 255
74.758192 -46.895241 -326.474675 0 120 255
74.696980 -47.845974 -324.191327 0 120 255
74.635767 -48.796708 -321.907979 0 120 255
74.632406 -50.043999 -319.776893 0 120 255
74.641197 -51.353582 -317.677790 0 120 255
74.649988 -52.663166 -315.578687 0 120 255
74.658778 -53.972749 -313.479584 0 120 255
74.713293 -55.516408 -311.553141 0 120 255
74.780617 -57.125639 -309.675067 0 120 255
74.847941 -58.734870 -307.796993 0 120 255
74.915265 -60.344101 -305.918919 0 120 255
75.019981 -62.131785 -304.218542 0 120 255
75.138111 -63.983494 -302.581917 0 120 255
75.256241 -65.835203 -300.945293 0 120 255
75.374372 -67.686912 -299.308669 0 120 255
75.525019 -69.669978 -297.844218 0 120 255
75.690215 -71.711817 -296.456801 0 120 255
75.855411 -73.753656 -295.069385 0 120 255
76.020607 -75.795494 -293.681968 0 120 255
76.216295 -77.930254 -292.454549 0 120 255
76.428693 -80.115939 -291.314818 0 120 255
76.641092 -82.301624 -290.175087 0 120 255
76.853490 -84.487309 -289.035355 0 120 255
77.096492 -86.735414 -288.039705 0 120 255
77.359788 -89.024914 -287.139602 0 120 255
77.623085 -91.314413 -286.239498 0 120 255
77.886381 -93.603913 -285.339394 0 120 255
78.181846 -95.932146 -284.565692 0 120 255
78.502918 -98.291210 -283.892604 0 120 255
78.823990 -100.650274 -283.219515 0 120 255
79.145062 -103.009339 -282.546426 0 120 255
79.500653 -105.389078 -281.981598 0 120 255
79.889072 -107.788478 -281.519724 0 120 255
80.277491 -110.187879 -281.057850 0 120 255
80.665909 -112.587279 -280.595976 0 120 255
81.091415 -114.993816 -280.224566 0 120 255
81.558985 -117.408447 -279.955762 0 120 255
82.026556 -119.823078 -279.686959 0 120 255
82.494127 -122.237709 -279.418155 0 120 255
83.001065 -124.649503 -279.222790 0 120 255
83.561310 -127.057458 -279.126866 0 120 255
84.121554 -129.465412 -279.030941 0 120 255
84.681799 -131.873366 -278.935017 0 120 255
85.282963 -134.271324 -278.896587 0 120 255
85.950524 -136.653061 -278.951449 0 120 255
86.618085 -139.034798 -279.006311 0 120 255
87.285647 -141.416535 -279.061173 0 120 255
87.994588 -143.783349 -279.158840 0 120 255
88.784557 -146.120940 -279.340325 0 120 255
89.574525 -148.458531 -279.521809 0 120 255
90.364494 -150.796122 -279.703294 0 120 255
91.194932 -153.115684 -279.914357 0 120 255
92.122050 -155.392173 -280.196082 0 120 255
93.049169 -157.668662 -280.477808 0 120 255
93.976287 -159.945151 -280.759533 0 120 255
94.941407 -162.202063 -281.059260 0 120 255
96.019115 -164.400975 -281.412319 0 120 255
97.096824 -166.599887 -281.765379 0 120 255
98.174532 -168.798799 -282.118438 0 120 255
99.286169 -170.977997 -282.479852 0 120 255
100.525513 -173.082993 -282.872707 0 120 255
101.764857 -175.187990 -283.265562 0 120 255
103.004200 -177.292987 -283.658417 0 120 255
104.271899 -179.379489 -284.052216 0 120 255
105.680285 -181.374228 -284.450695 0 120 255
107.088670 -183.368968 -284.849174 0 120 255
108.497056 -185.363707 -285.247652 0 120 255
109.927020 -187.342526 -285.642235 0 120 255
111.506883 -189.210757 -286.009747 0 120 255
113.086747 -191.078988 -286.377259 0 120 255
114.666610 -192.947218 -286.744771 0 120 255
116.260586 -194.803465 -287.106449 0 120 255
118.008062 -196.529361 -287.404661 0 120 255
119.755538 -198.255257 -287.702873 0 120 255
121.503013 -199.981153 -288.001085 0 120 255
123.257178 -201.700324 -288.294658 0 120 255
125.160923 -203.269097 -288.484467 0 120 255
127.064667 -204.837870 -288.674276 0 120 255
128.968412 -206.406642 -288.864085 0 120 255
130.872381 -207.975136 -289.053653 0 120 255
132.912687 -209.373931 -289.096585 0 120 255
134.952993 -210.772726 -289.139518 0 120 255
136.993300 -212.171521 -289.182450 0 120 255
139.033606 -213.570316 -289.225383 0 120 255
141.177832 -214.796305 -289.092577 0 120 255
143.326311 -216.015221 -288.952578 0 120 255
145.474790 -217.234138 -288.812580 0 120 255
147.623269 -218.453055 -288.672581 0 120 255
149.837447 -219.501205 -288.335226 0 120 255
152.057347 -220.534482 -287.980681 0 120 255
154.277247 -221.567759 -287.626136 0 120 255
156.497147 -222.601036 -287.271590 0 120 255
158.741212 -223.470585 -286.706338 0 120 255
160.988598 -224.317639 -286.112136 0 120 255
163.235984 -225.164692 -285.517933 0 120 255
165.483370 -226.011746 -284.923730 0 120 255
167.712537 -226.707231 -284.114386 0 120 255
169.938199 -227.373545 -283.263635 0 120 255
172.163860 -228.039859 -282.412885 0 120 255
174.389521 -228.706173 -281.562134 0 120 255
176.556479 -229.237799 -280.500858 0 120 255
178.708577 -229.735332 -279.386294 0 120 255
180.860676 -230.232865 -278.271730 0 120 255
183.012774 -230.730399 -277.157167 0 120 255
185.070150 -231.114057 -275.844994 0 120 255
187.097189 -231.461244 -274.469532 0 120 255
189.124228 -231.808431 -273.094071 0 120 255
191.151266 -232.155618 -271.718609 0 120 255
193.054191 -232.412433 -270.165405 0 120 255
194.908071 -232.633537 -268.541963 0 120 255
196.761951 -232.854640 -266.918522 0 120 255
198.615831 -233.075744 -265.295080 0 120 255
200.324247 -233.231278 -263.518834 0 120 255
201.962945 -233.355386 -261.669351 0 120 255
203.601643 -233.479494 -259.819869 0 120 255
205.240341 -233.603602 -257.970387 0 120 255
206.720899 -233.687934 -255.996069 0 120 255
208.110617 -233.749419 -253.950043 0 120 255
209.500336 -233.810903 -251.904017 0 120 255
210.890054 -233.872388 -249.857991 0 120 255
212.117436 -233.916526 -247.715938 0 120 255
213.233891 -233.948812 -245.508268 0 120 255
214.350345 -233.981097 -243.300598 0 120 255
215.466800 -234.013383 -241.092929 0 120 255
216.423308 -234.038560 -238.816696 0 120 255
217.250394 -234.057985 -236.484986 0 120 255
218.077479 -234.077410 -234.153276 0 120 255
218.904565 -234.096835 -231.821566 0 120 255
219.578829 -234.111314 -229.446214 0 120 255
220.106943 -234.121063 -227.029125 0 120 255
220.635057 -234.130811 -224.612036 0 120 255
221.163171 -234.140560 -222.194946 0 120 255
221.549067 -234.145332 -219.755901 0 120 255
221.774184 -234.144479 -217.292034 0 120 255
221.999300 -234.143626 -214.828167 0 120 255
222.224416 -234.142772 -212.364300 0 120 255
222.320745 -234.137278 -209.896558 0 120 255
222.244595 -234.125568 -207.423628 0 120 255
222.168446 -234.113858 -204.950698 0 120 255
222.092296 -234.102148 -202.477767 0 120 255
221.902725 -234.086346 -200.015160 0 120 255
221.532407 -234.064024 -197.569003 0 120 255
221.162089 -234.041702 -195.122845 0 120 255
220.791771 -234.019380 -192.676688 0 120 255
220.324367 -233.993593 -190.251127 0 120 255
219.671486 -233.961186 -187.864913 0 120 255
219.018604 -233.928779 -185.478699 0 120 255
218.365723 -233.896372 -183.092486 0 120 255
217.632243 -233.861117 -180.733393 0 120 255
216.712098 -233.819264 -178.437114 0 120 255
215.791953 -233.777412 -176.140834 0 120 255
214.871807 -233.735560 -173.844554 0 120 255
213.886985 -233.691455 -171.578514 0 120 255
212.717613 -233.640924 -169.398758 0 120 255
211.548241 -233.590394 -167.219002 0 120 255
210.378869 -233.539863 -165.039246 0 120 255
209.159661 -233.487624 -162.889863 0 120 255
207.761064 -233.429238 -160.849804 0 120 255
206.362468 -233.370851 -158.809746 0 120 255
204.963871 -233.312464 -156.769687 0 120 255
203.528827 -233.252851 -154.757605 0 120 255
201.922307 -233.187469 -152.877143 0 120 255
200.315788 -233.122088 -150.996680 0 120 255
198.709268 -233.056706 -149.116217 0 120 255
197.077998 -232.990506 -147.259255 0 120 255
195.285601 -232.918977 -145.555284 0 120 255
193.493204 -232.847448 -143.851314 0 120 255
191.700807 -232.775919 -142.147343 0 120 255
189.893535 -232.703910 -140.460725 0 120 255
187.937669 -232.627111 -138.947447 0 120 255
185.981804 -232.550311 -137.434168 0 120 255
184.025939 -232.473511 -135.920889 0 120 255
182.063188 -232.396498 -134.417504 0 120 255
179.966359 -232.315314 -133.106765 0 120 255
177.869530 -232.234129 -131.796026 0 120 255
175.772701 -232.152945 -130.485287 0 120 255
173.675078 -232.071737 -129.175971 0 120 255
171.459709 -231.986997 -128.077662 0 120 255
169.244341 -231.902256 -126.979354 0 120 255
167.028972 -231.817516 -125.881045 0 120 255
164.813604 -231.732775 -124.782737 0 120 255
162.505467 -231.645441 -123.897177 0 120 255
160.193922 -231.558011 -123.019434 0 120 255
157.882376 -231.470581 -122.141691 0 120 255
155.570830 -231.383151 -121.263948 0 120 255
153.191161 -231.294013 -120.595769 0 120 255
150.805764 -231.204732 -119.945208 0 120 255
148.420367 -231.115451 -119.294647 0 120 255
146.034970 -231.026170 -118.644086 0 120 255
143.604243 -230.935975 -118.198243 0 120 255
141.167356 -230.845655 -117.780220 0 120 255
138.730468 -230.755336 -117.362196 0 120 255
136.293581 -230.665016 -116.944173 0 120 255
133.832458 -230.574555 -116.724365 0 120 255
131.366659 -230.484067 -116.542786 0 120 255
128.900861 -230.393580 -116.361207 0 120 255
126.435063 -230.303092 -116.179628 0 120 255
123.964452 -230.213143 -116.188047 0 120 255
121.492610 -230.123332 -116.245055 0 120 255
119.020768 -230.033521 -116.302063 0 120 255
116.548925 -229.943710 -116.359072 0 120 255
114.089952 -229.855031 -116.596298 0 120 255
111.635167 -229.766721 -116.892194 0 120 255
109.180383 -229.678411 -117.188090 0 120 255
106.725598 -229.590101 -117.483986 0 120 255
104.299466 -229.503459 -117.948611 0 120 255
101.884894 -229.417490 -118.481313 0 120 255
99.470323 -229.331521 -119.014016 0 120 255
97.055751 -229.245552 -119.546719 0 120 255
94.683466 -229.161707 -120.235035 0 120 255
92.331946 -229.078904 -120.999771 0 120 255
89.980427 -228.996102 -121.764506 0 120 255
87.628908 -228.913299 -122.529242 0 120 255
85.330970 -228.832969 -123.435260 0 120 255
83.064661 -228.754099 -124.424674 0 120 255
80.798352 -228.675228 -125.414089 0 120 255
78.532043 -228.596357 -126.403504 0 120 255
76.328089 -228.520214 -127.518940 0 120 255
74.168009 -228.445989 -128.723043 0 120 255
72.007929 -228.371764 -129.927146 0 120 255
69.847849 -228.297539 -131.131249 0 120 255
67.756286 -228.226214 -132.445605 0 120 255
65.721884 -228.157309 -133.851941 0 120 255
63.687482 -228.088404 -135.258277 0 120 255
61.653081 -228.019498 -136.664613 0 120 255
59.690766 -227.953570 -138.165399 0 120 255
57.799577 -227.890580 -139.759374 0 120 255
55.908388 -227.827590 -141.353349 0 120 255
54.017199 -227.764600 -142.947323 0 120 255
52.199173 -227.704566 -144.620331 0 120 255
50.466505 -227.647980 -146.385545 0 120 255
48.733838 -227.591395 -148.150759 0 120 255
47.001170 -227.534809 -149.915973 0 120 255
45.340400 -227.481089 -151.745560 0 120 255
43.779036 -227.431330 -153.664150 0 120 255
42.217671 -227.381571 -155.582739 0 120 255
40.656306 -227.331812 -157.501328 0 120 255
39.163575 -227.284738 -159.470802 0 120 255
37.783832 -227.242086 -161.524045 0 120 255
36.404089 -227.199434 -163.577289 0 120 255
35.024346 -227.156782 -165.630533 0 120 255
33.708474 -227.116600 -167.722690 0 120 255
32.518788 -227.081300 -169.891727 0 120 255
31.329102 -227.045999 -172.060763 0 120 255
30.139415 -227.010699 -174.229800 0 120 255
29.007695 -226.977617 -176.427391 0 120 255
28.014999 -226.949854 -178.693468 0 120 255
27.022303 -226.922092 -180.959545 0 120 255
26.029608 -226.894330 -183.225622 0 120 255
25.088009 -226.868506 -185.511479 0 120 255
24.297707 -226.848417 -187.855907 0 120 255
23.507405 -226.828328 -190.200334 0 120 255
22.717103 -226.808239 -192.544761 0 120 255
21.970325 -226.789782 -194.901793 0 120 255
21.386605 -226.777440 -197.306047 0 120 255
20.802885 -226.765097 -199.710301 0 120 255
20.219166 -226.752754 -202.114556 0 120 255
19.670859 -226.741727 -204.525808 0 120 255
19.296783 -226.737174 -206.971491 0 120 255
18.922706 -226.732620 -209.417174 0 120 255
18.548630 -226.728067 -211.862857 0 120 255
18.201459 -226.724505 -214.311478 0 120 255
18.038938 -226.727754 -216.780263 0 120 255
17.876417 -226.731002 -219.249047 0 120 255
17.713896 -226.734251 -221.717831 0 120 255
17.569523 -226.738162 -224.187027 0 120 255
17.619346 -226.749166 -226.660631 0 120 255
17.669168 -226.760170 -229.134235 0 120 255
17.718991 -226.771174 -231.607839 0 120 255
17.778095 -226.782514 -234.080855 0 120 255
18.039926 -226.801189 -236.541020 0 120 255
18.301757 -226.819865 -239.001186 0 120 255
18.563588 -226.838541 -241.461352 0 120 255
18.825869 -226.857232 -243.921450 0 120 255
19.298001 -226.883446 -246.349973 0 120 255
19.770133 -226.909660 -248.778496 0 120 255
20.242264 -226.935874 -251.207019 0 120 255
20.714396 -226.962088 -253.635542 0 120 255
21.385391 -226.995378 -256.016352 0 120 255
22.064554 -227.028959 -258.395203 0 120 255
22.743717 -227.062539 -260.774053 0 120 255
23.422880 -227.096120 -263.152904 0 120 255
24.287673 -227.136212 -265.469899 0 120 255
25.168834 -227.176877 -267.781440 0 120 255
26.049994 -227.217543 -270.092981 0 120 255
26.931155 -227.258208 -272.404521 0 120 255
27.983391 -227.304817 -274.642174 0 120 255
29.059530 -227.352256 -276.869503 0 120 255
30.135668 -227.399695 -279.096832 0 120 255
31.211807 -227.447134 -281.324161 0 120 255
32.443270 -227.499935 -283.467970 0 120 255
33.705240 -227.553790 -285.595375 0 120 255
34.967209 -227.607644 -287.722780 0 120 255
36.229178 -227.661498 -289.850186 0 120 255
37.630045 -227.720060 -291.886931 0 120 255
39.066888 -227.779840 -293.900194 0 120 255
40.503731 -227.839621 -295.913457 0 120 255
41.940574 -227.899401 -297.926720 0 120 255
43.499481 -227.963279 -299.844837 0 120 255
45.098495 -228.028503 -301.731692 0 120 255
46.697509 -228.093727 -303.618546 0 120 255
48.296522 -228.158951 -305.505401 0 120 255
50.000889 -228.227670 -307.295202 0 120 255
51.748064 -228.297808 -309.045568 0 120 255
53.495239 -228.367946 -310.795934 0 120 255
55.242413 -228.438084 -312.546300 0 120 255
57.078758 -228.511153 -314.200170 0 120 255
58.959137 -228.585669 -315.806391 0 120 255
60.839515 -228.660185 -317.412611 0 120 255
62.719894 -228.734701 -319.018832 0 120 255
64.674167 -228.811689 -320.531367 0 120 255
66.672253 -228.890142 -321.988355 0 120 255
68.670340 -228.968596 -323.445343 0 120 255
70.668427 -229.047050 -324.902331 0 120 255
72.726342 -229.127345 -326.270451 0 120 255
74.826508 -229.208941 -327.575811 0 120 255
76.926674 -229.290536 -328.881170 0 120 255
79.026840 -229.372132 -330.186530 0 120 255
81.174143 -229.454385 -331.409694 0 120 255
83.360899 -229.537188 -332.564059 0 120 255
85.547656 -229.619991 -333.718424 0 120 255
87.734413 -229.702794 -334.872788 0 120 255
89.956665 -229.780597 -335.954632 0 120 255
92.214048 -229.853452 -336.964698 0 120 255
94.471431 -229.926306 -337.974764 0 120 255
96.728814 -229.999161 -338.984830 0 120 255
99.012079 -230.061969 -339.932808 0 120 255
101.325636 -230.113017 -340.808120 0 120 255
103.639192 -230.164066 -341.683432 0 120 255
105.952748 -230.215114 -342.558743 0 120 255
108.284572 -230.253255 -343.382172 0 120 255
110.641737 -230.273488 -344.133626 0 120 255
112.998902 -230.293722 -344.885080 0 120 255
115.356067 -230.313955 -345.636534 0 120 255
117.725593 -230.320108 -346.345840 0 120 255
120.115543 -230.302994 -346.985498 0 120 255
122.505494 -230.285880 -347.625157 0 120 255
124.895444 -230.268766 -348.264815 0 120 255
127.293314 -230.237705 -348.871356 0 120 255
129.706893 -230.178970 -349.412191 0 120 255
132.120473 -230.120236 -349.953026 0 120 255
134.534053 -230.061502 -350.493860 0 120 255
136.952350 -229.989989 -351.009704 0 120 255
139.382016 -229.887672 -351.465302 0 120 255
141.811683 -229.785356 -351.920900 0 120 255
144.241350 -229.683039 -352.376499 0 120 255
146.673549 -229.569847 -352.814210 0 120 255
149.113293 -229.424251 -353.198620 0 120 255
151.553037 -229.278655 -353.583030 0 120 255
153.992781 -229.133059 -353.967440 0 120 255
156.433682 -228.978923 -354.339928 0 120 255
158.878952 -228.792524 -354.667382 0 120 255
161.324223 -228.606125 -354.994836 0 120 255
163.769494 -228.419726 -355.322289 0 120 255
166.215124 -228.227477 -355.642998 0 120 255
168.662545 -228.006117 -355.930141 0 120 255
171.109966 -227.784756 -356.217284 0 120 255
173.557386 -227.563395 -356.504427 0 120 255
176.004769 -227.340772 -356.790895 0 120 255
178.451884 -227.109344 -357.072655 0 120 255
180.898999 -226.877916 -357.354416 0 120 255
183.346114 -226.646487 -357.636176 0 120 255
185.793228 -226.415058 -357.917938 0 120 255
188.240341 -226.183619 -358.199711 0 120 255
190.687453 -225.952180 -358.481484 0 120 255
193.134566 -225.720740 -358.763256 0 120 255
195.581678 -225.489301 -359.045029 0 120 255
198.028792 -225.257866 -359.326795 0 120 255
200.475906 -225.026431 -359.608560 0 120 255
202.923020 -224.794996 -359.890325 0 120 255
205.370133 -224.563560 -360.172091 0 120 255
