ply
format ascii 1.0
element vertex 385
property float x
property float y
property float z
property uchar red
property uchar green
property uchar blue
end_header
77.430455 -42.474882 -360.397637 0 120 255
77.187553 -42.528711 -357.935934 0 120 255
76.944650 -42.582541 -355.474231 0 120 255
76.701747 -42.636370 -353.012528 0 120 255
76.458845 -42.690200 -350.550825 0 120 255
76.213338 -42.754653 -348.089637 0 120 255
75.967718 -42.819568 -345.628471 0 120 255
75.722098 -42.884483 -343.167305 0 120 255
75.476477 -42.949398 -340.706139 0 120 255
75.087589 -43.317784 -338.292745 0 120 255
74.685653 -43.713810 -335.883701 0 120 255
74.283717 -44.109836 -333.474657 0 120 255
73.881780 -44.505862 -331.065614 0 120 255
73.380818 -45.116927 -328.722836 0 120 255
72.865260 -45.759688 -326.389825 0 120 255
72.349702 -46.402449 -324.056814 0 120 255
71.834144 -47.045210 -321.723804 0 120 255
71.260419 -47.847976 -319.456358 0 120 255
70.674505 -48.684269 -317.202649 0 120 255
70.088592 -49.520561 -314.948941 0 120 255
69.502679 -50.356854 -312.695233 0 120 255
68.894575 -51.319340 -310.499738 0 120 255
68.280293 -52.316959 -308.320451 0 120 255
67.666011 -53.314578 -306.141163 0 120 255
67.051729 -54.312198 -303.961876 0 120 255
66.444155 -55.417871 -301.834649 0 120 255
65.838965 -56.561940 -299.725921 0 120 255
65.233774 -57.706008 -297.617194 0 120 255
64.628584 -58.850076 -295.508466 0 120 255
64.051095 -60.093497 -293.450199 0 120 255
63.485848 -61.380828 -291.414233 0 120 255
62.920601 -62.668159 -289.378267 0 120 255
62.355354 -63.955489 -287.342301 0 120 255
61.831207 -65.337599 -285.359980 0 120 255
61.329271 -66.770929 -283.406647 0 120 255
60.827334 -68.204259 -281.453315 0 120 255
60.325398 -69.637588 -279.499983 0 120 255
59.871443 -71.161514 -277.606777 0 120 255
59.448833 -72.744623 -275.752850 0 120 255
59.026222 -74.327732 -273.898923 0 120 255
58.603612 -75.910842 -272.044996 0 120 255
58.230873 -77.578685 -270.258923 0 120 255
57.897237 -79.312966 -268.526053 0 120 255
57.563601 -81.047247 -266.793184 0 120 255
57.229965 -82.781528 -265.060314 0 120 255
56.944750 -84.592238 -263.402323 0 120 255
56.704921 -86.474584 -261.814514 0 120 255
56.465092 -88.356929 -260.226705 0 120 255
56.225263 -90.239275 -258.638896 0 120 255
56.030565 -92.187506 -257.130883 0 120 255
55.886378 -94.209478 -255.712179 0 120 255
55.742192 -96.231449 -254.293474 0 120 255
55.598006 -98.253421 -252.874770 0 120 255
55.495011 -100.329168 -251.537810 0 120 255
55.447144 -102.476887 -250.310255 0 120 255
55.399278 -104.624607 -249.082700 0 120 255
55.351411 -106.772326 -247.855146 0 120 255
55.340944 -108.961065 -246.708046 0 120 255
55.390588 -111.215733 -245.690261 0 120 255
55.440232 -113.470402 -244.672476 0 120 255
55.489877 -115.725070 -243.654691 0 120 255
55.573655 -118.008236 -242.712921 0 120 255
55.723814 -120.346822 -241.918975 0 120 255
55.873974 -122.685407 -241.125029 0 120 255
56.024133 -125.023993 -240.331083 0 120 255
56.205734 -127.379579 -239.605962 0 120 255
56.462170 -129.775629 -239.044654 0 120 255
56.718607 -132.171679 -238.483347 0 120 255
56.975044 -134.567729 -237.922039 0 120 255
57.260562 -136.970925 -237.420157 0 120 255
57.632246 -139.395297 -237.094349 0 120 255
58.003929 -141.819670 -236.768540 0 120 255
58.375613 -144.244042 -236.442731 0 120 255
58.773947 -146.667825 -236.165407 0 120 255
59.273082 -149.089378 -236.071468 0 120 255
59.772217 -151.510931 -235.977530 0 120 255
60.271351 -153.932485 -235.883591 0 120 255
60.794145 -156.348170 -235.826402 0 120 255
61.435668 -158.734410 -235.953635 0 120 255
62.077190 -161.120650 -236.080867 0 120 255
62.718713 -163.506890 -236.208099 0 120 255
63.379896 -165.884667 -236.360390 0 120 255
64.180550 -168.202401 -236.690452 0 120 255
64.981205 -170.520135 -237.020513 0 120 255
65.781860 -172.837870 -237.350574 0 120 255
66.596834 -175.147347 -237.694961 0 120 255
67.573738 -177.363454 -238.201327 0 120 255
68.550642 -179.579561 -238.707694 0 120 255
69.527546 -181.795669 -239.214060 0 120 255
70.511994 -184.006519 -239.725982 0 120 255
71.680839 -186.088859 -240.373703 0 120 255
72.849685 -188.171198 -241.021425 0 120 255
74.018530 -190.253538 -241.669146 0 120 255
75.187376 -192.335877 -242.316868 0 120 255
76.559768 -194.254868 -243.062330 0 120 255
77.932632 -196.173480 -243.808020 0 120 255
79.305496 -198.092092 -244.553709 0 120 255
80.678359 -200.010705 -245.299398 0 120 255
82.252278 -201.747469 -246.089885 0 120 255
83.835363 -203.475942 -246.882415 0 120 255
85.418447 -205.204416 -247.674944 0 120 255
87.001532 -206.932889 -248.467474 0 120 255
88.775242 -208.467902 -249.250254 0 120 255
90.566568 -209.985035 -250.032133 0 120 255
92.357895 -211.502169 -250.814012 0 120 255
94.149222 -213.019303 -251.595891 0 120 255
96.112200 -214.339043 -252.314572 0 120 255
98.099775 -215.630499 -253.024198 0 120 255
100.087349 -216.921955 -253.733824 0 120 255
102.074924 -218.213411 -254.443450 0 120 255
104.206815 -219.311723 -255.040576 0 120 255
106.367401 -220.371630 -255.615332 0 120 255
108.527987 -221.431538 -256.190089 0 120 255
110.688573 -222.491445 -256.764845 0 120 255
112.958974 -223.370516 -257.185030 0 120 255
115.257907 -224.202604 -257.565054 0 120 255
117.556840 -225.034692 -257.945079 0 120 255
119.855773 -225.866780 -258.325103 0 120 255
122.224927 -226.537685 -258.518366 0 120 255
124.617055 -227.155855 -258.650526 0 120 255
127.009184 -227.774025 -258.782685 0 120 255
129.401313 -228.392195 -258.914845 0 120 255
131.821741 -228.874712 -258.839899 0 120 255
134.253548 -229.302682 -258.681673 0 120 255
136.685356 -229.730651 -258.523447 0 120 255
139.117163 -230.158620 -258.365222 0 120 255
141.536092 -230.480368 -257.992196 0 120 255
143.948761 -230.750482 -257.514756 0 120 255
146.361429 -231.020596 -257.037315 0 120 255
148.774098 -231.290709 -256.559874 0 120 255
151.136405 -231.485905 -255.872216 0 120 255
153.469450 -231.637571 -255.062413 0 120 255
155.802494 -231.789236 -254.252611 0 120 255
158.135539 -231.940902 -253.442808 0 120 255
160.386847 -232.048094 -252.437922 0 120 255
162.581807 -232.124627 -251.298548 0 120 255
164.776768 -232.201161 -250.159174 0 120 255
166.971728 -232.277694 -249.019800 0 120 255
169.061574 -232.335886 -247.709124 0 120 255
171.065827 -232.379144 -246.258959 0 120 255
173.070080 -232.422402 -244.808794 0 120 255
175.074333 -232.465660 -243.358628 0 120 255
176.955714 -232.496511 -241.762906 0 120 255
178.719057 -232.515444 -240.027353 0 120 255
180.482400 -232.534376 -238.291801 0 120 255
182.245743 -232.553308 -236.556248 0 120 255
183.874614 -232.563905 -234.703557 0 120 255
185.351246 -232.565066 -232.718252 0 120 255
186.827878 -232.566226 -230.732947 0 120 255
188.304510 -232.567387 -228.747641 0 120 255
189.642770 -232.564445 -226.675167 0 120 255
190.796025 -232.556018 -224.486146 0 120 255
191.949279 -232.547592 -222.297125 0 120 255
193.102534 -232.539166 -220.108103 0 120 255
194.120472 -232.529244 -217.860635 0 120 255
194.923766 -232.516951 -215.520453 0 120 255
195.727060 -232.504658 -213.180272 0 120 255
196.530354 -232.492364 -210.840091 0 120 255
197.207344 -232.479909 -208.467092 0 120 255
197.644878 -232.467144 -206.031875 0 120 255
198.082413 -232.454380 -203.596658 0 120 255
198.519947 -232.441616 -201.161441 0 120 255
198.844816 -232.429098 -198.714648 0 120 255
198.911573 -232.417145 -196.241334 0 120 255
198.978330 -232.405191 -193.768020 0 120 255
199.045087 -232.393238 -191.294707 0 120 255
199.015919 -232.381399 -188.825911 0 120 255
198.716948 -232.369882 -186.369824 0 120 255
198.417977 -232.358365 -183.913737 0 120 255
198.119006 -232.346847 -181.457649 0 120 255
197.742432 -232.335070 -179.016781 0 120 255
197.091682 -232.322376 -176.629682 0 120 255
196.440932 -232.309681 -174.242582 0 120 255
195.790182 -232.296987 -171.855483 0 120 255
195.080354 -232.283657 -169.489082 0 120 255
194.099236 -232.267415 -167.217734 0 120 255
193.118118 -232.251172 -164.946385 0 120 255
192.137000 -232.234930 -162.675037 0 120 255
191.114368 -232.217842 -160.425137 0 120 255
189.830160 -232.195431 -158.310382 0 120 255
188.545953 -232.173019 -156.195627 0 120 255
187.261745 -232.150607 -154.080872 0 120 255
185.951737 -232.127372 -151.984270 0 120 255
184.396032 -232.096296 -150.060551 0 120 255
182.840328 -232.065220 -148.136831 0 120 255
181.284624 -232.034145 -146.213111 0 120 255
179.716350 -232.002504 -144.301001 0 120 255
177.923584 -231.960785 -142.596264 0 120 255
176.130818 -231.919065 -140.891527 0 120 255
174.338051 -231.877345 -139.186789 0 120 255
172.543082 -231.835496 -137.484688 0 120 255
170.549237 -231.781952 -136.020586 0 120 255
168.555391 -231.728409 -134.556485 0 120 255
166.561545 -231.674866 -133.092384 0 120 255
164.567700 -231.621323 -131.628282 0 120 255
162.414346 -231.556170 -130.412594 0 120 255
160.255861 -231.490644 -129.204898 0 120 255
158.097376 -231.425118 -127.997203 0 120 255
155.938891 -231.359592 -126.789507 0 120 255
153.661227 -231.283860 -125.829081 0 120 255
151.374129 -231.207319 -124.888226 0 120 255
149.087032 -231.130779 -123.947370 0 120 255
146.799935 -231.054239 -123.006515 0 120 255
144.430003 -230.969957 -122.306727 0 120 255
142.049249 -230.884663 -121.638434 0 120 255
139.668495 -230.799370 -120.970141 0 120 255
137.287741 -230.714077 -120.301848 0 120 255
134.856255 -230.624573 -119.864504 0 120 255
132.415266 -230.534282 -119.470426 0 120 255
129.974276 -230.443990 -119.076349 0 120 255
127.533286 -230.353698 -118.682271 0 120 255
125.069414 -230.263111 -118.506230 0 120 255
122.599820 -230.172449 -118.384701 0 120 255
120.130227 -230.081788 -118.263173 0 120 255
117.660633 -229.991127 -118.141644 0 120 255
115.192038 -229.901404 -118.223319 0 120 255
112.723762 -229.811982 -118.369940 0 120 255
110.255486 -229.722560 -118.516561 0 120 255
107.787210 -229.633138 -118.663182 0 120 255
105.340004 -229.545220 -118.996749 0 120 255
102.901169 -229.457899 -119.404599 0 120 255
100.462334 -229.370579 -119.812449 0 120 255
98.023500 -229.283259 -120.220299 0 120 255
95.622180 -229.197948 -120.797893 0 120 255
93.239045 -229.113611 -121.457767 0 120 255
90.855909 -229.029275 -122.117641 0 120 255
88.472774 -228.944938 -122.777515 0 120 255
86.140198 -228.863002 -123.589465 0 120 255
83.837135 -228.782466 -124.490183 0 120 255
81.534071 -228.701931 -125.390901 0 120 255
79.231008 -228.621395 -126.291619 0 120 255
76.988383 -228.543552 -127.326671 0 120 255
74.787870 -228.467584 -128.455322 0 120 255
72.587357 -228.391617 -129.583972 0 120 255
70.386844 -228.315650 -130.712622 0 120 255
68.253717 -228.242558 -131.958116 0 120 255
66.176324 -228.171844 -133.300248 0 120 255
64.098931 -228.101130 -134.642380 0 120 255
62.021538 -228.030416 -135.984512 0 120 255
60.015769 -227.962683 -137.426520 0 120 255
58.080115 -227.897867 -138.966301 0 120 255
56.144462 -227.833052 -140.506082 0 120 255
54.208809 -227.768237 -142.045863 0 120 255
52.346587 -227.706408 -143.669381 0 120 255
50.569416 -227.648038 -145.389886 0 120 255
48.792245 -227.589669 -147.110390 0 120 255
47.015074 -227.531300 -148.830895 0 120 255
45.310928 -227.475846 -150.620001 0 120 255
43.707045 -227.424395 -152.503294 0 120 255
42.103163 -227.372945 -154.386587 0 120 255
40.499280 -227.321494 -156.269881 0 120 255
38.966027 -227.272820 -158.207817 0 120 255
37.548256 -227.228686 -160.235095 0 120 255
36.130485 -227.184552 -162.262374 0 120 255
34.712714 -227.140418 -164.289652 0 120 255
33.361470 -227.098864 -166.358983 0 120 255
32.140738 -227.062372 -168.510810 0 120 255
30.920005 -227.025880 -170.662638 0 120 255
29.699273 -226.989388 -172.814465 0 120 255
28.539474 -226.955231 -174.997227 0 120 255
27.524738 -226.926634 -177.253634 0 120 255
26.510002 -226.898036 -179.510041 0 120 255
25.495265 -226.869439 -181.766448 0 120 255
24.534627 -226.842892 -184.044254 0 120 255
23.732882 -226.822369 -186.384908 0 120 255
22.931137 -226.801845 -188.725563 0 120 255
22.129392 -226.781322 -191.066218 0 120 255
21.373923 -226.762535 -193.420396 0 120 255
20.790243 -226.750194 -195.824776 0 120 255
20.206564 -226.737853 -198.229157 0 120 255
19.622885 -226.725512 -200.633538 0 120 255
19.076901 -226.714572 -203.045275 0 120 255
18.714366 -226.710450 -205.492811 0 120 255
18.351831 -226.706328 -207.940346 0 120 255
17.989295 -226.702205 -210.387882 0 120 255
17.655374 -226.699133 -212.838344 0 120 255
17.515094 -226.703168 -215.308604 0 120 255
17.374813 -226.707203 -217.778864 0 120 255
17.234532 -226.711238 -220.249125 0 120 255
17.113526 -226.715974 -222.719613 0 120 255
17.194661 -226.728072 -225.192496 0 120 255
17.275796 -226.740170 -227.665380 0 120 255
17.356931 -226.752268 -230.138263 0 120 255
17.447987 -226.764724 -232.610377 0 120 255
17.747761 -226.784715 -235.066312 0 120 255
18.047535 -226.804706 -237.522247 0 120 255
18.347309 -226.824697 -239.978182 0 120 255
18.647878 -226.844716 -242.433984 0 120 255
19.161588 -226.872363 -244.854153 0 120 255
19.675298 -226.900009 -247.274322 0 120 255
20.189007 -226.927655 -249.694491 0 120 255
20.702717 -226.955301 -252.114660 0 120 255
21.415988 -226.990028 -254.483255 0 120 255
22.137131 -227.025034 -256.849815 0 120 255
22.858274 -227.060039 -259.216376 0 120 255
23.579417 -227.095045 -261.582936 0 120 255
24.483895 -227.136484 -263.884851 0 120 255
25.404228 -227.178480 -266.181175 0 120 255
26.324562 -227.220476 -268.477499 0 120 255
27.244895 -227.262472 -270.773823 0 120 255
28.331663 -227.310247 -272.995067 0 120 255
29.441399 -227.358820 -275.205951 0 120 255
30.551136 -227.407393 -277.416835 0 120 255
31.660872 -227.455966 -279.627718 0 120 255
32.919870 -227.509663 -281.755684 0 120 255
34.207926 -227.564359 -283.867509 0 120 255
35.495981 -227.619054 -285.979333 0 120 255
36.784037 -227.673749 -288.091157 0 120 255
38.204235 -227.732932 -290.114746 0 120 255
39.658434 -227.793270 -292.115633 0 120 255
41.112632 -227.853607 -294.116519 0 120 255
42.566831 -227.913944 -296.117406 0 120 255
44.136404 -227.978131 -298.027152 0 120 255
45.743693 -228.043576 -299.907104 0 120 255
47.350982 -228.109020 -301.787055 0 120 255
48.958272 -228.174465 -303.667007 0 120 255
50.664835 -228.243218 -305.455132 0 120 255
52.411577 -228.313309 -307.206092 0 120 255
54.158318 -228.383401 -308.957052 0 120 255
55.905060 -228.453492 -310.708012 0 120 255
57.735967 -228.526359 -312.368379 0 120 255
59.608308 -228.600591 -313.984148 0 120 255
61.480649 -228.674824 -315.599917 0 120 255
63.352990 -228.749056 -317.215686 0 120 255
65.295498 -228.825724 -318.743824 0 120 255
67.279510 -228.903833 -320.220129 0 120 255
69.263522 -228.981941 -321.696435 0 120 255
71.247534 -229.060050 -323.172740 0 120 255
73.288991 -229.140129 -324.565833 0 120 255
75.370947 -229.221597 -325.900263 0 120 255
77.452903 -229.303065 -327.234693 0 120 255
79.534858 -229.384533 -328.569123 0 120 255
81.662718 -229.466555 -329.826351 0 120 255
83.828954 -229.549040 -331.019037 0 120 255
85.995189 -229.631525 -332.211724 0 120 255
88.161424 -229.714011 -333.404410 0 120 255
90.362879 -229.791270 -334.528512 0 120 255
92.599162 -229.863362 -335.584789 0 120 255
94.835445 -229.935454 -336.641066 0 120 255
97.071728 -230.007545 -337.697343 0 120 255
99.334335 -230.069633 -338.694120 0 120 255
101.627737 -230.120019 -339.621294 0 120 255
103.921139 -230.170405 -340.548467 0 120 255
106.214541 -230.220791 -341.475640 0 120 255
108.527080 -230.258401 -342.352188 0 120 255
110.866165 -230.278292 -343.158517 0 120 255
113.205250 -230.298183 -343.964846 0 120 255
115.544335 -230.318073 -344.771175 0 120 255
117.896844 -230.323978 -345.535371 0 120 255
120.271538 -230.306765 -346.229929 0 120 255
122.646233 -230.289552 -346.924486 0 120 255
125.020927 -230.272339 -347.619044 0 120 255
127.404616 -230.241229 -348.279402 0 120 255
129.806163 -230.182528 -348.871862 0 120 255
132.207710 -230.123827 -349.464321 0 120 255
134.609256 -230.065126 -350.056781 0 120 255
137.016486 -229.993646 -350.622280 0 120 255
139.437432 -229.891327 -351.122711 0 120 255
141.858378 -229.789008 -351.623142 0 120 255
144.279324 -229.686688 -352.123574 0 120 255
146.703599 -229.573470 -352.603476 0 120 255
149.137813 -229.427713 -353.022095 0 120 255
151.572026 -229.281957 -353.440713 0 120 255
154.006239 -229.136200 -353.859332 0 120 255
156.442214 -228.981875 -354.263006 0 120 255
158.884864 -228.795089 -354.610071 0 120 255
161.327514 -228.608303 -354.957137 0 120 255
163.770163 -228.421517 -355.304202 0 120 255
166.213615 -228.228910 -355.641340 0 120 255
168.661074 -228.007211 -355.928869 0 120 255
171.108534 -227.785513 -356.216399 0 120 255
173.555993 -227.563814 -356.503929 0 120 255
176.003423 -227.340899 -356.790740 0 120 255
178.450650 -227.109461 -357.072513 0 120 255
180.897877 -226.878022 -357.354287 0 120 255
183.345105 -226.646583 -357.636060 0 120 255
185.792331 -226.415143 -357.917834 0 120 255
188.239556 -226.183693 -358.199620 0 120 255
190.686781 -225.952243 -358.481406 0 120 255
193.134005 -225.720793 -358.763192 0 120 255
195.581230 -225.489344 -359.044977 0 120 255
198.028456 -225.257898 -359.326756 0 120 255
200.475682 -225.026452 -359.608534 0 120 255
202.922907 -224.795006 -359.890312 0 120 255
205.370133 -224.563560 -360.172091 0 120 255
