ply
format ascii 1.0
element vertex 385
property float x
property float y
property float z
property uchar red
property uchar green
property uchar blue
end_header
77.430455 -42.474882 -360.397637 0 120 255
77.187586 -42.528704 -357.936271 0 120 255
76.944717 -42.582526 -355.474906 0 120 255
76.701847 -42.636348 -353.013541 0 120 255
76.458978 -42.690170 -350.552176 0 120 255
76.212786 -42.750670 -348.091296 0 120 255
75.966447 -42.811465 -345.630438 0 120 255
75.720108 -42.872259 -343.169580 0 120 255
75.473769 -42.933054 -340.708722 0 120 255
75.110367 -43.395960 -338.309266 0 120 255
74.736203 -43.895831 -335.915455 0 120 255
74.362040 -44.395701 -333.521644 0 120 255
73.987876 -44.895572 -331.127832 0 120 255
73.524699 -45.713950 -328.843534 0 120 255
73.048391 -46.579315 -326.575390 0 120 255
72.572082 -47.444680 -324.307247 0 120 255
72.095774 -48.310045 -322.039103 0 120 255
71.555040 -49.424207 -319.901565 0 120 255
71.000831 -50.590411 -317.791347 0 120 255
70.446622 -51.756615 -315.681129 0 120 255
69.892412 -52.922819 -313.570910 0 120 255
69.296704 -54.280419 -311.594389 0 120 255
68.689468 -55.691184 -309.655006 0 120 255
68.082232 -57.101950 -307.715623 0 120 255
67.474996 -58.512715 -305.776240 0 120 255
66.846968 -60.070376 -303.963510 0 120 255
66.211572 -61.680101 -302.195670 0 120 255
65.576175 -63.289825 -300.427830 0 120 255
64.940778 -64.899550 -298.659990 0 120 255
64.302886 -66.623003 -297.007276 0 120 255
63.663895 -68.396564 -295.405285 0 120 255
63.024903 -70.170125 -293.803295 0 120 255
62.385912 -71.943685 -292.201304 0 120 255
61.760313 -73.806695 -290.701988 0 120 255
61.141920 -75.717837 -289.257923 0 120 255
60.523527 -77.628980 -287.813857 0 120 255
59.905135 -79.540123 -286.369792 0 120 255
59.313694 -81.522763 -285.016887 0 120 255
58.739755 -83.551827 -283.723174 0 120 255
58.165815 -85.580891 -282.429461 0 120 255
57.591876 -87.609955 -281.135747 0 120 255
57.056176 -89.696714 -279.923397 0 120 255
56.550202 -91.828322 -278.774293 0 120 255
56.044227 -93.959930 -277.625190 0 120 255
55.538253 -96.091537 -276.476086 0 120 255
55.079604 -98.269462 -275.400235 0 120 255
54.664790 -100.490287 -274.392235 0 120 255
54.249976 -102.711113 -273.384234 0 120 255
53.835162 -104.931938 -272.376233 0 120 255
53.474579 -107.188956 -271.434690 0 120 255
53.173736 -109.485841 -270.566352 0 120 255
52.872892 -111.782727 -269.698013 0 120 255
52.572048 -114.079612 -268.829675 0 120 255
52.330159 -116.403117 -268.021747 0 120 255
52.165548 -118.761516 -267.293010 0 120 255
52.000937 -121.119915 -266.564272 0 120 255
51.836327 -123.478315 -265.835535 0 120 255
51.733192 -125.854026 -265.161355 0 120 255
51.726270 -128.256831 -264.572560 0 120 255
51.719349 -130.659637 -263.983765 0 120 255
51.712427 -133.062442 -263.394971 0 120 255
51.767267 -135.473565 -262.854632 0 120 255
51.938230 -137.900325 -262.405403 0 120 255
52.109193 -140.327085 -261.956173 0 120 255
52.280157 -142.753845 -261.506943 0 120 255
52.510923 -145.180536 -261.099545 0 120 255
52.878108 -147.607066 -260.787575 0 120 255
53.245294 -150.033597 -260.475604 0 120 255
53.612479 -152.460127 -260.163634 0 120 255
54.035303 -154.879276 -259.886264 0 120 255
54.614373 -157.277693 -259.706062 0 120 255
55.193442 -159.676111 -259.525860 0 120 255
55.772511 -162.074528 -259.345657 0 120 255
56.400999 -164.459885 -259.192395 0 120 255
57.204024 -166.799110 -259.134279 0 120 255
58.007049 -169.138335 -259.076163 0 120 255
58.810075 -171.477560 -259.018047 0 120 255
59.654508 -173.800232 -258.979137 0 120 255
60.688893 -176.046969 -259.028330 0 120 255
61.723279 -178.293706 -259.077522 0 120 255
62.757665 -180.540443 -259.126714 0 120 255
63.824107 -182.769776 -259.187855 0 120 255
65.091600 -184.889952 -259.323929 0 120 255
66.359092 -187.010129 -259.460004 0 120 255
67.626584 -189.130305 -259.596079 0 120 255
68.916053 -191.235124 -259.737998 0 120 255
70.411823 -193.195775 -259.934776 0 120 255
71.907593 -195.156426 -260.131554 0 120 255
73.403363 -197.117076 -260.328332 0 120 255
74.911074 -199.067281 -260.526720 0 120 255
76.623178 -200.838680 -260.752658 0 120 255
78.335282 -202.610078 -260.978596 0 120 255
80.047386 -204.381477 -261.204534 0 120 255
81.762302 -206.149831 -261.430374 0 120 255
83.671490 -207.707779 -261.649453 0 120 255
85.580679 -209.265728 -261.868532 0 120 255
87.489868 -210.823677 -262.087611 0 120 255
89.399056 -212.381625 -262.306690 0 120 255
91.474628 -213.715644 -262.481103 0 120 255
93.554737 -215.043557 -262.654297 0 120 255
95.634846 -216.371470 -262.827492 0 120 255
97.714955 -217.699383 -263.000687 0 120 255
99.924428 -218.805997 -263.093585 0 120 255
102.143233 -219.896647 -263.180691 0 120 255
104.362038 -220.987297 -263.267797 0 120 255
106.580843 -222.077948 -263.354902 0 120 255
108.890403 -222.959835 -263.330028 0 120 255
111.210948 -223.816454 -263.291601 0 120 255
113.531492 -224.673073 -263.253174 0 120 255
115.852037 -225.529693 -263.214746 0 120 255
118.225038 -226.199058 -263.038407 0 120 255
120.607197 -226.835733 -262.837991 0 120 255
122.989355 -227.472408 -262.637575 0 120 255
125.371514 -228.109082 -262.437160 0 120 255
127.769867 -228.587333 -262.079794 0 120 255
130.172000 -229.028596 -261.685784 0 120 255
132.574133 -229.469858 -261.291774 0 120 255
134.976267 -229.911120 -260.897765 0 120 255
137.361725 -230.227995 -260.335431 0 120 255
139.742205 -230.507731 -259.722841 0 120 255
142.122684 -230.787468 -259.110251 0 120 255
144.503163 -231.067204 -258.497661 0 120 255
146.838386 -231.259432 -257.713171 0 120 255
149.156824 -231.419205 -256.864925 0 120 255
151.475261 -231.578978 -256.016679 0 120 255
153.793699 -231.738750 -255.168434 0 120 255
156.043164 -231.851273 -254.152744 0 120 255
158.261473 -231.942452 -253.061418 0 120 255
160.479783 -232.033630 -251.970093 0 120 255
162.698092 -232.124809 -250.878767 0 120 255
164.828854 -232.202328 -249.631164 0 120 255
166.912058 -232.272426 -248.298667 0 120 255
168.995263 -232.342524 -246.966171 0 120 255
171.078467 -232.412622 -245.633675 0 120 255
173.057735 -232.477595 -244.157815 0 120 255
174.969707 -232.539248 -242.589134 0 120 255
176.881680 -232.600901 -241.020453 0 120 255
178.793653 -232.662555 -239.451772 0 120 255
180.587593 -232.720333 -237.756028 0 120 255
182.290958 -232.775138 -235.962777 0 120 255
183.994322 -232.829943 -234.169527 0 120 255
185.697687 -232.884747 -232.376277 0 120 255
187.272083 -232.934782 -230.475388 0 120 255
188.729581 -232.980493 -228.476936 0 120 255
190.187080 -233.026204 -226.478484 0 120 255
191.644579 -233.071915 -224.480033 0 120 255
192.966453 -233.112453 -222.395887 0 120 255
194.143327 -233.147461 -220.220125 0 120 255
195.320200 -233.182469 -218.044362 0 120 255
196.497074 -233.217477 -215.868599 0 120 255
197.536580 -233.247270 -213.630306 0 120 255
198.402702 -233.270481 -211.313089 0 120 255
199.268825 -233.293692 -208.995872 0 120 255
200.134947 -233.316903 -206.678655 0 120 255
200.867065 -233.335081 -204.321826 0 120 255
201.398858 -233.345735 -201.905779 0 120 255
201.930652 -233.356389 -199.489731 0 120 255
202.462445 -233.367043 -197.073684 0 120 255
202.868457 -233.373041 -194.639244 0 120 255
203.050428 -233.370747 -192.172043 0 120 255
203.232400 -233.368453 -189.704842 0 120 255
203.414372 -233.366159 -187.237640 0 120 255
203.482998 -233.359731 -184.770275 0 120 255
203.308823 -233.344446 -182.302557 0 120 255
203.134648 -233.329162 -179.834839 0 120 255
202.960473 -233.313877 -177.367122 0 120 255
202.688582 -233.295080 -174.913463 0 120 255
202.161495 -233.267110 -172.496524 0 120 255
201.634408 -233.239139 -170.079584 0 120 255
201.107321 -233.211169 -167.662644 0 120 255
200.500121 -233.180362 -165.269346 0 120 255
199.632752 -233.140343 -162.952825 0 120 255
198.765383 -233.100324 -160.636303 0 120 255
197.898014 -233.060305 -158.319782 0 120 255
196.968766 -233.018132 -156.031631 0 120 255
195.782249 -232.967009 -153.861432 0 120 255
194.595732 -232.915885 -151.691232 0 120 255
193.409215 -232.864762 -149.521033 0 120 255
192.178422 -232.812127 -147.379270 0 120 255
190.701077 -232.751077 -145.395857 0 120 255
189.223733 -232.690028 -143.412444 0 120 255
187.746388 -232.628978 -141.429031 0 120 255
186.240651 -232.566982 -139.469992 0 120 255
184.506329 -232.497370 -137.707187 0 120 255
182.772007 -232.427757 -135.944381 0 120 255
181.037686 -232.358144 -134.181576 0 120 255
179.288307 -232.288045 -132.435730 0 120 255
177.334595 -232.211340 -130.920037 0 120 255
175.380882 -232.134636 -129.404344 0 120 255
173.427170 -232.057932 -127.888651 0 120 255
171.468662 -231.981078 -126.380055 0 120 255
169.335085 -231.898794 -125.130541 0 120 255
167.201509 -231.816509 -123.881028 0 120 255
165.067933 -231.734224 -122.631515 0 120 255
162.934357 -231.651940 -121.382002 0 120 255
160.662939 -231.565634 -120.406327 0 120 255
158.389364 -231.479266 -119.434937 0 120 255
156.115789 -231.392898 -118.463547 0 120 255
153.842214 -231.306530 -117.492157 0 120 255
151.473339 -231.217664 -116.788013 0 120 255
149.098643 -231.128646 -116.100192 0 120 255
146.723948 -231.039627 -115.412371 0 120 255
144.349252 -230.950609 -114.724549 0 120 255
141.916706 -230.860430 -114.291881 0 120 255
139.477748 -230.770122 -113.887495 0 120 255
137.038790 -230.679815 -113.483108 0 120 255
134.599832 -230.589507 -113.078721 0 120 255
132.135053 -230.499130 -112.913433 0 120 255
129.665998 -230.408743 -112.787738 0 120 255
127.196943 -230.318355 -112.662043 0 120 255
124.727888 -230.227967 -112.536349 0 120 255
122.259647 -230.138421 -112.631117 0 120 255
119.791591 -230.049066 -112.775735 0 120 255
117.323534 -229.959711 -112.920353 0 120 255
114.855478 -229.870355 -113.064970 0 120 255
112.409766 -229.782550 -113.410013 0 120 255
109.970609 -229.695199 -113.813848 0 120 255
107.531451 -229.607848 -114.217682 0 120 255
105.092294 -229.520498 -114.621517 0 120 255
102.692370 -229.435234 -115.205297 0 120 255
100.306900 -229.350739 -115.855369 0 120 255
97.921429 -229.266244 -116.505440 0 120 255
95.535959 -229.181749 -117.155512 0 120 255
93.202511 -229.099733 -117.965277 0 120 255
90.892617 -229.018838 -118.847346 0 120 255
88.582723 -228.937944 -119.729416 0 120 255
86.272828 -228.857050 -120.611485 0 120 255
84.024208 -228.778909 -121.633721 0 120 255
81.809179 -228.702277 -122.732801 0 120 255
79.594151 -228.625645 -123.831882 0 120 255
77.379123 -228.549013 -124.930963 0 120 255
75.231605 -228.475291 -126.151704 0 120 255
73.128452 -228.403481 -127.452393 0 120 255
71.025299 -228.331670 -128.753082 0 120 255
68.922146 -228.259860 -130.053771 0 120 255
66.890188 -228.191034 -131.458803 0 120 255
64.913938 -228.124542 -132.945484 0 120 255
62.937689 -228.058050 -134.432164 0 120 255
60.961440 -227.991558 -135.918845 0 120 255
59.057893 -227.928045 -137.493813 0 120 255
57.221837 -227.867298 -139.150740 0 120 255
55.385780 -227.806551 -140.807668 0 120 255
53.549724 -227.745803 -142.464595 0 120 255
51.786048 -227.687963 -144.195080 0 120 255
50.101994 -227.633320 -146.006483 0 120 255
48.417941 -227.578678 -147.817885 0 120 255
46.733887 -227.524035 -149.629287 0 120 255
45.120310 -227.472186 -151.500829 0 120 255
43.598718 -227.423981 -153.450864 0 120 255
42.077126 -227.375777 -155.400898 0 120 255
40.555534 -227.327573 -157.350933 0 120 255
39.101199 -227.281998 -159.349032 0 120 255
37.751421 -227.240511 -161.421852 0 120 255
36.401644 -227.199023 -163.494671 0 120 255
35.051866 -227.157535 -165.567491 0 120 255
33.765003 -227.118480 -167.677626 0 120 255
32.595428 -227.083960 -169.857329 0 120 255
31.425853 -227.049439 -172.037032 0 120 255
30.256278 -227.014918 -174.216735 0 120 255
29.144304 -226.982598 -176.424314 0 120 255
28.162454 -226.955248 -178.694870 0 120 255
27.180603 -226.927897 -180.965426 0 120 255
26.198753 -226.900547 -183.235981 0 120 255
25.268342 -226.875145 -185.526275 0 120 255
24.480911 -226.855156 -187.871430 0 120 255
23.693479 -226.835167 -190.216585 0 120 255
22.906047 -226.815178 -192.561740 0 120 255
22.163161 -226.796862 -194.919802 0 120 255
21.576055 -226.784395 -197.322998 0 120 255
20.988948 -226.771929 -199.726194 0 120 255
20.401842 -226.759463 -202.129390 0 120 255
19.851725 -226.748371 -204.539985 0 120 255
19.469907 -226.743534 -206.984242 0 120 255
19.088088 -226.738697 -209.428499 0 120 255
18.706270 -226.733859 -211.872756 0 120 255
18.353333 -226.730087 -214.320274 0 120 255
18.180724 -226.732965 -216.788147 0 120 255
18.008114 -226.735842 -219.256020 0 120 255
17.835504 -226.738720 -221.723894 0 120 255
17.683232 -226.742340 -224.192314 0 120 255
17.722538 -226.752953 -226.665883 0 120 255
17.761844 -226.763566 -229.139452 0 120 255
17.801150 -226.774179 -231.613021 0 120 255
17.851943 -226.785209 -234.085908 0 120 255
18.104288 -226.803545 -236.546840 0 120 255
18.356632 -226.821882 -239.007773 0 120 255
18.608976 -226.840218 -241.468705 0 120 255
18.863850 -226.858645 -243.929265 0 120 255
19.328444 -226.884589 -246.359015 0 120 255
19.793038 -226.910533 -248.788764 0 120 255
20.257632 -226.936477 -251.218513 0 120 255
20.722226 -226.962420 -253.648262 0 120 255
21.389921 -226.995586 -256.029844 0 120 255
22.063910 -227.028975 -258.409933 0 120 255
22.737899 -227.062365 -260.790023 0 120 255
23.411888 -227.095754 -263.170112 0 120 255
24.275382 -227.135795 -265.487412 0 120 255
25.153583 -227.176353 -267.799839 0 120 255
26.031783 -227.216910 -270.112267 0 120 255
26.909983 -227.257467 -272.424694 0 120 255
27.962564 -227.304086 -274.661982 0 120 255
29.037573 -227.351485 -276.889607 0 120 255
30.112582 -227.398885 -279.117231 0 120 255
31.187591 -227.446284 -281.344856 0 120 255
32.420652 -227.499120 -283.487521 0 120 255
33.682911 -227.552961 -285.614492 0 120 255
34.945169 -227.606802 -287.741463 0 120 255
36.207427 -227.660643 -289.868435 0 120 255
37.610696 -227.719287 -291.903279 0 120 255
39.048753 -227.779114 -293.915397 0 120 255
40.486809 -227.838942 -295.927514 0 120 255
41.924866 -227.898770 -297.939631 0 120 255
43.486555 -227.962750 -299.855216 0 120 255
45.087260 -228.028041 -301.740337 0 120 255
46.687965 -228.093331 -303.625457 0 120 255
48.288671 -228.158621 -305.510578 0 120 255
49.995836 -228.227437 -307.297421 0 120 255
51.744794 -228.297636 -309.045682 0 120 255
53.493753 -228.367835 -310.793944 0 120 255
55.242712 -228.438034 -312.542205 0 120 255
57.081576 -228.511182 -314.192960 0 120 255
58.963527 -228.585743 -315.796987 0 120 255
60.845478 -228.660305 -317.401014 0 120 255
62.727429 -228.734866 -319.005041 0 120 255
64.683753 -228.811931 -320.514579 0 120 255
66.683026 -228.890443 -321.969551 0 120 255
68.682300 -228.968955 -323.424522 0 120 255
70.681574 -229.047466 -324.879494 0 120 255
72.740982 -229.127809 -326.244984 0 120 255
74.841869 -229.209413 -327.548755 0 120 255
76.942755 -229.291018 -328.852525 0 120 255
79.043642 -229.372623 -330.156295 0 120 255
81.191858 -229.454892 -331.377430 0 120 255
83.378857 -229.537704 -332.530851 0 120 255
85.565855 -229.620516 -333.684273 0 120 255
87.752853 -229.703328 -334.837695 0 120 255
89.975492 -229.781065 -335.918262 0 120 255
92.232726 -229.853874 -336.928109 0 120 255
94.489961 -229.926683 -337.937957 0 120 255
96.747196 -229.999492 -338.947805 0 120 255
99.030430 -230.062132 -339.895304 0 120 255
101.343554 -230.113082 -340.771123 0 120 255
103.656679 -230.164032 -341.646942 0 120 255
105.969804 -230.214982 -342.522761 0 120 255
108.301301 -230.252905 -343.346464 0 120 255
110.657868 -230.273050 -344.099053 0 120 255
113.014434 -230.293196 -344.851641 0 120 255
115.371001 -230.313341 -345.604229 0 120 255
117.740018 -230.319287 -346.314455 0 120 255
120.129298 -230.302125 -346.955744 0 120 255
122.518577 -230.284963 -347.597033 0 120 255
124.907856 -230.267801 -348.238322 0 120 255
127.305133 -230.236583 -348.846271 0 120 255
129.718054 -230.177873 -349.389012 0 120 255
132.130975 -230.119163 -349.931752 0 120 255
134.543896 -230.060453 -350.474493 0 120 255
136.961598 -229.988858 -350.992016 0 120 255
139.390673 -229.886614 -351.449553 0 120 255
141.819749 -229.784370 -351.907090 0 120 255
144.248824 -229.682126 -352.364627 0 120 255
146.680482 -229.568912 -352.804038 0 120 255
149.119741 -229.423414 -353.190104 0 120 255
151.559000 -229.277916 -353.576169 0 120 255
153.998260 -229.132418 -353.962235 0 120 255
156.438712 -228.978299 -354.336143 0 120 255
158.883619 -228.791989 -354.664650 0 120 255
161.328527 -228.605680 -354.993158 0 120 255
163.773434 -228.419370 -355.321665 0 120 255
166.218727 -228.227146 -355.643195 0 120 255
168.665918 -228.005808 -355.930369 0 120 255
171.113108 -227.784469 -356.217543 0 120 255
173.560299 -227.563131 -356.504718 0 120 255
176.007451 -227.340518 -356.791204 0 120 255
178.454343 -227.109111 -357.072938 0 120 255
180.901234 -226.877704 -357.354673 0 120 255
183.348126 -226.646297 -357.636408 0 120 255
185.795017 -226.414889 -357.918144 0 120 255
188.241906 -226.183471 -358.199891 0 120 255
190.688795 -225.952053 -358.481638 0 120 255
193.135684 -225.720635 -358.763385 0 120 255
195.582573 -225.489217 -359.045132 0 120 255
198.029463 -225.257803 -359.326872 0 120 255
200.476353 -225.026388 -359.608611 0 120 255
202.923243 -224.794974 -359.890351 0 120 255
205.370133 -224.563560 -360.172091 0 120 255
