ply
format ascii 1.0
element vertex 385
property float x
property float y
property float z
property uchar red
property uchar green
property uchar blue
end_header
77.430455 -42.474882 -360.397637 0 120 255
77.187548 -42.528712 -357.935886 0 120 255
76.944641 -42.582543 -355.474134 0 120 255
76.701733 -42.636373 -353.012383 0 120 255
76.458826 -42.690204 -350.550632 0 120 255
76.213378 -42.755096 -348.089401 0 120 255
75.967820 -42.820468 -345.628192 0 120 255
75.722262 -42.885841 -343.166984 0 120 255
75.476704 -42.951213 -340.705775 0 120 255
75.112120 -43.288704 -338.283558 0 120 255
74.736710 -43.650945 -335.864887 0 120 255
74.361300 -44.013187 -333.446216 0 120 255
73.985890 -44.375428 -331.027545 0 120 255
73.538604 -44.932958 -328.660170 0 120 255
73.080753 -45.519194 -326.300336 0 120 255
72.622902 -46.105430 -323.940501 0 120 255
72.165051 -46.691666 -321.580666 0 120 255
71.676101 -47.431119 -319.271855 0 120 255
71.180657 -48.202563 -316.973697 0 120 255
70.685213 -48.974007 -314.675539 0 120 255
70.189770 -49.745451 -312.377381 0 120 255
69.696197 -50.647101 -310.127898 0 120 255
69.203143 -51.584871 -307.891918 0 120 255
68.710089 -52.522641 -305.655938 0 120 255
68.217035 -53.460411 -303.419959 0 120 255
67.749432 -54.517402 -301.233615 0 120 255
67.290844 -55.616621 -299.064851 0 120 255
66.832256 -56.715840 -296.896088 0 120 255
66.373668 -57.815059 -294.727324 0 120 255
65.954870 -59.028054 -292.613647 0 120 255
65.553611 -60.291203 -290.524254 0 120 255
65.152353 -61.554352 -288.434860 0 120 255
64.751094 -62.817502 -286.345466 0 120 255
64.396070 -64.189833 -284.319879 0 120 255
64.065985 -65.621062 -282.328711 0 120 255
63.735900 -67.052290 -280.337543 0 120 255
63.405815 -68.483518 -278.346375 0 120 255
63.122533 -70.017487 -276.428837 0 120 255
62.869798 -71.618514 -274.559356 0 120 255
62.617063 -73.219540 -272.689875 0 120 255
62.364329 -74.820567 -270.820394 0 120 255
62.155274 -76.515069 -269.033386 0 120 255
61.980468 -78.282866 -267.311045 0 120 255
61.805663 -80.050662 -265.588703 0 120 255
61.630857 -81.818458 -263.866361 0 120 255
61.494884 -83.667817 -262.232824 0 120 255
61.395342 -85.593699 -260.682600 0 120 255
61.295801 -87.519580 -259.132377 0 120 255
61.196259 -89.445462 -257.582154 0 120 255
61.130498 -91.439182 -256.123735 0 120 255
61.102614 -93.508965 -254.768249 0 120 255
61.074730 -95.578748 -253.412763 0 120 255
61.046846 -97.648531 -252.057278 0 120 255
61.048474 -99.771650 -250.793029 0 120 255
61.089708 -101.966344 -249.651216 0 120 255
61.130941 -104.161038 -248.509402 0 120 255
61.172174 -106.355732 -247.367589 0 120 255
61.239900 -108.589486 -246.313078 0 120 255
61.350357 -110.886239 -245.399380 0 120 255
61.460814 -113.182992 -244.485682 0 120 255
61.571271 -115.479746 -243.571985 0 120 255
61.706471 -117.802331 -242.738739 0 120 255
61.889998 -120.175369 -242.062628 0 120 255
62.073526 -122.548408 -241.386517 0 120 255
62.257054 -124.921446 -240.710406 0 120 255
62.464530 -127.308750 -240.105551 0 120 255
62.729305 -129.730183 -239.671183 0 120 255
62.994080 -132.151616 -239.236816 0 120 255
63.258856 -134.573050 -238.802448 0 120 255
63.547213 -136.999258 -238.428410 0 120 255
63.905877 -139.439705 -238.234240 0 120 255
64.264542 -141.880151 -238.040069 0 120 255
64.623206 -144.320597 -237.845898 0 120 255
65.004869 -146.758680 -237.700066 0 120 255
65.474163 -149.187756 -237.738428 0 120 255
65.943458 -151.616832 -237.776790 0 120 255
66.412753 -154.045908 -237.815152 0 120 255
66.903594 -156.467997 -237.889492 0 120 255
67.503541 -158.854705 -238.146022 0 120 255
68.103488 -161.241413 -238.402553 0 120 255
68.703436 -163.628122 -238.659083 0 120 255
69.322050 -166.005831 -238.939636 0 120 255
70.074661 -168.318947 -239.392618 0 120 255
70.827272 -170.632062 -239.845600 0 120 255
71.579883 -172.945178 -240.298582 0 120 255
72.346487 -175.249928 -240.764910 0 120 255
73.273988 -177.458490 -241.384683 0 120 255
74.201489 -179.667051 -242.004456 0 120 255
75.128990 -181.875613 -242.624228 0 120 255
76.063927 -184.079046 -243.248908 0 120 255
77.186614 -186.153011 -243.997484 0 120 255
78.309300 -188.226976 -244.746060 0 120 255
79.431986 -190.300941 -245.494635 0 120 255
80.554673 -192.374906 -246.243211 0 120 255
81.887616 -194.286692 -247.073985 0 120 255
83.221287 -196.197918 -247.905044 0 120 255
84.554958 -198.109144 -248.736102 0 120 255
85.888628 -200.020370 -249.567161 0 120 255
87.432156 -201.752215 -250.425506 0 120 255
88.985492 -203.475677 -251.285127 0 120 255
90.538827 -205.199139 -252.144748 0 120 255
92.092163 -206.922601 -253.004368 0 120 255
93.845452 -208.455754 -253.835233 0 120 255
95.617446 -209.971104 -254.663407 0 120 255
97.389440 -211.486454 -255.491581 0 120 255
99.161433 -213.001804 -256.319756 0 120 255
101.113386 -214.323022 -257.064920 0 120 255
103.091322 -215.616211 -257.798100 0 120 255
105.069257 -216.909401 -258.531280 0 120 255
107.047193 -218.202590 -259.264459 0 120 255
109.175394 -219.305546 -259.865399 0 120 255
111.333628 -220.370480 -260.439907 0 120 255
113.491863 -221.435414 -261.014415 0 120 255
115.650097 -222.500348 -261.588924 0 120 255
117.920791 -223.386685 -261.990214 0 120 255
120.220814 -224.226445 -262.346329 0 120 255
122.520837 -225.066204 -262.702445 0 120 255
124.820861 -225.905963 -263.058560 0 120 255
127.190024 -226.585890 -263.211487 0 120 255
129.581873 -227.213377 -263.297746 0 120 255
131.973722 -227.840863 -263.384006 0 120 255
134.365570 -228.468350 -263.470266 0 120 255
136.781084 -228.960549 -263.336169 0 120 255
139.206135 -229.398224 -263.113263 0 120 255
141.631187 -229.835898 -262.890357 0 120 255
144.056238 -230.273573 -262.667451 0 120 255
146.460945 -230.604362 -262.220409 0 120 255
148.855744 -230.883090 -261.664198 0 120 255
151.250542 -231.161818 -261.107986 0 120 255
153.645341 -231.440546 -260.551775 0 120 255
155.980597 -231.642334 -259.780121 0 120 255
158.281190 -231.799331 -258.883045 0 120 255
160.581783 -231.956327 -257.985970 0 120 255
162.882376 -232.113324 -257.088894 0 120 255
165.091742 -232.223174 -255.995770 0 120 255
167.238094 -232.300457 -254.767225 0 120 255
169.384445 -232.377741 -253.538681 0 120 255
171.530797 -232.455024 -252.310136 0 120 255
173.563542 -232.513268 -250.912785 0 120 255
175.503572 -232.555973 -249.377669 0 120 255
177.443602 -232.598678 -247.842553 0 120 255
179.383631 -232.641384 -246.307437 0 120 255
181.193745 -232.671421 -244.631376 0 120 255
182.878792 -232.689262 -242.819631 0 120 255
184.563839 -232.707103 -241.007886 0 120 255
186.248885 -232.724945 -239.196142 0 120 255
187.794736 -232.734372 -237.273548 0 120 255
189.182620 -232.734249 -235.225159 0 120 255
190.570504 -232.734127 -233.176770 0 120 255
191.958389 -232.734005 -231.128381 0 120 255
193.205584 -232.729771 -228.999674 0 120 255
194.264140 -232.720025 -226.763274 0 120 255
195.322697 -232.710280 -224.526875 0 120 255
196.381253 -232.700534 -222.290475 0 120 255
197.304391 -232.689299 -220.002172 0 120 255
198.011992 -232.675693 -217.631257 0 120 255
198.719592 -232.662087 -215.260342 0 120 255
199.427192 -232.648481 -212.889428 0 120 255
200.010162 -232.634687 -210.491283 0 120 255
200.355882 -232.620534 -208.041304 0 120 255
200.701601 -232.606380 -205.591325 0 120 255
201.047320 -232.592227 -203.141346 0 120 255
201.283234 -232.578277 -200.684033 0 120 255
201.266321 -232.564795 -198.209836 0 120 255
201.249407 -232.551314 -195.735639 0 120 255
201.232494 -232.537832 -193.261441 0 120 255
201.123076 -232.524402 -190.794540 0 120 255
200.751878 -232.511115 -188.348287 0 120 255
200.380680 -232.497829 -185.902033 0 120 255
200.009482 -232.484543 -183.455780 0 120 255
199.564106 -232.470935 -181.026170 0 120 255
198.854682 -232.456182 -178.655808 0 120 255
198.145257 -232.441429 -176.285445 0 120 255
197.435833 -232.426677 -173.915082 0 120 255
196.670349 -232.411245 -171.565765 0 120 255
195.644985 -232.392666 -169.314009 0 120 255
194.619621 -232.374086 -167.062253 0 120 255
193.594257 -232.355507 -164.810497 0 120 255
192.529745 -232.336059 -162.579817 0 120 255
191.215434 -232.311073 -160.483609 0 120 255
189.901124 -232.286087 -158.387402 0 120 255
188.586814 -232.261101 -156.291195 0 120 255
187.248325 -232.235292 -154.212427 0 120 255
185.675363 -232.201499 -152.302776 0 120 255
184.102401 -232.167707 -150.393124 0 120 255
182.529439 -232.133914 -148.483473 0 120 255
180.944842 -232.099575 -146.584709 0 120 255
179.145595 -232.055135 -144.886811 0 120 255
177.346348 -232.010696 -143.188914 0 120 255
175.547102 -231.966257 -141.491016 0 120 255
173.746059 -231.921709 -139.795273 0 120 255
171.753918 -231.865588 -138.328867 0 120 255
169.761778 -231.809468 -136.862462 0 120 255
167.769637 -231.753348 -135.396056 0 120 255
165.777496 -231.697228 -133.929650 0 120 255
163.631289 -231.629831 -132.701383 0 120 255
161.479852 -231.562052 -131.481201 0 120 255
159.328415 -231.494272 -130.261019 0 120 255
157.176978 -231.426493 -129.040837 0 120 255
154.908879 -231.348986 -128.057901 0 120 255
152.631319 -231.270690 -127.094205 0 120 255
150.353759 -231.192395 -126.130508 0 120 255
148.076199 -231.114099 -125.166811 0 120 255
145.715819 -231.028746 -124.435116 0 120 255
143.344442 -230.942456 -123.734226 0 120 255
140.973066 -230.856166 -123.033337 0 120 255
138.601689 -230.769876 -122.332447 0 120 255
136.177620 -230.680239 -121.854975 0 120 255
133.743557 -230.589966 -121.419876 0 120 255
131.309495 -230.499693 -120.984777 0 120 255
128.875433 -230.409420 -120.549678 0 120 255
126.415204 -230.318779 -120.326922 0 120 255
123.948368 -230.228045 -120.157785 0 120 255
121.481532 -230.137311 -119.988648 0 120 255
119.014696 -230.046577 -119.819511 0 120 255
116.544814 -229.956626 -119.849676 0 120 255
114.073951 -229.866926 -119.944073 0 120 255
111.603088 -229.777227 -120.038470 0 120 255
109.132225 -229.687528 -120.132868 0 120 255
106.678118 -229.599172 -120.411978 0 120 255
104.230715 -229.511355 -120.765008 0 120 255
101.783313 -229.423537 -121.118038 0 120 255
99.335911 -229.335719 -121.471067 0 120 255
96.921859 -229.249740 -121.993174 0 120 255
94.524074 -229.164657 -122.597747 0 120 255
92.126289 -229.079574 -123.202320 0 120 255
89.728505 -228.994491 -123.806894 0 120 255
87.377585 -228.911682 -124.564167 0 120 255
85.054171 -228.830209 -125.411061 0 120 255
82.730757 -228.748735 -126.257955 0 120 255
80.407342 -228.667262 -127.104848 0 120 255
78.141347 -228.588377 -128.087659 0 120 255
75.915553 -228.511304 -129.165630 0 120 255
73.689760 -228.434231 -130.243601 0 120 255
71.463966 -228.357158 -131.321572 0 120 255
69.303333 -228.282888 -132.518633 0 120 255
67.196827 -228.210945 -133.814619 0 120 255
65.090322 -228.139003 -135.110604 0 120 255
62.983816 -228.067060 -136.406590 0 120 255
60.947562 -227.998057 -137.805103 0 120 255
58.980349 -227.931941 -139.304377 0 120 255
57.013136 -227.865825 -140.803650 0 120 255
55.045923 -227.799709 -142.302924 0 120 255
53.151533 -227.736566 -143.888660 0 120 255
51.341787 -227.676879 -145.574891 0 120 255
49.532040 -227.617192 -147.261122 0 120 255
47.722294 -227.557504 -148.947353 0 120 255
45.985615 -227.500745 -150.704766 0 120 255
44.349580 -227.448020 -152.560225 0 120 255
42.713544 -227.395294 -154.415685 0 120 255
41.077509 -227.342569 -156.271144 0 120 255
39.512665 -227.292648 -158.183538 0 120 255
38.064561 -227.247324 -160.189295 0 120 255
36.616458 -227.202001 -162.195053 0 120 255
35.168354 -227.156678 -164.200810 0 120 255
33.787656 -227.113978 -166.250498 0 120 255
32.539553 -227.076438 -168.386604 0 120 255
31.291450 -227.038897 -170.522710 0 120 255
30.043347 -227.001357 -172.658817 0 120 255
28.857206 -226.966194 -174.827290 0 120 255
27.818961 -226.936704 -177.073018 0 120 255
26.780716 -226.907214 -179.318747 0 120 255
25.742471 -226.877724 -181.564476 0 120 255
24.759342 -226.850322 -183.832601 0 120 255
23.938507 -226.829072 -186.166675 0 120 255
23.117673 -226.807821 -188.500748 0 120 255
22.296838 -226.786570 -190.834822 0 120 255
21.523168 -226.767093 -193.183043 0 120 255
20.925035 -226.754216 -195.583916 0 120 255
20.326902 -226.741339 -197.984789 0 120 255
19.728768 -226.728462 -200.385662 0 120 255
19.169024 -226.717010 -202.794227 0 120 255
18.796594 -226.712511 -205.240325 0 120 255
18.424164 -226.708011 -207.686423 0 120 255
18.051733 -226.703512 -210.132521 0 120 255
17.708370 -226.700080 -212.581685 0 120 255
17.562324 -226.703893 -215.051660 0 120 255
17.416278 -226.707705 -217.521635 0 120 255
17.270231 -226.711518 -219.991609 0 120 255
17.143693 -226.716042 -222.461847 0 120 255
17.222607 -226.728056 -224.934851 0 120 255
17.301521 -226.740069 -227.407855 0 120 255
17.380435 -226.752083 -229.880859 0 120 255
17.469322 -226.764457 -232.353093 0 120 255
17.769667 -226.784461 -234.809007 0 120 255
18.070012 -226.804465 -237.264921 0 120 255
18.370357 -226.824469 -239.720835 0 120 255
18.671430 -226.844500 -242.176626 0 120 255
19.187646 -226.872235 -244.596311 0 120 255
19.703862 -226.899971 -247.015995 0 120 255
20.220078 -226.927707 -249.435679 0 120 255
20.736294 -226.955443 -251.855364 0 120 255
21.453086 -226.990294 -254.222937 0 120 255
22.177867 -227.025428 -256.588434 0 120 255
22.902648 -227.060562 -258.953932 0 120 255
23.627429 -227.095697 -261.319429 0 120 255
24.535872 -227.137275 -263.619825 0 120 255
25.460275 -227.179413 -265.914563 0 120 255
26.384677 -227.221552 -268.209301 0 120 255
27.309080 -227.263690 -270.504040 0 120 255
28.399697 -227.311598 -272.723446 0 120 255
29.513330 -227.360306 -274.932421 0 120 255
30.626963 -227.409014 -277.141395 0 120 255
31.740596 -227.457722 -279.350370 0 120 255
33.002877 -227.511532 -281.476449 0 120 255
34.294175 -227.566338 -283.586346 0 120 255
35.585472 -227.621145 -285.696244 0 120 255
36.876770 -227.675951 -287.806141 0 120 255
38.299334 -227.735214 -289.828139 0 120 255
39.755754 -227.795627 -291.827468 0 120 255
41.212173 -227.856039 -293.826796 0 120 255
42.668592 -227.916452 -295.826124 0 120 255
44.239453 -227.980687 -297.734896 0 120 255
45.847806 -228.046175 -299.614000 0 120 255
47.456159 -228.111662 -301.493104 0 120 255
49.064512 -228.177150 -303.372208 0 120 255
50.771245 -228.245906 -305.160270 0 120 255
52.517872 -228.315986 -306.911413 0 120 255
54.264499 -228.386067 -308.662556 0 120 255
56.011127 -228.456147 -310.413699 0 120 255
57.841124 -228.528980 -312.075183 0 120 255
59.712237 -228.603170 -313.692450 0 120 255
61.583350 -228.677359 -315.309717 0 120 255
63.454463 -228.751549 -316.926984 0 120 255
65.395133 -228.828151 -318.457582 0 120 255
67.377021 -228.906182 -319.936823 0 120 255
69.358908 -228.984213 -321.416064 0 120 255
71.340795 -229.062244 -322.895306 0 120 255
73.379703 -229.142265 -324.292263 0 120 255
75.458878 -229.223693 -325.631113 0 120 255
77.538053 -229.305120 -326.969964 0 120 255
79.617228 -229.386547 -328.308815 0 120 255
81.742057 -229.468531 -329.571302 0 120 255
83.905112 -229.550981 -330.769849 0 120 255
86.068167 -229.633432 -331.968397 0 120 255
88.231221 -229.715882 -333.166945 0 120 255
90.429396 -229.793092 -334.297596 0 120 255
92.662355 -229.865111 -335.360999 0 120 255
94.895315 -229.937130 -336.424402 0 120 255
97.128274 -230.009149 -337.487805 0 120 255
99.387575 -230.071186 -338.492207 0 120 255
101.677738 -230.121528 -339.427483 0 120 255
103.967900 -230.171870 -340.362759 0 120 255
106.258063 -230.222212 -341.298034 0 120 255
108.567461 -230.259795 -342.182979 0 120 255
110.903582 -230.279654 -342.998005 0 120 255
113.239702 -230.299513 -343.813032 0 120 255
115.575822 -230.319372 -344.628059 0 120 255
117.925509 -230.325259 -345.401041 0 120 255
120.297654 -230.308019 -346.104428 0 120 255
122.669799 -230.290779 -346.807814 0 120 255
125.041943 -230.273538 -347.511201 0 120 255
127.423240 -230.242406 -348.180297 0 120 255
129.822733 -230.183650 -348.781211 0 120 255
132.222227 -230.124894 -349.382126 0 120 255
134.621721 -230.066138 -349.983040 0 120 255
137.027053 -229.994616 -350.556724 0 120 255
139.446499 -229.892236 -351.064583 0 120 255
141.865944 -229.789856 -351.572443 0 120 255
144.285390 -229.687476 -352.080302 0 120 255
146.708298 -229.574205 -352.567242 0 120 255
149.141557 -229.428368 -352.991625 0 120 255
151.574816 -229.282531 -353.416009 0 120 255
154.008075 -229.136694 -353.840393 0 120 255
156.443201 -228.982302 -354.249356 0 120 255
158.885412 -228.795442 -354.599801 0 120 255
161.327622 -228.608581 -354.950245 0 120 255
163.769833 -228.421721 -355.300689 0 120 255
166.212922 -228.229057 -355.640686 0 120 255
168.660410 -228.007334 -355.928367 0 120 255
171.107898 -227.785611 -356.216047 0 120 255
173.555387 -227.563888 -356.503728 0 120 255
176.002848 -227.340954 -356.790674 0 120 255
178.450123 -227.109510 -357.072452 0 120 255
180.897398 -226.878067 -357.354231 0 120 255
183.344673 -226.646624 -357.636010 0 120 255
185.791948 -226.415179 -357.917790 0 120 255
188.239221 -226.183725 -358.199582 0 120 255
190.686493 -225.952271 -358.481373 0 120 255
193.133766 -225.720816 -358.763164 0 120 255
195.581038 -225.489362 -359.044955 0 120 255
198.028312 -225.257911 -359.326739 0 120 255
200.475586 -225.026461 -359.608523 0 120 255
202.922859 -224.795011 -359.890307 0 120 255
205.370133 -224.563560 -360.172091 0 120 255
