ply
format ascii 1.0
element vertex 385
property float x
property float y
property float z
property uchar red
property uchar green
property uchar blue
end_header
77.430455 -42.474882 -360.397637 0 120 255
77.187571 -42.528707 -357.936121 0 120 255
76.944687 -42.582533 -355.474605 0 120 255
76.701803 -42.636358 -353.013090 0 120 255
76.458919 -42.690183 -350.551574 0 120 255
76.213200 -42.752433 -348.090539 0 120 255
75.967358 -42.815052 -345.629525 0 120 255
75.721515 -42.877671 -343.168511 0 120 255
75.475673 -42.940289 -340.707497 0 120 255
75.079095 -43.376501 -338.307876 0 120 255
74.668705 -43.846945 -335.913882 0 120 255
74.258315 -44.317389 -333.519887 0 120 255
73.847926 -44.787834 -331.125892 0 120 255
73.321727 -45.535874 -328.830314 0 120 255
72.778385 -46.325004 -326.549305 0 120 255
72.235044 -47.114135 -324.268296 0 120 255
71.691703 -47.903265 -321.987287 0 120 255
71.065260 -48.898145 -319.813359 0 120 255
70.421334 -49.936312 -317.661960 0 120 255
69.777409 -50.974479 -315.510561 0 120 255
69.133483 -52.012646 -313.359162 0 120 255
68.437137 -53.203705 -311.307987 0 120 255
67.726134 -54.437512 -309.284835 0 120 255
67.015131 -55.671320 -307.261683 0 120 255
66.304128 -56.905127 -305.238531 0 120 255
65.568005 -58.256045 -303.303013 0 120 255
64.822916 -59.648760 -301.398771 0 120 255
64.077827 -61.041474 -299.494529 0 120 255
63.332738 -62.434188 -297.590286 0 120 255
62.585764 -63.921285 -295.761338 0 120 255
61.837953 -65.450258 -293.965796 0 120 255
61.090143 -66.979231 -292.170254 0 120 255
60.342332 -68.508204 -290.374712 0 120 255
59.611536 -70.117582 -288.645333 0 120 255
58.889962 -71.770544 -286.951816 0 120 255
58.168389 -73.423506 -285.258300 0 120 255
57.446815 -75.076469 -283.564784 0 120 255
56.756907 -76.800803 -281.932232 0 120 255
56.087720 -78.571842 -280.339575 0 120 255
55.418533 -80.342881 -278.746917 0 120 255
54.749347 -82.113921 -277.154259 0 120 255
54.122508 -83.949435 -275.620801 0 120 255
53.528874 -85.835504 -274.133759 0 120 255
52.935240 -87.721572 -272.646717 0 120 255
52.341606 -89.607641 -271.159675 0 120 255
51.797511 -91.551539 -269.732295 0 120 255
51.299755 -93.549533 -268.360723 0 120 255
50.802000 -95.547527 -266.989151 0 120 255
50.304244 -97.545521 -265.617580 0 120 255
49.860258 -99.593961 -264.307041 0 120 255
49.476185 -101.698612 -263.064510 0 120 255
49.092112 -103.803262 -261.821979 0 120 255
48.708039 -105.907913 -260.579447 0 120 255
48.379551 -108.054545 -259.399004 0 120 255
48.124922 -110.256960 -258.301060 0 120 255
47.870294 -112.459375 -257.203116 0 120 255
47.615665 -114.661790 -256.105172 0 120 255
47.416501 -116.896784 -255.069117 0 120 255
47.305560 -119.183599 -254.131503 0 120 255
47.194619 -121.470414 -253.193890 0 120 255
47.083677 -123.757229 -252.256277 0 120 255
47.026509 -126.066729 -251.378497 0 120 255
47.072442 -128.419723 -250.615438 0 120 255
47.118374 -130.772717 -249.852378 0 120 255
47.164306 -133.125710 -249.089319 0 120 255
47.261001 -135.491618 -248.381901 0 120 255
47.476281 -137.887693 -247.804469 0 120 255
47.691562 -140.283768 -247.227037 0 120 255
47.906843 -142.679843 -246.649605 0 120 255
48.168680 -145.079878 -246.121527 0 120 255
48.565152 -147.491363 -245.736170 0 120 255
48.961624 -149.902848 -245.350813 0 120 255
49.358095 -152.314333 -244.965456 0 120 255
49.795789 -154.722334 -244.621388 0 120 255
50.384537 -157.117573 -244.428626 0 120 255
50.973285 -159.512811 -244.235863 0 120 255
51.562034 -161.908050 -244.043100 0 120 255
52.185556 -164.294514 -243.882348 0 120 255
52.976391 -166.638758 -243.875609 0 120 255
53.767226 -168.983003 -243.868870 0 120 255
54.558061 -171.327248 -243.862131 0 120 255
55.376189 -173.660100 -243.877687 0 120 255
56.376937 -175.916715 -244.042430 0 120 255
57.377685 -178.173330 -244.207172 0 120 255
58.378434 -180.429945 -244.371915 0 120 255
59.398121 -182.675571 -244.549748 0 120 255
60.613577 -184.807600 -244.862902 0 120 255
61.829034 -186.939630 -245.176055 0 120 255
63.044491 -189.071659 -245.489209 0 120 255
64.269994 -191.196225 -245.807808 0 120 255
65.700813 -193.168255 -246.237694 0 120 255
67.131632 -195.140286 -246.667580 0 120 255
68.562451 -197.112316 -247.097466 0 120 255
69.994390 -199.083328 -247.527760 0 120 255
71.635914 -200.863636 -248.034565 0 120 255
73.277438 -202.643944 -248.541369 0 120 255
74.918963 -204.424252 -249.048174 0 120 255
76.560487 -206.204560 -249.554979 0 120 255
78.394599 -207.775163 -250.090839 0 120 255
80.235866 -209.337974 -250.627779 0 120 255
82.077134 -210.900785 -251.164719 0 120 255
83.918401 -212.463597 -251.701660 0 120 255
85.927515 -213.809327 -252.218499 0 120 255
87.950591 -215.137000 -252.733667 0 120 255
89.973667 -216.464673 -253.248835 0 120 255
91.996742 -217.792346 -253.764003 0 120 255
94.158084 -218.905760 -254.211877 0 120 255
96.337856 -219.990612 -254.650781 0 120 255
98.517629 -221.075463 -255.089685 0 120 255
100.697402 -222.160315 -255.528589 0 120 255
102.982137 -223.043829 -255.857792 0 120 255
105.286622 -223.889457 -256.166353 0 120 255
107.591107 -224.735086 -256.474914 0 120 255
109.895592 -225.580715 -256.783474 0 120 255
112.269581 -226.246985 -256.947194 0 120 255
114.660842 -226.868682 -257.074917 0 120 255
117.052103 -227.490378 -257.202641 0 120 255
119.443364 -228.112075 -257.330364 0 120 255
121.868229 -228.583751 -257.287312 0 120 255
124.303689 -229.008129 -257.190419 0 120 255
126.739148 -229.432508 -257.093525 0 120 255
129.174608 -229.856887 -256.996632 0 120 255
131.609091 -230.165555 -256.713398 0 120 255
134.043195 -230.429148 -256.357575 0 120 255
136.477298 -230.692740 -256.001752 0 120 255
138.911401 -230.956333 -255.645929 0 120 255
141.312826 -231.141129 -255.098905 0 120 255
143.698802 -231.288675 -254.461490 0 120 255
146.084778 -231.436220 -253.824076 0 120 255
148.470754 -231.583766 -253.186661 0 120 255
150.796560 -231.690477 -252.363473 0 120 255
153.088270 -231.774049 -251.435018 0 120 255
155.379981 -231.857622 -250.506563 0 120 255
157.671691 -231.941194 -249.578108 0 120 255
159.880936 -232.016293 -248.478073 0 120 255
162.034612 -232.085680 -247.262419 0 120 255
164.188288 -232.155068 -246.046765 0 120 255
166.341964 -232.224456 -244.831112 0 120 255
168.393730 -232.287128 -243.460089 0 120 255
170.364198 -232.344442 -241.965125 0 120 255
172.334667 -232.401756 -240.470161 0 120 255
174.305136 -232.459070 -238.975197 0 120 255
176.157871 -232.510092 -237.345608 0 120 255
177.899731 -232.555190 -235.589237 0 120 255
179.641591 -232.600289 -233.832867 0 120 255
181.383452 -232.645387 -232.076496 0 120 255
182.996941 -232.685744 -230.209909 0 120 255
184.467826 -232.720835 -228.220885 0 120 255
185.938711 -232.755926 -226.231861 0 120 255
187.409596 -232.791017 -224.242838 0 120 255
188.747248 -232.822419 -222.169664 0 120 255
189.910066 -232.848983 -219.986067 0 120 255
191.072883 -232.875546 -217.802469 0 120 255
192.235701 -232.902109 -215.618871 0 120 255
193.266360 -232.925498 -213.377070 0 120 255
194.091342 -232.943947 -211.044686 0 120 255
194.916325 -232.962397 -208.712303 0 120 255
195.741307 -232.980846 -206.379919 0 120 255
196.440774 -232.996295 -204.013485 0 120 255
196.907008 -233.006170 -201.583777 0 120 255
197.373241 -233.016044 -199.154070 0 120 255
197.839475 -233.025919 -196.724363 0 120 255
198.191647 -233.032831 -194.281555 0 120 255
198.288141 -233.033100 -191.809382 0 120 255
198.384635 -233.033370 -189.337209 0 120 255
198.481128 -233.033639 -186.865037 0 120 255
198.478681 -233.031006 -184.396432 0 120 255
198.204677 -233.020408 -181.937619 0 120 255
197.930672 -233.009809 -179.478807 0 120 255
197.656668 -232.999210 -177.019994 0 120 255
197.301197 -232.985891 -174.576474 0 120 255
196.665978 -232.963230 -172.185463 0 120 255
196.030759 -232.940569 -169.794452 0 120 255
195.395540 -232.917908 -167.403441 0 120 255
194.697281 -232.892879 -165.034267 0 120 255
193.719323 -232.857343 -162.761981 0 120 255
192.741365 -232.821808 -160.489695 0 120 255
191.763408 -232.786272 -158.217408 0 120 255
190.740447 -232.748886 -155.968503 0 120 255
189.446116 -232.700340 -153.860590 0 120 255
188.151784 -232.651795 -151.752676 0 120 255
186.857453 -232.603249 -149.644763 0 120 255
185.534619 -232.553465 -147.557288 0 120 255
183.956582 -232.492592 -145.652808 0 120 255
182.378545 -232.431719 -143.748328 0 120 255
180.800508 -232.370846 -141.843848 0 120 255
179.208030 -232.309350 -139.953141 0 120 255
177.383467 -232.237825 -138.283769 0 120 255
175.558903 -232.166300 -136.614397 0 120 255
173.734340 -232.094775 -134.945025 0 120 255
171.906343 -232.023122 -133.279959 0 120 255
169.875173 -231.943894 -131.869633 0 120 255
167.844003 -231.864666 -130.459307 0 120 255
165.812832 -231.785439 -129.048980 0 120 255
163.781662 -231.706211 -127.638654 0 120 255
161.588996 -231.622053 -126.496937 0 120 255
159.392118 -231.537766 -125.362224 0 120 255
157.195240 -231.453479 -124.227512 0 120 255
154.998361 -231.369192 -123.092800 0 120 255
152.684696 -231.281711 -122.224395 0 120 255
150.362578 -231.193998 -121.375265 0 120 255
148.040459 -231.106286 -120.526134 0 120 255
145.718341 -231.018573 -119.677004 0 120 255
143.319595 -230.929047 -119.085337 0 120 255
140.911417 -230.839298 -118.525362 0 120 255
138.503239 -230.749549 -117.965387 0 120 255
136.095060 -230.659800 -117.405412 0 120 255
133.645212 -230.569422 -117.089029 0 120 255
131.187909 -230.478931 -116.816226 0 120 255
128.730606 -230.388439 -116.543423 0 120 255
126.273302 -230.297948 -116.270620 0 120 255
123.803826 -230.207862 -116.223935 0 120 255
121.331419 -230.117873 -116.231659 0 120 255
118.859013 -230.027884 -116.239383 0 120 255
116.386607 -229.937895 -116.247107 0 120 255
113.926155 -229.849070 -116.461528 0 120 255
111.469398 -229.760605 -116.739864 0 120 255
109.012642 -229.672139 -117.018201 0 120 255
106.555885 -229.583674 -117.296538 0 120 255
104.130253 -229.497040 -117.761263 0 120 255
101.716630 -229.411113 -118.297910 0 120 255
99.303007 -229.325186 -118.834558 0 120 255
96.889384 -229.239259 -119.371206 0 120 255
94.521626 -229.155601 -120.073824 0 120 255
92.175520 -229.073016 -120.854794 0 120 255
89.829413 -228.990430 -121.635764 0 120 255
87.483307 -228.907845 -122.416734 0 120 255
85.193937 -228.827864 -123.343744 0 120 255
82.936892 -228.749368 -124.353960 0 120 255
80.679848 -228.670871 -125.364176 0 120 255
78.422803 -228.592375 -126.374393 0 120 255
76.230054 -228.516695 -127.511610 0 120 255
74.081108 -228.442934 -128.735351 0 120 255
71.932163 -228.369173 -129.959092 0 120 255
69.783217 -228.295412 -131.182833 0 120 255
67.703302 -228.224574 -132.515644 0 120 255
65.679290 -228.156102 -133.936782 0 120 255
63.655277 -228.087630 -135.357920 0 120 255
61.631264 -228.019158 -136.779059 0 120 255
59.678644 -227.953631 -138.292609 0 120 255
57.794531 -227.890929 -139.894838 0 120 255
55.910418 -227.828227 -141.497066 0 120 255
54.026305 -227.765526 -143.099295 0 120 255
52.213947 -227.705721 -144.778616 0 120 255
50.483125 -227.649210 -146.545536 0 120 255
48.752302 -227.592698 -148.312457 0 120 255
47.021479 -227.536186 -150.079377 0 120 255
45.361080 -227.482476 -151.909424 0 120 255
43.795604 -227.432543 -153.824559 0 120 255
42.230128 -227.382610 -155.739694 0 120 255
40.664651 -227.332678 -157.654828 0 120 255
39.166814 -227.285398 -159.620469 0 120 255
37.777590 -227.242380 -161.667211 0 120 255
36.388366 -227.199362 -163.713954 0 120 255
34.999142 -227.156344 -165.760697 0 120 255
33.673497 -227.115787 -167.846651 0 120 255
32.470372 -227.079973 -170.008168 0 120 255
31.267247 -227.044158 -172.169685 0 120 255
30.064122 -227.008344 -174.331203 0 120 255
28.919364 -226.974765 -176.521951 0 120 255
27.911082 -226.946413 -178.781046 0 120 255
26.902800 -226.918061 -181.040142 0 120 255
25.894518 -226.889708 -183.299238 0 120 255
24.938384 -226.863333 -185.578928 0 120 255
24.132590 -226.842656 -187.917991 0 120 255
23.326796 -226.821979 -190.257055 0 120 255
22.521002 -226.801302 -192.596118 0 120 255
21.760218 -226.782315 -194.948514 0 120 255
21.163244 -226.769477 -197.349432 0 120 255
20.566270 -226.756639 -199.750350 0 120 255
19.969297 -226.743800 -202.151268 0 120 255
19.409390 -226.732340 -204.559691 0 120 255
19.025938 -226.727435 -207.003846 0 120 255
18.642486 -226.722531 -209.448000 0 120 255
18.259034 -226.717626 -211.892154 0 120 255
17.904105 -226.713774 -214.339504 0 120 255
17.737248 -226.716859 -216.807924 0 120 255
17.570390 -226.719945 -219.276344 0 120 255
17.403532 -226.723030 -221.744764 0 120 255
17.256233 -226.726830 -224.213642 0 120 255
17.307122 -226.737869 -226.687149 0 120 255
17.358010 -226.748907 -229.160656 0 120 255
17.408899 -226.759946 -231.634163 0 120 255
17.470191 -226.771360 -234.106996 0 120 255
17.737960 -226.790231 -236.566446 0 120 255
18.005729 -226.809102 -239.025896 0 120 255
18.273498 -226.827973 -241.485345 0 120 255
18.542586 -226.846891 -243.944592 0 120 255
19.024530 -226.873429 -246.371107 0 120 255
19.506474 -226.899968 -248.797622 0 120 255
19.988418 -226.926506 -251.224137 0 120 255
20.470362 -226.953044 -253.650652 0 120 255
21.154269 -226.986740 -256.027727 0 120 255
21.845639 -227.020700 -258.402975 0 120 255
22.537009 -227.054661 -260.778224 0 120 255
23.228378 -227.088621 -263.153472 0 120 255
24.106879 -227.129172 -265.465238 0 120 255
25.001081 -227.170275 -267.771677 0 120 255
25.895283 -227.211378 -270.078116 0 120 255
26.789486 -227.252482 -272.384556 0 120 255
27.854991 -227.299538 -274.615855 0 120 255
28.943672 -227.347401 -276.836987 0 120 255
30.032354 -227.395263 -279.058120 0 120 255
31.121036 -227.443125 -281.279253 0 120 255
32.364456 -227.496312 -283.416088 0 120 255
33.637557 -227.550521 -285.536754 0 120 255
34.910658 -227.604730 -287.657420 0 120 255
36.183760 -227.658940 -289.778086 0 120 255
37.594638 -227.717823 -291.807858 0 120 255
39.040545 -227.777894 -293.814520 0 120 255
40.486452 -227.837966 -295.821182 0 120 255
41.932359 -227.898037 -297.827845 0 120 255
43.499036 -227.962163 -299.739577 0 120 255
45.104796 -228.027600 -301.620588 0 120 255
46.710556 -228.093037 -303.501599 0 120 255
48.316316 -228.158474 -305.382610 0 120 255
50.026173 -228.227341 -307.167129 0 120 255
51.777783 -228.297583 -308.912946 0 120 255
53.529394 -228.367826 -310.658763 0 120 255
55.281004 -228.438068 -312.404580 0 120 255
57.120694 -228.511217 -314.054694 0 120 255
59.003391 -228.585784 -315.658078 0 120 255
60.886088 -228.660352 -317.261462 0 120 255
62.768785 -228.734920 -318.864846 0 120 255
64.724575 -228.811941 -320.375376 0 120 255
66.723279 -228.890402 -321.831390 0 120 255
68.721982 -228.968864 -323.287404 0 120 255
70.720686 -229.047325 -324.743418 0 120 255
72.778692 -229.127762 -326.111333 0 120 255
74.878216 -229.209581 -327.417569 0 120 255
76.977741 -229.291400 -328.723805 0 120 255
79.077265 -229.373219 -330.030041 0 120 255
81.223640 -229.455785 -331.254730 0 120 255
83.408924 -229.538972 -332.411691 0 120 255
85.594209 -229.622159 -333.568653 0 120 255
87.779494 -229.705346 -334.725614 0 120 255
90.000226 -229.783819 -335.810402 0 120 255
92.255794 -229.857658 -336.824261 0 120 255
94.511362 -229.931498 -337.838121 0 120 255
96.766929 -230.005338 -338.851980 0 120 255
99.048443 -230.069246 -339.803928 0 120 255
101.360126 -230.121606 -340.683890 0 120 255
103.671808 -230.173966 -341.563852 0 120 255
105.983490 -230.226326 -342.443814 0 120 255
108.313547 -230.265629 -343.271968 0 120 255
110.668939 -230.286927 -344.028686 0 120 255
113.024332 -230.308224 -344.785404 0 120 255
115.379724 -230.329522 -345.542122 0 120 255
117.747597 -230.336452 -346.256659 0 120 255
120.135975 -230.319775 -346.901888 0 120 255
122.524353 -230.303097 -347.547117 0 120 255
124.912731 -230.286419 -348.192346 0 120 255
127.309139 -230.255488 -348.804319 0 120 255
129.721396 -230.196426 -349.350651 0 120 255
132.133652 -230.137363 -349.896984 0 120 255
134.545909 -230.078301 -350.443317 0 120 255
136.962974 -230.006205 -350.964431 0 120 255
139.391574 -229.902843 -351.425047 0 120 255
141.820174 -229.799481 -351.885663 0 120 255
144.248774 -229.696119 -352.346278 0 120 255
146.679982 -229.581738 -352.788693 0 120 255
149.118926 -229.434669 -353.177116 0 120 255
151.557871 -229.287600 -353.565538 0 120 255
153.996815 -229.140532 -353.953961 0 120 255
156.436980 -228.984922 -354.330099 0 120 255
158.881740 -228.797174 -354.660022 0 120 255
161.326500 -228.609427 -354.989944 0 120 255
163.771260 -228.421679 -355.319867 0 120 255
166.216448 -228.228253 -355.642629 0 120 255
168.663759 -228.006671 -355.929895 0 120 255
171.111069 -227.785089 -356.217160 0 120 255
173.558380 -227.563508 -356.504425 0 120 255
176.005657 -227.340688 -356.790997 0 120 255
178.452698 -227.109267 -357.072749 0 120 255
180.899739 -226.877846 -357.354501 0 120 255
183.346780 -226.646424 -357.636253 0 120 255
185.793820 -226.415002 -357.918006 0 120 255
188.240859 -226.183570 -358.199770 0 120 255
190.687897 -225.952138 -358.481535 0 120 255
193.134936 -225.720705 -358.763299 0 120 255
195.581974 -225.489273 -359.045063 0 120 255
198.029014 -225.257845 -359.326820 0 120 255
200.476054 -225.026417 -359.608577 0 120 255
202.923094 -224.794989 -359.890334 0 120 255
205.370133 -224.563560 -360.172091 0 120 255
