ply
format ascii 1.0
element vertex 385
property float x
property float y
property float z
property uchar red
property uchar green
property uchar blue
end_header
77.430455 -42.474882 -360.397637 0 120 255
77.187552 -42.528711 -357.935927 0 120 255
76.944649 -42.582541 -355.474216 0 120 255
76.701745 -42.636371 -353.012506 0 120 255
76.458842 -42.690200 -350.550796 0 120 255
76.216366 -42.755199 -348.089315 0 120 255
75.973908 -42.820683 -345.627843 0 120 255
75.731450 -42.886167 -343.166371 0 120 255
75.488992 -42.951651 -340.704900 0 120 255
75.182015 -43.052489 -338.251941 0 120 255
74.869063 -43.156600 -335.799771 0 120 255
74.556112 -43.260711 -333.347601 0 120 255
74.243160 -43.364822 -330.895431 0 120 255
73.866908 -43.492518 -328.453434 0 120 255
73.481229 -43.623726 -326.012952 0 120 255
73.095551 -43.754934 -323.572470 0 120 255
72.709872 -43.886142 -321.131988 0 120 255
72.262733 -44.040227 -318.703551 0 120 255
71.802604 -44.199146 -316.277661 0 120 255
71.342475 -44.358066 -313.851771 0 120 255
70.882346 -44.516985 -311.425881 0 120 255
70.362977 -44.698112 -309.013790 0 120 255
69.826962 -44.885479 -306.605575 0 120 255
69.290948 -45.072846 -304.197360 0 120 255
68.754933 -45.260213 -301.789145 0 120 255
68.162207 -45.469117 -299.396334 0 120 255
67.549120 -45.685755 -297.009054 0 120 255
66.936033 -45.902392 -294.621773 0 120 255
66.322946 -46.119030 -292.234492 0 120 255
65.655944 -46.356512 -289.864048 0 120 255
64.964828 -46.603317 -287.501134 0 120 255
64.273713 -46.850122 -285.138220 0 120 255
63.582597 -47.096928 -282.775306 0 120 255
62.840596 -47.363838 -280.430463 0 120 255
62.070728 -47.641757 -278.095515 0 120 255
61.300860 -47.919677 -275.760567 0 120 255
60.530992 -48.197597 -273.425620 0 120 255
59.713449 -48.494819 -271.109760 0 120 255
58.864304 -48.804836 -268.806554 0 120 255
58.015159 -49.114852 -266.503348 0 120 255
57.166014 -49.424869 -264.200142 0 120 255
56.272559 -49.753321 -261.916806 0 120 255
55.343807 -50.096460 -259.649298 0 120 255
54.415055 -50.439598 -257.381790 0 120 255
53.486304 -50.782737 -255.114282 0 120 255
52.516730 -51.143359 -252.867168 0 120 255
51.508234 -51.520651 -250.639501 0 120 255
50.499737 -51.897943 -248.411834 0 120 255
49.491240 -52.275235 -246.184167 0 120 255
48.445509 -52.668978 -243.977143 0 120 255
47.357322 -53.081477 -241.793657 0 120 255
46.269136 -53.493976 -239.610171 0 120 255
45.180949 -53.906475 -237.426685 0 120 255
44.059182 -54.334299 -235.263798 0 120 255
42.891542 -54.783057 -233.129050 0 120 255
41.723902 -55.231815 -230.994302 0 120 255
40.556262 -55.680573 -228.859554 0 120 255
39.358748 -56.143440 -226.745041 0 120 255
38.112102 -56.629510 -224.663809 0 120 255
36.865456 -57.115580 -222.582577 0 120 255
35.618811 -57.601651 -220.501345 0 120 255
34.346023 -58.100518 -218.439646 0 120 255
33.021028 -58.624942 -216.416953 0 120 255
31.696034 -59.149365 -214.394260 0 120 255
30.371039 -59.673789 -212.371567 0 120 255
29.023639 -60.209602 -210.367336 0 120 255
27.621200 -60.773395 -208.408454 0 120 255
26.218761 -61.337189 -206.449573 0 120 255
24.816321 -61.900982 -204.490691 0 120 255
23.395188 -62.474664 -202.548806 0 120 255
21.916461 -63.078815 -200.659286 0 120 255
20.437733 -63.682966 -198.769767 0 120 255
18.959006 -64.287116 -196.880248 0 120 255
17.465248 -64.899562 -195.005832 0 120 255
15.911699 -65.545007 -193.191499 0 120 255
14.358150 -66.190451 -191.377167 0 120 255
12.804601 -66.835896 -189.562834 0 120 255
11.239599 -67.487954 -187.761253 0 120 255
9.613031 -68.175568 -186.028228 0 120 255
7.986463 -68.863183 -184.295202 0 120 255
6.359894 -69.550797 -182.562176 0 120 255
4.725328 -70.243263 -180.839056 0 120 255
3.027935 -70.973833 -179.193748 0 120 255
1.330542 -71.704404 -177.548439 0 120 255
-0.366851 -72.434974 -175.903130 0 120 255
-2.068960 -73.168563 -174.264352 0 120 255
-3.834539 -73.942769 -172.713466 0 120 255
-5.600119 -74.716976 -171.162579 0 120 255
-7.365698 -75.491182 -169.611692 0 120 255
-9.132940 -76.266517 -168.063396 0 120 255
-10.963558 -77.084894 -166.613909 0 120 255
-12.794176 -77.903272 -165.164423 0 120 255
-14.624794 -78.721649 -163.714936 0 120 255
-16.455413 -79.540026 -162.265449 0 120 255
-18.346260 -80.402145 -160.922669 0 120 255
-20.238204 -81.265060 -159.581833 0 120 255
-22.130147 -82.127976 -158.240997 0 120 255
-24.022091 -82.990892 -156.900161 0 120 255
-25.967515 -83.895765 -155.668344 0 120 255
-27.916422 -84.803370 -154.443628 0 120 255
-29.865329 -85.710976 -153.218911 0 120 255
-31.814235 -86.618581 -151.994194 0 120 255
-33.809617 -87.566136 -150.880354 0 120 255
-35.810406 -88.518338 -149.779413 0 120 255
-37.811194 -89.470541 -148.678471 0 120 255
-39.811983 -90.422743 -147.577530 0 120 255
-41.852014 -91.412644 -146.588792 0 120 255
-43.898812 -92.409046 -145.619401 0 120 255
-45.945610 -93.405448 -144.650011 0 120 255
-47.992409 -94.401849 -143.680621 0 120 255
-50.071026 -95.433462 -142.824160 0 120 255
-52.157095 -96.473319 -141.994139 0 120 255
-54.243163 -97.513176 -141.164119 0 120 255
-56.329231 -98.553033 -140.334099 0 120 255
-58.439557 -99.625385 -139.617057 0 120 255
-60.557216 -100.707559 -138.934170 0 120 255
-62.674875 -101.789733 -138.251282 0 120 255
-64.792534 -102.871907 -137.568395 0 120 255
-66.926822 -103.983632 -136.997781 0 120 255
-69.067395 -105.106526 -136.469602 0 120 255
-71.207968 -106.229420 -135.941424 0 120 255
-73.348541 -107.352313 -135.413245 0 120 255
-75.498132 -108.501616 -134.995817 0 120 255
-77.651894 -109.663131 -134.629604 0 120 255
-79.805655 -110.824645 -134.263391 0 120 255
-81.959416 -111.986160 -133.897178 0 120 255
-84.114705 -113.170773 -133.639304 0 120 255
-86.270845 -114.368258 -133.441807 0 120 255
-88.426986 -115.565743 -133.244309 0 120 255
-90.583126 -116.763228 -133.046811 0 120 255
-92.733552 -117.980366 -132.954324 0 120 255
-94.880180 -119.210564 -132.931619 0 120 255
-97.026808 -120.440763 -132.908914 0 120 255
-99.173436 -121.670961 -132.886210 0 120 255
-101.307486 -122.917295 -132.964233 0 120 255
-103.431640 -124.176323 -133.121503 0 120 255
-105.555794 -125.435352 -133.278774 0 120 255
-107.679948 -126.694380 -133.436045 0 120 255
-109.785192 -127.966008 -133.688809 0 120 255
-111.872901 -129.249320 -134.030126 0 120 255
-113.960610 -130.532633 -134.371443 0 120 255
-116.048319 -131.815945 -134.712760 0 120 255
-118.111478 -133.108379 -135.143405 0 120 255
-120.147861 -134.410762 -135.671478 0 120 255
-122.184244 -135.713144 -136.199551 0 120 255
-124.220626 -137.015527 -136.727624 0 120 255
-126.227667 -138.323692 -137.338009 0 120 255
-128.197065 -139.639275 -138.053990 0 120 255
-130.166463 -140.954858 -138.769970 0 120 255
-132.135862 -142.270441 -139.485951 0 120 255
-134.072131 -143.588698 -140.276461 0 120 255
-135.958299 -144.910999 -141.179680 0 120 255
-137.844468 -146.233301 -142.082899 0 120 255
-139.730636 -147.555602 -142.986118 0 120 255
-141.581038 -148.877786 -143.955465 0 120 255
-143.367381 -150.199760 -145.043251 0 120 255
-145.153725 -151.521734 -146.131038 0 120 255
-146.940068 -152.843708 -147.218824 0 120 255
-148.689281 -154.163178 -148.363899 0 120 255
-150.359145 -155.477294 -149.631403 0 120 255
-152.029009 -156.791411 -150.898908 0 120 255
-153.698873 -158.105528 -152.166412 0 120 255
-155.331596 -159.415249 -153.482148 0 120 255
-156.868557 -160.713633 -154.922240 0 120 255
-158.405518 -162.012017 -156.362332 0 120 255
-159.942480 -163.310401 -157.802424 0 120 255
-161.443700 -164.603060 -159.281710 0 120 255
-162.831945 -165.877621 -160.884890 0 120 255
-164.220190 -167.152182 -162.488070 0 120 255
-165.608435 -168.426744 -164.091250 0 120 255
-166.963742 -169.694867 -165.724889 0 120 255
-168.188408 -170.937458 -167.479334 0 120 255
-169.413073 -172.180048 -169.233780 0 120 255
-170.637739 -173.422638 -170.988226 0 120 255
-171.833627 -174.658732 -172.764963 0 120 255
-172.881198 -175.861347 -174.656583 0 120 255
-173.928769 -177.063962 -176.548204 0 120 255
-174.976340 -178.266577 -178.439825 0 120 255
-176.000535 -179.463297 -180.346418 0 120 255
-176.859158 -180.618270 -182.359058 0 120 255
-177.717782 -181.773244 -184.371697 0 120 255
-178.576406 -182.928217 -186.384337 0 120 255
-179.418136 -184.078535 -188.405733 0 120 255
-180.077963 -185.178725 -190.521419 0 120 255
-180.737790 -186.278915 -192.637105 0 120 255
-181.397618 -187.379105 -194.752790 0 120 255
-182.047901 -188.476466 -196.872341 0 120 255
-182.501341 -189.515457 -199.071615 0 120 255
-182.954780 -190.554447 -201.270890 0 120 255
-183.408220 -191.593438 -203.470164 0 120 255
-183.860083 -192.631932 -205.669908 0 120 255
-184.102005 -193.604214 -207.932220 0 120 255
-184.343927 -194.576497 -210.194532 0 120 255
-184.585850 -195.548779 -212.456845 0 120 255
-184.827772 -196.521062 -214.719157 0 120 255
-184.862344 -197.424438 -217.021988 0 120 255
-184.890190 -198.325579 -219.326133 0 120 255
-184.918037 -199.226720 -221.630279 0 120 255
-184.945884 -200.127861 -223.934424 0 120 255
-184.774759 -200.959821 -226.257587 0 120 255
-184.588565 -201.786542 -228.582191 0 120 255
-184.402370 -202.613263 -230.906794 0 120 255
-184.216176 -203.439983 -233.231397 0 120 255
-183.841682 -204.198660 -235.555434 0 120 255
-183.444024 -204.948967 -237.879402 0 120 255
-183.046367 -205.699274 -240.203369 0 120 255
-182.648710 -206.449581 -242.527337 0 120 255
-182.075295 -207.134255 -244.833442 0 120 255
-181.471141 -207.807451 -247.136423 0 120 255
-180.866987 -208.480646 -249.439404 0 120 255
-180.262833 -209.153841 -251.742386 0 120 255
-179.496881 -209.764938 -254.012755 0 120 255
-178.693375 -210.361621 -256.275555 0 120 255
-177.889870 -210.958305 -258.538355 0 120 255
-177.086364 -211.554989 -260.801155 0 120 255
-176.135948 -212.094075 -263.019276 0 120 255
-175.142111 -212.616137 -265.224192 0 120 255
-174.148274 -213.138200 -267.429108 0 120 255
-173.154437 -213.660262 -269.634024 0 120 255
-172.029064 -214.129936 -271.784942 0 120 255
-170.855506 -214.580418 -273.916079 0 120 255
-169.681949 -215.030901 -276.047216 0 120 255
-168.508391 -215.481383 -278.178353 0 120 255
-167.218701 -215.885243 -280.248834 0 120 255
-165.877240 -216.268319 -282.292275 0 120 255
-164.535778 -216.651395 -284.335716 0 120 255
-163.194316 -217.034471 -286.379156 0 120 255
-161.751784 -217.376978 -288.357818 0 120 255
-160.255108 -217.697752 -290.301778 0 120 255
-158.758431 -218.018526 -292.245738 0 120 255
-157.261755 -218.339301 -294.189698 0 120 255
-155.678402 -218.625671 -296.067069 0 120 255
-154.039733 -218.890085 -297.901944 0 120 255
-152.401064 -219.154499 -299.736818 0 120 255
-150.762395 -219.418913 -301.571693 0 120 255
-149.050505 -219.655009 -303.340201 0 120 255
-147.283256 -219.869695 -305.058530 0 120 255
-145.516006 -220.084380 -306.776860 0 120 255
-143.748757 -220.299066 -308.495189 0 120 255
-141.920640 -220.491254 -310.149126 0 120 255
-140.038167 -220.663352 -311.745557 0 120 255
-138.155693 -220.835449 -313.341988 0 120 255
-136.273219 -221.007547 -314.938419 0 120 255
-134.340995 -221.162599 -316.473849 0 120 255
-132.356329 -221.299683 -317.944980 0 120 255
-130.371664 -221.436768 -319.416111 0 120 255
-128.386998 -221.573852 -320.887242 0 120 255
-126.362406 -221.698832 -322.301872 0 120 255
-124.288064 -221.808728 -323.646098 0 120 255
-122.213722 -221.918624 -324.990324 0 120 255
-120.139380 -222.028520 -326.334550 0 120 255
-118.033838 -222.131761 -327.627846 0 120 255
-115.882160 -222.225161 -328.845825 0 120 255
-113.730482 -222.318561 -330.063805 0 120 255
-111.578804 -222.411961 -331.281784 0 120 255
-109.403010 -222.503358 -332.454301 0 120 255
-107.184599 -222.591215 -333.546478 0 120 255
-104.966188 -222.679072 -334.638655 0 120 255
-102.747778 -222.766930 -335.730832 0 120 255
-100.511110 -222.854428 -336.783205 0 120 255
-98.235500 -222.941162 -337.750672 0 120 255
-95.959890 -223.027896 -338.718140 0 120 255
-93.684280 -223.114630 -339.685607 0 120 255
-91.395606 -223.201401 -340.619978 0 120 255
-89.072771 -223.288268 -341.467803 0 120 255
-86.749936 -223.375135 -342.315627 0 120 255
-84.427101 -223.462002 -343.163452 0 120 255
-82.095234 -223.549128 -343.984491 0 120 255
-79.733772 -223.637103 -344.717752 0 120 255
-77.372309 -223.725078 -345.451013 0 120 255
-75.010847 -223.813052 -346.184275 0 120 255
-72.643459 -223.901257 -346.896758 0 120 255
-70.250953 -223.990438 -347.521160 0 120 255
-67.858447 -224.079619 -348.145562 0 120 255
-65.465941 -224.168800 -348.769963 0 120 255
-63.069842 -224.258096 -349.379279 0 120 255
-60.653026 -224.348053 -349.901607 0 120 255
-58.236211 -224.438011 -350.423935 0 120 255
-55.819395 -224.527968 -350.946263 0 120 255
-53.400637 -224.617974 -351.458657 0 120 255
-50.965253 -224.708399 -351.886027 0 120 255
-48.529869 -224.798824 -352.313397 0 120 255
-46.094485 -224.889249 -352.740767 0 120 255
-43.658258 -224.979688 -353.162761 0 120 255
-41.209122 -225.070340 -353.502517 0 120 255
-38.759987 -225.160993 -353.842273 0 120 255
-36.310851 -225.251645 -354.182029 0 120 255
-33.861539 -225.342299 -354.520340 0 120 255
-31.402628 -225.433028 -354.780034 0 120 255
-28.943717 -225.523758 -355.039728 0 120 255
-26.484806 -225.614488 -355.299421 0 120 255
-24.025895 -225.705218 -355.559115 0 120 255
-21.560579 -225.795905 -355.748262 0 120 255
-19.095096 -225.886590 -355.935575 0 120 255
-16.629613 -225.977276 -356.122888 0 120 255
-14.164130 -226.067962 -356.310201 0 120 255
-11.694861 -226.158548 -356.437294 0 120 255
-9.225312 -226.249127 -356.559939 0 120 255
-6.755764 -226.339706 -356.682585 0 120 255
-4.286215 -226.430285 -356.805230 0 120 255
-1.814737 -226.520711 -356.877431 0 120 255
0.656985 -226.611118 -356.943255 0 120 255
3.128707 -226.701524 -357.009078 0 120 255
5.600429 -226.791931 -357.074902 0 120 255
8.072849 -226.882175 -357.099348 0 120 255
10.545397 -226.972389 -357.116163 0 120 255
13.017946 -227.062604 -357.132978 0 120 255
15.490494 -227.152818 -357.149793 0 120 255
17.962998 -227.242849 -357.133589 0 120 255
20.435491 -227.332834 -357.109173 0 120 255
22.907985 -227.422820 -357.084757 0 120 255
25.380478 -227.512805 -357.060340 0 120 255
27.852556 -227.602592 -357.010574 0 120 255
30.324502 -227.692315 -356.952688 0 120 255
32.796448 -227.782038 -356.894802 0 120 255
35.268393 -227.871761 -356.836917 0 120 255
37.739821 -227.961255 -356.760645 0 120 255
40.211041 -228.050657 -356.677010 0 120 255
42.682261 -228.140059 -356.593375 0 120 255
45.153481 -228.229460 -356.509741 0 120 255
47.624263 -228.318542 -356.414102 0 120 255
50.094830 -228.407467 -356.312573 0 120 255
52.565397 -228.496391 -356.211044 0 120 255
55.035964 -228.585315 -356.109514 0 120 255
57.506281 -228.673652 -356.001700 0 120 255
59.976449 -228.761639 -355.890158 0 120 255
62.446618 -228.849627 -355.778616 0 120 255
64.916786 -228.937614 -355.667074 0 120 255
67.386971 -229.023953 -355.554603 0 120 255
69.857166 -229.109121 -355.441473 0 120 255
72.327361 -229.194289 -355.328343 0 120 255
74.797556 -229.279457 -355.215213 0 120 255
77.268065 -229.359414 -355.105301 0 120 255
79.738837 -229.434975 -354.998106 0 120 255
82.209609 -229.510536 -354.890910 0 120 255
84.680382 -229.586096 -354.783715 0 120 255
87.151645 -229.653238 -354.682946 0 120 255
89.623399 -229.711965 -354.588601 0 120 255
92.095152 -229.770692 -354.494256 0 120 255
94.566906 -229.829418 -354.399910 0 120 255
97.039165 -229.878382 -354.314829 0 120 255
99.512023 -229.915791 -354.240712 0 120 255
101.984880 -229.953199 -354.166595 0 120 255
104.457737 -229.990608 -354.092478 0 120 255
106.930981 -230.017392 -354.029856 0 120 255
109.404766 -230.029256 -353.983379 0 120 255
111.878552 -230.041120 -353.936902 0 120 255
114.352338 -230.052984 -353.890426 0 120 255
116.826264 -230.053834 -353.857020 0 120 255
119.300425 -230.036245 -353.845501 0 120 255
121.774587 -230.018655 -353.833983 0 120 255
124.248748 -230.001066 -353.822464 0 120 255
126.722703 -229.972497 -353.824977 0 120 255
129.196244 -229.921843 -353.855717 0 120 255
131.669786 -229.871188 -353.886456 0 120 255
134.143327 -229.820534 -353.917196 0 120 255
136.616252 -229.759326 -353.962288 0 120 255
139.087672 -229.672322 -354.042466 0 120 255
141.559093 -229.585317 -354.122643 0 120 255
144.030513 -229.498312 -354.202821 0 120 255
146.500894 -229.401541 -354.297056 0 120 255
148.968136 -229.275265 -354.433756 0 120 255
151.435378 -229.148990 -354.570457 0 120 255
153.902620 -229.022715 -354.707158 0 120 255
156.368446 -228.887769 -354.857009 0 120 255
158.828850 -228.719653 -355.057171 0 120 255
161.289254 -228.551537 -355.257333 0 120 255
163.749658 -228.383421 -355.457495 0 120 255
166.208145 -228.207339 -355.670887 0 120 255
168.656993 -227.991209 -355.950789 0 120 255
171.105842 -227.775079 -356.230691 0 120 255
173.554690 -227.558949 -356.510594 0 120 255
176.003337 -227.340907 -356.790730 0 120 255
178.450572 -227.109468 -357.072504 0 120 255
180.897806 -226.878028 -357.354278 0 120 255
183.345040 -226.646589 -357.636053 0 120 255
185.792274 -226.415149 -357.917828 0 120 255
188.239506 -226.183698 -358.199614 0 120 255
190.686738 -225.952247 -358.481401 0 120 255
193.133969 -225.720797 -358.763188 0 120 255
195.581201 -225.489346 -359.044974 0 120 255
198.028434 -225.257900 -359.326753 0 120 255
200.475667 -225.026453 -359.608532 0 120 255
202.922900 -224.795007 -359.890312 0 120 255
205.370133 -224.563560 -360.172091 0 120 255
