ply
format ascii 1.0
element vertex 385
property float x
property float y
property float z
property uchar red
property uchar green
property uchar blue
end_header
77.430455 -42.474882 -360.397637 0 120 255
77.187219 -42.528785 -357.932556 0 120 255
76.943983 -42.582688 -355.467475 0 120 255
76.700748 -42.636592 -353.002394 0 120 255
76.457512 -42.690495 -350.537313 0 120 255
76.220264 -42.810417 -348.074010 0 120 255
75.983240 -42.932811 -345.610774 0 120 255
75.746217 -43.055206 -343.147538 0 120 255
75.509193 -43.177600 -340.684302 0 120 255
75.236055 -43.582223 -338.256581 0 120 255
74.960046 -44.009288 -335.831683 0 120 255
74.684036 -44.436353 -333.406786 0 120 255
74.408026 -44.863419 -330.981889 0 120 255
74.104791 -45.482577 -328.603322 0 120 255
73.797584 -46.129763 -326.231515 0 120 255
73.490377 -46.776948 -323.859709 0 120 255
73.183169 -47.424134 -321.487902 0 120 255
72.861549 -48.236461 -319.170881 0 120 255
72.536716 -49.085604 -316.866075 0 120 255
72.211883 -49.934748 -314.561269 0 120 255
71.887050 -50.783892 -312.256463 0 120 255
71.558473 -51.772696 -310.010173 0 120 255
71.228724 -52.805181 -307.782184 0 120 255
70.898976 -53.837666 -305.554195 0 120 255
70.569227 -54.870151 -303.326206 0 120 255
70.244300 -56.018810 -301.156734 0 120 255
69.921389 -57.216054 -299.011733 0 120 255
69.598479 -58.413297 -296.866732 0 120 255
69.275568 -59.610541 -294.721731 0 120 255
68.964056 -60.902805 -292.632462 0 120 255
68.658737 -62.246688 -290.573469 0 120 255
68.353417 -63.590570 -288.514476 0 120 255
68.048097 -64.934453 -286.455483 0 120 255
67.758942 -66.354641 -284.447467 0 120 255
67.480993 -67.827727 -282.474790 0 120 255
67.203043 -69.300813 -280.502113 0 120 255
66.925094 -70.773900 -278.529436 0 120 255
66.666439 -72.307011 -276.601716 0 120 255
66.424685 -73.892705 -274.713377 0 120 255
66.182931 -75.478399 -272.825038 0 120 255
65.941178 -77.064093 -270.936700 0 120 255
65.720397 -78.695875 -269.086621 0 120 255
65.522749 -80.378493 -267.278742 0 120 255
65.325102 -82.061111 -265.470864 0 120 255
65.127454 -83.743730 -263.662985 0 120 255
64.951199 -85.460698 -261.886472 0 120 255
64.804723 -87.225481 -260.153619 0 120 255
64.658246 -88.990263 -258.420766 0 120 255
64.511770 -90.755046 -256.687913 0 120 255
64.386028 -92.544455 -254.979701 0 120 255
64.297014 -94.377483 -253.315137 0 120 255
64.208000 -96.210512 -251.650572 0 120 255
64.118986 -98.043541 -249.986008 0 120 255
64.049109 -99.893321 -248.339841 0 120 255
64.023073 -101.781479 -246.735823 0 120 255
63.997038 -103.669637 -245.131805 0 120 255
63.971002 -105.557795 -243.527787 0 120 255
63.950834 -107.454891 -241.934483 0 120 255
63.948531 -109.379202 -240.373805 0 120 255
63.946229 -111.303512 -238.813126 0 120 255
63.943926 -113.227823 -237.252448 0 120 255
63.948279 -115.157284 -235.698301 0 120 255
63.980657 -117.108435 -234.171652 0 120 255
64.013034 -119.059586 -232.645004 0 120 255
64.045412 -121.010736 -231.118355 0 120 255
64.090469 -122.965065 -229.596492 0 120 255
64.213787 -124.939008 -228.104167 0 120 255
64.337105 -126.912951 -226.611842 0 120 255
64.460423 -128.886894 -225.119517 0 120 255
64.592748 -130.861782 -223.629518 0 120 255
64.818444 -132.846463 -222.163641 0 120 255
65.044139 -134.831144 -220.697764 0 120 255
65.269835 -136.815825 -219.231888 0 120 255
65.499793 -138.800418 -217.766716 0 120 255
65.838606 -140.782747 -216.319558 0 120 255
66.177420 -142.765077 -214.872399 0 120 255
66.516234 -144.747407 -213.425241 0 120 255
66.855048 -146.729736 -211.978083 0 120 255
67.315510 -148.695552 -210.542094 0 120 255
67.777369 -150.661178 -209.106234 0 120 255
68.239227 -152.626803 -207.670374 0 120 255
68.701086 -154.592429 -206.234514 0 120 255
69.287139 -156.527471 -204.802793 0 120 255
69.880977 -158.460595 -203.371332 0 120 255
70.474814 -160.393719 -201.939871 0 120 255
71.068652 -162.326843 -200.508410 0 120 255
71.787498 -164.215293 -199.075357 0 120 255
72.521021 -166.098498 -197.642117 0 120 255
73.254545 -167.981702 -196.208877 0 120 255
73.988068 -169.864907 -194.775638 0 120 255
74.845663 -171.689354 -193.336437 0 120 255
75.725065 -173.503474 -191.896189 0 120 255
76.604467 -175.317594 -190.455942 0 120 255
77.483869 -177.131714 -189.015694 0 120 255
78.484612 -178.873084 -187.566536 0 120 255
79.514200 -180.597161 -186.115260 0 120 255
80.543788 -182.321238 -184.663985 0 120 255
81.573376 -184.045315 -183.212709 0 120 255
82.719762 -185.682846 -181.751017 0 120 255
83.901556 -187.294141 -180.286167 0 120 255
85.083350 -188.905436 -178.821318 0 120 255
86.265143 -190.516732 -177.356468 0 120 255
87.557329 -192.028062 -175.881157 0 120 255
88.890558 -193.502226 -174.401957 0 120 255
90.223787 -194.976390 -172.922757 0 120 255
91.557017 -196.450554 -171.443557 0 120 255
92.992358 -197.811911 -169.955303 0 120 255
94.472961 -199.123264 -168.463036 0 120 255
95.953564 -200.434617 -166.970770 0 120 255
97.434168 -201.745970 -165.478503 0 120 255
99.006707 -202.932503 -163.980000 0 120 255
100.626769 -204.054513 -162.478273 0 120 255
102.246831 -205.176524 -160.976546 0 120 255
103.866893 -206.298535 -159.474819 0 120 255
105.566854 -207.284837 -157.971041 0 120 255
107.314115 -208.190799 -156.466048 0 120 255
109.061377 -209.096760 -154.961055 0 120 255
110.808639 -210.002721 -153.456063 0 120 255
112.621950 -210.763552 -151.954480 0 120 255
114.479355 -211.427493 -150.455174 0 120 255
116.336761 -212.091434 -148.955867 0 120 255
118.194167 -212.755375 -147.456561 0 120 255
120.102068 -213.266579 -145.967272 0 120 255
122.047472 -213.664348 -144.485423 0 120 255
123.992876 -214.062117 -143.003573 0 120 255
125.938279 -214.459885 -141.521724 0 120 255
127.917092 -214.699552 -140.057489 0 120 255
129.923177 -214.810160 -138.607633 0 120 255
131.929261 -214.920768 -137.157776 0 120 255
133.935346 -215.031376 -135.707920 0 120 255
135.956480 -214.981151 -134.284044 0 120 255
137.990975 -214.788159 -132.883230 0 120 255
140.025470 -214.595166 -131.482417 0 120 255
142.059964 -214.402173 -130.081603 0 120 255
144.090246 -214.048683 -128.715631 0 120 255
146.116498 -213.541688 -127.382983 0 120 255
148.142751 -213.034694 -126.050336 0 120 255
150.169003 -212.527699 -124.717688 0 120 255
152.171374 -211.863971 -123.428892 0 120 255
154.149321 -211.039949 -122.184944 0 120 255
156.127269 -210.215927 -120.940997 0 120 255
158.105216 -209.391905 -119.697049 0 120 255
160.039847 -208.418611 -118.505699 0 120 255
161.927375 -207.282993 -117.371546 0 120 255
163.814904 -206.147376 -116.237394 0 120 255
165.702432 -205.011758 -115.103241 0 120 255
167.528224 -203.738133 -114.029703 0 120 255
169.282879 -202.305484 -113.026011 0 120 255
171.037534 -200.872836 -112.022319 0 120 255
172.792188 -199.440188 -111.018626 0 120 255
174.468570 -197.884452 -110.082342 0 120 255
176.049476 -196.178579 -109.228278 0 120 255
177.630383 -194.472706 -108.374214 0 120 255
179.211289 -192.766834 -107.520150 0 120 255
180.700160 -190.956007 -106.738573 0 120 255
182.069981 -189.009421 -106.050761 0 120 255
183.439802 -187.062835 -105.362948 0 120 255
184.809623 -185.116249 -104.675136 0 120 255
186.077256 -183.085295 -104.062779 0 120 255
187.204069 -180.938078 -103.554403 0 120 255
188.330881 -178.790861 -103.046028 0 120 255
189.457694 -176.643644 -102.537652 0 120 255
190.476390 -174.434021 -102.105317 0 120 255
191.335177 -172.132095 -101.785449 0 120 255
192.193963 -169.830169 -101.465581 0 120 255
193.052750 -167.528243 -101.145713 0 120 255
193.802055 -165.185977 -100.900001 0 120 255
194.375767 -162.779014 -100.773224 0 120 255
194.949480 -160.372050 -100.646448 0 120 255
195.523193 -157.965086 -100.519671 0 120 255
195.990575 -155.538606 -100.462824 0 120 255
196.270602 -153.077738 -100.529193 0 120 255
196.550630 -150.616869 -100.595562 0 120 255
196.830657 -148.156001 -100.661931 0 120 255
197.011599 -145.693939 -100.791986 0 120 255
196.997671 -143.229529 -101.047293 0 120 255
196.983742 -140.765119 -101.302600 0 120 255
196.969814 -138.300709 -101.557907 0 120 255
196.867385 -135.849909 -101.869122 0 120 255
196.566964 -133.429561 -102.305416 0 120 255
196.266543 -131.009212 -102.741710 0 120 255
195.966121 -128.588864 -103.178004 0 120 255
195.590139 -126.192742 -103.661474 0 120 255
195.017418 -123.859701 -104.267778 0 120 255
194.444697 -121.526661 -104.874082 0 120 255
193.871976 -119.193620 -105.480386 0 120 255
193.237891 -116.890957 -106.124775 0 120 255
192.412507 -114.682998 -106.887894 0 120 255
191.587122 -112.475039 -107.651013 0 120 255
190.761738 -110.267081 -108.414132 0 120 255
189.889380 -108.091282 -109.206430 0 120 255
188.835076 -106.040056 -110.111750 0 120 255
187.780771 -103.988829 -111.017070 0 120 255
186.726467 -101.937602 -111.922389 0 120 255
185.638817 -99.916367 -112.848619 0 120 255
184.382077 -98.047213 -113.880880 0 120 255
183.125338 -96.178059 -114.913141 0 120 255
181.868599 -94.308905 -115.945402 0 120 255
180.590622 -92.464256 -116.991260 0 120 255
179.159442 -90.796376 -118.135199 0 120 255
177.728263 -89.128497 -119.279137 0 120 255
176.297084 -87.460617 -120.423076 0 120 255
174.854727 -85.809184 -121.574439 0 120 255
173.277594 -84.356067 -122.815325 0 120 255
171.700462 -82.902950 -124.056211 0 120 255
170.123329 -81.449834 -125.297096 0 120 255
168.542715 -80.003311 -126.540439 0 120 255
166.847769 -78.773363 -127.864477 0 120 255
165.152822 -77.543415 -129.188516 0 120 255
163.457876 -76.313467 -130.512554 0 120 255
161.762930 -75.083519 -131.836593 0 120 255
159.979070 -74.076418 -133.229817 0 120 255
158.193486 -73.073637 -134.624383 0 120 255
156.407903 -72.070856 -136.018950 0 120 255
154.622319 -71.068075 -137.413516 0 120 255
152.776364 -70.277153 -138.863265 0 120 255
150.925948 -69.501886 -140.317093 0 120 255
149.075532 -68.726618 -141.770920 0 120 255
147.225117 -67.951350 -143.224748 0 120 255
145.338917 -67.374077 -144.722061 0 120 255
143.447859 -66.823684 -146.225277 0 120 255
141.556800 -66.273292 -147.728494 0 120 255
139.665742 -65.722900 -149.231711 0 120 255
137.759617 -65.354815 -150.768837 0 120 255
135.850385 -65.024325 -152.312955 0 120 255
133.941153 -64.693835 -153.857074 0 120 255
132.031921 -64.363345 -155.401193 0 120 255
130.124695 -64.198487 -156.971522 0 120 255
128.218043 -64.081131 -158.549368 0 120 255
126.311391 -63.963774 -160.127215 0 120 255
124.404739 -63.846417 -161.705061 0 120 255
122.513827 -63.877703 -163.303040 0 120 255
120.628887 -63.965384 -164.908656 0 120 255
118.743946 -64.053065 -166.514273 0 120 255
116.859006 -64.140747 -168.119889 0 120 255
115.000529 -64.360259 -169.740894 0 120 255
113.154930 -64.643925 -171.369388 0 120 255
111.309331 -64.927591 -172.997881 0 120 255
109.463732 -65.211257 -174.626375 0 120 255
107.652657 -65.610481 -176.266599 0 120 255
105.862706 -66.080412 -177.914001 0 120 255
104.072754 -66.550344 -179.561402 0 120 255
102.282803 -67.020275 -181.208804 0 120 255
100.533091 -67.590270 -182.865128 0 120 255
98.813947 -68.236281 -184.528230 0 120 255
97.094804 -68.882291 -186.191332 0 120 255
95.375660 -69.528302 -187.854434 0 120 255
93.700420 -70.259824 -189.524298 0 120 255
92.066285 -71.071405 -191.200494 0 120 255
90.432151 -71.882987 -192.876690 0 120 255
88.798016 -72.694568 -194.552886 0 120 255
87.209649 -73.578142 -196.234159 0 120 255
85.673940 -74.544544 -197.921273 0 120 255
84.138230 -75.510946 -199.608387 0 120 255
82.602520 -76.477348 -201.295502 0 120 255
81.112859 -77.503306 -202.986352 0 120 255
79.688372 -78.613553 -204.682489 0 120 255
78.263885 -79.723801 -206.378625 0 120 255
76.839398 -80.834049 -208.074762 0 120 255
75.459827 -81.992520 -209.773528 0 120 255
74.158875 -83.235403 -211.476896 0 120 255
72.857924 -84.478285 -213.180264 0 120 255
71.556973 -85.721168 -214.883631 0 120 255
70.298532 -87.002058 -216.588689 0 120 255
69.133051 -88.366063 -218.297443 0 120 255
67.967570 -89.730067 -220.006196 0 120 255
66.802089 -91.094072 -221.714950 0 120 255
65.675550 -92.486991 -223.424583 0 120 255
64.657160 -93.960210 -225.136658 0 120 255
63.638771 -95.433429 -226.848733 0 120 255
62.620381 -96.906648 -228.560808 0 120 255
61.636301 -98.400830 -230.273072 0 120 255
60.776376 -99.970869 -231.986023 0 120 255
59.916450 -101.540907 -233.698973 0 120 255
59.056524 -103.110946 -235.411924 0 120 255
58.232710 -104.696917 -237.125711 0 120 255
57.586195 -106.361117 -238.843602 0 120 255
56.939681 -108.025316 -240.561494 0 120 255
56.293167 -109.689516 -242.279386 0 120 255
55.674063 -111.362927 -243.996706 0 120 255
55.248583 -113.101410 -245.709989 0 120 255
54.823103 -114.839892 -247.423272 0 120 255
54.397624 -116.578374 -249.136556 0 120 255
53.985237 -118.320468 -250.848689 0 120 255
53.737598 -120.108015 -252.546347 0 120 255
53.489958 -121.895562 -254.244006 0 120 255
53.242319 -123.683108 -255.941664 0 120 255
52.998849 -125.471454 -257.638861 0 120 255
52.928927 -127.293073 -259.316808 0 120 255
52.859005 -129.114692 -260.994756 0 120 255
52.789083 -130.936310 -262.672704 0 120 255
52.719160 -132.757929 -264.350652 0 120 255
52.821551 -134.598607 -266.005730 0 120 255
52.928615 -136.439802 -267.660188 0 120 255
53.035678 -138.280997 -269.314646 0 120 255
53.142742 -140.122192 -270.969104 0 120 255
53.412179 -141.968516 -272.598510 0 120 255
53.694962 -143.815262 -274.225856 0 120 255
53.977746 -145.662008 -275.853203 0 120 255
54.260530 -147.508754 -277.480549 0 120 255
54.695514 -149.348405 -279.081093 0 120 255
55.152266 -151.187042 -280.677804 0 120 255
55.609017 -153.025679 -282.274515 0 120 255
56.065768 -154.864316 -283.871226 0 120 255
56.664424 -156.685230 -285.439698 0 120 255
57.292944 -158.502414 -287.002227 0 120 255
57.921464 -160.319599 -288.564755 0 120 255
58.549983 -162.136783 -290.127284 0 120 255
59.310036 -163.927090 -291.660393 0 120 255
60.107648 -165.709721 -293.185101 0 120 255
60.905259 -167.492352 -294.709810 0 120 255
61.702871 -169.274983 -296.234518 0 120 255
62.621637 -171.022974 -297.728799 0 120 255
63.585184 -172.758162 -299.211834 0 120 255
64.548731 -174.493350 -300.694869 0 120 255
65.512277 -176.228539 -302.177904 0 120 255
66.586614 -177.922601 -303.629699 0 120 255
67.712379 -179.597573 -305.066993 0 120 255
68.838144 -181.272546 -306.504287 0 120 255
69.963909 -182.947518 -307.941581 0 120 255
71.190151 -184.576130 -309.346953 0 120 255
72.473795 -186.178255 -310.734089 0 120 255
73.757440 -187.780380 -312.121224 0 120 255
75.041085 -189.382505 -313.508360 0 120 255
76.414968 -190.934222 -314.863045 0 120 255
77.851427 -192.450985 -316.195227 0 120 255
79.287886 -193.967747 -317.527410 0 120 255
80.724345 -195.484510 -318.859592 0 120 255
82.240920 -196.947955 -320.158977 0 120 255
83.824304 -198.366938 -321.431013 0 120 255
85.407688 -199.785921 -322.703048 0 120 255
86.991072 -201.204905 -323.975084 0 120 255
88.644612 -202.568787 -325.214161 0 120 255
90.368079 -203.877745 -326.420385 0 120 255
92.091547 -205.186704 -327.626610 0 120 255
93.815015 -206.495663 -328.832835 0 120 255
95.598893 -207.748831 -330.006175 0 120 255
97.454510 -208.935746 -331.140465 0 120 255
99.310127 -210.122661 -332.274754 0 120 255
101.165744 -211.309576 -333.409043 0 120 255
103.072320 -212.441074 -334.510797 0 120 255
105.050938 -213.494230 -335.566554 0 120 255
107.029557 -214.547386 -336.622312 0 120 255
109.008176 -215.600542 -337.678069 0 120 255
111.028673 -216.599702 -338.701974 0 120 255
113.119765 -217.507843 -339.672186 0 120 255
115.210856 -218.415983 -340.642397 0 120 255
117.301948 -219.324124 -341.612608 0 120 255
119.426327 -220.180691 -342.552011 0 120 255
121.617892 -220.933163 -343.429233 0 120 255
123.809458 -221.685636 -344.306455 0 120 255
126.001024 -222.438108 -345.183677 0 120 255
128.217889 -223.142380 -346.031555 0 120 255
130.496326 -223.729341 -346.808016 0 120 255
132.774763 -224.316303 -347.584478 0 120 255
135.053201 -224.903264 -348.360939 0 120 255
137.349686 -225.446275 -349.109979 0 120 255
139.699702 -225.858927 -349.777688 0 120 255
142.049718 -226.271579 -350.445398 0 120 255
144.399734 -226.684231 -351.113107 0 120 255
146.761431 -227.057959 -351.755795 0 120 255
149.166004 -227.288813 -352.306637 0 120 255
151.570578 -227.519667 -352.857480 0 120 255
153.975151 -227.750520 -353.408322 0 120 255
156.386065 -227.948134 -353.937039 0 120 255
158.826440 -227.991297 -354.362946 0 120 255
161.266816 -228.034459 -354.788853 0 120 255
163.707191 -228.077622 -355.214760 0 120 255
166.149420 -228.088618 -355.621673 0 120 255
168.602926 -227.903915 -355.913028 0 120 255
171.056431 -227.719211 -356.204384 0 120 255
173.509937 -227.534508 -356.495740 0 120 255
175.963126 -227.344710 -356.786100 0 120 255
178.413712 -227.112954 -357.068260 0 120 255
180.864297 -226.881197 -357.350420 0 120 255
183.314882 -226.649441 -357.632580 0 120 255
185.765467 -226.417684 -357.914741 0 120 255
188.216050 -226.185916 -358.196914 0 120 255
190.666632 -225.954149 -358.479086 0 120 255
193.117215 -225.722381 -358.761259 0 120 255
195.567798 -225.490614 -359.043431 0 120 255
198.018381 -225.258851 -359.325596 0 120 255
200.468965 -225.027087 -359.607761 0 120 255
202.919549 -224.795324 -359.889926 0 120 255
205.370133 -224.563560 -360.172091 0 120 255
