ply
format ascii 1.0
element vertex 385
property float x
property float y
property float z
property uchar red
property uchar green
property uchar blue
end_header
77.430455 -42.474882 -360.397637 0 120 255
77.187358 -42.528754 -357.933965 0 120 255
76.944262 -42.582627 -355.470293 0 120 255
76.701165 -42.636499 -353.006621 0 120 255
76.458068 -42.690372 -350.542950 0 120 255
76.258146 -42.748593 -348.075513 0 120 255
76.059949 -42.806987 -345.607926 0 120 255
75.861752 -42.865382 -343.140339 0 120 255
75.663556 -42.923776 -340.672752 0 120 255
75.478037 -42.997923 -338.204611 0 120 255
75.293689 -43.073525 -335.736417 0 120 255
75.109342 -43.149128 -333.268224 0 120 255
74.924995 -43.224730 -330.800031 0 120 255
74.711056 -43.311331 -328.334622 0 120 255
74.492341 -43.399708 -325.869661 0 120 255
74.273627 -43.488084 -323.404700 0 120 255
74.054912 -43.576461 -320.939740 0 120 255
73.805317 -43.675693 -318.478181 0 120 255
73.548335 -43.777522 -316.017435 0 120 255
73.291354 -43.879352 -313.556690 0 120 255
73.034372 -43.981181 -311.095945 0 120 255
72.745621 -44.093767 -308.639270 0 120 255
72.446460 -44.209879 -306.183929 0 120 255
72.147299 -44.325991 -303.728589 0 120 255
71.848138 -44.442103 -301.273248 0 120 255
71.516711 -44.568898 -298.822687 0 120 255
71.171438 -44.700277 -296.374176 0 120 255
70.826164 -44.831656 -293.925666 0 120 255
70.480890 -44.963036 -291.477156 0 120 255
70.103253 -45.105021 -289.034154 0 120 255
69.707930 -45.252803 -286.594163 0 120 255
69.312607 -45.400585 -284.154172 0 120 255
68.917284 -45.548366 -281.714181 0 120 255
68.489904 -45.706653 -279.280426 0 120 255
68.040605 -45.872121 -276.850934 0 120 255
67.591307 -46.037590 -274.421443 0 120 255
67.142009 -46.203058 -271.991952 0 120 255
66.661364 -46.378884 -269.569395 0 120 255
66.154193 -46.563475 -267.152707 0 120 255
65.647022 -46.748066 -264.736019 0 120 255
65.139850 -46.932657 -262.319331 0 120 255
64.602446 -47.127387 -259.910216 0 120 255
64.033554 -47.332677 -257.508989 0 120 255
63.464662 -47.537968 -255.107761 0 120 255
62.895770 -47.743258 -252.706533 0 120 255
62.298157 -47.958379 -250.313419 0 120 255
61.663770 -48.186087 -247.930694 0 120 255
61.029383 -48.413795 -245.547969 0 120 255
60.394996 -48.641504 -243.165244 0 120 255
59.733788 -48.878624 -240.791036 0 120 255
59.030233 -49.130604 -238.430275 0 120 255
58.326678 -49.382585 -236.069513 0 120 255
57.623123 -49.634565 -233.708752 0 120 255
56.895022 -49.895408 -231.356727 0 120 255
56.118764 -50.173641 -229.021843 0 120 255
55.342506 -50.451873 -226.686958 0 120 255
54.566248 -50.730106 -224.352073 0 120 255
53.768079 -51.016505 -222.025909 0 120 255
52.915771 -51.323085 -219.721292 0 120 255
52.063463 -51.629665 -217.416676 0 120 255
51.211154 -51.936244 -215.112060 0 120 255
50.339899 -52.250134 -212.815861 0 120 255
49.408416 -52.587259 -210.546420 0 120 255
48.476933 -52.924384 -208.276979 0 120 255
47.545450 -53.261509 -206.007538 0 120 255
46.598281 -53.604914 -203.745866 0 120 255
45.584792 -53.974868 -201.517043 0 120 255
44.571303 -54.344822 -199.288220 0 120 255
43.557814 -54.714775 -197.059398 0 120 255
42.532152 -55.089797 -194.837292 0 120 255
41.434169 -55.494929 -192.655097 0 120 255
40.336185 -55.900060 -190.472901 0 120 255
39.238202 -56.305192 -188.290706 0 120 255
38.131757 -56.713996 -186.113712 0 120 255
36.947213 -57.156700 -183.984734 0 120 255
35.762669 -57.599403 -181.855757 0 120 255
34.578125 -58.042107 -179.726779 0 120 255
33.388965 -58.486905 -177.600965 0 120 255
32.116300 -58.969582 -175.532385 0 120 255
30.843635 -59.452260 -173.463805 0 120 255
29.570970 -59.934937 -171.395225 0 120 255
28.297589 -60.417955 -169.327193 0 120 255
26.935824 -60.942992 -167.326791 0 120 255
25.574059 -61.468029 -165.326389 0 120 255
24.212294 -61.993065 -163.325986 0 120 255
22.850529 -62.518102 -161.325584 0 120 255
21.402523 -63.086245 -159.399025 0 120 255
19.951370 -63.655962 -157.475160 0 120 255
18.500217 -64.225678 -155.551295 0 120 255
17.049064 -64.795394 -153.627431 0 120 255
15.515888 -65.408378 -151.782422 0 120 255
13.975840 -66.024987 -149.944020 0 120 255
12.435792 -66.641596 -148.105618 0 120 255
10.895744 -67.258205 -146.267216 0 120 255
9.278522 -67.917982 -144.512514 0 120 255
7.650957 -68.583545 -142.769030 0 120 255
6.023393 -69.249108 -141.025546 0 120 255
4.395828 -69.914671 -139.282062 0 120 255
2.696556 -70.623015 -137.626879 0 120 255
0.983852 -71.339372 -135.988235 0 120 255
-0.728852 -72.055730 -134.349591 0 120 255
-2.441556 -72.772087 -132.710946 0 120 255
-4.219903 -73.530541 -131.164876 0 120 255
-6.014251 -74.299254 -129.641369 0 120 255
-7.808598 -75.067968 -128.117861 0 120 255
-9.602945 -75.836682 -126.594354 0 120 255
-11.456330 -76.646501 -125.167315 0 120 255
-13.327627 -77.468793 -123.769546 0 120 255
-15.198925 -78.291085 -122.371777 0 120 255
-17.070222 -79.113376 -120.974007 0 120 255
-18.993436 -79.975466 -119.676123 0 120 255
-20.935669 -80.852137 -118.414831 0 120 255
-22.877902 -81.728807 -117.153539 0 120 255
-24.820135 -82.605477 -115.892247 0 120 255
-26.806716 -83.520320 -114.733719 0 120 255
-28.812481 -84.451674 -113.619644 0 120 255
-30.818245 -85.383029 -112.505569 0 120 255
-32.824010 -86.314384 -111.391493 0 120 255
-34.866169 -87.281980 -110.382455 0 120 255
-36.926599 -88.267770 -109.426148 0 120 255
-38.987029 -89.253559 -108.469841 0 120 255
-41.047459 -90.239349 -107.513534 0 120 255
-43.136020 -91.259145 -106.663856 0 120 255
-45.240749 -92.298483 -105.875460 0 120 255
-47.345478 -93.337822 -105.087064 0 120 255
-49.450207 -94.377161 -104.298667 0 120 255
-51.574586 -95.447975 -103.617761 0 120 255
-53.711749 -96.539266 -103.006783 0 120 255
-55.848912 -97.630558 -102.395805 0 120 255
-57.986075 -98.721849 -101.784827 0 120 255
-60.134275 -99.841828 -101.281404 0 120 255
-62.290525 -100.982734 -100.856440 0 120 255
-64.446776 -102.123640 -100.431476 0 120 255
-66.603026 -103.264546 -100.006512 0 120 255
-68.761680 -104.431107 -99.688342 0 120 255
-70.922285 -105.618486 -99.456833 0 120 255
-73.082889 -106.805865 -99.225324 0 120 255
-75.243493 -107.993244 -98.993815 0 120 255
-77.397957 -109.203038 -98.867461 0 120 255
-79.546916 -110.432926 -98.835383 0 120 255
-81.695874 -111.662815 -98.803305 0 120 255
-83.844832 -112.892703 -98.771226 0 120 255
-85.979316 -114.141600 -98.841780 0 120 255
-88.099545 -115.409215 -99.013404 0 120 255
-90.219775 -116.676831 -99.185028 0 120 255
-92.340004 -117.944447 -99.356651 0 120 255
-94.437767 -119.227539 -99.627479 0 120 255
-96.511343 -120.527293 -100.005104 0 120 255
-98.584919 -121.827046 -100.382728 0 120 255
-100.658495 -123.126800 -100.760352 0 120 255
-102.702083 -124.438435 -101.232862 0 120 255
-104.710518 -125.763997 -101.816600 0 120 255
-106.718953 -127.089559 -102.400339 0 120 255
-108.727388 -128.415121 -102.984077 0 120 255
-110.698933 -129.748954 -103.657514 0 120 255
-112.623522 -131.093316 -104.445121 0 120 255
-114.548111 -132.437677 -105.232728 0 120 255
-116.472701 -133.782039 -106.020335 0 120 255
-118.354254 -135.131119 -106.891638 0 120 255
-120.176438 -136.486709 -107.878400 0 120 255
-121.998621 -137.842299 -108.865162 0 120 255
-123.820805 -139.197889 -109.851923 0 120 255
-125.594700 -140.554777 -110.915641 0 120 255
-127.296446 -141.913604 -112.094337 0 120 255
-128.998193 -143.272431 -113.273033 0 120 255
-130.699939 -144.631259 -114.451729 0 120 255
-132.349174 -145.988163 -115.700010 0 120 255
-133.913387 -147.341953 -117.060953 0 120 255
-135.477600 -148.695743 -118.421896 0 120 255
-137.041814 -150.049532 -119.782839 0 120 255
-138.550438 -151.398460 -121.205496 0 120 255
-139.961343 -152.738841 -122.736641 0 120 255
-141.372248 -154.079222 -124.267785 0 120 255
-142.783153 -155.419602 -125.798930 0 120 255
-144.136628 -156.752542 -127.383590 0 120 255
-145.380114 -158.071233 -129.070739 0 120 255
-146.623600 -159.389924 -130.757889 0 120 255
-147.867086 -160.708615 -132.445038 0 120 255
-149.052595 -162.017715 -134.177371 0 120 255
-150.116518 -163.306702 -136.004461 0 120 255
-151.180441 -164.595689 -137.831551 0 120 255
-152.244365 -165.884676 -139.658641 0 120 255
-153.251092 -167.162407 -141.522661 0 120 255
-154.125549 -168.414109 -143.472082 0 120 255
-155.000006 -169.665811 -145.421503 0 120 255
-155.874463 -170.917513 -147.370925 0 120 255
-156.693801 -172.156835 -149.349324 0 120 255
-157.371267 -173.364293 -151.402314 0 120 255
-158.048732 -174.571750 -153.455303 0 120 255
-158.726197 -175.779208 -155.508292 0 120 255
-159.351854 -176.973723 -157.582839 0 120 255
-159.827276 -178.130709 -159.719901 0 120 255
-160.302698 -179.287695 -161.856963 0 120 255
-160.778120 -180.444681 -163.994026 0 120 255
-161.206160 -181.588736 -166.145968 0 120 255
-161.476990 -182.689888 -168.347284 0 120 255
-161.747820 -183.791039 -170.548601 0 120 255
-162.018650 -184.892191 -172.749917 0 120 255
-162.247484 -185.980981 -174.960369 0 120 255
-162.313586 -187.021869 -177.206223 0 120 255
-162.379687 -188.062756 -179.452077 0 120 255
-162.445789 -189.103644 -181.697931 0 120 255
-162.476051 -190.133261 -183.948262 0 120 255
-162.339579 -191.110444 -186.219422 0 120 255
-162.203106 -192.087627 -188.490581 0 120 255
-162.066634 -193.064810 -190.761741 0 120 255
-161.901027 -194.032277 -193.033915 0 120 255
-161.566206 -194.943314 -195.311980 0 120 255
-161.231384 -195.854352 -197.590046 0 120 255
-160.896562 -196.765389 -199.868111 0 120 255
-160.539636 -197.668655 -202.144985 0 120 255
-160.012542 -198.512092 -204.412685 0 120 255
-159.485448 -199.355528 -206.680385 0 120 255
-158.958354 -200.198965 -208.948085 0 120 255
-158.416276 -201.036872 -211.213653 0 120 255
-157.704546 -201.812183 -213.455084 0 120 255
-156.992816 -202.587493 -215.696515 0 120 255
-156.281087 -203.362804 -217.937945 0 120 255
-155.561370 -204.135035 -220.177529 0 120 255
-154.673931 -204.842607 -222.378317 0 120 255
-153.786491 -205.550178 -224.579106 0 120 255
-152.899052 -206.257749 -226.779895 0 120 255
-152.010298 -206.964793 -228.980260 0 120 255
-150.957056 -207.605779 -231.127700 0 120 255
-149.903814 -208.246764 -233.275139 0 120 255
-148.850573 -208.887750 -235.422579 0 120 255
-147.797331 -209.528736 -237.570018 0 120 255
-146.593768 -210.107059 -239.655125 0 120 255
-145.385336 -210.683352 -241.738213 0 120 255
-144.176903 -211.259645 -243.821300 0 120 255
-142.968471 -211.835938 -245.904388 0 120 255
-141.626333 -212.354532 -247.919180 0 120 255
-140.273764 -212.868624 -249.928643 0 120 255
-138.921194 -213.382716 -251.938106 0 120 255
-137.568624 -213.896808 -253.947569 0 120 255
-136.098451 -214.358531 -255.885159 0 120 255
-134.612998 -214.813450 -257.813411 0 120 255
-133.127546 -215.268370 -259.741663 0 120 255
-131.642093 -215.723289 -261.669915 0 120 255
-130.054348 -216.131327 -263.524864 0 120 255
-128.447252 -216.530497 -265.365946 0 120 255
-126.840156 -216.929667 -267.207028 0 120 255
-125.233060 -217.328837 -269.048110 0 120 255
-123.537995 -217.686666 -270.816327 0 120 255
-121.820304 -218.033863 -272.565804 0 120 255
-120.102614 -218.381060 -274.315281 0 120 255
-118.384923 -218.728257 -276.064758 0 120 255
-116.592448 -219.039543 -277.743393 0 120 255
-114.774865 -219.338773 -279.398244 0 120 255
-112.957283 -219.638003 -281.053095 0 120 255
-111.139700 -219.937232 -282.707947 0 120 255
-109.259299 -220.205788 -284.295275 0 120 255
-107.352070 -220.461245 -285.853766 0 120 255
-105.444840 -220.716702 -287.412258 0 120 255
-103.537611 -220.972158 -288.970749 0 120 255
-101.578280 -221.201880 -290.466072 0 120 255
-99.591112 -221.417853 -291.927645 0 120 255
-97.603944 -221.633825 -293.389218 0 120 255
-95.616776 -221.849798 -294.850791 0 120 255
-93.586956 -222.044609 -296.254296 0 120 255
-91.528921 -222.225422 -297.619389 0 120 255
-89.470887 -222.406234 -298.984481 0 120 255
-87.412852 -222.587047 -300.349574 0 120 255
-85.320423 -222.750872 -301.662258 0 120 255
-83.199981 -222.900860 -302.932261 0 120 255
-81.079539 -223.050849 -304.202263 0 120 255
-78.959097 -223.200838 -305.472266 0 120 255
-76.811351 -223.337571 -306.695821 0 120 255
-74.636266 -223.461029 -307.872868 0 120 255
-72.461181 -223.584488 -309.049916 0 120 255
-70.286097 -223.707946 -310.226963 0 120 255
-68.089665 -223.822494 -311.363428 0 120 255
-65.866887 -223.926045 -312.449803 0 120 255
-63.644109 -224.029595 -313.536178 0 120 255
-61.421330 -224.133145 -314.622554 0 120 255
-59.182492 -224.233083 -315.674735 0 120 255
-56.919034 -224.327483 -316.674496 0 120 255
-54.655576 -224.421883 -317.674258 0 120 255
-52.392118 -224.516282 -318.674019 0 120 255
-50.117032 -224.609934 -319.646213 0 120 255
-47.819483 -224.702142 -320.565147 0 120 255
-45.521933 -224.794349 -321.484081 0 120 255
-43.224383 -224.886556 -322.403015 0 120 255
-40.918340 -224.977674 -323.299748 0 120 255
-38.591161 -225.066084 -324.141236 0 120 255
-36.263983 -225.154493 -324.982724 0 120 255
-33.936805 -225.242902 -325.824212 0 120 255
-31.603714 -225.330533 -326.648589 0 120 255
-29.251061 -225.415588 -327.416356 0 120 255
-26.898408 -225.500644 -328.184123 0 120 255
-24.545755 -225.585699 -328.951890 0 120 255
-22.189367 -225.670777 -329.707628 0 120 255
-19.815693 -225.755960 -330.407694 0 120 255
-17.442019 -225.841143 -331.107760 0 120 255
-15.068345 -225.926326 -331.807827 0 120 255
-12.692501 -226.011627 -332.500147 0 120 255
-10.301273 -226.097761 -333.137555 0 120 255
-7.910046 -226.183896 -333.774963 0 120 255
-5.518818 -226.270030 -334.412371 0 120 255
-3.126558 -226.356220 -335.045696 0 120 255
-0.720537 -226.443151 -335.624648 0 120 255
1.685483 -226.530081 -336.203600 0 120 255
4.091504 -226.617012 -336.782551 0 120 255
6.497726 -226.703951 -337.360620 0 120 255
8.916117 -226.791411 -337.885420 0 120 255
11.334507 -226.878871 -338.410221 0 120 255
13.752897 -226.966331 -338.935021 0 120 255
16.171288 -227.053790 -339.459821 0 120 255
18.599663 -227.141505 -339.936146 0 120 255
21.028422 -227.229229 -340.410605 0 120 255
23.457181 -227.316953 -340.885064 0 120 255
25.885940 -227.404677 -341.359522 0 120 255
28.322660 -227.492432 -341.791008 0 120 255
30.760171 -227.580189 -342.218229 0 120 255
33.197681 -227.667946 -342.645450 0 120 255
35.635192 -227.755704 -343.072671 0 120 255
38.079013 -227.843179 -343.461921 0 120 255
40.523892 -227.930606 -343.844802 0 120 255
42.968772 -228.018034 -344.227683 0 120 255
45.413651 -228.105462 -344.610564 0 120 255
47.863406 -228.191863 -344.960768 0 120 255
50.314362 -228.278011 -345.302923 0 120 255
52.765318 -228.364159 -345.645079 0 120 255
55.216274 -228.450308 -345.987234 0 120 255
57.670881 -228.531880 -346.302959 0 120 255
60.126717 -228.611910 -346.609783 0 120 255
62.582553 -228.691941 -346.916607 0 120 255
65.038389 -228.771972 -347.223431 0 120 255
67.496940 -228.844256 -347.509359 0 120 255
69.956690 -228.913122 -347.786065 0 120 255
72.416440 -228.981987 -348.062770 0 120 255
74.876189 -229.050853 -348.339476 0 120 255
77.337923 -229.111351 -348.599645 0 120 255
79.800775 -229.167135 -348.850496 0 120 255
82.263627 -229.222920 -349.101347 0 120 255
84.726478 -229.278704 -349.352198 0 120 255
87.190739 -229.325675 -349.590356 0 120 255
89.655997 -229.366407 -349.819531 0 120 255
92.121255 -229.407140 -350.048706 0 120 255
94.586513 -229.447872 -350.277881 0 120 255
97.052726 -229.479497 -350.497690 0 120 255
99.519782 -229.503098 -350.709247 0 120 255
101.986838 -229.526699 -350.920803 0 120 255
104.453893 -229.550300 -351.132360 0 120 255
106.921540 -229.564673 -351.337418 0 120 255
109.389834 -229.568958 -351.535373 0 120 255
111.858127 -229.573242 -351.733327 0 120 255
114.326421 -229.577527 -351.931281 0 120 255
116.795011 -229.572633 -352.125133 0 120 255
119.264004 -229.555273 -352.313414 0 120 255
121.732997 -229.537913 -352.501695 0 120 255
124.201990 -229.520553 -352.689976 0 120 255
126.671039 -229.494279 -352.876084 0 120 255
129.140186 -229.452867 -353.058503 0 120 255
131.609333 -229.411456 -353.240922 0 120 255
134.078480 -229.370044 -353.423341 0 120 255
136.547488 -229.320190 -353.605096 0 120 255
139.016198 -229.252178 -353.785427 0 120 255
141.484909 -229.184165 -353.965757 0 120 255
143.953620 -229.116153 -354.146087 0 120 255
146.422041 -229.040409 -354.326831 0 120 255
148.889658 -228.943147 -354.508727 0 120 255
151.357274 -228.845885 -354.690623 0 120 255
153.824890 -228.748622 -354.872519 0 120 255
156.292114 -228.644587 -355.055509 0 120 255
158.757873 -228.515304 -355.242578 0 120 255
161.223632 -228.386020 -355.429647 0 120 255
163.689391 -228.256736 -355.616716 0 120 255
166.153721 -228.117410 -355.812634 0 120 255
168.610494 -227.924966 -356.055354 0 120 255
171.067266 -227.732522 -356.298073 0 120 255
173.524038 -227.540078 -356.540792 0 120 255
175.979936 -227.343121 -356.788035 0 120 255
178.429120 -227.111497 -357.070034 0 120 255
180.878305 -226.879873 -357.352033 0 120 255
183.327489 -226.648249 -357.634032 0 120 255
185.776673 -226.416624 -357.916031 0 120 255
188.225855 -226.184989 -358.198043 0 120 255
190.675037 -225.953354 -358.480054 0 120 255
193.124219 -225.721719 -358.762065 0 120 255
195.573401 -225.490084 -359.044076 0 120 255
198.022584 -225.258453 -359.326080 0 120 255
200.471767 -225.026822 -359.608083 0 120 255
202.920950 -224.795191 -359.890087 0 120 255
205.370133 -224.563560 -360.172091 0 120 255
