ply
format ascii 1.0
element vertex 385
property float x
property float y
property float z
property uchar red
property uchar green
property uchar blue
end_header
77.430455 -42.474882 -360.397637 0 120 255
77.187552 -42.528711 -357.935925 0 120 255
76.944648 -42.582541 -355.474213 0 120 255
76.701745 -42.636371 -353.012502 0 120 255
76.458841 -42.690200 -350.550790 0 120 255
76.213941 -42.754625 -348.089532 0 120 255
75.968955 -42.819509 -345.628293 0 120 255
75.723968 -42.884394 -343.167055 0 120 255
75.478981 -42.949279 -340.705816 0 120 255
75.067343 -43.392852 -338.310035 0 120 255
74.640551 -43.870859 -335.920206 0 120 255
74.213760 -44.348867 -333.530377 0 120 255
73.786968 -44.826874 -331.140549 0 120 255
73.228117 -45.571104 -328.851185 0 120 255
72.649750 -46.354680 -326.576669 0 120 255
72.071382 -47.138256 -324.302152 0 120 255
71.493014 -47.921832 -322.027636 0 120 255
70.818866 -48.889065 -319.854920 0 120 255
70.124554 -49.894958 -317.703633 0 120 255
69.430243 -50.900851 -315.552347 0 120 255
68.735932 -51.906745 -313.401060 0 120 255
67.982343 -53.038313 -311.335603 0 120 255
67.212160 -54.205061 -309.294172 0 120 255
66.441977 -55.371810 -307.252741 0 120 255
65.671795 -56.538558 -305.211310 0 120 255
64.876558 -57.795496 -303.235209 0 120 255
64.072371 -59.084650 -301.282444 0 120 255
63.268185 -60.373803 -299.329679 0 120 255
62.463999 -61.662957 -297.376914 0 120 255
61.664667 -63.024037 -295.472416 0 120 255
60.867491 -64.417049 -293.589346 0 120 255
60.070315 -65.810062 -291.706277 0 120 255
59.273139 -67.203074 -289.823207 0 120 255
58.505050 -68.660826 -287.978377 0 120 255
57.752731 -70.153677 -286.154278 0 120 255
57.000412 -71.646529 -284.330180 0 120 255
56.248094 -73.139381 -282.506082 0 120 255
55.542648 -74.695367 -280.717705 0 120 255
54.867884 -76.292680 -278.952709 0 120 255
54.193120 -77.889992 -277.187713 0 120 255
53.518356 -79.487305 -275.422717 0 120 255
52.901835 -81.147532 -273.696884 0 120 255
52.331007 -82.857119 -272.001775 0 120 255
51.760180 -84.566705 -270.306667 0 120 255
51.189352 -86.276292 -268.611558 0 120 255
50.682338 -88.047273 -266.962573 0 120 255
50.235088 -89.875752 -265.356785 0 120 255
49.787838 -91.704231 -263.750996 0 120 255
49.340588 -93.532709 -262.145208 0 120 255
48.958002 -95.418498 -260.593517 0 120 255
48.647636 -97.368294 -259.102243 0 120 255
48.337270 -99.318089 -257.610970 0 120 255
48.026904 -101.267884 -256.119697 0 120 255
47.778616 -103.268119 -254.689366 0 120 255
47.613139 -105.335640 -253.340329 0 120 255
47.447662 -107.403161 -251.991293 0 120 255
47.282185 -109.470681 -250.642257 0 120 255
47.174029 -111.579520 -249.358421 0 120 255
47.157606 -113.754481 -248.178930 0 120 255
47.141184 -115.929442 -246.999439 0 120 255
47.124761 -118.104402 -245.819948 0 120 255
47.159776 -120.310216 -244.706540 0 120 255
47.294297 -122.575715 -243.720972 0 120 255
47.428819 -124.841213 -242.735405 0 120 255
47.563341 -127.106712 -241.749838 0 120 255
47.743047 -129.392310 -240.827679 0 120 255
48.029652 -131.725456 -240.055533 0 120 255
48.316256 -134.058602 -239.283387 0 120 255
48.602860 -136.391749 -238.511241 0 120 255
48.928438 -138.734964 -237.796550 0 120 255
49.368707 -141.107809 -237.250938 0 120 255
49.808975 -143.480654 -236.705325 0 120 255
50.249244 -145.853500 -236.159712 0 120 255
50.722444 -148.227988 -235.662948 0 120 255
51.319255 -150.608643 -235.349545 0 120 255
51.916066 -152.989298 -235.036142 0 120 255
52.512878 -155.369953 -234.722739 0 120 255
53.136639 -157.746120 -234.447756 0 120 255
53.894504 -160.099956 -234.363955 0 120 255
54.652370 -162.453791 -234.280153 0 120 255
55.410235 -164.807627 -234.196352 0 120 255
56.188915 -167.153625 -234.139730 0 120 255
57.113878 -169.444543 -234.274126 0 120 255
58.038841 -171.735461 -234.408522 0 120 255
58.963803 -174.026379 -234.542918 0 120 255
59.903050 -176.309160 -234.693531 0 120 255
61.002034 -178.500953 -235.025501 0 120 255
62.101017 -180.692746 -235.357471 0 120 255
63.200000 -182.884539 -235.689441 0 120 255
64.306196 -185.070986 -236.028098 0 120 255
65.585960 -187.128784 -236.527692 0 120 255
66.865724 -189.186583 -237.027285 0 120 255
68.145488 -191.244381 -237.526879 0 120 255
69.425252 -193.302179 -238.026473 0 120 255
70.890559 -195.194359 -238.654403 0 120 255
72.356240 -197.086205 -239.282592 0 120 255
73.821921 -198.978051 -239.910781 0 120 255
75.287602 -200.869897 -240.538970 0 120 255
76.932862 -202.576816 -241.244779 0 120 255
78.586317 -204.275295 -241.954131 0 120 255
80.239772 -205.973774 -242.663483 0 120 255
81.893227 -207.672252 -243.372835 0 120 255
83.715521 -209.174430 -244.106557 0 120 255
85.553500 -210.658372 -244.842542 0 120 255
87.391479 -212.142313 -245.578526 0 120 255
89.229458 -213.626255 -246.314511 0 120 255
91.219962 -214.911029 -247.021598 0 120 255
93.232479 -216.167058 -247.724514 0 120 255
95.244995 -217.423088 -248.427430 0 120 255
97.257511 -218.679118 -249.130346 0 120 255
99.400327 -219.741778 -249.753930 0 120 255
101.569268 -220.765665 -250.361606 0 120 255
103.738210 -221.789552 -250.969283 0 120 255
105.907152 -222.813439 -251.576959 0 120 255
108.178642 -223.657947 -252.060516 0 120 255
110.477025 -224.455415 -252.511523 0 120 255
112.775407 -225.252882 -252.962531 0 120 255
115.073790 -226.050350 -253.413538 0 120 255
117.442438 -226.689639 -253.703904 0 120 255
119.834303 -227.276665 -253.941191 0 120 255
122.226169 -227.863690 -254.178478 0 120 255
124.618034 -228.450716 -254.415765 0 120 255
127.044988 -228.906323 -254.466201 0 120 255
129.486195 -229.308547 -254.440736 0 120 255
131.927402 -229.710771 -254.415272 0 120 255
134.368609 -230.112995 -254.389807 0 120 255
136.808866 -230.414052 -254.162908 0 120 255
139.248657 -230.665432 -253.837096 0 120 255
141.688447 -230.916811 -253.511285 0 120 255
144.128238 -231.168191 -253.185474 0 120 255
146.532372 -231.350407 -252.655516 0 120 255
148.915584 -231.492040 -252.005774 0 120 255
151.298796 -231.633673 -251.356033 0 120 255
153.682008 -231.775306 -250.706291 0 120 255
155.998447 -231.878937 -249.860968 0 120 255
158.268420 -231.956122 -248.879545 0 120 255
160.538392 -232.033307 -247.898123 0 120 255
162.808365 -232.110492 -246.916700 0 120 255
164.985645 -232.166950 -245.757096 0 120 255
167.086747 -232.206374 -244.451057 0 120 255
169.187849 -232.245798 -243.145017 0 120 255
171.288951 -232.285222 -241.838977 0 120 255
173.276476 -232.311093 -240.377805 0 120 255
175.154006 -232.323841 -238.766395 0 120 255
177.031536 -232.336588 -237.154985 0 120 255
178.909066 -232.349336 -235.543575 0 120 255
180.658504 -232.353774 -233.804603 0 120 255
182.261863 -232.348736 -231.920157 0 120 255
183.865223 -232.343697 -230.035711 0 120 255
185.468582 -232.338659 -228.151265 0 120 255
186.936748 -232.329859 -226.169125 0 120 255
188.222981 -232.315995 -224.055518 0 120 255
189.509214 -232.302131 -221.941911 0 120 255
190.795448 -232.288267 -219.828303 0 120 255
191.946739 -232.273481 -217.646610 0 120 255
192.882756 -232.257227 -215.356297 0 120 255
193.818773 -232.240972 -213.065984 0 120 255
194.754789 -232.224717 -210.775672 0 120 255
195.562735 -232.208986 -208.444478 0 120 255
196.126663 -232.194252 -206.035392 0 120 255
196.690591 -232.179518 -203.626307 0 120 255
197.254519 -232.164784 -201.217222 0 120 255
197.702670 -232.151000 -198.790427 0 120 255
197.884446 -232.139400 -196.322889 0 120 255
198.066223 -232.127799 -193.855350 0 120 255
198.247999 -232.116199 -191.387812 0 120 255
198.330158 -232.105340 -188.920618 0 120 255
198.131132 -232.096571 -186.454399 0 120 255
197.932106 -232.087803 -183.988181 0 120 255
197.733080 -232.079034 -181.521962 0 120 255
197.452841 -232.070507 -179.068521 0 120 255
196.884843 -232.062839 -176.660360 0 120 255
196.316844 -232.055171 -174.252198 0 120 255
195.748846 -232.047502 -171.844036 0 120 255
195.118695 -232.039551 -169.455475 0 120 255
194.202498 -232.030297 -167.157123 0 120 255
193.286301 -232.021043 -164.858771 0 120 255
192.370104 -232.011789 -162.560419 0 120 255
191.410110 -232.001893 -160.283297 0 120 255
190.173722 -231.987940 -158.140151 0 120 255
188.937334 -231.973988 -155.997006 0 120 255
187.700946 -231.960036 -153.853860 0 120 255
186.437322 -231.945347 -151.729084 0 120 255
184.914135 -231.923647 -149.779378 0 120 255
183.390947 -231.901946 -147.829672 0 120 255
181.867760 -231.880245 -145.879966 0 120 255
180.331316 -231.857995 -143.942158 0 120 255
178.558298 -231.825938 -142.216672 0 120 255
176.785279 -231.793881 -140.491187 0 120 255
175.012260 -231.761824 -138.765701 0 120 255
173.236907 -231.729633 -137.042956 0 120 255
171.252969 -231.685430 -135.565134 0 120 255
169.269030 -231.641228 -134.087311 0 120 255
167.285092 -231.597026 -132.609489 0 120 255
165.301154 -231.552824 -131.131667 0 120 255
163.151073 -231.496122 -129.909833 0 120 255
160.995677 -231.439020 -128.696189 0 120 255
158.840282 -231.381918 -127.482544 0 120 255
156.684886 -231.324816 -126.268900 0 120 255
154.406573 -231.256168 -125.309633 0 120 255
152.118562 -231.186610 -124.370435 0 120 255
149.830551 -231.117051 -123.431238 0 120 255
147.542540 -231.047492 -122.492040 0 120 255
145.170270 -230.968434 -121.799860 0 120 255
142.787016 -230.888138 -121.139875 0 120 255
140.403763 -230.807842 -120.479891 0 120 255
138.020509 -230.727546 -119.819907 0 120 255
135.586743 -230.640971 -119.395203 0 120 255
133.143530 -230.553223 -119.014500 0 120 255
130.700317 -230.465475 -118.633797 0 120 255
128.257104 -230.377727 -118.253095 0 120 255
125.792166 -230.287880 -118.092847 0 120 255
123.321804 -230.197510 -117.987647 0 120 255
120.851441 -230.107139 -117.882446 0 120 255
118.381079 -230.016768 -117.777245 0 120 255
115.913110 -229.927094 -117.875912 0 120 255
113.445904 -229.837642 -118.039676 0 120 255
110.978698 -229.748189 -118.203441 0 120 255
108.511493 -229.658737 -118.367205 0 120 255
106.066589 -229.570890 -118.717416 0 120 255
103.630540 -229.483680 -119.141665 0 120 255
101.194492 -229.396471 -119.565914 0 120 255
98.758444 -229.309261 -119.990164 0 120 255
96.360743 -229.224111 -120.582822 0 120 255
93.981622 -229.139960 -121.257084 0 120 255
91.602502 -229.055808 -121.931347 0 120 255
89.223382 -228.971657 -122.605609 0 120 255
86.895120 -228.889921 -123.430083 0 120 255
84.596539 -228.809594 -124.342221 0 120 255
82.297957 -228.729268 -125.254359 0 120 255
79.999376 -228.648942 -126.166497 0 120 255
77.760984 -228.571287 -127.210900 0 120 255
75.564526 -228.495493 -128.347452 0 120 255
73.368067 -228.419699 -129.484004 0 120 255
71.171609 -228.343906 -130.620556 0 120 255
69.041815 -228.270955 -131.871950 0 120 255
66.967160 -228.200357 -133.218333 0 120 255
64.892504 -228.129758 -134.564715 0 120 255
62.817849 -228.059160 -135.911097 0 120 255
60.813774 -227.991501 -137.355642 0 120 255
58.878803 -227.926722 -138.896296 0 120 255
56.943832 -227.861942 -140.436950 0 120 255
55.008861 -227.797162 -141.977603 0 120 255
53.146089 -227.735315 -143.600646 0 120 255
51.366955 -227.676867 -145.319131 0 120 255
49.587821 -227.618418 -147.037616 0 120 255
47.808687 -227.559970 -148.756101 0 120 255
46.101311 -227.504388 -150.542250 0 120 255
44.492482 -227.452741 -152.421326 0 120 255
42.883653 -227.401095 -154.300402 0 120 255
41.274824 -227.349448 -156.179478 0 120 255
39.735485 -227.300534 -158.112679 0 120 255
38.309791 -227.256086 -160.134397 0 120 255
36.884097 -227.211639 -162.156116 0 120 255
35.458404 -227.167192 -164.177834 0 120 255
34.098285 -227.125289 -166.241413 0 120 255
32.866842 -227.088381 -168.387132 0 120 255
31.635399 -227.051472 -170.532851 0 120 255
30.403956 -227.014564 -172.678570 0 120 255
29.232750 -226.979966 -174.855279 0 120 255
28.204978 -226.950872 -177.105782 0 120 255
27.177206 -226.921777 -179.356284 0 120 255
26.149434 -226.892683 -181.606787 0 120 255
25.175319 -226.865624 -183.878890 0 120 255
24.358819 -226.844544 -186.214443 0 120 255
23.542319 -226.823464 -188.549996 0 120 255
22.725819 -226.802384 -190.885549 0 120 255
21.955375 -226.783033 -193.234884 0 120 255
21.355895 -226.770102 -195.635380 0 120 255
20.756416 -226.757171 -198.035876 0 120 255
20.156936 -226.744240 -200.436372 0 120 255
19.595109 -226.732710 -202.844473 0 120 255
19.216465 -226.727991 -205.289577 0 120 255
18.837820 -226.723273 -207.734680 0 120 255
18.459175 -226.718554 -210.179783 0 120 255
18.109206 -226.714889 -212.628007 0 120 255
17.953167 -226.718342 -215.097331 0 120 255
17.797127 -226.721796 -217.566656 0 120 255
17.641087 -226.725249 -220.035980 0 120 255
17.504425 -226.729408 -222.505654 0 120 255
17.570700 -226.740955 -224.978992 0 120 255
17.636976 -226.752502 -227.452329 0 120 255
17.703251 -226.764049 -229.925667 0 120 255
17.779536 -226.775958 -232.398286 0 120 255
18.065743 -226.795457 -234.855852 0 120 255
18.351951 -226.814956 -237.313418 0 120 255
18.638158 -226.834455 -239.770983 0 120 255
18.925197 -226.853984 -242.228415 0 120 255
19.426882 -226.881194 -244.651119 0 120 255
19.928567 -226.908404 -247.073823 0 120 255
20.430253 -226.935614 -249.496527 0 120 255
20.931938 -226.962824 -251.919231 0 120 255
21.634748 -226.997181 -254.290963 0 120 255
22.345457 -227.031818 -256.660692 0 120 255
23.056166 -227.066455 -259.030421 0 120 255
23.766875 -227.101093 -261.400150 0 120 255
24.662390 -227.142212 -263.705574 0 120 255
25.573850 -227.183890 -266.005450 0 120 255
26.485311 -227.225568 -268.305325 0 120 255
27.396772 -227.267247 -270.605200 0 120 255
28.476018 -227.314764 -272.830113 0 120 255
29.578381 -227.363085 -275.044697 0 120 255
30.680745 -227.411407 -277.259281 0 120 255
31.783109 -227.459729 -279.473865 0 120 255
33.035883 -227.513214 -281.605503 0 120 255
34.317900 -227.567703 -283.721014 0 120 255
35.599916 -227.622192 -285.836526 0 120 255
36.881933 -227.676681 -287.952037 0 120 255
38.297000 -227.735687 -289.979219 0 120 255
39.746267 -227.795854 -291.983696 0 120 255
41.195534 -227.856022 -293.988173 0 120 255
42.644801 -227.916189 -295.992651 0 120 255
44.210171 -227.980243 -297.905844 0 120 255
45.813465 -228.045566 -299.789219 0 120 255
47.416760 -228.110888 -301.672595 0 120 255
49.020055 -228.176211 -303.555970 0 120 255
50.723199 -228.244839 -305.347353 0 120 255
52.466728 -228.314803 -307.101530 0 120 255
54.210257 -228.384767 -308.855707 0 120 255
55.953786 -228.454732 -310.609884 0 120 255
57.781894 -228.527495 -312.273337 0 120 255
59.651614 -228.601636 -313.892156 0 120 255
61.521334 -228.675777 -315.510974 0 120 255
63.391054 -228.749918 -317.129793 0 120 255
65.331285 -228.826516 -318.660826 0 120 255
67.313203 -228.904566 -320.139958 0 120 255
69.295122 -228.982616 -321.619090 0 120 255
71.277041 -229.060666 -323.098222 0 120 255
73.316667 -229.140718 -324.493999 0 120 255
75.396960 -229.222179 -325.831036 0 120 255
77.477254 -229.303640 -327.168073 0 120 255
79.557547 -229.385102 -328.505110 0 120 255
81.683923 -229.467127 -329.764853 0 120 255
83.848810 -229.549624 -330.960002 0 120 255
86.013698 -229.632121 -332.155150 0 120 255
88.178586 -229.714618 -333.350298 0 120 255
90.378829 -229.791864 -334.476781 0 120 255
92.614026 -229.863917 -335.535377 0 120 255
94.849223 -229.935970 -336.593973 0 120 255
97.084420 -230.008023 -337.652569 0 120 255
99.346045 -230.070084 -338.651590 0 120 255
101.638578 -230.120458 -339.580933 0 120 255
103.931111 -230.170831 -340.510277 0 120 255
106.223644 -230.221205 -341.439620 0 120 255
108.535392 -230.258806 -342.318271 0 120 255
110.873790 -230.278694 -343.126618 0 120 255
113.212187 -230.298582 -343.934965 0 120 255
115.550585 -230.318470 -344.743312 0 120 255
117.902463 -230.324378 -345.509466 0 120 255
120.276621 -230.307182 -346.205889 0 120 255
122.650778 -230.289987 -346.902312 0 120 255
125.024935 -230.272792 -347.598735 0 120 255
127.408133 -230.241698 -348.260889 0 120 255
129.809280 -230.183011 -348.855007 0 120 255
132.210426 -230.124324 -349.449125 0 120 255
134.611572 -230.065637 -350.043243 0 120 255
137.018438 -229.994167 -350.610320 0 120 255
139.439107 -229.891848 -351.112134 0 120 255
141.859775 -229.789528 -351.613947 0 120 255
144.280444 -229.687209 -352.115761 0 120 255
146.704468 -229.573984 -352.596963 0 120 255
149.138508 -229.428200 -353.016629 0 120 255
151.572548 -229.282416 -353.436295 0 120 255
154.006589 -229.136633 -353.855961 0 120 255
156.442410 -228.982276 -354.260590 0 120 255
158.884981 -228.795434 -354.608242 0 120 255
161.327552 -228.608592 -354.955895 0 120 255
163.770122 -228.421751 -355.303548 0 120 255
166.213508 -228.229090 -355.641184 0 120 255
168.660968 -228.007348 -355.928750 0 120 255
171.108428 -227.785605 -356.216317 0 120 255
173.555887 -227.563862 -356.503884 0 120 255
176.003319 -227.340909 -356.790728 0 120 255
178.450555 -227.109470 -357.072502 0 120 255
180.897791 -226.878030 -357.354277 0 120 255
183.345026 -226.646590 -357.636051 0 120 255
185.792262 -226.415150 -357.917826 0 120 255
188.239495 -226.183699 -358.199613 0 120 255
190.686729 -225.952248 -358.481400 0 120 255
193.133962 -225.720798 -358.763187 0 120 255
195.581195 -225.489347 -359.044973 0 120 255
198.028430 -225.257900 -359.326753 0 120 255
200.475664 -225.026454 -359.608532 0 120 255
202.922899 -224.795007 -359.890311 0 120 255
205.370133 -224.563560 -360.172091 0 120 255
