ply
format ascii 1.0
element vertex 385
property float x
property float y
property float z
property uchar red
property uchar green
property uchar blue
end_header
77.430455 -42.474882 -360.397637 0 120 255
77.187560 -42.528710 -357.936013 0 120 255
76.944666 -42.582537 -355.474389 0 120 255
76.701771 -42.636365 -353.012764 0 120 255
76.458876 -42.690193 -350.551140 0 120 255
76.222844 -42.750908 -348.089010 0 120 255
75.987112 -42.811923 -345.626857 0 120 255
75.751380 -42.872938 -343.164705 0 120 255
75.515647 -42.933953 -340.702552 0 120 255
75.246438 -43.004528 -338.244114 0 120 255
74.974092 -43.075999 -335.786023 0 120 255
74.701745 -43.147469 -333.327933 0 120 255
74.429399 -43.218940 -330.869843 0 120 255
74.115948 -43.293885 -328.416812 0 120 255
73.796268 -43.369357 -325.964549 0 120 255
73.476588 -43.444829 -323.512285 0 120 255
73.156908 -43.520301 -321.060021 0 120 255
72.795275 -43.600075 -318.613809 0 120 255
72.424592 -43.680777 -316.168903 0 120 255
72.053908 -43.761480 -313.723996 0 120 255
71.683224 -43.842182 -311.279089 0 120 255
71.270130 -43.928063 -308.841277 0 120 255
70.844848 -44.015432 -306.405504 0 120 255
70.419567 -44.102802 -303.969731 0 120 255
69.994286 -44.190171 -301.533958 0 120 255
69.526538 -44.283614 -299.106353 0 120 255
69.043170 -44.379290 -296.681752 0 120 255
68.559803 -44.474967 -294.257151 0 120 255
68.076435 -44.570643 -291.832550 0 120 255
67.550932 -44.673270 -289.417197 0 120 255
67.006098 -44.779085 -287.006088 0 120 255
66.461263 -44.884900 -284.594979 0 120 255
65.916428 -44.990715 -282.183870 0 120 255
65.330167 -45.104314 -279.783074 0 120 255
64.720602 -45.222291 -277.388079 0 120 255
64.111037 -45.340268 -274.993084 0 120 255
63.501473 -45.458245 -272.598089 0 120 255
62.851573 -45.584754 -270.214423 0 120 255
62.174167 -45.717083 -267.838481 0 120 255
61.496762 -45.849411 -265.462539 0 120 255
60.819357 -45.981739 -263.086597 0 120 255
60.103072 -46.123248 -260.722921 0 120 255
59.354884 -46.272290 -258.369309 0 120 255
58.606696 -46.421333 -256.015697 0 120 255
57.858508 -46.570375 -253.662085 0 120 255
57.073249 -46.729111 -251.321562 0 120 255
56.251522 -46.897381 -248.993915 0 120 255
55.429796 -47.065651 -246.666269 0 120 255
54.608070 -47.233921 -244.338622 0 120 255
53.751422 -47.412239 -242.024736 0 120 255
52.853630 -47.602397 -239.727064 0 120 255
51.955838 -47.792554 -237.429392 0 120 255
51.058046 -47.982711 -235.131719 0 120 255
50.127800 -48.183088 -232.848289 0 120 255
49.151653 -48.397919 -230.585001 0 120 255
48.175507 -48.612750 -228.321712 0 120 255
47.199361 -48.827581 -226.058424 0 120 255
46.193531 -49.052598 -223.809619 0 120 255
45.137047 -49.294999 -221.585530 0 120 255
44.080563 -49.537400 -219.361441 0 120 255
43.024079 -49.779801 -217.137352 0 120 255
41.940950 -50.032132 -214.927706 0 120 255
40.802468 -50.305096 -212.748064 0 120 255
39.663986 -50.578059 -210.568423 0 120 255
38.525504 -50.851023 -208.388781 0 120 255
37.363657 -51.133422 -206.223206 0 120 255
36.141907 -51.440012 -204.093695 0 120 255
34.920156 -51.746602 -201.964184 0 120 255
33.698405 -52.053192 -199.834673 0 120 255
32.456768 -52.368468 -197.718466 0 120 255
31.150904 -52.711792 -195.645223 0 120 255
29.845040 -53.055117 -193.571980 0 120 255
28.539177 -53.398441 -191.498737 0 120 255
27.217054 -53.749440 -189.437594 0 120 255
25.826728 -54.132630 -187.427209 0 120 255
24.436402 -54.515819 -185.416824 0 120 255
23.046076 -54.899009 -183.406439 0 120 255
21.643213 -55.288594 -181.406456 0 120 255
20.168633 -55.714759 -179.465970 0 120 255
18.694052 -56.140925 -177.525485 0 120 255
17.219472 -56.567091 -175.584999 0 120 255
15.736103 -56.998107 -173.652667 0 120 255
14.178106 -57.470310 -171.789562 0 120 255
12.620109 -57.942513 -169.926458 0 120 255
11.062113 -58.414717 -168.063353 0 120 255
9.499023 -58.889967 -166.205553 0 120 255
7.859136 -59.411171 -164.427744 0 120 255
6.219249 -59.932374 -162.649934 0 120 255
4.579362 -60.453577 -160.872125 0 120 255
2.937939 -60.975781 -159.096123 0 120 255
1.218475 -61.548799 -157.411907 0 120 255
-0.500989 -62.121817 -155.727692 0 120 255
-2.220453 -62.694835 -154.043476 0 120 255
-3.939917 -63.267854 -152.359261 0 120 255
-5.734013 -63.894044 -150.774913 0 120 255
-7.529886 -64.521500 -149.192944 0 120 255
-9.325759 -65.148956 -147.610974 0 120 255
-11.121632 -65.776413 -146.029005 0 120 255
-12.985077 -66.456941 -144.550943 0 120 255
-14.853258 -67.141190 -143.080163 0 120 255
-16.721439 -67.825438 -141.609384 0 120 255
-18.589620 -68.509686 -140.138604 0 120 255
-20.517781 -69.246444 -138.775257 0 120 255
-22.453160 -69.989520 -137.424835 0 120 255
-24.388538 -70.732595 -136.074414 0 120 255
-26.323916 -71.475671 -134.723992 0 120 255
-28.311203 -72.270206 -133.483901 0 120 255
-30.307574 -73.073746 -132.263116 0 120 255
-32.303945 -73.877285 -131.042332 0 120 255
-34.300316 -74.680825 -129.821547 0 120 255
-36.340133 -75.534281 -128.713282 0 120 255
-38.390145 -76.399453 -127.631426 0 120 255
-40.440158 -77.264624 -126.549569 0 120 255
-42.490171 -78.129796 -125.467713 0 120 255
-44.574865 -79.042850 -124.499761 0 120 255
-46.669967 -79.970276 -123.565997 0 120 255
-48.765070 -80.897703 -122.632234 0 120 255
-50.860172 -81.825129 -121.698471 0 120 255
-52.980999 -82.797923 -120.879099 0 120 255
-55.111400 -83.787602 -120.102299 0 120 255
-57.241800 -84.777280 -119.325499 0 120 255
-59.372201 -85.766959 -118.548699 0 120 255
-61.519312 -86.799036 -117.885812 0 120 255
-63.673972 -87.850267 -117.274386 0 120 255
-65.828632 -88.901499 -116.662961 0 120 255
-67.983292 -89.952730 -116.051536 0 120 255
-70.145733 -91.042972 -115.552508 0 120 255
-72.312378 -92.154288 -115.114196 0 120 255
-74.479022 -93.265604 -114.675884 0 120 255
-76.645667 -94.376919 -114.237573 0 120 255
-78.811410 -95.523494 -113.909077 0 120 255
-80.976578 -96.692598 -113.650753 0 120 255
-83.141746 -97.861703 -113.392428 0 120 255
-85.306913 -99.030808 -113.134104 0 120 255
-87.462918 -100.231111 -112.981914 0 120 255
-89.612049 -101.454817 -112.909335 0 120 255
-91.761180 -102.678523 -112.836756 0 120 255
-93.910311 -103.902229 -112.764177 0 120 255
-96.042609 -105.152860 -112.792979 0 120 255
-98.160161 -106.427078 -112.910590 0 120 255
-100.277712 -107.701296 -113.028200 0 120 255
-102.395264 -108.975513 -113.145811 0 120 255
-104.489088 -110.272251 -113.359001 0 120 255
-106.558713 -111.591958 -113.669673 0 120 255
-108.628338 -112.911664 -113.980344 0 120 255
-110.697962 -114.231371 -114.291015 0 120 255
-112.737910 -115.569170 -114.690519 0 120 255
-114.742662 -116.928426 -115.195378 0 120 255
-116.747414 -118.287682 -115.700237 0 120 255
-118.752165 -119.646937 -116.205095 0 120 255
-120.722398 -121.019944 -116.791193 0 120 255
-122.644990 -122.411929 -117.489408 0 120 255
-124.567583 -123.803914 -118.187623 0 120 255
-126.490175 -125.195899 -118.885838 0 120 255
-128.374647 -126.597501 -119.657011 0 120 255
-130.197741 -128.014587 -120.545652 0 120 255
-132.020836 -129.431673 -121.434294 0 120 255
-133.843930 -130.848758 -122.322935 0 120 255
-135.626650 -132.271652 -123.275752 0 120 255
-137.333171 -133.705507 -124.349686 0 120 255
-139.039692 -135.139362 -125.423620 0 120 255
-140.746213 -136.573216 -126.497554 0 120 255
-142.411527 -138.009500 -127.626597 0 120 255
-143.985015 -139.451197 -128.878450 0 120 255
-145.558502 -140.892894 -130.130303 0 120 255
-147.131990 -142.334591 -131.382156 0 120 255
-148.664885 -143.775880 -132.680000 0 120 255
-150.089840 -145.216082 -134.100144 0 120 255
-151.514794 -146.656285 -135.520289 0 120 255
-152.939749 -148.096487 -136.940433 0 120 255
-154.326153 -149.534060 -138.397662 0 120 255
-155.588370 -150.963163 -139.974355 0 120 255
-156.850587 -152.392265 -141.551049 0 120 255
-158.112804 -153.821368 -143.127742 0 120 255
-159.339865 -155.246316 -144.733067 0 120 255
-160.426756 -156.654700 -146.452546 0 120 255
-161.513648 -158.063084 -148.172026 0 120 255
-162.600540 -159.471468 -149.891505 0 120 255
-163.656910 -160.874897 -151.631869 0 120 255
-164.557799 -162.253085 -153.478618 0 120 255
-165.458689 -163.631274 -155.325367 0 120 255
-166.359578 -165.009462 -157.172117 0 120 255
-167.235649 -166.382638 -159.032933 0 120 255
-167.941964 -167.721532 -160.989964 0 120 255
-168.648279 -169.060426 -162.946995 0 120 255
-169.354594 -170.399320 -164.904026 0 120 255
-170.042664 -171.733871 -166.869427 0 120 255
-170.548142 -173.024957 -168.918592 0 120 255
-171.053620 -174.316044 -170.967756 0 120 255
-171.559098 -175.607130 -173.016921 0 120 255
-172.053540 -176.895221 -175.070033 0 120 255
-172.354316 -178.130730 -177.192424 0 120 255
-172.655092 -179.366239 -179.314814 0 120 255
-172.955867 -180.601748 -181.437204 0 120 255
-173.253202 -181.836215 -183.560494 0 120 255
-173.347804 -183.009314 -185.736816 0 120 255
-173.442406 -184.182414 -187.913138 0 120 255
-173.537009 -185.355513 -190.089460 0 120 255
-173.631611 -186.528612 -192.265781 0 120 255
-173.525221 -187.634947 -194.476033 0 120 255
-173.414552 -188.739861 -196.687007 0 120 255
-173.303883 -189.844775 -198.897981 0 120 255
-173.193214 -190.949688 -201.108955 0 120 255
-172.892277 -191.986059 -203.334780 0 120 255
-172.579462 -193.018151 -205.561531 0 120 255
-172.266648 -194.050243 -207.788282 0 120 255
-171.953833 -195.082335 -210.015034 0 120 255
-171.463170 -196.045599 -212.239657 0 120 255
-170.953387 -197.001463 -214.464052 0 120 255
-170.443605 -197.957328 -216.688447 0 120 255
-169.933823 -198.913192 -218.912842 0 120 255
-169.259864 -199.801294 -221.120452 0 120 255
-168.560108 -200.678748 -223.325425 0 120 255
-167.860352 -201.556202 -225.530398 0 120 255
-167.160596 -202.433656 -227.735370 0 120 255
-166.311146 -203.245629 -229.911326 0 120 255
-165.429951 -204.043715 -232.081128 0 120 255
-164.548756 -204.841801 -234.250931 0 120 255
-163.667561 -205.639888 -236.420733 0 120 255
-162.651555 -206.375813 -238.551743 0 120 255
-161.598718 -207.094755 -240.672154 0 120 255
-160.545881 -207.813697 -242.792565 0 120 255
-159.493044 -208.532640 -244.912977 0 120 255
-158.320272 -209.193583 -246.987213 0 120 255
-157.106528 -209.834712 -249.045675 0 120 255
-155.892784 -210.475841 -251.104138 0 120 255
-154.679039 -211.116970 -253.162600 0 120 255
-153.359909 -211.704913 -255.169779 0 120 255
-151.996648 -212.270585 -257.155484 0 120 255
-150.633388 -212.836257 -259.141189 0 120 255
-149.270127 -213.401929 -261.126894 0 120 255
-147.815396 -213.919673 -263.058291 0 120 255
-146.314363 -214.413155 -264.962199 0 120 255
-144.813330 -214.906636 -266.866106 0 120 255
-143.312297 -215.400118 -268.770014 0 120 255
-141.732891 -215.851187 -270.618479 0 120 255
-140.105976 -216.276546 -272.433337 0 120 255
-138.479062 -216.701904 -274.248194 0 120 255
-136.852148 -217.127263 -276.063052 0 120 255
-135.158936 -217.515818 -277.822944 0 120 255
-133.417886 -217.877817 -279.543174 0 120 255
-131.676836 -218.239815 -281.263404 0 120 255
-129.935787 -218.601813 -282.983634 0 120 255
-128.139412 -218.932547 -284.650748 0 120 255
-126.295673 -219.236514 -286.272388 0 120 255
-124.451934 -219.540481 -287.894029 0 120 255
-122.608195 -219.844448 -289.515669 0 120 255
-120.718944 -220.122493 -291.087158 0 120 255
-118.783508 -220.374230 -292.607751 0 120 255
-116.848071 -220.625967 -294.128343 0 120 255
-114.912635 -220.877705 -295.648936 0 120 255
-112.940325 -221.108557 -297.123196 0 120 255
-110.923595 -221.314248 -298.541638 0 120 255
-108.906864 -221.519939 -299.960079 0 120 255
-106.890133 -221.725629 -301.378521 0 120 255
-104.844018 -221.915065 -302.755066 0 120 255
-102.755712 -222.081161 -304.071454 0 120 255
-100.667406 -222.247257 -305.387842 0 120 255
-98.579100 -222.413352 -306.704231 0 120 255
-96.467815 -222.567351 -307.983575 0 120 255
-94.316939 -222.700506 -309.199095 0 120 255
-92.166063 -222.833661 -310.414616 0 120 255
-90.015186 -222.966817 -311.630136 0 120 255
-87.846730 -223.091514 -312.813692 0 120 255
-85.641551 -223.198545 -313.930481 0 120 255
-83.436372 -223.305577 -315.047271 0 120 255
-81.231193 -223.412608 -316.164060 0 120 255
-79.012798 -223.515797 -317.253634 0 120 255
-76.760426 -223.609108 -318.273243 0 120 255
-74.508054 -223.702419 -319.292851 0 120 255
-72.255681 -223.795730 -320.312460 0 120 255
-69.993910 -223.888405 -321.310183 0 120 255
-67.701697 -223.979017 -322.237024 0 120 255
-65.409483 -224.069630 -323.163866 0 120 255
-63.117270 -224.160243 -324.090707 0 120 255
-60.818705 -224.250696 -325.000967 0 120 255
-58.493258 -224.340476 -325.841039 0 120 255
-56.167810 -224.430256 -326.681111 0 120 255
-53.842363 -224.520036 -327.521184 0 120 255
-51.512797 -224.609631 -328.349215 0 120 255
-49.159141 -224.698149 -329.106815 0 120 255
-46.805485 -224.786668 -329.864416 0 120 255
-44.451830 -224.875186 -330.622016 0 120 255
-42.095796 -224.963638 -331.371797 0 120 255
-39.718536 -225.051505 -332.051799 0 120 255
-37.341276 -225.139371 -332.731802 0 120 255
-34.964016 -225.227238 -333.411804 0 120 255
-32.585669 -225.315142 -334.087771 0 120 255
-30.188853 -225.403687 -334.695157 0 120 255
-27.792036 -225.492232 -335.302544 0 120 255
-25.395220 -225.580778 -335.909930 0 120 255
-22.998236 -225.669330 -336.516614 0 120 255
-20.585440 -225.758592 -337.056927 0 120 255
-18.172644 -225.847854 -337.597240 0 120 255
-15.759849 -225.937116 -338.137553 0 120 255
-13.347053 -226.026378 -338.677866 0 120 255
-10.921693 -226.116118 -339.158417 0 120 255
-8.495883 -226.205875 -339.636830 0 120 255
-6.070074 -226.295631 -340.115243 0 120 255
-3.644264 -226.385388 -340.593656 0 120 255
-1.208828 -226.475418 -341.020029 0 120 255
1.227439 -226.565472 -341.441908 0 120 255
3.663706 -226.655525 -341.863787 0 120 255
6.099973 -226.745578 -342.285665 0 120 255
8.543532 -226.835747 -342.662603 0 120 255
10.988128 -226.925931 -343.033152 0 120 255
13.432724 -227.016116 -343.403700 0 120 255
15.877319 -227.106301 -343.774249 0 120 255
18.327352 -227.196449 -344.106506 0 120 255
20.778495 -227.286591 -344.430951 0 120 255
23.229637 -227.376732 -344.755395 0 120 255
25.680779 -227.466874 -345.079840 0 120 255
28.135911 -227.556891 -345.372115 0 120 255
30.592133 -227.646873 -345.655608 0 120 255
33.048354 -227.736856 -345.939101 0 120 255
35.504575 -227.826839 -346.222594 0 120 255
37.963662 -227.916558 -346.479659 0 120 255
40.423753 -228.006184 -346.727467 0 120 255
42.883844 -228.095810 -346.975275 0 120 255
45.343935 -228.185437 -347.223083 0 120 255
47.806057 -228.274622 -347.449547 0 120 255
50.269068 -228.363614 -347.666679 0 120 255
52.732079 -228.452606 -347.883810 0 120 255
55.195090 -228.541598 -348.100942 0 120 255
57.659588 -228.629611 -348.300504 0 120 255
60.124882 -228.717101 -348.490651 0 120 255
62.590177 -228.804590 -348.680797 0 120 255
65.055472 -228.892079 -348.870944 0 120 255
67.521840 -228.976251 -349.047893 0 120 255
69.988904 -229.058271 -349.216280 0 120 255
72.455969 -229.140291 -349.384668 0 120 255
74.923033 -229.222311 -349.553055 0 120 255
77.390861 -229.297711 -349.712850 0 120 255
79.859285 -229.367955 -349.865950 0 120 255
82.327708 -229.438199 -350.019050 0 120 255
84.796132 -229.508443 -350.172151 0 120 255
87.265066 -229.570061 -350.320346 0 120 255
89.734477 -229.623647 -350.463974 0 120 255
92.203887 -229.677233 -350.607602 0 120 255
94.673297 -229.730819 -350.751230 0 120 255
97.142987 -229.774849 -350.892928 0 120 255
99.612986 -229.808257 -351.032483 0 120 255
102.082985 -229.841666 -351.172037 0 120 255
104.552985 -229.875074 -351.311592 0 120 255
107.023040 -229.898320 -351.451727 0 120 255
109.493169 -229.908064 -351.592634 0 120 255
111.963298 -229.917809 -351.733542 0 120 255
114.433428 -229.927554 -351.874449 0 120 255
116.903390 -229.926861 -352.017940 0 120 255
119.373086 -229.909530 -352.165549 0 120 255
121.842782 -229.892198 -352.313159 0 120 255
124.312479 -229.874866 -352.460768 0 120 255
126.781782 -229.847146 -352.612489 0 120 255
129.250328 -229.799399 -352.772137 0 120 255
131.718875 -229.751653 -352.931785 0 120 255
134.187421 -229.703907 -353.091432 0 120 255
136.655353 -229.646125 -353.256232 0 120 255
139.121837 -229.564677 -353.433182 0 120 255
141.588321 -229.483229 -353.610132 0 120 255
144.054805 -229.401782 -353.787082 0 120 255
146.520471 -229.310954 -353.969768 0 120 255
148.983735 -229.192597 -354.169289 0 120 255
151.447000 -229.074239 -354.368810 0 120 255
153.910264 -228.955882 -354.568331 0 120 255
156.372547 -228.829092 -354.773696 0 120 255
158.831155 -228.670699 -355.000961 0 120 255
161.289763 -228.512306 -355.228225 0 120 255
163.748370 -228.353913 -355.455489 0 120 255
166.205504 -228.186745 -355.690709 0 120 255
168.655302 -227.975906 -355.965526 0 120 255
171.105100 -227.765068 -356.240343 0 120 255
173.554898 -227.554229 -356.515161 0 120 255
176.004364 -227.340810 -356.790848 0 120 255
178.451513 -227.109379 -357.072612 0 120 255
180.898662 -226.877948 -357.354377 0 120 255
183.345810 -226.646516 -357.636141 0 120 255
185.792959 -226.415084 -357.917907 0 120 255
188.240105 -226.183641 -358.199683 0 120 255
190.687251 -225.952199 -358.481460 0 120 255
193.134397 -225.720756 -358.763237 0 120 255
195.581543 -225.489314 -359.045014 0 120 255
198.028691 -225.257876 -359.326783 0 120 255
200.475838 -225.026437 -359.608552 0 120 255
202.922986 -224.794999 -359.890321 0 120 255
205.370133 -224.563560 -360.172091 0 120 255
