ply
format ascii 1.0
element vertex 385
property float x
property float y
property float z
property uchar red
property uchar green
property uchar blue
end_header
77.430455 -42.474882 -360.397637 0 120 255
77.187563 -42.528709 -357.936035 0 120 255
76.944670 -42.582536 -355.474434 0 120 255
76.701778 -42.636363 -353.012833 0 120 255
76.458885 -42.690191 -350.551231 0 120 255
76.213981 -42.753359 -348.090052 0 120 255
75.968990 -42.816934 -345.628891 0 120 255
75.723999 -42.880510 -343.167730 0 120 255
75.479007 -42.944085 -340.706569 0 120 255
75.070440 -43.426776 -338.318583 0 120 255
74.646933 -43.947748 -335.937279 0 120 255
74.223425 -44.468719 -333.555976 0 120 255
73.799917 -44.989690 -331.174673 0 120 255
73.243866 -45.813285 -328.912911 0 120 255
72.668158 -46.681761 -326.668877 0 120 255
72.092449 -47.550237 -324.424844 0 120 255
71.516741 -48.418713 -322.180811 0 120 255
70.839921 -49.498582 -320.063698 0 120 255
70.141740 -50.623109 -317.973397 0 120 255
69.443560 -51.747636 -315.883096 0 120 255
68.745379 -52.872163 -313.792795 0 120 255
67.977732 -54.140190 -311.814530 0 120 255
67.190563 -55.448543 -309.867750 0 120 255
66.403395 -56.756896 -307.920969 0 120 255
65.616227 -58.065248 -305.974188 0 120 255
64.790016 -59.472062 -304.116021 0 120 255
63.949801 -60.914195 -302.289641 0 120 255
63.109585 -62.356328 -300.463261 0 120 255
62.269369 -63.798461 -298.636880 0 120 255
61.418056 -65.312643 -296.876313 0 120 255
60.561795 -66.858945 -295.145088 0 120 255
59.705533 -68.405248 -293.413864 0 120 255
58.849272 -69.951551 -291.682639 0 120 255
58.006286 -71.556630 -290.000019 0 120 255
57.170527 -73.193707 -288.343861 0 120 255
56.334768 -74.830784 -286.687702 0 120 255
55.499009 -76.467862 -285.031544 0 120 255
54.696475 -78.158289 -283.414080 0 120 255
53.915770 -79.883768 -281.822037 0 120 255
53.135065 -81.609247 -280.229995 0 120 255
52.354361 -83.334725 -278.637953 0 120 255
51.621929 -85.111676 -277.081531 0 120 255
50.927488 -86.929134 -275.553142 0 120 255
50.233046 -88.746591 -274.024753 0 120 255
49.538605 -90.564049 -272.496363 0 120 255
48.902541 -92.431559 -271.005618 0 120 255
48.321279 -94.346057 -269.550210 0 120 255
47.740017 -96.260554 -268.094803 0 120 255
47.158755 -98.175051 -266.639396 0 120 255
46.641388 -100.136809 -265.226554 0 120 255
46.195480 -102.151422 -263.861315 0 120 255
45.749571 -104.166034 -262.496076 0 120 255
45.303663 -106.180647 -261.130838 0 120 255
44.923237 -108.237560 -259.813814 0 120 255
44.630174 -110.350907 -258.561115 0 120 255
44.337112 -112.464254 -257.308417 0 120 255
44.044050 -114.577601 -256.055718 0 120 255
43.814946 -116.726138 -254.855844 0 120 255
43.688063 -118.930917 -253.740394 0 120 255
43.561179 -121.135695 -252.624944 0 120 255
43.434296 -123.340473 -251.509494 0 120 255
43.367543 -125.571725 -250.449189 0 120 255
43.416755 -127.854031 -249.495233 0 120 255
43.465966 -130.136338 -248.541277 0 120 255
43.515178 -132.418644 -247.587322 0 120 255
43.619106 -134.717964 -246.687890 0 120 255
43.851807 -137.057326 -245.916780 0 120 255
44.084508 -139.396688 -245.145669 0 120 255
44.317210 -141.736050 -244.374558 0 120 255
44.598164 -144.083193 -243.654249 0 120 255
45.020003 -146.453058 -243.082260 0 120 255
45.441842 -148.822922 -242.510272 0 120 255
45.863680 -151.192787 -241.938284 0 120 255
46.326619 -153.562393 -241.410572 0 120 255
46.942103 -155.931045 -241.047189 0 120 255
47.557587 -158.299696 -240.683806 0 120 255
48.173071 -160.668347 -240.320423 0 120 255
48.822011 -163.030745 -239.992627 0 120 255
49.634777 -165.362529 -239.839091 0 120 255
50.447543 -167.694312 -239.685555 0 120 255
51.260309 -170.026095 -239.532018 0 120 255
52.098506 -172.348350 -239.404148 0 120 255
53.111272 -174.605194 -239.452456 0 120 255
54.124038 -176.862039 -239.500765 0 120 255
55.136804 -179.118883 -239.549074 0 120 255
56.166679 -181.366072 -239.613009 0 120 255
57.380797 -183.509288 -239.845217 0 120 255
58.594915 -185.652503 -240.077426 0 120 255
59.809032 -187.795719 -240.309634 0 120 255
61.031782 -189.932442 -240.548548 0 120 255
62.446538 -191.924738 -240.936615 0 120 255
63.861294 -193.917034 -241.324683 0 120 255
65.276050 -195.909331 -241.712750 0 120 255
66.691062 -197.901387 -242.100971 0 120 255
68.302712 -199.709094 -242.607086 0 120 255
69.914362 -201.516802 -243.113201 0 120 255
71.526012 -203.324509 -243.619316 0 120 255
73.137663 -205.132217 -244.125432 0 120 255
74.930814 -206.736073 -244.700160 0 120 255
76.731568 -208.331390 -245.277763 0 120 255
78.532322 -209.926707 -245.855365 0 120 255
80.333076 -211.522023 -246.432968 0 120 255
82.295697 -212.904132 -247.027008 0 120 255
84.272687 -214.267315 -247.622507 0 120 255
86.249676 -215.630499 -248.218006 0 120 255
88.226665 -216.993682 -248.813505 0 120 255
90.341844 -218.144570 -249.373599 0 120 255
92.476346 -219.265772 -249.928741 0 120 255
94.610848 -220.386974 -250.483883 0 120 255
96.745350 -221.508176 -251.039026 0 120 255
98.990599 -222.428169 -251.510347 0 120 255
101.257526 -223.308776 -251.965262 0 120 255
103.524453 -224.189384 -252.420176 0 120 255
105.791380 -225.069991 -252.875091 0 120 255
108.138589 -225.769716 -253.204052 0 120 255
110.506451 -226.422907 -253.500610 0 120 255
112.874313 -227.076098 -253.797168 0 120 255
115.242175 -227.729289 -254.093727 0 120 255
117.657894 -228.229526 -254.230919 0 120 255
120.089182 -228.680005 -254.316267 0 120 255
122.520469 -229.130484 -254.401614 0 120 255
124.951757 -229.580964 -254.486962 0 120 255
127.397857 -229.911708 -254.389977 0 120 255
129.849898 -230.194434 -254.219868 0 120 255
132.301939 -230.477159 -254.049758 0 120 255
134.753980 -230.759884 -253.879649 0 120 255
137.188585 -230.959003 -253.515523 0 120 255
139.614719 -231.117495 -253.057121 0 120 255
142.040852 -231.275988 -252.598720 0 120 255
144.466986 -231.434480 -252.140319 0 120 255
146.845742 -231.546662 -251.487762 0 120 255
149.196944 -231.631907 -250.722281 0 120 255
151.548145 -231.717153 -249.956801 0 120 255
153.899347 -231.802399 -249.191320 0 120 255
156.177207 -231.874043 -248.242373 0 120 255
158.404401 -231.936290 -247.166684 0 120 255
160.631595 -231.998537 -246.090996 0 120 255
162.858789 -232.060784 -245.015307 0 120 255
164.990156 -232.112923 -243.772150 0 120 255
167.043241 -232.156804 -242.392190 0 120 255
169.096327 -232.200685 -241.012230 0 120 255
171.149412 -232.244566 -239.632269 0 120 255
173.088413 -232.280972 -238.106718 0 120 255
174.917486 -232.310175 -236.440881 0 120 255
176.746560 -232.339378 -234.775044 0 120 255
178.575633 -232.368581 -233.109207 0 120 255
180.278053 -232.393648 -231.323709 0 120 255
181.836586 -232.414015 -229.402268 0 120 255
183.395120 -232.434381 -227.480828 0 120 255
184.953653 -232.454748 -225.559387 0 120 255
186.379409 -232.472990 -223.546111 0 120 255
187.626971 -232.488382 -221.409589 0 120 255
188.874533 -232.503773 -219.273067 0 120 255
190.122095 -232.519165 -217.136545 0 120 255
191.237299 -232.533388 -214.935854 0 120 255
192.141756 -232.545751 -212.632990 0 120 255
193.046212 -232.558115 -210.330126 0 120 255
193.950669 -232.570478 -208.027263 0 120 255
194.729251 -232.581889 -205.685878 0 120 255
195.268312 -232.591488 -203.271195 0 120 255
195.807374 -232.601088 -200.856512 0 120 255
196.346436 -232.610687 -198.441828 0 120 255
196.771216 -232.619120 -196.010733 0 120 255
196.933301 -232.624873 -193.541914 0 120 255
197.095385 -232.630626 -191.073094 0 120 255
197.257470 -232.636379 -188.604274 0 120 255
197.320701 -232.640613 -186.136525 0 120 255
197.105098 -232.640561 -183.671796 0 120 255
196.889496 -232.640510 -181.207066 0 120 255
196.673893 -232.640459 -178.742337 0 120 255
196.377236 -232.638604 -176.290916 0 120 255
195.793592 -232.630361 -173.886614 0 120 255
195.209947 -232.622119 -171.482312 0 120 255
194.626303 -232.613876 -169.078010 0 120 255
193.980303 -232.603745 -166.693855 0 120 255
193.047600 -232.584928 -164.402330 0 120 255
192.114897 -232.566111 -162.110805 0 120 255
191.182195 -232.547294 -159.819280 0 120 255
190.205363 -232.526767 -157.549598 0 120 255
188.950454 -232.495466 -155.417557 0 120 255
187.695545 -232.464164 -153.285516 0 120 255
186.440636 -232.432862 -151.153475 0 120 255
185.158201 -232.400264 -149.040413 0 120 255
183.614120 -232.355344 -147.107753 0 120 255
182.070039 -232.310423 -145.175094 0 120 255
180.525959 -232.265502 -143.242434 0 120 255
178.968451 -232.219851 -141.322138 0 120 255
177.172601 -232.161230 -139.621297 0 120 255
175.376751 -232.102609 -137.920455 0 120 255
173.580901 -232.043989 -136.219613 0 120 255
171.782638 -231.985225 -134.521696 0 120 255
169.775038 -231.914042 -133.077448 0 120 255
167.767439 -231.842859 -131.633200 0 120 255
165.759839 -231.771676 -130.188952 0 120 255
163.752239 -231.700492 -128.744704 0 120 255
161.579140 -231.619512 -127.565993 0 120 255
159.400812 -231.538222 -126.395669 0 120 255
157.222485 -231.456932 -125.225346 0 120 255
155.044158 -231.375642 -124.055022 0 120 255
152.745225 -231.288706 -123.148305 0 120 255
150.436837 -231.201327 -122.262256 0 120 255
148.128449 -231.113948 -121.376206 0 120 255
145.820060 -231.026569 -120.490157 0 120 255
143.431198 -230.937008 -119.859782 0 120 255
141.031897 -230.847164 -119.262576 0 120 255
138.632595 -230.757320 -118.665370 0 120 255
136.233294 -230.667476 -118.068163 0 120 255
133.788638 -230.577062 -117.713921 0 120 255
131.335539 -230.486541 -117.404914 0 120 255
128.882440 -230.396021 -117.095908 0 120 255
126.429340 -230.305501 -116.786901 0 120 255
123.960813 -230.215295 -116.704578 0 120 255
121.488450 -230.125168 -116.678605 0 120 255
119.016087 -230.035041 -116.652631 0 120 255
116.543724 -229.944914 -116.626657 0 120 255
114.080704 -229.855883 -116.808815 0 120 255
111.620655 -229.767201 -117.057146 0 120 255
109.160606 -229.678519 -117.305476 0 120 255
106.700556 -229.589837 -117.553807 0 120 255
104.269729 -229.502919 -117.990332 0 120 255
101.850457 -229.416697 -118.501279 0 120 255
99.431186 -229.330476 -119.012225 0 120 255
97.011914 -229.244255 -119.523171 0 120 255
94.637247 -229.160263 -120.201935 0 120 255
92.284108 -229.077346 -120.961697 0 120 255
89.930969 -228.994429 -121.721458 0 120 255
87.577830 -228.911512 -122.481219 0 120 255
85.280688 -228.831180 -123.388712 0 120 255
83.016105 -228.752350 -124.382103 0 120 255
80.751522 -228.673520 -125.375494 0 120 255
78.486939 -228.594690 -126.368885 0 120 255
76.286292 -228.518671 -127.490694 0 120 255
74.130037 -228.444604 -128.701665 0 120 255
71.973781 -228.370536 -129.912637 0 120 255
69.817526 -228.296469 -131.123609 0 120 255
67.730204 -228.225317 -132.444768 0 120 255
65.699716 -228.156568 -133.856777 0 120 255
63.669228 -228.087818 -135.268785 0 120 255
61.638740 -228.019069 -136.680794 0 120 255
59.679665 -227.953270 -138.185987 0 120 255
57.790306 -227.890351 -139.782151 0 120 255
55.900947 -227.827432 -141.378314 0 120 255
54.011587 -227.764513 -142.974478 0 120 255
52.194010 -227.704496 -144.648180 0 120 255
50.459374 -227.647831 -146.411472 0 120 255
48.724738 -227.591167 -148.174765 0 120 255
46.990101 -227.534503 -149.938058 0 120 255
45.325846 -227.480640 -151.764650 0 120 255
43.758032 -227.430615 -153.677980 0 120 255
42.190218 -227.380590 -155.591310 0 120 255
40.622404 -227.330566 -157.504640 0 120 255
39.122057 -227.283189 -159.468435 0 120 255
37.731841 -227.240137 -161.514608 0 120 255
36.341625 -227.197084 -163.560781 0 120 255
34.951410 -227.154032 -165.606953 0 120 255
33.624457 -227.113427 -167.692159 0 120 255
32.421463 -227.077618 -169.853848 0 120 255
31.218469 -227.041809 -172.015537 0 120 255
30.015474 -227.006000 -174.177225 0 120 255
28.870411 -226.972407 -176.367906 0 120 255
27.863158 -226.944087 -178.627555 0 120 255
26.855904 -226.915767 -180.887204 0 120 255
25.848651 -226.887447 -183.146853 0 120 255
24.892985 -226.861085 -185.426841 0 120 255
24.088788 -226.840472 -187.766545 0 120 255
23.284590 -226.819859 -190.106250 0 120 255
22.480392 -226.799247 -192.445954 0 120 255
21.720567 -226.780299 -194.798766 0 120 255
21.125476 -226.767532 -197.200241 0 120 255
20.530386 -226.754764 -199.601715 0 120 255
19.935295 -226.741997 -202.003189 0 120 255
19.376616 -226.730583 -204.412006 0 120 255
18.995233 -226.725763 -206.856571 0 120 255
18.613849 -226.720943 -209.301136 0 120 255
18.232466 -226.716123 -211.745701 0 120 255
17.878949 -226.712330 -214.193364 0 120 255
17.714255 -226.715495 -216.662016 0 120 255
17.549561 -226.718660 -219.130667 0 120 255
17.384866 -226.721825 -221.599319 0 120 255
17.239090 -226.725681 -224.068396 0 120 255
17.292216 -226.736797 -226.541942 0 120 255
17.345342 -226.747914 -229.015488 0 120 255
17.398467 -226.759031 -231.489034 0 120 255
17.461392 -226.770500 -233.961935 0 120 255
17.731606 -226.789437 -236.421204 0 120 255
18.001819 -226.808375 -238.880472 0 120 255
18.272033 -226.827312 -241.339741 0 120 255
18.542983 -226.846275 -243.798895 0 120 255
19.027526 -226.872892 -246.224979 0 120 255
19.512068 -226.899508 -248.651064 0 120 255
19.996611 -226.926125 -251.077148 0 120 255
20.481153 -226.952741 -253.503233 0 120 255
21.167208 -226.986509 -255.879753 0 120 255
21.861277 -227.020562 -258.254302 0 120 255
22.555345 -227.054614 -260.628852 0 120 255
23.249413 -227.088667 -263.003401 0 120 255
24.130038 -227.129282 -265.314429 0 120 255
25.026862 -227.170466 -267.619941 0 120 255
25.923685 -227.211650 -269.925454 0 120 255
26.820508 -227.252835 -272.230966 0 120 255
27.887953 -227.299941 -274.461416 0 120 255
28.979004 -227.347867 -276.681480 0 120 255
30.070055 -227.395793 -278.901545 0 120 255
31.161106 -227.443719 -281.121609 0 120 255
32.406114 -227.496956 -283.257608 0 120 255
33.681145 -227.551227 -285.377213 0 120 255
34.956176 -227.605499 -287.496818 0 120 255
36.231207 -227.659771 -289.616423 0 120 255
37.643169 -227.718679 -291.645542 0 120 255
39.090409 -227.778781 -293.651348 0 120 255
40.537649 -227.838883 -295.657155 0 120 255
41.984890 -227.898985 -297.662961 0 120 255
43.552065 -227.963113 -299.574400 0 120 255
45.158482 -228.028557 -301.454963 0 120 255
46.764899 -228.094002 -303.335526 0 120 255
48.371316 -228.159447 -305.216089 0 120 255
50.081047 -228.228311 -307.000860 0 120 255
51.832615 -228.298560 -308.746841 0 120 255
53.584183 -228.368809 -310.492822 0 120 255
55.335751 -228.439058 -312.238803 0 120 255
57.174739 -228.512169 -313.889848 0 120 255
59.056774 -228.586690 -315.494145 0 120 255
60.938808 -228.661211 -317.098441 0 120 255
62.820843 -228.735732 -318.702738 0 120 255
64.775415 -228.812696 -320.215012 0 120 255
66.772899 -228.891105 -321.672848 0 120 255
68.770383 -228.969514 -323.130684 0 120 255
70.767867 -229.047924 -324.588519 0 120 255
72.824275 -229.128376 -325.959017 0 120 255
74.922219 -229.210269 -327.267947 0 120 255
77.020163 -229.292162 -328.576878 0 120 255
79.118107 -229.374056 -329.885809 0 120 255
81.262652 -229.456760 -331.113891 0 120 255
83.446140 -229.540142 -332.274409 0 120 255
85.629628 -229.623524 -333.434927 0 120 255
87.813116 -229.706906 -334.595445 0 120 255
90.031962 -229.785699 -335.684278 0 120 255
92.285753 -229.859957 -336.702259 0 120 255
94.539544 -229.934216 -337.720240 0 120 255
96.793336 -230.008474 -338.738222 0 120 255
99.073061 -230.072942 -339.694644 0 120 255
101.383101 -230.125967 -340.579111 0 120 255
103.693140 -230.178991 -341.463578 0 120 255
106.003179 -230.232016 -342.348045 0 120 255
108.331626 -230.271970 -343.180946 0 120 255
110.685579 -230.293814 -343.942395 0 120 255
113.039531 -230.315658 -344.703845 0 120 255
115.393484 -230.337502 -345.465294 0 120 255
117.759974 -230.344911 -346.184686 0 120 255
120.147158 -230.328492 -346.834652 0 120 255
122.534342 -230.312074 -347.484619 0 120 255
124.921527 -230.295655 -348.134585 0 120 255
127.316804 -230.264881 -348.751308 0 120 255
129.728124 -230.205649 -349.302126 0 120 255
132.139445 -230.146418 -349.852945 0 120 255
134.550765 -230.087186 -350.403764 0 120 255
136.966952 -230.014843 -350.929282 0 120 255
139.394863 -229.910912 -351.393846 0 120 255
141.822775 -229.806981 -351.858409 0 120 255
144.250686 -229.703050 -352.322973 0 120 255
146.681258 -229.588079 -352.769169 0 120 255
149.119752 -229.440223 -353.160655 0 120 255
151.558246 -229.292368 -353.552141 0 120 255
153.996740 -229.144513 -353.943627 0 120 255
156.436500 -228.988158 -354.322609 0 120 255
158.881045 -228.799702 -354.654361 0 120 255
161.325590 -228.611245 -354.986113 0 120 255
163.770135 -228.422789 -355.317865 0 120 255
166.215154 -228.228772 -355.642189 0 120 255
168.662532 -228.007081 -355.929537 0 120 255
171.109910 -227.785389 -356.216884 0 120 255
173.557288 -227.563697 -356.504232 0 120 255
176.004635 -227.340785 -356.790879 0 120 255
178.451761 -227.109355 -357.072641 0 120 255
180.898887 -226.877926 -357.354403 0 120 255
183.346013 -226.646497 -357.636165 0 120 255
185.793139 -226.415067 -357.917927 0 120 255
188.240263 -226.183626 -358.199702 0 120 255
190.687386 -225.952186 -358.481476 0 120 255
193.134510 -225.720746 -358.763250 0 120 255
195.581634 -225.489305 -359.045024 0 120 255
198.028759 -225.257869 -359.326791 0 120 255
200.475883 -225.026433 -359.608557 0 120 255
202.923008 -224.794997 -359.890324 0 120 255
205.370133 -224.563560 -360.172091 0 120 255
