ply
format ascii 1.0
element vertex 385
property float x
property float y
property float z
property uchar red
property uchar green
property uchar blue
end_header
77.430455 -42.474882 -360.397637 0 120 255
77.187595 -42.528702 -357.936368 0 120 255
76.944736 -42.582522 -355.475099 0 120 255
76.701876 -42.636342 -353.013829 0 120 255
76.459016 -42.690162 -350.552560 0 120 255
76.213986 -42.749248 -348.091628 0 120 255
75.968861 -42.808568 -345.630710 0 120 255
75.723735 -42.867887 -343.169792 0 120 255
75.478609 -42.927206 -340.708874 0 120 255
75.176127 -43.234674 -338.274200 0 120 255
74.868348 -43.565058 -335.841950 0 120 255
74.560568 -43.895442 -333.409699 0 120 255
74.252789 -44.225827 -330.977449 0 120 255
73.903862 -44.782951 -328.594289 0 120 255
73.548909 -45.373283 -326.218317 0 120 255
73.193956 -45.963615 -323.842346 0 120 255
72.839003 -46.553947 -321.466375 0 120 255
72.456998 -47.352690 -319.158621 0 120 255
72.069410 -48.194445 -316.864945 0 120 255
71.681822 -49.036200 -314.571270 0 120 255
71.294233 -49.877954 -312.277594 0 120 255
70.893223 -50.908349 -310.067269 0 120 255
70.488549 -51.990255 -307.879704 0 120 255
70.083874 -53.072161 -305.692140 0 120 255
69.679199 -54.154068 -303.504575 0 120 255
69.273946 -55.403919 -301.411623 0 120 255
68.868493 -56.712151 -299.351560 0 120 255
68.463040 -58.020384 -297.291497 0 120 255
68.057587 -59.328616 -295.231435 0 120 255
67.663323 -60.783699 -293.273593 0 120 255
67.273886 -62.302141 -291.359854 0 120 255
66.884449 -63.820584 -289.446115 0 120 255
66.495012 -65.339026 -287.532377 0 120 255
66.127238 -66.983265 -285.725057 0 120 255
65.770865 -68.693716 -283.973749 0 120 255
65.414492 -70.404166 -282.222441 0 120 255
65.058119 -72.114617 -280.471133 0 120 255
64.732392 -73.930275 -278.827340 0 120 255
64.426109 -75.812687 -277.251764 0 120 255
64.119825 -77.695099 -275.676188 0 120 255
63.813542 -79.577511 -274.100613 0 120 255
63.545269 -81.545373 -272.630873 0 120 255
63.305840 -83.578081 -271.241452 0 120 255
63.066410 -85.610790 -269.852030 0 120 255
62.826981 -87.643498 -268.462608 0 120 255
62.631212 -89.743064 -267.174932 0 120 255
62.474884 -91.903026 -265.979169 0 120 255
62.318556 -94.062987 -264.783406 0 120 255
62.162227 -96.222949 -263.587642 0 120 255
62.053457 -98.432623 -262.487486 0 120 255
61.995721 -100.695644 -261.489925 0 120 255
61.937986 -102.958664 -260.492365 0 120 255
61.880250 -105.221685 -259.494804 0 120 255
61.872214 -107.518975 -258.585061 0 120 255
61.927561 -109.859971 -257.787315 0 120 255
61.982908 -112.200967 -256.989569 0 120 255
62.038255 -114.541962 -256.191823 0 120 255
62.143729 -116.903687 -255.472830 0 120 255
62.325409 -119.296926 -254.873561 0 120 255
62.507089 -121.690165 -254.274293 0 120 255
62.688769 -124.083404 -253.675025 0 120 255
62.919378 -126.485906 -253.144581 0 120 255
63.239181 -128.905294 -252.739599 0 120 255
63.558983 -131.324682 -252.334618 0 120 255
63.878785 -133.744071 -251.929636 0 120 255
64.244814 -136.163448 -251.583056 0 120 255
64.712833 -138.582803 -251.365331 0 120 255
65.180851 -141.002157 -251.147605 0 120 255
65.648870 -143.421512 -250.929879 0 120 255
66.159070 -145.833858 -250.760030 0 120 255
66.783507 -148.227220 -250.719841 0 120 255
67.407945 -150.620583 -250.679653 0 120 255
68.032382 -153.013946 -250.639465 0 120 255
68.693857 -155.395591 -250.636931 0 120 255
69.481021 -157.737472 -250.762182 0 120 255
70.268186 -160.079354 -250.887433 0 120 255
71.055350 -162.421235 -251.012684 0 120 255
71.873483 -164.748972 -251.165961 0 120 255
72.827391 -167.014700 -251.442111 0 120 255
73.781299 -169.280428 -251.718261 0 120 255
74.735207 -171.546156 -251.994411 0 120 255
75.713226 -173.797632 -252.289728 0 120 255
76.834599 -175.964367 -252.698999 0 120 255
77.955973 -178.131102 -253.108270 0 120 255
79.077347 -180.297837 -253.517542 0 120 255
80.215751 -182.452262 -253.938437 0 120 255
81.503569 -184.498683 -254.461320 0 120 255
82.791388 -186.545104 -254.984203 0 120 255
84.079207 -188.591525 -255.507086 0 120 255
85.377051 -190.629324 -256.035756 0 120 255
86.829329 -192.534296 -256.653568 0 120 255
88.281607 -194.439268 -257.271380 0 120 255
89.733885 -196.344241 -257.889191 0 120 255
91.189331 -198.246018 -258.508492 0 120 255
92.801085 -199.990157 -259.201277 0 120 255
94.412838 -201.734297 -259.894062 0 120 255
96.024591 -203.478437 -260.586847 0 120 255
97.636345 -205.222576 -261.279632 0 120 255
99.396514 -206.792845 -262.024343 0 120 255
101.159891 -208.359356 -262.770177 0 120 255
102.923268 -209.925866 -263.516011 0 120 255
104.686645 -211.492377 -264.261845 0 120 255
106.582525 -212.878869 -265.036210 0 120 255
108.487182 -214.253435 -265.812464 0 120 255
110.391840 -215.628001 -266.588719 0 120 255
112.296497 -217.002566 -267.364973 0 120 255
114.316547 -218.194497 -268.147952 0 120 255
116.349859 -219.365437 -268.931703 0 120 255
118.383171 -220.536376 -269.715454 0 120 255
120.416483 -221.707315 -270.499206 0 120 255
122.547302 -222.696394 -271.269829 0 120 255
124.694536 -223.654857 -272.038242 0 120 255
126.841769 -224.613319 -272.806655 0 120 255
128.989003 -225.571782 -273.575068 0 120 255
131.215542 -226.352289 -274.312779 0 120 255
133.460100 -227.092363 -275.043513 0 120 255
135.704658 -227.832438 -275.774247 0 120 255
137.949216 -228.572512 -276.504982 0 120 255
140.255011 -229.141369 -277.189928 0 120 255
142.578715 -229.660151 -277.861484 0 120 255
144.902419 -230.178932 -278.533039 0 120 255
147.226124 -230.697714 -279.204595 0 120 255
149.593155 -231.057663 -279.817931 0 120 255
151.976015 -231.359589 -280.409998 0 120 255
154.358874 -231.661515 -281.002066 0 120 255
156.741734 -231.963441 -281.594134 0 120 255
159.151765 -232.120677 -282.118529 0 120 255
161.573967 -232.213105 -282.612613 0 120 255
163.996168 -232.305533 -283.106697 0 120 255
166.418370 -232.397961 -283.600781 0 120 255
168.853448 -232.365890 -284.022402 0 120 255
171.295498 -232.266403 -284.404784 0 120 255
173.737548 -232.166915 -284.787166 0 120 255
176.179598 -232.067428 -285.169548 0 120 255
178.621872 -231.846470 -285.474069 0 120 255
181.064290 -231.546939 -285.728227 0 120 255
183.506709 -231.247409 -285.982384 0 120 255
185.949127 -230.947879 -286.236542 0 120 255
188.376586 -230.522787 -286.407011 0 120 255
190.792718 -230.002638 -286.514125 0 120 255
193.208850 -229.482490 -286.621238 0 120 255
195.624982 -228.962342 -286.728351 0 120 255
198.011554 -228.326325 -286.750082 0 120 255
200.372100 -227.588294 -286.696640 0 120 255
202.732646 -226.850263 -286.643199 0 120 255
205.093192 -226.112232 -286.589757 0 120 255
207.410578 -225.269644 -286.451514 0 120 255
209.683952 -224.320437 -286.226799 0 120 255
211.957327 -223.371231 -286.002084 0 120 255
214.230702 -222.422024 -285.777368 0 120 255
216.448871 -221.380913 -285.470665 0 120 255
218.601975 -220.231484 -285.067332 0 120 255
220.755080 -219.082055 -284.663999 0 120 255
222.908184 -217.932626 -284.260666 0 120 255
224.996119 -216.704929 -283.780259 0 120 255
226.995294 -215.370631 -283.194878 0 120 255
228.994469 -214.036333 -282.609496 0 120 255
230.993644 -212.702035 -282.024115 0 120 255
232.920216 -211.303634 -281.368425 0 120 255
234.732303 -209.804150 -280.601866 0 120 255
236.544389 -208.304666 -279.835306 0 120 255
238.356475 -206.805181 -279.068747 0 120 255
240.091410 -205.255779 -278.240169 0 120 255
241.684910 -203.614864 -277.297895 0 120 255
243.278410 -201.973949 -276.355621 0 120 255
244.871910 -200.333035 -275.413348 0 120 255
246.386800 -198.655863 -274.418413 0 120 255
247.733014 -196.900893 -273.310481 0 120 255
249.079227 -195.145923 -272.202550 0 120 255
250.425441 -193.390953 -271.094618 0 120 255
251.694727 -191.612305 -269.943973 0 120 255
252.768847 -189.773588 -268.684963 0 120 255
253.842967 -187.934870 -267.425953 0 120 255
254.917088 -186.096153 -266.166943 0 120 255
255.918979 -184.244746 -264.875199 0 120 255
256.701047 -182.354721 -263.483833 0 120 255
257.483114 -180.464696 -262.092467 0 120 255
258.265181 -178.574672 -260.701101 0 120 255
258.982439 -176.680899 -259.286477 0 120 255
259.458115 -174.773156 -257.785153 0 120 255
259.933790 -172.865414 -256.283828 0 120 255
260.409465 -170.957671 -254.782504 0 120 255
260.830003 -169.052739 -253.266350 0 120 255
260.991031 -167.161034 -251.680398 0 120 255
261.152058 -165.269329 -250.094446 0 120 255
261.313086 -163.377623 -248.508494 0 120 255
261.430319 -161.492689 -246.914637 0 120 255
261.274765 -159.649933 -245.271537 0 120 255
261.119212 -157.807177 -243.628438 0 120 255
260.963659 -155.964420 -241.985339 0 120 255
260.776646 -154.129732 -240.339380 0 120 255
260.308816 -152.367065 -238.667895 0 120 255
259.840987 -150.604398 -236.996410 0 120 255
259.373157 -148.841731 -235.324925 0 120 255
258.886478 -147.085842 -233.653490 0 120 255
258.116618 -145.431793 -231.982814 0 120 255
257.346759 -143.777743 -230.312138 0 120 255
256.576899 -142.123694 -228.641461 0 120 255
255.800371 -140.472762 -226.971474 0 120 255
254.744102 -138.952621 -225.330380 0 120 255
253.687834 -137.432479 -223.689285 0 120 255
252.631566 -135.912338 -222.048191 0 120 255
251.575297 -134.392197 -220.407097 0 120 255
250.257353 -133.024916 -218.822269 0 120 255
248.934979 -131.660223 -217.238393 0 120 255
247.612605 -130.295531 -215.654517 0 120 255
246.290230 -128.930838 -214.070641 0 120 255
244.739765 -127.729206 -212.565083 0 120 255
243.175422 -126.537496 -211.064290 0 120 255
241.611078 -125.345785 -209.563497 0 120 255
240.046735 -124.154075 -208.062704 0 120 255
238.288795 -123.130311 -206.658049 0 120 255
236.509620 -122.124968 -205.263938 0 120 255
234.730445 -121.119625 -203.869827 0 120 255
232.951270 -120.114282 -202.475716 0 120 255
231.012662 -119.277018 -201.191302 0 120 255
229.047874 -118.467353 -199.924900 0 120 255
227.083086 -117.657687 -198.658498 0 120 255
225.118299 -116.848022 -197.392096 0 120 255
223.026963 -116.202442 -196.244755 0 120 255
220.907106 -115.593842 -195.124247 0 120 255
218.787250 -114.985242 -194.003739 0 120 255
216.667393 -114.376642 -192.883231 0 120 255
214.451760 -113.924741 -191.887246 0 120 255
212.207935 -113.518965 -190.927915 0 120 255
209.964110 -113.113188 -189.968584 0 120 255
207.720284 -112.707412 -189.009253 0 120 255
205.408748 -112.448281 -188.176368 0 120 255
203.071984 -112.243788 -187.390596 0 120 255
200.735219 -112.039296 -186.604825 0 120 255
198.398455 -111.834803 -185.819053 0 120 255
196.018937 -111.764959 -185.158541 0 120 255
193.619672 -111.757311 -184.555888 0 120 255
191.220407 -111.749662 -183.953234 0 120 255
188.821142 -111.742013 -183.350581 0 120 255
186.400746 -111.855729 -182.869352 0 120 255
183.968419 -112.037971 -182.456685 0 120 255
181.536091 -112.220213 -182.044018 0 120 255
179.103764 -112.402455 -181.631350 0 120 255
176.668505 -112.692073 -181.334106 0 120 255
174.231240 -113.055123 -181.115797 0 120 255
171.793976 -113.418174 -180.897488 0 120 255
169.356711 -113.781224 -180.679179 0 120 255
166.931327 -114.237483 -180.568575 0 120 255
164.515728 -114.770517 -180.546688 0 120 255
162.100129 -115.303551 -180.524801 0 120 255
159.684530 -115.836585 -180.502914 0 120 255
157.292356 -116.448897 -180.579719 0 120 255
154.923365 -117.139667 -180.754194 0 120 255
152.554374 -117.830437 -180.928669 0 120 255
150.185383 -118.521206 -181.103143 0 120 255
147.848278 -119.277916 -181.366390 0 120 255
145.549105 -120.113067 -181.735238 0 120 255
143.249932 -120.948218 -182.104087 0 120 255
140.950759 -121.783369 -182.472935 0 120 255
138.689073 -122.671987 -182.920085 0 120 255
136.481175 -123.637320 -183.479583 0 120 255
134.273276 -124.602653 -184.039080 0 120 255
132.065377 -125.567987 -184.598577 0 120 255
129.897953 -126.575390 -185.225665 0 120 255
127.801048 -127.656091 -185.970512 0 120 255
125.704143 -128.736792 -186.715360 0 120 255
123.607238 -129.817493 -187.460207 0 120 255
121.551432 -130.930095 -188.261948 0 120 255
119.583525 -132.110926 -189.185367 0 120 255
117.615618 -133.291757 -190.108787 0 120 255
115.647711 -134.472588 -191.032206 0 120 255
113.719425 -135.676491 -192.002093 0 120 255
111.896881 -136.941970 -193.095993 0 120 255
110.074336 -138.207448 -194.189893 0 120 255
108.251791 -139.472927 -195.283793 0 120 255
106.465525 -140.754046 -196.414206 0 120 255
104.803076 -142.088546 -197.669235 0 120 255
103.140628 -143.423045 -198.924264 0 120 255
101.478179 -144.757545 -200.179293 0 120 255
99.847053 -146.101699 -201.461545 0 120 255
98.357897 -147.489613 -202.867188 0 120 255
96.868741 -148.877527 -204.272831 0 120 255
95.379585 -150.265442 -205.678474 0 120 255
93.915399 -151.658473 -207.102878 0 120 255
92.611189 -153.084286 -208.647487 0 120 255
91.306980 -154.510100 -210.192095 0 120 255
90.002770 -155.935914 -211.736703 0 120 255
88.716009 -157.363746 -213.292604 0 120 255
87.606920 -158.812124 -214.963486 0 120 255
86.497831 -160.260501 -216.634368 0 120 255
85.388742 -161.708879 -218.305250 0 120 255
84.288624 -163.157587 -219.981085 0 120 255
83.383345 -164.613474 -221.764505 0 120 255
82.478067 -166.069361 -223.547925 0 120 255
81.572788 -167.525248 -225.331345 0 120 255
80.667509 -168.981135 -227.114765 0 120 255
79.972889 -170.429903 -228.995783 0 120 255
79.278522 -171.878663 -230.876919 0 120 255
78.584155 -173.327423 -232.758055 0 120 255
77.889788 -174.776183 -234.639191 0 120 255
77.401964 -176.204597 -236.598527 0 120 255
76.924147 -177.632026 -238.561652 0 120 255
76.446329 -179.059455 -240.524778 0 120 255
75.968512 -180.486884 -242.487903 0 120 255
75.692719 -181.880920 -244.511701 0 120 255
75.437147 -183.271614 -246.541572 0 120 255
75.181576 -184.662307 -248.571443 0 120 255
74.926004 -186.053001 -250.601314 0 120 255
74.864556 -187.400542 -252.673413 0 120 255
74.833581 -188.741308 -254.752141 0 120 255
74.802605 -190.082074 -256.830869 0 120 255
74.771630 -191.422841 -258.909596 0 120 255
74.923636 -192.714546 -261.011995 0 120 255
75.115975 -193.995437 -263.119611 0 120 255
75.308314 -195.276328 -265.227228 0 120 255
75.500654 -196.557219 -267.334844 0 120 255
75.864989 -197.783383 -269.450030 0 120 255
76.279352 -198.993629 -271.567418 0 120 255
76.693714 -200.203875 -273.684805 0 120 255
77.108077 -201.414122 -275.802193 0 120 255
77.682446 -202.565574 -277.912459 0 120 255
78.315935 -203.695304 -280.020094 0 120 255
78.949424 -204.825033 -282.127729 0 120 255
79.582913 -205.954763 -284.235365 0 120 255
80.363479 -207.023311 -286.322668 0 120 255
81.211393 -208.063844 -288.400662 0 120 255
82.059306 -209.104377 -290.478655 0 120 255
82.907219 -210.144910 -292.556649 0 120 255
83.888640 -211.123348 -294.602750 0 120 255
84.944559 -212.067137 -296.631055 0 120 255
86.000477 -213.010926 -298.659359 0 120 255
87.056396 -213.954715 -300.687664 0 120 255
88.231827 -214.836888 -302.674252 0 120 255
89.487606 -215.677637 -304.632793 0 120 255
90.743385 -216.518386 -306.591334 0 120 255
91.999163 -217.359135 -308.549876 0 120 255
93.360242 -218.140010 -310.458707 0 120 255
94.805984 -218.872748 -312.327570 0 120 255
96.251725 -219.605485 -314.196434 0 120 255
97.697466 -220.338223 -316.065297 0 120 255
99.234310 -221.013953 -317.878356 0 120 255
100.858389 -221.635097 -319.637978 0 120 255
102.482467 -222.256242 -321.397601 0 120 255
104.106546 -222.877386 -323.157223 0 120 255
105.807780 -223.445381 -324.856875 0 120 255
107.596876 -223.952850 -326.488234 0 120 255
109.385973 -224.460320 -328.119593 0 120 255
111.175069 -224.967790 -329.750951 0 120 255
113.027856 -225.426775 -331.320123 0 120 255
114.967013 -225.820012 -332.804966 0 120 255
116.906170 -226.213249 -334.289809 0 120 255
118.845327 -226.606486 -335.774651 0 120 255
120.835428 -226.956539 -337.197017 0 120 255
122.908123 -227.236579 -338.518091 0 120 255
124.980817 -227.516620 -339.839166 0 120 255
127.053512 -227.796660 -341.160240 0 120 255
129.165347 -228.039256 -342.420421 0 120 255
131.353601 -228.208745 -343.561709 0 120 255
133.541856 -228.378233 -344.702997 0 120 255
135.730110 -228.547721 -345.844285 0 120 255
137.946863 -228.685745 -346.928040 0 120 255
140.231375 -228.748958 -347.874999 0 120 255
142.515887 -228.812171 -348.821958 0 120 255
144.800399 -228.875384 -349.768918 0 120 255
147.104131 -228.913148 -350.663343 0 120 255
149.464443 -228.875999 -351.403120 0 120 255
151.824755 -228.838849 -352.142897 0 120 255
154.185067 -228.801699 -352.882674 0 120 255
156.556860 -228.744936 -353.576396 0 120 255
158.971532 -228.614919 -354.098102 0 120 255
161.386204 -228.484902 -354.619808 0 120 255
163.800876 -228.354884 -355.141515 0 120 255
166.220993 -228.210175 -355.624425 0 120 255
168.667898 -227.993192 -355.916481 0 120 255
171.114803 -227.776208 -356.208537 0 120 255
173.561708 -227.559224 -356.500592 0 120 255
176.008599 -227.340410 -356.791336 0 120 255
178.455395 -227.109012 -357.073059 0 120 255
180.902191 -226.877614 -357.354783 0 120 255
183.348986 -226.646216 -357.636507 0 120 255
185.795782 -226.414817 -357.918232 0 120 255
188.242575 -226.183408 -358.199968 0 120 255
190.689369 -225.951999 -358.481704 0 120 255
193.136162 -225.720589 -358.763440 0 120 255
195.582955 -225.489181 -359.045176 0 120 255
198.029750 -225.257775 -359.326905 0 120 255
200.476544 -225.026370 -359.608633 0 120 255
202.923339 -224.794965 -359.890362 0 120 255
205.370133 -224.563560 -360.172091 0 120 255
