ply
format ascii 1.0
element vertex 385
property float x
property float y
property float z
property uchar red
property uchar green
property uchar blue
end_header
77.430455 -42.474882 -360.397637 0 120 255
77.187531 -42.528716 -357.935711 0 120 255
76.944606 -42.582550 -355.473784 0 120 255
76.701681 -42.636385 -353.011858 0 120 255
76.458757 -42.690219 -350.549932 0 120 255
76.214274 -42.758809 -348.088529 0 120 255
75.969724 -42.828034 -345.627149 0 120 255
75.725174 -42.897258 -343.165768 0 120 255
75.480624 -42.966483 -340.704388 0 120 255
75.369425 -43.274080 -338.252996 0 120 255
75.270167 -43.603021 -335.802499 0 120 255
75.170908 -43.931962 -333.352002 0 120 255
75.071650 -44.260904 -330.901505 0 120 255
75.096154 -44.809764 -328.490741 0 120 255
75.138409 -45.390168 -326.085676 0 120 255
75.180664 -45.970572 -323.680611 0 120 255
75.222919 -46.550975 -321.275546 0 120 255
75.374505 -47.340487 -318.937938 0 120 255
75.548367 -48.172603 -316.614074 0 120 255
75.722229 -49.004719 -314.290209 0 120 255
75.896090 -49.836835 -311.966345 0 120 255
76.163402 -50.861536 -309.733221 0 120 255
76.456096 -51.938546 -307.524744 0 120 255
76.748791 -53.015556 -305.316267 0 120 255
77.041485 -54.092566 -303.107791 0 120 255
77.411825 -55.341247 -301.007750 0 120 255
77.809216 -56.649738 -298.945488 0 120 255
78.206606 -57.958228 -296.883227 0 120 255
78.603997 -59.266719 -294.820965 0 120 255
79.064483 -60.723206 -292.878794 0 120 255
79.552457 -62.244172 -290.988944 0 120 255
80.040432 -63.765138 -289.099093 0 120 255
80.528407 -65.286104 -287.209243 0 120 255
81.066936 -66.930279 -285.445246 0 120 255
81.632542 -68.640445 -283.748658 0 120 255
82.198149 -70.350611 -282.052070 0 120 255
82.763755 -72.060777 -280.355482 0 120 255
83.369783 -73.869681 -278.785197 0 120 255
84.002119 -75.742850 -277.297118 0 120 255
84.634455 -77.616019 -275.809038 0 120 255
85.266792 -79.489188 -274.320959 0 120 255
85.931865 -81.438068 -272.955141 0 120 255
86.622637 -83.446380 -271.685295 0 120 255
87.313408 -85.454692 -270.415449 0 120 255
88.004180 -87.463004 -269.145603 0 120 255
88.722267 -89.526236 -267.990408 0 120 255
89.466105 -91.641240 -266.943291 0 120 255
90.209942 -93.756244 -265.896173 0 120 255
90.953779 -95.871248 -264.849056 0 120 255
91.721416 -98.023120 -263.906365 0 120 255
92.515957 -100.216673 -263.081731 0 120 255
93.310499 -102.410226 -262.257097 0 120 255
94.105041 -104.603778 -261.432463 0 120 255
94.921323 -106.819104 -260.700260 0 120 255
95.767124 -109.063993 -260.093560 0 120 255
96.612925 -111.308882 -259.486860 0 120 255
97.458726 -113.553771 -258.880159 0 120 255
98.325173 -115.808337 -258.352903 0 120 255
99.225439 -118.078757 -257.955778 0 120 255
100.125705 -120.349176 -257.558653 0 120 255
101.025971 -122.619595 -257.161527 0 120 255
101.946284 -124.890483 -256.830497 0 120 255
102.906527 -127.162304 -256.631114 0 120 255
103.866769 -129.434125 -256.431731 0 120 255
104.827012 -131.705946 -256.232348 0 120 255
105.806767 -133.971720 -256.085914 0 120 255
106.834367 -136.222665 -256.069319 0 120 255
107.861967 -138.473610 -256.052725 0 120 255
108.889567 -140.724555 -256.036130 0 120 255
109.935839 -142.965383 -256.060016 0 120 255
111.039527 -145.175100 -256.208388 0 120 255
112.143215 -147.384817 -256.356760 0 120 255
113.246903 -149.594534 -256.505133 0 120 255
114.367836 -151.792237 -256.682597 0 120 255
115.557144 -153.942305 -256.975416 0 120 255
116.746452 -156.092373 -257.268235 0 120 255
117.935761 -158.242442 -257.561054 0 120 255
119.140107 -160.380497 -257.873023 0 120 255
120.424742 -162.454413 -258.287238 0 120 255
121.709377 -164.528330 -258.701453 0 120 255
122.994012 -166.602246 -259.115668 0 120 255
124.290614 -168.665774 -259.540866 0 120 255
125.679824 -170.648901 -260.051052 0 120 255
127.069035 -172.632029 -260.561238 0 120 255
128.458246 -174.615156 -261.071424 0 120 255
129.855508 -176.590881 -261.586493 0 120 255
131.357399 -178.470410 -262.165013 0 120 255
132.859289 -180.349939 -262.743533 0 120 255
134.361180 -182.229468 -263.322052 0 120 255
135.866500 -184.105694 -263.901687 0 120 255
137.487346 -185.870610 -264.518872 0 120 255
139.108193 -187.635526 -265.136058 0 120 255
140.729040 -189.400442 -265.753243 0 120 255
142.349887 -191.165358 -266.370429 0 120 255
144.091759 -192.808108 -266.994802 0 120 255
145.835278 -194.449195 -267.619273 0 120 255
147.578797 -196.090282 -268.243745 0 120 255
149.322316 -197.731369 -268.868216 0 120 255
151.182189 -199.248472 -269.468661 0 120 255
153.048877 -200.758314 -270.067699 0 120 255
154.915565 -202.268155 -270.666737 0 120 255
156.782252 -203.777997 -271.265775 0 120 255
158.757140 -205.164259 -271.811567 0 120 255
160.743632 -206.537268 -272.351649 0 120 255
162.730124 -207.910276 -272.891730 0 120 255
164.716616 -209.283284 -273.431811 0 120 255
166.799659 -210.535197 -273.892003 0 120 255
168.898164 -211.767716 -274.339400 0 120 255
170.996669 -213.000235 -274.786797 0 120 255
173.095174 -214.232754 -275.234194 0 120 255
175.275284 -215.348526 -275.578319 0 120 255
177.473170 -216.438866 -275.899947 0 120 255
179.671057 -217.529205 -276.221575 0 120 255
181.868944 -218.619545 -276.543203 0 120 255
184.130557 -219.599210 -276.742029 0 120 255
186.410080 -220.547769 -276.906341 0 120 255
188.689604 -221.496328 -277.070653 0 120 255
190.969127 -222.444888 -277.234965 0 120 255
193.292146 -223.290358 -277.261364 0 120 255
195.630415 -224.099683 -277.239406 0 120 255
197.968684 -224.909007 -277.217448 0 120 255
200.306953 -225.718332 -277.195490 0 120 255
202.666885 -226.433443 -277.025366 0 120 255
205.036082 -227.108264 -276.791880 0 120 255
207.405278 -227.783085 -276.558395 0 120 255
209.774474 -228.457907 -276.324910 0 120 255
212.142794 -229.048447 -275.938129 0 120 255
214.510665 -229.595716 -275.472641 0 120 255
216.878535 -230.142984 -275.007153 0 120 255
219.246405 -230.690252 -274.541664 0 120 255
221.591157 -231.163891 -273.922920 0 120 255
223.921813 -231.592637 -273.210735 0 120 255
226.252470 -232.021383 -272.498551 0 120 255
228.583127 -232.450130 -271.786366 0 120 255
230.869760 -232.816346 -270.926013 0 120 255
233.124755 -233.137625 -269.959181 0 120 255
235.379751 -233.458905 -268.992349 0 120 255
237.634747 -233.780185 -268.025517 0 120 255
239.827139 -234.050061 -266.920139 0 120 255
241.966754 -234.276604 -265.697962 0 120 255
244.106369 -234.503146 -264.475785 0 120 255
246.245984 -234.729688 -263.253607 0 120 255
248.307623 -234.915667 -261.906390 0 120 255
250.292324 -235.061622 -260.435795 0 120 255
252.277025 -235.207577 -258.965199 0 120 255
254.261725 -235.353532 -257.494603 0 120 255
256.156983 -235.469088 -255.915451 0 120 255
257.948961 -235.549541 -254.210947 0 120 255
259.740939 -235.629994 -252.506443 0 120 255
261.532917 -235.710447 -250.801939 0 120 255
263.228650 -235.771531 -249.007570 0 120 255
264.794072 -235.806391 -247.091524 0 120 255
266.359494 -235.841250 -245.175479 0 120 255
267.924915 -235.876110 -243.259433 0 120 255
269.390983 -235.896642 -241.272210 0 120 255
270.698543 -235.894316 -239.171431 0 120 255
272.006103 -235.891990 -237.070652 0 120 255
273.313664 -235.889665 -234.969873 0 120 255
274.522541 -235.875929 -232.816387 0 120 255
275.544819 -235.840617 -230.563235 0 120 255
276.567097 -235.805306 -228.310084 0 120 255
277.589375 -235.769994 -226.056932 0 120 255
278.517890 -235.727047 -223.768662 0 120 255
279.234154 -235.666814 -221.400893 0 120 255
279.950418 -235.606581 -219.033125 0 120 255
280.666682 -235.546348 -216.665356 0 120 255
281.297614 -235.481447 -214.277979 0 120 255
281.693968 -235.403710 -211.836698 0 120 255
282.090323 -235.325974 -209.395418 0 120 255
282.486677 -235.248238 -206.954137 0 120 255
282.808925 -235.168029 -204.505910 0 120 255
282.878648 -235.079392 -202.034014 0 120 255
282.948370 -234.990755 -199.562117 0 120 255
283.018093 -234.902118 -197.090220 0 120 255
283.026895 -234.812503 -194.620665 0 120 255
282.770537 -234.718635 -192.161304 0 120 255
282.514179 -234.624766 -189.701942 0 120 255
282.257820 -234.530897 -187.242580 0 120 255
281.954769 -234.436948 -184.791202 0 120 255
281.379766 -234.342536 -182.386322 0 120 255
280.804763 -234.248124 -179.981442 0 120 255
280.229760 -234.153712 -177.576562 0 120 255
279.622432 -234.059627 -175.181641 0 120 255
278.742526 -233.968306 -172.870707 0 120 255
277.862620 -233.876986 -170.559773 0 120 255
276.982714 -233.785665 -168.248839 0 120 255
276.084167 -233.694719 -165.946379 0 120 255
274.918520 -233.609132 -163.765339 0 120 255
273.752874 -233.523545 -161.584300 0 120 255
272.587228 -233.437958 -159.403260 0 120 255
271.415230 -233.352551 -157.226134 0 120 255
269.987449 -233.274408 -155.206648 0 120 255
268.559667 -233.196264 -153.187162 0 120 255
267.131886 -233.118121 -151.167676 0 120 255
265.704104 -233.039977 -149.148190 0 120 255
264.045156 -232.969991 -147.313942 0 120 255
262.382206 -232.900147 -145.482902 0 120 255
260.719255 -232.830302 -143.651862 0 120 255
259.056304 -232.760458 -141.820822 0 120 255
257.199504 -232.698541 -140.187826 0 120 255
255.330662 -232.637116 -138.567133 0 120 255
253.461820 -232.575692 -136.946439 0 120 255
251.592978 -232.514267 -135.325746 0 120 255
249.566405 -232.460001 -133.909548 0 120 255
247.522276 -232.406531 -132.516110 0 120 255
245.478147 -232.353061 -131.122672 0 120 255
243.434019 -232.299591 -129.729233 0 120 255
241.266131 -232.252147 -128.541176 0 120 255
239.077759 -232.205701 -127.387114 0 120 255
236.889387 -232.159254 -126.233051 0 120 255
234.701014 -232.112808 -125.078989 0 120 255
232.420025 -232.071063 -124.126502 0 120 255
230.118146 -232.030379 -123.219481 0 120 255
227.816266 -231.989694 -122.312459 0 120 255
225.514387 -231.949010 -121.405438 0 120 255
223.147760 -231.911646 -120.692387 0 120 255
220.762203 -231.875253 -120.036046 0 120 255
218.376646 -231.838860 -119.379705 0 120 255
215.991089 -231.802467 -118.723364 0 120 255
213.565142 -231.768094 -118.250462 0 120 255
211.124367 -231.734462 -117.844904 0 120 255
208.683592 -231.700830 -117.439346 0 120 255
206.242817 -231.667199 -117.033788 0 120 255
203.782439 -231.634418 -116.799014 0 120 255
201.313214 -231.602022 -116.641316 0 120 255
198.843989 -231.569626 -116.483619 0 120 255
196.374763 -231.537230 -116.325921 0 120 255
193.903225 -231.504725 -116.324934 0 120 255
191.430422 -231.472161 -116.409636 0 120 255
188.957619 -231.439597 -116.494339 0 120 255
186.484815 -231.407032 -116.579041 0 120 255
184.023665 -231.373630 -116.805588 0 120 255
181.570157 -231.339678 -117.125183 0 120 255
179.116650 -231.305726 -117.444777 0 120 255
176.663143 -231.271774 -117.764372 0 120 255
174.232168 -231.236501 -118.210643 0 120 255
171.818812 -231.200195 -118.755974 0 120 255
169.405456 -231.163888 -119.301304 0 120 255
166.992100 -231.127582 -119.846635 0 120 255
164.609347 -231.089707 -120.503596 0 120 255
162.255025 -231.050376 -121.264262 0 120 255
159.900704 -231.011045 -122.024928 0 120 255
157.546382 -230.971714 -122.785594 0 120 255
155.228222 -230.930780 -123.643280 0 120 255
152.949935 -230.888079 -124.607944 0 120 255
150.671648 -230.845378 -125.572608 0 120 255
148.393361 -230.802677 -126.537271 0 120 255
146.154573 -230.758529 -127.585019 0 120 255
143.967565 -230.712483 -128.741680 0 120 255
141.780557 -230.666437 -129.898342 0 120 255
139.593549 -230.620391 -131.055004 0 120 255
137.447442 -230.573191 -132.281664 0 120 255
135.365353 -230.524185 -133.617889 0 120 255
133.283264 -230.475178 -134.954113 0 120 255
131.201176 -230.426172 -136.290337 0 120 255
129.159713 -230.376396 -137.684442 0 120 255
127.194730 -230.325173 -139.187509 0 120 255
125.229748 -230.273949 -140.690576 0 120 255
123.264765 -230.222726 -142.193643 0 120 255
121.338691 -230.171177 -143.743510 0 120 255
119.501705 -230.118883 -145.400538 0 120 255
117.664720 -230.066588 -147.057566 0 120 255
115.827734 -230.014294 -148.714593 0 120 255
114.026707 -229.962135 -150.408428 0 120 255
112.327474 -229.910360 -152.206459 0 120 255
110.628242 -229.858586 -154.004491 0 120 255
108.929009 -229.806811 -155.802523 0 120 255
107.261740 -229.755703 -157.628483 0 120 255
105.709075 -229.706986 -159.554581 0 120 255
104.156411 -229.658269 -161.480678 0 120 255
102.603747 -229.609552 -163.406775 0 120 255
101.078143 -229.561792 -165.353022 0 120 255
99.679968 -229.518537 -167.394157 0 120 255
98.281794 -229.475283 -169.435291 0 120 255
96.883620 -229.432028 -171.476425 0 120 255
95.506838 -229.389583 -173.531044 0 120 255
94.270349 -229.352440 -175.674105 0 120 255
93.033860 -229.315297 -177.817165 0 120 255
91.797372 -229.278154 -179.960225 0 120 255
90.575960 -229.241586 -182.111236 0 120 255
89.507882 -229.210869 -184.343109 0 120 255
88.439804 -229.180152 -186.574982 0 120 255
87.371726 -229.149435 -188.806855 0 120 255
86.311807 -229.119027 -191.042257 0 120 255
85.418074 -229.094910 -193.349561 0 120 255
84.524342 -229.070792 -195.656865 0 120 255
83.630609 -229.046675 -197.964169 0 120 255
82.737615 -229.022586 -200.271727 0 120 255
82.023593 -229.005239 -202.640875 0 120 255
81.309571 -228.987893 -205.010023 0 120 255
80.595549 -228.970546 -207.379171 0 120 255
79.881527 -228.953200 -209.748319 0 120 255
79.344868 -228.942494 -212.163588 0 120 255
78.815317 -228.932055 -214.580706 0 120 255
78.285767 -228.921616 -216.997824 0 120 255
77.756216 -228.911177 -219.414942 0 120 255
77.399947 -228.907160 -221.863065 0 120 255
77.058977 -228.903711 -224.313926 0 120 255
76.718008 -228.900261 -226.764786 0 120 255
76.377038 -228.896811 -229.215647 0 120 255
76.204389 -228.899538 -231.683264 0 120 255
76.055498 -228.903136 -234.153245 0 120 255
75.906607 -228.906735 -236.623227 0 120 255
75.757716 -228.910333 -239.093209 0 120 255
75.771266 -228.919878 -241.566556 0 120 255
75.817193 -228.930609 -244.040574 0 120 255
75.863119 -228.941340 -246.514592 0 120 255
75.909045 -228.952070 -248.988611 0 120 255
76.110718 -228.968466 -251.453489 0 120 255
76.353446 -228.986354 -253.915958 0 120 255
76.596173 -229.004243 -256.378427 0 120 255
76.838901 -229.022131 -258.840896 0 120 255
77.229928 -229.045427 -261.282622 0 120 255
77.670639 -229.070534 -263.717398 0 120 255
78.111350 -229.095640 -266.152174 0 120 255
78.552061 -229.120747 -268.586950 0 120 255
79.132878 -229.151015 -270.990315 0 120 255
79.771816 -229.183423 -273.380649 0 120 255
80.410755 -229.215832 -275.770984 0 120 255
81.049693 -229.248240 -278.161318 0 120 255
81.819823 -229.285595 -280.510562 0 120 255
82.656147 -229.325447 -282.839073 0 120 255
83.492471 -229.365298 -285.167584 0 120 255
84.328796 -229.405149 -287.496095 0 120 255
85.286498 -229.449087 -289.775006 0 120 255
86.317782 -229.495502 -292.023848 0 120 255
87.349066 -229.541918 -294.272690 0 120 255
88.380350 -229.588334 -296.521531 0 120 255
89.522297 -229.637428 -298.713645 0 120 255
90.744190 -229.688456 -300.864776 0 120 255
91.966083 -229.739485 -303.015907 0 120 255
93.187976 -229.790514 -305.167037 0 120 255
94.508656 -229.840533 -307.256211 0 120 255
95.913965 -229.889687 -309.292305 0 120 255
97.319273 -229.938841 -311.328400 0 120 255
98.724582 -229.987995 -313.364495 0 120 255
100.216498 -230.032333 -315.335088 0 120 255
101.796196 -230.071791 -317.239291 0 120 255
103.375894 -230.111249 -319.143493 0 120 255
104.955592 -230.150706 -321.047696 0 120 255
106.609916 -230.182719 -322.884256 0 120 255
108.353703 -230.205807 -324.639722 0 120 255
110.097491 -230.228894 -326.395189 0 120 255
111.841278 -230.251982 -328.150655 0 120 255
113.647878 -230.265877 -329.837856 0 120 255
115.543739 -230.266708 -331.428045 0 120 255
117.439600 -230.267539 -333.018234 0 120 255
119.335462 -230.268370 -334.608422 0 120 255
121.282648 -230.258927 -336.131266 0 120 255
123.316710 -230.232094 -337.540118 0 120 255
125.350771 -230.205261 -338.948970 0 120 255
127.384833 -230.178428 -340.357822 0 120 255
129.459246 -230.140884 -341.701810 0 120 255
131.615644 -230.081578 -342.914005 0 120 255
133.772043 -230.022272 -344.126201 0 120 255
135.928442 -229.962966 -345.338396 0 120 255
138.114966 -229.893103 -346.489730 0 120 255
140.375829 -229.797189 -347.490874 0 120 255
142.636692 -229.701275 -348.492018 0 120 255
144.897554 -229.605361 -349.493163 0 120 255
147.179301 -229.499578 -350.438920 0 120 255
149.524701 -229.363715 -351.215858 0 120 255
151.870100 -229.227852 -351.992796 0 120 255
154.215500 -229.091989 -352.769734 0 120 255
156.573778 -228.947395 -353.498146 0 120 255
158.981759 -228.769107 -354.039288 0 120 255
161.389739 -228.590819 -354.580431 0 120 255
163.797719 -228.412531 -355.121573 0 120 255
166.212148 -228.227179 -355.621774 0 120 255
168.659292 -228.005990 -355.914270 0 120 255
171.106435 -227.784801 -356.206766 0 120 255
173.553579 -227.563612 -356.499262 0 120 255
176.000761 -227.341151 -356.790433 0 120 255
178.448210 -227.109691 -357.072232 0 120 255
180.895659 -226.878232 -357.354031 0 120 255
183.343108 -226.646772 -357.635830 0 120 255
185.790556 -226.415311 -357.917630 0 120 255
188.238003 -226.183840 -358.199441 0 120 255
190.685449 -225.952369 -358.481253 0 120 255
193.132896 -225.720898 -358.763064 0 120 255
195.580342 -225.489428 -359.044875 0 120 255
198.027790 -225.257961 -359.326679 0 120 255
200.475238 -225.026494 -359.608483 0 120 255
202.922686 -224.795027 -359.890287 0 120 255
205.370133 -224.563560 -360.172091 0 120 255
