ply
format ascii 1.0
element vertex 385
property float x
property float y
property float z
property uchar red
property uchar green
property uchar blue
end_header
77.430455 -42.474882 -360.397637 0 120 255
77.187549 -42.528712 -357.935901 0 120 255
76.944644 -42.582542 -355.474165 0 120 255
76.701738 -42.636372 -353.012429 0 120 255
76.458832 -42.690202 -350.550693 0 120 255
76.213672 -42.754965 -348.089445 0 120 255
75.968413 -42.820202 -345.628218 0 120 255
75.723155 -42.885440 -343.166991 0 120 255
75.477897 -42.950677 -340.705764 0 120 255
75.074753 -43.343295 -338.298881 0 120 255
74.657251 -43.765686 -335.896939 0 120 255
74.239749 -44.188077 -333.494998 0 120 255
73.822247 -44.610467 -331.093056 0 120 255
73.289425 -45.259425 -328.767848 0 120 255
72.739588 -45.941810 -326.453960 0 120 255
72.189751 -46.624195 -324.140073 0 120 255
71.639914 -47.306580 -321.826185 0 120 255
71.016612 -48.149331 -319.586627 0 120 255
70.377889 -49.025744 -317.362672 0 120 255
69.739166 -49.902158 -315.138717 0 120 255
69.100443 -50.778571 -312.914761 0 120 255
68.427184 -51.773395 -310.752870 0 120 255
67.744291 -52.801248 -308.608291 0 120 255
67.061398 -53.829102 -306.463712 0 120 255
66.378505 -54.856955 -304.319133 0 120 255
65.694224 -55.980600 -302.224599 0 120 255
65.009447 -57.138341 -300.147880 0 120 255
64.324671 -58.296082 -298.071161 0 120 255
63.639895 -59.453823 -295.994442 0 120 255
62.979467 -60.697507 -293.961029 0 120 255
62.329815 -61.979225 -291.946781 0 120 255
61.680163 -63.260943 -289.932533 0 120 255
61.030511 -64.542661 -287.918285 0 120 255
60.423067 -65.907059 -285.947038 0 120 255
59.838451 -67.316173 -283.999047 0 120 255
59.253835 -68.725287 -282.051057 0 120 255
58.669219 -70.134401 -280.103067 0 120 255
58.137254 -71.624796 -278.203027 0 120 255
57.639699 -73.168311 -276.334325 0 120 255
57.142144 -74.711825 -274.465623 0 120 255
56.644589 -76.255339 -272.596921 0 120 255
56.203918 -77.877574 -270.784088 0 120 255
55.807847 -79.561532 -269.015060 0 120 255
55.411777 -81.245491 -267.246033 0 120 255
55.015706 -82.929449 -265.477005 0 120 255
54.676112 -84.686960 -263.772325 0 120 255
54.389439 -86.513396 -262.127942 0 120 255
54.102767 -88.339832 -260.483559 0 120 255
53.816094 -90.166268 -258.839176 0 120 255
53.582503 -92.058249 -257.266210 0 120 255
53.408300 -94.023561 -255.773143 0 120 255
53.234097 -95.988872 -254.280076 0 120 255
53.059894 -97.954184 -252.787009 0 120 255
52.933876 -99.974711 -251.369698 0 120 255
52.872324 -102.069109 -250.053737 0 120 255
52.810773 -104.163507 -248.737776 0 120 255
52.749221 -106.257905 -247.421815 0 120 255
52.730581 -108.395781 -246.182568 0 120 255
52.780894 -110.603517 -245.066587 0 120 255
52.831207 -112.811254 -243.950606 0 120 255
52.881520 -115.018990 -242.834625 0 120 255
52.969799 -117.258076 -241.792834 0 120 255
53.131908 -119.558127 -240.895321 0 120 255
53.294017 -121.858178 -239.997807 0 120 255
53.456127 -124.158229 -239.100294 0 120 255
53.651887 -126.478061 -238.271251 0 120 255
53.927774 -128.844993 -237.605246 0 120 255
54.203662 -131.211926 -236.939241 0 120 255
54.479549 -133.578858 -236.273236 0 120 255
54.785354 -135.955360 -235.667322 0 120 255
55.179897 -138.360245 -235.239645 0 120 255
55.574440 -140.765130 -234.811968 0 120 255
55.968982 -143.170015 -234.384291 0 120 255
56.389999 -145.576241 -234.006373 0 120 255
56.911348 -147.987546 -233.817034 0 120 255
57.432696 -150.398851 -233.627696 0 120 255
57.954045 -152.810156 -233.438358 0 120 255
58.498267 -155.217008 -233.287284 0 120 255
59.157675 -157.601436 -233.328892 0 120 255
59.817082 -159.985863 -233.370500 0 120 255
60.476489 -162.370291 -233.412108 0 120 255
61.154548 -164.747210 -233.480218 0 120 255
61.965726 -167.070538 -233.737478 0 120 255
62.776903 -169.393866 -233.994737 0 120 255
63.588081 -171.717194 -234.251997 0 120 255
64.412670 -174.032854 -234.524694 0 120 255
65.390596 -176.260840 -234.973900 0 120 255
66.368522 -178.488826 -235.423106 0 120 255
67.346447 -180.716811 -235.872312 0 120 255
68.331320 -182.939872 -236.327627 0 120 255
69.490636 -185.039275 -236.936347 0 120 255
70.649952 -187.138677 -237.545068 0 120 255
71.809268 -189.238080 -238.153788 0 120 255
72.968584 -191.337483 -238.762508 0 120 255
74.320908 -193.277836 -239.489160 0 120 255
75.673911 -195.217630 -240.216228 0 120 255
77.026915 -197.157423 -240.943295 0 120 255
78.379919 -199.097217 -241.670363 0 120 255
79.925276 -200.858403 -242.463261 0 120 255
81.479695 -202.611176 -243.259259 0 120 255
83.034114 -204.363949 -244.055258 0 120 255
84.588533 -206.116722 -244.851256 0 120 255
86.327774 -207.678313 -245.658622 0 120 255
88.084443 -209.221877 -246.467059 0 120 255
89.841112 -210.765441 -247.275496 0 120 255
91.597781 -212.309005 -248.083933 0 120 255
93.523940 -213.656529 -248.849498 0 120 255
95.474773 -214.975514 -249.608822 0 120 255
97.425606 -216.294499 -250.368146 0 120 255
99.376439 -217.613485 -251.127470 0 120 255
101.473417 -218.739736 -251.792837 0 120 255
103.599855 -219.827135 -252.439265 0 120 255
105.726293 -220.914535 -253.085692 0 120 255
107.852731 -222.001934 -253.732120 0 120 255
110.094664 -222.907963 -254.239726 0 120 255
112.366978 -223.766281 -254.710816 0 120 255
114.639291 -224.624600 -255.181905 0 120 255
116.911605 -225.482919 -255.652995 0 120 255
119.263046 -226.178589 -255.949455 0 120 255
121.640676 -226.820431 -256.188120 0 120 255
124.018306 -227.462272 -256.426786 0 120 255
126.395936 -228.104114 -256.665452 0 120 255
128.812977 -228.608001 -256.704906 0 120 255
131.246037 -229.055818 -256.663391 0 120 255
133.679097 -229.503635 -256.621876 0 120 255
136.112157 -229.951452 -256.580362 0 120 255
138.544372 -230.290077 -256.327524 0 120 255
140.976171 -230.575084 -255.970917 0 120 255
143.407970 -230.860091 -255.614310 0 120 255
145.839770 -231.145098 -255.257703 0 120 255
148.232811 -231.351603 -254.690123 0 120 255
150.603116 -231.512057 -253.998781 0 120 255
152.973421 -231.672510 -253.307440 0 120 255
155.343726 -231.832964 -252.616098 0 120 255
157.642332 -231.945317 -251.725565 0 120 255
159.891065 -232.024212 -250.696478 0 120 255
162.139798 -232.103107 -249.667390 0 120 255
164.388531 -232.182001 -248.638303 0 120 255
166.539841 -232.239477 -247.431455 0 120 255
168.611136 -232.279361 -246.078609 0 120 255
170.682431 -232.319246 -244.725764 0 120 255
172.753726 -232.359130 -243.372919 0 120 255
174.707404 -232.384979 -241.866861 0 120 255
176.547207 -232.397241 -240.212467 0 120 255
178.387010 -232.409502 -238.558073 0 120 255
180.226813 -232.421764 -236.903679 0 120 255
181.935290 -232.424929 -235.124462 0 120 255
183.494021 -232.417722 -233.202913 0 120 255
185.052752 -232.410515 -231.281364 0 120 255
186.611483 -232.403308 -229.359815 0 120 255
188.033038 -232.391933 -227.343935 0 120 255
189.269958 -232.374947 -225.201090 0 120 255
190.506878 -232.357961 -223.058245 0 120 255
191.743798 -232.340975 -220.915400 0 120 255
192.845072 -232.322910 -218.707941 0 120 255
193.729825 -232.303123 -216.397342 0 120 255
194.614578 -232.283336 -214.086743 0 120 255
195.499330 -232.263548 -211.776144 0 120 255
196.256450 -232.244293 -209.427814 0 120 255
196.770140 -232.226053 -207.007517 0 120 255
197.283829 -232.207813 -204.587220 0 120 255
197.797518 -232.189574 -202.166924 0 120 255
198.196701 -232.172382 -199.731426 0 120 255
198.332000 -232.157605 -197.260895 0 120 255
198.467300 -232.142828 -194.790365 0 120 255
198.602599 -232.128051 -192.319834 0 120 255
198.640030 -232.114153 -189.851366 0 120 255
198.400556 -232.102739 -187.388732 0 120 255
198.161081 -232.091325 -184.926098 0 120 255
197.921607 -232.079912 -182.463464 0 120 255
197.602789 -232.068879 -180.014540 0 120 255
197.001906 -232.059200 -177.614354 0 120 255
196.401023 -232.049521 -175.214168 0 120 255
195.800140 -232.039843 -172.813983 0 120 255
195.138810 -232.030002 -170.433673 0 120 255
194.198028 -232.019412 -168.145254 0 120 255
193.257246 -232.008823 -165.856835 0 120 255
192.316464 -231.998233 -163.568416 0 120 255
191.333249 -231.987095 -161.301049 0 120 255
190.080517 -231.972471 -159.167391 0 120 255
188.827786 -231.957847 -157.033733 0 120 255
187.575055 -231.943223 -154.900076 0 120 255
186.296026 -231.927925 -152.784388 0 120 255
184.763969 -231.906144 -150.841615 0 120 255
183.231911 -231.884363 -148.898841 0 120 255
181.699854 -231.862582 -146.956067 0 120 255
180.155082 -231.840286 -145.024774 0 120 255
178.379379 -231.808635 -143.302008 0 120 255
176.603675 -231.776984 -141.579243 0 120 255
174.827972 -231.745334 -139.856477 0 120 255
173.050174 -231.713563 -138.136172 0 120 255
171.068113 -231.670106 -136.655769 0 120 255
169.086052 -231.626648 -135.175367 0 120 255
167.103992 -231.583191 -133.694965 0 120 255
165.121931 -231.539733 -132.214562 0 120 255
162.976589 -231.483962 -130.984322 0 120 255
160.825859 -231.427785 -129.762335 0 120 255
158.675130 -231.371608 -128.540348 0 120 255
156.524400 -231.315430 -127.318361 0 120 255
154.251876 -231.247719 -126.345252 0 120 255
151.969607 -231.179085 -125.392056 0 120 255
149.687338 -231.110451 -124.438861 0 120 255
147.405069 -231.041817 -123.485665 0 120 255
145.038236 -230.963555 -122.774791 0 120 255
142.660276 -230.884027 -122.095801 0 120 255
140.282316 -230.804499 -121.416812 0 120 255
137.904356 -230.724970 -120.737823 0 120 255
135.474550 -230.638894 -120.290552 0 120 255
133.034978 -230.551584 -119.886929 0 120 255
130.595406 -230.464275 -119.483306 0 120 255
128.155835 -230.376965 -119.079683 0 120 255
125.692605 -230.287183 -118.894264 0 120 255
123.223432 -230.196780 -118.763652 0 120 255
120.754260 -230.106377 -118.633040 0 120 255
118.285087 -230.015974 -118.502427 0 120 255
115.816169 -229.926157 -118.574661 0 120 255
113.347333 -229.836529 -118.711993 0 120 255
110.878497 -229.746900 -118.849325 0 120 255
108.409661 -229.657272 -118.986657 0 120 255
105.961092 -229.569185 -119.310354 0 120 255
103.520608 -229.481713 -119.708383 0 120 255
101.080123 -229.394240 -120.106411 0 120 255
98.639638 -229.306768 -120.504440 0 120 255
96.235779 -229.221298 -121.071571 0 120 255
93.849735 -229.136802 -121.720957 0 120 255
91.463692 -229.052306 -122.370344 0 120 255
89.077649 -228.967809 -123.019730 0 120 255
86.741182 -228.885689 -123.820573 0 120 255
84.433749 -228.804960 -124.710113 0 120 255
82.126316 -228.724231 -125.599652 0 120 255
79.818883 -228.643502 -126.489191 0 120 255
77.570852 -228.565428 -127.512575 0 120 255
75.364337 -228.489210 -128.629502 0 120 255
73.157822 -228.412991 -129.746430 0 120 255
70.951307 -228.336773 -130.863358 0 120 255
68.811160 -228.263386 -132.096849 0 120 255
66.726066 -228.192347 -133.427030 0 120 255
64.640972 -228.121308 -134.757211 0 120 255
62.555878 -228.050269 -136.087391 0 120 255
60.541487 -227.982177 -137.517405 0 120 255
58.596508 -227.916978 -139.045426 0 120 255
56.651528 -227.851779 -140.573447 0 120 255
54.706549 -227.786580 -142.101469 0 120 255
52.834214 -227.724343 -143.713369 0 120 255
51.046250 -227.665546 -145.422688 0 120 255
49.258286 -227.606749 -147.132007 0 120 255
47.470321 -227.547953 -148.841326 0 120 255
45.754779 -227.492044 -150.619547 0 120 255
44.138938 -227.440113 -152.492620 0 120 255
42.523096 -227.388181 -154.365694 0 120 255
40.907255 -227.336249 -156.238767 0 120 255
39.361667 -227.287085 -158.166905 0 120 255
37.931247 -227.242457 -160.185307 0 120 255
36.500826 -227.197829 -162.203710 0 120 255
35.070405 -227.153201 -164.222113 0 120 255
33.706325 -227.111148 -166.283020 0 120 255
32.472724 -227.074160 -168.427526 0 120 255
31.239124 -227.037172 -170.572032 0 120 255
30.005523 -227.000184 -172.716539 0 120 255
28.832840 -226.965532 -174.892416 0 120 255
27.805555 -226.936456 -177.143167 0 120 255
26.778269 -226.907380 -179.393919 0 120 255
25.750983 -226.878305 -181.644671 0 120 255
24.777911 -226.851285 -183.917199 0 120 255
23.964479 -226.830321 -186.253849 0 120 255
23.151048 -226.809357 -188.590499 0 120 255
22.337616 -226.788393 -190.927149 0 120 255
21.570640 -226.769173 -193.277611 0 120 255
20.976573 -226.756449 -195.679478 0 120 255
20.382507 -226.743724 -198.081346 0 120 255
19.788440 -226.730999 -200.483214 0 120 255
19.232270 -226.719681 -202.892632 0 120 255
18.861020 -226.715233 -205.338894 0 120 255
18.489770 -226.710785 -207.785156 0 120 255
18.118520 -226.706336 -210.231418 0 120 255
17.776044 -226.702944 -212.680715 0 120 255
17.628898 -226.706716 -215.150609 0 120 255
17.481752 -226.710488 -217.620504 0 120 255
17.334606 -226.714260 -220.090398 0 120 255
17.206823 -226.718738 -222.560569 0 120 255
17.282914 -226.730642 -225.033646 0 120 255
17.359006 -226.742546 -227.506724 0 120 255
17.435097 -226.754449 -229.979802 0 120 255
17.521123 -226.766712 -232.452127 0 120 255
17.817535 -226.786575 -234.908504 0 120 255
18.113947 -226.806437 -237.364882 0 120 255
18.410359 -226.826300 -239.821259 0 120 255
18.707512 -226.846189 -242.277513 0 120 255
19.219313 -226.873767 -244.698122 0 120 255
19.731113 -226.901346 -247.118730 0 120 255
20.242913 -226.928924 -249.539338 0 120 255
20.754713 -226.956502 -251.959947 0 120 255
21.467127 -226.991195 -254.328829 0 120 255
22.187510 -227.026170 -256.695656 0 120 255
22.907893 -227.061146 -259.062483 0 120 255
23.628275 -227.096121 -261.429310 0 120 255
24.532687 -227.137555 -263.731278 0 120 255
25.453071 -227.179549 -266.027618 0 120 255
26.373455 -227.221543 -268.323958 0 120 255
27.293838 -227.263537 -270.620297 0 120 255
28.381022 -227.311320 -272.841368 0 120 255
29.491277 -227.359903 -275.052028 0 120 255
30.601532 -227.408487 -277.262689 0 120 255
31.711787 -227.457070 -279.473349 0 120 255
32.971373 -227.510790 -281.601001 0 120 255
34.260079 -227.565511 -283.712467 0 120 255
35.548785 -227.620233 -285.823933 0 120 255
36.837491 -227.674954 -287.935398 0 120 255
38.258190 -227.734149 -289.958677 0 120 255
39.712900 -227.794496 -291.959232 0 120 255
41.167611 -227.854844 -293.959787 0 120 255
42.622322 -227.915191 -295.960342 0 120 255
44.192124 -227.979398 -297.869948 0 120 255
45.799598 -228.044867 -299.749785 0 120 255
47.407072 -228.110337 -301.629622 0 120 255
49.014546 -228.175806 -303.509458 0 120 255
50.720969 -228.244544 -305.297775 0 120 255
52.467483 -228.314606 -307.049010 0 120 255
54.213997 -228.384668 -308.800245 0 120 255
55.960512 -228.454730 -310.551480 0 120 255
57.790838 -228.527561 -312.212556 0 120 255
59.662466 -228.601756 -313.829204 0 120 255
61.534094 -228.675951 -315.445852 0 120 255
63.405721 -228.750146 -317.062499 0 120 255
65.347247 -228.826778 -318.591961 0 120 255
67.330158 -228.904852 -320.069802 0 120 255
69.313069 -228.982926 -321.547643 0 120 255
71.295980 -229.061000 -323.025484 0 120 255
73.336136 -229.141078 -324.420564 0 120 255
75.416684 -229.222569 -325.757247 0 120 255
77.497232 -229.304061 -327.093931 0 120 255
79.577781 -229.385552 -328.430614 0 120 255
81.704106 -229.467603 -329.690521 0 120 255
83.868734 -229.550122 -330.886189 0 120 255
86.033362 -229.632641 -332.081857 0 120 255
88.197990 -229.715160 -333.277525 0 120 255
90.397769 -229.792414 -334.404998 0 120 255
92.632340 -229.864457 -335.464974 0 120 255
94.866910 -229.936500 -336.524950 0 120 255
97.101481 -230.008543 -337.584926 0 120 255
99.362378 -230.070602 -338.585676 0 120 255
101.654100 -230.120971 -339.517084 0 120 255
103.945821 -230.171341 -340.448492 0 120 255
106.237543 -230.221711 -341.379900 0 120 255
108.548445 -230.259319 -342.260860 0 120 255
110.885975 -230.279211 -343.071788 0 120 255
113.223505 -230.299102 -343.882716 0 120 255
115.561034 -230.318994 -344.693643 0 120 255
117.912058 -230.324911 -345.462503 0 120 255
120.285405 -230.307711 -346.161770 0 120 255
122.658752 -230.290511 -346.861036 0 120 255
125.032099 -230.273311 -347.560303 0 120 255
127.414521 -230.242218 -348.225335 0 120 255
129.814977 -230.183516 -348.822336 0 120 255
132.215433 -230.124814 -349.419337 0 120 255
134.615889 -230.066112 -350.016338 0 120 255
137.022108 -229.994634 -350.586250 0 120 255
139.442249 -229.892289 -351.090717 0 120 255
141.862390 -229.789945 -351.595184 0 120 255
144.282531 -229.687600 -352.099651 0 120 255
146.706071 -229.574355 -352.583385 0 120 255
149.139770 -229.428532 -353.005158 0 120 255
151.573468 -229.282709 -353.426931 0 120 255
154.007167 -229.136886 -353.848704 0 120 255
156.442682 -228.982498 -354.255283 0 120 255
158.885090 -228.795621 -354.604237 0 120 255
161.327497 -228.608744 -354.953190 0 120 255
163.769904 -228.421867 -355.302144 0 120 255
166.213156 -228.229180 -355.640884 0 120 255
168.660631 -228.007421 -355.928519 0 120 255
171.108106 -227.785662 -356.216155 0 120 255
173.555581 -227.563903 -356.503790 0 120 255
176.003029 -227.340937 -356.790694 0 120 255
178.450289 -227.109495 -357.072472 0 120 255
180.897549 -226.878053 -357.354249 0 120 255
183.344809 -226.646611 -357.636026 0 120 255
185.792069 -226.415168 -357.917804 0 120 255
188.239326 -226.183715 -358.199594 0 120 255
190.686583 -225.952262 -358.481383 0 120 255
193.133841 -225.720809 -358.763173 0 120 255
195.581098 -225.489356 -359.044962 0 120 255
198.028357 -225.257907 -359.326744 0 120 255
200.475616 -225.026458 -359.608527 0 120 255
202.922875 -224.795009 -359.890309 0 120 255
205.370133 -224.563560 -360.172091 0 120 255
