ply
format ascii 1.0
element vertex 385
property float x
property float y
property float z
property uchar red
property uchar green
property uchar blue
end_header
77.430455 -42.474882 -360.397637 0 120 255
77.187520 -42.528718 -357.935603 0 120 255
76.944585 -42.582555 -355.473570 0 120 255
76.701650 -42.636392 -353.011537 0 120 255
76.458714 -42.690229 -350.549504 0 120 255
76.234738 -42.751383 -348.085848 0 120 255
76.011574 -42.812851 -345.622122 0 120 255
75.788410 -42.874319 -343.158397 0 120 255
75.565246 -42.935787 -340.694671 0 120 255
75.328387 -42.951132 -338.231549 0 120 255
75.090251 -42.962176 -335.768483 0 120 255
74.852115 -42.973220 -333.305418 0 120 255
74.613979 -42.984264 -330.842352 0 120 255
74.339919 -42.948114 -328.383374 0 120 255
74.060391 -42.904781 -325.925019 0 120 255
73.780864 -42.861448 -323.466664 0 120 255
73.501336 -42.818115 -321.008309 0 120 255
73.182254 -42.733367 -318.556002 0 120 255
72.854569 -42.639611 -316.105011 0 120 255
72.526883 -42.545855 -313.654021 0 120 255
72.199198 -42.452099 -311.203030 0 120 255
71.829064 -42.322660 -308.759905 0 120 255
71.446609 -42.182863 -306.319063 0 120 255
71.064153 -42.043066 -303.878221 0 120 255
70.681698 -41.903269 -301.437380 0 120 255
70.254631 -41.733410 -299.006089 0 120 255
69.810977 -41.552373 -296.578349 0 120 255
69.367323 -41.371336 -294.150609 0 120 255
68.923669 -41.190299 -291.722869 0 120 255
68.433992 -40.984651 -289.306233 0 120 255
67.922971 -40.767590 -286.894747 0 120 255
67.411950 -40.550529 -284.483261 0 120 255
66.900929 -40.333467 -282.071775 0 120 255
66.343199 -40.097018 -279.672815 0 120 255
65.758926 -39.849551 -277.280973 0 120 255
65.174652 -39.602083 -274.889131 0 120 255
64.590378 -39.354616 -272.497289 0 120 255
63.959448 -39.092696 -270.119248 0 120 255
63.296419 -38.820833 -267.750703 0 120 255
62.633391 -38.548970 -265.382157 0 120 255
61.970362 -38.277107 -263.013612 0 120 255
61.261422 -37.995377 -260.659987 0 120 255
60.514541 -37.705493 -258.318693 0 120 255
59.767659 -37.415610 -255.977398 0 120 255
59.020778 -37.125726 -253.636104 0 120 255
58.229405 -36.830159 -251.310667 0 120 255
57.394059 -36.528977 -249.000903 0 120 255
56.558714 -36.227794 -246.691139 0 120 255
55.723369 -35.926611 -244.381375 0 120 255
54.845580 -35.623477 -242.088197 0 120 255
53.917707 -35.318038 -239.814591 0 120 255
52.989834 -35.012600 -237.540985 0 120 255
52.061962 -34.707162 -235.267379 0 120 255
51.094274 -34.402998 -233.010847 0 120 255
50.070425 -34.100631 -230.778397 0 120 255
49.046575 -33.798264 -228.545948 0 120 255
48.022725 -33.495897 -226.313499 0 120 255
46.962210 -33.197481 -224.098330 0 120 255
45.839618 -32.905755 -221.912419 0 120 255
44.717027 -32.614030 -219.726508 0 120 255
43.594435 -32.322304 -217.540597 0 120 255
42.438773 -32.036621 -215.371855 0 120 255
41.215419 -31.763307 -213.238261 0 120 255
39.992064 -31.489993 -211.104666 0 120 255
38.768709 -31.216679 -208.971071 0 120 255
37.516250 -30.950882 -206.854172 0 120 255
36.190943 -30.703898 -204.779061 0 120 255
34.865637 -30.456914 -202.703950 0 120 255
33.540331 -30.209931 -200.628839 0 120 255
32.190159 -29.971298 -198.569544 0 120 255
30.762608 -29.758652 -196.559469 0 120 255
29.335056 -29.546006 -194.549394 0 120 255
27.907504 -29.333360 -192.539319 0 120 255
26.459502 -29.129245 -190.543731 0 120 255
24.930378 -28.958966 -188.605611 0 120 255
23.401255 -28.788688 -186.667491 0 120 255
21.872131 -28.618409 -184.729371 0 120 255
20.327034 -28.456183 -182.803921 0 120 255
18.698036 -28.336250 -180.945021 0 120 255
17.069039 -28.216318 -179.086122 0 120 255
15.440041 -28.096385 -177.227223 0 120 255
13.799492 -27.983378 -175.378650 0 120 255
12.073433 -27.921634 -173.606524 0 120 255
10.347374 -27.859891 -171.834398 0 120 255
8.621314 -27.798147 -170.062272 0 120 255
6.887941 -27.741574 -168.297577 0 120 255
5.068783 -27.745641 -166.620027 0 120 255
3.249625 -27.749708 -164.942477 0 120 255
1.430468 -27.753775 -163.264928 0 120 255
-0.392085 -27.760666 -161.591339 0 120 255
-2.299170 -27.837846 -160.016348 0 120 255
-4.206255 -27.915026 -158.441358 0 120 255
-6.113340 -27.992206 -156.866367 0 120 255
-8.020424 -28.069387 -155.291377 0 120 255
-10.008949 -28.226497 -153.826936 0 120 255
-11.997541 -28.383672 -152.362585 0 120 255
-13.986133 -28.540847 -150.898234 0 120 255
-15.974724 -28.698023 -149.433884 0 120 255
-18.034192 -28.938115 -148.083536 0 120 255
-20.096594 -29.181639 -146.737906 0 120 255
-22.158996 -29.425163 -145.392276 0 120 255
-24.221397 -29.668687 -144.046646 0 120 255
-26.343561 -29.997077 -142.817812 0 120 255
-28.470791 -30.332662 -141.598878 0 120 255
-30.598021 -30.668246 -140.379944 0 120 255
-32.725251 -31.003830 -139.161010 0 120 255
-34.900718 -31.425176 -138.060914 0 120 255
-37.082516 -31.857780 -136.976417 0 120 255
-39.264314 -32.290383 -135.891919 0 120 255
-41.446112 -32.722986 -134.807422 0 120 255
-43.664372 -33.241191 -133.842989 0 120 255
-45.889239 -33.774906 -132.900312 0 120 255
-48.114105 -34.308622 -131.957635 0 120 255
-50.338972 -34.842337 -131.014958 0 120 255
-52.588439 -35.460445 -130.192679 0 120 255
-54.843687 -36.098385 -129.398693 0 120 255
-57.098935 -36.736325 -128.604707 0 120 255
-59.354183 -37.374265 -127.810722 0 120 255
-61.622261 -38.094381 -127.136524 0 120 255
-63.894101 -38.838582 -126.497435 0 120 255
-66.165940 -39.582783 -125.858347 0 120 255
-68.437779 -40.326985 -125.219258 0 120 255
-70.710959 -41.150183 -124.698368 0 120 255
-72.984615 -42.001509 -124.219564 0 120 255
-75.258272 -42.852835 -123.740760 0 120 255
-77.531929 -43.704160 -123.261956 0 120 255
-79.795903 -44.630414 -122.898777 0 120 255
-82.055766 -45.588481 -122.584691 0 120 255
-84.315629 -46.546548 -122.270605 0 120 255
-86.575492 -47.504615 -121.956519 0 120 255
-88.815300 -48.532740 -121.754479 0 120 255
-91.045091 -49.595858 -121.608407 0 120 255
-93.274881 -50.658976 -121.462334 0 120 255
-95.504672 -51.722095 -121.316262 0 120 255
-97.704870 -52.849708 -121.277701 0 120 255
-99.887851 -54.014845 -121.301689 0 120 255
-102.070831 -55.179981 -121.325678 0 120 255
-104.253812 -56.345118 -121.349666 0 120 255
-106.398667 -57.568619 -121.475714 0 120 255
-108.517872 -58.831387 -121.670423 0 120 255
-110.637078 -60.094154 -121.865132 0 120 255
-112.756283 -61.356921 -122.059842 0 120 255
-114.829983 -62.671500 -122.350342 0 120 255
-116.868464 -64.026180 -122.714980 0 120 255
-118.906945 -65.380860 -123.079619 0 120 255
-120.945427 -66.735540 -123.444257 0 120 255
-122.932314 -68.135204 -123.897676 0 120 255
-124.873416 -69.574789 -124.429882 0 120 255
-126.814517 -71.014374 -124.962089 0 120 255
-128.755619 -72.453959 -125.494295 0 120 255
-130.640425 -73.931592 -126.107683 0 120 255
-132.468043 -75.447877 -126.803540 0 120 255
-134.295660 -76.964162 -127.499397 0 120 255
-136.123278 -78.480447 -128.195255 0 120 255
-137.891363 -80.027903 -128.964224 0 120 255
-139.590231 -81.611600 -129.818200 0 120 255
-141.289099 -83.195297 -130.672176 0 120 255
-142.987967 -84.778994 -131.526152 0 120 255
-144.625559 -86.387202 -132.444896 0 120 255
-146.181499 -88.028073 -133.449941 0 120 255
-147.737440 -89.668943 -134.454987 0 120 255
-149.293381 -91.309813 -135.460033 0 120 255
-150.787795 -92.968917 -136.521383 0 120 255
-152.187974 -94.655946 -137.668969 0 120 255
-153.588154 -96.342975 -138.816555 0 120 255
-154.988333 -98.030004 -139.964141 0 120 255
-156.328182 -99.729518 -141.159636 0 120 255
-157.561304 -101.451118 -142.439881 0 120 255
-158.794426 -103.172718 -143.720125 0 120 255
-160.027549 -104.894318 -145.000370 0 120 255
-161.202909 -106.623309 -146.320374 0 120 255
-162.259431 -108.367508 -147.722179 0 120 255
-163.315954 -110.111707 -149.123983 0 120 255
-164.372476 -111.855905 -150.525787 0 120 255
-165.375050 -113.603168 -151.959631 0 120 255
-166.247280 -115.357832 -153.470886 0 120 255
-167.119510 -117.112496 -154.982141 0 120 255
-167.991740 -118.867161 -156.493396 0 120 255
-168.814936 -120.621411 -158.029554 0 120 255
-169.497142 -122.374471 -159.637317 0 120 255
-170.179348 -124.127531 -161.245079 0 120 255
-170.861554 -125.880590 -162.852842 0 120 255
-171.500561 -127.630660 -164.479102 0 120 255
-171.989020 -129.370307 -166.169829 0 120 255
-172.477478 -131.109955 -167.860556 0 120 255
-172.965937 -132.849603 -169.551283 0 120 255
-173.417758 -134.584613 -171.254950 0 120 255
-173.710727 -136.299518 -173.014721 0 120 255
-174.003695 -138.014423 -174.774493 0 120 255
-174.296663 -139.729328 -176.534264 0 120 255
-174.560071 -141.438870 -178.302358 0 120 255
-174.657737 -143.118350 -180.117112 0 120 255
-174.755404 -144.797829 -181.931867 0 120 255
-174.853070 -146.477308 -183.746621 0 120 255
-174.928555 -148.151588 -185.566082 0 120 255
-174.832953 -149.785765 -187.421844 0 120 255
-174.737351 -151.419942 -189.277605 0 120 255
-174.641749 -153.054119 -191.133366 0 120 255
-174.531437 -154.684088 -192.991247 0 120 255
-174.246284 -156.264036 -194.874323 0 120 255
-173.961131 -157.843984 -196.757399 0 120 255
-173.675979 -159.423933 -198.640474 0 120 255
-173.383485 -161.001407 -200.524113 0 120 255
-172.914023 -162.519227 -202.421308 0 120 255
-172.444561 -164.037047 -204.318504 0 120 255
-171.975099 -165.554867 -206.215699 0 120 255
-171.505382 -167.072589 -208.112897 0 120 255
-170.858191 -168.521512 -210.011657 0 120 255
-170.211000 -169.970435 -211.910417 0 120 255
-169.563809 -171.419358 -213.809177 0 120 255
-168.916618 -172.868281 -215.707937 0 120 255
-168.105795 -174.245486 -217.596891 0 120 255
-167.288583 -175.619890 -219.485462 0 120 255
-166.471371 -176.994295 -221.374033 0 120 255
-165.654159 -178.368699 -223.262604 0 120 255
-164.687998 -179.670224 -225.131764 0 120 255
-163.709372 -180.965649 -226.999300 0 120 255
-162.730746 -182.261074 -228.866835 0 120 255
-161.752121 -183.556499 -230.734371 0 120 255
-160.639270 -184.779327 -232.574637 0 120 255
-159.508550 -185.992491 -234.411272 0 120 255
-158.377829 -187.205654 -236.247908 0 120 255
-157.247108 -188.418817 -238.084543 0 120 255
-155.996622 -189.560906 -239.887757 0 120 255
-154.723599 -190.689621 -241.684682 0 120 255
-153.450576 -191.818336 -243.481607 0 120 255
-152.177553 -192.947051 -245.278532 0 120 255
-150.798734 -194.007311 -247.037482 0 120 255
-149.393493 -195.050475 -248.786947 0 120 255
-147.988251 -196.093639 -250.536412 0 120 255
-146.583009 -197.136803 -252.285877 0 120 255
-145.085278 -198.115035 -253.994319 0 120 255
-143.558035 -199.072550 -255.689672 0 120 255
-142.030793 -200.030064 -257.385024 0 120 255
-140.503550 -200.987578 -259.080377 0 120 255
-138.896270 -201.884393 -260.732998 0 120 255
-137.257165 -202.757073 -262.368630 0 120 255
-135.618061 -203.629752 -264.004262 0 120 255
-133.978957 -204.502432 -265.639893 0 120 255
-132.271334 -205.319190 -267.232292 0 120 255
-130.530327 -206.108702 -268.803625 0 120 255
-128.789320 -206.898214 -270.374959 0 120 255
-127.048313 -207.687726 -271.946293 0 120 255
-125.249305 -208.426454 -273.474950 0 120 255
-123.416055 -209.135199 -274.978411 0 120 255
-121.582805 -209.843945 -276.481873 0 120 255
-119.749554 -210.552691 -277.985335 0 120 255
-117.867767 -211.216007 -279.447546 0 120 255
-115.951505 -211.847055 -280.880460 0 120 255
-114.035242 -212.478104 -282.313373 0 120 255
-112.118980 -213.109152 -283.746286 0 120 255
-110.162613 -213.700191 -285.140128 0 120 255
-108.172111 -214.257174 -286.500714 0 120 255
-106.181608 -214.814158 -287.861299 0 120 255
-104.191106 -215.371141 -289.221885 0 120 255
-102.167903 -215.893490 -290.546147 0 120 255
-100.111377 -216.380545 -291.833393 0 120 255
-98.054851 -216.867599 -293.120638 0 120 255
-95.998324 -217.354653 -294.407884 0 120 255
-93.915527 -217.812281 -295.662001 0 120 255
-91.800616 -218.233937 -296.875625 0 120 255
-89.685705 -218.655594 -298.089248 0 120 255
-87.570794 -219.077251 -299.302872 0 120 255
-85.435124 -219.474433 -300.486879 0 120 255
-83.268869 -219.835555 -301.627254 0 120 255
-81.102615 -220.196678 -302.767629 0 120 255
-78.936360 -220.557801 -303.908004 0 120 255
-76.754012 -220.899069 -305.022474 0 120 255
-74.542848 -221.204788 -306.090564 0 120 255
-72.331685 -221.510508 -307.158654 0 120 255
-70.120522 -221.816227 -308.226744 0 120 255
-67.897160 -222.106320 -309.272731 0 120 255
-65.646916 -222.361977 -310.270010 0 120 255
-63.396672 -222.617634 -311.267288 0 120 255
-61.146427 -222.873292 -312.264566 0 120 255
-58.887196 -223.117107 -313.243553 0 120 255
-56.603122 -223.328192 -314.171978 0 120 255
-54.319047 -223.539276 -315.100402 0 120 255
-52.034973 -223.750361 -316.028827 0 120 255
-49.744515 -223.952912 -316.942685 0 120 255
-47.431284 -224.125024 -317.804580 0 120 255
-45.118053 -224.297135 -318.666474 0 120 255
-42.804821 -224.469247 -319.528369 0 120 255
-40.487289 -224.635626 -320.379285 0 120 255
-38.149057 -224.774419 -321.177365 0 120 255
-35.810825 -224.913212 -321.975446 0 120 255
-33.472594 -225.052005 -322.773527 0 120 255
-31.131709 -225.187480 -323.564032 0 120 255
-28.772242 -225.299718 -324.301489 0 120 255
-26.412775 -225.411957 -325.038946 0 120 255
-24.053308 -225.524195 -325.776402 0 120 255
-21.692461 -225.635357 -326.509407 0 120 255
-19.315226 -225.733745 -327.189552 0 120 255
-16.937991 -225.832133 -327.869696 0 120 255
-14.560755 -225.930521 -328.549841 0 120 255
-12.183065 -226.028794 -329.228340 0 120 255
-9.790657 -226.123372 -329.853609 0 120 255
-7.398249 -226.217949 -330.478877 0 120 255
-5.005840 -226.312526 -331.104146 0 120 255
-2.613432 -226.407103 -331.729414 0 120 255
-0.208216 -226.496739 -332.304199 0 120 255
2.197238 -226.586282 -332.878041 0 120 255
4.602693 -226.675825 -333.451883 0 120 255
7.008147 -226.765368 -334.025726 0 120 255
9.423572 -226.851406 -334.556479 0 120 255
11.839713 -226.937193 -335.084141 0 120 255
14.255854 -227.022980 -335.611803 0 120 255
16.671995 -227.108766 -336.139465 0 120 255
19.095693 -227.194773 -336.631032 0 120 255
21.520378 -227.280807 -337.117887 0 120 255
23.945062 -227.366842 -337.604742 0 120 255
26.369746 -227.452877 -338.091596 0 120 255
28.800345 -227.539382 -338.547709 0 120 255
31.232102 -227.625980 -338.997803 0 120 255
33.663858 -227.712577 -339.447897 0 120 255
36.095615 -227.799175 -339.897991 0 120 255
38.532082 -227.885985 -340.321574 0 120 255
40.969812 -227.972852 -340.738045 0 120 255
43.407542 -228.059719 -341.154516 0 120 255
45.845273 -228.146586 -341.570987 0 120 255
48.286620 -228.233218 -341.965540 0 120 255
50.729232 -228.319766 -342.352420 0 120 255
53.171845 -228.406315 -342.739299 0 120 255
55.614458 -228.492864 -343.126179 0 120 255
58.060015 -228.578337 -343.494017 0 120 255
60.506878 -228.663332 -343.853408 0 120 255
62.953741 -228.748328 -344.212798 0 120 255
65.400603 -228.833324 -344.572189 0 120 255
67.849975 -228.913481 -344.914988 0 120 255
70.300730 -228.990968 -345.248634 0 120 255
72.751485 -229.068456 -345.582280 0 120 255
75.202239 -229.145943 -345.915926 0 120 255
77.654985 -229.214932 -346.236286 0 120 255
80.109080 -229.278163 -346.547647 0 120 255
82.563174 -229.341393 -346.859008 0 120 255
85.017269 -229.404624 -347.170370 0 120 255
87.472856 -229.458331 -347.471311 0 120 255
89.929674 -229.504182 -347.763657 0 120 255
92.386492 -229.550033 -348.056003 0 120 255
94.843310 -229.595883 -348.348349 0 120 255
97.301191 -229.631835 -348.632761 0 120 255
99.760135 -229.657881 -348.909236 0 120 255
102.219080 -229.683928 -349.185711 0 120 255
104.678024 -229.709974 -349.462185 0 120 255
107.137665 -229.726013 -349.732872 0 120 255
109.598150 -229.729913 -349.996539 0 120 255
112.058636 -229.733812 -350.260206 0 120 255
114.519121 -229.737712 -350.523872 0 120 255
116.979987 -229.731741 -350.783599 0 120 255
119.441416 -229.711209 -351.037512 0 120 255
121.902844 -229.690677 -351.291426 0 120 255
124.364273 -229.670145 -351.545340 0 120 255
126.825816 -229.640132 -351.796849 0 120 255
129.287565 -229.592985 -352.044013 0 120 255
131.749315 -229.545838 -352.291177 0 120 255
134.211064 -229.498691 -352.538341 0 120 255
136.672709 -229.442692 -352.784342 0 120 255
139.134117 -229.366862 -353.027737 0 120 255
141.595526 -229.291033 -353.271132 0 120 255
144.056935 -229.215203 -353.514526 0 120 255
146.518069 -229.131364 -353.757697 0 120 255
148.978426 -229.024864 -354.000232 0 120 255
151.438783 -228.918364 -354.242768 0 120 255
153.899141 -228.811863 -354.485304 0 120 255
156.359108 -228.698412 -354.728277 0 120 255
158.817640 -228.559400 -354.972856 0 120 255
161.276172 -228.420389 -355.217435 0 120 255
163.734704 -228.281378 -355.462014 0 120 255
166.192143 -228.132736 -355.710747 0 120 255
168.644114 -227.935939 -355.980252 0 120 255
171.096085 -227.739141 -356.249758 0 120 255
173.548056 -227.542343 -356.519264 0 120 255
175.999482 -227.341272 -356.790286 0 120 255
178.447038 -227.109802 -357.072097 0 120 255
180.894593 -226.878332 -357.353908 0 120 255
183.342149 -226.646862 -357.635720 0 120 255
185.789704 -226.415392 -357.917532 0 120 255
188.237257 -226.183911 -358.199355 0 120 255
190.684810 -225.952430 -358.481179 0 120 255
193.132363 -225.720949 -358.763003 0 120 255
195.579916 -225.489468 -359.044826 0 120 255
198.027470 -225.257991 -359.326642 0 120 255
200.475025 -225.026514 -359.608458 0 120 255
202.922579 -224.795037 -359.890275 0 120 255
205.370133 -224.563560 -360.172091 0 120 255
