ply
format ascii 1.0
element vertex 385
property float x
property float y
property float z
property uchar red
property uchar green
property uchar blue
end_header
77.430455 -42.474882 -360.397637 0 120 255
77.187548 -42.528712 -357.935883 0 120 255
76.944640 -42.582543 -355.474129 0 120 255
76.701732 -42.636373 -353.012376 0 120 255
76.458825 -42.690204 -350.550622 0 120 255
76.216208 -42.754052 -348.089080 0 120 255
75.973603 -42.818335 -345.627548 0 120 255
75.730998 -42.882618 -343.166015 0 120 255
75.488394 -42.946901 -340.704482 0 120 255
75.150673 -43.522574 -338.327208 0 120 255
74.804304 -44.144744 -335.957595 0 120 255
74.457936 -44.766915 -333.587982 0 120 255
74.111567 -45.389085 -331.218369 0 120 255
73.700407 -46.413630 -329.010479 0 120 255
73.279606 -47.498050 -326.826654 0 120 255
72.858805 -48.582470 -324.642829 0 120 255
72.438004 -49.666890 -322.459004 0 120 255
71.980281 -51.060939 -320.474034 0 120 255
71.514689 -52.520969 -318.531441 0 120 255
71.049098 -53.980999 -316.588847 0 120 255
70.583507 -55.441029 -314.646253 0 120 255
70.104791 -57.132058 -312.912550 0 120 255
69.622340 -58.888834 -311.238301 0 120 255
69.139888 -60.645610 -309.564052 0 120 255
68.657436 -62.402387 -307.889802 0 120 255
68.181524 -64.327131 -306.418161 0 120 255
67.707995 -66.313116 -305.020389 0 120 255
67.234467 -68.299102 -303.622617 0 120 255
66.760938 -70.285087 -302.224845 0 120 255
66.309999 -72.390146 -301.014529 0 120 255
65.869326 -74.549325 -299.889413 0 120 255
65.428654 -76.708504 -298.764297 0 120 255
64.987981 -78.867683 -297.639181 0 120 255
64.582909 -81.108680 -296.682193 0 120 255
64.197644 -83.395198 -295.818747 0 120 255
63.812379 -85.681716 -294.955302 0 120 255
63.427114 -87.968234 -294.091856 0 120 255
63.087902 -90.308388 -293.375770 0 120 255
62.779672 -92.684624 -292.758819 0 120 255
62.471441 -95.060860 -292.141867 0 120 255
62.163211 -97.437096 -291.524916 0 120 255
61.909259 -99.845627 -291.034537 0 120 255
61.699110 -102.280220 -290.646303 0 120 255
61.488961 -104.714813 -290.258069 0 120 255
61.278812 -107.149407 -289.869835 0 120 255
61.129080 -109.600048 -289.588098 0 120 255
61.037571 -112.066154 -289.408991 0 120 255
60.946062 -114.532260 -289.229885 0 120 255
60.854552 -116.998366 -289.050778 0 120 255
60.827565 -119.468066 -288.959143 0 120 255
60.874711 -121.941895 -288.968007 0 120 255
60.921856 -124.415725 -288.976871 0 120 255
60.969002 -126.889554 -288.985735 0 120 255
61.082694 -129.357404 -289.064200 0 120 255
61.287646 -131.817055 -289.238112 0 120 255
61.492598 -134.276706 -289.412024 0 120 255
61.697549 -136.736357 -289.585936 0 120 255
61.968927 -139.182748 -289.812864 0 120 255
62.349469 -141.607349 -290.126919 0 120 255
62.730012 -144.031950 -290.440974 0 120 255
63.110554 -146.456551 -290.755029 0 120 255
63.555216 -148.862558 -291.106954 0 120 255
64.127075 -151.231680 -291.534003 0 120 255
64.698934 -153.600802 -291.961051 0 120 255
65.270794 -155.969924 -292.388100 0 120 255
65.902309 -158.316900 -292.839520 0 120 255
66.678309 -160.610239 -293.349965 0 120 255
67.454309 -162.903577 -293.860410 0 120 255
68.230309 -165.196916 -294.370855 0 120 255
69.059481 -167.466296 -294.894110 0 120 255
70.048561 -169.663627 -295.455886 0 120 255
71.037641 -171.860957 -296.017662 0 120 255
72.026722 -174.058287 -296.579438 0 120 255
73.060773 -176.231607 -297.144730 0 120 255
74.267042 -178.312974 -297.723484 0 120 255
75.473312 -180.394341 -298.302238 0 120 255
76.679581 -182.475709 -298.880992 0 120 255
77.921356 -184.534800 -299.456592 0 120 255
79.343083 -186.480990 -300.016210 0 120 255
80.764810 -188.427179 -300.575828 0 120 255
82.186537 -190.373369 -301.135446 0 120 255
83.633684 -192.300786 -301.688146 0 120 255
85.262571 -194.093996 -302.191390 0 120 255
86.891459 -195.887207 -302.694634 0 120 255
88.520346 -197.680417 -303.197878 0 120 255
90.164725 -199.460014 -303.693559 0 120 255
91.985350 -201.084718 -304.103185 0 120 255
93.805974 -202.709422 -304.512812 0 120 255
95.626599 -204.334127 -304.922439 0 120 255
97.453821 -205.951776 -305.327009 0 120 255
99.443559 -207.395617 -305.607002 0 120 255
101.433297 -208.839459 -305.886994 0 120 255
103.423035 -210.283301 -306.166987 0 120 255
105.412773 -211.727143 -306.446980 0 120 255
107.541717 -212.982427 -306.564342 0 120 255
109.671033 -214.237208 -306.681269 0 120 255
111.800348 -215.491989 -306.798196 0 120 255
113.929664 -216.746770 -306.915124 0 120 255
116.158366 -217.817722 -306.848091 0 120 255
118.391670 -218.880162 -306.772541 0 120 255
120.624973 -219.942603 -306.696990 0 120 255
122.858277 -221.005043 -306.621440 0 120 255
125.149720 -221.893727 -306.347888 0 120 255
127.446620 -222.766103 -306.055751 0 120 255
129.743520 -223.638478 -305.763615 0 120 255
132.040420 -224.510854 -305.471478 0 120 255
134.354817 -225.224424 -304.974801 0 120 255
136.671767 -225.914824 -304.448279 0 120 255
138.988717 -226.605223 -303.921757 0 120 255
141.305666 -227.295623 -303.395235 0 120 255
143.601973 -227.846300 -302.664913 0 120 255
145.894087 -228.368593 -301.893188 0 120 255
148.186200 -228.890885 -301.121463 0 120 255
150.478314 -229.413177 -300.349738 0 120 255
152.715770 -229.817897 -299.381564 0 120 255
154.938661 -230.191286 -298.361042 0 120 255
157.161553 -230.564676 -297.340519 0 120 255
159.384444 -230.938065 -296.319997 0 120 255
161.523996 -231.217936 -295.116045 0 120 255
163.635471 -231.466299 -293.850295 0 120 255
165.746946 -231.714663 -292.584546 0 120 255
167.858421 -231.963027 -291.318796 0 120 255
169.863895 -232.142525 -289.887052 0 120 255
171.825304 -232.293397 -288.386304 0 120 255
173.786714 -232.444269 -286.885557 0 120 255
175.748123 -232.595141 -285.384809 0 120 255
177.587098 -232.702096 -283.738702 0 120 255
179.364312 -232.786897 -282.019268 0 120 255
181.141526 -232.871698 -280.299834 0 120 255
182.918740 -232.956499 -278.580400 0 120 255
184.563157 -233.019666 -276.738135 0 120 255
186.127179 -233.069736 -274.821508 0 120 255
187.691201 -233.119806 -272.904880 0 120 255
189.255223 -233.169876 -270.988253 0 120 255
190.681240 -233.212735 -268.971864 0 120 255
192.007752 -233.250395 -266.883544 0 120 255
193.334264 -233.288056 -264.795223 0 120 255
194.660775 -233.325716 -262.706903 0 120 255
195.849851 -233.359485 -260.542195 0 120 255
196.921535 -233.389931 -258.312240 0 120 255
197.993218 -233.420377 -256.082285 0 120 255
199.064901 -233.450823 -253.852330 0 120 255
200.004082 -233.476494 -251.567889 0 120 255
200.809493 -233.497344 -249.228442 0 120 255
201.614904 -233.518193 -246.888996 0 120 255
202.420316 -233.539043 -244.549549 0 120 255
203.101213 -233.555283 -242.175049 0 120 255
203.633490 -233.566020 -239.758709 0 120 255
204.165766 -233.576757 -237.342369 0 120 255
204.698043 -233.587494 -234.926029 0 120 255
205.116221 -233.594000 -232.491222 0 120 255
205.372945 -233.594519 -230.030282 0 120 255
205.629670 -233.595039 -227.569342 0 120 255
205.886394 -233.595558 -225.108402 0 120 255
206.041160 -233.592325 -222.642520 0 120 255
206.023983 -233.582763 -220.168304 0 120 255
206.006807 -233.573201 -217.694088 0 120 255
205.989630 -233.563639 -215.219871 0 120 255
205.883689 -233.550850 -212.751128 0 120 255
205.597834 -233.531523 -210.293477 0 120 255
205.311979 -233.512195 -207.835827 0 120 255
205.026124 -233.492867 -205.378176 0 120 255
204.665110 -233.470846 -202.933395 0 120 255
204.118733 -233.442184 -200.520350 0 120 255
203.572355 -233.413521 -198.107306 0 120 255
203.025978 -233.384859 -195.694262 0 120 255
202.417978 -233.354003 -193.298646 0 120 255
201.621715 -233.316445 -190.956279 0 120 255
200.825452 -233.278888 -188.613911 0 120 255
200.029189 -233.241331 -186.271543 0 120 255
199.184341 -233.202074 -183.948575 0 120 255
198.150717 -233.156216 -181.700987 0 120 255
197.117093 -233.110358 -179.453399 0 120 255
196.083470 -233.064500 -177.205811 0 120 255
195.013495 -233.017382 -174.977270 0 120 255
193.756550 -232.963784 -172.846695 0 120 255
192.499604 -232.910185 -170.716121 0 120 255
191.242659 -232.856587 -168.585546 0 120 255
189.960566 -232.802134 -166.471595 0 120 255
188.495553 -232.741461 -164.478560 0 120 255
187.030540 -232.680788 -162.485525 0 120 255
185.565527 -232.620116 -160.492490 0 120 255
184.085372 -232.558936 -158.511816 0 120 255
182.428581 -232.491845 -156.675332 0 120 255
180.771789 -232.424754 -154.838847 0 120 255
179.114998 -232.357664 -153.002363 0 120 255
177.451736 -232.290361 -151.172339 0 120 255
175.620455 -232.217551 -149.510039 0 120 255
173.789174 -232.144742 -147.847738 0 120 255
171.957894 -232.071932 -146.185438 0 120 255
170.126613 -231.999122 -144.523138 0 120 255
168.139819 -231.921318 -143.050575 0 120 255
166.152282 -231.843489 -141.578919 0 120 255
164.164744 -231.765660 -140.107264 0 120 255
162.177207 -231.687832 -138.635608 0 120 255
160.059079 -231.605970 -137.360363 0 120 255
157.934573 -231.523912 -136.094712 0 120 255
155.810067 -231.441853 -134.829062 0 120 255
153.685560 -231.359795 -133.563411 0 120 255
151.454872 -231.274613 -132.498560 0 120 255
149.213896 -231.189128 -131.453165 0 120 255
146.972920 -231.103644 -130.407770 0 120 255
144.731944 -231.018159 -129.362375 0 120 255
142.408675 -230.930426 -128.519947 0 120 255
140.073104 -230.842358 -127.707858 0 120 255
137.737534 -230.754289 -126.895770 0 120 255
135.401963 -230.666220 -126.083682 0 120 255
133.007459 -230.576747 -125.474395 0 120 255
130.600739 -230.486984 -124.907143 0 120 255
128.194019 -230.397220 -124.339891 0 120 255
125.787300 -230.307457 -123.772639 0 120 255
123.344349 -230.217117 -123.405564 0 120 255
120.891576 -230.126620 -123.092756 0 120 255
118.438803 -230.036123 -122.779947 0 120 255
115.986031 -229.945626 -122.467139 0 120 255
113.518841 -229.855334 -122.349284 0 120 255
111.046722 -229.765111 -122.298085 0 120 255
108.574604 -229.674888 -122.246885 0 120 255
106.102485 -229.584665 -122.195685 0 120 255
103.636515 -229.495355 -122.331410 0 120 255
101.173133 -229.406429 -122.545825 0 120 255
98.709750 -229.317503 -122.760239 0 120 255
96.246368 -229.228577 -122.974654 0 120 255
93.807978 -229.141214 -123.365294 0 120 255
91.382329 -229.054648 -123.845778 0 120 255
88.956680 -228.968081 -124.326262 0 120 255
86.531030 -228.881515 -124.806747 0 120 255
84.147022 -228.797083 -125.450336 0 120 255
81.788434 -228.713953 -126.193493 0 120 255
79.429845 -228.630824 -126.936651 0 120 255
77.071257 -228.547695 -127.679808 0 120 255
74.768311 -228.467138 -128.570855 0 120 255
72.505725 -228.388448 -129.569177 0 120 255
70.243139 -228.309757 -130.567499 0 120 255
67.980553 -228.231066 -131.565821 0 120 255
65.784581 -228.155271 -132.695218 0 120 255
63.645756 -228.081961 -133.937065 0 120 255
61.506930 -228.008651 -135.178913 0 120 255
59.368105 -227.935341 -136.420760 0 120 255
57.303599 -227.865152 -137.775906 0 120 255
55.314340 -227.798124 -139.245766 0 120 255
53.325081 -227.731095 -140.715626 0 120 255
51.335822 -227.664067 -142.185486 0 120 255
49.425241 -227.600259 -143.750572 0 120 255
47.608698 -227.540301 -145.429473 0 120 255
45.792156 -227.480342 -147.108375 0 120 255
43.975613 -227.420384 -148.787277 0 120 255
42.238830 -227.363619 -150.543689 0 120 255
40.614873 -227.311373 -152.409745 0 120 255
38.990915 -227.259127 -154.275801 0 120 255
37.366958 -227.206881 -156.141857 0 120 255
35.820793 -227.157695 -158.068686 0 120 255
34.405539 -227.113660 -160.097787 0 120 255
32.990286 -227.069624 -162.126888 0 120 255
31.575032 -227.025588 -164.155989 0 120 255
30.232905 -226.984386 -166.230630 0 120 255
29.038383 -226.948904 -168.397192 0 120 255
27.843862 -226.913422 -170.563754 0 120 255
26.649340 -226.877940 -172.730316 0 120 255
25.521047 -226.844990 -174.929109 0 120 255
24.555061 -226.818249 -177.206891 0 120 255
23.589075 -226.791507 -179.484673 0 120 255
22.623089 -226.764766 -181.762454 0 120 255
21.714729 -226.740202 -184.061364 0 120 255
20.980862 -226.722235 -186.424254 0 120 255
20.246995 -226.704267 -188.787144 0 120 255
19.513128 -226.686300 -191.150034 0 120 255
18.827175 -226.670125 -193.525308 0 120 255
18.325142 -226.660831 -195.948118 0 120 255
17.823108 -226.651538 -198.370928 0 120 255
17.321074 -226.642244 -200.793738 0 120 255
16.856825 -226.634348 -203.222551 0 120 255
16.583679 -226.633523 -205.681722 0 120 255
16.310534 -226.632697 -208.140894 0 120 255
16.037388 -226.631871 -210.600065 0 120 255
15.791913 -226.632062 -213.061042 0 120 255
15.742898 -226.639469 -215.534840 0 120 255
15.693883 -226.646876 -218.008637 0 120 255
15.644868 -226.654283 -220.482435 0 120 255
15.613693 -226.662337 -222.955797 0 120 255
15.782673 -226.677660 -225.424267 0 120 255
15.951652 -226.692983 -227.892737 0 120 255
16.120632 -226.708306 -230.361207 0 120 255
16.298090 -226.723935 -232.828727 0 120 255
16.677891 -226.746845 -235.273591 0 120 255
17.057692 -226.769755 -237.718455 0 120 255
17.437493 -226.792665 -240.163318 0 120 255
17.817294 -226.815575 -242.608182 0 120 255
18.399736 -226.845727 -245.012746 0 120 255
18.982461 -226.875889 -247.417253 0 120 255
19.565187 -226.906051 -249.821759 0 120 255
20.147913 -226.936213 -252.226266 0 120 255
20.916836 -226.972951 -254.577405 0 120 255
21.694126 -227.009984 -256.926146 0 120 255
22.471415 -227.047018 -259.274886 0 120 255
23.248705 -227.084051 -261.623626 0 120 255
24.196072 -227.127031 -263.908298 0 120 255
25.159154 -227.170560 -266.187050 0 120 255
26.122236 -227.214088 -268.465802 0 120 255
27.085318 -227.257617 -270.744554 0 120 255
28.202741 -227.306500 -272.950660 0 120 255
29.342447 -227.356157 -275.146278 0 120 255
30.482152 -227.405813 -277.341897 0 120 255
31.621857 -227.455469 -279.537515 0 120 255
32.900684 -227.509887 -281.653785 0 120 255
34.207546 -227.565266 -283.754065 0 120 255
35.514408 -227.620644 -285.854346 0 120 255
36.821270 -227.676022 -287.954626 0 120 255
38.252493 -227.735608 -289.970613 0 120 255
39.716624 -227.796306 -291.964296 0 120 255
41.180754 -227.857005 -293.957978 0 120 255
42.644885 -227.917703 -295.951661 0 120 255
44.218885 -227.982102 -297.857942 0 120 255
45.829655 -228.047741 -299.734972 0 120 255
47.440426 -228.113379 -301.612002 0 120 255
49.051197 -228.179017 -303.489033 0 120 255
50.757730 -228.247813 -305.277357 0 120 255
52.503811 -228.317912 -307.029047 0 120 255
54.249893 -228.388012 -308.780737 0 120 255
55.995975 -228.458112 -310.532427 0 120 255
57.824123 -228.530914 -312.195988 0 120 255
59.693391 -228.605070 -313.815393 0 120 255
61.562658 -228.679226 -315.434797 0 120 255
63.431926 -228.753382 -317.054202 0 120 255
65.370330 -228.829868 -318.587682 0 120 255
67.350273 -228.907753 -320.069537 0 120 255
69.330216 -228.985638 -321.551391 0 120 255
71.310159 -229.063523 -323.033245 0 120 255
73.347159 -229.143169 -324.432986 0 120 255
75.424946 -229.224074 -325.774025 0 120 255
77.502733 -229.304980 -327.115064 0 120 255
79.580521 -229.385885 -328.456104 0 120 255
81.704241 -229.467408 -329.720435 0 120 255
83.866842 -229.549454 -330.919833 0 120 255
86.029443 -229.631499 -332.119232 0 120 255
88.192045 -229.713545 -333.318630 0 120 255
90.390062 -229.790544 -334.449539 0 120 255
92.623498 -229.862494 -335.511949 0 120 255
94.856935 -229.934445 -336.574359 0 120 255
97.090372 -230.006396 -337.636770 0 120 255
99.350343 -230.068348 -338.639607 0 120 255
101.641671 -230.118483 -339.572041 0 120 255
103.933000 -230.168618 -340.504475 0 120 255
106.224328 -230.218754 -341.436909 0 120 255
108.534987 -230.256135 -342.318512 0 120 255
110.872706 -230.275661 -343.128956 0 120 255
113.210426 -230.295188 -343.939399 0 120 255
115.548145 -230.314714 -344.749843 0 120 255
117.899439 -230.320335 -345.517889 0 120 255
120.273355 -230.302779 -346.215275 0 120 255
122.647271 -230.285223 -346.912661 0 120 255
125.021187 -230.267667 -347.610047 0 120 255
127.404199 -230.236336 -348.272985 0 120 255
129.805403 -230.177452 -348.867024 0 120 255
132.206608 -230.118568 -349.461063 0 120 255
134.607812 -230.059684 -350.055102 0 120 255
137.014760 -229.988162 -350.621985 0 120 255
139.435664 -229.885936 -351.122895 0 120 255
141.856567 -229.783710 -351.623804 0 120 255
144.277470 -229.681483 -352.124714 0 120 255
146.701727 -229.568472 -352.605008 0 120 255
149.136052 -229.423082 -353.023403 0 120 255
151.570377 -229.277691 -353.441799 0 120 255
154.004702 -229.132300 -353.860194 0 120 255
156.440790 -228.978415 -354.263671 0 120 255
158.883588 -228.792206 -354.610369 0 120 255
161.326385 -228.605996 -354.957068 0 120 255
163.769182 -228.419787 -355.303766 0 120 255
166.212765 -228.227728 -355.640651 0 120 255
168.660286 -228.006349 -355.928340 0 120 255
171.107807 -227.784970 -356.216029 0 120 255
173.555328 -227.563590 -356.503718 0 120 255
176.002819 -227.340956 -356.790670 0 120 255
178.450096 -227.109513 -357.072449 0 120 255
180.897374 -226.878069 -357.354229 0 120 255
183.344651 -226.646626 -357.636008 0 120 255
185.791928 -226.415181 -357.917788 0 120 255
188.239203 -226.183727 -358.199580 0 120 255
190.686478 -225.952272 -358.481371 0 120 255
193.133753 -225.720817 -358.763163 0 120 255
195.581028 -225.489363 -359.044954 0 120 255
198.028305 -225.257912 -359.326738 0 120 255
200.475581 -225.026462 -359.608522 0 120 255
202.922857 -224.795011 -359.890307 0 120 255
205.370133 -224.563560 -360.172091 0 120 255
