ply
format ascii 1.0
element vertex 385
property float x
property float y
property float z
property uchar red
property uchar green
property uchar blue
end_header
77.430455 -42.474882 -360.397637 0 120 255
77.187217 -42.528786 -357.932535 0 120 255
76.943979 -42.582689 -355.467433 0 120 255
76.700741 -42.636593 -353.002331 0 120 255
76.457503 -42.690497 -350.537229 0 120 255
76.263375 -42.789694 -348.069213 0 120 255
76.071084 -42.890586 -345.601088 0 120 255
75.878793 -42.991477 -343.132962 0 120 255
75.686502 -43.092369 -340.664837 0 120 255
75.610444 -43.150549 -338.189285 0 120 255
75.543977 -43.205204 -335.713120 0 120 255
75.477510 -43.259859 -333.236955 0 120 255
75.411043 -43.314514 -330.760790 0 120 255
75.396140 -43.282281 -328.283675 0 120 255
75.388482 -43.237839 -325.806426 0 120 255
75.380823 -43.193397 -323.329176 0 120 255
75.373165 -43.148955 -320.851927 0 120 255
75.400782 -43.017820 -318.378256 0 120 255
75.435585 -42.869023 -315.905313 0 120 255
75.470389 -42.720226 -313.432370 0 120 255
75.505192 -42.571429 -310.959427 0 120 255
75.560015 -42.337413 -308.493880 0 120 255
75.620298 -42.080161 -306.030349 0 120 255
75.680581 -41.822908 -303.566818 0 120 255
75.740863 -41.565656 -301.103287 0 120 255
75.807078 -41.225838 -298.650429 0 120 255
75.875357 -40.857300 -296.201283 0 120 255
75.943636 -40.488762 -293.752137 0 120 255
76.011914 -40.120223 -291.302992 0 120 255
76.073312 -39.672854 -288.867398 0 120 255
76.131752 -39.191591 -286.437631 0 120 255
76.190191 -38.710327 -284.007864 0 120 255
76.248631 -38.229064 -281.578097 0 120 255
76.288729 -37.673669 -279.164477 0 120 255
76.319297 -37.079757 -276.759247 0 120 255
76.349866 -36.485845 -274.354017 0 120 255
76.380435 -35.891934 -271.948787 0 120 255
76.382617 -35.229427 -269.562102 0 120 255
76.367274 -34.524573 -267.186867 0 120 255
76.351931 -33.819718 -264.811632 0 120 255
76.336589 -33.114864 -262.436397 0 120 255
76.284260 -32.347660 -260.081967 0 120 255
76.205148 -31.535305 -257.742604 0 120 255
76.126036 -30.722950 -255.403242 0 120 255
76.046924 -29.910594 -253.063879 0 120 255
75.923699 -29.042710 -250.747477 0 120 255
75.763388 -28.128140 -248.450379 0 120 255
75.603076 -27.213571 -246.153281 0 120 255
75.442765 -26.299001 -243.856182 0 120 255
75.232670 -25.336149 -241.584110 0 120 255
74.974389 -24.326563 -239.336261 0 120 255
74.716108 -23.316977 -237.088412 0 120 255
74.457827 -22.307391 -234.840564 0 120 255
74.145536 -21.257053 -232.619710 0 120 255
73.773479 -20.161622 -230.428728 0 120 255
73.401422 -19.066190 -228.237747 0 120 255
73.029366 -17.970758 -226.046765 0 120 255
72.600475 -16.842244 -223.884632 0 120 255
72.100110 -15.672127 -221.758777 0 120 255
71.599745 -14.502010 -219.632922 0 120 255
71.099380 -13.331893 -217.507068 0 120 255
70.540697 -12.136357 -215.411767 0 120 255
69.899083 -10.904677 -213.359916 0 120 255
69.257469 -9.672996 -211.308065 0 120 255
68.615855 -8.441316 -209.256215 0 120 255
67.915707 -7.191744 -207.236433 0 120 255
67.121853 -5.913531 -205.267991 0 120 255
66.328000 -4.635317 -203.299549 0 120 255
65.534147 -3.357103 -201.331107 0 120 255
64.682717 -2.068244 -199.396023 0 120 255
63.727900 -0.760269 -197.520836 0 120 255
62.773084 0.547707 -195.645650 0 120 255
61.818268 1.855682 -193.770463 0 120 255
60.807908 3.167454 -191.929640 0 120 255
59.686026 4.486849 -190.157812 0 120 255
58.564145 5.806245 -188.385984 0 120 255
57.442263 7.125640 -186.614156 0 120 255
56.267824 8.442499 -184.877371 0 120 255
54.975672 9.753678 -183.219074 0 120 255
53.683519 11.064856 -181.560776 0 120 255
52.391367 12.376035 -179.902479 0 120 255
51.050473 13.678969 -178.279534 0 120 255
49.587992 14.961335 -176.744776 0 120 255
48.125510 16.243702 -175.210018 0 120 255
46.663029 17.526068 -173.675260 0 120 255
45.156309 18.795201 -172.175751 0 120 255
43.526760 20.027590 -170.774115 0 120 255
41.897211 21.259979 -169.372479 0 120 255
40.267661 22.492368 -167.970843 0 120 255
38.598922 23.707345 -166.603902 0 120 255
36.808984 24.868473 -165.344260 0 120 255
35.019045 26.029601 -164.084617 0 120 255
33.229107 27.190729 -162.824975 0 120 255
31.405407 28.331155 -161.598998 0 120 255
29.465150 29.400106 -160.489249 0 120 255
27.524893 30.469058 -159.379499 0 120 255
25.584637 31.538009 -158.269750 0 120 255
23.616261 32.583920 -157.192136 0 120 255
21.539042 33.540645 -156.238911 0 120 255
19.461823 34.497369 -155.285686 0 120 255
17.384604 35.454094 -154.332461 0 120 255
15.284937 36.386445 -153.409338 0 120 255
13.087151 37.212265 -152.617787 0 120 255
10.889364 38.038086 -151.826235 0 120 255
8.691578 38.863906 -151.034683 0 120 255
6.476848 39.665057 -150.270706 0 120 255
4.177585 40.343137 -149.644290 0 120 255
1.878323 41.021217 -149.017874 0 120 255
-0.420939 41.699298 -148.391458 0 120 255
-2.732011 42.353455 -147.789619 0 120 255
-5.111403 42.869214 -147.329961 0 120 255
-7.490794 43.384973 -146.870302 0 120 255
-9.870186 43.900733 -146.410644 0 120 255
-12.256830 44.394336 -145.972147 0 120 255
-14.693268 44.735805 -145.678948 0 120 255
-17.129706 45.077275 -145.385749 0 120 255
-19.566144 45.418744 -145.092550 0 120 255
-22.006058 45.740783 -144.816753 0 120 255
-24.475306 45.898849 -144.687817 0 120 255
-26.944555 46.056916 -144.558882 0 120 255
-29.413803 46.214982 -144.429946 0 120 255
-31.883722 46.357207 -144.314399 0 120 255
-34.360985 46.325774 -144.345627 0 120 255
-36.838249 46.294341 -144.376855 0 120 255
-39.315512 46.262908 -144.408083 0 120 255
-41.791774 46.219948 -144.448551 0 120 255
-44.252302 45.995979 -144.634120 0 120 255
-46.712830 45.772009 -144.819689 0 120 255
-49.173359 45.548040 -145.005257 0 120 255
-51.632474 45.317414 -145.195905 0 120 255
-54.052129 44.900876 -145.528415 0 120 255
-56.471784 44.484338 -145.860925 0 120 255
-58.891439 44.067800 -146.193435 0 120 255
-61.310612 43.649828 -146.526989 0 120 255
-63.666381 43.043543 -146.997695 0 120 255
-66.022151 42.437258 -147.468402 0 120 255
-68.377921 41.830972 -147.939109 0 120 255
-70.733690 41.224687 -148.409816 0 120 255
-73.005945 40.438016 -149.006138 0 120 255
-75.276386 39.647424 -149.605191 0 120 255
-77.546826 38.856833 -150.204243 0 120 255
-79.817266 38.066242 -150.803296 0 120 255
-81.988300 37.108290 -151.513914 0 120 255
-84.153882 36.141161 -152.230651 0 120 255
-86.319465 35.174032 -152.947387 0 120 255
-88.485047 34.206903 -153.664123 0 120 255
-90.538760 33.087104 -154.478324 0 120 255
-92.582132 31.953192 -155.301533 0 120 255
-94.625503 30.819280 -156.124743 0 120 255
-96.668875 29.685368 -156.947953 0 120 255
-98.591378 28.414568 -157.854809 0 120 255
-100.497531 27.125250 -158.772981 0 120 255
-102.403683 25.835932 -159.691153 0 120 255
-104.309835 24.546614 -160.609324 0 120 255
-106.089490 23.136737 -161.597926 0 120 255
-107.845837 21.704646 -162.599504 0 120 255
-109.602184 20.272555 -163.601082 0 120 255
-111.358532 18.840465 -164.602659 0 120 255
-112.985905 17.304180 -165.662312 0 120 255
-114.582272 15.742847 -166.735926 0 120 255
-116.178640 14.181514 -167.809540 0 120 255
-117.775007 12.620181 -168.883154 0 120 255
-119.242792 10.970612 -170.003530 0 120 255
-120.671349 9.294125 -171.138172 0 120 255
-122.099906 7.617637 -172.272814 0 120 255
-123.528463 5.941150 -173.407456 0 120 255
-124.831361 4.191607 -174.578702 0 120 255
-126.086513 2.414306 -175.763857 0 120 255
-127.341666 0.637005 -176.949011 0 120 255
-128.596819 -1.140295 -178.134166 0 120 255
-129.731365 -2.976540 -179.347026 0 120 255
-130.809566 -4.840322 -180.572830 0 120 255
-131.887767 -6.704104 -181.798635 0 120 255
-132.965968 -8.567887 -183.024439 0 120 255
-133.930367 -10.477789 -184.270308 0 120 255
-134.829947 -12.413959 -185.527605 0 120 255
-135.729528 -14.350130 -186.784902 0 120 255
-136.629108 -16.286301 -188.042198 0 120 255
-137.423044 -18.257199 -189.313162 0 120 255
-138.143986 -20.252093 -190.593567 0 120 255
-138.864927 -22.246987 -191.873973 0 120 255
-139.585868 -24.241881 -193.154379 0 120 255
-140.210320 -26.261620 -194.443235 0 120 255
-140.754059 -28.302140 -195.739161 0 120 255
-141.297799 -30.342660 -197.035086 0 120 255
-141.841538 -32.383181 -198.331011 0 120 255
-142.298591 -34.440191 -199.631279 0 120 255
-142.667785 -36.513914 -200.935950 0 120 255
-143.036980 -38.587637 -202.240620 0 120 255
-143.406174 -40.661360 -203.545291 0 120 255
-143.698859 -42.744728 -204.851193 0 120 255
-143.897224 -44.839985 -206.158613 0 120 255
-144.095589 -46.935242 -207.466032 0 120 255
-144.293954 -49.030499 -208.773452 0 120 255
-144.426081 -51.130002 -210.079887 0 120 255
-144.458154 -53.235917 -211.384835 0 120 255
-144.490227 -55.341832 -212.689784 0 120 255
-144.522300 -57.447747 -213.994732 0 120 255
-144.498302 -59.553875 -215.297249 0 120 255
-144.369295 -61.660399 -216.595213 0 120 255
-144.240288 -63.766923 -217.893177 0 120 255
-144.111280 -65.873447 -219.191141 0 120 255
-143.936091 -67.977408 -220.485890 0 120 255
-143.651740 -70.075309 -221.773039 0 120 255
-143.367390 -72.173209 -223.060189 0 120 255
-143.083039 -74.271110 -224.347339 0 120 255
-142.761973 -76.364817 -225.631038 0 120 255
-142.328369 -78.445670 -226.904159 0 120 255
-141.894765 -80.526523 -228.177280 0 120 255
-141.461161 -82.607375 -229.450400 0 120 255
-140.999796 -84.683433 -230.720279 0 120 255
-140.423306 -86.739602 -231.976711 0 120 255
-139.846816 -88.795772 -233.233143 0 120 255
-139.270326 -90.851942 -234.489576 0 120 255
-138.674436 -92.903620 -235.743328 0 120 255
-137.961560 -94.928211 -236.980922 0 120 255
-137.248684 -96.952802 -238.218515 0 120 255
-136.535808 -98.977393 -239.456108 0 120 255
-135.811260 -100.998588 -240.691854 0 120 255
-134.968579 -102.985410 -241.908910 0 120 255
-134.125898 -104.972231 -243.125966 0 120 255
-133.283217 -106.959053 -244.343023 0 120 255
-132.435930 -108.944257 -245.559262 0 120 255
-131.470008 -110.887780 -246.754464 0 120 255
-130.504086 -112.831304 -247.949666 0 120 255
-129.538164 -114.774828 -249.144868 0 120 255
-128.572242 -116.718351 -250.340070 0 120 255
-127.491385 -118.614410 -251.512783 0 120 255
-126.408736 -120.509729 -252.685146 0 120 255
-125.326087 -122.405048 -253.857509 0 120 255
-124.243438 -124.300367 -255.029872 0 120 255
-123.057990 -126.146735 -256.180287 0 120 255
-121.865017 -127.989519 -257.329094 0 120 255
-120.672045 -129.832304 -258.477902 0 120 255
-119.479072 -131.675088 -259.626709 0 120 255
-118.194638 -133.468341 -260.754415 0 120 255
-116.897597 -135.254765 -261.879212 0 120 255
-115.600556 -137.041190 -263.004009 0 120 255
-114.303514 -138.827615 -264.128806 0 120 255
-112.925562 -140.564757 -265.233525 0 120 255
-111.530547 -142.291506 -266.334010 0 120 255
-110.135532 -144.018255 -267.434496 0 120 255
-108.740516 -145.745004 -268.534981 0 120 255
-107.274345 -147.423393 -269.616585 0 120 255
-105.787256 -149.087566 -270.692638 0 120 255
-104.300166 -150.751739 -271.768691 0 120 255
-102.813077 -152.415912 -272.844745 0 120 255
-101.263821 -154.033258 -273.903195 0 120 255
-99.690364 -155.632374 -274.954793 0 120 255
-98.116906 -157.231489 -276.006391 0 120 255
-96.543448 -158.830605 -277.057989 0 120 255
-94.916067 -160.384943 -278.093302 0 120 255
-93.261735 -161.916901 -279.120475 0 120 255
-91.607402 -163.448859 -280.147649 0 120 255
-89.953069 -164.980817 -281.174823 0 120 255
-88.252341 -166.470466 -282.187071 0 120 255
-86.522416 -167.933489 -283.189926 0 120 255
-84.792490 -169.396512 -284.192781 0 120 255
-83.062564 -170.859535 -285.195636 0 120 255
-81.293096 -172.283089 -286.184922 0 120 255
-79.492659 -173.675731 -287.163580 0 120 255
-77.692223 -175.068374 -288.142237 0 120 255
-75.891786 -176.461017 -289.120895 0 120 255
-74.058002 -177.817325 -290.087312 0 120 255
-72.191906 -179.138426 -291.041867 0 120 255
-70.325810 -180.459528 -291.996422 0 120 255
-68.459715 -181.780629 -292.950977 0 120 255
-66.565862 -183.068774 -293.894607 0 120 255
-64.638770 -184.317451 -294.825154 0 120 255
-62.711678 -185.566128 -295.755701 0 120 255
-60.784585 -186.814805 -296.686248 0 120 255
-58.834748 -188.034097 -297.607155 0 120 255
-56.851115 -189.209726 -298.513739 0 120 255
-54.867482 -190.385355 -299.420323 0 120 255
-52.883849 -191.560984 -300.326906 0 120 255
-50.881939 -192.710944 -301.225108 0 120 255
-48.846022 -193.813146 -302.107715 0 120 255
-46.810106 -194.915347 -302.990321 0 120 255
-44.774189 -196.017548 -303.872927 0 120 255
-42.723956 -197.097906 -304.748389 0 120 255
-40.639829 -198.126550 -305.606934 0 120 255
-38.555701 -199.155194 -306.465480 0 120 255
-36.471573 -200.183837 -307.324026 0 120 255
-34.376611 -201.194521 -308.176658 0 120 255
-32.248155 -202.149684 -309.011007 0 120 255
-30.119700 -203.104846 -309.845357 0 120 255
-27.991244 -204.060008 -310.679706 0 120 255
-25.854993 -205.001127 -311.509372 0 120 255
-23.685923 -205.883124 -312.319320 0 120 255
-21.516854 -206.765121 -313.129269 0 120 255
-19.347784 -207.647118 -313.939217 0 120 255
-17.173539 -208.518978 -314.745718 0 120 255
-14.967385 -209.328340 -315.530966 0 120 255
-12.761231 -210.137702 -316.316213 0 120 255
-10.555076 -210.947064 -317.101461 0 120 255
-8.345979 -211.750154 -317.884520 0 120 255
-6.106099 -212.487631 -318.644691 0 120 255
-3.866218 -213.225107 -319.404862 0 120 255
-1.626337 -213.962584 -320.165033 0 120 255
0.614612 -214.697578 -320.924311 0 120 255
2.885018 -215.364154 -321.658974 0 120 255
5.155424 -216.030730 -322.393638 0 120 255
7.425830 -216.697307 -323.128301 0 120 255
9.696236 -217.363883 -323.862964 0 120 255
11.993671 -217.961942 -324.572055 0 120 255
14.291578 -218.558806 -325.280699 0 120 255
16.589485 -219.155670 -325.989343 0 120 255
18.887391 -219.752534 -326.697987 0 120 255
21.208218 -220.285828 -327.381925 0 120 255
23.530751 -220.814392 -328.064025 0 120 255
25.853283 -221.342956 -328.746126 0 120 255
28.175815 -221.871520 -329.428226 0 120 255
30.517617 -222.341505 -330.086460 0 120 255
32.862079 -222.803404 -330.741399 0 120 255
35.206541 -223.265303 -331.396338 0 120 255
37.551003 -223.727202 -332.051277 0 120 255
39.911492 -224.135526 -332.683254 0 120 255
42.275340 -224.532621 -333.310417 0 120 255
44.639189 -224.929716 -333.937581 0 120 255
47.003037 -225.326811 -334.564744 0 120 255
49.380066 -225.675312 -335.169888 0 120 255
51.760927 -226.009686 -335.768631 0 120 255
54.141788 -226.344061 -336.367374 0 120 255
56.522648 -226.678436 -336.966117 0 120 255
58.914204 -226.969137 -337.543879 0 120 255
61.309860 -227.243094 -338.113596 0 120 255
63.705515 -227.517052 -338.683314 0 120 255
66.101171 -227.791010 -339.253032 0 120 255
68.505382 -228.026122 -339.802868 0 120 255
70.913788 -228.242187 -340.342957 0 120 255
73.322193 -228.458251 -340.883046 0 120 255
75.730599 -228.674316 -341.423134 0 120 255
78.145734 -228.856234 -341.944543 0 120 255
80.565008 -229.017147 -342.454462 0 120 255
82.984282 -229.178059 -342.964380 0 120 255
85.403556 -229.338971 -343.474299 0 120 255
87.828027 -229.470282 -343.966821 0 120 255
90.256461 -229.579014 -344.446074 0 120 255
92.684895 -229.687745 -344.925326 0 120 255
95.113329 -229.796477 -345.404579 0 120 255
97.545685 -229.879933 -345.867850 0 120 255
99.981729 -229.939627 -346.316097 0 120 255
102.417772 -229.999322 -346.764345 0 120 255
104.853816 -230.059016 -347.212592 0 120 255
107.292753 -230.097534 -347.646330 0 120 255
109.735037 -230.111549 -348.063280 0 120 255
112.177322 -230.125564 -348.480230 0 120 255
114.619607 -230.139579 -348.897180 0 120 255
117.063962 -230.136250 -349.301206 0 120 255
119.511277 -230.108140 -349.686768 0 120 255
121.958592 -230.080030 -350.072330 0 120 255
124.405906 -230.051920 -350.457892 0 120 255
126.854657 -230.009980 -350.832176 0 120 255
129.305962 -229.943437 -351.186398 0 120 255
131.757267 -229.876893 -351.540619 0 120 255
134.208572 -229.810350 -351.894841 0 120 255
136.660836 -229.733170 -352.239486 0 120 255
139.115255 -229.632081 -352.562607 0 120 255
141.569673 -229.530993 -352.885728 0 120 255
144.024092 -229.429905 -353.208849 0 120 255
146.479123 -229.320995 -353.524130 0 120 255
148.935933 -229.189346 -353.816622 0 120 255
151.392743 -229.057697 -354.109115 0 120 255
153.849552 -228.926048 -354.401607 0 120 255
156.306734 -228.789007 -354.687994 0 120 255
158.765365 -228.630920 -354.950556 0 120 255
161.223996 -228.472834 -355.213117 0 120 255
163.682627 -228.314747 -355.475679 0 120 255
166.140806 -228.150213 -355.738070 0 120 255
168.596460 -227.949688 -355.999510 0 120 255
171.052114 -227.749163 -356.260950 0 120 255
173.507768 -227.548637 -356.522390 0 120 255
175.962876 -227.344734 -356.786071 0 120 255
178.413482 -227.112976 -357.068234 0 120 255
180.864088 -226.881217 -357.350396 0 120 255
183.314694 -226.649459 -357.632558 0 120 255
185.765300 -226.417700 -357.914722 0 120 255
188.215903 -226.185930 -358.196897 0 120 255
190.666507 -225.954161 -358.479072 0 120 255
193.117111 -225.722391 -358.761247 0 120 255
195.567714 -225.490622 -359.043421 0 120 255
198.018319 -225.258857 -359.325589 0 120 255
200.468924 -225.027091 -359.607756 0 120 255
202.919528 -224.795326 -359.889923 0 120 255
205.370133 -224.563560 -360.172091 0 120 255
