ply
format ascii 1.0
element vertex 385
property float x
property float y
property float z
property uchar red
property uchar green
property uchar blue
end_header
77.430455 -42.474882 -360.397637 0 120 255
77.187552 -42.528711 -357.935923 0 120 255
76.944648 -42.582541 -355.474209 0 120 255
76.701744 -42.636371 -353.012495 0 120 255
76.458841 -42.690201 -350.550781 0 120 255
76.216147 -42.753629 -348.089276 0 120 255
75.973462 -42.817475 -345.627780 0 120 255
75.730777 -42.881320 -343.166284 0 120 255
75.488092 -42.945166 -340.704788 0 120 255
75.195316 -43.119144 -338.254364 0 120 255
74.897887 -43.303354 -335.804969 0 120 255
74.600458 -43.487563 -333.355573 0 120 255
74.303029 -43.671773 -330.906178 0 120 255
73.959160 -43.945307 -328.471572 0 120 255
73.608290 -44.232307 -326.039195 0 120 255
73.257420 -44.519307 -323.606819 0 120 255
72.906550 -44.806306 -321.174442 0 120 255
72.512390 -45.172394 -318.759750 0 120 255
72.108921 -45.555488 -316.348861 0 120 255
71.705453 -45.938582 -313.937971 0 120 255
71.301984 -46.321676 -311.527082 0 120 255
70.857939 -46.774412 -309.135887 0 120 255
70.402252 -47.247127 -306.750342 0 120 255
69.946566 -47.719842 -304.364797 0 120 255
69.490880 -48.192557 -301.979252 0 120 255
68.996979 -48.726278 -299.614707 0 120 255
68.489024 -49.282435 -297.257886 0 120 255
67.981070 -49.838592 -294.901065 0 120 255
67.473115 -50.394749 -292.544244 0 120 255
66.929046 -51.004048 -290.209171 0 120 255
66.368387 -51.637758 -287.884089 0 120 255
65.807728 -52.271468 -285.559006 0 120 255
65.247069 -52.905178 -283.233924 0 120 255
64.652205 -53.584910 -280.930902 0 120 255
64.038054 -54.290593 -278.640321 0 120 255
63.423903 -54.996277 -276.349739 0 120 255
62.809751 -55.701960 -274.059158 0 120 255
62.163186 -56.447252 -271.790611 0 120 255
61.494437 -57.219651 -269.537145 0 120 255
60.825688 -57.992050 -267.283679 0 120 255
60.156938 -58.764449 -265.030213 0 120 255
59.457513 -59.570686 -262.798485 0 120 255
58.732788 -60.404829 -260.584684 0 120 255
58.008063 -61.238972 -258.370883 0 120 255
57.283339 -62.073115 -256.157082 0 120 255
56.529678 -62.935934 -253.964507 0 120 255
55.747364 -63.827148 -251.792951 0 120 255
54.965051 -64.718362 -249.621394 0 120 255
54.182737 -65.609576 -247.449838 0 120 255
53.373273 -66.524859 -245.298816 0 120 255
52.531551 -67.468741 -243.172193 0 120 255
51.689828 -68.412623 -241.045570 0 120 255
50.848105 -69.356505 -238.918947 0 120 255
49.981119 -70.320350 -236.811998 0 120 255
49.078027 -71.312728 -234.733165 0 120 255
48.174934 -72.305107 -232.654333 0 120 255
47.271841 -73.297485 -230.575501 0 120 255
46.345501 -74.306189 -228.515319 0 120 255
45.378967 -75.343119 -226.487384 0 120 255
44.412432 -76.380050 -224.459448 0 120 255
43.445898 -77.416981 -222.431513 0 120 255
42.458296 -78.467016 -220.421026 0 120 255
41.426202 -79.544729 -218.447387 0 120 255
40.394108 -80.622442 -216.473747 0 120 255
39.362014 -81.700154 -214.500108 0 120 255
38.311211 -82.788144 -212.542518 0 120 255
37.211432 -83.903039 -210.626942 0 120 255
36.111653 -85.017934 -208.711366 0 120 255
35.011875 -86.132828 -206.795790 0 120 255
33.895940 -87.255528 -204.894629 0 120 255
32.726411 -88.404119 -203.041287 0 120 255
31.556883 -89.552709 -201.187945 0 120 255
30.387354 -90.701300 -199.334603 0 120 255
29.204419 -91.855558 -197.493764 0 120 255
27.963207 -93.034455 -195.707278 0 120 255
26.721995 -94.213351 -193.920793 0 120 255
25.480783 -95.392247 -192.134307 0 120 255
24.229102 -96.574988 -190.358082 0 120 255
22.914477 -97.780847 -188.643556 0 120 255
21.599852 -98.986706 -186.929030 0 120 255
20.285227 -100.192564 -185.214504 0 120 255
18.963238 -101.400749 -183.507609 0 120 255
17.573742 -102.630259 -181.870679 0 120 255
16.184246 -103.859769 -180.233749 0 120 255
14.794750 -105.089279 -178.596818 0 120 255
13.401127 -106.319893 -176.964439 0 120 255
11.935685 -107.569720 -175.411265 0 120 255
10.470243 -108.819546 -173.858092 0 120 255
9.004801 -110.069373 -172.304919 0 120 255
7.538554 -111.319378 -170.752697 0 120 255
5.996555 -112.586142 -169.290000 0 120 255
4.454556 -113.852906 -167.827302 0 120 255
2.912557 -115.119669 -166.364605 0 120 255
1.370558 -116.386433 -164.901907 0 120 255
-0.245497 -117.666219 -163.533715 0 120 255
-1.864085 -118.946450 -162.168754 0 120 255
-3.482672 -120.226680 -160.803793 0 120 255
-5.101259 -121.506911 -159.438832 0 120 255
-6.789963 -122.796268 -158.171325 0 120 255
-8.484466 -124.086379 -156.911877 0 120 255
-10.178968 -125.376490 -155.652428 0 120 255
-11.873471 -126.666601 -154.392980 0 120 255
-13.633512 -127.962115 -153.233719 0 120 255
-15.402443 -129.258362 -152.088049 0 120 255
-17.171375 -130.554609 -150.942379 0 120 255
-18.940307 -131.850856 -149.796709 0 120 255
-20.769545 -133.148969 -148.753646 0 120 255
-22.610463 -134.447443 -147.730455 0 120 255
-24.451381 -135.745918 -146.707264 0 120 255
-26.292299 -137.044392 -145.684074 0 120 255
-28.187661 -138.341351 -144.765457 0 120 255
-30.097042 -139.637919 -143.873767 0 120 255
-32.006422 -140.934487 -142.982076 0 120 255
-33.915803 -142.231055 -142.090386 0 120 255
-35.873167 -143.522914 -141.304692 0 120 255
-37.846269 -144.813228 -140.553764 0 120 255
-39.819371 -146.103542 -139.802835 0 120 255
-41.792473 -147.393855 -139.051906 0 120 255
-43.806553 -148.676467 -138.407711 0 120 255
-45.837280 -149.955951 -137.806876 0 120 255
-47.868008 -151.235434 -137.206040 0 120 255
-49.898735 -152.514918 -136.605204 0 120 255
-51.962988 -153.783925 -136.111050 0 120 255
-54.043789 -155.047762 -135.669553 0 120 255
-56.124590 -156.311599 -135.228057 0 120 255
-58.205391 -157.575435 -134.786561 0 120 255
-60.311925 -158.826275 -134.450785 0 120 255
-62.433685 -160.069423 -134.177567 0 120 255
-64.555446 -161.312572 -133.904349 0 120 255
-66.677207 -162.555721 -133.631131 0 120 255
-68.816704 -163.783655 -133.461676 0 120 255
-70.968664 -165.000899 -133.365134 0 120 255
-73.120624 -166.218142 -133.268591 0 120 255
-75.272584 -167.435385 -133.172048 0 120 255
-77.434265 -168.635518 -133.176241 0 120 255
-79.604006 -169.821462 -133.263963 0 120 255
-81.773747 -171.007407 -133.351685 0 120 255
-83.943488 -172.193351 -133.439406 0 120 255
-86.115095 -173.360677 -133.623720 0 120 255
-88.288522 -174.509855 -133.902183 0 120 255
-90.461948 -175.659034 -134.180647 0 120 255
-92.635374 -176.808212 -134.459110 0 120 255
-94.803196 -177.937686 -134.828905 0 120 255
-96.964608 -179.044618 -135.303178 0 120 255
-99.126020 -180.151550 -135.777450 0 120 255
-101.287432 -181.258482 -136.251723 0 120 255
-103.436384 -182.345083 -136.810985 0 120 255
-105.568600 -183.404373 -137.484405 0 120 255
-107.700816 -184.463663 -138.157825 0 120 255
-109.833031 -185.522954 -138.831245 0 120 255
-111.946781 -186.561776 -139.582318 0 120 255
-114.031329 -187.568228 -140.456188 0 120 255
-116.115877 -188.574681 -141.330057 0 120 255
-118.200425 -189.581134 -142.203927 0 120 255
-120.261575 -190.567493 -143.147262 0 120 255
-122.278942 -191.516251 -144.220585 0 120 255
-124.296309 -192.465009 -145.293908 0 120 255
-126.313676 -193.413768 -146.367231 0 120 255
-128.304001 -194.343317 -147.501172 0 120 255
-130.233973 -195.229993 -148.770404 0 120 255
-132.163945 -196.116669 -150.039636 0 120 255
-134.093917 -197.003346 -151.308867 0 120 255
-135.994670 -197.872187 -152.629446 0 120 255
-137.816728 -198.692993 -154.088322 0 120 255
-139.638786 -199.513799 -155.547197 0 120 255
-141.460844 -200.334605 -157.006073 0 120 255
-143.253099 -201.139414 -158.506887 0 120 255
-144.946847 -201.891347 -160.146322 0 120 255
-146.640595 -202.643281 -161.785757 0 120 255
-148.334343 -203.395214 -163.425193 0 120 255
-149.999375 -204.133382 -165.097332 0 120 255
-151.545033 -204.814330 -166.905421 0 120 255
-153.090691 -205.495277 -168.713511 0 120 255
-154.636349 -206.176225 -170.521600 0 120 255
-156.156050 -206.845949 -172.353664 0 120 255
-157.534952 -207.454792 -174.315773 0 120 255
-158.913853 -208.063636 -176.277883 0 120 255
-160.292754 -208.672479 -178.239993 0 120 255
-161.650070 -209.272855 -180.218173 0 120 255
-162.845142 -209.809584 -182.317140 0 120 255
-164.040214 -210.346313 -184.416106 0 120 255
-165.235286 -210.883043 -186.515072 0 120 255
-166.414610 -211.414152 -188.623341 0 120 255
-167.410848 -211.879928 -190.839756 0 120 255
-168.407087 -212.345705 -193.056171 0 120 255
-169.403325 -212.811481 -195.272586 0 120 255
-170.390910 -213.274449 -197.492940 0 120 255
-171.175734 -213.671610 -199.805568 0 120 255
-171.960557 -214.068771 -202.118196 0 120 255
-172.745381 -214.465932 -204.430825 0 120 255
-173.529636 -214.862926 -206.743642 0 120 255
-174.093272 -215.194979 -209.129850 0 120 255
-174.656909 -215.527033 -211.516058 0 120 255
-175.220545 -215.859086 -213.902267 0 120 255
-175.784181 -216.191140 -216.288475 0 120 255
-176.128016 -216.464887 -218.722969 0 120 255
-176.463663 -216.736462 -221.159262 0 120 255
-176.799310 -217.008038 -223.595555 0 120 255
-177.134957 -217.279613 -226.031848 0 120 255
-177.256219 -217.500462 -228.492436 0 120 255
-177.360208 -217.717224 -230.954983 0 120 255
-177.464197 -217.933987 -233.417529 0 120 255
-177.568185 -218.150749 -235.880076 0 120 255
-177.466283 -218.324718 -238.344955 0 120 255
-177.338044 -218.493213 -240.810132 0 120 255
-177.209806 -218.661709 -243.275309 0 120 255
-177.081567 -218.830204 -245.740487 0 120 255
-176.758606 -218.964012 -248.188473 0 120 255
-176.400614 -219.091579 -250.633366 0 120 255
-176.042623 -219.219147 -253.078260 0 120 255
-175.684632 -219.346714 -255.523153 0 120 255
-175.145240 -219.447579 -257.934080 0 120 255
-174.562808 -219.542108 -260.336947 0 120 255
-173.980376 -219.636637 -262.739815 0 120 255
-173.397945 -219.731166 -265.142682 0 120 255
-172.649028 -219.806714 -267.497722 0 120 255
-171.850018 -219.876551 -269.838372 0 120 255
-171.051009 -219.946389 -272.179022 0 120 255
-170.251999 -220.016226 -274.519672 0 120 255
-169.302297 -220.076391 -276.801472 0 120 255
-168.296554 -220.132960 -279.061387 0 120 255
-167.290811 -220.189529 -281.321302 0 120 255
-166.285068 -220.246098 -283.581217 0 120 255
-165.144746 -220.301481 -285.774003 0 120 255
-163.943591 -220.356327 -287.936445 0 120 255
-162.742437 -220.411173 -290.098886 0 120 255
-161.541282 -220.466019 -292.261328 0 120 255
-160.222565 -220.522714 -294.351633 0 120 255
-158.840017 -220.580413 -296.402771 0 120 255
-157.457470 -220.638112 -298.453909 0 120 255
-156.074922 -220.695811 -300.505047 0 120 255
-154.591757 -220.756184 -302.482015 0 120 255
-153.043519 -220.818287 -304.411014 0 120 255
-151.495281 -220.880389 -306.340013 0 120 255
-149.947043 -220.942492 -308.269012 0 120 255
-148.314022 -221.007764 -310.124063 0 120 255
-146.616057 -221.075465 -311.922470 0 120 255
-144.918092 -221.143165 -313.720876 0 120 255
-143.220127 -221.210866 -315.519283 0 120 255
-141.452080 -221.281168 -317.246106 0 120 255
-139.620630 -221.353825 -318.908166 0 120 255
-137.789179 -221.426481 -320.570227 0 120 255
-135.957729 -221.499137 -322.232288 0 120 255
-134.069384 -221.573769 -323.826706 0 120 255
-132.120288 -221.650510 -325.348899 0 120 255
-130.171192 -221.727251 -326.871093 0 120 255
-128.222097 -221.803992 -328.393286 0 120 255
-126.227757 -221.882207 -329.853053 0 120 255
-124.176294 -221.962282 -331.234002 0 120 255
-122.124830 -222.042358 -332.614951 0 120 255
-120.073367 -222.122434 -333.995899 0 120 255
-117.986696 -222.203606 -335.320486 0 120 255
-115.847239 -222.286420 -336.560566 0 120 255
-113.707781 -222.369235 -337.800646 0 120 255
-111.568323 -222.452049 -339.040726 0 120 255
-109.402170 -222.535656 -340.231110 0 120 255
-107.188147 -222.620683 -341.332386 0 120 255
-104.974124 -222.705710 -342.433661 0 120 255
-102.760101 -222.790737 -343.534936 0 120 255
-100.526435 -222.876322 -344.593499 0 120 255
-98.250203 -222.963113 -345.559508 0 120 255
-95.973972 -223.049905 -346.525516 0 120 255
-93.697740 -223.136697 -347.491525 0 120 255
-91.407561 -223.223858 -348.421857 0 120 255
-89.080301 -223.312002 -349.257335 0 120 255
-86.753041 -223.400147 -350.092814 0 120 255
-84.425780 -223.488291 -350.928293 0 120 255
-82.089044 -223.576668 -351.734966 0 120 255
-79.720714 -223.665819 -352.445599 0 120 255
-77.352384 -223.754971 -353.156232 0 120 255
-74.984054 -223.844122 -353.866865 0 120 255
-72.609649 -223.933409 -354.555245 0 120 255
-70.209009 -224.023280 -355.147516 0 120 255
-67.808369 -224.113151 -355.739787 0 120 255
-65.407728 -224.203022 -356.332057 0 120 255
-63.003499 -224.292960 -356.908180 0 120 255
-60.578137 -224.383297 -357.389211 0 120 255
-58.152774 -224.473633 -357.870242 0 120 255
-55.727412 -224.563970 -358.351274 0 120 255
-53.300182 -224.654331 -358.821704 0 120 255
-50.856545 -224.744916 -359.199022 0 120 255
-48.412908 -224.835500 -359.576339 0 120 255
-45.969271 -224.926084 -359.953657 0 120 255
-43.524872 -225.016673 -360.325303 0 120 255
-41.068355 -225.107341 -360.606791 0 120 255
-38.611837 -225.198009 -360.888279 0 120 255
-36.155319 -225.288677 -361.169767 0 120 255
-33.698666 -225.379345 -361.449845 0 120 255
-31.233676 -225.469944 -361.643630 0 120 255
-28.768686 -225.560544 -361.837415 0 120 255
-26.303697 -225.651143 -362.031200 0 120 255
-23.838707 -225.741743 -362.224985 0 120 255
-21.368888 -225.832189 -362.341523 0 120 255
-18.898934 -225.922630 -362.455910 0 120 255
-16.428981 -226.013071 -362.570296 0 120 255
-13.959027 -226.103513 -362.684683 0 120 255
-11.486961 -226.193779 -362.733120 0 120 255
-9.014735 -226.284033 -362.776569 0 120 255
-6.542509 -226.374286 -362.820017 0 120 255
-4.070283 -226.464540 -362.863466 0 120 255
-1.597777 -226.554604 -362.851425 0 120 255
0.874764 -226.644644 -362.832274 0 120 255
3.347306 -226.734683 -362.813123 0 120 255
5.819847 -226.824723 -362.793971 0 120 255
8.291537 -226.914581 -362.729035 0 120 255
10.763069 -227.004404 -362.655579 0 120 255
13.234602 -227.094228 -362.582123 0 120 255
15.706134 -227.184051 -362.508667 0 120 255
18.176241 -227.273675 -362.398519 0 120 255
20.645992 -227.363249 -362.279183 0 120 255
23.115743 -227.452822 -362.159846 0 120 255
25.585495 -227.542396 -362.040510 0 120 255
28.053660 -227.631711 -361.892670 0 120 255
30.521314 -227.720943 -361.735648 0 120 255
32.988968 -227.810174 -361.578626 0 120 255
35.456622 -227.899406 -361.421604 0 120 255
37.922822 -227.988344 -361.243555 0 120 255
40.388437 -228.077163 -361.057041 0 120 255
42.854053 -228.165983 -360.870526 0 120 255
45.319668 -228.254802 -360.684012 0 120 255
47.784162 -228.343276 -360.483319 0 120 255
50.248102 -228.431580 -360.275634 0 120 255
52.712043 -228.519883 -360.067949 0 120 255
55.175984 -228.608187 -359.860264 0 120 255
57.639255 -228.695928 -359.644638 0 120 255
60.102127 -228.783334 -359.424280 0 120 255
62.564998 -228.870740 -359.203921 0 120 255
65.027870 -228.958146 -358.983562 0 120 255
67.490609 -229.044150 -358.761185 0 120 255
69.953253 -229.129152 -358.537366 0 120 255
72.415897 -229.214154 -358.313547 0 120 255
74.878540 -229.299156 -358.089728 0 120 255
77.341660 -229.379152 -357.869402 0 120 255
79.805185 -229.454899 -357.652041 0 120 255
82.268709 -229.530646 -357.434679 0 120 255
84.732233 -229.606394 -357.217318 0 120 255
87.196672 -229.673726 -357.008025 0 120 255
89.662031 -229.732598 -356.806845 0 120 255
92.127390 -229.791470 -356.605666 0 120 255
94.592749 -229.850342 -356.404486 0 120 255
97.059193 -229.899426 -356.215000 0 120 255
99.526927 -229.936854 -356.039440 0 120 255
101.994661 -229.974282 -355.863879 0 120 255
104.462396 -230.011709 -355.688319 0 120 255
106.931166 -230.038477 -355.527295 0 120 255
109.401402 -230.050178 -355.386813 0 120 255
111.871637 -230.061880 -355.246332 0 120 255
114.341872 -230.073581 -355.105851 0 120 255
116.812887 -230.074222 -354.981951 0 120 255
119.285214 -230.056228 -354.885990 0 120 255
121.757542 -230.038233 -354.790029 0 120 255
124.229869 -230.020238 -354.694068 0 120 255
126.702540 -229.991225 -354.615947 0 120 255
129.175905 -229.939912 -354.573931 0 120 255
131.649271 -229.888599 -354.531915 0 120 255
134.122636 -229.837285 -354.489899 0 120 255
136.595780 -229.775390 -354.466183 0 120 255
139.068381 -229.687478 -354.487460 0 120 255
141.540981 -229.599565 -354.508737 0 120 255
144.013582 -229.511653 -354.530014 0 120 255
146.485338 -229.413954 -354.569257 0 120 255
148.954528 -229.286538 -354.663056 0 120 255
151.423719 -229.159122 -354.756855 0 120 255
153.892909 -229.031706 -354.850654 0 120 255
156.360657 -228.895612 -354.961306 0 120 255
158.822865 -228.726180 -355.136697 0 120 255
161.285072 -228.556747 -355.312089 0 120 255
163.747280 -228.387314 -355.487481 0 120 255
166.207309 -228.210036 -355.679794 0 120 255
168.656362 -227.993211 -355.957396 0 120 255
171.105414 -227.776386 -356.234999 0 120 255
173.554467 -227.559561 -356.512601 0 120 255
176.003293 -227.340912 -356.790725 0 120 255
178.450531 -227.109472 -357.072499 0 120 255
180.897769 -226.878032 -357.354274 0 120 255
183.345007 -226.646592 -357.636049 0 120 255
185.792245 -226.415151 -357.917824 0 120 255
188.239480 -226.183700 -358.199611 0 120 255
190.686715 -225.952249 -358.481399 0 120 255
193.133951 -225.720799 -358.763186 0 120 255
195.581186 -225.489348 -359.044972 0 120 255
198.028423 -225.257901 -359.326752 0 120 255
200.475660 -225.026454 -359.608532 0 120 255
202.922897 -224.795007 -359.890311 0 120 255
205.370133 -224.563560 -360.172091 0 120 255
