ply
format ascii 1.0
element vertex 385
property float x
property float y
property float z
property uchar red
property uchar green
property uchar blue
end_header
77.430455 -42.474882 -360.397637 0 120 255
77.187537 -42.528715 -357.935777 0 120 255
76.944619 -42.582548 -355.473917 0 120 255
76.701701 -42.636380 -353.012056 0 120 255
76.458783 -42.690213 -350.550196 0 120 255
76.221943 -42.755029 -348.088010 0 120 255
75.985367 -42.820319 -345.625810 0 120 255
75.748790 -42.885609 -343.163609 0 120 255
75.512213 -42.950899 -340.701409 0 120 255
75.467824 -43.314713 -338.256636 0 120 255
75.440803 -43.705503 -335.813439 0 120 255
75.413781 -44.096294 -333.370241 0 120 255
75.386760 -44.487084 -330.927044 0 120 255
75.525923 -45.116638 -328.540824 0 120 255
75.689510 -45.781282 -326.162978 0 120 255
75.853096 -46.445925 -323.785132 0 120 255
76.016682 -47.110568 -321.407286 0 120 255
76.323626 -47.968114 -319.109552 0 120 255
76.660677 -48.866171 -316.828641 0 120 255
76.997727 -49.764229 -314.547731 0 120 255
77.334778 -50.662286 -312.266821 0 120 255
77.792361 -51.712789 -310.076656 0 120 255
78.283745 -52.806043 -307.911939 0 120 255
78.775130 -53.899297 -305.747222 0 120 255
79.266514 -54.992551 -303.582505 0 120 255
79.857124 -56.203942 -301.510127 0 120 255
80.483407 -57.457804 -299.470946 0 120 255
81.109689 -58.711667 -297.431764 0 120 255
81.735972 -59.965530 -295.392583 0 120 255
82.442521 -61.309280 -293.441223 0 120 255
83.185091 -62.693372 -291.529275 0 120 255
83.927662 -64.077463 -289.617328 0 120 255
84.670232 -65.461554 -287.705380 0 120 255
85.476765 -66.912799 -285.872939 0 120 255
86.318498 -68.401001 -284.084251 0 120 255
87.160230 -69.889203 -282.295564 0 120 255
88.001962 -71.377405 -280.506876 0 120 255
88.893993 -72.914795 -278.787315 0 120 255
89.819562 -74.484981 -277.113846 0 120 255
90.745131 -76.055168 -275.440377 0 120 255
91.670700 -77.625354 -273.766908 0 120 255
92.635344 -79.230724 -272.151356 0 120 255
93.631313 -80.864296 -270.582233 0 120 255
94.627282 -82.497869 -269.013109 0 120 255
95.623250 -84.131441 -267.443985 0 120 255
96.649220 -85.789430 -265.921622 0 120 255
97.703982 -87.470850 -264.444137 0 120 255
98.758745 -89.152271 -262.966651 0 120 255
99.813507 -90.833691 -261.489166 0 120 255
100.891011 -92.531327 -260.047889 0 120 255
101.994612 -94.247571 -258.648162 0 120 255
103.098213 -95.963814 -257.248435 0 120 255
104.201814 -97.680058 -255.848708 0 120 255
105.322393 -99.406342 -254.475610 0 120 255
106.466303 -101.146423 -253.139104 0 120 255
107.610214 -102.886505 -251.802598 0 120 255
108.754125 -104.626586 -250.466093 0 120 255
109.910454 -106.372116 -249.147823 0 120 255
111.087316 -108.126654 -247.859702 0 120 255
112.264177 -109.881193 -246.571582 0 120 255
113.441038 -111.635731 -245.283461 0 120 255
114.626707 -113.392367 -244.006485 0 120 255
115.830039 -115.153208 -242.751856 0 120 255
117.033370 -116.914050 -241.497228 0 120 255
118.236702 -118.674891 -240.242599 0 120 255
119.445981 -120.435459 -238.993381 0 120 255
120.669910 -122.195354 -237.757488 0 120 255
121.893839 -123.955248 -236.521595 0 120 255
123.117768 -125.715143 -235.285702 0 120 255
124.345379 -127.473182 -234.050843 0 120 255
125.584338 -129.225502 -232.819172 0 120 255
126.823297 -130.977823 -231.587500 0 120 255
128.062256 -132.730143 -230.355828 0 120 255
129.303122 -134.479685 -229.122151 0 120 255
130.551554 -136.218200 -227.880522 0 120 255
131.799986 -137.956715 -226.638892 0 120 255
133.048418 -139.695231 -225.397263 0 120 255
134.297427 -141.430617 -224.151893 0 120 255
135.549513 -143.149298 -222.886556 0 120 255
136.801599 -144.867979 -221.621218 0 120 255
138.053684 -146.586660 -220.355881 0 120 255
139.305458 -148.302387 -219.086315 0 120 255
140.554816 -149.995254 -217.784021 0 120 255
141.804174 -151.688121 -216.481728 0 120 255
143.053532 -153.380988 -215.179434 0 120 255
144.302181 -155.071583 -213.873605 0 120 255
145.541593 -156.732592 -212.521730 0 120 255
146.781005 -158.393602 -211.169854 0 120 255
148.020417 -160.054612 -209.817979 0 120 255
149.259311 -161.714541 -208.464359 0 120 255
150.480461 -163.337476 -207.051018 0 120 255
151.701612 -164.960411 -205.637676 0 120 255
152.922763 -166.583346 -204.224334 0 120 255
154.143914 -168.206281 -202.810993 0 120 255
155.337565 -169.785339 -201.326297 0 120 255
156.530814 -171.363757 -199.840559 0 120 255
157.724063 -172.942174 -198.354821 0 120 255
158.917313 -174.520591 -196.869083 0 120 255
160.073680 -176.050693 -195.305856 0 120 255
161.227820 -177.577878 -193.737950 0 120 255
162.381961 -179.105063 -192.170044 0 120 255
163.536101 -180.632248 -190.602138 0 120 255
164.643377 -182.106984 -188.952751 0 120 255
165.745487 -183.575938 -187.294382 0 120 255
166.847597 -185.044892 -185.636013 0 120 255
167.949707 -186.513847 -183.977644 0 120 255
168.994463 -187.926574 -182.236051 0 120 255
170.029775 -189.330042 -180.480753 0 120 255
171.065086 -190.733510 -178.725455 0 120 255
172.100397 -192.136977 -176.970157 0 120 255
173.067570 -193.480882 -175.132280 0 120 255
174.019453 -194.811422 -173.275874 0 120 255
174.971336 -196.141962 -171.419468 0 120 255
175.923220 -197.472502 -169.563061 0 120 255
176.796125 -198.740679 -167.627176 0 120 255
177.646115 -199.990763 -165.668229 0 120 255
178.496104 -201.240846 -163.709283 0 120 255
179.346094 -202.490930 -161.750337 0 120 255
180.106600 -203.676517 -159.717535 0 120 255
180.834631 -204.838697 -157.657931 0 120 255
181.562662 -206.000877 -155.598327 0 120 255
182.290693 -207.163058 -153.538722 0 120 255
182.919477 -208.259398 -151.413372 0 120 255
183.504215 -209.326518 -149.258842 0 120 255
184.088952 -210.393638 -147.104312 0 120 255
184.673690 -211.460758 -144.949782 0 120 255
185.150647 -212.461638 -142.739979 0 120 255
185.570013 -213.427123 -140.500641 0 120 255
185.989379 -214.392607 -138.261304 0 120 255
186.408745 -215.358092 -136.021966 0 120 255
186.713536 -216.257995 -133.739929 0 120 255
186.945427 -217.116168 -131.430725 0 120 255
187.177317 -217.974342 -129.121520 0 120 255
187.409208 -218.832516 -126.812315 0 120 255
187.521981 -219.626947 -124.474690 0 120 255
187.545184 -220.373447 -122.115694 0 120 255
187.568386 -221.119947 -119.756698 0 120 255
187.591589 -221.866447 -117.397702 0 120 255
187.493824 -222.552271 -115.025698 0 120 255
187.289078 -223.184435 -112.642190 0 120 255
187.084333 -223.816600 -110.258683 0 120 255
186.879588 -224.448765 -107.875175 0 120 255
186.555069 -225.024564 -105.494499 0 120 255
186.106283 -225.541883 -103.116762 0 120 255
185.657496 -226.059202 -100.739025 0 120 255
185.208709 -226.576521 -98.361288 0 120 255
184.644560 -227.042942 -96.001818 0 120 255
183.940035 -227.447429 -93.664577 0 120 255
183.235510 -227.851917 -91.327336 0 120 255
182.530985 -228.256405 -88.990095 0 120 255
181.718702 -228.616454 -86.685252 0 120 255
180.752357 -228.912968 -84.426731 0 120 255
179.786013 -229.209483 -82.168209 0 120 255
178.819668 -229.505998 -79.909688 0 120 255
177.756073 -229.765262 -77.695507 0 120 255
176.528422 -229.961687 -75.556126 0 120 255
175.300772 -230.158112 -73.416744 0 120 255
174.073121 -230.354537 -71.277362 0 120 255
172.761103 -230.521284 -69.191280 0 120 255
171.279986 -230.628547 -67.212025 0 120 255
169.798870 -230.735810 -65.232770 0 120 255
168.317753 -230.843072 -63.253515 0 120 255
166.766764 -230.928211 -61.332932 0 120 255
165.047652 -230.960118 -59.553523 0 120 255
163.328540 -230.992024 -57.774113 0 120 255
161.609428 -231.023930 -55.994704 0 120 255
159.835625 -231.040822 -54.275410 0 120 255
157.901458 -231.013689 -52.732385 0 120 255
155.967292 -230.986556 -51.189360 0 120 255
154.033125 -230.959423 -49.646336 0 120 255
152.059091 -230.923866 -48.160941 0 120 255
149.939485 -230.857551 -46.885975 0 120 255
147.819880 -230.791236 -45.611010 0 120 255
145.700274 -230.724921 -44.336045 0 120 255
143.554322 -230.655241 -43.112553 0 120 255
141.284572 -230.569745 -42.130929 0 120 255
139.014821 -230.484250 -41.149305 0 120 255
136.745071 -230.398755 -40.167682 0 120 255
134.460366 -230.312561 -39.228208 0 120 255
132.080387 -230.221914 -38.557281 0 120 255
129.700407 -230.131267 -37.886355 0 120 255
127.320427 -230.040621 -37.215429 0 120 255
124.934006 -229.949921 -36.574897 0 120 255
122.486544 -229.858721 -36.222370 0 120 255
120.039082 -229.767522 -35.869843 0 120 255
117.591620 -229.676322 -35.517316 0 120 255
115.142783 -229.585170 -35.182273 0 120 255
112.670264 -229.494853 -35.148291 0 120 255
110.197745 -229.404535 -35.114309 0 120 255
107.725226 -229.314218 -35.080327 0 120 255
105.252923 -229.223928 -35.050734 0 120 255
102.795775 -229.135602 -35.328727 0 120 255
100.338626 -229.047276 -35.606719 0 120 255
97.881477 -228.958950 -35.884712 0 120 255
95.424328 -228.870624 -36.162704 0 120 255
93.018316 -228.785297 -36.731974 0 120 255
90.613717 -228.700053 -37.309298 0 120 255
88.209119 -228.614808 -37.886621 0 120 255
85.804521 -228.529564 -38.463945 0 120 255
83.479620 -228.448199 -39.303813 0 120 255
81.160539 -228.367117 -40.162855 0 120 255
78.841458 -228.286034 -41.021896 0 120 255
76.522378 -228.204952 -41.880938 0 120 255
74.304527 -228.128397 -42.971844 0 120 255
72.099107 -228.052397 -44.091224 0 120 255
69.893688 -227.976397 -45.210603 0 120 255
67.688268 -227.900398 -46.329982 0 120 255
65.598898 -227.829341 -47.650057 0 120 255
63.530142 -227.759162 -49.005780 0 120 255
61.461386 -227.688982 -50.361503 0 120 255
59.392630 -227.618803 -51.717226 0 120 255
57.448607 -227.553804 -53.243198 0 120 255
55.534308 -227.490040 -54.809741 0 120 255
53.620009 -227.426275 -56.376284 0 120 255
51.705710 -227.362511 -57.942826 0 120 255
49.919598 -227.303921 -59.651003 0 120 255
48.172683 -227.246913 -61.402488 0 120 255
46.425768 -227.189905 -63.153973 0 120 255
44.678853 -227.132897 -64.905458 0 120 255
43.059221 -227.080937 -66.772403 0 120 255
41.488118 -227.030902 -68.683370 0 120 255
39.917015 -226.980866 -70.594337 0 120 255
38.345913 -226.930831 -72.505304 0 120 255
36.897843 -226.885601 -74.508471 0 120 255
35.507139 -226.842612 -76.554628 0 120 255
34.116436 -226.799623 -78.600785 0 120 255
32.725733 -226.756633 -80.646942 0 120 255
31.451333 -226.718144 -82.765089 0 120 255
30.242367 -226.682188 -84.923739 0 120 255
29.033401 -226.646231 -87.082389 0 120 255
27.824435 -226.610274 -89.241039 0 120 255
26.723309 -226.578448 -91.454479 0 120 255
25.694727 -226.549401 -93.704777 0 120 255
24.666145 -226.520354 -95.955074 0 120 255
23.637563 -226.491307 -98.205371 0 120 255
22.707307 -226.465968 -100.496133 0 120 255
21.855682 -226.443595 -102.819255 0 120 255
21.004057 -226.421222 -105.142378 0 120 255
20.152432 -226.398850 -107.465500 0 120 255
19.389190 -226.379783 -109.817427 0 120 255
18.709714 -226.363851 -112.196653 0 120 255
18.030238 -226.347919 -114.575880 0 120 255
17.350762 -226.331986 -116.955107 0 120 255
16.749659 -226.318991 -119.353823 0 120 255
16.236530 -226.309292 -121.774415 0 120 255
15.723401 -226.299593 -124.195007 0 120 255
15.210272 -226.289895 -126.615600 0 120 255
14.765685 -226.282732 -129.048394 0 120 255
14.412383 -226.278948 -131.497440 0 120 255
14.059080 -226.275164 -133.946486 0 120 255
13.705778 -226.271380 -136.395532 0 120 255
13.411588 -226.269777 -138.851237 0 120 255
13.211213 -226.271633 -141.317511 0 120 255
13.010838 -226.273489 -143.783785 0 120 255
12.810463 -226.275345 -146.250060 0 120 255
12.660290 -226.279040 -148.718921 0 120 255
12.605764 -226.286239 -151.192711 0 120 255
12.551238 -226.293437 -153.666501 0 120 255
12.496711 -226.300636 -156.140291 0 120 255
12.484094 -226.309363 -158.613823 0 120 255
12.568396 -226.321624 -161.086757 0 120 255
12.652698 -226.333886 -163.559692 0 120 255
12.737000 -226.346147 -166.032626 0 120 255
12.855590 -226.359646 -168.503465 0 120 255
13.072012 -226.376677 -170.968325 0 120 255
13.288434 -226.393709 -173.433185 0 120 255
13.504856 -226.410740 -175.898044 0 120 255
13.748585 -226.428757 -178.359793 0 120 255
14.090769 -226.450333 -180.810325 0 120 255
14.432953 -226.471908 -183.260857 0 120 255
14.775137 -226.493483 -185.711389 0 120 255
15.138282 -226.515801 -188.158459 0 120 255
15.600419 -226.541630 -190.589185 0 120 255
16.062556 -226.567458 -193.019910 0 120 255
16.524692 -226.593286 -195.450635 0 120 255
17.002009 -226.619657 -197.878093 0 120 255
17.578831 -226.649588 -200.284136 0 120 255
18.155654 -226.679518 -202.690179 0 120 255
18.732476 -226.709449 -205.096222 0 120 255
19.319191 -226.739729 -207.499647 0 120 255
20.005942 -226.773542 -209.876597 0 120 255
20.692693 -226.807355 -212.253546 0 120 255
21.379445 -226.841169 -214.630496 0 120 255
22.071234 -226.875160 -217.005865 0 120 255
22.863803 -226.912721 -219.349598 0 120 255
23.656372 -226.950281 -221.693332 0 120 255
24.448941 -226.987842 -224.037065 0 120 255
25.242047 -227.025421 -226.380603 0 120 255
26.136895 -227.066552 -228.687163 0 120 255
27.031742 -227.107683 -230.993723 0 120 255
27.926589 -227.148814 -233.300283 0 120 255
28.821437 -227.189945 -235.606843 0 120 255
29.811927 -227.234436 -237.873822 0 120 255
30.806105 -227.279056 -240.139276 0 120 255
31.800283 -227.323676 -242.404730 0 120 255
32.794460 -227.368296 -244.670185 0 120 255
33.877814 -227.416011 -246.894121 0 120 255
34.968868 -227.463993 -249.114473 0 120 255
36.059921 -227.511976 -251.334825 0 120 255
37.150975 -227.559959 -253.555176 0 120 255
38.325389 -227.610786 -255.732239 0 120 255
39.511370 -227.662007 -257.903297 0 120 255
40.697350 -227.713229 -260.074354 0 120 255
41.883330 -227.764450 -262.245411 0 120 255
43.147415 -227.818360 -264.371498 0 120 255
44.426840 -227.872798 -266.488754 0 120 255
45.706265 -227.927236 -268.606009 0 120 255
46.985690 -227.981674 -270.723264 0 120 255
48.338284 -228.038617 -272.794001 0 120 255
49.709915 -228.096212 -274.852635 0 120 255
51.081546 -228.153807 -276.911269 0 120 255
52.453177 -228.211402 -278.969903 0 120 255
53.893331 -228.271324 -280.980552 0 120 255
55.356171 -228.332016 -282.975315 0 120 255
56.819011 -228.392708 -284.970078 0 120 255
58.281850 -228.453401 -286.964840 0 120 255
59.808680 -228.516320 -288.910300 0 120 255
61.361769 -228.580153 -290.835528 0 120 255
62.914859 -228.643987 -292.760755 0 120 255
64.467948 -228.707820 -294.685983 0 120 255
66.080633 -228.773770 -296.560685 0 120 255
67.723095 -228.840778 -298.410142 0 120 255
69.365557 -228.907786 -300.259598 0 120 255
71.008019 -228.974794 -302.109055 0 120 255
72.705856 -229.043577 -303.906784 0 120 255
74.436963 -229.113426 -305.673434 0 120 255
76.168070 -229.183275 -307.440084 0 120 255
77.899177 -229.253125 -309.206734 0 120 255
79.681430 -229.324029 -310.920600 0 120 255
81.500331 -229.395690 -312.596645 0 120 255
83.319232 -229.467350 -314.272689 0 120 255
85.138133 -229.539011 -315.948734 0 120 255
87.003745 -229.608945 -317.571380 0 120 255
88.909063 -229.677411 -319.148637 0 120 255
90.814380 -229.745878 -320.725894 0 120 255
92.719698 -229.814344 -322.303151 0 120 255
94.666841 -229.876867 -323.827207 0 120 255
96.656039 -229.933413 -325.297770 0 120 255
98.645238 -229.989960 -326.768333 0 120 255
100.634436 -230.046507 -328.238895 0 120 255
102.660400 -230.093896 -329.656958 0 120 255
104.730082 -230.130396 -331.012593 0 120 255
106.799764 -230.166896 -332.368228 0 120 255
108.869446 -230.203396 -333.723863 0 120 255
110.970761 -230.228939 -335.028160 0 120 255
113.116662 -230.239039 -336.260097 0 120 255
115.262563 -230.249139 -337.492035 0 120 255
117.408464 -230.259239 -338.723972 0 120 255
119.580821 -230.257468 -339.906335 0 120 255
121.797594 -230.235770 -341.005476 0 120 255
124.014366 -230.214072 -342.104618 0 120 255
126.231139 -230.192374 -343.203759 0 120 255
128.469251 -230.158698 -344.255754 0 120 255
130.750373 -230.100882 -345.212729 0 120 255
133.031495 -230.043065 -346.169704 0 120 255
135.312617 -229.985248 -347.126679 0 120 255
137.610141 -229.916028 -348.039664 0 120 255
139.947821 -229.818888 -348.844946 0 120 255
142.285501 -229.721747 -349.650227 0 120 255
144.623181 -229.624607 -350.455508 0 120 255
146.972639 -229.517209 -351.220744 0 120 255
149.357733 -229.378774 -351.864813 0 120 255
151.742827 -229.240339 -352.508881 0 120 255
154.127921 -229.101904 -353.152950 0 120 255
156.520644 -228.954780 -353.761723 0 120 255
158.942617 -228.774344 -354.235167 0 120 255
161.364591 -228.593907 -354.708611 0 120 255
163.786564 -228.413470 -355.182054 0 120 255
166.212710 -228.226328 -355.625425 0 120 255
168.659914 -228.005340 -355.917004 0 120 255
171.107118 -227.784351 -356.208582 0 120 255
173.554322 -227.563363 -356.500160 0 120 255
176.001549 -227.341077 -356.790524 0 120 255
178.448932 -227.109623 -357.072315 0 120 255
180.896315 -226.878169 -357.354107 0 120 255
183.343699 -226.646716 -357.635898 0 120 255
185.791082 -226.415261 -357.917690 0 120 255
188.238463 -226.183797 -358.199494 0 120 255
190.685843 -225.952332 -358.481298 0 120 255
193.133224 -225.720867 -358.763102 0 120 255
195.580605 -225.489403 -359.044906 0 120 255
198.027987 -225.257942 -359.326702 0 120 255
200.475369 -225.026482 -359.608498 0 120 255
202.922751 -224.795021 -359.890294 0 120 255
205.370133 -224.563560 -360.172091 0 120 255
