ply
format ascii 1.0
element vertex 385
property float x
property float y
property float z
property uchar red
property uchar green
property uchar blue
end_header
77.430455 -42.474882 -360.397637 0 120 255
77.187528 -42.528717 -357.935683 0 120 255
76.944601 -42.582552 -355.473729 0 120 255
76.701673 -42.636387 -353.011776 0 120 255
76.458746 -42.690222 -350.549822 0 120 255
76.221454 -42.754681 -348.087575 0 120 255
75.984405 -42.819598 -345.625316 0 120 255
75.747355 -42.884514 -343.163056 0 120 255
75.510306 -42.949431 -340.700797 0 120 255
75.421330 -43.285826 -338.252662 0 120 255
75.345772 -43.646820 -335.805806 0 120 255
75.270213 -44.007813 -333.358950 0 120 255
75.194654 -44.368806 -330.912095 0 120 255
75.244352 -44.942341 -328.507417 0 120 255
75.312528 -45.547232 -326.108962 0 120 255
75.380705 -46.152124 -323.710507 0 120 255
75.448881 -46.757015 -321.312053 0 120 255
75.624705 -47.531395 -318.970391 0 120 255
75.823210 -48.341485 -316.640697 0 120 255
76.021715 -49.151576 -314.311002 0 120 255
76.220220 -49.961667 -311.981308 0 120 255
76.509747 -50.904485 -309.713703 0 120 255
76.824859 -51.884610 -307.463550 0 120 255
77.139971 -52.864735 -305.213397 0 120 255
77.455083 -53.844860 -302.963245 0 120 255
77.846173 -54.927247 -300.774313 0 120 255
78.264613 -56.046445 -298.607419 0 120 255
78.683052 -57.165643 -296.440524 0 120 255
79.101492 -58.284842 -294.273630 0 120 255
79.582660 -59.481579 -292.163292 0 120 255
80.091984 -60.713121 -290.078341 0 120 255
80.601308 -61.944662 -287.993390 0 120 255
81.110632 -63.176204 -285.908439 0 120 255
81.671209 -64.465562 -283.873299 0 120 255
82.259969 -65.786711 -281.865551 0 120 255
82.848729 -67.107861 -279.857803 0 120 255
83.437490 -68.429010 -277.850054 0 120 255
84.067651 -69.792437 -275.884456 0 120 255
84.725372 -71.184007 -273.946915 0 120 255
85.383093 -72.575577 -272.009374 0 120 255
86.040813 -73.967146 -270.071833 0 120 255
86.731523 -75.388904 -268.168649 0 120 255
87.448613 -76.834802 -266.292939 0 120 255
88.165702 -78.280700 -264.417229 0 120 255
88.882792 -79.726598 -262.541518 0 120 255
89.625700 -81.193367 -260.692719 0 120 255
90.393304 -82.680099 -258.869661 0 120 255
91.160908 -84.166832 -257.046604 0 120 255
91.928512 -85.653564 -255.223547 0 120 255
92.715820 -87.154075 -253.420600 0 120 255
93.525646 -88.670333 -251.640636 0 120 255
94.335472 -90.186590 -249.860671 0 120 255
95.145299 -91.702848 -248.080707 0 120 255
95.969623 -93.227570 -246.314871 0 120 255
96.813776 -94.763870 -244.568355 0 120 255
97.657928 -96.300170 -242.821839 0 120 255
98.502080 -97.836470 -241.075323 0 120 255
99.356312 -99.377320 -239.337836 0 120 255
100.227115 -100.925653 -237.615194 0 120 255
101.097918 -102.473986 -235.892553 0 120 255
101.968720 -104.022319 -234.169911 0 120 255
102.845889 -105.572408 -232.452123 0 120 255
103.735742 -107.125993 -230.744006 0 120 255
104.625595 -108.679578 -229.035890 0 120 255
105.515447 -110.233164 -227.327773 0 120 255
106.408593 -111.786590 -225.621241 0 120 255
107.309790 -113.339628 -223.918582 0 120 255
108.210988 -114.892665 -222.215924 0 120 255
109.112185 -116.445702 -220.513265 0 120 255
110.014221 -117.997371 -218.809806 0 120 255
110.918823 -119.544857 -217.103902 0 120 255
111.823425 -121.092343 -215.397997 0 120 255
112.728026 -122.639829 -213.692093 0 120 255
113.631632 -124.185300 -211.983847 0 120 255
114.531326 -125.722854 -210.266405 0 120 255
115.431019 -127.260409 -208.548963 0 120 255
116.330713 -128.797963 -206.831521 0 120 255
117.228218 -130.333313 -205.110996 0 120 255
118.114186 -131.857045 -203.374208 0 120 255
119.000154 -133.380777 -201.637421 0 120 255
119.886122 -134.904509 -199.900634 0 120 255
120.769400 -136.426226 -198.160759 0 120 255
121.632198 -137.932600 -196.397368 0 120 255
122.494995 -139.438974 -194.633978 0 120 255
123.357792 -140.945347 -192.870587 0 120 255
124.218158 -142.450216 -191.104775 0 120 255
125.047600 -143.935940 -189.308174 0 120 255
125.877042 -145.421665 -187.511573 0 120 255
126.706484 -146.907390 -185.714971 0 120 255
127.534601 -148.392403 -183.917203 0 120 255
128.319688 -149.854322 -182.081568 0 120 255
129.104776 -151.316242 -180.245933 0 120 255
129.889863 -152.778162 -178.410298 0 120 255
130.674951 -154.240081 -176.574663 0 120 255
131.404492 -155.675432 -174.695676 0 120 255
132.133302 -157.110434 -172.816120 0 120 255
132.862113 -158.545436 -170.936563 0 120 255
133.590923 -159.980438 -169.057007 0 120 255
134.254431 -161.387011 -167.132424 0 120 255
134.914091 -162.791909 -165.205189 0 120 255
135.573752 -164.196807 -163.277953 0 120 255
136.233412 -165.601706 -161.350717 0 120 255
136.818211 -166.976452 -159.378338 0 120 255
137.394863 -168.347917 -157.401046 0 120 255
137.971516 -169.719382 -155.423754 0 120 255
138.548168 -171.090847 -153.446462 0 120 255
139.040740 -172.430505 -151.425525 0 120 255
139.519573 -173.764965 -149.397456 0 120 255
139.998405 -175.099424 -147.369387 0 120 255
140.477238 -176.433884 -145.341318 0 120 255
140.863313 -177.734915 -143.272779 0 120 255
141.228670 -179.028479 -141.195200 0 120 255
141.594027 -180.322044 -139.117621 0 120 255
141.959384 -181.615608 -137.040043 0 120 255
142.224053 -182.874143 -134.926867 0 120 255
142.459580 -184.122539 -132.803388 0 120 255
142.695108 -185.370935 -130.679909 0 120 255
142.930635 -186.619330 -128.556430 0 120 255
143.058568 -187.831134 -126.403919 0 120 255
143.147485 -189.029667 -124.240880 0 120 255
143.236401 -190.228200 -122.077840 0 120 255
143.325318 -191.426734 -119.914801 0 120 255
143.301069 -192.587177 -117.730908 0 120 255
143.226556 -193.730702 -115.537754 0 120 255
143.152044 -194.874226 -113.344599 0 120 255
143.077531 -196.017751 -111.151445 0 120 255
142.885940 -197.121834 -108.947090 0 120 255
142.631656 -198.204797 -106.736737 0 120 255
142.377371 -199.287759 -104.526384 0 120 255
142.123087 -200.370721 -102.316031 0 120 255
141.749796 -201.413118 -100.105353 0 120 255
141.300524 -202.429615 -97.894467 0 120 255
140.851253 -203.446112 -95.683581 0 120 255
140.401981 -204.462609 -93.472696 0 120 255
139.834045 -205.437777 -91.273242 0 120 255
139.176461 -206.381721 -89.082424 0 120 255
138.518877 -207.325665 -86.891607 0 120 255
137.861293 -208.269609 -84.700789 0 120 255
137.087899 -209.171930 -82.533570 0 120 255
136.211485 -210.037226 -80.387344 0 120 255
135.335070 -210.902521 -78.241117 0 120 255
134.458656 -211.767817 -76.094890 0 120 255
133.471938 -212.591819 -73.984270 0 120 255
132.369975 -213.372677 -71.910851 0 120 255
131.268012 -214.153535 -69.837432 0 120 255
130.166049 -214.934394 -67.764013 0 120 255
128.961905 -215.675017 -65.737400 0 120 255
127.632424 -216.366287 -63.768198 0 120 255
126.302943 -217.057556 -61.798997 0 120 255
124.973463 -217.748826 -59.829795 0 120 255
123.552366 -218.401746 -57.917082 0 120 255
121.999097 -218.999339 -56.085861 0 120 255
120.445829 -219.596932 -54.254641 0 120 255
118.892561 -220.194525 -52.423421 0 120 255
117.260273 -220.756513 -50.656174 0 120 255
115.493357 -221.257839 -48.997920 0 120 255
113.726440 -221.759165 -47.339666 0 120 255
111.959523 -222.260491 -45.681412 0 120 255
110.127623 -222.729797 -44.091808 0 120 255
108.164069 -223.134231 -42.641285 0 120 255
106.200516 -223.538666 -41.190762 0 120 255
104.236962 -223.943101 -39.740238 0 120 255
102.223107 -224.319812 -38.359797 0 120 255
100.086816 -224.629045 -37.149936 0 120 255
97.950525 -224.938279 -35.940074 0 120 255
95.814234 -225.247512 -34.730213 0 120 255
93.642074 -225.533856 -33.588400 0 120 255
91.363447 -225.752265 -32.648569 0 120 255
89.084820 -225.970674 -31.708738 0 120 255
86.806192 -226.189082 -30.768906 0 120 255
84.504930 -226.389692 -29.891691 0 120 255
82.119947 -226.524469 -29.246075 0 120 255
79.734964 -226.659246 -28.600459 0 120 255
77.349982 -226.794023 -27.954843 0 120 255
74.953518 -226.916024 -27.363359 0 120 255
72.502406 -226.977210 -27.029540 0 120 255
70.051294 -227.038395 -26.695722 0 120 255
67.600183 -227.099581 -26.361904 0 120 255
65.145934 -227.152597 -26.071309 0 120 255
62.671467 -227.152959 -26.059270 0 120 255
60.197001 -227.153321 -26.047232 0 120 255
57.722535 -227.153683 -26.035193 0 120 255
55.249976 -227.149709 -26.053876 0 120 255
52.795592 -227.104402 -26.365449 0 120 255
50.341209 -227.059095 -26.677021 0 120 255
47.886826 -227.013787 -26.988594 0 120 255
45.435895 -226.967017 -27.317770 0 120 255
43.043844 -226.895297 -27.947115 0 120 255
40.651793 -226.823578 -28.576460 0 120 255
38.259742 -226.751858 -29.205806 0 120 255
35.869276 -226.680031 -29.839891 0 120 255
33.578974 -226.601374 -30.773410 0 120 255
31.288673 -226.522717 -31.706930 0 120 255
28.998371 -226.444060 -32.640449 0 120 255
26.708069 -226.365403 -33.573968 0 120 255
24.550544 -226.290571 -34.782378 0 120 255
22.396381 -226.215836 -35.997748 0 120 255
20.242218 -226.141101 -37.213117 0 120 255
18.088054 -226.066366 -38.428487 0 120 255
16.087399 -225.998071 -39.881156 0 120 255
14.097493 -225.930228 -41.350440 0 120 255
12.107586 -225.862384 -42.819725 0 120 255
10.117680 -225.794540 -44.289009 0 120 255
8.294395 -225.733907 -45.958440 0 120 255
6.490969 -225.674133 -47.651723 0 120 255
4.687542 -225.614359 -49.345006 0 120 255
2.884116 -225.554585 -51.038289 0 120 255
1.253129 -225.501987 -52.895815 0 120 255
-0.347972 -225.450633 -54.781807 0 120 255
-1.949073 -225.399279 -56.667800 0 120 255
-3.550173 -225.347926 -58.553792 0 120 255
-4.979046 -225.303406 -60.570854 0 120 255
-6.367764 -225.260480 -62.618474 0 120 255
-7.756482 -225.217553 -64.666094 0 120 255
-9.145200 -225.174627 -66.713714 0 120 255
-10.366751 -225.138174 -68.862701 0 120 255
-11.538208 -225.103661 -71.042064 0 120 255
-12.709666 -225.069148 -73.221427 0 120 255
-13.881124 -225.034635 -75.400790 0 120 255
-14.894207 -225.006173 -77.655663 0 120 255
-15.848049 -224.979975 -79.938781 0 120 255
-16.801891 -224.953777 -82.221898 0 120 255
-17.755734 -224.927579 -84.505016 0 120 255
-18.562666 -224.906928 -86.841756 0 120 255
-19.302351 -224.888816 -89.203041 0 120 255
-20.042035 -224.870705 -91.564325 0 120 255
-20.781720 -224.852593 -93.925610 0 120 255
-21.387654 -224.839487 -96.322525 0 120 255
-21.919681 -224.829148 -98.739128 0 120 255
-22.451709 -224.818808 -101.155730 0 120 255
-22.983736 -224.808469 -103.572333 0 120 255
-23.395982 -224.802569 -106.010232 0 120 255
-23.729067 -224.799602 -108.462205 0 120 255
-24.062152 -224.796636 -110.914178 0 120 255
-24.395238 -224.793670 -113.366152 0 120 255
-24.622624 -224.794597 -115.828376 0 120 255
-24.766962 -224.798584 -118.298655 0 120 255
-24.911300 -224.802570 -120.768934 0 120 255
-25.055638 -224.806557 -123.239213 0 120 255
-25.108036 -224.813898 -125.711549 0 120 255
-25.074832 -224.824361 -128.185799 0 120 255
-25.041628 -224.834825 -130.660050 0 120 255
-25.008423 -224.845288 -133.134300 0 120 255
-24.896327 -224.858612 -135.604826 0 120 255
-24.697245 -224.875091 -138.071245 0 120 255
-24.498163 -224.891570 -140.537664 0 120 255
-24.299081 -224.908049 -143.004083 0 120 255
-24.033199 -224.926930 -145.462977 0 120 255
-23.679961 -224.948955 -147.912031 0 120 255
-23.326723 -224.970979 -150.361085 0 120 255
-22.973485 -224.993003 -152.810139 0 120 255
-22.564471 -225.017022 -155.249455 0 120 255
-22.068588 -225.044148 -157.673603 0 120 255
-21.572705 -225.071273 -160.097750 0 120 255
-21.076822 -225.098399 -162.521898 0 120 255
-20.535062 -225.127157 -164.935328 0 120 255
-19.907592 -225.158963 -167.328735 0 120 255
-19.280122 -225.190770 -169.722142 0 120 255
-18.652652 -225.222576 -172.115549 0 120 255
-17.988085 -225.255693 -174.498195 0 120 255
-17.239483 -225.291780 -176.856461 0 120 255
-16.490881 -225.327866 -179.214728 0 120 255
-15.742279 -225.363952 -181.572994 0 120 255
-14.964287 -225.401070 -183.921138 0 120 255
-14.104277 -225.441066 -186.241032 0 120 255
-13.244268 -225.481062 -188.560927 0 120 255
-12.384259 -225.521057 -190.880822 0 120 255
-11.501573 -225.561845 -193.191717 0 120 255
-10.539118 -225.605415 -195.470951 0 120 255
-9.576662 -225.648986 -197.750185 0 120 255
-8.614207 -225.692556 -200.029420 0 120 255
-7.634883 -225.736715 -202.301100 0 120 255
-6.578122 -225.783572 -204.538104 0 120 255
-5.521361 -225.830430 -206.775109 0 120 255
-4.464600 -225.877287 -209.012113 0 120 255
-3.395969 -225.924554 -211.243213 0 120 255
-2.252193 -225.974414 -213.436935 0 120 255
-1.108416 -226.024275 -215.630658 0 120 255
0.035361 -226.074135 -217.824380 0 120 255
1.186699 -226.124254 -220.013973 0 120 255
2.411001 -226.176878 -222.163727 0 120 255
3.635303 -226.229502 -224.313482 0 120 255
4.859604 -226.282126 -226.463236 0 120 255
6.087751 -226.334880 -228.610707 0 120 255
7.386863 -226.390054 -230.716032 0 120 255
8.685975 -226.445228 -232.821356 0 120 255
9.985087 -226.500401 -234.926681 0 120 255
11.284818 -226.555596 -237.031608 0 120 255
12.653785 -226.613142 -239.092129 0 120 255
14.022753 -226.670687 -241.152649 0 120 255
15.391720 -226.728232 -243.213170 0 120 255
16.760687 -226.785778 -245.273690 0 120 255
18.193142 -226.845496 -247.290477 0 120 255
19.627808 -226.905289 -249.305740 0 120 255
21.062475 -226.965083 -251.321002 0 120 255
22.497142 -227.024876 -253.336265 0 120 255
23.989255 -227.086578 -255.309207 0 120 255
25.486107 -227.148438 -257.278657 0 120 255
26.982959 -227.210298 -259.248107 0 120 255
28.479812 -227.272158 -261.217558 0 120 255
30.028940 -227.335767 -263.145948 0 120 255
31.585112 -227.399611 -265.068805 0 120 255
33.141283 -227.463456 -266.991663 0 120 255
34.697455 -227.527301 -268.914520 0 120 255
36.301493 -227.592750 -270.797379 0 120 255
37.914734 -227.658509 -272.672548 0 120 255
39.527974 -227.724267 -274.547717 0 120 255
41.141214 -227.790025 -276.422886 0 120 255
42.798497 -227.857225 -278.258952 0 120 255
44.467050 -227.924794 -280.085012 0 120 255
46.135602 -227.992363 -281.911072 0 120 255
47.804154 -228.059933 -283.737132 0 120 255
49.513445 -228.128849 -285.524779 0 120 255
51.236042 -228.198206 -287.299877 0 120 255
52.958640 -228.267562 -289.074976 0 120 255
54.681238 -228.336919 -290.850074 0 120 255
56.441696 -228.407515 -292.587245 0 120 255
58.217522 -228.478613 -294.309022 0 120 255
59.993348 -228.549711 -296.030799 0 120 255
61.769173 -228.620809 -297.752576 0 120 255
63.580300 -228.693052 -299.436741 0 120 255
65.408904 -228.765861 -301.102284 0 120 255
67.237508 -228.838670 -302.767827 0 120 255
69.066113 -228.911478 -304.433370 0 120 255
70.927721 -228.985263 -306.061439 0 120 255
72.809011 -229.059630 -307.667161 0 120 255
74.690302 -229.133996 -309.272883 0 120 255
76.571593 -229.208362 -310.878605 0 120 255
78.483851 -229.283149 -312.446761 0 120 255
80.418167 -229.358235 -313.988161 0 120 255
82.352482 -229.433321 -315.529561 0 120 255
84.286798 -229.508407 -317.070961 0 120 255
86.250685 -229.581471 -318.573939 0 120 255
88.239595 -229.652823 -320.044406 0 120 255
90.228505 -229.724176 -321.514874 0 120 255
92.217415 -229.795528 -322.985341 0 120 255
94.234995 -229.860398 -324.415659 0 120 255
96.281315 -229.918770 -325.805728 0 120 255
98.327635 -229.977142 -327.195798 0 120 255
100.373956 -230.035513 -328.585867 0 120 255
102.447423 -230.084185 -329.934368 0 120 255
104.553119 -230.121341 -331.233519 0 120 255
106.658814 -230.158497 -332.532670 0 120 255
108.764510 -230.195652 -333.831821 0 120 255
110.895089 -230.221503 -335.088607 0 120 255
113.060727 -230.231427 -336.285704 0 120 255
115.226365 -230.241351 -337.482801 0 120 255
117.392002 -230.251274 -338.679899 0 120 255
119.579752 -230.249178 -339.834350 0 120 255
121.804648 -230.226887 -340.917155 0 120 255
124.029545 -230.204597 -341.999960 0 120 255
126.254441 -230.182306 -343.082765 0 120 255
128.498231 -230.148038 -344.123315 0 120 255
130.780168 -230.089587 -345.078550 0 120 255
133.062106 -230.031135 -346.033785 0 120 255
135.344043 -229.972684 -346.989020 0 120 255
137.641312 -229.902952 -347.903240 0 120 255
139.976225 -229.805526 -348.716761 0 120 255
142.311139 -229.708099 -349.530281 0 120 255
144.646052 -229.610672 -350.343802 0 120 255
146.992558 -229.503193 -351.118527 0 120 255
149.374270 -229.365187 -351.775436 0 120 255
151.755983 -229.227182 -352.432344 0 120 255
154.137695 -229.089176 -353.089252 0 120 255
156.527283 -228.942740 -353.710699 0 120 255
158.947206 -228.763833 -354.195563 0 120 255
161.367129 -228.584927 -354.680428 0 120 255
163.787052 -228.406020 -355.165292 0 120 255
166.211471 -228.220439 -355.618616 0 120 255
168.658704 -228.000996 -355.911916 0 120 255
171.105937 -227.781554 -356.205216 0 120 255
173.553169 -227.562111 -356.498517 0 120 255
176.000432 -227.341182 -356.790395 0 120 255
178.447908 -227.109720 -357.072197 0 120 255
180.895385 -226.878257 -357.354000 0 120 255
183.342861 -226.646795 -357.635802 0 120 255
185.790337 -226.415332 -357.917605 0 120 255
188.237811 -226.183858 -358.199419 0 120 255
190.685285 -225.952385 -358.481234 0 120 255
193.132759 -225.720911 -358.763048 0 120 255
195.580233 -225.489438 -359.044863 0 120 255
198.027708 -225.257969 -359.326670 0 120 255
200.475183 -225.026499 -359.608477 0 120 255
202.922658 -224.795030 -359.890284 0 120 255
205.370133 -224.563560 -360.172091 0 120 255
