ply
format ascii 1.0
element vertex 385
property float x
property float y
property float z
property uchar red
property uchar green
property uchar blue
end_header
77.430455 -42.474882 -360.397637 0 120 255
77.187574 -42.528707 -357.936149 0 120 255
76.944693 -42.582531 -355.474662 0 120 255
76.701811 -42.636356 -353.013175 0 120 255
76.458930 -42.690181 -350.551688 0 120 255
76.220873 -42.751290 -348.089900 0 120 255
75.983028 -42.812719 -345.628099 0 120 255
75.745182 -42.874149 -343.166299 0 120 255
75.507337 -42.935578 -340.704498 0 120 255
75.248707 -43.256104 -338.266290 0 120 255
74.988147 -43.600687 -335.830273 0 120 255
74.727586 -43.945271 -333.394256 0 120 255
74.467026 -44.289854 -330.958240 0 120 255
74.185213 -44.867279 -328.570894 0 120 255
73.900214 -45.479608 -326.190844 0 120 255
73.615215 -46.091938 -323.810795 0 120 255
73.330216 -46.704267 -321.430745 0 120 255
73.028862 -47.529251 -319.120190 0 120 255
72.724021 -48.399583 -316.824455 0 120 255
72.419179 -49.269914 -314.528719 0 120 255
72.114338 -50.140246 -312.232983 0 120 255
71.798625 -51.202019 -310.023636 0 120 255
71.479828 -52.318129 -307.838808 0 120 255
71.161030 -53.434240 -305.653980 0 120 255
70.842233 -54.550350 -303.469152 0 120 255
70.518415 -55.836139 -301.383811 0 120 255
70.192774 -57.183510 -299.334578 0 120 255
69.867133 -58.530880 -297.285344 0 120 255
69.541493 -59.878251 -295.236111 0 120 255
69.216825 -61.373417 -293.295844 0 120 255
68.892597 -62.935397 -291.404839 0 120 255
68.568369 -64.497378 -289.513834 0 120 255
68.244141 -66.059359 -287.622829 0 120 255
67.926818 -67.747497 -285.846836 0 120 255
67.613315 -69.505429 -284.134469 0 120 255
67.299812 -71.263360 -282.422102 0 120 255
66.986309 -73.021291 -280.709735 0 120 255
66.685379 -74.884352 -279.115223 0 120 255
66.392860 -76.817725 -277.599535 0 120 255
66.100340 -78.751098 -276.083848 0 120 255
65.807820 -80.684471 -274.568160 0 120 255
65.533074 -82.702849 -273.170197 0 120 255
65.272586 -84.789417 -271.866668 0 120 255
65.012097 -86.875985 -270.563139 0 120 255
64.751608 -88.962553 -269.259610 0 120 255
64.513454 -91.115211 -268.070974 0 120 255
64.296687 -93.331153 -266.992356 0 120 255
64.079919 -95.547096 -265.913738 0 120 255
63.863152 -97.763039 -264.835120 0 120 255
63.672483 -100.027617 -263.866124 0 120 255
63.511590 -102.347683 -263.022195 0 120 255
63.350697 -104.667749 -262.178267 0 120 255
63.189804 -106.987814 -261.334338 0 120 255
63.057832 -109.340785 -260.592659 0 120 255
62.965204 -111.738518 -259.990081 0 120 255
62.872575 -114.136252 -259.387502 0 120 255
62.779947 -116.533986 -258.784923 0 120 255
62.718013 -118.950838 -258.275462 0 120 255
62.706049 -121.398815 -257.917590 0 120 255
62.694085 -123.846792 -257.559718 0 120 255
62.682121 -126.294770 -257.201846 0 120 255
62.701502 -128.750220 -256.926569 0 120 255
62.782357 -131.220329 -256.813281 0 120 255
62.863211 -133.690437 -256.699992 0 120 255
62.944066 -136.160546 -256.586704 0 120 255
63.055751 -138.628785 -256.544512 0 120 255
63.241062 -141.092560 -256.672099 0 120 255
63.426373 -143.556336 -256.799686 0 120 255
63.611684 -146.020111 -256.927273 0 120 255
63.826149 -148.475094 -257.113908 0 120 255
64.126745 -150.904099 -257.474989 0 120 255
64.427341 -153.333105 -257.836071 0 120 255
64.727937 -155.762111 -258.197152 0 120 255
65.054896 -158.177885 -258.605136 0 120 255
65.480528 -160.544134 -259.188669 0 120 255
65.906160 -162.910383 -259.772202 0 120 255
66.331792 -165.276632 -260.355736 0 120 255
66.779974 -167.627697 -260.974390 0 120 255
67.339036 -169.904101 -261.765745 0 120 255
67.898097 -172.180505 -262.557099 0 120 255
68.457159 -174.456909 -263.348454 0 120 255
69.034073 -176.718599 -264.163970 0 120 255
69.733351 -178.879433 -265.145100 0 120 255
70.432629 -181.040267 -266.126230 0 120 255
71.131906 -183.201100 -267.107360 0 120 255
71.843631 -185.349977 -268.102941 0 120 255
72.688068 -187.371363 -269.252607 0 120 255
73.532505 -189.392748 -270.402274 0 120 255
74.376942 -191.414134 -271.551940 0 120 255
75.227931 -193.428396 -272.707998 0 120 255
76.220471 -195.288741 -274.002134 0 120 255
77.213011 -197.149087 -275.296270 0 120 255
78.205550 -199.009432 -276.590405 0 120 255
79.198500 -200.869282 -277.884866 0 120 255
80.339918 -202.549706 -279.297009 0 120 255
81.481337 -204.230130 -280.709151 0 120 255
82.622755 -205.910554 -282.121294 0 120 255
83.764174 -207.590978 -283.533436 0 120 255
85.047328 -209.083240 -285.031748 0 120 255
86.336201 -210.567909 -286.533537 0 120 255
87.625075 -212.052579 -288.035325 0 120 255
88.913948 -213.537248 -289.537114 0 120 255
90.335048 -214.830445 -291.094010 0 120 255
91.767712 -216.106897 -292.655725 0 120 255
93.200375 -217.383349 -294.217440 0 120 255
94.633039 -218.659801 -295.779154 0 120 255
96.184547 -219.748484 -297.367055 0 120 255
97.752599 -220.811029 -298.958601 0 120 255
99.320651 -221.873574 -300.550147 0 120 255
100.888702 -222.936119 -302.141693 0 120 255
102.564229 -223.815042 -303.732924 0 120 255
104.260878 -224.657878 -305.324093 0 120 255
105.957526 -225.500714 -306.915262 0 120 255
107.654175 -226.343550 -308.506431 0 120 255
109.447719 -227.006775 -310.072695 0 120 255
111.266381 -227.623441 -311.632502 0 120 255
113.085043 -228.240107 -313.192310 0 120 255
114.903704 -228.856773 -314.752118 0 120 255
116.805715 -229.303395 -316.265786 0 120 255
118.735151 -229.694066 -317.764272 0 120 255
120.664587 -230.084736 -319.262758 0 120 255
122.594023 -230.475407 -320.761244 0 120 255
124.592739 -230.709815 -322.195615 0 120 255
126.619676 -230.880566 -323.603868 0 120 255
128.646613 -231.051317 -325.012121 0 120 255
130.673551 -231.222068 -326.420374 0 120 255
132.754275 -231.259662 -327.753390 0 120 255
134.861698 -231.231158 -329.049061 0 120 255
136.969122 -231.202654 -330.344732 0 120 255
139.076545 -231.174151 -331.640403 0 120 255
141.226152 -231.021139 -332.849452 0 120 255
143.400920 -230.793862 -334.006835 0 120 255
145.575688 -230.566584 -335.164218 0 120 255
147.750457 -230.339307 -336.321601 0 120 255
149.955289 -229.990480 -337.379865 0 120 255
152.181247 -229.556239 -338.368477 0 120 255
154.407204 -229.121998 -339.357089 0 120 255
156.633162 -228.687757 -340.345702 0 120 255
158.875389 -228.145027 -341.228634 0 120 255
161.131008 -227.512997 -342.024579 0 120 255
163.386627 -226.880966 -342.820524 0 120 255
165.642246 -226.248936 -343.616469 0 120 255
167.900798 -225.522400 -344.303407 0 120 255
170.162168 -224.705033 -344.885579 0 120 255
172.423538 -223.887666 -345.467751 0 120 255
174.684908 -223.070300 -346.049923 0 120 255
176.936811 -222.172917 -346.523032 0 120 255
179.178100 -221.185830 -346.873873 0 120 255
181.419389 -220.198743 -347.224714 0 120 255
183.660678 -219.211655 -347.575555 0 120 255
185.881520 -218.159105 -347.820364 0 120 255
188.075590 -217.020848 -347.926352 0 120 255
190.269661 -215.882591 -348.032339 0 120 255
192.463731 -214.744334 -348.138327 0 120 255
194.628202 -213.554771 -348.144140 0 120 255
196.747260 -212.286492 -347.996263 0 120 255
198.866319 -211.018213 -347.848385 0 120 255
200.985378 -209.749935 -347.700508 0 120 255
203.067842 -208.443657 -347.460748 0 120 255
205.084128 -207.068658 -347.054819 0 120 255
207.100414 -205.693659 -346.648891 0 120 255
209.116699 -204.318660 -346.242962 0 120 255
211.091792 -202.917710 -345.755399 0 120 255
212.978274 -201.460933 -345.092228 0 120 255
214.864756 -200.004157 -344.429057 0 120 255
216.751239 -198.547381 -343.765887 0 120 255
218.594451 -197.075086 -343.032713 0 120 255
220.325503 -195.562565 -342.118083 0 120 255
222.056555 -194.050045 -341.203453 0 120 255
223.787607 -192.537524 -340.288823 0 120 255
225.475845 -191.018015 -339.316602 0 120 255
227.027874 -189.476273 -338.161161 0 120 255
228.579903 -187.934530 -337.005720 0 120 255
230.131932 -186.392788 -335.850279 0 120 255
231.644029 -184.850485 -334.649803 0 120 255
232.995980 -183.305935 -333.268717 0 120 255
234.347931 -181.761385 -331.887630 0 120 255
235.699882 -180.216835 -330.506543 0 120 255
237.017007 -178.675950 -329.092508 0 120 255
238.150832 -177.154355 -327.505059 0 120 255
239.284657 -175.632760 -325.917609 0 120 255
240.418482 -174.111165 -324.330159 0 120 255
241.524514 -172.595242 -322.720810 0 120 255
242.425470 -171.121170 -320.949879 0 120 255
243.326425 -169.647098 -319.178947 0 120 255
244.227381 -168.173026 -317.408016 0 120 255
245.109142 -166.704494 -315.624692 0 120 255
245.766015 -165.300868 -313.696180 0 120 255
246.422889 -163.897242 -311.767668 0 120 255
247.079762 -162.493616 -309.839156 0 120 255
247.727185 -161.093422 -307.905788 0 120 255
248.132421 -159.781163 -305.847981 0 120 255
248.537656 -158.468905 -303.790173 0 120 255
248.942892 -157.156647 -301.732366 0 120 255
249.348128 -155.844389 -299.674559 0 120 255
249.498804 -154.641685 -297.517879 0 120 255
249.648481 -153.439411 -295.360812 0 120 255
249.798158 -152.237137 -293.203744 0 120 255
249.947835 -151.034863 -291.046676 0 120 255
249.853293 -149.952912 -288.824628 0 120 255
249.747044 -148.876729 -286.599466 0 120 255
249.640796 -147.800545 -284.374304 0 120 255
249.534547 -146.724361 -282.149141 0 120 255
249.197647 -145.775445 -279.890808 0 120 255
248.838519 -144.838794 -277.629278 0 120 255
248.479390 -143.902142 -275.367748 0 120 255
248.120262 -142.965491 -273.106217 0 120 255
247.546673 -142.159567 -270.840642 0 120 255
246.940939 -141.373238 -268.574460 0 120 255
246.335206 -140.586908 -266.308278 0 120 255
245.729472 -139.800578 -264.042096 0 120 255
244.927471 -139.145221 -261.797914 0 120 255
244.084396 -138.517273 -259.558335 0 120 255
243.241321 -137.889324 -257.318756 0 120 255
242.398247 -137.261376 -255.079177 0 120 255
241.378471 -136.761858 -252.884263 0 120 255
240.310012 -136.297724 -250.701653 0 120 255
239.241554 -135.833591 -248.519044 0 120 255
238.173095 -135.369457 -246.336435 0 120 255
236.948379 -135.028838 -244.217577 0 120 255
235.669007 -134.731421 -242.121018 0 120 255
234.389636 -134.434005 -240.024459 0 120 255
233.110264 -134.136589 -237.927900 0 120 255
231.695370 -133.955806 -235.910571 0 120 255
230.221722 -133.825588 -233.927590 0 120 255
228.748074 -133.695370 -231.944609 0 120 255
227.274426 -133.565152 -229.961629 0 120 255
225.685856 -133.543146 -228.069748 0 120 255
224.036538 -133.578340 -226.226024 0 120 255
222.387219 -133.613534 -224.382301 0 120 255
220.737901 -133.648728 -222.538577 0 120 255
218.993694 -133.782577 -220.794333 0 120 255
217.189010 -133.979302 -219.113494 0 120 255
215.384325 -134.176028 -217.432654 0 120 255
213.579641 -134.372754 -215.751815 0 120 255
211.699181 -134.657799 -214.175503 0 120 255
209.760917 -135.010216 -212.678926 0 120 255
207.822653 -135.362632 -211.182349 0 120 255
205.884389 -135.715049 -209.685772 0 120 255
203.888228 -136.145038 -208.295650 0 120 255
201.839433 -136.645547 -207.002306 0 120 255
199.790639 -137.146055 -205.708961 0 120 255
197.741845 -137.646563 -204.415616 0 120 255
195.651532 -138.213787 -203.227787 0 120 255
193.516312 -138.853172 -202.154088 0 120 255
191.381092 -139.492557 -201.080389 0 120 255
189.245872 -140.131941 -200.006690 0 120 255
187.083787 -140.827362 -199.034984 0 120 255
184.887098 -141.594962 -198.194654 0 120 255
182.690408 -142.362562 -197.354325 0 120 255
180.493719 -143.130162 -196.513995 0 120 255
178.282907 -143.943561 -195.769874 0 120 255
176.050355 -144.827460 -195.173855 0 120 255
173.817802 -145.711360 -194.577837 0 120 255
171.585250 -146.595260 -193.981818 0 120 255
169.349258 -147.515372 -193.474284 0 120 255
167.106896 -148.502542 -193.130599 0 120 255
164.864535 -149.489711 -192.786913 0 120 255
162.622174 -150.476881 -192.443228 0 120 255
160.384880 -151.491524 -192.178722 0 120 255
158.158991 -152.567986 -192.092383 0 120 255
155.933102 -153.644448 -192.006044 0 120 255
153.707213 -154.720910 -191.919705 0 120 255
151.492651 -155.817122 -191.902038 0 120 255
149.309527 -156.968152 -192.074978 0 120 255
147.126403 -158.119183 -192.247917 0 120 255
144.943280 -159.270213 -192.420857 0 120 255
142.775446 -160.434405 -192.651137 0 120 255
140.661134 -161.644668 -193.082127 0 120 255
138.546821 -162.854930 -193.513118 0 120 255
136.432508 -164.065193 -193.944108 0 120 255
134.335156 -165.283277 -194.420680 0 120 255
132.315215 -166.537057 -195.105283 0 120 255
130.295274 -167.790837 -195.789886 0 120 255
128.275333 -169.044617 -196.474489 0 120 255
126.271767 -170.302186 -197.192894 0 120 255
124.370974 -171.583535 -198.123453 0 120 255
122.470181 -172.864883 -199.054012 0 120 255
120.569388 -174.146231 -199.984570 0 120 255
118.682211 -175.428688 -200.937535 0 120 255
116.924276 -176.721662 -202.103163 0 120 255
115.166340 -178.014637 -203.268790 0 120 255
113.408405 -179.307611 -204.434417 0 120 255
111.659287 -180.600366 -205.611843 0 120 255
110.066552 -181.889215 -206.998519 0 120 255
108.473818 -183.178065 -208.385195 0 120 255
106.881083 -184.466915 -209.771871 0 120 255
105.290504 -185.755539 -211.160913 0 120 255
103.883624 -187.024945 -212.751543 0 120 255
102.476744 -188.294350 -214.342174 0 120 255
101.069863 -189.563755 -215.932804 0 120 255
99.662983 -190.833160 -217.523435 0 120 255
98.454475 -192.069442 -219.292526 0 120 255
97.252111 -193.304698 -221.067145 0 120 255
96.049746 -194.539953 -222.841763 0 120 255
94.847381 -195.775209 -224.616381 0 120 255
93.850088 -196.965925 -226.540774 0 120 255
92.868598 -198.153208 -228.476708 0 120 255
91.887107 -199.340492 -230.412643 0 120 255
90.905617 -200.527775 -232.348577 0 120 255
90.132289 -201.661176 -234.405378 0 120 255
89.385464 -202.787717 -236.477566 0 120 255
88.638639 -203.914258 -238.549755 0 120 255
87.891815 -205.040799 -240.621944 0 120 255
87.352714 -206.106251 -242.786404 0 120 255
86.851499 -207.160562 -244.967692 0 120 255
86.350283 -208.214873 -247.148980 0 120 255
85.849067 -209.269184 -249.330268 0 120 255
85.551816 -210.257325 -251.576118 0 120 255
85.304127 -211.229387 -253.837656 0 120 255
85.056439 -212.201448 -256.099194 0 120 255
84.808750 -213.173510 -258.360732 0 120 255
84.758166 -214.076365 -260.660540 0 120 255
84.768707 -214.957757 -262.972215 0 120 255
84.779247 -215.839149 -265.283891 0 120 255
84.789788 -216.720541 -267.595566 0 120 255
84.987794 -217.531659 -269.921117 0 120 255
85.257960 -218.315727 -272.252009 0 120 255
85.528126 -219.099795 -274.582900 0 120 255
85.798291 -219.883863 -276.913792 0 120 255
86.243877 -220.598402 -279.236500 0 120 255
86.771699 -221.280347 -281.555371 0 120 255
87.299521 -221.962292 -283.874241 0 120 255
87.827343 -222.644237 -286.193112 0 120 255
88.516566 -223.259012 -288.484439 0 120 255
89.296762 -223.835928 -290.760240 0 120 255
90.076958 -224.412844 -293.036041 0 120 255
90.857154 -224.989760 -295.311842 0 120 255
91.784588 -225.501190 -297.543513 0 120 255
92.810936 -225.968628 -299.745539 0 120 255
93.837284 -226.436067 -301.947565 0 120 255
94.863632 -226.903505 -304.149592 0 120 255
96.020110 -227.310873 -306.293985 0 120 255
97.280179 -227.670421 -308.392498 0 120 255
98.540247 -228.029970 -310.491012 0 120 255
99.800316 -228.389519 -312.589525 0 120 255
101.171622 -228.697526 -314.621039 0 120 255
102.647839 -228.956924 -316.589365 0 120 255
104.124055 -229.216322 -318.557690 0 120 255
105.600272 -229.475720 -320.526015 0 120 255
107.170214 -229.690642 -322.421247 0 120 255
108.844892 -229.855863 -324.234797 0 120 255
110.519569 -230.021084 -326.048347 0 120 255
112.194247 -230.186306 -327.861896 0 120 255
113.945749 -230.314277 -329.599522 0 120 255
115.799241 -230.392795 -331.236351 0 120 255
117.652734 -230.471314 -332.873180 0 120 255
119.506226 -230.549832 -334.510008 0 120 255
121.420651 -230.598192 -336.071105 0 120 255
123.431686 -230.598735 -337.512128 0 120 255
125.442721 -230.599278 -338.953150 0 120 255
127.453756 -230.599821 -340.394172 0 120 255
129.511198 -230.576912 -341.762352 0 120 255
131.657270 -230.509211 -342.991418 0 120 255
133.803341 -230.441511 -344.220484 0 120 255
135.949412 -230.373811 -345.449550 0 120 255
138.129004 -230.288767 -346.611009 0 120 255
140.386687 -230.163318 -347.614969 0 120 255
142.644371 -230.037869 -348.618929 0 120 255
144.902054 -229.912421 -349.622889 0 120 255
147.182227 -229.774970 -350.566439 0 120 255
149.527478 -229.602790 -351.335176 0 120 255
151.872730 -229.430610 -352.103913 0 120 255
154.217981 -229.258429 -352.872651 0 120 255
156.576705 -229.078693 -353.589720 0 120 255
158.985169 -228.871059 -354.116023 0 120 255
161.393634 -228.663425 -354.642325 0 120 255
163.802098 -228.455791 -355.168628 0 120 255
166.217124 -228.245061 -355.653974 0 120 255
168.664349 -228.019132 -355.938321 0 120 255
171.111574 -227.793204 -356.222669 0 120 255
173.558799 -227.567276 -356.507016 0 120 255
176.005997 -227.340656 -356.791036 0 120 255
178.453010 -227.109237 -357.072785 0 120 255
180.900022 -226.877819 -357.354534 0 120 255
183.347035 -226.646400 -357.636282 0 120 255
185.794047 -226.414981 -357.918032 0 120 255
188.241057 -226.183551 -358.199793 0 120 255
190.688068 -225.952122 -358.481554 0 120 255
193.135078 -225.720692 -358.763315 0 120 255
195.582088 -225.489263 -359.045076 0 120 255
198.029099 -225.257837 -359.326830 0 120 255
200.476111 -225.026411 -359.608583 0 120 255
202.923122 -224.794986 -359.890337 0 120 255
205.370133 -224.563560 -360.172091 0 120 255
