ply
format ascii 1.0
element vertex 385
property float x
property float y
property float z
property uchar red
property uchar green
property uchar blue
end_header
77.430455 -42.474882 -360.397637 0 120 255
77.187552 -42.528711 -357.935924 0 120 255
76.944648 -42.582541 -355.474211 0 120 255
76.701744 -42.636371 -353.012498 0 120 255
76.458841 -42.690200 -350.550785 0 120 255
76.214057 -42.754853 -348.089520 0 120 255
75.969192 -42.819976 -345.628274 0 120 255
75.724326 -42.885098 -343.167028 0 120 255
75.479461 -42.950221 -340.705782 0 120 255
75.074031 -43.363637 -338.303090 0 120 255
74.653971 -43.808790 -335.905734 0 120 255
74.233910 -44.253943 -333.508377 0 120 255
73.813850 -44.699096 -331.111021 0 120 255
73.276838 -45.380960 -328.796443 0 120 255
72.722501 -46.097889 -326.494128 0 120 255
72.168165 -46.814819 -324.191814 0 120 255
71.613828 -47.531748 -321.889499 0 120 255
70.986056 -48.411984 -319.665773 0 120 255
70.342799 -49.326655 -317.458620 0 120 255
69.699542 -50.241326 -315.251466 0 120 255
69.056285 -51.155998 -313.044312 0 120 255
68.380006 -52.188152 -310.900969 0 120 255
67.694473 -53.253233 -308.775510 0 120 255
67.008939 -54.318314 -306.650051 0 120 255
66.323406 -55.383396 -304.524592 0 120 255
65.639037 -56.541722 -302.449056 0 120 255
64.955084 -57.733400 -300.391377 0 120 255
64.271132 -58.925078 -298.333698 0 120 255
63.587180 -60.116756 -296.276019 0 120 255
62.930601 -61.391417 -294.260608 0 120 255
62.286196 -62.702983 -292.263994 0 120 255
61.641790 -64.014550 -290.267380 0 120 255
60.997385 -65.326116 -288.270767 0 120 255
60.398094 -66.717507 -286.315954 0 120 255
59.823324 -68.152288 -284.383863 0 120 255
59.248555 -69.587068 -282.451772 0 120 255
58.673786 -71.021848 -280.519681 0 120 255
58.153984 -72.535296 -278.634551 0 120 255
57.670292 -74.100420 -276.780270 0 120 255
57.186600 -75.665545 -274.925989 0 120 255
56.702908 -77.230669 -273.071708 0 120 255
56.277533 -78.872156 -271.272589 0 120 255
55.898131 -80.573840 -269.516953 0 120 255
55.518728 -82.275525 -267.761318 0 120 255
55.139326 -83.977209 -266.005683 0 120 255
54.816849 -85.750361 -264.313890 0 120 255
54.548016 -87.590861 -262.682260 0 120 255
54.279183 -89.431361 -261.050629 0 120 255
54.010350 -91.271861 -259.418998 0 120 255
53.794154 -93.176114 -257.858341 0 120 255
53.637190 -95.152110 -256.377553 0 120 255
53.480226 -97.128105 -254.896764 0 120 255
53.323263 -99.104101 -253.415975 0 120 255
53.213339 -101.133873 -252.010498 0 120 255
53.166733 -103.236031 -250.706393 0 120 255
53.120128 -105.338189 -249.402288 0 120 255
53.073522 -107.440347 -248.098184 0 120 255
53.068245 -109.584928 -246.870340 0 120 255
53.129808 -111.798115 -245.765831 0 120 255
53.191370 -114.011303 -244.661322 0 120 255
53.252933 -116.224491 -243.556813 0 120 255
53.350713 -118.468348 -242.526080 0 120 255
53.519413 -120.772257 -241.639813 0 120 255
53.688113 -123.076167 -240.753545 0 120 255
53.856812 -125.380077 -239.867277 0 120 255
54.057493 -127.703405 -239.049169 0 120 255
54.334891 -130.073317 -238.394569 0 120 255
54.612289 -132.443228 -237.739969 0 120 255
54.889687 -134.813139 -237.085368 0 120 255
55.195588 -137.192484 -236.490694 0 120 255
55.586726 -139.600041 -236.075230 0 120 255
55.977864 -142.007598 -235.659765 0 120 255
56.369001 -144.415155 -235.244300 0 120 255
56.785555 -146.824038 -234.878574 0 120 255
57.299339 -149.237992 -234.703126 0 120 255
57.813123 -151.651946 -234.527678 0 120 255
58.326908 -154.065900 -234.352230 0 120 255
58.862883 -156.475416 -234.215121 0 120 255
59.511862 -158.862335 -234.273234 0 120 255
60.160841 -161.249253 -234.331348 0 120 255
60.809819 -163.636172 -234.389462 0 120 255
61.477079 -166.015578 -234.474165 0 120 255
62.276673 -168.340607 -234.751337 0 120 255
63.076266 -170.665635 -235.028508 0 120 255
63.875859 -172.990663 -235.305680 0 120 255
64.688676 -175.308015 -235.598300 0 120 255
65.655816 -177.535778 -236.071208 0 120 255
66.622957 -179.763541 -236.544117 0 120 255
67.590097 -181.991304 -237.017026 0 120 255
68.564014 -184.214207 -237.495934 0 120 255
69.715317 -186.309916 -238.131890 0 120 255
70.866620 -188.405624 -238.767845 0 120 255
72.017922 -190.501332 -239.403801 0 120 255
73.169225 -192.597040 -240.039756 0 120 255
74.517644 -194.528757 -240.795909 0 120 255
75.867054 -196.459648 -241.552666 0 120 255
77.216464 -198.390540 -242.309423 0 120 255
78.565873 -200.321431 -243.066180 0 120 255
80.112554 -202.067469 -243.889153 0 120 255
81.668856 -203.804491 -244.715354 0 120 255
83.225158 -205.541513 -245.541556 0 120 255
84.781460 -207.278535 -246.367758 0 120 255
86.527419 -208.817403 -247.203341 0 120 255
88.291617 -210.337215 -248.039826 0 120 255
90.055815 -211.857027 -248.876312 0 120 255
91.820013 -213.376839 -249.712797 0 120 255
93.757547 -214.693778 -250.501919 0 120 255
95.720688 -215.980747 -251.284043 0 120 255
97.683829 -217.267716 -252.066168 0 120 255
99.646970 -218.554685 -252.848293 0 120 255
101.758341 -219.643256 -253.529816 0 120 255
103.899965 -220.691335 -254.190806 0 120 255
106.041589 -221.739413 -254.851796 0 120 255
108.183213 -222.787492 -255.512786 0 120 255
110.440220 -223.650687 -256.026954 0 120 255
112.727927 -224.464693 -256.502059 0 120 255
115.015633 -225.278698 -256.977164 0 120 255
117.303340 -226.092703 -257.452269 0 120 255
119.667857 -226.743480 -257.744493 0 120 255
122.058079 -227.339634 -257.975519 0 120 255
124.448300 -227.935789 -258.206544 0 120 255
126.838521 -228.531943 -258.437570 0 120 255
129.264075 -228.992872 -258.462064 0 120 255
131.704152 -229.398220 -258.401666 0 120 255
134.144229 -229.803568 -258.341269 0 120 255
136.584306 -230.208917 -258.280872 0 120 255
139.018495 -230.511018 -258.003817 0 120 255
141.449757 -230.761825 -257.619126 0 120 255
143.881020 -231.012633 -257.234434 0 120 255
146.312283 -231.263440 -256.849743 0 120 255
148.699733 -231.444596 -256.251365 0 120 255
151.061163 -231.584387 -255.526081 0 120 255
153.422593 -231.724178 -254.800797 0 120 255
155.784023 -231.863969 -254.075513 0 120 255
158.069735 -231.966476 -253.151367 0 120 255
160.302072 -232.042701 -252.087040 0 120 255
162.534410 -232.118927 -251.022714 0 120 255
164.766747 -232.195152 -249.958388 0 120 255
166.898339 -232.253623 -248.717383 0 120 255
168.945973 -232.297297 -247.329140 0 120 255
170.993607 -232.340971 -245.940898 0 120 255
173.041241 -232.384646 -244.552655 0 120 255
174.968835 -232.417141 -243.013625 0 120 255
176.778412 -232.438647 -241.326350 0 120 255
178.587990 -232.460153 -239.639075 0 120 255
180.397568 -232.481659 -237.951800 0 120 255
182.074893 -232.496495 -236.143235 0 120 255
183.598903 -232.503598 -234.194063 0 120 255
185.122914 -232.510701 -232.244890 0 120 255
186.646924 -232.517804 -230.295718 0 120 255
188.034270 -232.522004 -228.256025 0 120 255
189.234341 -232.522227 -226.092287 0 120 255
190.434412 -232.522449 -223.928550 0 120 255
191.634484 -232.522671 -221.764812 0 120 255
192.700681 -232.522072 -219.539974 0 120 255
193.548969 -232.520133 -217.215682 0 120 255
194.397257 -232.518195 -214.891390 0 120 255
195.245545 -232.516257 -212.567098 0 120 255
195.968892 -232.514331 -210.207882 0 120 255
196.448755 -232.512429 -207.780608 0 120 255
196.928618 -232.510527 -205.353335 0 120 255
197.408481 -232.508625 -202.926061 0 120 255
197.777055 -232.506745 -200.485481 0 120 255
197.882948 -232.504915 -198.013495 0 120 255
197.988841 -232.503085 -195.541510 0 120 255
198.094734 -232.501255 -193.069524 0 120 255
198.106118 -232.499051 -190.600555 0 120 255
197.842787 -232.495761 -188.140357 0 120 255
197.579457 -232.492470 -185.680158 0 120 255
197.316126 -232.489179 -183.219960 0 120 255
196.976646 -232.485037 -180.773596 0 120 255
196.357894 -232.477771 -178.377970 0 120 255
195.739142 -232.470505 -175.982344 0 120 255
195.120389 -232.463238 -173.586718 0 120 255
194.444023 -232.454777 -171.210449 0 120 255
193.491181 -232.440583 -168.927070 0 120 255
192.538340 -232.426389 -166.643690 0 120 255
191.585498 -232.412194 -164.360311 0 120 255
190.592588 -232.396726 -162.097032 0 120 255
189.332931 -232.372775 -159.967567 0 120 255
188.073274 -232.348823 -157.838102 0 120 255
186.813617 -232.324872 -155.708637 0 120 255
185.529557 -232.299855 -153.595944 0 120 255
183.994683 -232.263877 -151.655636 0 120 255
182.459808 -232.227898 -149.715327 0 120 255
180.924934 -232.191920 -147.775019 0 120 255
179.378822 -232.155319 -145.844882 0 120 255
177.603222 -232.106003 -144.122459 0 120 255
175.827621 -232.056687 -142.400035 0 120 255
174.052021 -232.007371 -140.677612 0 120 255
172.275468 -231.957992 -138.956307 0 120 255
170.295206 -231.895216 -137.474230 0 120 255
168.314944 -231.832440 -135.992154 0 120 255
166.334682 -231.769664 -134.510077 0 120 255
164.354420 -231.706887 -133.028000 0 120 255
162.212377 -231.632363 -131.793241 0 120 255
160.064045 -231.557381 -130.568098 0 120 255
157.915713 -231.482400 -129.342954 0 120 255
155.767380 -231.407418 -128.117810 0 120 255
153.497705 -231.323822 -127.139561 0 120 255
151.217545 -231.239481 -126.182646 0 120 255
148.937385 -231.155140 -125.225732 0 120 255
146.657224 -231.070799 -124.268817 0 120 255
144.292251 -230.982252 -123.553331 0 120 255
141.915530 -230.893122 -122.871287 0 120 255
139.538809 -230.803992 -122.189244 0 120 255
137.162088 -230.714862 -121.507201 0 120 255
134.733089 -230.624534 -121.057013 0 120 255
132.293850 -230.533971 -120.652237 0 120 255
129.854611 -230.443409 -120.247461 0 120 255
127.415373 -230.352846 -119.842685 0 120 255
124.952315 -230.262375 -119.656926 0 120 255
122.483081 -230.171928 -119.527950 0 120 255
120.013847 -230.081481 -119.398974 0 120 255
117.544614 -229.991033 -119.269999 0 120 255
115.075888 -229.901389 -119.344805 0 120 255
112.607330 -229.812010 -119.486800 0 120 255
110.138772 -229.722630 -119.628796 0 120 255
107.670214 -229.633250 -119.770791 0 120 255
105.222463 -229.545324 -120.099808 0 120 255
102.783213 -229.457990 -120.505223 0 120 255
100.343963 -229.370656 -120.910637 0 120 255
97.904712 -229.283323 -121.316052 0 120 255
95.502753 -229.197972 -121.890764 0 120 255
93.119333 -229.113607 -122.549645 0 120 255
90.735913 -229.029241 -123.208525 0 120 255
88.352494 -228.944876 -123.867406 0 120 255
86.019305 -228.862879 -124.677504 0 120 255
83.716138 -228.782298 -125.577981 0 120 255
81.412971 -228.701718 -126.478458 0 120 255
79.109804 -228.621137 -127.378935 0 120 255
76.866559 -228.543238 -128.412621 0 120 255
74.666014 -228.467251 -129.541229 0 120 255
72.465468 -228.391264 -130.669837 0 120 255
70.264923 -228.315277 -131.798445 0 120 255
68.131040 -228.242143 -133.042659 0 120 255
66.053496 -228.171419 -134.384576 0 120 255
63.975953 -228.100695 -135.726494 0 120 255
61.898410 -228.029971 -137.068411 0 120 255
59.891621 -227.962191 -138.509029 0 120 255
57.955575 -227.897356 -140.048332 0 120 255
56.019529 -227.832521 -141.587634 0 120 255
54.083483 -227.767686 -143.126937 0 120 255
52.219888 -227.705801 -144.748915 0 120 255
50.441979 -227.647406 -146.468671 0 120 255
48.664070 -227.589010 -148.188427 0 120 255
46.886161 -227.530615 -149.908183 0 120 255
45.180239 -227.475091 -151.695632 0 120 255
43.575250 -227.423593 -153.577995 0 120 255
41.970262 -227.372095 -155.460358 0 120 255
40.365274 -227.320597 -157.342722 0 120 255
38.829872 -227.271836 -159.278991 0 120 255
37.410703 -227.227648 -161.305302 0 120 255
35.991534 -227.183459 -163.331613 0 120 255
34.572365 -227.139270 -165.357925 0 120 255
33.218668 -227.097623 -167.425687 0 120 255
31.996286 -227.061075 -169.576589 0 120 255
30.773904 -227.024527 -171.727490 0 120 255
29.551521 -226.987979 -173.878391 0 120 255
28.389012 -226.953721 -176.059749 0 120 255
27.372411 -226.925045 -178.315326 0 120 255
26.355810 -226.896370 -180.570904 0 120 255
25.339208 -226.867694 -182.826481 0 120 255
24.375621 -226.841030 -185.103082 0 120 255
23.571724 -226.820425 -187.443008 0 120 255
22.767826 -226.799820 -189.782934 0 120 255
21.963928 -226.779216 -192.122860 0 120 255
21.205181 -226.760306 -194.476031 0 120 255
20.618823 -226.747865 -196.879770 0 120 255
20.032464 -226.735424 -199.283508 0 120 255
19.446106 -226.722983 -201.687247 0 120 255
18.896300 -226.711901 -204.098167 0 120 255
18.530289 -226.707650 -206.545195 0 120 255
18.164279 -226.703399 -208.992224 0 120 255
17.798268 -226.699148 -211.439252 0 120 255
17.459744 -226.695908 -213.889136 0 120 255
17.314953 -226.699788 -216.359147 0 120 255
17.170161 -226.703669 -218.829157 0 120 255
17.025370 -226.707550 -221.299167 0 120 255
16.898776 -226.712093 -223.769431 0 120 255
16.974176 -226.723994 -226.242507 0 120 255
17.049577 -226.735895 -228.715583 0 120 255
17.124977 -226.747795 -231.188658 0 120 255
17.209303 -226.760018 -233.661065 0 120 255
17.502051 -226.779764 -236.117860 0 120 255
17.794800 -226.799509 -238.574654 0 120 255
18.087548 -226.819255 -241.031449 0 120 255
18.380296 -226.839000 -243.488243 0 120 255
18.885856 -226.866371 -245.910137 0 120 255
19.391522 -226.893745 -248.332013 0 120 255
19.897188 -226.921119 -250.753888 0 120 255
20.402855 -226.948493 -253.175764 0 120 255
21.106826 -226.982899 -255.547121 0 120 255
21.819499 -227.017613 -257.916260 0 120 255
22.532172 -227.052327 -260.285400 0 120 255
23.244845 -227.087041 -262.654540 0 120 255
24.140338 -227.128173 -264.959948 0 120 255
25.052499 -227.169891 -267.259547 0 120 255
25.964661 -227.211609 -269.559145 0 120 255
26.876822 -227.253326 -271.858743 0 120 255
27.955742 -227.300834 -274.083789 0 120 255
29.058500 -227.349169 -276.298178 0 120 255
30.161259 -227.397504 -278.512567 0 120 255
31.264018 -227.445840 -280.726956 0 120 255
32.517085 -227.499325 -282.858386 0 120 255
33.800195 -227.553841 -284.973236 0 120 255
35.083304 -227.608356 -287.088085 0 120 255
36.366414 -227.662871 -289.202935 0 120 255
37.783205 -227.721936 -291.228858 0 120 255
39.235124 -227.782197 -293.231414 0 120 255
40.687043 -227.842457 -295.233970 0 120 255
42.138961 -227.902718 -297.236526 0 120 255
43.708084 -227.966906 -299.146563 0 120 255
45.316193 -228.032400 -301.025826 0 120 255
46.924301 -228.097894 -302.905088 0 120 255
48.532410 -228.163388 -304.784351 0 120 255
50.241638 -228.232213 -306.569825 0 120 255
51.992399 -228.302407 -308.316776 0 120 255
53.743160 -228.372600 -310.063727 0 120 255
55.493921 -228.442794 -311.810679 0 120 255
57.330407 -228.515791 -313.464750 0 120 255
59.209632 -228.590186 -315.072516 0 120 255
61.088857 -228.664580 -316.680281 0 120 255
62.968082 -228.738975 -318.288046 0 120 255
64.918683 -228.815788 -319.805702 0 120 255
66.911976 -228.894048 -321.269460 0 120 255
68.905269 -228.972308 -322.733219 0 120 255
70.898562 -229.050568 -324.196977 0 120 255
72.950100 -229.130956 -325.575024 0 120 255
75.043104 -229.212857 -326.892050 0 120 255
77.136108 -229.294759 -328.209076 0 120 255
79.229112 -229.376661 -329.526101 0 120 255
81.368397 -229.459398 -330.763600 0 120 255
83.546710 -229.542838 -331.934036 0 120 255
85.725023 -229.626279 -333.104472 0 120 255
87.903336 -229.709719 -334.274908 0 120 255
90.116950 -229.788751 -335.374614 0 120 255
92.365744 -229.863388 -336.403829 0 120 255
94.614538 -229.938026 -337.433044 0 120 255
96.863333 -230.012664 -338.462259 0 120 255
99.138184 -230.077658 -339.430488 0 120 255
101.443729 -230.131292 -340.326880 0 120 255
103.749273 -230.184925 -341.223272 0 120 255
106.054818 -230.238559 -342.119664 0 120 255
108.378969 -230.279144 -342.964774 0 120 255
110.729089 -230.301518 -343.738316 0 120 255
113.079209 -230.323891 -344.511858 0 120 255
115.429329 -230.346264 -345.285400 0 120 255
117.792209 -230.354143 -346.016911 0 120 255
120.176295 -230.337934 -346.678578 0 120 255
122.560380 -230.321726 -347.340245 0 120 255
124.944466 -230.305517 -348.001912 0 120 255
127.336856 -230.274874 -348.630146 0 120 255
129.745813 -230.215439 -349.191686 0 120 255
132.154769 -230.156003 -349.753227 0 120 255
134.563725 -230.096568 -350.314767 0 120 255
136.977729 -230.023963 -350.850645 0 120 255
139.403966 -229.919444 -351.324335 0 120 255
141.830203 -229.814924 -351.798025 0 120 255
144.256439 -229.710405 -352.271715 0 120 255
146.685481 -229.594833 -352.726549 0 120 255
149.122926 -229.446150 -353.124903 0 120 255
151.560371 -229.297468 -353.523257 0 120 255
153.997816 -229.148785 -353.921611 0 120 255
156.436641 -228.991655 -354.306896 0 120 255
158.880709 -228.802446 -354.642553 0 120 255
161.324776 -228.613237 -354.978210 0 120 255
163.768843 -228.424028 -355.313867 0 120 255
166.213476 -228.229387 -355.641500 0 120 255
168.660940 -228.007568 -355.928985 0 120 255
171.108404 -227.785749 -356.216469 0 120 255
173.555868 -227.563930 -356.503954 0 120 255
176.003304 -227.340911 -356.790726 0 120 255
178.450541 -227.109471 -357.072501 0 120 255
180.897778 -226.878031 -357.354275 0 120 255
183.345015 -226.646591 -357.636050 0 120 255
185.792252 -226.415151 -357.917825 0 120 255
188.239486 -226.183700 -358.199612 0 120 255
190.686721 -225.952249 -358.481399 0 120 255
193.133955 -225.720798 -358.763186 0 120 255
195.581190 -225.489347 -359.044973 0 120 255
198.028426 -225.257901 -359.326752 0 120 255
200.475662 -225.026454 -359.608532 0 120 255
202.922897 -224.795007 -359.890311 0 120 255
205.370133 -224.563560 -360.172091 0 120 255
