ply
format ascii 1.0
element vertex 385
property float x
property float y
property float z
property uchar red
property uchar green
property uchar blue
end_header
77.430455 -42.474882 -360.397637 0 120 255
77.187542 -42.528714 -357.935830 0 120 255
76.944630 -42.582545 -355.474023 0 120 255
76.701717 -42.636377 -353.012217 0 120 255
76.458804 -42.690209 -350.550410 0 120 255
76.218118 -42.756436 -348.088688 0 120 255
75.977529 -42.823200 -345.626970 0 120 255
75.736940 -42.889964 -343.165252 0 120 255
75.496351 -42.956728 -340.703534 0 120 255
75.231741 -43.096859 -338.247483 0 120 255
74.964923 -43.243734 -335.791952 0 120 255
74.698105 -43.390609 -333.336421 0 120 255
74.431287 -43.537483 -330.880890 0 120 255
74.136683 -43.735796 -328.432265 0 120 255
73.837971 -43.941714 -325.984661 0 120 255
73.539259 -44.147632 -323.537057 0 120 255
73.240547 -44.353549 -321.089453 0 120 255
72.912316 -44.602662 -318.649777 0 120 255
72.577890 -44.860838 -316.211766 0 120 255
72.243464 -45.119014 -313.773754 0 120 255
71.909038 -45.377190 -311.335743 0 120 255
71.543455 -45.671605 -308.906461 0 120 255
71.169184 -45.976125 -306.479615 0 120 255
70.794914 -46.280645 -304.052768 0 120 255
70.420644 -46.585165 -301.625921 0 120 255
70.013771 -46.920120 -299.208501 0 120 255
69.595291 -47.265911 -296.794439 0 120 255
69.176811 -47.611702 -294.380376 0 120 255
68.758331 -47.957493 -291.966313 0 120 255
68.306082 -48.328923 -289.562345 0 120 255
67.838869 -48.711716 -287.162849 0 120 255
67.371656 -49.094508 -284.763354 0 120 255
66.904443 -49.477301 -282.363858 0 120 255
66.402644 -49.881805 -279.975134 0 120 255
65.882097 -50.298080 -277.592249 0 120 255
65.361550 -50.714355 -275.209364 0 120 255
64.841002 -51.130630 -272.826478 0 120 255
64.285461 -51.565427 -270.455064 0 120 255
63.706981 -52.012365 -268.091168 0 120 255
63.128502 -52.459303 -265.727272 0 120 255
62.550022 -52.906241 -263.363376 0 120 255
61.936573 -53.369121 -261.011666 0 120 255
61.295615 -53.844541 -258.669542 0 120 255
60.654658 -54.319962 -256.327418 0 120 255
60.013701 -54.795382 -253.985293 0 120 255
59.338278 -55.284656 -251.656054 0 120 255
58.630456 -55.786951 -249.338925 0 120 255
57.922634 -56.289246 -247.021797 0 120 255
57.214812 -56.791541 -244.704668 0 120 255
56.473500 -57.305998 -242.401072 0 120 255
55.694613 -57.834098 -240.112657 0 120 255
54.915727 -58.362199 -237.824243 0 120 255
54.136840 -58.890299 -235.535828 0 120 255
53.325921 -59.429160 -233.261485 0 120 255
52.472043 -59.982453 -231.006012 0 120 255
51.618165 -60.535746 -228.750540 0 120 255
50.764287 -61.089038 -226.495067 0 120 255
49.880296 -61.651909 -224.254043 0 120 255
48.947821 -62.230202 -222.036282 0 120 255
48.015345 -62.808495 -219.818521 0 120 255
47.082869 -63.386788 -217.600761 0 120 255
46.122647 -63.973614 -215.397593 0 120 255
45.108368 -64.577066 -213.222856 0 120 255
44.094089 -65.180517 -211.048119 0 120 255
43.079810 -65.783969 -208.873382 0 120 255
42.040558 -66.394987 -206.713085 0 120 255
40.941723 -67.024058 -204.587237 0 120 255
39.842889 -67.653129 -202.461389 0 120 255
38.744055 -68.282200 -200.335541 0 120 255
37.623383 -68.917894 -198.223609 0 120 255
36.437766 -69.573285 -196.153060 0 120 255
35.252149 -70.228675 -194.082511 0 120 255
34.066532 -70.884066 -192.011962 0 120 255
32.862519 -71.545120 -189.954365 0 120 255
31.588475 -72.227732 -187.946070 0 120 255
30.314431 -72.910344 -185.937775 0 120 255
29.040387 -73.592956 -183.929480 0 120 255
27.751629 -74.280218 -181.932659 0 120 255
26.388168 -74.991086 -179.994094 0 120 255
25.024707 -75.701955 -178.055528 0 120 255
23.661246 -76.412824 -176.116963 0 120 255
22.286913 -77.127253 -174.187817 0 120 255
20.833772 -77.867493 -172.326950 0 120 255
19.380632 -78.607732 -170.466084 0 120 255
17.927491 -79.347972 -168.605218 0 120 255
16.467394 -80.090592 -166.751072 0 120 255
14.925108 -80.861347 -164.976336 0 120 255
13.382822 -81.632102 -163.201600 0 120 255
11.840536 -82.402857 -161.426865 0 120 255
10.295181 -83.174718 -159.655452 0 120 255
8.665147 -83.977100 -157.975698 0 120 255
7.035114 -84.779483 -156.295945 0 120 255
5.405081 -85.581865 -154.616192 0 120 255
3.775048 -86.384247 -152.936438 0 120 255
2.060293 -87.219021 -151.360046 0 120 255
0.344863 -88.054053 -149.784477 0 120 255
-1.370567 -88.889085 -148.208908 0 120 255
-3.085996 -89.724117 -146.633338 0 120 255
-4.879312 -90.590986 -145.165702 0 120 255
-6.676780 -91.459551 -143.703819 0 120 255
-8.474247 -92.328116 -142.241936 0 120 255
-10.271715 -93.196681 -140.780054 0 120 255
-12.139540 -94.096269 -139.430063 0 120 255
-14.014590 -94.999043 -138.091563 0 120 255
-15.889639 -95.901818 -136.753062 0 120 255
-17.764689 -96.804592 -135.414562 0 120 255
-19.701962 -97.737287 -134.191196 0 120 255
-21.648985 -98.674670 -132.985868 0 120 255
-23.596007 -99.612052 -131.780540 0 120 255
-25.543029 -100.549435 -130.575213 0 120 255
-27.543627 -101.515346 -129.487445 0 120 255
-29.555794 -102.487416 -128.425061 0 120 255
-31.567961 -103.459486 -127.362677 0 120 255
-33.580128 -104.431557 -126.300293 0 120 255
-35.636823 -105.430463 -125.356978 0 120 255
-37.706040 -106.436916 -124.447149 0 120 255
-39.775256 -107.443369 -123.537319 0 120 255
-41.844473 -108.449822 -122.627489 0 120 255
-43.948892 -109.481122 -121.837217 0 120 255
-46.065755 -110.521208 -121.089214 0 120 255
-48.182618 -111.561293 -120.341210 0 120 255
-50.299481 -112.601378 -119.593206 0 120 255
-52.442095 -113.664043 -118.964167 0 120 255
-54.595887 -114.736509 -118.386762 0 120 255
-56.749678 -115.808975 -117.809358 0 120 255
-58.903470 -116.881440 -117.231954 0 120 255
-61.073595 -117.973974 -116.771769 0 120 255
-63.252282 -119.077027 -116.373031 0 120 255
-65.430969 -120.180081 -115.974292 0 120 255
-67.609656 -121.283134 -115.575554 0 120 255
-69.795470 -122.403540 -115.291105 0 120 255
-71.985744 -123.534805 -115.078185 0 120 255
-74.176018 -124.666070 -114.865265 0 120 255
-76.366291 -125.797336 -114.652345 0 120 255
-78.554885 -126.943085 -114.549581 0 120 255
-80.742232 -128.099572 -114.528485 0 120 255
-82.929580 -129.256059 -114.507389 0 120 255
-85.116927 -130.412547 -114.486292 0 120 255
-87.294383 -131.580562 -114.570050 0 120 255
-89.463196 -132.758649 -114.745424 0 120 255
-91.632009 -133.936736 -114.920798 0 120 255
-93.800822 -135.114824 -115.096173 0 120 255
-95.952321 -136.301477 -115.369977 0 120 255
-98.086039 -137.496927 -115.744870 0 120 255
-100.219756 -138.692377 -116.119764 0 120 255
-102.353474 -139.887827 -116.494657 0 120 255
-104.463441 -141.088947 -116.960531 0 120 255
-106.544750 -142.296910 -117.536183 0 120 255
-108.626059 -143.504872 -118.111834 0 120 255
-110.707368 -144.712835 -118.687486 0 120 255
-112.759653 -145.923727 -119.345785 0 120 255
-114.770724 -147.138779 -120.121439 0 120 255
-116.781795 -148.353830 -120.897093 0 120 255
-118.792866 -149.568882 -121.672747 0 120 255
-120.770953 -150.784372 -122.522005 0 120 255
-122.693705 -152.000595 -123.494744 0 120 255
-124.616457 -153.216819 -124.467482 0 120 255
-126.539209 -154.433043 -125.440221 0 120 255
-128.426466 -155.647538 -126.477020 0 120 255
-130.242896 -156.858586 -127.641640 0 120 255
-132.059326 -158.069634 -128.806260 0 120 255
-133.875757 -159.280682 -129.970880 0 120 255
-135.655707 -160.488239 -131.189772 0 120 255
-137.348212 -161.687431 -132.538757 0 120 255
-139.040718 -162.886623 -133.887743 0 120 255
-140.733223 -164.085814 -135.236728 0 120 255
-142.389831 -165.280234 -136.630209 0 120 255
-143.941567 -166.460714 -138.153686 0 120 255
-145.493303 -167.641194 -139.677162 0 120 255
-147.045039 -168.821674 -141.200638 0 120 255
-148.563015 -169.996624 -142.759137 0 120 255
-149.958255 -171.151473 -144.444969 0 120 255
-151.353495 -172.306321 -146.130800 0 120 255
-152.748735 -173.461170 -147.816631 0 120 255
-154.113837 -174.610291 -149.528599 0 120 255
-155.338307 -175.732685 -151.362530 0 120 255
-156.562777 -176.855078 -153.196461 0 120 255
-157.787246 -177.977472 -155.030392 0 120 255
-158.986559 -179.094509 -156.882433 0 120 255
-160.027767 -180.177880 -158.848289 0 120 255
-161.068974 -181.261251 -160.814145 0 120 255
-162.110182 -182.344622 -162.780001 0 120 255
-163.132398 -183.423563 -164.757046 0 120 255
-163.979896 -184.461750 -166.837024 0 120 255
-164.827395 -185.499938 -168.917002 0 120 255
-165.674893 -186.538125 -170.996980 0 120 255
-166.510525 -187.573328 -173.082543 0 120 255
-167.156124 -188.560734 -175.257544 0 120 255
-167.801722 -189.548140 -177.432545 0 120 255
-168.447321 -190.535546 -179.607546 0 120 255
-169.088883 -191.521870 -181.784004 0 120 255
-169.526830 -192.453584 -184.034006 0 120 255
-169.964776 -193.385297 -186.284008 0 120 255
-170.402723 -194.317011 -188.534010 0 120 255
-170.840669 -195.248725 -190.784012 0 120 255
-171.071917 -196.121844 -193.087397 0 120 255
-171.298945 -196.993767 -195.391872 0 120 255
-171.525973 -197.865690 -197.696347 0 120 255
-171.753001 -198.737613 -200.000822 0 120 255
-171.780942 -199.550309 -202.337131 0 120 255
-171.796271 -200.359254 -204.675458 0 120 255
-171.811600 -201.168199 -207.013784 0 120 255
-171.826929 -201.977143 -209.352110 0 120 255
-171.653057 -202.727345 -211.702646 0 120 255
-171.458327 -203.471070 -214.054528 0 120 255
-171.263597 -204.214795 -216.406410 0 120 255
-171.068867 -204.958520 -218.758293 0 120 255
-170.696692 -205.645050 -221.104978 0 120 255
-170.295823 -206.322331 -223.450824 0 120 255
-169.894954 -206.999612 -225.796669 0 120 255
-169.494085 -207.676892 -228.142515 0 120 255
-168.928931 -208.299457 -230.468191 0 120 255
-168.327887 -208.910067 -232.789462 0 120 255
-167.726842 -209.520678 -235.110732 0 120 255
-167.125797 -210.131289 -237.432003 0 120 255
-166.374617 -210.690466 -239.720683 0 120 255
-165.581191 -211.235172 -242.000194 0 120 255
-164.787765 -211.779877 -244.279704 0 120 255
-163.994340 -212.324582 -246.559214 0 120 255
-163.065448 -212.821788 -248.796281 0 120 255
-162.088936 -213.302297 -251.018427 0 120 255
-161.112425 -213.782805 -253.240573 0 120 255
-160.135914 -214.263314 -255.462719 0 120 255
-159.038753 -214.700740 -257.635083 0 120 255
-157.889683 -215.119630 -259.786029 0 120 255
-156.740614 -215.538519 -261.936974 0 120 255
-155.591544 -215.957409 -264.087920 0 120 255
-154.336402 -216.337966 -266.184114 0 120 255
-153.026191 -216.698620 -268.251884 0 120 255
-151.715980 -217.059275 -270.319653 0 120 255
-150.405769 -217.419930 -272.387423 0 120 255
-149.003540 -217.747181 -274.397661 0 120 255
-147.544219 -218.053708 -276.372204 0 120 255
-146.084898 -218.360234 -278.346747 0 120 255
-144.625577 -218.666760 -280.321290 0 120 255
-143.087501 -218.944828 -282.237463 0 120 255
-141.491398 -219.201929 -284.110630 0 120 255
-139.895296 -219.459030 -285.983797 0 120 255
-138.299194 -219.716130 -287.856963 0 120 255
-136.636641 -219.949638 -289.672608 0 120 255
-134.916153 -220.162577 -291.438104 0 120 255
-133.195665 -220.375516 -293.203600 0 120 255
-131.475177 -220.588455 -294.969095 0 120 255
-129.699456 -220.782434 -296.679336 0 120 255
-127.866823 -220.956877 -298.332642 0 120 255
-126.034190 -221.131319 -299.985949 0 120 255
-124.201557 -221.305762 -301.639256 0 120 255
-122.323735 -221.465584 -303.240694 0 120 255
-120.390816 -221.607581 -304.778893 0 120 255
-118.457896 -221.749578 -306.317092 0 120 255
-116.524977 -221.891575 -307.855291 0 120 255
-114.555733 -222.022893 -309.345886 0 120 255
-112.533901 -222.138752 -310.767565 0 120 255
-110.512070 -222.254611 -312.189244 0 120 255
-108.490239 -222.370470 -313.610923 0 120 255
-106.439741 -222.479331 -314.989810 0 120 255
-104.339657 -222.576090 -316.294679 0 120 255
-102.239573 -222.672849 -317.599547 0 120 255
-100.139489 -222.769608 -318.904416 0 120 255
-98.017286 -222.863464 -320.171634 0 120 255
-95.848927 -222.951265 -321.360293 0 120 255
-93.680569 -223.039065 -322.548951 0 120 255
-91.512210 -223.126865 -323.737610 0 120 255
-89.327349 -223.214268 -324.894252 0 120 255
-87.100313 -223.300656 -325.969074 0 120 255
-84.873277 -223.387044 -327.043897 0 120 255
-82.646240 -223.473432 -328.118719 0 120 255
-80.407315 -223.559779 -329.167288 0 120 255
-78.130376 -223.645998 -330.131919 0 120 255
-75.853437 -223.732216 -331.096549 0 120 255
-73.576498 -223.818435 -332.061180 0 120 255
-71.291370 -223.904750 -333.005161 0 120 255
-68.972494 -223.991462 -333.864051 0 120 255
-66.653618 -224.078174 -334.722942 0 120 255
-64.334743 -224.164887 -335.581833 0 120 255
-62.010567 -224.251799 -336.425388 0 120 255
-59.656894 -224.339826 -337.183590 0 120 255
-57.303221 -224.427853 -337.941791 0 120 255
-54.949548 -224.515880 -338.699993 0 120 255
-52.592749 -224.604018 -339.447766 0 120 255
-50.210499 -224.693064 -340.110600 0 120 255
-47.828248 -224.782110 -340.773435 0 120 255
-45.445998 -224.871156 -341.436270 0 120 255
-43.062214 -224.960249 -342.093158 0 120 255
-40.656864 -225.049999 -342.666423 0 120 255
-38.251514 -225.139750 -343.239688 0 120 255
-35.846164 -225.229501 -343.812953 0 120 255
-33.440385 -225.319261 -344.384267 0 120 255
-31.016676 -225.409445 -344.874061 0 120 255
-28.592967 -225.499628 -345.363855 0 120 255
-26.169258 -225.589812 -345.853649 0 120 255
-23.745549 -225.679995 -346.343443 0 120 255
-21.307774 -225.770427 -346.757391 0 120 255
-18.869717 -225.860865 -347.169813 0 120 255
-16.431659 -225.951302 -347.582235 0 120 255
-13.993601 -226.041740 -347.994657 0 120 255
-11.545278 -226.132311 -348.340492 0 120 255
-9.096266 -226.222891 -348.681860 0 120 255
-6.647254 -226.313471 -349.023227 0 120 255
-4.198242 -226.404051 -349.364595 0 120 255
-1.741948 -226.494675 -349.648145 0 120 255
0.715210 -226.585305 -349.924834 0 120 255
3.172368 -226.675934 -350.201524 0 120 255
5.629526 -226.766564 -350.478214 0 120 255
8.091668 -226.857166 -350.705395 0 120 255
10.554684 -226.947763 -350.923888 0 120 255
13.017700 -227.038360 -351.142380 0 120 255
15.480716 -227.128958 -351.360873 0 120 255
17.947002 -227.219471 -351.537565 0 120 255
20.414067 -227.309965 -351.704287 0 120 255
22.881132 -227.400458 -351.871009 0 120 255
25.348198 -227.490952 -352.037731 0 120 255
27.817290 -227.581303 -352.169798 0 120 255
30.287009 -227.671611 -352.291169 0 120 255
32.756728 -227.761919 -352.412539 0 120 255
35.226446 -227.852226 -352.533909 0 120 255
37.697322 -227.942329 -352.627447 0 120 255
40.168646 -228.032352 -352.710205 0 120 255
42.639971 -228.122376 -352.792964 0 120 255
45.111295 -228.212400 -352.875722 0 120 255
47.583219 -228.302087 -352.936683 0 120 255
50.055429 -228.391614 -352.987272 0 120 255
52.527639 -228.481141 -353.037861 0 120 255
54.999849 -228.570668 -353.088450 0 120 255
57.472335 -228.659428 -353.122726 0 120 255
59.944981 -228.747747 -353.147598 0 120 255
62.417627 -228.836066 -353.172471 0 120 255
64.890273 -228.924385 -353.197343 0 120 255
67.363071 -229.010319 -353.211437 0 120 255
69.835973 -229.094603 -353.218077 0 120 255
72.308876 -229.178888 -353.224717 0 120 255
74.781779 -229.263173 -353.231357 0 120 255
77.254869 -229.341735 -353.232732 0 120 255
79.728112 -229.415581 -353.229766 0 120 255
82.201356 -229.489426 -353.226800 0 120 255
84.674600 -229.563272 -353.223833 0 120 255
87.148064 -229.628781 -353.220298 0 120 255
89.621743 -229.686130 -353.216206 0 120 255
92.095423 -229.743478 -353.212113 0 120 255
94.569102 -229.800826 -353.208020 0 120 255
97.042965 -229.848606 -353.207057 0 120 255
99.517039 -229.885264 -353.209731 0 120 255
101.991114 -229.921922 -353.212406 0 120 255
104.465189 -229.958581 -353.215080 0 120 255
106.939340 -229.984859 -353.223887 0 120 255
109.413599 -229.996786 -353.241172 0 120 255
111.887857 -230.008714 -353.258458 0 120 255
114.362116 -230.020642 -353.275743 0 120 255
116.836266 -230.021776 -353.301501 0 120 255
119.310238 -230.005082 -353.341254 0 120 255
121.784210 -229.988387 -353.381006 0 120 255
124.258182 -229.971693 -353.420759 0 120 255
126.731786 -229.944181 -353.470641 0 120 255
129.204656 -229.895154 -353.540669 0 120 255
131.677527 -229.846127 -353.610697 0 120 255
134.150397 -229.797100 -353.680724 0 120 255
136.622583 -229.737587 -353.761878 0 120 255
139.093108 -229.652664 -353.869988 0 120 255
141.563634 -229.567742 -353.978098 0 120 255
144.034160 -229.482820 -354.086208 0 120 255
146.503662 -229.388084 -354.205765 0 120 255
148.970092 -229.263886 -354.359687 0 120 255
151.436523 -229.139689 -354.513609 0 120 255
153.902953 -229.015491 -354.667532 0 120 255
156.368047 -228.882470 -354.832570 0 120 255
158.828044 -228.715790 -355.040014 0 120 255
161.288040 -228.549110 -355.247458 0 120 255
163.748036 -228.382430 -355.454902 0 120 255
166.206218 -228.207553 -355.674204 0 120 255
168.655263 -227.991394 -355.953216 0 120 255
171.104309 -227.775235 -356.232228 0 120 255
173.553354 -227.559077 -356.511240 0 120 255
176.002186 -227.341016 -356.790597 0 120 255
178.449517 -227.109568 -357.072383 0 120 255
180.896847 -226.878119 -357.354168 0 120 255
183.344177 -226.646671 -357.635953 0 120 255
185.791507 -226.415221 -357.917739 0 120 255
188.238834 -226.183761 -358.199537 0 120 255
190.686162 -225.952302 -358.481335 0 120 255
193.133490 -225.720842 -358.763133 0 120 255
195.580818 -225.489383 -359.044930 0 120 255
198.028146 -225.257927 -359.326720 0 120 255
200.475475 -225.026471 -359.608510 0 120 255
202.922804 -224.795016 -359.890301 0 120 255
205.370133 -224.563560 -360.172091 0 120 255
