ply
format ascii 1.0
element vertex 385
property float x
property float y
property float z
property uchar red
property uchar green
property uchar blue
end_header
77.430455 -42.474882 -360.397637 0 120 255
77.187567 -42.528708 -357.936083 0 120 255
76.944679 -42.582534 -355.474529 0 120 255
76.701792 -42.636360 -353.012975 0 120 255
76.458904 -42.690187 -350.551421 0 120 255
76.213675 -42.752765 -348.090306 0 120 255
75.968344 -42.815726 -345.629211 0 120 255
75.723014 -42.878687 -343.168116 0 120 255
75.477683 -42.941648 -340.707021 0 120 255
75.069406 -43.425833 -338.319372 0 120 255
74.646230 -43.948533 -335.938438 0 120 255
74.223055 -44.471232 -333.557504 0 120 255
73.799879 -44.993931 -331.176569 0 120 255
73.245165 -45.826581 -328.918006 0 120 255
72.670960 -46.705155 -326.677573 0 120 255
72.096756 -47.583729 -324.437141 0 120 255
71.522552 -48.462303 -322.196709 0 120 255
70.847397 -49.561739 -320.089492 0 120 255
70.150948 -50.707762 -318.010374 0 120 255
69.454499 -51.853785 -315.931256 0 120 255
68.758050 -52.999808 -313.852139 0 120 255
67.990841 -54.298705 -311.894254 0 120 255
67.203782 -55.640487 -309.970378 0 120 255
66.416723 -56.982270 -308.046503 0 120 255
65.629664 -58.324053 -306.122627 0 120 255
64.800563 -59.772048 -304.298118 0 120 255
63.956406 -61.258080 -302.509195 0 120 255
63.112248 -62.744113 -300.720273 0 120 255
62.268091 -64.230146 -298.931350 0 120 255
61.408311 -65.793586 -297.218987 0 120 255
60.541576 -67.391489 -295.540709 0 120 255
59.674841 -68.989391 -293.862430 0 120 255
58.808106 -70.587294 -292.184152 0 120 255
57.949140 -72.246768 -290.563799 0 120 255
57.094398 -73.939714 -288.974935 0 120 255
56.239656 -75.632661 -287.386072 0 120 255
55.384913 -77.325608 -285.797208 0 120 255
54.557659 -79.072468 -284.253997 0 120 255
53.748437 -80.854696 -282.740734 0 120 255
52.939215 -82.636924 -281.227472 0 120 255
52.129994 -84.419152 -279.714210 0 120 255
51.363895 -86.251706 -278.240681 0 120 255
50.631674 -88.123796 -276.798367 0 120 255
49.899453 -89.995886 -275.356052 0 120 255
49.167232 -91.867976 -273.913738 0 120 255
48.489518 -93.787897 -272.510384 0 120 255
47.862863 -95.752622 -271.143527 0 120 255
47.236207 -97.717347 -269.776670 0 120 255
46.609552 -99.682072 -268.409812 0 120 255
46.044671 -101.691310 -267.084436 0 120 255
45.548691 -103.750199 -265.805326 0 120 255
45.052710 -105.809087 -264.526215 0 120 255
44.556730 -107.867975 -263.247105 0 120 255
44.126036 -109.966305 -262.013337 0 120 255
43.782145 -112.117077 -260.839855 0 120 255
43.438255 -114.267849 -259.666373 0 120 255
43.094364 -116.418620 -258.492891 0 120 255
42.816035 -118.601877 -257.368284 0 120 255
42.642035 -120.836828 -256.321452 0 120 255
42.468034 -123.071779 -255.274620 0 120 255
42.294034 -125.306730 -254.227787 0 120 255
42.183209 -127.565710 -253.231712 0 120 255
42.193554 -129.870775 -252.332986 0 120 255
42.203899 -132.175840 -251.434260 0 120 255
42.214244 -134.480905 -250.535534 0 120 255
42.283282 -136.800806 -249.687022 0 120 255
42.489483 -139.155381 -248.955859 0 120 255
42.695684 -141.509956 -248.224696 0 120 255
42.901885 -143.864530 -247.493533 0 120 255
43.160674 -146.224938 -246.809303 0 120 255
43.571619 -148.602223 -246.260869 0 120 255
43.982564 -150.979508 -245.712435 0 120 255
44.393509 -153.356793 -245.164002 0 120 255
44.849708 -155.732058 -244.656631 0 120 255
45.471917 -158.099912 -244.299895 0 120 255
46.094127 -160.467767 -243.943158 0 120 255
46.716336 -162.835621 -243.586422 0 120 255
47.375550 -165.195635 -243.262818 0 120 255
48.213174 -167.517848 -243.098948 0 120 255
49.050797 -169.840062 -242.935077 0 120 255
49.888420 -172.162275 -242.771207 0 120 255
50.754170 -174.473566 -242.631321 0 120 255
51.808830 -176.711508 -242.652517 0 120 255
52.863490 -178.949450 -242.673712 0 120 255
53.918150 -181.187392 -242.694908 0 120 255
54.991713 -183.414528 -242.730786 0 120 255
56.262100 -185.529151 -242.919532 0 120 255
57.532488 -187.643774 -243.108279 0 120 255
58.802875 -189.758397 -243.297026 0 120 255
60.082938 -191.865658 -243.492202 0 120 255
61.564293 -193.819762 -243.821147 0 120 255
63.045647 -195.773866 -244.150091 0 120 255
64.527002 -197.727971 -244.479035 0 120 255
66.009227 -199.681242 -244.808425 0 120 255
67.692748 -201.441899 -245.240845 0 120 255
69.376268 -203.202555 -245.673264 0 120 255
71.059789 -204.963212 -246.105684 0 120 255
72.743309 -206.723869 -246.538104 0 120 255
74.608621 -208.272967 -247.026908 0 120 255
76.480931 -209.813920 -247.517884 0 120 255
78.353241 -211.354874 -248.008859 0 120 255
80.225551 -212.895828 -248.499834 0 120 255
82.254944 -214.218265 -248.997535 0 120 255
84.297681 -215.522141 -249.495808 0 120 255
86.340417 -216.826017 -249.994080 0 120 255
88.383153 -218.129894 -250.492353 0 120 255
90.555271 -219.219014 -250.948528 0 120 255
92.744931 -220.279019 -251.398996 0 120 255
94.934591 -221.339023 -251.849463 0 120 255
97.124250 -222.399027 -252.299931 0 120 255
99.413273 -223.258386 -252.663232 0 120 255
101.721277 -224.079417 -253.009882 0 120 255
104.029281 -224.900448 -253.356532 0 120 255
106.337285 -225.721479 -253.703182 0 120 255
108.713218 -226.365094 -253.923989 0 120 255
111.106271 -226.963993 -254.113078 0 120 255
113.499325 -227.562891 -254.302167 0 120 255
115.892378 -228.161790 -254.491257 0 120 255
118.321518 -228.613706 -254.524331 0 120 255
120.762189 -229.018653 -254.507552 0 120 255
123.202861 -229.423601 -254.490773 0 120 255
125.643532 -229.828548 -254.473994 0 120 255
128.089088 -230.121686 -254.280964 0 120 255
130.536573 -230.370697 -254.018375 0 120 255
132.984057 -230.619707 -253.755786 0 120 255
135.431542 -230.868718 -253.493197 0 120 255
137.854355 -231.044431 -253.044998 0 120 255
140.265357 -231.185052 -252.507936 0 120 255
142.676359 -231.325673 -251.970874 0 120 255
145.087361 -231.466294 -251.433812 0 120 255
147.446812 -231.570136 -250.711730 0 120 255
149.776681 -231.652873 -249.883476 0 120 255
152.106550 -231.735610 -249.055222 0 120 255
154.436419 -231.818347 -248.226969 0 120 255
156.690370 -231.891658 -247.221897 0 120 255
158.892565 -231.958544 -246.096285 0 120 255
161.094760 -232.025429 -244.970672 0 120 255
163.296955 -232.092314 -243.845060 0 120 255
165.402432 -232.151266 -242.558178 0 120 255
167.429911 -232.203822 -241.141244 0 120 255
169.457391 -232.256378 -239.724310 0 120 255
171.484871 -232.308934 -238.307375 0 120 255
173.398441 -232.354900 -236.749793 0 120 255
175.203614 -232.394594 -235.058369 0 120 255
177.008787 -232.434289 -233.366944 0 120 255
178.813959 -232.473983 -231.675520 0 120 255
180.493217 -232.509415 -229.868023 0 120 255
182.031185 -232.540063 -227.930277 0 120 255
183.569152 -232.570712 -225.992532 0 120 255
185.107120 -232.601360 -224.054787 0 120 255
186.513122 -232.629105 -222.027519 0 120 255
187.744223 -232.653001 -219.881603 0 120 255
188.975325 -232.676898 -217.735686 0 120 255
190.206427 -232.700794 -215.589770 0 120 255
191.305688 -232.722409 -213.380979 0 120 255
192.197724 -232.740438 -211.073364 0 120 255
193.089759 -232.758467 -208.765749 0 120 255
193.981795 -232.776496 -206.458134 0 120 255
194.747984 -232.792373 -204.112625 0 120 255
195.277952 -232.804213 -201.695989 0 120 255
195.807920 -232.816053 -199.279352 0 120 255
196.337888 -232.827893 -196.862715 0 120 255
196.753076 -232.837474 -194.429974 0 120 255
196.908279 -232.841938 -191.960758 0 120 255
197.063481 -232.846402 -189.491541 0 120 255
197.218684 -232.850865 -187.022324 0 120 255
197.274086 -232.852933 -184.554449 0 120 255
197.052548 -232.848351 -182.090298 0 120 255
196.831009 -232.843769 -179.626147 0 120 255
196.609471 -232.839188 -177.161996 0 120 255
196.305661 -232.832181 -174.711569 0 120 255
195.715922 -232.816750 -172.308840 0 120 255
195.126184 -232.801318 -169.906110 0 120 255
194.536446 -232.785887 -167.503380 0 120 255
193.883035 -232.768206 -165.121431 0 120 255
192.943261 -232.740414 -162.832940 0 120 255
192.003487 -232.712622 -160.544448 0 120 255
191.063713 -232.684830 -158.255957 0 120 255
190.078555 -232.655172 -155.990139 0 120 255
188.815240 -232.614080 -153.863291 0 120 255
187.551925 -232.572988 -151.736442 0 120 255
186.288610 -232.531896 -149.609593 0 120 255
184.996674 -232.489487 -147.502676 0 120 255
183.442910 -232.435024 -145.578100 0 120 255
181.889147 -232.380561 -143.653524 0 120 255
180.335383 -232.326098 -141.728948 0 120 255
178.767294 -232.270931 -139.817716 0 120 255
176.960943 -232.204046 -138.128407 0 120 255
175.154593 -232.137162 -136.439098 0 120 255
173.348242 -232.070277 -134.749790 0 120 255
171.538756 -232.003240 -133.064334 0 120 255
169.520569 -231.926024 -131.635313 0 120 255
167.502383 -231.848808 -130.206292 0 120 255
165.484196 -231.771593 -128.777271 0 120 255
163.466010 -231.694377 -127.348250 0 120 255
161.282524 -231.610557 -126.189068 0 120 255
159.094416 -231.526553 -125.037433 0 120 255
156.906307 -231.442549 -123.885797 0 120 255
154.718199 -231.358545 -122.734161 0 120 255
152.410360 -231.271052 -121.850445 0 120 255
150.093609 -231.183300 -120.986671 0 120 255
147.776859 -231.095548 -120.122897 0 120 255
145.460108 -231.007796 -119.259123 0 120 255
143.064506 -230.918285 -118.654977 0 120 255
140.659022 -230.828554 -118.083368 0 120 255
138.253539 -230.738824 -117.511758 0 120 255
135.848055 -230.649093 -116.940149 0 120 255
133.399421 -230.558729 -116.614842 0 120 255
130.942962 -230.468250 -116.334192 0 120 255
128.486503 -230.377772 -116.053542 0 120 255
126.030045 -230.287293 -115.772892 0 120 255
123.560723 -230.197168 -115.721643 0 120 255
121.088272 -230.107129 -115.726188 0 120 255
118.615821 -230.017090 -115.730732 0 120 255
116.143371 -229.927051 -115.735277 0 120 255
113.682996 -229.838231 -115.949778 0 120 255
111.226390 -229.749792 -116.229782 0 120 255
108.769783 -229.661353 -116.509787 0 120 255
106.313177 -229.572914 -116.789792 0 120 255
103.888456 -229.486340 -117.258910 0 120 255
101.476134 -229.400489 -117.801563 0 120 255
99.063812 -229.314639 -118.344216 0 120 255
96.651490 -229.228789 -118.886870 0 120 255
94.286186 -229.145251 -119.597523 0 120 255
91.943227 -229.062812 -120.388021 0 120 255
89.600268 -228.980373 -121.178519 0 120 255
87.257309 -228.897934 -121.969017 0 120 255
84.972372 -228.818158 -122.906817 0 120 255
82.720691 -228.739909 -123.929044 0 120 255
80.469010 -228.661660 -124.951272 0 120 255
78.217329 -228.583411 -125.973500 0 120 255
76.031149 -228.508022 -127.123276 0 120 255
73.889836 -228.434593 -128.360421 0 120 255
71.748523 -228.361164 -129.597565 0 120 255
69.607210 -228.287734 -130.834710 0 120 255
67.535888 -228.217256 -132.180864 0 120 255
65.521531 -228.149180 -133.615741 0 120 255
63.507174 -228.081103 -135.050617 0 120 255
61.492817 -228.013027 -136.485494 0 120 255
59.550470 -227.947916 -138.012268 0 120 255
57.677551 -227.885663 -139.627644 0 120 255
55.804633 -227.823411 -141.243020 0 120 255
53.931714 -227.761159 -142.858397 0 120 255
52.130775 -227.701816 -144.550045 0 120 255
50.411996 -227.645794 -146.328752 0 120 255
48.693218 -227.589772 -148.107460 0 120 255
46.974439 -227.533750 -149.886168 0 120 255
45.325914 -227.480519 -151.727024 0 120 255
43.772500 -227.431066 -153.652017 0 120 255
42.219087 -227.381613 -155.577011 0 120 255
40.665673 -227.332160 -157.502005 0 120 255
39.179391 -227.285334 -159.476512 0 120 255
37.801380 -227.242746 -161.530876 0 120 255
36.423369 -227.200157 -163.585240 0 120 255
35.045358 -227.157569 -165.639604 0 120 255
33.730159 -227.117411 -167.732280 0 120 255
32.536544 -227.081959 -169.899113 0 120 255
31.342928 -227.046507 -172.065945 0 120 255
30.149313 -227.011056 -174.232778 0 120 255
29.013179 -226.977806 -176.428126 0 120 255
28.012070 -226.949731 -178.690455 0 120 255
27.010961 -226.921656 -180.952784 0 120 255
26.009851 -226.893581 -183.215113 0 120 255
25.059989 -226.867446 -185.497530 0 120 255
24.258602 -226.846932 -187.838149 0 120 255
23.457215 -226.826417 -190.178769 0 120 255
22.655829 -226.805903 -192.519388 0 120 255
21.898637 -226.787050 -194.873037 0 120 255
21.303155 -226.774275 -197.274366 0 120 255
20.707674 -226.761500 -199.675694 0 120 255
20.112192 -226.748726 -202.077023 0 120 255
19.553145 -226.737304 -204.485726 0 120 255
19.168596 -226.732363 -206.929746 0 120 255
18.784047 -226.727421 -209.373767 0 120 255
18.399498 -226.722480 -211.817788 0 120 255
18.043015 -226.718573 -214.264978 0 120 255
17.872945 -226.721537 -216.733217 0 120 255
17.702875 -226.724501 -219.201457 0 120 255
17.532806 -226.727465 -221.669697 0 120 255
17.382002 -226.731133 -224.138417 0 120 255
17.428307 -226.742006 -226.612054 0 120 255
17.474612 -226.752878 -229.085690 0 120 255
17.520918 -226.763750 -231.559327 0 120 255
17.577446 -226.774991 -234.032321 0 120 255
17.840120 -226.793679 -236.492360 0 120 255
18.102794 -226.812366 -238.952399 0 120 255
18.365467 -226.831054 -241.412438 0 120 255
18.629318 -226.849783 -243.872299 0 120 255
19.106230 -226.876127 -246.299849 0 120 255
19.583143 -226.902471 -248.727400 0 120 255
20.060056 -226.928815 -251.154950 0 120 255
20.536968 -226.955159 -253.582500 0 120 255
21.216331 -226.988686 -255.960913 0 120 255
21.903310 -227.022484 -258.337477 0 120 255
22.590288 -227.056282 -260.714042 0 120 255
23.277267 -227.090080 -263.090606 0 120 255
24.152132 -227.130503 -265.403783 0 120 255
25.042890 -227.171486 -267.711598 0 120 255
25.933647 -227.212469 -270.019413 0 120 255
26.824404 -227.253452 -272.327229 0 120 255
27.887223 -227.300412 -274.559840 0 120 255
28.973440 -227.348186 -276.782223 0 120 255
30.059657 -227.395959 -279.004607 0 120 255
31.145875 -227.443732 -281.226991 0 120 255
32.387472 -227.496841 -283.364917 0 120 255
33.658985 -227.550978 -285.486583 0 120 255
34.930497 -227.605114 -287.608248 0 120 255
36.202009 -227.659251 -289.729914 0 120 255
37.611728 -227.718097 -291.760524 0 120 255
39.056690 -227.778144 -293.767916 0 120 255
40.501651 -227.838191 -295.775307 0 120 255
41.946613 -227.898238 -297.782699 0 120 255
43.512599 -227.962328 -299.695036 0 120 255
45.117844 -228.027730 -301.576538 0 120 255
46.723089 -228.093132 -303.458040 0 120 255
48.328334 -228.158534 -305.339543 0 120 255
50.037783 -228.227382 -307.124498 0 120 255
51.789115 -228.297616 -308.870649 0 120 255
53.540447 -228.367849 -310.616800 0 120 255
55.291780 -228.438083 -312.362951 0 120 255
57.131210 -228.511216 -314.013408 0 120 255
59.013736 -228.585767 -315.617052 0 120 255
60.896263 -228.660318 -317.220697 0 120 255
62.778790 -228.734870 -318.824341 0 120 255
64.734359 -228.811875 -320.335220 0 120 255
66.732889 -228.890324 -321.791538 0 120 255
68.731419 -228.968773 -323.247856 0 120 255
70.729949 -229.047222 -324.704175 0 120 255
72.787724 -229.127687 -326.072509 0 120 255
74.887042 -229.209567 -327.379144 0 120 255
76.986361 -229.291446 -328.685780 0 120 255
79.085680 -229.373325 -329.992416 0 120 255
81.231799 -229.455971 -331.217629 0 120 255
83.416843 -229.539255 -332.375120 0 120 255
85.601887 -229.622539 -333.532611 0 120 255
87.786931 -229.705822 -334.690102 0 120 255
90.007388 -229.784439 -335.775535 0 120 255
92.262696 -229.858463 -336.790053 0 120 255
94.518004 -229.932488 -337.804571 0 120 255
96.773311 -230.006512 -338.819089 0 120 255
99.054533 -230.070661 -339.771828 0 120 255
101.365927 -230.123313 -340.652638 0 120 255
103.677321 -230.175965 -341.533447 0 120 255
105.988715 -230.228616 -342.414257 0 120 255
108.318460 -230.268200 -343.243400 0 120 255
110.673540 -230.289741 -344.001208 0 120 255
113.028620 -230.311282 -344.759016 0 120 255
115.383700 -230.332823 -345.516824 0 120 255
117.751253 -230.339959 -346.232555 0 120 255
120.139327 -230.323396 -346.879061 0 120 255
122.527401 -230.306833 -347.525566 0 120 255
124.915475 -230.290270 -348.172071 0 120 255
127.311580 -230.259403 -348.785386 0 120 255
129.723559 -230.200269 -349.333112 0 120 255
132.135537 -230.141135 -349.880838 0 120 255
134.547516 -230.082000 -350.428563 0 120 255
136.964310 -230.009796 -350.951095 0 120 255
139.392674 -229.906194 -351.413105 0 120 255
141.821039 -229.802591 -351.875115 0 120 255
144.249403 -229.698989 -352.337125 0 120 255
146.680389 -229.584356 -352.780901 0 120 255
149.119163 -229.436952 -353.170508 0 120 255
151.557937 -229.289548 -353.560114 0 120 255
153.996711 -229.142144 -353.949721 0 120 255
156.436723 -228.986218 -354.326967 0 120 255
158.881398 -228.798182 -354.657640 0 120 255
161.326073 -228.610145 -354.988314 0 120 255
163.770749 -228.422109 -355.318987 0 120 255
166.215871 -228.228444 -355.642392 0 120 255
168.663211 -228.006824 -355.929705 0 120 255
171.110552 -227.785203 -356.217017 0 120 255
173.557892 -227.563583 -356.504330 0 120 255
176.005200 -227.340731 -356.790944 0 120 255
178.452279 -227.109306 -357.072701 0 120 255
180.899358 -226.877882 -357.354457 0 120 255
183.346437 -226.646457 -357.636213 0 120 255
185.793516 -226.415031 -357.917971 0 120 255
188.240592 -226.183595 -358.199740 0 120 255
190.687669 -225.952159 -358.481508 0 120 255
193.134745 -225.720723 -358.763277 0 120 255
195.581822 -225.489288 -359.045046 0 120 255
198.028900 -225.257856 -359.326807 0 120 255
200.475978 -225.026424 -359.608568 0 120 255
202.923055 -224.794992 -359.890329 0 120 255
205.370133 -224.563560 -360.172091 0 120 255
