ply
format ascii 1.0
element vertex 385
property float x
property float y
property float z
property uchar red
property uchar green
property uchar blue
end_header
77.430455 -42.474882 -360.397637 0 120 255
77.187562 -42.528709 -357.936031 0 120 255
76.944669 -42.582536 -355.474426 0 120 255
76.701776 -42.636364 -353.012821 0 120 255
76.458883 -42.690191 -350.551215 0 120 255
76.222275 -42.745939 -348.089041 0 120 255
75.985940 -42.801770 -345.626842 0 120 255
75.749605 -42.857602 -343.164643 0 120 255
75.513271 -42.913434 -340.702444 0 120 255
75.251746 -43.001335 -338.243762 0 120 255
74.987849 -43.092257 -335.785412 0 120 255
74.723952 -43.183179 -333.327061 0 120 255
74.460056 -43.274100 -330.868711 0 120 255
74.164653 -43.392893 -328.415194 0 120 255
73.864428 -43.515951 -325.962416 0 120 255
73.564204 -43.639009 -323.509639 0 120 255
73.263979 -43.762067 -321.056862 0 120 255
72.931910 -43.911234 -318.609721 0 120 255
72.592883 -44.066106 -316.163812 0 120 255
72.253855 -44.220979 -313.717903 0 120 255
71.914828 -44.375851 -311.271994 0 120 255
71.543802 -44.555224 -308.832512 0 120 255
71.163441 -44.741746 -306.394905 0 120 255
70.783079 -44.928268 -303.957297 0 120 255
70.402717 -45.114790 -301.519690 0 120 255
69.990381 -45.324342 -299.089286 0 120 255
69.566076 -45.542514 -296.661579 0 120 255
69.141772 -45.760685 -294.233872 0 120 255
68.717467 -45.978857 -291.806165 0 120 255
68.261420 -46.218695 -289.386418 0 120 255
67.790523 -46.468669 -286.970396 0 120 255
67.319626 -46.718643 -284.554374 0 120 255
66.848729 -46.968617 -282.138351 0 120 255
66.346523 -47.238983 -279.731021 0 120 255
65.826318 -47.521072 -277.328687 0 120 255
65.306113 -47.803161 -274.926353 0 120 255
64.785909 -48.085250 -272.524019 0 120 255
64.235058 -48.386516 -270.131066 0 120 255
63.662802 -48.701175 -267.744665 0 120 255
63.090547 -49.015835 -265.358265 0 120 255
62.518292 -49.330495 -262.971864 0 120 255
61.916283 -49.663159 -260.595478 0 120 255
61.289203 -50.010995 -258.227530 0 120 255
60.662124 -50.358831 -255.859582 0 120 255
60.035044 -50.706667 -253.491635 0 120 255
59.379351 -51.071349 -251.134255 0 120 255
58.694671 -51.453095 -248.787581 0 120 255
58.009991 -51.834841 -246.440907 0 120 255
57.325311 -52.216588 -244.094233 0 120 255
56.613409 -52.614015 -241.758577 0 120 255
55.868363 -53.030533 -239.436333 0 120 255
55.123318 -53.447052 -237.114090 0 120 255
54.378272 -53.863570 -234.791846 0 120 255
53.607655 -54.294579 -232.480933 0 120 255
52.799520 -54.746848 -230.186643 0 120 255
51.991385 -55.199117 -227.892353 0 120 255
51.183250 -55.651386 -225.598064 0 120 255
50.351455 -56.116908 -223.315245 0 120 255
49.477574 -56.606005 -221.052832 0 120 255
48.603693 -57.095102 -218.790420 0 120 255
47.729811 -57.584199 -216.528007 0 120 255
46.834443 -58.085249 -214.276994 0 120 255
45.892258 -58.612344 -212.050820 0 120 255
44.950073 -59.139439 -209.824645 0 120 255
44.007888 -59.666534 -207.598471 0 120 255
43.046646 -60.204201 -205.383362 0 120 255
42.033756 -60.770521 -203.198246 0 120 255
41.020867 -61.336841 -201.013131 0 120 255
40.007977 -61.903162 -198.828015 0 120 255
38.978703 -62.478583 -196.653321 0 120 255
37.892893 -63.085411 -194.514590 0 120 255
36.807082 -63.692239 -192.375859 0 120 255
35.721272 -64.299067 -190.237128 0 120 255
34.621976 -64.913423 -188.107803 0 120 255
33.461293 -65.562050 -186.021301 0 120 255
32.300609 -66.210676 -183.934798 0 120 255
31.139926 -66.859303 -181.848296 0 120 255
29.968852 -67.513779 -179.769754 0 120 255
28.731649 -68.205486 -177.741882 0 120 255
27.494446 -68.897193 -175.714010 0 120 255
26.257242 -69.588899 -173.686138 0 120 255
25.012903 -70.284674 -171.664286 0 120 255
23.697930 -71.020702 -169.702016 0 120 255
22.382958 -71.756731 -167.739745 0 120 255
21.067985 -72.492759 -165.777475 0 120 255
19.749238 -73.230973 -163.818720 0 120 255
18.355723 -74.012459 -161.929596 0 120 255
16.962209 -74.793946 -160.040472 0 120 255
15.568694 -75.575433 -158.151348 0 120 255
14.174809 -76.357138 -156.262606 0 120 255
12.702538 -77.185093 -154.454760 0 120 255
11.230267 -78.013047 -152.646915 0 120 255
9.757997 -78.841001 -150.839069 0 120 255
8.285726 -79.668956 -149.031223 0 120 255
6.738150 -80.542392 -147.309914 0 120 255
5.187575 -81.417640 -145.592051 0 120 255
3.637000 -82.292888 -143.874187 0 120 255
2.086426 -83.168136 -142.156324 0 120 255
0.465002 -84.087377 -140.529661 0 120 255
-1.162658 -85.010490 -138.911026 0 120 255
-2.790319 -85.933603 -137.292391 0 120 255
-4.417979 -86.856716 -135.673756 0 120 255
-6.111386 -87.822037 -134.150672 0 120 255
-7.814021 -88.793282 -132.640999 0 120 255
-9.516656 -89.764527 -131.131327 0 120 255
-11.219292 -90.735772 -129.621654 0 120 255
-12.981955 -91.747126 -128.211479 0 120 255
-14.756466 -92.766397 -126.820943 0 120 255
-16.530978 -93.785668 -125.430406 0 120 255
-18.305489 -94.804939 -124.039870 0 120 255
-20.133711 -95.861902 -122.752251 0 120 255
-21.975878 -96.928651 -121.491354 0 120 255
-23.818045 -97.995400 -120.230457 0 120 255
-25.660213 -99.062149 -118.969560 0 120 255
-27.549228 -100.163841 -117.814350 0 120 255
-29.453603 -101.276989 -116.693792 0 120 255
-31.357978 -102.390138 -115.573234 0 120 255
-33.262353 -103.503287 -114.452676 0 120 255
-35.206238 -104.648330 -113.439824 0 120 255
-37.166043 -105.806226 -112.470372 0 120 255
-39.125848 -106.964121 -111.500920 0 120 255
-41.085654 -108.122017 -110.531468 0 120 255
-43.077250 -109.308465 -109.670866 0 120 255
-45.084293 -110.508786 -108.863152 0 120 255
-47.091336 -111.709107 -108.055438 0 120 255
-49.098379 -112.909429 -107.247724 0 120 255
-51.129224 -114.134714 -106.549020 0 120 255
-53.173824 -115.374425 -105.913314 0 120 255
-55.218424 -116.614136 -105.277608 0 120 255
-57.263024 -117.853848 -104.641902 0 120 255
-59.323308 -119.114735 -104.114303 0 120 255
-61.394266 -120.390035 -103.660281 0 120 255
-63.465225 -121.665335 -103.206258 0 120 255
-65.536183 -122.940635 -102.752236 0 120 255
-67.614741 -124.233183 -102.404271 0 120 255
-69.699346 -125.539457 -102.140713 0 120 255
-71.783952 -126.845731 -101.877155 0 120 255
-73.868557 -128.152005 -101.613597 0 120 255
-75.952886 -129.471543 -101.452869 0 120 255
-78.036957 -130.803366 -101.387380 0 120 255
-80.121029 -132.135188 -101.321890 0 120 255
-82.205101 -133.467010 -101.256400 0 120 255
-84.281423 -134.808142 -101.289321 0 120 255
-86.349416 -136.159278 -101.428003 0 120 255
-88.417408 -137.510414 -101.566685 0 120 255
-90.485401 -138.861550 -101.705367 0 120 255
-92.538778 -140.218163 -101.936883 0 120 255
-94.573950 -141.581598 -102.284037 0 120 255
-96.609123 -142.945032 -102.631190 0 120 255
-98.644295 -144.308467 -102.978344 0 120 255
-100.658788 -145.673782 -103.411671 0 120 255
-102.643409 -147.041816 -103.969490 0 120 255
-104.628029 -148.409850 -104.527308 0 120 255
-106.612649 -149.777883 -105.085127 0 120 255
-108.571532 -151.144531 -105.721499 0 120 255
-110.487185 -152.508850 -106.489809 0 120 255
-112.402838 -153.873169 -107.258120 0 120 255
-114.318491 -155.237489 -108.026431 0 120 255
-116.204514 -156.597599 -108.864885 0 120 255
-118.032417 -157.949452 -109.840927 0 120 255
-119.860321 -159.301305 -110.816969 0 120 255
-121.688224 -160.653158 -111.793010 0 120 255
-123.483919 -161.998508 -112.830213 0 120 255
-125.205318 -163.328858 -114.008497 0 120 255
-126.926717 -164.659207 -115.186780 0 120 255
-128.648116 -165.989556 -116.365063 0 120 255
-130.336149 -167.311715 -117.595199 0 120 255
-131.932752 -168.611432 -118.967420 0 120 255
-133.529354 -169.911148 -120.339642 0 120 255
-135.125957 -171.210864 -121.711863 0 120 255
-136.689506 -172.501371 -123.126589 0 120 255
-138.143899 -173.761461 -124.681680 0 120 255
-139.598292 -175.021552 -126.236771 0 120 255
-141.052685 -176.281642 -127.791863 0 120 255
-142.475805 -177.532201 -129.380368 0 120 255
-143.771888 -178.744042 -131.104608 0 120 255
-145.067972 -179.955882 -132.828849 0 120 255
-146.364056 -181.167722 -134.553090 0 120 255
-147.632061 -182.370409 -136.302210 0 120 255
-148.755473 -183.525963 -138.179452 0 120 255
-149.878885 -184.681517 -140.056693 0 120 255
-151.002297 -185.837070 -141.933935 0 120 255
-152.102119 -186.984525 -143.828363 0 120 255
-153.040563 -188.076577 -145.840362 0 120 255
-153.979008 -189.168629 -147.852361 0 120 255
-154.917452 -190.260681 -149.864360 0 120 255
-155.837915 -191.346303 -151.886952 0 120 255
-156.581462 -192.368655 -154.013764 0 120 255
-157.325008 -193.391007 -156.140576 0 120 255
-158.068555 -194.413359 -158.267388 0 120 255
-158.800636 -195.431475 -160.399508 0 120 255
-159.341938 -196.379108 -162.619954 0 120 255
-159.883239 -197.326742 -164.840400 0 120 255
-160.424540 -198.274375 -167.060846 0 120 255
-160.961544 -199.220379 -169.282781 0 120 255
-161.295927 -200.089570 -171.574961 0 120 255
-161.630309 -200.958762 -173.867142 0 120 255
-161.964691 -201.827953 -176.159322 0 120 255
-162.299073 -202.697144 -178.451502 0 120 255
-162.427813 -203.486813 -180.792536 0 120 255
-162.553300 -204.275224 -183.134342 0 120 255
-162.678787 -205.063635 -185.476148 0 120 255
-162.804274 -205.852046 -187.817954 0 120 255
-162.732420 -206.563053 -190.186114 0 120 255
-162.649656 -207.269780 -192.555730 0 120 255
-162.566893 -207.976507 -194.925347 0 120 255
-162.484129 -208.683234 -197.294963 0 120 255
-162.214613 -209.316038 -199.670744 0 120 255
-161.926691 -209.941555 -202.047133 0 120 255
-161.638768 -210.567072 -204.423522 0 120 255
-161.350846 -211.192590 -206.799911 0 120 255
-160.888568 -211.748864 -209.164882 0 120 255
-160.400795 -212.295013 -211.528183 0 120 255
-159.913022 -212.841162 -213.891485 0 120 255
-159.425249 -213.387311 -216.254786 0 120 255
-158.776832 -213.869838 -218.591887 0 120 255
-158.096445 -214.339702 -220.923774 0 120 255
-157.416058 -214.809567 -223.255661 0 120 255
-156.735671 -215.279431 -225.587547 0 120 255
-155.909167 -215.692014 -227.881308 0 120 255
-155.045004 -216.089834 -230.165243 0 120 255
-154.180841 -216.487654 -232.449177 0 120 255
-153.316677 -216.885473 -234.733112 0 120 255
-152.321290 -217.232808 -236.969815 0 120 255
-151.283456 -217.563812 -239.191241 0 120 255
-150.245623 -217.894816 -241.412667 0 120 255
-149.207789 -218.225821 -243.634092 0 120 255
-148.053559 -218.513364 -245.801853 0 120 255
-146.853064 -218.783632 -247.948284 0 120 255
-145.652570 -219.053900 -250.094714 0 120 255
-144.452076 -219.324168 -252.241145 0 120 255
-143.149636 -219.558028 -254.329952 0 120 255
-141.798126 -219.774365 -256.391023 0 120 255
-140.446616 -219.990702 -258.452094 0 120 255
-139.095106 -220.207039 -260.513165 0 120 255
-137.655395 -220.393839 -262.514841 0 120 255
-136.164785 -220.563595 -264.482241 0 120 255
-134.674176 -220.733351 -266.449640 0 120 255
-133.183566 -220.903107 -268.417039 0 120 255
-131.617627 -221.049864 -270.325184 0 120 255
-129.999916 -221.180816 -272.192605 0 120 255
-128.382206 -221.311768 -274.060026 0 120 255
-126.764496 -221.442720 -275.927447 0 120 255
-125.083278 -221.556757 -277.737329 0 120 255
-123.350279 -221.657003 -279.500298 0 120 255
-121.617280 -221.757248 -281.263267 0 120 255
-119.884281 -221.857494 -283.026237 0 120 255
-118.098285 -221.949404 -284.734298 0 120 255
-116.261107 -222.033264 -286.389334 0 120 255
-114.423930 -222.117124 -288.044369 0 120 255
-112.586753 -222.200984 -289.699404 0 120 255
-110.706349 -222.283469 -291.303641 0 120 255
-108.776406 -222.364380 -292.849657 0 120 255
-106.846462 -222.445290 -294.395673 0 120 255
-104.916518 -222.526201 -295.941689 0 120 255
-102.952242 -222.607257 -297.442363 0 120 255
-100.941001 -222.688510 -298.881009 0 120 255
-98.929760 -222.769764 -300.319655 0 120 255
-96.918519 -222.851018 -301.758301 0 120 255
-94.880136 -222.932487 -303.156833 0 120 255
-92.797077 -223.014308 -304.489335 0 120 255
-90.714017 -223.096129 -305.821837 0 120 255
-88.630957 -223.177950 -307.154340 0 120 255
-86.526838 -223.259875 -308.452050 0 120 255
-84.380547 -223.342005 -309.680093 0 120 255
-82.234257 -223.424135 -310.908135 0 120 255
-80.087967 -223.506265 -312.136178 0 120 255
-77.925874 -223.588692 -313.335022 0 120 255
-75.724694 -223.671852 -314.461648 0 120 255
-73.523514 -223.755012 -315.588274 0 120 255
-71.322334 -223.838173 -316.714900 0 120 255
-69.109670 -223.921765 -317.817785 0 120 255
-66.861176 -224.006707 -318.846599 0 120 255
-64.612683 -224.091648 -319.875412 0 120 255
-62.364190 -224.176589 -320.904226 0 120 255
-60.107683 -224.261826 -321.914499 0 120 255
-57.818627 -224.348266 -322.849455 0 120 255
-55.529570 -224.434705 -323.784411 0 120 255
-53.240513 -224.521145 -324.719367 0 120 255
-50.946198 -224.607763 -325.640682 0 120 255
-48.622625 -224.695371 -326.486099 0 120 255
-46.299053 -224.782979 -327.331516 0 120 255
-43.975480 -224.870587 -328.176933 0 120 255
-41.648798 -224.958288 -329.013288 0 120 255
-39.296184 -225.046765 -329.774059 0 120 255
-36.943569 -225.135243 -330.534830 0 120 255
-34.590955 -225.223720 -331.295600 0 120 255
-32.236845 -225.312238 -332.051462 0 120 255
-29.859998 -225.401369 -332.732672 0 120 255
-27.483150 -225.490500 -333.413881 0 120 255
-25.106302 -225.579631 -334.095091 0 120 255
-22.729128 -225.668771 -334.775089 0 120 255
-20.332220 -225.758386 -335.381881 0 120 255
-17.935312 -225.848001 -335.988672 0 120 255
-15.538404 -225.937617 -336.595463 0 120 255
-13.141496 -226.027232 -337.202255 0 120 255
-10.728670 -226.117161 -337.742102 0 120 255
-8.315364 -226.207100 -338.279935 0 120 255
-5.902059 -226.297038 -338.817767 0 120 255
-3.488754 -226.386977 -339.355600 0 120 255
-1.063185 -226.477096 -339.834765 0 120 255
1.363375 -226.567231 -340.309190 0 120 255
3.789934 -226.657365 -340.783616 0 120 255
6.216494 -226.747499 -341.258041 0 120 255
8.652378 -226.837697 -341.681552 0 120 255
11.089537 -226.927903 -342.098100 0 120 255
13.526697 -227.018109 -342.514648 0 120 255
15.963856 -227.108315 -342.931196 0 120 255
18.407974 -227.198488 -343.304244 0 120 255
20.853476 -227.288653 -343.668643 0 120 255
23.298978 -227.378818 -344.033042 0 120 255
25.744479 -227.468984 -344.397442 0 120 255
28.195098 -227.559013 -344.725144 0 120 255
30.647089 -227.649007 -345.043012 0 120 255
33.099079 -227.739000 -345.360881 0 120 255
35.551069 -227.828993 -345.678750 0 120 255
38.006731 -227.918726 -345.966413 0 120 255
40.463660 -228.008368 -346.243643 0 120 255
42.920590 -228.098011 -346.520874 0 120 255
45.377519 -228.187653 -346.798104 0 120 255
47.837088 -228.276842 -347.050475 0 120 255
50.297799 -228.365834 -347.292090 0 120 255
52.758510 -228.454826 -347.533706 0 120 255
55.219220 -228.543817 -347.775321 0 120 255
57.681830 -228.631864 -347.996622 0 120 255
60.145449 -228.719409 -348.207125 0 120 255
62.609069 -228.806953 -348.417628 0 120 255
65.072688 -228.894498 -348.628131 0 120 255
67.537643 -228.978860 -348.823363 0 120 255
70.003459 -229.061170 -349.008756 0 120 255
72.469276 -229.143481 -349.194148 0 120 255
74.935092 -229.225792 -349.379541 0 120 255
77.401861 -229.301549 -349.554431 0 120 255
79.869368 -229.372231 -349.721188 0 120 255
82.336875 -229.442914 -349.887945 0 120 255
84.804383 -229.513596 -350.054701 0 120 255
87.272533 -229.575610 -350.214922 0 120 255
89.741281 -229.629596 -350.369090 0 120 255
92.210028 -229.683582 -350.523258 0 120 255
94.678775 -229.737567 -350.677426 0 120 255
97.147891 -229.781923 -350.828360 0 120 255
99.617414 -229.815625 -350.975719 0 120 255
102.086937 -229.849327 -351.123077 0 120 255
104.556461 -229.883030 -351.270436 0 120 255
107.026100 -229.906488 -351.417353 0 120 255
109.495895 -229.916394 -351.563688 0 120 255
111.965689 -229.926301 -351.710023 0 120 255
114.435483 -229.936208 -351.856358 0 120 255
116.905152 -229.935597 -352.004504 0 120 255
119.374623 -229.918281 -352.155524 0 120 255
121.844095 -229.900965 -352.306545 0 120 255
124.313566 -229.883649 -352.457566 0 120 255
126.782674 -229.855860 -352.612138 0 120 255
129.251085 -229.807947 -352.773534 0 120 255
131.719495 -229.760034 -352.934930 0 120 255
134.187906 -229.712121 -353.096325 0 120 255
136.655723 -229.654101 -353.262499 0 120 255
139.122144 -229.572316 -353.439909 0 120 255
141.588565 -229.490530 -353.617319 0 120 255
144.054986 -229.408745 -353.794729 0 120 255
146.520601 -229.317515 -353.977655 0 120 255
148.983857 -229.198637 -354.176731 0 120 255
151.447113 -229.079758 -354.375807 0 120 255
153.910370 -228.960879 -354.574882 0 120 255
156.372651 -228.833516 -354.779700 0 120 255
158.831283 -228.674421 -355.005996 0 120 255
161.289916 -228.515325 -355.232292 0 120 255
163.748548 -228.356230 -355.458588 0 120 255
166.205703 -228.188397 -355.692916 0 120 255
168.655508 -227.977127 -355.967170 0 120 255
171.105313 -227.765857 -356.241424 0 120 255
173.555118 -227.554586 -356.515678 0 120 255
176.004587 -227.340789 -356.790874 0 120 255
178.451718 -227.109360 -357.072636 0 120 255
180.898848 -226.877930 -357.354398 0 120 255
183.345978 -226.646500 -357.636160 0 120 255
185.793108 -226.415070 -357.917924 0 120 255
188.240235 -226.183629 -358.199698 0 120 255
190.687363 -225.952188 -358.481473 0 120 255
193.134490 -225.720748 -358.763248 0 120 255
195.581618 -225.489307 -359.045022 0 120 255
198.028747 -225.257870 -359.326789 0 120 255
200.475876 -225.026434 -359.608556 0 120 255
202.923004 -224.794997 -359.890324 0 120 255
205.370133 -224.563560 -360.172091 0 120 255
