ply
format ascii 1.0
element vertex 385
property float x
property float y
property float z
property uchar red
property uchar green
property uchar blue
end_header
77.430455 -42.474882 -360.397637 0 120 255
77.187552 -42.528711 -357.935927 0 120 255
76.944649 -42.582541 -355.474217 0 120 255
76.701745 -42.636371 -353.012507 0 120 255
76.458842 -42.690200 -350.550797 0 120 255
76.217800 -42.755278 -348.089176 0 120 255
75.976838 -42.820845 -345.627560 0 120 255
75.735877 -42.886411 -343.165944 0 120 255
75.494916 -42.951978 -340.704328 0 120 255
75.419574 -43.437389 -338.283161 0 120 255
75.359207 -43.960760 -335.865651 0 120 255
75.298839 -44.484132 -333.448141 0 120 255
75.238472 -45.007503 -331.030631 0 120 255
75.320486 -45.868400 -328.717028 0 120 255
75.423402 -46.778845 -326.418677 0 120 255
75.526318 -47.689289 -324.120327 0 120 255
75.629233 -48.599734 -321.821976 0 120 255
75.852729 -49.777421 -319.662594 0 120 255
76.101523 -51.011178 -317.532369 0 120 255
76.350318 -52.244936 -315.402143 0 120 255
76.599112 -53.478693 -313.271918 0 120 255
76.948874 -54.916997 -311.294616 0 120 255
77.326939 -56.412638 -309.360181 0 120 255
77.705004 -57.908280 -307.425745 0 120 255
78.083069 -59.403921 -305.491310 0 120 255
78.545600 -61.051291 -303.709474 0 120 255
79.038495 -62.753204 -301.982493 0 120 255
79.531390 -64.455117 -300.255513 0 120 255
80.024285 -66.157031 -298.528532 0 120 255
80.588346 -67.967905 -296.944976 0 120 255
81.184350 -69.827688 -295.425798 0 120 255
81.780355 -71.687471 -293.906620 0 120 255
82.376360 -73.547253 -292.387442 0 120 255
83.033104 -75.482323 -290.997566 0 120 255
83.723282 -77.458834 -289.678865 0 120 255
84.413461 -79.435346 -288.360164 0 120 255
85.103639 -81.411857 -287.041463 0 120 255
85.846493 -83.437727 -285.835660 0 120 255
86.624477 -85.496513 -284.705150 0 120 255
87.402462 -87.555300 -283.574640 0 120 255
88.180446 -89.614087 -282.444130 0 120 255
89.004879 -91.702616 -281.409497 0 120 255
89.866547 -93.814987 -280.451721 0 120 255
90.728215 -95.927357 -279.493945 0 120 255
91.589883 -98.039728 -278.536169 0 120 255
92.493103 -100.167272 -277.657671 0 120 255
93.436182 -102.309372 -276.855223 0 120 255
94.379262 -104.451472 -276.052774 0 120 255
95.322342 -106.593572 -275.250325 0 120 255
96.302981 -108.740245 -274.511563 0 120 255
97.326672 -110.892159 -273.845803 0 120 255
98.350364 -113.044073 -273.180042 0 120 255
99.374056 -115.195987 -272.514282 0 120 255
100.431859 -117.344968 -271.897928 0 120 255
101.536446 -119.489927 -271.349336 0 120 255
102.641033 -121.634887 -270.800743 0 120 255
103.745620 -123.779846 -270.252151 0 120 255
104.881137 -125.916788 -269.740192 0 120 255
106.067631 -128.040516 -269.288612 0 120 255
107.254124 -130.164245 -268.837031 0 120 255
108.440618 -132.287974 -268.385450 0 120 255
109.654899 -134.400500 -267.959319 0 120 255
110.924644 -136.490664 -267.583982 0 120 255
112.194389 -138.580828 -267.208646 0 120 255
113.464134 -140.670992 -266.833310 0 120 255
114.758413 -142.748267 -266.473883 0 120 255
116.112720 -144.794006 -266.153379 0 120 255
117.467026 -146.839744 -265.832876 0 120 255
118.821333 -148.885483 -265.512372 0 120 255
120.196711 -150.917857 -265.199948 0 120 255
121.636425 -152.909423 -264.912195 0 120 255
123.076139 -154.900990 -264.624441 0 120 255
124.515853 -156.892556 -264.336687 0 120 255
125.972937 -158.871278 -264.050964 0 120 255
127.498006 -160.799729 -263.773188 0 120 255
129.023075 -162.728179 -263.495412 0 120 255
130.548143 -164.656630 -263.217636 0 120 255
132.086680 -166.573604 -262.937688 0 120 255
133.695644 -168.430561 -262.646385 0 120 255
135.304609 -170.287519 -262.355081 0 120 255
136.913573 -172.144477 -262.063777 0 120 255
138.532023 -173.992069 -261.768040 0 120 255
140.221519 -175.769516 -261.439099 0 120 255
141.911014 -177.546963 -261.110157 0 120 255
143.600510 -179.324410 -260.781215 0 120 255
145.295626 -181.095287 -260.447593 0 120 255
147.059797 -182.785449 -260.056479 0 120 255
148.823967 -184.475611 -259.665365 0 120 255
150.588138 -186.165773 -259.274251 0 120 255
152.354479 -187.852802 -258.880272 0 120 255
154.184411 -189.448063 -258.402352 0 120 255
156.014343 -191.043324 -257.924432 0 120 255
157.844276 -192.638584 -257.446511 0 120 255
159.674208 -194.233845 -256.968591 0 120 255
161.556859 -195.727676 -256.380560 0 120 255
163.439989 -197.220586 -255.791529 0 120 255
165.323119 -198.713495 -255.202497 0 120 255
167.206249 -200.206404 -254.613466 0 120 255
169.124028 -201.595302 -253.896884 0 120 255
171.043661 -202.978635 -253.173479 0 120 255
172.963294 -204.361968 -252.450073 0 120 255
174.882926 -205.745301 -251.726668 0 120 255
176.816417 -207.022984 -250.861875 0 120 255
178.751318 -208.289924 -249.982704 0 120 255
180.686218 -209.556863 -249.103533 0 120 255
182.621119 -210.823802 -248.224363 0 120 255
184.546744 -211.984552 -247.194180 0 120 255
186.470939 -213.128932 -246.140719 0 120 255
188.395135 -214.273313 -245.087257 0 120 255
190.319330 -215.417694 -244.033796 0 120 255
192.209396 -216.456667 -242.824511 0 120 255
194.092242 -217.473347 -241.582268 0 120 255
195.975089 -218.490026 -240.340025 0 120 255
197.857935 -219.506706 -239.097782 0 120 255
199.680978 -220.420293 -237.700189 0 120 255
201.487605 -221.305582 -236.259954 0 120 255
203.294232 -222.190871 -234.819718 0 120 255
205.100859 -223.076159 -233.379483 0 120 255
206.822311 -223.862403 -231.789892 0 120 255
208.514463 -224.614575 -230.148925 0 120 255
210.206615 -225.366748 -228.507958 0 120 255
211.898767 -226.118920 -226.866991 0 120 255
213.481968 -226.777933 -225.088106 0 120 255
215.019287 -227.397715 -223.251142 0 120 255
216.556606 -228.017497 -221.414178 0 120 255
218.093924 -228.637278 -219.577214 0 120 255
219.501496 -229.171656 -217.618803 0 120 255
220.843248 -229.662709 -215.598781 0 120 255
222.184999 -230.153762 -213.578760 0 120 255
223.526751 -230.644815 -211.558739 0 120 255
224.722233 -231.059954 -209.437926 0 120 255
225.829323 -231.429219 -207.256204 0 120 255
226.936414 -231.798483 -205.074482 0 120 255
228.043504 -232.167747 -202.892760 0 120 255
228.993180 -232.472018 -200.633894 0 120 255
229.830387 -232.729853 -198.319910 0 120 255
230.667593 -232.987688 -196.005926 0 120 255
231.504800 -233.245523 -193.691942 0 120 255
232.179511 -233.450288 -191.325952 0 120 255
232.717603 -233.610435 -188.916237 0 120 255
233.255695 -233.770581 -186.506522 0 120 255
233.793787 -233.930728 -184.096807 0 120 255
234.170612 -234.050162 -181.660083 0 120 255
234.388233 -234.129404 -179.196696 0 120 255
234.605853 -234.208647 -176.733308 0 120 255
234.823473 -234.287889 -174.269921 0 120 255
234.887063 -234.338586 -171.802769 0 120 255
234.772092 -234.356192 -169.331254 0 120 255
234.657122 -234.373798 -166.859739 0 120 255
234.542151 -234.391404 -164.388223 0 120 255
234.285484 -234.392405 -161.933045 0 120 255
233.835476 -234.370749 -159.500158 0 120 255
233.385468 -234.349093 -157.067271 0 120 255
232.935460 -234.327438 -154.634384 0 120 255
232.360217 -234.299308 -152.233726 0 120 255
231.582812 -234.260728 -149.885095 0 120 255
230.805408 -234.222149 -147.536463 0 120 255
230.028004 -234.183569 -145.187832 0 120 255
229.145291 -234.141499 -142.882183 0 120 255
228.059695 -234.092706 -140.659343 0 120 255
226.974099 -234.043914 -138.436504 0 120 255
225.888502 -233.995121 -136.213664 0 120 255
224.718074 -233.943677 -134.039477 0 120 255
223.350165 -233.886062 -131.978550 0 120 255
221.982255 -233.828446 -129.917623 0 120 255
220.614346 -233.770831 -127.856696 0 120 255
219.181112 -233.711101 -125.845504 0 120 255
217.561016 -233.645323 -123.976580 0 120 255
215.940921 -233.579545 -122.107655 0 120 255
214.320825 -233.513767 -120.238730 0 120 255
212.653050 -233.446440 -118.416697 0 120 255
210.813663 -233.373538 -116.763441 0 120 255
208.974277 -233.300636 -115.110184 0 120 255
207.134890 -233.227735 -113.456928 0 120 255
205.262997 -233.153798 -111.844584 0 120 255
203.238607 -233.075009 -110.424179 0 120 255
201.214216 -232.996220 -109.003773 0 120 255
199.189826 -232.917430 -107.583368 0 120 255
197.145270 -232.838023 -106.195610 0 120 255
194.970245 -232.754621 -105.019079 0 120 255
192.795219 -232.671219 -103.842548 0 120 255
190.620194 -232.587816 -102.666017 0 120 255
188.434384 -232.504104 -101.512415 0 120 255
186.142054 -232.417331 -100.585262 0 120 255
183.849725 -232.330558 -99.658109 0 120 255
181.557396 -232.243785 -98.730956 0 120 255
179.260782 -232.156901 -97.816290 0 120 255
176.882622 -232.067888 -97.139274 0 120 255
174.504463 -231.978876 -96.462259 0 120 255
172.126303 -231.889864 -95.785244 0 120 255
169.747699 -231.800842 -95.110163 0 120 255
167.312761 -231.710660 -94.680210 0 120 255
164.877823 -231.620478 -94.250258 0 120 255
162.442885 -231.530296 -93.820305 0 120 255
160.007946 -231.440113 -93.390352 0 120 255
157.543622 -231.349699 -93.193149 0 120 255
155.078253 -231.259277 -93.004218 0 120 255
152.612884 -231.168855 -92.815287 0 120 255
150.147515 -231.078433 -92.626356 0 120 255
147.675809 -230.988565 -92.652428 0 120 255
145.203579 -230.898743 -92.696317 0 120 255
142.731349 -230.808921 -92.740205 0 120 255
140.259119 -230.719098 -92.784093 0 120 255
137.799247 -230.630443 -93.024623 0 120 255
135.341041 -230.541946 -93.291654 0 120 255
132.882835 -230.453448 -93.558684 0 120 255
130.424628 -230.364951 -93.825714 0 120 255
127.993631 -230.278089 -94.271108 0 120 255
125.567857 -230.191540 -94.750736 0 120 255
123.142082 -230.104992 -95.230364 0 120 255
120.716307 -230.018443 -95.709992 0 120 255
118.329296 -229.933898 -96.350283 0 120 255
115.952177 -229.849864 -97.031575 0 120 255
113.575058 -229.765830 -97.712867 0 120 255
111.197939 -229.681796 -98.394159 0 120 255
108.868366 -229.600028 -99.219294 0 120 255
106.554272 -229.518998 -100.091257 0 120 255
104.240178 -229.437969 -100.963220 0 120 255
101.926084 -229.356939 -101.835182 0 120 255
99.666039 -229.278344 -102.835241 0 120 255
97.427843 -229.200734 -103.887082 0 120 255
95.189646 -229.123123 -104.938923 0 120 255
92.951450 -229.045512 -105.990764 0 120 255
90.771929 -228.970453 -107.156065 0 120 255
88.621327 -228.896652 -108.377285 0 120 255
86.470724 -228.822851 -109.598505 0 120 255
84.320122 -228.749050 -110.819725 0 120 255
82.231294 -228.677871 -112.140881 0 120 255
80.179121 -228.608247 -113.521335 0 120 255
78.126948 -228.538624 -114.901789 0 120 255
76.074774 -228.469001 -116.282243 0 120 255
74.086221 -228.402021 -117.750165 0 120 255
72.142727 -228.336912 -119.280038 0 120 255
70.199234 -228.271804 -120.809910 0 120 255
68.255740 -228.206696 -122.339782 0 120 255
66.376648 -228.144210 -123.945609 0 120 255
64.551711 -228.083930 -125.615306 0 120 255
62.726774 -228.023650 -127.285002 0 120 255
60.901836 -227.963370 -128.954698 0 120 255
59.141145 -227.905675 -130.689689 0 120 255
57.444422 -227.850554 -132.489691 0 120 255
55.747699 -227.795433 -134.289694 0 120 255
54.050976 -227.740313 -136.089696 0 120 255
52.417481 -227.687697 -137.945095 0 120 255
50.858506 -227.638032 -139.865784 0 120 255
49.299532 -227.588368 -141.786474 0 120 255
47.740557 -227.538704 -143.707163 0 120 255
46.242957 -227.491443 -145.674043 0 120 255
44.831164 -227.447542 -147.705503 0 120 255
43.419371 -227.403641 -149.736963 0 120 255
42.007578 -227.359740 -151.768423 0 120 255
40.654468 -227.318118 -153.837522 0 120 255
39.399142 -227.280291 -155.969338 0 120 255
38.143815 -227.242464 -158.101154 0 120 255
36.888489 -227.204637 -160.232970 0 120 255
35.688293 -227.168932 -162.394522 0 120 255
34.598432 -227.137473 -164.615587 0 120 255
33.508571 -227.106015 -166.836652 0 120 255
32.418710 -227.074556 -169.057717 0 120 255
31.379550 -227.045024 -171.301307 0 120 255
30.463697 -227.020178 -173.599679 0 120 255
29.547843 -226.995332 -175.898050 0 120 255
28.631989 -226.970487 -178.196421 0 120 255
27.761542 -226.947357 -180.510880 0 120 255
27.027574 -226.929385 -182.873693 0 120 255
26.293607 -226.911414 -185.236505 0 120 255
25.559640 -226.893443 -187.599318 0 120 255
24.864943 -226.876941 -189.972657 0 120 255
24.319803 -226.866038 -192.386082 0 120 255
23.774663 -226.855135 -194.799507 0 120 255
23.229523 -226.844232 -197.212931 0 120 255
22.716756 -226.834531 -199.632323 0 120 255
22.366222 -226.830853 -202.081614 0 120 255
22.015688 -226.827174 -204.530905 0 120 255
21.665154 -226.823496 -206.980197 0 120 255
21.339452 -226.820731 -209.432023 0 120 255
21.187899 -226.824379 -211.901625 0 120 255
21.036346 -226.828026 -214.371227 0 120 255
20.884793 -226.831674 -216.840829 0 120 255
20.750039 -226.835935 -219.310774 0 120 255
20.800232 -226.846949 -221.784490 0 120 255
20.850425 -226.857963 -224.258207 0 120 255
20.900618 -226.868977 -226.731924 0 120 255
20.959279 -226.880297 -229.205119 0 120 255
21.212190 -226.898637 -231.666341 0 120 255
21.465101 -226.916977 -234.127564 0 120 255
21.718012 -226.935317 -236.588786 0 120 255
21.970985 -226.953659 -239.049999 0 120 255
22.425704 -226.979218 -241.481973 0 120 255
22.880423 -227.004777 -243.913946 0 120 255
23.335141 -227.030336 -246.345919 0 120 255
23.789860 -227.055894 -248.777892 0 120 255
24.435338 -227.088241 -251.165900 0 120 255
25.089000 -227.120879 -253.552022 0 120 255
25.742663 -227.153517 -255.938143 0 120 255
26.396325 -227.186155 -258.324265 0 120 255
27.228084 -227.225055 -260.653520 0 120 255
28.075877 -227.264518 -262.977655 0 120 255
28.923669 -227.303981 -265.301791 0 120 255
29.771461 -227.343444 -267.625927 0 120 255
30.783406 -227.388640 -269.882333 0 120 255
31.818593 -227.434649 -272.129151 0 120 255
32.853779 -227.480657 -274.375968 0 120 255
33.888966 -227.526665 -276.622785 0 120 255
35.073469 -227.577830 -278.793192 0 120 255
36.287582 -227.630018 -280.948446 0 120 255
37.501696 -227.682207 -283.103700 0 120 255
38.715810 -227.734395 -285.258955 0 120 255
40.063863 -227.791156 -287.331385 0 120 255
41.446872 -227.849110 -289.382200 0 120 255
42.829882 -227.907065 -291.433015 0 120 255
44.212891 -227.965020 -293.483830 0 120 255
45.714324 -228.026972 -295.447661 0 120 255
47.254912 -228.090246 -297.382733 0 120 255
48.795500 -228.153520 -299.317804 0 120 255
50.336087 -228.216795 -301.252876 0 120 255
51.979775 -228.283524 -303.099000 0 120 255
53.665574 -228.351665 -304.908794 0 120 255
55.351374 -228.419806 -306.718588 0 120 255
57.037173 -228.487947 -308.528381 0 120 255
58.811300 -228.559060 -310.249293 0 120 255
60.629242 -228.631648 -311.926116 0 120 255
62.447184 -228.704236 -313.602939 0 120 255
64.265125 -228.776823 -315.279762 0 120 255
66.157437 -228.851969 -316.869612 0 120 255
68.094024 -228.928638 -318.407685 0 120 255
70.030611 -229.005307 -319.945758 0 120 255
71.967198 -229.081976 -321.483831 0 120 255
73.965137 -229.160411 -322.938623 0 120 255
76.006561 -229.240099 -324.334385 0 120 255
78.047985 -229.319786 -325.730148 0 120 255
80.089409 -229.399474 -327.125911 0 120 255
82.180156 -229.478743 -328.443976 0 120 255
84.312325 -229.557661 -329.696790 0 120 255
86.444494 -229.636579 -330.949604 0 120 255
88.576663 -229.715497 -332.202418 0 120 255
90.747035 -229.788696 -333.385523 0 120 255
92.955336 -229.856219 -334.499419 0 120 255
95.163637 -229.923741 -335.613315 0 120 255
97.371937 -229.991264 -336.727211 0 120 255
99.609081 -230.048830 -337.779976 0 120 255
101.880080 -230.094710 -338.760980 0 120 255
104.151080 -230.140590 -339.741985 0 120 255
106.422080 -230.186470 -340.722990 0 120 255
108.714320 -230.220180 -341.651277 0 120 255
111.036110 -230.236959 -342.506218 0 120 255
113.357901 -230.253738 -343.361158 0 120 255
115.679691 -230.270517 -344.216099 0 120 255
118.016589 -230.274141 -345.026574 0 120 255
120.378522 -230.255964 -345.763362 0 120 255
122.740456 -230.237787 -346.500149 0 120 255
125.102389 -230.219610 -347.236937 0 120 255
127.474621 -230.188341 -347.937102 0 120 255
129.867346 -230.131023 -348.564398 0 120 255
132.260070 -230.073705 -349.191694 0 120 255
134.652794 -230.016387 -349.818991 0 120 255
137.052164 -229.946889 -350.416961 0 120 255
139.467600 -229.847938 -350.944020 0 120 255
141.883036 -229.748987 -351.471079 0 120 255
144.298473 -229.650037 -351.998138 0 120 255
146.717896 -229.540441 -352.502486 0 120 255
149.149240 -229.399015 -352.938927 0 120 255
151.580584 -229.257589 -353.375368 0 120 255
154.011928 -229.116163 -353.811809 0 120 255
156.445432 -228.966041 -354.231401 0 120 255
158.887127 -228.782938 -354.587091 0 120 255
161.328822 -228.599834 -354.942782 0 120 255
163.770516 -228.416731 -355.298472 0 120 255
166.213187 -228.227266 -355.642742 0 120 255
168.660734 -228.005994 -355.929907 0 120 255
171.108282 -227.784721 -356.217072 0 120 255
173.555830 -227.563449 -356.504238 0 120 255
176.003339 -227.340907 -356.790730 0 120 255
178.450573 -227.109468 -357.072504 0 120 255
180.897807 -226.878028 -357.354278 0 120 255
183.345041 -226.646589 -357.636053 0 120 255
185.792275 -226.415148 -357.917828 0 120 255
188.239507 -226.183698 -358.199615 0 120 255
190.686738 -225.952247 -358.481401 0 120 255
193.133970 -225.720797 -358.763188 0 120 255
195.581202 -225.489346 -359.044974 0 120 255
198.028435 -225.257900 -359.326753 0 120 255
200.475667 -225.026453 -359.608532 0 120 255
202.922900 -224.795007 -359.890312 0 120 255
205.370133 -224.563560 -360.172091 0 120 255
