ply
format ascii 1.0
element vertex 385
property float x
property float y
property float z
property uchar red
property uchar green
property uchar blue
end_header
77.430455 -42.474882 -360.397637 0 120 255
77.187585 -42.528704 -357.936257 0 120 255
76.944714 -42.582527 -355.474877 0 120 255
76.701843 -42.636349 -353.013497 0 120 255
76.458972 -42.690171 -350.552118 0 120 255
76.213328 -42.750444 -348.091163 0 120 255
75.967561 -42.811001 -345.630227 0 120 255
75.721793 -42.871558 -343.169292 0 120 255
75.476026 -42.932115 -340.708356 0 120 255
75.079287 -43.436742 -338.323510 0 120 255
74.668683 -43.982149 -335.945652 0 120 255
74.258079 -44.527555 -333.567794 0 120 255
73.847475 -45.072962 -331.189936 0 120 255
73.316176 -45.967757 -328.950662 0 120 255
72.767073 -46.914091 -326.731831 0 120 255
72.217971 -47.860425 -324.513000 0 120 255
71.668868 -48.806760 -322.294169 0 120 255
71.024933 -50.016391 -320.239819 0 120 255
70.361148 -51.281140 -318.219900 0 120 255
69.697362 -52.545889 -316.199981 0 120 255
69.033576 -53.810638 -314.180063 0 120 255
68.298598 -55.265039 -312.323738 0 120 255
67.543821 -56.772184 -310.512909 0 120 255
66.789045 -58.279329 -308.702081 0 120 255
66.034268 -59.786474 -306.891252 0 120 255
65.230073 -61.426031 -305.226707 0 120 255
64.408337 -63.112584 -303.614081 0 120 255
63.586602 -64.799137 -302.001455 0 120 255
62.764867 -66.485691 -300.388829 0 120 255
61.914105 -68.263821 -298.897464 0 120 255
61.050538 -70.082351 -297.459591 0 120 255
60.186971 -71.900880 -296.021719 0 120 255
59.323404 -73.719409 -294.583847 0 120 255
58.450151 -75.602758 -293.240890 0 120 255
57.571682 -77.521018 -291.949051 0 120 255
56.693214 -79.439277 -290.657213 0 120 255
55.814745 -81.357537 -289.365374 0 120 255
54.944891 -83.324570 -288.144923 0 120 255
54.080634 -85.323284 -286.970837 0 120 255
53.216377 -87.321998 -285.796752 0 120 255
52.352119 -89.320712 -284.622667 0 120 255
51.513475 -91.359306 -283.501434 0 120 255
50.694732 -93.428891 -282.421271 0 120 255
49.875989 -95.498475 -281.341107 0 120 255
49.057247 -97.568060 -280.260943 0 120 255
48.279332 -99.672576 -279.220758 0 120 255
47.539189 -101.809410 -278.217562 0 120 255
46.799047 -103.946244 -277.214365 0 120 255
46.058904 -106.083078 -276.211169 0 120 255
45.372451 -108.251284 -275.240327 0 120 255
44.745023 -110.453982 -274.305056 0 120 255
44.117596 -112.656679 -273.369785 0 120 255
43.490168 -114.859377 -272.434514 0 120 255
42.926364 -117.089499 -271.528098 0 120 255
42.445724 -119.355468 -270.659398 0 120 255
41.965084 -121.621438 -269.790698 0 120 255
41.484444 -123.887408 -268.921998 0 120 255
41.073961 -126.175510 -268.081343 0 120 255
40.772860 -128.498119 -267.284411 0 120 255
40.471758 -130.820728 -266.487479 0 120 255
40.170657 -133.143336 -265.690548 0 120 255
39.942528 -135.481225 -264.922047 0 120 255
39.850940 -137.847705 -264.206743 0 120 255
39.759352 -140.214184 -263.491440 0 120 255
39.667764 -142.580664 -262.776136 0 120 255
39.648165 -144.954422 -262.089533 0 120 255
39.791804 -147.344683 -261.468007 0 120 255
39.935442 -149.734943 -260.846482 0 120 255
40.079081 -152.125204 -260.224957 0 120 255
40.290088 -154.514454 -259.631312 0 120 255
40.688905 -156.900884 -259.115394 0 120 255
41.087721 -159.287314 -258.599476 0 120 255
41.486538 -161.673744 -258.083558 0 120 255
41.944915 -164.051696 -257.593082 0 120 255
42.611811 -166.399971 -257.191676 0 120 255
43.278708 -168.748246 -256.790269 0 120 255
43.945604 -171.096521 -256.388863 0 120 255
44.661758 -173.430825 -256.008786 0 120 255
45.601519 -175.701704 -255.725534 0 120 255
46.541279 -177.972583 -255.442283 0 120 255
47.481040 -180.243462 -255.159031 0 120 255
48.458198 -182.497802 -254.891723 0 120 255
49.666960 -184.649721 -254.723149 0 120 255
50.875721 -186.801639 -254.554574 0 120 255
52.084482 -188.953557 -254.386000 0 120 255
53.318289 -191.089883 -254.227477 0 120 255
54.783511 -193.082140 -254.161824 0 120 255
56.248733 -195.074397 -254.096171 0 120 255
57.713955 -197.066653 -254.030518 0 120 255
59.192481 -199.047851 -253.969522 0 120 255
60.893630 -200.843980 -253.986450 0 120 255
62.594778 -202.640109 -254.003379 0 120 255
64.295927 -204.436239 -254.020307 0 120 255
66.000243 -206.228949 -254.038059 0 120 255
67.909988 -207.799963 -254.109211 0 120 255
69.819733 -209.370977 -254.180363 0 120 255
71.729478 -210.941991 -254.251515 0 120 255
73.639223 -212.513005 -254.322667 0 120 255
75.720606 -213.846333 -254.412403 0 120 255
77.806568 -215.173319 -254.502635 0 120 255
79.892531 -216.500305 -254.592867 0 120 255
81.978494 -217.827291 -254.683099 0 120 255
84.195658 -218.920097 -254.753895 0 120 255
86.422268 -219.996046 -254.823291 0 120 255
88.648878 -221.071995 -254.892688 0 120 255
90.875488 -222.147944 -254.962084 0 120 255
93.194571 -223.005102 -254.975079 0 120 255
95.524885 -223.835686 -254.981223 0 120 255
97.855200 -224.666270 -254.987367 0 120 255
100.185514 -225.496855 -254.993511 0 120 255
102.572663 -226.134209 -254.909716 0 120 255
104.969800 -226.737609 -254.810117 0 120 255
107.366936 -227.341009 -254.710518 0 120 255
109.764072 -227.944410 -254.610919 0 120 255
112.186195 -228.387946 -254.393165 0 120 255
114.614201 -228.793843 -254.147592 0 120 255
117.042208 -229.199740 -253.902019 0 120 255
119.470214 -229.605638 -253.656445 0 120 255
121.895210 -229.890190 -253.271247 0 120 255
124.319299 -230.138161 -252.843957 0 120 255
126.743388 -230.386132 -252.416666 0 120 255
129.167476 -230.634103 -251.989376 0 120 255
131.563947 -230.802780 -251.408615 0 120 255
133.950066 -230.941741 -250.770338 0 120 255
136.336185 -231.080702 -250.132062 0 120 255
138.722305 -231.219662 -249.493785 0 120 255
141.059130 -231.321356 -248.696373 0 120 255
143.373440 -231.406028 -247.826271 0 120 255
145.687749 -231.490699 -246.956170 0 120 255
148.002058 -231.575371 -246.086068 0 120 255
150.247764 -231.653001 -245.058985 0 120 255
152.455780 -231.726764 -243.945658 0 120 255
154.663797 -231.800527 -242.832331 0 120 255
156.871813 -231.874289 -241.719004 0 120 255
158.993479 -231.945024 -240.456347 0 120 255
161.058576 -232.013776 -239.095862 0 120 255
163.123674 -232.082527 -237.735377 0 120 255
165.188771 -232.151279 -236.374892 0 120 255
167.151287 -232.216393 -234.877614 0 120 255
169.034115 -232.278681 -233.274069 0 120 255
170.916942 -232.340970 -231.670525 0 120 255
172.799769 -232.403258 -230.066981 0 120 255
174.566791 -232.461000 -228.343867 0 120 255
176.227514 -232.514569 -226.511000 0 120 255
177.888237 -232.568138 -224.678133 0 120 255
179.548961 -232.621707 -222.845265 0 120 255
181.084491 -232.670445 -220.913321 0 120 255
182.484420 -232.713951 -218.874061 0 120 255
183.884350 -232.757457 -216.834802 0 120 255
185.284279 -232.800963 -214.795543 0 120 255
186.554152 -232.839575 -212.679646 0 120 255
187.657647 -232.871926 -210.465707 0 120 255
188.761142 -232.904277 -208.251768 0 120 255
189.864637 -232.936628 -206.037829 0 120 255
190.838246 -232.964123 -203.770310 0 120 255
191.614945 -232.984257 -201.421565 0 120 255
192.391644 -233.004391 -199.072819 0 120 255
193.168343 -233.024526 -196.724073 0 120 255
193.820419 -233.040001 -194.343960 0 120 255
194.247238 -233.047055 -191.907148 0 120 255
194.674057 -233.054110 -189.470337 0 120 255
195.100875 -233.061164 -187.033526 0 120 255
195.413046 -233.063944 -184.585282 0 120 255
195.475799 -233.057424 -182.112168 0 120 255
195.538553 -233.050904 -179.639054 0 120 255
195.601307 -233.044384 -177.165940 0 120 255
195.563307 -233.034175 -174.697809 0 120 255
195.257813 -233.014171 -172.242907 0 120 255
194.952318 -232.994168 -169.788004 0 120 255
194.646824 -232.974164 -167.333102 0 120 255
194.257268 -232.951150 -164.895142 0 120 255
193.589807 -232.918183 -162.513192 0 120 255
192.922347 -232.885217 -160.131243 0 120 255
192.254886 -232.852250 -157.749293 0 120 255
191.521536 -232.816971 -155.391251 0 120 255
190.508717 -232.771886 -153.134608 0 120 255
189.495897 -232.726800 -150.877965 0 120 255
188.483078 -232.681714 -148.621322 0 120 255
187.422573 -232.634982 -146.390483 0 120 255
186.090204 -232.578865 -144.306756 0 120 255
184.757835 -232.522748 -142.223029 0 120 255
183.425466 -232.466631 -140.139303 0 120 255
182.062295 -232.409471 -138.078601 0 120 255
180.443530 -232.343661 -136.208964 0 120 255
178.824766 -232.277852 -134.339326 0 120 255
177.206002 -232.212042 -132.469689 0 120 255
175.570943 -232.145700 -130.616338 0 120 255
173.704407 -232.071804 -128.994346 0 120 255
171.837872 -231.997907 -127.372354 0 120 255
169.971336 -231.924010 -125.750362 0 120 255
168.099888 -231.849958 -124.134891 0 120 255
166.027696 -231.769552 -122.785882 0 120 255
163.955503 -231.689146 -121.436873 0 120 255
161.883310 -231.608739 -120.087864 0 120 255
159.811117 -231.528333 -118.738855 0 120 255
157.579825 -231.443158 -117.674717 0 120 255
155.345600 -231.357895 -116.615830 0 120 255
153.111374 -231.272632 -115.556943 0 120 255
150.877149 -231.187369 -114.498056 0 120 255
148.531437 -231.099086 -113.720729 0 120 255
146.178583 -231.010609 -112.961435 0 120 255
143.825730 -230.922132 -112.202141 0 120 255
141.472877 -230.833656 -111.442847 0 120 255
139.051090 -230.743651 -110.954801 0 120 255
136.621443 -230.653472 -110.497686 0 120 255
134.191795 -230.563293 -110.040571 0 120 255
131.762148 -230.473114 -109.583456 0 120 255
129.300380 -230.382708 -109.382034 0 120 255
126.833182 -230.292263 -109.223833 0 120 255
124.365984 -230.201819 -109.065631 0 120 255
121.898786 -230.111374 -108.907429 0 120 255
119.430330 -230.021771 -108.985672 0 120 255
116.961585 -229.932360 -109.118249 0 120 255
114.492840 -229.842950 -109.250826 0 120 255
112.024095 -229.753540 -109.383404 0 120 255
109.579128 -229.665766 -109.730959 0 120 255
107.141230 -229.578478 -110.142430 0 120 255
104.703332 -229.491191 -110.553901 0 120 255
102.265434 -229.403903 -110.965372 0 120 255
99.870868 -229.318903 -111.569200 0 120 255
97.492451 -229.234756 -112.244720 0 120 255
95.114034 -229.150609 -112.920239 0 120 255
92.735618 -229.066462 -113.595758 0 120 255
90.415093 -228.985049 -114.440818 0 120 255
88.121050 -228.904886 -115.363432 0 120 255
85.827008 -228.824724 -116.286046 0 120 255
83.532965 -228.744561 -117.208659 0 120 255
81.306960 -228.667423 -118.278546 0 120 255
79.118603 -228.591957 -119.429922 0 120 255
76.930245 -228.516491 -120.581299 0 120 255
74.741887 -228.441025 -121.732676 0 120 255
72.627886 -228.368739 -123.010112 0 120 255
70.563164 -228.298561 -124.371094 0 120 255
68.498442 -228.228382 -125.732076 0 120 255
66.433720 -228.158203 -127.093058 0 120 255
64.446471 -228.091240 -128.560358 0 120 255
62.520328 -228.026814 -130.111518 0 120 255
60.594185 -227.962387 -131.662678 0 120 255
58.668042 -227.897961 -133.213838 0 120 255
56.819876 -227.836704 -134.853293 0 120 255
55.044650 -227.778411 -136.575340 0 120 255
53.269424 -227.720118 -138.297388 0 120 255
51.494198 -227.661825 -140.019435 0 120 255
49.795349 -227.606583 -141.813564 0 120 255
48.181146 -227.554722 -143.687580 0 120 255
46.566944 -227.502861 -145.561596 0 120 255
44.952742 -227.451000 -147.435611 0 120 255
43.411671 -227.402018 -149.367334 0 120 255
41.966770 -227.356822 -151.374942 0 120 255
40.521869 -227.311626 -153.382551 0 120 255
39.076968 -227.266430 -155.390159 0 120 255
37.700680 -227.223901 -157.442894 0 120 255
36.431889 -227.185549 -159.566327 0 120 255
35.163097 -227.147196 -161.689761 0 120 255
33.894305 -227.108844 -163.813194 0 120 255
32.688622 -227.072918 -165.970880 0 120 255
31.601558 -227.041554 -168.192947 0 120 255
30.514494 -227.010190 -170.415014 0 120 255
29.427430 -226.978826 -172.637081 0 120 255
28.397210 -226.949629 -174.884139 0 120 255
27.496551 -226.925373 -177.188157 0 120 255
26.595892 -226.901117 -179.492174 0 120 255
25.695233 -226.876860 -181.796192 0 120 255
24.844575 -226.854487 -184.117461 0 120 255
24.134276 -226.837400 -186.487157 0 120 255
23.423977 -226.820313 -188.856852 0 120 255
22.713678 -226.803225 -191.226548 0 120 255
22.046065 -226.787734 -193.607188 0 120 255
21.529445 -226.777889 -196.026543 0 120 255
21.012824 -226.768044 -198.445899 0 120 255
20.496204 -226.758198 -200.865254 0 120 255
20.014573 -226.749651 -203.290622 0 120 255
19.694330 -226.747090 -205.743724 0 120 255
19.374087 -226.744530 -208.196827 0 120 255
19.053844 -226.741969 -210.649929 0 120 255
18.760592 -226.740401 -213.105454 0 120 255
18.638823 -226.745143 -215.576369 0 120 255
18.517054 -226.749884 -218.047285 0 120 255
18.395284 -226.754626 -220.518200 0 120 255
18.292274 -226.760051 -222.989279 0 120 255
18.370390 -226.772082 -225.461935 0 120 255
18.448505 -226.784114 -227.934590 0 120 255
18.526621 -226.796145 -230.407246 0 120 255
18.615111 -226.808551 -232.879149 0 120 255
18.893686 -226.827822 -235.337258 0 120 255
19.172261 -226.847093 -237.795366 0 120 255
19.450837 -226.866363 -240.253475 0 120 255
19.731354 -226.885704 -242.711282 0 120 255
20.209861 -226.912148 -245.138338 0 120 255
20.688369 -226.938593 -247.565395 0 120 255
21.166877 -226.965037 -249.992452 0 120 255
21.645385 -226.991481 -252.419509 0 120 255
22.315556 -227.024724 -254.800420 0 120 255
22.992120 -227.058194 -257.179793 0 120 255
23.668684 -227.091663 -259.559166 0 120 255
24.345248 -227.125133 -261.938538 0 120 255
25.201877 -227.164926 -264.258450 0 120 255
26.072939 -227.205226 -266.573596 0 120 255
26.944002 -227.245526 -268.888741 0 120 255
27.815065 -227.285825 -271.203887 0 120 255
28.853240 -227.331931 -273.447991 0 120 255
29.913370 -227.378800 -275.682762 0 120 255
30.973500 -227.425669 -277.917533 0 120 255
32.033630 -227.472537 -280.152304 0 120 255
33.246684 -227.524695 -282.306472 0 120 255
34.488438 -227.577844 -284.445513 0 120 255
35.730191 -227.630994 -286.584554 0 120 255
36.971945 -227.684144 -288.723595 0 120 255
38.351521 -227.741972 -290.774695 0 120 255
39.765533 -227.800968 -292.803824 0 120 255
41.179544 -227.859965 -294.832953 0 120 255
42.593556 -227.918961 -296.862082 0 120 255
44.129693 -227.982071 -298.798331 0 120 255
45.704778 -228.046493 -300.704959 0 120 255
47.279863 -228.110915 -302.611587 0 120 255
48.854948 -228.175337 -304.518215 0 120 255
50.536324 -228.243288 -306.329443 0 120 255
52.259800 -228.312637 -308.102884 0 120 255
53.983275 -228.381987 -309.876326 0 120 255
55.706751 -228.451336 -311.649768 0 120 255
57.520957 -228.523676 -313.327656 0 120 255
59.378976 -228.597461 -314.959402 0 120 255
61.236994 -228.671246 -316.591149 0 120 255
63.095012 -228.745031 -318.222896 0 120 255
65.028865 -228.821358 -319.761152 0 120 255
67.006799 -228.899162 -321.245065 0 120 255
68.984733 -228.976967 -322.728978 0 120 255
70.962666 -229.054771 -324.212891 0 120 255
73.002499 -229.134556 -325.607449 0 120 255
75.085272 -229.215715 -326.940019 0 120 255
77.168044 -229.296874 -328.272590 0 120 255
79.250817 -229.378033 -329.605160 0 120 255
81.382754 -229.459990 -330.854440 0 120 255
83.555174 -229.542604 -332.035135 0 120 255
85.727593 -229.625219 -333.215830 0 120 255
87.900013 -229.707834 -334.396525 0 120 255
90.109710 -229.785642 -335.503205 0 120 255
92.355748 -229.858765 -336.537728 0 120 255
94.601787 -229.931889 -337.572250 0 120 255
96.847826 -230.005012 -338.606773 0 120 255
99.121163 -230.068149 -339.577634 0 120 255
101.426005 -230.119762 -340.475026 0 120 255
103.730847 -230.171374 -341.372417 0 120 255
106.035690 -230.222987 -342.269809 0 120 255
108.359881 -230.261554 -343.113766 0 120 255
110.710566 -230.282259 -343.884560 0 120 255
113.061252 -230.302963 -344.655354 0 120 255
115.411937 -230.323668 -345.426148 0 120 255
117.775771 -230.330065 -346.153334 0 120 255
120.161067 -230.313108 -346.809344 0 120 255
122.546363 -230.296152 -347.465354 0 120 255
124.931659 -230.279195 -348.121363 0 120 255
127.325422 -230.248049 -348.742928 0 120 255
129.735788 -230.189077 -349.296943 0 120 255
132.146153 -230.130105 -349.850958 0 120 255
134.556519 -230.071133 -350.404973 0 120 255
136.971959 -229.999168 -350.932845 0 120 255
139.399498 -229.896224 -351.398387 0 120 255
141.827037 -229.793280 -351.863930 0 120 255
144.254577 -229.690336 -352.329472 0 120 255
146.684872 -229.576376 -352.776149 0 120 255
149.123296 -229.429933 -353.167197 0 120 255
151.561719 -229.283490 -353.558245 0 120 255
154.000143 -229.137047 -353.949293 0 120 255
156.439859 -228.982015 -354.327622 0 120 255
158.884413 -228.794864 -354.658390 0 120 255
161.328966 -228.607713 -354.989157 0 120 255
163.773519 -228.420562 -355.319924 0 120 255
166.218519 -228.227624 -355.643331 0 120 255
168.665718 -228.006166 -355.930465 0 120 255
171.112917 -227.784709 -356.217599 0 120 255
173.560117 -227.563251 -356.504732 0 120 255
176.007279 -227.340535 -356.791184 0 120 255
178.454184 -227.109126 -357.072920 0 120 255
180.901090 -226.877718 -357.354656 0 120 255
183.347996 -226.646309 -357.636393 0 120 255
185.794902 -226.414900 -357.918130 0 120 255
188.241805 -226.183481 -358.199879 0 120 255
190.688708 -225.952061 -358.481628 0 120 255
193.135612 -225.720641 -358.763377 0 120 255
195.582515 -225.489222 -359.045125 0 120 255
198.029420 -225.257807 -359.326867 0 120 255
200.476324 -225.026391 -359.608608 0 120 255
202.923229 -224.794976 -359.890349 0 120 255
205.370133 -224.563560 -360.172091 0 120 255
