ply
format ascii 1.0
element vertex 385
property float x
property float y
property float z
property uchar red
property uchar green
property uchar blue
end_header
77.430455 -42.474882 -360.397637 0 120 255
77.187562 -42.528709 -357.936025 0 120 255
76.944668 -42.582537 -355.474413 0 120 255
76.701774 -42.636364 -353.012801 0 120 255
76.458881 -42.690192 -350.551189 0 120 255
76.214542 -42.752201 -348.089913 0 120 255
75.970139 -42.814566 -345.628652 0 120 255
75.725737 -42.876932 -343.167391 0 120 255
75.481334 -42.939298 -340.706130 0 120 255
75.162175 -43.096766 -338.257990 0 120 255
74.836054 -43.263090 -335.811072 0 120 255
74.509934 -43.429414 -333.364154 0 120 255
74.183813 -43.595738 -330.917235 0 120 255
73.789934 -43.838866 -328.487101 0 120 255
73.385851 -44.093561 -326.059494 0 120 255
72.981768 -44.348255 -323.631887 0 120 255
72.577686 -44.602949 -321.204280 0 120 255
72.110822 -44.925353 -318.796457 0 120 255
71.630495 -45.262278 -316.392877 0 120 255
71.150168 -45.599203 -313.989298 0 120 255
70.669841 -45.936128 -311.585718 0 120 255
70.131355 -46.332508 -309.204074 0 120 255
69.576245 -46.745882 -306.828700 0 120 255
69.021135 -47.159255 -304.453325 0 120 255
68.466025 -47.572629 -302.077951 0 120 255
67.857064 -48.037994 -299.725978 0 120 255
67.228393 -48.522389 -297.382570 0 120 255
66.599721 -49.006784 -295.039162 0 120 255
65.971049 -49.491179 -292.695754 0 120 255
65.292543 -50.020859 -290.376669 0 120 255
64.591272 -50.571226 -288.068695 0 120 255
63.890000 -51.121594 -285.760722 0 120 255
63.188729 -51.671961 -283.452748 0 120 255
62.441413 -52.261607 -281.169578 0 120 255
61.668296 -52.873264 -278.900306 0 120 255
60.895178 -53.484921 -276.631035 0 120 255
60.122061 -54.096577 -274.361763 0 120 255
59.306488 -54.742147 -272.117420 0 120 255
58.462061 -55.410766 -269.890018 0 120 255
57.617634 -56.079385 -267.662616 0 120 255
56.773207 -56.748004 -265.435214 0 120 255
55.889763 -57.445754 -263.232565 0 120 255
54.974390 -58.167342 -261.050175 0 120 255
54.059016 -58.888930 -258.867784 0 120 255
53.143643 -59.610518 -256.685393 0 120 255
52.192574 -60.356987 -254.527329 0 120 255
51.206458 -61.127885 -252.393150 0 120 255
50.220343 -61.898782 -250.258971 0 120 255
49.234227 -62.669680 -248.124791 0 120 255
48.215657 -63.461678 -246.014280 0 120 255
47.158886 -64.278514 -243.931627 0 120 255
46.102115 -65.095349 -241.848975 0 120 255
45.045344 -65.912185 -239.766322 0 120 255
43.959307 -66.746765 -237.706458 0 120 255
42.831878 -67.606442 -235.678828 0 120 255
41.704448 -68.466119 -233.651197 0 120 255
40.577019 -69.325797 -231.623567 0 120 255
39.423490 -70.200237 -229.617622 0 120 255
38.225358 -71.099905 -227.648738 0 120 255
37.027226 -71.999573 -225.679854 0 120 255
35.829094 -72.899241 -223.710970 0 120 255
34.608025 -73.811020 -221.762429 0 120 255
33.339148 -74.748042 -219.856289 0 120 255
32.070271 -75.685064 -217.950149 0 120 255
30.801395 -76.622086 -216.044009 0 120 255
29.512750 -77.568863 -214.156609 0 120 255
28.173130 -78.540793 -212.317534 0 120 255
26.833510 -79.512723 -210.478458 0 120 255
25.493891 -80.484653 -208.639383 0 120 255
24.137687 -81.464240 -206.817149 0 120 255
22.727436 -82.468781 -205.049801 0 120 255
21.317184 -83.473322 -203.282454 0 120 255
19.906933 -84.477863 -201.515107 0 120 255
18.483292 -85.488197 -199.762370 0 120 255
17.002675 -86.523177 -198.071804 0 120 255
15.522057 -87.558158 -196.381238 0 120 255
14.041440 -88.593139 -194.690671 0 120 255
12.550627 -89.632257 -193.012105 0 120 255
11.000150 -90.695592 -191.403761 0 120 255
9.449674 -91.758926 -189.795416 0 120 255
7.899198 -92.822260 -188.187072 0 120 255
6.341693 -93.888274 -186.587693 0 120 255
4.722159 -94.977929 -185.067434 0 120 255
3.102624 -96.067584 -183.547174 0 120 255
1.483090 -97.157239 -182.026915 0 120 255
-0.140367 -98.248298 -180.512109 0 120 255
-1.827776 -99.362248 -179.086208 0 120 255
-3.515184 -100.476198 -177.660306 0 120 255
-5.202593 -101.590148 -176.234405 0 120 255
-6.890929 -102.704410 -174.809919 0 120 255
-8.644557 -103.840617 -173.485060 0 120 255
-10.398185 -104.976825 -172.160202 0 120 255
-12.151813 -106.113032 -170.835343 0 120 255
-13.905441 -107.249239 -169.510485 0 120 255
-15.721186 -108.404994 -168.290541 0 120 255
-17.538824 -109.561345 -167.073794 0 120 255
-19.356462 -110.717695 -165.857047 0 120 255
-21.174100 -111.874046 -164.640300 0 120 255
-23.048423 -113.047022 -163.530664 0 120 255
-24.927205 -114.221305 -162.429454 0 120 255
-26.805988 -115.395588 -161.328244 0 120 255
-28.684770 -116.569871 -160.227034 0 120 255
-30.614401 -117.757916 -159.234775 0 120 255
-32.550709 -118.947767 -158.256821 0 120 255
-34.487017 -120.137619 -157.278868 0 120 255
-36.423325 -121.327470 -156.300915 0 120 255
-38.404252 -122.528284 -155.433331 0 120 255
-40.393611 -123.731169 -154.586604 0 120 255
-42.382970 -124.934055 -153.739877 0 120 255
-44.372328 -126.136940 -152.893150 0 120 255
-46.399704 -127.348020 -152.157652 0 120 255
-48.436676 -128.561168 -151.450233 0 120 255
-50.473649 -129.774316 -150.742814 0 120 255
-52.510622 -130.987464 -150.035395 0 120 255
-54.578689 -132.206089 -149.439450 0 120 255
-56.656787 -133.426480 -148.879469 0 120 255
-58.734886 -134.646871 -148.319488 0 120 255
-60.812985 -135.867262 -147.759507 0 120 255
-62.914993 -137.090462 -147.310502 0 120 255
-65.026579 -138.314787 -146.905951 0 120 255
-67.138165 -139.539112 -146.501400 0 120 255
-69.249751 -140.763437 -146.096848 0 120 255
-71.377891 -141.987975 -145.801973 0 120 255
-73.514104 -143.212619 -145.560581 0 120 255
-75.650317 -144.437262 -145.319189 0 120 255
-77.786531 -145.661905 -145.077797 0 120 255
-79.931885 -146.884252 -144.943862 0 120 255
-82.082591 -148.105255 -144.872847 0 120 255
-84.233297 -149.326257 -144.801833 0 120 255
-86.384004 -150.547259 -144.730818 0 120 255
-88.536508 -151.763587 -144.764112 0 120 255
-90.690263 -152.976659 -144.870040 0 120 255
-92.844019 -154.189731 -144.975968 0 120 255
-94.997775 -155.402802 -145.081896 0 120 255
-97.146201 -156.609002 -145.287961 0 120 255
-99.290242 -157.809546 -145.576421 0 120 255
-101.434283 -159.010090 -145.864882 0 120 255
-103.578324 -160.210635 -146.153342 0 120 255
-105.710303 -161.402321 -146.536778 0 120 255
-107.830602 -162.585427 -147.012195 0 120 255
-109.950900 -163.768534 -147.487612 0 120 255
-112.071198 -164.951641 -147.963029 0 120 255
-114.173279 -166.124170 -148.527277 0 120 255
-116.254626 -167.284661 -149.192621 0 120 255
-118.335973 -168.445152 -149.857965 0 120 255
-120.417320 -169.605643 -150.523310 0 120 255
-122.475053 -170.754162 -151.270424 0 120 255
-124.501187 -171.886661 -152.126960 0 120 255
-126.527321 -173.019161 -152.983496 0 120 255
-128.553456 -174.151660 -153.840031 0 120 255
-130.551531 -175.271170 -154.770459 0 120 255
-132.505340 -176.370186 -155.817465 0 120 255
-134.459150 -177.469203 -156.864470 0 120 255
-136.412959 -178.568219 -157.911476 0 120 255
-138.335391 -179.653642 -159.023844 0 120 255
-140.199153 -180.713647 -160.258432 0 120 255
-142.062916 -181.773653 -161.493019 0 120 255
-143.926678 -182.833658 -162.727607 0 120 255
-145.757024 -183.879923 -164.018566 0 120 255
-147.512710 -184.895490 -165.435470 0 120 255
-149.268397 -185.911057 -166.852374 0 120 255
-151.024083 -186.926623 -168.269278 0 120 255
-152.745713 -187.928776 -169.733341 0 120 255
-154.375334 -188.894686 -171.324812 0 120 255
-156.004955 -189.860596 -172.916283 0 120 255
-157.634576 -190.826507 -174.507754 0 120 255
-159.230981 -191.779814 -176.137213 0 120 255
-160.716972 -192.691226 -177.892942 0 120 255
-162.202963 -193.602638 -179.648671 0 120 255
-163.688954 -194.514051 -181.404401 0 120 255
-165.144069 -195.414134 -183.189286 0 120 255
-166.469695 -196.266707 -185.096447 0 120 255
-167.795321 -197.119280 -187.003608 0 120 255
-169.120947 -197.971852 -188.910769 0 120 255
-170.419508 -198.814801 -190.838891 0 120 255
-171.569285 -199.604844 -192.882239 0 120 255
-172.719062 -200.394886 -194.925588 0 120 255
-173.868839 -201.184928 -196.968937 0 120 255
-174.996737 -201.967424 -199.025980 0 120 255
-175.956826 -202.692040 -201.188060 0 120 255
-176.916914 -203.416655 -203.350140 0 120 255
-177.877003 -204.141271 -205.512220 0 120 255
-178.821616 -204.860709 -207.681930 0 120 255
-179.580198 -205.517909 -209.943361 0 120 255
-180.338780 -206.175110 -212.204792 0 120 255
-181.097362 -206.832311 -214.466222 0 120 255
-181.847877 -207.486897 -216.730651 0 120 255
-182.395439 -208.075695 -219.070506 0 120 255
-182.943001 -208.664494 -221.410360 0 120 255
-183.490563 -209.253293 -223.750215 0 120 255
-184.038125 -209.842091 -226.090069 0 120 255
-184.367819 -210.362609 -228.486269 0 120 255
-184.697431 -210.883101 -230.882489 0 120 255
-185.027042 -211.403593 -233.278709 0 120 255
-185.356654 -211.924085 -235.674930 0 120 255
-185.472793 -212.380101 -238.103493 0 120 255
-185.580244 -212.833494 -240.533373 0 120 255
-185.687695 -213.286886 -242.963254 0 120 255
-185.795146 -213.740278 -245.393134 0 120 255
-185.696436 -214.133951 -247.832970 0 120 255
-185.580296 -214.522574 -250.273649 0 120 255
-185.464155 -214.911197 -252.714327 0 120 255
-185.348014 -215.299820 -255.155006 0 120 255
-185.035620 -215.634269 -257.585330 0 120 255
-184.697230 -215.961542 -260.014283 0 120 255
-184.358840 -216.288814 -262.443236 0 120 255
-184.020450 -216.616087 -264.872189 0 120 255
-183.497870 -216.895351 -267.272917 0 120 255
-182.941199 -217.165730 -269.668421 0 120 255
-182.384528 -217.436110 -272.063926 0 120 255
-181.827857 -217.706489 -274.459430 0 120 255
-181.100775 -217.935441 -276.811540 0 120 255
-180.332253 -218.154319 -279.153098 0 120 255
-179.563732 -218.373197 -281.494657 0 120 255
-178.795211 -218.592075 -283.836215 0 120 255
-177.871255 -218.776328 -286.122047 0 120 255
-176.899486 -218.949930 -288.390737 0 120 255
-175.927717 -219.123532 -290.659427 0 120 255
-174.955948 -219.297134 -292.928118 0 120 255
-173.844445 -219.442962 -295.131616 0 120 255
-172.679908 -219.578248 -297.310373 0 120 255
-171.515372 -219.713535 -299.489129 0 120 255
-170.350835 -219.848822 -301.667886 0 120 255
-169.062530 -219.963025 -303.774785 0 120 255
-167.717253 -220.067524 -305.848607 0 120 255
-166.371976 -220.172022 -307.922428 0 120 255
-165.026698 -220.276521 -309.996250 0 120 255
-163.573580 -220.366777 -311.994256 0 120 255
-162.060961 -220.449175 -313.950432 0 120 255
-160.548342 -220.531573 -315.906607 0 120 255
-159.035723 -220.613971 -317.862782 0 120 255
-157.430167 -220.690748 -319.741096 0 120 255
-155.763655 -220.763838 -321.568340 0 120 255
-154.097142 -220.836928 -323.395585 0 120 255
-152.430630 -220.910018 -325.222829 0 120 255
-150.685217 -220.983621 -326.972117 0 120 255
-148.878636 -221.057622 -328.660967 0 120 255
-147.072055 -221.131623 -330.349818 0 120 255
-145.265474 -221.205624 -332.038669 0 120 255
-143.393937 -221.280731 -333.652397 0 120 255
-141.463035 -221.356850 -335.197471 0 120 255
-139.532133 -221.432969 -336.742544 0 120 255
-137.601231 -221.509087 -338.287617 0 120 255
-135.618167 -221.586417 -339.762279 0 120 255
-133.578884 -221.665053 -341.161052 0 120 255
-131.539600 -221.743689 -342.559826 0 120 255
-129.500317 -221.822324 -343.958600 0 120 255
-127.419915 -221.902305 -345.292561 0 120 255
-125.287137 -221.984000 -346.543965 0 120 255
-123.154359 -222.065694 -347.795368 0 120 255
-121.021581 -222.147389 -349.046772 0 120 255
-118.857238 -222.230161 -350.239901 0 120 255
-116.645175 -222.314562 -351.344925 0 120 255
-114.433111 -222.398964 -352.449949 0 120 255
-112.221047 -222.483366 -353.554973 0 120 255
-109.985466 -222.568522 -354.608833 0 120 255
-107.707388 -222.655043 -355.570239 0 120 255
-105.429309 -222.741564 -356.531645 0 120 255
-103.151231 -222.828085 -357.493051 0 120 255
-100.856218 -222.915092 -358.410630 0 120 255
-98.524241 -223.003159 -359.232554 0 120 255
-96.192265 -223.091225 -360.054477 0 120 255
-93.860288 -223.179292 -360.876400 0 120 255
-91.516622 -223.267660 -361.661841 0 120 255
-89.141665 -223.356835 -362.349632 0 120 255
-86.766709 -223.446011 -363.037424 0 120 255
-84.391752 -223.535186 -363.725215 0 120 255
-82.009144 -223.624536 -364.383648 0 120 255
-79.600861 -223.714473 -364.943571 0 120 255
-77.192579 -223.804410 -365.503494 0 120 255
-74.784296 -223.894347 -366.063418 0 120 255
-72.371357 -223.984372 -366.600760 0 120 255
-69.938181 -224.074779 -367.039978 0 120 255
-67.505006 -224.165186 -367.479196 0 120 255
-65.071831 -224.255593 -367.918414 0 120 255
-62.636096 -224.346033 -368.341291 0 120 255
-60.185202 -224.436670 -368.667376 0 120 255
-57.734308 -224.527306 -368.993460 0 120 255
-55.283414 -224.617942 -369.319545 0 120 255
-52.831330 -224.708580 -369.634941 0 120 255
-50.368736 -224.799238 -369.855933 0 120 255
-47.906141 -224.889896 -370.076924 0 120 255
-45.443547 -224.980553 -370.297916 0 120 255
-42.980554 -225.071204 -370.513222 0 120 255
-40.511190 -225.161742 -370.637620 0 120 255
-38.041827 -225.252280 -370.762019 0 120 255
-35.572463 -225.342818 -370.886418 0 120 255
-33.103054 -225.433353 -371.009413 0 120 255
-30.630819 -225.523662 -371.045814 0 120 255
-28.158584 -225.613970 -371.082216 0 120 255
-25.686349 -225.704279 -371.118617 0 120 255
-23.214113 -225.794588 -371.155018 0 120 255
-20.741966 -225.884593 -371.114425 0 120 255
-18.269820 -225.974590 -371.071693 0 120 255
-15.797675 -226.064587 -371.028961 0 120 255
-13.325530 -226.154584 -370.986228 0 120 255
-10.855430 -226.244236 -370.878172 0 120 255
-8.385485 -226.333862 -370.765192 0 120 255
-5.915539 -226.423489 -370.652212 0 120 255
-3.445594 -226.513115 -370.539232 0 120 255
-0.978809 -226.602427 -370.371767 0 120 255
1.487572 -226.691699 -370.197349 0 120 255
3.953953 -226.780971 -370.022931 0 120 255
6.420335 -226.870244 -369.848513 0 120 255
8.883118 -226.959176 -369.629762 0 120 255
11.345234 -227.048046 -369.402798 0 120 255
13.807351 -227.136916 -369.175835 0 120 255
16.269467 -227.225786 -368.948871 0 120 255
18.728058 -227.314365 -368.686944 0 120 255
21.185770 -227.402872 -368.416307 0 120 255
23.643483 -227.491379 -368.145671 0 120 255
26.101195 -227.579885 -367.875035 0 120 255
28.555820 -227.668109 -367.577997 0 120 255
31.009458 -227.756242 -367.272505 0 120 255
33.463095 -227.844375 -366.967014 0 120 255
35.916732 -227.932508 -366.661522 0 120 255
38.367960 -228.020357 -366.337411 0 120 255
40.818226 -228.108093 -366.005854 0 120 255
43.268491 -228.195830 -365.674298 0 120 255
45.718757 -228.283566 -365.342742 0 120 255
48.167421 -228.370926 -364.999566 0 120 255
50.615302 -228.458101 -364.650701 0 120 255
53.063183 -228.545277 -364.301836 0 120 255
55.511064 -228.632453 -363.952970 0 120 255
57.958214 -228.718966 -363.598876 0 120 255
60.404932 -228.805087 -363.241688 0 120 255
62.851650 -228.891209 -362.884499 0 120 255
65.298367 -228.977330 -362.527310 0 120 255
67.745272 -229.061499 -362.170946 0 120 255
70.192311 -229.144285 -361.815168 0 120 255
72.639349 -229.227070 -361.459389 0 120 255
75.086387 -229.309856 -361.103610 0 120 255
77.534584 -229.387300 -360.754763 0 120 255
79.983760 -229.460237 -360.411766 0 120 255
82.432935 -229.533174 -360.068768 0 120 255
84.882111 -229.606111 -359.725771 0 120 255
87.333136 -229.670843 -359.394867 0 120 255
89.786012 -229.727361 -359.076070 0 120 255
92.238888 -229.783879 -358.757272 0 120 255
94.691764 -229.840397 -358.438475 0 120 255
97.146778 -229.887442 -358.135638 0 120 255
99.604328 -229.923244 -357.851747 0 120 255
102.061878 -229.959046 -357.567856 0 120 255
104.519428 -229.994847 -357.283965 0 120 255
106.979086 -230.020340 -357.019024 0 120 255
109.441719 -230.031298 -356.780800 0 120 255
111.904351 -230.042257 -356.542577 0 120 255
114.366983 -230.053215 -356.304353 0 120 255
116.831394 -230.053442 -356.087193 0 120 255
119.298799 -230.035617 -355.905462 0 120 255
121.766203 -230.017792 -355.723731 0 120 255
124.233607 -229.999967 -355.542000 0 120 255
126.702199 -229.971367 -355.382562 0 120 255
129.173193 -229.920986 -355.268193 0 120 255
131.644187 -229.870605 -355.153824 0 120 255
134.115180 -229.820224 -355.039455 0 120 255
136.586573 -229.759399 -354.947707 0 120 255
139.058949 -229.672919 -354.911533 0 120 255
141.531324 -229.586438 -354.875359 0 120 255
144.003700 -229.499958 -354.839185 0 120 255
146.475581 -229.403708 -354.825068 0 120 255
148.945964 -229.277815 -354.877876 0 120 255
151.416346 -229.151922 -354.930684 0 120 255
153.886729 -229.026029 -354.983492 0 120 255
156.355732 -228.891358 -355.056883 0 120 255
158.819443 -228.723008 -355.209253 0 120 255
161.283153 -228.554657 -355.361622 0 120 255
163.746864 -228.386307 -355.513991 0 120 255
166.208159 -228.209915 -355.686839 0 120 255
168.657310 -227.993093 -355.962659 0 120 255
171.106460 -227.776271 -356.238480 0 120 255
173.555611 -227.559449 -356.514300 0 120 255
176.004509 -227.340797 -356.790865 0 120 255
178.451646 -227.109366 -357.072628 0 120 255
180.898782 -226.877936 -357.354391 0 120 255
183.345919 -226.646506 -357.636154 0 120 255
185.793055 -226.415075 -357.917918 0 120 255
188.240190 -226.183633 -358.199693 0 120 255
190.687324 -225.952192 -358.481469 0 120 255
193.134458 -225.720751 -358.763244 0 120 255
195.581592 -225.489309 -359.045019 0 120 255
198.028727 -225.257872 -359.326787 0 120 255
200.475863 -225.026435 -359.608555 0 120 255
202.922998 -224.794998 -359.890323 0 120 255
205.370133 -224.563560 -360.172091 0 120 255
