ply
format ascii 1.0
element vertex 385
property float x
property float y
property float z
property uchar red
property uchar green
property uchar blue
end_header
77.430455 -42.474882 -360.397637 0 120 255
77.187553 -42.528711 -357.935937 0 120 255
76.944651 -42.582541 -355.474238 0 120 255
76.701749 -42.636370 -353.012539 0 120 255
76.458846 -42.690199 -350.550840 0 120 255
76.213728 -42.754497 -348.089612 0 120 255
75.968512 -42.819249 -345.628406 0 120 255
75.723297 -42.884001 -343.167199 0 120 255
75.478082 -42.948753 -340.705992 0 120 255
75.067933 -43.377223 -338.306994 0 120 255
74.642777 -43.838787 -335.913657 0 120 255
74.217620 -44.300351 -333.520320 0 120 255
73.792464 -44.761916 -331.126983 0 120 255
73.239221 -45.479608 -328.827573 0 120 255
72.667059 -46.235131 -326.542036 0 120 255
72.094897 -46.990653 -324.256499 0 120 255
71.522735 -47.746176 -321.970963 0 120 255
70.860078 -48.680705 -319.780289 0 120 255
70.178389 -49.652879 -317.609566 0 120 255
69.496700 -50.625052 -315.438842 0 120 255
68.815011 -51.597226 -313.268118 0 120 255
68.079731 -52.695179 -311.177979 0 120 255
67.329467 -53.828300 -309.110371 0 120 255
66.579202 -54.961420 -307.042763 0 120 255
65.828938 -56.094541 -304.975155 0 120 255
65.058740 -57.321384 -302.970454 0 120 255
64.281430 -58.581666 -300.988198 0 120 255
63.504121 -59.841949 -299.005942 0 120 255
62.726811 -61.102232 -297.023685 0 120 255
61.958161 -62.439877 -295.090295 0 120 255
61.193351 -63.811832 -293.178577 0 120 255
60.428541 -65.183787 -291.266858 0 120 255
59.663732 -66.555742 -289.355140 0 120 255
58.930027 -67.998427 -287.484835 0 120 255
58.213173 -69.479427 -285.636966 0 120 255
57.496319 -70.960426 -283.789096 0 120 255
56.779466 -72.441426 -281.941226 0 120 255
56.109630 -73.991080 -280.133977 0 120 255
55.470549 -75.585639 -278.353299 0 120 255
54.831467 -77.180199 -276.572620 0 120 255
54.192386 -78.774758 -274.791941 0 120 255
53.610024 -80.436670 -273.056110 0 120 255
53.072135 -82.151390 -271.355441 0 120 255
52.534245 -83.866110 -269.654773 0 120 255
51.996356 -85.580830 -267.954105 0 120 255
51.519529 -87.360066 -266.305190 0 120 255
51.099865 -89.199700 -264.704724 0 120 255
50.680202 -91.039334 -263.104258 0 120 255
50.260538 -92.878968 -261.503792 0 120 255
49.902083 -94.777773 -259.962388 0 120 255
49.611973 -96.742648 -258.486934 0 120 255
49.321863 -98.707523 -257.011480 0 120 255
49.031753 -100.672398 -255.536025 0 120 255
48.800096 -102.688530 -254.125446 0 120 255
48.646399 -104.773026 -252.801394 0 120 255
48.492703 -106.857522 -251.477341 0 120 255
48.339006 -108.942019 -250.153289 0 120 255
48.239261 -111.067920 -248.897242 0 120 255
48.225846 -113.260076 -247.750012 0 120 255
48.212430 -115.452231 -246.602782 0 120 255
48.199015 -117.644387 -245.455552 0 120 255
48.234223 -119.867048 -244.376139 0 120 255
48.363478 -122.148712 -243.427897 0 120 255
48.492733 -124.430377 -242.479655 0 120 255
48.621988 -126.712041 -241.531413 0 120 255
48.794321 -129.013276 -240.647433 0 120 255
49.068535 -131.360797 -239.915439 0 120 255
49.342749 -133.708317 -239.183445 0 120 255
49.616963 -136.055838 -238.451450 0 120 255
49.928772 -138.412892 -237.777113 0 120 255
50.351154 -140.797986 -237.272352 0 120 255
50.773536 -143.183080 -236.767591 0 120 255
51.195918 -145.568173 -236.262831 0 120 255
51.650500 -147.954468 -235.806703 0 120 255
52.225843 -150.345265 -235.532967 0 120 255
52.801186 -152.736062 -235.259231 0 120 255
53.376529 -155.126860 -234.985495 0 120 255
53.978591 -157.512855 -234.749762 0 120 255
54.713411 -159.874994 -234.702843 0 120 255
55.448232 -162.237133 -234.655925 0 120 255
56.183052 -164.599272 -234.609007 0 120 255
56.938779 -166.953376 -234.588816 0 120 255
57.841059 -169.251160 -234.755980 0 120 255
58.743339 -171.548943 -234.923143 0 120 255
59.645620 -173.846727 -235.090307 0 120 255
60.562416 -176.136257 -235.273329 0 120 255
61.640784 -178.333918 -235.632868 0 120 255
62.719153 -180.531579 -235.992407 0 120 255
63.797521 -182.729240 -236.351946 0 120 255
64.883317 -184.921475 -236.718001 0 120 255
66.145880 -186.984534 -237.239137 0 120 255
67.408443 -189.047593 -237.760272 0 120 255
68.671007 -191.110652 -238.281408 0 120 255
69.933570 -193.173711 -238.802544 0 120 255
71.386049 -195.070756 -239.445408 0 120 255
72.838811 -196.967552 -240.088453 0 120 255
74.291573 -198.864349 -240.731499 0 120 255
75.744335 -200.761145 -241.374545 0 120 255
77.381205 -202.472748 -242.088436 0 120 255
79.026352 -204.176026 -242.805513 0 120 255
80.671499 -205.879304 -243.522590 0 120 255
82.316645 -207.582582 -244.239667 0 120 255
84.134760 -209.089307 -244.974353 0 120 255
85.968795 -210.577941 -245.710660 0 120 255
87.802829 -212.066575 -246.446967 0 120 255
89.636864 -213.555208 -247.183274 0 120 255
91.626675 -214.844332 -247.884215 0 120 255
93.638800 -216.104876 -248.580090 0 120 255
95.650926 -217.365419 -249.275966 0 120 255
97.663052 -218.625962 -249.971841 0 120 255
99.807530 -219.692666 -250.582409 0 120 255
101.978375 -220.720754 -251.175983 0 120 255
104.149220 -221.748842 -251.769557 0 120 255
106.320065 -222.776930 -252.363130 0 120 255
108.594142 -223.625060 -252.827384 0 120 255
110.895128 -224.426283 -253.257928 0 120 255
113.196114 -225.227506 -253.688473 0 120 255
115.497100 -226.028728 -254.119017 0 120 255
117.867710 -226.671118 -254.384724 0 120 255
120.261193 -227.261325 -254.596276 0 120 255
122.654677 -227.851533 -254.807828 0 120 255
125.048160 -228.441740 -255.019381 0 120 255
127.474984 -228.899848 -255.041136 0 120 255
129.915277 -229.304590 -254.986217 0 120 255
132.355570 -229.709333 -254.931299 0 120 255
134.795863 -230.114075 -254.876380 0 120 255
137.232729 -230.417021 -254.618388 0 120 255
139.667921 -230.670248 -254.261208 0 120 255
142.103114 -230.923474 -253.904029 0 120 255
144.538306 -231.176701 -253.546850 0 120 255
146.935106 -231.360263 -252.985224 0 120 255
149.309496 -231.503160 -252.304258 0 120 255
151.683886 -231.646057 -251.623293 0 120 255
154.058277 -231.788954 -250.942327 0 120 255
156.363418 -231.893197 -250.066697 0 120 255
158.620614 -231.970676 -249.056288 0 120 255
160.877810 -232.048155 -248.045879 0 120 255
163.135005 -232.125634 -247.035470 0 120 255
165.297457 -232.183624 -245.848400 0 120 255
167.382441 -232.225680 -244.516884 0 120 255
169.467425 -232.267735 -243.185368 0 120 255
171.552409 -232.309791 -241.853852 0 120 255
173.522343 -232.338929 -240.368995 0 120 255
175.381419 -232.355620 -238.736383 0 120 255
177.240494 -232.372310 -237.103771 0 120 255
179.099570 -232.389001 -235.471159 0 120 255
180.829646 -232.397462 -233.712828 0 120 255
182.413329 -232.396583 -231.811826 0 120 255
183.997012 -232.395704 -229.910823 0 120 255
185.580695 -232.394826 -228.009821 0 120 255
187.028773 -232.390051 -226.012843 0 120 255
188.295229 -232.380057 -223.887319 0 120 255
189.561686 -232.370064 -221.761795 0 120 255
190.828142 -232.360070 -219.636272 0 120 255
191.959617 -232.348880 -217.444122 0 120 255
192.876756 -232.335792 -215.146178 0 120 255
193.793895 -232.322703 -212.848234 0 120 255
194.711033 -232.309614 -210.550290 0 120 255
195.500296 -232.296710 -208.212608 0 120 255
196.047051 -232.284155 -205.799568 0 120 255
196.593807 -232.271600 -203.386528 0 120 255
197.140562 -232.259045 -200.973488 0 120 255
197.571834 -232.247091 -198.543563 0 120 255
197.738669 -232.236514 -196.074977 0 120 255
197.905504 -232.225937 -193.606391 0 120 255
198.072338 -232.215361 -191.137805 0 120 255
198.139851 -232.205210 -188.670116 0 120 255
197.928405 -232.196254 -186.204944 0 120 255
197.716960 -232.187299 -183.739772 0 120 255
197.505514 -232.178344 -181.274600 0 120 255
197.213073 -232.169377 -178.822553 0 120 255
196.635197 -232.160372 -176.416760 0 120 255
196.057320 -232.151368 -174.010967 0 120 255
195.479443 -232.142363 -171.605174 0 120 255
194.839527 -232.132894 -169.219199 0 120 255
193.915839 -232.121305 -166.923872 0 120 255
192.992151 -232.109716 -164.628544 0 120 255
192.068463 -232.098127 -162.333217 0 120 255
191.100984 -232.085782 -160.059274 0 120 255
189.859194 -232.068704 -157.919291 0 120 255
188.617403 -232.051626 -155.779309 0 120 255
187.375612 -232.034548 -153.639326 0 120 255
186.106503 -232.016679 -151.517859 0 120 255
184.579618 -231.991338 -149.571107 0 120 255
183.052734 -231.965998 -147.624355 0 120 255
181.525849 -231.940657 -145.677603 0 120 255
179.985569 -231.914746 -143.742915 0 120 255
178.210160 -231.878819 -142.019983 0 120 255
176.434751 -231.842892 -140.297051 0 120 255
174.659342 -231.806965 -138.574119 0 120 255
172.881436 -231.770894 -136.854127 0 120 255
170.896044 -231.722884 -135.378398 0 120 255
168.910653 -231.674874 -133.902668 0 120 255
166.925261 -231.626864 -132.426939 0 120 255
164.939870 -231.578854 -130.951209 0 120 255
162.788769 -231.518628 -129.731330 0 120 255
160.632513 -231.458022 -128.519409 0 120 255
158.476257 -231.397417 -127.307489 0 120 255
156.320002 -231.336811 -126.095569 0 120 255
154.041041 -231.265171 -125.138051 0 120 255
151.752517 -231.192670 -124.200361 0 120 255
149.463992 -231.120169 -123.262672 0 120 255
147.175468 -231.047668 -122.324982 0 120 255
144.802765 -230.966332 -121.634549 0 120 255
142.419178 -230.883853 -120.976090 0 120 255
140.035590 -230.801373 -120.317632 0 120 255
137.652002 -230.718894 -119.659173 0 120 255
135.217946 -230.630960 -119.236451 0 120 255
132.774509 -230.542011 -118.857549 0 120 255
130.331072 -230.453063 -118.478647 0 120 255
127.887635 -230.364114 -118.099745 0 120 255
125.422564 -230.273966 -117.941971 0 120 255
122.952117 -230.183520 -117.839136 0 120 255
120.481671 -230.093074 -117.736301 0 120 255
118.011224 -230.002628 -117.633466 0 120 255
115.543413 -229.912966 -117.735416 0 120 255
113.076439 -229.823553 -117.902476 0 120 255
110.609465 -229.734139 -118.069535 0 120 255
108.142492 -229.644726 -118.236595 0 120 255
105.698201 -229.556935 -118.590889 0 120 255
103.262882 -229.469786 -119.019244 0 120 255
100.827563 -229.382636 -119.447600 0 120 255
98.392244 -229.295487 -119.875955 0 120 255
95.995739 -229.210405 -120.473337 0 120 255
93.617974 -229.126320 -121.152326 0 120 255
91.240209 -229.042235 -121.831315 0 120 255
88.862444 -228.958151 -122.510304 0 120 255
86.536050 -228.876502 -123.339968 0 120 255
84.239535 -228.796270 -124.257270 0 120 255
81.943019 -228.716039 -125.174572 0 120 255
79.646504 -228.635807 -126.091873 0 120 255
77.410683 -228.558266 -127.141725 0 120 255
75.217014 -228.482593 -128.283633 0 120 255
73.023345 -228.406921 -129.425540 0 120 255
70.829676 -228.331249 -130.567448 0 120 255
68.703134 -228.258437 -131.824330 0 120 255
66.631942 -228.187985 -133.176020 0 120 255
64.560751 -228.117532 -134.527709 0 120 255
62.489559 -228.047080 -135.879399 0 120 255
60.489341 -227.979578 -137.329260 0 120 255
58.558406 -227.914956 -138.874956 0 120 255
56.627471 -227.850335 -140.420652 0 120 255
54.696536 -227.785713 -141.966348 0 120 255
52.838121 -227.724040 -143.594366 0 120 255
51.063477 -227.665773 -145.317475 0 120 255
49.288833 -227.607505 -147.040584 0 120 255
47.514189 -227.549237 -148.763694 0 120 255
45.811556 -227.493844 -150.554356 0 120 255
44.207535 -227.442388 -152.437527 0 120 255
42.603514 -227.390932 -154.320697 0 120 255
40.999493 -227.339476 -156.203868 0 120 255
39.465145 -227.290759 -158.141026 0 120 255
38.044414 -227.246510 -160.166225 0 120 255
36.623684 -227.202260 -162.191423 0 120 255
35.202953 -227.158010 -164.216622 0 120 255
33.847945 -227.116310 -166.283553 0 120 255
32.621523 -227.079599 -168.432135 0 120 255
31.395101 -227.042887 -170.580717 0 120 255
30.168680 -227.006176 -172.729299 0 120 255
29.002615 -226.971779 -174.908759 0 120 255
27.979834 -226.942875 -177.161523 0 120 255
26.957054 -226.913971 -179.414288 0 120 255
25.934274 -226.885067 -181.667052 0 120 255
24.965257 -226.858202 -183.941325 0 120 255
24.153663 -226.837307 -186.278576 0 120 255
23.342069 -226.816412 -188.615826 0 120 255
22.530475 -226.795517 -190.953077 0 120 255
21.765039 -226.776354 -193.304038 0 120 255
21.170342 -226.763602 -195.705711 0 120 255
20.575645 -226.750850 -198.107384 0 120 255
19.980948 -226.738097 -200.509058 0 120 255
19.423998 -226.726748 -202.918280 0 120 255
19.049959 -226.722196 -205.364079 0 120 255
18.675920 -226.717645 -207.809879 0 120 255
18.301881 -226.713093 -210.255679 0 120 255
17.956614 -226.709597 -212.704556 0 120 255
17.804982 -226.713209 -215.174142 0 120 255
17.653351 -226.716820 -217.643728 0 120 255
17.501719 -226.720431 -220.113315 0 120 255
17.369559 -226.724752 -222.583219 0 120 255
17.440004 -226.736458 -225.056428 0 120 255
17.510450 -226.748164 -227.529637 0 120 255
17.580895 -226.759870 -230.002846 0 120 255
17.661448 -226.771941 -232.475313 0 120 255
17.951576 -226.791585 -234.932406 0 120 255
18.241703 -226.811229 -237.389498 0 120 255
18.531831 -226.830872 -239.846590 0 120 255
18.822892 -226.850550 -242.303530 0 120 255
19.328223 -226.877893 -244.725462 0 120 255
19.833554 -226.905237 -247.147394 0 120 255
20.338885 -226.932581 -249.569326 0 120 255
20.844216 -226.959925 -251.991258 0 120 255
21.550520 -226.994394 -254.361941 0 120 255
22.264617 -227.029140 -256.730637 0 120 255
22.978714 -227.063886 -259.099333 0 120 255
23.692811 -227.098632 -261.468029 0 120 255
24.591533 -227.139862 -263.772194 0 120 255
25.506093 -227.181649 -266.070823 0 120 255
26.420652 -227.223435 -268.369453 0 120 255
27.335211 -227.265222 -270.668082 0 120 255
28.417336 -227.312832 -272.891586 0 120 255
29.522462 -227.361242 -275.104777 0 120 255
30.627588 -227.409652 -277.317968 0 120 255
31.732714 -227.458062 -279.531159 0 120 255
32.988034 -227.511639 -281.661288 0 120 255
34.272476 -227.566218 -283.775311 0 120 255
35.556917 -227.620797 -285.889334 0 120 255
36.841359 -227.675376 -288.003357 0 120 255
38.258668 -227.734460 -290.028960 0 120 255
39.710054 -227.794699 -292.031885 0 120 255
41.161441 -227.854938 -294.034811 0 120 255
42.612828 -227.915177 -296.037736 0 120 255
44.180133 -227.979303 -297.949332 0 120 255
45.785229 -228.044697 -299.831154 0 120 255
47.390326 -228.110091 -301.712975 0 120 255
48.995422 -228.175485 -303.594796 0 120 255
50.700220 -228.244180 -305.384592 0 120 255
52.445275 -228.314209 -307.137230 0 120 255
54.190331 -228.384238 -308.889868 0 120 255
55.935387 -228.454267 -310.642506 0 120 255
57.764871 -228.527080 -312.304432 0 120 255
59.635834 -228.601261 -313.921793 0 120 255
61.506797 -228.675442 -315.539154 0 120 255
63.377761 -228.749623 -317.156515 0 120 255
65.319086 -228.826234 -318.686148 0 120 255
67.301961 -228.904281 -320.163976 0 120 255
69.284836 -228.982328 -321.641804 0 120 255
71.267712 -229.060375 -323.119632 0 120 255
73.308170 -229.140447 -324.514179 0 120 255
75.389162 -229.221944 -325.850103 0 120 255
77.470154 -229.303442 -327.186027 0 120 255
79.551146 -229.384939 -328.521951 0 120 255
81.678158 -229.466980 -329.780601 0 120 255
83.843589 -229.549475 -330.974739 0 120 255
86.009020 -229.631969 -332.168877 0 120 255
88.174451 -229.714464 -333.363015 0 120 255
90.375170 -229.791670 -334.488551 0 120 255
92.610743 -229.863653 -335.546329 0 120 255
94.846316 -229.935636 -336.604107 0 120 255
97.081889 -230.007619 -337.661885 0 120 255
99.343844 -230.069577 -338.660139 0 120 255
101.636626 -230.119821 -339.588840 0 120 255
103.929409 -230.170064 -340.517541 0 120 255
106.222192 -230.220308 -341.446242 0 120 255
108.534161 -230.257789 -342.324287 0 120 255
110.872717 -230.277586 -343.132141 0 120 255
113.211272 -230.297382 -343.939996 0 120 255
115.549828 -230.317178 -344.747850 0 120 255
117.901850 -230.323008 -345.513525 0 120 255
120.276111 -230.305775 -346.209552 0 120 255
122.650371 -230.288542 -346.905578 0 120 255
125.024631 -230.271309 -347.601605 0 120 255
127.407922 -230.240193 -348.263382 0 120 255
129.809126 -230.181537 -348.857219 0 120 255
132.210329 -230.122882 -349.451056 0 120 255
134.611533 -230.064226 -350.044893 0 120 255
137.018452 -229.992803 -350.611700 0 120 255
139.439152 -229.890588 -351.113320 0 120 255
141.859853 -229.788374 -351.614940 0 120 255
144.280554 -229.686159 -352.116560 0 120 255
146.704607 -229.573043 -352.597578 0 120 255
149.138663 -229.427401 -353.017125 0 120 255
151.572720 -229.281758 -353.436672 0 120 255
154.006776 -229.136116 -353.856219 0 120 255
156.442612 -228.981888 -354.260737 0 120 255
158.885184 -228.795151 -354.608351 0 120 255
161.327755 -228.608415 -354.955964 0 120 255
163.770327 -228.421678 -355.303578 0 120 255
166.213712 -228.229102 -355.641178 0 120 255
168.661157 -228.007353 -355.928751 0 120 255
171.108603 -227.785604 -356.216323 0 120 255
173.556049 -227.563855 -356.503896 0 120 255
176.003467 -227.340895 -356.790745 0 120 255
178.450691 -227.109457 -357.072518 0 120 255
180.897914 -226.878018 -357.354291 0 120 255
183.345138 -226.646580 -357.636064 0 120 255
185.792361 -226.415140 -357.917838 0 120 255
188.239582 -226.183691 -358.199623 0 120 255
190.686803 -225.952241 -358.481409 0 120 255
193.134024 -225.720792 -358.763194 0 120 255
195.581245 -225.489342 -359.044979 0 120 255
198.028467 -225.257897 -359.326757 0 120 255
200.475689 -225.026451 -359.608535 0 120 255
202.922911 -224.795006 -359.890313 0 120 255
205.370133 -224.563560 -360.172091 0 120 255
