ply
format ascii 1.0
element vertex 385
property float x
property float y
property float z
property uchar red
property uchar green
property uchar blue
end_header
77.430455 -42.474882 -360.397637 0 120 255
77.187560 -42.528710 -357.936008 0 120 255
76.944665 -42.582537 -355.474379 0 120 255
76.701769 -42.636365 -353.012750 0 120 255
76.458874 -42.690193 -350.551121 0 120 255
76.213478 -42.754045 -348.089981 0 120 255
75.967973 -42.818334 -345.628862 0 120 255
75.722468 -42.882623 -343.167743 0 120 255
75.476962 -42.946912 -340.706624 0 120 255
75.172513 -43.304211 -338.279096 0 120 255
74.862675 -43.688293 -335.854638 0 120 255
74.552838 -44.072375 -333.430181 0 120 255
74.243001 -44.456456 -331.005723 0 120 255
73.907660 -45.072445 -328.634822 0 120 255
73.568560 -45.722622 -326.271817 0 120 255
73.229461 -46.372799 -323.908812 0 120 255
72.890361 -47.022977 -321.545807 0 120 255
72.550363 -47.869692 -319.247981 0 120 255
72.210178 -48.757577 -316.963807 0 120 255
71.869992 -49.645461 -314.679634 0 120 255
71.529806 -50.533345 -312.395461 0 120 255
71.205684 -51.593084 -310.185580 0 120 255
70.886037 -52.700699 -307.996395 0 120 255
70.566390 -53.808313 -305.807211 0 120 255
70.246742 -54.915928 -303.618027 0 120 255
69.953020 -56.176350 -301.511949 0 120 255
69.668529 -57.491189 -299.435468 0 120 255
69.384038 -58.806028 -297.358986 0 120 255
69.099548 -60.120867 -295.282505 0 120 255
68.845273 -61.571544 -293.297539 0 120 255
68.604405 -63.082488 -291.353178 0 120 255
68.363536 -64.593432 -289.408816 0 120 255
68.122668 -66.104376 -287.464454 0 120 255
67.912584 -67.734406 -285.618681 0 120 255
67.719228 -69.429140 -283.826475 0 120 255
67.525871 -71.123873 -282.034268 0 120 255
67.332515 -72.818606 -280.242061 0 120 255
67.168557 -74.615288 -278.553236 0 120 255
67.023934 -76.479016 -276.932398 0 120 255
66.879310 -78.342744 -275.311560 0 120 255
66.734687 -80.206472 -273.690722 0 120 255
66.617525 -82.154812 -272.175223 0 120 255
66.522059 -84.170000 -270.742947 0 120 255
66.426594 -86.185189 -269.310671 0 120 255
66.331128 -88.200377 -267.878396 0 120 255
66.261588 -90.283139 -266.550407 0 120 255
66.216550 -92.429759 -265.320974 0 120 255
66.171513 -94.576379 -264.091541 0 120 255
66.126475 -96.723000 -262.862109 0 120 255
66.106724 -98.921027 -261.733076 0 120 255
66.115516 -101.177083 -260.717375 0 120 255
66.124309 -103.433138 -259.701674 0 120 255
66.133102 -105.689194 -258.685972 0 120 255
66.167559 -107.981829 -257.764277 0 120 255
66.236661 -110.323843 -256.969476 0 120 255
66.305763 -112.665857 -256.174676 0 120 255
66.374864 -115.007871 -255.379876 0 120 255
66.470827 -117.373313 -254.670596 0 120 255
66.610324 -119.776723 -254.099918 0 120 255
66.749821 -122.180133 -253.529239 0 120 255
66.889318 -124.583543 -252.958561 0 120 255
67.057287 -126.999112 -252.463276 0 120 255
67.281058 -129.438511 -252.115755 0 120 255
67.504829 -131.877910 -251.768234 0 120 255
67.728600 -134.317309 -251.420713 0 120 255
67.982330 -136.759598 -251.137256 0 120 255
68.307867 -139.208815 -251.007349 0 120 255
68.633404 -141.658032 -250.877443 0 120 255
68.958941 -144.107249 -250.747536 0 120 255
69.315195 -146.552162 -250.669612 0 120 255
69.762999 -148.984251 -250.746617 0 120 255
70.210803 -151.416339 -250.823622 0 120 255
70.658607 -153.848427 -250.900627 0 120 255
71.136593 -156.271164 -251.017311 0 120 255
71.729240 -158.658373 -251.284738 0 120 255
72.321886 -161.045581 -251.552165 0 120 255
72.914533 -163.432790 -251.819592 0 120 255
73.535051 -165.807828 -252.114780 0 120 255
74.295742 -168.121657 -252.549586 0 120 255
75.056434 -170.435487 -252.984392 0 120 255
75.817125 -172.749316 -253.419197 0 120 255
76.601319 -175.050482 -253.870965 0 120 255
77.552071 -177.261915 -254.442935 0 120 255
78.502823 -179.473347 -255.014906 0 120 255
79.453574 -181.684780 -255.586876 0 120 255
80.421394 -183.885466 -256.166970 0 120 255
81.580803 -185.965531 -256.838248 0 120 255
82.740212 -188.045596 -257.509527 0 120 255
83.899621 -190.125660 -258.180805 0 120 255
85.067945 -192.199304 -258.854260 0 120 255
86.448682 -194.119981 -259.579572 0 120 255
87.829419 -196.040658 -260.304885 0 120 255
89.210156 -197.961335 -261.030197 0 120 255
90.590893 -199.882012 -261.755510 0 120 255
92.196920 -201.617826 -262.482876 0 120 255
93.803156 -203.353468 -263.210245 0 120 255
95.409391 -205.089111 -263.937613 0 120 255
97.015627 -206.824753 -264.664982 0 120 255
98.831642 -208.362444 -265.339781 0 120 255
100.656824 -209.891484 -266.012283 0 120 255
102.482006 -211.420525 -266.684785 0 120 255
104.307188 -212.949565 -267.357287 0 120 255
106.315883 -214.274890 -267.925103 0 120 255
108.341098 -215.581876 -268.483496 0 120 255
110.366314 -216.888862 -269.041889 0 120 255
112.391529 -218.195847 -269.600282 0 120 255
114.564281 -219.301607 -270.007734 0 120 255
116.757751 -220.379107 -270.393988 0 120 255
118.951222 -221.456608 -270.780242 0 120 255
121.144693 -222.534108 -271.166496 0 120 255
123.442225 -223.421530 -271.364560 0 120 255
125.760110 -224.271775 -271.525817 0 120 255
128.077995 -225.122020 -271.687074 0 120 255
130.395881 -225.972265 -271.848331 0 120 255
132.770139 -226.651690 -271.795700 0 120 255
135.158848 -227.287331 -271.688247 0 120 255
137.547556 -227.922972 -271.580794 0 120 255
139.936264 -228.558613 -271.473341 0 120 255
142.333247 -229.049495 -271.139281 0 120 255
144.732909 -229.493531 -270.731888 0 120 255
147.132570 -229.937568 -270.324495 0 120 255
149.532232 -230.381604 -269.917102 0 120 255
151.895479 -230.711591 -269.283422 0 120 255
154.244207 -230.996104 -268.559515 0 120 255
156.592935 -231.280616 -267.835608 0 120 255
158.941664 -231.565129 -267.111701 0 120 255
161.215902 -231.768432 -266.173624 0 120 255
163.454149 -231.932497 -265.132064 0 120 255
165.692396 -232.096562 -264.090504 0 120 255
167.930642 -232.260627 -263.048944 0 120 255
170.065196 -232.376850 -261.814967 0 120 255
172.139718 -232.465377 -260.469592 0 120 255
174.214240 -232.553903 -259.124217 0 120 255
176.288762 -232.642429 -257.778842 0 120 255
178.240440 -232.713452 -256.269441 0 120 255
180.107518 -232.772422 -254.647081 0 120 255
181.974597 -232.831392 -253.024720 0 120 255
183.841675 -232.890362 -251.402360 0 120 255
185.572889 -232.940171 -249.644030 0 120 255
187.193285 -232.982510 -247.774796 0 120 255
188.813681 -233.024848 -245.905561 0 120 255
190.434077 -233.067187 -244.036327 0 120 255
191.911276 -233.102372 -242.059658 0 120 255
193.250468 -233.130662 -239.979446 0 120 255
194.589659 -233.158953 -237.899235 0 120 255
195.928851 -233.187243 -235.819024 0 120 255
197.123975 -233.210483 -233.659881 0 120 255
198.155083 -233.227972 -231.410876 0 120 255
199.186190 -233.245461 -229.161871 0 120 255
200.217298 -233.262951 -226.912866 0 120 255
201.109407 -233.276951 -224.611622 0 120 255
201.814184 -233.286248 -222.239974 0 120 255
202.518961 -233.295545 -219.868325 0 120 255
203.223738 -233.304842 -217.496677 0 120 255
203.799388 -233.311417 -215.096254 0 120 255
204.168066 -233.313627 -212.649708 0 120 255
204.536744 -233.315837 -210.203163 0 120 255
204.905422 -233.318047 -207.756618 0 120 255
205.158454 -233.317799 -205.300683 0 120 255
205.189354 -233.312831 -202.826711 0 120 255
205.220253 -233.307862 -200.352740 0 120 255
205.251153 -233.302893 -197.878769 0 120 255
205.182258 -233.295518 -195.410279 0 120 255
204.881045 -233.282540 -192.954548 0 120 255
204.579831 -233.269562 -190.498817 0 120 255
204.278618 -233.256584 -188.043086 0 120 255
203.894659 -233.241225 -185.603109 0 120 255
203.273406 -233.219036 -183.208309 0 120 255
202.652154 -233.196847 -180.813510 0 120 255
202.030901 -233.174658 -178.418710 0 120 255
201.344116 -233.150221 -176.045527 0 120 255
200.420257 -233.117652 -173.750547 0 120 255
199.496397 -233.085084 -171.455566 0 120 255
198.572538 -233.052516 -169.160585 0 120 255
197.599648 -233.018000 -166.889062 0 120 255
196.394867 -232.974274 -164.728484 0 120 255
195.190085 -232.930547 -162.567905 0 120 255
193.985303 -232.886821 -160.407326 0 120 255
192.746611 -232.841597 -158.268527 0 120 255
191.285847 -232.786564 -156.272368 0 120 255
189.825083 -232.731531 -154.276208 0 120 255
188.364319 -232.676498 -152.280049 0 120 255
186.882884 -232.620509 -150.301046 0 120 255
185.193363 -232.554902 -148.494744 0 120 255
183.503841 -232.489294 -146.688442 0 120 255
181.814320 -232.423687 -144.882141 0 120 255
180.115153 -232.357654 -143.086005 0 120 255
178.225605 -232.283239 -141.490517 0 120 255
176.336057 -232.208824 -139.895028 0 120 255
174.446509 -232.134408 -138.299540 0 120 255
172.555927 -232.059957 -136.705431 0 120 255
170.495884 -231.979665 -135.337481 0 120 255
168.435841 -231.899373 -133.969531 0 120 255
166.375798 -231.819081 -132.601580 0 120 255
164.315755 -231.738788 -131.233630 0 120 255
162.119900 -231.654562 -130.097878 0 120 255
159.918962 -231.570189 -128.970818 0 120 255
157.718023 -231.485816 -127.843759 0 120 255
155.517084 -231.401443 -126.716700 0 120 255
153.213554 -231.314238 -125.821032 0 120 255
150.901320 -231.226793 -124.944996 0 120 255
148.589086 -231.139348 -124.068960 0 120 255
146.276852 -231.051903 -123.192923 0 120 255
143.892661 -230.962679 -122.543740 0 120 255
141.498631 -230.873211 -121.925575 0 120 255
139.104601 -230.783743 -121.307410 0 120 255
136.710571 -230.694275 -120.689245 0 120 255
134.272427 -230.604007 -120.290337 0 120 255
131.825735 -230.513585 -119.933922 0 120 255
129.379042 -230.423163 -119.577507 0 120 255
126.932350 -230.332740 -119.221091 0 120 255
124.466517 -230.242388 -119.073823 0 120 255
121.995768 -230.152054 -118.980276 0 120 255
119.525019 -230.061720 -118.886729 0 120 255
117.054270 -229.971386 -118.793181 0 120 255
114.586447 -229.881893 -118.896528 0 120 255
112.119582 -229.792674 -119.064240 0 120 255
109.652716 -229.703455 -119.231953 0 120 255
107.185851 -229.614237 -119.399666 0 120 255
104.741007 -229.526494 -119.750129 0 120 255
102.305086 -229.439349 -120.174635 0 120 255
99.869165 -229.352204 -120.599142 0 120 255
97.433244 -229.265059 -121.023648 0 120 255
95.035464 -229.179920 -121.615574 0 120 255
92.656495 -229.095772 -122.290065 0 120 255
90.277526 -229.011623 -122.964556 0 120 255
87.898557 -228.927474 -123.639047 0 120 255
85.570826 -228.845739 -124.464529 0 120 255
83.273469 -228.765434 -125.379525 0 120 255
80.976113 -228.685130 -126.294521 0 120 255
78.678756 -228.604826 -127.209517 0 120 255
76.442666 -228.527243 -128.258361 0 120 255
74.249876 -228.451582 -129.401803 0 120 255
72.057086 -228.375922 -130.545245 0 120 255
69.864296 -228.300262 -131.688688 0 120 255
67.739847 -228.227526 -132.948698 0 120 255
65.672676 -228.157243 -134.306409 0 120 255
63.605506 -228.086959 -135.664120 0 120 255
61.538335 -228.016675 -137.021831 0 120 255
59.543739 -227.949404 -138.479062 0 120 255
57.621091 -227.885118 -140.034955 0 120 255
55.698443 -227.820833 -141.590849 0 120 255
53.775794 -227.756548 -143.146742 0 120 255
51.927257 -227.695273 -144.785684 0 120 255
50.165606 -227.637528 -146.521992 0 120 255
48.403955 -227.579783 -148.258299 0 120 255
46.642305 -227.522037 -149.994607 0 120 255
44.953925 -227.467213 -151.798509 0 120 255
43.367363 -227.416448 -153.696338 0 120 255
41.780801 -227.365682 -155.594167 0 120 255
40.194238 -227.314917 -157.491996 0 120 255
38.677978 -227.266913 -159.443215 0 120 255
37.278062 -227.223478 -161.482789 0 120 255
35.878146 -227.180044 -163.522362 0 120 255
34.478230 -227.136610 -165.561936 0 120 255
33.143950 -227.095716 -167.642242 0 120 255
31.940044 -227.059868 -169.803454 0 120 255
30.736139 -227.024021 -171.964666 0 120 255
29.532233 -226.988173 -174.125879 0 120 255
28.387926 -226.954611 -176.316822 0 120 255
27.387377 -226.926561 -178.579482 0 120 255
26.386829 -226.898511 -180.842141 0 120 255
25.386280 -226.870461 -183.104801 0 120 255
24.438242 -226.844401 -185.387909 0 120 255
23.646650 -226.824267 -187.731942 0 120 255
22.855058 -226.804134 -190.075975 0 120 255
22.063466 -226.784000 -192.420008 0 120 255
21.316496 -226.765537 -194.776925 0 120 255
20.737841 -226.753376 -197.182444 0 120 255
20.159187 -226.741215 -199.587964 0 120 255
19.580532 -226.729055 -201.993483 0 120 255
19.038050 -226.718239 -204.406027 0 120 255
18.674936 -226.714091 -206.853402 0 120 255
18.311823 -226.709943 -209.300777 0 120 255
17.948710 -226.705795 -211.748151 0 120 255
17.612905 -226.702654 -214.198357 0 120 255
17.466321 -226.706483 -216.668177 0 120 255
17.319738 -226.710313 -219.137997 0 120 255
17.173155 -226.714142 -221.607817 0 120 255
17.044833 -226.718637 -224.077919 0 120 255
17.114501 -226.730347 -226.551080 0 120 255
17.184168 -226.742058 -229.024240 0 120 255
17.253835 -226.753769 -231.497400 0 120 255
17.332683 -226.765811 -233.969900 0 120 255
17.616870 -226.785262 -236.427617 0 120 255
17.901056 -226.804714 -238.885333 0 120 255
18.185243 -226.824165 -241.343050 0 120 255
18.469680 -226.843626 -243.800727 0 120 255
18.965089 -226.870634 -246.224640 0 120 255
19.460499 -226.897642 -248.648552 0 120 255
19.955908 -226.924650 -251.072465 0 120 255
20.451317 -226.951658 -253.496378 0 120 255
21.144758 -226.985691 -255.870770 0 120 255
21.846539 -227.020020 -258.243076 0 120 255
22.548320 -227.054349 -260.615382 0 120 255
23.250101 -227.088678 -262.987689 0 120 255
24.135391 -227.129467 -265.296963 0 120 255
25.037067 -227.170832 -267.600608 0 120 255
25.938744 -227.212197 -269.904253 0 120 255
26.840421 -227.253563 -272.207898 0 120 255
27.910212 -227.300752 -274.437262 0 120 255
29.003699 -227.348763 -276.656157 0 120 255
30.097185 -227.396773 -278.875052 0 120 255
31.190672 -227.444784 -281.093947 0 120 255
32.436264 -227.498028 -283.229651 0 120 255
33.711931 -227.552307 -285.348905 0 120 255
34.987598 -227.606585 -287.468160 0 120 255
36.263265 -227.660864 -289.587414 0 120 255
37.674612 -227.719748 -291.617008 0 120 255
39.121295 -227.779832 -293.623251 0 120 255
40.567979 -227.839915 -295.629493 0 120 255
42.014663 -227.899999 -297.635735 0 120 255
43.580454 -227.964078 -299.548357 0 120 255
45.185564 -228.029475 -301.430074 0 120 255
46.790675 -228.094873 -303.311790 0 120 255
48.395785 -228.160271 -305.193506 0 120 255
50.103760 -228.229074 -306.980005 0 120 255
51.853705 -228.299266 -308.727655 0 120 255
53.603650 -228.369458 -310.475304 0 120 255
55.353595 -228.439650 -312.222954 0 120 255
57.190771 -228.512702 -313.876058 0 120 255
59.071181 -228.587171 -315.482304 0 120 255
60.951591 -228.661640 -317.088550 0 120 255
62.832000 -228.736109 -318.694796 0 120 255
64.784927 -228.813016 -320.209236 0 120 255
66.780996 -228.891374 -321.669059 0 120 255
68.777064 -228.969732 -323.128881 0 120 255
70.773133 -229.048089 -324.588704 0 120 255
72.828198 -229.128501 -325.961252 0 120 255
74.925059 -229.210369 -327.271972 0 120 255
77.021919 -229.292237 -328.582692 0 120 255
79.118780 -229.374104 -329.893412 0 120 255
81.262335 -229.456778 -331.123261 0 120 255
83.445087 -229.540127 -332.285224 0 120 255
85.627839 -229.623476 -333.447187 0 120 255
87.810592 -229.706826 -334.609149 0 120 255
90.028803 -229.785677 -335.699310 0 120 255
92.282202 -229.860064 -336.718216 0 120 255
94.535602 -229.934452 -337.737122 0 120 255
96.789001 -230.008839 -338.756029 0 120 255
99.068419 -230.073461 -339.713222 0 120 255
101.378360 -230.126626 -340.598015 0 120 255
103.688301 -230.179791 -341.482808 0 120 255
105.998242 -230.232956 -342.367600 0 120 255
108.326639 -230.273062 -343.200694 0 120 255
110.680694 -230.295010 -343.961913 0 120 255
113.034750 -230.316959 -344.723131 0 120 255
115.388805 -230.338907 -345.484349 0 120 255
117.755419 -230.346418 -346.203407 0 120 255
120.142827 -230.330024 -346.852658 0 120 255
122.530235 -230.313630 -347.501910 0 120 255
124.917643 -230.297236 -348.151161 0 120 255
127.313142 -230.266491 -348.767124 0 120 255
129.724724 -230.207217 -349.316917 0 120 255
132.136306 -230.147943 -349.866710 0 120 255
134.547887 -230.088669 -350.416502 0 120 255
136.964323 -230.016288 -350.940997 0 120 255
139.392481 -229.912254 -351.404398 0 120 255
141.820638 -229.808220 -351.867800 0 120 255
144.248796 -229.704186 -352.331201 0 120 255
146.679594 -229.589119 -352.776289 0 120 255
149.118278 -229.441121 -353.166712 0 120 255
151.556962 -229.293123 -353.557135 0 120 255
153.995646 -229.145125 -353.947558 0 120 255
156.435580 -228.988646 -354.325563 0 120 255
158.880244 -228.800073 -354.656573 0 120 255
161.324909 -228.611501 -354.987584 0 120 255
163.769574 -228.422928 -355.318594 0 120 255
166.214697 -228.228821 -355.642303 0 120 255
168.662107 -228.007124 -355.929611 0 120 255
171.109518 -227.785428 -356.216919 0 120 255
173.556928 -227.563731 -356.504227 0 120 255
176.004306 -227.340816 -356.790841 0 120 255
178.451460 -227.109384 -357.072606 0 120 255
180.898613 -226.877952 -357.354371 0 120 255
183.345767 -226.646520 -357.636136 0 120 255
185.792920 -226.415087 -357.917902 0 120 255
188.240071 -226.183645 -358.199679 0 120 255
190.687222 -225.952202 -358.481457 0 120 255
193.134373 -225.720759 -358.763234 0 120 255
195.581524 -225.489316 -359.045011 0 120 255
198.028676 -225.257877 -359.326781 0 120 255
200.475829 -225.026438 -359.608551 0 120 255
202.922981 -224.794999 -359.890321 0 120 255
205.370133 -224.563560 -360.172091 0 120 255
