ply
format ascii 1.0
element vertex 385
property float x
property float y
property float z
property uchar red
property uchar green
property uchar blue
end_header
77.430455 -42.474882 -360.397637 0 120 255
77.187574 -42.528707 -357.936149 0 120 255
76.944693 -42.582531 -355.474662 0 120 255
76.701811 -42.636356 -353.013175 0 120 255
76.458930 -42.690181 -350.551687 0 120 255
76.214851 -42.752744 -348.090526 0 120 255
75.970719 -42.815691 -345.629378 0 120 255
75.726588 -42.878638 -343.168231 0 120 255
75.482456 -42.941584 -340.707084 0 120 255
75.316829 -43.463837 -338.298652 0 120 255
75.158373 -44.028039 -335.895035 0 120 255
74.999916 -44.592241 -333.491418 0 120 255
74.841460 -45.156444 -331.087800 0 120 255
74.752732 -46.095471 -328.805786 0 120 255
74.674270 -47.089680 -326.541675 0 120 255
74.595808 -48.083888 -324.277563 0 120 255
74.517345 -49.078097 -322.013452 0 120 255
74.499526 -50.370798 -319.909985 0 120 255
74.494412 -51.726034 -317.840174 0 120 255
74.489297 -53.081271 -315.770364 0 120 255
74.484183 -54.436507 -313.700553 0 120 255
74.532410 -56.021166 -311.807639 0 120 255
74.595523 -57.669851 -309.964093 0 120 255
74.658637 -59.318535 -308.120546 0 120 255
74.721750 -60.967220 -306.276999 0 120 255
74.832909 -62.786595 -304.610911 0 120 255
74.961225 -64.666924 -303.008192 0 120 255
75.089541 -66.547253 -301.405474 0 120 255
75.217857 -68.427582 -299.802755 0 120 255
75.390797 -70.430741 -298.368155 0 120 255
75.583596 -72.488558 -297.008367 0 120 255
75.776394 -74.546376 -295.648579 0 120 255
75.969192 -76.604194 -294.288791 0 120 255
76.204736 -78.746987 -293.082115 0 120 255
76.463566 -80.936066 -291.958839 0 120 255
76.722395 -83.125145 -290.835563 0 120 255
76.981224 -85.314224 -289.712286 0 120 255
77.282073 -87.559003 -288.724364 0 120 255
77.610600 -89.840471 -287.825596 0 120 255
77.939126 -92.121938 -286.926828 0 120 255
78.267653 -94.403406 -286.028059 0 120 255
78.638240 -96.718316 -285.245998 0 120 255
79.042060 -99.059652 -284.556154 0 120 255
79.445880 -101.400987 -283.866309 0 120 255
79.849700 -103.742323 -283.176465 0 120 255
80.295990 -106.100414 -282.584886 0 120 255
80.782346 -108.474312 -282.086015 0 120 255
81.268703 -110.848210 -281.587144 0 120 255
81.755060 -113.222109 -281.088274 0 120 255
82.284335 -115.600427 -280.670109 0 120 255
82.861872 -117.983716 -280.342703 0 120 255
83.439409 -120.367004 -280.015296 0 120 255
84.016946 -122.750293 -279.687890 0 120 255
84.637556 -125.129026 -279.424810 0 120 255
85.315953 -127.501648 -279.248031 0 120 255
85.994350 -129.874270 -279.071252 0 120 255
86.672747 -132.246892 -278.894473 0 120 255
87.393810 -134.608588 -278.767033 0 120 255
88.183415 -136.952732 -278.718852 0 120 255
88.973021 -139.296876 -278.670672 0 120 255
89.762626 -141.641020 -278.622492 0 120 255
90.593678 -143.969913 -278.610134 0 120 255
91.505008 -146.269268 -278.667163 0 120 255
92.416339 -148.568623 -278.724193 0 120 255
93.327669 -150.867978 -278.781222 0 120 255
94.278229 -153.149415 -278.862153 0 120 255
95.321398 -155.388553 -278.999508 0 120 255
96.364568 -157.627691 -279.136863 0 120 255
97.407737 -159.866829 -279.274218 0 120 255
98.486795 -162.086793 -279.425263 0 120 255
99.670778 -164.250698 -279.616331 0 120 255
100.854761 -166.414604 -279.807400 0 120 255
102.038744 -168.578509 -279.998468 0 120 255
103.254122 -170.723260 -280.194904 0 120 255
104.585890 -172.797001 -280.411237 0 120 255
105.917658 -174.870742 -280.627571 0 120 255
107.249425 -176.944484 -280.843904 0 120 255
108.607036 -179.000318 -281.059369 0 120 255
110.090590 -180.968885 -281.270600 0 120 255
111.574145 -182.937452 -281.481830 0 120 255
113.057700 -184.906019 -281.693061 0 120 255
114.560727 -186.859156 -281.899521 0 120 255
116.196009 -188.707497 -282.073584 0 120 255
117.831290 -190.555838 -282.247646 0 120 255
119.466572 -192.404179 -282.421708 0 120 255
121.114552 -194.240814 -282.589660 0 120 255
122.896323 -195.954107 -282.693230 0 120 255
124.678095 -197.667400 -282.796800 0 120 255
126.459866 -199.380692 -282.900370 0 120 255
128.247751 -201.087234 -282.999216 0 120 255
130.164585 -202.651381 -282.998412 0 120 255
132.081420 -204.215527 -282.997607 0 120 255
133.998254 -205.779673 -282.996803 0 120 255
135.915564 -207.343159 -282.995437 0 120 255
137.949027 -208.745533 -282.856933 0 120 255
139.982491 -210.147907 -282.718428 0 120 255
142.015954 -211.550281 -282.579923 0 120 255
144.049417 -212.952655 -282.441419 0 120 255
146.170308 -214.189373 -282.140095 0 120 255
148.294549 -215.419746 -281.832534 0 120 255
150.418789 -216.650119 -281.524974 0 120 255
152.543030 -217.880491 -281.217413 0 120 255
154.720397 -218.946009 -280.728281 0 120 255
156.902238 -219.997644 -280.223857 0 120 255
159.084078 -221.049279 -279.719433 0 120 255
161.265919 -222.100913 -279.215009 0 120 255
163.463539 -222.993009 -278.517176 0 120 255
165.663277 -223.863699 -277.793391 0 120 255
167.863014 -224.734388 -277.069606 0 120 255
170.062751 -225.605078 -276.345822 0 120 255
172.239879 -226.326337 -275.424400 0 120 255
174.412737 -227.019376 -274.465653 0 120 255
176.585594 -227.712415 -273.506907 0 120 255
178.758452 -228.405454 -272.548161 0 120 255
180.871567 -228.963797 -271.395327 0 120 255
182.969809 -229.488607 -270.194176 0 120 255
185.068051 -230.013417 -268.993025 0 120 255
187.166292 -230.538227 -267.791874 0 120 255
189.171212 -230.947136 -266.407557 0 120 255
191.146698 -231.319489 -264.965469 0 120 255
193.122183 -231.691842 -263.523381 0 120 255
195.097669 -232.064195 -262.081293 0 120 255
196.951822 -232.342567 -260.473329 0 120 255
198.758730 -232.584345 -258.800775 0 120 255
200.565639 -232.826123 -257.128222 0 120 255
202.372547 -233.067900 -255.455669 0 120 255
204.037173 -233.239498 -253.639424 0 120 255
205.634599 -233.377949 -251.755315 0 120 255
207.232025 -233.516401 -249.871205 0 120 255
208.829452 -233.654852 -247.987095 0 120 255
210.271597 -233.748559 -245.984710 0 120 255
211.625865 -233.816943 -243.915389 0 120 255
212.980133 -233.885328 -241.846068 0 120 255
214.334401 -233.953712 -239.776746 0 120 255
215.528443 -234.000492 -237.615809 0 120 255
216.614677 -234.032735 -235.393229 0 120 255
217.700910 -234.064979 -233.170648 0 120 255
218.787144 -234.097222 -230.948067 0 120 255
219.714324 -234.121963 -228.659640 0 120 255
220.514873 -234.140730 -226.318791 0 120 255
221.315422 -234.159497 -223.977941 0 120 255
222.115971 -234.178264 -221.637091 0 120 255
222.762199 -234.191803 -219.254041 0 120 255
223.263378 -234.200427 -216.831324 0 120 255
223.764556 -234.209052 -214.408608 0 120 255
224.265735 -234.217676 -211.985892 0 120 255
224.621047 -234.221206 -209.542444 0 120 255
224.814525 -234.219083 -207.075995 0 120 255
225.008003 -234.216960 -204.609546 0 120 255
225.201480 -234.214838 -202.143097 0 120 255
225.260949 -234.207900 -199.674570 0 120 255
225.144606 -234.194647 -197.203316 0 120 255
225.028262 -234.181394 -194.732062 0 120 255
224.911918 -234.168141 -192.260808 0 120 255
224.676093 -234.150595 -189.802688 0 120 255
224.254140 -234.126360 -187.365030 0 120 255
223.832186 -234.102125 -184.927372 0 120 255
223.410233 -234.077890 -182.489714 0 120 255
222.885038 -234.049984 -180.076583 0 120 255
222.167536 -234.015241 -177.709139 0 120 255
221.450033 -233.980497 -175.341695 0 120 255
220.732530 -233.945753 -172.974251 0 120 255
219.928785 -233.907980 -170.638805 0 120 255
218.930930 -233.863389 -168.375377 0 120 255
217.933074 -233.818797 -166.111950 0 120 255
216.935219 -233.774206 -163.848522 0 120 255
215.868014 -233.727215 -161.620774 0 120 255
214.609291 -233.673598 -159.491561 0 120 255
213.350568 -233.619980 -157.362348 0 120 255
212.091844 -233.566363 -155.233134 0 120 255
210.779781 -233.510932 -153.139838 0 120 255
209.282938 -233.449219 -151.170965 0 120 255
207.786095 -233.387505 -149.202092 0 120 255
206.289253 -233.325792 -147.233219 0 120 255
204.753614 -233.262785 -145.297516 0 120 255
203.043730 -233.193966 -143.510796 0 120 255
201.333846 -233.125148 -141.724076 0 120 255
199.623962 -233.056329 -139.937356 0 120 255
197.887932 -232.986659 -138.178620 0 120 255
195.991496 -232.911766 -136.591569 0 120 255
194.095060 -232.836873 -135.004519 0 120 255
192.198624 -232.761979 -133.417468 0 120 255
190.286539 -232.686593 -131.851332 0 120 255
188.230655 -232.606673 -130.477372 0 120 255
186.174772 -232.526754 -129.103412 0 120 255
184.118889 -232.446834 -127.729452 0 120 255
182.055580 -232.366690 -126.367988 0 120 255
179.867327 -232.282755 -125.216766 0 120 255
177.679073 -232.198821 -124.065545 0 120 255
175.490820 -232.114887 -122.914323 0 120 255
173.301085 -232.030910 -121.766309 0 120 255
171.007000 -231.943959 -120.844125 0 120 255
168.712915 -231.857008 -119.921942 0 120 255
166.418830 -231.770057 -118.999758 0 120 255
164.124745 -231.683105 -118.077574 0 120 255
161.752715 -231.594149 -117.381361 0 120 255
159.378430 -231.505135 -116.691683 0 120 255
157.004145 -231.416121 -116.002005 0 120 255
154.629860 -231.327107 -115.312327 0 120 255
152.203825 -231.237011 -114.839802 0 120 255
149.773880 -231.146832 -114.383684 0 120 255
147.343935 -231.056653 -113.927567 0 120 255
144.913990 -230.966475 -113.471449 0 120 255
142.455368 -230.876005 -113.221853 0 120 255
139.993115 -230.785498 -112.998414 0 120 255
137.530862 -230.694991 -112.774974 0 120 255
135.068608 -230.604485 -112.551535 0 120 255
132.597795 -230.514376 -112.522745 0 120 255
130.125416 -230.424341 -112.529549 0 120 255
127.653038 -230.334305 -112.536353 0 120 255
125.180659 -230.244270 -112.543157 0 120 255
122.717105 -230.155232 -112.731961 0 120 255
120.255713 -230.066438 -112.965352 0 120 255
117.794320 -229.977644 -113.198743 0 120 255
115.332928 -229.888850 -113.432135 0 120 255
112.895265 -229.801542 -113.834440 0 120 255
110.465053 -229.714702 -114.289781 0 120 255
108.034840 -229.627861 -114.745122 0 120 255
105.604628 -229.541020 -115.200463 0 120 255
103.210821 -229.456078 -115.811438 0 120 255
100.831251 -229.371879 -116.483275 0 120 255
98.451681 -229.287680 -117.155112 0 120 255
96.072111 -229.203481 -117.826949 0 120 255
93.739615 -229.121525 -118.641088 0 120 255
91.429606 -229.040642 -119.523200 0 120 255
89.119596 -228.959758 -120.405312 0 120 255
86.809586 -228.878874 -121.287424 0 120 255
84.555423 -228.800504 -122.298391 0 120 255
82.333408 -228.723581 -123.383538 0 120 255
80.111394 -228.646657 -124.468684 0 120 255
77.889379 -228.569734 -125.553830 0 120 255
75.730062 -228.495528 -126.754173 0 120 255
73.613848 -228.423189 -128.033710 0 120 255
71.497635 -228.350850 -129.313247 0 120 255
69.381421 -228.278511 -130.592784 0 120 255
67.332770 -228.209010 -131.973684 0 120 255
65.339265 -228.141826 -133.437322 0 120 255
63.345761 -228.074642 -134.900959 0 120 255
61.352256 -228.007458 -136.364597 0 120 255
59.429082 -227.943151 -137.915692 0 120 255
57.573854 -227.881622 -139.551281 0 120 255
55.718626 -227.820093 -141.186871 0 120 255
53.863398 -227.758564 -142.822460 0 120 255
52.079173 -227.699894 -144.531821 0 120 255
50.376098 -227.644493 -146.325498 0 120 255
48.673023 -227.589091 -148.119174 0 120 255
46.969949 -227.533690 -149.912850 0 120 255
45.336586 -227.481055 -151.767193 0 120 255
43.797652 -227.432169 -153.703710 0 120 255
42.258718 -227.383283 -155.640228 0 120 255
40.719784 -227.334397 -157.576746 0 120 255
39.247604 -227.288124 -159.561780 0 120 255
37.883073 -227.246067 -161.625053 0 120 255
36.518543 -227.204011 -163.688326 0 120 255
35.154012 -227.161954 -165.751599 0 120 255
33.851917 -227.122310 -167.852434 0 120 255
32.670571 -227.087334 -170.025912 0 120 255
31.489226 -227.052357 -172.199390 0 120 255
30.307880 -227.017381 -174.372868 0 120 255
29.183564 -226.984585 -176.574272 0 120 255
28.193020 -226.956905 -178.841179 0 120 255
27.202477 -226.929224 -181.108085 0 120 255
26.211933 -226.901544 -183.374991 0 120 255
25.272098 -226.875786 -185.661538 0 120 255
24.478873 -226.855586 -188.004868 0 120 255
23.685648 -226.835387 -190.348198 0 120 255
22.892423 -226.815187 -192.691527 0 120 255
22.142797 -226.796622 -195.047581 0 120 255
21.552273 -226.784021 -197.450065 0 120 255
20.961749 -226.771421 -199.852549 0 120 255
20.371225 -226.758820 -202.255034 0 120 255
19.816570 -226.747553 -204.664731 0 120 255
19.433108 -226.742656 -207.108855 0 120 255
19.049645 -226.737758 -209.552979 0 120 255
18.666182 -226.732860 -211.997103 0 120 255
18.310346 -226.728981 -214.444358 0 120 255
18.137134 -226.731837 -216.912312 0 120 255
17.963922 -226.734693 -219.380266 0 120 255
17.790710 -226.737549 -221.848220 0 120 255
17.636519 -226.741100 -224.316689 0 120 255
17.675611 -226.751709 -226.790384 0 120 255
17.714703 -226.762319 -229.264079 0 120 255
17.753795 -226.772928 -231.737774 0 120 255
17.803073 -226.783906 -234.210866 0 120 255
18.055219 -226.802225 -236.671942 0 120 255
18.307365 -226.820544 -239.133018 0 120 255
18.559512 -226.838862 -241.594094 0 120 255
18.812945 -226.857227 -244.054981 0 120 255
19.277136 -226.883165 -246.484932 0 120 255
19.741327 -226.909102 -248.914883 0 120 255
20.205518 -226.935039 -251.344834 0 120 255
20.669710 -226.960976 -253.774785 0 120 255
21.335597 -226.994093 -256.156951 0 120 255
22.008941 -227.027474 -258.537351 0 120 255
22.682284 -227.060856 -260.917751 0 120 255
23.355627 -227.094238 -263.298150 0 120 255
24.217423 -227.134242 -265.616169 0 120 255
25.095016 -227.174800 -267.928958 0 120 255
25.972609 -227.215359 -270.241747 0 120 255
26.850202 -227.255917 -272.554537 0 120 255
27.901297 -227.302514 -274.792618 0 120 255
28.975840 -227.349927 -277.020603 0 120 255
30.050383 -227.397340 -279.248588 0 120 255
31.124926 -227.444753 -281.476574 0 120 255
32.356889 -227.497570 -283.619973 0 120 255
33.619008 -227.551421 -285.747170 0 120 255
34.881127 -227.605273 -287.874366 0 120 255
36.143246 -227.659124 -290.001562 0 120 255
37.545868 -227.717755 -292.036965 0 120 255
38.984166 -227.777599 -294.049060 0 120 255
40.422464 -227.837443 -296.061155 0 120 255
41.860762 -227.897287 -298.073250 0 120 255
43.422342 -227.961260 -299.989045 0 120 255
45.023760 -228.026567 -301.873721 0 120 255
46.625178 -228.091874 -303.758397 0 120 255
48.226596 -228.157182 -305.643073 0 120 255
49.934188 -228.226020 -307.429640 0 120 255
51.684310 -228.296273 -309.176909 0 120 255
53.434432 -228.366525 -310.924177 0 120 255
55.184554 -228.436778 -312.671445 0 120 255
57.024284 -228.509959 -314.321387 0 120 255
58.907710 -228.584568 -315.923868 0 120 255
60.791137 -228.659178 -317.526349 0 120 255
62.674563 -228.733787 -319.128831 0 120 255
64.632056 -228.810838 -320.637028 0 120 255
66.632981 -228.889321 -322.089939 0 120 255
68.633905 -228.967804 -323.542849 0 120 255
70.634830 -229.046287 -324.995760 0 120 255
72.695593 -229.126632 -326.359406 0 120 255
74.798199 -229.208279 -327.660633 0 120 255
76.900804 -229.289926 -328.961861 0 120 255
79.003410 -229.371573 -330.263088 0 120 255
81.153060 -229.453798 -331.481934 0 120 255
83.341736 -229.536501 -332.632441 0 120 255
85.530412 -229.619205 -333.782947 0 120 255
87.719088 -229.701909 -334.933454 0 120 255
89.943154 -229.779421 -336.011369 0 120 255
92.201962 -229.851836 -337.018023 0 120 255
94.460769 -229.924250 -338.024677 0 120 255
96.719577 -229.996665 -339.031331 0 120 255
99.004172 -230.058911 -339.975889 0 120 255
101.318722 -230.109345 -340.848313 0 120 255
103.633271 -230.159779 -341.720737 0 120 255
105.947821 -230.210213 -342.593162 0 120 255
108.280569 -230.247736 -343.413707 0 120 255
110.638387 -230.267475 -344.162782 0 120 255
112.996205 -230.287214 -344.911857 0 120 255
115.354023 -230.306952 -345.660932 0 120 255
117.724156 -230.312657 -346.367868 0 120 255
120.114506 -230.295323 -347.005622 0 120 255
122.504857 -230.277989 -347.643377 0 120 255
124.895208 -230.260654 -348.281131 0 120 255
127.293451 -230.229445 -348.885782 0 120 255
129.707256 -230.170875 -349.425153 0 120 255
132.121062 -230.112304 -349.964524 0 120 255
134.534867 -230.053733 -350.503894 0 120 255
136.953376 -229.982433 -351.018291 0 120 255
139.383158 -229.880619 -351.472829 0 120 255
141.812939 -229.778805 -351.927366 0 120 255
144.242721 -229.676992 -352.381903 0 120 255
146.675027 -229.564306 -352.818571 0 120 255
149.114819 -229.419398 -353.202276 0 120 255
151.554610 -229.274490 -353.585980 0 120 255
153.994401 -229.129581 -353.969684 0 120 255
156.435341 -228.976083 -354.341494 0 120 255
158.880601 -228.790299 -354.668597 0 120 255
161.325861 -228.604514 -354.995699 0 120 255
163.771121 -228.418730 -355.322802 0 120 255
166.216728 -228.226985 -355.643189 0 120 255
168.664055 -228.005723 -355.930320 0 120 255
171.111381 -227.784460 -356.217451 0 120 255
173.558708 -227.563198 -356.504583 0 120 255
176.005995 -227.340656 -356.791036 0 120 255
178.453008 -227.109238 -357.072785 0 120 255
180.900021 -226.877819 -357.354533 0 120 255
183.347033 -226.646400 -357.636282 0 120 255
185.794046 -226.414981 -357.918032 0 120 255
188.241056 -226.183551 -358.199793 0 120 255
190.688066 -225.952122 -358.481554 0 120 255
193.135077 -225.720692 -358.763315 0 120 255
195.582087 -225.489263 -359.045076 0 120 255
198.029099 -225.257837 -359.326830 0 120 255
200.476110 -225.026411 -359.608583 0 120 255
202.923122 -224.794986 -359.890337 0 120 255
205.370133 -224.563560 -360.172091 0 120 255
