ply
format ascii 1.0
element vertex 385
property float x
property float y
property float z
property uchar red
property uchar green
property uchar blue
end_header
77.430455 -42.474882 -360.397637 0 120 255
77.187551 -42.528712 -357.935916 0 120 255
76.944647 -42.582541 -355.474196 0 120 255
76.701742 -42.636371 -353.012475 0 120 255
76.458838 -42.690201 -350.550755 0 120 255
76.221449 -42.751617 -348.088675 0 120 255
75.984300 -42.813363 -345.626579 0 120 255
75.747150 -42.875109 -343.164483 0 120 255
75.510001 -42.936854 -340.702388 0 120 255
75.478217 -43.275079 -338.253754 0 120 255
75.465028 -43.638338 -335.806340 0 120 255
75.451840 -44.001598 -333.358926 0 120 255
75.438652 -44.364858 -330.911512 0 120 255
75.623529 -44.956574 -328.519037 0 120 255
75.837190 -45.581489 -326.134546 0 120 255
76.050850 -46.206403 -323.750054 0 120 255
76.264510 -46.831318 -321.365563 0 120 255
76.664573 -47.643601 -319.066390 0 120 255
77.103101 -48.494549 -316.784823 0 120 255
77.541629 -49.345496 -314.503255 0 120 255
77.980156 -50.196444 -312.221688 0 120 255
78.586902 -51.196356 -310.045198 0 120 255
79.239840 -52.237174 -307.897563 0 120 255
79.892779 -53.277991 -305.749928 0 120 255
80.545717 -54.318809 -303.602292 0 120 255
81.344904 -55.474701 -301.569966 0 120 255
82.195457 -56.671010 -299.578140 0 120 255
83.046010 -57.867319 -297.586314 0 120 255
83.896562 -59.063628 -295.594487 0 120 255
84.869945 -60.346531 -293.720263 0 120 255
85.897089 -61.667335 -291.897513 0 120 255
86.924234 -62.988139 -290.074763 0 120 255
87.951379 -64.308944 -288.252013 0 120 255
89.078258 -65.693408 -286.542937 0 120 255
90.258591 -67.111991 -284.894785 0 120 255
91.438924 -68.530574 -283.246634 0 120 255
92.619257 -69.949157 -281.598482 0 120 255
93.877827 -71.413659 -280.055533 0 120 255
95.187133 -72.907939 -278.580809 0 120 255
96.496439 -74.402219 -277.106084 0 120 255
97.805745 -75.896499 -275.631360 0 120 255
99.174164 -77.423483 -274.250297 0 120 255
100.588605 -78.975928 -272.942154 0 120 255
102.003047 -80.528372 -271.634011 0 120 255
103.417488 -82.080817 -270.325867 0 120 255
104.874711 -83.656474 -269.098037 0 120 255
106.371738 -85.253728 -267.944928 0 120 255
107.868764 -86.850982 -266.791820 0 120 255
109.365791 -88.448236 -265.638712 0 120 255
110.892178 -90.062115 -264.551801 0 120 255
112.451155 -91.694449 -263.538370 0 120 255
114.010133 -93.326783 -262.524938 0 120 255
115.569110 -94.959117 -261.511507 0 120 255
117.146845 -96.603618 -260.550220 0 120 255
118.749447 -98.264247 -259.658064 0 120 255
120.352050 -99.924877 -258.765909 0 120 255
121.954652 -101.585507 -257.873754 0 120 255
123.567983 -103.255300 -257.020399 0 120 255
125.198368 -104.939658 -256.228723 0 120 255
126.828753 -106.624017 -255.437048 0 120 255
128.459138 -108.308375 -254.645373 0 120 255
130.094470 -109.999809 -253.880392 0 120 255
131.739301 -111.704828 -253.166663 0 120 255
133.384132 -113.409847 -252.452933 0 120 255
135.028963 -115.114865 -251.739204 0 120 255
136.674834 -116.825372 -251.041669 0 120 255
138.323142 -118.548748 -250.382106 0 120 255
139.971451 -120.272123 -249.722544 0 120 255
141.619760 -121.995499 -249.062981 0 120 255
143.266688 -123.723010 -248.411001 0 120 255
144.909594 -125.462564 -247.781098 0 120 255
146.552501 -127.202118 -247.151195 0 120 255
148.195407 -128.941672 -246.521291 0 120 255
149.835643 -130.684099 -245.892418 0 120 255
151.465979 -132.437175 -245.267362 0 120 255
153.096316 -134.190251 -244.642306 0 120 255
154.726652 -135.943328 -244.017250 0 120 255
156.353857 -137.698080 -243.388838 0 120 255
157.965715 -139.461043 -242.743982 0 120 255
159.577573 -141.224007 -242.099125 0 120 255
161.189431 -142.986971 -241.454269 0 120 255
162.798294 -144.750552 -240.803860 0 120 255
164.386507 -146.518391 -240.115169 0 120 255
165.974719 -148.286229 -239.426478 0 120 255
167.562931 -150.054068 -238.737786 0 120 255
169.148735 -151.821756 -238.043478 0 120 255
170.708298 -153.587804 -237.287959 0 120 255
172.267861 -155.353851 -236.532440 0 120 255
173.827424 -157.119898 -235.776921 0 120 255
175.385570 -158.885516 -235.017725 0 120 255
176.911113 -160.641256 -234.173888 0 120 255
178.436656 -162.396997 -233.330051 0 120 255
179.962200 -164.152738 -232.486214 0 120 255
181.487743 -165.908478 -231.642377 0 120 255
182.972998 -167.643532 -230.690766 0 120 255
184.458231 -169.378575 -229.739095 0 120 255
185.943464 -171.113618 -228.787424 0 120 255
187.428697 -172.848661 -227.835753 0 120 255
188.867972 -174.552233 -226.764527 0 120 255
190.305204 -176.254406 -225.687988 0 120 255
191.742436 -177.956580 -224.611448 0 120 255
193.179668 -179.658753 -223.534909 0 120 255
194.564268 -181.318262 -222.331179 0 120 255
195.944023 -182.973843 -221.115737 0 120 255
197.323777 -184.629423 -219.900295 0 120 255
198.703531 -186.285004 -218.684853 0 120 255
200.022965 -187.886803 -217.338783 0 120 255
201.333715 -189.480859 -215.973906 0 120 255
202.644464 -191.074915 -214.609030 0 120 255
203.955214 -192.668971 -213.244153 0 120 255
205.197064 -194.198778 -211.749396 0 120 255
206.425084 -195.715688 -210.228567 0 120 255
207.653103 -197.232597 -208.707738 0 120 255
208.881123 -198.749507 -207.186909 0 120 255
210.031087 -200.192893 -205.540991 0 120 255
211.160516 -201.616937 -203.862166 0 120 255
212.289945 -203.040982 -202.183340 0 120 255
213.419374 -204.465026 -200.504514 0 120 255
214.461435 -205.808000 -198.709165 0 120 255
215.474500 -207.124069 -196.875145 0 120 255
216.487565 -208.440138 -195.041125 0 120 255
217.500631 -209.756207 -193.207106 0 120 255
218.417364 -210.985839 -191.268481 0 120 255
219.294771 -212.180186 -189.287153 0 120 255
220.172178 -213.374532 -187.305825 0 120 255
221.049585 -214.568879 -185.324497 0 120 255
221.822635 -215.673978 -183.253306 0 120 255
222.544190 -216.735036 -181.137773 0 120 255
223.265744 -217.796095 -179.022240 0 120 255
223.987299 -218.857154 -176.906707 0 120 255
224.597962 -219.828889 -174.718168 0 120 255
225.143279 -220.747987 -172.486609 0 120 255
225.688596 -221.667084 -170.255050 0 120 255
226.233914 -222.586182 -168.023491 0 120 255
226.663834 -223.418698 -165.737133 0 120 255
227.013221 -224.190790 -163.412532 0 120 255
227.362607 -224.962882 -161.087930 0 120 255
227.711994 -225.734974 -158.763329 0 120 255
227.943897 -226.425880 -156.402609 0 120 255
228.079226 -227.050049 -154.012197 0 120 255
228.214555 -227.674218 -151.621786 0 120 255
228.349883 -228.298387 -149.231374 0 120 255
228.368362 -228.849135 -146.823136 0 120 255
228.274029 -229.328999 -144.397688 0 120 255
228.179695 -229.808862 -141.972240 0 120 255
228.085361 -230.288726 -139.546791 0 120 255
227.877631 -230.704816 -137.120579 0 120 255
227.541416 -231.048646 -134.693501 0 120 255
227.205201 -231.392476 -132.266423 0 120 255
226.868986 -231.736307 -129.839345 0 120 255
226.425561 -232.027324 -127.426596 0 120 255
225.839372 -232.248014 -125.032928 0 120 255
225.253183 -232.468704 -122.639260 0 120 255
224.666993 -232.689394 -120.245592 0 120 255
223.982274 -232.868854 -117.878765 0 120 255
223.142782 -232.983550 -115.554101 0 120 255
222.303291 -233.098246 -113.229436 0 120 255
221.463799 -233.212942 -110.904771 0 120 255
220.536538 -233.297936 -108.616440 0 120 255
219.445620 -233.327550 -106.395857 0 120 255
218.354703 -233.357163 -104.175273 0 120 255
217.263786 -233.386777 -101.954690 0 120 255
216.097343 -233.398047 -99.776685 0 120 255
214.762171 -233.368339 -97.693802 0 120 255
213.426999 -233.338631 -95.610919 0 120 255
212.091827 -233.308923 -93.528036 0 120 255
210.694215 -233.270999 -91.490680 0 120 255
209.127120 -233.210772 -89.576901 0 120 255
207.560024 -233.150545 -87.663122 0 120 255
205.992928 -233.090318 -85.749342 0 120 255
204.377066 -233.027436 -83.880618 0 120 255
202.596936 -232.955608 -82.163659 0 120 255
200.816807 -232.883780 -80.446701 0 120 255
199.036677 -232.811953 -78.729742 0 120 255
197.221070 -232.738858 -77.054228 0 120 255
195.252419 -232.660296 -75.557495 0 120 255
193.283768 -232.581734 -74.060762 0 120 255
191.315117 -232.503172 -72.564028 0 120 255
189.322741 -232.424009 -71.102643 0 120 255
187.193077 -232.341367 -69.845794 0 120 255
185.063413 -232.258725 -68.588945 0 120 255
182.933749 -232.176084 -67.332096 0 120 255
180.790119 -232.093079 -66.102425 0 120 255
178.529225 -232.007028 -65.100968 0 120 255
176.268330 -231.920977 -64.099510 0 120 255
174.007435 -231.834926 -63.098053 0 120 255
171.739997 -231.748707 -62.114027 0 120 255
169.379075 -231.660082 -61.379071 0 120 255
167.018153 -231.571457 -60.644115 0 120 255
164.657231 -231.482832 -59.909159 0 120 255
162.294651 -231.394172 -59.180841 0 120 255
159.865585 -231.304121 -58.718787 0 120 255
157.436518 -231.214071 -58.256733 0 120 255
155.007451 -231.124020 -57.794680 0 120 255
152.578385 -231.033970 -57.332626 0 120 255
150.113502 -230.943602 -57.140574 0 120 255
147.648006 -230.853229 -56.953150 0 120 255
145.182509 -230.762856 -56.765726 0 120 255
142.717013 -230.672483 -56.578303 0 120 255
140.246155 -230.582852 -56.647177 0 120 255
137.774967 -230.493267 -56.731864 0 120 255
135.303779 -230.403682 -56.816552 0 120 255
132.832591 -230.314097 -56.901239 0 120 255
130.382505 -230.226163 -57.225186 0 120 255
127.934749 -230.138411 -57.575556 0 120 255
125.486994 -230.050659 -57.925925 0 120 255
123.039238 -229.962908 -58.276295 0 120 255
120.634781 -229.877534 -58.846417 0 120 255
118.237426 -229.792549 -59.452579 0 120 255
115.840070 -229.707565 -60.058742 0 120 255
113.442715 -229.622581 -60.664904 0 120 255
111.106523 -229.540537 -61.469762 0 120 255
108.783980 -229.459148 -62.318959 0 120 255
106.461436 -229.377759 -63.168157 0 120 255
104.138893 -229.296370 -64.017354 0 120 255
101.891147 -229.218367 -65.043446 0 120 255
99.665001 -229.141341 -66.120622 0 120 255
97.438854 -229.064315 -67.197797 0 120 255
95.212708 -228.987289 -68.274973 0 120 255
93.071081 -228.913911 -69.507333 0 120 255
90.960050 -228.841853 -70.795867 0 120 255
88.849018 -228.769795 -72.084401 0 120 255
86.737986 -228.697738 -73.372935 0 120 255
84.717639 -228.629483 -74.795560 0 120 255
82.737571 -228.562916 -76.277743 0 120 255
80.757503 -228.496350 -77.759926 0 120 255
78.777435 -228.429783 -79.242110 0 120 255
76.891085 -228.367031 -80.838356 0 120 255
75.055068 -228.306328 -82.495862 0 120 255
73.219051 -228.245625 -84.153367 0 120 255
71.383034 -228.184921 -85.810873 0 120 255
69.641136 -228.128015 -87.563857 0 120 255
67.959745 -228.073551 -89.378224 0 120 255
66.278355 -228.019087 -91.192591 0 120 255
64.596965 -227.964622 -93.006958 0 120 255
63.007779 -227.913771 -94.899749 0 120 255
61.489089 -227.865683 -96.852500 0 120 255
59.970400 -227.817595 -98.805252 0 120 255
58.451710 -227.769506 -100.758003 0 120 255
57.021552 -227.724882 -102.773914 0 120 255
55.671592 -227.683397 -104.847041 0 120 255
54.321632 -227.641911 -106.920168 0 120 255
52.971672 -227.600425 -108.993294 0 120 255
51.704994 -227.562153 -111.116016 0 120 255
50.527591 -227.527326 -113.291901 0 120 255
49.350187 -227.492498 -115.467786 0 120 255
48.172784 -227.457671 -117.643672 0 120 255
47.072201 -227.425786 -119.857345 0 120 255
46.069187 -227.397639 -122.119012 0 120 255
45.066173 -227.369492 -124.380679 0 120 255
44.063160 -227.341345 -126.642346 0 120 255
43.129704 -227.315831 -128.931777 0 120 255
42.301315 -227.294295 -131.263145 0 120 255
41.472926 -227.272759 -133.594513 0 120 255
40.644538 -227.251223 -135.925881 0 120 255
39.877917 -227.232014 -138.276689 0 120 255
39.222992 -227.217012 -140.662651 0 120 255
38.568068 -227.202010 -143.048614 0 120 255
37.913143 -227.187009 -145.434576 0 120 255
37.311887 -227.174001 -147.833249 0 120 255
36.827998 -227.165352 -150.259716 0 120 255
36.344108 -227.156704 -152.686183 0 120 255
35.860218 -227.148055 -155.112650 0 120 255
35.421812 -227.141090 -157.546579 0 120 255
35.105479 -227.138642 -160.000534 0 120 255
34.789147 -227.136194 -162.454489 0 120 255
34.472814 -227.133746 -164.908445 0 120 255
34.193859 -227.132671 -167.365963 0 120 255
34.040703 -227.136219 -169.835477 0 120 255
33.887546 -227.139767 -172.304991 0 120 255
33.734390 -227.143316 -174.774505 0 120 255
33.610740 -227.147944 -177.244900 0 120 255
33.615691 -227.157278 -179.719139 0 120 255
33.620642 -227.166612 -182.193377 0 120 255
33.625594 -227.175946 -184.667616 0 120 255
33.652537 -227.186079 -187.141127 0 120 255
33.810078 -227.200955 -189.610323 0 120 255
33.967619 -227.215831 -192.079519 0 120 255
34.125160 -227.230707 -194.548714 0 120 255
34.297609 -227.246119 -197.016508 0 120 255
34.601926 -227.266281 -199.471901 0 120 255
34.906242 -227.286443 -201.927293 0 120 255
35.210559 -227.306605 -204.382686 0 120 255
35.523180 -227.327065 -206.836803 0 120 255
35.968267 -227.352283 -209.270571 0 120 255
36.413354 -227.377502 -211.704340 0 120 255
36.858441 -227.402720 -214.138108 0 120 255
37.305733 -227.428017 -216.571409 0 120 255
37.885625 -227.458041 -218.976568 0 120 255
38.465517 -227.488065 -221.381728 0 120 255
39.045409 -227.518090 -223.786887 0 120 255
39.625301 -227.548114 -226.192046 0 120 255
40.330717 -227.582597 -228.563272 0 120 255
41.039526 -227.617200 -230.933580 0 120 255
41.748334 -227.651804 -233.303888 0 120 255
42.457143 -227.686407 -235.674196 0 120 255
43.280769 -227.725054 -238.006798 0 120 255
44.112910 -227.764001 -240.336603 0 120 255
44.945052 -227.802949 -242.666408 0 120 255
45.777193 -227.841896 -244.996213 0 120 255
46.714370 -227.884510 -247.285372 0 120 255
47.664769 -227.927585 -249.569416 0 120 255
48.615168 -227.970660 -251.853459 0 120 255
49.565567 -228.013735 -254.137503 0 120 255
50.612008 -228.060145 -256.378652 0 120 255
51.676010 -228.107164 -258.611958 0 120 255
52.740011 -228.154183 -260.845265 0 120 255
53.804013 -228.201202 -263.078571 0 120 255
54.955828 -228.251261 -265.267268 0 120 255
56.129233 -228.302068 -267.444998 0 120 255
57.302637 -228.352875 -269.622729 0 120 255
58.476041 -228.403681 -271.800459 0 120 255
59.729854 -228.457264 -273.932204 0 120 255
61.009074 -228.511724 -276.049418 0 120 255
62.288294 -228.566183 -278.166633 0 120 255
63.567514 -228.620643 -280.283848 0 120 255
64.920368 -228.677683 -282.353989 0 120 255
66.302270 -228.735740 -284.405560 0 120 255
67.684172 -228.793797 -286.457131 0 120 255
69.066074 -228.851854 -288.508702 0 120 255
70.515307 -228.912347 -290.512382 0 120 255
71.997056 -228.974014 -292.492934 0 120 255
73.478804 -229.035682 -294.473486 0 120 255
74.960552 -229.097350 -296.454038 0 120 255
76.503851 -229.161078 -298.386018 0 120 255
78.083056 -229.226008 -300.289663 0 120 255
79.662261 -229.290938 -302.193308 0 120 255
81.241466 -229.355868 -304.096952 0 120 255
82.876969 -229.422106 -305.951353 0 120 255
84.551783 -229.489257 -307.771369 0 120 255
86.226596 -229.556409 -309.591385 0 120 255
87.901410 -229.623560 -311.411401 0 120 255
89.628175 -229.689146 -313.181032 0 120 255
91.398114 -229.753432 -314.908791 0 120 255
93.168052 -229.817717 -316.636550 0 120 255
94.937991 -229.882002 -318.364310 0 120 255
96.755987 -229.940416 -320.040161 0 120 255
98.621372 -229.993042 -321.664826 0 120 255
100.486757 -230.045668 -323.289491 0 120 255
102.352142 -230.098294 -324.914157 0 120 255
104.261194 -230.141872 -326.485771 0 120 255
106.221308 -230.174870 -327.995352 0 120 255
108.181422 -230.207868 -329.504932 0 120 255
110.141536 -230.240866 -331.014512 0 120 255
112.140321 -230.263058 -332.470572 0 120 255
114.192837 -230.270238 -333.852273 0 120 255
116.245353 -230.277417 -335.233973 0 120 255
118.297868 -230.284597 -336.615673 0 120 255
120.383667 -230.280065 -337.944061 0 120 255
122.524661 -230.256110 -339.184036 0 120 255
124.665654 -230.232155 -340.424012 0 120 255
126.806648 -230.208200 -341.663988 0 120 255
128.975237 -230.172397 -342.851699 0 120 255
131.198870 -230.112963 -343.935163 0 120 255
133.422502 -230.053529 -345.018627 0 120 255
135.646135 -229.994094 -346.102091 0 120 255
137.891531 -229.923355 -347.135326 0 120 255
140.189756 -229.825176 -348.046640 0 120 255
142.487980 -229.726997 -348.957953 0 120 255
144.786205 -229.628818 -349.869267 0 120 255
147.100404 -229.520437 -350.733547 0 120 255
149.462591 -229.381410 -351.456535 0 120 255
151.824778 -229.242383 -352.179524 0 120 255
154.186965 -229.103356 -352.902512 0 120 255
156.559633 -228.955668 -353.582952 0 120 255
158.972244 -228.774971 -354.101237 0 120 255
161.384856 -228.594273 -354.619523 0 120 255
163.797468 -228.413576 -355.137809 0 120 255
166.215767 -228.226186 -355.618736 0 120 255
168.662616 -228.005196 -355.912092 0 120 255
171.109466 -227.784205 -356.205448 0 120 255
173.556315 -227.563214 -356.498805 0 120 255
176.003214 -227.340919 -356.790716 0 120 255
178.450459 -227.109479 -357.072491 0 120 255
180.897703 -226.878038 -357.354266 0 120 255
183.344948 -226.646598 -357.636042 0 120 255
185.792192 -226.415156 -357.917818 0 120 255
188.239434 -226.183705 -358.199606 0 120 255
190.686676 -225.952253 -358.481394 0 120 255
193.133918 -225.720802 -358.763182 0 120 255
195.581160 -225.489350 -359.044969 0 120 255
198.028403 -225.257903 -359.326750 0 120 255
200.475647 -225.026455 -359.608530 0 120 255
202.922890 -224.795008 -359.890310 0 120 255
205.370133 -224.563560 -360.172091 0 120 255
