ply
format ascii 1.0
element vertex 385
property float x
property float y
property float z
property uchar red
property uchar green
property uchar blue
end_header
77.430455 -42.474882 -360.397637 0 120 255
77.187549 -42.528712 -357.935899 0 120 255
76.944643 -42.582542 -355.474161 0 120 255
76.701737 -42.636372 -353.012423 0 120 255
76.458831 -42.690203 -350.550686 0 120 255
76.213812 -42.755153 -348.089427 0 120 255
75.968701 -42.820586 -345.628189 0 120 255
75.723590 -42.886020 -343.166951 0 120 255
75.478479 -42.951453 -340.705712 0 120 255
75.180908 -43.271071 -338.271550 0 120 255
74.878558 -43.613848 -335.839855 0 120 255
74.576207 -43.956626 -333.408160 0 120 255
74.273857 -44.299403 -330.976465 0 120 255
73.962013 -44.840569 -328.583574 0 120 255
73.648775 -45.410893 -326.196386 0 120 255
73.335536 -45.981217 -323.809198 0 120 255
73.022298 -46.551541 -321.422010 0 120 255
72.729769 -47.295780 -319.081984 0 120 255
72.441564 -48.076332 -316.751806 0 120 255
72.153360 -48.856885 -314.421628 0 120 255
71.865155 -49.637437 -312.091450 0 120 255
71.615590 -50.578846 -309.818786 0 120 255
71.376757 -51.564927 -307.562095 0 120 255
71.137923 -52.551008 -305.305403 0 120 255
70.899089 -53.537088 -303.048711 0 120 255
70.705801 -54.674789 -300.862466 0 120 255
70.528688 -55.866333 -298.701238 0 120 255
70.351575 -57.057876 -296.540009 0 120 255
70.174462 -58.249420 -294.378781 0 120 255
70.041583 -59.582456 -292.301631 0 120 255
69.928289 -60.978137 -290.261706 0 120 255
69.814995 -62.373818 -288.221781 0 120 255
69.701701 -63.769499 -286.181857 0 120 255
69.626402 -65.293680 -284.238020 0 120 255
69.571723 -66.887594 -282.346327 0 120 255
69.517043 -68.481508 -280.454634 0 120 255
69.462363 -70.075422 -278.562942 0 120 255
69.437511 -71.781950 -276.776029 0 120 255
69.432272 -73.562528 -275.058016 0 120 255
69.427033 -75.343106 -273.340004 0 120 255
69.421795 -77.123685 -271.621991 0 120 255
69.438579 -78.999075 -270.013349 0 120 255
69.472783 -80.949458 -268.491216 0 120 255
69.506987 -82.899842 -266.969083 0 120 255
69.541191 -84.850225 -265.446951 0 120 255
69.591418 -86.876969 -264.034630 0 120 255
69.656827 -88.976055 -262.726344 0 120 255
69.722236 -91.075142 -261.418059 0 120 255
69.787645 -93.174228 -260.109773 0 120 255
69.865544 -95.331764 -258.908064 0 120 255
69.957596 -97.555536 -257.827129 0 120 255
70.049648 -99.779307 -256.746194 0 120 255
70.141700 -102.003078 -255.665259 0 120 255
70.245222 -104.268797 -254.684628 0 120 255
70.364312 -106.591444 -253.840127 0 120 255
70.483401 -108.914091 -252.995625 0 120 255
70.602491 -111.236738 -252.151124 0 120 255
70.734157 -113.586793 -251.398290 0 120 255
70.886349 -115.981583 -250.795074 0 120 255
71.038541 -118.376374 -250.191858 0 120 255
71.190733 -120.771165 -249.588642 0 120 255
71.358051 -123.181070 -249.066669 0 120 255
71.555284 -125.620868 -248.705365 0 120 255
71.752517 -128.060666 -248.344062 0 120 255
71.949750 -130.500463 -247.982758 0 120 255
72.165283 -132.945432 -247.690986 0 120 255
72.425175 -135.402936 -247.567757 0 120 255
72.685068 -137.860439 -247.444528 0 120 255
72.944961 -140.317943 -247.321299 0 120 255
73.226062 -142.773030 -247.255075 0 120 255
73.571268 -145.220811 -247.361156 0 120 255
73.916474 -147.668592 -247.467237 0 120 255
74.261680 -150.116374 -247.573318 0 120 255
74.629891 -152.556476 -247.723535 0 120 255
75.087069 -154.966883 -248.044443 0 120 255
75.544247 -157.377290 -248.365351 0 120 255
76.001425 -159.787696 -248.686260 0 120 255
76.481555 -162.187475 -249.038665 0 120 255
77.079836 -164.532546 -249.553209 0 120 255
77.678118 -166.877617 -250.067753 0 120 255
78.276399 -169.222688 -250.582296 0 120 255
78.895206 -171.556506 -251.116658 0 120 255
79.664204 -173.807985 -251.796026 0 120 255
80.433201 -176.059463 -252.475395 0 120 255
81.202198 -178.310942 -253.154763 0 120 255
81.986695 -180.552894 -253.844103 0 120 255
82.953961 -182.682522 -254.651034 0 120 255
83.921228 -184.812149 -255.457964 0 120 255
84.888494 -186.941777 -256.264895 0 120 255
85.863817 -189.065951 -257.074801 0 120 255
87.051947 -191.046091 -257.963309 0 120 255
88.240077 -193.026231 -258.851817 0 120 255
89.428207 -195.006371 -259.740325 0 120 255
90.616337 -196.986511 -260.628833 0 120 255
92.038640 -198.792115 -261.544519 0 120 255
93.462092 -200.596862 -262.460338 0 120 255
94.885544 -202.401610 -263.376158 0 120 255
96.308996 -204.206357 -264.291977 0 120 255
97.960121 -205.822146 -265.175608 0 120 255
99.622208 -207.428836 -266.057689 0 120 255
101.284295 -209.035526 -266.939770 0 120 255
102.946382 -210.642216 -267.821851 0 120 255
104.816933 -212.052047 -268.613615 0 120 255
106.707278 -213.443185 -269.396804 0 120 255
108.597622 -214.834323 -270.179993 0 120 255
110.487967 -216.225461 -270.963182 0 120 255
112.555319 -217.419444 -271.602926 0 120 255
114.648493 -218.584665 -272.221744 0 120 255
116.741667 -219.749886 -272.840563 0 120 255
118.834841 -220.915108 -273.459381 0 120 255
121.063216 -221.891129 -273.890391 0 120 255
123.318847 -222.829008 -274.283540 0 120 255
125.574478 -223.766887 -274.676688 0 120 255
127.830109 -224.704766 -275.069837 0 120 255
130.172074 -225.469429 -275.242922 0 120 255
132.536741 -226.188546 -275.358144 0 120 255
134.901408 -226.907663 -275.473365 0 120 255
137.266074 -227.626780 -275.588586 0 120 255
139.665369 -228.195728 -275.465671 0 120 255
142.076124 -228.714980 -275.263946 0 120 255
144.486879 -229.234232 -275.062221 0 120 255
146.897634 -229.753484 -274.860497 0 120 255
149.293038 -230.150717 -274.417304 0 120 255
151.682195 -230.498302 -273.875857 0 120 255
154.071353 -230.845886 -273.334411 0 120 255
156.460511 -231.193470 -272.792964 0 120 255
158.790164 -231.449888 -272.020386 0 120 255
161.090518 -231.661415 -271.133998 0 120 255
163.390871 -231.872942 -270.247609 0 120 255
165.691224 -232.084469 -269.361220 0 120 255
167.896760 -232.236090 -268.265161 0 120 255
170.046402 -232.352398 -267.045503 0 120 255
172.196044 -232.468706 -265.825845 0 120 255
174.345686 -232.585014 -264.606187 0 120 255
176.375900 -232.670711 -263.206353 0 120 255
178.322412 -232.734954 -261.680241 0 120 255
180.268925 -232.799198 -260.154130 0 120 255
182.215437 -232.863441 -258.628018 0 120 255
184.027255 -232.914772 -256.953707 0 120 255
185.727312 -232.955388 -255.156428 0 120 255
187.427368 -232.996004 -253.359148 0 120 255
189.127424 -233.036620 -251.561869 0 120 255
190.684017 -233.068779 -249.647613 0 120 255
192.099977 -233.092649 -247.618686 0 120 255
193.515937 -233.116519 -245.589760 0 120 255
194.931896 -233.140388 -243.560834 0 120 255
196.202823 -233.158713 -241.445773 0 120 255
197.305835 -233.170619 -239.230986 0 120 255
198.408846 -233.182525 -237.016200 0 120 255
199.511857 -233.194431 -234.801414 0 120 255
200.475062 -233.203250 -232.529215 0 120 255
201.246607 -233.207837 -230.178311 0 120 255
202.018151 -233.212424 -227.827406 0 120 255
202.789695 -233.217012 -225.476502 0 120 255
203.431872 -233.219728 -223.093096 0 120 255
203.863001 -233.219393 -220.656668 0 120 255
204.294130 -233.219057 -218.220240 0 120 255
204.725259 -233.218722 -215.783812 0 120 255
205.041182 -233.216914 -213.335145 0 120 255
205.131653 -233.212225 -210.862525 0 120 255
205.222123 -233.207536 -208.389906 0 120 255
205.312594 -233.202847 -205.917286 0 120 255
205.304307 -233.196645 -203.447721 0 120 255
205.061433 -233.186849 -200.985411 0 120 255
204.818559 -233.177053 -198.523101 0 120 255
204.575686 -233.167258 -196.060791 0 120 255
204.251481 -233.155771 -193.611940 0 120 255
203.688761 -233.139328 -191.202556 0 120 255
203.126040 -233.122884 -188.793173 0 120 255
202.563319 -233.106441 -186.383789 0 120 255
201.936609 -233.088199 -183.993735 0 120 255
201.072407 -233.063284 -181.675419 0 120 255
200.208204 -233.038370 -179.357103 0 120 255
199.344002 -233.013455 -177.038788 0 120 255
198.432239 -232.986814 -174.741659 0 120 255
197.288562 -232.951753 -172.547844 0 120 255
196.144885 -232.916693 -170.354028 0 120 255
195.001208 -232.881632 -168.160212 0 120 255
193.824884 -232.845125 -165.986025 0 120 255
192.426287 -232.798770 -163.945479 0 120 255
191.027689 -232.752415 -161.904932 0 120 255
189.629091 -232.706059 -159.864386 0 120 255
188.210841 -232.658707 -157.839101 0 120 255
186.583553 -232.600749 -155.976138 0 120 255
184.956266 -232.542791 -154.113175 0 120 255
183.328979 -232.484833 -152.250212 0 120 255
181.692868 -232.426400 -150.395910 0 120 255
179.864053 -232.357568 -148.730752 0 120 255
178.035238 -232.288737 -147.065593 0 120 255
176.206423 -232.219906 -145.400435 0 120 255
174.377330 -232.151061 -143.735620 0 120 255
172.374576 -232.073278 -142.284764 0 120 255
170.371822 -231.995496 -140.833909 0 120 255
168.369069 -231.917714 -139.383054 0 120 255
166.366315 -231.839932 -137.932198 0 120 255
164.223195 -231.757014 -136.699572 0 120 255
162.074140 -231.673878 -135.476173 0 120 255
159.925085 -231.590743 -134.252774 0 120 255
157.776030 -231.507608 -133.029376 0 120 255
155.517845 -231.421530 -132.024455 0 120 255
153.249819 -231.335187 -131.039234 0 120 255
150.981794 -231.248845 -130.054014 0 120 255
148.713768 -231.162502 -129.068794 0 120 255
146.365428 -231.074118 -128.299393 0 120 255
144.005636 -230.985443 -127.560763 0 120 255
141.645844 -230.896768 -126.822134 0 120 255
139.286053 -230.808093 -126.083504 0 120 255
136.872435 -230.718238 -125.555313 0 120 255
134.448043 -230.628147 -125.069251 0 120 255
132.023650 -230.538056 -124.583188 0 120 255
129.599257 -230.447964 -124.097126 0 120 255
127.145174 -230.357541 -123.813797 0 120 255
124.683256 -230.267030 -123.583963 0 120 255
122.221339 -230.176519 -123.354129 0 120 255
119.759421 -230.086009 -123.124295 0 120 255
117.289583 -229.995920 -123.087413 0 120 255
114.817095 -229.905973 -123.115090 0 120 255
112.344607 -229.816026 -123.142767 0 120 255
109.872119 -229.726078 -123.170444 0 120 255
107.411053 -229.637215 -123.379410 0 120 255
104.954712 -229.548801 -123.663355 0 120 255
102.498371 -229.460386 -123.947300 0 120 255
100.042030 -229.371971 -124.231245 0 120 255
97.613961 -229.285211 -124.683350 0 120 255
95.200098 -229.199282 -125.219945 0 120 255
92.786235 -229.113354 -125.756541 0 120 255
90.372372 -229.027425 -126.293136 0 120 255
88.001041 -228.943603 -126.983413 0 120 255
85.655363 -228.861051 -127.766376 0 120 255
83.309685 -228.778500 -128.549340 0 120 255
80.964006 -228.695948 -129.332304 0 120 255
78.672452 -228.615874 -130.253493 0 120 255
76.419766 -228.537578 -131.273950 0 120 255
74.167081 -228.459282 -132.294407 0 120 255
71.914396 -228.380986 -133.314864 0 120 255
69.724698 -228.305441 -134.457448 0 120 255
67.588596 -228.232236 -135.703947 0 120 255
65.452493 -228.159031 -136.950446 0 120 255
63.316390 -228.085827 -138.196945 0 120 255
61.249400 -228.015529 -139.549203 0 120 255
59.251916 -227.948156 -141.007823 0 120 255
57.254432 -227.880782 -142.466443 0 120 255
55.256948 -227.813409 -143.925064 0 120 255
53.332007 -227.749013 -145.473197 0 120 255
51.493300 -227.688156 -147.127739 0 120 255
49.654593 -227.627300 -148.782280 0 120 255
47.815886 -227.566443 -150.436821 0 120 255
46.050566 -227.508536 -152.165139 0 120 255
44.388605 -227.454783 -153.997364 0 120 255
42.726644 -227.401031 -155.829590 0 120 255
41.064684 -227.347278 -157.661816 0 120 255
39.474523 -227.296357 -159.552946 0 120 255
38.004777 -227.250187 -161.542862 0 120 255
36.535031 -227.204016 -163.532779 0 120 255
35.065285 -227.157846 -165.522696 0 120 255
33.663569 -227.114323 -167.557861 0 120 255
32.398806 -227.076132 -169.684119 0 120 255
31.134044 -227.037941 -171.810377 0 120 255
29.869282 -226.999749 -173.936634 0 120 255
28.666895 -226.963954 -176.095993 0 120 255
27.617052 -226.934017 -178.336303 0 120 255
26.567208 -226.904081 -180.576612 0 120 255
25.517365 -226.874145 -182.816921 0 120 255
24.522679 -226.846302 -185.079909 0 120 255
23.694725 -226.824790 -187.411450 0 120 255
22.866770 -226.803278 -189.742991 0 120 255
22.038816 -226.781765 -192.074532 0 120 255
21.257616 -226.762010 -194.420216 0 120 255
20.655607 -226.748988 -196.820105 0 120 255
20.053598 -226.735966 -199.219995 0 120 255
19.451588 -226.722945 -201.619884 0 120 255
18.887170 -226.711320 -204.027355 0 120 255
18.512571 -226.706747 -206.473108 0 120 255
18.137973 -226.702175 -208.918861 0 120 255
17.763374 -226.697603 -211.364614 0 120 255
17.416805 -226.694060 -213.813347 0 120 255
17.268821 -226.697813 -216.283194 0 120 255
17.120838 -226.701566 -218.753040 0 120 255
16.972854 -226.705318 -221.222886 0 120 255
16.843261 -226.709741 -223.692998 0 120 255
16.919292 -226.721662 -226.166079 0 120 255
16.995323 -226.733582 -228.639161 0 120 255
17.071353 -226.745502 -231.112242 0 120 255
17.156288 -226.757744 -233.584650 0 120 255
17.452066 -226.777605 -236.041105 0 120 255
17.747844 -226.797467 -238.497561 0 120 255
18.043623 -226.817329 -240.954017 0 120 255
18.339401 -226.837191 -243.410472 0 120 255
18.849047 -226.864711 -245.831527 0 120 255
19.358917 -226.892239 -248.252545 0 120 255
19.868788 -226.919767 -250.673564 0 120 255
20.378658 -226.947295 -253.094582 0 120 255
21.086869 -226.981854 -255.464693 0 120 255
21.803902 -227.016726 -257.832541 0 120 255
22.520935 -227.051598 -260.200388 0 120 255
23.237968 -227.086470 -262.568236 0 120 255
24.137364 -227.127746 -264.872146 0 120 255
25.053505 -227.169610 -267.170186 0 120 255
25.969645 -227.211474 -269.468226 0 120 255
26.885786 -227.253338 -271.766266 0 120 255
27.967918 -227.300958 -273.989780 0 120 255
29.073897 -227.349405 -276.202588 0 120 255
30.179876 -227.397852 -278.415395 0 120 255
31.285855 -227.446298 -280.628203 0 120 255
32.541305 -227.499866 -282.758265 0 120 255
33.826747 -227.554461 -284.871725 0 120 255
35.112189 -227.609056 -286.985185 0 120 255
36.397631 -227.663651 -289.098645 0 120 255
37.815969 -227.722769 -291.123527 0 120 255
39.269336 -227.783078 -293.125062 0 120 255
40.722703 -227.843388 -295.126596 0 120 255
42.176069 -227.903697 -297.128131 0 120 255
43.745943 -227.967908 -299.037599 0 120 255
45.354675 -228.033419 -300.916360 0 120 255
46.963407 -228.098930 -302.795121 0 120 255
48.572139 -228.164442 -304.673882 0 120 255
50.281421 -228.233265 -306.459358 0 120 255
52.032096 -228.303452 -308.206431 0 120 255
53.782771 -228.373640 -309.953504 0 120 255
55.533447 -228.443827 -311.700577 0 120 255
57.369449 -228.516812 -313.355241 0 120 255
59.248081 -228.591195 -314.963739 0 120 255
61.126713 -228.665578 -316.572236 0 120 255
63.005345 -228.739961 -318.180733 0 120 255
64.955082 -228.816769 -319.699557 0 120 255
66.947429 -228.895029 -321.164645 0 120 255
68.939776 -228.973289 -322.629733 0 120 255
70.932124 -229.051549 -324.094820 0 120 255
72.982549 -229.131892 -325.474586 0 120 255
75.074393 -229.213722 -326.793504 0 120 255
77.166238 -229.295552 -328.112422 0 120 255
79.258082 -229.377382 -329.431340 0 120 255
81.396114 -229.460056 -330.671074 0 120 255
83.573155 -229.543445 -331.843930 0 120 255
85.750197 -229.626833 -333.016786 0 120 255
87.927239 -229.710221 -334.189641 0 120 255
90.139569 -229.789211 -335.291997 0 120 255
92.387118 -229.863810 -336.323990 0 120 255
94.634667 -229.938408 -337.355984 0 120 255
96.882217 -230.013007 -338.387977 0 120 255
99.155843 -230.077964 -339.359153 0 120 255
101.460228 -230.131549 -340.258593 0 120 255
103.764613 -230.185133 -341.158033 0 120 255
106.068998 -230.238717 -342.057473 0 120 255
108.392032 -230.279260 -342.905731 0 120 255
110.741124 -230.301578 -343.682470 0 120 255
113.090215 -230.323896 -344.459209 0 120 255
115.439307 -230.346214 -345.235948 0 120 255
117.801217 -230.354054 -345.970670 0 120 255
120.184452 -230.337807 -346.635485 0 120 255
122.567688 -230.321560 -347.300299 0 120 255
124.950923 -230.305312 -347.965114 0 120 255
127.342519 -230.274652 -348.596455 0 120 255
129.750810 -230.215210 -349.160947 0 120 255
132.159102 -230.155768 -349.725440 0 120 255
134.567394 -230.096325 -350.289932 0 120 255
136.980786 -230.023728 -350.828660 0 120 255
139.406553 -229.919218 -351.304882 0 120 255
141.832319 -229.814707 -351.781104 0 120 255
144.258086 -229.710197 -352.257327 0 120 255
146.686701 -229.594644 -352.714557 0 120 255
149.123856 -229.445979 -353.114842 0 120 255
151.561011 -229.297315 -353.515126 0 120 255
153.998166 -229.148650 -353.915411 0 120 255
156.436735 -228.991548 -354.302465 0 120 255
158.880678 -228.802367 -354.639225 0 120 255
161.324621 -228.613186 -354.975985 0 120 255
163.768564 -228.424005 -355.312745 0 120 255
166.213096 -228.229393 -355.641312 0 120 255
168.660581 -228.007580 -355.928836 0 120 255
171.108066 -227.785766 -356.216360 0 120 255
173.555551 -227.563953 -356.503884 0 120 255
176.003008 -227.340939 -356.790692 0 120 255
178.450269 -227.109497 -357.072469 0 120 255
180.897531 -226.878054 -357.354247 0 120 255
183.344793 -226.646612 -357.636024 0 120 255
185.792054 -226.415169 -357.917802 0 120 255
188.239314 -226.183716 -358.199592 0 120 255
190.686573 -225.952263 -358.481382 0 120 255
193.133832 -225.720810 -358.763172 0 120 255
195.581091 -225.489357 -359.044962 0 120 255
198.028352 -225.257908 -359.326744 0 120 255
200.475612 -225.026459 -359.608526 0 120 255
202.922873 -224.795009 -359.890308 0 120 255
205.370133 -224.563560 -360.172091 0 120 255
