ply
format ascii 1.0
element vertex 385
property float x
property float y
property float z
property uchar red
property uchar green
property uchar blue
end_header
77.430455 -42.474882 -360.397637 0 120 255
77.187397 -42.528746 -357.934352 0 120 255
76.944338 -42.582610 -355.471068 0 120 255
76.701279 -42.636474 -353.007784 0 120 255
76.458221 -42.690338 -350.544500 0 120 255
76.233545 -42.766720 -348.080073 0 120 255
76.009616 -42.844018 -345.615600 0 120 255
75.785687 -42.921315 -343.151126 0 120 255
75.561758 -42.998613 -340.686653 0 120 255
75.416036 -43.340138 -338.240115 0 120 255
75.276803 -43.703589 -335.795066 0 120 255
75.137571 -44.067039 -333.350017 0 120 255
74.998338 -44.430490 -330.904968 0 120 255
74.924614 -45.006939 -328.499741 0 120 255
74.859713 -45.612079 -326.099878 0 120 255
74.794812 -46.217220 -323.700015 0 120 255
74.729912 -46.822361 -321.300153 0 120 255
74.732966 -47.609372 -318.954410 0 120 255
74.749135 -48.431483 -316.619111 0 120 255
74.765304 -49.253593 -314.283812 0 120 255
74.781473 -50.075704 -311.948513 0 120 255
74.866046 -51.049471 -309.675585 0 120 255
74.968324 -52.062490 -307.418800 0 120 255
75.070602 -53.075509 -305.162014 0 120 255
75.172880 -54.088528 -302.905229 0 120 255
75.342260 -55.224891 -300.713944 0 120 255
75.534018 -56.402387 -298.544501 0 120 255
75.725775 -57.579883 -296.375059 0 120 255
75.917533 -58.757378 -294.205616 0 120 255
76.173632 -60.032482 -292.100667 0 120 255
76.456656 -61.348432 -290.022706 0 120 255
76.739681 -62.664382 -287.944746 0 120 255
77.022705 -63.980333 -285.866785 0 120 255
77.366116 -65.371141 -283.849158 0 120 255
77.740683 -66.800570 -281.862659 0 120 255
78.115249 -68.230000 -279.876160 0 120 255
78.489816 -69.659429 -277.889660 0 120 255
78.919903 -71.144130 -275.957110 0 120 255
79.384880 -72.663566 -274.058464 0 120 255
79.849857 -74.183002 -272.159818 0 120 255
80.314835 -75.702438 -270.261171 0 120 255
80.829773 -77.260688 -268.408663 0 120 255
81.382647 -78.848409 -266.591186 0 120 255
81.935521 -80.436130 -264.773709 0 120 255
82.488394 -82.023851 -262.956233 0 120 255
83.085221 -83.636950 -261.176399 0 120 255
83.722187 -85.273226 -259.430941 0 120 255
84.359153 -86.909502 -257.685483 0 120 255
84.996120 -88.545778 -255.940025 0 120 255
85.670767 -90.196767 -254.223600 0 120 255
86.386730 -91.863890 -252.539010 0 120 255
87.102694 -93.531013 -250.854419 0 120 255
87.818657 -95.198136 -249.169829 0 120 255
88.565963 -96.871813 -247.506048 0 120 255
89.354577 -98.554127 -245.869693 0 120 255
90.143190 -100.236441 -244.233339 0 120 255
90.931804 -101.918754 -242.596984 0 120 255
91.745519 -103.601654 -240.973969 0 120 255
92.599157 -105.285484 -239.372168 0 120 255
93.452794 -106.969315 -237.770367 0 120 255
94.306432 -108.653146 -236.168567 0 120 255
95.179202 -110.333474 -234.573670 0 120 255
96.088957 -112.007031 -232.992121 0 120 255
96.998712 -113.680589 -231.410571 0 120 255
97.908467 -115.354147 -229.829022 0 120 255
98.831814 -117.021690 -228.249166 0 120 255
99.787467 -118.674940 -226.673336 0 120 255
100.743121 -120.328189 -225.097506 0 120 255
101.698774 -121.981438 -223.521676 0 120 255
102.663071 -123.627453 -221.943662 0 120 255
103.653063 -125.251957 -220.359159 0 120 255
104.643055 -126.876461 -218.774657 0 120 255
105.633047 -128.500965 -217.190154 0 120 255
106.627486 -130.118047 -215.600966 0 120 255
107.638883 -131.706817 -213.993909 0 120 255
108.650281 -133.295587 -212.386851 0 120 255
109.661678 -134.884357 -210.779794 0 120 255
110.674239 -136.466318 -209.166893 0 120 255
111.692722 -138.013630 -207.524253 0 120 255
112.711204 -139.560942 -205.881612 0 120 255
113.729687 -141.108253 -204.238972 0 120 255
114.747123 -142.649979 -202.590585 0 120 255
115.756977 -144.151226 -200.900555 0 120 255
116.766830 -145.652473 -199.210525 0 120 255
117.776684 -147.153720 -197.520495 0 120 255
118.784510 -148.651042 -195.825918 0 120 255
119.768667 -150.102555 -194.078264 0 120 255
120.752823 -151.554068 -192.330610 0 120 255
121.736980 -153.005581 -190.582956 0 120 255
122.719497 -154.455136 -188.832849 0 120 255
123.659594 -155.854024 -187.019268 0 120 255
124.599690 -157.252912 -185.205686 0 120 255
125.539787 -158.651800 -183.392104 0 120 255
126.479883 -160.050688 -181.578523 0 120 255
127.356624 -161.394917 -179.693297 0 120 255
128.233123 -162.738938 -177.807799 0 120 255
129.109622 -164.082959 -175.922300 0 120 255
129.986122 -165.426980 -174.036802 0 120 255
130.782205 -166.716888 -172.079389 0 120 255
131.574584 -168.004302 -170.118662 0 120 255
132.366963 -169.291716 -168.157936 0 120 255
133.159342 -170.579131 -166.197209 0 120 255
133.855153 -171.813408 -164.167281 0 120 255
134.542166 -173.042845 -162.131047 0 120 255
135.229179 -174.272281 -160.094814 0 120 255
135.916192 -175.501718 -158.058580 0 120 255
136.491715 -176.679307 -155.958785 0 120 255
137.051730 -177.849683 -153.850148 0 120 255
137.611744 -179.020060 -151.741511 0 120 255
138.171758 -180.190436 -149.632874 0 120 255
138.606959 -181.310451 -147.469106 0 120 255
139.018408 -182.420883 -145.294848 0 120 255
139.429857 -183.531314 -143.120589 0 120 255
139.841306 -184.641745 -140.946331 0 120 255
140.116575 -185.703411 -138.727944 0 120 255
140.358489 -186.753132 -136.498749 0 120 255
140.600403 -187.802853 -134.269554 0 120 255
140.842316 -188.852574 -132.040359 0 120 255
140.939028 -189.855202 -129.780320 0 120 255
140.991694 -190.843544 -127.510925 0 120 255
141.044359 -191.831886 -125.241530 0 120 255
141.097024 -192.820228 -122.972134 0 120 255
140.998117 -193.763192 -120.687066 0 120 255
140.843759 -194.689555 -118.396264 0 120 255
140.689400 -195.615917 -116.105462 0 120 255
140.535042 -196.542280 -113.814660 0 120 255
140.225728 -197.425032 -111.524769 0 120 255
139.849337 -198.288906 -109.235271 0 120 255
139.472947 -199.152781 -106.945774 0 120 255
139.096556 -200.016655 -104.656276 0 120 255
138.564996 -200.838735 -102.385117 0 120 255
137.955071 -201.639707 -100.123218 0 120 255
137.345146 -202.440679 -97.861320 0 120 255
136.735221 -203.241651 -95.599422 0 120 255
135.973252 -204.002743 -93.373500 0 120 255
135.122639 -204.740585 -91.168552 0 120 255
134.272025 -205.478426 -88.963604 0 120 255
133.421411 -206.216267 -86.758657 0 120 255
132.425200 -206.916251 -84.606835 0 120 255
131.331759 -207.590954 -82.490491 0 120 255
130.238319 -208.265657 -80.374147 0 120 255
129.144879 -208.940360 -78.257803 0 120 255
127.915454 -209.579374 -76.210546 0 120 255
126.582602 -210.191242 -74.215836 0 120 255
125.249750 -210.803111 -72.221125 0 120 255
123.916899 -211.414980 -70.226414 0 120 255
122.460565 -211.993495 -68.314851 0 120 255
120.897658 -212.543225 -66.475050 0 120 255
119.334752 -213.092955 -64.635249 0 120 255
117.771845 -213.642685 -62.795448 0 120 255
116.100363 -214.161575 -61.050331 0 120 255
114.322757 -214.650322 -59.397760 0 120 255
112.545151 -215.139068 -57.745189 0 120 255
110.767545 -215.627815 -56.092617 0 120 255
108.898065 -216.088407 -54.543214 0 120 255
106.926916 -216.517844 -53.107977 0 120 255
104.955767 -216.947281 -51.672741 0 120 255
102.984619 -217.376718 -50.237504 0 120 255
100.939359 -217.780838 -48.910493 0 120 255
98.801117 -218.153195 -47.719268 0 120 255
96.662874 -218.525552 -46.528042 0 120 255
94.524632 -218.897909 -45.336817 0 120 255
92.330289 -219.247890 -44.255269 0 120 255
90.055888 -219.565941 -43.330233 0 120 255
87.781487 -219.883992 -42.405197 0 120 255
85.507086 -220.202044 -41.480161 0 120 255
83.194004 -220.500721 -40.662684 0 120 255
80.817823 -220.767794 -40.020670 0 120 255
78.441642 -221.034867 -39.378655 0 120 255
76.065461 -221.301940 -38.736641 0 120 255
73.666638 -221.552619 -38.196731 0 120 255
71.225278 -221.772498 -37.848643 0 120 255
68.783919 -221.992378 -37.500555 0 120 255
66.342559 -222.212257 -37.152468 0 120 255
63.892519 -222.418637 -36.898141 0 120 255
61.423507 -222.595519 -36.848710 0 120 255
58.954496 -222.772400 -36.799280 0 120 255
56.485485 -222.949282 -36.749850 0 120 255
54.019130 -223.115389 -36.783539 0 120 255
51.559622 -223.253734 -37.031388 0 120 255
49.100114 -223.392078 -37.279236 0 120 255
46.640606 -223.530423 -37.527084 0 120 255
44.192114 -223.660487 -37.845814 0 120 255
41.777702 -223.764933 -38.383820 0 120 255
39.363289 -223.869379 -38.921826 0 120 255
36.948876 -223.973825 -39.459832 0 120 255
34.550705 -224.072197 -40.055631 0 120 255
32.214392 -224.147432 -40.871556 0 120 255
29.878080 -224.222667 -41.687480 0 120 255
27.541768 -224.297902 -42.503405 0 120 255
25.223829 -224.368942 -43.363911 0 120 255
22.995228 -224.419586 -44.441186 0 120 255
20.766627 -224.470230 -45.518460 0 120 255
18.538026 -224.520873 -46.595735 0 120 255
16.327055 -224.568854 -47.704915 0 120 255
14.231825 -224.599353 -49.023562 0 120 255
12.136595 -224.629852 -50.342209 0 120 255
10.041365 -224.660350 -51.660856 0 120 255
7.960495 -224.689369 -52.999816 0 120 255
6.020030 -224.703916 -54.537388 0 120 255
4.079564 -224.718464 -56.074961 0 120 255
2.139098 -224.733011 -57.612533 0 120 255
0.207642 -224.746926 -59.160328 0 120 255
-1.561020 -224.749397 -60.892833 0 120 255
-3.329682 -224.751869 -62.625339 0 120 255
-5.098344 -224.754340 -64.357845 0 120 255
-6.864937 -224.756715 -66.092259 0 120 255
-8.449005 -224.750615 -67.995005 0 120 255
-10.033073 -224.744515 -69.897750 0 120 255
-11.617140 -224.738414 -71.800496 0 120 255
-13.201208 -224.732314 -73.703241 0 120 255
-14.597840 -224.720923 -75.747082 0 120 255
-15.988510 -224.709364 -77.795411 0 120 255
-17.379179 -224.697805 -79.843740 0 120 255
-18.769849 -224.686246 -81.892069 0 120 255
-19.976557 -224.672143 -84.053020 0 120 255
-21.168649 -224.657837 -86.222919 0 120 255
-22.360740 -224.643531 -88.392817 0 120 255
-23.552832 -224.629226 -90.562716 0 120 255
-24.567828 -224.614548 -92.819739 0 120 255
-25.559351 -224.599820 -95.088310 0 120 255
-26.550874 -224.585093 -97.356881 0 120 255
-27.542397 -224.570365 -99.625452 0 120 255
-28.366265 -224.556914 -101.958820 0 120 255
-29.157951 -224.543707 -104.304626 0 120 255
-29.949638 -224.530500 -106.650432 0 120 255
-30.741324 -224.517294 -108.996238 0 120 255
-31.376625 -224.506566 -111.387714 0 120 255
-31.971461 -224.496480 -113.791006 0 120 255
-32.566297 -224.486394 -116.194299 0 120 255
-33.161133 -224.476308 -118.597592 0 120 255
-33.611982 -224.469716 -121.030535 0 120 255
-34.014702 -224.464293 -123.473389 0 120 255
-34.417423 -224.458869 -125.916243 0 120 255
-34.820143 -224.453446 -128.359096 0 120 255
-35.091983 -224.452378 -130.818472 0 120 255
-35.308833 -224.453140 -133.284790 0 120 255
-35.525683 -224.453902 -135.751108 0 120 255
-35.742533 -224.454664 -138.217426 0 120 255
-35.841745 -224.459774 -140.689807 0 120 255
-35.879935 -224.467140 -143.165335 0 120 255
-35.918124 -224.474505 -145.640862 0 120 255
-35.956314 -224.481871 -148.116389 0 120 255
-35.889940 -224.492982 -150.589907 0 120 255
-35.757392 -224.506465 -153.062152 0 120 255
-35.624845 -224.519947 -155.534397 0 120 255
-35.492297 -224.533430 -158.006643 0 120 255
-35.267869 -224.550229 -160.470901 0 120 255
-34.973029 -224.569569 -162.929040 0 120 255
-34.678189 -224.588909 -165.387178 0 120 255
-34.383350 -224.608250 -167.845316 0 120 255
-34.008613 -224.630563 -170.291288 0 120 255
-33.560034 -224.655625 -172.726015 0 120 255
-33.111455 -224.680687 -175.160742 0 120 255
-32.662876 -224.705749 -177.595469 0 120 255
-32.145620 -224.733397 -180.015371 0 120 255
-31.551867 -224.763928 -182.418759 0 120 255
-30.958113 -224.794458 -184.822147 0 120 255
-30.364360 -224.824988 -187.225534 0 120 255
-29.712314 -224.857720 -189.612704 0 120 255
-28.981821 -224.893416 -191.978048 0 120 255
-28.251329 -224.929112 -194.343393 0 120 255
-27.520836 -224.964807 -196.708737 0 120 255
-26.741571 -225.002328 -199.057512 0 120 255
-25.882541 -225.042833 -201.379187 0 120 255
-25.023511 -225.083337 -203.700862 0 120 255
-24.164481 -225.123842 -206.022537 0 120 255
-23.265334 -225.165819 -208.328131 0 120 255
-22.285650 -225.210750 -210.601443 0 120 255
-21.305966 -225.255682 -212.874755 0 120 255
-20.326282 -225.300614 -215.148068 0 120 255
-19.314298 -225.346698 -217.406461 0 120 255
-18.221471 -225.395669 -219.627515 0 120 255
-17.128643 -225.444640 -221.848568 0 120 255
-16.035815 -225.493611 -224.069621 0 120 255
-14.917709 -225.543452 -226.277448 0 120 255
-13.718839 -225.596074 -228.443017 0 120 255
-12.519968 -225.648695 -230.608586 0 120 255
-11.321098 -225.701317 -232.774154 0 120 255
-10.103226 -225.754567 -234.928603 0 120 255
-8.804997 -225.810475 -237.036024 0 120 255
-7.506767 -225.866383 -239.143445 0 120 255
-6.208538 -225.922292 -241.250866 0 120 255
-4.896894 -225.978624 -243.349591 0 120 255
-3.505551 -226.037476 -245.396649 0 120 255
-2.114208 -226.096329 -247.443708 0 120 255
-0.722865 -226.155181 -249.490766 0 120 255
0.676935 -226.214294 -251.531797 0 120 255
2.155583 -226.275831 -253.516630 0 120 255
3.634231 -226.337368 -255.501463 0 120 255
5.112878 -226.398905 -257.486296 0 120 255
6.595595 -226.460571 -259.467959 0 120 255
8.156145 -226.524694 -261.388979 0 120 255
9.716696 -226.588816 -263.309999 0 120 255
11.277246 -226.652939 -265.231019 0 120 255
12.837985 -226.717068 -267.151880 0 120 255
14.475432 -226.783684 -269.007702 0 120 255
16.112880 -226.850300 -270.863525 0 120 255
17.750327 -226.916917 -272.719347 0 120 255
19.387774 -226.983533 -274.575169 0 120 255
21.094185 -227.052363 -276.367586 0 120 255
22.803830 -227.121298 -278.157031 0 120 255
24.513475 -227.190232 -279.946475 0 120 255
26.223119 -227.259166 -281.735919 0 120 255
27.994470 -227.330024 -283.464004 0 120 255
29.772075 -227.401077 -285.185869 0 120 255
31.549680 -227.472130 -286.907734 0 120 255
33.327286 -227.543183 -288.629599 0 120 255
35.160017 -227.615891 -290.292277 0 120 255
37.001669 -227.688868 -291.945377 0 120 255
38.843322 -227.761845 -293.598476 0 120 255
40.684974 -227.834821 -295.251576 0 120 255
42.575655 -227.909176 -296.847901 0 120 255
44.477579 -227.983846 -298.431207 0 120 255
46.379503 -228.058517 -300.014513 0 120 255
48.281427 -228.133187 -301.597818 0 120 255
50.226892 -228.208943 -303.126771 0 120 255
52.185642 -228.285031 -304.639139 0 120 255
54.144392 -228.361118 -306.151507 0 120 255
56.103142 -228.437205 -307.663875 0 120 255
58.100269 -228.514004 -309.124599 0 120 255
60.112404 -228.591081 -310.565126 0 120 255
62.124540 -228.668158 -312.005653 0 120 255
64.136676 -228.745235 -313.446180 0 120 255
66.182462 -228.822352 -314.837883 0 120 255
68.244715 -228.899490 -316.205694 0 120 255
70.306969 -228.976627 -317.573506 0 120 255
72.369222 -229.053764 -318.941318 0 120 255
74.461379 -229.128531 -320.262370 0 120 255
76.571559 -229.201868 -321.555238 0 120 255
78.681739 -229.275205 -322.848107 0 120 255
80.791919 -229.348543 -324.140976 0 120 255
82.928912 -229.415947 -325.388534 0 120 255
85.085602 -229.478993 -326.602808 0 120 255
87.242292 -229.542038 -327.817083 0 120 255
89.398982 -229.605084 -329.031357 0 120 255
91.579341 -229.659913 -330.202054 0 120 255
93.780750 -229.707433 -331.333993 0 120 255
95.982160 -229.754953 -332.465932 0 120 255
98.183569 -229.802473 -333.597871 0 120 255
100.405415 -229.840766 -334.688422 0 120 255
102.649208 -229.869149 -335.734528 0 120 255
104.893001 -229.897533 -336.780633 0 120 255
107.136793 -229.925916 -337.826739 0 120 255
109.397931 -229.944420 -338.833798 0 120 255
111.681572 -229.950105 -339.790196 0 120 255
113.965214 -229.955790 -340.746593 0 120 255
116.248855 -229.961475 -341.702991 0 120 255
118.546884 -229.956987 -342.622886 0 120 255
120.867555 -229.936489 -343.485332 0 120 255
123.188226 -229.915991 -344.347778 0 120 255
125.508897 -229.895492 -345.210224 0 120 255
127.841147 -229.864870 -346.038946 0 120 255
130.195673 -229.814768 -346.802781 0 120 255
132.550199 -229.764666 -347.566616 0 120 255
134.904725 -229.714564 -348.330451 0 120 255
137.268185 -229.654727 -349.063644 0 120 255
139.652925 -229.571699 -349.723850 0 120 255
142.037664 -229.488672 -350.384056 0 120 255
144.422404 -229.405645 -351.044261 0 120 255
146.813640 -229.313597 -351.677245 0 120 255
149.224400 -229.194436 -352.228409 0 120 255
151.635161 -229.075276 -352.779572 0 120 255
154.045922 -228.956115 -353.330735 0 120 255
156.460998 -228.828961 -353.858493 0 120 255
158.892923 -228.670594 -354.294852 0 120 255
161.324847 -228.512226 -354.731210 0 120 255
163.756772 -228.353859 -355.167569 0 120 255
166.191292 -228.187229 -355.582652 0 120 255
168.639594 -227.976709 -355.884720 0 120 255
171.087897 -227.766190 -356.186787 0 120 255
173.536199 -227.555670 -356.488855 0 120 255
175.984559 -227.342683 -356.788568 0 120 255
178.433359 -227.111096 -357.070522 0 120 255
180.882158 -226.879508 -357.352477 0 120 255
183.330957 -226.647921 -357.634431 0 120 255
185.779756 -226.416333 -357.916386 0 120 255
188.228552 -226.184734 -358.198353 0 120 255
190.677349 -225.953135 -358.480320 0 120 255
193.126145 -225.721537 -358.762287 0 120 255
195.574942 -225.489938 -359.044253 0 120 255
198.023740 -225.258344 -359.326213 0 120 255
200.472538 -225.026749 -359.608172 0 120 255
202.921335 -224.795155 -359.890131 0 120 255
205.370133 -224.563560 -360.172091 0 120 255
