ply
format ascii 1.0
element vertex 385
property float x
property float y
property float z
property uchar red
property uchar green
property uchar blue
end_header
77.430455 -42.474882 -360.397637 0 120 255
77.187564 -42.528709 -357.936050 0 120 255
76.944673 -42.582536 -355.474463 0 120 255
76.701782 -42.636363 -353.012877 0 120 255
76.458891 -42.690189 -350.551290 0 120 255
76.213521 -42.753159 -348.090167 0 120 255
75.968042 -42.816527 -345.629065 0 120 255
75.722564 -42.879895 -343.167962 0 120 255
75.477086 -42.943263 -340.706859 0 120 255
75.068710 -43.402957 -338.313945 0 120 255
74.645471 -43.898809 -335.927253 0 120 255
74.222232 -44.394662 -333.540560 0 120 255
73.798993 -44.890515 -331.153868 0 120 255
73.244078 -45.678245 -328.878813 0 120 255
72.669719 -46.509074 -326.620244 0 120 255
72.095361 -47.339903 -324.361674 0 120 255
71.521002 -48.170731 -322.103104 0 120 255
70.846072 -49.210940 -319.965506 0 120 255
70.150007 -50.295150 -317.853331 0 120 255
69.453943 -51.379361 -315.741156 0 120 255
68.757878 -52.463571 -313.628981 0 120 255
67.992440 -53.694492 -311.626604 0 120 255
67.207616 -54.966413 -309.654912 0 120 255
66.422792 -56.238334 -307.683220 0 120 255
65.637968 -57.510255 -305.711528 0 120 255
64.813636 -58.886262 -303.829753 0 120 255
63.975211 -60.299399 -301.980052 0 120 255
63.136787 -61.712535 -300.130352 0 120 255
62.298362 -63.125671 -298.280652 0 120 255
61.447785 -64.617054 -296.500576 0 120 255
60.591820 -66.143129 -294.751370 0 120 255
59.735856 -67.669203 -293.002164 0 120 255
58.879891 -69.195278 -291.252958 0 120 255
58.035672 -70.785868 -289.557454 0 120 255
57.197814 -72.411389 -287.891027 0 120 255
56.359956 -74.036909 -286.224600 0 120 255
55.522098 -75.662430 -284.558173 0 120 255
54.715714 -77.346121 -282.935797 0 120 255
53.929892 -79.067816 -281.342200 0 120 255
53.144070 -80.789511 -279.748603 0 120 255
52.358248 -82.511206 -278.155006 0 120 255
51.619041 -84.288135 -276.601936 0 120 255
50.916306 -86.108281 -275.080576 0 120 255
50.213572 -87.928426 -273.559216 0 120 255
49.510837 -89.748571 -272.037856 0 120 255
48.865216 -91.621503 -270.558215 0 120 255
48.272884 -93.543685 -269.117500 0 120 255
47.680552 -95.465867 -267.676784 0 120 255
47.088220 -97.388049 -266.236069 0 120 255
46.559142 -99.359286 -264.841017 0 120 255
46.100339 -101.385022 -263.496698 0 120 255
45.641535 -103.410758 -262.152378 0 120 255
45.182732 -105.436493 -260.808058 0 120 255
44.789483 -107.505507 -259.514108 0 120 255
44.483067 -109.631845 -258.286876 0 120 255
44.176652 -111.758182 -257.059644 0 120 255
43.870236 -113.884520 -255.832412 0 120 255
43.628521 -116.046337 -254.659320 0 120 255
43.489395 -118.264408 -253.572073 0 120 255
43.350270 -120.482479 -252.484826 0 120 255
43.211144 -122.700551 -251.397580 0 120 255
43.133413 -124.944838 -250.366089 0 120 255
43.173041 -127.239239 -249.441181 0 120 255
43.212669 -129.533640 -248.516272 0 120 255
43.252297 -131.828041 -247.591364 0 120 255
43.348213 -134.138814 -246.721029 0 120 255
43.575281 -136.487734 -245.977849 0 120 255
43.802348 -138.836654 -245.234668 0 120 255
44.029416 -141.185575 -244.491488 0 120 255
44.306387 -143.541423 -243.798739 0 120 255
44.727389 -145.917267 -243.251541 0 120 255
45.148391 -148.293110 -242.704343 0 120 255
45.569393 -150.668954 -242.157145 0 120 255
46.033031 -153.043641 -241.653589 0 120 255
46.652766 -155.414094 -241.309809 0 120 255
47.272501 -157.784547 -240.966029 0 120 255
47.892236 -160.154999 -240.622248 0 120 255
48.546716 -162.518391 -240.313327 0 120 255
49.368493 -164.847786 -240.172247 0 120 255
50.190269 -167.177182 -240.031167 0 120 255
51.012046 -169.506577 -239.890086 0 120 255
51.860249 -171.825800 -239.774023 0 120 255
52.885887 -174.076727 -239.825930 0 120 255
53.911526 -176.327654 -239.877837 0 120 255
54.937164 -178.578582 -239.929744 0 120 255
55.980644 -180.819373 -239.996859 0 120 255
57.210154 -182.954479 -240.222539 0 120 255
58.439663 -185.089584 -240.448220 0 120 255
59.669173 -187.224690 -240.673900 0 120 255
60.907878 -189.352897 -240.906204 0 120 255
62.338937 -191.336795 -241.277039 0 120 255
63.769997 -193.320694 -241.647875 0 120 255
65.201056 -195.304592 -242.018710 0 120 255
66.632893 -197.287766 -242.389973 0 120 255
68.260094 -199.089046 -242.868417 0 120 255
69.887295 -200.890326 -243.346860 0 120 255
71.514496 -202.691607 -243.825304 0 120 255
73.141697 -204.492887 -244.303748 0 120 255
74.948777 -206.093814 -244.842109 0 120 255
76.762862 -207.686939 -245.382803 0 120 255
78.576947 -209.280064 -245.923497 0 120 255
80.391031 -210.873190 -246.464191 0 120 255
82.364422 -212.258112 -247.014773 0 120 255
84.351426 -213.625243 -247.566200 0 120 255
86.338429 -214.992374 -248.117627 0 120 255
88.325433 -216.359505 -248.669054 0 120 255
90.447635 -217.520051 -249.181093 0 120 255
92.588236 -218.652485 -249.687772 0 120 255
94.728837 -219.784918 -250.194452 0 120 255
96.869438 -220.917352 -250.701131 0 120 255
99.117850 -221.854032 -251.122585 0 120 255
101.386904 -222.753232 -251.527721 0 120 255
103.655958 -223.652432 -251.932857 0 120 255
105.925012 -224.551632 -252.337993 0 120 255
108.271801 -225.274210 -252.618026 0 120 255
110.638204 -225.952224 -252.866492 0 120 255
113.004607 -226.630238 -253.114959 0 120 255
115.371011 -227.308251 -253.363425 0 120 255
117.783278 -227.835595 -253.455015 0 120 255
120.210200 -228.314794 -253.496478 0 120 255
122.637122 -228.793994 -253.537941 0 120 255
125.064044 -229.273193 -253.579404 0 120 255
127.504312 -229.632523 -253.441885 0 120 255
129.949842 -229.944600 -253.233811 0 120 255
132.395371 -230.256676 -253.025737 0 120 255
134.840901 -230.568753 -252.817663 0 120 255
137.267924 -230.794341 -252.419050 0 120 255
139.686105 -230.978613 -251.929414 0 120 255
142.104287 -231.162884 -251.439778 0 120 255
144.522469 -231.347156 -250.950142 0 120 255
146.892304 -231.480105 -250.269163 0 120 255
149.234500 -231.583714 -249.478791 0 120 255
151.576695 -231.687323 -248.688419 0 120 255
153.918891 -231.790933 -247.898048 0 120 255
156.186359 -231.875716 -246.925367 0 120 255
158.403097 -231.947718 -245.828923 0 120 255
160.619836 -232.019721 -244.732480 0 120 255
162.836574 -232.091724 -243.636037 0 120 255
164.956626 -232.150655 -242.373706 0 120 255
166.999074 -232.199094 -240.978226 0 120 255
169.041521 -232.247533 -239.582745 0 120 255
171.083968 -232.295972 -238.187265 0 120 255
173.011946 -232.334832 -236.647618 0 120 255
174.831531 -232.364621 -234.971453 0 120 255
176.651115 -232.394410 -233.295288 0 120 255
178.470699 -232.424199 -231.619123 0 120 255
180.163402 -232.447957 -229.824201 0 120 255
181.714507 -232.464986 -227.896745 0 120 255
183.265611 -232.482015 -225.969289 0 120 255
184.816715 -232.499044 -224.041833 0 120 255
186.234825 -232.512671 -222.022982 0 120 255
187.477722 -232.521815 -219.883723 0 120 255
188.720619 -232.530960 -217.744465 0 120 255
189.963516 -232.540105 -215.605207 0 120 255
191.073674 -232.547396 -213.401833 0 120 255
191.976551 -232.551792 -211.098336 0 120 255
192.879427 -232.556187 -208.794840 0 120 255
193.782304 -232.560583 -206.491343 0 120 255
194.558675 -232.563848 -204.149140 0 120 255
195.099260 -232.565003 -201.734794 0 120 255
195.639844 -232.566158 -199.320447 0 120 255
196.180429 -232.567312 -196.906101 0 120 255
196.605800 -232.567500 -194.475072 0 120 255
196.772208 -232.565512 -192.006549 0 120 255
196.938617 -232.563524 -189.538026 0 120 255
197.105025 -232.561536 -187.069503 0 120 255
197.171366 -232.558458 -184.601846 0 120 255
196.962357 -232.552380 -182.136571 0 120 255
196.753349 -232.546303 -179.671296 0 120 255
196.544341 -232.540225 -177.206021 0 120 255
196.252842 -232.532854 -174.754035 0 120 255
195.677364 -232.521028 -172.347795 0 120 255
195.101887 -232.509202 -169.941556 0 120 255
194.526409 -232.497376 -167.535317 0 120 255
193.887018 -232.484135 -165.149468 0 120 255
192.963307 -232.464595 -162.854326 0 120 255
192.039596 -232.445056 -160.559183 0 120 255
191.115885 -232.425517 -158.264041 0 120 255
190.146467 -232.404614 -155.991286 0 120 255
188.900621 -232.375464 -153.853923 0 120 255
187.654775 -232.346314 -151.716560 0 120 255
186.408929 -232.317164 -149.579197 0 120 255
185.134070 -232.286899 -147.461647 0 120 255
183.598477 -232.246615 -145.522154 0 120 255
182.062884 -232.206332 -143.582661 0 120 255
180.527291 -232.166048 -141.643168 0 120 255
178.976962 -232.125066 -139.717119 0 120 255
177.188522 -232.072803 -138.008303 0 120 255
175.400081 -232.020539 -136.299488 0 120 255
173.611641 -231.968275 -134.590672 0 120 255
171.819719 -231.915816 -132.886037 0 120 255
169.818147 -231.851578 -131.433147 0 120 255
167.816576 -231.787341 -129.980258 0 120 255
165.815005 -231.723104 -128.527369 0 120 255
163.813433 -231.658866 -127.074480 0 120 255
161.644073 -231.583956 -125.888333 0 120 255
159.470285 -231.508764 -124.709225 0 120 255
157.296498 -231.433572 -123.530117 0 120 255
155.122710 -231.358379 -122.351009 0 120 255
152.826356 -231.274920 -121.437297 0 120 255
150.521083 -231.190859 -120.542897 0 120 255
148.215809 -231.106797 -119.648498 0 120 255
145.910536 -231.022736 -118.754098 0 120 255
143.523333 -230.933836 -118.117210 0 120 255
141.125999 -230.844336 -117.512162 0 120 255
138.728665 -230.754837 -116.907115 0 120 255
136.331331 -230.665338 -116.302067 0 120 255
133.887531 -230.574799 -115.941802 0 120 255
131.435383 -230.484072 -115.625511 0 120 255
128.983234 -230.393345 -115.309220 0 120 255
126.531086 -230.302618 -114.992929 0 120 255
124.062731 -230.212296 -114.905364 0 120 255
121.590461 -230.122071 -114.873040 0 120 255
119.118192 -230.031846 -114.840717 0 120 255
116.645922 -229.941622 -114.808393 0 120 255
114.182600 -229.852552 -114.986348 0 120 255
111.722053 -229.763840 -115.229536 0 120 255
109.261506 -229.675128 -115.472724 0 120 255
106.800959 -229.586416 -115.715912 0 120 255
104.369645 -229.499484 -116.149598 0 120 255
101.949645 -229.413242 -116.657005 0 120 255
99.529644 -229.327000 -117.164412 0 120 255
97.109644 -229.240758 -117.671819 0 120 255
94.734701 -229.156777 -118.349472 0 120 255
92.381084 -229.073866 -119.107705 0 120 255
90.027467 -228.990956 -119.865937 0 120 255
87.673851 -228.908045 -120.624169 0 120 255
85.377113 -228.827751 -121.532534 0 120 255
83.112858 -228.748950 -122.526637 0 120 255
80.848602 -228.670150 -123.520739 0 120 255
78.584347 -228.591349 -124.514842 0 120 255
76.385276 -228.515405 -125.639591 0 120 255
74.230706 -228.441410 -126.853534 0 120 255
72.076137 -228.367415 -128.067477 0 120 255
69.921568 -228.293420 -129.281420 0 120 255
67.837442 -228.222402 -130.607484 0 120 255
65.810472 -228.153800 -132.024519 0 120 255
63.783502 -228.085198 -133.441554 0 120 255
61.756532 -228.016595 -134.858589 0 120 255
59.802650 -227.951010 -136.370398 0 120 255
57.919023 -227.888325 -137.973309 0 120 255
56.035397 -227.825640 -139.576220 0 120 255
54.151770 -227.762955 -141.179132 0 120 255
52.341654 -227.703241 -142.860797 0 120 255
50.615193 -227.646908 -144.632085 0 120 255
48.888732 -227.590575 -146.403373 0 120 255
47.162271 -227.534242 -148.174660 0 120 255
45.507853 -227.480770 -150.010083 0 120 255
43.950672 -227.431161 -151.932068 0 120 255
42.393490 -227.381553 -153.854053 0 120 255
40.836309 -227.331944 -155.776038 0 120 255
39.348117 -227.285041 -157.748992 0 120 255
37.970840 -227.242488 -159.803889 0 120 255
36.593563 -227.199936 -161.858785 0 120 255
35.216286 -227.157384 -163.913682 0 120 255
33.903579 -227.117330 -166.007833 0 120 255
32.715422 -227.082095 -168.177705 0 120 255
31.527266 -227.046861 -170.347577 0 120 255
30.339110 -227.011627 -172.517449 0 120 255
29.209936 -226.978649 -174.716326 0 120 255
28.218789 -226.950949 -176.983078 0 120 255
27.227642 -226.923250 -179.249829 0 120 255
26.236495 -226.895550 -181.516581 0 120 255
25.297755 -226.869834 -183.803564 0 120 255
24.510213 -226.849838 -186.148916 0 120 255
23.722670 -226.829842 -188.494269 0 120 255
22.935127 -226.809846 -190.839622 0 120 255
22.192583 -226.791540 -193.197926 0 120 255
21.613891 -226.779385 -195.603393 0 120 255
21.035199 -226.767229 -198.008859 0 120 255
20.456507 -226.755074 -200.414326 0 120 255
19.914731 -226.744291 -202.826984 0 120 255
19.548748 -226.740041 -205.273889 0 120 255
19.182766 -226.735791 -207.720793 0 120 255
18.816783 -226.731540 -210.167697 0 120 255
18.479120 -226.728333 -212.617579 0 120 255
18.328177 -226.732002 -215.087094 0 120 255
18.177233 -226.735672 -217.556609 0 120 255
18.026290 -226.739341 -220.026124 0 120 255
17.894730 -226.743715 -222.495975 0 120 255
17.959478 -226.755229 -224.969227 0 120 255
18.024226 -226.766742 -227.442480 0 120 255
18.088974 -226.778255 -229.915732 0 120 255
18.164038 -226.790141 -232.388262 0 120 255
18.443325 -226.809394 -234.846500 0 120 255
18.722612 -226.828646 -237.304737 0 120 255
19.001899 -226.847899 -239.762974 0 120 255
19.282523 -226.867200 -242.221000 0 120 255
19.773275 -226.894027 -244.645819 0 120 255
20.264026 -226.920854 -247.070637 0 120 255
20.754778 -226.947681 -249.495456 0 120 255
21.245529 -226.974508 -251.920274 0 120 255
21.935442 -227.008412 -254.295695 0 120 255
22.632667 -227.042576 -256.669303 0 120 255
23.329893 -227.076740 -259.042910 0 120 255
24.027118 -227.110904 -261.416517 0 120 255
24.908549 -227.151540 -263.727266 0 120 255
25.805381 -227.192718 -266.032759 0 120 255
26.702213 -227.233895 -268.338252 0 120 255
27.599045 -227.275072 -270.643745 0 120 255
28.664075 -227.322101 -272.875391 0 120 255
29.751803 -227.369919 -275.097072 0 120 255
30.839530 -227.417737 -277.318752 0 120 255
31.927258 -227.465556 -279.540433 0 120 255
33.166595 -227.518583 -281.679786 0 120 255
34.434951 -227.572608 -283.803380 0 120 255
35.703308 -227.626633 -285.926975 0 120 255
36.971664 -227.680658 -288.050570 0 120 255
38.374801 -227.739270 -290.085878 0 120 255
39.812149 -227.799045 -292.098777 0 120 255
41.249497 -227.858820 -294.111675 0 120 255
42.686844 -227.918596 -296.124574 0 120 255
44.242285 -227.982333 -298.045669 0 120 255
45.835890 -228.047352 -299.937097 0 120 255
47.429495 -228.112370 -301.828524 0 120 255
49.023100 -228.177388 -303.719952 0 120 255
50.718594 -228.245776 -305.518366 0 120 255
52.454915 -228.315515 -307.279510 0 120 255
54.191236 -228.385253 -309.040653 0 120 255
55.927557 -228.454992 -310.801797 0 120 255
57.750345 -228.527613 -312.470833 0 120 255
59.615322 -228.601642 -314.094928 0 120 255
61.480298 -228.675670 -315.719023 0 120 255
63.345274 -228.749698 -317.343118 0 120 255
65.282368 -228.826199 -318.877841 0 120 255
67.261779 -228.904151 -320.360123 0 120 255
69.241190 -228.982103 -321.842404 0 120 255
71.220600 -229.060055 -323.324686 0 120 255
73.258984 -229.139973 -324.721975 0 120 255
75.338638 -229.221266 -326.059784 0 120 255
77.418291 -229.302560 -327.397594 0 120 255
79.497945 -229.383853 -328.735403 0 120 255
81.624640 -229.465719 -329.994275 0 120 255
83.790389 -229.548060 -331.187611 0 120 255
85.956139 -229.630401 -332.380947 0 120 255
88.121888 -229.712742 -333.574284 0 120 255
90.323599 -229.789752 -334.697545 0 120 255
92.560643 -229.861526 -335.751958 0 120 255
94.797687 -229.933299 -336.806370 0 120 255
97.034731 -230.005072 -337.860782 0 120 255
99.298524 -230.066779 -338.854514 0 120 255
101.593419 -230.116781 -339.777693 0 120 255
103.888314 -230.166783 -340.700871 0 120 255
106.183209 -230.216785 -341.624050 0 120 255
108.497447 -230.254002 -342.495726 0 120 255
110.838361 -230.273586 -343.296376 0 120 255
113.179275 -230.293170 -344.097026 0 120 255
115.520189 -230.312754 -344.897676 0 120 255
117.874581 -230.318380 -345.655627 0 120 255
120.251130 -230.301061 -346.343389 0 120 255
122.627679 -230.283742 -347.031152 0 120 255
125.004228 -230.266424 -347.718914 0 120 255
127.389733 -230.235239 -348.372223 0 120 255
129.792926 -230.176671 -348.957490 0 120 255
132.196118 -230.118104 -349.542757 0 120 255
134.599311 -230.059536 -350.128024 0 120 255
137.008107 -229.988213 -350.686327 0 120 255
139.430360 -229.886265 -351.179888 0 120 255
141.852612 -229.784316 -351.673449 0 120 255
144.274864 -229.682368 -352.167009 0 120 255
146.700350 -229.569507 -352.640267 0 120 255
149.135441 -229.424232 -353.053219 0 120 255
151.570532 -229.278958 -353.466171 0 120 255
154.005623 -229.133684 -353.879123 0 120 255
156.442386 -228.979797 -354.277518 0 120 255
158.885450 -228.793445 -354.621049 0 120 255
161.328514 -228.607093 -354.964580 0 120 255
163.771578 -228.420741 -355.308111 0 120 255
166.215363 -228.228482 -355.642232 0 120 255
168.662733 -228.006861 -355.929574 0 120 255
171.110103 -227.785240 -356.216916 0 120 255
173.557473 -227.563619 -356.504258 0 120 255
176.004811 -227.340768 -356.790900 0 120 255
178.451923 -227.109340 -357.072660 0 120 255
180.899034 -226.877912 -357.354420 0 120 255
183.346145 -226.646484 -357.636180 0 120 255
185.793257 -226.415056 -357.917941 0 120 255
188.240366 -226.183617 -358.199713 0 120 255
190.687475 -225.952178 -358.481486 0 120 255
193.134583 -225.720739 -358.763259 0 120 255
195.581692 -225.489300 -359.045031 0 120 255
198.028803 -225.257865 -359.326796 0 120 255
200.475913 -225.026430 -359.608561 0 120 255
202.923023 -224.794995 -359.890326 0 120 255
205.370133 -224.563560 -360.172091 0 120 255
