ply
format ascii 1.0
element vertex 385
property float x
property float y
property float z
property uchar red
property uchar green
property uchar blue
end_header
77.430455 -42.474882 -360.397637 0 120 255
77.186990 -42.528836 -357.930230 0 120 255
76.943524 -42.582790 -355.462824 0 120 255
76.700059 -42.636744 -352.995417 0 120 255
76.456594 -42.690698 -350.528010 0 120 255
76.209428 -42.834929 -348.064656 0 120 255
75.962138 -42.982174 -345.601437 0 120 255
75.714848 -43.129419 -343.138218 0 120 255
75.467558 -43.276663 -340.674999 0 120 255
75.195356 -43.641510 -338.237947 0 120 255
74.921181 -44.023587 -335.802967 0 120 255
74.647006 -44.405665 -333.367987 0 120 255
74.372831 -44.787742 -330.933008 0 120 255
74.088803 -45.282563 -328.519996 0 120 255
73.803192 -45.795506 -326.110515 0 120 255
73.517581 -46.308449 -323.701034 0 120 255
73.231969 -46.821392 -321.291554 0 120 255
72.945984 -47.430323 -318.905092 0 120 255
72.659903 -48.063833 -316.524523 0 120 255
72.373821 -48.697342 -314.143955 0 120 255
72.087740 -49.330851 -311.763387 0 120 255
71.808840 -50.044723 -309.405359 0 120 255
71.532588 -50.788220 -307.055640 0 120 255
71.256336 -51.531716 -304.705921 0 120 255
70.980084 -52.275213 -302.356202 0 120 255
70.716773 -53.084715 -300.027435 0 120 255
70.459974 -53.927439 -297.709213 0 120 255
70.203175 -54.770162 -295.390991 0 120 255
69.946376 -55.612886 -293.072769 0 120 255
69.706606 -56.508603 -290.773164 0 120 255
69.478194 -57.439661 -288.485973 0 120 255
69.249781 -58.370720 -286.198783 0 120 255
69.021368 -59.301778 -283.911593 0 120 255
68.773386 -60.255764 -281.636117 0 120 255
68.508388 -61.229686 -279.370829 0 120 255
68.243390 -62.203609 -277.105540 0 120 255
67.978392 -63.177531 -274.840251 0 120 255
67.701739 -64.167757 -272.583558 0 120 255
67.412028 -65.176253 -270.336497 0 120 255
67.122316 -66.184749 -268.089435 0 120 255
66.832605 -67.193245 -265.842374 0 120 255
66.568484 -68.227084 -263.604134 0 120 255
66.341216 -69.297419 -261.378597 0 120 255
66.113948 -70.367755 -259.153061 0 120 255
65.886680 -71.438090 -256.927524 0 120 255
65.686008 -72.526902 -254.708863 0 120 255
65.534863 -73.650120 -252.503003 0 120 255
65.383719 -74.773339 -250.297143 0 120 255
65.232575 -75.896557 -248.091283 0 120 255
65.107392 -77.032278 -245.890681 0 120 255
65.045653 -78.198554 -243.702926 0 120 255
64.983913 -79.364830 -241.515171 0 120 255
64.922174 -80.531105 -239.327416 0 120 255
64.884252 -81.704900 -237.143626 0 120 255
64.924755 -82.903456 -234.972887 0 120 255
64.965257 -84.102012 -232.802149 0 120 255
65.005760 -85.300568 -230.631410 0 120 255
65.066567 -86.502744 -228.463614 0 120 255
65.221629 -87.721729 -226.309476 0 120 255
65.376692 -88.940714 -224.155337 0 120 255
65.531754 -90.159699 -222.001198 0 120 255
65.702397 -91.379600 -219.849166 0 120 255
65.983705 -92.606007 -217.712095 0 120 255
66.265013 -93.832414 -215.575024 0 120 255
66.546321 -95.058820 -213.437952 0 120 255
66.837456 -96.284738 -211.302216 0 120 255
67.255898 -97.504319 -209.183771 0 120 255
67.674340 -98.723900 -207.065326 0 120 255
68.092782 -99.943482 -204.946881 0 120 255
68.514488 -101.162565 -202.828912 0 120 255
69.079946 -102.359748 -200.731940 0 120 255
69.645404 -103.556930 -198.634967 0 120 255
70.210861 -104.754112 -196.537995 0 120 255
70.776319 -105.951294 -194.441022 0 120 255
71.493549 -107.110134 -192.369232 0 120 255
72.214630 -108.268001 -190.298080 0 120 255
72.935711 -109.425868 -188.226929 0 120 255
73.656791 -110.583735 -186.155777 0 120 255
74.529270 -111.688017 -184.114295 0 120 255
75.412957 -112.788331 -182.075009 0 120 255
76.296644 -113.888646 -180.035724 0 120 255
77.180331 -114.988960 -177.996438 0 120 255
78.213143 -116.020717 -175.992549 0 120 255
79.264406 -117.043991 -173.993039 0 120 255
80.315668 -118.067265 -171.993529 0 120 255
81.366930 -119.090539 -169.994019 0 120 255
82.563086 -120.030648 -168.036846 0 120 255
83.784411 -120.956310 -166.087026 0 120 255
85.005736 -121.881973 -164.137207 0 120 255
86.227062 -122.807635 -162.187388 0 120 255
87.587019 -123.636017 -160.288015 0 120 255
88.977897 -124.442702 -158.399895 0 120 255
90.368775 -125.249386 -156.511774 0 120 255
91.759653 -126.056071 -154.623653 0 120 255
93.280781 -126.751975 -152.795186 0 120 255
94.837155 -127.417902 -150.982861 0 120 255
96.393529 -128.083830 -149.170536 0 120 255
97.949903 -128.749757 -147.358211 0 120 255
99.625932 -129.292185 -145.615762 0 120 255
101.339662 -129.795699 -143.895331 0 120 255
103.053392 -130.299213 -142.174900 0 120 255
104.767123 -130.802727 -140.454469 0 120 255
106.587565 -131.171024 -138.815029 0 120 255
108.445908 -131.491295 -137.204355 0 120 255
110.304251 -131.811566 -135.593682 0 120 255
112.162594 -132.131837 -133.983008 0 120 255
114.112241 -132.306439 -132.465182 0 120 255
116.097463 -132.424282 -130.983532 0 120 255
118.082685 -132.542126 -129.501881 0 120 255
120.067907 -132.659969 -128.020231 0 120 255
122.126430 -132.623311 -126.643789 0 120 255
124.215553 -132.522152 -125.311267 0 120 255
126.304676 -132.420993 -123.978746 0 120 255
128.393799 -132.319834 -122.646225 0 120 255
130.535552 -132.057393 -121.431477 0 120 255
132.700363 -131.724295 -120.268324 0 120 255
134.865173 -131.391196 -119.105172 0 120 255
137.029983 -131.058098 -117.942020 0 120 255
139.224099 -130.559525 -116.908981 0 120 255
141.431446 -129.986243 -115.934687 0 120 255
143.638793 -129.412960 -114.960393 0 120 255
145.846140 -128.839678 -113.986099 0 120 255
148.056999 -128.099903 -113.153508 0 120 255
150.269468 -127.283844 -112.385843 0 120 255
152.481937 -126.467784 -111.618178 0 120 255
154.694406 -125.651724 -110.850514 0 120 255
156.882531 -124.671925 -110.234719 0 120 255
159.059472 -123.616910 -109.688689 0 120 255
161.236414 -122.561894 -109.142659 0 120 255
163.413356 -121.506878 -108.596630 0 120 255
165.536746 -120.295188 -108.210483 0 120 255
167.635680 -119.011949 -107.897348 0 120 255
169.734615 -117.728710 -107.584214 0 120 255
171.833550 -116.445472 -107.271080 0 120 255
173.849394 -115.017265 -107.122920 0 120 255
175.827676 -113.523522 -107.049341 0 120 255
177.805958 -112.029779 -106.975761 0 120 255
179.784240 -110.536035 -106.902182 0 120 255
181.650872 -108.913708 -106.995077 0 120 255
183.467514 -107.233810 -107.162508 0 120 255
185.284157 -105.553912 -107.329938 0 120 255
187.100800 -103.874014 -107.497368 0 120 255
188.779707 -102.086235 -107.828693 0 120 255
190.397204 -100.250357 -108.233088 0 120 255
192.014702 -98.414479 -108.637484 0 120 255
193.632199 -96.578601 -109.041879 0 120 255
195.089876 -94.659074 -109.603319 0 120 255
196.475859 -92.702022 -110.235207 0 120 255
197.861842 -90.744971 -110.867095 0 120 255
199.247825 -88.787920 -111.498983 0 120 255
200.457236 -86.773776 -112.276978 0 120 255
201.585762 -84.733478 -113.121902 0 120 255
202.714288 -82.693180 -113.966826 0 120 255
203.842814 -80.652883 -114.811750 0 120 255
204.784342 -78.582900 -115.788299 0 120 255
205.636783 -76.498776 -116.827554 0 120 255
206.489225 -74.414652 -117.866809 0 120 255
207.341666 -72.330528 -118.906064 0 120 255
208.003480 -70.243381 -120.059795 0 120 255
208.568891 -68.154707 -121.271418 0 120 255
209.134301 -66.066032 -122.483041 0 120 255
209.699712 -63.977357 -123.694663 0 120 255
210.077571 -61.910052 -125.002021 0 120 255
210.352566 -59.854467 -126.361885 0 120 255
210.627561 -57.798883 -127.721750 0 120 255
210.902556 -55.743298 -129.081615 0 120 255
210.999144 -53.729936 -130.518048 0 120 255
210.987341 -51.742226 -132.001002 0 120 255
210.975537 -49.754516 -133.483955 0 120 255
210.963734 -47.766806 -134.966909 0 120 255
210.787692 -45.837731 -136.507936 0 120 255
210.498873 -43.948920 -138.088839 0 120 255
210.210054 -42.060108 -139.669743 0 120 255
209.921235 -40.171297 -141.250646 0 120 255
209.486020 -38.352620 -142.872714 0 120 255
208.935032 -36.589405 -144.527335 0 120 255
208.384044 -34.826191 -146.181956 0 120 255
207.833057 -33.062977 -147.836576 0 120 255
207.155786 -31.376421 -149.517716 0 120 255
206.361442 -29.760932 -151.223440 0 120 255
205.567097 -28.145444 -152.929165 0 120 255
204.772753 -26.529956 -154.634889 0 120 255
203.873115 -24.992979 -156.355157 0 120 255
202.857034 -23.542827 -158.091510 0 120 255
201.840954 -22.092675 -159.827863 0 120 255
200.824873 -20.642523 -161.564216 0 120 255
199.724166 -19.268602 -163.305939 0 120 255
198.509758 -17.997103 -165.054877 0 120 255
197.295350 -16.725603 -166.803815 0 120 255
196.080942 -15.454104 -168.552753 0 120 255
194.801277 -14.253138 -170.300616 0 120 255
193.412850 -13.169726 -172.046689 0 120 255
192.024423 -12.086313 -173.792762 0 120 255
190.635996 -11.002901 -175.538835 0 120 255
189.199669 -9.981660 -177.279865 0 120 255
187.661697 -9.092345 -179.010196 0 120 255
186.123725 -8.203030 -180.740526 0 120 255
184.585753 -7.313715 -182.470856 0 120 255
183.014764 -6.476299 -184.194307 0 120 255
181.351334 -5.784191 -185.898498 0 120 255
179.687903 -5.092083 -187.602689 0 120 255
178.024472 -4.399975 -189.306880 0 120 255
176.340196 -3.748259 -191.004088 0 120 255
174.574627 -3.254066 -192.674064 0 120 255
172.809058 -2.759873 -194.344040 0 120 255
171.043489 -2.265680 -196.014016 0 120 255
169.266455 -1.799718 -197.678219 0 120 255
167.421010 -1.502217 -199.307977 0 120 255
165.575566 -1.204716 -200.937734 0 120 255
163.730121 -0.907214 -202.567491 0 120 255
161.879860 -0.625605 -204.193613 0 120 255
159.975623 -0.522068 -205.778998 0 120 255
158.071387 -0.418530 -207.364383 0 120 255
156.167151 -0.314993 -208.949768 0 120 255
154.262149 -0.215191 -210.534231 0 120 255
152.318973 -0.301741 -212.072691 0 120 255
150.375797 -0.388290 -213.611151 0 120 255
148.432622 -0.474840 -215.149610 0 120 255
146.489446 -0.561389 -216.688070 0 120 255
144.526834 -0.825332 -218.180465 0 120 255
142.563349 -1.097244 -219.670792 0 120 255
140.599864 -1.369155 -221.161118 0 120 255
138.636379 -1.641066 -222.651445 0 120 255
136.670381 -2.073974 -224.098663 0 120 255
134.704086 -2.525910 -225.540785 0 120 255
132.737790 -2.977846 -226.982908 0 120 255
130.771495 -3.429782 -228.425031 0 120 255
128.816556 -4.026651 -229.827761 0 120 255
126.863914 -4.652842 -231.222522 0 120 255
124.911272 -5.279032 -232.617282 0 120 255
122.958630 -5.905223 -234.012043 0 120 255
121.028469 -6.660835 -235.371554 0 120 255
119.105040 -7.455203 -236.720509 0 120 255
117.181611 -8.249571 -238.069465 0 120 255
115.258182 -9.043939 -239.418420 0 120 255
113.365917 -9.952889 -240.736455 0 120 255
111.486512 -10.909116 -242.041732 0 120 255
109.607107 -11.865343 -243.347009 0 120 255
107.727702 -12.821570 -244.652286 0 120 255
105.885963 -13.878297 -245.930931 0 120 255
104.064780 -14.989870 -247.195042 0 120 255
102.243596 -16.101443 -248.459154 0 120 255
100.422413 -17.213016 -249.723266 0 120 255
98.643448 -18.411795 -250.964849 0 120 255
96.894211 -19.671977 -252.190570 0 120 255
95.144973 -20.932159 -253.416290 0 120 255
93.395736 -22.192341 -254.642011 0 120 255
91.691518 -23.527246 -255.849001 0 120 255
90.027604 -24.929046 -257.039223 0 120 255
88.363689 -26.330845 -258.229444 0 120 255
86.699775 -27.732645 -259.419666 0 120 255
85.082104 -29.197494 -260.594600 0 120 255
83.516675 -30.733569 -261.752265 0 120 255
81.951246 -32.269644 -262.909929 0 120 255
80.385817 -33.805719 -264.067593 0 120 255
78.866397 -35.393998 -265.212979 0 120 255
77.412464 -37.056581 -266.340888 0 120 255
75.958531 -38.719164 -267.468797 0 120 255
74.504599 -40.381747 -268.596706 0 120 255
73.095097 -42.086515 -269.714929 0 120 255
71.765593 -43.867240 -270.815711 0 120 255
70.436090 -45.647966 -271.916493 0 120 255
69.106587 -47.428691 -273.017274 0 120 255
67.819935 -49.243088 -274.110808 0 120 255
66.631888 -51.134966 -275.187666 0 120 255
65.443840 -53.026844 -276.264523 0 120 255
64.255792 -54.918722 -277.341380 0 120 255
63.124187 -56.843997 -278.413840 0 120 255
62.161111 -58.868986 -279.473172 0 120 255
61.198035 -60.893975 -280.532504 0 120 255
60.234958 -62.918964 -281.591836 0 120 255
59.319188 -64.965600 -282.646469 0 120 255
58.588581 -67.096961 -283.682710 0 120 255
57.857973 -69.228322 -284.718950 0 120 255
57.127365 -71.359682 -285.755191 0 120 255
56.421009 -73.500102 -286.787652 0 120 255
55.855336 -75.693072 -287.798186 0 120 255
55.289664 -77.886041 -288.808721 0 120 255
54.723991 -80.079011 -289.819256 0 120 255
54.173583 -82.276292 -290.827584 0 120 255
53.775554 -84.516619 -291.813886 0 120 255
53.377525 -86.756946 -292.800188 0 120 255
52.979496 -88.997272 -293.786490 0 120 255
52.587511 -91.238789 -294.771978 0 120 255
52.359190 -93.512530 -295.735436 0 120 255
52.130869 -95.786271 -296.698894 0 120 255
51.902548 -98.060013 -297.662352 0 120 255
51.674227 -100.333754 -298.625810 0 120 255
51.613800 -102.626798 -299.568153 0 120 255
51.556659 -104.920220 -300.510083 0 120 255
51.499519 -107.213642 -301.452014 0 120 255
51.442379 -109.507064 -302.393944 0 120 255
51.544740 -111.806134 -303.317002 0 120 255
51.659718 -114.105651 -304.238568 0 120 255
51.774695 -116.405168 -305.160135 0 120 255
51.889672 -118.704685 -306.081701 0 120 255
52.155319 -120.997724 -306.986326 0 120 255
52.442807 -123.289824 -307.888495 0 120 255
52.730295 -125.581924 -308.790665 0 120 255
53.017783 -127.874024 -309.692835 0 120 255
53.446768 -130.148960 -310.579647 0 120 255
53.906618 -132.420152 -311.463109 0 120 255
54.366468 -134.691344 -312.346571 0 120 255
54.826318 -136.962536 -313.230033 0 120 255
55.418219 -139.207232 -314.099389 0 120 255
56.049700 -141.443986 -314.964517 0 120 255
56.681181 -143.680740 -315.829644 0 120 255
57.312662 -145.917493 -316.694772 0 120 255
58.066544 -148.119703 -317.546723 0 120 255
58.868304 -150.308401 -318.393519 0 120 255
59.670064 -152.497099 -319.240316 0 120 255
60.471824 -154.685797 -320.087112 0 120 255
61.386177 -156.833137 -320.921370 0 120 255
62.356155 -158.960044 -321.749434 0 120 255
63.326132 -161.086952 -322.577497 0 120 255
64.296110 -163.213859 -323.405561 0 120 255
65.368777 -165.293793 -324.221447 0 120 255
66.504124 -167.345054 -325.029900 0 120 255
67.639471 -169.396315 -325.838353 0 120 255
68.774818 -171.447576 -326.646806 0 120 255
70.002906 -173.447407 -327.443234 0 120 255
71.299877 -175.409038 -328.230732 0 120 255
72.596848 -177.370669 -329.018229 0 120 255
73.893819 -179.332299 -329.805726 0 120 255
75.273600 -181.239195 -330.581157 0 120 255
76.727438 -183.097141 -331.345797 0 120 255
78.181275 -184.955087 -332.110437 0 120 255
79.635113 -186.813033 -332.875077 0 120 255
81.161920 -188.614068 -333.627475 0 120 255
82.766734 -190.354261 -334.366784 0 120 255
84.371548 -192.094455 -335.106093 0 120 255
85.976363 -193.834649 -335.845403 0 120 255
87.644480 -195.516858 -336.572221 0 120 255
89.393122 -197.125309 -337.283150 0 120 255
91.141763 -198.733760 -337.994079 0 120 255
92.890405 -200.342210 -338.705008 0 120 255
94.692946 -201.892689 -339.403174 0 120 255
96.576873 -203.355633 -340.082068 0 120 255
98.460799 -204.818577 -340.760963 0 120 255
100.344726 -206.281521 -341.439857 0 120 255
102.273516 -207.687549 -342.105758 0 120 255
104.282681 -208.991608 -342.748381 0 120 255
106.291847 -210.295668 -343.391005 0 120 255
108.301012 -211.599727 -344.033628 0 120 255
110.346486 -212.848926 -344.663103 0 120 255
112.469261 -213.981325 -345.264583 0 120 255
114.592037 -215.113723 -345.866064 0 120 255
116.714813 -216.246122 -346.467544 0 120 255
118.865929 -217.326644 -347.055880 0 120 255
121.089006 -218.275450 -347.610839 0 120 255
123.312082 -219.224257 -348.165799 0 120 255
125.535158 -220.173063 -348.720759 0 120 255
127.779320 -221.073814 -349.262763 0 120 255
130.087702 -221.828200 -349.765310 0 120 255
132.396084 -222.582587 -350.267857 0 120 255
134.704467 -223.336974 -350.770403 0 120 255
137.027496 -224.047865 -351.260414 0 120 255
139.404500 -224.598466 -351.704225 0 120 255
141.781505 -225.149067 -352.148037 0 120 255
144.158510 -225.699668 -352.591849 0 120 255
146.544645 -226.211927 -353.023802 0 120 255
148.971998 -226.551097 -353.402220 0 120 255
151.399352 -226.890266 -353.780638 0 120 255
153.826706 -227.229436 -354.159056 0 120 255
156.258678 -227.535873 -354.526575 0 120 255
158.716648 -227.658048 -354.832742 0 120 255
161.174618 -227.780223 -355.138908 0 120 255
163.632588 -227.902399 -355.445075 0 120 255
166.090965 -227.990306 -355.745467 0 120 255
168.552273 -227.831331 -356.004254 0 120 255
171.013581 -227.672355 -356.263042 0 120 255
173.474889 -227.513379 -356.521829 0 120 255
175.935382 -227.347334 -356.782906 0 120 255
178.388279 -227.115359 -357.065332 0 120 255
180.841177 -226.883384 -357.347758 0 120 255
183.294074 -226.651409 -357.630184 0 120 255
185.746971 -226.419433 -357.912611 0 120 255
188.199865 -226.187447 -358.195050 0 120 255
190.652760 -225.955461 -358.477489 0 120 255
193.105655 -225.723475 -358.759928 0 120 255
195.558550 -225.491489 -359.042366 0 120 255
198.011445 -225.259507 -359.324797 0 120 255
200.464341 -225.027524 -359.607228 0 120 255
202.917237 -224.795542 -359.889660 0 120 255
205.370133 -224.563560 -360.172091 0 120 255
