ply
format ascii 1.0
element vertex 385
property float x
property float y
property float z
property uchar red
property uchar green
property uchar blue
end_header
77.430455 -42.474882 -360.397637 0 120 255
77.187522 -42.528718 -357.935625 0 120 255
76.944589 -42.582554 -355.473613 0 120 255
76.701656 -42.636390 -353.011601 0 120 255
76.458723 -42.690227 -350.549590 0 120 255
76.213206 -42.778294 -348.088831 0 120 255
75.967579 -42.867830 -345.628127 0 120 255
75.721952 -42.957366 -343.167422 0 120 255
75.476325 -43.046901 -340.706717 0 120 255
75.387020 -43.126553 -338.235531 0 120 255
75.312535 -43.205268 -335.763352 0 120 255
75.238050 -43.283983 -333.291172 0 120 255
75.163564 -43.362698 -330.818992 0 120 255
75.245667 -43.408411 -328.347036 0 120 255
75.352339 -43.448945 -325.875115 0 120 255
75.459011 -43.489479 -323.403193 0 120 255
75.565683 -43.530014 -320.931272 0 120 255
75.825825 -43.545728 -318.471597 0 120 255
76.120652 -43.555832 -316.014690 0 120 255
76.415479 -43.565937 -313.557783 0 120 255
76.710306 -43.576042 -311.100877 0 120 255
77.153346 -43.568392 -308.667742 0 120 255
77.641350 -43.555356 -306.241820 0 120 255
78.129354 -43.542321 -303.815898 0 120 255
78.617359 -43.529285 -301.389976 0 120 255
79.246455 -43.504406 -298.998586 0 120 255
79.930636 -43.474904 -296.620679 0 120 255
80.614818 -43.445402 -294.242772 0 120 255
81.298999 -43.415900 -291.864865 0 120 255
82.115529 -43.379317 -289.531239 0 120 255
82.996774 -43.339272 -287.219266 0 120 255
83.878020 -43.299227 -284.907293 0 120 255
84.759266 -43.259182 -282.595320 0 120 255
85.762769 -43.215709 -280.336153 0 120 255
86.839799 -43.170174 -278.108745 0 120 255
87.916829 -43.124638 -275.881336 0 120 255
88.993859 -43.079103 -273.653927 0 120 255
90.181992 -43.032758 -271.486448 0 120 255
91.451300 -42.985822 -269.362755 0 120 255
92.720608 -42.938885 -267.239063 0 120 255
93.989916 -42.891948 -265.115370 0 120 255
95.358389 -42.845891 -263.057181 0 120 255
96.814176 -42.800607 -261.056669 0 120 255
98.269963 -42.755324 -259.056157 0 120 255
99.725751 -42.710040 -257.055644 0 120 255
101.268280 -42.666518 -255.124560 0 120 255
102.902421 -42.624857 -253.266803 0 120 255
104.536562 -42.583196 -251.409045 0 120 255
106.170703 -42.541535 -249.551287 0 120 255
107.878960 -42.501853 -247.765157 0 120 255
109.680927 -42.464671 -246.069589 0 120 255
111.482894 -42.427489 -244.374021 0 120 255
113.284861 -42.390307 -242.678453 0 120 255
115.148399 -42.354802 -241.054949 0 120 255
117.105200 -42.321836 -239.540596 0 120 255
119.062000 -42.288870 -238.026244 0 120 255
121.018800 -42.255904 -236.511891 0 120 255
123.025000 -42.223951 -235.068286 0 120 255
125.121139 -42.193843 -233.753481 0 120 255
127.217279 -42.163735 -232.438677 0 120 255
129.313418 -42.133627 -231.123872 0 120 255
131.447440 -42.103655 -229.876792 0 120 255
133.664888 -42.073986 -228.778858 0 120 255
135.882336 -42.044316 -227.680924 0 120 255
138.099784 -42.014647 -226.582990 0 120 255
140.344525 -41.984174 -225.548139 0 120 255
142.662694 -41.951539 -224.683013 0 120 255
144.980863 -41.918904 -223.817887 0 120 255
147.299032 -41.886269 -222.952761 0 120 255
149.635099 -41.851959 -222.144595 0 120 255
152.030863 -41.812059 -221.526420 0 120 255
154.426627 -41.772159 -220.908244 0 120 255
156.822390 -41.732260 -220.290068 0 120 255
159.228107 -41.689998 -219.721433 0 120 255
161.675879 -41.637759 -219.362129 0 120 255
164.123651 -41.585519 -219.002825 0 120 255
166.571423 -41.533279 -218.643522 0 120 255
169.022887 -41.478278 -218.325281 0 120 255
171.494762 -41.408003 -218.234108 0 120 255
173.966636 -41.337729 -218.142935 0 120 255
176.438511 -41.267455 -218.051763 0 120 255
178.909701 -41.194376 -217.992400 0 120 255
181.375669 -41.099928 -218.175432 0 120 255
183.841636 -41.005481 -218.358463 0 120 255
186.307604 -40.911033 -218.541495 0 120 255
188.770557 -40.814143 -218.746641 0 120 255
191.198823 -40.689143 -219.206336 0 120 255
193.627088 -40.564143 -219.666032 0 120 255
196.055353 -40.439142 -220.125728 0 120 255
198.480435 -40.312483 -220.597777 0 120 255
200.837845 -40.150550 -221.332498 0 120 255
203.195254 -39.988616 -222.067219 0 120 255
205.552663 -39.826682 -222.801940 0 120 255
207.908929 -39.664278 -223.539596 0 120 255
210.161517 -39.459289 -224.543211 0 120 255
212.414105 -39.254300 -225.546825 0 120 255
214.666693 -39.049311 -226.550440 0 120 255
216.919282 -38.844321 -227.554055 0 120 255
219.035996 -38.591754 -228.809934 0 120 255
221.149634 -38.338108 -230.071528 0 120 255
223.263271 -38.084462 -231.333122 0 120 255
225.376908 -37.830817 -232.594715 0 120 255
227.327458 -37.526629 -234.085202 0 120 255
229.268632 -37.219535 -235.588850 0 120 255
231.209805 -36.912441 -237.092498 0 120 255
233.150978 -36.605348 -238.596146 0 120 255
234.905192 -36.245998 -240.301913 0 120 255
236.641843 -35.881740 -242.026666 0 120 255
238.378495 -35.517482 -243.751419 0 120 255
240.115146 -35.153223 -245.476173 0 120 255
241.644917 -34.736375 -247.373406 0 120 255
243.147330 -34.312572 -249.293449 0 120 255
244.649743 -33.888769 -251.213491 0 120 255
246.152156 -33.464965 -253.133533 0 120 255
247.432297 -32.989687 -255.194203 0 120 255
248.674041 -32.505516 -257.279165 0 120 255
249.915785 -32.021345 -259.364127 0 120 255
251.157529 -31.537174 -261.449089 0 120 255
252.166552 -31.004104 -263.641445 0 120 255
253.125324 -30.460475 -265.856990 0 120 255
254.084097 -29.916846 -268.072535 0 120 255
255.042870 -29.373217 -270.288080 0 120 255
255.763707 -28.784664 -272.577317 0 120 255
256.422109 -28.184323 -274.885891 0 120 255
257.080511 -27.583982 -277.194465 0 120 255
257.738914 -26.983641 -279.503039 0 120 255
258.159507 -26.343644 -281.852128 0 120 255
258.505694 -25.691239 -284.213894 0 120 255
258.851881 -25.038834 -286.575660 0 120 255
259.198069 -24.386429 -288.937427 0 120 255
259.311790 -23.700726 -291.308070 0 120 255
259.339880 -23.002757 -293.681984 0 120 255
259.367970 -22.304788 -296.055898 0 120 255
259.396060 -21.606819 -298.429812 0 120 255
259.201909 -20.882751 -300.783476 0 120 255
258.912183 -20.147459 -303.128433 0 120 255
258.622456 -19.412166 -305.473389 0 120 255
258.332729 -18.676874 -307.818345 0 120 255
257.835299 -17.923238 -310.117311 0 120 255
257.234140 -17.160443 -312.393309 0 120 255
256.632981 -16.397647 -314.669308 0 120 255
256.031823 -15.634851 -316.945306 0 120 255
255.241107 -14.861689 -319.153680 0 120 255
254.340757 -14.082533 -321.322943 0 120 255
253.440408 -13.303376 -323.492206 0 120 255
252.540059 -12.524220 -325.661470 0 120 255
251.470974 -11.742575 -327.746092 0 120 255
250.288959 -10.959265 -329.774068 0 120 255
249.106945 -10.175955 -331.802043 0 120 255
247.924931 -9.392645 -333.830019 0 120 255
246.596737 -8.614289 -335.761245 0 120 255
245.155204 -7.839773 -337.617457 0 120 255
243.713671 -7.065257 -339.473670 0 120 255
242.272138 -6.290741 -341.329882 0 120 255
240.707681 -5.527888 -343.082161 0 120 255
239.032497 -4.775541 -344.740820 0 120 255
237.357313 -4.023194 -346.399479 0 120 255
235.682129 -3.270847 -348.058138 0 120 255
233.907038 -2.535895 -349.610430 0 120 255
232.026932 -1.819229 -351.050919 0 120 255
230.146826 -1.102563 -352.491408 0 120 255
228.266720 -0.385896 -353.931897 0 120 255
226.308590 0.308826 -355.267904 0 120 255
224.254139 0.976458 -356.474932 0 120 255
222.199688 1.644090 -357.681960 0 120 255
220.145237 2.311723 -358.888988 0 120 255
218.032786 2.954187 -359.997170 0 120 255
215.835507 3.559843 -360.960789 0 120 255
213.638227 4.165498 -361.924408 0 120 255
211.440947 4.771154 -362.888026 0 120 255
209.203262 5.349812 -363.761497 0 120 255
206.894754 5.881150 -364.476961 0 120 255
204.586246 6.412488 -365.192425 0 120 255
202.277739 6.943826 -365.907889 0 120 255
199.943596 7.447757 -366.544186 0 120 255
197.554764 7.893217 -367.011583 0 120 255
195.165931 8.338677 -367.478979 0 120 255
192.777098 8.784137 -367.946376 0 120 255
190.374372 9.203167 -368.347103 0 120 255
187.934790 9.552084 -368.570962 0 120 255
185.495208 9.901000 -368.794820 0 120 255
183.055625 10.249916 -369.018678 0 120 255
180.610813 10.574696 -369.189119 0 120 255
178.148215 10.817386 -369.177885 0 120 255
175.685616 11.060077 -369.166652 0 120 255
173.223017 11.302767 -369.155418 0 120 255
170.760868 11.524817 -369.104071 0 120 255
168.300768 11.652627 -368.869571 0 120 255
165.840668 11.780437 -368.635071 0 120 255
163.380568 11.908247 -368.400572 0 120 255
160.923820 12.019989 -368.138704 0 120 255
158.489268 12.025322 -367.695597 0 120 255
156.054716 12.030654 -367.252489 0 120 255
153.620164 12.035986 -366.809381 0 120 255
151.189379 12.030751 -366.350579 0 120 255
148.800818 11.907066 -365.715839 0 120 255
146.412256 11.783381 -365.081099 0 120 255
144.023695 11.659696 -364.446359 0 120 255
141.637171 11.531716 -363.806101 0 120 255
139.312395 11.273527 -362.998530 0 120 255
136.987619 11.015337 -362.190959 0 120 255
134.662842 10.757148 -361.383388 0 120 255
132.338066 10.498959 -360.575817 0 120 255
130.090814 10.104404 -359.618368 0 120 255
127.845033 9.707263 -358.658076 0 120 255
125.599251 9.310121 -357.697784 0 120 255
123.353470 8.912980 -356.737492 0 120 255
121.193006 8.383370 -355.654743 0 120 255
119.038927 7.843846 -354.562829 0 120 255
116.884848 7.304322 -353.470916 0 120 255
114.730769 6.764798 -352.379002 0 120 255
112.666424 6.097990 -351.190458 0 120 255
110.614432 5.413659 -349.988611 0 120 255
108.562440 4.729327 -348.786764 0 120 255
106.510448 4.044996 -347.584917 0 120 255
104.549739 3.239675 -346.310320 0 120 255
102.608077 2.409108 -345.020543 0 120 255
100.666415 1.578541 -343.730766 0 120 255
98.724754 0.747974 -342.440989 0 120 255
96.873587 -0.196342 -341.100096 0 120 255
95.048606 -1.173573 -339.744411 0 120 255
93.223626 -2.150804 -338.388725 0 120 255
91.398646 -3.128036 -337.033040 0 120 255
89.661491 -4.210997 -335.645487 0 120 255
87.957866 -5.334324 -334.245767 0 120 255
86.254241 -6.457651 -332.846047 0 120 255
84.550616 -7.580978 -331.446328 0 120 255
82.930694 -8.801391 -330.031504 0 120 255
81.351657 -10.069225 -328.609304 0 120 255
79.772619 -11.337059 -327.187103 0 120 255
78.193582 -12.604893 -325.764903 0 120 255
76.693072 -13.960699 -324.341824 0 120 255
75.240675 -15.370407 -322.918206 0 120 255
73.788279 -16.780114 -321.494589 0 120 255
72.335883 -18.189822 -320.070972 0 120 255
70.956102 -19.678073 -318.658189 0 120 255
69.631444 -21.225947 -317.253630 0 120 255
68.306786 -22.773821 -315.849072 0 120 255
66.982129 -24.321695 -314.444513 0 120 255
65.723715 -25.938517 -313.060033 0 120 255
64.527161 -27.619724 -311.694303 0 120 255
63.330608 -29.300931 -310.328572 0 120 255
62.134054 -30.982137 -308.962842 0 120 255
60.997134 -32.722693 -307.624054 0 120 255
59.928535 -34.531243 -306.316132 0 120 255
58.859935 -36.339793 -305.008210 0 120 255
57.791335 -38.148342 -303.700288 0 120 255
56.775687 -40.006793 -302.423893 0 120 255
55.834562 -41.935476 -301.191868 0 120 255
54.893438 -43.864159 -299.959844 0 120 255
53.952313 -45.792841 -298.727819 0 120 255
53.057511 -47.762291 -297.529741 0 120 255
52.243240 -49.802613 -296.390678 0 120 255
51.428969 -51.842935 -295.251615 0 120 255
50.614698 -53.883257 -294.112552 0 120 255
49.840243 -55.955709 -293.007863 0 120 255
49.152195 -58.097886 -291.977775 0 120 255
48.464148 -60.240064 -290.947686 0 120 255
47.776101 -62.382241 -289.917597 0 120 255
47.121536 -64.548570 -288.920454 0 120 255
46.559226 -66.781443 -288.014086 0 120 255
45.996916 -69.014316 -287.107717 0 120 255
45.434606 -71.247188 -286.201349 0 120 255
44.899622 -73.497081 -285.324842 0 120 255
44.462791 -75.808110 -284.555596 0 120 255
44.025960 -78.119140 -283.786350 0 120 255
43.589129 -80.430169 -283.017104 0 120 255
43.173632 -82.752111 -282.273175 0 120 255
42.862340 -85.127355 -281.652909 0 120 255
42.551048 -87.502599 -281.032642 0 120 255
42.239757 -89.877842 -280.412376 0 120 255
41.943937 -92.259092 -279.811656 0 120 255
41.758604 -94.683224 -279.350513 0 120 255
41.573271 -97.107356 -278.889371 0 120 255
41.387938 -99.531488 -278.428228 0 120 255
41.212304 -101.958085 -277.979889 0 120 255
41.153729 -104.414437 -277.686090 0 120 255
41.095154 -106.870790 -277.392291 0 120 255
41.036579 -109.327142 -277.098492 0 120 255
40.981971 -111.783938 -276.810071 0 120 255
41.051316 -114.254589 -276.689693 0 120 255
41.120661 -116.725241 -276.569316 0 120 255
41.190006 -119.195892 -276.448938 0 120 255
41.259351 -121.666543 -276.328561 0 120 255
41.456339 -124.132514 -276.382901 0 120 255
41.655092 -126.598420 -276.439657 0 120 255
41.853844 -129.064326 -276.496412 0 120 255
42.052597 -131.530232 -276.553168 0 120 255
42.374951 -133.972836 -276.777911 0 120 255
42.704833 -136.414020 -277.012886 0 120 255
43.034716 -138.855205 -277.247860 0 120 255
43.364598 -141.296389 -277.482835 0 120 255
43.814130 -143.696749 -277.876562 0 120 255
44.276999 -146.092557 -278.287985 0 120 255
44.739869 -148.488366 -278.699409 0 120 255
45.202738 -150.884175 -279.110832 0 120 255
45.781257 -153.223033 -279.669508 0 120 255
46.378962 -155.552444 -280.252612 0 120 255
46.976667 -157.881855 -280.835717 0 120 255
47.574371 -160.211266 -281.418821 0 120 255
48.283551 -162.469315 -282.135581 0 120 255
49.017771 -164.711336 -282.882363 0 120 255
49.751990 -166.953357 -283.629144 0 120 255
50.486209 -169.195377 -284.375925 0 120 255
51.327431 -171.353625 -285.241010 0 120 255
52.199491 -173.487730 -286.140190 0 120 255
53.071551 -175.621835 -287.039370 0 120 255
53.943611 -177.755940 -287.938550 0 120 255
54.917801 -179.796135 -288.939258 0 120 255
55.928478 -181.802779 -289.976237 0 120 255
56.939154 -183.809424 -291.013216 0 120 255
57.949831 -185.816069 -292.050196 0 120 255
59.057287 -187.721172 -293.170906 0 120 255
60.206619 -189.582339 -294.327846 0 120 255
61.355950 -191.443507 -295.484786 0 120 255
62.505282 -193.304674 -296.641726 0 120 255
63.745511 -195.059357 -297.864030 0 120 255
65.032601 -196.759144 -299.120033 0 120 255
66.319691 -198.458930 -300.376035 0 120 255
67.606781 -200.158717 -301.632037 0 120 255
68.978345 -201.749843 -302.934997 0 120 255
70.401200 -203.274994 -304.266468 0 120 255
71.824055 -204.800145 -305.597939 0 120 255
73.246910 -206.325296 -306.929410 0 120 255
74.747301 -207.742425 -308.289870 0 120 255
76.302696 -209.082924 -309.670894 0 120 255
77.858090 -210.423423 -311.051918 0 120 255
79.413485 -211.763922 -312.432941 0 120 255
81.039024 -212.999738 -313.825990 0 120 255
82.722401 -214.149240 -315.228953 0 120 255
84.405777 -215.298742 -316.631916 0 120 255
86.089153 -216.448244 -318.034880 0 120 255
87.834932 -217.498920 -319.434411 0 120 255
89.640350 -218.455146 -320.830661 0 120 255
91.445768 -219.411372 -322.226911 0 120 255
93.251186 -220.367597 -323.623161 0 120 255
95.111062 -221.233085 -325.002469 0 120 255
97.031240 -221.998099 -326.363015 0 120 255
98.951418 -222.763112 -327.723562 0 120 255
100.871596 -223.528126 -329.084109 0 120 255
102.838230 -224.212295 -330.416587 0 120 255
104.864560 -224.792579 -331.712996 0 120 255
106.890889 -225.372863 -333.009405 0 120 255
108.917218 -225.953146 -334.305814 0 120 255
110.982144 -226.463809 -335.565669 0 120 255
113.104855 -226.870237 -336.770796 0 120 255
115.227566 -227.276664 -337.975924 0 120 255
117.350276 -227.683091 -339.181051 0 120 255
119.504041 -228.031895 -340.343980 0 120 255
121.712331 -228.279518 -341.432811 0 120 255
123.920621 -228.527142 -342.521642 0 120 255
126.128911 -228.774765 -343.610474 0 120 255
128.361223 -228.976937 -344.654324 0 120 255
130.643484 -229.084599 -345.604645 0 120 255
132.925746 -229.192261 -346.554965 0 120 255
135.208007 -229.299923 -347.505285 0 120 255
137.507932 -229.373882 -348.410619 0 120 255
139.851945 -229.363712 -349.203658 0 120 255
142.195959 -229.353542 -349.996698 0 120 255
144.539973 -229.343371 -350.789737 0 120 255
146.896111 -229.310262 -351.540320 0 120 255
149.289283 -229.207077 -352.161202 0 120 255
151.682456 -229.103893 -352.782084 0 120 255
154.075628 -229.000708 -353.402967 0 120 255
156.476315 -228.883846 -353.986106 0 120 255
158.905881 -228.714426 -354.424198 0 120 255
161.335446 -228.545005 -354.862290 0 120 255
163.765012 -228.375585 -355.300382 0 120 255
166.198047 -228.198807 -355.710567 0 120 255
168.648562 -227.984961 -355.980126 0 120 255
171.099077 -227.771114 -356.249686 0 120 255
173.549592 -227.557268 -356.519245 0 120 255
175.999739 -227.341248 -356.790316 0 120 255
178.447273 -227.109780 -357.072124 0 120 255
180.894807 -226.878312 -357.353933 0 120 255
183.342341 -226.646844 -357.635742 0 120 255
185.789875 -226.415375 -357.917552 0 120 255
188.237407 -226.183896 -358.199373 0 120 255
190.684939 -225.952418 -358.481194 0 120 255
193.132470 -225.720939 -358.763015 0 120 255
195.580002 -225.489460 -359.044836 0 120 255
198.027535 -225.257985 -359.326650 0 120 255
200.475068 -225.026510 -359.608463 0 120 255
202.922600 -224.795035 -359.890277 0 120 255
205.370133 -224.563560 -360.172091 0 120 255
