ply
format ascii 1.0
element vertex 385
property float x
property float y
property float z
property uchar red
property uchar green
property uchar blue
end_header
77.430455 -42.474882 -360.397637 0 120 255
77.187589 -42.528703 -357.936298 0 120 255
76.944722 -42.582525 -355.474960 0 120 255
76.701855 -42.636346 -353.013622 0 120 255
76.458989 -42.690168 -350.552284 0 120 255
76.213602 -42.750970 -348.091359 0 120 255
75.968103 -42.812081 -345.630452 0 120 255
75.722605 -42.873191 -343.169545 0 120 255
75.477107 -42.934301 -340.708638 0 120 255
75.206865 -43.446287 -338.307419 0 120 255
74.934351 -43.999680 -335.911682 0 120 255
74.661837 -44.553074 -333.515944 0 120 255
74.389323 -45.106467 -331.120207 0 120 255
74.105399 -46.024917 -328.845539 0 120 255
73.819795 -46.997096 -326.588690 0 120 255
73.534192 -47.969275 -324.331842 0 120 255
73.248589 -48.941454 -322.074993 0 120 255
72.961824 -50.202239 -319.971193 0 120 255
72.674817 -51.523263 -317.899336 0 120 255
72.387809 -52.844286 -315.827479 0 120 255
72.100802 -54.165309 -313.755622 0 120 255
71.822144 -55.708043 -311.847399 0 120 255
71.545803 -57.312260 -309.984555 0 120 255
71.269461 -58.916477 -308.121710 0 120 255
70.993119 -60.520693 -306.258866 0 120 255
70.733940 -62.291475 -304.556461 0 120 255
70.480837 -64.121235 -302.910865 0 120 255
70.227735 -65.950995 -301.265270 0 120 255
69.974633 -67.780755 -299.619674 0 120 255
69.746791 -69.733367 -298.123444 0 120 255
69.530076 -71.740090 -296.693002 0 120 255
69.313360 -73.746813 -295.262560 0 120 255
69.096645 -75.753536 -293.832118 0 120 255
68.912549 -77.849273 -292.536167 0 120 255
68.746009 -79.992921 -291.312606 0 120 255
68.579470 -82.136570 -290.089045 0 120 255
68.412931 -84.280218 -288.865484 0 120 255
68.285556 -86.486962 -287.760299 0 120 255
68.183630 -88.734708 -286.732039 0 120 255
68.081705 -90.982453 -285.703780 0 120 255
67.979779 -93.230199 -284.675521 0 120 255
67.922655 -95.521157 -283.749707 0 120 255
67.900401 -97.845747 -282.903628 0 120 255
67.878146 -100.170338 -282.057549 0 120 255
67.855892 -102.494929 -281.211471 0 120 255
67.883035 -104.847309 -280.452808 0 120 255
67.956010 -107.225471 -279.775251 0 120 255
68.028985 -109.603634 -279.097694 0 120 255
68.101960 -111.981797 -278.420138 0 120 255
68.227753 -114.375549 -277.816081 0 120 255
68.411848 -116.786508 -277.293156 0 120 255
68.595943 -119.197467 -276.770230 0 120 255
68.780038 -121.608426 -276.247305 0 120 255
69.019043 -124.025128 -275.785086 0 120 255
69.330204 -126.449377 -275.402639 0 120 255
69.641365 -128.873625 -275.020192 0 120 255
69.952526 -131.297873 -274.637745 0 120 255
70.319224 -133.719806 -274.304234 0 120 255
70.773094 -136.138106 -274.047531 0 120 255
71.226963 -138.556405 -273.790828 0 120 255
71.680833 -140.974705 -273.534126 0 120 255
72.189265 -143.384118 -273.315516 0 120 255
72.800635 -145.776765 -273.168774 0 120 255
73.412005 -148.169412 -273.022032 0 120 255
74.023375 -150.562059 -272.875290 0 120 255
74.686665 -152.940631 -272.756697 0 120 255
75.468866 -155.286969 -272.702573 0 120 255
76.251067 -157.633306 -272.648450 0 120 255
77.033267 -159.979643 -272.594326 0 120 255
77.863054 -162.308157 -272.559366 0 120 255
78.827111 -164.586379 -272.578479 0 120 255
79.791169 -166.864601 -272.597592 0 120 255
80.755226 -169.142823 -272.616705 0 120 255
81.760949 -171.401058 -272.647091 0 120 255
82.914679 -173.588297 -272.717520 0 120 255
84.068409 -175.775536 -272.787949 0 120 255
85.222139 -177.962774 -272.858379 0 120 255
86.410248 -180.129644 -272.933579 0 120 255
87.757220 -182.202390 -273.030827 0 120 255
89.104192 -184.275136 -273.128074 0 120 255
90.451164 -186.347882 -273.225322 0 120 255
91.824267 -188.401816 -273.322513 0 120 255
93.362829 -190.336632 -273.419346 0 120 255
94.901392 -192.271449 -273.516179 0 120 255
96.439955 -194.206265 -273.613012 0 120 255
97.995990 -196.125847 -273.706996 0 120 255
99.718305 -197.900454 -273.773860 0 120 255
101.440620 -199.675060 -273.840725 0 120 255
103.162935 -201.449666 -273.907589 0 120 255
104.894380 -203.214550 -273.971149 0 120 255
106.785799 -204.809094 -273.976808 0 120 255
108.677218 -206.403637 -273.982466 0 120 255
110.568636 -207.998181 -273.988125 0 120 255
112.461982 -209.590161 -273.992565 0 120 255
114.500726 -210.988707 -273.905051 0 120 255
116.539470 -212.387253 -273.817536 0 120 255
118.578214 -213.785799 -273.730022 0 120 255
120.616957 -215.184346 -273.642508 0 120 255
122.771045 -216.382051 -273.433870 0 120 255
124.928417 -217.574038 -273.221783 0 120 255
127.085788 -218.766025 -273.009696 0 120 255
129.243160 -219.958012 -272.797609 0 120 255
131.478537 -220.953996 -272.442086 0 120 255
133.719637 -221.935604 -272.076042 0 120 255
135.960736 -222.917211 -271.709999 0 120 255
138.201835 -223.898818 -271.343955 0 120 255
140.482060 -224.696428 -270.817652 0 120 255
142.767067 -225.471549 -270.271762 0 120 255
145.052074 -226.246670 -269.725871 0 120 255
147.337082 -227.021791 -269.179981 0 120 255
149.622821 -227.631623 -268.463291 0 120 255
151.908688 -228.212417 -267.716596 0 120 255
154.194556 -228.793212 -266.969901 0 120 255
156.480423 -229.374006 -266.223206 0 120 255
158.731094 -229.813894 -265.301822 0 120 255
160.973511 -230.220744 -264.339480 0 120 255
163.215929 -230.627595 -263.377139 0 120 255
165.458347 -231.034445 -262.414797 0 120 255
167.633814 -231.329013 -261.280484 0 120 255
169.789234 -231.589958 -260.094676 0 120 255
171.944653 -231.850903 -258.908868 0 120 255
174.100073 -232.111849 -257.723060 0 120 255
176.162224 -232.291615 -256.374095 0 120 255
178.189708 -232.441209 -254.964486 0 120 255
180.217192 -232.590803 -253.554878 0 120 255
182.244676 -232.740397 -252.145270 0 120 255
184.159025 -232.843170 -250.587065 0 120 255
186.022189 -232.924761 -248.961633 0 120 255
187.885354 -233.006351 -247.336202 0 120 255
189.748518 -233.087942 -245.710770 0 120 255
191.485273 -233.151530 -243.955310 0 120 255
193.153268 -233.205326 -242.129122 0 120 255
194.821264 -233.259122 -240.302933 0 120 255
196.489259 -233.312918 -238.476744 0 120 255
198.020725 -233.360384 -236.539647 0 120 255
199.463704 -233.403749 -234.530668 0 120 255
200.906683 -233.447113 -232.521689 0 120 255
202.349662 -233.490477 -230.512710 0 120 255
203.648816 -233.528945 -228.413050 0 120 255
204.837525 -233.563651 -226.243758 0 120 255
206.026235 -233.598358 -224.074465 0 120 255
207.214944 -233.633065 -221.905172 0 120 255
208.256330 -233.662429 -219.666718 0 120 255
209.164125 -233.686949 -217.365550 0 120 255
210.071920 -233.711468 -215.064382 0 120 255
210.979715 -233.735988 -212.763214 0 120 255
211.741198 -233.755072 -210.414908 0 120 255
212.346202 -233.768344 -208.016187 0 120 255
212.951206 -233.781616 -205.617467 0 120 255
213.556211 -233.794888 -203.218746 0 120 255
214.020458 -233.802954 -200.794168 0 120 255
214.306968 -233.804447 -198.336939 0 120 255
214.593478 -233.805940 -195.879709 0 120 255
214.879988 -233.807433 -193.422480 0 120 255
215.035467 -233.804128 -190.958723 0 120 255
214.994915 -233.793643 -188.485201 0 120 255
214.954362 -233.783158 -186.011679 0 120 255
214.913810 -233.772673 -183.538157 0 120 255
214.755426 -233.757928 -181.074461 0 120 255
214.386890 -233.735586 -178.628291 0 120 255
214.018354 -233.713244 -176.182121 0 120 255
213.649818 -233.690902 -173.735950 0 120 255
213.179203 -233.664921 -171.312227 0 120 255
212.489485 -233.631130 -168.936682 0 120 255
211.799767 -233.597339 -166.561137 0 120 255
211.110049 -233.563549 -164.185592 0 120 255
210.335482 -233.526776 -161.840942 0 120 255
209.338675 -233.482192 -159.577217 0 120 255
208.341868 -233.437608 -157.313491 0 120 255
207.345062 -233.393024 -155.049765 0 120 255
206.281015 -233.346118 -152.821111 0 120 255
204.997697 -233.291637 -150.706828 0 120 255
203.714378 -233.237157 -148.592545 0 120 255
202.431060 -233.182677 -146.478262 0 120 255
201.097448 -233.126493 -144.399171 0 120 255
199.553523 -233.063182 -142.467240 0 120 255
198.009599 -232.999872 -140.535310 0 120 255
196.465674 -232.936562 -138.603379 0 120 255
194.886877 -232.872095 -136.703161 0 120 255
193.112303 -232.801137 -134.980977 0 120 255
191.337729 -232.730179 -133.258793 0 120 255
189.563155 -232.659220 -131.536609 0 120 255
187.766932 -232.587567 -129.839704 0 120 255
185.794295 -232.510246 -128.348801 0 120 255
183.821658 -232.432926 -126.857898 0 120 255
181.849021 -232.355606 -125.366995 0 120 255
179.865334 -232.277944 -123.892716 0 120 255
177.728571 -232.195549 -122.648723 0 120 255
175.591807 -232.113154 -121.404730 0 120 255
173.455044 -232.030758 -120.160736 0 120 255
171.314993 -231.948267 -118.923239 0 120 255
169.048192 -231.862069 -117.936197 0 120 255
166.781392 -231.775871 -116.949155 0 120 255
164.514591 -231.689674 -115.962113 0 120 255
162.247791 -231.603476 -114.975071 0 120 255
159.885874 -231.514768 -114.245512 0 120 255
157.522327 -231.426017 -113.520366 0 120 255
155.158781 -231.337267 -112.795220 0 120 255
152.795234 -231.248516 -112.070074 0 120 255
150.370524 -231.158439 -111.591877 0 120 255
147.941976 -231.068280 -111.129174 0 120 255
145.513428 -230.978120 -110.666471 0 120 255
143.084881 -230.887961 -110.203768 0 120 255
140.624615 -230.797504 -109.974108 0 120 255
138.160775 -230.707014 -109.770709 0 120 255
135.696936 -230.616524 -109.567310 0 120 255
133.233096 -230.526034 -109.363911 0 120 255
130.762488 -230.436096 -109.377384 0 120 255
128.290745 -230.346251 -109.427213 0 120 255
125.819002 -230.256406 -109.477041 0 120 255
123.347260 -230.166560 -109.526870 0 120 255
120.889417 -230.077953 -109.776076 0 120 255
118.434749 -229.989628 -110.070812 0 120 255
115.980081 -229.901304 -110.365547 0 120 255
113.525413 -229.812979 -110.660283 0 120 255
111.101381 -229.726444 -111.136355 0 120 255
108.686411 -229.640438 -111.666063 0 120 255
106.271442 -229.554432 -112.195772 0 120 255
103.856472 -229.468427 -112.725480 0 120 255
101.485361 -229.384612 -113.418491 0 120 255
99.130526 -229.301611 -114.172101 0 120 255
96.775691 -229.218609 -114.925712 0 120 255
94.420856 -229.135608 -115.679323 0 120 255
92.120015 -229.055109 -116.578609 0 120 255
89.843780 -228.975752 -117.544280 0 120 255
87.567545 -228.896394 -118.509952 0 120 255
85.291309 -228.817037 -119.475624 0 120 255
83.076530 -228.740402 -120.570028 0 120 255
80.895643 -228.665268 -121.735426 0 120 255
78.714756 -228.590134 -122.900823 0 120 255
76.533868 -228.514999 -124.066221 0 120 255
74.419610 -228.442705 -125.344277 0 120 255
72.349375 -228.372286 -126.696769 0 120 255
70.279140 -228.301868 -128.049261 0 120 255
68.208905 -228.231450 -129.401753 0 120 255
66.208506 -228.163942 -130.851784 0 120 255
64.263034 -228.098724 -132.378530 0 120 255
62.317562 -228.033507 -133.905275 0 120 255
60.372091 -227.968289 -135.432021 0 120 255
58.497933 -227.905977 -137.042139 0 120 255
56.690300 -227.846377 -138.730030 0 120 255
54.882666 -227.786776 -140.417921 0 120 255
53.075033 -227.727176 -142.105812 0 120 255
51.338584 -227.670426 -143.863808 0 120 255
49.680803 -227.616826 -145.699280 0 120 255
48.023023 -227.563227 -147.534752 0 120 255
46.365242 -227.509627 -149.370224 0 120 255
44.776926 -227.458780 -151.263378 0 120 255
43.279671 -227.411539 -153.232150 0 120 255
41.782416 -227.364299 -155.200922 0 120 255
40.285161 -227.317059 -157.169694 0 120 255
38.854255 -227.272405 -159.184727 0 120 255
37.526922 -227.231789 -161.271975 0 120 255
36.199589 -227.191172 -163.359223 0 120 255
34.872256 -227.150556 -165.446471 0 120 255
33.606974 -227.112333 -167.569683 0 120 255
32.457836 -227.078590 -169.760210 0 120 255
31.308697 -227.044847 -171.950737 0 120 255
30.159559 -227.011104 -174.141264 0 120 255
29.067187 -226.979531 -176.358658 0 120 255
28.103550 -226.952881 -178.636982 0 120 255
27.139912 -226.926231 -180.915306 0 120 255
26.176274 -226.899580 -183.193629 0 120 255
25.263256 -226.874844 -185.490951 0 120 255
24.491472 -226.855448 -187.841278 0 120 255
23.719687 -226.836052 -190.191606 0 120 255
22.947903 -226.816657 -192.541933 0 120 255
22.219867 -226.798900 -194.904653 0 120 255
21.645417 -226.786899 -197.310881 0 120 255
21.070968 -226.774897 -199.717108 0 120 255
20.496518 -226.762896 -202.123335 0 120 255
19.958341 -226.752244 -204.536646 0 120 255
19.585874 -226.747757 -206.982319 0 120 255
19.213408 -226.743269 -209.427992 0 120 255
18.840942 -226.738782 -211.873665 0 120 255
18.496754 -226.735336 -214.322441 0 120 255
18.329961 -226.738423 -216.790687 0 120 255
18.163169 -226.741510 -219.258932 0 120 255
17.996376 -226.744597 -221.727178 0 120 255
17.849462 -226.748410 -224.195926 0 120 255
17.890950 -226.759099 -226.669432 0 120 255
17.932438 -226.769787 -229.142938 0 120 255
17.973926 -226.780476 -231.616443 0 120 255
18.026612 -226.791571 -234.089283 0 120 255
18.277709 -226.809862 -236.550316 0 120 255
18.528807 -226.828154 -239.011348 0 120 255
18.779905 -226.846445 -241.472381 0 120 255
19.033397 -226.864823 -243.933064 0 120 255
19.493966 -226.890626 -246.363553 0 120 255
19.954535 -226.916430 -248.794043 0 120 255
20.415104 -226.942233 -251.224532 0 120 255
20.875673 -226.968037 -253.655021 0 120 255
21.537257 -227.000993 -256.038284 0 120 255
22.205169 -227.034175 -258.420060 0 120 255
22.873082 -227.067356 -260.801836 0 120 255
23.540994 -227.100538 -263.183613 0 120 255
24.397250 -227.140353 -265.503577 0 120 255
25.268222 -227.180687 -267.818711 0 120 255
26.139194 -227.221020 -270.133846 0 120 255
27.010166 -227.261353 -272.448980 0 120 255
28.055200 -227.307747 -274.689780 0 120 255
29.122716 -227.354923 -276.920980 0 120 255
30.190231 -227.402099 -279.152179 0 120 255
31.257747 -227.449276 -281.383379 0 120 255
32.483651 -227.501878 -283.530117 0 120 255
33.738896 -227.555487 -285.661209 0 120 255
34.994140 -227.609095 -287.792301 0 120 255
36.249384 -227.662703 -289.923394 0 120 255
37.646298 -227.721144 -291.962567 0 120 255
39.078235 -227.780780 -293.979016 0 120 255
40.510172 -227.840415 -295.995465 0 120 255
41.942109 -227.900051 -298.011914 0 120 255
43.498609 -227.963878 -299.931662 0 120 255
45.094481 -228.029029 -301.820846 0 120 255
46.690353 -228.094181 -303.710029 0 120 255
48.286225 -228.159332 -305.599213 0 120 255
49.989502 -228.228023 -307.389695 0 120 255
51.734998 -228.298105 -309.141380 0 120 255
53.480494 -228.368187 -310.893065 0 120 255
55.225990 -228.438269 -312.644749 0 120 255
57.062247 -228.511329 -314.298325 0 120 255
58.942045 -228.585817 -315.904837 0 120 255
60.821842 -228.660305 -317.511348 0 120 255
62.701640 -228.734794 -319.117860 0 120 255
64.656520 -228.811751 -320.629180 0 120 255
66.654795 -228.890135 -322.085483 0 120 255
68.653071 -228.968520 -323.541785 0 120 255
70.651346 -229.046904 -324.998088 0 120 255
72.710265 -229.127181 -326.364222 0 120 255
74.811042 -229.208764 -327.668120 0 120 255
76.911818 -229.290347 -328.972017 0 120 255
79.012595 -229.371929 -330.275914 0 120 255
81.161064 -229.454110 -331.496503 0 120 255
83.348633 -229.536780 -332.648795 0 120 255
85.536202 -229.619450 -333.801086 0 120 255
87.723770 -229.702120 -334.953378 0 120 255
89.947184 -229.779609 -336.032259 0 120 255
92.205407 -229.852065 -337.039853 0 120 255
94.463630 -229.924522 -338.047448 0 120 255
96.721853 -229.996979 -339.055042 0 120 255
99.006164 -230.059221 -339.999860 0 120 255
101.320477 -230.109715 -340.872483 0 120 255
103.634790 -230.160209 -341.745107 0 120 255
105.949103 -230.210703 -342.617730 0 120 255
108.281805 -230.248208 -343.437925 0 120 255
110.639603 -230.267985 -344.186566 0 120 255
112.997401 -230.287762 -344.935207 0 120 255
115.355199 -230.307539 -345.683848 0 120 255
117.725420 -230.313196 -346.389939 0 120 255
120.115858 -230.295875 -347.026787 0 120 255
122.506295 -230.278554 -347.663635 0 120 255
124.896732 -230.261233 -348.300483 0 120 255
127.295114 -230.229948 -348.903945 0 120 255
129.709035 -230.171352 -349.442109 0 120 255
132.122956 -230.112755 -349.980272 0 120 255
134.536877 -230.054159 -350.518435 0 120 255
136.955517 -229.982756 -351.031468 0 120 255
139.385381 -229.880896 -351.484734 0 120 255
141.815245 -229.779036 -351.938000 0 120 255
144.245110 -229.677176 -352.391266 0 120 255
146.677499 -229.564383 -352.826595 0 120 255
149.117316 -229.419425 -353.209148 0 120 255
151.557133 -229.274467 -353.591702 0 120 255
153.996949 -229.129508 -353.974256 0 120 255
156.437906 -228.975917 -354.344929 0 120 255
158.883115 -228.790110 -354.671264 0 120 255
161.328324 -228.604303 -354.997599 0 120 255
163.773533 -228.418496 -355.323935 0 120 255
166.219076 -228.226704 -355.643635 0 120 255
168.666261 -228.005472 -355.930706 0 120 255
171.113446 -227.784240 -356.217776 0 120 255
173.560630 -227.563008 -356.504847 0 120 255
176.007775 -227.340488 -356.791241 0 120 255
178.454639 -227.109083 -357.072972 0 120 255
180.901504 -226.877679 -357.354704 0 120 255
183.348368 -226.646274 -357.636436 0 120 255
185.795232 -226.414869 -357.918168 0 120 255
188.242094 -226.183453 -358.199912 0 120 255
190.688956 -225.952038 -358.481657 0 120 255
193.135818 -225.720622 -358.763401 0 120 255
195.582680 -225.489207 -359.045144 0 120 255
198.029544 -225.257795 -359.326881 0 120 255
200.476407 -225.026383 -359.608618 0 120 255
202.923270 -224.794972 -359.890354 0 120 255
205.370133 -224.563560 -360.172091 0 120 255
