ply
format ascii 1.0
element vertex 385
property float x
property float y
property float z
property uchar red
property uchar green
property uchar blue
end_header
77.430455 -42.474882 -360.397637 0 120 255
77.187567 -42.528708 -357.936080 0 120 255
76.944679 -42.582534 -355.474523 0 120 255
76.701791 -42.636361 -353.012967 0 120 255
76.458903 -42.690187 -350.551410 0 120 255
76.213399 -42.752981 -348.090326 0 120 255
75.967780 -42.816166 -345.629263 0 120 255
75.722162 -42.879352 -343.168200 0 120 255
75.476543 -42.942538 -340.707136 0 120 255
75.077357 -43.373405 -338.306869 0 120 255
74.664113 -43.837931 -335.912167 0 120 255
74.250869 -44.302456 -333.517464 0 120 255
73.837625 -44.766982 -331.122762 0 120 255
73.307290 -45.499593 -328.822943 0 120 255
72.759612 -46.271910 -326.537176 0 120 255
72.211933 -47.044228 -324.251410 0 120 255
71.664255 -47.816545 -321.965644 0 120 255
71.034241 -48.784547 -319.780331 0 120 255
70.386888 -49.793759 -317.616173 0 120 255
69.739535 -50.802971 -315.452016 0 120 255
69.092182 -51.812183 -313.287858 0 120 255
68.395109 -52.965585 -311.215166 0 120 255
67.684118 -54.159351 -309.168079 0 120 255
66.973127 -55.353118 -307.120992 0 120 255
66.262135 -56.546884 -305.073904 0 120 255
65.530230 -57.851478 -303.104951 0 120 255
64.790852 -59.195670 -301.163915 0 120 255
64.051475 -60.539861 -299.222878 0 120 255
63.312097 -61.884053 -297.281842 0 120 255
62.575893 -63.319098 -295.407230 0 120 255
61.841100 -64.794501 -293.562123 0 120 255
61.106306 -66.269904 -291.717017 0 120 255
60.371513 -67.745307 -289.871911 0 120 255
59.658893 -69.300103 -288.085752 0 120 255
58.958308 -70.897989 -286.331587 0 120 255
58.257723 -72.495875 -284.577422 0 120 255
57.557138 -74.093761 -282.823257 0 120 255
56.892772 -75.763976 -281.125079 0 120 255
56.252144 -77.481596 -279.463595 0 120 255
55.611515 -79.199216 -277.802110 0 120 255
54.970887 -80.916835 -276.140626 0 120 255
54.375987 -82.701182 -274.535727 0 120 255
53.817008 -84.537942 -272.975276 0 120 255
53.258029 -86.374703 -271.414825 0 120 255
52.699049 -88.211463 -269.854374 0 120 255
52.191459 -90.108980 -268.353138 0 120 255
51.732046 -92.063455 -266.907413 0 120 255
51.272633 -94.017930 -265.461689 0 120 255
50.813219 -95.972405 -264.015964 0 120 255
50.407775 -97.980434 -262.632565 0 120 255
50.062631 -100.048297 -261.318804 0 120 255
49.717486 -102.116161 -260.005043 0 120 255
49.372341 -104.184024 -258.691282 0 120 255
49.081426 -106.296830 -257.442125 0 120 255
48.862815 -108.469559 -256.279106 0 120 255
48.644204 -110.642288 -255.116088 0 120 255
48.425593 -112.815017 -253.953069 0 120 255
48.259815 -115.022976 -252.855176 0 120 255
48.178436 -117.287216 -251.861321 0 120 255
48.097057 -119.551456 -250.867465 0 120 255
48.015678 -121.815695 -249.873610 0 120 255
47.984563 -124.104911 -248.943086 0 120 255
48.050338 -126.442269 -248.134640 0 120 255
48.116113 -128.779627 -247.326195 0 120 255
48.181888 -131.116985 -246.517750 0 120 255
48.294487 -133.469225 -245.768378 0 120 255
48.517206 -135.856463 -245.157932 0 120 255
48.739924 -138.243701 -244.547485 0 120 255
48.962643 -140.630939 -243.937039 0 120 255
49.227988 -143.023842 -243.379064 0 120 255
49.617644 -145.433267 -242.974103 0 120 255
50.007299 -147.842692 -242.569143 0 120 255
50.396955 -150.252117 -242.164183 0 120 255
50.824281 -152.659562 -241.803168 0 120 255
51.391142 -155.059671 -241.604926 0 120 255
51.958002 -157.459780 -241.406685 0 120 255
52.524862 -159.859889 -241.208444 0 120 255
53.123589 -162.252551 -241.044318 0 120 255
53.877826 -164.608878 -241.046672 0 120 255
54.632063 -166.965204 -241.049026 0 120 255
55.386300 -169.321531 -241.051380 0 120 255
56.165690 -171.667616 -241.077547 0 120 255
57.116699 -173.943830 -241.266192 0 120 255
58.067707 -176.220044 -241.454836 0 120 255
59.018715 -178.496258 -241.643480 0 120 255
59.987265 -180.762435 -241.846135 0 120 255
61.142579 -182.921745 -242.197959 0 120 255
62.297893 -185.081056 -242.549784 0 120 255
63.453207 -187.240366 -242.901608 0 120 255
64.617736 -189.392945 -243.259220 0 120 255
65.981757 -191.399782 -243.742134 0 120 255
67.345778 -193.406618 -244.225048 0 120 255
68.709800 -195.413455 -244.707962 0 120 255
70.074381 -197.419795 -245.191119 0 120 255
71.646891 -199.241806 -245.764393 0 120 255
73.219400 -201.063817 -246.337667 0 120 255
74.791910 -202.885828 -246.910941 0 120 255
76.364420 -204.707839 -247.484215 0 120 255
78.131404 -206.326197 -248.097886 0 120 255
79.906184 -207.936391 -248.713177 0 120 255
81.680964 -209.546586 -249.328468 0 120 255
83.455744 -211.156780 -249.943758 0 120 255
85.404378 -212.554103 -250.547849 0 120 255
87.368044 -213.933019 -251.150972 0 120 255
89.331711 -215.311936 -251.754094 0 120 255
91.295377 -216.690853 -252.357217 0 120 255
93.406461 -217.857575 -252.899046 0 120 255
95.537734 -218.995237 -253.432482 0 120 255
97.669007 -220.132898 -253.965918 0 120 255
99.800280 -221.270560 -254.499354 0 120 255
102.047568 -222.206671 -254.925919 0 120 255
104.317153 -223.104044 -255.331944 0 120 255
106.586739 -224.001418 -255.737968 0 120 255
108.856324 -224.898791 -256.143993 0 120 255
111.206978 -225.614458 -256.404868 0 120 255
113.578139 -226.284162 -256.629026 0 120 255
115.949300 -226.953866 -256.853185 0 120 255
118.320460 -227.623570 -257.077343 0 120 255
120.736020 -228.139104 -257.127592 0 120 255
123.165795 -228.605277 -257.122162 0 120 255
125.595570 -229.071450 -257.116731 0 120 255
128.025345 -229.537623 -257.111300 0 120 255
130.463167 -229.882555 -256.914183 0 120 255
132.904167 -230.179600 -256.641355 0 120 255
135.345167 -230.476644 -256.368527 0 120 255
137.786168 -230.773689 -256.095699 0 120 255
140.201135 -230.985249 -255.624821 0 120 255
142.603637 -231.155878 -255.059117 0 120 255
145.006140 -231.326508 -254.493413 0 120 255
147.408642 -231.497137 -253.927709 0 120 255
149.755005 -231.619696 -253.168668 0 120 255
152.069175 -231.714688 -252.298754 0 120 255
154.383344 -231.809680 -251.428840 0 120 255
156.697513 -231.904672 -250.558927 0 120 255
158.931028 -231.985411 -249.510262 0 120 255
161.109566 -232.056433 -248.339759 0 120 255
163.288105 -232.127455 -247.169256 0 120 255
165.466644 -232.198478 -245.998753 0 120 255
167.543875 -232.260544 -244.667161 0 120 255
169.539388 -232.315385 -243.205630 0 120 255
171.534902 -232.370227 -241.744099 0 120 255
173.530415 -232.425069 -240.282568 0 120 255
175.407984 -232.472609 -238.681968 0 120 255
177.173260 -232.513197 -236.948964 0 120 255
178.938536 -232.553785 -235.215959 0 120 255
180.703812 -232.594374 -233.482954 0 120 255
182.340139 -232.629907 -231.636557 0 120 255
183.831644 -232.659762 -229.662811 0 120 255
185.323150 -232.689617 -227.689065 0 120 255
186.814655 -232.719473 -225.715319 0 120 255
188.172427 -232.745906 -223.655391 0 120 255
189.352730 -232.767798 -221.481096 0 120 255
190.533033 -232.789691 -219.306801 0 120 255
191.713336 -232.811583 -217.132506 0 120 255
192.761331 -232.830890 -214.898819 0 120 255
193.600983 -232.846126 -212.571609 0 120 255
194.440635 -232.861362 -210.244399 0 120 255
195.280287 -232.876598 -207.917190 0 120 255
195.994746 -232.889541 -205.555249 0 120 255
196.473640 -232.898170 -203.127958 0 120 255
196.952533 -232.906800 -200.700668 0 120 255
197.431427 -232.915429 -198.273377 0 120 255
197.797026 -232.921767 -195.832506 0 120 255
197.905179 -232.922898 -193.360775 0 120 255
198.013332 -232.924030 -190.889044 0 120 255
198.121486 -232.925161 -188.417313 0 120 255
198.131804 -232.923933 -185.948643 0 120 255
197.869493 -232.916131 -183.488504 0 120 255
197.607181 -232.908329 -181.028364 0 120 255
197.344870 -232.900527 -178.568225 0 120 255
197.002362 -232.890383 -176.122720 0 120 255
196.379613 -232.872052 -173.728351 0 120 255
195.756864 -232.853722 -171.333983 0 120 255
195.134115 -232.835391 -168.939614 0 120 255
194.449588 -232.814907 -166.566252 0 120 255
193.485227 -232.784667 -164.288040 0 120 255
192.520867 -232.754426 -162.009829 0 120 255
191.556506 -232.724186 -159.731617 0 120 255
190.548290 -232.692168 -157.475826 0 120 255
189.268621 -232.649152 -155.358812 0 120 255
187.988952 -232.606135 -153.241798 0 120 255
186.709283 -232.563118 -151.124783 0 120 255
185.402078 -232.518854 -149.027201 0 120 255
183.839312 -232.463013 -147.109964 0 120 255
182.276546 -232.407172 -145.192727 0 120 255
180.713780 -232.351331 -143.275490 0 120 255
179.137360 -232.294832 -141.371054 0 120 255
177.327920 -232.227094 -139.685085 0 120 255
175.518480 -232.159357 -137.999116 0 120 255
173.709040 -232.091619 -136.313147 0 120 255
171.896826 -232.023750 -134.630591 0 120 255
169.879707 -231.946147 -133.200079 0 120 255
167.862588 -231.868544 -131.769568 0 120 255
165.845469 -231.790942 -130.339057 0 120 255
163.828350 -231.713339 -128.908546 0 120 255
161.648404 -231.629539 -127.742738 0 120 255
159.463644 -231.545555 -126.584755 0 120 255
157.278884 -231.461572 -125.426772 0 120 255
155.094124 -231.377589 -124.268789 0 120 255
152.790684 -231.290277 -123.373604 0 120 255
150.478199 -231.202712 -122.498448 0 120 255
148.165714 -231.115147 -121.623292 0 120 255
145.853229 -231.027582 -120.748136 0 120 255
143.461812 -230.938177 -120.127456 0 120 255
141.060344 -230.848538 -119.539177 0 120 255
138.658877 -230.758899 -118.950898 0 120 255
136.257409 -230.669260 -118.362619 0 120 255
133.811677 -230.578904 -118.015744 0 120 255
131.357818 -230.488417 -117.713186 0 120 255
128.903958 -230.397930 -117.410629 0 120 255
126.450099 -230.307442 -117.108071 0 120 255
123.981395 -230.217255 -117.030409 0 120 255
121.509041 -230.127142 -117.008022 0 120 255
119.036688 -230.037028 -116.985635 0 120 255
116.564334 -229.946915 -116.963248 0 120 255
114.101407 -229.857908 -117.147095 0 120 255
111.641449 -229.769249 -117.395883 0 120 255
109.181490 -229.680590 -117.644672 0 120 255
106.721531 -229.591932 -117.893460 0 120 255
104.290470 -229.504993 -118.328838 0 120 255
101.870740 -229.418728 -118.837386 0 120 255
99.451011 -229.332462 -119.345935 0 120 255
97.031282 -229.246197 -119.854484 0 120 255
94.655574 -229.162148 -120.529664 0 120 255
92.300954 -229.079159 -121.284667 0 120 255
89.946333 -228.996171 -122.039670 0 120 255
87.591713 -228.913182 -122.794673 0 120 255
85.292412 -228.832750 -123.696696 0 120 255
83.025057 -228.753796 -124.683619 0 120 255
80.757701 -228.674841 -125.670543 0 120 255
78.490346 -228.595886 -126.657467 0 120 255
76.286299 -228.519716 -127.772558 0 120 255
74.125931 -228.445467 -128.976073 0 120 255
71.965562 -228.371219 -130.179588 0 120 255
69.805194 -228.296970 -131.383103 0 120 255
67.713285 -228.225626 -132.696935 0 120 255
65.677482 -228.156661 -134.101181 0 120 255
63.641679 -228.087697 -135.505426 0 120 255
61.605877 -228.018733 -136.909671 0 120 255
59.641263 -227.952709 -138.407552 0 120 255
57.745751 -227.889538 -139.996325 0 120 255
55.850240 -227.826367 -141.585098 0 120 255
53.954729 -227.763196 -143.173871 0 120 255
52.131066 -227.702934 -144.840846 0 120 255
50.389965 -227.646014 -146.597685 0 120 255
48.648864 -227.589094 -148.354523 0 120 255
46.907764 -227.532174 -150.111362 0 120 255
45.237386 -227.478069 -151.932253 0 120 255
43.663398 -227.427800 -153.840443 0 120 255
42.089410 -227.377531 -155.748633 0 120 255
40.515422 -227.327262 -157.656822 0 120 255
39.009480 -227.279663 -159.616220 0 120 255
37.614021 -227.236398 -161.658761 0 120 255
36.218562 -227.193134 -163.701302 0 120 255
34.823103 -227.149869 -165.743844 0 120 255
33.491647 -227.109083 -167.826067 0 120 255
32.284922 -227.073127 -169.985621 0 120 255
31.078197 -227.037170 -172.145175 0 120 255
29.871473 -227.001214 -174.304730 0 120 255
28.723481 -226.967507 -176.493772 0 120 255
27.714416 -226.939121 -178.752562 0 120 255
26.705351 -226.910735 -181.011353 0 120 255
25.696287 -226.882350 -183.270144 0 120 255
24.739580 -226.855951 -185.549598 0 120 255
23.935684 -226.835349 -187.889359 0 120 255
23.131788 -226.814748 -190.229119 0 120 255
22.327891 -226.794146 -192.568880 0 120 255
21.569021 -226.775233 -194.921915 0 120 255
20.976223 -226.762548 -197.323910 0 120 255
20.383425 -226.749862 -199.725906 0 120 255
19.790627 -226.737176 -202.127901 0 120 255
19.234736 -226.725864 -204.537290 0 120 255
18.857230 -226.721187 -206.982412 0 120 255
18.479724 -226.716510 -209.427533 0 120 255
18.102219 -226.711833 -211.872655 0 120 255
17.752923 -226.708196 -214.320862 0 120 255
17.593096 -226.711539 -216.789788 0 120 255
17.433269 -226.714883 -219.258715 0 120 255
17.273443 -226.718226 -221.727641 0 120 255
17.132766 -226.722269 -224.196959 0 120 255
17.191057 -226.733577 -226.670343 0 120 255
17.249349 -226.744885 -229.143726 0 120 255
17.307641 -226.756193 -231.617110 0 120 255
17.375905 -226.767861 -234.089818 0 120 255
17.650902 -226.786989 -236.548509 0 120 255
17.925898 -226.806116 -239.007201 0 120 255
18.200894 -226.825244 -241.465893 0 120 255
18.476801 -226.844404 -243.924442 0 120 255
18.965208 -226.871155 -246.349704 0 120 255
19.453616 -226.897905 -248.774966 0 120 255
19.942023 -226.924656 -251.200228 0 120 255
20.430430 -226.951407 -253.625490 0 120 255
21.119411 -226.985289 -256.001126 0 120 255
21.816196 -227.019448 -258.374831 0 120 255
22.512981 -227.053608 -260.748537 0 120 255
23.209766 -227.087767 -263.122242 0 120 255
24.092268 -227.128448 -265.432518 0 120 255
24.990734 -227.169690 -267.737341 0 120 255
25.889200 -227.210931 -270.042165 0 120 255
26.787666 -227.252173 -272.346988 0 120 255
27.856029 -227.299334 -274.576962 0 120 255
28.947747 -227.347309 -276.796648 0 120 255
30.039466 -227.395284 -279.016333 0 120 255
31.131184 -227.443258 -281.236018 0 120 255
32.376395 -227.496499 -283.371862 0 120 255
33.651396 -227.550763 -285.491432 0 120 255
34.926397 -227.605026 -287.611003 0 120 255
36.201398 -227.659289 -289.730574 0 120 255
37.613163 -227.718194 -291.759786 0 120 255
39.060029 -227.778291 -293.765808 0 120 255
40.506895 -227.838388 -295.771829 0 120 255
41.953760 -227.898484 -297.777850 0 120 255
43.520571 -227.962593 -299.689537 0 120 255
45.126499 -228.028010 -301.570459 0 120 255
46.732428 -228.093427 -303.451381 0 120 255
48.338356 -228.158844 -305.332303 0 120 255
50.047794 -228.227701 -307.117293 0 120 255
51.799024 -228.297946 -308.863549 0 120 255
53.550255 -228.368191 -310.609805 0 120 255
55.301485 -228.438436 -312.356061 0 120 255
57.140433 -228.511560 -314.007073 0 120 255
59.022459 -228.586099 -315.611310 0 120 255
60.904485 -228.660638 -317.215547 0 120 255
62.786510 -228.735177 -318.819784 0 120 255
64.741373 -228.812155 -320.331591 0 120 255
66.739221 -228.890571 -321.788852 0 120 255
68.737069 -228.968988 -323.246113 0 120 255
70.734916 -229.047404 -324.703373 0 120 255
72.791938 -229.127842 -326.072848 0 120 255
74.890578 -229.209701 -327.380579 0 120 255
76.989219 -229.291559 -328.688310 0 120 255
79.087859 -229.373418 -329.996041 0 120 255
81.233326 -229.456059 -331.222395 0 120 255
83.417843 -229.539353 -332.380885 0 120 255
85.602361 -229.622647 -333.539375 0 120 255
87.786878 -229.705941 -334.697865 0 120 255
90.006853 -229.784598 -335.784277 0 120 255
92.261803 -229.858683 -336.799594 0 120 255
94.516752 -229.932767 -337.814910 0 120 255
96.771701 -230.006851 -338.830227 0 120 255
99.052620 -230.071083 -339.783681 0 120 255
101.363835 -230.123822 -340.664961 0 120 255
103.675051 -230.176560 -341.546240 0 120 255
105.986267 -230.229299 -342.427520 0 120 255
108.315885 -230.268979 -343.257004 0 120 255
110.670957 -230.290596 -344.014844 0 120 255
113.026029 -230.312214 -344.772684 0 120 255
115.381101 -230.333831 -345.530524 0 120 255
117.748676 -230.341045 -346.246176 0 120 255
120.136855 -230.324523 -346.892303 0 120 255
122.525034 -230.308001 -347.538430 0 120 255
124.913213 -230.291480 -348.184558 0 120 255
127.309434 -230.260648 -348.797423 0 120 255
129.721571 -230.201495 -349.344461 0 120 255
132.133708 -230.142343 -349.891499 0 120 255
134.545844 -230.083191 -350.438537 0 120 255
136.962796 -230.010965 -350.960344 0 120 255
139.391329 -229.907297 -351.421467 0 120 255
141.819862 -229.803628 -351.882589 0 120 255
144.248395 -229.699959 -352.343712 0 120 255
146.679538 -229.585257 -352.786624 0 120 255
149.118443 -229.437747 -353.175384 0 120 255
151.557349 -229.290238 -353.564145 0 120 255
153.996254 -229.142729 -353.952905 0 120 255
156.436385 -228.986702 -354.329366 0 120 255
158.881134 -228.798558 -354.659448 0 120 255
161.325884 -228.610414 -354.989531 0 120 255
163.770633 -228.422271 -355.319613 0 120 255
166.215818 -228.228514 -355.642524 0 120 255
168.663164 -228.006877 -355.929801 0 120 255
171.110510 -227.785239 -356.217079 0 120 255
173.557855 -227.563601 -356.504356 0 120 255
176.005168 -227.340734 -356.790941 0 120 255
178.452250 -227.109309 -357.072697 0 120 255
180.899331 -226.877884 -357.354454 0 120 255
183.346413 -226.646459 -357.636211 0 120 255
185.793495 -226.415033 -357.917968 0 120 255
188.240574 -226.183597 -358.199737 0 120 255
190.687653 -225.952161 -358.481507 0 120 255
193.134732 -225.720725 -358.763276 0 120 255
195.581811 -225.489289 -359.045044 0 120 255
198.028892 -225.257857 -359.326806 0 120 255
200.475972 -225.026424 -359.608568 0 120 255
202.923053 -224.794992 -359.890329 0 120 255
205.370133 -224.563560 -360.172091 0 120 255
