ply
format ascii 1.0
element vertex 385
property float x
property float y
property float z
property uchar red
property uchar green
property uchar blue
end_header
77.430455 -42.474882 -360.397637 0 120 255
77.187498 -42.528723 -357.935376 0 120 255
76.944540 -42.582565 -355.473116 0 120 255
76.701583 -42.636407 -353.010856 0 120 255
76.458625 -42.690248 -350.548596 0 120 255
76.222006 -42.761565 -348.086166 0 120 255
75.985656 -42.833623 -345.623728 0 120 255
75.749306 -42.905682 -343.161291 0 120 255
75.512956 -42.977741 -340.698853 0 120 255
75.415902 -43.286723 -338.246696 0 120 255
75.331169 -43.616661 -335.795449 0 120 255
75.246436 -43.946599 -333.344202 0 120 255
75.161703 -44.276536 -330.892954 0 120 255
75.202448 -44.793342 -328.474594 0 120 255
75.261235 -45.337015 -326.060963 0 120 255
75.320022 -45.880688 -323.647332 0 120 255
75.378808 -46.424362 -321.233701 0 120 255
75.553768 -47.121655 -318.867324 0 120 255
75.752605 -47.850524 -316.510659 0 120 255
75.951442 -48.579393 -314.153995 0 120 255
76.150279 -49.308262 -311.797331 0 120 255
76.455100 -50.159252 -309.495255 0 120 255
76.789032 -51.043785 -307.208174 0 120 255
77.122965 -51.928319 -304.921092 0 120 255
77.456897 -52.812853 -302.634011 0 120 255
77.886077 -53.790806 -300.403164 0 120 255
78.348829 -54.801685 -298.192138 0 120 255
78.811580 -55.812565 -295.981112 0 120 255
79.274331 -56.823444 -293.770086 0 120 255
79.821348 -57.902447 -291.612600 0 120 255
80.405468 -59.011444 -289.478687 0 120 255
80.989588 -60.120441 -287.344775 0 120 255
81.573708 -61.229438 -285.210863 0 120 255
82.231076 -62.384961 -283.124721 0 120 255
82.928011 -63.565615 -281.064384 0 120 255
83.624946 -64.746270 -279.004047 0 120 255
84.321881 -65.926924 -276.943710 0 120 255
85.081184 -67.136242 -274.923431 0 120 255
85.881314 -68.364323 -272.929374 0 120 255
86.681443 -69.592404 -270.935317 0 120 255
87.481572 -70.820485 -268.941260 0 120 255
88.333462 -72.062949 -266.978565 0 120 255
89.226075 -73.316731 -265.040544 0 120 255
90.118689 -74.570513 -263.102523 0 120 255
91.011302 -75.824294 -261.164502 0 120 255
91.945471 -77.081489 -259.248952 0 120 255
92.918745 -78.341896 -257.354549 0 120 255
93.892019 -79.602304 -255.460146 0 120 255
94.865293 -80.862711 -253.565742 0 120 255
95.870448 -82.118534 -251.685360 0 120 255
96.911419 -83.369207 -249.820730 0 120 255
97.952391 -84.619881 -247.956100 0 120 255
98.993363 -85.870554 -246.091469 0 120 255
100.057196 -87.111234 -244.233316 0 120 255
101.151716 -88.338499 -242.383857 0 120 255
102.246235 -89.565764 -240.534398 0 120 255
103.340755 -90.793030 -238.684938 0 120 255
104.449920 -92.007081 -236.835653 0 120 255
105.582657 -93.199868 -234.986647 0 120 255
106.715393 -94.392654 -233.137642 0 120 255
107.848129 -95.585440 -231.288636 0 120 255
108.988237 -96.763593 -229.434938 0 120 255
110.142665 -97.913318 -227.572122 0 120 255
111.297093 -99.063042 -225.709306 0 120 255
112.451521 -100.212767 -223.846491 0 120 255
113.607145 -101.347861 -221.975640 0 120 255
114.765606 -102.448282 -220.085748 0 120 255
115.924068 -103.548703 -218.195855 0 120 255
117.082529 -104.649124 -216.305963 0 120 255
118.237268 -105.735992 -214.406205 0 120 255
119.381074 -106.783043 -212.477462 0 120 255
120.524879 -107.830093 -210.548720 0 120 255
121.668685 -108.877143 -208.619978 0 120 255
122.805246 -109.912470 -206.680937 0 120 255
123.914793 -110.904078 -204.703497 0 120 255
125.024340 -111.895686 -202.726056 0 120 255
126.133887 -112.887294 -200.748616 0 120 255
127.234198 -113.869471 -198.761659 0 120 255
128.289184 -114.805371 -196.728005 0 120 255
129.344170 -115.741272 -194.694352 0 120 255
130.399156 -116.677173 -192.660698 0 120 255
131.444544 -117.606146 -190.619264 0 120 255
132.424208 -118.487685 -188.524557 0 120 255
133.403873 -119.369223 -186.429850 0 120 255
134.383538 -120.250762 -184.335142 0 120 255
135.354938 -121.127867 -182.235029 0 120 255
136.238364 -121.957776 -180.077378 0 120 255
137.121790 -122.787686 -177.919726 0 120 255
138.005216 -123.617596 -175.762074 0 120 255
138.883423 -124.445377 -173.601671 0 120 255
139.649901 -125.227591 -171.382369 0 120 255
140.416380 -126.009805 -169.163066 0 120 255
141.182858 -126.792019 -166.943763 0 120 255
141.948832 -127.574075 -164.724251 0 120 255
142.578244 -128.313494 -162.447904 0 120 255
143.207655 -129.052912 -160.171557 0 120 255
143.837067 -129.792331 -157.895211 0 120 255
144.466478 -130.531749 -155.618864 0 120 255
144.945528 -131.235398 -153.295281 0 120 255
145.418803 -131.937673 -150.969884 0 120 255
145.892079 -132.639949 -148.644487 0 120 255
146.365355 -133.342224 -146.319089 0 120 255
146.678363 -134.015947 -143.958909 0 120 255
146.977932 -134.687277 -141.595812 0 120 255
147.277501 -135.358606 -139.232715 0 120 255
147.577070 -136.029935 -136.869618 0 120 255
147.709595 -136.679688 -134.486117 0 120 255
147.819880 -137.326568 -132.099899 0 120 255
147.930165 -137.973448 -129.713681 0 120 255
148.040451 -138.620328 -127.327463 0 120 255
147.980176 -139.252168 -124.936581 0 120 255
147.888047 -139.881199 -122.544827 0 120 255
147.795918 -140.510230 -120.153074 0 120 255
147.703789 -141.139262 -117.761320 0 120 255
147.440932 -141.759168 -115.381390 0 120 255
147.136181 -142.376836 -113.004362 0 120 255
146.831429 -142.994503 -110.627333 0 120 255
146.526678 -143.612171 -108.250304 0 120 255
146.054299 -144.225880 -105.901706 0 120 255
145.529995 -144.838364 -103.561915 0 120 255
145.005691 -145.450847 -101.222124 0 120 255
144.481387 -146.063330 -98.882333 0 120 255
143.795709 -146.676169 -96.587065 0 120 255
143.048574 -147.289144 -94.308754 0 120 255
142.301439 -147.902118 -92.030442 0 120 255
141.554304 -148.515093 -89.752131 0 120 255
140.654947 -149.131851 -87.533318 0 120 255
139.685601 -149.750349 -85.341861 0 120 255
138.716256 -150.368847 -83.150405 0 120 255
137.746910 -150.987346 -80.958948 0 120 255
136.637013 -151.612136 -78.840301 0 120 255
135.450091 -152.240375 -76.761556 0 120 255
134.263169 -152.868614 -74.682810 0 120 255
133.076247 -153.496853 -72.604064 0 120 255
131.762541 -154.133039 -70.609299 0 120 255
130.366758 -154.774368 -68.668903 0 120 255
128.970975 -155.415698 -66.728506 0 120 255
127.575192 -156.057027 -64.788110 0 120 255
126.067941 -156.707124 -62.940357 0 120 255
124.475949 -157.363887 -61.163034 0 120 255
122.883957 -158.020649 -59.385711 0 120 255
121.291964 -158.677412 -57.608389 0 120 255
119.604808 -159.343047 -55.929603 0 120 255
117.832991 -160.016575 -54.338478 0 120 255
116.061174 -160.690103 -52.747354 0 120 255
114.289358 -161.363631 -51.156229 0 120 255
112.439070 -162.045539 -49.666633 0 120 255
110.507199 -162.736159 -48.282591 0 120 255
108.575329 -163.426780 -46.898549 0 120 255
106.643458 -164.117400 -45.514507 0 120 255
104.649592 -164.815429 -44.232083 0 120 255
102.580351 -165.522464 -43.073206 0 120 255
100.511110 -166.229499 -41.914329 0 120 255
98.441869 -166.936534 -40.755452 0 120 255
96.326323 -167.649679 -39.695510 0 120 255
94.144757 -168.371535 -38.776627 0 120 255
91.963191 -169.093391 -37.857744 0 120 255
89.781625 -169.815247 -36.938860 0 120 255
87.568149 -170.541723 -36.113695 0 120 255
85.301045 -171.275964 -35.446025 0 120 255
83.033942 -172.010205 -34.778354 0 120 255
80.766838 -172.744447 -34.110683 0 120 255
78.480488 -173.481774 -33.529330 0 120 255
76.155718 -174.225264 -33.120282 0 120 255
73.830948 -174.968753 -32.711235 0 120 255
71.506177 -175.712242 -32.302188 0 120 255
69.172760 -176.457360 -31.970284 0 120 255
66.818609 -177.206385 -31.823372 0 120 255
64.464457 -177.955409 -31.676460 0 120 255
62.110305 -178.704434 -31.529548 0 120 255
59.755813 -179.453814 -31.449304 0 120 255
57.400326 -180.204236 -31.564203 0 120 255
55.044839 -180.954657 -31.679102 0 120 255
52.689352 -181.705079 -31.794001 0 120 255
50.339421 -182.454850 -31.964279 0 120 255
48.009799 -183.202243 -32.336992 0 120 255
45.680176 -183.949636 -32.709705 0 120 255
43.350554 -184.697029 -33.082418 0 120 255
41.029964 -185.443101 -33.498897 0 120 255
38.752027 -186.182932 -34.122039 0 120 255
36.474090 -186.922763 -34.745181 0 120 255
34.196153 -187.662595 -35.368322 0 120 255
31.928393 -188.400798 -36.023748 0 120 255
29.726116 -189.128524 -36.886906 0 120 255
27.523839 -189.856250 -37.750064 0 120 255
25.321562 -190.583977 -38.613222 0 120 255
23.128448 -191.310153 -39.497727 0 120 255
21.023611 -192.021394 -40.587888 0 120 255
18.918774 -192.732635 -41.678048 0 120 255
16.813937 -193.443876 -42.768209 0 120 255
14.715329 -194.154016 -43.869672 0 120 255
12.727240 -194.844630 -45.171674 0 120 255
10.739152 -195.535243 -46.473677 0 120 255
8.751064 -196.225856 -47.775680 0 120 255
6.764638 -196.916165 -49.080111 0 120 255
4.909982 -197.582360 -50.577139 0 120 255
3.055327 -198.248555 -52.074166 0 120 255
1.200672 -198.914750 -53.571194 0 120 255
-0.653983 -199.580945 -55.068221 0 120 255
-2.365448 -200.220145 -56.737192 0 120 255
-4.072690 -200.858548 -58.411235 0 120 255
-5.779931 -201.496951 -60.085278 0 120 255
-7.487173 -202.135354 -61.759321 0 120 255
-9.046816 -202.745196 -63.580564 0 120 255
-10.595355 -203.352890 -65.412882 0 120 255
-12.143894 -203.960583 -67.245200 0 120 255
-13.692432 -204.568277 -69.077518 0 120 255
-15.092254 -205.146554 -71.033520 0 120 255
-16.473414 -205.721140 -73.005042 0 120 255
-17.854575 -206.295727 -74.976564 0 120 255
-19.235736 -206.870313 -76.948086 0 120 255
-20.469899 -207.415262 -79.021388 0 120 255
-21.677470 -207.954850 -81.113102 0 120 255
-22.885041 -208.494438 -83.204816 0 120 255
-24.092613 -209.034026 -85.296531 0 120 255
-25.157303 -209.544342 -87.469982 0 120 255
-26.187369 -210.047564 -89.663241 0 120 255
-27.217434 -210.550786 -91.856500 0 120 255
-28.247500 -211.054008 -94.049759 0 120 255
-29.140736 -211.528843 -96.306744 0 120 255
-29.991447 -211.994855 -98.583535 0 120 255
-30.842157 -212.460867 -100.860326 0 120 255
-31.692867 -212.926879 -103.137117 0 120 255
-32.414317 -213.365813 -105.461736 0 120 255
-33.085670 -213.794251 -107.804892 0 120 255
-33.757024 -214.222689 -110.148047 0 120 255
-34.428377 -214.651127 -112.491203 0 120 255
-34.979146 -215.054151 -114.868412 0 120 255
-35.472735 -215.445122 -117.261771 0 120 255
-35.966324 -215.836094 -119.655129 0 120 255
-36.459914 -216.227065 -122.048487 0 120 255
-36.842350 -216.594562 -124.464199 0 120 255
-37.161132 -216.948615 -126.892712 0 120 255
-37.479913 -217.302667 -129.321226 0 120 255
-37.798694 -217.656720 -131.749739 0 120 255
-38.016192 -217.989433 -134.190885 0 120 255
-38.164245 -218.307514 -136.640693 0 120 255
-38.312297 -218.625595 -139.090500 0 120 255
-38.460350 -218.943676 -141.540308 0 120 255
-38.517166 -219.242675 -143.994878 0 120 255
-38.499488 -219.526093 -146.453335 0 120 255
-38.481810 -219.809511 -148.911793 0 120 255
-38.464131 -220.092929 -151.370250 0 120 255
-38.365209 -220.359581 -153.827299 0 120 255
-38.187500 -220.609972 -156.282981 0 120 255
-38.009790 -220.860364 -158.738664 0 120 255
-37.832080 -221.110756 -161.194346 0 120 255
-37.582893 -221.346697 -163.643983 0 120 255
-37.251381 -221.565995 -166.086658 0 120 255
-36.919869 -221.785292 -168.529333 0 120 255
-36.588357 -222.004590 -170.972008 0 120 255
-36.194764 -222.211694 -173.405367 0 120 255
-35.716040 -222.402078 -175.825952 0 120 255
-35.237315 -222.592462 -178.246536 0 120 255
-34.758591 -222.782846 -180.667121 0 120 255
-34.226713 -222.963200 -183.076315 0 120 255
-33.607594 -223.127094 -185.466813 0 120 255
-32.988474 -223.290988 -187.857311 0 120 255
-32.369354 -223.454881 -190.247810 0 120 255
-31.705465 -223.610767 -192.625876 0 120 255
-30.952874 -223.750788 -194.979310 0 120 255
-30.200284 -223.890809 -197.332745 0 120 255
-29.447693 -224.030830 -199.686179 0 120 255
-28.658131 -224.164692 -202.027021 0 120 255
-27.779001 -224.283631 -204.337353 0 120 255
-26.899871 -224.402570 -206.647685 0 120 255
-26.020741 -224.521509 -208.958018 0 120 255
-25.111824 -224.635934 -211.256334 0 120 255
-24.113002 -224.736732 -213.518378 0 120 255
-23.114180 -224.837530 -215.780423 0 120 255
-22.115358 -224.938328 -218.042468 0 120 255
-21.093321 -225.036030 -220.293684 0 120 255
-19.981521 -225.121764 -222.503028 0 120 255
-18.869721 -225.207497 -224.712373 0 120 255
-17.757922 -225.293231 -226.921717 0 120 255
-16.628869 -225.377038 -229.121917 0 120 255
-15.410606 -225.450883 -231.274830 0 120 255
-14.192344 -225.524727 -233.427744 0 120 255
-12.974081 -225.598572 -235.580657 0 120 255
-11.743940 -225.671396 -237.726507 0 120 255
-10.425506 -225.736633 -239.819861 0 120 255
-9.107072 -225.801870 -241.913214 0 120 255
-7.788638 -225.867107 -244.006567 0 120 255
-6.463134 -225.932080 -246.095248 0 120 255
-5.050527 -225.993802 -248.126352 0 120 255
-3.637920 -226.055524 -250.157456 0 120 255
-2.225313 -226.117245 -252.188560 0 120 255
-0.809923 -226.178993 -254.217635 0 120 255
0.691218 -226.241522 -256.184185 0 120 255
2.192358 -226.304051 -258.150735 0 120 255
3.693499 -226.366580 -260.117285 0 120 255
5.194639 -226.429109 -262.083836 0 120 255
6.777538 -226.493515 -263.985098 0 120 255
8.361453 -226.557944 -265.885550 0 120 255
9.945368 -226.622374 -267.786001 0 120 255
11.529283 -226.686803 -269.686452 0 120 255
13.186210 -226.753504 -271.523363 0 120 255
14.847464 -226.820339 -273.356508 0 120 255
16.508718 -226.887175 -275.189652 0 120 255
18.169972 -226.954010 -277.022797 0 120 255
19.896608 -227.023214 -278.794152 0 120 255
21.630478 -227.092681 -280.558669 0 120 255
23.364349 -227.162147 -282.323186 0 120 255
25.098219 -227.231613 -284.087703 0 120 255
26.890486 -227.303134 -285.792445 0 120 255
28.692520 -227.374998 -287.487191 0 120 255
30.494554 -227.446863 -289.181936 0 120 255
32.296587 -227.518727 -290.876682 0 120 255
34.150689 -227.592308 -292.513801 0 120 255
36.016759 -227.666283 -294.137673 0 120 255
37.882829 -227.740258 -295.761546 0 120 255
39.748899 -227.814233 -297.385418 0 120 255
41.661281 -227.889651 -298.953921 0 120 255
43.587536 -227.965500 -300.505835 0 120 255
45.513792 -228.041349 -302.057750 0 120 255
47.440047 -228.117199 -303.609665 0 120 255
49.407363 -228.194246 -305.108560 0 120 255
51.390184 -228.271745 -306.587434 0 120 255
53.373004 -228.349244 -308.066309 0 120 255
55.355824 -228.426744 -309.545183 0 120 255
57.374888 -228.505114 -310.973501 0 120 255
59.410822 -228.583890 -312.378285 0 120 255
61.446756 -228.662666 -313.783070 0 120 255
63.482690 -228.741442 -315.187854 0 120 255
65.550597 -228.820582 -316.544415 0 120 255
67.636580 -228.899928 -317.873712 0 120 255
69.722563 -228.979274 -319.203009 0 120 255
71.808546 -229.058620 -320.532306 0 120 255
73.922617 -229.136792 -321.815770 0 120 255
76.055795 -229.214164 -323.068056 0 120 255
78.188973 -229.291536 -324.320341 0 120 255
80.322150 -229.368909 -325.572627 0 120 255
82.480240 -229.441542 -326.780900 0 120 255
84.658590 -229.510322 -327.953383 0 120 255
86.836939 -229.579101 -329.125866 0 120 255
89.015288 -229.647881 -330.298349 0 120 255
91.215584 -229.708797 -331.428563 0 120 255
93.437128 -229.762098 -332.517855 0 120 255
95.658671 -229.815400 -333.607146 0 120 255
97.880215 -229.868702 -334.696437 0 120 255
100.120622 -229.912711 -335.745692 0 120 255
102.382756 -229.946018 -336.748834 0 120 255
104.644890 -229.979324 -337.751976 0 120 255
106.907023 -230.012631 -338.755118 0 120 255
109.185070 -230.035696 -339.720615 0 120 255
111.484963 -230.044702 -340.634435 0 120 255
113.784855 -230.053709 -341.548255 0 120 255
116.084747 -230.062715 -342.462075 0 120 255
118.397749 -230.060990 -343.340809 0 120 255
120.732302 -230.041623 -344.161870 0 120 255
123.066855 -230.022256 -344.982931 0 120 255
125.401408 -230.002889 -345.803992 0 120 255
127.746423 -229.972743 -346.592744 0 120 255
130.112196 -229.921211 -347.317392 0 120 255
132.477969 -229.869679 -348.042040 0 120 255
134.843742 -229.818147 -348.766689 0 120 255
137.217514 -229.756199 -349.462044 0 120 255
139.610678 -229.669005 -350.086398 0 120 255
142.003842 -229.581811 -350.710752 0 120 255
144.397005 -229.494617 -351.335105 0 120 255
146.795928 -229.397754 -351.933454 0 120 255
149.212208 -229.271744 -352.453421 0 120 255
151.628487 -229.145735 -352.973388 0 120 255
154.044767 -229.019726 -353.493355 0 120 255
156.464832 -228.885142 -353.990901 0 120 255
158.899462 -228.717567 -354.402177 0 120 255
161.334092 -228.549991 -354.813454 0 120 255
163.768722 -228.382416 -355.224730 0 120 255
166.205509 -228.206941 -355.616772 0 120 255
168.653327 -227.991064 -355.910433 0 120 255
171.101144 -227.775188 -356.204095 0 120 255
173.548962 -227.559311 -356.497757 0 120 255
175.996776 -227.341528 -356.789974 0 120 255
178.444557 -227.110037 -357.071812 0 120 255
180.892338 -226.878546 -357.353649 0 120 255
183.340119 -226.647054 -357.635486 0 120 255
185.787900 -226.415562 -357.917324 0 120 255
188.235678 -226.184060 -358.199174 0 120 255
190.683457 -225.952558 -358.481023 0 120 255
193.131235 -225.721055 -358.762873 0 120 255
195.579014 -225.489553 -359.044722 0 120 255
198.026794 -225.258055 -359.326564 0 120 255
200.474574 -225.026557 -359.608407 0 120 255
202.922353 -224.795059 -359.890249 0 120 255
205.370133 -224.563560 -360.172091 0 120 255
