ply
format ascii 1.0
element vertex 385
property float x
property float y
property float z
property uchar red
property uchar green
property uchar blue
end_header
77.430455 -42.474882 -360.397637 0 120 255
77.187595 -42.528702 -357.936367 0 120 255
76.944736 -42.582522 -355.475097 0 120 255
76.701876 -42.636342 -353.013827 0 120 255
76.459016 -42.690162 -350.552557 0 120 255
76.212400 -42.745798 -348.091701 0 120 255
75.965618 -42.801516 -345.630864 0 120 255
75.718835 -42.857233 -343.170026 0 120 255
75.472053 -42.912950 -340.709189 0 120 255
75.128785 -43.239300 -338.282710 0 120 255
74.776768 -43.590188 -335.859347 0 120 255
74.424751 -43.941076 -333.435984 0 120 255
74.072734 -44.291964 -331.012621 0 120 255
73.652997 -44.896772 -328.653068 0 120 255
73.223757 -45.537213 -326.302469 0 120 255
72.794517 -46.177653 -323.951870 0 120 255
72.365277 -46.818094 -321.601271 0 120 255
71.893330 -47.692351 -319.338498 0 120 255
71.413050 -48.612232 -317.092863 0 120 255
70.932770 -49.532113 -314.847228 0 120 255
70.452491 -50.451994 -312.601593 0 120 255
69.953151 -51.582332 -310.461867 0 120 255
69.448934 -52.766523 -308.349242 0 120 255
68.944717 -53.950714 -306.236617 0 120 255
68.440500 -55.134905 -304.123992 0 120 255
67.938871 -56.504061 -302.129521 0 120 255
67.438079 -57.933067 -300.173280 0 120 255
66.937287 -59.362072 -298.217039 0 120 255
66.436495 -60.791078 -296.260799 0 120 255
65.957409 -62.378515 -294.429459 0 120 255
65.486991 -64.029222 -292.647999 0 120 255
65.016573 -65.679929 -290.866539 0 120 255
64.546156 -67.330637 -289.085079 0 120 255
64.113698 -69.113161 -287.430262 0 120 255
63.699641 -70.959579 -285.836831 0 120 255
63.285583 -72.805997 -284.243399 0 120 255
62.871525 -74.652416 -282.649968 0 120 255
62.508592 -76.604816 -281.180566 0 120 255
62.175388 -78.618849 -279.783293 0 120 255
61.842185 -80.632882 -278.386019 0 120 255
61.508982 -82.646914 -276.988745 0 120 255
61.236916 -84.742571 -275.709241 0 120 255
61.007168 -86.894726 -274.511254 0 120 255
60.777421 -89.046881 -273.313268 0 120 255
60.547673 -91.199036 -272.115281 0 120 255
60.385961 -93.410477 -271.025895 0 120 255
60.280014 -95.670513 -270.025524 0 120 255
60.174068 -97.930549 -269.025154 0 120 255
60.068121 -100.190584 -268.024783 0 120 255
60.034129 -102.490013 -267.121724 0 120 255
60.069800 -104.827581 -266.312877 0 120 255
60.105470 -107.165148 -265.504030 0 120 255
60.141140 -109.502715 -264.695183 0 120 255
60.249923 -111.862488 -263.970955 0 120 255
60.442277 -114.247643 -263.343450 0 120 255
60.634631 -116.632798 -262.715946 0 120 255
60.826985 -119.017954 -262.088441 0 120 255
61.091127 -121.410980 -261.532136 0 120 255
61.452326 -123.814648 -261.072090 0 120 255
61.813524 -126.218316 -260.612045 0 120 255
62.174722 -128.621985 -260.151999 0 120 255
62.604227 -131.022094 -259.749671 0 120 255
63.143411 -133.416488 -259.440020 0 120 255
63.682596 -135.810882 -259.130369 0 120 255
64.221780 -138.205276 -258.820718 0 120 255
64.823986 -140.587528 -258.555753 0 120 255
65.547213 -142.946463 -258.376601 0 120 255
66.270440 -145.305398 -258.197449 0 120 255
66.993667 -147.664333 -258.018297 0 120 255
67.773198 -150.005275 -257.871768 0 120 255
68.683377 -152.304468 -257.800938 0 120 255
69.593555 -154.603660 -257.730108 0 120 255
70.503733 -156.902852 -257.659278 0 120 255
71.462466 -159.180746 -257.610365 0 120 255
72.559372 -161.398029 -257.623819 0 120 255
73.656278 -163.615312 -257.637274 0 120 255
74.753184 -165.832594 -257.650728 0 120 255
75.890245 -168.027591 -257.677072 0 120 255
77.170504 -170.143114 -257.749382 0 120 255
78.450762 -172.258637 -257.821691 0 120 255
79.731021 -174.374160 -257.894001 0 120 255
81.042785 -176.468459 -257.972098 0 120 255
82.499928 -178.464825 -258.076900 0 120 255
83.957072 -180.461190 -258.181703 0 120 255
85.414215 -182.457556 -258.286505 0 120 255
86.894350 -184.435518 -258.392085 0 120 255
88.518839 -186.297925 -258.502542 0 120 255
90.143329 -188.160332 -258.613000 0 120 255
91.767818 -190.022739 -258.723458 0 120 255
93.407299 -191.871002 -258.831862 0 120 255
95.186629 -193.587320 -258.921108 0 120 255
96.965959 -195.303638 -259.010354 0 120 255
98.745288 -197.019956 -259.099601 0 120 255
100.532485 -198.727504 -259.186159 0 120 255
102.451262 -200.288367 -259.227757 0 120 255
104.370038 -201.849230 -259.269355 0 120 255
106.288815 -203.410093 -259.310953 0 120 255
108.209556 -204.968332 -259.351366 0 120 255
110.249641 -206.367182 -259.319773 0 120 255
112.289727 -207.766032 -259.288180 0 120 255
114.329812 -209.164881 -259.256587 0 120 255
116.369897 -210.563731 -259.224995 0 120 255
118.508174 -211.800809 -259.098325 0 120 255
120.648849 -213.033933 -258.969333 0 120 255
122.789525 -214.267058 -258.840341 0 120 255
124.930200 -215.500182 -258.711348 0 120 255
127.143444 -216.577331 -258.470183 0 120 255
129.361626 -217.643866 -258.221385 0 120 255
131.579807 -218.710401 -257.972586 0 120 255
133.797989 -219.776936 -257.723788 0 120 255
136.063059 -220.695902 -257.349485 0 120 255
138.333537 -221.597851 -256.960711 0 120 255
140.604015 -222.499800 -256.571936 0 120 255
142.874493 -223.401749 -256.183162 0 120 255
145.166651 -224.166714 -255.659404 0 120 255
147.462423 -224.908844 -255.113145 0 120 255
149.758196 -225.650975 -254.566886 0 120 255
152.053968 -226.393105 -254.020627 0 120 255
154.347155 -227.010701 -253.333798 0 120 255
156.639767 -227.600548 -252.615648 0 120 255
158.932378 -228.190396 -251.897498 0 120 255
161.224990 -228.780243 -251.179347 0 120 255
163.492189 -229.259397 -250.318817 0 120 255
165.752164 -229.707078 -249.417803 0 120 255
168.012138 -230.154759 -248.516790 0 120 255
170.272112 -230.602440 -247.615777 0 120 255
172.485744 -230.954294 -246.574232 0 120 255
174.683060 -231.272411 -245.483209 0 120 255
176.880376 -231.590527 -244.392186 0 120 255
179.077692 -231.908644 -243.301163 0 120 255
181.210049 -232.146374 -242.074833 0 120 255
183.314663 -232.349772 -240.790715 0 120 255
185.419276 -232.553169 -239.506597 0 120 255
187.523890 -232.756567 -238.222479 0 120 255
189.547914 -232.901676 -236.812225 0 120 255
191.530788 -233.017021 -235.337560 0 120 255
193.513661 -233.132366 -233.862895 0 120 255
195.496534 -233.247710 -232.388231 0 120 255
197.387506 -233.323994 -230.799456 0 120 255
199.222812 -233.376619 -229.141562 0 120 255
201.058118 -233.429243 -227.483669 0 120 255
202.893423 -233.481868 -225.825775 0 120 255
204.625745 -233.498627 -224.064417 0 120 255
206.284574 -233.489792 -222.229224 0 120 255
207.943403 -233.480956 -220.394030 0 120 255
209.602232 -233.472121 -218.558837 0 120 255
211.148213 -233.426681 -216.632969 0 120 255
212.599850 -233.350638 -214.631296 0 120 255
214.051487 -233.274595 -212.629624 0 120 255
215.503124 -233.198552 -210.627951 0 120 255
216.835357 -233.087672 -208.551413 0 120 255
218.051001 -232.942777 -206.401775 0 120 255
219.266645 -232.797882 -204.252138 0 120 255
220.482289 -232.652986 -202.102500 0 120 255
221.575019 -232.478317 -199.894981 0 120 255
222.527840 -232.269759 -197.621578 0 120 255
223.480660 -232.061200 -195.348174 0 120 255
224.433480 -231.852641 -193.074771 0 120 255
225.263262 -231.619538 -190.760945 0 120 255
225.929717 -231.353855 -188.393462 0 120 255
226.596171 -231.088172 -186.025978 0 120 255
227.262626 -230.822489 -183.658495 0 120 255
227.809444 -230.537464 -181.267712 0 120 255
228.170595 -230.222422 -178.840771 0 120 255
228.531746 -229.907380 -176.413829 0 120 255
228.892897 -229.592338 -173.986887 0 120 255
229.141224 -229.262953 -171.552574 0 120 255
229.183834 -228.907415 -169.104819 0 120 255
229.226445 -228.551878 -166.657064 0 120 255
229.269055 -228.196341 -164.209309 0 120 255
229.208749 -227.831065 -161.768101 0 120 255
228.926227 -227.444760 -159.341029 0 120 255
228.643705 -227.058456 -156.913957 0 120 255
228.361184 -226.672152 -154.486886 0 120 255
227.988216 -226.280143 -152.077551 0 120 255
227.381285 -225.873378 -149.714099 0 120 255
226.774354 -225.466614 -147.350648 0 120 255
226.167423 -225.059849 -144.987196 0 120 255
225.484342 -224.650699 -142.649385 0 120 255
224.561272 -224.234034 -140.392383 0 120 255
223.638203 -223.817369 -138.135380 0 120 255
222.715134 -223.400703 -135.878378 0 120 255
221.731176 -222.984152 -133.651288 0 120 255
220.507657 -222.568049 -131.541883 0 120 255
219.284138 -222.151946 -129.432479 0 120 255
218.060619 -221.735843 -127.323074 0 120 255
216.791507 -221.321471 -125.244121 0 120 255
215.290123 -220.915922 -123.320296 0 120 255
213.788738 -220.510373 -121.396471 0 120 255
212.287354 -220.104824 -119.472646 0 120 255
210.754792 -219.701750 -117.576224 0 120 255
209.004129 -219.315986 -115.871498 0 120 255
207.253465 -218.930223 -114.166773 0 120 255
205.502801 -218.544459 -112.462047 0 120 255
203.733669 -218.161087 -110.778468 0 120 255
201.767156 -217.803275 -109.320892 0 120 255
199.800644 -217.445463 -107.863317 0 120 255
197.834131 -217.087651 -106.405741 0 120 255
195.859478 -216.731425 -104.960408 0 120 255
193.714062 -216.408481 -103.771869 0 120 255
191.568647 -216.085537 -102.583330 0 120 255
189.423231 -215.762593 -101.394791 0 120 255
187.277130 -215.439847 -100.207645 0 120 255
184.991851 -215.157263 -99.303557 0 120 255
182.706573 -214.874678 -98.399469 0 120 255
180.421294 -214.592094 -97.495381 0 120 255
178.136016 -214.309509 -96.591293 0 120 255
175.754259 -214.069729 -95.969971 0 120 255
173.368872 -213.831560 -95.359290 0 120 255
170.983485 -213.593390 -94.748610 0 120 255
168.598098 -213.355221 -94.137929 0 120 255
166.156565 -213.160405 -93.800354 0 120 255
163.710283 -212.969256 -93.485882 0 120 255
161.264001 -212.778108 -93.171409 0 120 255
158.817719 -212.586960 -92.856936 0 120 255
156.350934 -212.438256 -92.800594 0 120 255
153.881346 -212.295353 -92.779533 0 120 255
151.411759 -212.152451 -92.758472 0 120 255
148.942172 -212.009548 -92.737410 0 120 255
146.482461 -211.907027 -92.955508 0 120 255
144.024675 -211.812369 -93.220182 0 120 255
141.566888 -211.717712 -93.484856 0 120 255
139.109102 -211.623055 -93.749530 0 120 255
136.686083 -211.565814 -94.231674 0 120 255
134.272097 -211.518294 -94.770324 0 120 255
131.858112 -211.470774 -95.308974 0 120 255
129.444127 -211.423254 -95.847625 0 120 255
127.084375 -211.409574 -96.580546 0 120 255
124.742690 -211.407169 -97.378190 0 120 255
122.401006 -211.404763 -98.175834 0 120 255
120.059322 -211.402357 -98.973478 0 120 255
117.786201 -211.429842 -99.941698 0 120 255
115.541623 -211.469770 -100.980931 0 120 255
113.297045 -211.509699 -102.020163 0 120 255
111.052467 -211.549627 -103.059395 0 120 255
108.886103 -211.615365 -104.245868 0 120 255
106.759727 -211.694298 -105.507621 0 120 255
104.633350 -211.773231 -106.769373 0 120 255
102.506973 -211.852164 -108.031125 0 120 255
100.464335 -211.952851 -109.417806 0 120 255
98.473667 -212.067040 -110.882023 0 120 255
96.483000 -212.181230 -112.346241 0 120 255
94.492333 -212.295419 -113.810458 0 120 255
92.587399 -212.427483 -115.378791 0 120 255
90.746582 -212.572916 -117.024990 0 120 255
88.905765 -212.718349 -118.671188 0 120 255
87.064949 -212.863782 -120.317387 0 120 255
85.308933 -213.023493 -122.048712 0 120 255
83.629031 -213.196018 -123.856443 0 120 255
81.949129 -213.368543 -125.664174 0 120 255
80.269227 -213.541069 -127.471905 0 120 255
78.670838 -213.724632 -129.347780 0 120 255
77.160162 -213.920073 -131.296982 0 120 255
75.649485 -214.115514 -133.246183 0 120 255
74.138808 -214.310955 -135.195384 0 120 255
72.704529 -214.514591 -137.197835 0 120 255
71.368991 -214.728820 -139.269107 0 120 255
70.033453 -214.943049 -141.340380 0 120 255
68.697915 -215.157278 -143.411653 0 120 255
67.432289 -215.377272 -145.523357 0 120 255
66.275727 -215.606262 -147.698134 0 120 255
65.119165 -215.835252 -149.872911 0 120 255
63.962604 -216.064242 -152.047688 0 120 255
62.868499 -216.296994 -154.252090 0 120 255
61.893012 -216.536892 -156.512754 0 120 255
60.917524 -216.776790 -158.773417 0 120 255
59.942037 -217.016688 -161.034081 0 120 255
59.020918 -217.258755 -163.315469 0 120 255
58.227167 -217.505903 -165.645405 0 120 255
57.433416 -217.753051 -167.975341 0 120 255
56.639664 -218.000199 -170.305278 0 120 255
55.891817 -218.248321 -172.648807 0 120 255
55.279270 -218.499313 -175.032400 0 120 255
54.666723 -218.750306 -177.415993 0 120 255
54.054176 -219.001298 -179.799586 0 120 255
53.478919 -219.252425 -182.191276 0 120 255
53.046121 -219.504069 -184.613896 0 120 255
52.613323 -219.755714 -187.036516 0 120 255
52.180525 -220.007358 -189.459136 0 120 255
51.776410 -220.258636 -191.885846 0 120 255
51.521155 -220.508012 -194.333780 0 120 255
51.265901 -220.757389 -196.781715 0 120 255
51.010647 -221.006765 -199.229649 0 120 255
50.775603 -221.255570 -201.679024 0 120 255
50.695127 -221.500003 -204.139411 0 120 255
50.614650 -221.744435 -206.599797 0 120 255
50.534173 -221.988868 -209.060184 0 120 255
50.465659 -222.232788 -211.520595 0 120 255
50.556759 -222.469859 -213.981332 0 120 255
50.647859 -222.706931 -216.442069 0 120 255
50.738959 -222.944003 -218.902805 0 120 255
50.834059 -223.180848 -221.363278 0 120 255
51.093227 -223.408392 -223.812928 0 120 255
51.352395 -223.635936 -226.262577 0 120 255
51.611563 -223.863480 -228.712227 0 120 255
51.870731 -224.091024 -231.161876 0 120 255
52.290575 -224.307368 -233.590056 0 120 255
52.714052 -224.523460 -236.017750 0 120 255
53.137529 -224.739551 -238.445444 0 120 255
53.561005 -224.955643 -240.873138 0 120 255
54.133965 -225.159495 -243.270675 0 120 255
54.717831 -225.362454 -245.666011 0 120 255
55.301697 -225.565413 -248.061347 0 120 255
55.885563 -225.768371 -250.456683 0 120 255
56.607951 -225.958411 -252.814457 0 120 255
57.348135 -226.146790 -255.167406 0 120 255
58.088318 -226.335169 -257.520355 0 120 255
58.828501 -226.523549 -259.873304 0 120 255
59.696531 -226.698645 -262.182436 0 120 255
60.588851 -226.871218 -264.483243 0 120 255
61.481170 -227.043790 -266.784049 0 120 255
62.373489 -227.216363 -269.084856 0 120 255
63.383262 -227.375583 -271.336633 0 120 255
64.423398 -227.531352 -273.575736 0 120 255
65.463533 -227.687121 -275.814839 0 120 255
66.503669 -227.842889 -278.053942 0 120 255
67.651175 -227.985479 -280.239748 0 120 255
68.834681 -228.123649 -282.407685 0 120 255
70.018186 -228.261819 -284.575622 0 120 255
71.201692 -228.399990 -286.743559 0 120 255
72.482764 -228.525369 -288.854819 0 120 255
73.804995 -228.645352 -290.942171 0 120 255
75.127225 -228.765336 -293.029523 0 120 255
76.449455 -228.885319 -295.116875 0 120 255
77.859741 -228.993095 -297.144994 0 120 255
79.315840 -229.094520 -299.142297 0 120 255
80.771938 -229.195945 -301.139599 0 120 255
82.228037 -229.297370 -303.136901 0 120 255
83.762860 -229.387882 -305.073265 0 120 255
85.347522 -229.471485 -306.971049 0 120 255
86.932184 -229.555088 -308.868833 0 120 255
88.516846 -229.638691 -310.766616 0 120 255
90.171107 -229.713169 -312.602623 0 120 255
91.878529 -229.780679 -314.391445 0 120 255
93.585950 -229.848188 -316.180266 0 120 255
95.293372 -229.915697 -317.969087 0 120 255
97.061660 -229.974496 -319.696064 0 120 255
98.885784 -230.025303 -321.366309 0 120 255
100.709907 -230.076111 -323.036554 0 120 255
102.534031 -230.126919 -324.706800 0 120 255
104.411081 -230.167343 -326.315337 0 120 255
106.346301 -230.196356 -327.856054 0 120 255
108.281520 -230.225369 -329.396772 0 120 255
110.216740 -230.254381 -330.937490 0 120 255
112.197154 -230.271507 -332.417227 0 120 255
114.237064 -230.272986 -333.816689 0 120 255
116.276974 -230.274465 -335.216150 0 120 255
118.316883 -230.275943 -336.615612 0 120 255
120.394199 -230.265579 -337.955912 0 120 255
122.530711 -230.236473 -339.202585 0 120 255
124.667223 -230.207366 -340.449259 0 120 255
126.803736 -230.178260 -341.695933 0 120 255
128.970149 -230.137711 -342.886173 0 120 255
131.193844 -230.075241 -343.968304 0 120 255
133.417538 -230.012772 -345.050435 0 120 255
135.641233 -229.950303 -346.132565 0 120 255
137.887721 -229.877137 -347.161962 0 120 255
140.187650 -229.778895 -348.067724 0 120 255
142.487578 -229.680653 -348.973487 0 120 255
144.787506 -229.582411 -349.879249 0 120 255
147.103671 -229.474524 -350.736977 0 120 255
149.467196 -229.338505 -351.454594 0 120 255
151.830721 -229.202486 -352.172211 0 120 255
154.194247 -229.066467 -352.889828 0 120 255
156.568171 -228.922118 -353.565152 0 120 255
158.980766 -228.746791 -354.083198 0 120 255
161.393361 -228.571464 -354.601244 0 120 255
163.805957 -228.396137 -355.119290 0 120 255
166.224205 -228.213625 -355.600230 0 120 255
168.670278 -227.995751 -355.898532 0 120 255
171.116351 -227.777877 -356.196835 0 120 255
173.562424 -227.560003 -356.495138 0 120 255
176.008589 -227.340411 -356.791335 0 120 255
178.455386 -227.109013 -357.073058 0 120 255
180.902182 -226.877615 -357.354782 0 120 255
183.348979 -226.646216 -357.636506 0 120 255
185.795775 -226.414817 -357.918231 0 120 255
188.242569 -226.183408 -358.199967 0 120 255
190.689363 -225.951999 -358.481703 0 120 255
193.136158 -225.720590 -358.763440 0 120 255
195.582952 -225.489181 -359.045176 0 120 255
198.029747 -225.257776 -359.326904 0 120 255
200.476543 -225.026371 -359.608633 0 120 255
202.923338 -224.794965 -359.890362 0 120 255
205.370133 -224.563560 -360.172091 0 120 255
