ply
format ascii 1.0
element vertex 385
property float x
property float y
property float z
property uchar red
property uchar green
property uchar blue
end_header
77.430455 -42.474882 -360.397637 0 120 255
77.187330 -42.528761 -357.933679 0 120 255
76.944205 -42.582639 -355.469721 0 120 255
76.701080 -42.636518 -353.005763 0 120 255
76.457955 -42.690397 -350.541805 0 120 255
76.259224 -42.758857 -348.074249 0 120 255
76.062245 -42.827892 -345.606551 0 120 255
75.865266 -42.896928 -343.138852 0 120 255
75.668286 -42.965963 -340.671154 0 120 255
75.471902 -42.956094 -338.202574 0 120 255
75.275571 -42.939247 -335.733916 0 120 255
75.079240 -42.922400 -333.265259 0 120 255
74.882908 -42.905552 -330.796601 0 120 255
74.643031 -42.801135 -328.334237 0 120 255
74.396711 -42.683762 -325.872804 0 120 255
74.150391 -42.566389 -323.411371 0 120 255
73.904072 -42.449016 -320.949939 0 120 255
73.612052 -42.249296 -318.499220 0 120 255
73.310282 -42.032009 -316.050787 0 120 255
73.008512 -41.814722 -313.602355 0 120 255
72.706742 -41.597435 -311.153922 0 120 255
72.357241 -41.303691 -308.720348 0 120 255
71.994115 -40.988123 -306.291015 0 120 255
71.630989 -40.672554 -303.861683 0 120 255
71.267862 -40.356986 -301.432350 0 120 255
70.855196 -39.971396 -299.021684 0 120 255
70.424433 -39.560227 -296.617836 0 120 255
69.993670 -39.149058 -294.213988 0 120 255
69.562907 -38.737889 -291.810140 0 120 255
69.081115 -38.263575 -289.428378 0 120 255
68.576158 -37.760596 -287.056642 0 120 255
68.071202 -37.257617 -284.684906 0 120 255
67.566245 -36.754638 -282.313170 0 120 255
67.009175 -36.195706 -279.966515 0 120 255
66.423295 -35.605842 -277.633725 0 120 255
65.837415 -35.015978 -275.300936 0 120 255
65.251535 -34.426114 -272.968146 0 120 255
64.612939 -33.787682 -270.662982 0 120 255
63.939363 -33.117025 -268.376146 0 120 255
63.265787 -32.446368 -266.089311 0 120 255
62.592211 -31.775711 -263.802476 0 120 255
61.865864 -31.063941 -261.545335 0 120 255
61.097927 -30.319768 -259.311598 0 120 255
60.329989 -29.575596 -257.077861 0 120 255
59.562052 -28.831423 -254.844125 0 120 255
58.741879 -28.053534 -252.641670 0 120 255
57.873176 -27.244319 -250.468279 0 120 255
57.004474 -26.435103 -248.294889 0 120 255
56.135771 -25.625888 -246.121498 0 120 255
55.215992 -24.790171 -243.980485 0 120 255
54.240567 -23.925581 -241.874747 0 120 255
53.265143 -23.060991 -239.769009 0 120 255
52.289718 -22.196402 -237.663271 0 120 255
51.264998 -21.312218 -235.590519 0 120 255
50.177516 -20.403089 -233.559764 0 120 255
49.090033 -19.493959 -231.529009 0 120 255
48.002551 -18.584830 -229.498253 0 120 255
46.868164 -17.662589 -227.500607 0 120 255
45.664109 -16.720873 -225.552140 0 120 255
44.460055 -15.779157 -223.603673 0 120 255
43.256000 -14.837441 -221.655206 0 120 255
42.008006 -13.888562 -219.739495 0 120 255
40.683889 -12.927274 -217.880533 0 120 255
39.359772 -11.965985 -216.021571 0 120 255
38.035655 -11.004697 -214.162608 0 120 255
36.671071 -10.041554 -212.335593 0 120 255
35.224611 -9.074662 -210.573217 0 120 255
33.778150 -8.107769 -208.810841 0 120 255
32.331689 -7.140876 -207.048464 0 120 255
30.848668 -6.176714 -205.316782 0 120 255
29.279003 -5.219024 -203.657842 0 120 255
27.709338 -4.261335 -201.998901 0 120 255
26.139673 -3.303645 -200.339961 0 120 255
24.537683 -2.352470 -198.710049 0 120 255
22.845532 -1.419467 -197.161104 0 120 255
21.153380 -0.486464 -195.612159 0 120 255
19.461229 0.446539 -194.063214 0 120 255
17.741205 1.370100 -192.541247 0 120 255
15.929030 2.262444 -191.108471 0 120 255
14.116856 3.154788 -189.675695 0 120 255
12.304681 4.047132 -188.242919 0 120 255
10.469177 4.928000 -186.834718 0 120 255
8.541326 5.763441 -185.523791 0 120 255
6.613474 6.598882 -184.212864 0 120 255
4.685623 7.434323 -182.901937 0 120 255
2.738937 8.257162 -181.612874 0 120 255
0.701724 9.019434 -180.428896 0 120 255
-1.335490 9.781706 -179.244918 0 120 255
-3.372703 10.543979 -178.060941 0 120 255
-5.424441 11.293428 -176.895849 0 120 255
-7.562672 11.966517 -175.843223 0 120 255
-9.700904 12.639606 -174.790598 0 120 255
-11.839135 13.312695 -173.737973 0 120 255
-13.987906 13.973614 -172.701041 0 120 255
-16.216780 14.542049 -171.783380 0 120 255
-18.445654 15.110484 -170.865718 0 120 255
-20.674529 15.678919 -169.948057 0 120 255
-22.910419 16.236665 -169.042736 0 120 255
-25.217585 16.685827 -168.262774 0 120 255
-27.524751 17.134990 -167.482813 0 120 255
-29.831917 17.584152 -166.702851 0 120 255
-32.143163 18.024859 -165.931771 0 120 255
-34.514389 18.341278 -165.291250 0 120 255
-36.885615 18.657697 -164.650729 0 120 255
-39.256841 18.974116 -164.010208 0 120 255
-41.629914 19.284979 -163.375065 0 120 255
-44.049265 19.456640 -162.874687 0 120 255
-46.468615 19.628300 -162.374310 0 120 255
-48.887965 19.799960 -161.873932 0 120 255
-51.307731 19.969523 -161.375444 0 120 255
-53.757787 19.986130 -161.014817 0 120 255
-56.207842 20.002738 -160.654189 0 120 255
-58.657898 20.019345 -160.293562 0 120 255
-61.107954 20.035952 -159.932934 0 120 255
-63.569956 19.890986 -159.709033 0 120 255
-66.032091 19.744220 -159.486654 0 120 255
-68.494226 19.597455 -159.264275 0 120 255
-70.956361 19.450690 -159.041896 0 120 255
-73.411320 19.140402 -158.950316 0 120 255
-75.866016 18.824115 -158.863534 0 120 255
-78.320712 18.507828 -158.776752 0 120 255
-80.775408 18.191541 -158.689971 0 120 255
-83.204257 17.712266 -158.727167 0 120 255
-85.631462 17.222630 -158.772243 0 120 255
-88.058668 16.732995 -158.817319 0 120 255
-90.485873 16.243360 -158.862396 0 120 255
-92.869399 15.593695 -159.023835 0 120 255
-95.248902 14.929294 -159.195989 0 120 255
-97.628406 14.264894 -159.368142 0 120 255
-100.007909 13.600493 -159.540296 0 120 255
-102.327112 12.781325 -159.820554 0 120 255
-104.638924 11.943184 -160.114063 0 120 255
-106.950736 11.105043 -160.407572 0 120 255
-109.262548 10.266902 -160.701081 0 120 255
-111.498995 9.281359 -161.093910 0 120 255
-113.723724 8.272896 -161.502182 0 120 255
-115.948453 7.264434 -161.910453 0 120 255
-118.173181 6.255971 -162.318725 0 120 255
-120.309333 5.109338 -162.817205 0 120 255
-122.428542 3.936277 -163.332940 0 120 255
-124.547751 2.763216 -163.848674 0 120 255
-126.666960 1.590155 -164.364409 0 120 255
-128.686464 0.289717 -164.961085 0 120 255
-130.682986 -1.040083 -165.576418 0 120 255
-132.679507 -2.369883 -166.191751 0 120 255
-134.676029 -3.699683 -166.807084 0 120 255
-136.563983 -5.144843 -167.494082 0 120 255
-138.422204 -6.621596 -168.200706 0 120 255
-140.280425 -8.098348 -168.907330 0 120 255
-142.138645 -9.575101 -169.613954 0 120 255
-143.881786 -11.154332 -170.383164 0 120 255
-145.587858 -12.766570 -171.172534 0 120 255
-147.293931 -14.378809 -171.961903 0 120 255
-149.000004 -15.991048 -172.751272 0 120 255
-150.586865 -17.692387 -173.594479 0 120 255
-152.128883 -19.427241 -174.457937 0 120 255
-153.670902 -21.162096 -175.321395 0 120 255
-155.212920 -22.896950 -176.184853 0 120 255
-156.633927 -24.707397 -177.093872 0 120 255
-158.002031 -26.550891 -178.022808 0 120 255
-159.370136 -28.394384 -178.951745 0 120 255
-160.738240 -30.237878 -179.880682 0 120 255
-161.985737 -32.143675 -180.847496 0 120 255
-163.172144 -34.081030 -181.833495 0 120 255
-164.358552 -36.018385 -182.819494 0 120 255
-165.544959 -37.955740 -183.805494 0 120 255
-166.613212 -39.942640 -184.822345 0 120 255
-167.612238 -41.958570 -185.857273 0 120 255
-168.611265 -43.974500 -186.892201 0 120 255
-169.610291 -45.990429 -187.927128 0 120 255
-170.495434 -48.043948 -188.986623 0 120 255
-171.303419 -50.122935 -190.062763 0 120 255
-172.111403 -52.201921 -191.138903 0 120 255
-172.919387 -54.280908 -192.215043 0 120 255
-173.619329 -56.386560 -193.310222 0 120 255
-174.234540 -58.513124 -194.420332 0 120 255
-174.849751 -60.639687 -195.530441 0 120 255
-175.464962 -62.766251 -196.640551 0 120 255
-175.979264 -64.909763 -197.764935 0 120 255
-176.401763 -67.068695 -198.902305 0 120 255
-176.824261 -69.227626 -200.039675 0 120 255
-177.246760 -71.386557 -201.177046 0 120 255
-177.576496 -73.554043 -202.324687 0 120 255
-177.807990 -75.730587 -203.483206 0 120 255
-178.039485 -77.907131 -204.641725 0 120 255
-178.270979 -80.083676 -205.800244 0 120 255
-178.418596 -82.261785 -206.965735 0 120 255
-178.462266 -84.441834 -208.139865 0 120 255
-178.505936 -86.621883 -209.313995 0 120 255
-178.549605 -88.801931 -210.488125 0 120 255
-178.518752 -90.977983 -211.666593 0 120 255
-178.379067 -93.148198 -212.851396 0 120 255
-178.239381 -95.318413 -214.036198 0 120 255
-178.099696 -97.488627 -215.221001 0 120 255
-177.895058 -99.650696 -216.408111 0 120 255
-177.577577 -101.798613 -217.599228 0 120 255
-177.260096 -103.946529 -218.790346 0 120 255
-176.942615 -106.094446 -219.981464 0 120 255
-176.569754 -108.231432 -221.173392 0 120 255
-176.080960 -110.345539 -222.367014 0 120 255
-175.592166 -112.459645 -223.560637 0 120 255
-175.103372 -114.573752 -224.754260 0 120 255
-174.568574 -116.675433 -225.947658 0 120 255
-173.915688 -118.745220 -227.140480 0 120 255
-173.262803 -120.815007 -228.333302 0 120 255
-172.609918 -122.884794 -229.526125 0 120 255
-171.920051 -124.941849 -230.718085 0 120 255
-171.110887 -126.957835 -231.907268 0 120 255
-170.301722 -128.973821 -233.096450 0 120 255
-169.492557 -130.989807 -234.285632 0 120 255
-168.654937 -132.993829 -235.473647 0 120 255
-167.697710 -134.947561 -236.656756 0 120 255
-166.740483 -136.901294 -237.839864 0 120 255
-165.783256 -138.855027 -239.022972 0 120 255
-164.805506 -140.798513 -240.204882 0 120 255
-163.708735 -142.682569 -241.379840 0 120 255
-162.611964 -144.566626 -242.554797 0 120 255
-161.515192 -146.450682 -243.729755 0 120 255
-160.405159 -148.327026 -244.903706 0 120 255
-159.177510 -150.134978 -246.068734 0 120 255
-157.949861 -151.942930 -247.233761 0 120 255
-156.722211 -153.750882 -248.398788 0 120 255
-155.487840 -155.554346 -249.563184 0 120 255
-154.138051 -157.280755 -250.716737 0 120 255
-152.788262 -159.007163 -251.870290 0 120 255
-151.438474 -160.733572 -253.023844 0 120 255
-150.087750 -162.459271 -254.177291 0 120 255
-148.624497 -164.099617 -255.318019 0 120 255
-147.161245 -165.739962 -256.458747 0 120 255
-145.697993 -167.380308 -257.599475 0 120 255
-144.234740 -169.020653 -258.740203 0 120 255
-142.670680 -170.574824 -259.867433 0 120 255
-141.102526 -172.125496 -260.994115 0 120 255
-139.534373 -173.676168 -262.120798 0 120 255
-137.966220 -175.226840 -263.247480 0 120 255
-136.309896 -176.693097 -264.360292 0 120 255
-134.645202 -178.151341 -265.471787 0 120 255
-132.980508 -179.609584 -266.583281 0 120 255
-131.315814 -181.067827 -267.694776 0 120 255
-129.574609 -182.444409 -268.792205 0 120 255
-127.821486 -183.808270 -269.887442 0 120 255
-126.068364 -185.172131 -270.982679 0 120 255
-124.315241 -186.535993 -272.077917 0 120 255
-122.496270 -187.821797 -273.159012 0 120 255
-120.662531 -189.090097 -274.236937 0 120 255
-118.828793 -190.358396 -275.314861 0 120 255
-116.995055 -191.626696 -276.392785 0 120 255
-115.105122 -192.821248 -277.456574 0 120 255
-113.198223 -193.993534 -278.516094 0 120 255
-111.291324 -195.165819 -279.575614 0 120 255
-109.384424 -196.338105 -280.635134 0 120 255
-107.430020 -197.441523 -281.680630 0 120 255
-105.457056 -198.518034 -282.720648 0 120 255
-103.484091 -199.594545 -283.760665 0 120 255
-101.511127 -200.671056 -284.800683 0 120 255
-99.498395 -201.684016 -285.826869 0 120 255
-97.466056 -202.665642 -286.846236 0 120 255
-95.433716 -203.647268 -287.865603 0 120 255
-93.401377 -204.628894 -288.884970 0 120 255
-91.336100 -205.552612 -289.890777 0 120 255
-89.250655 -206.440870 -290.888281 0 120 255
-87.165209 -207.329128 -291.885785 0 120 255
-85.079763 -208.217387 -292.883289 0 120 255
-82.967352 -209.053583 -293.867604 0 120 255
-80.834633 -209.850572 -294.841987 0 120 255
-78.701915 -210.647560 -295.816370 0 120 255
-76.569196 -211.444549 -296.790753 0 120 255
-74.414685 -212.195421 -297.752433 0 120 255
-72.240090 -212.903791 -298.702405 0 120 255
-70.065494 -213.612161 -299.652377 0 120 255
-67.890898 -214.320531 -300.602349 0 120 255
-65.698937 -214.988732 -301.540213 0 120 255
-63.487402 -215.611661 -302.464429 0 120 255
-61.275868 -216.234591 -303.388646 0 120 255
-59.064334 -216.857520 -304.312862 0 120 255
-56.839188 -217.446135 -305.225713 0 120 255
-54.595219 -217.987298 -306.122847 0 120 255
-52.351251 -218.528462 -307.019981 0 120 255
-50.107283 -219.069626 -307.917115 0 120 255
-47.852844 -219.582148 -308.803765 0 120 255
-45.580498 -220.045691 -309.672485 0 120 255
-43.308152 -220.509235 -310.541205 0 120 255
-41.035807 -220.972778 -311.409925 0 120 255
-38.755587 -221.413088 -312.269196 0 120 255
-36.458490 -221.803596 -313.108212 0 120 255
-34.161393 -222.194105 -313.947228 0 120 255
-31.864296 -222.584613 -314.786245 0 120 255
-29.561444 -222.956947 -315.617002 0 120 255
-27.242796 -223.279391 -316.425088 0 120 255
-24.924148 -223.601835 -317.233174 0 120 255
-22.605500 -223.924279 -318.041259 0 120 255
-20.282809 -224.233197 -318.842432 0 120 255
-17.945419 -224.492946 -319.618473 0 120 255
-15.608029 -224.752694 -320.394515 0 120 255
-13.270639 -225.012443 -321.170556 0 120 255
-10.930570 -225.262828 -321.941175 0 120 255
-8.576871 -225.465577 -322.684205 0 120 255
-6.223171 -225.668326 -323.427235 0 120 255
-3.869472 -225.871075 -324.170265 0 120 255
-1.514170 -226.068079 -324.909486 0 120 255
0.853763 -226.219816 -325.618690 0 120 255
3.221696 -226.371553 -326.327893 0 120 255
5.589630 -226.523290 -327.037097 0 120 255
7.958309 -226.672867 -327.744156 0 120 255
10.338529 -226.789072 -328.418063 0 120 255
12.718750 -226.905276 -329.091969 0 120 255
15.098970 -227.021480 -329.765875 0 120 255
17.479281 -227.137477 -330.439481 0 120 255
19.870738 -227.228272 -331.076502 0 120 255
22.262194 -227.319066 -331.713523 0 120 255
24.653650 -227.409861 -332.350544 0 120 255
27.045106 -227.500655 -332.987564 0 120 255
29.446696 -227.577103 -333.587179 0 120 255
31.848767 -227.652872 -334.185024 0 120 255
34.250837 -227.728641 -334.782868 0 120 255
36.652908 -227.804410 -335.380712 0 120 255
39.062520 -227.879677 -335.947359 0 120 255
41.472967 -227.954889 -336.510557 0 120 255
43.883413 -228.030101 -337.073755 0 120 255
46.293860 -228.105313 -337.636953 0 120 255
48.709681 -228.181539 -338.176388 0 120 255
51.126492 -228.257952 -338.711447 0 120 255
53.543302 -228.334366 -339.246507 0 120 255
55.960113 -228.410779 -339.781566 0 120 255
58.382159 -228.487041 -340.292264 0 120 255
60.805618 -228.563262 -340.796383 0 120 255
63.229078 -228.639484 -341.300501 0 120 255
65.652537 -228.715705 -341.804620 0 120 255
68.081155 -228.785770 -342.283951 0 120 255
70.511679 -228.853559 -342.754116 0 120 255
72.942204 -228.921347 -343.224281 0 120 255
75.372729 -228.989136 -343.694446 0 120 255
77.807638 -229.044367 -344.142721 0 120 255
80.244677 -229.093496 -344.580358 0 120 255
82.681717 -229.142624 -345.017995 0 120 255
85.118756 -229.191753 -345.455632 0 120 255
87.559282 -229.227669 -345.874328 0 120 255
90.001982 -229.255340 -346.281207 0 120 255
92.444683 -229.283012 -346.688086 0 120 255
94.887383 -229.310684 -347.094965 0 120 255
97.332832 -229.326859 -347.485209 0 120 255
99.780452 -229.333951 -347.862313 0 120 255
102.228072 -229.341043 -348.239417 0 120 255
104.675692 -229.348135 -348.616521 0 120 255
107.125428 -229.345390 -348.979259 0 120 255
109.577268 -229.332870 -349.327722 0 120 255
112.029108 -229.320349 -349.676185 0 120 255
114.480947 -229.307829 -350.024647 0 120 255
116.934374 -229.287078 -350.360948 0 120 255
119.389782 -229.256043 -350.682052 0 120 255
121.845190 -229.225008 -351.003155 0 120 255
124.300599 -229.193973 -351.324258 0 120 255
126.757160 -229.156232 -351.635309 0 120 255
129.215543 -229.107890 -351.930467 0 120 255
131.673925 -229.059548 -352.225626 0 120 255
134.132308 -229.011206 -352.520785 0 120 255
136.591496 -228.957580 -352.807894 0 120 255
139.052315 -228.893248 -353.078696 0 120 255
141.513133 -228.828915 -353.349497 0 120 255
143.973952 -228.764583 -353.620299 0 120 255
146.435306 -228.696266 -353.884920 0 120 255
148.898084 -228.617362 -354.133121 0 120 255
151.360861 -228.538458 -354.381323 0 120 255
153.823638 -228.459554 -354.629525 0 120 255
156.286749 -228.377825 -354.873256 0 120 255
158.751067 -228.285870 -355.100809 0 120 255
161.215386 -228.193915 -355.328362 0 120 255
163.679704 -228.101960 -355.555915 0 120 255
166.143112 -227.998853 -355.786928 0 120 255
168.601725 -227.836985 -356.036174 0 120 255
171.060338 -227.675118 -356.285420 0 120 255
173.518950 -227.513251 -356.534666 0 120 255
175.976523 -227.343443 -356.787642 0 120 255
178.425992 -227.111793 -357.069674 0 120 255
180.875460 -226.880142 -357.351705 0 120 255
183.324929 -226.648491 -357.633737 0 120 255
185.774398 -226.416839 -357.915769 0 120 255
188.223864 -226.185177 -358.197813 0 120 255
190.673330 -225.953515 -358.479857 0 120 255
193.122797 -225.721853 -358.761901 0 120 255
195.572263 -225.490192 -359.043945 0 120 255
198.021731 -225.258534 -359.325981 0 120 255
200.471198 -225.026876 -359.608018 0 120 255
202.920666 -224.795218 -359.890054 0 120 255
205.370133 -224.563560 -360.172091 0 120 255
