ply
format ascii 1.0
element vertex 385
property float x
property float y
property float z
property uchar red
property uchar green
property uchar blue
end_header
77.430455 -42.474882 -360.397637 0 120 255
77.187484 -42.528726 -357.935237 0 120 255
76.944513 -42.582571 -355.472837 0 120 255
76.701541 -42.636416 -353.010437 0 120 255
76.458570 -42.690261 -350.548038 0 120 255
76.238207 -42.758728 -348.083881 0 120 255
76.018798 -42.827812 -345.619650 0 120 255
75.799389 -42.896896 -343.155419 0 120 255
75.579981 -42.965981 -340.691188 0 120 255
75.394641 -43.024572 -338.223913 0 120 255
75.212393 -43.082211 -335.756361 0 120 255
75.030146 -43.139850 -333.288810 0 120 255
74.847899 -43.197489 -330.821258 0 120 255
74.668091 -43.229317 -328.353080 0 120 255
74.488644 -43.257336 -325.884809 0 120 255
74.309197 -43.285355 -323.416538 0 120 255
74.129750 -43.313375 -320.948268 0 120 255
73.943711 -43.315339 -318.480357 0 120 255
73.756285 -43.311824 -316.012523 0 120 255
73.568859 -43.308310 -313.544689 0 120 255
73.381434 -43.304795 -311.076855 0 120 255
73.179348 -43.275826 -308.610394 0 120 255
72.973161 -43.239735 -306.144318 0 120 255
72.766974 -43.203643 -303.678242 0 120 255
72.560787 -43.167552 -301.212166 0 120 255
72.332884 -43.107327 -298.748550 0 120 255
72.097223 -43.038480 -296.285814 0 120 255
71.861562 -42.969633 -293.823077 0 120 255
71.625900 -42.900785 -291.360341 0 120 255
71.362512 -42.809723 -288.901253 0 120 255
71.086809 -42.708794 -286.443785 0 120 255
70.811106 -42.607865 -283.986317 0 120 255
70.535403 -42.506936 -281.528849 0 120 255
70.227031 -42.386190 -279.076326 0 120 255
69.900949 -42.254700 -276.626484 0 120 255
69.574866 -42.123210 -274.176642 0 120 255
69.248784 -41.991721 -271.726799 0 120 255
68.886169 -41.843160 -269.283298 0 120 255
68.499683 -41.683445 -266.843940 0 120 255
68.113197 -41.523730 -264.404582 0 120 255
67.726711 -41.364015 -261.965224 0 120 255
67.300907 -41.190211 -259.533678 0 120 255
66.844403 -41.005407 -257.108229 0 120 255
66.387899 -40.820602 -254.682781 0 120 255
65.931396 -40.635798 -252.257333 0 120 255
65.433845 -40.440004 -249.841200 0 120 255
64.898201 -40.234011 -247.433712 0 120 255
64.362556 -40.028019 -245.026224 0 120 255
63.826912 -39.822027 -242.618736 0 120 255
63.249528 -39.608149 -240.222047 0 120 255
62.626228 -39.385596 -237.837238 0 120 255
62.002929 -39.163043 -235.452428 0 120 255
61.379629 -38.940491 -233.067619 0 120 255
60.714887 -38.713059 -230.695010 0 120 255
59.996125 -38.479268 -228.338302 0 120 255
59.277363 -38.245477 -225.981595 0 120 255
58.558601 -38.011686 -223.624887 0 120 255
57.799631 -37.775820 -221.281623 0 120 255
56.978429 -37.536742 -218.959163 0 120 255
56.157228 -37.297665 -216.636704 0 120 255
55.336026 -37.058587 -214.314245 0 120 255
54.476713 -36.819945 -212.006235 0 120 255
53.547037 -36.582109 -209.724901 0 120 255
52.617361 -36.344274 -207.443567 0 120 255
51.687686 -36.106438 -205.162233 0 120 255
50.722767 -35.871174 -202.896036 0 120 255
49.679643 -35.641619 -200.663427 0 120 255
48.636519 -35.412063 -198.430818 0 120 255
47.593395 -35.182508 -196.198209 0 120 255
46.518565 -34.957212 -193.981020 0 120 255
45.358203 -34.743404 -191.805430 0 120 255
44.197840 -34.529597 -189.629840 0 120 255
43.037478 -34.315789 -187.454250 0 120 255
41.849493 -34.107415 -185.293878 0 120 255
40.569412 -33.917159 -183.184247 0 120 255
39.289330 -33.726902 -181.074617 0 120 255
38.009249 -33.536646 -178.964986 0 120 255
36.706037 -33.352442 -176.869811 0 120 255
35.305172 -33.193788 -174.835664 0 120 255
33.904307 -33.035134 -172.801517 0 120 255
32.503443 -32.876480 -170.767370 0 120 255
31.084196 -32.723904 -168.746286 0 120 255
29.563019 -32.605030 -166.797636 0 120 255
28.041842 -32.486156 -164.848986 0 120 255
26.520665 -32.367281 -162.900336 0 120 255
24.985944 -32.253902 -160.962673 0 120 255
23.346539 -32.182999 -159.109926 0 120 255
21.707133 -32.112096 -157.257180 0 120 255
20.067728 -32.041192 -155.404434 0 120 255
18.419529 -31.974595 -153.559875 0 120 255
16.665691 -31.959735 -151.813685 0 120 255
14.911853 -31.944875 -150.067495 0 120 255
13.158015 -31.930015 -148.321306 0 120 255
11.399866 -31.917683 -146.579762 0 120 255
9.537143 -31.966687 -144.950894 0 120 255
7.674420 -32.015691 -143.322027 0 120 255
5.811697 -32.064695 -141.693159 0 120 255
3.948687 -32.113901 -140.064654 0 120 255
1.984424 -32.234192 -138.563806 0 120 255
0.020161 -32.354484 -137.062957 0 120 255
-1.944103 -32.474775 -135.562108 0 120 255
-3.908366 -32.595067 -134.061259 0 120 255
-5.961932 -32.790913 -132.694232 0 120 255
-8.018591 -32.989376 -131.331840 0 120 255
-10.075250 -33.187839 -129.969447 0 120 255
-12.131909 -33.386302 -128.607055 0 120 255
-14.264412 -33.663282 -127.382821 0 120 255
-16.402568 -33.946113 -126.168884 0 120 255
-18.540723 -34.228944 -124.954947 0 120 255
-20.678879 -34.511776 -123.741009 0 120 255
-22.878707 -34.874942 -122.668313 0 120 255
-25.085757 -35.247517 -121.612157 0 120 255
-27.292807 -35.620092 -120.556001 0 120 255
-29.499857 -35.992666 -119.499845 0 120 255
-31.753961 -36.446221 -118.586667 0 120 255
-34.015723 -36.912953 -117.696755 0 120 255
-36.277484 -37.379685 -116.806843 0 120 255
-38.539246 -37.846416 -115.916931 0 120 255
-40.833267 -38.393605 -115.170299 0 120 255
-43.134120 -38.957829 -114.454007 0 120 255
-45.434972 -39.522054 -113.737714 0 120 255
-47.735825 -40.086279 -113.021422 0 120 255
-50.054256 -40.729300 -112.447247 0 120 255
-52.377339 -41.393176 -111.910684 0 120 255
-54.700423 -42.057051 -111.374122 0 120 255
-57.023507 -42.720927 -110.837560 0 120 255
-59.349885 -43.460857 -110.440463 0 120 255
-61.677324 -44.225277 -110.088276 0 120 255
-64.004763 -44.989697 -109.736089 0 120 255
-66.332202 -45.754118 -109.383901 0 120 255
-68.649336 -46.590854 -109.167076 0 120 255
-70.962507 -47.455396 -109.002299 0 120 255
-73.275679 -48.319938 -108.837523 0 120 255
-75.588850 -49.184481 -108.672746 0 120 255
-77.879071 -50.116716 -108.637844 0 120 255
-80.158895 -51.079617 -108.661774 0 120 255
-82.438718 -52.042518 -108.685705 0 120 255
-84.718542 -53.005418 -108.709636 0 120 255
-86.963974 -54.030636 -108.856683 0 120 255
-89.191229 -55.088790 -109.068800 0 120 255
-91.418483 -56.146944 -109.280917 0 120 255
-93.645738 -57.205098 -109.493035 0 120 255
-95.828581 -58.319595 -109.820379 0 120 255
-97.984226 -59.468599 -110.218291 0 120 255
-100.139871 -60.617602 -110.616203 0 120 255
-102.295515 -61.766606 -111.014115 0 120 255
-104.398332 -62.965547 -111.518416 0 120 255
-106.463835 -64.199762 -112.097863 0 120 255
-108.529338 -65.433977 -112.677310 0 120 255
-110.594841 -66.668191 -113.256757 0 120 255
-112.600840 -67.945683 -113.933010 0 120 255
-114.558499 -69.258332 -114.687907 0 120 255
-116.516159 -70.570981 -115.442803 0 120 255
-118.473818 -71.883631 -116.197700 0 120 255
-120.367117 -73.232831 -117.039303 0 120 255
-122.200344 -74.616147 -117.961833 0 120 255
-124.033572 -75.999462 -118.884363 0 120 255
-125.866800 -77.382777 -119.806893 0 120 255
-127.632673 -78.796016 -120.805752 0 120 255
-129.326285 -80.241358 -121.886498 0 120 255
-131.019897 -81.686699 -122.967244 0 120 255
-132.713509 -83.132041 -124.047991 0 120 255
-134.338602 -84.600958 -125.194657 0 120 255
-135.879022 -86.099009 -126.422785 0 120 255
-137.419442 -87.597059 -127.650913 0 120 255
-138.959861 -89.095110 -128.879041 0 120 255
-140.432367 -90.610816 -130.162878 0 120 255
-141.807831 -92.151750 -131.526318 0 120 255
-143.183295 -93.692684 -132.889758 0 120 255
-144.558759 -95.233618 -134.253198 0 120 255
-145.868558 -96.786852 -135.662564 0 120 255
-147.069248 -98.360526 -137.148243 0 120 255
-148.269938 -99.934200 -138.633922 0 120 255
-149.470628 -101.507874 -140.119601 0 120 255
-150.609383 -103.089165 -141.642060 0 120 255
-151.627503 -104.685293 -143.236160 0 120 255
-152.645622 -106.281421 -144.830259 0 120 255
-153.663742 -107.877550 -146.424359 0 120 255
-154.624947 -109.477374 -148.046893 0 120 255
-155.454750 -111.085733 -149.735074 0 120 255
-156.284553 -112.694092 -151.423255 0 120 255
-157.114357 -114.302451 -153.111436 0 120 255
-157.893339 -115.911398 -154.820652 0 120 255
-158.531138 -117.521976 -156.588305 0 120 255
-159.168937 -119.132554 -158.355958 0 120 255
-159.806736 -120.743132 -160.123611 0 120 255
-160.400637 -122.352028 -161.905957 0 120 255
-160.844694 -123.955186 -163.738454 0 120 255
-161.288751 -125.558344 -165.570952 0 120 255
-161.732807 -127.161501 -167.403449 0 120 255
-162.140491 -128.761547 -169.245417 0 120 255
-162.390965 -130.348143 -171.128320 0 120 255
-162.641439 -131.934739 -173.011223 0 120 255
-162.891913 -133.521335 -174.894126 0 120 255
-163.113892 -135.104202 -176.782433 0 120 255
-163.172656 -136.665714 -178.701697 0 120 255
-163.231419 -138.227225 -180.620961 0 120 255
-163.290183 -139.788737 -182.540226 0 120 255
-163.328468 -141.346669 -184.461979 0 120 255
-163.198989 -142.875279 -186.404127 0 120 255
-163.069511 -144.403888 -188.346274 0 120 255
-162.940033 -145.932497 -190.288421 0 120 255
-162.798013 -147.458374 -192.231261 0 120 255
-162.485132 -148.947027 -194.183532 0 120 255
-162.172250 -150.435680 -196.135804 0 120 255
-161.859368 -151.924333 -198.088075 0 120 255
-161.541626 -153.411720 -200.040297 0 120 255
-161.051394 -154.854182 -201.990765 0 120 255
-160.561161 -156.296644 -203.941232 0 120 255
-160.070928 -157.739105 -205.891700 0 120 255
-159.580695 -159.181567 -207.842167 0 120 255
-158.922558 -160.573165 -209.780005 0 120 255
-158.262017 -161.964034 -211.717662 0 120 255
-157.601477 -163.354904 -213.655319 0 120 255
-156.940936 -164.745773 -215.592976 0 120 255
-156.127073 -166.083649 -217.509084 0 120 255
-155.304087 -167.418371 -219.423910 0 120 255
-154.481100 -168.753093 -221.338735 0 120 255
-153.658114 -170.087815 -223.253561 0 120 255
-152.696344 -171.368560 -225.139700 0 120 255
-151.719375 -172.643393 -227.022697 0 120 255
-150.742405 -173.918226 -228.905694 0 120 255
-149.765435 -175.193059 -230.788691 0 120 255
-148.663962 -176.413977 -232.637537 0 120 255
-147.541927 -177.625990 -234.480743 0 120 255
-146.419892 -178.838003 -236.323949 0 120 255
-145.297856 -180.050016 -238.167155 0 120 255
-144.065120 -181.209082 -239.972292 0 120 255
-142.807213 -182.356110 -241.768773 0 120 255
-141.549307 -183.503137 -243.565255 0 120 255
-140.291401 -184.650165 -245.361737 0 120 255
-138.935930 -185.745984 -247.117620 0 120 255
-137.551451 -186.826577 -248.861433 0 120 255
-136.166972 -187.907171 -250.605245 0 120 255
-134.782493 -188.987764 -252.349058 0 120 255
-133.312833 -190.019516 -254.051011 0 120 255
-131.811104 -191.032880 -255.737206 0 120 255
-130.309375 -192.046244 -257.423400 0 120 255
-128.807647 -193.059608 -259.109594 0 120 255
-127.232233 -194.027017 -260.753734 0 120 255
-125.622427 -194.972976 -262.378243 0 120 255
-124.012621 -195.918936 -264.002753 0 120 255
-122.402815 -196.864896 -265.627263 0 120 255
-120.729912 -197.768174 -267.210471 0 120 255
-119.021010 -198.647101 -268.770114 0 120 255
-117.312108 -199.526028 -270.329757 0 120 255
-115.603206 -200.404955 -271.889401 0 120 255
-113.840845 -201.244758 -273.409281 0 120 255
-112.041540 -202.057524 -274.901682 0 120 255
-110.242235 -202.870289 -276.394083 0 120 255
-108.442930 -203.683055 -277.886484 0 120 255
-106.598832 -204.460436 -279.341283 0 120 255
-104.717436 -205.208353 -280.764770 0 120 255
-102.836040 -205.956270 -282.188257 0 120 255
-100.954644 -206.704188 -283.611744 0 120 255
-99.036188 -207.420542 -285.000310 0 120 255
-97.080622 -208.105293 -286.353908 0 120 255
-95.125057 -208.790044 -287.707506 0 120 255
-93.169492 -209.474794 -289.061104 0 120 255
-91.183686 -210.131821 -290.382840 0 120 255
-89.161431 -210.755429 -291.666173 0 120 255
-87.139175 -211.379038 -292.949505 0 120 255
-85.116920 -212.002646 -294.232838 0 120 255
-83.070373 -212.602312 -295.487634 0 120 255
-80.988429 -213.167088 -296.700846 0 120 255
-78.906485 -213.731864 -297.914059 0 120 255
-76.824542 -214.296639 -299.127272 0 120 255
-74.723446 -214.841136 -300.315452 0 120 255
-72.588342 -215.349623 -301.459182 0 120 255
-70.453238 -215.858110 -302.602912 0 120 255
-68.318133 -216.366598 -303.746642 0 120 255
-66.168268 -216.858303 -304.868938 0 120 255
-63.986058 -217.313239 -305.944271 0 120 255
-61.803849 -217.768175 -307.019605 0 120 255
-59.621639 -218.223111 -308.094938 0 120 255
-57.428363 -218.664566 -309.152430 0 120 255
-55.204595 -219.068878 -310.160762 0 120 255
-52.980827 -219.473190 -311.169095 0 120 255
-50.757059 -219.877503 -312.177428 0 120 255
-48.525304 -220.271391 -313.171472 0 120 255
-46.265072 -220.628118 -314.114576 0 120 255
-44.004840 -220.984844 -315.057681 0 120 255
-41.744609 -221.341571 -316.000785 0 120 255
-39.478912 -221.690670 -316.933041 0 120 255
-37.186841 -222.002963 -317.812944 0 120 255
-34.894769 -222.315255 -318.692847 0 120 255
-32.602698 -222.627548 -319.572751 0 120 255
-30.307194 -222.934727 -320.445091 0 120 255
-27.987463 -223.205820 -321.264057 0 120 255
-25.667732 -223.476913 -322.083022 0 120 255
-23.348002 -223.748005 -322.901988 0 120 255
-21.026444 -224.016201 -323.716483 0 120 255
-18.682809 -224.249396 -324.476972 0 120 255
-16.339174 -224.482590 -325.237460 0 120 255
-13.995539 -224.715784 -325.997949 0 120 255
-11.651315 -224.947988 -326.756838 0 120 255
-9.287133 -225.146626 -327.461487 0 120 255
-6.922950 -225.345263 -328.166136 0 120 255
-4.558767 -225.543901 -328.870786 0 120 255
-2.194585 -225.742538 -329.575435 0 120 255
0.186825 -225.910596 -330.228056 0 120 255
2.568573 -226.078054 -330.879656 0 120 255
4.950320 -226.245512 -331.531256 0 120 255
7.332068 -226.412970 -332.182856 0 120 255
9.727751 -226.554510 -332.787669 0 120 255
12.124437 -226.694182 -333.389110 0 120 255
14.521124 -226.833854 -333.990552 0 120 255
16.917810 -226.973527 -334.591993 0 120 255
19.325673 -227.091630 -335.151718 0 120 255
21.734992 -227.206922 -335.706006 0 120 255
24.144312 -227.322214 -336.260295 0 120 255
26.553631 -227.437507 -336.814583 0 120 255
28.971591 -227.540334 -337.332207 0 120 255
31.391239 -227.640727 -337.842668 0 120 255
33.810887 -227.741119 -338.353130 0 120 255
36.230536 -227.841511 -338.863591 0 120 255
38.657149 -227.935283 -339.340856 0 120 255
41.085632 -228.027277 -339.809207 0 120 255
43.514115 -228.119271 -340.277559 0 120 255
45.942598 -228.211266 -340.745911 0 120 255
48.376646 -228.298393 -341.185054 0 120 255
50.812649 -228.383811 -341.613938 0 120 255
53.248652 -228.469230 -342.042823 0 120 255
55.684655 -228.554648 -342.471707 0 120 255
58.124738 -228.638570 -342.876720 0 120 255
60.566641 -228.721825 -343.271087 0 120 255
63.008543 -228.805079 -343.665455 0 120 255
65.450446 -228.888334 -344.059823 0 120 255
67.895483 -228.970038 -344.434308 0 120 255
70.342261 -229.050880 -344.797752 0 120 255
72.789038 -229.131722 -345.161195 0 120 255
75.235816 -229.212565 -345.524639 0 120 255
77.685116 -229.286636 -345.871875 0 120 255
80.136138 -229.356090 -346.208057 0 120 255
82.587159 -229.425544 -346.544239 0 120 255
85.038180 -229.494998 -346.880421 0 120 255
87.491159 -229.553651 -347.203781 0 120 255
89.945765 -229.603338 -347.516497 0 120 255
92.400370 -229.653026 -347.829213 0 120 255
94.854975 -229.702713 -348.141929 0 120 255
97.310979 -229.741518 -348.444694 0 120 255
99.768390 -229.769371 -348.737442 0 120 255
102.225801 -229.797223 -349.030190 0 120 255
104.683212 -229.825075 -349.322938 0 120 255
107.141553 -229.842146 -349.608253 0 120 255
109.601029 -229.846059 -349.884495 0 120 255
112.060505 -229.849972 -350.160737 0 120 255
114.519981 -229.853886 -350.436979 0 120 255
116.979996 -229.847326 -350.707951 0 120 255
119.440811 -229.825219 -350.971098 0 120 255
121.901627 -229.803112 -351.234245 0 120 255
124.362442 -229.781005 -351.497393 0 120 255
126.823472 -229.748931 -351.757100 0 120 255
129.284892 -229.698721 -352.010549 0 120 255
131.746312 -229.648511 -352.263999 0 120 255
134.207732 -229.598301 -352.517448 0 120 255
136.669105 -229.538820 -352.768944 0 120 255
139.130371 -229.458413 -353.016032 0 120 255
141.591637 -229.378005 -353.263120 0 120 255
144.052902 -229.297598 -353.510208 0 120 255
146.513918 -229.208811 -353.756504 0 120 255
148.974222 -229.096104 -354.000536 0 120 255
151.434525 -228.983398 -354.244569 0 120 255
153.894828 -228.870692 -354.488601 0 120 255
156.354742 -228.750696 -354.732681 0 120 255
158.813207 -228.603601 -354.976933 0 120 255
161.271672 -228.456505 -355.221185 0 120 255
163.730137 -228.309410 -355.465438 0 120 255
166.187540 -228.153271 -355.713703 0 120 255
168.639557 -227.951270 -355.982321 0 120 255
171.091574 -227.749270 -356.250939 0 120 255
173.543591 -227.547269 -356.519557 0 120 255
175.995110 -227.341685 -356.789783 0 120 255
178.443030 -227.110181 -357.071636 0 120 255
180.890950 -226.878677 -357.353489 0 120 255
183.338870 -226.647172 -357.635342 0 120 255
185.786789 -226.415667 -357.917196 0 120 255
188.234707 -226.184152 -358.199062 0 120 255
190.682624 -225.952636 -358.480927 0 120 255
193.130541 -225.721121 -358.762793 0 120 255
195.578459 -225.489606 -359.044658 0 120 255
198.026377 -225.258094 -359.326516 0 120 255
200.474296 -225.026583 -359.608375 0 120 255
202.922215 -224.795072 -359.890233 0 120 255
205.370133 -224.563560 -360.172091 0 120 255
