ply
format ascii 1.0
element vertex 385
property float x
property float y
property float z
property uchar red
property uchar green
property uchar blue
end_header
77.430455 -42.474882 -360.397637 0 120 255
77.187440 -42.528736 -357.934789 0 120 255
76.944424 -42.582591 -355.471942 0 120 255
76.701409 -42.636445 -353.009095 0 120 255
76.458393 -42.690300 -350.546247 0 120 255
76.255585 -42.738941 -348.079669 0 120 255
76.054442 -42.787366 -345.612937 0 120 255
75.853300 -42.835792 -343.146204 0 120 255
75.652157 -42.884217 -340.679471 0 120 255
75.458944 -42.893410 -338.211677 0 120 255
75.266470 -42.898947 -335.743784 0 120 255
75.073996 -42.904484 -333.275891 0 120 255
74.881522 -42.910022 -330.807997 0 120 255
74.655742 -42.886424 -328.343098 0 120 255
74.424685 -42.858209 -325.878673 0 120 255
74.193628 -42.829995 -323.414248 0 120 255
73.962571 -42.801780 -320.949823 0 120 255
73.695598 -42.749166 -318.489520 0 120 255
73.420308 -42.690903 -316.030172 0 120 255
73.145018 -42.632640 -313.570824 0 120 255
72.869729 -42.574376 -311.111475 0 120 255
72.556568 -42.496213 -308.657334 0 120 255
72.231522 -42.411804 -306.204826 0 120 255
71.906476 -42.327395 -303.752318 0 120 255
71.581430 -42.242986 -301.299811 0 120 255
71.217199 -42.142912 -298.853558 0 120 255
70.837016 -42.036460 -296.409851 0 120 255
70.456832 -41.930007 -293.966144 0 120 255
70.076649 -41.823555 -291.522438 0 120 255
69.656603 -41.705380 -289.085995 0 120 255
69.216076 -41.581183 -286.653283 0 120 255
68.775550 -41.456986 -284.220571 0 120 255
68.335024 -41.332789 -281.787860 0 120 255
67.854555 -41.200497 -279.363376 0 120 255
67.348658 -41.063052 -276.944130 0 120 255
66.842761 -40.925606 -274.524884 0 120 255
66.336864 -40.788161 -272.105639 0 120 255
65.791534 -40.645910 -269.695523 0 120 255
65.215462 -40.499914 -267.292525 0 120 255
64.639390 -40.353917 -264.889527 0 120 255
64.063318 -40.207920 -262.486529 0 120 255
63.448883 -40.060044 -260.093480 0 120 255
62.798078 -39.910386 -257.709863 0 120 255
62.147273 -39.760729 -255.326246 0 120 255
61.496468 -39.611071 -252.942629 0 120 255
60.808894 -39.462070 -250.569671 0 120 255
60.079079 -39.313823 -248.208958 0 120 255
59.349264 -39.165576 -245.848245 0 120 255
58.619449 -39.017329 -243.487532 0 120 255
57.854957 -38.871871 -241.138041 0 120 255
57.042187 -38.730296 -238.804174 0 120 255
56.229417 -38.588721 -236.470307 0 120 255
55.416647 -38.447147 -234.136440 0 120 255
54.571752 -38.310064 -231.814172 0 120 255
53.672468 -38.180588 -229.511544 0 120 255
52.773184 -38.051112 -227.208916 0 120 255
51.873900 -37.921636 -224.906287 0 120 255
50.945447 -37.797911 -222.615409 0 120 255
49.956509 -37.686111 -220.348898 0 120 255
48.967571 -37.574311 -218.082386 0 120 255
47.978632 -37.462511 -215.815874 0 120 255
46.963838 -37.357265 -213.560988 0 120 255
45.882608 -37.268858 -211.335970 0 120 255
44.801379 -37.180451 -209.110953 0 120 255
43.720150 -37.092044 -206.885936 0 120 255
42.616670 -37.010526 -204.672094 0 120 255
41.441075 -36.951336 -202.494470 0 120 255
40.265479 -36.892145 -200.316846 0 120 255
39.089884 -36.832954 -198.139222 0 120 255
37.895865 -36.780516 -195.971949 0 120 255
36.624454 -36.756443 -193.848153 0 120 255
35.353042 -36.732371 -191.724358 0 120 255
34.081631 -36.708298 -189.600563 0 120 255
32.795766 -36.690372 -187.485868 0 120 255
31.427819 -36.707358 -185.422859 0 120 255
30.059871 -36.724344 -183.359851 0 120 255
28.691923 -36.741329 -181.296842 0 120 255
27.313546 -36.763396 -179.241215 0 120 255
25.849126 -36.827378 -177.246483 0 120 255
24.384706 -36.891360 -175.251752 0 120 255
22.920287 -36.955342 -173.257020 0 120 255
21.449415 -37.022895 -171.267439 0 120 255
19.889484 -37.139744 -169.348967 0 120 255
18.329554 -37.256593 -167.430495 0 120 255
16.769623 -37.373442 -165.512023 0 120 255
15.207066 -37.491936 -163.595928 0 120 255
13.553549 -37.667409 -161.762171 0 120 255
11.900032 -37.842883 -159.928414 0 120 255
10.246515 -38.018356 -158.094657 0 120 255
8.592998 -38.193830 -156.260900 0 120 255
6.849827 -38.432822 -154.519752 0 120 255
5.105725 -38.672474 -152.779566 0 120 255
3.361622 -38.912127 -151.039380 0 120 255
1.617519 -39.151779 -149.299195 0 120 255
-0.208923 -39.457598 -147.656902 0 120 255
-2.039468 -39.766714 -146.019488 0 120 255
-3.870014 -40.075830 -144.382074 0 120 255
-5.700559 -40.384946 -142.744660 0 120 255
-7.605418 -40.762239 -141.210109 0 120 255
-9.517043 -41.145740 -139.684923 0 120 255
-11.428667 -41.529241 -138.159738 0 120 255
-13.340292 -41.912742 -136.634552 0 120 255
-15.317542 -42.365767 -135.216789 0 120 255
-17.303587 -42.828111 -133.813423 0 120 255
-19.289633 -43.290455 -132.410057 0 120 255
-21.275678 -43.752799 -131.006691 0 120 255
-23.318061 -44.285337 -129.714801 0 120 255
-25.370516 -44.830423 -128.442841 0 120 255
-27.422971 -45.375509 -127.170880 0 120 255
-29.475426 -45.920596 -125.898920 0 120 255
-31.574428 -46.535843 -124.741917 0 120 255
-33.683919 -47.166899 -123.610815 0 120 255
-35.793410 -47.797954 -122.479714 0 120 255
-37.902901 -48.429010 -121.348612 0 120 255
-40.048726 -49.129492 -120.335272 0 120 255
-42.204493 -49.848971 -119.354155 0 120 255
-44.360261 -50.568450 -118.373038 0 120 255
-46.516028 -51.287930 -117.391922 0 120 255
-48.697603 -52.075392 -116.530615 0 120 255
-50.887533 -52.884863 -115.708096 0 120 255
-53.077463 -53.694333 -114.885576 0 120 255
-55.267392 -54.503804 -114.063056 0 120 255
-57.472405 -55.379122 -113.361562 0 120 255
-59.683084 -56.279174 -112.705529 0 120 255
-61.893763 -57.179227 -112.049497 0 120 255
-64.104441 -58.079279 -111.393464 0 120 255
-66.319416 -59.042363 -110.858774 0 120 255
-68.536236 -60.032513 -110.376189 0 120 255
-70.753055 -61.022663 -109.893605 0 120 255
-72.969875 -62.012813 -109.411021 0 120 255
-75.180281 -63.062532 -109.049137 0 120 255
-77.387574 -64.141154 -108.745817 0 120 255
-79.594867 -65.219777 -108.442497 0 120 255
-81.802161 -66.298399 -108.139177 0 120 255
-83.992560 -67.432527 -107.954910 0 120 255
-86.173782 -68.596802 -107.835305 0 120 255
-88.355005 -69.761076 -107.715700 0 120 255
-90.536228 -70.925351 -107.596094 0 120 255
-92.690470 -72.140517 -107.592870 0 120 255
-94.828428 -73.386398 -107.659883 0 120 255
-96.966386 -74.632278 -107.726896 0 120 255
-99.104344 -75.878159 -107.793909 0 120 255
-101.205789 -77.169847 -107.973599 0 120 255
-103.282891 -78.492077 -108.228413 0 120 255
-105.359992 -79.814308 -108.483228 0 120 255
-107.437094 -81.136538 -108.738042 0 120 255
-109.468884 -82.499094 -109.100806 0 120 255
-111.467444 -83.891225 -109.542737 0 120 255
-113.466004 -85.283356 -109.984669 0 120 255
-115.464564 -86.675487 -110.426600 0 120 255
-117.409904 -88.102175 -110.970786 0 120 255
-119.312447 -89.556654 -111.597202 0 120 255
-121.214990 -91.011132 -112.223618 0 120 255
-123.117533 -92.465610 -112.850034 0 120 255
-124.960003 -93.948696 -113.572103 0 120 255
-126.749601 -95.456961 -114.378359 0 120 255
-128.539199 -96.965226 -115.184615 0 120 255
-130.328798 -98.473491 -115.990871 0 120 255
-132.052665 -100.004357 -116.885386 0 120 255
-133.713260 -101.556978 -117.864858 0 120 255
-135.373856 -103.109599 -118.844329 0 120 255
-137.034451 -104.662220 -119.823800 0 120 255
-138.624974 -106.231511 -120.883469 0 120 255
-140.141699 -107.818359 -122.027599 0 120 255
-141.658424 -109.405206 -123.171730 0 120 255
-143.175149 -110.992054 -124.315860 0 120 255
-144.618865 -112.589856 -125.531620 0 120 255
-145.978322 -114.200300 -126.830050 0 120 255
-147.337779 -115.810744 -128.128480 0 120 255
-148.697237 -117.421188 -129.426910 0 120 255
-149.982219 -119.037212 -130.788084 0 120 255
-151.172747 -120.660313 -132.228833 0 120 255
-152.363275 -122.283414 -133.669582 0 120 255
-153.553803 -123.906516 -135.110332 0 120 255
-154.669867 -125.530305 -136.604816 0 120 255
-155.681728 -127.155057 -138.174495 0 120 255
-156.693589 -128.779809 -139.744174 0 120 255
-157.705450 -130.404561 -141.313852 0 120 255
-158.644315 -132.025692 -142.928358 0 120 255
-159.469854 -133.641202 -144.612457 0 120 255
-160.295392 -135.256712 -146.296555 0 120 255
-161.120931 -136.872221 -147.980653 0 120 255
-161.876313 -138.480503 -149.700973 0 120 255
-162.510015 -140.076247 -151.484115 0 120 255
-163.143718 -141.671991 -153.267257 0 120 255
-163.777420 -143.267735 -155.050400 0 120 255
-164.345077 -144.853406 -156.861674 0 120 255
-164.783627 -146.419388 -158.727939 0 120 255
-165.222178 -147.985370 -160.594205 0 120 255
-165.660728 -149.551352 -162.460471 0 120 255
-166.038448 -151.105233 -164.347486 0 120 255
-166.280657 -152.632157 -166.280725 0 120 255
-166.522866 -154.159081 -168.213963 0 120 255
-166.765075 -155.686005 -170.147202 0 120 255
-166.952595 -157.199641 -172.094672 0 120 255
-166.999325 -158.679070 -174.078779 0 120 255
-167.046055 -160.158499 -176.062886 0 120 255
-167.092785 -161.637928 -178.046993 0 120 255
-167.091674 -163.103708 -180.039813 0 120 255
-166.945674 -164.528154 -182.059024 0 120 255
-166.799673 -165.952600 -184.078235 0 120 255
-166.653673 -167.377045 -186.097445 0 120 255
-166.467171 -168.788274 -188.120941 0 120 255
-166.132907 -170.151284 -190.160070 0 120 255
-165.798643 -171.514294 -192.199198 0 120 255
-165.464379 -172.877304 -194.238326 0 120 255
-165.097215 -174.228257 -196.278452 0 120 255
-164.580650 -175.524458 -198.323102 0 120 255
-164.064086 -176.820660 -200.367753 0 120 255
-163.547521 -178.116861 -202.412404 0 120 255
-163.005705 -179.402808 -204.455914 0 120 255
-162.314087 -180.627925 -206.492659 0 120 255
-161.622470 -181.853041 -208.529403 0 120 255
-160.930852 -183.078158 -210.566148 0 120 255
-160.221476 -184.295364 -212.600738 0 120 255
-159.363067 -185.446185 -214.617250 0 120 255
-158.504659 -186.597006 -216.633761 0 120 255
-157.646250 -187.747827 -218.650273 0 120 255
-156.777247 -188.893513 -220.664677 0 120 255
-155.761105 -189.967882 -222.649812 0 120 255
-154.744963 -191.042250 -224.634947 0 120 255
-153.728821 -192.116619 -226.620082 0 120 255
-152.708771 -193.188939 -228.604129 0 120 255
-151.544540 -194.185680 -230.548003 0 120 255
-150.380310 -195.182421 -232.491877 0 120 255
-149.216079 -196.179162 -234.435752 0 120 255
-148.051848 -197.175903 -236.379626 0 120 255
-146.751688 -198.095985 -238.274403 0 120 255
-145.449350 -199.014839 -240.168392 0 120 255
-144.147012 -199.933692 -242.062382 0 120 255
-142.844673 -200.852546 -243.956371 0 120 255
-141.421959 -201.698663 -245.796512 0 120 255
-139.991660 -202.540195 -247.633259 0 120 255
-138.561360 -203.381728 -249.470006 0 120 255
-137.131061 -204.223261 -251.306753 0 120 255
-135.595189 -204.996703 -253.086711 0 120 255
-134.047060 -205.762239 -254.860076 0 120 255
-132.498931 -206.527775 -256.633442 0 120 255
-130.950801 -207.293311 -258.406807 0 120 255
-129.310986 -207.995922 -260.122073 0 120 255
-127.654998 -208.687434 -261.827092 0 120 255
-125.999010 -209.378946 -263.532111 0 120 255
-124.343022 -210.070458 -265.237130 0 120 255
-122.608215 -210.704576 -266.884175 0 120 255
-120.854082 -211.324622 -268.517005 0 120 255
-119.099949 -211.944668 -270.149835 0 120 255
-117.345816 -212.564713 -271.782665 0 120 255
-115.524596 -213.133074 -273.358840 0 120 255
-113.681618 -213.684673 -274.916642 0 120 255
-111.838640 -214.236271 -276.474443 0 120 255
-109.995662 -214.787869 -278.032245 0 120 255
-108.096199 -215.293555 -279.535729 0 120 255
-106.173239 -215.780141 -281.016618 0 120 255
-104.250279 -216.266728 -282.497506 0 120 255
-102.327318 -216.753314 -283.978395 0 120 255
-100.357330 -217.199689 -285.408114 0 120 255
-98.362737 -217.625024 -286.811061 0 120 255
-96.368143 -218.050359 -288.214008 0 120 255
-94.373549 -218.475694 -289.616955 0 120 255
-92.340259 -218.866356 -290.972488 0 120 255
-90.281814 -219.234478 -292.297201 0 120 255
-88.223369 -219.602599 -293.621913 0 120 255
-86.164924 -219.970721 -294.946626 0 120 255
-84.075062 -220.309423 -296.228169 0 120 255
-81.960003 -220.624529 -297.475088 0 120 255
-79.844944 -220.939635 -298.722007 0 120 255
-77.729885 -221.254741 -299.968927 0 120 255
-75.589672 -221.545381 -301.177189 0 120 255
-73.424626 -221.811868 -302.347289 0 120 255
-71.259580 -222.078356 -303.517389 0 120 255
-69.094534 -222.344843 -304.687490 0 120 255
-66.909686 -222.591417 -305.823646 0 120 255
-64.700733 -222.813749 -306.918482 0 120 255
-62.491779 -223.036081 -308.013318 0 120 255
-60.282825 -223.258413 -309.108154 0 120 255
-58.058569 -223.464971 -310.173787 0 120 255
-55.811195 -223.647699 -311.195302 0 120 255
-53.563820 -223.830426 -312.216817 0 120 255
-51.316446 -224.013154 -313.238332 0 120 255
-49.057523 -224.183790 -314.235354 0 120 255
-46.776690 -224.331488 -315.185913 0 120 255
-44.495857 -224.479186 -316.136471 0 120 255
-42.215025 -224.626884 -317.087029 0 120 255
-39.925724 -224.765738 -318.017657 0 120 255
-37.615864 -224.883121 -318.899894 0 120 255
-35.306004 -225.000503 -319.782131 0 120 255
-32.996144 -225.117885 -320.664368 0 120 255
-30.680364 -225.231309 -321.530924 0 120 255
-28.345623 -225.332060 -322.347261 0 120 255
-26.010881 -225.432810 -323.163599 0 120 255
-23.676140 -225.533560 -323.979936 0 120 255
-21.337557 -225.633671 -324.784880 0 120 255
-18.981879 -225.730940 -325.539129 0 120 255
-16.626200 -225.828210 -326.293378 0 120 255
-14.270522 -225.925479 -327.047627 0 120 255
-11.912610 -226.022526 -327.794632 0 120 255
-9.539567 -226.118068 -328.492568 0 120 255
-7.166525 -226.213611 -329.190504 0 120 255
-4.793482 -226.309153 -329.888439 0 120 255
-2.419305 -226.404365 -330.582396 0 120 255
-0.030989 -226.495454 -331.226775 0 120 255
2.357327 -226.586544 -331.871154 0 120 255
4.745642 -226.677634 -332.515533 0 120 255
7.134234 -226.768617 -333.158858 0 120 255
9.536186 -226.854482 -333.751167 0 120 255
11.938137 -226.940348 -334.343476 0 120 255
14.340089 -227.026213 -334.935785 0 120 255
16.742040 -227.112078 -335.528094 0 120 255
19.154920 -227.196429 -336.074343 0 120 255
21.568184 -227.280726 -336.618975 0 120 255
23.981448 -227.365024 -337.163607 0 120 255
26.394713 -227.449321 -337.708240 0 120 255
28.816624 -227.533882 -338.212826 0 120 255
31.239367 -227.618468 -338.713562 0 120 255
33.662109 -227.703054 -339.214298 0 120 255
36.084852 -227.787641 -339.715035 0 120 255
38.514518 -227.872425 -340.180759 0 120 255
40.945322 -227.957242 -340.640729 0 120 255
43.376126 -228.042060 -341.100698 0 120 255
45.806929 -228.126877 -341.560668 0 120 255
48.243217 -228.211456 -341.990426 0 120 255
50.680833 -228.295978 -342.412871 0 120 255
53.118449 -228.380500 -342.835317 0 120 255
55.556064 -228.465022 -343.257762 0 120 255
57.998063 -228.547917 -343.654133 0 120 255
60.441516 -228.630272 -344.041858 0 120 255
62.884968 -228.712626 -344.429583 0 120 255
65.328421 -228.794981 -344.817308 0 120 255
67.775435 -228.870844 -345.182965 0 120 255
70.223998 -228.943884 -345.539024 0 120 255
72.672561 -229.016923 -345.895082 0 120 255
75.121124 -229.089963 -346.251141 0 120 255
77.572504 -229.152888 -346.588935 0 120 255
80.025447 -229.210201 -346.916593 0 120 255
82.478390 -229.267514 -347.244250 0 120 255
84.931333 -229.324827 -347.571908 0 120 255
87.386382 -229.371950 -347.884732 0 120 255
89.842898 -229.411973 -348.187222 0 120 255
92.299414 -229.451996 -348.489712 0 120 255
94.755930 -229.492020 -348.792202 0 120 255
97.213967 -229.521920 -349.082934 0 120 255
99.673321 -229.543049 -349.363477 0 120 255
102.132675 -229.564178 -349.644020 0 120 255
104.592029 -229.585307 -349.924563 0 120 255
107.052425 -229.596552 -350.196049 0 120 255
109.513940 -229.597187 -350.457810 0 120 255
111.975455 -229.597821 -350.719570 0 120 255
114.436970 -229.598456 -350.981331 0 120 255
116.899135 -229.589601 -351.236391 0 120 255
119.362167 -229.568105 -351.482528 0 120 255
121.825200 -229.546610 -351.728664 0 120 255
124.288232 -229.525115 -351.974801 0 120 255
126.751601 -229.494698 -352.216237 0 120 255
129.215531 -229.449448 -352.449857 0 120 255
131.679460 -229.404199 -352.683478 0 120 255
134.143389 -229.358949 -352.917098 0 120 255
136.607408 -229.305506 -353.147685 0 120 255
139.071613 -229.234847 -353.371898 0 120 255
141.535819 -229.164188 -353.596110 0 120 255
144.000025 -229.093529 -353.820323 0 120 255
146.464135 -229.015574 -354.042824 0 120 255
148.927985 -228.917840 -354.260684 0 120 255
151.391835 -228.820106 -354.478544 0 120 255
153.855686 -228.722373 -354.696405 0 120 255
156.319315 -228.618407 -354.913552 0 120 255
158.782145 -228.491919 -355.128124 0 120 255
161.244976 -228.365430 -355.342696 0 120 255
163.707806 -228.238941 -355.557268 0 120 255
166.169400 -228.102235 -355.777968 0 120 255
168.624700 -227.913500 -356.029874 0 120 255
171.079999 -227.724765 -356.281780 0 120 255
173.535299 -227.536030 -356.533685 0 120 255
175.989772 -227.342190 -356.789168 0 120 255
178.438136 -227.110644 -357.071072 0 120 255
180.886501 -226.879098 -357.352977 0 120 255
183.334866 -226.647551 -357.634881 0 120 255
185.783230 -226.416004 -357.916786 0 120 255
188.231593 -226.184446 -358.198703 0 120 255
190.679955 -225.952889 -358.480620 0 120 255
193.128317 -225.721331 -358.762537 0 120 255
195.576679 -225.489774 -359.044454 0 120 255
198.025043 -225.258221 -359.326363 0 120 255
200.473406 -225.026667 -359.608272 0 120 255
202.921770 -224.795114 -359.890181 0 120 255
205.370133 -224.563560 -360.172091 0 120 255
