ply
format ascii 1.0
element vertex 385
property float x
property float y
property float z
property uchar red
property uchar green
property uchar blue
end_header
77.430455 -42.474882 -360.397637 0 120 255
77.187553 -42.528711 -357.935933 0 120 255
76.944650 -42.582541 -355.474229 0 120 255
76.701747 -42.636370 -353.012525 0 120 255
76.458844 -42.690200 -350.550821 0 120 255
76.213268 -42.754594 -348.089637 0 120 255
75.967575 -42.819447 -345.628475 0 120 255
75.721883 -42.884301 -343.167314 0 120 255
75.476190 -42.949154 -340.706153 0 120 255
75.074547 -43.337637 -338.298321 0 120 255
74.658719 -43.755558 -335.895341 0 120 255
74.242891 -44.173478 -333.492360 0 120 255
73.827063 -44.591398 -331.089380 0 120 255
73.295917 -45.238969 -328.763478 0 120 255
72.747787 -45.920364 -326.448928 0 120 255
72.199657 -46.601760 -324.134378 0 120 255
71.651528 -47.283155 -321.819829 0 120 255
71.027351 -48.131074 -319.582632 0 120 255
70.387246 -49.013874 -317.361638 0 120 255
69.747140 -49.896673 -315.140643 0 120 255
69.107035 -50.779473 -312.919649 0 120 255
68.427559 -51.787176 -310.765885 0 120 255
67.737123 -52.829648 -308.630836 0 120 255
67.046687 -53.872121 -306.495786 0 120 255
66.356251 -54.914593 -304.360737 0 120 255
65.658087 -56.058012 -302.281726 0 120 255
64.957176 -57.237289 -300.222620 0 120 255
64.256266 -58.416566 -298.163514 0 120 255
63.555356 -59.595843 -296.104408 0 120 255
62.871937 -60.864222 -294.094098 0 120 255
62.196243 -62.171951 -292.105338 0 120 255
61.520548 -63.479679 -290.116577 0 120 255
60.844854 -64.787408 -288.127816 0 120 255
60.204998 -66.179059 -286.186145 0 120 255
59.584482 -67.615999 -284.269886 0 120 255
58.963965 -69.052939 -282.353627 0 120 255
58.343449 -70.489879 -280.437368 0 120 255
57.770540 -72.007865 -278.571363 0 120 255
57.228666 -73.578684 -276.738118 0 120 255
56.686793 -75.149504 -274.904874 0 120 255
56.144919 -76.720323 -273.071630 0 120 255
55.656746 -78.368723 -271.294864 0 120 255
55.210560 -80.077779 -269.562256 0 120 255
54.764374 -81.786835 -267.829648 0 120 255
54.318187 -83.495891 -266.097040 0 120 255
53.927360 -85.276953 -264.428066 0 120 255
53.588237 -87.125265 -262.818525 0 120 255
53.249113 -88.973577 -261.208984 0 120 255
52.909990 -90.821890 -259.599442 0 120 255
52.624785 -92.734139 -258.059763 0 120 255
52.399667 -94.717639 -256.597938 0 120 255
52.174549 -96.701140 -255.136112 0 120 255
51.949431 -98.684640 -253.674287 0 120 255
51.774928 -100.721877 -252.286270 0 120 255
51.667831 -102.830675 -250.996547 0 120 255
51.560734 -104.939473 -249.706824 0 120 255
51.453637 -107.048272 -248.417101 0 120 255
51.392993 -109.199254 -247.202082 0 120 255
51.406589 -111.417656 -246.106456 0 120 255
51.420185 -113.636057 -245.010830 0 120 255
51.433781 -115.854458 -243.915204 0 120 255
51.489455 -118.103091 -242.891904 0 120 255
51.626433 -120.410139 -242.008359 0 120 255
51.763412 -122.717187 -241.124813 0 120 255
51.900390 -125.024235 -240.241268 0 120 255
52.075209 -127.350078 -239.424565 0 120 255
52.339446 -129.720333 -238.765813 0 120 255
52.603682 -132.090588 -238.107060 0 120 255
52.867919 -134.460843 -237.448308 0 120 255
53.165928 -136.839780 -236.848285 0 120 255
53.563190 -139.244230 -236.420864 0 120 255
53.960452 -141.648680 -235.993443 0 120 255
54.357714 -144.053130 -235.566022 0 120 255
54.784687 -146.458112 -235.187258 0 120 255
55.322999 -148.865086 -234.990832 0 120 255
55.861311 -151.272059 -234.794406 0 120 255
56.399623 -153.679033 -234.597979 0 120 255
56.963280 -156.080828 -234.438975 0 120 255
57.652745 -158.456920 -234.465716 0 120 255
58.342209 -160.833011 -234.492458 0 120 255
59.031673 -163.209102 -234.519199 0 120 255
59.741492 -165.577055 -234.571876 0 120 255
60.593757 -167.888048 -234.806055 0 120 255
61.446021 -170.199042 -235.040234 0 120 255
62.298285 -172.510035 -235.274413 0 120 255
63.165013 -174.812834 -235.523756 0 120 255
64.192201 -177.024709 -235.941343 0 120 255
65.219388 -179.236584 -236.358931 0 120 255
66.246576 -181.448459 -236.776518 0 120 255
67.281330 -183.654975 -237.200241 0 120 255
68.494673 -185.734986 -237.768780 0 120 255
69.708016 -187.814998 -238.337319 0 120 255
70.921359 -189.895009 -238.905859 0 120 255
72.134702 -191.975021 -239.474398 0 120 255
73.542580 -193.893121 -240.153054 0 120 255
74.950665 -195.811050 -240.831827 0 120 255
76.358749 -197.728979 -241.510600 0 120 255
77.766834 -199.646908 -242.189373 0 120 255
79.365260 -201.384430 -242.927433 0 120 255
80.972124 -203.113954 -243.668122 0 120 255
82.578989 -204.843477 -244.408811 0 120 255
84.185854 -206.573001 -245.149500 0 120 255
85.972646 -208.110690 -245.896802 0 120 255
87.775843 -209.630888 -246.644708 0 120 255
89.579040 -211.151087 -247.392613 0 120 255
91.382237 -212.671286 -248.140519 0 120 255
93.348034 -213.995891 -248.842988 0 120 255
95.336932 -215.292709 -249.539001 0 120 255
97.325830 -216.589527 -250.235014 0 120 255
99.314728 -217.886345 -250.931027 0 120 255
101.441902 -218.991790 -251.532889 0 120 255
103.596401 -220.059420 -252.116145 0 120 255
105.750900 -221.127049 -252.699402 0 120 255
107.905399 -222.194679 -253.282658 0 120 255
110.167577 -223.082898 -253.729140 0 120 255
112.457594 -223.924734 -254.140262 0 120 255
114.747611 -224.766570 -254.551384 0 120 255
117.037627 -225.608406 -254.962505 0 120 255
119.399876 -226.289804 -255.202877 0 120 255
121.785657 -226.918935 -255.387622 0 120 255
124.171438 -227.548065 -255.572367 0 120 255
126.557219 -228.177195 -255.757111 0 120 255
128.977036 -228.670483 -255.747716 0 120 255
131.410485 -229.109369 -255.660572 0 120 255
133.843933 -229.548254 -255.573427 0 120 255
136.277382 -229.987140 -255.486283 0 120 255
138.706387 -230.318606 -255.193295 0 120 255
141.133242 -230.598073 -254.800666 0 120 255
143.560098 -230.877541 -254.408036 0 120 255
145.986953 -231.157008 -254.015407 0 120 255
148.373164 -231.359495 -253.417058 0 120 255
150.735872 -231.517464 -252.699739 0 120 255
153.098579 -231.675432 -251.982421 0 120 255
155.461286 -231.833401 -251.265102 0 120 255
157.751760 -231.944310 -250.352870 0 120 255
159.992704 -232.022951 -249.306987 0 120 255
162.233648 -232.101592 -248.261103 0 120 255
164.474592 -232.180232 -247.215220 0 120 255
166.618218 -232.238147 -245.994319 0 120 255
168.683085 -232.279288 -244.631778 0 120 255
170.747952 -232.320429 -243.269238 0 120 255
172.812820 -232.361569 -241.906698 0 120 255
174.760728 -232.388563 -240.392849 0 120 255
176.597087 -232.402065 -238.734690 0 120 255
178.433446 -232.415567 -237.076532 0 120 255
180.269805 -232.429068 -235.418374 0 120 255
181.975551 -232.432971 -233.636298 0 120 255
183.534619 -232.426094 -231.715063 0 120 255
185.093688 -232.419217 -229.793828 0 120 255
186.652756 -232.412340 -227.872593 0 120 255
188.075060 -232.400704 -225.857098 0 120 255
189.316166 -232.382765 -223.716719 0 120 255
190.557272 -232.364825 -221.576341 0 120 255
191.798379 -232.346886 -219.435963 0 120 255
192.903723 -232.327343 -217.230487 0 120 255
193.795929 -232.305284 -214.922811 0 120 255
194.688136 -232.283225 -212.615135 0 120 255
195.580342 -232.261166 -210.307460 0 120 255
196.344191 -232.239261 -207.961335 0 120 255
196.867530 -232.217647 -205.543167 0 120 255
197.390869 -232.196032 -203.125000 0 120 255
197.914208 -232.174417 -200.706832 0 120 255
198.321771 -232.153657 -198.272807 0 120 255
198.467633 -232.134828 -195.802937 0 120 255
198.613495 -232.116000 -193.333068 0 120 255
198.759357 -232.097172 -190.863198 0 120 255
198.805690 -232.079194 -188.395006 0 120 255
198.576398 -232.063569 -185.931458 0 120 255
198.347106 -232.047944 -183.467911 0 120 255
198.117814 -232.032320 -181.004363 0 120 255
197.807316 -232.017170 -178.554522 0 120 255
197.215128 -232.003669 -176.152228 0 120 255
196.622941 -231.990167 -173.749934 0 120 255
196.030753 -231.976666 -171.347640 0 120 255
195.376251 -231.963161 -168.965614 0 120 255
194.441904 -231.949642 -166.674610 0 120 255
193.507558 -231.936124 -164.383606 0 120 255
192.573211 -231.922605 -162.092602 0 120 255
191.594705 -231.908698 -159.823379 0 120 255
190.345750 -231.892411 -157.687558 0 120 255
189.096796 -231.876124 -155.551737 0 120 255
187.847841 -231.859837 -153.415916 0 120 255
186.571111 -231.842993 -151.299027 0 120 255
185.040176 -231.821054 -149.355410 0 120 255
183.509242 -231.799115 -147.411794 0 120 255
181.978307 -231.777176 -145.468178 0 120 255
180.433466 -231.754768 -143.537119 0 120 255
178.656552 -231.724528 -141.815624 0 120 255
176.879637 -231.694287 -140.094129 0 120 255
175.102722 -231.664047 -138.372634 0 120 255
173.322792 -231.633656 -136.654689 0 120 255
171.337770 -231.593045 -135.178233 0 120 255
169.352747 -231.552434 -133.701777 0 120 255
167.367725 -231.511824 -132.225321 0 120 255
165.382702 -231.471213 -130.748865 0 120 255
163.232686 -231.419306 -129.526568 0 120 255
161.077984 -231.367078 -128.311489 0 120 255
158.923281 -231.314850 -127.096411 0 120 255
156.768579 -231.262623 -125.881333 0 120 255
154.491316 -231.199373 -124.919029 0 120 255
152.204857 -231.135296 -123.975693 0 120 255
149.918397 -231.071220 -123.032357 0 120 255
147.631937 -231.007143 -122.089022 0 120 255
145.260991 -230.933344 -121.391516 0 120 255
142.879384 -230.858318 -120.725027 0 120 255
140.497778 -230.783292 -120.058538 0 120 255
138.116171 -230.708266 -119.392049 0 120 255
135.683467 -230.625735 -118.960203 0 120 255
133.241438 -230.541836 -118.571176 0 120 255
130.799410 -230.457936 -118.182148 0 120 255
128.357381 -230.374036 -117.793120 0 120 255
125.892904 -230.285911 -117.624415 0 120 255
123.422931 -230.196751 -117.509641 0 120 255
120.952959 -230.107591 -117.394867 0 120 255
118.482987 -230.018431 -117.280093 0 120 255
116.014613 -229.929079 -117.369336 0 120 255
113.546742 -229.839667 -117.522643 0 120 255
111.078871 -229.750255 -117.675951 0 120 255
108.611000 -229.660843 -117.829258 0 120 255
106.164677 -229.572846 -118.169530 0 120 255
103.726786 -229.485404 -118.582963 0 120 255
101.288894 -229.397962 -118.996395 0 120 255
98.851003 -229.310519 -119.409827 0 120 255
96.450881 -229.225179 -119.992599 0 120 255
94.068818 -229.140845 -120.656338 0 120 255
91.686756 -229.056510 -121.320078 0 120 255
89.304693 -228.972175 -121.983818 0 120 255
86.973190 -228.890269 -122.799029 0 120 255
84.670833 -228.809762 -123.701556 0 120 255
82.368475 -228.729255 -124.604083 0 120 255
80.066118 -228.648748 -125.506610 0 120 255
77.823977 -228.570934 -126.542861 0 120 255
75.623304 -228.494975 -127.671203 0 120 255
73.422631 -228.419015 -128.799544 0 120 255
71.221958 -228.343056 -129.927886 0 120 255
69.088300 -228.269962 -131.172592 0 120 255
67.009457 -228.199213 -132.512477 0 120 255
64.930614 -228.128463 -133.852362 0 120 255
62.851771 -228.057714 -135.192247 0 120 255
60.844150 -227.989920 -136.631765 0 120 255
58.905510 -227.924990 -138.167780 0 120 255
56.966869 -227.860059 -139.703795 0 120 255
55.028228 -227.795128 -141.239810 0 120 255
53.162679 -227.733165 -142.859564 0 120 255
51.380899 -227.674602 -144.575290 0 120 255
49.599119 -227.616040 -146.291017 0 120 255
47.817339 -227.557477 -148.006743 0 120 255
46.108386 -227.501829 -149.791292 0 120 255
44.498376 -227.450139 -151.669345 0 120 255
42.888367 -227.398450 -153.547398 0 120 255
41.278357 -227.346760 -155.425451 0 120 255
39.738990 -227.297848 -157.358546 0 120 255
38.313897 -227.253427 -159.380679 0 120 255
36.888805 -227.209007 -161.402813 0 120 255
35.463713 -227.164587 -163.424947 0 120 255
34.105369 -227.122756 -165.489619 0 120 255
32.876531 -227.085948 -167.636824 0 120 255
31.647694 -227.049140 -169.784029 0 120 255
30.418856 -227.012331 -171.931234 0 120 255
29.251365 -226.977877 -174.109873 0 120 255
28.228221 -226.948959 -176.362477 0 120 255
27.205077 -226.920041 -178.615081 0 120 255
26.181932 -226.891123 -180.867686 0 120 255
25.213457 -226.864278 -183.142143 0 120 255
24.403525 -226.843446 -185.479976 0 120 255
23.593594 -226.822614 -187.817809 0 120 255
22.783663 -226.801781 -190.155642 0 120 255
22.020656 -226.782710 -192.507357 0 120 255
21.429392 -226.770082 -194.909884 0 120 255
20.838128 -226.757454 -197.312410 0 120 255
20.246864 -226.744827 -199.714937 0 120 255
19.693968 -226.733624 -202.125068 0 120 255
19.324730 -226.729242 -204.571603 0 120 255
18.955493 -226.724861 -207.018137 0 120 255
18.586255 -226.720480 -209.464671 0 120 255
18.246276 -226.717173 -211.914272 0 120 255
18.100294 -226.720987 -214.384203 0 120 255
17.954313 -226.724802 -216.854134 0 120 255
17.808331 -226.728617 -219.324066 0 120 255
17.682209 -226.733155 -221.794275 0 120 255
17.758556 -226.745068 -224.267312 0 120 255
17.834903 -226.756981 -226.740350 0 120 255
17.911250 -226.768894 -229.213387 0 120 255
17.998034 -226.781184 -231.685635 0 120 255
18.293681 -226.801015 -234.142072 0 120 255
18.589328 -226.820847 -236.598510 0 120 255
18.884975 -226.840678 -239.054948 0 120 255
19.181881 -226.860554 -241.511177 0 120 255
19.691794 -226.888065 -243.932151 0 120 255
20.201707 -226.915576 -246.353126 0 120 255
20.711620 -226.943087 -248.774100 0 120 255
21.221533 -226.970598 -251.195075 0 120 255
21.931375 -227.005200 -253.564722 0 120 255
22.648652 -227.040065 -255.932460 0 120 255
23.365929 -227.074931 -258.300198 0 120 255
24.083206 -227.109796 -260.667936 0 120 255
24.983777 -227.151089 -262.971407 0 120 255
25.899766 -227.192922 -265.269471 0 120 255
26.815755 -227.234755 -267.567535 0 120 255
27.731744 -227.276588 -269.865600 0 120 255
28.813807 -227.324195 -272.089170 0 120 255
29.918376 -227.372586 -274.302645 0 120 255
31.022944 -227.420976 -276.516120 0 120 255
32.127513 -227.469367 -278.729596 0 120 255
33.380785 -227.522868 -280.860977 0 120 255
34.662619 -227.577350 -282.976590 0 120 255
35.944454 -227.631833 -285.092203 0 120 255
37.226288 -227.686316 -287.207816 0 120 255
38.639611 -227.745260 -289.236261 0 120 255
40.086411 -227.805341 -291.242512 0 120 255
41.533211 -227.865421 -293.248764 0 120 255
42.980011 -227.925502 -295.255016 0 120 255
44.541566 -227.989433 -297.171380 0 120 255
46.140311 -228.054611 -299.058614 0 120 255
47.739056 -228.119790 -300.945849 0 120 255
49.337800 -228.184969 -302.833083 0 120 255
51.035346 -228.253423 -304.629836 0 120 255
52.772585 -228.323192 -306.390240 0 120 255
54.509823 -228.392961 -308.150643 0 120 255
56.247062 -228.462730 -309.911047 0 120 255
58.068167 -228.535296 -311.582231 0 120 255
59.930297 -228.609230 -313.209773 0 120 255
61.792427 -228.683163 -314.837315 0 120 255
63.654557 -228.757097 -316.464856 0 120 255
65.586786 -228.833488 -318.006044 0 120 255
67.560250 -228.911323 -319.496436 0 120 255
69.533713 -228.989158 -320.986828 0 120 255
71.507177 -229.066994 -322.477220 0 120 255
73.538218 -229.146772 -323.885531 0 120 255
75.609649 -229.227914 -325.236262 0 120 255
77.681081 -229.309055 -326.586992 0 120 255
79.752513 -229.390196 -327.937723 0 120 255
81.870149 -229.471711 -329.212179 0 120 255
84.026241 -229.553537 -330.423154 0 120 255
86.182332 -229.635363 -331.634128 0 120 255
88.338424 -229.717189 -332.845103 0 120 255
90.530106 -229.793415 -333.988255 0 120 255
92.756844 -229.864127 -335.064602 0 120 255
94.983582 -229.934839 -336.140949 0 120 255
97.210320 -230.005551 -337.217296 0 120 255
99.463853 -230.066154 -338.234535 0 120 255
101.748619 -230.114974 -339.182873 0 120 255
104.033386 -230.163793 -340.131211 0 120 255
106.318152 -230.212612 -341.079549 0 120 255
108.622583 -230.248815 -341.977253 0 120 255
110.954205 -230.267574 -342.804944 0 120 255
113.285827 -230.286334 -343.632636 0 120 255
115.617449 -230.305093 -344.460328 0 120 255
117.963023 -230.310117 -345.245524 0 120 255
120.331596 -230.292499 -345.960674 0 120 255
122.700168 -230.274881 -346.675825 0 120 255
125.068740 -230.257263 -347.390975 0 120 255
127.446799 -230.225993 -348.071263 0 120 255
129.843647 -230.167682 -348.682496 0 120 255
132.240495 -230.109371 -349.293729 0 120 255
134.637343 -230.051059 -349.904962 0 120 255
137.040295 -229.980145 -350.488344 0 120 255
139.457954 -229.878869 -351.004636 0 120 255
141.875612 -229.777594 -351.520927 0 120 255
144.293270 -229.676319 -352.037219 0 120 255
146.714591 -229.564204 -352.531938 0 120 255
149.146827 -229.419776 -352.962349 0 120 255
151.579063 -229.275349 -353.392761 0 120 255
154.011299 -229.130921 -353.823173 0 120 255
156.445532 -228.977860 -354.237535 0 120 255
158.887322 -228.792125 -354.591156 0 120 255
161.329113 -228.606391 -354.944776 0 120 255
163.770903 -228.420656 -355.298397 0 120 255
166.213638 -228.228922 -355.641007 0 120 255
168.661088 -228.007221 -355.928622 0 120 255
171.108538 -227.785519 -356.216238 0 120 255
173.555988 -227.563818 -356.503853 0 120 255
176.003411 -227.340901 -356.790738 0 120 255
178.450639 -227.109462 -357.072512 0 120 255
180.897867 -226.878023 -357.354285 0 120 255
183.345095 -226.646584 -357.636059 0 120 255
185.792323 -226.415144 -357.917833 0 120 255
188.239549 -226.183694 -358.199619 0 120 255
190.686774 -225.952244 -358.481405 0 120 255
193.134000 -225.720794 -358.763191 0 120 255
195.581226 -225.489344 -359.044977 0 120 255
198.028453 -225.257898 -359.326755 0 120 255
200.475679 -225.026452 -359.608534 0 120 255
202.922906 -224.795006 -359.890312 0 120 255
205.370133 -224.563560 -360.172091 0 120 255
