ply
format ascii 1.0
element vertex 385
property float x
property float y
property float z
property uchar red
property uchar green
property uchar blue
end_header
77.430455 -42.474882 -360.397637 0 120 255
77.187568 -42.528708 -357.936085 0 120 255
76.944680 -42.582534 -355.474533 0 120 255
76.701792 -42.636360 -353.012981 0 120 255
76.458904 -42.690186 -350.551429 0 120 255
76.211244 -42.753563 -348.090581 0 120 255
75.963375 -42.817357 -345.629763 0 120 255
75.715506 -42.881151 -343.168946 0 120 255
75.467637 -42.944946 -340.708129 0 120 255
75.285591 -43.312298 -338.270034 0 120 255
75.109472 -43.706988 -335.833986 0 120 255
74.933354 -44.101678 -333.397937 0 120 255
74.757235 -44.496368 -330.961889 0 120 255
74.643345 -45.165570 -328.585215 0 120 255
74.538288 -45.873746 -326.216971 0 120 255
74.433232 -46.581921 -323.848727 0 120 255
74.328176 -47.290097 -321.480483 0 120 255
74.278181 -48.246675 -319.202541 0 120 255
74.239194 -49.252907 -316.942650 0 120 255
74.200206 -50.259140 -314.682759 0 120 255
74.161218 -51.265372 -312.422868 0 120 255
74.171454 -52.490252 -310.277189 0 120 255
74.194724 -53.773026 -308.161750 0 120 255
74.217993 -55.055799 -306.046312 0 120 255
74.241263 -56.338573 -303.930873 0 120 255
74.309209 -57.808378 -301.946460 0 120 255
74.392249 -59.341369 -300.006313 0 120 255
74.475289 -60.874360 -298.066165 0 120 255
74.558329 -62.407352 -296.126018 0 120 255
74.682690 -64.095499 -294.326960 0 120 255
74.824432 -65.848903 -292.587244 0 120 255
74.966173 -67.602307 -290.847527 0 120 255
75.107914 -69.355711 -289.107811 0 120 255
75.288648 -71.233427 -287.513107 0 120 255
75.489459 -73.175147 -285.993064 0 120 255
75.690269 -75.116866 -284.473021 0 120 255
75.891079 -77.058585 -282.952977 0 120 255
76.129364 -79.095835 -281.576551 0 120 255
76.391000 -81.192610 -280.289612 0 120 255
76.652636 -83.289385 -279.002673 0 120 255
76.914272 -85.386159 -277.715733 0 120 255
77.212456 -87.552473 -276.566618 0 120 255
77.537995 -89.770831 -275.520654 0 120 255
77.863534 -91.989189 -274.474689 0 120 255
78.189073 -94.207547 -273.428725 0 120 255
78.550572 -96.472698 -272.511322 0 120 255
78.944257 -98.779731 -271.708986 0 120 255
79.337941 -101.086764 -270.906650 0 120 255
79.731626 -103.393796 -270.104314 0 120 255
80.160804 -105.728356 -269.418712 0 120 255
80.627911 -108.092331 -268.857852 0 120 255
81.095019 -110.456305 -268.296992 0 120 255
81.562126 -112.820280 -267.736132 0 120 255
82.064162 -115.196054 -267.278473 0 120 255
82.610805 -117.586895 -266.952606 0 120 255
83.157447 -119.977737 -266.626739 0 120 255
83.704089 -122.368578 -266.300872 0 120 255
84.284813 -124.758937 -266.063730 0 120 255
84.917741 -127.148557 -265.962490 0 120 255
85.550668 -129.538177 -265.861251 0 120 255
86.183596 -131.927797 -265.760011 0 120 255
86.849312 -134.307909 -265.732742 0 120 255
87.575675 -136.670434 -265.842293 0 120 255
88.302038 -139.032959 -265.951844 0 120 255
89.028401 -141.395484 -266.061394 0 120 255
89.785695 -143.742471 -266.230468 0 120 255
90.612813 -146.054382 -266.533908 0 120 255
91.439931 -148.366292 -266.837347 0 120 255
92.267048 -150.678203 -267.140786 0 120 255
93.122593 -152.971238 -267.490094 0 120 255
94.057694 -155.211448 -267.967771 0 120 255
94.992795 -157.451659 -268.445448 0 120 255
95.927895 -159.691869 -268.923124 0 120 255
96.888233 -161.912224 -269.434266 0 120 255
97.938184 -164.062077 -270.064236 0 120 255
98.988136 -166.211931 -270.694207 0 120 255
100.038087 -168.361784 -271.324177 0 120 255
101.109399 -170.492837 -271.976763 0 120 255
102.280407 -172.536143 -272.734899 0 120 255
103.451415 -174.579449 -273.493035 0 120 255
104.622422 -176.622756 -274.251171 0 120 255
105.810286 -178.650002 -275.022956 0 120 255
107.107615 -180.572952 -275.883381 0 120 255
108.404945 -182.495901 -276.743807 0 120 255
109.702275 -184.418850 -277.604233 0 120 255
111.011422 -186.329848 -278.471444 0 120 255
112.439058 -188.121018 -279.406696 0 120 255
113.866693 -189.912189 -280.341947 0 120 255
115.294329 -191.703359 -281.277198 0 120 255
116.728369 -193.487731 -282.214673 0 120 255
118.288700 -195.138033 -283.195999 0 120 255
119.849031 -196.788334 -284.177326 0 120 255
121.409362 -198.438636 -285.158652 0 120 255
122.970510 -200.088031 -286.140079 0 120 255
124.664011 -201.590655 -287.137729 0 120 255
126.357512 -203.093280 -288.135378 0 120 255
128.051013 -204.595904 -289.133028 0 120 255
129.744514 -206.098529 -290.130677 0 120 255
131.564707 -207.454373 -291.114709 0 120 255
133.389581 -208.804793 -292.098237 0 120 255
135.214456 -210.155213 -293.081766 0 120 255
137.039330 -211.505634 -294.065294 0 120 255
138.981439 -212.713466 -295.007365 0 120 255
140.933337 -213.909391 -295.945973 0 120 255
142.885236 -215.105316 -296.884581 0 120 255
144.837134 -216.301241 -297.823190 0 120 255
146.894687 -217.360876 -298.695082 0 120 255
148.966396 -218.402252 -299.558037 0 120 255
151.038104 -219.443628 -300.420992 0 120 255
153.109812 -220.485004 -301.283946 0 120 255
155.273617 -221.398205 -302.057857 0 120 255
157.454818 -222.287196 -302.814950 0 120 255
159.636019 -223.176187 -303.572043 0 120 255
161.817219 -224.065178 -304.329135 0 120 255
164.075200 -224.835624 -304.978131 0 120 255
166.352286 -225.576572 -305.600229 0 120 255
168.629371 -226.317521 -306.222327 0 120 255
170.906457 -227.058469 -306.844426 0 120 255
173.243545 -227.691756 -307.342937 0 120 255
175.599507 -228.291177 -307.802575 0 120 255
177.955469 -228.890599 -308.262212 0 120 255
180.311431 -229.490020 -308.721849 0 120 255
182.709560 -229.993584 -309.046207 0 120 255
185.124004 -230.460058 -309.318219 0 120 255
187.538449 -230.926531 -309.590231 0 120 255
189.952893 -231.393004 -309.862243 0 120 255
192.391066 -231.776073 -309.991225 0 120 255
194.840321 -232.120188 -310.053405 0 120 255
197.289575 -232.464302 -310.115584 0 120 255
199.738830 -232.808416 -310.177764 0 120 255
202.193304 -233.081885 -310.093259 0 120 255
204.650682 -233.316053 -309.927154 0 120 255
207.108059 -233.550221 -309.761049 0 120 255
209.565437 -233.784389 -309.594944 0 120 255
212.009945 -233.962592 -309.282610 0 120 255
214.446006 -234.104059 -308.874289 0 120 255
216.882066 -234.245525 -308.465967 0 120 255
219.318127 -234.386992 -308.057646 0 120 255
221.724117 -234.489594 -307.506138 0 120 255
224.106942 -234.562258 -306.844326 0 120 255
226.489767 -234.634921 -306.182515 0 120 255
228.872592 -234.707584 -305.520704 0 120 255
231.210575 -234.745972 -304.724288 0 120 255
233.508119 -234.753450 -303.806481 0 120 255
235.805662 -234.760927 -302.888675 0 120 255
238.103205 -234.768405 -301.970869 0 120 255
240.343626 -234.743267 -300.931259 0 120 255
242.523759 -234.683706 -299.763097 0 120 255
244.703893 -234.624145 -298.594936 0 120 255
246.884026 -234.564584 -297.426775 0 120 255
248.996944 -234.478124 -296.150700 0 120 255
251.026799 -234.358423 -294.741272 0 120 255
253.056655 -234.238723 -293.331843 0 120 255
255.086510 -234.119023 -291.922415 0 120 255
257.041995 -233.978104 -290.420341 0 120 255
258.889618 -233.806411 -288.783899 0 120 255
260.737240 -233.634718 -287.147457 0 120 255
262.584863 -233.463025 -285.511015 0 120 255
264.354212 -233.275313 -283.798019 0 120 255
265.989669 -233.060199 -281.954073 0 120 255
267.625126 -232.845085 -280.110127 0 120 255
269.260583 -232.629972 -278.266182 0 120 255
270.817224 -232.403449 -276.361875 0 120 255
272.213621 -232.153729 -274.334846 0 120 255
273.610018 -231.904009 -272.307818 0 120 255
275.006415 -231.654289 -270.280789 0 120 255
276.326723 -231.397097 -268.208937 0 120 255
277.461038 -231.121640 -266.027519 0 120 255
278.595352 -230.846183 -263.846101 0 120 255
279.729667 -230.570726 -261.664684 0 120 255
280.793622 -230.291003 -259.452617 0 120 255
281.647406 -229.998540 -257.149001 0 120 255
282.501189 -229.706076 -254.845384 0 120 255
283.354973 -229.413613 -252.541768 0 120 255
284.146713 -229.119335 -250.219698 0 120 255
284.706585 -228.818274 -247.828666 0 120 255
285.266457 -228.517213 -245.437634 0 120 255
285.826329 -228.216153 -243.046601 0 120 255
286.334542 -227.914971 -240.646842 0 120 255
286.592554 -227.613205 -238.204815 0 120 255
286.850567 -227.311439 -235.762787 0 120 255
287.108579 -227.009673 -233.320760 0 120 255
287.326753 -226.708760 -230.876907 0 120 255
287.280445 -226.413511 -228.420932 0 120 255
287.234137 -226.118262 -225.964957 0 120 255
287.187829 -225.823013 -223.508982 0 120 255
287.114270 -225.528935 -221.055065 0 120 255
286.766521 -225.246642 -218.621855 0 120 255
286.418771 -224.964348 -216.188645 0 120 255
286.071022 -224.682055 -213.755435 0 120 255
285.708718 -224.400679 -211.325114 0 120 255
285.067536 -224.136892 -208.950155 0 120 255
284.426354 -223.873104 -206.575196 0 120 255
283.785172 -223.609316 -204.200236 0 120 255
283.141606 -223.345724 -201.826056 0 120 255
282.219571 -223.105046 -199.542844 0 120 255
281.297536 -222.864367 -197.259633 0 120 255
280.375501 -222.623688 -194.976421 0 120 255
279.453466 -222.383010 -192.693209 0 120 255
278.275960 -222.168205 -190.528551 0 120 255
277.089757 -221.954282 -188.367929 0 120 255
275.903553 -221.740358 -186.207307 0 120 255
274.717349 -221.526435 -184.046685 0 120 255
273.305246 -221.339751 -182.025174 0 120 255
271.874925 -221.155263 -180.014881 0 120 255
270.444605 -220.970776 -178.004588 0 120 255
269.014284 -220.786288 -175.994295 0 120 255
267.388487 -220.629369 -174.138223 0 120 255
265.736882 -220.476089 -172.302511 0 120 255
264.085278 -220.322809 -170.466799 0 120 255
262.433674 -220.169529 -168.631087 0 120 255
260.616858 -220.043259 -166.959567 0 120 255
258.768833 -219.922090 -165.319064 0 120 255
256.920807 -219.800921 -163.678561 0 120 255
255.072782 -219.679753 -162.038058 0 120 255
253.088895 -219.584338 -160.566950 0 120 255
251.070742 -219.495419 -159.138565 0 120 255
249.052590 -219.406500 -157.710180 0 120 255
247.034438 -219.317580 -156.281794 0 120 255
244.908197 -219.252603 -155.023749 0 120 255
242.747043 -219.195358 -153.820725 0 120 255
240.585889 -219.138114 -152.617701 0 120 255
238.424736 -219.080870 -151.414677 0 120 255
236.181179 -219.045390 -150.379261 0 120 255
233.904437 -219.018676 -149.411343 0 120 255
231.627696 -218.991962 -148.443426 0 120 255
229.350954 -218.965247 -147.475509 0 120 255
227.015068 -218.957877 -146.669346 0 120 255
224.650015 -218.960046 -145.942951 0 120 255
222.284962 -218.962215 -145.216555 0 120 255
219.919909 -218.964384 -144.490159 0 120 255
217.516295 -218.983359 -143.917171 0 120 255
215.089681 -219.012357 -143.435676 0 120 255
212.663068 -219.041356 -142.954180 0 120 255
210.236455 -219.070354 -142.472685 0 120 255
207.789081 -219.113631 -142.134290 0 120 255
205.326853 -219.167124 -141.898276 0 120 255
202.864625 -219.220616 -141.662261 0 120 255
200.402398 -219.274109 -141.426247 0 120 255
197.934397 -219.339420 -141.321602 0 120 255
195.461466 -219.414826 -141.329157 0 120 255
192.988535 -219.490231 -141.336713 0 120 255
190.515605 -219.565637 -141.344269 0 120 255
188.049127 -219.650562 -141.470515 0 120 255
185.589217 -219.745175 -141.717536 0 120 255
183.129307 -219.839787 -141.964558 0 120 255
180.669396 -219.934400 -142.211579 0 120 255
178.225505 -220.036431 -142.564061 0 120 255
175.801045 -220.147462 -143.044475 0 120 255
173.376585 -220.258493 -143.524889 0 120 255
170.952126 -220.369524 -144.005303 0 120 255
168.550732 -220.486120 -144.577781 0 120 255
166.182806 -220.610790 -145.283834 0 120 255
163.814880 -220.735461 -145.989888 0 120 255
161.446953 -220.860132 -146.695942 0 120 255
159.106788 -220.988759 -147.480795 0 120 255
156.815106 -221.124296 -148.403267 0 120 255
154.523425 -221.259834 -149.325740 0 120 255
152.231743 -221.395371 -150.248212 0 120 255
149.970348 -221.533536 -151.236614 0 120 255
147.773259 -221.677280 -152.365007 0 120 255
145.576171 -221.821024 -153.493400 0 120 255
143.379083 -221.964768 -154.621793 0 120 255
141.212819 -222.110069 -155.803856 0 120 255
139.127330 -222.259449 -157.126562 0 120 255
137.041840 -222.408829 -158.449267 0 120 255
134.956351 -222.558209 -159.771973 0 120 255
132.900428 -222.708340 -161.136887 0 120 255
130.942246 -222.860955 -162.641334 0 120 255
128.984064 -223.013570 -164.145781 0 120 255
127.025882 -223.166185 -165.650229 0 120 255
125.094389 -223.318988 -167.186365 0 120 255
123.277952 -223.472600 -168.859114 0 120 255
121.461515 -223.626213 -170.531864 0 120 255
119.645078 -223.779825 -172.204613 0 120 255
117.851011 -223.933284 -173.899607 0 120 255
116.189540 -224.085831 -175.726455 0 120 255
114.528069 -224.238377 -177.553303 0 120 255
112.866597 -224.390924 -179.380150 0 120 255
111.221902 -224.543178 -181.220980 0 120 255
109.727444 -224.692812 -183.187026 0 120 255
108.232986 -224.842447 -185.153071 0 120 255
106.738528 -224.992081 -187.119116 0 120 255
105.254136 -225.141457 -189.092158 0 120 255
103.937576 -225.286531 -191.181836 0 120 255
102.621016 -225.431605 -193.271513 0 120 255
101.304456 -225.576679 -195.361191 0 120 255
99.990295 -225.721677 -197.452243 0 120 255
98.861387 -225.860756 -199.649366 0 120 255
97.732478 -225.999836 -201.846490 0 120 255
96.603570 -226.138915 -204.043613 0 120 255
95.474661 -226.277994 -206.240737 0 120 255
94.535962 -226.410091 -208.525714 0 120 255
93.603339 -226.541964 -210.813498 0 120 255
92.670716 -226.673837 -213.101281 0 120 255
91.738093 -226.805710 -215.389065 0 120 255
90.994027 -226.929994 -217.744656 0 120 255
90.265167 -227.053667 -220.105714 0 120 255
89.536306 -227.177339 -222.466773 0 120 255
88.807445 -227.301011 -224.827831 0 120 255
88.263834 -227.416764 -227.237663 0 120 255
87.745054 -227.531455 -229.654033 0 120 255
87.226274 -227.646146 -232.070403 0 120 255
86.707495 -227.760837 -234.486773 0 120 255
86.369108 -227.867508 -236.933970 0 120 255
86.065511 -227.972634 -239.387113 0 120 255
85.761914 -228.077759 -241.840255 0 120 255
85.458317 -228.182884 -244.293398 0 120 255
85.328822 -228.280101 -246.760587 0 120 255
85.244230 -228.375279 -249.231400 0 120 255
85.159639 -228.470456 -251.702213 0 120 255
85.075047 -228.565633 -254.173025 0 120 255
85.156941 -228.653200 -256.642353 0 120 255
85.293822 -228.738254 -259.111191 0 120 255
85.430703 -228.823308 -261.580029 0 120 255
85.567585 -228.908361 -264.048866 0 120 255
85.862117 -228.986232 -266.502022 0 120 255
86.221478 -229.061149 -268.948730 0 120 255
86.580840 -229.136066 -271.395437 0 120 255
86.940201 -229.210983 -273.842144 0 120 255
87.447280 -229.279248 -276.260398 0 120 255
88.028556 -229.344173 -278.664360 0 120 255
88.609832 -229.409098 -281.068322 0 120 255
89.191107 -229.474023 -283.472284 0 120 255
89.909152 -229.533012 -285.836551 0 120 255
90.710017 -229.588408 -288.176781 0 120 255
91.510882 -229.643804 -290.517011 0 120 255
92.311747 -229.699200 -292.857241 0 120 255
93.237505 -229.751018 -295.148172 0 120 255
94.253639 -229.800247 -297.403427 0 120 255
95.269774 -229.849476 -299.658683 0 120 255
96.285908 -229.898705 -301.913939 0 120 255
97.414392 -229.946646 -304.112047 0 120 255
98.639563 -229.993478 -306.260975 0 120 255
99.864733 -230.040309 -308.409904 0 120 255
101.089904 -230.087141 -310.558832 0 120 255
102.414808 -230.129096 -312.644435 0 120 255
103.841441 -230.166077 -314.665445 0 120 255
105.268074 -230.203058 -316.686454 0 120 255
106.694707 -230.240040 -318.707464 0 120 255
108.208097 -230.268556 -320.660734 0 120 255
109.826170 -230.286858 -322.532267 0 120 255
111.444243 -230.305160 -324.403800 0 120 255
113.062316 -230.323462 -326.275333 0 120 255
114.753885 -230.332165 -328.076649 0 120 255
116.550551 -230.327143 -329.777560 0 120 255
118.347216 -230.322121 -331.478471 0 120 255
120.143882 -230.317100 -333.179382 0 120 255
122.000896 -230.301846 -334.809567 0 120 255
123.960625 -230.269180 -336.319377 0 120 255
125.920353 -230.236513 -337.829187 0 120 255
127.880082 -230.203846 -339.338997 0 120 255
129.887414 -230.160801 -340.779578 0 120 255
131.991874 -230.096581 -342.078906 0 120 255
134.096335 -230.032361 -343.378233 0 120 255
136.200795 -229.968140 -344.677561 0 120 255
138.340860 -229.893856 -345.911113 0 120 255
140.568976 -229.794683 -346.981996 0 120 255
142.797093 -229.695510 -348.052880 0 120 255
145.025209 -229.596337 -349.123764 0 120 255
147.278003 -229.487839 -350.134229 0 120 255
149.605964 -229.350933 -350.960658 0 120 255
151.933925 -229.214028 -351.787087 0 120 255
154.261885 -229.077123 -352.613516 0 120 255
156.605025 -228.931992 -353.386629 0 120 255
159.006459 -228.755271 -353.954972 0 120 255
161.407893 -228.578550 -354.523315 0 120 255
163.809327 -228.401828 -355.091659 0 120 255
166.218287 -228.218089 -355.614497 0 120 255
168.665010 -227.999141 -355.909010 0 120 255
171.111733 -227.780193 -356.203523 0 120 255
173.558456 -227.561245 -356.498036 0 120 255
176.005224 -227.340729 -356.790947 0 120 255
178.452301 -227.109304 -357.072703 0 120 255
180.899378 -226.877880 -357.354459 0 120 255
183.346455 -226.646455 -357.636215 0 120 255
185.793532 -226.415030 -357.917973 0 120 255
188.240606 -226.183594 -358.199741 0 120 255
190.687681 -225.952158 -358.481510 0 120 255
193.134755 -225.720722 -358.763278 0 120 255
195.581830 -225.489287 -359.045047 0 120 255
198.028906 -225.257855 -359.326808 0 120 255
200.475982 -225.026424 -359.608569 0 120 255
202.923057 -224.794992 -359.890330 0 120 255
205.370133 -224.563560 -360.172091 0 120 255
