ply
format ascii 1.0
element vertex 385
property float x
property float y
property float z
property uchar red
property uchar green
property uchar blue
end_header
77.430455 -42.474882 -360.397637 0 120 255
77.187598 -42.528701 -357.936392 0 120 255
76.944740 -42.582521 -355.475147 0 120 255
76.701883 -42.636340 -353.013902 0 120 255
76.459026 -42.690160 -350.552657 0 120 255
76.215354 -42.749998 -348.091632 0 120 255
75.971645 -42.810104 -345.630617 0 120 255
75.727937 -42.870209 -343.169602 0 120 255
75.484229 -42.930315 -340.708587 0 120 255
75.329246 -43.476042 -338.305451 0 120 255
75.182418 -44.066401 -335.907636 0 120 255
75.035590 -44.656759 -333.509820 0 120 255
74.888762 -45.247118 -331.112004 0 120 255
74.838052 -46.237632 -328.851840 0 120 255
74.801413 -47.286730 -326.611828 0 120 255
74.764774 -48.335829 -324.371816 0 120 255
74.728135 -49.384927 -322.131804 0 120 255
74.784823 -50.749499 -320.076359 0 120 255
74.860844 -52.179424 -318.059149 0 120 255
74.936866 -53.609349 -316.041938 0 120 255
75.012887 -55.039273 -314.024728 0 120 255
75.173980 -56.705688 -312.211471 0 120 255
75.358472 -58.437147 -310.454310 0 120 255
75.542963 -60.168605 -308.697148 0 120 255
75.727455 -61.900063 -306.939986 0 120 255
75.986461 -63.800213 -305.385785 0 120 255
76.271631 -65.759596 -303.902848 0 120 255
76.556802 -67.718978 -302.419912 0 120 255
76.841972 -69.678361 -300.936975 0 120 255
77.191050 -71.751783 -299.642491 0 120 255
77.568042 -73.875017 -298.430321 0 120 255
77.945034 -75.998252 -297.218152 0 120 255
78.322026 -78.121486 -296.005982 0 120 255
78.753617 -80.316966 -294.960001 0 120 255
79.214358 -82.551017 -294.002745 0 120 255
79.675098 -84.785067 -293.045489 0 120 255
80.135839 -87.019117 -292.088233 0 120 255
80.643837 -89.294863 -291.271375 0 120 255
81.182300 -91.597485 -290.545022 0 120 255
81.720762 -93.900108 -289.818669 0 120 255
82.259224 -96.202731 -289.092316 0 120 255
82.839693 -98.525673 -288.480051 0 120 255
83.452598 -100.864304 -287.955881 0 120 255
84.065503 -103.202935 -287.431710 0 120 255
84.678407 -105.541566 -286.907539 0 120 255
85.329945 -107.886149 -286.472422 0 120 255
86.017043 -110.236209 -286.119273 0 120 255
86.704141 -112.586270 -285.766125 0 120 255
87.391239 -114.936330 -285.412976 0 120 255
88.115052 -117.283064 -285.126231 0 120 255
88.879069 -119.626154 -284.912199 0 120 255
89.643086 -121.969244 -284.698167 0 120 255
90.407104 -124.312334 -284.484136 0 120 255
91.206846 -126.646297 -284.316724 0 120 255
92.053152 -128.968363 -284.210076 0 120 255
92.899458 -131.290430 -284.103428 0 120 255
93.745765 -133.612497 -283.996780 0 120 255
94.627178 -135.921882 -283.919995 0 120 255
95.563236 -138.211528 -283.889690 0 120 255
96.499294 -140.501175 -283.859385 0 120 255
97.435351 -142.790821 -283.829080 0 120 255
98.405735 -145.065608 -283.814851 0 120 255
99.440317 -147.312604 -283.830686 0 120 255
100.474898 -149.559601 -283.846521 0 120 255
101.509479 -151.806597 -283.862356 0 120 255
102.577001 -154.037391 -283.883330 0 120 255
103.719267 -156.231420 -283.915968 0 120 255
104.861534 -158.425450 -283.948605 0 120 255
106.003801 -160.619479 -283.981242 0 120 255
107.176676 -162.796552 -284.010753 0 120 255
108.435054 -164.926260 -284.031533 0 120 255
109.693431 -167.055968 -284.052314 0 120 255
110.951809 -169.185676 -284.073094 0 120 255
112.237350 -171.298245 -284.085050 0 120 255
113.618316 -173.350602 -284.066009 0 120 255
114.999283 -175.402960 -284.046968 0 120 255
116.380250 -177.455317 -284.027927 0 120 255
117.783836 -179.491078 -283.996819 0 120 255
119.290622 -181.451123 -283.910663 0 120 255
120.797408 -183.411168 -283.824506 0 120 255
122.304193 -185.371213 -283.738350 0 120 255
123.828192 -187.316183 -283.639266 0 120 255
125.459494 -189.167176 -283.459597 0 120 255
127.090796 -191.018169 -283.279928 0 120 255
128.722099 -192.869161 -283.100258 0 120 255
130.364795 -194.707845 -282.909097 0 120 255
132.113644 -196.431849 -282.610867 0 120 255
133.862493 -198.155853 -282.312638 0 120 255
135.611341 -199.879856 -282.014409 0 120 255
137.366003 -201.595754 -281.708270 0 120 255
139.218937 -203.174604 -281.268416 0 120 255
141.071871 -204.753453 -280.828561 0 120 255
142.924805 -206.332303 -280.388706 0 120 255
144.778991 -207.908727 -279.946430 0 120 255
146.715608 -209.325409 -279.344658 0 120 255
148.652225 -210.742091 -278.742887 0 120 255
150.588842 -212.158773 -278.141115 0 120 255
152.525459 -213.575455 -277.539343 0 120 255
154.517148 -214.820208 -276.763648 0 120 255
156.510294 -216.060411 -275.983350 0 120 255
158.503441 -217.300613 -275.203051 0 120 255
160.496588 -218.540816 -274.422753 0 120 255
162.511590 -219.606981 -273.464516 0 120 255
164.528147 -220.660766 -272.493620 0 120 255
166.544704 -221.714550 -271.522724 0 120 255
168.561261 -222.768335 -270.551828 0 120 255
170.565087 -223.651975 -269.404549 0 120 255
172.567389 -224.515239 -268.236145 0 120 255
174.569690 -225.378502 -267.067741 0 120 255
176.571991 -226.241766 -265.899337 0 120 255
178.527757 -226.945105 -264.561381 0 120 255
180.475474 -227.620785 -263.194100 0 120 255
182.423191 -228.296464 -261.826819 0 120 255
184.370908 -228.972144 -260.459538 0 120 255
186.241177 -229.504090 -258.934160 0 120 255
188.093520 -230.002769 -257.372192 0 120 255
189.945864 -230.501448 -255.810223 0 120 255
191.798207 -231.000128 -254.248255 0 120 255
193.546829 -231.376422 -252.543363 0 120 255
195.264739 -231.716478 -250.796151 0 120 255
196.982649 -232.056533 -249.048938 0 120 255
198.700558 -232.396589 -247.301726 0 120 255
200.294338 -232.639408 -245.429402 0 120 255
201.842437 -232.846443 -243.511036 0 120 255
203.390536 -233.053478 -241.592670 0 120 255
204.938635 -233.260513 -239.674304 0 120 255
206.348691 -233.397764 -237.650256 0 120 255
207.696844 -233.503723 -235.578817 0 120 255
209.044997 -233.609681 -233.507379 0 120 255
210.393151 -233.715640 -231.435940 0 120 255
211.596393 -233.782613 -229.279260 0 120 255
212.721529 -233.828573 -227.076634 0 120 255
213.846666 -233.874533 -224.874009 0 120 255
214.971803 -233.920493 -222.671384 0 120 255
215.951201 -233.953161 -220.403603 0 120 255
216.836984 -233.977290 -218.093969 0 120 255
217.722768 -234.001419 -215.784336 0 120 255
218.608551 -234.025548 -213.474702 0 120 255
219.348363 -234.043651 -211.118004 0 120 255
219.977088 -234.057168 -208.725490 0 120 255
220.605813 -234.070685 -206.332976 0 120 255
221.234538 -234.084202 -203.940461 0 120 255
221.719113 -234.092447 -201.518633 0 120 255
222.074172 -234.095955 -199.070465 0 120 255
222.429231 -234.099463 -196.622298 0 120 255
222.784290 -234.102971 -194.174131 0 120 255
223.000442 -234.101506 -191.713997 0 120 255
223.069432 -234.094772 -189.241185 0 120 255
223.138422 -234.088037 -186.768374 0 120 255
223.207412 -234.081303 -184.295562 0 120 255
223.146093 -234.069880 -181.826872 0 120 255
222.921826 -234.052594 -179.363337 0 120 255
222.697558 -234.035308 -176.899801 0 120 255
222.473290 -234.018021 -174.436265 0 120 255
222.130316 -233.996483 -171.990836 0 120 255
221.611550 -233.968647 -169.572218 0 120 255
221.092784 -233.940811 -167.153601 0 120 255
220.574017 -233.912976 -164.734984 0 120 255
219.950505 -233.881436 -162.345644 0 120 255
219.142196 -233.843361 -160.007955 0 120 255
218.333887 -233.805286 -157.670266 0 120 255
217.525577 -233.767211 -155.332577 0 120 255
216.628044 -233.726021 -153.032033 0 120 255
215.541240 -233.678221 -150.810282 0 120 255
214.454437 -233.630422 -148.588532 0 120 255
213.367634 -233.582622 -146.366781 0 120 255
212.207806 -233.532315 -144.186501 0 120 255
210.859194 -233.475528 -142.113430 0 120 255
209.510582 -233.418740 -140.040359 0 120 255
208.161970 -233.361953 -137.967288 0 120 255
206.756341 -233.303244 -135.936483 0 120 255
205.167533 -233.238361 -134.041468 0 120 255
203.578724 -233.173479 -132.146454 0 120 255
201.989915 -233.108596 -130.251440 0 120 255
200.359100 -233.042330 -128.396206 0 120 255
198.555678 -232.970382 -126.704434 0 120 255
196.752256 -232.898434 -125.012661 0 120 255
194.948834 -232.826486 -123.320888 0 120 255
193.116751 -232.753621 -121.663562 0 120 255
191.127221 -232.675722 -120.195466 0 120 255
189.137691 -232.597823 -118.727370 0 120 255
187.148162 -232.519924 -117.259274 0 120 255
185.141156 -232.441486 -115.818002 0 120 255
182.995844 -232.358784 -114.589019 0 120 255
180.850533 -232.276081 -113.360035 0 120 255
178.705221 -232.193379 -112.131052 0 120 255
176.551146 -232.110422 -110.919609 0 120 255
174.281142 -232.024098 -109.940205 0 120 255
172.011138 -231.937775 -108.960801 0 120 255
169.741134 -231.851452 -107.981396 0 120 255
167.468477 -231.765059 -107.009216 0 120 255
165.104696 -231.676267 -106.285161 0 120 255
162.740914 -231.587475 -105.561105 0 120 255
160.377133 -231.498683 -104.837049 0 120 255
158.013352 -231.409891 -104.112994 0 120 255
155.586643 -231.319724 -103.642247 0 120 255
153.159054 -231.229539 -103.175039 0 120 255
150.731466 -231.139353 -102.707830 0 120 255
148.303878 -231.049168 -102.240622 0 120 255
145.842888 -230.958647 -102.013798 0 120 255
143.379920 -230.868107 -101.801207 0 120 255
140.916952 -230.777566 -101.588617 0 120 255
138.453984 -230.687026 -101.376027 0 120 255
135.982983 -230.597031 -101.388261 0 120 255
133.511107 -230.507095 -101.424945 0 120 255
131.039232 -230.417159 -101.461629 0 120 255
128.567356 -230.327223 -101.498313 0 120 255
126.108693 -230.238540 -101.742547 0 120 255
123.652185 -230.150061 -102.020659 0 120 255
121.195678 -230.061581 -102.298771 0 120 255
118.739171 -229.973102 -102.576883 0 120 255
116.313195 -229.886438 -103.044340 0 120 255
113.894040 -229.800180 -103.554095 0 120 255
111.474885 -229.713922 -104.063850 0 120 255
109.055730 -229.627664 -104.573605 0 120 255
106.680810 -229.543655 -105.254234 0 120 255
104.318726 -229.460299 -105.984451 0 120 255
101.956643 -229.376943 -106.714668 0 120 255
99.594560 -229.293586 -107.444885 0 120 255
97.287175 -229.212790 -108.327753 0 120 255
94.999743 -229.132928 -109.266305 0 120 255
92.712312 -229.053065 -110.204858 0 120 255
90.424880 -228.973203 -111.143411 0 120 255
88.199765 -228.896108 -112.217000 0 120 255
86.002603 -228.820253 -113.351164 0 120 255
83.805441 -228.744399 -114.485328 0 120 255
81.608279 -228.668545 -115.619492 0 120 255
79.478598 -228.595591 -116.871953 0 120 255
77.385585 -228.524214 -118.188693 0 120 255
75.292572 -228.452836 -119.505432 0 120 255
73.199559 -228.381459 -120.822172 0 120 255
71.177107 -228.313038 -122.241504 0 120 255
69.200624 -228.246543 -123.727672 0 120 255
67.224141 -228.180048 -125.213840 0 120 255
65.247657 -228.113554 -126.700008 0 120 255
63.343061 -228.049997 -128.274189 0 120 255
61.494239 -227.988719 -129.916658 0 120 255
59.645417 -227.927442 -131.559127 0 120 255
57.796595 -227.866164 -133.201597 0 120 255
56.019500 -227.807781 -134.918647 0 120 255
54.308432 -227.752063 -136.704353 0 120 255
52.597365 -227.696344 -138.490060 0 120 255
50.886298 -227.640626 -140.275766 0 120 255
49.245533 -227.587700 -142.123754 0 120 255
47.681459 -227.537821 -144.039684 0 120 255
46.117386 -227.487943 -145.955614 0 120 255
44.553313 -227.438064 -147.871545 0 120 255
43.057038 -227.390845 -149.838572 0 120 255
41.648518 -227.347070 -151.871736 0 120 255
40.239998 -227.303295 -153.904901 0 120 255
38.831478 -227.259520 -155.938065 0 120 255
37.487313 -227.218241 -158.012224 0 120 255
36.242354 -227.180813 -160.149577 0 120 255
34.997394 -227.143384 -162.286930 0 120 255
33.752435 -227.105956 -164.424283 0 120 255
32.567541 -227.070835 -166.593576 0 120 255
31.493664 -227.039978 -168.821902 0 120 255
30.419786 -227.009121 -171.050228 0 120 255
29.345909 -226.978265 -173.278554 0 120 255
28.326972 -226.949499 -175.530774 0 120 255
27.431032 -226.925413 -177.836488 0 120 255
26.535093 -226.901328 -180.142202 0 120 255
25.639154 -226.877242 -182.447915 0 120 255
24.792244 -226.855005 -184.770508 0 120 255
24.080315 -226.837856 -187.139573 0 120 255
23.368386 -226.820707 -189.508637 0 120 255
22.656457 -226.803558 -191.877701 0 120 255
21.986943 -226.787997 -194.257714 0 120 255
21.464236 -226.777932 -196.675622 0 120 255
20.941528 -226.767867 -199.093529 0 120 255
20.418820 -226.757802 -201.511437 0 120 255
19.931332 -226.749042 -203.935509 0 120 255
19.602239 -226.746154 -206.387303 0 120 255
19.273146 -226.743266 -208.839096 0 120 255
18.944053 -226.740378 -211.290890 0 120 255
18.642494 -226.738503 -213.745262 0 120 255
18.510509 -226.742866 -216.215518 0 120 255
18.378524 -226.747229 -218.685774 0 120 255
18.246540 -226.751592 -221.156029 0 120 255
18.134022 -226.756665 -223.626536 0 120 255
18.201673 -226.768312 -226.099367 0 120 255
18.269324 -226.779959 -228.572197 0 120 255
18.336975 -226.791606 -231.045027 0 120 255
18.415764 -226.803656 -233.517095 0 120 255
18.684531 -226.822573 -235.976162 0 120 255
18.953298 -226.841490 -238.435229 0 120 255
19.222065 -226.860407 -240.894295 0 120 255
19.493504 -226.879419 -243.352957 0 120 255
19.963551 -226.905565 -245.781532 0 120 255
20.433597 -226.931710 -248.210107 0 120 255
20.903644 -226.957856 -250.638681 0 120 255
21.373690 -226.984001 -253.067256 0 120 255
22.037866 -227.017049 -255.449734 0 120 255
22.707795 -227.050302 -257.830845 0 120 255
23.377723 -227.083555 -260.211957 0 120 255
24.047652 -227.116807 -262.593068 0 120 255
24.900396 -227.156502 -264.914282 0 120 255
25.767068 -227.196689 -267.230931 0 120 255
26.633741 -227.236875 -269.547581 0 120 255
27.500413 -227.277061 -271.864231 0 120 255
28.537062 -227.323173 -274.108891 0 120 255
29.595323 -227.370039 -276.344398 0 120 255
30.653584 -227.416905 -278.579904 0 120 255
31.711845 -227.463771 -280.815411 0 120 255
32.925835 -227.515998 -282.968879 0 120 255
34.168346 -227.569206 -285.107321 0 120 255
35.410857 -227.622415 -287.245764 0 120 255
36.653368 -227.675623 -289.384207 0 120 255
38.036272 -227.733614 -291.432867 0 120 255
39.453575 -227.792776 -293.459527 0 120 255
40.870879 -227.851939 -295.486187 0 120 255
42.288183 -227.911101 -297.512847 0 120 255
43.829813 -227.974436 -299.444500 0 120 255
45.410451 -228.039079 -301.346343 0 120 255
46.991089 -228.103723 -303.248186 0 120 255
48.571727 -228.168366 -305.150029 0 120 255
50.260366 -228.236577 -306.954236 0 120 255
51.991189 -228.306181 -308.720308 0 120 255
53.722012 -228.375786 -310.486380 0 120 255
55.452834 -228.445390 -312.252452 0 120 255
57.275551 -228.518008 -313.920819 0 120 255
59.142096 -228.592062 -315.542586 0 120 255
61.008642 -228.666117 -317.164352 0 120 255
62.875187 -228.740172 -318.786119 0 120 255
64.818195 -228.816713 -320.312510 0 120 255
66.805158 -228.894682 -321.784074 0 120 255
68.792122 -228.972652 -323.255637 0 120 255
70.779085 -229.050622 -324.727201 0 120 255
72.828108 -229.130562 -326.107927 0 120 255
74.919750 -229.211854 -327.426269 0 120 255
77.011393 -229.293147 -328.744610 0 120 255
79.103035 -229.374439 -330.062952 0 120 255
81.243635 -229.456320 -331.297046 0 120 255
83.424176 -229.538679 -332.462403 0 120 255
85.604718 -229.621038 -333.627760 0 120 255
87.785260 -229.703397 -334.793117 0 120 255
90.002682 -229.780507 -335.883984 0 120 255
92.255753 -229.852541 -336.902849 0 120 255
94.508823 -229.924575 -337.921714 0 120 255
96.761894 -229.996610 -338.940579 0 120 255
99.041838 -230.058387 -339.895580 0 120 255
101.352550 -230.108420 -340.777457 0 120 255
103.663262 -230.158453 -341.659335 0 120 255
105.973974 -230.208486 -342.541212 0 120 255
108.303638 -230.245542 -343.369642 0 120 255
110.659059 -230.264961 -344.125431 0 120 255
113.014481 -230.284380 -344.881219 0 120 255
115.369902 -230.303799 -345.637007 0 120 255
117.738124 -230.309134 -346.349366 0 120 255
120.127093 -230.291640 -346.991332 0 120 255
122.516063 -230.274146 -347.633297 0 120 255
124.905033 -230.256652 -348.275263 0 120 255
127.302184 -230.225238 -348.883134 0 120 255
129.715275 -230.166708 -349.424585 0 120 255
132.128366 -230.108178 -349.966035 0 120 255
134.541457 -230.049648 -350.507486 0 120 255
136.959405 -229.978340 -351.023281 0 120 255
139.388859 -229.876759 -351.478296 0 120 255
141.818312 -229.775179 -351.933310 0 120 255
144.247766 -229.673598 -352.388324 0 120 255
146.679814 -229.561083 -352.825060 0 120 255
149.119463 -229.416524 -353.208228 0 120 255
151.559112 -229.271965 -353.591396 0 120 255
153.998761 -229.127406 -353.974564 0 120 255
156.439576 -228.974182 -354.345674 0 120 255
158.884725 -228.788751 -354.671957 0 120 255
161.329875 -228.603319 -354.998241 0 120 255
163.775024 -228.417887 -355.324524 0 120 255
166.220506 -228.226395 -355.644143 0 120 255
168.667612 -228.005216 -355.931117 0 120 255
171.114718 -227.784038 -356.218090 0 120 255
173.561824 -227.562860 -356.505063 0 120 255
176.008888 -227.340382 -356.791369 0 120 255
178.455660 -227.108987 -357.073090 0 120 255
180.902431 -226.877591 -357.354811 0 120 255
183.349203 -226.646195 -357.636532 0 120 255
185.795975 -226.414799 -357.918254 0 120 255
188.242744 -226.183392 -358.199987 0 120 255
190.689513 -225.951985 -358.481721 0 120 255
193.136282 -225.720578 -358.763454 0 120 255
195.583051 -225.489171 -359.045187 0 120 255
198.029822 -225.257769 -359.326913 0 120 255
200.476592 -225.026366 -359.608639 0 120 255
202.923363 -224.794963 -359.890365 0 120 255
205.370133 -224.563560 -360.172091 0 120 255
