ply
format ascii 1.0
element vertex 385
property float x
property float y
property float z
property uchar red
property uchar green
property uchar blue
end_header
77.430455 -42.474882 -360.397637 0 120 255
77.187551 -42.528712 -357.935920 0 120 255
76.944647 -42.582541 -355.474204 0 120 255
76.701744 -42.636371 -353.012488 0 120 255
76.458840 -42.690201 -350.550772 0 120 255
76.213709 -42.754696 -348.089534 0 120 255
75.968482 -42.819654 -345.628316 0 120 255
75.723254 -42.884612 -343.167099 0 120 255
75.478027 -42.949571 -340.705882 0 120 255
75.068477 -43.371589 -338.305520 0 120 255
74.643989 -43.826067 -335.910691 0 120 255
74.219501 -44.280545 -333.515862 0 120 255
73.795014 -44.735023 -331.121033 0 120 255
73.243248 -45.440423 -328.817339 0 120 255
72.672701 -46.182850 -326.527093 0 120 255
72.102154 -46.925277 -324.236848 0 120 255
71.531606 -47.667704 -321.946602 0 120 255
70.871672 -48.585568 -319.747954 0 120 255
70.192961 -49.540286 -317.568548 0 120 255
69.514249 -50.495003 -315.389141 0 120 255
68.835538 -51.449721 -313.209735 0 120 255
68.104646 -52.528107 -311.107803 0 120 255
67.359181 -53.641033 -309.027508 0 120 255
66.613716 -54.753959 -306.947214 0 120 255
65.868251 -55.866884 -304.866919 0 120 255
65.104503 -57.072619 -302.846931 0 120 255
64.334238 -58.311430 -300.848435 0 120 255
63.563974 -59.550241 -298.849939 0 120 255
62.793709 -60.789052 -296.851443 0 120 255
62.033829 -62.105260 -294.899918 0 120 255
61.278550 -63.455750 -292.969199 0 120 255
60.523270 -64.806240 -291.038480 0 120 255
59.767990 -66.156731 -289.107761 0 120 255
59.045433 -67.578681 -287.217339 0 120 255
58.340583 -69.039295 -285.348720 0 120 255
57.635732 -70.499910 -283.480101 0 120 255
56.930882 -71.960525 -281.611482 0 120 255
56.274390 -73.490967 -279.783111 0 120 255
55.649493 -75.067032 -277.981037 0 120 255
55.024597 -76.643096 -276.178962 0 120 255
54.399701 -78.219161 -274.376888 0 120 255
53.832467 -79.863964 -272.619926 0 120 255
53.310399 -81.562606 -270.898297 0 120 255
52.788330 -83.261248 -269.176668 0 120 255
52.266261 -84.959890 -267.455039 0 120 255
51.805721 -86.724464 -265.785925 0 120 255
51.402731 -88.550704 -264.165927 0 120 255
50.999741 -90.376945 -262.545930 0 120 255
50.596752 -92.203185 -260.925932 0 120 255
50.254979 -94.089884 -259.366055 0 120 255
49.981503 -96.044031 -257.873250 0 120 255
49.708026 -97.998178 -256.380445 0 120 255
49.434550 -99.952325 -254.887641 0 120 255
49.219123 -101.958818 -253.460909 0 120 255
49.081064 -104.035078 -252.122242 0 120 255
48.943005 -106.111338 -250.783575 0 120 255
48.804946 -108.187599 -249.444907 0 120 255
48.720113 -110.306118 -248.175426 0 120 255
48.720406 -112.492224 -247.016595 0 120 255
48.720698 -114.678329 -245.857764 0 120 255
48.720991 -116.864434 -244.698932 0 120 255
48.768973 -119.081684 -243.608977 0 120 255
48.909164 -121.359153 -242.652198 0 120 255
49.049356 -123.636623 -241.695418 0 120 255
49.189548 -125.914092 -240.738639 0 120 255
49.371787 -128.211599 -239.846992 0 120 255
49.653463 -130.556494 -239.109378 0 120 255
49.935139 -132.901388 -238.371763 0 120 255
50.216814 -135.246283 -237.634148 0 120 255
50.535065 -137.601062 -236.954848 0 120 255
50.960917 -139.984924 -236.447108 0 120 255
51.386768 -142.368786 -235.939368 0 120 255
51.812620 -144.752648 -235.431629 0 120 255
52.269746 -147.138000 -234.972984 0 120 255
52.844241 -149.528943 -234.698587 0 120 255
53.418736 -151.919886 -234.424190 0 120 255
53.993231 -154.310829 -234.149793 0 120 255
54.593680 -156.697231 -233.913691 0 120 255
55.323248 -159.061041 -233.868101 0 120 255
56.052817 -161.424851 -233.822512 0 120 255
56.782385 -163.788661 -233.776922 0 120 255
57.532288 -166.144681 -233.758228 0 120 255
58.425045 -168.445973 -233.928482 0 120 255
59.317801 -170.747266 -234.098737 0 120 255
60.210558 -173.048558 -234.268991 0 120 255
61.117460 -175.341811 -234.455186 0 120 255
62.182423 -177.545237 -234.819484 0 120 255
63.247386 -179.748664 -235.183783 0 120 255
64.312348 -181.952090 -235.548082 0 120 255
65.384545 -184.150244 -235.918910 0 120 255
66.630453 -186.221785 -236.446524 0 120 255
67.876362 -188.293326 -236.974137 0 120 255
69.122270 -190.364868 -237.501751 0 120 255
70.368178 -192.436409 -238.029365 0 120 255
71.801571 -194.345108 -238.680558 0 120 255
73.235318 -196.253500 -239.331985 0 120 255
74.669065 -198.161892 -239.983412 0 120 255
76.102812 -200.070284 -240.634838 0 120 255
77.719369 -201.796761 -241.359202 0 120 255
79.344231 -203.514975 -242.086879 0 120 255
80.969093 -205.233188 -242.814555 0 120 255
82.593954 -206.951402 -243.542232 0 120 255
84.391687 -208.476163 -244.289853 0 120 255
86.205423 -209.983017 -245.039321 0 120 255
88.019160 -211.489870 -245.788789 0 120 255
89.832896 -212.996723 -246.538256 0 120 255
91.803490 -214.306672 -247.254821 0 120 255
93.796648 -215.588297 -247.966653 0 120 255
95.789806 -216.869923 -248.678486 0 120 255
97.782964 -218.151548 -249.390318 0 120 255
99.910593 -219.241121 -250.019296 0 120 255
102.065096 -220.292314 -250.631716 0 120 255
104.219598 -221.343508 -251.244136 0 120 255
106.374101 -222.394701 -251.856557 0 120 255
108.634763 -223.266647 -252.341840 0 120 255
110.923166 -224.091752 -252.793899 0 120 255
113.211570 -224.916857 -253.245959 0 120 255
115.499973 -225.741962 -253.698019 0 120 255
117.861409 -226.407705 -253.986945 0 120 255
120.246886 -227.020988 -254.222169 0 120 255
122.632363 -227.634270 -254.457393 0 120 255
125.017840 -228.247553 -254.692617 0 120 255
127.440183 -228.726945 -254.739012 0 120 255
129.877443 -229.152164 -254.709006 0 120 255
132.314703 -229.577384 -254.678999 0 120 255
134.751963 -230.002603 -254.648992 0 120 255
137.189069 -230.323088 -254.416076 0 120 255
139.626101 -230.592357 -254.083936 0 120 255
142.063133 -230.861627 -253.751796 0 120 255
144.500165 -231.130897 -253.419657 0 120 255
146.901525 -231.326438 -252.882372 0 120 255
149.282046 -231.478908 -252.225243 0 120 255
151.662567 -231.631378 -251.568113 0 120 255
154.043088 -231.783848 -250.910983 0 120 255
156.356279 -231.892831 -250.057689 0 120 255
158.622835 -231.971693 -249.068521 0 120 255
160.889391 -232.050555 -248.079353 0 120 255
163.155947 -232.129417 -247.090186 0 120 255
165.329049 -232.186990 -245.922803 0 120 255
167.425746 -232.227156 -244.609717 0 120 255
169.522443 -232.267323 -243.296631 0 120 255
171.619140 -232.307489 -241.983545 0 120 255
173.601597 -232.333553 -240.515473 0 120 255
175.474021 -232.346033 -238.898125 0 120 255
177.346446 -232.358513 -237.280776 0 120 255
179.218871 -232.370993 -235.663427 0 120 255
180.962612 -232.374300 -233.918712 0 120 255
182.560419 -232.367204 -232.029556 0 120 255
184.158226 -232.360108 -230.140401 0 120 255
185.756034 -232.353012 -228.251245 0 120 255
187.218186 -232.341583 -226.264647 0 120 255
188.498826 -232.324355 -224.147665 0 120 255
189.779466 -232.307127 -222.030684 0 120 255
191.060106 -232.289899 -219.913702 0 120 255
192.205450 -232.271445 -217.728877 0 120 255
193.136230 -232.251048 -215.436459 0 120 255
194.067009 -232.230650 -213.144041 0 120 255
194.997789 -232.210252 -210.851623 0 120 255
195.800244 -232.190293 -208.518535 0 120 255
196.359717 -232.171165 -206.108437 0 120 255
196.919189 -232.152036 -203.698339 0 120 255
197.478661 -232.132908 -201.288241 0 120 255
197.922155 -232.114814 -198.860592 0 120 255
198.100565 -232.099083 -196.392825 0 120 255
198.278975 -232.083352 -193.925059 0 120 255
198.457385 -232.067622 -191.457293 0 120 255
198.535994 -232.052818 -188.989981 0 120 255
198.334905 -232.040614 -186.523939 0 120 255
198.133816 -232.028410 -184.057898 0 120 255
197.932728 -232.016205 -181.591856 0 120 255
197.650223 -232.004472 -179.138670 0 120 255
197.081541 -231.994392 -176.730674 0 120 255
196.512860 -231.984312 -174.322678 0 120 255
195.944178 -231.974232 -171.914681 0 120 255
195.313107 -231.964093 -169.526360 0 120 255
194.397562 -231.953685 -167.227748 0 120 255
193.482018 -231.943277 -164.929136 0 120 255
192.566473 -231.932869 -162.630524 0 120 255
191.606860 -231.922000 -160.353242 0 120 255
190.372302 -231.908250 -158.209034 0 120 255
189.137745 -231.894501 -156.064827 0 120 255
187.903187 -231.880751 -153.920619 0 120 255
186.641096 -231.866383 -151.794936 0 120 255
185.120647 -231.846209 -149.843072 0 120 255
183.600197 -231.826034 -147.891208 0 120 255
182.079748 -231.805860 -145.939344 0 120 255
180.545745 -231.785187 -143.999601 0 120 255
178.776063 -231.755832 -142.270639 0 120 255
177.006382 -231.726477 -140.541676 0 120 255
175.236700 -231.697122 -138.812714 0 120 255
173.464413 -231.667627 -137.086795 0 120 255
171.484047 -231.627008 -135.604079 0 120 255
169.503681 -231.586389 -134.121363 0 120 255
167.523315 -231.545770 -132.638647 0 120 255
165.542949 -231.505151 -131.155931 0 120 255
163.396100 -231.452493 -129.928180 0 120 255
161.244153 -231.399466 -128.708238 0 120 255
159.092206 -231.346440 -127.488296 0 120 255
156.940259 -231.293413 -126.268354 0 120 255
154.664817 -231.228843 -125.301932 0 120 255
152.379813 -231.163379 -124.355138 0 120 255
150.094809 -231.097915 -123.408345 0 120 255
147.809805 -231.032451 -122.461551 0 120 255
145.439799 -230.957007 -121.761145 0 120 255
143.058849 -230.880278 -121.092461 0 120 255
140.677900 -230.803549 -120.423777 0 120 255
138.296950 -230.726819 -119.755093 0 120 255
135.864666 -230.642706 -119.321341 0 120 255
133.422871 -230.557224 -118.931117 0 120 255
130.981075 -230.471742 -118.540893 0 120 255
128.539280 -230.386260 -118.150669 0 120 255
126.074940 -230.297062 -117.980791 0 120 255
123.605013 -230.206943 -117.865522 0 120 255
121.135086 -230.116824 -117.750254 0 120 255
118.665160 -230.026705 -117.634985 0 120 255
116.196784 -229.937041 -117.723554 0 120 255
113.728901 -229.847521 -117.876808 0 120 255
111.261018 -229.758001 -118.030062 0 120 255
108.793135 -229.668482 -118.183316 0 120 255
106.346768 -229.580508 -118.523238 0 120 255
103.908898 -229.493145 -118.936886 0 120 255
101.471028 -229.405781 -119.350534 0 120 255
99.033158 -229.318418 -119.764182 0 120 255
96.632975 -229.233115 -120.346721 0 120 255
94.250965 -229.148805 -121.010698 0 120 255
91.868954 -229.064495 -121.674674 0 120 255
89.486944 -228.980185 -122.338651 0 120 255
87.155310 -228.898283 -123.153524 0 120 255
84.852944 -228.817780 -124.056061 0 120 255
82.550577 -228.737276 -124.958599 0 120 255
80.248211 -228.656773 -125.861137 0 120 255
78.005760 -228.578942 -126.896763 0 120 255
75.804876 -228.502966 -128.024718 0 120 255
73.603992 -228.426990 -129.152674 0 120 255
71.403108 -228.351014 -130.280629 0 120 255
69.268820 -228.277885 -131.524304 0 120 255
67.189392 -228.207100 -132.863301 0 120 255
65.109964 -228.136315 -134.202299 0 120 255
63.030536 -228.065529 -135.541297 0 120 255
61.021813 -227.997681 -136.979326 0 120 255
59.082041 -227.932696 -138.513930 0 120 255
57.142270 -227.867712 -140.048534 0 120 255
55.202499 -227.802727 -141.583139 0 120 255
53.335218 -227.740695 -143.200946 0 120 255
51.551585 -227.682069 -144.914761 0 120 255
49.767952 -227.623443 -146.628577 0 120 255
47.984319 -227.564817 -148.342392 0 120 255
46.272866 -227.509073 -150.124591 0 120 255
44.660150 -227.457273 -152.000334 0 120 255
43.047434 -227.405472 -153.876077 0 120 255
41.434718 -227.353672 -155.751819 0 120 255
39.891994 -227.304626 -157.682279 0 120 255
38.463274 -227.260068 -159.701864 0 120 255
37.034554 -227.215510 -161.721448 0 120 255
35.605835 -227.170952 -163.741033 0 120 255
34.243232 -227.128957 -165.802935 0 120 255
33.009819 -227.091968 -167.947526 0 120 255
31.776406 -227.054980 -170.092117 0 120 255
30.542993 -227.017992 -172.236709 0 120 255
29.370352 -226.983336 -174.412614 0 120 255
28.341774 -226.954211 -176.662754 0 120 255
27.313196 -226.925086 -178.912893 0 120 255
26.284618 -226.895961 -181.163032 0 120 255
25.310194 -226.868890 -183.434977 0 120 255
24.494079 -226.847825 -185.770670 0 120 255
23.677964 -226.826759 -188.106362 0 120 255
22.861850 -226.805694 -190.442055 0 120 255
22.092220 -226.786374 -192.791638 0 120 255
21.494221 -226.773498 -195.192509 0 120 255
20.896222 -226.760623 -197.593379 0 120 255
20.298222 -226.747747 -199.994249 0 120 255
19.738226 -226.736283 -202.402764 0 120 255
19.361957 -226.731645 -204.848239 0 120 255
18.985688 -226.727008 -207.293714 0 120 255
18.609419 -226.722370 -209.739189 0 120 255
18.262099 -226.718794 -212.187781 0 120 255
18.109056 -226.722346 -214.657298 0 120 255
17.956013 -226.725899 -217.126814 0 120 255
17.802970 -226.729451 -219.596331 0 120 255
17.669515 -226.733717 -222.066176 0 120 255
17.739070 -226.745380 -224.539428 0 120 255
17.808625 -226.757042 -227.012679 0 120 255
17.878181 -226.768705 -229.485931 0 120 255
17.957917 -226.780735 -231.958439 0 120 255
18.247305 -226.800345 -234.415636 0 120 255
18.536694 -226.819955 -236.872832 0 120 255
18.826082 -226.839565 -239.330029 0 120 255
19.116468 -226.859210 -241.787064 0 120 255
19.620927 -226.886523 -244.209195 0 120 255
20.125386 -226.913836 -246.631327 0 120 255
20.629845 -226.941148 -249.053459 0 120 255
21.134304 -226.968461 -251.475591 0 120 255
21.839387 -227.002888 -253.846660 0 120 255
22.552185 -227.037588 -256.215765 0 120 255
23.264983 -227.072288 -258.584871 0 120 255
23.977782 -227.106988 -260.953977 0 120 255
24.874687 -227.148158 -263.258876 0 120 255
25.787322 -227.189881 -265.558289 0 120 255
26.699958 -227.231604 -267.857703 0 120 255
27.612594 -227.273327 -270.157116 0 120 255
28.692176 -227.320850 -272.381888 0 120 255
29.794613 -227.369167 -274.596441 0 120 255
30.897050 -227.417484 -276.810993 0 120 255
31.999488 -227.465801 -279.025546 0 120 255
33.251466 -227.519257 -281.157680 0 120 255
34.532383 -227.573709 -283.273864 0 120 255
35.813299 -227.628160 -285.390047 0 120 255
37.094216 -227.682611 -287.506231 0 120 255
38.507370 -227.741550 -289.534782 0 120 255
39.954390 -227.801638 -291.540890 0 120 255
41.401411 -227.861726 -293.546998 0 120 255
42.848431 -227.921814 -295.553105 0 120 255
44.410843 -227.985771 -297.468757 0 120 255
46.010832 -228.050987 -299.354951 0 120 255
47.610821 -228.116204 -301.241145 0 120 255
49.210810 -228.181420 -303.127339 0 120 255
50.910110 -228.249928 -304.922416 0 120 255
52.649473 -228.319763 -306.680735 0 120 255
54.388836 -228.389598 -308.439054 0 120 255
56.128199 -228.459434 -310.197374 0 120 255
57.951769 -228.532065 -311.865852 0 120 255
59.816674 -228.606070 -313.490227 0 120 255
61.681580 -228.680075 -315.114603 0 120 255
63.546486 -228.754079 -316.738979 0 120 255
65.481695 -228.830530 -318.276408 0 120 255
67.458389 -228.908423 -319.762530 0 120 255
69.435084 -228.986316 -321.248652 0 120 255
71.411778 -229.064209 -322.734774 0 120 255
73.446140 -229.144111 -324.138266 0 120 255
75.521071 -229.225426 -325.483627 0 120 255
77.596002 -229.306741 -326.828988 0 120 255
79.670933 -229.388057 -328.174349 0 120 255
81.792047 -229.469867 -329.442984 0 120 255
83.951699 -229.552090 -330.647596 0 120 255
86.111350 -229.634314 -331.852209 0 120 255
88.271002 -229.716537 -333.056821 0 120 255
90.466159 -229.793306 -334.193253 0 120 255
92.696369 -229.864689 -335.262370 0 120 255
94.926580 -229.936072 -336.331486 0 120 255
97.156791 -230.007455 -337.400603 0 120 255
99.413655 -230.068779 -338.410402 0 120 255
101.701654 -230.118350 -339.350908 0 120 255
103.989653 -230.167921 -340.291414 0 120 255
106.277651 -230.217492 -341.231920 0 120 255
108.585138 -230.254369 -342.121743 0 120 255
110.919622 -230.273659 -342.941352 0 120 255
113.254106 -230.292949 -343.760961 0 120 255
115.588590 -230.312239 -344.580571 0 120 255
117.936832 -230.317680 -345.357796 0 120 255
120.307792 -230.300255 -346.065039 0 120 255
122.678752 -230.282829 -346.772282 0 120 255
125.049712 -230.265403 -347.479526 0 120 255
127.429968 -230.234207 -348.152154 0 120 255
129.828667 -230.175695 -348.756114 0 120 255
132.227365 -230.117182 -349.360074 0 120 255
134.626064 -230.058669 -349.964034 0 120 255
137.030702 -229.987469 -350.540485 0 120 255
139.449665 -229.885666 -351.050582 0 120 255
141.868628 -229.783863 -351.560680 0 120 255
144.287592 -229.682060 -352.070777 0 120 255
146.710083 -229.569387 -352.559716 0 120 255
149.143104 -229.424273 -352.985508 0 120 255
151.576125 -229.279159 -353.411301 0 120 255
154.009145 -229.134045 -353.837093 0 120 255
156.444068 -228.980326 -354.247280 0 120 255
158.886193 -228.794008 -354.598358 0 120 255
161.328319 -228.607690 -354.949435 0 120 255
163.770444 -228.421372 -355.300512 0 120 255
166.213459 -228.229147 -355.641009 0 120 255
168.660917 -228.007391 -355.928619 0 120 255
171.108375 -227.785635 -356.216230 0 120 255
173.555833 -227.563879 -356.503840 0 120 255
176.003264 -227.340914 -356.790721 0 120 255
178.450505 -227.109474 -357.072496 0 120 255
180.897745 -226.878034 -357.354271 0 120 255
183.344985 -226.646594 -357.636046 0 120 255
185.792225 -226.415153 -357.917822 0 120 255
188.239463 -226.183702 -358.199610 0 120 255
190.686701 -225.952251 -358.481397 0 120 255
193.133939 -225.720800 -358.763184 0 120 255
195.581177 -225.489349 -359.044971 0 120 255
198.028416 -225.257902 -359.326751 0 120 255
200.475655 -225.026454 -359.608531 0 120 255
202.922894 -224.795007 -359.890311 0 120 255
205.370133 -224.563560 -360.172091 0 120 255
