ply
format ascii 1.0
element vertex 385
property float x
property float y
property float z
property uchar red
property uchar green
property uchar blue
end_header
77.430455 -42.474882 -360.397637 0 120 255
77.187554 -42.528711 -357.935949 0 120 255
76.944653 -42.582540 -355.474261 0 120 255
76.701752 -42.636369 -353.012573 0 120 255
76.458851 -42.690198 -350.550885 0 120 255
76.213313 -42.758638 -348.089823 0 120 255
75.967660 -42.827712 -345.628789 0 120 255
75.722007 -42.896786 -343.167754 0 120 255
75.476354 -42.965861 -340.706720 0 120 255
75.348860 -43.274968 -338.256523 0 120 255
75.232138 -43.605958 -335.807313 0 120 255
75.115415 -43.936948 -333.358103 0 120 255
74.998693 -44.267938 -330.908894 0 120 255
74.982416 -44.817089 -328.498236 0 120 255
74.980915 -45.398335 -326.093250 0 120 255
74.979414 -45.979580 -323.688264 0 120 255
74.977913 -46.560825 -321.283278 0 120 255
75.057974 -47.346933 -318.940970 0 120 255
75.155145 -48.176016 -316.611810 0 120 255
75.252317 -49.005099 -314.282650 0 120 255
75.349488 -49.834182 -311.953490 0 120 255
75.511366 -50.850716 -309.706414 0 120 255
75.691381 -51.919788 -307.482345 0 120 255
75.871396 -52.988860 -305.258275 0 120 255
76.051410 -54.057932 -303.034205 0 120 255
76.281685 -55.294323 -300.906821 0 120 255
76.530054 -56.590950 -298.814244 0 120 255
76.778424 -57.887577 -296.721667 0 120 255
77.026793 -59.184204 -294.629091 0 120 255
77.313551 -60.626542 -292.643171 0 120 255
77.617610 -62.134553 -290.705323 0 120 255
77.921670 -63.642564 -288.767474 0 120 255
78.225729 -65.150576 -286.829626 0 120 255
78.558863 -66.782290 -285.004146 0 120 255
78.908123 -68.482618 -283.240993 0 120 255
79.257383 -70.182946 -281.477840 0 120 255
79.606643 -71.883274 -279.714687 0 120 255
79.978046 -73.685743 -278.065813 0 120 255
80.364393 -75.557137 -276.494053 0 120 255
80.750739 -77.428530 -274.922293 0 120 255
81.137085 -79.299924 -273.350533 0 120 255
81.540763 -81.252998 -271.891670 0 120 255
81.958564 -83.272639 -270.524811 0 120 255
82.376365 -85.292279 -269.157953 0 120 255
82.794165 -87.311919 -267.791095 0 120 255
83.226275 -89.394365 -266.532982 0 120 255
83.672412 -91.538381 -265.381477 0 120 255
84.118548 -93.682397 -264.229972 0 120 255
84.564685 -95.826413 -263.078466 0 120 255
85.023517 -98.016275 -262.029287 0 120 255
85.497308 -100.260157 -261.100672 0 120 255
85.971100 -102.504038 -260.172058 0 120 255
86.444891 -104.747919 -259.243444 0 120 255
86.930791 -107.022812 -258.408916 0 120 255
87.433873 -109.341710 -257.707898 0 120 255
87.936955 -111.660608 -257.006879 0 120 255
88.440038 -113.979506 -256.305860 0 120 255
88.955293 -116.316834 -255.689323 0 120 255
89.491462 -118.685822 -255.217917 0 120 255
90.027630 -121.054810 -254.746511 0 120 255
90.563798 -123.423799 -254.275104 0 120 255
91.112491 -125.800939 -253.877578 0 120 255
91.687466 -128.195183 -253.635086 0 120 255
92.262441 -130.589428 -253.392594 0 120 255
92.837417 -132.983672 -253.150102 0 120 255
93.425233 -135.378105 -252.970290 0 120 255
94.046423 -137.773025 -252.953385 0 120 255
94.667613 -140.167946 -252.936480 0 120 255
95.288803 -142.562866 -252.919575 0 120 255
95.922822 -144.952298 -252.953886 0 120 255
96.599010 -147.323692 -253.156534 0 120 255
97.275198 -149.695087 -253.359183 0 120 255
97.951385 -152.066481 -253.561831 0 120 255
98.639831 -154.428947 -253.804327 0 120 255
99.380859 -156.753116 -254.217756 0 120 255
100.121887 -159.077284 -254.631185 0 120 255
100.862915 -161.401453 -255.044614 0 120 255
101.614888 -163.715415 -255.486971 0 120 255
102.431289 -165.969292 -256.099616 0 120 255
103.247689 -168.223169 -256.712262 0 120 255
104.064090 -170.477046 -257.324908 0 120 255
104.889259 -172.721508 -257.956346 0 120 255
105.791853 -174.882825 -258.753740 0 120 255
106.694448 -177.044142 -259.551134 0 120 255
107.597042 -179.205459 -260.348528 0 120 255
108.505316 -181.360101 -261.155737 0 120 255
109.504773 -183.407565 -262.120508 0 120 255
110.504229 -185.455029 -263.085279 0 120 255
111.503685 -187.502494 -264.050051 0 120 255
112.504845 -189.547824 -265.017165 0 120 255
113.611231 -191.461342 -266.128995 0 120 255
114.717616 -193.374860 -267.240825 0 120 255
115.824002 -195.288378 -268.352655 0 120 255
116.930388 -197.201896 -269.464485 0 120 255
118.149633 -198.966842 -270.696911 0 120 255
119.371935 -200.727764 -271.932605 0 120 255
120.594237 -202.488685 -273.168299 0 120 255
121.816540 -204.249607 -274.403993 0 120 255
123.153747 -205.852622 -275.730875 0 120 255
124.499380 -207.444060 -277.064444 0 120 255
125.845013 -209.035497 -278.398013 0 120 255
127.190646 -210.626935 -279.731581 0 120 255
128.650834 -212.054327 -281.126857 0 120 255
130.125165 -213.461466 -282.529752 0 120 255
131.599497 -214.868605 -283.932646 0 120 255
133.073828 -216.275745 -285.335541 0 120 255
134.659839 -217.515890 -286.771172 0 120 255
136.265730 -218.726309 -288.212632 0 120 255
137.871622 -219.936729 -289.654091 0 120 255
139.477513 -221.147148 -291.095550 0 120 255
141.189681 -222.190810 -292.541841 0 120 255
142.927109 -223.194838 -293.989280 0 120 255
144.664536 -224.198866 -295.436719 0 120 255
146.401963 -225.202895 -296.884158 0 120 255
148.237805 -226.043467 -298.310256 0 120 255
150.103483 -226.834483 -299.729884 0 120 255
151.969161 -227.625500 -301.149513 0 120 255
153.834839 -228.416516 -302.569141 0 120 255
155.788844 -229.050305 -303.943550 0 120 255
157.776023 -229.625043 -305.300975 0 120 255
159.763202 -230.199781 -306.658401 0 120 255
161.750380 -230.774518 -308.015826 0 120 255
163.813888 -231.200896 -309.307047 0 120 255
165.912206 -231.559614 -310.568074 0 120 255
168.010524 -231.918331 -311.829101 0 120 255
170.108842 -232.277049 -313.090128 0 120 255
172.269997 -232.498591 -314.267356 0 120 255
174.465471 -232.645214 -315.398817 0 120 255
176.660944 -232.791837 -316.530278 0 120 255
178.856418 -232.938460 -317.661740 0 120 255
181.099773 -232.966894 -318.697031 0 120 255
183.374146 -232.918765 -319.670025 0 120 255
185.648519 -232.870636 -320.643019 0 120 255
187.922893 -232.822506 -321.616012 0 120 255
190.231344 -232.665862 -322.481856 0 120 255
192.565801 -232.426414 -323.265939 0 120 255
194.900257 -232.186966 -324.050022 0 120 255
197.234713 -231.947518 -324.834104 0 120 255
199.587872 -231.605406 -325.501689 0 120 255
201.957652 -231.172052 -326.065739 0 120 255
204.327432 -230.738699 -326.629789 0 120 255
206.697213 -230.305345 -327.193839 0 120 255
209.069560 -229.782186 -327.637418 0 120 255
211.444556 -229.166304 -327.956615 0 120 255
213.819553 -228.550423 -328.275811 0 120 255
216.194550 -227.934541 -328.595008 0 120 255
218.556578 -227.242730 -328.793898 0 120 255
220.903055 -226.459871 -328.848528 0 120 255
223.249532 -225.677012 -328.903159 0 120 255
225.596009 -224.894154 -328.957789 0 120 255
227.915450 -224.049709 -328.896284 0 120 255
230.197178 -223.119350 -328.672767 0 120 255
232.478905 -222.188991 -328.449250 0 120 255
234.760632 -221.258631 -328.225733 0 120 255
237.003515 -220.280912 -327.893903 0 120 255
239.183097 -219.226010 -327.385561 0 120 255
241.362680 -218.171109 -326.877219 0 120 255
243.542262 -217.116208 -326.368878 0 120 255
245.674092 -216.027442 -325.763120 0 120 255
247.714413 -214.873778 -324.970683 0 120 255
249.754734 -213.720115 -324.178245 0 120 255
251.795055 -212.566451 -323.385808 0 120 255
253.782065 -211.391114 -322.509165 0 120 255
255.647732 -210.166442 -321.440862 0 120 255
257.513400 -208.941771 -320.372559 0 120 255
259.379068 -207.717100 -319.304256 0 120 255
261.189420 -206.481146 -318.166352 0 120 255
262.848106 -205.214256 -316.837609 0 120 255
264.506792 -203.947366 -315.508866 0 120 255
266.165478 -202.680477 -314.180123 0 120 255
267.770378 -201.410531 -312.796820 0 120 255
269.194020 -200.130287 -311.229649 0 120 255
270.617662 -198.850043 -309.662478 0 120 255
272.041305 -197.569799 -308.095307 0 120 255
273.415941 -196.292328 -306.488094 0 120 255
274.581575 -195.026684 -304.710104 0 120 255
275.747208 -193.761039 -302.932114 0 120 255
276.912842 -192.495394 -301.154124 0 120 255
278.037044 -191.235889 -299.349231 0 120 255
278.927417 -190.011029 -297.392510 0 120 255
279.817791 -188.786169 -295.435788 0 120 255
280.708164 -187.561310 -293.479066 0 120 255
281.566849 -186.343583 -291.506479 0 120 255
282.170652 -185.183233 -289.406285 0 120 255
282.774454 -184.022882 -287.306091 0 120 255
283.378256 -182.862531 -285.205897 0 120 255
283.961599 -181.708151 -283.098254 0 120 255
284.273455 -180.633000 -280.891762 0 120 255
284.585311 -179.557849 -278.685271 0 120 255
284.897167 -178.482699 -276.478780 0 120 255
285.200543 -177.410527 -274.270300 0 120 255
285.220611 -176.437912 -271.995344 0 120 255
285.240678 -175.465296 -269.720388 0 120 255
285.260746 -174.492681 -267.445433 0 120 255
285.280814 -173.520066 -265.170477 0 120 255
285.017981 -172.662344 -262.864864 0 120 255
284.751577 -171.806074 -260.558864 0 120 255
284.485172 -170.949804 -258.252864 0 120 255
284.218768 -170.093533 -255.946864 0 120 255
283.690634 -169.357002 -253.645641 0 120 255
283.147427 -168.627366 -251.344692 0 120 255
282.604219 -167.897731 -249.043744 0 120 255
282.061011 -167.168095 -246.742795 0 120 255
281.279967 -166.559067 -244.477161 0 120 255
280.473411 -165.962976 -242.215315 0 120 255
279.666854 -165.366885 -239.953468 0 120 255
278.860298 -164.770794 -237.691622 0 120 255
277.841305 -164.292824 -235.490528 0 120 255
276.787825 -163.834030 -233.299297 0 120 255
275.734345 -163.375236 -231.108066 0 120 255
274.680865 -162.916442 -228.916835 0 120 255
273.440926 -162.570614 -226.806702 0 120 255
272.159283 -162.250053 -224.714708 0 120 255
270.877640 -161.929493 -222.622714 0 120 255
269.595997 -161.608932 -220.530720 0 120 255
268.153606 -161.394137 -218.535318 0 120 255
266.664231 -161.210256 -216.568149 0 120 255
265.174855 -161.026374 -214.600980 0 120 255
263.685480 -160.842493 -212.633811 0 120 255
262.060188 -160.755737 -210.774208 0 120 255
260.384678 -160.704866 -208.954350 0 120 255
258.709168 -160.653995 -207.134491 0 120 255
257.033659 -160.603125 -205.314632 0 120 255
255.245672 -160.639801 -203.609260 0 120 255
253.406299 -160.716475 -201.956192 0 120 255
251.566926 -160.793148 -200.303124 0 120 255
249.727553 -160.869822 -198.650056 0 120 255
247.797448 -161.024011 -197.114778 0 120 255
245.816847 -161.221341 -195.645053 0 120 255
243.836247 -161.418671 -194.175329 0 120 255
241.855646 -161.616001 -192.705605 0 120 255
239.804111 -161.880727 -191.353879 0 120 255
237.704973 -162.190681 -190.081341 0 120 255
235.605835 -162.500635 -188.808803 0 120 255
233.506696 -162.810589 -187.536265 0 120 255
231.354369 -163.178036 -186.379283 0 120 255
229.159277 -163.591709 -185.315210 0 120 255
226.964185 -164.005382 -184.251137 0 120 255
224.769092 -164.419055 -183.187064 0 120 255
222.536441 -164.880763 -182.233900 0 120 255
220.267733 -165.388585 -181.387209 0 120 255
217.999024 -165.896407 -180.540518 0 120 255
215.730316 -166.404229 -179.693827 0 120 255
213.437562 -166.951266 -178.951591 0 120 255
211.117264 -167.543224 -178.329009 0 120 255
208.796966 -168.135183 -177.706427 0 120 255
206.476668 -168.727141 -177.083845 0 120 255
204.143749 -169.350255 -176.557812 0 120 255
201.793544 -170.016040 -176.164018 0 120 255
199.443339 -170.681825 -175.770225 0 120 255
197.093134 -171.347610 -175.376431 0 120 255
194.739689 -172.037342 -175.070157 0 120 255
192.380911 -172.766482 -174.907901 0 120 255
190.022133 -173.495623 -174.745645 0 120 255
187.663354 -174.224763 -174.583390 0 120 255
185.308724 -174.971548 -174.498789 0 120 255
182.962362 -175.753509 -174.568999 0 120 255
180.616001 -176.535471 -174.639209 0 120 255
178.269639 -177.317432 -174.709418 0 120 255
175.932879 -178.111679 -174.846846 0 120 255
173.619603 -178.935975 -175.148666 0 120 255
171.306326 -179.760271 -175.450485 0 120 255
168.993050 -180.584567 -175.752305 0 120 255
166.692946 -181.416738 -176.110575 0 120 255
164.433105 -182.272980 -176.641402 0 120 255
162.173265 -183.129223 -177.172229 0 120 255
159.913425 -183.985465 -177.703056 0 120 255
157.668495 -184.846122 -178.279470 0 120 255
155.482135 -185.724123 -179.034950 0 120 255
153.295775 -186.602123 -179.790430 0 120 255
151.109414 -187.480124 -180.545910 0 120 255
148.937917 -188.360004 -181.336247 0 120 255
146.844740 -189.249784 -182.310262 0 120 255
144.751562 -190.139565 -183.284278 0 120 255
142.658385 -191.029346 -184.258293 0 120 255
140.578287 -191.919373 -185.256788 0 120 255
138.597621 -192.811268 -186.441394 0 120 255
136.616955 -193.703164 -187.626000 0 120 255
134.636290 -194.595060 -188.810606 0 120 255
132.665237 -195.486427 -190.009904 0 120 255
130.815954 -196.371102 -191.395295 0 120 255
128.966671 -197.255778 -192.780686 0 120 255
127.117389 -198.140453 -194.166078 0 120 255
125.272637 -199.024640 -195.557192 0 120 255
123.573050 -199.893161 -197.131638 0 120 255
121.873463 -200.761683 -198.706084 0 120 255
120.173876 -201.630204 -200.280530 0 120 255
118.474289 -202.498726 -201.854976 0 120 255
116.939930 -203.342930 -203.602585 0 120 255
115.407651 -204.186827 -205.352375 0 120 255
113.875372 -205.030725 -207.102165 0 120 255
112.343093 -205.874622 -208.851955 0 120 255
110.984748 -206.687732 -210.752593 0 120 255
109.636514 -207.499053 -212.661998 0 120 255
108.288279 -208.310373 -214.571404 0 120 255
106.940045 -209.121693 -216.480809 0 120 255
105.772098 -209.896963 -218.518272 0 120 255
104.623569 -210.668349 -220.569528 0 120 255
103.475041 -211.439736 -222.620784 0 120 255
102.326512 -212.211123 -224.672040 0 120 255
101.362197 -212.942366 -226.828344 0 120 255
100.427705 -213.667110 -229.001654 0 120 255
99.493213 -214.391853 -231.174964 0 120 255
98.558720 -215.116597 -233.348274 0 120 255
97.809905 -215.798257 -235.603687 0 120 255
97.102190 -216.470379 -237.877274 0 120 255
96.394475 -217.142501 -240.150861 0 120 255
95.686759 -217.814624 -242.424448 0 120 255
95.163713 -218.441836 -244.757569 0 120 255
94.693649 -219.056163 -247.107771 0 120 255
94.223584 -219.670490 -249.457973 0 120 255
93.753520 -220.284817 -251.808174 0 120 255
93.464661 -220.853462 -254.196049 0 120 255
93.240949 -221.405683 -256.597467 0 120 255
93.017238 -221.957904 -258.998886 0 120 255
92.793526 -222.510125 -261.400305 0 120 255
92.745167 -223.016903 -263.818582 0 120 255
92.774048 -223.503665 -266.244285 0 120 255
92.802928 -223.990427 -268.669988 0 120 255
92.831808 -224.477189 -271.095691 0 120 255
93.027921 -224.919655 -273.518843 0 120 255
93.312879 -225.338587 -275.940640 0 120 255
93.597836 -225.757520 -278.362437 0 120 255
93.882793 -226.176452 -280.784234 0 120 255
94.324779 -226.553050 -283.185818 0 120 255
94.866298 -226.902814 -285.574589 0 120 255
95.407818 -227.252578 -287.963361 0 120 255
95.949337 -227.602342 -290.352132 0 120 255
96.635836 -227.912469 -292.705093 0 120 255
97.431184 -228.192836 -295.031167 0 120 255
98.226531 -228.473203 -297.357242 0 120 255
99.021879 -228.753570 -299.683316 0 120 255
99.948609 -228.997557 -301.960346 0 120 255
100.991647 -229.209338 -304.193959 0 120 255
102.034686 -229.421119 -306.427572 0 120 255
103.077724 -229.632900 -308.661185 0 120 255
104.237360 -229.812028 -310.835117 0 120 255
105.518453 -229.957142 -312.946881 0 120 255
106.799547 -230.102256 -315.058645 0 120 255
108.080641 -230.247371 -317.170409 0 120 255
109.462760 -230.364266 -319.214622 0 120 255
110.968731 -230.446566 -321.176021 0 120 255
112.474702 -230.528867 -323.137419 0 120 255
113.980672 -230.611168 -325.098818 0 120 255
115.571754 -230.669355 -326.987722 0 120 255
117.285965 -230.692656 -328.771746 0 120 255
119.000176 -230.715957 -330.555771 0 120 255
120.714387 -230.739258 -332.339795 0 120 255
122.497919 -230.741998 -334.049270 0 120 255
124.400403 -230.709456 -335.630821 0 120 255
126.302886 -230.676913 -337.212372 0 120 255
128.205370 -230.644371 -338.793923 0 120 255
130.161986 -230.595123 -340.301662 0 120 255
132.229650 -230.511604 -341.657978 0 120 255
134.297315 -230.428085 -343.014295 0 120 255
136.364979 -230.344567 -344.370612 0 120 255
138.472645 -230.248004 -345.656508 0 120 255
140.679555 -230.119079 -346.767694 0 120 255
142.886465 -229.990154 -347.878879 0 120 255
145.093375 -229.861229 -348.990065 0 120 255
147.327642 -229.722610 -350.036649 0 120 255
149.645386 -229.554407 -350.886105 0 120 255
151.963130 -229.386204 -351.735560 0 120 255
154.280875 -229.218000 -352.585016 0 120 255
156.615209 -229.043045 -353.377793 0 120 255
159.013336 -228.842127 -353.952617 0 120 255
161.411464 -228.641209 -354.527442 0 120 255
163.809591 -228.440290 -355.102267 0 120 255
166.215816 -228.235636 -355.629919 0 120 255
168.662753 -228.012197 -355.920401 0 120 255
171.109690 -227.788759 -356.210884 0 120 255
173.556627 -227.565321 -356.501366 0 120 255
176.003599 -227.340883 -356.790760 0 120 255
178.450811 -227.109445 -357.072532 0 120 255
180.898023 -226.878008 -357.354303 0 120 255
183.345236 -226.646570 -357.636075 0 120 255
185.792448 -226.415132 -357.917848 0 120 255
188.239658 -226.183684 -358.199632 0 120 255
190.686867 -225.952235 -358.481416 0 120 255
193.134077 -225.720787 -358.763200 0 120 255
195.581287 -225.489338 -359.044984 0 120 255
198.028499 -225.257894 -359.326753 0 120 255
200.475711 -225.026449 -359.608522 0 120 255
202.922922 -224.795005 -359.890292 0 120 255
205.370134 -224.563560 -360.172061 0 120 255
