ply
format ascii 1.0
element vertex 385
property float x
property float y
property float z
property uchar red
property uchar green
property uchar blue
end_header
77.430455 -42.474882 -360.397637 0 120 255
77.187555 -42.528711 -357.935954 0 120 255
76.944654 -42.582540 -355.474270 0 120 255
76.701753 -42.636369 -353.012587 0 120 255
76.458853 -42.690198 -350.550904 0 120 255
76.213547 -42.754350 -348.089708 0 120 255
75.968136 -42.818952 -345.628533 0 120 255
75.722726 -42.883553 -343.167358 0 120 255
75.477315 -42.948155 -340.706183 0 120 255
75.070554 -43.361898 -338.303818 0 120 255
74.649100 -43.807436 -335.906809 0 120 255
74.227645 -44.252974 -333.509799 0 120 255
73.806191 -44.698513 -331.112790 0 120 255
73.261999 -45.390913 -328.803273 0 120 255
72.699687 -46.119761 -326.506674 0 120 255
72.137374 -46.848609 -324.210075 0 120 255
71.575061 -47.577457 -321.913476 0 120 255
70.928392 -48.481589 -319.705183 0 120 255
70.264002 -49.422545 -317.515441 0 120 255
69.599612 -50.363501 -315.325699 0 120 255
68.935222 -51.304457 -313.135958 0 120 255
68.223239 -52.372120 -311.022138 0 120 255
67.497966 -53.475165 -308.929519 0 120 255
66.772692 -54.578211 -306.836901 0 120 255
66.047419 -55.681257 -304.744283 0 120 255
65.307231 -56.882132 -302.712786 0 120 255
64.561729 -58.117870 -300.703069 0 120 255
63.816227 -59.353608 -298.693353 0 120 255
63.070725 -60.589346 -296.683636 0 120 255
62.337303 -61.908167 -294.723954 0 120 255
61.609232 -63.263792 -292.786437 0 120 255
60.881160 -64.619418 -290.848919 0 120 255
60.153089 -65.975043 -288.911401 0 120 255
59.457626 -67.407402 -287.018889 0 120 255
58.779812 -68.881291 -285.150735 0 120 255
58.101997 -70.355179 -283.282580 0 120 255
57.424182 -71.829067 -281.414425 0 120 255
56.793018 -73.376945 -279.592031 0 120 255
56.192347 -74.973182 -277.799545 0 120 255
55.591675 -76.569419 -276.007060 0 120 255
54.991004 -78.165655 -274.214575 0 120 255
54.445111 -79.833380 -272.472704 0 120 255
53.942148 -81.557127 -270.770498 0 120 255
53.439186 -83.280875 -269.068292 0 120 255
52.936223 -85.004622 -267.366086 0 120 255
52.491282 -86.795653 -265.721229 0 120 255
52.100641 -88.649650 -264.130043 0 120 255
51.710000 -90.503648 -262.538856 0 120 255
51.319359 -92.357645 -260.947669 0 120 255
50.986342 -94.272314 -259.420401 0 120 255
50.717653 -96.254713 -257.964488 0 120 255
50.448965 -98.237111 -256.508574 0 120 255
50.180276 -100.219509 -255.052660 0 120 255
49.966400 -102.253661 -253.665434 0 120 255
49.825620 -104.356828 -252.369805 0 120 255
49.684840 -106.459994 -251.074177 0 120 255
49.544060 -108.563161 -249.778548 0 120 255
49.453939 -110.707539 -248.553604 0 120 255
49.444864 -112.917849 -247.441746 0 120 255
49.435789 -115.128159 -246.329887 0 120 255
49.426714 -117.338469 -245.218029 0 120 255
49.463572 -119.578710 -244.175627 0 120 255
49.589251 -121.876832 -243.267539 0 120 255
49.714931 -124.174953 -242.359451 0 120 255
49.840610 -126.473075 -241.451363 0 120 255
50.007395 -128.790054 -240.608309 0 120 255
50.271358 -131.151613 -239.919003 0 120 255
50.535322 -133.513172 -239.229697 0 120 255
50.799286 -135.874732 -238.540392 0 120 255
51.099590 -138.245146 -237.908882 0 120 255
51.506712 -140.641588 -237.447255 0 120 255
51.913833 -143.038030 -236.985628 0 120 255
52.320955 -145.434472 -236.524002 0 120 255
52.759644 -147.831564 -236.110738 0 120 255
53.316607 -150.231089 -235.878676 0 120 255
53.873569 -152.630615 -235.646613 0 120 255
54.430532 -155.030140 -235.414551 0 120 255
55.014053 -157.424471 -235.220018 0 120 255
55.729327 -159.793035 -235.211655 0 120 255
56.444600 -162.161600 -235.203292 0 120 255
57.159874 -164.530164 -235.194929 0 120 255
57.896186 -166.890444 -235.212789 0 120 255
58.779594 -169.192810 -235.413999 0 120 255
59.663002 -171.495175 -235.615209 0 120 255
60.546411 -173.797541 -235.816418 0 120 255
61.444584 -176.091506 -236.033083 0 120 255
62.506342 -178.292413 -236.420980 0 120 255
63.568101 -180.493319 -236.808876 0 120 255
64.629859 -182.694225 -237.196773 0 120 255
65.699264 -184.889611 -237.590984 0 120 255
66.948688 -186.955048 -238.133837 0 120 255
68.198112 -189.020486 -238.676690 0 120 255
69.447536 -191.085923 -239.219543 0 120 255
70.696960 -193.151361 -239.762396 0 120 255
72.140604 -195.050207 -240.419650 0 120 255
73.584439 -196.948887 -241.077018 0 120 255
75.028275 -198.847568 -241.734385 0 120 255
76.472110 -200.746249 -242.391753 0 120 255
78.104367 -202.459404 -243.112409 0 120 255
79.744973 -204.164338 -243.835869 0 120 255
81.385579 -205.869272 -244.559329 0 120 255
83.026185 -207.574205 -245.282789 0 120 255
84.843547 -209.082349 -246.016333 0 120 255
86.677036 -210.572539 -246.750796 0 120 255
88.510524 -212.062729 -247.485259 0 120 255
90.344013 -213.552919 -248.219723 0 120 255
92.336084 -214.843371 -248.911572 0 120 255
94.350715 -216.105409 -249.597359 0 120 255
96.365347 -217.367446 -250.283146 0 120 255
98.379978 -218.629484 -250.968933 0 120 255
100.528466 -219.697411 -251.562760 0 120 255
102.703458 -220.726903 -252.138379 0 120 255
104.878450 -221.756395 -252.713998 0 120 255
107.053443 -222.785887 -253.289617 0 120 255
109.331740 -223.635094 -253.730146 0 120 255
111.636816 -224.437569 -254.135660 0 120 255
113.941892 -225.240045 -254.541173 0 120 255
116.246968 -226.042520 -254.946686 0 120 255
118.620373 -226.685802 -255.182753 0 120 255
121.016108 -227.277060 -255.363445 0 120 255
123.411843 -227.868318 -255.544137 0 120 255
125.807578 -228.459575 -255.724829 0 120 255
128.234244 -228.918388 -255.712497 0 120 255
130.673343 -229.323964 -255.622575 0 120 255
133.112443 -229.729539 -255.532653 0 120 255
135.551542 -230.135114 -255.442731 0 120 255
137.984098 -230.438601 -255.147991 0 120 255
140.413473 -230.692464 -254.753691 0 120 255
142.842848 -230.946326 -254.359391 0 120 255
145.272223 -231.200189 -253.965091 0 120 255
147.659867 -231.384203 -253.366035 0 120 255
150.023264 -231.527633 -252.648006 0 120 255
152.386661 -231.671062 -251.929977 0 120 255
154.750058 -231.814491 -251.211949 0 120 255
157.041214 -231.918902 -250.300352 0 120 255
159.282573 -231.996417 -249.255324 0 120 255
161.523932 -232.073932 -248.210296 0 120 255
163.765291 -232.151448 -247.165268 0 120 255
165.909464 -232.210814 -245.945452 0 120 255
167.974516 -232.255406 -244.583338 0 120 255
170.039568 -232.299999 -243.221225 0 120 255
172.104621 -232.344591 -241.859112 0 120 255
174.052817 -232.376893 -240.345806 0 120 255
175.888899 -232.397403 -238.687444 0 120 255
177.724981 -232.417914 -237.029083 0 120 255
179.561063 -232.438424 -235.370721 0 120 255
181.266999 -232.450792 -233.588879 0 120 255
182.825842 -232.453955 -231.667478 0 120 255
184.384684 -232.457118 -229.746077 0 120 255
185.943527 -232.460281 -227.824676 0 120 255
187.366213 -232.459422 -225.809424 0 120 255
188.607252 -232.453196 -223.668965 0 120 255
189.848291 -232.446971 -221.528506 0 120 255
191.089329 -232.440745 -219.388046 0 120 255
192.195291 -232.433051 -217.182810 0 120 255
193.087585 -232.423036 -214.875107 0 120 255
193.979879 -232.413021 -212.567404 0 120 255
194.872172 -232.403005 -210.259700 0 120 255
195.636822 -232.392830 -207.913758 0 120 255
196.160317 -232.382353 -205.495572 0 120 255
196.683812 -232.371876 -203.077386 0 120 255
197.207308 -232.361399 -200.659199 0 120 255
197.615716 -232.351168 -198.225252 0 120 255
197.761613 -232.341498 -195.755352 0 120 255
197.907509 -232.331829 -193.285453 0 120 255
198.053406 -232.322159 -190.815554 0 120 255
198.100422 -232.312599 -188.347331 0 120 255
197.870826 -232.303342 -185.883801 0 120 255
197.641229 -232.294086 -183.420271 0 120 255
197.411633 -232.284829 -180.956740 0 120 255
197.101435 -232.275302 -178.506838 0 120 255
196.508393 -232.264825 -176.104762 0 120 255
195.915351 -232.254348 -173.702685 0 120 255
195.322309 -232.243870 -171.300608 0 120 255
194.667518 -232.232746 -168.918654 0 120 255
193.731628 -232.218675 -166.628306 0 120 255
192.795737 -232.204605 -164.337958 0 120 255
191.859847 -232.190534 -162.047610 0 120 255
190.880333 -232.175597 -159.778832 0 120 255
189.629091 -232.155258 -157.644409 0 120 255
188.377848 -232.134920 -155.509986 0 120 255
187.126606 -232.114581 -153.375563 0 120 255
185.848093 -232.093394 -151.259787 0 120 255
184.314159 -232.064257 -149.318659 0 120 255
182.780225 -232.035121 -147.377530 0 120 255
181.246291 -232.005984 -145.436402 0 120 255
179.698915 -231.976257 -143.507461 0 120 255
177.918448 -231.936288 -141.789870 0 120 255
176.137981 -231.896319 -140.072278 0 120 255
174.357514 -231.856350 -138.354686 0 120 255
172.574442 -231.816231 -136.640179 0 120 255
170.585546 -231.764208 -135.169339 0 120 255
168.596650 -231.712185 -133.698499 0 120 255
166.607755 -231.660163 -132.227659 0 120 255
164.618859 -231.608140 -130.756819 0 120 255
162.465283 -231.544213 -129.541508 0 120 255
160.306686 -231.479923 -128.333986 0 120 255
158.148088 -231.415633 -127.126465 0 120 255
155.989491 -231.351343 -125.918944 0 120 255
153.708880 -231.276538 -124.965610 0 120 255
151.418839 -231.200921 -124.031922 0 120 255
149.128797 -231.125303 -123.098234 0 120 255
146.838755 -231.049685 -122.164546 0 120 255
144.464993 -230.965950 -121.478066 0 120 255
142.080464 -230.881171 -120.823379 0 120 255
139.695935 -230.796392 -120.168692 0 120 255
137.311406 -230.711613 -119.514005 0 120 255
134.876735 -230.622225 -119.095194 0 120 255
132.432782 -230.531984 -118.720052 0 120 255
129.988829 -230.441743 -118.344910 0 120 255
127.544876 -230.351502 -117.969768 0 120 255
125.079574 -230.260978 -117.816098 0 120 255
122.608985 -230.170383 -117.717267 0 120 255
120.138397 -230.079788 -117.618437 0 120 255
117.667808 -229.989193 -117.519607 0 120 255
115.200204 -229.899595 -117.626024 0 120 255
112.733545 -229.810313 -117.797507 0 120 255
110.266887 -229.721031 -117.968991 0 120 255
107.800228 -229.631749 -118.140474 0 120 255
105.356669 -229.544058 -118.499641 0 120 255
102.922222 -229.456996 -118.932850 0 120 255
100.487775 -229.369933 -119.366059 0 120 255
98.053328 -229.282871 -119.799269 0 120 255
95.658151 -229.197873 -120.401864 0 120 255
93.281888 -229.113869 -121.086041 0 120 255
90.905625 -229.029866 -121.770219 0 120 255
88.529362 -228.945863 -122.454397 0 120 255
86.204924 -228.864304 -123.289467 0 120 255
83.910562 -228.784163 -124.212107 0 120 255
81.616200 -228.704022 -125.134747 0 120 255
79.321839 -228.623881 -126.057387 0 120 255
77.088612 -228.546448 -127.112701 0 120 255
74.897753 -228.470890 -128.259964 0 120 255
72.706895 -228.395333 -129.407228 0 120 255
70.516037 -228.319776 -130.554492 0 120 255
68.392700 -228.247101 -131.816750 0 120 255
66.324930 -228.176800 -133.173646 0 120 255
64.257159 -228.106499 -134.530542 0 120 255
62.189389 -228.036198 -135.887437 0 120 255
60.192935 -227.968856 -137.342454 0 120 255
58.265967 -227.904397 -138.893074 0 120 255
56.338999 -227.839939 -140.443694 0 120 255
54.412031 -227.775480 -141.994314 0 120 255
52.557860 -227.713978 -143.627144 0 120 255
50.787617 -227.655883 -145.354758 0 120 255
49.017375 -227.597789 -147.082371 0 120 255
47.247133 -227.539695 -148.809985 0 120 255
45.549120 -227.484483 -150.605015 0 120 255
43.949837 -227.433211 -152.492195 0 120 255
42.350555 -227.381939 -154.379375 0 120 255
40.751273 -227.330667 -156.266555 0 120 255
39.221826 -227.282140 -158.207574 0 120 255
37.806055 -227.238084 -160.236226 0 120 255
36.390283 -227.194028 -162.264879 0 120 255
34.974512 -227.149972 -164.293532 0 120 255
33.624574 -227.108470 -166.363767 0 120 255
32.403198 -227.071957 -168.515206 0 120 255
31.181822 -227.035443 -170.666645 0 120 255
29.960446 -226.998930 -172.818084 0 120 255
28.799494 -226.964733 -175.000262 0 120 255
27.781709 -226.936023 -177.255273 0 120 255
26.763925 -226.907313 -179.510283 0 120 255
25.746140 -226.878603 -181.765293 0 120 255
24.782164 -226.851931 -184.041697 0 120 255
23.975420 -226.831216 -186.380610 0 120 255
23.168676 -226.810500 -188.719524 0 120 255
22.361931 -226.789784 -191.058437 0 120 255
21.601372 -226.770802 -193.410968 0 120 255
21.011269 -226.758217 -195.813759 0 120 255
20.421166 -226.745633 -198.216549 0 120 255
19.831063 -226.733048 -200.619340 0 120 255
19.278729 -226.721867 -203.029612 0 120 255
18.908943 -226.717469 -205.476042 0 120 255
18.539157 -226.713071 -207.922472 0 120 255
18.169371 -226.708673 -210.368902 0 120 255
17.828377 -226.705333 -212.818364 0 120 255
17.680574 -226.709088 -215.288166 0 120 255
17.532770 -226.712843 -217.757968 0 120 255
17.384967 -226.716599 -220.227770 0 120 255
17.256665 -226.721064 -222.697862 0 120 255
17.330498 -226.732893 -225.170955 0 120 255
17.404330 -226.744722 -227.644049 0 120 255
17.478162 -226.756551 -230.117142 0 120 255
17.562143 -226.768747 -232.589478 0 120 255
17.855179 -226.788499 -235.046208 0 120 255
18.148216 -226.808251 -237.502938 0 120 255
18.441253 -226.828003 -239.959667 0 120 255
18.735282 -226.847791 -242.416234 0 120 255
19.243090 -226.875230 -244.837630 0 120 255
19.750898 -226.902669 -247.259027 0 120 255
20.258706 -226.930109 -249.680423 0 120 255
20.766514 -226.957548 -252.101819 0 120 255
21.474962 -226.992101 -254.471848 0 120 255
22.191132 -227.026927 -256.839900 0 120 255
22.907302 -227.061754 -259.207952 0 120 255
23.623472 -227.096580 -261.576004 0 120 255
24.524034 -227.137879 -263.879435 0 120 255
25.440359 -227.179731 -266.177343 0 120 255
26.356684 -227.221583 -268.475251 0 120 255
27.273009 -227.263435 -270.773158 0 120 255
28.356733 -227.311098 -272.995867 0 120 255
29.463383 -227.359556 -275.208277 0 120 255
30.570034 -227.408015 -277.420687 0 120 255
31.676684 -227.456473 -279.633098 0 120 255
32.933420 -227.510095 -281.762374 0 120 255
34.219204 -227.564717 -283.875561 0 120 255
35.504988 -227.619338 -285.988748 0 120 255
36.790771 -227.673959 -288.101935 0 120 255
38.209382 -227.733086 -290.126607 0 120 255
39.662014 -227.793367 -292.128608 0 120 255
41.114646 -227.853648 -294.130610 0 120 255
42.567278 -227.913929 -296.132611 0 120 255
44.135827 -227.978094 -298.043164 0 120 255
45.742123 -228.043524 -299.923939 0 120 255
47.348420 -228.108954 -301.804713 0 120 255
48.954716 -228.174384 -303.685488 0 120 255
50.660728 -228.243121 -305.474101 0 120 255
52.406965 -228.313192 -307.225537 0 120 255
54.153202 -228.383263 -308.976974 0 120 255
55.899439 -228.453334 -310.728410 0 120 255
57.730136 -228.526193 -312.388971 0 120 255
59.602292 -228.600419 -314.004925 0 120 255
61.474447 -228.674646 -315.620878 0 120 255
63.346602 -228.748872 -317.236832 0 120 255
65.289121 -228.825529 -318.764918 0 120 255
67.273156 -228.903620 -320.241160 0 120 255
69.257191 -228.981710 -321.717402 0 120 255
71.241226 -229.059801 -323.193644 0 120 255
73.282840 -229.139892 -324.586464 0 120 255
75.364952 -229.221391 -325.920611 0 120 255
77.447064 -229.302889 -327.254759 0 120 255
79.529176 -229.384388 -328.588906 0 120 255
81.657293 -229.466436 -329.845651 0 120 255
83.823785 -229.548944 -331.037827 0 120 255
85.990277 -229.631451 -332.230004 0 120 255
88.156770 -229.713959 -333.422181 0 120 255
90.358517 -229.791165 -334.545665 0 120 255
92.595060 -229.863139 -335.601355 0 120 255
94.831602 -229.935112 -336.657046 0 120 255
97.068144 -230.007086 -337.712736 0 120 255
99.331029 -230.069032 -338.708839 0 120 255
101.624675 -230.119270 -339.635363 0 120 255
103.918320 -230.169508 -340.561887 0 120 255
106.211966 -230.219746 -341.488412 0 120 255
108.524755 -230.257211 -342.364253 0 120 255
110.864050 -230.276989 -343.169912 0 120 255
113.203346 -230.296768 -343.975571 0 120 255
115.542642 -230.316546 -344.781230 0 120 255
117.895358 -230.322356 -345.544722 0 120 255
120.270222 -230.305115 -346.238628 0 120 255
122.645086 -230.287875 -346.932535 0 120 255
125.019950 -230.270634 -347.626441 0 120 255
127.403803 -230.239511 -348.286135 0 120 255
129.805476 -230.180866 -348.878002 0 120 255
132.207150 -230.122221 -349.469869 0 120 255
134.608824 -230.063576 -350.061736 0 120 255
137.016175 -229.992164 -350.626643 0 120 255
139.437212 -229.889981 -351.126564 0 120 255
141.858249 -229.787798 -351.626484 0 120 255
144.279286 -229.685615 -352.126405 0 120 255
146.703646 -229.572529 -352.605809 0 120 255
149.137916 -229.426935 -353.024035 0 120 255
151.572187 -229.281340 -353.442260 0 120 255
154.006457 -229.135745 -353.860486 0 120 255
156.442482 -228.981563 -354.263794 0 120 255
158.885150 -228.794883 -354.610650 0 120 255
161.327817 -228.608203 -354.957507 0 120 255
163.770484 -228.421523 -355.304364 0 120 255
166.213947 -228.228994 -355.641321 0 120 255
168.661382 -228.007268 -355.928863 0 120 255
171.108817 -227.785542 -356.216405 0 120 255
173.556253 -227.563816 -356.503946 0 120 255
176.003660 -227.340877 -356.790767 0 120 255
178.450867 -227.109440 -357.072538 0 120 255
180.898074 -226.878003 -357.354309 0 120 255
183.345282 -226.646566 -357.636080 0 120 255
185.792489 -226.415128 -357.917852 0 120 255
188.239694 -226.183680 -358.199636 0 120 255
190.686899 -225.952232 -358.481420 0 120 255
193.134104 -225.720784 -358.763203 0 120 255
195.581309 -225.489336 -359.044987 0 120 255
198.028515 -225.257892 -359.326763 0 120 255
200.475721 -225.026448 -359.608539 0 120 255
202.922927 -224.795004 -359.890315 0 120 255
205.370133 -224.563560 -360.172091 0 120 255
