ply
format ascii 1.0
element vertex 385
property float x
property float y
property float z
property uchar red
property uchar green
property uchar blue
end_header
77.430455 -42.474882 -360.397637 0 120 255
77.187556 -42.528711 -357.935964 0 120 255
76.944656 -42.582539 -355.474291 0 120 255
76.701756 -42.636368 -353.012619 0 120 255
76.458857 -42.690197 -350.550946 0 120 255
76.215973 -42.753159 -348.089490 0 120 255
75.973091 -42.816519 -345.628042 0 120 255
75.730208 -42.879878 -343.166595 0 120 255
75.487325 -42.943238 -340.705147 0 120 255
75.140431 -43.509816 -338.326973 0 120 255
74.784067 -44.122209 -335.956381 0 120 255
74.427703 -44.734603 -333.585789 0 120 255
74.071339 -45.346997 -331.215196 0 120 255
73.649278 -46.360715 -329.004386 0 120 255
73.217483 -47.433895 -326.817249 0 120 255
72.785688 -48.507075 -324.630112 0 120 255
72.353893 -49.580255 -322.442975 0 120 255
71.889831 -50.965364 -320.453307 0 120 255
71.418940 -52.416505 -318.505442 0 120 255
70.948048 -53.867647 -316.557577 0 120 255
70.477156 -55.318788 -314.609712 0 120 255
70.001346 -57.004332 -312.870024 0 120 255
69.524148 -58.756075 -311.189129 0 120 255
69.046949 -60.507817 -309.508233 0 120 255
68.569750 -62.259559 -307.827338 0 120 255
68.109182 -64.182385 -306.348519 0 120 255
67.654627 -66.167061 -304.942757 0 120 255
67.200071 -68.151738 -303.536994 0 120 255
66.745516 -70.136415 -302.131232 0 120 255
66.324184 -72.242331 -300.911998 0 120 255
65.917819 -74.402866 -299.776796 0 120 255
65.511454 -76.563402 -298.641593 0 120 255
65.105090 -78.723937 -297.506391 0 120 255
64.744516 -80.967361 -296.537602 0 120 255
64.409186 -83.256482 -295.660555 0 120 255
64.073856 -85.545603 -294.783509 0 120 255
63.738527 -87.834723 -293.906463 0 120 255
63.458306 -90.177563 -293.174057 0 120 255
63.214809 -92.556201 -292.538035 0 120 255
62.971311 -94.934838 -291.902014 0 120 255
62.727814 -97.313475 -291.265993 0 120 255
62.546078 -99.723765 -290.752878 0 120 255
62.413692 -102.159346 -290.337974 0 120 255
62.281307 -104.594928 -289.923069 0 120 255
62.148921 -107.030510 -289.508164 0 120 255
62.082653 -109.481051 -289.195332 0 120 255
62.079445 -111.945861 -288.979855 0 120 255
62.076237 -114.410671 -288.764377 0 120 255
62.073029 -116.875482 -288.548900 0 120 255
62.138215 -119.342614 -288.415986 0 120 255
62.281130 -121.812387 -288.376903 0 120 255
62.424045 -124.282160 -288.337820 0 120 255
62.566959 -126.751933 -288.298737 0 120 255
62.778576 -129.214489 -288.324201 0 120 255
63.083319 -131.667263 -288.437163 0 120 255
63.388063 -134.120037 -288.550124 0 120 255
63.692806 -136.572811 -288.663086 0 120 255
64.064640 -139.011275 -288.824209 0 120 255
64.545362 -141.426513 -289.063502 0 120 255
65.026084 -143.841751 -289.302794 0 120 255
65.506806 -146.256989 -289.542087 0 120 255
66.051124 -148.652858 -289.814879 0 120 255
66.719902 -151.010820 -290.153231 0 120 255
67.388680 -153.368781 -290.491584 0 120 255
68.057458 -155.726743 -290.829936 0 120 255
68.784546 -158.062080 -291.188985 0 120 255
69.650763 -160.343436 -291.597414 0 120 255
70.516979 -162.624792 -292.005843 0 120 255
71.383196 -164.906148 -292.414272 0 120 255
72.300796 -167.163331 -292.832645 0 120 255
73.370339 -169.349035 -293.280425 0 120 255
74.439882 -171.534738 -293.728205 0 120 255
75.509424 -173.720442 -294.175985 0 120 255
76.622068 -175.882099 -294.625250 0 120 255
77.896544 -177.953466 -295.080092 0 120 255
79.171021 -180.024832 -295.534933 0 120 255
80.445497 -182.096199 -295.989774 0 120 255
81.753839 -184.145320 -296.440167 0 120 255
83.229739 -186.084375 -296.868549 0 120 255
84.705640 -188.023430 -297.296932 0 120 255
86.181541 -189.962485 -297.725314 0 120 255
87.681675 -191.882741 -298.146051 0 120 255
89.349739 -193.672727 -298.513807 0 120 255
91.017802 -195.462713 -298.881563 0 120 255
92.685865 -197.252699 -299.249319 0 120 255
94.368812 -199.028877 -299.609102 0 120 255
96.213497 -200.654995 -299.882243 0 120 255
98.058182 -202.281113 -300.155385 0 120 255
99.902868 -203.907230 -300.428527 0 120 255
101.754137 -205.525860 -300.696244 0 120 255
103.753490 -206.976061 -300.841973 0 120 255
105.752842 -208.426261 -300.987701 0 120 255
107.752194 -209.876462 -301.133430 0 120 255
109.751672 -211.326480 -301.279002 0 120 255
111.877509 -212.592341 -301.266894 0 120 255
114.003345 -213.858201 -301.254786 0 120 255
116.129182 -215.124062 -301.242679 0 120 255
118.255018 -216.389922 -301.230571 0 120 255
120.469821 -217.475043 -301.041224 0 120 255
122.688378 -218.552538 -300.844400 0 120 255
124.906934 -219.630034 -300.647575 0 120 255
127.125491 -220.707529 -300.450751 0 120 255
129.393984 -221.613061 -300.063968 0 120 255
131.666932 -222.503253 -299.660241 0 120 255
133.939880 -223.393446 -299.256513 0 120 255
136.212827 -224.283638 -298.852786 0 120 255
138.497080 -225.015327 -298.253119 0 120 255
140.782923 -225.724730 -297.625902 0 120 255
143.068765 -226.434132 -296.998685 0 120 255
145.354608 -227.143535 -296.371467 0 120 255
147.615242 -227.712026 -295.548954 0 120 255
149.870907 -228.252748 -294.687954 0 120 255
152.126573 -228.793470 -293.826953 0 120 255
154.382239 -229.334192 -292.965953 0 120 255
156.579836 -229.754873 -291.916433 0 120 255
158.762369 -230.144413 -290.818008 0 120 255
160.944902 -230.533953 -289.719583 0 120 255
163.127435 -230.923493 -288.621158 0 120 255
165.223878 -231.216121 -287.346297 0 120 255
167.292027 -231.476897 -286.013448 0 120 255
169.360175 -231.737674 -284.680599 0 120 255
171.428324 -231.998451 -283.347750 0 120 255
173.387973 -232.186573 -281.854836 0 120 255
175.303570 -232.345198 -280.296935 0 120 255
177.219167 -232.503823 -278.739034 0 120 255
179.134764 -232.662448 -277.181133 0 120 255
180.925306 -232.773471 -275.482665 0 120 255
182.654196 -232.861027 -273.714897 0 120 255
184.383086 -232.948582 -271.947129 0 120 255
186.111976 -233.036137 -270.179361 0 120 255
187.705198 -233.099583 -268.292634 0 120 255
189.218145 -233.148763 -266.335518 0 120 255
190.731091 -233.197943 -264.378402 0 120 255
192.244038 -233.247123 -262.421286 0 120 255
193.616656 -233.288729 -260.368119 0 120 255
194.890359 -233.324998 -258.247248 0 120 255
196.164061 -233.361266 -256.126376 0 120 255
197.437764 -233.397534 -254.005505 0 120 255
198.571689 -233.429333 -251.811397 0 120 255
199.588822 -233.457399 -249.556096 0 120 255
200.605955 -233.485464 -247.300795 0 120 255
201.623088 -233.513529 -245.045494 0 120 255
202.504961 -233.536832 -242.738387 0 120 255
203.253246 -233.555430 -240.380113 0 120 255
204.001530 -233.574029 -238.021840 0 120 255
204.749815 -233.592627 -235.663566 0 120 255
205.370592 -233.606503 -233.272765 0 120 255
205.842506 -233.614865 -230.843988 0 120 255
206.314420 -233.623227 -228.415211 0 120 255
206.786335 -233.631590 -225.986435 0 120 255
207.140897 -233.635624 -223.541732 0 120 255
207.333131 -233.633673 -221.074999 0 120 255
207.525365 -233.631721 -218.608266 0 120 255
207.717600 -233.629769 -216.141533 0 120 255
207.804540 -233.623966 -213.672556 0 120 255
207.718063 -233.611818 -211.199885 0 120 255
207.631587 -233.599670 -208.727213 0 120 255
207.545111 -233.587522 -206.254542 0 120 255
207.366647 -233.572048 -203.790246 0 120 255
207.006368 -233.550001 -201.342503 0 120 255
206.646090 -233.527954 -198.894761 0 120 255
206.285811 -233.505907 -196.447018 0 120 255
205.847460 -233.481069 -194.015208 0 120 255
205.221718 -233.449531 -191.621637 0 120 255
204.595976 -233.417994 -189.228066 0 120 255
203.970233 -233.386456 -186.834495 0 120 255
203.280375 -233.352657 -184.461474 0 120 255
202.400414 -233.312151 -182.149385 0 120 255
201.520453 -233.271645 -179.837296 0 120 255
200.640492 -233.231139 -177.525206 0 120 255
199.709959 -233.188873 -175.235545 0 120 255
198.589529 -233.139993 -173.030103 0 120 255
197.469099 -233.091113 -170.824660 0 120 255
196.348669 -233.042234 -168.619217 0 120 255
195.190367 -232.992049 -166.435620 0 120 255
193.845035 -232.935419 -164.359902 0 120 255
192.499703 -232.878789 -162.284184 0 120 255
191.154371 -232.822159 -160.208466 0 120 255
189.782759 -232.764643 -158.151815 0 120 255
188.229626 -232.701005 -156.226858 0 120 255
186.676494 -232.637366 -154.301901 0 120 255
185.123361 -232.573728 -152.376945 0 120 255
183.554218 -232.509558 -150.466345 0 120 255
181.811730 -232.439628 -148.711188 0 120 255
180.069242 -232.369698 -146.956031 0 120 255
178.326755 -232.299768 -145.200874 0 120 255
176.577025 -232.229603 -143.453691 0 120 255
174.664690 -232.154160 -141.885568 0 120 255
172.752354 -232.078717 -140.317445 0 120 255
170.840018 -232.003274 -138.749321 0 120 255
168.927572 -231.927828 -137.181348 0 120 255
166.865872 -231.847709 -135.815807 0 120 255
164.804171 -231.767590 -134.450266 0 120 255
162.742471 -231.687472 -133.084726 0 120 255
160.680770 -231.607353 -131.719185 0 120 255
158.496442 -231.523547 -130.561203 0 120 255
156.306855 -231.439584 -129.412120 0 120 255
154.117269 -231.355620 -128.263038 0 120 255
151.927682 -231.271656 -127.113956 0 120 255
149.641406 -231.184897 -126.174638 0 120 255
147.346384 -231.097885 -125.254294 0 120 255
145.051362 -231.010874 -124.333951 0 120 255
142.756340 -230.923862 -123.413607 0 120 255
140.389560 -230.835007 -122.702838 0 120 255
138.012552 -230.745889 -122.021943 0 120 255
135.635543 -230.656772 -121.341049 0 120 255
133.258534 -230.567654 -120.660154 0 120 255
130.833656 -230.477583 -120.186274 0 120 255
128.399214 -230.387320 -119.753755 0 120 255
125.964771 -230.297058 -119.321236 0 120 255
123.530329 -230.206796 -118.888717 0 120 255
121.070742 -230.116359 -118.658358 0 120 255
118.604541 -230.025877 -118.481169 0 120 255
116.138340 -229.935394 -118.303980 0 120 255
113.672139 -229.844912 -118.126791 0 120 255
111.202187 -229.755017 -118.144570 0 120 255
108.730985 -229.665317 -118.227299 0 120 255
106.259782 -229.575617 -118.310027 0 120 255
103.788580 -229.485918 -118.392755 0 120 255
101.333422 -229.397493 -118.660839 0 120 255
98.884864 -229.309594 -119.005174 0 120 255
96.436306 -229.221694 -119.349509 0 120 255
93.987748 -229.133795 -119.693844 0 120 255
91.573039 -229.047767 -120.211472 0 120 255
89.175230 -228.962675 -120.815627 0 120 255
86.777422 -228.877582 -121.419782 0 120 255
84.379613 -228.792489 -122.023937 0 120 255
82.031056 -228.709791 -122.787190 0 120 255
79.711991 -228.628526 -123.645715 0 120 255
77.392927 -228.547262 -124.504240 0 120 255
75.073862 -228.465998 -125.362766 0 120 255
72.816648 -228.387512 -126.364382 0 120 255
70.603500 -228.311006 -127.467945 0 120 255
68.390352 -228.234500 -128.571509 0 120 255
66.177204 -228.157994 -129.675073 0 120 255
64.035418 -228.084562 -130.904474 0 120 255
61.953821 -228.013722 -132.240014 0 120 255
59.872224 -227.942882 -133.575554 0 120 255
57.790628 -227.872042 -134.911094 0 120 255
55.786649 -227.804421 -136.354565 0 120 255
53.859988 -227.740009 -137.905551 0 120 255
51.933327 -227.675596 -139.456537 0 120 255
50.006666 -227.611183 -141.007523 0 120 255
48.160609 -227.550031 -142.648522 0 120 255
46.409387 -227.492716 -144.395423 0 120 255
44.658164 -227.435402 -146.142324 0 120 255
42.906941 -227.378087 -147.889226 0 120 255
41.236188 -227.323971 -149.708838 0 120 255
39.677512 -227.274311 -151.629721 0 120 255
38.118836 -227.224651 -153.550605 0 120 255
36.560160 -227.174991 -155.471488 0 120 255
35.078970 -227.128363 -157.448952 0 120 255
33.726179 -227.086760 -159.520172 0 120 255
32.373389 -227.045157 -161.591393 0 120 255
31.020598 -227.003553 -163.662614 0 120 255
29.739863 -226.964734 -165.775926 0 120 255
28.602333 -226.931449 -167.972889 0 120 255
27.464802 -226.898164 -170.169852 0 120 255
26.327271 -226.864879 -172.366814 0 120 255
25.254396 -226.834055 -174.593361 0 120 255
24.337478 -226.809169 -176.891267 0 120 255
23.420559 -226.784282 -179.189172 0 120 255
22.503641 -226.759396 -181.487078 0 120 255
21.642658 -226.736622 -183.804291 0 120 255
20.948257 -226.720141 -186.179005 0 120 255
20.253857 -226.703659 -188.553719 0 120 255
19.559456 -226.687177 -190.928433 0 120 255
18.911584 -226.672433 -193.314459 0 120 255
18.439113 -226.664238 -195.743128 0 120 255
17.966643 -226.656043 -198.171797 0 120 255
17.494172 -226.647849 -200.600466 0 120 255
17.058559 -226.641017 -203.034606 0 120 255
16.805598 -226.640938 -205.495853 0 120 255
16.552636 -226.640859 -207.957101 0 120 255
16.299674 -226.640781 -210.418349 0 120 255
16.073923 -226.641698 -212.881195 0 120 255
16.036629 -226.649518 -215.355115 0 120 255
15.999336 -226.657338 -217.829034 0 120 255
15.962043 -226.665157 -220.302954 0 120 255
15.942541 -226.673625 -222.776380 0 120 255
16.115972 -226.689116 -225.244458 0 120 255
16.289404 -226.704607 -227.712537 0 120 255
16.462835 -226.720098 -230.180615 0 120 255
16.645013 -226.735904 -232.647709 0 120 255
17.023325 -226.758768 -235.092722 0 120 255
17.401636 -226.781632 -237.537735 0 120 255
17.779947 -226.804496 -239.982747 0 120 255
18.158450 -226.827366 -242.427722 0 120 255
18.735150 -226.857321 -244.833600 0 120 255
19.311850 -226.887276 -247.239478 0 120 255
19.888550 -226.917231 -249.645357 0 120 255
20.465250 -226.947186 -252.051235 0 120 255
21.225539 -226.983627 -254.405128 0 120 255
21.993628 -227.020343 -256.756813 0 120 255
22.761717 -227.057060 -259.108497 0 120 255
23.529806 -227.093776 -261.460182 0 120 255
24.466654 -227.136402 -263.749136 0 120 255
25.418666 -227.179560 -266.032454 0 120 255
26.370678 -227.222717 -268.315772 0 120 255
27.322690 -227.265874 -270.599090 0 120 255
28.428840 -227.314392 -272.810811 0 120 255
29.556831 -227.363669 -275.012388 0 120 255
30.684822 -227.412946 -277.213964 0 120 255
31.812813 -227.462223 -279.415540 0 120 255
33.080526 -227.516306 -281.538414 0 120 255
34.376000 -227.571343 -283.645651 0 120 255
35.671474 -227.626380 -285.752888 0 120 255
36.966948 -227.681417 -287.860124 0 120 255
38.387928 -227.740704 -289.883254 0 120 255
39.841742 -227.801102 -291.884381 0 120 255
41.295556 -227.861500 -293.885507 0 120 255
42.749370 -227.921898 -295.886634 0 120 255
44.314441 -227.986025 -297.800143 0 120 255
45.916391 -228.051388 -299.684609 0 120 255
47.518342 -228.116751 -301.569075 0 120 255
49.120293 -228.182113 -303.453540 0 120 255
50.819460 -228.250677 -305.248735 0 120 255
52.558439 -228.320551 -307.007370 0 120 255
54.297418 -228.390425 -308.766005 0 120 255
56.036397 -228.460299 -310.524641 0 120 255
57.858858 -228.532906 -312.194277 0 120 255
59.722837 -228.606874 -313.819651 0 120 255
61.586816 -228.680841 -315.445025 0 120 255
63.450795 -228.754808 -317.070400 0 120 255
65.385126 -228.831072 -318.608843 0 120 255
67.361447 -228.908705 -320.095403 0 120 255
69.337767 -228.986339 -321.581962 0 120 255
71.314088 -229.063973 -323.068522 0 120 255
73.348453 -229.143459 -324.471896 0 120 255
75.424062 -229.224260 -325.816160 0 120 255
77.499672 -229.305061 -327.160424 0 120 255
79.575281 -229.385862 -328.504688 0 120 255
81.697567 -229.467158 -329.771220 0 120 255
83.859147 -229.548870 -330.972314 0 120 255
86.020726 -229.630582 -332.173407 0 120 255
88.182306 -229.712295 -333.374501 0 120 255
90.379777 -229.788729 -334.506278 0 120 255
92.612959 -229.859912 -335.569084 0 120 255
94.846142 -229.931096 -336.631891 0 120 255
97.079325 -230.002279 -337.694697 0 120 255
99.339325 -230.063318 -338.697278 0 120 255
101.630868 -230.112427 -339.629025 0 120 255
103.922410 -230.161535 -340.560771 0 120 255
106.213952 -230.210644 -341.492518 0 120 255
108.524985 -230.247041 -342.372919 0 120 255
110.863179 -230.265725 -343.181763 0 120 255
113.201373 -230.284408 -343.990608 0 120 255
115.539567 -230.303092 -344.799452 0 120 255
117.891412 -230.308012 -345.565527 0 120 255
120.265911 -230.290092 -346.260625 0 120 255
122.640411 -230.272172 -346.955723 0 120 255
125.014910 -230.254251 -347.650821 0 120 255
127.398533 -230.222720 -348.311235 0 120 255
129.800331 -230.164076 -348.902554 0 120 255
132.202128 -230.105432 -349.493872 0 120 255
134.603926 -230.046788 -350.085191 0 120 255
137.011463 -229.975631 -350.649261 0 120 255
139.432890 -229.874193 -351.147389 0 120 255
141.854317 -229.772755 -351.645517 0 120 255
144.275744 -229.671317 -352.143645 0 120 255
146.700503 -229.559149 -352.621189 0 120 255
149.135228 -229.414887 -353.037162 0 120 255
151.569952 -229.270625 -353.453134 0 120 255
154.004677 -229.126362 -353.869107 0 120 255
156.441133 -228.973564 -354.270294 0 120 255
158.884150 -228.788400 -354.615420 0 120 255
161.327167 -228.603236 -354.960546 0 120 255
163.770184 -228.418072 -355.305672 0 120 255
166.213943 -228.226899 -355.641198 0 120 255
168.661412 -228.005711 -355.928775 0 120 255
171.108881 -227.784523 -356.216353 0 120 255
173.556350 -227.563334 -356.503930 0 120 255
176.003785 -227.340865 -356.790781 0 120 255
178.450982 -227.109429 -357.072551 0 120 255
180.898179 -226.877993 -357.354321 0 120 255
183.345376 -226.646557 -357.636091 0 120 255
185.792573 -226.415120 -357.917862 0 120 255
188.239767 -226.183673 -358.199645 0 120 255
190.686962 -225.952226 -358.481427 0 120 255
193.134156 -225.720779 -358.763209 0 120 255
195.581351 -225.489332 -359.044991 0 120 255
198.028546 -225.257889 -359.326766 0 120 255
200.475742 -225.026446 -359.608541 0 120 255
202.922938 -224.795003 -359.890316 0 120 255
205.370133 -224.563560 -360.172091 0 120 255
