ply
format ascii 1.0
element vertex 385
property float x
property float y
property float z
property uchar red
property uchar green
property uchar blue
end_header
77.430455 -42.474882 -360.397637 0 120 255
77.187580 -42.528705 -357.936209 0 120 255
76.944704 -42.582529 -355.474781 0 120 255
76.701829 -42.636352 -353.013353 0 120 255
76.458953 -42.690176 -350.551925 0 120 255
76.213184 -42.750640 -348.090939 0 120 255
75.967288 -42.811397 -345.629973 0 120 255
75.721391 -42.872153 -343.169006 0 120 255
75.475494 -42.932910 -340.708040 0 120 255
75.089589 -43.442398 -338.322419 0 120 255
74.690821 -43.993115 -335.943720 0 120 255
74.292052 -44.543832 -333.565022 0 120 255
73.893283 -45.094549 -331.186323 0 120 255
73.387336 -45.989691 -328.941028 0 120 255
72.865519 -46.935831 -326.715486 0 120 255
72.343702 -47.881970 -324.489943 0 120 255
71.821885 -48.828110 -322.264401 0 120 255
71.221443 -50.032299 -320.193268 0 120 255
70.604465 -51.290759 -318.154609 0 120 255
69.987487 -52.549219 -316.115951 0 120 255
69.370509 -53.807679 -314.077292 0 120 255
68.700511 -55.255495 -312.190985 0 120 255
68.015698 -56.756226 -310.347253 0 120 255
67.330884 -58.256958 -308.503521 0 120 255
66.646070 -59.757689 -306.659789 0 120 255
65.930659 -61.396800 -304.954498 0 120 255
65.204337 -63.085255 -303.298572 0 120 255
64.478015 -64.773709 -301.642647 0 120 255
63.751692 -66.462164 -299.986721 0 120 255
63.014263 -68.253007 -298.450984 0 120 255
62.271910 -70.089226 -296.968511 0 120 255
61.529558 -71.925445 -295.486038 0 120 255
60.787206 -73.761664 -294.003566 0 120 255
60.050642 -75.675672 -292.623119 0 120 255
59.317210 -77.631774 -291.297882 0 120 255
58.583778 -79.587876 -289.972644 0 120 255
57.850346 -81.543979 -288.647407 0 120 255
57.137323 -83.561198 -287.408301 0 120 255
56.437623 -85.618312 -286.225418 0 120 255
55.737922 -87.675426 -285.042534 0 120 255
55.038221 -89.732540 -283.859650 0 120 255
54.371457 -91.839162 -282.750091 0 120 255
53.730425 -93.984461 -281.697816 0 120 255
53.089392 -96.129760 -280.645542 0 120 255
52.448360 -98.275059 -279.593267 0 120 255
51.850805 -100.461080 -278.604481 0 120 255
51.293713 -102.685000 -277.674781 0 120 255
50.736620 -104.908919 -276.745082 0 120 255
50.179528 -107.132839 -275.815382 0 120 255
49.674467 -109.389953 -274.941790 0 120 255
49.226978 -111.683797 -274.130282 0 120 255
48.779489 -113.977642 -273.318774 0 120 255
48.332000 -116.271486 -272.507266 0 120 255
47.943023 -118.591233 -271.746187 0 120 255
47.631078 -120.945084 -271.051498 0 120 255
47.319134 -123.298934 -270.356809 0 120 255
47.007189 -125.652784 -269.662121 0 120 255
46.758019 -128.024966 -269.013141 0 120 255
46.607508 -130.425958 -268.435998 0 120 255
46.456996 -132.826951 -267.858855 0 120 255
46.306484 -135.227943 -267.281712 0 120 255
46.220608 -137.639299 -266.745799 0 120 255
46.256747 -140.070218 -266.287717 0 120 255
46.292886 -142.501137 -265.829636 0 120 255
46.329025 -144.932056 -265.371554 0 120 255
46.429086 -147.365230 -264.949948 0 120 255
46.675517 -149.803566 -264.611866 0 120 255
46.921948 -152.241903 -264.273784 0 120 255
47.168380 -154.680239 -263.935702 0 120 255
47.475321 -157.113126 -263.628731 0 120 255
47.952807 -159.530652 -263.409445 0 120 255
48.430293 -161.948178 -263.190158 0 120 255
48.907779 -164.365704 -262.970872 0 120 255
49.439711 -166.771240 -262.776665 0 120 255
50.164608 -169.134277 -262.671347 0 120 255
50.889504 -171.497314 -262.566028 0 120 255
51.614401 -173.860351 -262.460710 0 120 255
52.385278 -176.206873 -262.373972 0 120 255
53.367772 -178.477383 -262.372752 0 120 255
54.350266 -180.747893 -262.371532 0 120 255
55.332760 -183.018403 -262.370312 0 120 255
56.350913 -185.270679 -262.381189 0 120 255
57.593416 -187.408232 -262.468181 0 120 255
58.835919 -189.545784 -262.555173 0 120 255
60.078422 -191.683337 -262.642165 0 120 255
61.345239 -193.804291 -262.735464 0 120 255
62.841074 -195.768895 -262.888172 0 120 255
64.336908 -197.733500 -263.040880 0 120 255
65.832743 -199.698105 -263.193588 0 120 255
67.341603 -201.651218 -263.348320 0 120 255
69.074439 -203.406743 -263.537866 0 120 255
70.807275 -205.162267 -263.727412 0 120 255
72.540110 -206.917791 -263.916957 0 120 255
74.275912 -208.669979 -264.106538 0 120 255
76.220119 -210.187766 -264.298621 0 120 255
78.164326 -211.705552 -264.490704 0 120 255
80.108533 -213.223339 -264.682786 0 120 255
82.052739 -214.741126 -264.874869 0 120 255
84.170004 -216.010109 -265.032414 0 120 255
86.292040 -217.272231 -265.189007 0 120 255
88.414077 -218.534353 -265.345600 0 120 255
90.536114 -219.796474 -265.502193 0 120 255
92.787367 -220.815805 -265.588711 0 120 255
95.048004 -221.817505 -265.670140 0 120 255
97.308641 -222.819205 -265.751568 0 120 255
99.569278 -223.820905 -265.832997 0 120 255
101.915865 -224.598968 -265.812776 0 120 255
104.272922 -225.349788 -265.780172 0 120 255
106.629979 -226.100608 -265.747568 0 120 255
108.987036 -226.851429 -265.714964 0 120 255
111.389975 -227.409105 -265.554931 0 120 255
113.800981 -227.932824 -265.372494 0 120 255
116.211986 -228.456543 -265.190058 0 120 255
118.622992 -228.980261 -265.007622 0 120 255
121.044846 -229.349750 -264.679044 0 120 255
123.469253 -229.682948 -264.316079 0 120 255
125.893660 -230.016145 -263.953114 0 120 255
128.318066 -230.349343 -263.590149 0 120 255
130.724084 -230.572445 -263.069941 0 120 255
133.124564 -230.762390 -262.502376 0 120 255
135.525044 -230.952335 -261.934812 0 120 255
137.925524 -231.142280 -261.367247 0 120 255
140.284046 -231.270987 -260.639477 0 120 255
142.626857 -231.376766 -259.851723 0 120 255
144.969669 -231.482544 -259.063969 0 120 255
147.312481 -231.588323 -258.276214 0 120 255
149.594892 -231.675061 -257.332476 0 120 255
151.849711 -231.753100 -256.317481 0 120 255
154.104530 -231.831140 -255.302487 0 120 255
156.359349 -231.909180 -254.287492 0 120 255
158.537077 -231.982911 -253.122613 0 120 255
160.672418 -232.054273 -251.875321 0 120 255
162.807759 -232.125636 -250.628028 0 120 255
164.943100 -232.196998 -249.380735 0 120 255
166.985237 -232.265242 -247.992634 0 120 255
168.966244 -232.331439 -246.512181 0 120 255
170.947250 -232.397637 -245.031727 0 120 255
172.928256 -232.463834 -243.551273 0 120 255
174.801427 -232.525902 -241.943120 0 120 255
176.590740 -232.584759 -240.235664 0 120 255
178.380053 -232.643615 -238.528207 0 120 255
180.169366 -232.702472 -236.820751 0 120 255
181.839039 -232.756627 -235.002685 0 120 255
183.398801 -232.806464 -233.083005 0 120 255
184.958563 -232.856301 -231.163325 0 120 255
186.518324 -232.906138 -229.243645 0 120 255
187.950478 -232.951007 -227.233452 0 120 255
189.244311 -232.990490 -225.125147 0 120 255
190.538144 -233.029973 -223.016842 0 120 255
191.831977 -233.069457 -220.908537 0 120 255
192.994787 -233.103914 -218.731577 0 120 255
193.989856 -233.131937 -216.466723 0 120 255
194.984925 -233.159959 -214.201869 0 120 255
195.979994 -233.187982 -211.937014 0 120 255
196.845567 -233.211113 -209.625736 0 120 255
197.514657 -233.226819 -207.244017 0 120 255
198.183747 -233.242526 -204.862298 0 120 255
198.852836 -233.258233 -202.480579 0 120 255
199.398853 -233.269358 -200.073578 0 120 255
199.722174 -233.272191 -197.620831 0 120 255
200.045494 -233.275023 -195.168084 0 120 255
200.368815 -233.277856 -192.715337 0 120 255
200.579916 -233.276572 -190.255992 0 120 255
200.546525 -233.266317 -187.782272 0 120 255
200.513134 -233.256063 -185.308551 0 120 255
200.479743 -233.245809 -182.834831 0 120 255
200.348522 -233.232019 -180.369589 0 120 255
199.957066 -233.208825 -177.926898 0 120 255
199.565611 -233.185631 -175.484207 0 120 255
199.174156 -233.162437 -173.041517 0 120 255
198.701656 -233.136358 -170.617973 0 120 255
197.960541 -233.100715 -168.257890 0 120 255
197.219426 -233.065072 -165.897808 0 120 255
196.478311 -233.029429 -163.537725 0 120 255
195.674024 -232.991575 -161.202659 0 120 255
194.600911 -232.944315 -158.974047 0 120 255
193.527798 -232.897056 -156.745436 0 120 255
192.454684 -232.849796 -154.516825 0 120 255
191.336039 -232.800972 -152.314333 0 120 255
189.956717 -232.743191 -150.261373 0 120 255
188.577395 -232.685411 -148.208413 0 120 255
187.198073 -232.627631 -146.155453 0 120 255
185.789441 -232.568866 -144.125360 0 120 255
184.136294 -232.501886 -142.286031 0 120 255
182.483148 -232.434907 -140.446701 0 120 255
180.830001 -232.367927 -138.607372 0 120 255
179.161400 -232.300443 -136.784007 0 120 255
177.271623 -232.225741 -135.189117 0 120 255
175.381847 -232.151039 -133.594226 0 120 255
173.492070 -232.076337 -131.999335 0 120 255
171.597676 -232.001490 -130.410734 0 120 255
169.511449 -231.920605 -129.083472 0 120 255
167.425221 -231.839720 -127.756210 0 120 255
165.338994 -231.758835 -126.428948 0 120 255
163.252766 -231.677950 -125.101686 0 120 255
161.014324 -231.592537 -124.052538 0 120 255
158.773033 -231.507039 -123.008595 0 120 255
156.531742 -231.421541 -121.964652 0 120 255
154.290451 -231.336043 -120.920709 0 120 255
151.942051 -231.247675 -120.151195 0 120 255
149.586776 -231.159122 -119.399296 0 120 255
147.231501 -231.070570 -118.647398 0 120 255
144.876227 -230.982018 -117.895499 0 120 255
142.454208 -230.891995 -117.407885 0 120 255
140.024584 -230.801804 -116.950389 0 120 255
137.594959 -230.711614 -116.492892 0 120 255
135.165335 -230.621423 -116.035395 0 120 255
132.703961 -230.531005 -115.827273 0 120 255
130.237231 -230.440548 -115.661225 0 120 255
127.770501 -230.350091 -115.495176 0 120 255
125.303771 -230.259635 -115.329128 0 120 255
122.834733 -230.169913 -115.393503 0 120 255
120.365166 -230.080361 -115.510696 0 120 255
117.895600 -229.990808 -115.627888 0 120 255
115.426033 -229.901255 -115.745080 0 120 255
112.977830 -229.813261 -116.070731 0 120 255
110.535959 -229.725728 -116.458180 0 120 255
108.094088 -229.638196 -116.845629 0 120 255
105.652217 -229.550663 -117.233078 0 120 255
103.249631 -229.465240 -117.805376 0 120 255
100.861645 -229.380602 -118.446367 0 120 255
98.473658 -229.295963 -119.087359 0 120 255
96.085672 -229.211324 -119.728350 0 120 255
93.749849 -229.129197 -120.531162 0 120 255
91.437819 -229.048216 -121.407790 0 120 255
89.125790 -228.967235 -122.284418 0 120 255
86.813761 -228.886253 -123.161045 0 120 255
84.562580 -228.808000 -124.177754 0 120 255
82.344978 -228.731252 -125.271766 0 120 255
80.127376 -228.654504 -126.365778 0 120 255
77.909773 -228.577756 -127.459790 0 120 255
75.758380 -228.503864 -128.673922 0 120 255
73.650753 -228.431860 -129.967458 0 120 255
71.543126 -228.359857 -131.260995 0 120 255
69.435499 -228.287853 -132.554531 0 120 255
67.396830 -228.218748 -133.950105 0 120 255
65.412417 -228.151922 -135.425961 0 120 255
63.428004 -228.085096 -136.901817 0 120 255
61.443591 -228.018270 -138.377674 0 120 255
59.528877 -227.954301 -139.939364 0 120 255
57.679204 -227.892998 -141.581151 0 120 255
55.829531 -227.831694 -143.222937 0 120 255
53.979857 -227.770390 -144.864723 0 120 255
52.199085 -227.711863 -146.577920 0 120 255
50.494487 -227.656404 -148.370065 0 120 255
48.789889 -227.600945 -150.162210 0 120 255
47.085291 -227.545486 -151.954354 0 120 255
45.447623 -227.492683 -153.805131 0 120 255
43.897743 -227.443366 -155.732811 0 120 255
42.347863 -227.394048 -157.660492 0 120 255
40.797983 -227.344730 -159.588172 0 120 255
39.312108 -227.297920 -161.563163 0 120 255
37.926232 -227.255028 -163.612070 0 120 255
36.540356 -227.212136 -165.660977 0 120 255
35.154480 -227.169244 -167.709884 0 120 255
33.828881 -227.128688 -169.796085 0 120 255
32.616232 -227.092506 -171.952166 0 120 255
31.403583 -227.056324 -174.108247 0 120 255
30.190934 -227.020143 -176.264328 0 120 255
29.034070 -226.986099 -178.448843 0 120 255
28.003895 -226.956912 -180.697932 0 120 255
26.973720 -226.927725 -182.947020 0 120 255
25.943545 -226.898538 -185.196109 0 120 255
24.963917 -226.871268 -187.465856 0 120 255
24.125567 -226.849354 -189.793345 0 120 255
23.287218 -226.827440 -192.120833 0 120 255
22.448868 -226.805527 -194.448321 0 120 255
21.655001 -226.785288 -196.789737 0 120 255
21.017617 -226.770938 -199.180144 0 120 255
20.380234 -226.756588 -201.570552 0 120 255
19.742851 -226.742239 -203.960960 0 120 255
19.142990 -226.729287 -206.359655 0 120 255
18.714937 -226.722737 -208.796301 0 120 255
18.286884 -226.716187 -211.232946 0 120 255
17.858831 -226.709637 -213.669591 0 120 255
17.460481 -226.704184 -216.110114 0 120 255
17.248903 -226.705630 -218.575017 0 120 255
17.037324 -226.707077 -221.039919 0 120 255
16.825746 -226.708523 -223.504822 0 120 255
16.635244 -226.710740 -225.970584 0 120 255
16.645061 -226.720280 -228.444513 0 120 255
16.654877 -226.729820 -230.918442 0 120 255
16.664693 -226.739360 -233.392371 0 120 255
16.686415 -226.749332 -235.865711 0 120 255
16.920015 -226.766989 -238.328561 0 120 255
17.153614 -226.784646 -240.791411 0 120 255
17.387213 -226.802302 -243.254262 0 120 255
17.623316 -226.820049 -245.716758 0 120 255
18.080317 -226.845733 -248.148013 0 120 255
18.537318 -226.871417 -250.579269 0 120 255
18.994319 -226.897100 -253.010524 0 120 255
19.451319 -226.922784 -255.441780 0 120 255
20.121687 -226.956045 -257.822638 0 120 255
20.798826 -226.989546 -260.201897 0 120 255
21.475965 -227.023047 -262.581156 0 120 255
22.153105 -227.056548 -264.960415 0 120 255
23.028563 -227.097046 -267.273208 0 120 255
23.919574 -227.138093 -269.580788 0 120 255
24.810586 -227.179139 -271.888368 0 120 255
25.701598 -227.220186 -274.195948 0 120 255
26.773957 -227.267502 -276.423778 0 120 255
27.869814 -227.315631 -278.641275 0 120 255
28.965672 -227.363759 -280.858772 0 120 255
30.061530 -227.411888 -283.076269 0 120 255
31.320459 -227.465643 -285.203771 0 120 255
32.609697 -227.520444 -287.314547 0 120 255
33.898936 -227.575245 -289.425322 0 120 255
35.188174 -227.630046 -291.536098 0 120 255
36.621459 -227.689730 -293.549840 0 120 255
38.090479 -227.750624 -295.539509 0 120 255
39.559499 -227.811519 -297.529178 0 120 255
41.028520 -227.872414 -299.518847 0 120 255
42.622397 -227.937473 -301.407672 0 120 255
44.255887 -228.003853 -303.264501 0 120 255
45.889378 -228.070233 -305.121330 0 120 255
47.522869 -228.136613 -306.978159 0 120 255
49.262511 -228.206473 -308.733366 0 120 255
51.044039 -228.277707 -310.448474 0 120 255
52.825567 -228.348940 -312.163583 0 120 255
54.607095 -228.420173 -313.878691 0 120 255
56.477117 -228.494316 -315.494075 0 120 255
58.389762 -228.569859 -317.061428 0 120 255
60.302406 -228.645403 -318.628781 0 120 255
62.215051 -228.720946 -320.196135 0 120 255
64.199974 -228.798813 -321.667934 0 120 255
66.226844 -228.878028 -323.084281 0 120 255
68.253713 -228.957243 -324.500628 0 120 255
70.280582 -229.036459 -325.916975 0 120 255
72.365107 -229.117510 -327.243948 0 120 255
74.489601 -229.199835 -328.508961 0 120 255
76.614096 -229.282160 -329.773974 0 120 255
78.738590 -229.364485 -331.038986 0 120 255
80.907910 -229.447762 -332.222409 0 120 255
83.114150 -229.531823 -333.338632 0 120 255
85.320390 -229.615885 -334.454854 0 120 255
87.526630 -229.699946 -335.571076 0 120 255
89.766510 -229.780215 -336.615518 0 120 255
92.039217 -229.856783 -337.589918 0 120 255
94.311923 -229.933352 -338.564318 0 120 255
96.584630 -230.009920 -339.538718 0 120 255
98.881749 -230.076825 -340.452049 0 120 255
101.207075 -230.132563 -341.294819 0 120 255
103.532402 -230.188301 -342.137590 0 120 255
105.857729 -230.244040 -342.980360 0 120 255
108.200174 -230.286279 -343.772519 0 120 255
110.566088 -230.310013 -344.495292 0 120 255
112.932002 -230.333747 -345.218064 0 120 255
115.297916 -230.357481 -345.940837 0 120 255
117.675308 -230.366182 -346.622849 0 120 255
120.071462 -230.350311 -347.238240 0 120 255
122.467616 -230.334440 -347.853631 0 120 255
124.863771 -230.318570 -348.469022 0 120 255
127.267180 -230.287804 -349.052697 0 120 255
129.684837 -230.227785 -349.574084 0 120 255
132.102494 -230.167766 -350.095470 0 120 255
134.520151 -230.107747 -350.616857 0 120 255
136.942045 -230.034243 -351.114579 0 120 255
139.374054 -229.928538 -351.555791 0 120 255
141.806064 -229.822834 -351.997003 0 120 255
144.238073 -229.717129 -352.438215 0 120 255
146.672293 -229.600235 -352.862732 0 120 255
149.113041 -229.450294 -353.237939 0 120 255
151.553789 -229.300354 -353.613145 0 120 255
153.994537 -229.150413 -353.988352 0 120 255
156.436257 -228.992064 -354.352670 0 120 255
158.881621 -228.802215 -354.676192 0 120 255
161.326984 -228.612366 -354.999714 0 120 255
163.772348 -228.422517 -355.323236 0 120 255
166.218017 -228.227359 -355.640740 0 120 255
168.665196 -228.005983 -355.928525 0 120 255
171.112375 -227.784607 -356.216310 0 120 255
173.559554 -227.563232 -356.504095 0 120 255
176.006705 -227.340589 -356.791118 0 120 255
178.453659 -227.109176 -357.072860 0 120 255
180.900612 -226.877763 -357.354601 0 120 255
183.347566 -226.646350 -357.636343 0 120 255
185.794519 -226.414936 -357.918086 0 120 255
188.241470 -226.183512 -358.199841 0 120 255
190.688421 -225.952088 -358.481595 0 120 255
193.135373 -225.720664 -358.763349 0 120 255
195.582324 -225.489240 -359.045103 0 120 255
198.029276 -225.257820 -359.326850 0 120 255
200.476228 -225.026400 -359.608597 0 120 255
202.923181 -224.794980 -359.890344 0 120 255
205.370133 -224.563560 -360.172091 0 120 255
