ply
format ascii 1.0
element vertex 385
property float x
property float y
property float z
property uchar red
property uchar green
property uchar blue
end_header
77.430455 -42.474882 -360.397637 0 120 255
77.187560 -42.528710 -357.936011 0 120 255
76.944665 -42.582537 -355.474385 0 120 255
76.701770 -42.636365 -353.012759 0 120 255
76.458875 -42.690193 -350.551134 0 120 255
76.219591 -42.753010 -348.089368 0 120 255
75.980465 -42.816220 -345.627596 0 120 255
75.741338 -42.879429 -343.165825 0 120 255
75.502212 -42.942639 -340.704053 0 120 255
75.516742 -43.449569 -338.287363 0 120 255
75.554319 -43.996814 -335.874770 0 120 255
75.591895 -44.544058 -333.462176 0 120 255
75.629472 -45.091302 -331.049582 0 120 255
75.884970 -45.982662 -328.761585 0 120 255
76.172618 -46.924788 -326.491970 0 120 255
76.460266 -47.866914 -324.222355 0 120 255
76.747914 -48.809041 -321.952739 0 120 255
77.215863 -50.009514 -319.846839 0 120 255
77.721810 -51.264433 -317.775440 0 120 255
78.227757 -52.519351 -315.704040 0 120 255
78.733704 -53.774269 -313.632641 0 120 255
79.383982 -55.215000 -311.735588 0 120 255
80.074854 -56.707994 -309.887572 0 120 255
80.765727 -58.200987 -308.039557 0 120 255
81.456600 -59.693981 -306.191541 0 120 255
82.260670 -61.315450 -304.510716 0 120 255
83.105521 -62.983203 -302.890122 0 120 255
83.950371 -64.650956 -301.269529 0 120 255
84.795222 -66.318710 -299.648936 0 120 255
85.727928 -68.071689 -298.178649 0 120 255
86.700097 -69.862951 -296.775879 0 120 255
87.672267 -71.654213 -295.373109 0 120 255
88.644436 -73.445475 -293.970339 0 120 255
89.684679 -75.290483 -292.696754 0 120 255
90.762368 -77.165055 -291.494232 0 120 255
91.840057 -79.039628 -290.291709 0 120 255
92.917747 -80.914201 -289.089187 0 120 255
94.048460 -82.820235 -287.993811 0 120 255
95.214457 -84.747205 -286.969734 0 120 255
96.380454 -86.674175 -285.945656 0 120 255
97.546451 -88.601145 -284.921578 0 120 255
98.754213 -90.544206 -283.983602 0 120 255
99.995332 -92.500119 -283.114392 0 120 255
101.236450 -94.456031 -282.245181 0 120 255
102.477569 -96.411944 -281.375971 0 120 255
103.752093 -98.373617 -280.573757 0 120 255
105.058495 -100.340786 -279.835480 0 120 255
106.364898 -102.307956 -279.097203 0 120 255
107.671301 -104.275125 -278.358925 0 120 255
109.004870 -106.241322 -277.670849 0 120 255
110.369372 -108.206411 -277.039932 0 120 255
111.733874 -110.171500 -276.409015 0 120 255
113.098375 -112.136589 -275.778098 0 120 255
114.485302 -114.096511 -275.182972 0 120 255
115.902735 -116.049403 -274.636537 0 120 255
117.320168 -118.002296 -274.090101 0 120 255
118.737601 -119.955188 -273.543666 0 120 255
120.173739 -121.900479 -273.020918 0 120 255
121.640410 -123.833362 -272.536833 0 120 255
123.107080 -125.766245 -272.052748 0 120 255
124.573750 -127.699128 -271.568663 0 120 255
126.056061 -129.623195 -271.098336 0 120 255
127.569236 -131.529866 -270.655157 0 120 255
129.082410 -133.436536 -270.211978 0 120 255
130.595585 -135.343206 -269.768799 0 120 255
132.121721 -137.240694 -269.331476 0 120 255
133.679148 -139.116016 -268.908289 0 120 255
135.236574 -140.991339 -268.485103 0 120 255
136.794000 -142.866661 -268.061916 0 120 255
138.361932 -144.733022 -267.638585 0 120 255
139.961435 -146.572454 -267.214819 0 120 255
141.560938 -148.411886 -266.791052 0 120 255
143.160441 -150.251317 -266.367286 0 120 255
144.768109 -152.082450 -265.939197 0 120 255
146.407138 -153.881708 -265.494504 0 120 255
148.046166 -155.680966 -265.049810 0 120 255
149.685195 -157.480225 -264.605117 0 120 255
151.330144 -159.272198 -264.153688 0 120 255
153.005345 -161.026948 -263.667838 0 120 255
154.680547 -162.781697 -263.181987 0 120 255
156.355748 -164.536447 -262.696137 0 120 255
158.034766 -166.285254 -262.202876 0 120 255
159.741526 -167.990867 -261.655744 0 120 255
161.448286 -169.696480 -261.108612 0 120 255
163.155045 -171.402092 -260.561480 0 120 255
164.863781 -173.103451 -260.007980 0 120 255
166.595750 -174.754789 -259.379597 0 120 255
168.327719 -176.406126 -258.751214 0 120 255
170.059688 -178.057464 -258.122831 0 120 255
171.792257 -179.706637 -257.490818 0 120 255
173.540894 -181.297872 -256.761616 0 120 255
175.289531 -182.889106 -256.032413 0 120 255
177.038169 -184.480341 -255.303210 0 120 255
178.786806 -186.071576 -254.574008 0 120 255
180.540829 -187.596515 -253.725865 0 120 255
182.294885 -189.121042 -252.876984 0 120 255
184.048942 -190.645569 -252.028103 0 120 255
185.802998 -192.170096 -251.179222 0 120 255
187.548527 -193.624030 -250.199639 0 120 255
189.293625 -195.074394 -249.213446 0 120 255
191.038723 -196.524757 -248.227253 0 120 255
192.783821 -197.975120 -247.241060 0 120 255
194.504502 -199.350472 -246.115613 0 120 255
196.222771 -200.718412 -244.976408 0 120 255
197.941040 -202.086353 -243.837204 0 120 255
199.659308 -203.454293 -242.697999 0 120 255
201.335500 -204.742913 -241.414654 0 120 255
203.005322 -206.019526 -240.109491 0 120 255
204.675143 -207.296139 -238.804328 0 120 255
206.344965 -208.572753 -237.499165 0 120 255
207.953757 -209.766154 -236.049175 0 120 255
209.549797 -210.942170 -234.568925 0 120 255
211.145837 -212.118185 -233.088675 0 120 255
212.741877 -213.294200 -231.608424 0 120 255
214.257268 -214.383909 -229.987186 0 120 255
215.750704 -215.450121 -228.327567 0 120 255
217.244141 -216.516334 -226.667948 0 120 255
218.737577 -217.582547 -225.008329 0 120 255
220.130973 -218.560599 -223.216326 0 120 255
221.490138 -219.508484 -221.379023 0 120 255
222.849304 -220.456370 -219.541721 0 120 255
224.208469 -221.404255 -217.704418 0 120 255
225.449478 -222.263771 -215.748011 0 120 255
226.640871 -223.086179 -213.741591 0 120 255
227.832265 -223.908587 -211.735171 0 120 255
229.023658 -224.730996 -209.728750 0 120 255
230.081192 -225.466847 -207.620781 0 120 255
231.070882 -226.158828 -205.461343 0 120 255
232.060572 -226.850809 -203.301904 0 120 255
233.050262 -227.542790 -201.142466 0 120 255
233.893910 -228.152314 -198.902532 0 120 255
234.649238 -228.711969 -196.613916 0 120 255
235.404565 -229.271624 -194.325300 0 120 255
236.159893 -229.831280 -192.036684 0 120 255
236.761511 -230.314935 -189.690998 0 120 255
237.253068 -230.744171 -187.304447 0 120 255
237.744625 -231.173408 -184.917896 0 120 255
238.236181 -231.602644 -182.531345 0 120 255
238.571482 -231.964576 -180.112099 0 120 255
238.774955 -232.269726 -177.665269 0 120 255
238.978428 -232.574877 -175.218438 0 120 255
239.181901 -232.880027 -172.771608 0 120 255
239.232012 -233.128450 -170.315864 0 120 255
239.130035 -233.320617 -167.851281 0 120 255
239.028058 -233.512784 -165.386698 0 120 255
238.926081 -233.704951 -162.922115 0 120 255
238.678790 -233.852285 -160.470281 0 120 255
238.262123 -233.947362 -158.033306 0 120 255
237.845456 -234.042439 -155.596332 0 120 255
237.428789 -234.137516 -153.159357 0 120 255
236.879400 -234.200287 -150.753366 0 120 255
236.147793 -234.218704 -148.389913 0 120 255
235.416187 -234.237121 -146.026460 0 120 255
234.684580 -234.255538 -143.663007 0 120 255
233.836237 -234.254837 -141.344429 0 120 255
232.798238 -234.223075 -139.098756 0 120 255
231.760239 -234.191313 -136.853083 0 120 255
230.722241 -234.159551 -134.607410 0 120 255
229.585848 -234.119919 -132.415599 0 120 255
228.258786 -234.065036 -130.328163 0 120 255
226.931723 -234.010154 -128.240727 0 120 255
225.604661 -233.955272 -126.153291 0 120 255
224.198939 -233.897287 -124.123564 0 120 255
222.609182 -233.832043 -122.228857 0 120 255
221.019425 -233.766798 -120.334151 0 120 255
219.429669 -233.701554 -118.439444 0 120 255
217.780589 -233.634391 -116.601469 0 120 255
215.961055 -233.561715 -114.926503 0 120 255
214.141521 -233.489040 -113.251538 0 120 255
212.321986 -233.416364 -111.576572 0 120 255
210.460353 -233.342374 -109.953557 0 120 255
208.446580 -233.263636 -108.518281 0 120 255
206.432808 -233.184898 -107.083005 0 120 255
204.419035 -233.106160 -105.647729 0 120 255
202.377637 -233.026588 -104.256665 0 120 255
200.206144 -232.943092 -103.073812 0 120 255
198.034650 -232.859595 -101.890959 0 120 255
195.863157 -232.776099 -100.708106 0 120 255
193.675409 -232.692140 -99.559729 0 120 255
191.382097 -232.605171 -98.635255 0 120 255
189.088785 -232.518203 -97.710781 0 120 255
186.795472 -232.431234 -96.786307 0 120 255
184.494115 -232.344060 -95.885501 0 120 255
182.112952 -232.254850 -95.219467 0 120 255
179.731789 -232.165640 -94.553433 0 120 255
177.350626 -232.076430 -93.887399 0 120 255
174.966650 -231.987164 -93.233937 0 120 255
172.528828 -231.896830 -92.821195 0 120 255
170.091005 -231.806496 -92.408453 0 120 255
167.653182 -231.716162 -91.995711 0 120 255
165.215139 -231.625826 -91.584825 0 120 255
162.748367 -231.535315 -91.416483 0 120 255
160.281594 -231.444804 -91.248141 0 120 255
157.814822 -231.354293 -91.079799 0 120 255
155.348050 -231.263782 -90.911456 0 120 255
152.876535 -231.173934 -90.968232 0 120 255
150.404850 -231.084110 -91.033058 0 120 255
147.933165 -230.994286 -91.097885 0 120 255
145.461480 -230.904461 -91.162711 0 120 255
143.004225 -230.815912 -91.431207 0 120 255
140.548169 -230.727469 -91.716621 0 120 255
138.092112 -230.639026 -92.002034 0 120 255
135.636055 -230.550583 -92.287447 0 120 255
133.209103 -230.463892 -92.755699 0 120 255
130.786078 -230.377438 -93.248619 0 120 255
128.363052 -230.290984 -93.741539 0 120 255
125.940027 -230.204529 -94.234459 0 120 255
123.557026 -230.120133 -94.890409 0 120 255
121.181710 -230.036131 -95.577660 0 120 255
118.806394 -229.952129 -96.264911 0 120 255
116.431078 -229.868128 -96.952162 0 120 255
114.103674 -229.786406 -97.784077 0 120 255
111.788494 -229.705266 -98.652900 0 120 255
109.473314 -229.624127 -99.521724 0 120 255
107.158134 -229.542987 -100.390548 0 120 255
104.896338 -229.464272 -101.387210 0 120 255
102.651911 -229.386347 -102.425463 0 120 255
100.407483 -229.308422 -103.463715 0 120 255
98.163055 -229.230497 -104.501968 0 120 255
95.975614 -229.155064 -105.652825 0 120 255
93.811186 -229.080637 -106.849157 0 120 255
91.646758 -229.006210 -108.045489 0 120 255
89.482330 -228.931783 -109.241820 0 120 255
87.377067 -228.859879 -110.537062 0 120 255
85.300926 -228.789218 -111.880990 0 120 255
83.224785 -228.718556 -113.224918 0 120 255
81.148644 -228.647894 -114.568846 0 120 255
79.132751 -228.579749 -115.999381 0 120 255
77.152552 -228.513096 -117.481226 0 120 255
75.172353 -228.446442 -118.963072 0 120 255
73.192154 -228.379788 -120.444917 0 120 255
71.272471 -228.315620 -122.002339 0 120 255
69.395575 -228.253210 -123.613197 0 120 255
67.518679 -228.190800 -125.224055 0 120 255
65.641783 -228.128389 -126.834913 0 120 255
63.825032 -228.068414 -128.511415 0 120 255
62.058763 -228.010483 -130.243014 0 120 255
60.292494 -227.952552 -131.974612 0 120 255
58.526224 -227.894621 -133.706210 0 120 255
56.819200 -227.839060 -135.494449 0 120 255
55.171048 -227.785852 -137.338971 0 120 255
53.522896 -227.732644 -139.183492 0 120 255
51.874743 -227.679437 -141.028014 0 120 255
50.284468 -227.628518 -142.920955 0 120 255
48.762266 -227.580291 -144.870845 0 120 255
47.240064 -227.532064 -146.820735 0 120 255
45.717862 -227.483837 -148.770625 0 120 255
44.251690 -227.437803 -150.761354 0 120 255
42.863689 -227.394830 -152.809061 0 120 255
41.475688 -227.351856 -154.856768 0 120 255
40.087687 -227.308882 -156.904475 0 120 255
38.753380 -227.267994 -158.986000 0 120 255
37.508361 -227.230572 -161.123762 0 120 255
36.263342 -227.193150 -163.261523 0 120 255
35.018323 -227.155728 -165.399285 0 120 255
33.824107 -227.120256 -167.564334 0 120 255
32.731365 -227.088675 -169.783886 0 120 255
31.638622 -227.057095 -172.003438 0 120 255
30.545879 -227.025514 -174.222991 0 120 255
29.500381 -226.995735 -176.463755 0 120 255
28.569564 -226.970329 -178.756010 0 120 255
27.638748 -226.944923 -181.048265 0 120 255
26.707931 -226.919516 -183.340520 0 120 255
25.820051 -226.895731 -185.648403 0 120 255
25.060998 -226.876812 -188.003181 0 120 255
24.301945 -226.857893 -190.357958 0 120 255
23.542892 -226.838974 -192.712736 0 120 255
22.821614 -226.821472 -195.078130 0 120 255
22.243962 -226.809356 -197.483887 0 120 255
21.666309 -226.797240 -199.889644 0 120 255
21.088657 -226.785124 -202.295401 0 120 255
20.542739 -226.774187 -204.707476 0 120 255
20.155584 -226.769149 -207.151158 0 120 255
19.768429 -226.764112 -209.594840 0 120 255
19.381273 -226.759074 -212.038523 0 120 255
19.018930 -226.754953 -214.485114 0 120 255
18.830286 -226.757243 -216.952077 0 120 255
18.641643 -226.759532 -219.419040 0 120 255
18.452999 -226.761822 -221.886003 0 120 255
18.281454 -226.764737 -224.353560 0 120 255
18.297701 -226.774516 -226.827654 0 120 255
18.313949 -226.784294 -229.301747 0 120 255
18.330196 -226.794073 -231.775840 0 120 255
18.355223 -226.804170 -234.249502 0 120 255
18.580701 -226.821530 -236.713311 0 120 255
18.806179 -226.838891 -239.177120 0 120 255
19.031657 -226.856252 -241.640929 0 120 255
19.257244 -226.873617 -244.104723 0 120 255
19.693949 -226.898576 -246.539916 0 120 255
20.130654 -226.923534 -248.975108 0 120 255
20.567359 -226.948493 -251.410301 0 120 255
21.004064 -226.973452 -253.845493 0 120 255
21.642702 -227.005596 -256.235216 0 120 255
22.289952 -227.038047 -258.623000 0 120 255
22.937202 -227.070499 -261.010783 0 120 255
23.584452 -227.102950 -263.398567 0 120 255
24.421689 -227.142095 -265.725674 0 120 255
25.275970 -227.181841 -268.047337 0 120 255
26.130251 -227.221586 -270.369001 0 120 255
26.984531 -227.261332 -272.690665 0 120 255
28.014670 -227.307212 -274.938567 0 120 255
29.069644 -227.353958 -277.176052 0 120 255
30.124618 -227.400704 -279.413538 0 120 255
31.179592 -227.447451 -281.651023 0 120 255
32.394613 -227.499725 -283.804162 0 120 255
33.641297 -227.553093 -285.940614 0 120 255
34.887981 -227.606460 -288.077066 0 120 255
36.134665 -227.659828 -290.213518 0 120 255
37.524474 -227.718063 -292.257774 0 120 255
38.951557 -227.777566 -294.278019 0 120 255
40.378640 -227.837068 -296.298264 0 120 255
41.805723 -227.896571 -298.318509 0 120 255
43.358411 -227.960289 -300.241598 0 120 255
44.952547 -228.025399 -302.132626 0 120 255
46.546683 -228.090509 -304.023655 0 120 255
48.140818 -228.155619 -305.914684 0 120 255
49.843021 -228.224298 -307.706472 0 120 255
51.589287 -228.294432 -309.457794 0 120 255
53.335554 -228.364567 -311.209117 0 120 255
55.081820 -228.434701 -312.960440 0 120 255
56.919167 -228.507793 -314.613129 0 120 255
58.801621 -228.582350 -316.216970 0 120 255
60.684075 -228.656907 -317.820810 0 120 255
62.566529 -228.731464 -319.424651 0 120 255
64.524079 -228.808448 -320.932888 0 120 255
66.526270 -228.886876 -322.384292 0 120 255
68.528462 -228.965304 -323.835697 0 120 255
70.530653 -229.043731 -325.287102 0 120 255
72.593308 -229.124069 -326.648024 0 120 255
74.698766 -229.205760 -327.944894 0 120 255
76.804224 -229.287450 -329.241763 0 120 255
78.909682 -229.369141 -330.538632 0 120 255
81.062427 -229.451210 -331.752203 0 120 255
83.254841 -229.533597 -332.895894 0 120 255
85.447256 -229.615983 -334.039585 0 120 255
87.639670 -229.698370 -335.183276 0 120 255
89.867372 -229.775215 -336.253970 0 120 255
92.130072 -229.846563 -337.252265 0 120 255
94.392773 -229.917911 -338.250560 0 120 255
96.655473 -229.989259 -339.248855 0 120 255
98.943708 -230.050292 -340.184980 0 120 255
101.261887 -230.099228 -341.048200 0 120 255
103.580066 -230.148164 -341.911421 0 120 255
105.898244 -230.197100 -342.774641 0 120 255
108.234336 -230.233321 -343.586100 0 120 255
110.595324 -230.251867 -344.325618 0 120 255
112.956313 -230.270413 -345.065135 0 120 255
115.317301 -230.288959 -345.804652 0 120 255
117.690334 -230.293814 -346.502319 0 120 255
120.083306 -230.276004 -347.130701 0 120 255
122.476278 -230.258194 -347.759084 0 120 255
124.869250 -230.240383 -348.387467 0 120 255
127.269887 -230.209069 -348.983164 0 120 255
129.685759 -230.150914 -349.513896 0 120 255
132.101632 -230.092760 -350.044628 0 120 255
134.517504 -230.034605 -350.575360 0 120 255
136.937907 -229.964027 -351.081616 0 120 255
139.369251 -229.863447 -351.528767 0 120 255
141.800596 -229.762866 -351.975918 0 120 255
144.231941 -229.662286 -352.423068 0 120 255
146.665684 -229.551005 -352.852893 0 120 255
149.106590 -229.407779 -353.230998 0 120 255
151.547495 -229.264553 -353.609103 0 120 255
153.988401 -229.121326 -353.987208 0 120 255
156.430359 -228.969520 -354.353982 0 120 255
158.876301 -228.785242 -354.677872 0 120 255
161.322244 -228.600965 -355.001763 0 120 255
163.768186 -228.416688 -355.325653 0 120 255
166.214388 -228.226268 -355.643384 0 120 255
168.661888 -228.005229 -355.930415 0 120 255
171.109387 -227.784191 -356.217445 0 120 255
173.556886 -227.563153 -356.504475 0 120 255
176.004342 -227.340812 -356.790846 0 120 255
178.451492 -227.109381 -357.072610 0 120 255
180.898642 -226.877949 -357.354375 0 120 255
183.345793 -226.646518 -357.636139 0 120 255
185.792943 -226.415085 -357.917905 0 120 255
188.240091 -226.183643 -358.199682 0 120 255
190.687239 -225.952200 -358.481459 0 120 255
193.134386 -225.720757 -358.763236 0 120 255
195.581534 -225.489315 -359.045012 0 120 255
198.028684 -225.257876 -359.326774 0 120 255
200.475834 -225.026438 -359.608537 0 120 255
202.922984 -224.794999 -359.890299 0 120 255
205.370134 -224.563560 -360.172061 0 120 255
