ply
format ascii 1.0
element vertex 385
property float x
property float y
property float z
property uchar red
property uchar green
property uchar blue
end_header
77.430455 -42.474882 -360.397637 0 120 255
77.187535 -42.528715 -357.935755 0 120 255
76.944615 -42.582549 -355.473873 0 120 255
76.701695 -42.636382 -353.011992 0 120 255
76.458774 -42.690215 -350.550110 0 120 255
76.221632 -42.753501 -348.087891 0 120 255
75.984738 -42.817195 -345.625658 0 120 255
75.747845 -42.880889 -343.163424 0 120 255
75.510952 -42.944583 -340.701191 0 120 255
75.444259 -43.254154 -338.248773 0 120 255
75.393029 -43.586063 -335.797246 0 120 255
75.341800 -43.917972 -333.345720 0 120 255
75.290571 -44.249882 -330.894194 0 120 255
75.387435 -44.776712 -328.480319 0 120 255
75.506138 -45.332285 -326.071997 0 120 255
75.624840 -45.887858 -323.663674 0 120 255
75.743543 -46.443432 -321.255351 0 120 255
75.991553 -47.156759 -318.900981 0 120 255
76.266757 -47.903262 -316.557956 0 120 255
76.541960 -48.649765 -314.214931 0 120 255
76.817163 -49.396268 -311.871906 0 120 255
77.202513 -50.268535 -309.590563 0 120 255
77.618741 -51.176056 -307.326512 0 120 255
78.034968 -52.083578 -305.062461 0 120 255
78.451195 -52.991100 -302.798409 0 120 255
78.959268 -53.997626 -300.597601 0 120 255
79.500298 -55.039679 -298.419486 0 120 255
80.041327 -56.081731 -296.241372 0 120 255
80.582357 -57.123783 -294.063257 0 120 255
81.198460 -58.242944 -291.945749 0 120 255
81.848147 -59.396601 -289.855354 0 120 255
82.497835 -60.550258 -287.764959 0 120 255
83.147523 -61.703915 -285.674564 0 120 255
83.857382 -62.917063 -283.639487 0 120 255
84.600212 -64.162811 -281.634721 0 120 255
85.343043 -65.408559 -279.629956 0 120 255
86.085874 -66.654307 -277.625191 0 120 255
86.875905 -67.945537 -275.668935 0 120 255
87.697240 -69.266933 -273.744853 0 120 255
88.518575 -70.588328 -271.820771 0 120 255
89.339910 -71.909724 -269.896689 0 120 255
90.197347 -73.265580 -268.013633 0 120 255
91.083544 -74.648889 -266.163261 0 120 255
91.969742 -76.032198 -264.312888 0 120 255
92.855939 -77.415507 -262.462515 0 120 255
93.768878 -78.824654 -260.645585 0 120 255
94.707296 -80.258419 -258.860519 0 120 255
95.645714 -81.692183 -257.075454 0 120 255
96.584133 -83.125948 -255.290388 0 120 255
97.541488 -84.578844 -253.531487 0 120 255
98.520394 -86.053512 -251.802365 0 120 255
99.499301 -87.528180 -250.073242 0 120 255
100.478208 -89.002848 -248.344119 0 120 255
101.469635 -90.491444 -246.634462 0 120 255
102.478112 -91.999004 -244.951307 0 120 255
103.486588 -93.506564 -243.268153 0 120 255
104.495064 -95.014123 -241.584999 0 120 255
105.510866 -96.531578 -239.915358 0 120 255
106.538655 -98.065224 -238.267830 0 120 255
107.566445 -99.598870 -236.620302 0 120 255
108.594234 -101.132515 -234.972774 0 120 255
109.625230 -102.672938 -233.333669 0 120 255
110.662580 -104.226791 -231.711259 0 120 255
111.699931 -105.780645 -230.088850 0 120 255
112.737281 -107.334499 -228.466441 0 120 255
113.774674 -108.892729 -226.848289 0 120 255
114.812168 -110.461597 -225.240487 0 120 255
115.849663 -112.030465 -223.632686 0 120 255
116.887158 -113.599333 -222.024884 0 120 255
117.922400 -115.170747 -220.418129 0 120 255
118.950806 -116.749892 -218.814553 0 120 255
119.979212 -118.329036 -217.210978 0 120 255
121.007618 -119.908180 -215.607402 0 120 255
122.032283 -121.488511 -214.002623 0 120 255
123.042369 -123.073471 -212.393151 0 120 255
124.052455 -124.658430 -210.783679 0 120 255
125.062541 -126.243389 -209.174207 0 120 255
126.068175 -127.828582 -207.562221 0 120 255
127.050567 -129.414995 -205.937116 0 120 255
128.032960 -131.001409 -204.312011 0 120 255
129.015352 -132.587823 -202.686906 0 120 255
129.993352 -134.173890 -201.058881 0 120 255
130.938348 -135.757356 -199.408915 0 120 255
131.883344 -137.340822 -197.758949 0 120 255
132.828339 -138.924288 -196.108983 0 120 255
133.769802 -140.507195 -194.456534 0 120 255
134.667254 -142.083142 -192.773163 0 120 255
135.564706 -143.659089 -191.089791 0 120 255
136.462158 -145.235036 -189.406420 0 120 255
137.357783 -146.810595 -187.721760 0 120 255
138.196946 -148.374177 -185.997292 0 120 255
139.036109 -149.937759 -184.272825 0 120 255
139.875272 -151.501340 -182.548358 0 120 255
140.714435 -153.064922 -180.823891 0 120 255
141.484681 -154.611118 -179.052257 0 120 255
142.254128 -156.157112 -177.280077 0 120 255
143.023576 -157.703106 -175.507897 0 120 255
143.793023 -159.249100 -173.735717 0 120 255
144.484965 -160.773100 -171.913385 0 120 255
145.172476 -162.295843 -170.088185 0 120 255
145.859988 -163.818585 -168.262986 0 120 255
146.547499 -165.341328 -166.437787 0 120 255
147.149230 -166.837480 -164.561334 0 120 255
147.741799 -168.330793 -162.679407 0 120 255
148.334368 -169.824105 -160.797480 0 120 255
148.926937 -171.317417 -158.915553 0 120 255
149.425842 -172.779598 -156.983220 0 120 255
149.909660 -174.236765 -155.042767 0 120 255
150.393478 -175.693931 -153.102315 0 120 255
150.877297 -177.151098 -151.161863 0 120 255
151.260162 -178.572688 -149.173839 0 120 255
151.620754 -179.986428 -147.175320 0 120 255
151.981346 -181.400169 -145.176800 0 120 255
152.341937 -182.813910 -143.178281 0 120 255
152.595057 -184.187823 -141.137012 0 120 255
152.817410 -185.550334 -139.083505 0 120 255
153.039763 -186.912845 -137.029997 0 120 255
153.262116 -188.275357 -134.976490 0 120 255
153.371522 -189.594105 -132.887000 0 120 255
153.440383 -190.897145 -130.784593 0 120 255
153.509245 -192.200185 -128.682186 0 120 255
153.578107 -193.503225 -126.579779 0 120 255
153.529878 -194.759005 -124.449963 0 120 255
153.430144 -195.993997 -122.308091 0 120 255
153.330409 -197.228989 -120.166219 0 120 255
153.230675 -198.463981 -118.024346 0 120 255
153.011341 -199.648819 -115.865240 0 120 255
152.728564 -200.807052 -113.696991 0 120 255
152.445787 -201.965285 -111.528742 0 120 255
152.163009 -203.123518 -109.360494 0 120 255
151.760027 -204.229470 -107.186475 0 120 255
151.281001 -205.302347 -105.008807 0 120 255
150.801975 -206.375224 -102.831139 0 120 255
150.322949 -207.448101 -100.653471 0 120 255
149.725299 -208.467492 -98.482361 0 120 255
149.038841 -209.446839 -96.316161 0 120 255
148.352382 -210.426186 -94.149961 0 120 255
147.665923 -211.405533 -91.983761 0 120 255
146.864754 -212.331267 -89.836798 0 120 255
145.962452 -213.209735 -87.706794 0 120 255
145.060150 -214.088203 -85.576791 0 120 255
144.157847 -214.966670 -83.446787 0 120 255
143.147175 -215.792589 -81.348429 0 120 255
142.024269 -216.564085 -79.282843 0 120 255
140.901363 -217.335581 -77.217256 0 120 255
139.778458 -218.107077 -75.151670 0 120 255
138.555849 -218.828328 -73.129203 0 120 255
137.211990 -219.488474 -71.159173 0 120 255
135.868131 -220.148621 -69.189142 0 120 255
134.524273 -220.808767 -67.219112 0 120 255
133.091492 -221.422208 -65.302044 0 120 255
131.531492 -221.968828 -63.460745 0 120 255
129.971493 -222.515449 -61.619447 0 120 255
128.411494 -223.062069 -59.778149 0 120 255
126.775042 -223.566652 -57.997383 0 120 255
125.009371 -224.000185 -56.318923 0 120 255
123.243701 -224.433718 -54.640464 0 120 255
121.478030 -224.867250 -52.962004 0 120 255
119.649487 -225.264359 -51.348834 0 120 255
117.694539 -225.588235 -49.866925 0 120 255
115.739591 -225.912112 -48.385017 0 120 255
113.784643 -226.235988 -46.903109 0 120 255
111.780814 -226.529705 -45.488049 0 120 255
109.658856 -226.750538 -44.234535 0 120 255
107.536897 -226.971371 -42.981022 0 120 255
105.414939 -227.192204 -41.727509 0 120 255
103.257709 -227.389445 -40.539051 0 120 255
100.996469 -227.517121 -39.542424 0 120 255
98.735230 -227.644796 -38.545796 0 120 255
96.473991 -227.772472 -37.549169 0 120 255
94.189905 -227.883019 -36.612548 0 120 255
91.821812 -227.930585 -35.896557 0 120 255
89.453719 -227.978150 -35.180565 0 120 255
87.085626 -228.025716 -34.464574 0 120 255
84.705190 -228.062087 -33.800622 0 120 255
82.266308 -228.045449 -33.383071 0 120 255
79.827427 -228.028811 -32.965520 0 120 255
77.388545 -228.012174 -32.547968 0 120 255
74.945294 -227.989371 -32.172162 0 120 255
72.474016 -227.927025 -32.064150 0 120 255
70.002738 -227.864679 -31.956137 0 120 255
67.531460 -227.802333 -31.848124 0 120 255
65.060837 -227.737899 -31.770021 0 120 255
62.596437 -227.653629 -31.975928 0 120 255
60.132036 -227.569359 -32.181835 0 120 255
57.667635 -227.485089 -32.387742 0 120 255
55.205774 -227.400697 -32.610798 0 120 255
52.787235 -227.314221 -33.126514 0 120 255
50.368697 -227.227745 -33.642230 0 120 255
47.950158 -227.141270 -34.157946 0 120 255
45.532850 -227.054847 -34.678075 0 120 255
43.196958 -226.971934 -35.490171 0 120 255
40.861065 -226.889021 -36.302268 0 120 255
38.525172 -226.806107 -37.114364 0 120 255
36.189280 -226.723194 -37.926460 0 120 255
33.966084 -226.645859 -39.009007 0 120 255
31.745877 -226.568671 -40.098730 0 120 255
29.525671 -226.491484 -41.188453 0 120 255
27.305465 -226.414297 -42.278176 0 120 255
25.219815 -226.343223 -43.605745 0 120 255
23.143788 -226.272586 -44.950323 0 120 255
21.067761 -226.201949 -46.294902 0 120 255
18.991734 -226.131313 -47.639480 0 120 255
17.065182 -226.066967 -49.188441 0 120 255
15.156688 -226.003382 -50.762091 0 120 255
13.248193 -225.939796 -52.335741 0 120 255
11.339699 -225.876211 -53.909391 0 120 255
9.589113 -225.819034 -55.654508 0 120 255
7.866169 -225.762980 -57.429639 0 120 255
6.143225 -225.706926 -59.204771 0 120 255
4.420281 -225.650872 -60.979902 0 120 255
2.857939 -225.601167 -62.895285 0 120 255
1.333345 -225.552954 -64.843632 0 120 255
-0.191249 -225.504741 -66.791980 0 120 255
-1.715843 -225.456529 -68.740327 0 120 255
-3.082027 -225.414499 -70.800231 0 120 255
-4.400411 -225.374336 -72.893798 0 120 255
-5.718795 -225.334173 -74.987364 0 120 255
-7.037180 -225.294010 -77.080930 0 120 255
-8.203145 -225.259714 -79.260512 0 120 255
-9.311756 -225.227627 -81.472462 0 120 255
-10.420366 -225.195540 -83.684412 0 120 255
-11.528977 -225.163453 -85.896362 0 120 255
-12.494115 -225.136825 -88.172149 0 120 255
-13.393237 -225.112710 -90.477310 0 120 255
-14.292359 -225.088595 -92.782471 0 120 255
-15.191481 -225.064480 -95.087632 0 120 255
-15.958150 -225.045343 -97.437896 0 120 255
-16.651291 -225.028968 -99.813197 0 120 255
-17.344433 -225.012593 -102.188499 0 120 255
-18.037574 -224.996218 -104.563800 0 120 255
-18.610522 -224.984323 -106.968830 0 120 255
-19.103708 -224.975399 -109.393590 0 120 255
-19.596894 -224.966476 -111.818349 0 120 255
-20.090080 -224.957553 -114.243108 0 120 255
-20.475792 -224.952594 -116.685363 0 120 255
-20.776746 -224.950762 -119.141415 0 120 255
-21.077700 -224.948930 -121.597467 0 120 255
-21.378655 -224.947098 -124.053519 0 120 255
-21.584891 -224.948743 -126.517618 0 120 255
-21.702639 -224.953637 -128.989233 0 120 255
-21.820387 -224.958531 -131.460848 0 120 255
-21.938135 -224.963426 -133.932463 0 120 255
-21.973558 -224.971316 -136.405102 0 120 255
-21.917940 -224.982521 -138.878875 0 120 255
-21.862321 -224.993726 -141.352647 0 120 255
-21.806703 -225.004930 -143.826420 0 120 255
-21.680524 -225.018696 -146.296258 0 120 255
-21.461821 -225.035821 -148.760938 0 120 255
-21.243118 -225.052945 -151.225617 0 120 255
-21.024415 -225.070070 -153.690297 0 120 255
-20.746112 -225.089340 -156.147798 0 120 255
-20.374763 -225.111958 -158.594093 0 120 255
-20.003414 -225.134577 -161.040387 0 120 255
-19.632065 -225.157195 -163.486682 0 120 255
-19.211141 -225.181584 -165.923942 0 120 255
-18.697410 -225.209287 -168.344290 0 120 255
-18.183679 -225.236990 -170.764637 0 120 255
-17.669948 -225.264693 -173.184985 0 120 255
-17.115690 -225.293835 -175.595538 0 120 255
-16.469467 -225.326243 -177.983867 0 120 255
-15.823244 -225.358652 -180.372196 0 120 255
-15.177021 -225.391060 -182.760525 0 120 255
-14.498382 -225.424617 -185.139157 0 120 255
-13.729174 -225.461385 -187.490696 0 120 255
-12.959965 -225.498153 -189.842235 0 120 255
-12.190757 -225.534921 -192.193774 0 120 255
-11.396322 -225.572573 -194.536358 0 120 255
-10.513090 -225.613338 -196.847421 0 120 255
-9.629858 -225.654103 -199.158483 0 120 255
-8.746626 -225.694868 -201.469545 0 120 255
-7.844484 -225.736296 -203.772863 0 120 255
-6.855540 -225.780767 -206.040633 0 120 255
-5.866595 -225.825238 -208.308403 0 120 255
-4.877651 -225.869709 -210.576173 0 120 255
-3.875319 -225.914642 -212.837744 0 120 255
-2.788298 -225.962492 -215.060100 0 120 255
-1.701277 -226.010343 -217.282455 0 120 255
-0.614255 -226.058193 -219.504811 0 120 255
0.481336 -226.106341 -221.722746 0 120 255
1.659448 -226.157351 -223.898112 0 120 255
2.837560 -226.208361 -226.073479 0 120 255
4.015672 -226.259370 -228.248845 0 120 255
5.198170 -226.310531 -230.421720 0 120 255
6.461166 -226.364447 -232.548855 0 120 255
7.724162 -226.418364 -234.675990 0 120 255
8.987158 -226.472280 -236.803125 0 120 255
10.250887 -226.526222 -238.929805 0 120 255
11.593236 -226.582854 -241.007703 0 120 255
12.935585 -226.639487 -243.085602 0 120 255
14.277933 -226.696120 -245.163500 0 120 255
15.620282 -226.752752 -247.241399 0 120 255
17.034707 -226.811824 -249.270788 0 120 255
18.451606 -226.870979 -251.298513 0 120 255
19.868504 -226.930135 -253.326238 0 120 255
21.285403 -226.989290 -255.353963 0 120 255
22.767353 -227.050634 -257.334443 0 120 255
24.254625 -227.112156 -259.311058 0 120 255
25.741897 -227.173679 -261.287673 0 120 255
27.229168 -227.235201 -263.264288 0 120 255
28.775379 -227.298685 -265.194890 0 120 255
30.329480 -227.362430 -267.119332 0 120 255
31.883580 -227.426176 -269.043774 0 120 255
33.437680 -227.489921 -270.968216 0 120 255
35.045347 -227.555471 -272.847830 0 120 255
36.663253 -227.621365 -274.718874 0 120 255
38.281160 -227.687260 -276.589918 0 120 255
39.899066 -227.753154 -278.460962 0 120 255
41.565855 -227.820673 -280.288236 0 120 255
43.245089 -227.888606 -282.104366 0 120 255
44.924322 -227.956538 -283.920496 0 120 255
46.603556 -228.024471 -285.736626 0 120 255
48.327547 -228.093878 -287.509917 0 120 255
50.066089 -228.163765 -289.269280 0 120 255
51.804631 -228.233651 -291.028642 0 120 255
53.543173 -228.303538 -292.788005 0 120 255
55.322820 -228.374798 -294.505314 0 120 255
57.119077 -228.446612 -296.205629 0 120 255
58.915333 -228.518427 -297.905945 0 120 255
60.711590 -228.590242 -299.606261 0 120 255
62.545708 -228.663329 -301.265141 0 120 255
64.398493 -228.737044 -302.903593 0 120 255
66.251277 -228.810759 -304.542045 0 120 255
68.104062 -228.884473 -306.180498 0 120 255
69.991740 -228.959289 -307.778034 0 120 255
71.900143 -229.034759 -309.351271 0 120 255
73.808545 -229.110229 -310.924507 0 120 255
75.716948 -229.185699 -312.497744 0 120 255
77.657623 -229.261469 -314.030356 0 120 255
79.621193 -229.337452 -315.534147 0 120 255
81.584763 -229.413434 -317.037938 0 120 255
83.548333 -229.489417 -318.541730 0 120 255
85.542197 -229.563085 -320.004485 0 120 255
87.561591 -229.634800 -321.432656 0 120 255
89.580985 -229.706516 -322.860828 0 120 255
91.600379 -229.778232 -324.288999 0 120 255
93.648458 -229.843357 -325.675097 0 120 255
95.725173 -229.901902 -327.019195 0 120 255
97.801888 -229.960447 -328.363293 0 120 255
99.878602 -230.018991 -329.707390 0 120 255
101.981843 -230.067955 -331.008795 0 120 255
104.116439 -230.105594 -332.259736 0 120 255
106.251035 -230.143233 -333.510676 0 120 255
108.385631 -230.180871 -334.761617 0 120 255
110.544047 -230.207326 -335.969829 0 120 255
112.735873 -230.218093 -337.118112 0 120 255
114.927699 -230.228860 -338.266394 0 120 255
117.119525 -230.239627 -339.414677 0 120 255
119.332108 -230.238449 -340.520705 0 120 255
121.579405 -230.217294 -341.556070 0 120 255
123.826702 -230.196139 -342.591434 0 120 255
126.073998 -230.174984 -343.626798 0 120 255
128.338711 -230.141860 -344.621005 0 120 255
130.638424 -230.084682 -345.532498 0 120 255
132.938137 -230.027504 -346.443991 0 120 255
135.237850 -229.970327 -347.355484 0 120 255
137.551472 -229.901794 -348.227640 0 120 255
139.899085 -229.805510 -349.003665 0 120 255
142.246697 -229.709226 -349.779690 0 120 255
144.594310 -229.612943 -350.555715 0 120 255
146.952292 -229.506443 -351.295067 0 120 255
149.341620 -229.369063 -351.923562 0 120 255
151.730949 -229.231682 -352.552056 0 120 255
154.120277 -229.094302 -353.180551 0 120 255
156.516578 -228.948252 -353.775959 0 120 255
158.939611 -228.768963 -354.244503 0 120 255
161.362644 -228.589674 -354.713048 0 120 255
163.785678 -228.410385 -355.181593 0 120 255
166.212694 -228.224294 -355.621083 0 120 255
168.659835 -228.003837 -355.913774 0 120 255
171.106977 -227.783379 -356.206464 0 120 255
173.554118 -227.562922 -356.499155 0 120 255
176.001292 -227.341101 -356.790494 0 120 255
178.448696 -227.109645 -357.072288 0 120 255
180.896101 -226.878190 -357.354082 0 120 255
183.343506 -226.646734 -357.635876 0 120 255
185.790910 -226.415278 -357.917671 0 120 255
188.238313 -226.183811 -358.199477 0 120 255
190.685715 -225.952344 -358.481283 0 120 255
193.133117 -225.720877 -358.763090 0 120 255
195.580519 -225.489411 -359.044896 0 120 255
198.027923 -225.257948 -359.326694 0 120 255
200.475326 -225.026486 -359.608493 0 120 255
202.922730 -224.795023 -359.890292 0 120 255
205.370133 -224.563560 -360.172091 0 120 255
