ply
format ascii 1.0
element vertex 385
property float x
property float y
property float z
property uchar red
property uchar green
property uchar blue
end_header
77.430455 -42.474882 -360.397637 0 120 255
77.187463 -42.528731 -357.935022 0 120 255
76.944470 -42.582581 -355.472408 0 120 255
76.701478 -42.636430 -353.009793 0 120 255
76.458485 -42.690279 -350.547179 0 120 255
76.238046 -42.770542 -348.083172 0 120 255
76.018550 -42.851909 -345.619107 0 120 255
75.799055 -42.933277 -343.155042 0 120 255
75.579559 -43.014644 -340.690977 0 120 255
75.444523 -43.047206 -338.219891 0 120 255
75.317029 -43.075410 -335.748178 0 120 255
75.189535 -43.103615 -333.276465 0 120 255
75.062041 -43.131819 -330.804752 0 120 255
74.979721 -43.083311 -328.331669 0 120 255
74.903909 -43.023752 -325.858387 0 120 255
74.828097 -42.964192 -323.385106 0 120 255
74.752285 -42.904633 -320.911825 0 120 255
74.705041 -42.767433 -318.441205 0 120 255
74.663621 -42.614404 -315.971128 0 120 255
74.622201 -42.461375 -313.501050 0 120 255
74.580781 -42.308346 -311.030973 0 120 255
74.552400 -42.078349 -308.567021 0 120 255
74.527531 -41.827621 -306.104719 0 120 255
74.502662 -41.576892 -303.642417 0 120 255
74.477793 -41.326164 -301.180115 0 120 255
74.451692 -41.000631 -298.726990 0 120 255
74.425170 -40.649568 -296.276996 0 120 255
74.398648 -40.298504 -293.827003 0 120 255
74.372126 -39.947441 -291.377010 0 120 255
74.331509 -39.525081 -288.938959 0 120 255
74.284964 -39.072739 -286.505928 0 120 255
74.238419 -38.620397 -284.072898 0 120 255
74.191873 -38.168055 -281.639868 0 120 255
74.119901 -37.649113 -279.221347 0 120 255
74.035007 -37.096329 -276.810198 0 120 255
73.950114 -36.543545 -274.399050 0 120 255
73.865221 -35.990760 -271.987901 0 120 255
73.745195 -35.377089 -269.593689 0 120 255
73.603900 -34.726555 -267.209731 0 120 255
73.462604 -34.076022 -264.825773 0 120 255
73.321309 -33.425488 -262.441815 0 120 255
73.136878 -32.720608 -260.077107 0 120 255
72.921648 -31.976924 -257.726144 0 120 255
72.706418 -31.233240 -255.375182 0 120 255
72.491188 -30.489556 -253.024219 0 120 255
72.226568 -29.698694 -250.694703 0 120 255
71.920661 -28.868394 -248.383115 0 120 255
71.614754 -28.038095 -246.071527 0 120 255
71.308847 -27.207795 -243.759940 0 120 255
70.949052 -26.337899 -241.471850 0 120 255
70.536787 -25.429449 -239.206642 0 120 255
70.124521 -24.520999 -236.941433 0 120 255
69.712256 -23.612549 -234.676224 0 120 255
69.243352 -22.672280 -232.436371 0 120 255
68.710414 -21.696037 -230.225186 0 120 255
68.177476 -20.719793 -228.014000 0 120 255
67.644537 -19.743550 -225.802815 0 120 255
67.053898 -18.743237 -223.618586 0 120 255
66.387623 -17.711372 -221.469691 0 120 255
65.721348 -16.679508 -219.320796 0 120 255
65.055073 -15.647643 -217.171902 0 120 255
64.331643 -14.599207 -215.051229 0 120 255
63.521329 -13.525581 -212.973458 0 120 255
62.711015 -12.451954 -210.895687 0 120 255
61.900701 -11.378327 -208.817916 0 120 255
61.035260 -10.295165 -206.769218 0 120 255
60.072443 -9.195161 -204.771872 0 120 255
59.109627 -8.095156 -202.774527 0 120 255
58.146810 -6.995152 -200.777181 0 120 255
57.132215 -5.891978 -198.809266 0 120 255
56.010932 -4.782275 -196.901991 0 120 255
54.889649 -3.672571 -194.994716 0 120 255
53.768366 -2.562868 -193.087441 0 120 255
52.599779 -1.455509 -191.209388 0 120 255
51.316788 -0.353820 -189.402005 0 120 255
50.033797 0.747869 -187.594623 0 120 255
48.750806 1.849557 -185.787240 0 120 255
47.425882 2.944403 -184.008245 0 120 255
45.980834 4.019647 -182.310569 0 120 255
44.535787 5.094891 -180.612893 0 120 255
43.090739 6.170135 -178.915218 0 120 255
41.609771 7.235179 -177.244424 0 120 255
40.005339 8.265168 -175.666027 0 120 255
38.400907 9.295157 -174.087630 0 120 255
36.796475 10.325145 -172.509233 0 120 255
35.162496 11.342819 -170.955527 0 120 255
33.404390 12.308760 -169.505549 0 120 255
31.646284 13.274700 -168.055571 0 120 255
29.888178 14.240641 -166.605592 0 120 255
28.106973 15.193441 -165.177425 0 120 255
26.203936 16.076934 -163.864297 0 120 255
24.300899 16.960426 -162.551169 0 120 255
22.397862 17.843919 -161.238041 0 120 255
20.477950 18.714746 -159.943191 0 120 255
18.441618 19.498195 -158.774440 0 120 255
16.405287 20.281643 -157.605689 0 120 255
14.368956 21.065091 -156.436938 0 120 255
12.321463 21.837614 -155.282334 0 120 255
10.166175 22.504610 -154.264365 0 120 255
8.010886 23.171606 -153.246396 0 120 255
5.855597 23.838602 -152.228426 0 120 255
3.694077 24.497593 -151.219961 0 120 255
1.436585 25.033274 -150.357876 0 120 255
-0.820907 25.568955 -149.495791 0 120 255
-3.078399 26.104636 -148.633706 0 120 255
-5.338220 26.636286 -147.776077 0 120 255
-7.679084 27.027658 -147.073511 0 120 255
-10.019948 27.419030 -146.370945 0 120 255
-12.360811 27.810403 -145.668378 0 120 255
-14.701675 28.201775 -144.965812 0 120 255
-17.105081 28.438808 -144.423982 0 120 255
-19.508825 28.675008 -143.883020 0 120 255
-21.912569 28.911208 -143.342058 0 120 255
-24.316313 29.147408 -142.801096 0 120 255
-26.759620 29.226303 -142.415882 0 120 255
-29.204533 29.298810 -142.036992 0 120 255
-31.649446 29.371316 -141.658103 0 120 255
-34.094359 29.443823 -141.279214 0 120 255
-36.556614 29.358986 -141.049460 0 120 255
-39.020237 29.261738 -140.831470 0 120 255
-41.483860 29.164490 -140.613480 0 120 255
-43.947483 29.067242 -140.395490 0 120 255
-46.407519 28.815375 -140.318609 0 120 255
-48.867122 28.544846 -140.258760 0 120 255
-51.326725 28.274316 -140.198911 0 120 255
-53.786328 28.003787 -140.139062 0 120 255
-56.223166 27.583853 -140.211101 0 120 255
-58.656210 27.139023 -140.305117 0 120 255
-61.089254 26.694193 -140.399134 0 120 255
-63.522297 26.249363 -140.493150 0 120 255
-65.915525 25.662526 -140.708896 0 120 255
-68.300097 25.044816 -140.951106 0 120 255
-70.684669 24.427105 -141.193316 0 120 255
-73.069241 23.809395 -141.435527 0 120 255
-75.399355 23.058877 -141.788652 0 120 255
-77.714557 22.271994 -142.172149 0 120 255
-80.029759 21.485111 -142.555645 0 120 255
-82.344961 20.698228 -142.939142 0 120 255
-84.593652 19.789149 -143.422369 0 120 255
-86.819936 18.838904 -143.939194 0 120 255
-89.046220 17.888659 -144.456020 0 120 255
-91.272504 16.938414 -144.972846 0 120 255
-93.422900 15.877586 -145.578098 0 120 255
-95.542344 14.771655 -146.219418 0 120 255
-97.661788 13.665725 -146.860738 0 120 255
-99.781231 12.559794 -147.502057 0 120 255
-101.818078 11.355495 -148.220641 0 120 255
-103.814593 10.103162 -148.976953 0 120 255
-105.811107 8.850829 -149.733264 0 120 255
-107.807621 7.598496 -150.489576 0 120 255
-109.717409 6.260235 -151.312361 0 120 255
-111.576881 4.872123 -152.173710 0 120 255
-113.436353 3.484010 -153.035059 0 120 255
-115.295825 2.095898 -153.896408 0 120 255
-117.066862 0.634175 -154.813990 0 120 255
-118.777236 -0.878043 -155.770146 0 120 255
-120.487610 -2.390260 -156.726303 0 120 255
-122.197983 -3.902478 -157.682460 0 120 255
-123.820422 -5.476416 -158.685317 0 120 255
-125.371721 -7.100287 -159.725957 0 120 255
-126.923020 -8.724158 -160.766596 0 120 255
-128.474318 -10.348029 -161.807236 0 120 255
-129.940142 -12.022408 -162.885870 0 120 255
-131.324443 -13.744961 -164.000742 0 120 255
-132.708744 -15.467513 -165.115614 0 120 255
-134.093045 -17.190066 -166.230485 0 120 255
-135.396011 -18.952798 -167.375550 0 120 255
-136.607372 -20.760783 -168.554621 0 120 255
-137.818732 -22.568769 -169.733692 0 120 255
-139.030093 -24.376755 -170.912763 0 120 255
-140.165651 -26.215630 -172.115172 0 120 255
-141.200002 -28.095748 -173.348740 0 120 255
-142.234352 -29.975866 -174.582308 0 120 255
-143.268703 -31.855984 -175.815876 0 120 255
-144.233891 -33.758839 -177.066892 0 120 255
-145.088911 -35.697911 -178.345702 0 120 255
-145.943932 -37.636984 -179.624512 0 120 255
-146.798952 -39.576056 -180.903321 0 120 255
-147.592276 -41.530917 -182.194634 0 120 255
-148.267235 -43.516069 -183.509936 0 120 255
-148.942193 -45.501221 -184.825238 0 120 255
-149.617152 -47.486372 -186.140539 0 120 255
-150.238452 -49.481589 -187.464307 0 120 255
-150.734052 -51.500383 -188.807910 0 120 255
-151.229652 -53.519177 -190.151512 0 120 255
-151.725252 -55.537971 -191.495114 0 120 255
-152.175567 -57.562315 -192.844006 0 120 255
-152.493789 -59.602850 -194.208325 0 120 255
-152.812012 -61.643384 -195.572645 0 120 255
-153.130235 -63.683919 -196.936964 0 120 255
-153.411663 -65.726663 -198.304187 0 120 255
-153.555585 -67.777666 -199.682262 0 120 255
-153.699507 -69.828669 -201.060336 0 120 255
-153.843429 -71.879672 -202.438410 0 120 255
-153.958984 -73.930654 -203.817722 0 120 255
-153.932614 -75.981531 -205.203227 0 120 255
-153.906244 -78.032408 -206.588732 0 120 255
-153.879873 -80.083284 -207.974237 0 120 255
-153.833354 -82.132945 -209.359950 0 120 255
-153.641503 -84.173839 -210.747164 0 120 255
-153.449652 -86.214732 -212.134378 0 120 255
-153.257802 -88.255626 -213.521592 0 120 255
-153.053678 -90.295054 -214.908545 0 120 255
-152.701794 -92.316849 -216.292358 0 120 255
-152.349910 -94.338645 -217.676170 0 120 255
-151.998026 -96.360440 -219.059983 0 120 255
-151.641306 -98.381373 -220.443546 0 120 255
-151.135353 -100.375712 -221.819423 0 120 255
-150.629400 -102.370051 -223.195301 0 120 255
-150.123446 -104.364390 -224.571178 0 120 255
-149.617493 -106.358729 -225.947056 0 120 255
-148.965915 -108.318509 -227.311167 0 120 255
-148.312253 -110.277795 -228.675110 0 120 255
-147.658592 -112.237081 -230.039053 0 120 255
-147.004930 -114.196367 -231.402996 0 120 255
-146.218625 -116.116238 -232.752441 0 120 255
-145.423889 -118.033604 -234.100965 0 120 255
-144.629153 -119.950970 -235.449489 0 120 255
-143.834416 -121.868337 -236.798013 0 120 255
-142.919617 -123.742723 -238.130035 0 120 255
-141.990644 -125.612035 -239.460108 0 120 255
-141.061671 -127.481348 -240.790182 0 120 255
-140.132699 -129.350660 -242.120256 0 120 255
-139.095722 -131.174573 -243.432477 0 120 255
-138.039455 -132.990378 -244.741510 0 120 255
-136.983188 -134.806183 -246.050543 0 120 255
-135.926921 -136.621988 -247.359577 0 120 255
-134.774116 -138.391019 -248.649950 0 120 255
-133.597534 -140.148531 -249.935728 0 120 255
-132.420953 -141.906042 -251.221505 0 120 255
-131.244371 -143.663554 -252.507283 0 120 255
-129.982071 -145.373846 -253.774054 0 120 255
-128.692138 -147.068917 -255.034698 0 120 255
-127.402205 -148.763988 -256.295343 0 120 255
-126.112272 -150.459058 -257.555987 0 120 255
-124.746754 -152.107273 -258.797673 0 120 255
-123.350359 -153.736347 -260.031615 0 120 255
-121.953964 -155.365421 -261.265557 0 120 255
-120.557569 -156.994496 -262.499499 0 120 255
-119.095019 -158.577782 -263.714865 0 120 255
-117.598942 -160.137863 -264.920815 0 120 255
-116.102865 -161.697944 -266.126766 0 120 255
-114.606788 -163.258024 -267.332716 0 120 255
-113.053262 -164.774006 -268.520706 0 120 255
-111.464115 -166.262644 -269.697559 0 120 255
-109.874968 -167.751282 -270.874413 0 120 255
-108.285821 -169.239920 -272.051266 0 120 255
-106.647231 -170.686648 -273.211023 0 120 255
-104.971469 -172.101868 -274.357928 0 120 255
-103.295707 -173.517088 -275.504832 0 120 255
-101.619945 -174.932308 -276.651736 0 120 255
-99.902041 -176.308256 -277.782551 0 120 255
-98.145909 -177.648580 -278.898772 0 120 255
-96.389778 -178.988904 -280.014994 0 120 255
-94.633647 -180.329228 -281.131215 0 120 255
-92.841995 -181.633263 -282.232501 0 120 255
-91.011530 -182.897644 -283.317467 0 120 255
-89.181064 -184.162025 -284.402433 0 120 255
-87.350598 -185.426406 -285.487399 0 120 255
-85.490574 -186.657756 -286.558689 0 120 255
-83.591573 -187.845554 -287.611945 0 120 255
-81.692572 -189.033351 -288.665202 0 120 255
-79.793572 -190.221148 -289.718458 0 120 255
-77.870343 -191.379392 -290.759371 0 120 255
-75.908367 -192.490372 -291.780540 0 120 255
-73.946390 -193.601351 -292.801710 0 120 255
-71.984414 -194.712331 -293.822880 0 120 255
-70.002938 -195.797382 -294.833097 0 120 255
-67.983288 -196.831671 -295.821872 0 120 255
-65.963639 -197.865960 -296.810647 0 120 255
-63.943989 -198.900250 -297.799422 0 120 255
-61.909006 -199.912325 -298.778693 0 120 255
-59.836749 -200.870399 -299.734862 0 120 255
-57.764492 -201.828473 -300.691031 0 120 255
-55.692234 -202.786547 -301.647199 0 120 255
-53.608273 -203.726165 -302.595337 0 120 255
-51.488204 -204.608845 -303.518702 0 120 255
-49.368136 -205.491526 -304.442066 0 120 255
-47.248068 -206.374206 -305.365430 0 120 255
-45.119426 -207.242172 -306.282265 0 120 255
-42.956078 -208.050579 -307.172667 0 120 255
-40.792729 -208.858986 -308.063070 0 120 255
-38.629381 -209.667394 -308.953473 0 120 255
-36.460129 -210.464771 -309.838873 0 120 255
-34.257788 -211.200329 -310.696231 0 120 255
-32.055447 -211.935887 -311.553588 0 120 255
-29.853105 -212.671446 -312.410946 0 120 255
-27.647102 -213.399559 -313.264834 0 120 255
-25.409777 -214.063990 -314.089045 0 120 255
-23.172452 -214.728421 -314.913255 0 120 255
-20.935127 -215.392853 -315.737465 0 120 255
-18.695994 -216.053279 -316.559754 0 120 255
-16.427446 -216.648568 -317.350790 0 120 255
-14.158898 -217.243857 -318.141827 0 120 255
-11.890351 -217.839145 -318.932863 0 120 255
-9.621495 -218.433689 -319.723530 0 120 255
-7.325220 -218.962085 -320.481378 0 120 255
-5.028945 -219.490482 -321.239226 0 120 255
-2.732670 -220.018878 -321.997074 0 120 255
-0.436395 -220.547274 -322.754922 0 120 255
1.883501 -221.013575 -323.480775 0 120 255
4.204270 -221.477578 -324.205444 0 120 255
6.525040 -221.941582 -324.930113 0 120 255
8.845809 -222.405585 -325.654782 0 120 255
11.186311 -222.813031 -326.349080 0 120 255
13.528587 -223.215389 -327.040646 0 120 255
15.870864 -223.617748 -327.732212 0 120 255
18.213140 -224.020106 -328.423778 0 120 255
20.571759 -224.371382 -329.086643 0 120 255
22.932806 -224.715066 -329.745241 0 120 255
25.293853 -225.058749 -330.403839 0 120 255
27.654901 -225.402433 -331.062437 0 120 255
30.029361 -225.700415 -331.694037 0 120 255
32.406693 -225.988614 -332.319857 0 120 255
34.784024 -226.276814 -332.945678 0 120 255
37.161356 -226.565013 -333.571498 0 120 255
39.549591 -226.812747 -334.172070 0 120 255
41.940961 -227.048850 -334.765383 0 120 255
44.332331 -227.284952 -335.358696 0 120 255
46.723701 -227.521055 -335.952009 0 120 255
49.123851 -227.721761 -336.521849 0 120 255
51.527252 -227.909358 -337.082996 0 120 255
53.930653 -228.096956 -337.644142 0 120 255
56.334054 -228.284553 -338.205288 0 120 255
58.744453 -228.441609 -338.744780 0 120 255
61.158104 -228.584470 -339.274208 0 120 255
63.571755 -228.727331 -339.803636 0 120 255
65.985406 -228.870193 -340.333064 0 120 255
68.404564 -228.987949 -340.842593 0 120 255
70.826878 -229.091313 -341.340716 0 120 255
73.249192 -229.194677 -341.838839 0 120 255
75.671505 -229.298042 -342.336962 0 120 255
78.098210 -229.386810 -342.815724 0 120 255
80.527987 -229.465368 -343.280944 0 120 255
82.957764 -229.543926 -343.746163 0 120 255
85.387540 -229.622484 -344.211383 0 120 255
87.820675 -229.692147 -344.659826 0 120 255
90.256663 -229.754253 -345.094017 0 120 255
92.692650 -229.816360 -345.528209 0 120 255
95.128638 -229.878466 -345.962400 0 120 255
97.567218 -229.927537 -346.383076 0 120 255
100.008462 -229.963202 -346.789852 0 120 255
102.449707 -229.998868 -347.196628 0 120 255
104.890952 -230.034533 -347.603404 0 120 255
107.334216 -230.055172 -347.998359 0 120 255
109.779991 -230.057133 -348.378620 0 120 255
112.225765 -230.059094 -348.758881 0 120 255
114.671540 -230.061055 -349.139141 0 120 255
117.118743 -230.049872 -349.509370 0 120 255
119.568103 -230.018863 -349.864466 0 120 255
122.017462 -229.987855 -350.219562 0 120 255
124.466821 -229.956847 -350.574658 0 120 255
126.917130 -229.914557 -350.921423 0 120 255
129.369193 -229.851460 -351.252821 0 120 255
131.821255 -229.788363 -351.584219 0 120 255
134.273317 -229.725266 -351.915617 0 120 255
136.725957 -229.652703 -352.240267 0 120 255
139.179916 -229.558524 -352.549506 0 120 255
141.633876 -229.464344 -352.858744 0 120 255
144.087835 -229.370164 -353.167983 0 120 255
146.542095 -229.268274 -353.471938 0 120 255
148.997222 -229.144148 -353.760659 0 120 255
151.452349 -229.020022 -354.049380 0 120 255
153.907476 -228.895896 -354.338101 0 120 255
156.362711 -228.765730 -354.622881 0 120 255
158.818349 -228.612908 -354.892877 0 120 255
161.273988 -228.460086 -355.162873 0 120 255
163.729627 -228.307264 -355.432870 0 120 255
166.184685 -228.146685 -355.703077 0 120 255
168.636770 -227.946437 -355.974361 0 120 255
171.088855 -227.746189 -356.245645 0 120 255
173.540940 -227.545941 -356.516928 0 120 255
175.992549 -227.341928 -356.789488 0 120 255
178.440682 -227.110403 -357.071365 0 120 255
180.888816 -226.878879 -357.353243 0 120 255
183.336949 -226.647354 -357.635121 0 120 255
185.785082 -226.415829 -357.917000 0 120 255
188.233213 -226.184293 -358.198890 0 120 255
190.681344 -225.952758 -358.480780 0 120 255
193.129474 -225.721222 -358.762670 0 120 255
195.577605 -225.489686 -359.044560 0 120 255
198.025737 -225.258155 -359.326443 0 120 255
200.473869 -225.026623 -359.608325 0 120 255
202.922001 -224.795092 -359.890208 0 120 255
205.370133 -224.563560 -360.172091 0 120 255
