ply
format ascii 1.0
element vertex 385
property float x
property float y
property float z
property uchar red
property uchar green
property uchar blue
end_header
77.430455 -42.474882 -360.397637 0 120 255
77.187557 -42.528710 -357.935977 0 120 255
76.944659 -42.582539 -355.474318 0 120 255
76.701760 -42.636367 -353.012659 0 120 255
76.458862 -42.690196 -350.551000 0 120 255
76.213577 -42.754309 -348.089824 0 120 255
75.968189 -42.818869 -345.628670 0 120 255
75.722800 -42.883430 -343.167516 0 120 255
75.477412 -42.947991 -340.706362 0 120 255
75.109155 -43.314916 -338.289441 0 120 255
74.729676 -43.709460 -335.876560 0 120 255
74.350196 -44.104004 -333.463679 0 120 255
73.970717 -44.498548 -331.050799 0 120 255
73.513065 -45.110829 -328.699445 0 120 255
73.043863 -45.755284 -326.357183 0 120 255
72.574661 -46.399738 -324.014921 0 120 255
72.105459 -47.044193 -321.672660 0 120 255
71.597272 -47.856192 -319.392960 0 120 255
71.080899 -48.703373 -317.126397 0 120 255
70.564526 -49.550554 -314.859834 0 120 255
70.048153 -50.397735 -312.593272 0 120 255
69.525038 -51.382408 -310.385974 0 120 255
69.000041 -52.405453 -308.195216 0 120 255
68.475044 -53.428498 -306.004458 0 120 255
67.950048 -54.451543 -303.813700 0 120 255
67.442109 -55.595403 -301.680922 0 120 255
66.940248 -56.782316 -299.568805 0 120 255
66.438388 -57.969230 -297.456689 0 120 255
65.936528 -59.156143 -295.344572 0 120 255
65.467152 -60.454205 -293.293033 0 120 255
65.012183 -61.801559 -291.268359 0 120 255
64.557214 -63.148912 -289.243686 0 120 255
64.102245 -64.496266 -287.219012 0 120 255
63.687955 -65.947431 -285.260693 0 120 255
63.295735 -67.454921 -283.338376 0 120 255
62.903515 -68.962410 -281.416059 0 120 255
62.511296 -70.469900 -279.493742 0 120 255
62.162438 -72.073385 -277.644968 0 120 255
61.842038 -73.739871 -275.844459 0 120 255
61.521638 -75.406357 -274.043950 0 120 255
61.201238 -77.072842 -272.243441 0 120 255
60.923245 -78.825802 -270.523231 0 120 255
60.678671 -80.646907 -268.866299 0 120 255
60.434097 -82.468012 -267.209366 0 120 255
60.189523 -84.289116 -265.552434 0 120 255
59.984480 -86.185355 -263.980728 0 120 255
59.816692 -88.152402 -262.489341 0 120 255
59.648904 -90.119450 -260.997954 0 120 255
59.481115 -92.086497 -259.506567 0 120 255
59.349408 -94.116010 -258.102672 0 120 255
59.258318 -96.215839 -256.797266 0 120 255
59.167227 -98.315667 -255.491860 0 120 255
59.076136 -100.415496 -254.186454 0 120 255
59.018004 -102.564529 -252.967815 0 120 255
59.004250 -104.779813 -251.866001 0 120 255
58.990496 -106.995096 -250.764188 0 120 255
58.976742 -109.210380 -249.662374 0 120 255
58.993615 -111.461786 -248.643673 0 120 255
59.060021 -113.771611 -247.759388 0 120 255
59.126428 -116.081436 -246.875103 0 120 255
59.192834 -118.391262 -245.990818 0 120 255
59.288379 -120.724972 -245.183349 0 120 255
59.440947 -123.105424 -244.526208 0 120 255
59.593516 -125.485876 -243.869067 0 120 255
59.746084 -127.866328 -243.211926 0 120 255
59.926909 -130.259807 -242.623092 0 120 255
60.175420 -132.684492 -242.197875 0 120 255
60.423931 -135.109177 -241.772658 0 120 255
60.672442 -137.533862 -241.347441 0 120 255
60.948474 -139.962506 -240.980305 0 120 255
61.306581 -142.402961 -240.786382 0 120 255
61.664688 -144.843415 -240.592459 0 120 255
62.022795 -147.283869 -240.398536 0 120 255
62.407272 -149.721322 -240.251323 0 120 255
62.892163 -152.147349 -240.281972 0 120 255
63.377054 -154.573375 -240.312621 0 120 255
63.861945 -156.999402 -240.343271 0 120 255
64.371059 -159.417827 -240.408772 0 120 255
65.002590 -161.797836 -240.650403 0 120 255
65.634121 -164.177846 -240.892034 0 120 255
66.265652 -166.557856 -241.133665 0 120 255
66.917776 -168.928225 -241.398576 0 120 255
67.717132 -171.229665 -241.829932 0 120 255
68.516488 -173.531105 -242.261287 0 120 255
69.315843 -175.832545 -242.692643 0 120 255
70.130383 -178.125006 -243.136895 0 120 255
71.118183 -180.315018 -243.728303 0 120 255
72.105983 -182.505029 -244.319712 0 120 255
73.093783 -184.695041 -244.911121 0 120 255
74.089579 -186.879483 -245.507241 0 120 255
75.283626 -188.925854 -246.220181 0 120 255
76.477673 -190.972224 -246.933121 0 120 255
77.671719 -193.018595 -247.646062 0 120 255
78.865766 -195.064965 -248.359002 0 120 255
80.277828 -196.937955 -249.146038 0 120 255
81.690484 -198.810473 -249.933276 0 120 255
83.103141 -200.682990 -250.720514 0 120 255
84.515797 -202.555508 -251.507752 0 120 255
86.141569 -204.236490 -252.313383 0 120 255
87.777126 -205.908679 -253.119859 0 120 255
89.412682 -207.580867 -253.926335 0 120 255
91.048238 -209.253056 -254.732811 0 120 255
92.882143 -210.722967 -255.501086 0 120 255
94.734431 -212.174129 -256.265819 0 120 255
96.586720 -213.625292 -257.030553 0 120 255
98.439008 -215.076455 -257.795287 0 120 255
100.464841 -216.323089 -258.467606 0 120 255
102.515586 -217.540365 -259.126659 0 120 255
104.566330 -218.757641 -259.785712 0 120 255
106.617074 -219.974916 -260.444765 0 120 255
108.807444 -220.994554 -260.963103 0 120 255
111.025623 -221.974829 -261.453416 0 120 255
113.243802 -222.955105 -261.943730 0 120 255
115.461980 -223.935380 -262.434043 0 120 255
117.778912 -224.733804 -262.744611 0 120 255
120.121551 -225.484887 -263.008385 0 120 255
122.464191 -226.235969 -263.272159 0 120 255
124.806831 -226.987052 -263.535933 0 120 255
127.203435 -227.579935 -263.592849 0 120 255
129.617742 -228.120919 -263.581904 0 120 255
132.032049 -228.661904 -263.570958 0 120 255
134.446357 -229.202889 -263.560013 0 120 255
136.869510 -229.615227 -263.328455 0 120 255
139.296233 -229.975650 -263.007871 0 120 255
141.722955 -230.336074 -262.687286 0 120 255
144.149678 -230.696497 -262.366701 0 120 255
146.543324 -230.961210 -261.825211 0 120 255
148.920815 -231.179179 -261.175836 0 120 255
151.298306 -231.397148 -260.526462 0 120 255
153.675798 -231.615117 -259.877088 0 120 255
155.984440 -231.771631 -259.018700 0 120 255
158.252842 -231.892226 -258.038153 0 120 255
160.521244 -232.012822 -257.057607 0 120 255
162.789647 -232.133418 -256.077061 0 120 255
164.961795 -232.224506 -254.909265 0 120 255
167.067102 -232.295102 -253.611435 0 120 255
169.172409 -232.365699 -252.313605 0 120 255
171.277716 -232.436296 -251.015775 0 120 255
173.266697 -232.494001 -249.556457 0 120 255
175.160107 -232.541115 -247.964463 0 120 255
177.053517 -232.588228 -246.372470 0 120 255
178.946927 -232.635342 -244.780477 0 120 255
180.709739 -232.673579 -243.054591 0 120 255
182.345867 -232.703206 -241.198824 0 120 255
183.981995 -232.732833 -239.343057 0 120 255
185.618122 -232.762460 -237.487290 0 120 255
187.116236 -232.786204 -235.527081 0 120 255
188.456337 -232.803214 -233.447297 0 120 255
189.796439 -232.820223 -231.367513 0 120 255
191.136540 -232.837232 -229.287728 0 120 255
192.338316 -232.850986 -227.132819 0 120 255
193.352741 -232.860330 -224.876158 0 120 255
194.367166 -232.869675 -222.619498 0 120 255
195.381591 -232.879020 -220.362837 0 120 255
196.263573 -232.886483 -218.058113 0 120 255
196.932341 -232.890916 -215.676015 0 120 255
197.601110 -232.895350 -213.293916 0 120 255
198.269879 -232.899784 -210.911818 0 120 255
198.817125 -232.902847 -208.505052 0 120 255
199.130055 -232.903266 -206.050721 0 120 255
199.442985 -232.903685 -203.596391 0 120 255
199.755916 -232.904104 -201.142061 0 120 255
199.961916 -232.903156 -198.681891 0 120 255
199.918159 -232.899013 -196.208082 0 120 255
199.874401 -232.894870 -193.734273 0 120 255
199.830644 -232.890727 -191.260463 0 120 255
199.696843 -232.885023 -188.794654 0 120 255
199.304053 -232.874833 -186.351853 0 120 255
198.911262 -232.864642 -183.909053 0 120 255
198.518471 -232.854451 -181.466252 0 120 255
198.053491 -232.842528 -179.040273 0 120 255
197.326649 -232.824320 -176.675314 0 120 255
196.599807 -232.806112 -174.310354 0 120 255
195.872966 -232.787904 -171.945395 0 120 255
195.091602 -232.767961 -169.601348 0 120 255
194.051756 -232.739789 -167.356445 0 120 255
193.011909 -232.711617 -165.111542 0 120 255
191.972063 -232.683445 -162.866639 0 120 255
190.894248 -232.653752 -160.642502 0 120 255
189.567211 -232.614075 -158.554665 0 120 255
188.240174 -232.574398 -156.466829 0 120 255
186.913137 -232.534721 -154.378992 0 120 255
185.562847 -232.493934 -152.308163 0 120 255
183.977944 -232.441942 -150.408942 0 120 255
182.393041 -232.389950 -148.509720 0 120 255
180.808138 -232.337958 -146.610499 0 120 255
179.212354 -232.285382 -144.721607 0 120 255
177.401291 -232.221261 -143.037088 0 120 255
175.590229 -232.157141 -141.352569 0 120 255
173.779166 -232.093020 -139.668051 0 120 255
171.966945 -232.028834 -137.984945 0 120 255
169.962848 -231.953939 -136.535928 0 120 255
167.958752 -231.879044 -135.086910 0 120 255
165.954656 -231.804149 -133.637892 0 120 255
163.950559 -231.729254 -132.188875 0 120 255
161.792889 -231.646590 -130.982144 0 120 255
159.629459 -231.563635 -129.784498 0 120 255
157.466030 -231.480680 -128.586852 0 120 255
155.302601 -231.397725 -127.389206 0 120 255
153.023347 -231.310895 -126.433694 0 120 255
150.734254 -231.223735 -125.498750 0 120 255
148.445161 -231.136575 -124.563806 0 120 255
146.156068 -231.049415 -123.628862 0 120 255
143.785684 -230.960402 -122.931445 0 120 255
141.404171 -230.871136 -122.266547 0 120 255
139.022658 -230.781869 -121.601649 0 120 255
136.641144 -230.692603 -120.936752 0 120 255
134.209485 -230.602425 -120.500991 0 120 255
131.768095 -230.512070 -120.109692 0 120 255
129.326705 -230.421715 -119.718393 0 120 255
126.885315 -230.331360 -119.327094 0 120 255
124.421370 -230.240991 -119.153436 0 120 255
121.951624 -230.150619 -119.035753 0 120 255
119.481877 -230.060246 -118.918071 0 120 255
117.012131 -229.969874 -118.800388 0 120 255
114.543801 -229.880304 -118.886423 0 120 255
112.075935 -229.790997 -119.039146 0 120 255
109.608069 -229.701690 -119.191868 0 120 255
107.140203 -229.612383 -119.344591 0 120 255
104.694091 -229.524558 -119.685144 0 120 255
102.256806 -229.437334 -120.101915 0 120 255
99.819521 -229.350111 -120.518686 0 120 255
97.382236 -229.262888 -120.935457 0 120 255
94.983447 -229.177696 -121.522900 0 120 255
92.603674 -229.093507 -122.194658 0 120 255
90.223902 -229.009319 -122.866416 0 120 255
87.844129 -228.925131 -123.538173 0 120 255
85.516100 -228.843374 -124.362678 0 120 255
83.218809 -228.763062 -125.277918 0 120 255
80.921517 -228.682750 -126.193158 0 120 255
78.624225 -228.602438 -127.108398 0 120 255
76.388601 -228.524873 -128.158210 0 120 255
74.196657 -228.449254 -129.303341 0 120 255
72.004713 -228.373634 -130.448472 0 120 255
69.812768 -228.298014 -131.593603 0 120 255
67.689286 -228.225322 -132.855286 0 120 255
65.623327 -228.155090 -134.214897 0 120 255
63.557367 -228.084857 -135.574508 0 120 255
61.491407 -228.014625 -136.934118 0 120 255
59.497787 -227.947399 -138.392769 0 120 255
57.576079 -227.883164 -139.949874 0 120 255
55.654371 -227.818928 -141.506979 0 120 255
53.732663 -227.754693 -143.064083 0 120 255
51.884617 -227.693441 -144.703670 0 120 255
50.123195 -227.635698 -146.440253 0 120 255
48.361772 -227.577955 -148.176836 0 120 255
46.600350 -227.520211 -149.913419 0 120 255
44.911654 -227.465371 -151.717109 0 120 255
43.324352 -227.414576 -153.614358 0 120 255
41.737049 -227.363781 -155.511607 0 120 255
40.149747 -227.312987 -157.408857 0 120 255
38.632276 -227.264934 -159.359201 0 120 255
37.230784 -227.221435 -161.397727 0 120 255
35.829291 -227.177935 -163.436254 0 120 255
34.427799 -227.134436 -165.474780 0 120 255
33.091606 -227.093469 -167.553907 0 120 255
31.885627 -227.057553 -169.713997 0 120 255
30.679648 -227.021637 -171.874087 0 120 255
29.473670 -226.985721 -174.034177 0 120 255
28.327127 -226.952078 -176.223986 0 120 255
27.324569 -226.923945 -178.485788 0 120 255
26.322011 -226.895811 -180.747590 0 120 255
25.319452 -226.867677 -183.009392 0 120 255
24.369359 -226.841532 -185.291671 0 120 255
23.576323 -226.821336 -187.635247 0 120 255
22.783287 -226.801141 -189.978823 0 120 255
21.990252 -226.780946 -192.322400 0 120 255
21.241858 -226.762424 -194.678886 0 120 255
20.662767 -226.750247 -197.084331 0 120 255
20.083676 -226.738070 -199.489777 0 120 255
19.504584 -226.725892 -201.895222 0 120 255
18.961676 -226.715062 -204.307692 0 120 255
18.599317 -226.710950 -206.755209 0 120 255
18.236959 -226.706837 -209.202727 0 120 255
17.874600 -226.702725 -211.650245 0 120 255
17.539533 -226.699618 -214.100575 0 120 255
17.395030 -226.703527 -216.570548 0 120 255
17.250528 -226.707436 -219.040521 0 120 255
17.106025 -226.711346 -221.510494 0 120 255
16.979698 -226.715917 -223.980729 0 120 255
17.052555 -226.727732 -226.453827 0 120 255
17.125413 -226.739548 -228.926926 0 120 255
17.198271 -226.751363 -231.400024 0 120 255
17.280168 -226.763505 -233.872458 0 120 255
17.568314 -226.783092 -236.329744 0 120 255
17.856460 -226.802679 -238.787029 0 120 255
18.144606 -226.822266 -241.244314 0 120 255
18.432833 -226.841856 -243.701587 0 120 255
18.932594 -226.869023 -246.124635 0 120 255
19.432355 -226.896190 -248.547684 0 120 255
19.932116 -226.923357 -250.970732 0 120 255
20.431878 -226.950524 -253.393781 0 120 255
21.129497 -226.984705 -255.766971 0 120 255
21.835614 -227.019187 -258.138020 0 120 255
22.541731 -227.053670 -260.509069 0 120 255
23.247848 -227.088152 -262.880118 0 120 255
24.137018 -227.129066 -265.187926 0 120 255
25.042699 -227.170561 -267.490030 0 120 255
25.948380 -227.212055 -269.792135 0 120 255
26.854060 -227.253550 -272.094239 0 120 255
27.927179 -227.300860 -274.322035 0 120 255
29.024061 -227.348995 -276.539284 0 120 255
30.120944 -227.397131 -278.756534 0 120 255
31.217826 -227.445266 -280.973783 0 120 255
32.466004 -227.498594 -283.108015 0 120 255
33.744254 -227.552954 -285.225746 0 120 255
35.022504 -227.607314 -287.343477 0 120 255
36.300754 -227.661674 -289.461209 0 120 255
37.713841 -227.720621 -291.489638 0 120 255
39.162198 -227.780769 -293.494709 0 120 255
40.610555 -227.840916 -295.499779 0 120 255
42.058911 -227.901064 -297.504850 0 120 255
43.625630 -227.965170 -299.416766 0 120 255
45.231568 -228.030588 -301.297816 0 120 255
46.837505 -228.096006 -303.178866 0 120 255
48.443442 -228.161424 -305.059916 0 120 255
50.151596 -228.230215 -306.846307 0 120 255
51.901592 -228.300387 -308.593949 0 120 255
53.651588 -228.370559 -310.341591 0 120 255
55.401585 -228.440731 -312.089232 0 120 255
57.238266 -228.513764 -313.742957 0 120 255
59.118037 -228.588221 -315.349998 0 120 255
60.997808 -228.662677 -316.957039 0 120 255
62.877580 -228.737133 -318.564080 0 120 255
64.829490 -228.814008 -320.079906 0 120 255
66.824433 -228.892327 -321.541320 0 120 255
68.819376 -228.970646 -323.002734 0 120 255
70.814320 -229.048965 -324.464148 0 120 255
72.868001 -229.129356 -325.838847 0 120 255
74.963399 -229.211220 -327.151962 0 120 255
77.058797 -229.293084 -328.465076 0 120 255
79.154195 -229.374948 -329.778190 0 120 255
81.296165 -229.457645 -331.010879 0 120 255
83.477318 -229.541044 -332.175901 0 120 255
85.658472 -229.624442 -333.340924 0 120 255
87.839626 -229.707841 -334.505946 0 120 255
90.056220 -229.786843 -335.599462 0 120 255
92.308059 -229.861475 -336.621868 0 120 255
94.559899 -229.936106 -337.644274 0 120 255
96.811738 -230.010737 -338.666679 0 120 255
99.089634 -230.075670 -339.627552 0 120 255
101.398160 -230.129203 -340.516093 0 120 255
103.706686 -230.182736 -341.404635 0 120 255
106.015212 -230.236269 -342.293176 0 120 255
108.342254 -230.276729 -343.130122 0 120 255
110.695086 -230.298983 -343.895204 0 120 255
113.047917 -230.321236 -344.660286 0 120 255
115.400749 -230.343489 -345.425368 0 120 255
117.766212 -230.351250 -346.148300 0 120 255
120.152623 -230.334973 -346.801322 0 120 255
122.539035 -230.318695 -347.454344 0 120 255
124.925447 -230.302418 -348.107366 0 120 255
127.320016 -230.271726 -348.727043 0 120 255
129.730826 -230.212336 -349.280332 0 120 255
132.141637 -230.152946 -349.833621 0 120 255
134.552447 -230.093556 -350.386910 0 120 255
136.968168 -230.021009 -350.914786 0 120 255
139.395766 -229.916638 -351.381197 0 120 255
141.823364 -229.812268 -351.847608 0 120 255
144.250962 -229.707898 -352.314019 0 120 255
146.681247 -229.592480 -352.761959 0 120 255
149.119565 -229.444039 -353.154683 0 120 255
151.557884 -229.295598 -353.547406 0 120 255
153.996202 -229.147158 -353.940130 0 120 255
156.435808 -228.990259 -354.320246 0 120 255
158.880294 -228.801309 -354.652588 0 120 255
161.324779 -228.612360 -354.984931 0 120 255
163.769265 -228.423411 -355.317273 0 120 255
166.214243 -228.228990 -355.642106 0 120 255
168.661676 -228.007259 -355.929454 0 120 255
171.109109 -227.785527 -356.216802 0 120 255
173.556542 -227.563795 -356.504150 0 120 255
176.003944 -227.340850 -356.790800 0 120 255
178.451128 -227.109415 -357.072568 0 120 255
180.898312 -226.877981 -357.354337 0 120 255
183.345495 -226.646546 -357.636105 0 120 255
185.792679 -226.415110 -357.917874 0 120 255
188.239860 -226.183664 -358.199655 0 120 255
190.687041 -225.952219 -358.481436 0 120 255
193.134222 -225.720773 -358.763217 0 120 255
195.581404 -225.489327 -359.044997 0 120 255
198.028586 -225.257886 -359.326771 0 120 255
200.475768 -225.026444 -359.608544 0 120 255
202.922951 -224.795002 -359.890317 0 120 255
205.370133 -224.563560 -360.172091 0 120 255
