ply
format ascii 1.0
element vertex 385
property float x
property float y
property float z
property uchar red
property uchar green
property uchar blue
end_header
77.430455 -42.474882 -360.397637 0 120 255
77.187534 -42.528715 -357.935747 0 120 255
76.944613 -42.582549 -355.473858 0 120 255
76.701692 -42.636382 -353.011969 0 120 255
76.458771 -42.690216 -350.550080 0 120 255
76.217220 -42.753949 -348.088293 0 120 255
75.975727 -42.818108 -345.626511 0 120 255
75.734234 -42.882268 -343.164729 0 120 255
75.492742 -42.946428 -340.702946 0 120 255
75.242914 -43.167683 -338.251588 0 120 255
74.992321 -43.403355 -335.801186 0 120 255
74.741729 -43.639027 -333.350784 0 120 255
74.491136 -43.874698 -330.900382 0 120 255
74.232395 -44.237442 -328.466903 0 120 255
73.972443 -44.619075 -326.035938 0 120 255
73.712491 -45.000709 -323.604974 0 120 255
73.452539 -45.382342 -321.174009 0 120 255
73.184897 -45.872985 -318.764067 0 120 255
72.915626 -46.386712 -316.358577 0 120 255
72.646356 -46.900440 -313.953086 0 120 255
72.377085 -47.414168 -311.547596 0 120 255
72.099845 -48.020740 -309.165283 0 120 255
71.820357 -48.653510 -306.789510 0 120 255
71.540868 -49.286280 -304.413738 0 120 255
71.261380 -49.919050 -302.037965 0 120 255
70.973137 -50.630365 -299.686095 0 120 255
70.681733 -51.370048 -297.342859 0 120 255
70.390329 -52.109732 -294.999622 0 120 255
70.098925 -52.849415 -292.656385 0 120 255
69.797667 -53.655112 -290.336763 0 120 255
69.491972 -54.490544 -288.027778 0 120 255
69.186277 -55.325975 -285.718793 0 120 255
68.880582 -56.161407 -283.409808 0 120 255
68.563764 -57.051944 -281.123468 0 120 255
68.240806 -57.972901 -278.849629 0 120 255
67.917848 -58.893858 -276.575790 0 120 255
67.594891 -59.814815 -274.301951 0 120 255
67.259513 -60.781438 -272.049360 0 120 255
66.915830 -61.778597 -269.810976 0 120 255
66.572147 -62.775755 -267.572591 0 120 255
66.228464 -63.772913 -265.334207 0 120 255
65.871135 -64.807609 -263.115438 0 120 255
65.502835 -65.872485 -260.912440 0 120 255
65.134534 -66.937361 -258.709441 0 120 255
64.766234 -68.002236 -256.506443 0 120 255
64.383211 -69.097681 -254.321338 0 120 255
63.986013 -70.222559 -252.153461 0 120 255
63.588815 -71.347437 -249.985584 0 120 255
63.191617 -72.472315 -247.817707 0 120 255
62.778850 -73.621809 -245.666006 0 120 255
62.348148 -74.799657 -243.532939 0 120 255
61.917447 -75.977506 -241.399872 0 120 255
61.486746 -77.155355 -239.266805 0 120 255
61.039913 -78.352748 -237.148263 0 120 255
60.570808 -79.577123 -235.049774 0 120 255
60.101704 -80.801498 -232.951286 0 120 255
59.632600 -82.025873 -230.852798 0 120 255
59.147142 -83.265496 -228.767285 0 120 255
58.634490 -84.530473 -226.703350 0 120 255
58.121837 -85.795451 -224.639416 0 120 255
57.609185 -87.060428 -222.575481 0 120 255
57.080338 -88.337033 -220.523083 0 120 255
56.518778 -89.637122 -218.493988 0 120 255
55.957218 -90.937211 -216.464893 0 120 255
55.395658 -92.237300 -214.435799 0 120 255
54.818478 -93.545990 -212.416899 0 120 255
54.202470 -94.876057 -210.423345 0 120 255
53.586462 -96.206125 -208.429790 0 120 255
52.970453 -97.536193 -206.436236 0 120 255
52.339850 -98.872361 -204.451601 0 120 255
51.663719 -100.227557 -202.494793 0 120 255
50.987589 -101.582752 -200.537984 0 120 255
50.311458 -102.937948 -198.581176 0 120 255
49.622230 -104.297216 -196.632031 0 120 255
48.880212 -105.672900 -194.713774 0 120 255
48.138194 -107.048584 -192.795517 0 120 255
47.396176 -108.424269 -190.877260 0 120 255
46.643051 -109.802433 -188.965364 0 120 255
45.829359 -111.194120 -187.088154 0 120 255
45.015666 -112.585808 -185.210944 0 120 255
44.201974 -113.977495 -183.333734 0 120 255
43.379664 -115.370472 -181.461455 0 120 255
42.488546 -116.773745 -179.628549 0 120 255
41.597428 -118.177017 -177.795644 0 120 255
40.706310 -119.580290 -175.962739 0 120 255
39.809560 -120.984051 -174.133117 0 120 255
38.835400 -122.394522 -172.348631 0 120 255
37.861240 -123.804993 -170.564145 0 120 255
36.887081 -125.215464 -168.779659 0 120 255
35.910752 -126.626003 -166.996484 0 120 255
34.848157 -128.039247 -165.265461 0 120 255
33.785562 -129.452491 -163.534438 0 120 255
32.722967 -130.865735 -161.803415 0 120 255
31.660373 -132.278979 -160.072391 0 120 255
30.506049 -133.690508 -158.399758 0 120 255
29.349989 -135.102005 -156.728229 0 120 255
28.193929 -136.513502 -155.056700 0 120 255
27.037870 -137.924999 -153.385171 0 120 255
25.789839 -139.330485 -151.776126 0 120 255
24.535785 -140.735578 -150.171174 0 120 255
23.281731 -142.140670 -148.566222 0 120 255
22.027678 -143.545762 -146.961269 0 120 255
20.682380 -144.940777 -145.423279 0 120 255
19.326475 -146.334620 -143.893074 0 120 255
17.970570 -147.728464 -142.362869 0 120 255
16.614664 -149.122307 -140.832663 0 120 255
15.169292 -150.502232 -139.374163 0 120 255
13.708549 -151.879765 -137.927982 0 120 255
12.247806 -153.257298 -136.481801 0 120 255
10.787062 -154.634831 -135.035620 0 120 255
9.239751 -155.994836 -133.666007 0 120 255
7.672288 -157.350760 -132.314217 0 120 255
6.104825 -158.706685 -130.962428 0 120 255
4.537362 -160.062609 -129.610638 0 120 255
2.887390 -161.397638 -128.340230 0 120 255
1.212660 -162.726398 -127.094242 0 120 255
-0.462069 -164.055157 -125.848253 0 120 255
-2.136798 -165.383916 -124.602265 0 120 255
-3.888788 -166.688692 -123.442231 0 120 255
-5.669721 -167.984484 -122.314398 0 120 255
-7.450654 -169.280276 -121.186564 0 120 255
-9.231587 -170.576068 -120.058731 0 120 255
-11.083361 -171.845114 -119.020980 0 120 255
-12.967558 -173.101917 -118.024459 0 120 255
-14.851754 -174.358721 -117.027938 0 120 255
-16.735951 -175.615524 -116.031417 0 120 255
-18.683451 -176.843189 -115.128424 0 120 255
-20.665820 -178.054803 -114.276947 0 120 255
-22.648188 -179.266418 -113.425470 0 120 255
-24.630556 -180.478033 -112.573993 0 120 255
-26.667683 -181.658557 -111.818592 0 120 255
-28.740725 -182.818689 -111.126207 0 120 255
-30.813767 -183.978821 -110.433822 0 120 255
-32.886809 -185.138953 -109.741436 0 120 255
-35.005214 -186.266554 -109.146546 0 120 255
-37.158794 -187.368930 -108.627252 0 120 255
-39.312375 -188.471307 -108.107959 0 120 255
-41.465955 -189.573683 -107.588665 0 120 255
-43.654885 -190.642658 -107.166958 0 120 255
-45.876072 -191.681153 -106.834300 0 120 255
-48.097260 -192.719648 -106.501641 0 120 255
-50.318447 -193.758143 -106.168983 0 120 255
-52.564634 -194.762998 -105.932501 0 120 255
-54.837609 -195.731806 -105.799069 0 120 255
-57.110584 -196.700614 -105.665638 0 120 255
-59.383558 -197.669422 -105.532206 0 120 255
-61.671189 -198.605026 -105.491935 0 120 255
-63.977258 -199.498858 -105.568861 0 120 255
-66.283327 -200.392691 -105.645787 0 120 255
-68.589395 -201.286523 -105.722714 0 120 255
-70.900166 -202.148290 -105.888127 0 120 255
-73.217895 -202.962599 -106.184506 0 120 255
-75.535624 -203.776907 -106.480884 0 120 255
-77.853353 -204.591216 -106.777263 0 120 255
-80.166632 -205.375289 -107.155846 0 120 255
-82.472127 -206.106482 -107.678204 0 120 255
-84.777621 -206.837675 -108.200562 0 120 255
-87.083116 -207.568868 -108.722921 0 120 255
-89.376226 -208.272311 -109.319716 0 120 255
-91.643554 -208.917989 -110.071468 0 120 255
-93.910882 -209.563668 -110.823220 0 120 255
-96.178209 -210.209346 -111.574972 0 120 255
-98.426823 -210.830338 -112.392156 0 120 255
-100.628575 -211.389513 -113.373185 0 120 255
-102.830327 -211.948689 -114.354214 0 120 255
-105.032079 -212.507864 -115.335243 0 120 255
-107.210733 -213.045868 -116.371776 0 120 255
-109.318729 -213.519109 -117.578094 0 120 255
-111.426724 -213.992350 -118.784413 0 120 255
-113.534720 -214.465592 -119.990731 0 120 255
-115.617423 -214.921484 -121.242116 0 120 255
-117.603486 -215.311086 -122.665691 0 120 255
-119.589550 -215.700689 -124.089267 0 120 255
-121.575614 -216.090292 -125.512843 0 120 255
-123.536526 -216.466486 -126.970994 0 120 255
-125.373355 -216.776529 -128.599717 0 120 255
-127.210184 -217.086572 -130.228440 0 120 255
-129.047014 -217.396615 -131.857163 0 120 255
-130.861179 -217.697102 -133.510408 0 120 255
-132.523188 -217.933428 -135.328287 0 120 255
-134.185197 -218.169754 -137.146166 0 120 255
-135.847205 -218.406080 -138.964045 0 120 255
-137.491271 -218.636406 -140.797305 0 120 255
-138.955414 -218.806566 -142.784801 0 120 255
-140.419557 -218.976725 -144.772296 0 120 255
-141.883700 -219.146885 -146.759792 0 120 255
-143.336597 -219.314096 -148.754885 0 120 255
-144.583061 -219.427197 -150.889444 0 120 255
-145.829526 -219.540298 -153.024003 0 120 255
-147.075990 -219.653398 -155.158562 0 120 255
-148.319527 -219.765915 -157.294651 0 120 255
-149.332330 -219.832384 -159.551334 0 120 255
-150.345134 -219.898853 -161.808016 0 120 255
-151.357938 -219.965321 -164.064699 0 120 255
-152.370741 -220.031790 -166.321382 0 120 255
-153.144648 -220.064089 -168.671062 0 120 255
-153.911995 -220.095449 -171.023296 0 120 255
-154.679341 -220.126809 -173.375529 0 120 255
-155.446687 -220.158169 -175.727763 0 120 255
-155.977693 -220.169134 -178.143637 0 120 255
-156.491959 -220.178654 -180.564018 0 120 255
-157.006225 -220.188174 -182.984400 0 120 255
-157.520491 -220.197694 -185.404782 0 120 255
-157.805301 -220.202235 -187.861464 0 120 255
-158.062987 -220.206187 -190.322437 0 120 255
-158.320672 -220.210139 -192.783410 0 120 255
-158.578358 -220.214091 -195.244384 0 120 255
-158.618643 -220.222224 -197.716838 0 120 255
-158.621852 -220.231069 -200.191251 0 120 255
-158.625061 -220.239915 -202.665664 0 120 255
-158.628269 -220.248761 -205.140077 0 120 255
-158.429827 -220.264083 -207.604596 0 120 255
-158.185231 -220.280887 -210.066850 0 120 255
-157.940636 -220.297692 -212.529105 0 120 255
-157.696041 -220.314496 -214.991359 0 120 255
-157.267247 -220.338415 -217.426143 0 120 255
-156.784357 -220.364424 -219.852858 0 120 255
-156.301466 -220.390433 -222.279573 0 120 255
-155.818576 -220.416441 -224.706289 0 120 255
-155.170492 -220.448698 -227.091898 0 120 255
-154.461939 -220.483241 -229.462460 0 120 255
-153.753385 -220.517785 -231.833023 0 120 255
-153.044831 -220.552328 -234.203585 0 120 255
-152.190276 -220.592132 -236.523120 0 120 255
-151.270398 -220.634290 -238.819825 0 120 255
-150.350520 -220.676448 -241.116530 0 120 255
-149.430642 -220.718606 -243.413236 0 120 255
-148.383526 -220.765236 -245.652353 0 120 255
-147.267768 -220.814280 -247.860403 0 120 255
-146.152010 -220.863324 -250.068453 0 120 255
-145.036252 -220.912367 -252.276504 0 120 255
-143.811257 -220.965167 -254.423431 0 120 255
-142.515857 -221.020387 -256.530965 0 120 255
-141.220457 -221.075607 -258.638498 0 120 255
-139.925057 -221.130827 -260.746031 0 120 255
-138.537288 -221.189180 -262.791517 0 120 255
-137.078821 -221.249932 -264.789514 0 120 255
-135.620354 -221.310683 -266.787511 0 120 255
-134.161887 -221.371435 -268.785508 0 120 255
-132.626497 -221.434754 -270.722685 0 120 255
-131.021419 -221.500399 -272.604764 0 120 255
-129.416341 -221.566044 -274.486844 0 120 255
-127.811263 -221.631689 -276.368923 0 120 255
-126.143156 -221.699407 -278.193148 0 120 255
-124.407526 -221.769346 -279.955391 0 120 255
-122.671896 -221.839284 -281.717635 0 120 255
-120.936266 -221.909223 -283.479879 0 120 255
-119.149821 -221.980811 -285.188495 0 120 255
-117.298908 -222.054492 -286.829074 0 120 255
-115.447994 -222.128172 -288.469653 0 120 255
-113.597081 -222.201852 -290.110231 0 120 255
-111.705949 -222.276812 -291.702343 0 120 255
-109.754154 -222.353703 -293.221354 0 120 255
-107.802360 -222.430593 -294.740364 0 120 255
-105.850565 -222.507483 -296.259375 0 120 255
-103.867573 -222.585340 -297.735666 0 120 255
-101.828267 -222.664941 -299.134844 0 120 255
-99.788960 -222.744542 -300.534022 0 120 255
-97.749653 -222.824142 -301.933200 0 120 255
-95.686680 -222.904465 -303.295674 0 120 255
-93.572060 -222.986362 -304.578047 0 120 255
-91.457439 -223.068258 -305.860419 0 120 255
-89.342818 -223.150155 -307.142792 0 120 255
-87.210726 -223.232565 -308.394537 0 120 255
-85.031846 -223.316348 -309.564269 0 120 255
-82.852967 -223.400131 -310.734000 0 120 255
-80.674087 -223.483914 -311.903732 0 120 255
-78.482715 -223.568051 -313.048738 0 120 255
-76.249401 -223.653378 -314.110733 0 120 255
-74.016086 -223.738704 -315.172727 0 120 255
-71.782771 -223.824030 -316.234721 0 120 255
-69.540912 -223.909595 -317.277627 0 120 255
-67.261920 -223.996199 -318.237576 0 120 255
-64.982928 -224.082803 -319.197524 0 120 255
-62.703936 -224.169408 -320.157472 0 120 255
-60.419452 -224.256162 -321.103571 0 120 255
-58.102479 -224.343806 -321.967724 0 120 255
-55.785505 -224.431449 -322.831876 0 120 255
-53.468532 -224.519093 -323.696029 0 120 255
-51.148365 -224.606818 -324.551084 0 120 255
-48.800099 -224.695264 -325.326089 0 120 255
-46.451833 -224.783709 -326.101094 0 120 255
-44.103568 -224.872155 -326.876099 0 120 255
-41.753782 -224.960637 -327.646209 0 120 255
-39.379964 -225.049708 -328.338928 0 120 255
-37.006145 -225.138779 -329.031647 0 120 255
-34.632327 -225.227850 -329.724366 0 120 255
-32.258160 -225.316929 -330.415814 0 120 255
-29.863679 -225.406451 -331.033272 0 120 255
-27.469198 -225.495974 -331.650730 0 120 255
-25.074717 -225.585496 -332.268188 0 120 255
-22.680236 -225.675018 -332.885645 0 120 255
-20.269628 -225.764889 -333.436622 0 120 255
-17.858594 -225.854768 -333.985842 0 120 255
-15.447559 -225.944648 -334.535061 0 120 255
-13.036525 -226.034527 -335.084281 0 120 255
-10.613270 -226.124651 -335.576491 0 120 255
-8.189118 -226.214792 -336.064516 0 120 255
-5.764966 -226.304933 -336.552541 0 120 255
-3.340814 -226.395075 -337.040567 0 120 255
-0.907505 -226.485377 -337.480292 0 120 255
1.526948 -226.575699 -337.913985 0 120 255
3.961400 -226.666022 -338.347677 0 120 255
6.395853 -226.756344 -338.781370 0 120 255
8.837061 -226.846760 -339.174860 0 120 255
11.279495 -226.937193 -339.561049 0 120 255
13.721930 -227.027626 -339.947238 0 120 255
16.164364 -227.118059 -340.333427 0 120 255
18.611719 -227.208579 -340.686692 0 120 255
21.060277 -227.299120 -341.031913 0 120 255
23.508834 -227.389661 -341.377134 0 120 255
25.957391 -227.480202 -341.722354 0 120 255
28.409465 -227.570785 -342.041279 0 120 255
30.862644 -227.661381 -342.351946 0 120 255
33.315822 -227.751976 -342.662612 0 120 255
35.769001 -227.842572 -342.973278 0 120 255
38.224630 -227.933187 -343.263653 0 120 255
40.681220 -228.023810 -343.546073 0 120 255
43.137810 -228.114433 -343.828492 0 120 255
45.594400 -228.205055 -344.110911 0 120 255
48.052649 -228.295585 -344.378334 0 120 255
50.511694 -228.386071 -344.638559 0 120 255
52.970739 -228.476557 -344.898783 0 120 255
55.429784 -228.567043 -345.159007 0 120 255
57.889907 -228.657170 -345.408840 0 120 255
60.350654 -228.747089 -345.652649 0 120 255
62.811402 -228.837008 -345.896457 0 120 255
65.272150 -228.926927 -346.140265 0 120 255
67.733577 -229.015707 -346.377478 0 120 255
70.195476 -229.103697 -346.610114 0 120 255
72.657374 -229.191687 -346.842751 0 120 255
75.119273 -229.279678 -347.075387 0 120 255
77.581743 -229.362952 -347.303595 0 120 255
80.044685 -229.442334 -347.528148 0 120 255
82.507626 -229.521715 -347.752701 0 120 255
84.970568 -229.601097 -347.977254 0 120 255
87.434005 -229.672185 -348.198964 0 120 255
89.897928 -229.735152 -348.417890 0 120 255
92.361850 -229.798120 -348.636816 0 120 255
94.825772 -229.861087 -348.855742 0 120 255
97.290010 -229.913895 -349.073523 0 120 255
99.754614 -229.954908 -349.289975 0 120 255
102.219219 -229.995922 -349.506426 0 120 255
104.683823 -230.036935 -349.722878 0 120 255
107.148528 -230.066713 -349.939617 0 120 255
109.613371 -230.080995 -350.156754 0 120 255
112.078215 -230.095277 -350.373891 0 120 255
114.543059 -230.109559 -350.591028 0 120 255
117.007767 -230.112125 -350.809626 0 120 255
119.472251 -230.095401 -351.030631 0 120 255
121.936736 -230.078677 -351.251635 0 120 255
124.401221 -230.061953 -351.472640 0 120 255
126.865332 -230.033570 -351.695965 0 120 255
129.328706 -229.982083 -351.923888 0 120 255
131.792079 -229.930597 -352.151811 0 120 255
134.255452 -229.879111 -352.379734 0 120 255
136.718231 -229.816490 -352.610571 0 120 255
139.179575 -229.727003 -352.848440 0 120 255
141.640920 -229.637516 -353.086310 0 120 255
144.102265 -229.548029 -353.324179 0 120 255
146.562832 -229.448336 -353.565286 0 120 255
149.021074 -229.318120 -353.816079 0 120 255
151.479316 -229.187903 -354.066872 0 120 255
153.937558 -229.057687 -354.317665 0 120 255
156.394901 -228.918537 -354.571752 0 120 255
158.848826 -228.745403 -354.838365 0 120 255
161.302752 -228.572270 -355.104979 0 120 255
163.756677 -228.399136 -355.371593 0 120 255
166.209606 -228.218411 -355.641648 0 120 255
168.657520 -227.999474 -355.929030 0 120 255
171.105435 -227.780536 -356.216412 0 120 255
173.553349 -227.561599 -356.503794 0 120 255
176.001201 -227.341109 -356.790484 0 120 255
178.448613 -227.109653 -357.072279 0 120 255
180.896026 -226.878197 -357.354073 0 120 255
183.343438 -226.646740 -357.635868 0 120 255
185.790850 -226.415283 -357.917664 0 120 255
188.238260 -226.183816 -358.199471 0 120 255
190.685670 -225.952348 -358.481278 0 120 255
193.133079 -225.720881 -358.763085 0 120 255
195.580489 -225.489414 -359.044892 0 120 255
198.027900 -225.257950 -359.326692 0 120 255
200.475311 -225.026487 -359.608491 0 120 255
202.922722 -224.795024 -359.890291 0 120 255
205.370133 -224.563560 -360.172091 0 120 255
