ply
format ascii 1.0
element vertex 385
property float x
property float y
property float z
property uchar red
property uchar green
property uchar blue
end_header
77.430455 -42.474882 -360.397637 0 120 255
77.187474 -42.528729 -357.935139 0 120 255
76.944493 -42.582575 -355.472642 0 120 255
76.701512 -42.636422 -353.010145 0 120 255
76.458531 -42.690269 -350.547648 0 120 255
76.225371 -42.760778 -348.084625 0 120 255
75.992623 -42.831988 -345.621581 0 120 255
75.759875 -42.903197 -343.158536 0 120 255
75.527127 -42.974406 -340.695491 0 120 255
75.376208 -43.342374 -338.254305 0 120 255
75.232393 -43.736101 -335.815017 0 120 255
75.088577 -44.129828 -333.375729 0 120 255
74.944761 -44.523555 -330.936440 0 120 255
74.876860 -45.161420 -328.547970 0 120 255
74.819637 -45.833625 -326.166647 0 120 255
74.762414 -46.505829 -323.785324 0 120 255
74.705191 -47.178034 -321.404001 0 120 255
74.724885 -48.056631 -319.092557 0 120 255
74.760041 -48.976720 -316.795160 0 120 255
74.795198 -49.896809 -314.497763 0 120 255
74.830355 -50.816898 -312.200366 0 120 255
74.941518 -51.907096 -309.983644 0 120 255
75.073122 -53.043041 -307.788618 0 120 255
75.204726 -54.178986 -305.593592 0 120 255
75.336330 -55.314932 -303.398565 0 120 255
75.541494 -56.587473 -301.288214 0 120 255
75.772083 -57.907227 -299.207131 0 120 255
76.002673 -59.226981 -297.126047 0 120 255
76.233262 -60.546736 -295.044964 0 120 255
76.533774 -61.973108 -293.047228 0 120 255
76.864539 -63.445609 -291.085554 0 120 255
77.195304 -64.918111 -289.123880 0 120 255
77.526068 -66.390613 -287.162206 0 120 255
77.922221 -67.943688 -285.278625 0 120 255
78.353169 -69.539638 -283.436600 0 120 255
78.784117 -71.135589 -281.594574 0 120 255
79.215065 -72.731539 -279.752549 0 120 255
79.706219 -74.386003 -277.980654 0 120 255
80.236301 -76.078301 -276.254105 0 120 255
80.766383 -77.770599 -274.527555 0 120 255
81.296465 -79.462896 -272.801005 0 120 255
81.881126 -81.195497 -271.134976 0 120 255
82.508335 -82.959516 -269.516125 0 120 255
83.135544 -84.723534 -267.897274 0 120 255
83.762753 -86.487553 -266.278423 0 120 255
84.438632 -88.277224 -264.709693 0 120 255
85.160050 -90.090898 -263.187860 0 120 255
85.881468 -91.904572 -261.666027 0 120 255
86.602886 -93.718245 -260.144195 0 120 255
87.366924 -95.546121 -258.661993 0 120 255
88.178756 -97.389924 -257.224233 0 120 255
88.990588 -99.233726 -255.786473 0 120 255
89.802420 -101.077529 -254.348713 0 120 255
90.650792 -102.926894 -252.940549 0 120 255
91.548342 -104.783746 -251.572215 0 120 255
92.445892 -106.640598 -250.203882 0 120 255
93.343442 -108.497450 -248.835549 0 120 255
94.271531 -110.353629 -247.487627 0 120 255
95.249158 -112.208716 -246.172816 0 120 255
96.226785 -114.063804 -244.858005 0 120 255
97.204413 -115.918891 -243.543194 0 120 255
98.206763 -117.769100 -242.240773 0 120 255
99.257825 -119.609697 -240.962766 0 120 255
100.308886 -121.450294 -239.684759 0 120 255
101.359948 -123.290892 -238.406752 0 120 255
102.430208 -125.124085 -237.134482 0 120 255
103.546975 -126.939343 -235.876109 0 120 255
104.663741 -128.754601 -234.617735 0 120 255
105.780507 -130.569859 -233.359362 0 120 255
106.911355 -132.376554 -232.101569 0 120 255
108.084909 -134.157279 -230.845535 0 120 255
109.258462 -135.938004 -229.589501 0 120 255
110.432016 -137.718730 -228.333468 0 120 255
111.615072 -139.490828 -227.074421 0 120 255
112.835199 -141.229273 -225.803621 0 120 255
114.055325 -142.967717 -224.532820 0 120 255
115.275452 -144.706162 -223.262020 0 120 255
116.501188 -146.436778 -221.986187 0 120 255
117.756285 -148.126428 -220.684016 0 120 255
119.011382 -149.816078 -219.381846 0 120 255
120.266478 -151.505727 -218.079675 0 120 255
121.524135 -153.189019 -216.771977 0 120 255
122.801091 -154.824391 -215.422616 0 120 255
124.078046 -156.459764 -214.073256 0 120 255
125.355001 -158.095136 -212.723895 0 120 255
126.632489 -159.726135 -211.369940 0 120 255
127.916625 -161.302598 -209.958703 0 120 255
129.200761 -162.879061 -208.547466 0 120 255
130.484897 -164.455525 -207.136228 0 120 255
131.768742 -166.029992 -205.722606 0 120 255
133.043732 -167.543597 -204.236257 0 120 255
134.318721 -169.057201 -202.749907 0 120 255
135.593710 -170.570806 -201.263558 0 120 255
136.868700 -172.084411 -199.777208 0 120 255
138.116838 -173.532435 -198.205242 0 120 255
139.364696 -174.979776 -196.632383 0 120 255
140.612554 -176.427116 -195.059523 0 120 255
141.860412 -177.874457 -193.486664 0 120 255
143.063965 -179.256104 -191.823068 0 120 255
144.265090 -180.634153 -190.154503 0 120 255
145.466215 -182.012202 -188.485937 0 120 255
146.667340 -183.390251 -186.817372 0 120 255
147.806910 -184.703006 -185.056071 0 120 255
148.940164 -186.009060 -183.285255 0 120 255
150.073418 -187.315115 -181.514439 0 120 255
151.206672 -188.621169 -179.743623 0 120 255
152.261670 -189.862681 -177.881212 0 120 255
153.304594 -191.094236 -176.004669 0 120 255
154.347518 -192.325790 -174.128125 0 120 255
155.390442 -193.557344 -172.251582 0 120 255
156.339325 -194.725427 -170.287727 0 120 255
157.268431 -195.880164 -168.305512 0 120 255
158.197537 -197.034900 -166.323297 0 120 255
159.126644 -198.189636 -164.341082 0 120 255
159.947227 -199.282213 -162.278856 0 120 255
160.738388 -200.357938 -160.194939 0 120 255
161.529549 -201.433664 -158.111022 0 120 255
162.320710 -202.509389 -156.027104 0 120 255
162.990632 -203.524533 -153.873346 0 120 255
163.619653 -204.519241 -151.696026 0 120 255
164.248673 -205.513948 -149.518706 0 120 255
164.877694 -206.508655 -147.341386 0 120 255
165.374962 -207.444625 -145.106961 0 120 255
165.818242 -208.356526 -142.849137 0 120 255
166.261521 -209.268427 -140.591312 0 120 255
166.704801 -210.180327 -138.333488 0 120 255
167.008448 -211.035617 -136.033459 0 120 255
167.243779 -211.863208 -133.712782 0 120 255
167.479110 -212.690800 -131.392104 0 120 255
167.714441 -213.518391 -129.071427 0 120 255
167.805272 -214.291841 -126.725103 0 120 255
167.812732 -215.034052 -124.363980 0 120 255
167.820191 -215.776264 -122.002858 0 120 255
167.827651 -216.518476 -119.641736 0 120 255
167.689070 -217.209377 -117.272542 0 120 255
167.452017 -217.865680 -114.897904 0 120 255
167.214965 -218.521983 -112.523266 0 120 255
166.977912 -219.178287 -110.148629 0 120 255
166.596759 -219.786507 -107.783787 0 120 255
166.102776 -220.357079 -105.426615 0 120 255
165.608792 -220.927650 -103.069443 0 120 255
165.114809 -221.498222 -100.712271 0 120 255
164.482183 -222.024340 -98.382259 0 120 255
163.724012 -222.510206 -96.076843 0 120 255
162.965842 -222.996072 -93.771427 0 120 255
162.207672 -223.481937 -91.466011 0 120 255
161.319659 -223.927366 -89.203803 0 120 255
160.295973 -224.330542 -86.986745 0 120 255
159.272286 -224.733718 -84.769687 0 120 255
158.248599 -225.136894 -82.552629 0 120 255
157.106868 -225.503981 -80.392716 0 120 255
155.822843 -225.827563 -78.301686 0 120 255
154.538818 -226.151146 -76.210656 0 120 255
153.254793 -226.474728 -74.119626 0 120 255
151.866945 -226.766826 -72.096880 0 120 255
150.334500 -227.015074 -70.169235 0 120 255
148.802054 -227.263323 -68.241590 0 120 255
147.269608 -227.511571 -66.313946 0 120 255
145.649275 -227.733070 -64.462375 0 120 255
143.887003 -227.911369 -62.733665 0 120 255
142.124730 -228.089668 -61.004956 0 120 255
140.362458 -228.267967 -59.276246 0 120 255
138.529101 -228.424262 -57.627712 0 120 255
136.561822 -228.539104 -56.130229 0 120 255
134.594543 -228.653946 -54.632746 0 120 255
132.627263 -228.768787 -53.135263 0 120 255
130.605658 -228.866210 -51.718268 0 120 255
128.463604 -228.925013 -50.479731 0 120 255
126.321549 -228.983815 -49.241193 0 120 255
124.179494 -229.042618 -48.002656 0 120 255
121.998933 -229.088288 -46.841279 0 120 255
119.716641 -229.099262 -45.883754 0 120 255
117.434348 -229.110236 -44.926230 0 120 255
115.152056 -229.121210 -43.968705 0 120 255
112.845324 -229.122881 -43.081764 0 120 255
110.460301 -229.094754 -42.420924 0 120 255
108.075279 -229.066627 -41.760084 0 120 255
105.690257 -229.038500 -41.099244 0 120 255
103.292449 -229.004336 -40.499742 0 120 255
100.843729 -228.946131 -40.144475 0 120 255
98.395009 -228.887927 -39.789207 0 120 255
95.946289 -228.829722 -39.433940 0 120 255
93.493560 -228.768089 -39.128828 0 120 255
91.020244 -228.688851 -39.081243 0 120 255
88.546929 -228.609612 -39.033659 0 120 255
86.073614 -228.530374 -38.986075 0 120 255
83.601936 -228.449835 -38.976288 0 120 255
81.141753 -228.360175 -39.231809 0 120 255
78.681570 -228.270514 -39.487330 0 120 255
76.221386 -228.180853 -39.742851 0 120 255
73.765364 -228.091135 -40.023546 0 120 255
71.353756 -228.000799 -40.572926 0 120 255
68.942148 -227.910464 -41.122305 0 120 255
66.530540 -227.820129 -41.671685 0 120 255
64.122649 -227.729861 -42.233867 0 120 255
61.791957 -227.641012 -43.062005 0 120 255
59.461265 -227.552162 -43.890143 0 120 255
57.130573 -227.463313 -44.718281 0 120 255
54.800473 -227.374473 -45.547827 0 120 255
52.578702 -227.287426 -46.635020 0 120 255
50.356931 -227.200379 -47.722212 0 120 255
48.135160 -227.113333 -48.809405 0 120 255
45.913389 -227.026286 -49.896598 0 120 255
43.819508 -226.943604 -51.212698 0 120 255
41.730344 -226.861084 -52.537243 0 120 255
39.641181 -226.778564 -53.861788 0 120 255
37.552018 -226.696044 -55.186333 0 120 255
35.602988 -226.619657 -56.708298 0 120 255
33.665661 -226.543782 -58.246752 0 120 255
31.728334 -226.467907 -59.785205 0 120 255
29.791007 -226.392032 -61.323659 0 120 255
28.000552 -226.323372 -63.029149 0 120 255
26.229941 -226.255686 -64.757207 0 120 255
24.459329 -226.188001 -66.485266 0 120 255
22.688718 -226.120315 -68.213325 0 120 255
21.066983 -226.060360 -70.079937 0 120 255
19.473896 -226.001893 -71.973211 0 120 255
17.880809 -225.943426 -73.866485 0 120 255
16.287721 -225.884959 -75.759759 0 120 255
14.841586 -225.834291 -77.765540 0 120 255
13.433129 -225.785622 -79.800168 0 120 255
12.024671 -225.736952 -81.834796 0 120 255
10.616214 -225.688283 -83.869424 0 120 255
9.349671 -225.647147 -85.993281 0 120 255
8.129701 -225.608482 -88.146420 0 120 255
6.909731 -225.569817 -90.299560 0 120 255
5.689761 -225.531153 -92.452699 0 120 255
4.604311 -225.499498 -94.674695 0 120 255
3.573905 -225.470712 -96.924865 0 120 255
2.543500 -225.441927 -99.175036 0 120 255
1.513094 -225.413141 -101.425206 0 120 255
0.608140 -225.390704 -103.726761 0 120 255
-0.233932 -225.371449 -106.054072 0 120 255
-1.076004 -225.352194 -108.381383 0 120 255
-1.918075 -225.332939 -110.708694 0 120 255
-2.644853 -225.319271 -113.072703 0 120 255
-3.301680 -225.308991 -115.458977 0 120 255
-3.958508 -225.298711 -117.845251 0 120 255
-4.615335 -225.288431 -120.231525 0 120 255
-5.167623 -225.282960 -122.642408 0 120 255
-5.643744 -225.280993 -125.071222 0 120 255
-6.119864 -225.279027 -127.500036 0 120 255
-6.595984 -225.277060 -129.928850 0 120 255
-6.978524 -225.279138 -132.372547 0 120 255
-7.279556 -225.284738 -134.829207 0 120 255
-7.580588 -225.290339 -137.285868 0 120 255
-7.881620 -225.295940 -139.742528 0 120 255
-8.099932 -225.304867 -142.206450 0 120 255
-8.232258 -225.317252 -144.677921 0 120 255
-8.364584 -225.329637 -147.149392 0 120 255
-8.496909 -225.342023 -149.620863 0 120 255
-8.557050 -225.357087 -152.093818 0 120 255
-8.527546 -225.375477 -154.568615 0 120 255
-8.498043 -225.393867 -157.043413 0 120 255
-8.468539 -225.412257 -159.518210 0 120 255
-8.376898 -225.432768 -161.990304 0 120 255
-8.192716 -225.456438 -164.458369 0 120 255
-8.008533 -225.480107 -166.926435 0 120 255
-7.824351 -225.503777 -169.394501 0 120 255
-7.587489 -225.529085 -171.857027 0 120 255
-7.255870 -225.557339 -174.309589 0 120 255
-6.924251 -225.585593 -176.762152 0 120 255
-6.592632 -225.613847 -179.214714 0 120 255
-6.217141 -225.643355 -181.660040 0 120 255
-5.745277 -225.675616 -184.089471 0 120 255
-5.273413 -225.707877 -186.518902 0 120 255
-4.801548 -225.740139 -188.948334 0 120 255
-4.293943 -225.773338 -191.369781 0 120 255
-3.688865 -225.809097 -193.769454 0 120 255
-3.083787 -225.844855 -196.169128 0 120 255
-2.478709 -225.880614 -198.568802 0 120 255
-1.845346 -225.917073 -200.960528 0 120 255
-1.113852 -225.955965 -203.324685 0 120 255
-0.382358 -225.994856 -205.688841 0 120 255
0.349136 -226.033747 -208.052998 0 120 255
1.102114 -226.073155 -210.409891 0 120 255
1.953530 -226.114935 -212.733504 0 120 255
2.804946 -226.156715 -215.057116 0 120 255
3.656363 -226.198494 -217.380729 0 120 255
4.523084 -226.240646 -219.698294 0 120 255
5.488260 -226.285195 -221.976952 0 120 255
6.453436 -226.329743 -224.255610 0 120 255
7.418612 -226.374292 -226.534268 0 120 255
8.393491 -226.419109 -228.808534 0 120 255
9.466574 -226.466637 -231.038347 0 120 255
10.539657 -226.514166 -233.268160 0 120 255
11.612740 -226.561695 -235.497972 0 120 255
12.690464 -226.609375 -237.725414 0 120 255
13.866041 -226.660237 -239.902858 0 120 255
15.041618 -226.711100 -242.080302 0 120 255
16.217195 -226.761962 -244.257747 0 120 255
17.392831 -226.812827 -246.435157 0 120 255
18.665992 -226.867061 -248.556938 0 120 255
19.939153 -226.921295 -250.678718 0 120 255
21.212313 -226.975529 -252.800499 0 120 255
22.485474 -227.029762 -254.922279 0 120 255
23.847397 -227.087058 -256.988001 0 120 255
25.213416 -227.144494 -259.051135 0 120 255
26.579435 -227.201931 -261.114270 0 120 255
27.945454 -227.259368 -263.177404 0 120 255
29.392062 -227.319540 -265.184541 0 120 255
30.846525 -227.379978 -267.186219 0 120 255
32.300989 -227.440417 -269.187897 0 120 255
33.755452 -227.500855 -271.189575 0 120 255
35.283080 -227.563750 -273.135578 0 120 255
36.821981 -227.627023 -275.073002 0 120 255
38.360882 -227.690296 -277.010426 0 120 255
39.899783 -227.753569 -278.947850 0 120 255
41.504972 -227.819017 -280.830217 0 120 255
43.124532 -227.884936 -282.700648 0 120 255
44.744093 -227.950855 -284.571078 0 120 255
46.363653 -228.016775 -286.441509 0 120 255
48.043117 -228.084592 -288.257758 0 120 255
49.739757 -228.152955 -290.058472 0 120 255
51.436398 -228.221317 -291.859186 0 120 255
53.133038 -228.289679 -293.659899 0 120 255
54.883593 -228.359679 -295.407583 0 120 255
56.653837 -228.430278 -297.135902 0 120 255
58.424081 -228.500876 -298.864220 0 120 255
60.194325 -228.571474 -300.592538 0 120 255
62.012841 -228.643374 -302.269259 0 120 255
63.853262 -228.715864 -303.922567 0 120 255
65.693683 -228.788354 -305.575876 0 120 255
67.534103 -228.860844 -307.229184 0 120 255
69.417570 -228.934052 -308.832497 0 120 255
71.324908 -229.007660 -310.408084 0 120 255
73.232247 -229.081267 -311.983670 0 120 255
75.139585 -229.154875 -313.559257 0 120 255
77.085522 -229.227627 -315.086109 0 120 255
79.057337 -229.299805 -316.580287 0 120 255
81.029152 -229.371983 -318.074465 0 120 255
83.000967 -229.444161 -319.568643 0 120 255
85.007875 -229.511836 -321.014565 0 120 255
87.043021 -229.575888 -322.421658 0 120 255
89.078167 -229.639941 -323.828751 0 120 255
91.113313 -229.703993 -325.235844 0 120 255
93.179991 -229.760487 -326.595363 0 120 255
95.276985 -229.809714 -327.909146 0 120 255
97.373979 -229.858941 -329.222929 0 120 255
99.470972 -229.908168 -330.536712 0 120 255
101.595632 -229.948428 -331.804231 0 120 255
103.752034 -229.978399 -333.018671 0 120 255
105.908437 -230.008370 -334.233110 0 120 255
108.064839 -230.038342 -335.447549 0 120 255
110.245067 -230.058398 -336.617330 0 120 255
112.457969 -230.064855 -337.725867 0 120 255
114.670872 -230.071313 -338.834403 0 120 255
116.883774 -230.077770 -339.942939 0 120 255
119.116702 -230.073804 -341.008776 0 120 255
121.382603 -230.052675 -342.004305 0 120 255
123.648504 -230.031546 -342.999833 0 120 255
125.914405 -230.010416 -343.995362 0 120 255
128.196591 -229.978778 -344.950596 0 120 255
130.511224 -229.926202 -345.825550 0 120 255
132.825856 -229.873626 -346.700504 0 120 255
135.140489 -229.821050 -347.575458 0 120 255
137.467791 -229.758278 -348.413011 0 120 255
139.826004 -229.670630 -349.159324 0 120 255
142.184217 -229.582981 -349.905636 0 120 255
144.542430 -229.495333 -350.651948 0 120 255
146.909894 -229.398177 -351.364316 0 120 255
149.305485 -229.272111 -351.973479 0 120 255
151.701077 -229.146045 -352.582642 0 120 255
154.096669 -229.019979 -353.191806 0 120 255
156.498383 -228.885436 -353.771120 0 120 255
158.923916 -228.717920 -354.234330 0 120 255
161.349448 -228.550404 -354.697540 0 120 255
163.774980 -228.382888 -355.160749 0 120 255
166.204059 -228.207534 -355.597326 0 120 255
168.651514 -227.991569 -355.895912 0 120 255
171.098970 -227.775605 -356.194499 0 120 255
173.546425 -227.559641 -356.493085 0 120 255
175.993948 -227.341795 -356.789649 0 120 255
178.441965 -227.110282 -357.071513 0 120 255
180.889981 -226.878768 -357.353377 0 120 255
183.337998 -226.647255 -357.635242 0 120 255
185.786015 -226.415741 -357.917107 0 120 255
188.234029 -226.184216 -358.198984 0 120 255
190.682043 -225.952691 -358.480861 0 120 255
193.130057 -225.721167 -358.762737 0 120 255
195.578071 -225.489642 -359.044614 0 120 255
198.026087 -225.258122 -359.326483 0 120 255
200.474102 -225.026601 -359.608352 0 120 255
202.922118 -224.795081 -359.890221 0 120 255
205.370133 -224.563560 -360.172091 0 120 255
