ply
format ascii 1.0
element vertex 385
property float x
property float y
property float z
property uchar red
property uchar green
property uchar blue
end_header
77.430455 -42.474882 -360.397637 0 120 255
77.187563 -42.528709 -357.936041 0 120 255
76.944671 -42.582536 -355.474445 0 120 255
76.701779 -42.636363 -353.012849 0 120 255
76.458887 -42.690190 -350.551254 0 120 255
76.216158 -42.753478 -348.089868 0 120 255
75.973436 -42.817179 -345.628491 0 120 255
75.730715 -42.880880 -343.167114 0 120 255
75.487993 -42.944580 -340.705737 0 120 255
75.379326 -43.496098 -338.301202 0 120 255
75.282854 -44.091989 -335.901836 0 120 255
75.186381 -44.687880 -333.502471 0 120 255
75.089909 -45.283771 -331.103105 0 120 255
75.104941 -46.273990 -328.841908 0 120 255
75.136413 -47.322352 -326.601084 0 120 255
75.167886 -48.370713 -324.360259 0 120 255
75.199359 -49.419074 -322.119434 0 120 255
75.321868 -50.775269 -320.060697 0 120 255
75.463544 -52.196273 -318.040295 0 120 255
75.605220 -53.617277 -316.019894 0 120 255
75.746896 -55.038281 -313.999492 0 120 255
75.962962 -56.689075 -312.176811 0 120 255
76.199931 -58.404439 -310.409689 0 120 255
76.436900 -60.119803 -308.642568 0 120 255
76.673869 -61.835167 -306.875446 0 120 255
76.972748 -63.715064 -305.302784 0 120 255
77.293915 -65.654194 -303.800128 0 120 255
77.615083 -67.593323 -302.297472 0 120 255
77.936250 -69.532453 -300.794816 0 120 255
78.310620 -71.584307 -299.472100 0 120 255
78.708878 -73.686772 -298.230174 0 120 255
79.107136 -75.789236 -296.988248 0 120 255
79.505394 -77.891701 -295.746323 0 120 255
79.951194 -80.067262 -294.664032 0 120 255
80.423136 -82.283016 -293.669522 0 120 255
80.895078 -84.498771 -292.675012 0 120 255
81.367020 -86.714525 -291.680502 0 120 255
81.883101 -88.973924 -290.823155 0 120 255
82.428547 -91.262358 -290.057056 0 120 255
82.973993 -93.550791 -289.290956 0 120 255
83.519439 -95.839225 -288.524857 0 120 255
84.107133 -98.149910 -287.873412 0 120 255
84.728557 -100.478362 -287.313509 0 120 255
85.349981 -102.806814 -286.753605 0 120 255
85.971405 -105.135266 -286.193702 0 120 255
86.634065 -107.470764 -285.727120 0 120 255
87.336057 -109.812984 -285.349546 0 120 255
88.038049 -112.155204 -284.971972 0 120 255
88.740040 -114.497423 -284.594398 0 120 255
89.482616 -116.836130 -284.290579 0 120 255
90.271356 -119.170839 -284.070653 0 120 255
91.060095 -121.505549 -283.850726 0 120 255
91.848834 -123.840259 -283.630800 0 120 255
92.677435 -126.164341 -283.467047 0 120 255
93.560168 -128.473990 -283.379574 0 120 255
94.442900 -130.783639 -283.292102 0 120 255
95.325633 -133.093288 -283.204629 0 120 255
96.247110 -135.387744 -283.157834 0 120 255
97.231649 -137.657469 -283.177247 0 120 255
98.216189 -139.927194 -283.196660 0 120 255
99.200729 -142.196919 -283.216073 0 120 255
100.222241 -144.448788 -283.262724 0 120 255
101.316407 -146.665568 -283.362900 0 120 255
102.410573 -148.882348 -283.463077 0 120 255
103.504740 -151.099127 -283.563253 0 120 255
104.633288 -153.296841 -283.679307 0 120 255
105.844325 -155.448811 -283.833454 0 120 255
107.055361 -157.600781 -283.987601 0 120 255
108.266398 -159.752751 -284.141748 0 120 255
109.508316 -161.885610 -284.302503 0 120 255
110.842216 -163.961544 -284.482943 0 120 255
112.176115 -166.037478 -284.663383 0 120 255
113.510014 -168.113412 -284.843823 0 120 255
114.870397 -170.171181 -285.023763 0 120 255
116.331176 -172.160094 -285.201811 0 120 255
117.791955 -174.149006 -285.379858 0 120 255
119.252734 -176.137918 -285.557906 0 120 255
120.734817 -178.110529 -285.730628 0 120 255
122.323661 -180.001454 -285.876664 0 120 255
123.912506 -181.892378 -286.022700 0 120 255
125.501350 -183.783302 -286.168736 0 120 255
127.105794 -185.660681 -286.307014 0 120 255
128.820227 -187.442557 -286.390593 0 120 255
130.534661 -189.224432 -286.474172 0 120 255
132.249094 -191.006307 -286.557751 0 120 255
133.973283 -192.778298 -286.633654 0 120 255
135.806255 -194.440065 -286.623953 0 120 255
137.639227 -196.101831 -286.614251 0 120 255
139.472199 -197.763597 -286.604550 0 120 255
141.309481 -199.420045 -286.589821 0 120 255
143.248592 -200.950854 -286.456324 0 120 255
145.187703 -202.481663 -286.322827 0 120 255
147.126813 -204.012472 -286.189330 0 120 255
149.065924 -205.543281 -286.055833 0 120 255
151.092646 -206.933106 -285.769324 0 120 255
153.119443 -208.322811 -285.482685 0 120 255
155.146239 -209.712516 -285.196046 0 120 255
157.173036 -211.102222 -284.909406 0 120 255
159.260056 -212.348239 -284.450320 0 120 255
161.349724 -213.587940 -283.983653 0 120 255
163.439392 -214.827640 -283.516985 0 120 255
165.529059 -216.067341 -283.050318 0 120 255
167.647771 -217.163213 -282.397347 0 120 255
169.769117 -218.246038 -281.727475 0 120 255
171.890463 -219.328863 -281.057604 0 120 255
174.011809 -220.411688 -280.387732 0 120 255
176.128485 -221.353567 -279.524156 0 120 255
178.244498 -222.275480 -278.633139 0 120 255
180.360512 -223.197393 -277.742123 0 120 255
182.476525 -224.119306 -276.851106 0 120 255
184.553236 -224.906521 -275.765940 0 120 255
186.622187 -225.667148 -274.642448 0 120 255
188.691139 -226.427775 -273.518957 0 120 255
190.760091 -227.188402 -272.395466 0 120 255
192.756040 -227.824072 -271.084384 0 120 255
194.733104 -228.427418 -269.724773 0 120 255
196.710167 -229.030764 -268.365163 0 120 255
198.687231 -229.634109 -267.005552 0 120 255
200.560499 -230.125587 -265.471561 0 120 255
202.399875 -230.580537 -263.880629 0 120 255
204.239250 -231.035487 -262.289696 0 120 255
206.078626 -231.490436 -260.698764 0 120 255
207.788109 -231.849485 -258.952368 0 120 255
209.445371 -232.169978 -257.143468 0 120 255
211.102632 -232.490470 -255.334569 0 120 255
212.759894 -232.810963 -253.525670 0 120 255
214.267337 -233.053702 -251.584620 0 120 255
215.701863 -233.258597 -249.579253 0 120 255
217.136389 -233.463493 -247.573885 0 120 255
218.570916 -233.668389 -245.568517 0 120 255
219.842739 -233.814917 -243.457029 0 120 255
221.019813 -233.927454 -241.283741 0 120 255
222.196886 -234.039992 -239.110453 0 120 255
223.373959 -234.152530 -236.937164 0 120 255
224.382821 -234.227124 -234.684809 0 120 255
225.275397 -234.275489 -232.377795 0 120 255
226.167973 -234.323853 -230.070780 0 120 255
227.060549 -234.372217 -227.763766 0 120 255
227.786481 -234.401403 -225.404049 0 120 255
228.376282 -234.414921 -223.001280 0 120 255
228.966082 -234.428439 -220.598510 0 120 255
229.555882 -234.441957 -218.195741 0 120 255
229.986770 -234.448354 -215.764592 0 120 255
230.264540 -234.447890 -213.306099 0 120 255
230.542310 -234.447425 -210.847605 0 120 255
230.820080 -234.446961 -208.389111 0 120 255
230.951582 -234.441558 -205.923425 0 120 255
230.916734 -234.430538 -203.449560 0 120 255
230.881885 -234.419518 -200.975694 0 120 255
230.847036 -234.408497 -198.501828 0 120 255
230.681515 -234.392989 -196.037977 0 120 255
230.340108 -234.371439 -193.587605 0 120 255
229.998701 -234.349889 -191.137232 0 120 255
229.657293 -234.328339 -188.686860 0 120 255
229.202483 -234.302803 -186.259436 0 120 255
228.566136 -234.270886 -183.868748 0 120 255
227.929788 -234.238969 -181.478059 0 120 255
227.293441 -234.207052 -179.087371 0 120 255
226.561560 -234.171777 -176.728346 0 120 255
225.646402 -234.130058 -174.430066 0 120 255
224.731243 -234.088339 -172.131785 0 120 255
223.816085 -234.046621 -169.833505 0 120 255
222.823041 -234.002195 -167.571641 0 120 255
221.648903 -233.951474 -165.394446 0 120 255
220.474766 -233.900754 -163.217252 0 120 255
219.300628 -233.850033 -161.040057 0 120 255
218.065292 -233.797224 -158.900499 0 120 255
216.654671 -233.738434 -156.868742 0 120 255
215.244050 -233.679643 -154.836984 0 120 255
213.833429 -233.620853 -152.805226 0 120 255
212.376775 -233.560513 -150.809343 0 120 255
210.753798 -233.494573 -148.943079 0 120 255
209.130820 -233.428633 -147.076814 0 120 255
207.507842 -233.362693 -145.210550 0 120 255
205.852115 -233.295675 -143.375992 0 120 255
204.041681 -233.223560 -141.691215 0 120 255
202.231246 -233.151445 -140.006437 0 120 255
200.420812 -233.079330 -138.321660 0 120 255
198.588828 -233.006522 -136.662590 0 120 255
196.615864 -232.929178 -135.171690 0 120 255
194.642901 -232.851835 -133.680791 0 120 255
192.669938 -232.774492 -132.189891 0 120 255
190.684487 -232.696762 -130.717368 0 120 255
188.573462 -232.615138 -129.429634 0 120 255
186.462437 -232.533515 -128.141901 0 120 255
184.351412 -232.451892 -126.854167 0 120 255
182.234863 -232.370105 -125.576570 0 120 255
180.009483 -232.285093 -124.498699 0 120 255
177.784103 -232.200082 -123.420828 0 120 255
175.558724 -232.115071 -122.342958 0 120 255
173.332781 -232.030045 -121.266405 0 120 255
171.015853 -231.942464 -120.402970 0 120 255
168.698924 -231.854884 -119.539536 0 120 255
166.381995 -231.767304 -118.676102 0 120 255
164.065067 -231.679724 -117.812668 0 120 255
161.680974 -231.590474 -117.158700 0 120 255
159.294371 -231.501161 -116.512558 0 120 255
156.907769 -231.411849 -115.866415 0 120 255
154.521166 -231.322537 -115.220273 0 120 255
152.089694 -231.232345 -114.775826 0 120 255
149.654417 -231.142079 -114.348479 0 120 255
147.219140 -231.051813 -113.921131 0 120 255
144.783863 -230.961547 -113.493784 0 120 255
142.323573 -230.871053 -113.259356 0 120 255
139.859863 -230.780529 -113.051309 0 120 255
137.396152 -230.690004 -112.843262 0 120 255
134.932442 -230.599479 -112.635216 0 120 255
132.461391 -230.509380 -112.610552 0 120 255
129.988918 -230.419364 -112.621450 0 120 255
127.516444 -230.329347 -112.632347 0 120 255
125.043971 -230.239331 -112.643245 0 120 255
122.579883 -230.150252 -112.827474 0 120 255
120.117951 -230.061414 -113.056266 0 120 255
117.656019 -229.972576 -113.285059 0 120 255
115.194087 -229.883738 -113.513851 0 120 255
112.754515 -229.796319 -113.905457 0 120 255
110.322260 -229.709365 -114.350345 0 120 255
107.890006 -229.622411 -114.795234 0 120 255
105.457752 -229.535457 -115.240122 0 120 255
103.060226 -229.450332 -115.836882 0 120 255
100.676787 -229.365949 -116.495247 0 120 255
98.293347 -229.281567 -117.153612 0 120 255
95.909908 -229.197184 -117.811976 0 120 255
93.571969 -229.114983 -118.610655 0 120 255
91.256495 -229.033858 -119.478609 0 120 255
88.941020 -228.952734 -120.346563 0 120 255
86.625546 -228.871610 -121.214517 0 120 255
84.364617 -228.792951 -122.210446 0 120 255
82.136059 -228.715754 -123.282321 0 120 255
79.907501 -228.638558 -124.354197 0 120 255
77.678943 -228.561362 -125.426072 0 120 255
75.512144 -228.486850 -126.612965 0 120 255
73.389027 -228.414236 -127.881213 0 120 255
71.265911 -228.341622 -129.149460 0 120 255
69.142795 -228.269008 -130.417708 0 120 255
67.086639 -228.199201 -131.787484 0 120 255
65.086638 -228.131748 -133.242404 0 120 255
63.086636 -228.064295 -134.697324 0 120 255
61.086635 -227.996842 -136.152243 0 120 255
59.156719 -227.932272 -137.694992 0 120 255
57.296305 -227.870563 -139.324839 0 120 255
55.435892 -227.808853 -140.954687 0 120 255
53.575479 -227.747143 -142.584534 0 120 255
51.786180 -227.688290 -144.288615 0 120 255
50.080258 -227.632786 -146.079732 0 120 255
48.374337 -227.577283 -147.870848 0 120 255
46.668416 -227.521779 -149.661965 0 120 255
45.032626 -227.469053 -151.514188 0 120 255
43.494271 -227.420187 -153.451305 0 120 255
41.955916 -227.371320 -155.388422 0 120 255
40.417561 -227.322454 -157.325539 0 120 255
38.946449 -227.276218 -159.311393 0 120 255
37.586573 -227.234335 -161.377872 0 120 255
36.226698 -227.192453 -163.444350 0 120 255
34.866823 -227.150570 -165.510828 0 120 255
33.569657 -227.111114 -167.614765 0 120 255
32.396977 -227.076475 -169.793060 0 120 255
31.224298 -227.041836 -171.971355 0 120 255
30.051618 -227.007197 -174.149650 0 120 255
28.935861 -226.974733 -176.355490 0 120 255
27.957304 -226.947513 -178.627721 0 120 255
26.978747 -226.920292 -180.899952 0 120 255
26.000191 -226.893072 -183.172183 0 120 255
25.071847 -226.867753 -185.463532 0 120 255
24.292960 -226.848090 -187.811786 0 120 255
23.514074 -226.828428 -190.160040 0 120 255
22.735188 -226.808766 -192.508294 0 120 255
21.999084 -226.790708 -194.868740 0 120 255
21.424166 -226.778698 -197.275122 0 120 255
20.849249 -226.766687 -199.681503 0 120 255
20.274331 -226.754677 -202.087885 0 120 255
19.734220 -226.743959 -204.501032 0 120 255
19.366424 -226.739638 -206.947674 0 120 255
18.998628 -226.735317 -209.394315 0 120 255
18.630831 -226.730996 -211.840957 0 120 255
18.289466 -226.727649 -214.290429 0 120 255
18.130829 -226.731040 -216.759472 0 120 255
17.972192 -226.734431 -219.228514 0 120 255
17.813555 -226.737822 -221.697556 0 120 255
17.672714 -226.741863 -224.166983 0 120 255
17.724174 -226.752922 -226.640558 0 120 255
17.775633 -226.763982 -229.114134 0 120 255
17.827093 -226.775042 -231.587710 0 120 255
17.887591 -226.786429 -234.060711 0 120 255
18.148928 -226.805091 -236.520935 0 120 255
18.410265 -226.823752 -238.981159 0 120 255
18.671601 -226.842414 -241.441383 0 120 255
18.933241 -226.861086 -243.901561 0 120 255
19.403051 -226.887221 -246.330541 0 120 255
19.872861 -226.913355 -248.759521 0 120 255
20.342671 -226.939490 -251.188501 0 120 255
20.812481 -226.965625 -253.617480 0 120 255
21.479707 -226.998771 -255.999357 0 120 255
22.155184 -227.032210 -258.379264 0 120 255
22.830661 -227.065649 -260.759172 0 120 255
23.506139 -227.099089 -263.139079 0 120 255
24.366344 -227.139052 -265.457791 0 120 255
25.242979 -227.179596 -267.771061 0 120 255
26.119614 -227.220140 -270.084330 0 120 255
26.996249 -227.260684 -272.397599 0 120 255
28.043619 -227.307161 -274.637543 0 120 255
29.114977 -227.354471 -276.867184 0 120 255
30.186335 -227.401782 -279.096826 0 120 255
31.257693 -227.449092 -281.326467 0 120 255
32.484494 -227.501767 -283.472952 0 120 255
33.741949 -227.555500 -285.603038 0 120 255
34.999404 -227.609233 -287.733124 0 120 255
36.256859 -227.662966 -289.863211 0 120 255
37.653600 -227.721427 -291.902786 0 120 255
39.086532 -227.781116 -293.918844 0 120 255
40.519463 -227.840804 -295.934903 0 120 255
41.952395 -227.900493 -297.950961 0 120 255
43.507964 -227.964295 -299.871778 0 120 255
45.103924 -228.029450 -301.761226 0 120 255
46.699884 -228.094606 -303.650674 0 120 255
48.295844 -228.159762 -305.540122 0 120 255
49.997792 -228.228402 -307.332208 0 120 255
51.742886 -228.298461 -309.084659 0 120 255
53.487980 -228.368520 -310.837111 0 120 255
55.233073 -228.438579 -312.589563 0 120 255
57.067902 -228.511605 -314.245095 0 120 255
58.947108 -228.586098 -315.852697 0 120 255
60.826314 -228.660591 -317.460298 0 120 255
62.705520 -228.735084 -319.067899 0 120 255
64.659053 -228.811962 -320.581373 0 120 255
66.656715 -228.890255 -322.038962 0 120 255
68.654377 -228.968547 -323.496550 0 120 255
70.652039 -229.046840 -324.954139 0 120 255
72.709817 -229.127046 -326.322448 0 120 255
74.810103 -229.208605 -327.627627 0 120 255
76.910389 -229.290164 -328.932807 0 120 255
79.010676 -229.371723 -330.237986 0 120 255
81.158269 -229.453794 -331.460636 0 120 255
83.345503 -229.536294 -332.614128 0 120 255
85.532738 -229.618793 -333.767621 0 120 255
87.719973 -229.701293 -334.921113 0 120 255
89.942748 -229.778516 -336.001920 0 120 255
92.200733 -229.850509 -337.010715 0 120 255
94.458718 -229.922503 -338.019511 0 120 255
96.716703 -229.994497 -339.028307 0 120 255
99.000556 -230.056309 -339.974938 0 120 255
101.314712 -230.106193 -340.848745 0 120 255
103.628869 -230.156077 -341.722552 0 120 255
105.943025 -230.205961 -342.596358 0 120 255
108.275418 -230.243038 -343.418238 0 120 255
110.633128 -230.262332 -344.168021 0 120 255
112.990839 -230.281627 -344.917804 0 120 255
115.348550 -230.300922 -345.667588 0 120 255
117.718588 -230.306346 -346.375207 0 120 255
120.109013 -230.288833 -347.013102 0 120 255
122.499438 -230.271320 -347.650997 0 120 255
124.889863 -230.253806 -348.288891 0 120 255
127.288181 -230.222580 -348.893682 0 120 255
129.702169 -230.164130 -349.432748 0 120 255
132.116157 -230.105680 -349.971814 0 120 255
134.530145 -230.047230 -350.510880 0 120 255
136.948831 -229.976189 -351.025003 0 120 255
139.378849 -229.874778 -351.478962 0 120 255
141.808866 -229.773367 -351.932920 0 120 255
144.238884 -229.671956 -352.386878 0 120 255
146.671418 -229.559763 -352.823026 0 120 255
149.111457 -229.415425 -353.206074 0 120 255
151.551495 -229.271088 -353.589121 0 120 255
153.991534 -229.126750 -353.972169 0 120 255
156.432711 -228.973850 -354.343405 0 120 255
158.878188 -228.788590 -354.670002 0 120 255
161.323666 -228.603330 -354.996598 0 120 255
163.769143 -228.418070 -355.323195 0 120 255
166.214951 -228.226801 -355.643183 0 120 255
168.662399 -228.005616 -355.930277 0 120 255
171.109847 -227.784432 -356.217370 0 120 255
173.557295 -227.563247 -356.504463 0 120 255
176.004702 -227.340778 -356.790887 0 120 255
178.451823 -227.109350 -357.072648 0 120 255
180.898943 -226.877921 -357.354409 0 120 255
183.346064 -226.646492 -357.636170 0 120 255
185.793184 -226.415062 -357.917933 0 120 255
188.240302 -226.183623 -358.199706 0 120 255
190.687420 -225.952183 -358.481480 0 120 255
193.134538 -225.720743 -358.763253 0 120 255
195.581656 -225.489303 -359.045027 0 120 255
198.028775 -225.257868 -359.326793 0 120 255
200.475895 -225.026432 -359.608559 0 120 255
202.923014 -224.794996 -359.890325 0 120 255
205.370133 -224.563560 -360.172091 0 120 255
