ply
format ascii 1.0
element vertex 385
property float x
property float y
property float z
property uchar red
property uchar green
property uchar blue
end_header
77.430455 -42.474882 -360.397637 0 120 255
77.187568 -42.528708 -357.936088 0 120 255
76.944680 -42.582534 -355.474539 0 120 255
76.701793 -42.636360 -353.012990 0 120 255
76.458906 -42.690186 -350.551442 0 120 255
76.213335 -42.753260 -348.090380 0 120 255
75.967646 -42.816738 -345.629339 0 120 255
75.721957 -42.880217 -343.168298 0 120 255
75.476269 -42.943695 -340.707257 0 120 255
75.181168 -43.340684 -338.285299 0 120 255
74.881543 -43.768211 -335.866920 0 120 255
74.581918 -44.195738 -333.448540 0 120 255
74.282293 -44.623265 -331.030161 0 120 255
73.957431 -45.318888 -328.680632 0 120 255
73.628846 -46.054077 -326.341264 0 120 255
73.300260 -46.789267 -324.001896 0 120 255
72.971674 -47.524457 -321.662529 0 120 255
72.636108 -48.482921 -319.409122 0 120 255
72.299079 -49.488206 -317.173741 0 120 255
71.962050 -50.493491 -314.938360 0 120 255
71.625021 -51.498776 -312.702979 0 120 255
71.294959 -52.691985 -310.563826 0 120 255
70.966841 -53.937611 -308.451512 0 120 255
70.638722 -55.183237 -306.339199 0 120 255
70.310604 -56.428862 -304.226885 0 120 255
69.999255 -57.833641 -302.217440 0 120 255
69.693885 -59.295156 -300.244666 0 120 255
69.388515 -60.756672 -298.271893 0 120 255
69.083145 -62.218187 -296.299119 0 120 255
68.800938 -63.814286 -294.433492 0 120 255
68.529015 -65.470140 -292.615438 0 120 255
68.257092 -67.125993 -290.797384 0 120 255
67.985169 -68.781846 -288.979329 0 120 255
67.740359 -70.550375 -287.270619 0 120 255
67.510283 -72.380135 -285.621329 0 120 255
67.280208 -74.209895 -283.972039 0 120 255
67.050132 -76.039655 -282.322749 0 120 255
66.849605 -77.962048 -280.782871 0 120 255
66.668502 -79.945332 -279.314913 0 120 255
66.487398 -81.928617 -277.846956 0 120 255
66.306294 -83.911901 -276.378999 0 120 255
66.156434 -85.969322 -275.018304 0 120 255
66.031226 -88.085240 -273.742245 0 120 255
65.906017 -90.201158 -272.466186 0 120 255
65.780809 -92.317076 -271.190127 0 120 255
65.688292 -94.490166 -270.017034 0 120 255
65.626602 -96.717168 -268.941036 0 120 255
65.564911 -98.944170 -267.865038 0 120 255
65.503221 -101.171171 -266.789040 0 120 255
65.475697 -103.439973 -265.809701 0 120 255
65.486615 -105.755805 -264.939117 0 120 255
65.497532 -108.071637 -264.068533 0 120 255
65.508450 -110.387469 -263.197949 0 120 255
65.555065 -112.731421 -262.415960 0 120 255
65.649655 -115.113163 -261.753033 0 120 255
65.744244 -117.494905 -261.090106 0 120 255
65.838834 -119.876647 -260.427179 0 120 255
65.970559 -122.274591 -259.843305 0 120 255
66.162125 -124.698644 -259.386813 0 120 255
66.353690 -127.122697 -258.930321 0 120 255
66.545255 -129.546750 -258.473830 0 120 255
66.775014 -131.976910 -258.085703 0 120 255
67.079080 -134.418952 -257.830586 0 120 255
67.383147 -136.860995 -257.575469 0 120 255
67.687214 -139.303038 -257.320352 0 120 255
68.029783 -141.742966 -257.122146 0 120 255
68.463789 -144.177874 -257.059095 0 120 255
68.897796 -146.612782 -256.996044 0 120 255
69.331802 -149.047690 -256.932994 0 120 255
69.803475 -151.474199 -256.915015 0 120 255
70.386121 -153.875960 -257.029827 0 120 255
70.968767 -156.277721 -257.144639 0 120 255
71.551412 -158.679482 -257.259451 0 120 255
72.169394 -161.068584 -257.407633 0 120 255
72.919661 -163.410298 -257.680744 0 120 255
73.669929 -165.752012 -257.953854 0 120 255
74.420196 -168.093725 -258.226965 0 120 255
75.201725 -170.420665 -258.522449 0 120 255
76.137517 -172.674697 -258.928336 0 120 255
77.073309 -174.928730 -259.334224 0 120 255
78.009101 -177.182762 -259.740112 0 120 255
78.970284 -179.422163 -260.158765 0 120 255
80.106767 -181.560545 -260.665560 0 120 255
81.243251 -183.698927 -261.172355 0 120 255
82.379735 -185.837309 -261.679150 0 120 255
83.534134 -187.963540 -262.191264 0 120 255
84.881771 -189.958701 -262.760757 0 120 255
86.229407 -191.953861 -263.330250 0 120 255
87.577044 -193.949022 -263.899743 0 120 255
88.934021 -195.936825 -264.470041 0 120 255
90.496565 -197.762693 -265.058071 0 120 255
92.059108 -199.588560 -265.646102 0 120 255
93.621652 -201.414427 -266.234132 0 120 255
95.184690 -203.239842 -266.822091 0 120 255
96.957235 -204.873335 -267.379673 0 120 255
98.729779 -206.506829 -267.937256 0 120 255
100.502323 -208.140323 -268.494839 0 120 255
102.274867 -209.773817 -269.052421 0 120 255
104.234859 -211.204697 -269.530778 0 120 255
106.202359 -212.627462 -270.005961 0 120 255
108.169858 -214.050227 -270.481145 0 120 255
110.137358 -215.472992 -270.956328 0 120 255
112.260448 -216.690917 -271.307392 0 120 255
114.396918 -217.891227 -271.647783 0 120 255
116.533388 -219.091537 -271.988173 0 120 255
118.669858 -220.291847 -272.328564 0 120 255
120.922788 -221.293318 -272.506511 0 120 255
123.191558 -222.267743 -272.662362 0 120 255
125.460329 -223.242168 -272.818214 0 120 255
127.729100 -224.216592 -272.974065 0 120 255
130.070343 -225.006466 -272.938204 0 120 255
132.425410 -225.761134 -272.865773 0 120 255
134.780477 -226.515803 -272.793341 0 120 255
137.135545 -227.270472 -272.720909 0 120 255
139.517341 -227.862395 -272.438297 0 120 255
141.905847 -228.413466 -272.102925 0 120 255
144.294353 -228.964537 -271.767554 0 120 255
146.682859 -229.515609 -271.432183 0 120 255
149.053914 -229.931729 -270.879735 0 120 255
151.419424 -230.304967 -270.258309 0 120 255
153.784934 -230.678204 -269.636882 0 120 255
156.150444 -231.051442 -269.015456 0 120 255
158.458966 -231.321402 -268.181335 0 120 255
160.745137 -231.550855 -267.263791 0 120 255
163.031308 -231.780307 -266.346247 0 120 255
165.317479 -232.009760 -265.428703 0 120 255
167.514190 -232.169376 -264.312797 0 120 255
169.668332 -232.295761 -263.102501 0 120 255
171.822473 -232.422145 -261.892206 0 120 255
173.976615 -232.548530 -260.681911 0 120 255
176.017482 -232.638259 -259.295499 0 120 255
177.993720 -232.707074 -257.808602 0 120 255
179.969958 -232.775890 -256.321705 0 120 255
181.946196 -232.844705 -254.834808 0 120 255
183.794188 -232.904575 -253.198911 0 120 255
185.555112 -232.958373 -251.461853 0 120 255
187.316035 -233.012170 -249.724796 0 120 255
189.076958 -233.065968 -247.987738 0 120 255
190.698676 -233.113411 -246.127351 0 120 255
192.208424 -233.155743 -244.167764 0 120 255
193.718171 -233.198075 -242.208176 0 120 255
195.227919 -233.240407 -240.248588 0 120 255
196.592656 -233.276651 -238.192285 0 120 255
197.819571 -233.307110 -236.044061 0 120 255
199.046485 -233.337568 -233.895837 0 120 255
200.273399 -233.368027 -231.747613 0 120 255
201.355467 -233.393597 -229.529390 0 120 255
202.274947 -233.413682 -227.232595 0 120 255
203.194428 -233.433766 -224.935800 0 120 255
204.113909 -233.453850 -222.639006 0 120 255
204.894072 -233.469883 -220.297271 0 120 255
205.489201 -233.480534 -217.895851 0 120 255
206.084331 -233.491186 -215.494430 0 120 255
206.679460 -233.501837 -213.093009 0 120 255
207.145298 -233.508873 -210.668791 0 120 255
207.407072 -233.510203 -208.208590 0 120 255
207.668846 -233.511532 -205.748390 0 120 255
207.930619 -233.512862 -203.288189 0 120 255
208.076601 -233.510805 -200.823557 0 120 255
208.003833 -233.502351 -198.350554 0 120 255
207.931065 -233.493896 -195.877550 0 120 255
207.858297 -233.485441 -193.404546 0 120 255
207.685582 -233.473804 -190.941200 0 120 255
207.284402 -233.454890 -188.499927 0 120 255
206.883221 -233.435977 -186.058655 0 120 255
206.482040 -233.417064 -183.617383 0 120 255
205.997982 -233.395241 -181.195409 0 120 255
205.281064 -233.365239 -178.827659 0 120 255
204.564146 -233.335238 -176.459908 0 120 255
203.847228 -233.305237 -174.092158 0 120 255
203.064690 -233.272727 -171.749016 0 120 255
202.050278 -233.231355 -169.492831 0 120 255
201.035865 -233.189984 -167.236646 0 120 255
200.021453 -233.148612 -164.980462 0 120 255
198.957970 -233.105259 -162.750202 0 120 255
197.668830 -233.052800 -160.639165 0 120 255
196.379689 -233.000340 -158.528128 0 120 255
195.090549 -232.947881 -156.417090 0 120 255
193.767453 -232.894048 -154.329803 0 120 255
192.229740 -232.831535 -152.392629 0 120 255
190.692026 -232.769022 -150.455454 0 120 255
189.154313 -232.706508 -148.518280 0 120 255
187.595801 -232.643246 -146.599774 0 120 255
185.838070 -232.572811 -144.860081 0 120 255
184.080338 -232.502375 -143.120388 0 120 255
182.322607 -232.431940 -141.380694 0 120 255
180.554894 -232.361182 -139.652352 0 120 255
178.606743 -232.284582 -138.129212 0 120 255
176.658592 -232.207983 -136.606073 0 120 255
174.710441 -232.131383 -135.082933 0 120 255
172.760642 -232.054733 -133.562172 0 120 255
170.652003 -231.973183 -132.270621 0 120 255
168.543363 -231.891632 -130.979071 0 120 255
166.434724 -231.810081 -129.687520 0 120 255
164.326084 -231.728531 -128.395970 0 120 255
162.091011 -231.643225 -127.339592 0 120 255
159.851771 -231.557795 -126.290964 0 120 255
157.612532 -231.472366 -125.242335 0 120 255
155.373292 -231.386936 -124.193706 0 120 255
153.040463 -231.298969 -123.377458 0 120 255
150.700148 -231.210799 -122.579796 0 120 255
148.359832 -231.122630 -121.782133 0 120 255
146.019517 -231.034460 -120.984471 0 120 255
143.615471 -230.944786 -120.413193 0 120 255
141.203043 -230.854913 -119.871687 0 120 255
138.790615 -230.765041 -119.330181 0 120 255
136.378187 -230.675169 -118.788675 0 120 255
133.928910 -230.584760 -118.464949 0 120 255
131.472698 -230.494249 -118.182201 0 120 255
129.016486 -230.403739 -117.899453 0 120 255
126.560275 -230.313228 -117.616704 0 120 255
124.091176 -230.223020 -117.540867 0 120 255
121.618846 -230.132886 -117.516919 0 120 255
119.146516 -230.042753 -117.492971 0 120 255
116.674186 -229.952620 -117.469022 0 120 255
114.210027 -229.863500 -117.639282 0 120 255
111.748484 -229.774705 -117.871742 0 120 255
109.286942 -229.685909 -118.104202 0 120 255
106.825399 -229.597114 -118.336663 0 120 255
104.390190 -229.509946 -118.749102 0 120 255
101.965459 -229.423427 -119.233155 0 120 255
99.540728 -229.336907 -119.717207 0 120 255
97.115996 -229.250387 -120.201259 0 120 255
94.732806 -229.165989 -120.849680 0 120 255
92.369769 -229.082619 -121.577842 0 120 255
90.006732 -228.999250 -122.306004 0 120 255
87.643695 -228.915881 -123.034165 0 120 255
85.334393 -228.835007 -123.910096 0 120 255
83.056466 -228.755590 -124.872311 0 120 255
80.778540 -228.676173 -125.834527 0 120 255
78.500614 -228.596756 -126.796743 0 120 255
76.285606 -228.520110 -127.889594 0 120 255
74.114437 -228.445395 -129.073468 0 120 255
71.943268 -228.370680 -130.257342 0 120 255
69.772100 -228.295965 -131.441216 0 120 255
67.670014 -228.224186 -132.738379 0 120 255
65.625053 -228.154834 -134.129221 0 120 255
63.580093 -228.085483 -135.520062 0 120 255
61.535132 -228.016132 -136.910904 0 120 255
59.562709 -227.949785 -138.398182 0 120 255
57.661272 -227.886380 -139.979838 0 120 255
55.759836 -227.822974 -141.561493 0 120 255
53.858399 -227.759568 -143.143148 0 120 255
52.030386 -227.699133 -144.805108 0 120 255
50.287381 -227.642136 -146.560043 0 120 255
48.544375 -227.585140 -148.314978 0 120 255
46.801370 -227.528143 -150.069913 0 120 255
45.130511 -227.474018 -151.890188 0 120 255
43.558674 -227.423834 -153.800142 0 120 255
41.986837 -227.373650 -155.710096 0 120 255
40.415001 -227.323466 -157.620050 0 120 255
38.912250 -227.275992 -159.581785 0 120 255
37.522429 -227.232947 -161.628162 0 120 255
36.132609 -227.189903 -163.674540 0 120 255
34.742789 -227.146858 -165.720917 0 120 255
33.417524 -227.106311 -167.807028 0 120 255
32.218895 -227.070667 -169.971082 0 120 255
31.020266 -227.035022 -172.135137 0 120 255
29.821638 -226.999377 -174.299192 0 120 255
28.681800 -226.965985 -176.492475 0 120 255
27.681953 -226.937958 -178.755357 0 120 255
26.682107 -226.909931 -181.018239 0 120 255
25.682261 -226.881904 -183.281122 0 120 255
24.734453 -226.855846 -185.564302 0 120 255
23.939577 -226.835573 -187.907137 0 120 255
23.144702 -226.815301 -190.249972 0 120 255
22.349826 -226.795028 -192.592807 0 120 255
21.599434 -226.776429 -194.948586 0 120 255
21.014349 -226.764046 -197.352465 0 120 255
20.429264 -226.751663 -199.756345 0 120 255
19.844180 -226.739280 -202.160224 0 120 255
19.295387 -226.728243 -204.571269 0 120 255
18.923521 -226.723764 -207.017247 0 120 255
18.551654 -226.719284 -209.463226 0 120 255
18.179787 -226.714805 -211.909204 0 120 255
17.835574 -226.711347 -214.358155 0 120 255
17.679036 -226.714818 -216.827284 0 120 255
17.522498 -226.718290 -219.296413 0 120 255
17.365960 -226.721761 -221.765542 0 120 255
17.228129 -226.725915 -224.235037 0 120 255
17.287446 -226.737256 -226.708388 0 120 255
17.346762 -226.748598 -229.181739 0 120 255
17.406079 -226.759939 -231.655090 0 120 255
17.475045 -226.771630 -234.127787 0 120 255
17.749106 -226.790735 -236.586576 0 120 255
18.023167 -226.809840 -239.045364 0 120 255
18.297228 -226.828945 -241.504152 0 120 255
18.571973 -226.848075 -243.962834 0 120 255
19.057896 -226.874751 -246.388587 0 120 255
19.543820 -226.901428 -248.814341 0 120 255
20.029743 -226.928104 -251.240094 0 120 255
20.515667 -226.954781 -253.665848 0 120 255
21.200915 -226.988535 -256.042552 0 120 255
21.894138 -227.022572 -258.417294 0 120 255
22.587360 -227.056610 -260.792035 0 120 255
23.280582 -227.090647 -263.166777 0 120 255
24.158687 -227.131181 -265.478720 0 120 255
25.052897 -227.172281 -267.785192 0 120 255
25.947107 -227.213381 -270.091663 0 120 255
26.841317 -227.254481 -272.398135 0 120 255
27.905018 -227.301478 -274.630330 0 120 255
28.992225 -227.349293 -276.852223 0 120 255
30.079431 -227.397108 -279.074116 0 120 255
31.166638 -227.444923 -281.296009 0 120 255
32.407284 -227.498010 -283.434497 0 120 255
33.677906 -227.552127 -285.556690 0 120 255
34.948528 -227.606244 -287.678884 0 120 255
36.219150 -227.660361 -289.801077 0 120 255
37.626752 -227.719138 -291.833164 0 120 255
39.069691 -227.779116 -293.842005 0 120 255
40.512631 -227.839095 -295.850845 0 120 255
41.955571 -227.899074 -297.859686 0 120 255
43.518842 -227.963074 -299.774246 0 120 255
45.121525 -228.028390 -301.657928 0 120 255
46.724207 -228.093707 -303.541610 0 120 255
48.326890 -228.159023 -305.425291 0 120 255
50.033584 -228.227797 -307.212873 0 120 255
51.782429 -228.297971 -308.961510 0 120 255
53.531273 -228.368145 -310.710147 0 120 255
55.280118 -228.438319 -312.458784 0 120 255
57.117183 -228.511378 -314.111851 0 120 255
58.997709 -228.585858 -315.717836 0 120 255
60.878235 -228.660338 -317.323822 0 120 255
62.758761 -228.734817 -318.929807 0 120 255
64.712596 -228.811767 -320.442893 0 120 255
66.709810 -228.890179 -321.901009 0 120 255
68.707025 -228.968590 -323.359124 0 120 255
70.704239 -229.047001 -324.817240 0 120 255
72.761015 -229.127394 -326.187028 0 120 255
74.859780 -229.209182 -327.494549 0 120 255
76.958544 -229.290971 -328.802070 0 120 255
79.057309 -229.372760 -330.109590 0 120 255
81.203122 -229.455316 -331.335291 0 120 255
83.388252 -229.538513 -332.492615 0 120 255
85.573381 -229.621711 -333.649940 0 120 255
87.758511 -229.704908 -334.807265 0 120 255
89.979235 -229.783456 -335.892098 0 120 255
92.235134 -229.857408 -336.905293 0 120 255
94.491032 -229.931360 -337.918489 0 120 255
96.746931 -230.005312 -338.931685 0 120 255
99.028869 -230.069400 -339.882650 0 120 255
101.341235 -230.121962 -340.760894 0 120 255
103.653602 -230.174524 -341.639138 0 120 255
105.965968 -230.227086 -342.517382 0 120 255
108.296742 -230.266614 -343.343571 0 120 255
110.653011 -230.288086 -344.097659 0 120 255
113.009280 -230.309559 -344.851747 0 120 255
115.365549 -230.331031 -345.605835 0 120 255
117.734284 -230.338141 -346.317598 0 120 255
120.123585 -230.321555 -346.959531 0 120 255
122.512887 -230.304968 -347.601464 0 120 255
124.902188 -230.288382 -348.243397 0 120 255
127.299476 -230.257536 -348.852043 0 120 255
129.712584 -230.198442 -349.394747 0 120 255
132.125693 -230.139348 -349.937452 0 120 255
134.538802 -230.080254 -350.480156 0 120 255
136.956663 -230.008127 -350.997723 0 120 255
139.385963 -229.904630 -351.454783 0 120 255
141.815263 -229.801134 -351.911843 0 120 255
144.244563 -229.697638 -352.368904 0 120 255
146.676413 -229.583132 -352.807946 0 120 255
149.115853 -229.435870 -353.193381 0 120 255
151.555293 -229.288608 -353.578815 0 120 255
153.994734 -229.141345 -353.964250 0 120 255
156.435346 -228.985564 -354.337654 0 120 255
158.880382 -228.797655 -354.665685 0 120 255
161.325418 -228.609746 -354.993715 0 120 255
163.770454 -228.421836 -355.321745 0 120 255
166.215878 -228.228285 -355.642929 0 120 255
168.663233 -228.006704 -355.930105 0 120 255
171.110588 -227.785123 -356.217281 0 120 255
173.557943 -227.563543 -356.504457 0 120 255
176.005262 -227.340725 -356.790952 0 120 255
178.452336 -227.109301 -357.072707 0 120 255
180.899410 -226.877877 -357.354463 0 120 255
183.346484 -226.646452 -357.636219 0 120 255
185.793557 -226.415027 -357.917976 0 120 255
188.240629 -226.183592 -358.199744 0 120 255
190.687700 -225.952156 -358.481512 0 120 255
193.134771 -225.720721 -358.763280 0 120 255
195.581843 -225.489286 -359.045048 0 120 255
198.028915 -225.257854 -359.326809 0 120 255
200.475988 -225.026423 -359.608569 0 120 255
202.923061 -224.794992 -359.890330 0 120 255
205.370133 -224.563560 -360.172091 0 120 255
