ply
format ascii 1.0
element vertex 385
property float x
property float y
property float z
property uchar red
property uchar green
property uchar blue
end_header
77.430455 -42.474882 -360.397637 0 120 255
77.187538 -42.528714 -357.935788 0 120 255
76.944621 -42.582547 -355.473939 0 120 255
76.701704 -42.636380 -353.012091 0 120 255
76.458787 -42.690212 -350.550242 0 120 255
76.218692 -42.756270 -348.088416 0 120 255
75.978718 -42.822855 -345.626591 0 120 255
75.738745 -42.889440 -343.164765 0 120 255
75.498771 -42.956026 -340.702940 0 120 255
75.422708 -43.396034 -338.272276 0 120 255
75.361425 -43.869715 -335.844422 0 120 255
75.300143 -44.343397 -333.416568 0 120 255
75.238860 -44.817078 -330.988714 0 120 255
75.317624 -45.597114 -328.645591 0 120 255
75.416959 -46.422152 -326.314915 0 120 255
75.516295 -47.247189 -323.984239 0 120 255
75.615630 -48.072227 -321.653563 0 120 255
75.834536 -49.146834 -319.439758 0 120 255
76.078578 -50.273904 -317.250520 0 120 255
76.322619 -51.400975 -315.061283 0 120 255
76.566661 -52.528045 -312.872045 0 120 255
76.912029 -53.851633 -310.814666 0 120 255
77.285882 -55.230467 -308.794355 0 120 255
77.659736 -56.609302 -306.774045 0 120 255
78.033590 -57.988136 -304.753735 0 120 255
78.493304 -59.516795 -302.867679 0 120 255
78.984000 -61.099516 -301.030066 0 120 255
79.474695 -62.682236 -299.192454 0 120 255
79.965391 -64.264956 -297.354842 0 120 255
80.529281 -65.958133 -295.645318 0 120 255
81.126171 -67.701109 -293.993543 0 120 255
81.723061 -69.444086 -292.341768 0 120 255
82.319951 -71.187062 -290.689992 0 120 255
82.979859 -73.008388 -289.154811 0 120 255
83.674632 -74.873061 -287.684133 0 120 255
84.369405 -76.737733 -286.213456 0 120 255
85.064178 -78.602405 -284.742778 0 120 255
85.813848 -80.519946 -283.374299 0 120 255
86.600337 -82.472946 -282.074363 0 120 255
87.386826 -84.425945 -280.774427 0 120 255
88.173315 -86.378945 -279.474491 0 120 255
89.008160 -88.365047 -278.261141 0 120 255
89.882010 -90.377852 -277.117634 0 120 255
90.755860 -92.390656 -275.974126 0 120 255
91.629710 -94.403461 -274.830619 0 120 255
92.546516 -96.434396 -273.758044 0 120 255
93.504810 -98.482842 -272.753981 0 120 255
94.463103 -100.531289 -271.749917 0 120 255
95.421397 -102.579736 -270.745853 0 120 255
96.417999 -104.635269 -269.797804 0 120 255
97.458842 -106.698986 -268.914445 0 120 255
98.499684 -108.762704 -268.031087 0 120 255
99.540527 -110.826421 -267.147728 0 120 255
100.615482 -112.889329 -266.306655 0 120 255
101.737613 -114.951117 -265.524058 0 120 255
102.859743 -117.012905 -264.741460 0 120 255
103.981873 -119.074693 -263.958863 0 120 255
105.134142 -121.130299 -263.206344 0 120 255
106.336546 -123.175622 -262.503857 0 120 255
107.538949 -125.220944 -261.801371 0 120 255
108.741352 -127.266267 -261.098884 0 120 255
109.969979 -129.302025 -260.415930 0 120 255
111.251495 -131.318496 -259.772370 0 120 255
112.533010 -133.334966 -259.128809 0 120 255
113.814526 -135.351436 -258.485249 0 120 255
115.118327 -137.356546 -257.852474 0 120 255
116.477303 -139.333530 -257.246400 0 120 255
117.836278 -141.310514 -256.640326 0 120 255
119.195253 -143.287498 -256.034252 0 120 255
120.572529 -145.252582 -255.432056 0 120 255
122.006461 -147.180824 -254.841865 0 120 255
123.440393 -149.109067 -254.251674 0 120 255
124.874325 -151.037309 -253.661483 0 120 255
126.322566 -152.954125 -253.070145 0 120 255
127.827758 -154.825463 -252.474247 0 120 255
129.332950 -156.696801 -251.878348 0 120 255
130.838142 -158.568140 -251.282449 0 120 255
132.353748 -160.429350 -250.682271 0 120 255
133.924993 -162.236450 -250.059229 0 120 255
135.496239 -164.043551 -249.436187 0 120 255
137.067484 -165.850651 -248.813145 0 120 255
138.645499 -167.649614 -248.184570 0 120 255
140.275742 -169.385793 -247.513306 0 120 255
141.905985 -171.121972 -246.842042 0 120 255
143.536227 -172.858151 -246.170779 0 120 255
145.170059 -174.588774 -245.494564 0 120 255
146.850108 -176.247831 -244.754585 0 120 255
148.530157 -177.906888 -244.014605 0 120 255
150.210206 -179.565945 -243.274626 0 120 255
151.891386 -181.222550 -242.532036 0 120 255
153.609650 -182.798659 -241.703754 0 120 255
155.327915 -184.374768 -240.875472 0 120 255
157.046180 -185.950878 -240.047191 0 120 255
158.764445 -187.526987 -239.218909 0 120 255
160.506397 -189.015771 -238.285377 0 120 255
162.248653 -190.503433 -237.350492 0 120 255
163.990909 -191.991095 -236.415608 0 120 255
165.733166 -193.478758 -235.480723 0 120 255
167.482037 -194.877879 -234.429404 0 120 255
169.231291 -196.271876 -233.371345 0 120 255
170.980545 -197.665872 -232.313286 0 120 255
172.729800 -199.059869 -231.255228 0 120 255
174.467436 -200.364843 -230.072959 0 120 255
176.203830 -201.660307 -228.877420 0 120 255
177.940225 -202.955770 -227.681881 0 120 255
179.676619 -204.251234 -226.486343 0 120 255
181.382412 -205.457923 -225.162438 0 120 255
183.083301 -206.650387 -223.817963 0 120 255
184.784190 -207.842850 -222.473488 0 120 255
186.485079 -209.035314 -221.129013 0 120 255
188.136120 -210.140052 -219.655797 0 120 255
189.776259 -211.225602 -218.154420 0 120 255
191.416398 -212.311152 -216.653043 0 120 255
193.056536 -213.396702 -215.151667 0 120 255
194.627890 -214.396440 -213.524981 0 120 255
196.179772 -215.371885 -211.862821 0 120 255
197.731653 -216.347330 -210.200661 0 120 255
199.283534 -217.322775 -208.538500 0 120 255
200.748708 -218.215258 -206.758247 0 120 255
202.183163 -219.078350 -204.936156 0 120 255
203.617618 -219.941442 -203.114065 0 120 255
205.052072 -220.804534 -201.291973 0 120 255
206.383585 -221.588513 -199.362529 0 120 255
207.670479 -222.338204 -197.386555 0 120 255
208.957373 -223.087894 -195.410581 0 120 255
210.244268 -223.837584 -193.434607 0 120 255
211.414409 -224.513009 -191.365158 0 120 255
212.523605 -225.149668 -189.246915 0 120 255
213.632801 -225.786328 -187.128672 0 120 255
214.741997 -226.422987 -185.010429 0 120 255
215.723713 -226.991225 -182.815153 0 120 255
216.626155 -227.516915 -180.571973 0 120 255
217.528597 -228.042604 -178.328794 0 120 255
218.431039 -228.568294 -176.085615 0 120 255
219.198898 -229.032319 -173.783654 0 120 255
219.867785 -229.450997 -171.438467 0 120 255
220.536672 -229.869674 -169.093279 0 120 255
221.205559 -230.288351 -166.748092 0 120 255
221.736762 -230.652866 -164.363296 0 120 255
222.148772 -230.970493 -161.944213 0 120 255
222.560781 -231.288120 -159.525129 0 120 255
222.972790 -231.605746 -157.106045 0 120 255
223.248191 -231.877263 -154.666481 0 120 255
223.384673 -232.101889 -152.206091 0 120 255
223.521154 -232.326516 -149.745700 0 120 255
223.657635 -232.551143 -147.285310 0 120 255
223.662633 -232.737981 -144.822526 0 120 255
223.510555 -232.879676 -142.356882 0 120 255
223.358477 -233.021371 -139.891238 0 120 255
223.206399 -233.163066 -137.425594 0 120 255
222.931690 -233.275264 -134.973675 0 120 255
222.484483 -233.345968 -132.541061 0 120 255
222.037275 -233.416672 -130.108447 0 120 255
221.590067 -233.487377 -127.675832 0 120 255
221.032195 -233.536514 -125.270299 0 120 255
220.290147 -233.549759 -122.909834 0 120 255
219.548099 -233.563004 -120.549369 0 120 255
218.806050 -233.576249 -118.188904 0 120 255
217.967661 -233.575397 -115.865508 0 120 255
216.938115 -233.546575 -113.615661 0 120 255
215.908569 -233.517752 -111.365815 0 120 255
214.879023 -233.488930 -109.115968 0 120 255
213.768834 -233.452417 -106.909489 0 120 255
212.465696 -233.397505 -104.806772 0 120 255
211.162557 -233.342593 -102.704055 0 120 255
209.859418 -233.287681 -100.601338 0 120 255
208.491767 -233.229940 -98.544548 0 120 255
206.934896 -233.163903 -96.622467 0 120 255
205.378025 -233.097866 -94.700386 0 120 255
203.821153 -233.031829 -92.778304 0 120 255
202.215686 -232.964452 -90.900950 0 120 255
200.431168 -232.892137 -89.188387 0 120 255
198.646650 -232.819823 -87.475824 0 120 255
196.862132 -232.747509 -85.763261 0 120 255
195.043518 -232.674254 -84.090983 0 120 255
193.061325 -232.596490 -82.611973 0 120 255
191.079133 -232.518725 -81.132963 0 120 255
189.096940 -232.440961 -79.653953 0 120 255
187.093022 -232.362564 -78.208144 0 120 255
184.945531 -232.279991 -76.981739 0 120 255
182.798040 -232.197418 -75.755334 0 120 255
180.650549 -232.114845 -74.528929 0 120 255
178.491191 -232.031932 -73.326575 0 120 255
176.212276 -231.945596 -72.366524 0 120 255
173.933361 -231.859260 -71.406473 0 120 255
171.654446 -231.772924 -70.446422 0 120 255
169.370773 -231.686464 -69.499845 0 120 255
166.994844 -231.597605 -68.814519 0 120 255
164.618916 -231.508747 -68.129192 0 120 255
162.242987 -231.419888 -67.443866 0 120 255
159.866574 -231.331020 -66.760678 0 120 255
157.427600 -231.240874 -66.353384 0 120 255
154.988627 -231.150729 -65.946090 0 120 255
152.549654 -231.060583 -65.538797 0 120 255
150.110681 -230.970438 -65.131503 0 120 255
147.642414 -230.880196 -64.991519 0 120 255
145.173124 -230.789951 -64.860875 0 120 255
142.703834 -230.699706 -64.730231 0 120 255
140.234544 -230.609461 -64.599587 0 120 255
137.765723 -230.520136 -64.719695 0 120 255
135.296939 -230.430887 -64.860224 0 120 255
132.828156 -230.341638 -65.000753 0 120 255
130.359373 -230.252388 -65.141282 0 120 255
127.916136 -230.164919 -65.513261 0 120 255
125.476282 -230.077686 -65.915889 0 120 255
123.036428 -229.990453 -66.318517 0 120 255
120.596575 -229.903220 -66.721144 0 120 255
118.202686 -229.818425 -67.334295 0 120 255
115.817464 -229.734090 -67.987141 0 120 255
113.432241 -229.649755 -68.639987 0 120 255
111.047019 -229.565419 -69.292833 0 120 255
108.723705 -229.484017 -70.134437 0 120 255
106.415909 -229.403350 -71.023354 0 120 255
104.108112 -229.322683 -71.912271 0 120 255
101.800316 -229.242016 -72.801188 0 120 255
99.566250 -229.164655 -73.857083 0 120 255
97.355757 -229.088352 -74.966363 0 120 255
95.145263 -229.012049 -76.075642 0 120 255
92.934769 -228.935746 -77.184922 0 120 255
90.806025 -228.862943 -78.439785 0 120 255
88.709728 -228.791531 -79.752433 0 120 255
86.613431 -228.720118 -81.065081 0 120 255
84.517134 -228.648705 -82.377729 0 120 255
82.507242 -228.580903 -83.815487 0 120 255
80.539155 -228.514848 -85.313778 0 120 255
78.571068 -228.448792 -86.812069 0 120 255
76.602981 -228.382737 -88.310360 0 120 255
74.723144 -228.320293 -89.914675 0 120 255
72.894698 -228.259953 -91.580734 0 120 255
71.066253 -228.199613 -93.246792 0 120 255
69.237807 -228.139272 -94.912851 0 120 255
67.496960 -228.082437 -96.667290 0 120 255
65.816988 -228.028037 -98.483148 0 120 255
64.137016 -227.973637 -100.299006 0 120 255
62.457044 -227.919238 -102.114864 0 120 255
60.861907 -227.868198 -104.003057 0 120 255
59.336749 -227.819929 -105.950920 0 120 255
57.811591 -227.771661 -107.898783 0 120 255
56.286434 -227.723393 -109.846645 0 120 255
54.841762 -227.678271 -111.852602 0 120 255
53.475687 -227.636222 -113.915288 0 120 255
52.109613 -227.594173 -115.977975 0 120 255
50.743538 -227.552124 -118.040662 0 120 255
49.452320 -227.512969 -120.148964 0 120 255
48.247616 -227.477158 -122.309985 0 120 255
47.042912 -227.441347 -124.471006 0 120 255
45.838208 -227.405536 -126.632027 0 120 255
44.701878 -227.372346 -128.827970 0 120 255
43.659274 -227.342749 -131.071785 0 120 255
42.616670 -227.313152 -133.315600 0 120 255
41.574066 -227.283555 -135.559415 0 120 255
40.592927 -227.256280 -137.829205 0 120 255
39.712199 -227.232799 -140.141427 0 120 255
38.831471 -227.209318 -142.453649 0 120 255
37.950743 -227.185837 -144.765871 0 120 255
37.124344 -227.164398 -147.096694 0 120 255
36.404546 -227.146967 -149.464011 0 120 255
35.684749 -227.129536 -151.831329 0 120 255
34.964951 -227.112105 -154.198646 0 120 255
34.292280 -227.096439 -156.578602 0 120 255
33.731961 -227.084982 -158.988689 0 120 255
33.171643 -227.073524 -161.398775 0 120 255
32.611324 -227.062067 -163.808862 0 120 255
32.090972 -227.052092 -166.226886 0 120 255
31.688370 -227.046483 -168.668296 0 120 255
31.285767 -227.040874 -171.109707 0 120 255
30.883165 -227.035265 -173.551117 0 120 255
30.513481 -227.030874 -175.996889 0 120 255
30.266657 -227.031025 -178.458937 0 120 255
30.019834 -227.031177 -180.920986 0 120 255
29.773011 -227.031329 -183.383034 0 120 255
29.552222 -227.032436 -185.846875 0 120 255
29.459227 -227.038232 -188.319510 0 120 255
29.366232 -227.044028 -190.792145 0 120 255
29.273237 -227.049824 -193.264779 0 120 255
29.199563 -227.056325 -195.737545 0 120 255
29.258476 -227.067656 -198.211207 0 120 255
29.317390 -227.078988 -200.684870 0 120 255
29.376304 -227.090320 -203.158532 0 120 255
29.447995 -227.102114 -205.631499 0 120 255
29.656997 -227.118877 -208.096989 0 120 255
29.865998 -227.135640 -210.562480 0 120 255
30.075000 -227.152403 -213.027970 0 120 255
30.290399 -227.169397 -215.492721 0 120 255
30.647800 -227.191514 -217.941063 0 120 255
31.005201 -227.213632 -220.389406 0 120 255
31.362602 -227.235750 -222.837748 0 120 255
31.720167 -227.257874 -225.286061 0 120 255
32.224405 -227.285246 -227.708374 0 120 255
32.728643 -227.312617 -230.130687 0 120 255
33.232881 -227.339989 -232.553000 0 120 255
33.737119 -227.367361 -234.975313 0 120 255
34.380769 -227.399681 -237.364120 0 120 255
35.030354 -227.432212 -239.751501 0 120 255
35.679938 -227.464743 -242.138881 0 120 255
36.329523 -227.497274 -244.526262 0 120 255
37.111023 -227.534449 -246.873337 0 120 255
37.904421 -227.572042 -249.216777 0 120 255
38.697819 -227.609635 -251.560217 0 120 255
39.491218 -227.647229 -253.903657 0 120 255
40.408964 -227.689187 -256.200628 0 120 255
41.344406 -227.731767 -258.490987 0 120 255
42.279848 -227.774346 -260.781345 0 120 255
43.215289 -227.816926 -263.071703 0 120 255
44.267270 -227.863534 -265.310121 0 120 255
45.342516 -227.910947 -267.538170 0 120 255
46.417763 -227.958360 -269.766219 0 120 255
47.493010 -228.005773 -271.994268 0 120 255
48.676734 -228.056932 -274.165636 0 120 255
49.888986 -228.109075 -276.322099 0 120 255
51.101237 -228.161218 -278.478562 0 120 255
52.313489 -228.213361 -280.635025 0 120 255
53.625896 -228.268937 -282.730862 0 120 255
54.971689 -228.325657 -284.806489 0 120 255
56.317481 -228.382377 -286.882117 0 120 255
57.663274 -228.439097 -288.957744 0 120 255
59.100677 -228.498982 -290.969648 0 120 255
60.575821 -228.560170 -292.955300 0 120 255
62.050965 -228.621358 -294.940951 0 120 255
63.526108 -228.682546 -296.926603 0 120 255
65.084203 -228.746573 -298.846296 0 120 255
66.683810 -228.812021 -300.732981 0 120 255
68.283417 -228.877469 -302.619665 0 120 255
69.883024 -228.942917 -304.506350 0 120 255
71.556808 -229.010805 -306.325805 0 120 255
73.275151 -229.080157 -308.104876 0 120 255
74.993494 -229.149510 -309.883947 0 120 255
76.711837 -229.218863 -311.663018 0 120 255
78.495570 -229.289707 -313.374616 0 120 255
80.326074 -229.361618 -315.037952 0 120 255
82.156578 -229.433529 -316.701288 0 120 255
83.987083 -229.505440 -318.364625 0 120 255
85.873929 -229.575891 -319.961827 0 120 255
87.808522 -229.645105 -321.502983 0 120 255
89.743115 -229.714319 -323.044140 0 120 255
91.677709 -229.783534 -324.585296 0 120 255
93.659683 -229.846845 -326.063159 0 120 255
95.689123 -229.904243 -327.477614 0 120 255
97.718563 -229.961642 -328.892069 0 120 255
99.748004 -230.019040 -330.306524 0 120 255
101.816597 -230.067238 -331.661164 0 120 255
103.931556 -230.104542 -332.944972 0 120 255
106.046514 -230.141845 -334.228781 0 120 255
108.161473 -230.179148 -335.512589 0 120 255
110.308158 -230.205450 -336.740467 0 120 255
112.499362 -230.216315 -337.889864 0 120 255
114.690566 -230.227180 -339.039260 0 120 255
116.881769 -230.238044 -340.188657 0 120 255
119.097984 -230.237018 -341.286507 0 120 255
121.355991 -230.216122 -342.298225 0 120 255
123.613998 -230.195227 -343.309943 0 120 255
125.872005 -230.174331 -344.321661 0 120 255
128.149050 -230.141452 -345.286644 0 120 255
130.464283 -230.084533 -346.157886 0 120 255
132.779516 -230.027615 -347.029127 0 120 255
135.094749 -229.970697 -347.900369 0 120 255
137.423826 -229.902380 -348.730031 0 120 255
139.786642 -229.806282 -349.458365 0 120 255
142.149458 -229.710185 -350.186699 0 120 255
144.512275 -229.614087 -350.915033 0 120 255
146.884530 -229.507718 -351.607261 0 120 255
149.285224 -229.370406 -352.190716 0 120 255
151.685918 -229.233093 -352.774170 0 120 255
154.086612 -229.095780 -353.357624 0 120 255
156.493154 -228.949732 -353.910689 0 120 255
158.922036 -228.770315 -354.347665 0 120 255
161.350918 -228.590897 -354.784640 0 120 255
163.779799 -228.411479 -355.221615 0 120 255
166.211764 -228.225220 -355.634126 0 120 255
168.659248 -228.004515 -355.923464 0 120 255
171.106732 -227.783809 -356.212802 0 120 255
173.554216 -227.563104 -356.502139 0 120 255
176.001686 -227.341064 -356.790540 0 120 255
178.449058 -227.109611 -357.072330 0 120 255
180.896429 -226.878159 -357.354120 0 120 255
183.343801 -226.646706 -357.635910 0 120 255
185.791173 -226.415253 -357.917701 0 120 255
188.238542 -226.183789 -358.199503 0 120 255
190.685912 -225.952325 -358.481306 0 120 255
193.133281 -225.720862 -358.763109 0 120 255
195.580651 -225.489398 -359.044911 0 120 255
198.028021 -225.257939 -359.326706 0 120 255
200.475392 -225.026479 -359.608501 0 120 255
202.922763 -224.795020 -359.890296 0 120 255
205.370133 -224.563560 -360.172091 0 120 255
