ply
format ascii 1.0
element vertex 385
property float x
property float y
property float z
property uchar red
property uchar green
property uchar blue
end_header
77.430455 -42.474882 -360.397637 0 120 255
77.187564 -42.528709 -357.936046 0 120 255
76.944672 -42.582536 -355.474456 0 120 255
76.701781 -42.636363 -353.012866 0 120 255
76.458889 -42.690190 -350.551276 0 120 255
76.212614 -42.753232 -348.090241 0 120 255
75.966191 -42.816677 -345.629231 0 120 255
75.719768 -42.880121 -343.168221 0 120 255
75.473345 -42.943566 -340.707211 0 120 255
75.079295 -43.332542 -338.298301 0 120 255
74.671783 -43.751203 -335.894143 0 120 255
74.264271 -44.169864 -333.489985 0 120 255
73.856759 -44.588525 -331.085827 0 120 255
73.337877 -45.250435 -328.761498 0 120 255
72.802630 -45.948091 -326.448901 0 120 255
72.267382 -46.645747 -324.136303 0 120 255
71.732134 -47.343403 -321.823706 0 120 255
71.119354 -48.225572 -319.597117 0 120 255
70.490397 -49.146239 -317.388474 0 120 255
69.861439 -50.066906 -315.179831 0 120 255
69.232482 -50.987573 -312.971188 0 120 255
68.557833 -52.050620 -310.843255 0 120 255
67.870520 -53.153127 -308.737691 0 120 255
67.183207 -54.255633 -306.632126 0 120 255
66.495895 -55.358140 -304.526562 0 120 255
65.791036 -56.575449 -302.492832 0 120 255
65.079974 -57.833355 -300.484503 0 120 255
64.368911 -59.091260 -298.476174 0 120 255
63.657848 -60.349165 -296.467845 0 120 255
62.952731 -61.705080 -294.523733 0 120 255
62.250227 -63.104077 -292.607848 0 120 255
61.547723 -64.503075 -290.691963 0 120 255
60.845220 -65.902072 -288.776078 0 120 255
60.167133 -67.388988 -286.920224 0 120 255
59.502157 -68.923114 -285.096605 0 120 255
58.837181 -70.457240 -283.272987 0 120 255
58.172206 -71.991366 -281.449368 0 120 255
57.545196 -73.606501 -279.685273 0 120 255
56.942799 -75.274156 -277.959768 0 120 255
56.340403 -76.941810 -276.234263 0 120 255
55.738006 -78.609464 -274.508758 0 120 255
55.182648 -80.351849 -272.845037 0 120 255
54.663834 -82.152291 -271.229314 0 120 255
54.145019 -83.952733 -269.613591 0 120 255
53.626204 -85.753175 -267.997868 0 120 255
53.159694 -87.621153 -266.447505 0 120 255
52.741667 -89.551730 -264.957725 0 120 255
52.323640 -91.482308 -263.467946 0 120 255
51.905612 -93.412886 -261.978166 0 120 255
51.542116 -95.402272 -260.557179 0 120 255
51.238842 -97.456605 -259.212166 0 120 255
50.935569 -99.510939 -257.867153 0 120 255
50.632295 -101.565272 -256.522141 0 120 255
50.383478 -103.668188 -255.247964 0 120 255
50.206401 -105.835107 -254.067104 0 120 255
50.029324 -108.002025 -252.886244 0 120 255
49.852247 -110.168943 -251.705385 0 120 255
49.727919 -112.373226 -250.595191 0 120 255
49.686803 -114.636453 -249.596474 0 120 255
49.645687 -116.899679 -248.597758 0 120 255
49.604572 -119.162906 -247.599041 0 120 255
49.613337 -121.452011 -246.668197 0 120 255
49.716991 -123.790344 -245.866466 0 120 255
49.820644 -126.128678 -245.064734 0 120 255
49.924297 -128.467011 -244.263003 0 120 255
50.074135 -130.820268 -243.523713 0 120 255
50.331061 -133.208127 -242.929205 0 120 255
50.587987 -135.595985 -242.334697 0 120 255
50.844913 -137.983844 -241.740189 0 120 255
51.143637 -140.376955 -241.200352 0 120 255
51.562385 -142.785149 -240.817503 0 120 255
51.981132 -145.193343 -240.434653 0 120 255
52.399880 -147.601537 -240.051804 0 120 255
52.855381 -150.007245 -239.714087 0 120 255
53.444673 -152.403905 -239.540662 0 120 255
54.033965 -154.800565 -239.367238 0 120 255
54.623257 -157.197225 -239.193813 0 120 255
55.243549 -159.586090 -239.054947 0 120 255
56.012075 -161.937684 -239.081332 0 120 255
56.780601 -164.289277 -239.107717 0 120 255
57.549128 -166.640870 -239.134102 0 120 255
58.342139 -168.982120 -239.184328 0 120 255
59.298037 -171.254557 -239.393153 0 120 255
60.253935 -173.526995 -239.601978 0 120 255
61.209833 -175.799432 -239.810804 0 120 255
62.182944 -178.061884 -240.033557 0 120 255
63.332979 -180.221711 -240.399468 0 120 255
64.483014 -182.381537 -240.765378 0 120 255
65.633049 -184.541363 -241.131289 0 120 255
66.792402 -186.694421 -241.503017 0 120 255
68.140916 -188.710085 -241.992844 0 120 255
69.489429 -190.725749 -242.482671 0 120 255
70.837943 -192.741413 -242.972497 0 120 255
72.187554 -194.756127 -243.462784 0 120 255
73.735215 -196.599341 -244.036042 0 120 255
75.282877 -198.442556 -244.609299 0 120 255
76.830538 -200.285771 -245.182557 0 120 255
78.378199 -202.128986 -245.755814 0 120 255
80.113766 -203.783113 -246.364354 0 120 255
81.856278 -205.430250 -246.974197 0 120 255
83.598791 -207.077387 -247.584040 0 120 255
85.341304 -208.724524 -248.193883 0 120 255
87.254036 -210.174396 -248.789704 0 120 255
89.180879 -211.607917 -249.384362 0 120 255
91.107721 -213.041437 -249.979020 0 120 255
93.034563 -214.474957 -250.573678 0 120 255
95.108486 -215.710883 -251.106679 0 120 255
97.201939 -216.920572 -251.631494 0 120 255
99.295391 -218.130261 -252.156308 0 120 255
101.388843 -219.339950 -252.681122 0 120 255
103.601115 -220.359584 -253.100699 0 120 255
105.835630 -221.343637 -253.500574 0 120 255
108.070145 -222.327691 -253.900450 0 120 255
110.304661 -223.311744 -254.300325 0 120 255
112.625507 -224.120627 -254.557773 0 120 255
114.967665 -224.886265 -254.780061 0 120 255
117.309824 -225.651903 -255.002348 0 120 255
119.651982 -226.417541 -255.224636 0 120 255
122.045120 -227.029277 -255.275677 0 120 255
124.454196 -227.592897 -255.273180 0 120 255
126.863272 -228.156517 -255.270683 0 120 255
129.272348 -228.720137 -255.268186 0 120 255
131.695947 -229.156053 -255.075462 0 120 255
134.125146 -229.542731 -254.809393 0 120 255
136.554345 -229.929408 -254.543324 0 120 255
138.983544 -230.316086 -254.277255 0 120 255
141.391690 -230.604359 -253.812597 0 120 255
143.790004 -230.846677 -253.255199 0 120 255
146.188318 -231.088995 -252.697800 0 120 255
148.586631 -231.331313 -252.140401 0 120 255
150.931128 -231.506712 -251.386595 0 120 255
153.245561 -231.644729 -250.523074 0 120 255
155.559995 -231.782745 -249.659553 0 120 255
157.874429 -231.920762 -248.796032 0 120 255
160.107095 -232.021304 -247.747951 0 120 255
162.285561 -232.097007 -246.577535 0 120 255
164.464027 -232.172710 -245.407119 0 120 255
166.642494 -232.248412 -244.236703 0 120 255
168.717150 -232.309180 -242.901225 0 120 255
170.710573 -232.358261 -241.436583 0 120 255
172.703995 -232.407341 -239.971940 0 120 255
174.697417 -232.456422 -238.507297 0 120 255
176.569940 -232.494239 -236.900639 0 120 255
178.330960 -232.521669 -235.163003 0 120 255
180.091980 -232.549098 -233.425368 0 120 255
181.853000 -232.576528 -231.687733 0 120 255
183.481617 -232.595386 -229.834385 0 120 255
184.966380 -232.604931 -227.855318 0 120 255
186.451143 -232.614476 -225.876250 0 120 255
187.935906 -232.624020 -223.897183 0 120 255
189.283328 -232.628526 -221.830379 0 120 255
190.454720 -232.626574 -219.651122 0 120 255
191.626111 -232.624621 -217.471866 0 120 255
192.797503 -232.622669 -215.292610 0 120 255
193.833035 -232.618019 -213.053093 0 120 255
194.662369 -232.609276 -210.722117 0 120 255
195.491702 -232.600533 -208.391141 0 120 255
196.321036 -232.591789 -206.060165 0 120 255
197.021831 -232.581724 -203.694157 0 120 255
197.490099 -232.569266 -201.264776 0 120 255
197.958367 -232.556809 -198.835395 0 120 255
198.426635 -232.544351 -196.406015 0 120 255
198.778532 -232.531216 -193.963182 0 120 255
198.877020 -232.516605 -191.491056 0 120 255
198.975507 -232.501993 -189.018930 0 120 255
199.073995 -232.487382 -186.546804 0 120 255
199.071824 -232.472257 -184.078179 0 120 255
198.801990 -232.455769 -181.618862 0 120 255
198.532156 -232.439280 -179.159546 0 120 255
198.262322 -232.422792 -176.700229 0 120 255
197.909672 -232.405703 -174.256225 0 120 255
197.282506 -232.386626 -171.862981 0 120 255
196.655340 -232.367548 -169.469736 0 120 255
196.028175 -232.348471 -167.076492 0 120 255
195.336768 -232.328642 -164.705151 0 120 255
194.371704 -232.305611 -162.427116 0 120 255
193.406641 -232.282580 -160.149081 0 120 255
192.441577 -232.259549 -157.871047 0 120 255
191.430300 -232.235679 -155.616581 0 120 255
190.153757 -232.206986 -153.497398 0 120 255
188.877214 -232.178293 -151.378215 0 120 255
187.600671 -232.149600 -149.259033 0 120 255
186.294346 -232.120122 -147.160733 0 120 255
184.738172 -232.084055 -145.237626 0 120 255
183.181997 -232.047988 -143.314519 0 120 255
181.625823 -232.011921 -141.391412 0 120 255
180.053904 -231.975284 -139.482916 0 120 255
178.253771 -231.930378 -137.786206 0 120 255
176.453638 -231.885472 -136.089496 0 120 255
174.653504 -231.840566 -134.392787 0 120 255
172.848741 -231.795440 -132.701689 0 120 255
170.842586 -231.740737 -131.254738 0 120 255
168.836430 -231.686034 -129.807787 0 120 255
166.830275 -231.631331 -128.360835 0 120 255
164.824119 -231.576628 -126.913884 0 120 255
162.654076 -231.512033 -125.728072 0 120 255
160.480743 -231.447239 -124.547503 0 120 255
158.307409 -231.382446 -123.366935 0 120 255
156.134075 -231.317652 -122.186366 0 120 255
153.840100 -231.243890 -121.265419 0 120 255
151.538162 -231.169536 -120.361610 0 120 255
149.236223 -231.095181 -119.457802 0 120 255
146.934284 -231.020827 -118.553994 0 120 255
144.550617 -230.939177 -117.902382 0 120 255
142.157438 -230.856678 -117.280119 0 120 255
139.764260 -230.774179 -116.657857 0 120 255
137.371081 -230.691680 -116.035594 0 120 255
134.930301 -230.604322 -115.653528 0 120 255
132.481342 -230.516128 -115.312730 0 120 255
130.032383 -230.427935 -114.971932 0 120 255
127.583424 -230.339742 -114.631134 0 120 255
125.116050 -230.249876 -114.515188 0 120 255
122.644383 -230.159620 -114.451657 0 120 255
120.172716 -230.069364 -114.388126 0 120 255
117.701049 -229.979108 -114.324595 0 120 255
115.235371 -229.889671 -114.468678 0 120 255
112.771497 -229.800481 -114.675295 0 120 255
110.307623 -229.711291 -114.881913 0 120 255
107.843750 -229.622100 -115.088530 0 120 255
105.405922 -229.534675 -115.484606 0 120 255
102.977918 -229.447916 -115.952145 0 120 255
100.549915 -229.361156 -116.419683 0 120 255
98.121911 -229.274397 -116.887222 0 120 255
95.736023 -229.189846 -117.525501 0 120 255
93.369614 -229.106318 -118.242756 0 120 255
91.003206 -229.022789 -118.960011 0 120 255
88.636798 -228.939260 -119.677266 0 120 255
86.324928 -228.858288 -120.546433 0 120 255
84.043551 -228.778744 -121.500537 0 120 255
81.762175 -228.699201 -122.454641 0 120 255
79.480798 -228.619657 -123.408744 0 120 255
77.263098 -228.542925 -124.496226 0 120 255
75.088016 -228.468074 -125.672974 0 120 255
72.912934 -228.393223 -126.849721 0 120 255
70.737852 -228.318372 -128.026469 0 120 255
68.632647 -228.246488 -129.318662 0 120 255
66.583071 -228.176966 -130.702759 0 120 255
64.533496 -228.107443 -132.086857 0 120 255
62.483920 -228.037921 -133.470954 0 120 255
60.507801 -227.971432 -134.953394 0 120 255
58.601001 -227.907807 -136.528635 0 120 255
56.694201 -227.844183 -138.103877 0 120 255
54.787401 -227.780558 -139.679119 0 120 255
52.955326 -227.719954 -141.336627 0 120 255
51.206751 -227.662727 -143.086064 0 120 255
49.458176 -227.605499 -144.835502 0 120 255
47.709601 -227.548272 -146.584939 0 120 255
46.034961 -227.493995 -148.401720 0 120 255
44.458298 -227.443628 -150.307741 0 120 255
42.881635 -227.393261 -152.213762 0 120 255
41.304972 -227.342894 -154.119784 0 120 255
39.799644 -227.295320 -156.079492 0 120 255
38.406866 -227.252153 -158.123905 0 120 255
37.014087 -227.208986 -160.168318 0 120 255
35.621309 -227.165819 -162.212731 0 120 255
34.295678 -227.125254 -164.298539 0 120 255
33.097062 -227.089614 -166.462649 0 120 255
31.898446 -227.053973 -168.626758 0 120 255
30.699831 -227.018333 -170.790868 0 120 255
29.562791 -226.985052 -172.985523 0 120 255
28.566882 -226.957179 -175.250189 0 120 255
27.570974 -226.929305 -177.514854 0 120 255
26.575065 -226.901432 -179.779519 0 120 255
25.633990 -226.875632 -182.065404 0 120 255
24.847568 -226.855678 -184.411137 0 120 255
24.061146 -226.835724 -186.756870 0 120 255
23.274725 -226.815771 -189.102603 0 120 255
22.535429 -226.797585 -191.461817 0 120 255
21.963450 -226.785677 -193.868894 0 120 255
21.391471 -226.773769 -196.275971 0 120 255
20.819492 -226.761861 -198.683047 0 120 255
20.286187 -226.751389 -201.097508 0 120 255
19.931713 -226.747557 -203.546110 0 120 255
19.577238 -226.743725 -205.994712 0 120 255
19.222764 -226.739893 -208.443315 0 120 255
18.898002 -226.737151 -210.894878 0 120 255
18.762182 -226.741341 -213.365274 0 120 255
18.626362 -226.745532 -215.835670 0 120 255
18.490542 -226.749722 -218.306066 0 120 255
18.375193 -226.754658 -220.776682 0 120 255
18.457201 -226.766776 -223.249423 0 120 255
18.539209 -226.778894 -225.722164 0 120 255
18.621218 -226.791012 -228.194905 0 120 255
18.714422 -226.803535 -230.666783 0 120 255
19.011450 -226.823419 -233.122938 0 120 255
19.308479 -226.843303 -235.579093 0 120 255
19.605507 -226.863188 -238.035249 0 120 255
19.904675 -226.883149 -240.491050 0 120 255
20.412074 -226.910566 -242.912437 0 120 255
20.919473 -226.937983 -245.333824 0 120 255
21.426872 -226.965400 -247.755211 0 120 255
21.934271 -226.992817 -250.176598 0 120 255
22.639099 -227.027245 -252.547672 0 120 255
23.350395 -227.061902 -254.917098 0 120 255
24.061691 -227.096560 -257.286523 0 120 255
24.772986 -227.131218 -259.655949 0 120 255
25.665661 -227.172241 -261.962426 0 120 255
26.572753 -227.213769 -264.263899 0 120 255
27.479844 -227.255298 -266.565373 0 120 255
28.386935 -227.296827 -268.866847 0 120 255
29.458785 -227.344091 -271.095294 0 120 255
30.552160 -227.392105 -273.314200 0 120 255
31.645536 -227.440119 -275.533106 0 120 255
32.738912 -227.488133 -277.752012 0 120 255
33.980189 -227.541230 -279.890335 0 120 255
35.249116 -227.595279 -282.013593 0 120 255
36.518042 -227.649327 -284.136851 0 120 255
37.786969 -227.703375 -286.260109 0 120 255
39.187037 -227.761877 -288.297653 0 120 255
40.619784 -227.821490 -290.313838 0 120 255
42.052531 -227.881103 -292.330023 0 120 255
43.485278 -227.940715 -294.346208 0 120 255
45.032830 -228.004188 -296.273817 0 120 255
46.616926 -228.068889 -298.173232 0 120 255
48.201021 -228.133591 -300.072647 0 120 255
49.785117 -228.198292 -301.972061 0 120 255
51.468383 -228.266296 -303.782104 0 120 255
53.190884 -228.335607 -305.556789 0 120 255
54.913384 -228.404918 -307.331475 0 120 255
56.635885 -228.474229 -309.106160 0 120 255
58.442852 -228.546407 -310.792507 0 120 255
60.290585 -228.619968 -312.436220 0 120 255
62.138318 -228.693530 -314.079933 0 120 255
63.986050 -228.767091 -315.723646 0 120 255
65.904647 -228.843180 -317.281633 0 120 255
67.864432 -228.920738 -318.789794 0 120 255
69.824216 -228.998296 -320.297955 0 120 255
71.784001 -229.075854 -321.806116 0 120 255
73.802140 -229.155089 -323.232712 0 120 255
75.860777 -229.235489 -324.602700 0 120 255
77.919414 -229.315889 -325.972689 0 120 255
79.978052 -229.396289 -327.342677 0 120 255
82.083635 -229.476403 -328.636843 0 120 255
84.227912 -229.556282 -329.868514 0 120 255
86.372190 -229.636160 -331.100185 0 120 255
88.516468 -229.716039 -332.331856 0 120 255
90.697157 -229.790176 -333.495731 0 120 255
92.913394 -229.858707 -334.593419 0 120 255
95.129630 -229.927239 -335.691106 0 120 255
97.345867 -229.995771 -336.788794 0 120 255
99.589709 -230.054266 -337.827059 0 120 255
101.865466 -230.101159 -338.796621 0 120 255
104.141223 -230.148052 -339.766183 0 120 255
106.416980 -230.194945 -340.735746 0 120 255
108.713156 -230.229471 -341.654071 0 120 255
111.037349 -230.247027 -342.502090 0 120 255
113.361543 -230.264584 -343.350109 0 120 255
115.685737 -230.282140 -344.198128 0 120 255
118.024551 -230.286272 -345.002821 0 120 255
120.387294 -230.268434 -345.736612 0 120 255
122.750037 -230.250597 -346.470402 0 120 255
125.112780 -230.232759 -347.204193 0 120 255
127.485567 -230.201549 -347.902154 0 120 255
129.878116 -230.144029 -348.529626 0 120 255
132.270665 -230.086510 -349.157098 0 120 255
134.663214 -230.028991 -349.784570 0 120 255
137.062315 -229.959053 -350.383130 0 120 255
139.477095 -229.859391 -350.912490 0 120 255
141.891876 -229.759729 -351.441850 0 120 255
144.306657 -229.660067 -351.971210 0 120 255
146.725424 -229.549604 -352.477936 0 120 255
149.156004 -229.407137 -352.917601 0 120 255
151.586584 -229.264671 -353.357265 0 120 255
154.017164 -229.122205 -353.796929 0 120 255
156.449951 -228.970988 -354.219544 0 120 255
158.891040 -228.786846 -354.578005 0 120 255
161.332129 -228.602704 -354.936467 0 120 255
163.773219 -228.418562 -355.294929 0 120 255
166.215359 -228.228154 -355.641505 0 120 255
168.662718 -228.006619 -355.929033 0 120 255
171.110078 -227.785084 -356.216562 0 120 255
173.557438 -227.563548 -356.504090 0 120 255
176.004767 -227.340772 -356.790895 0 120 255
178.451882 -227.109344 -357.072655 0 120 255
180.898997 -226.877916 -357.354415 0 120 255
183.346112 -226.646488 -357.636176 0 120 255
185.793227 -226.415058 -357.917937 0 120 255
188.240340 -226.183619 -358.199710 0 120 255
190.687453 -225.952180 -358.481483 0 120 255
193.134565 -225.720740 -358.763256 0 120 255
195.581678 -225.489301 -359.045029 0 120 255
198.028792 -225.257866 -359.326794 0 120 255
200.475906 -225.026431 -359.608560 0 120 255
202.923019 -224.794996 -359.890325 0 120 255
205.370133 -224.563560 -360.172091 0 120 255
