ply
format ascii 1.0
element vertex 385
property float x
property float y
property float z
property uchar red
property uchar green
property uchar blue
end_header
77.430455 -42.474882 -360.397637 0 120 255
77.187556 -42.528711 -357.935962 0 120 255
76.944656 -42.582539 -355.474288 0 120 255
76.701756 -42.636368 -353.012614 0 120 255
76.458856 -42.690197 -350.550940 0 120 255
76.213152 -42.754343 -348.089792 0 120 255
75.967326 -42.818938 -345.628668 0 120 255
75.721500 -42.883533 -343.167543 0 120 255
75.475674 -42.948128 -340.706418 0 120 255
75.110446 -43.298594 -338.286374 0 120 255
74.734331 -43.675128 -335.870076 0 120 255
74.358216 -44.051661 -333.453777 0 120 255
73.982101 -44.428194 -331.037479 0 120 255
73.529502 -45.015043 -328.678529 0 120 255
73.065643 -45.632856 -326.328023 0 120 255
72.601783 -46.250669 -323.977517 0 120 255
72.137923 -46.868482 -321.627011 0 120 255
71.634751 -47.652001 -319.336194 0 120 255
71.123358 -48.470167 -317.057857 0 120 255
70.611966 -49.288332 -314.779519 0 120 255
70.100573 -50.106498 -312.501182 0 120 255
69.580715 -51.063204 -310.280842 0 120 255
69.058504 -52.058398 -308.076614 0 120 255
68.536294 -53.053593 -305.872386 0 120 255
68.014083 -54.048788 -303.668158 0 120 255
67.506573 -55.167079 -301.521775 0 120 255
67.004277 -56.329028 -299.395908 0 120 255
66.501982 -57.490977 -297.270041 0 120 255
65.999686 -58.652926 -295.144174 0 120 255
65.527578 -59.928710 -293.079358 0 120 255
65.068793 -61.254730 -291.041486 0 120 255
64.610008 -62.580750 -289.003613 0 120 255
64.151223 -63.906770 -286.965740 0 120 255
63.731400 -65.339320 -284.994977 0 120 255
63.332609 -66.829377 -283.060440 0 120 255
62.933819 -68.319434 -281.125903 0 120 255
62.535029 -69.809492 -279.191366 0 120 255
62.178753 -71.398122 -277.331280 0 120 255
61.850232 -73.051101 -275.519797 0 120 255
61.521711 -74.704080 -273.708314 0 120 255
61.193190 -76.357059 -271.896830 0 120 255
60.907175 -78.098848 -270.166709 0 120 255
60.654475 -79.910240 -268.500354 0 120 255
60.401775 -81.721632 -266.833998 0 120 255
60.149075 -83.533024 -265.167643 0 120 255
59.936865 -85.421526 -263.587721 0 120 255
59.762599 -87.382290 -262.088797 0 120 255
59.588332 -89.343054 -260.589873 0 120 255
59.414066 -91.303818 -259.090948 0 120 255
59.277500 -93.328572 -257.680820 0 120 255
59.183123 -95.424933 -256.370057 0 120 255
59.088745 -97.521294 -255.059294 0 120 255
58.994367 -99.617656 -253.748531 0 120 255
58.934976 -101.764238 -252.525827 0 120 255
58.922400 -103.978019 -251.420949 0 120 255
58.909824 -106.191800 -250.316071 0 120 255
58.897248 -108.405580 -249.211194 0 120 255
58.917468 -110.656002 -248.190589 0 120 255
58.990380 -112.965292 -247.305374 0 120 255
59.063292 -115.274581 -246.420160 0 120 255
59.136204 -117.583870 -245.534945 0 120 255
59.240334 -119.917126 -244.727439 0 120 255
59.405127 -122.296955 -244.070937 0 120 255
59.569920 -124.676784 -243.414434 0 120 255
59.734714 -127.056613 -242.757932 0 120 255
59.929562 -129.449234 -242.170286 0 120 255
60.195856 -131.872265 -241.746319 0 120 255
60.462149 -134.295295 -241.322351 0 120 255
60.728443 -136.718326 -240.898384 0 120 255
61.023656 -139.144908 -240.532686 0 120 255
61.404383 -141.581993 -240.339288 0 120 255
61.785109 -144.019078 -240.145889 0 120 255
62.165836 -146.456162 -239.952490 0 120 255
62.573889 -148.889808 -239.805696 0 120 255
63.084981 -151.310487 -239.834630 0 120 255
63.596073 -153.731166 -239.863565 0 120 255
64.107165 -156.151844 -239.892499 0 120 255
64.643026 -158.564562 -239.956003 0 120 255
65.302593 -160.937522 -240.192166 0 120 255
65.962160 -163.310481 -240.428330 0 120 255
66.621727 -165.683440 -240.664493 0 120 255
67.302132 -168.046527 -240.923626 0 120 255
68.129265 -170.340097 -241.344489 0 120 255
68.956398 -172.633667 -241.765352 0 120 255
69.783530 -174.927237 -242.186214 0 120 255
70.625957 -177.211697 -242.619766 0 120 255
71.639053 -179.394487 -243.194916 0 120 255
72.652150 -181.577278 -243.770067 0 120 255
73.665246 -183.760069 -244.345217 0 120 255
74.686502 -185.937152 -244.925052 0 120 255
75.901283 -187.978878 -245.615994 0 120 255
77.116064 -190.020604 -246.306935 0 120 255
78.330845 -192.062330 -246.997877 0 120 255
79.545626 -194.104055 -247.688819 0 120 255
80.972598 -195.976838 -248.449146 0 120 255
82.399779 -197.849454 -249.209542 0 120 255
83.826960 -199.722070 -249.969937 0 120 255
85.254142 -201.594686 -250.730333 0 120 255
86.888048 -203.281893 -251.506229 0 120 255
88.531043 -204.960950 -252.282808 0 120 255
90.174038 -206.640008 -253.059386 0 120 255
91.817032 -208.319065 -253.835964 0 120 255
93.652375 -209.803000 -254.573706 0 120 255
95.505115 -211.269287 -255.307936 0 120 255
97.357855 -212.735575 -256.042166 0 120 255
99.210595 -214.201862 -256.776396 0 120 255
101.232144 -215.470843 -257.419906 0 120 255
103.277484 -216.712015 -258.050629 0 120 255
105.322824 -217.953187 -258.681353 0 120 255
107.368164 -219.194360 -259.312077 0 120 255
109.550288 -220.244073 -259.805668 0 120 255
111.759230 -221.256250 -260.272374 0 120 255
113.968171 -222.268426 -260.739079 0 120 255
116.177113 -223.280602 -261.205785 0 120 255
118.484061 -224.115009 -261.497423 0 120 255
120.816158 -224.903801 -261.744139 0 120 255
123.148255 -225.692593 -261.990856 0 120 255
125.480352 -226.481385 -262.237572 0 120 255
127.867489 -227.113174 -262.282208 0 120 255
130.272431 -227.694176 -262.261474 0 120 255
132.677373 -228.275178 -262.240740 0 120 255
135.082314 -228.856180 -262.220006 0 120 255
137.498318 -229.306455 -261.982564 0 120 255
139.918724 -229.704712 -261.658889 0 120 255
142.339130 -230.102968 -261.335214 0 120 255
144.759535 -230.501225 -261.011539 0 120 255
147.149288 -230.798538 -260.469261 0 120 255
149.524284 -231.047261 -259.821753 0 120 255
151.899281 -231.295983 -259.174245 0 120 255
154.274277 -231.544706 -258.526737 0 120 255
156.582115 -231.723912 -257.670549 0 120 255
158.851286 -231.863095 -256.694217 0 120 255
161.120458 -232.002277 -255.717884 0 120 255
163.389630 -232.141460 -254.741552 0 120 255
165.562615 -232.241123 -253.576168 0 120 255
167.669854 -232.313773 -252.281561 0 120 255
169.777092 -232.386422 -250.986955 0 120 255
171.884331 -232.459072 -249.692349 0 120 255
173.875191 -232.516375 -248.235460 0 120 255
175.772047 -232.561282 -246.647487 0 120 255
177.668903 -232.606188 -245.059513 0 120 255
179.565758 -232.651095 -243.471540 0 120 255
181.331576 -232.685357 -241.748576 0 120 255
182.972480 -232.709471 -239.896931 0 120 255
184.613384 -232.733586 -238.045285 0 120 255
186.254288 -232.757701 -236.193640 0 120 255
187.755887 -232.774323 -234.236049 0 120 255
189.100875 -232.782521 -232.159350 0 120 255
190.445863 -232.790720 -230.082652 0 120 255
191.790851 -232.798918 -228.005953 0 120 255
192.995589 -232.803085 -225.852725 0 120 255
194.013992 -232.801895 -223.597821 0 120 255
195.032395 -232.800706 -221.342917 0 120 255
196.050798 -232.799516 -219.088013 0 120 255
196.934369 -232.796365 -216.783985 0 120 255
197.605291 -232.790121 -214.402481 0 120 255
198.276212 -232.783876 -212.020976 0 120 255
198.947133 -232.777632 -209.639472 0 120 255
199.493875 -232.770451 -207.232716 0 120 255
199.806417 -232.761503 -204.778337 0 120 255
200.118958 -232.752555 -202.323959 0 120 255
200.431500 -232.743607 -199.869580 0 120 255
200.634423 -232.734033 -197.409297 0 120 255
200.587411 -232.723031 -194.935554 0 120 255
200.540400 -232.712030 -192.461810 0 120 255
200.493388 -232.701028 -189.988067 0 120 255
200.353775 -232.689313 -187.522727 0 120 255
199.954875 -232.675598 -185.080919 0 120 255
199.555975 -232.661883 -182.639111 0 120 255
199.157075 -232.648168 -180.197302 0 120 255
198.683685 -232.633517 -177.773088 0 120 255
197.948244 -232.615574 -175.410771 0 120 255
197.212803 -232.597630 -173.048454 0 120 255
196.477361 -232.579687 -170.686137 0 120 255
195.685420 -232.560631 -168.345752 0 120 255
194.635116 -232.536486 -166.105660 0 120 255
193.584812 -232.512341 -163.865567 0 120 255
192.534508 -232.488196 -161.625474 0 120 255
191.444575 -232.462921 -159.407306 0 120 255
190.106017 -232.430561 -157.326693 0 120 255
188.767459 -232.398202 -155.246079 0 120 255
187.428901 -232.365842 -153.165465 0 120 255
186.065714 -232.332536 -151.103077 0 120 255
184.469112 -232.290272 -149.213417 0 120 255
182.872511 -232.248009 -147.323757 0 120 255
181.275909 -232.205745 -145.434097 0 120 255
179.667277 -232.162893 -143.555997 0 120 255
177.845207 -232.109625 -141.882988 0 120 255
176.023137 -232.056356 -140.209978 0 120 255
174.201067 -232.003088 -138.536969 0 120 255
172.376845 -231.949693 -136.866619 0 120 255
170.363174 -231.885180 -135.430407 0 120 255
168.349503 -231.820666 -133.994195 0 120 255
166.335832 -231.756153 -132.557983 0 120 255
164.322161 -231.691639 -131.121772 0 120 255
162.156049 -231.616943 -129.929517 0 120 255
159.985069 -231.541921 -128.745052 0 120 255
157.814089 -231.466900 -127.560588 0 120 255
155.643109 -231.391879 -126.376123 0 120 255
153.357832 -231.308808 -125.434500 0 120 255
151.063534 -231.225101 -124.512044 0 120 255
148.769235 -231.141395 -123.589589 0 120 255
146.474936 -231.057688 -122.667133 0 120 255
144.100895 -230.969137 -121.981817 0 120 255
141.716452 -230.879954 -121.327437 0 120 255
139.332009 -230.790771 -120.673057 0 120 255
136.947565 -230.701588 -120.018676 0 120 255
134.514156 -230.611147 -119.592166 0 120 255
132.071583 -230.520470 -119.208302 0 120 255
129.629009 -230.429793 -118.824438 0 120 255
127.186436 -230.339117 -118.440573 0 120 255
124.721968 -230.248622 -118.272753 0 120 255
122.252030 -230.158172 -118.158895 0 120 255
119.782092 -230.067722 -118.045037 0 120 255
117.312154 -229.977272 -117.931180 0 120 255
114.843776 -229.887688 -118.019402 0 120 255
112.375896 -229.798380 -118.172144 0 120 255
109.908016 -229.709073 -118.324886 0 120 255
107.440136 -229.619765 -118.477628 0 120 255
104.993721 -229.531932 -118.816873 0 120 255
102.555826 -229.444685 -119.230143 0 120 255
100.117931 -229.357437 -119.643413 0 120 255
97.680035 -229.270189 -120.056683 0 120 255
95.280061 -229.184951 -120.639729 0 120 255
92.898449 -229.100687 -121.304979 0 120 255
90.516836 -229.016422 -121.970230 0 120 255
88.135223 -228.932157 -122.635481 0 120 255
85.804694 -228.850313 -123.453161 0 120 255
83.503951 -228.769880 -124.359719 0 120 255
81.203207 -228.689447 -125.266277 0 120 255
78.902464 -228.609013 -126.172835 0 120 255
76.662797 -228.531295 -127.214156 0 120 255
74.465637 -228.455467 -128.349267 0 120 255
72.268478 -228.379639 -129.484379 0 120 255
70.071319 -228.303810 -130.619491 0 120 255
67.942247 -228.230888 -131.871804 0 120 255
65.869426 -228.160367 -133.220944 0 120 255
63.796606 -228.089845 -134.570084 0 120 255
61.723785 -228.019324 -135.919224 0 120 255
59.723323 -227.951811 -137.368499 0 120 255
57.793618 -227.887240 -138.915692 0 120 255
55.863913 -227.822669 -140.462886 0 120 255
53.934209 -227.758098 -142.010079 0 120 255
52.078592 -227.696539 -143.641075 0 120 255
50.308691 -227.638466 -145.369027 0 120 255
48.538791 -227.580393 -147.096979 0 120 255
46.768891 -227.522320 -148.824931 0 120 255
45.072519 -227.467177 -150.621362 0 120 255
43.476996 -227.416054 -152.511714 0 120 255
41.881474 -227.364930 -154.402066 0 120 255
40.285951 -227.313807 -156.292418 0 120 255
38.761394 -227.265473 -158.237169 0 120 255
37.352755 -227.221695 -160.270775 0 120 255
35.944116 -227.177917 -162.304382 0 120 255
34.535476 -227.134139 -164.337989 0 120 255
33.193503 -227.092946 -166.413323 0 120 255
31.982195 -227.056821 -168.570443 0 120 255
30.770886 -227.020696 -170.727562 0 120 255
29.559578 -226.984570 -172.884682 0 120 255
28.409154 -226.950775 -175.072389 0 120 255
27.403559 -226.922522 -177.332858 0 120 255
26.397964 -226.894269 -179.593326 0 120 255
25.392369 -226.866016 -181.853795 0 120 255
24.440703 -226.839808 -184.135357 0 120 255
23.647321 -226.819600 -186.478832 0 120 255
22.853938 -226.799391 -188.822307 0 120 255
22.060556 -226.779183 -191.165782 0 120 255
21.313210 -226.760702 -193.522547 0 120 255
20.736650 -226.748627 -195.928616 0 120 255
20.160090 -226.736551 -198.334686 0 120 255
19.583530 -226.724476 -200.740755 0 120 255
19.044411 -226.713792 -203.154030 0 120 255
18.687384 -226.709874 -205.602346 0 120 255
18.330357 -226.705955 -208.050663 0 120 255
17.973329 -226.702036 -210.498979 0 120 255
17.644700 -226.699161 -212.950146 0 120 255
17.508129 -226.703343 -215.420585 0 120 255
17.371558 -226.707524 -217.891024 0 120 255
17.234987 -226.711706 -220.361463 0 120 255
17.117548 -226.716583 -222.832106 0 120 255
17.200631 -226.728752 -225.304895 0 120 255
17.283715 -226.740921 -227.777685 0 120 255
17.366798 -226.753089 -230.250474 0 120 255
17.459737 -226.765614 -232.722495 0 120 255
17.759842 -226.785616 -235.178360 0 120 255
18.059947 -226.805619 -237.634225 0 120 255
18.360052 -226.825622 -240.090091 0 120 255
18.660953 -226.845653 -242.545823 0 120 255
19.173652 -226.873267 -244.966177 0 120 255
19.686351 -226.900880 -247.386532 0 120 255
20.199050 -226.928494 -249.806886 0 120 255
20.711749 -226.956108 -252.227240 0 120 255
21.423097 -226.990774 -254.596388 0 120 255
22.142274 -227.025717 -256.963517 0 120 255
22.861450 -227.060661 -259.330646 0 120 255
23.580627 -227.095604 -261.697776 0 120 255
24.482626 -227.136958 -264.000638 0 120 255
25.400432 -227.178865 -266.297944 0 120 255
26.318239 -227.220772 -268.595249 0 120 255
27.236045 -227.262680 -270.892555 0 120 255
28.320155 -227.310363 -273.115071 0 120 255
29.427207 -227.358843 -275.327270 0 120 255
30.534260 -227.407323 -277.539468 0 120 255
31.641312 -227.455803 -279.751667 0 120 255
32.897785 -227.509414 -281.881093 0 120 255
34.183334 -227.564023 -283.994412 0 120 255
35.468883 -227.618633 -286.107732 0 120 255
36.754432 -227.673242 -288.221051 0 120 255
38.172500 -227.732365 -290.246094 0 120 255
39.624653 -227.792648 -292.248432 0 120 255
41.076806 -227.852931 -294.250769 0 120 255
42.528959 -227.913214 -296.253107 0 120 255
44.096974 -227.977357 -298.164083 0 120 255
45.702849 -228.042762 -300.045207 0 120 255
47.308724 -228.108167 -301.926331 0 120 255
48.914599 -228.173572 -303.807454 0 120 255
50.620273 -228.242295 -305.596369 0 120 255
52.366320 -228.312360 -307.347983 0 120 255
54.112367 -228.382424 -309.099596 0 120 255
55.858414 -228.452489 -310.851209 0 120 255
57.689101 -228.525362 -312.511751 0 120 255
59.561436 -228.599616 -314.127483 0 120 255
61.433770 -228.673871 -315.743214 0 120 255
63.306104 -228.748125 -317.358946 0 120 255
65.249009 -228.824793 -318.886504 0 120 255
67.233641 -228.902887 -320.361927 0 120 255
69.218274 -228.980982 -321.837351 0 120 255
71.202906 -229.059077 -323.312774 0 120 255
73.245252 -229.139152 -324.704484 0 120 255
75.328270 -229.220623 -326.037202 0 120 255
77.411288 -229.302093 -327.369920 0 120 255
79.494306 -229.383564 -328.702638 0 120 255
81.623414 -229.465582 -329.957663 0 120 255
83.791036 -229.548057 -331.147768 0 120 255
85.958659 -229.630531 -332.337873 0 120 255
88.126281 -229.713006 -333.527978 0 120 255
90.329215 -229.790259 -334.649087 0 120 255
92.567053 -229.862350 -335.701997 0 120 255
94.804892 -229.934442 -336.754908 0 120 255
97.042730 -230.006533 -337.807818 0 120 255
99.306913 -230.068611 -338.800918 0 120 255
101.601899 -230.118981 -339.724086 0 120 255
103.896885 -230.169350 -340.647254 0 120 255
106.191872 -230.219720 -341.570422 0 120 255
108.505966 -230.257310 -342.442761 0 120 255
110.846551 -230.277183 -343.244638 0 120 255
113.187135 -230.297056 -344.046515 0 120 255
115.527720 -230.316930 -344.848392 0 120 255
117.881666 -230.322816 -345.608048 0 120 255
120.257684 -230.305597 -346.297962 0 120 255
122.633701 -230.288378 -346.987876 0 120 255
125.009719 -230.271160 -347.677790 0 120 255
127.394652 -230.240046 -348.333541 0 120 255
129.797273 -230.181364 -348.921509 0 120 255
132.199894 -230.122682 -349.509476 0 120 255
134.602515 -230.064000 -350.097444 0 120 255
137.010744 -229.992545 -350.658568 0 120 255
139.432496 -229.890284 -351.154948 0 120 255
141.854249 -229.788024 -351.651328 0 120 255
144.276002 -229.685763 -352.147708 0 120 255
146.701015 -229.572604 -352.623765 0 120 255
149.135750 -229.426931 -353.039195 0 120 255
151.570485 -229.281259 -353.454624 0 120 255
154.005220 -229.135586 -353.870053 0 120 255
156.441662 -228.981340 -354.270793 0 120 255
158.884562 -228.794647 -354.615935 0 120 255
161.327462 -228.607955 -354.961077 0 120 255
163.770362 -228.421262 -355.306219 0 120 255
166.214020 -228.228732 -355.641730 0 120 255
168.661464 -228.007072 -355.929169 0 120 255
171.108909 -227.785411 -356.216609 0 120 255
173.556353 -227.563750 -356.504049 0 120 255
176.003766 -227.340867 -356.790779 0 120 255
178.450965 -227.109431 -357.072549 0 120 255
180.898163 -226.877995 -357.354319 0 120 255
183.345362 -226.646559 -357.636090 0 120 255
185.792560 -226.415122 -357.917861 0 120 255
188.239756 -226.183674 -358.199643 0 120 255
190.686952 -225.952227 -358.481426 0 120 255
193.134148 -225.720780 -358.763208 0 120 255
195.581344 -225.489333 -359.044991 0 120 255
198.028541 -225.257890 -359.326766 0 120 255
200.475739 -225.026447 -359.608541 0 120 255
202.922936 -224.795003 -359.890316 0 120 255
205.370133 -224.563560 -360.172091 0 120 255
