ply
format ascii 1.0
element vertex 385
property float x
property float y
property float z
property uchar red
property uchar green
property uchar blue
end_header
77.430455 -42.474882 -360.397637 0 120 255
77.187575 -42.528706 -357.936157 0 120 255
76.944694 -42.582531 -355.474678 0 120 255
76.701814 -42.636355 -353.013199 0 120 255
76.458933 -42.690180 -350.551720 0 120 255
76.213366 -42.751246 -348.090677 0 120 255
75.967680 -42.812630 -345.629653 0 120 255
75.721995 -42.874014 -343.168629 0 120 255
75.476309 -42.935398 -340.707605 0 120 255
75.084132 -43.437060 -338.321179 0 120 255
74.678513 -43.979126 -335.941598 0 120 255
74.272893 -44.521192 -333.562017 0 120 255
73.867273 -45.063258 -331.182436 0 120 255
73.348597 -45.936178 -328.930949 0 120 255
72.813159 -46.858153 -326.698453 0 120 255
72.277720 -47.780127 -324.465958 0 120 255
71.742282 -48.702102 -322.233462 0 120 255
71.123641 -49.867482 -320.145013 0 120 255
70.487464 -51.084165 -318.086924 0 120 255
69.851286 -52.300848 -316.028835 0 120 255
69.215109 -53.517531 -313.970747 0 120 255
68.522864 -54.910436 -312.050731 0 120 255
67.814913 -56.352708 -310.169395 0 120 255
67.106962 -57.794981 -308.288060 0 120 255
66.399010 -59.237253 -306.406724 0 120 255
65.658948 -60.807744 -304.647446 0 120 255
64.907406 -62.424072 -302.931801 0 120 255
64.155864 -64.040400 -301.216157 0 120 255
63.404323 -65.656728 -299.500512 0 120 255
62.641488 -67.368811 -297.888456 0 120 255
61.873635 -69.123442 -296.322429 0 120 255
61.105783 -70.878073 -294.756402 0 120 255
60.337930 -72.632704 -293.190375 0 120 255
59.576640 -74.461884 -291.711125 0 120 255
58.818912 -76.331514 -290.278958 0 120 255
58.061183 -78.201143 -288.846792 0 120 255
57.303454 -80.070772 -287.414625 0 120 255
56.567385 -82.001173 -286.055849 0 120 255
55.845493 -83.971354 -284.745114 0 120 255
55.123601 -85.941535 -283.434379 0 120 255
54.401710 -87.911717 -282.123644 0 120 255
53.713997 -89.933271 -280.876660 0 120 255
53.053068 -91.995083 -279.679634 0 120 255
52.392139 -94.056895 -278.482609 0 120 255
51.731210 -96.118708 -277.285583 0 120 255
51.114525 -98.224629 -276.145913 0 120 255
50.539162 -100.371744 -275.059809 0 120 255
49.963799 -102.518859 -273.973706 0 120 255
49.388436 -104.665975 -272.887603 0 120 255
48.865065 -106.850572 -271.854809 0 120 255
48.399461 -109.076814 -270.881244 0 120 255
47.933857 -111.303056 -269.907679 0 120 255
47.468253 -113.529298 -268.934114 0 120 255
47.060131 -115.786153 -268.011181 0 120 255
46.728045 -118.083505 -267.155225 0 120 255
46.395959 -120.380857 -266.299270 0 120 255
46.063873 -122.678209 -265.443314 0 120 255
45.792537 -124.998683 -264.635743 0 120 255
45.617213 -127.355697 -263.904641 0 120 255
45.441888 -129.712712 -263.173539 0 120 255
45.266564 -132.069727 -262.442437 0 120 255
45.153014 -134.441762 -261.757120 0 120 255
45.156870 -136.842343 -261.158820 0 120 255
45.160725 -139.242924 -260.560519 0 120 255
45.164580 -141.643506 -259.962219 0 120 255
45.228965 -144.050734 -259.406170 0 120 255
45.433090 -146.473310 -258.947663 0 120 255
45.637215 -148.895885 -258.489156 0 120 255
45.841340 -151.318461 -258.030649 0 120 255
46.102441 -153.739634 -257.609613 0 120 255
46.525745 -156.156814 -257.295249 0 120 255
46.949048 -158.573993 -256.980885 0 120 255
47.372352 -160.991173 -256.666521 0 120 255
47.846824 -163.399988 -256.383564 0 120 255
48.504945 -165.778783 -256.213330 0 120 255
49.163067 -168.157578 -256.043096 0 120 255
49.821189 -170.536372 -255.872862 0 120 255
50.522597 -172.901775 -255.726962 0 120 255
51.426506 -175.204532 -255.694895 0 120 255
52.330415 -177.507289 -255.662827 0 120 255
53.234323 -179.810046 -255.630760 0 120 255
54.171964 -182.097106 -255.615507 0 120 255
55.326558 -184.283210 -255.708400 0 120 255
56.481152 -186.469314 -255.801292 0 120 255
57.635747 -188.655418 -255.894185 0 120 255
58.813470 -190.826823 -255.996744 0 120 255
60.216218 -192.855226 -256.193345 0 120 255
61.618965 -194.883628 -256.389945 0 120 255
63.021712 -196.912030 -256.586546 0 120 255
64.436808 -198.930232 -256.787011 0 120 255
66.076864 -200.762612 -257.057876 0 120 255
67.716921 -202.594992 -257.328742 0 120 255
69.356977 -204.427371 -257.599607 0 120 255
70.999428 -206.257245 -257.870884 0 120 255
72.857381 -207.861519 -258.179236 0 120 255
74.715334 -209.465793 -258.487588 0 120 255
76.573288 -211.070068 -258.795939 0 120 255
78.431241 -212.674342 -259.104291 0 120 255
80.473995 -214.035576 -259.407750 0 120 255
82.522457 -215.389302 -259.711059 0 120 255
84.570919 -216.743029 -260.014367 0 120 255
86.619381 -218.096755 -260.317675 0 120 255
88.813286 -219.208403 -260.573667 0 120 255
91.018287 -220.301583 -260.826048 0 120 255
93.223289 -221.394762 -261.078430 0 120 255
95.428290 -222.487941 -261.330811 0 120 255
97.738132 -223.353403 -261.496712 0 120 255
100.061168 -224.190207 -261.651730 0 120 255
102.384204 -225.027010 -261.806747 0 120 255
104.707241 -225.863813 -261.961765 0 120 255
107.095751 -226.499330 -261.997032 0 120 255
109.496063 -227.098568 -262.010717 0 120 255
111.896374 -227.697807 -262.024401 0 120 255
114.296685 -228.297046 -262.038086 0 120 255
116.726360 -228.730958 -261.906467 0 120 255
119.163088 -229.125164 -261.739951 0 120 255
121.599815 -229.519371 -261.573436 0 120 255
124.036543 -229.913577 -261.406920 0 120 255
126.471000 -230.184833 -261.078400 0 120 255
128.904762 -230.418398 -260.700220 0 120 255
131.338523 -230.651963 -260.322039 0 120 255
133.772285 -230.885528 -259.943859 0 120 255
136.177013 -231.043246 -259.396355 0 120 255
138.570695 -231.172110 -258.784436 0 120 255
140.964378 -231.300974 -258.172518 0 120 255
143.358061 -231.429838 -257.560599 0 120 255
145.700871 -231.527033 -256.780944 0 120 255
148.020104 -231.609551 -255.923555 0 120 255
150.339337 -231.692069 -255.066167 0 120 255
152.658571 -231.774587 -254.208778 0 120 255
154.908213 -231.851733 -253.190547 0 120 255
157.119081 -231.925886 -252.082696 0 120 255
159.329949 -232.000038 -250.974846 0 120 255
161.540817 -232.074191 -249.866995 0 120 255
163.664115 -232.145507 -248.607284 0 120 255
165.729252 -232.214938 -247.246712 0 120 255
167.794389 -232.284370 -245.886140 0 120 255
169.859526 -232.353801 -244.525568 0 120 255
171.820620 -232.419345 -243.026579 0 120 255
173.699813 -232.481827 -241.418631 0 120 255
175.579006 -232.544310 -239.810682 0 120 255
177.458199 -232.606793 -238.202734 0 120 255
179.219834 -232.664651 -236.474243 0 120 255
180.872170 -232.718211 -234.633676 0 120 255
182.524505 -232.771770 -232.793109 0 120 255
184.176840 -232.825329 -230.952542 0 120 255
185.702211 -232.873916 -229.012665 0 120 255
187.088306 -232.917049 -226.963848 0 120 255
188.474400 -232.960181 -224.915032 0 120 255
189.860495 -233.003314 -222.866215 0 120 255
191.115162 -233.041374 -220.741312 0 120 255
192.199524 -233.072864 -218.517816 0 120 255
193.283887 -233.104353 -216.294320 0 120 255
194.368249 -233.135842 -214.070824 0 120 255
195.322073 -233.162378 -211.794897 0 120 255
196.075359 -233.181306 -209.438423 0 120 255
196.828645 -233.200234 -207.081949 0 120 255
197.581931 -233.219161 -204.725475 0 120 255
198.210809 -233.233439 -202.339050 0 120 255
198.611651 -233.239195 -199.897727 0 120 255
199.012492 -233.244950 -197.456403 0 120 255
199.413334 -233.250705 -195.015079 0 120 255
199.700616 -233.252278 -192.563654 0 120 255
199.737081 -233.244613 -190.089916 0 120 255
199.773546 -233.236949 -187.616178 0 120 255
199.810011 -233.229284 -185.142440 0 120 255
199.747508 -233.218033 -182.674615 0 120 255
199.417783 -233.197099 -180.222756 0 120 255
199.088059 -233.176165 -177.770898 0 120 255
198.758334 -233.155230 -175.319039 0 120 255
198.346750 -233.131371 -172.884459 0 120 255
197.659285 -233.097652 -170.508113 0 120 255
196.971821 -233.063933 -168.131766 0 120 255
196.284356 -233.030214 -165.755419 0 120 255
195.533243 -232.994259 -163.402701 0 120 255
194.505994 -232.948605 -161.152491 0 120 255
193.478746 -232.902951 -158.902281 0 120 255
192.451497 -232.857297 -156.652071 0 120 255
191.378558 -232.810069 -154.426894 0 120 255
190.037806 -232.753614 -152.348442 0 120 255
188.697053 -232.697159 -150.269989 0 120 255
187.356301 -232.640704 -148.191537 0 120 255
185.986344 -232.583266 -146.135038 0 120 255
184.364982 -232.517362 -144.267524 0 120 255
182.743620 -232.451458 -142.400009 0 120 255
181.122258 -232.385554 -140.532495 0 120 255
179.485757 -232.319154 -138.680110 0 120 255
177.621541 -232.245280 -137.055300 0 120 255
175.757325 -232.171405 -135.430490 0 120 255
173.893109 -232.097531 -133.805679 0 120 255
172.024744 -232.023526 -132.186343 0 120 255
169.958328 -231.943248 -130.828311 0 120 255
167.891913 -231.862971 -129.470279 0 120 255
165.825497 -231.782694 -128.112247 0 120 255
163.759082 -231.702416 -126.754215 0 120 255
161.535748 -231.617443 -125.673419 0 120 255
159.308990 -231.532368 -124.598674 0 120 255
157.082231 -231.447292 -123.523930 0 120 255
154.855473 -231.362217 -122.449185 0 120 255
152.517437 -231.274122 -121.648764 0 120 255
150.171882 -231.185824 -120.866879 0 120 255
147.826327 -231.097526 -120.084995 0 120 255
145.480772 -231.009227 -119.303111 0 120 255
143.064909 -230.919330 -118.785942 0 120 255
140.640772 -230.829245 -118.299923 0 120 255
138.216636 -230.739159 -117.813903 0 120 255
135.792499 -230.649074 -117.327884 0 120 255
133.333701 -230.558642 -117.091382 0 120 255
130.868912 -230.468151 -116.897996 0 120 255
128.404124 -230.377660 -116.704610 0 120 255
125.939336 -230.287169 -116.511224 0 120 255
123.469717 -230.197325 -116.547662 0 120 255
120.998969 -230.107633 -116.637817 0 120 255
118.528221 -230.017940 -116.727973 0 120 255
116.057474 -229.928248 -116.818129 0 120 255
113.605648 -229.840015 -117.115573 0 120 255
111.159528 -229.752221 -117.475511 0 120 255
108.713408 -229.664428 -117.835449 0 120 255
106.267287 -229.576635 -118.195387 0 120 255
103.858037 -229.490865 -118.739139 0 120 255
101.462697 -229.405858 -119.352235 0 120 255
99.067357 -229.320852 -119.965331 0 120 255
96.672016 -229.235845 -120.578427 0 120 255
94.326503 -229.153252 -121.352611 0 120 255
92.004032 -229.071776 -122.201292 0 120 255
89.681562 -228.990299 -123.049973 0 120 255
87.359091 -228.908822 -123.898654 0 120 255
85.095333 -228.830007 -124.887138 0 120 255
82.864392 -228.752678 -125.953764 0 120 255
80.633451 -228.675350 -127.020390 0 120 255
78.402511 -228.598021 -128.087017 0 120 255
76.235905 -228.523481 -129.273856 0 120 255
74.112344 -228.450807 -130.541127 0 120 255
71.988784 -228.378133 -131.808398 0 120 255
69.865223 -228.305459 -133.075670 0 120 255
67.809086 -228.235622 -134.445418 0 120 255
65.806615 -228.168043 -135.896732 0 120 255
63.804145 -228.100465 -137.348046 0 120 255
61.801674 -228.032886 -138.799359 0 120 255
59.867762 -227.968127 -140.337229 0 120 255
57.998546 -227.906029 -141.956781 0 120 255
56.129331 -227.843930 -143.576332 0 120 255
54.260116 -227.781832 -145.195883 0 120 255
52.459074 -227.722487 -146.887758 0 120 255
50.734235 -227.666218 -148.660478 0 120 255
49.009397 -227.609950 -150.433197 0 120 255
47.284558 -227.553681 -152.205916 0 120 255
45.626308 -227.500060 -154.038263 0 120 255
44.056358 -227.449950 -155.949680 0 120 255
42.486408 -227.399841 -157.861097 0 120 255
40.916458 -227.349731 -159.772514 0 120 255
39.410512 -227.302134 -161.732224 0 120 255
38.005665 -227.258507 -163.768217 0 120 255
36.600817 -227.214880 -165.804210 0 120 255
35.195970 -227.171253 -167.840203 0 120 255
33.851682 -227.129973 -169.914386 0 120 255
32.622145 -227.093140 -172.060929 0 120 255
31.392607 -227.056308 -174.207472 0 120 255
30.163069 -227.019475 -176.354016 0 120 255
28.989798 -226.984802 -178.529736 0 120 255
27.945791 -226.955087 -180.772488 0 120 255
26.901784 -226.925372 -183.015240 0 120 255
25.857778 -226.895657 -185.257991 0 120 255
24.864835 -226.867881 -187.521927 0 120 255
24.016370 -226.845589 -189.845798 0 120 255
23.167905 -226.823297 -192.169669 0 120 255
22.319439 -226.801006 -194.493540 0 120 255
21.515884 -226.780402 -196.831642 0 120 255
20.872407 -226.765817 -199.220469 0 120 255
20.228931 -226.751232 -201.609296 0 120 255
19.585454 -226.736647 -203.998122 0 120 255
18.979740 -226.723471 -206.395358 0 120 255
18.549519 -226.716841 -208.831674 0 120 255
18.119298 -226.710210 -211.267990 0 120 255
17.689078 -226.703580 -213.704305 0 120 255
17.288536 -226.698045 -216.144502 0 120 255
17.077983 -226.699526 -218.609544 0 120 255
16.867431 -226.701007 -221.074587 0 120 255
16.656878 -226.702488 -223.539629 0 120 255
16.467187 -226.704732 -226.005502 0 120 255
16.480544 -226.714412 -228.479466 0 120 255
16.493901 -226.724093 -230.953430 0 120 255
16.507257 -226.733773 -233.427393 0 120 255
16.532176 -226.743872 -235.900763 0 120 255
16.771151 -226.761723 -238.363148 0 120 255
17.010127 -226.779574 -240.825533 0 120 255
17.249102 -226.797425 -243.287918 0 120 255
17.490169 -226.815351 -245.750003 0 120 255
17.953529 -226.841255 -248.180104 0 120 255
18.416889 -226.867158 -250.610206 0 120 255
18.880249 -226.893062 -253.040308 0 120 255
19.343608 -226.918966 -255.470410 0 120 255
20.020127 -226.952448 -257.849558 0 120 255
20.703828 -226.986185 -260.226990 0 120 255
21.387530 -227.019922 -262.604422 0 120 255
22.071231 -227.053659 -264.981854 0 120 255
22.952512 -227.094324 -267.292471 0 120 255
23.849704 -227.135546 -269.597707 0 120 255
24.746896 -227.176769 -271.902944 0 120 255
25.644087 -227.217992 -274.208181 0 120 255
26.721555 -227.265467 -276.433591 0 120 255
27.822782 -227.313767 -278.648479 0 120 255
28.924010 -227.362067 -280.863368 0 120 255
30.025238 -227.410367 -283.078257 0 120 255
31.288364 -227.464263 -285.203326 0 120 255
32.581962 -227.519213 -287.311489 0 120 255
33.875559 -227.574163 -289.419653 0 120 255
35.169157 -227.629114 -291.527817 0 120 255
36.605598 -227.688877 -293.539377 0 120 255
38.077833 -227.749848 -295.526731 0 120 255
39.550069 -227.810818 -297.514084 0 120 255
41.022304 -227.871788 -299.501438 0 120 255
42.618286 -227.936935 -301.388564 0 120 255
44.253857 -228.003417 -303.243627 0 120 255
45.889427 -228.069900 -305.098689 0 120 255
47.524998 -228.136382 -306.953751 0 120 255
49.265822 -228.206291 -308.707877 0 120 255
51.048478 -228.277561 -310.421886 0 120 255
52.831134 -228.348831 -312.135894 0 120 255
54.613790 -228.420102 -313.849903 0 120 255
56.484248 -228.494223 -315.464885 0 120 255
58.397267 -228.569728 -317.031865 0 120 255
60.310285 -228.645232 -318.598845 0 120 255
62.223304 -228.720736 -320.165825 0 120 255
64.208131 -228.798590 -321.637863 0 120 255
66.234870 -228.877817 -323.054485 0 120 255
68.261610 -228.957043 -324.471107 0 120 255
70.288349 -229.036269 -325.887729 0 120 255
72.372506 -229.117366 -327.215383 0 120 255
74.496674 -229.199766 -328.481040 0 120 255
76.620843 -229.282166 -329.746697 0 120 255
78.745011 -229.364566 -331.012354 0 120 255
80.913887 -229.447939 -332.196695 0 120 255
83.119763 -229.532115 -333.313743 0 120 255
85.325639 -229.616292 -334.430790 0 120 255
87.531514 -229.700468 -335.547838 0 120 255
89.770953 -229.781051 -336.593331 0 120 255
92.043285 -229.858110 -337.568694 0 120 255
94.315618 -229.935170 -338.544058 0 120 255
96.587950 -230.012230 -339.519422 0 120 255
98.884676 -230.079744 -340.433837 0 120 255
101.209701 -230.136182 -341.277543 0 120 255
103.534726 -230.192620 -342.121250 0 120 255
105.859751 -230.249059 -342.964956 0 120 255
108.201890 -230.291983 -343.758144 0 120 255
110.567577 -230.316312 -344.481814 0 120 255
112.933265 -230.340641 -345.205484 0 120 255
115.298953 -230.364970 -345.929154 0 120 255
117.676124 -230.374177 -346.612110 0 120 255
120.072131 -230.358582 -347.228288 0 120 255
122.468138 -230.342987 -347.844467 0 120 255
124.864144 -230.327392 -348.460646 0 120 255
127.267408 -230.296789 -349.045137 0 120 255
129.684971 -230.236618 -349.567188 0 120 255
132.102534 -230.176447 -350.089240 0 120 255
134.520096 -230.116275 -350.611292 0 120 255
136.941893 -230.042531 -351.109695 0 120 255
139.373831 -229.936280 -351.551459 0 120 255
141.805769 -229.830028 -351.993223 0 120 255
144.237707 -229.723776 -352.434987 0 120 255
146.671854 -229.606301 -352.860056 0 120 255
149.112543 -229.455580 -353.235675 0 120 255
151.553232 -229.304858 -353.611293 0 120 255
153.993921 -229.154137 -353.986911 0 120 255
156.435586 -228.995046 -354.351626 0 120 255
158.880918 -228.804514 -354.675376 0 120 255
161.326251 -228.613982 -354.999126 0 120 255
163.771583 -228.423450 -355.322876 0 120 255
166.217233 -228.227722 -355.640586 0 120 255
168.664455 -228.006267 -355.928392 0 120 255
171.111676 -227.784812 -356.216198 0 120 255
173.558898 -227.563357 -356.504004 0 120 255
176.006092 -227.340647 -356.791047 0 120 255
178.453097 -227.109229 -357.072795 0 120 255
180.900101 -226.877811 -357.354543 0 120 255
183.347106 -226.646394 -357.636290 0 120 255
185.794111 -226.414975 -357.918039 0 120 255
188.241113 -226.183546 -358.199799 0 120 255
190.688115 -225.952117 -358.481560 0 120 255
193.135117 -225.720688 -358.763320 0 120 255
195.582119 -225.489260 -359.045080 0 120 255
198.029123 -225.257835 -359.326833 0 120 255
200.476126 -225.026410 -359.608585 0 120 255
202.923130 -224.794985 -359.890338 0 120 255
205.370133 -224.563560 -360.172091 0 120 255
