ply
format ascii 1.0
element vertex 385
property float x
property float y
property float z
property uchar red
property uchar green
property uchar blue
end_header
77.430455 -42.474882 -360.397637 0 120 255
77.187295 -42.528768 -357.933323 0 120 255
76.944135 -42.582655 -355.469010 0 120 255
76.700975 -42.636541 -353.004696 0 120 255
76.457814 -42.690428 -350.540383 0 120 255
76.264391 -42.765852 -348.072255 0 120 255
76.072898 -42.842113 -345.603979 0 120 255
75.881405 -42.918373 -343.135703 0 120 255
75.689912 -42.994633 -340.667427 0 120 255
75.564508 -43.052904 -338.194504 0 120 255
75.444769 -43.109633 -335.721183 0 120 255
75.325029 -43.166362 -333.247863 0 120 255
75.205290 -43.223090 -330.774542 0 120 255
75.092935 -43.241317 -328.300336 0 120 255
74.981654 -43.253950 -325.826002 0 120 255
74.870373 -43.266582 -323.351668 0 120 255
74.759092 -43.279215 -320.877335 0 120 255
74.645273 -43.254223 -318.403271 0 120 255
74.530917 -43.221284 -315.929264 0 120 255
74.416561 -43.188346 -313.455257 0 120 255
74.302205 -43.155407 -310.981251 0 120 255
74.176471 -43.086470 -308.508619 0 120 255
74.047503 -43.007301 -306.036379 0 120 255
73.918535 -42.928132 -303.564139 0 120 255
73.789567 -42.848962 -301.091899 0 120 255
73.641492 -42.736062 -298.622153 0 120 255
73.486433 -42.610832 -296.153318 0 120 255
73.331373 -42.485602 -293.684483 0 120 255
73.176314 -42.360371 -291.215648 0 120 255
72.995546 -42.204192 -288.750479 0 120 255
72.803043 -42.033884 -286.286984 0 120 255
72.610540 -41.863577 -283.823489 0 120 255
72.418037 -41.693269 -281.359993 0 120 255
72.194346 -41.495202 -278.901413 0 120 255
71.953229 -41.281625 -276.445580 0 120 255
71.712112 -41.068047 -273.989746 0 120 255
71.470995 -40.854470 -271.533912 0 120 255
71.194341 -40.616616 -269.084324 0 120 255
70.893724 -40.362393 -266.638946 0 120 255
70.593107 -40.108170 -264.193568 0 120 255
70.292491 -39.853947 -261.748191 0 120 255
69.953087 -39.579116 -259.310457 0 120 255
69.582435 -39.287682 -256.878883 0 120 255
69.211783 -38.996249 -254.447308 0 120 255
68.841131 -38.704815 -252.015734 0 120 255
68.429525 -38.396522 -249.593245 0 120 255
67.978764 -38.072111 -247.179442 0 120 255
67.528003 -37.747701 -244.765639 0 120 255
67.077242 -37.423290 -242.351836 0 120 255
66.584400 -37.085751 -239.948563 0 120 255
66.044016 -36.733380 -237.557184 0 120 255
65.503632 -36.381009 -235.165805 0 120 255
64.963249 -36.028637 -232.774427 0 120 255
64.380647 -35.666752 -230.394973 0 120 255
63.741812 -35.292193 -228.031402 0 120 255
63.102976 -34.917635 -225.667831 0 120 255
62.464140 -34.543076 -223.304261 0 120 255
61.783871 -34.162414 -220.953905 0 120 255
61.038547 -33.772170 -218.624297 0 120 255
60.293223 -33.381927 -216.294688 0 120 255
59.547899 -32.991683 -213.965080 0 120 255
58.762775 -32.598460 -211.649806 0 120 255
57.903872 -32.199716 -209.361104 0 120 255
57.044969 -31.800971 -207.072401 0 120 255
56.186066 -31.402227 -204.783698 0 120 255
55.289755 -31.003268 -202.510210 0 120 255
54.311272 -30.603838 -200.270144 0 120 255
53.332788 -30.204408 -198.030077 0 120 255
52.354305 -29.804978 -195.790011 0 120 255
51.341456 -29.407674 -193.565736 0 120 255
50.238617 -29.015939 -191.382811 0 120 255
49.135778 -28.624203 -189.199886 0 120 255
48.032940 -28.232467 -187.016961 0 120 255
46.899312 -27.844722 -184.850034 0 120 255
45.668731 -27.469543 -182.733484 0 120 255
44.438149 -27.094365 -180.616935 0 120 255
43.207568 -26.719186 -178.500385 0 120 255
41.950180 -26.349346 -176.399612 0 120 255
40.590008 -25.999973 -174.359332 0 120 255
39.229837 -25.650600 -172.319052 0 120 255
37.869665 -25.301227 -170.278772 0 120 255
36.486933 -24.957996 -168.253571 0 120 255
34.996994 -24.643951 -166.300029 0 120 255
33.507055 -24.329905 -164.346486 0 120 255
32.017116 -24.015860 -162.392943 0 120 255
30.508980 -23.708205 -160.453269 0 120 255
28.890920 -23.439150 -158.597369 0 120 255
27.272860 -23.170095 -156.741470 0 120 255
25.654800 -22.901040 -154.885571 0 120 255
24.022871 -22.638070 -153.041791 0 120 255
22.280247 -22.423664 -151.294747 0 120 255
20.537623 -22.209259 -149.547702 0 120 255
18.794999 -21.994853 -147.800658 0 120 255
17.042646 -21.785692 -146.063440 0 120 255
15.181041 -21.635430 -144.436567 0 120 255
13.319435 -21.485168 -142.809693 0 120 255
11.457829 -21.334906 -141.182820 0 120 255
9.590292 -21.188548 -139.562947 0 120 255
7.617333 -21.111582 -138.067493 0 120 255
5.644374 -21.034616 -136.572040 0 120 255
3.671415 -20.957650 -135.076587 0 120 255
1.695837 -20.882796 -133.584802 0 120 255
-0.378762 -20.887763 -132.231699 0 120 255
-2.453360 -20.892730 -130.878596 0 120 255
-4.527958 -20.897697 -129.525492 0 120 255
-6.602557 -20.902664 -128.172389 0 120 255
-8.766973 -20.997423 -126.971905 0 120 255
-10.931461 -21.092254 -125.771541 0 120 255
-13.095948 -21.187084 -124.571177 0 120 255
-15.260435 -21.281915 -123.370814 0 120 255
-17.499081 -21.471084 -122.328469 0 120 255
-19.739746 -21.662823 -121.290429 0 120 255
-21.980411 -21.854562 -120.252390 0 120 255
-24.221077 -22.046301 -119.214350 0 120 255
-26.519273 -22.335624 -118.338375 0 120 255
-28.820596 -22.630250 -117.471206 0 120 255
-31.121918 -22.924875 -116.604037 0 120 255
-33.423241 -23.219501 -115.736869 0 120 255
-35.764774 -23.613596 -115.034297 0 120 255
-38.109614 -24.015869 -114.345259 0 120 255
-40.454454 -24.418143 -113.656221 0 120 255
-42.799294 -24.820416 -112.967183 0 120 255
-45.166643 -25.322636 -112.443642 0 120 255
-47.536493 -25.835960 -111.938486 0 120 255
-49.906343 -26.349283 -111.433331 0 120 255
-52.276193 -26.862606 -110.928175 0 120 255
-54.650807 -27.474936 -110.587710 0 120 255
-57.026094 -28.101241 -110.270493 0 120 255
-59.401380 -28.727547 -109.953277 0 120 255
-61.776667 -29.353853 -109.636060 0 120 255
-64.139278 -30.076835 -109.480967 0 120 255
-66.499700 -30.816519 -109.353884 0 120 255
-68.860121 -31.556202 -109.226801 0 120 255
-71.220542 -32.295886 -109.099718 0 120 255
-73.551516 -33.128586 -109.130452 0 120 255
-75.876415 -33.980472 -109.193739 0 120 255
-78.201315 -34.832357 -109.257025 0 120 255
-80.526214 -35.684243 -109.320311 0 120 255
-82.805910 -36.624257 -109.535431 0 120 255
-85.074662 -37.585606 -109.787308 0 120 255
-87.343415 -38.546955 -110.039186 0 120 255
-89.612167 -39.508304 -110.291063 0 120 255
-91.821311 -40.551799 -110.687214 0 120 255
-94.013718 -41.618360 -111.123874 0 120 255
-96.206125 -42.684920 -111.560535 0 120 255
-98.398532 -43.751480 -111.997196 0 120 255
-100.518572 -44.893281 -112.569172 0 120 255
-102.615239 -46.059383 -113.184854 0 120 255
-104.711906 -47.225486 -113.800537 0 120 255
-106.808572 -48.391589 -114.416220 0 120 255
-108.822014 -49.625296 -115.157066 0 120 255
-110.804706 -50.883982 -115.944159 0 120 255
-112.787397 -52.142668 -116.731251 0 120 255
-114.770089 -53.401354 -117.518344 0 120 255
-116.660788 -54.719500 -118.419503 0 120 255
-118.512743 -56.062687 -119.368704 0 120 255
-120.364698 -57.405875 -120.317904 0 120 255
-122.216654 -58.749062 -121.267104 0 120 255
-123.970064 -60.143282 -122.318607 0 120 255
-125.676261 -61.561953 -123.419125 0 120 255
-127.382457 -62.980624 -124.519642 0 120 255
-129.088653 -64.399294 -125.620160 0 120 255
-130.692030 -65.860514 -126.810839 0 120 255
-132.239399 -67.344912 -128.050632 0 120 255
-133.786767 -68.829310 -129.290424 0 120 255
-135.334135 -70.313708 -130.530217 0 120 255
-136.776660 -71.832346 -131.847954 0 120 255
-138.154217 -73.372201 -133.213990 0 120 255
-139.531773 -74.912057 -134.580025 0 120 255
-140.909330 -76.451912 -135.946061 0 120 255
-142.182188 -78.018075 -137.378032 0 120 255
-143.381124 -79.602812 -138.856557 0 120 255
-144.580059 -81.187548 -140.335082 0 120 255
-145.778995 -82.772285 -141.813606 0 120 255
-146.875397 -84.375956 -143.346530 0 120 255
-147.889097 -85.994900 -144.923332 0 120 255
-148.902797 -87.613844 -146.500134 0 120 255
-149.916496 -89.232788 -148.076936 0 120 255
-150.831650 -90.864005 -149.697313 0 120 255
-151.655661 -92.506573 -151.357990 0 120 255
-152.479673 -94.149140 -153.018667 0 120 255
-153.303684 -95.791708 -154.679344 0 120 255
-154.034706 -97.440719 -156.373679 0 120 255
-154.666631 -99.096597 -158.103885 0 120 255
-155.298556 -100.752475 -159.834090 0 120 255
-155.930481 -102.408353 -161.564296 0 120 255
-156.476288 -104.065755 -163.319305 0 120 255
-156.915686 -105.725040 -165.104963 0 120 255
-157.355084 -107.384326 -166.890620 0 120 255
-157.794482 -109.043611 -168.676278 0 120 255
-158.155655 -110.700464 -170.479053 0 120 255
-158.403849 -112.353802 -172.306549 0 120 255
-158.652043 -114.007141 -174.134045 0 120 255
-158.900237 -115.660479 -175.961541 0 120 255
-159.078846 -117.308396 -177.799703 0 120 255
-159.138774 -118.947066 -179.656055 0 120 255
-159.198702 -120.585736 -181.512406 0 120 255
-159.258629 -122.224406 -183.368758 0 120 255
-159.258068 -123.855619 -185.230577 0 120 255
-159.134039 -125.471612 -187.103558 0 120 255
-159.010009 -127.087605 -188.976538 0 120 255
-158.885980 -128.703597 -190.849519 0 120 255
-158.710769 -130.311008 -192.724005 0 120 255
-158.408288 -131.897078 -194.602238 0 120 255
-158.105808 -133.483149 -196.480471 0 120 255
-157.803327 -135.069219 -198.358704 0 120 255
-157.458953 -136.646424 -200.235671 0 120 255
-156.984527 -138.196108 -202.108708 0 120 255
-156.510101 -139.745792 -203.981746 0 120 255
-156.035676 -141.295477 -205.854784 0 120 255
-155.528418 -142.836778 -207.724892 0 120 255
-154.889326 -144.344422 -209.583236 0 120 255
-154.250234 -145.852066 -211.441581 0 120 255
-153.611142 -147.359709 -213.299925 0 120 255
-152.947887 -148.860119 -215.154695 0 120 255
-152.152006 -150.320827 -216.989846 0 120 255
-151.356126 -151.781534 -218.824998 0 120 255
-150.560245 -153.242241 -220.660149 0 120 255
-149.748343 -154.697439 -222.491984 0 120 255
-148.803978 -156.107093 -224.296402 0 120 255
-147.859613 -157.516746 -226.100820 0 120 255
-146.915249 -158.926399 -227.905238 0 120 255
-145.962374 -160.332740 -229.707387 0 120 255
-144.878101 -161.687936 -231.474494 0 120 255
-143.793828 -163.043132 -233.241601 0 120 255
-142.709555 -164.398329 -235.008708 0 120 255
-141.623581 -165.752783 -236.775257 0 120 255
-140.408116 -167.050821 -238.499384 0 120 255
-139.192651 -168.348859 -240.223512 0 120 255
-137.977186 -169.646897 -241.947639 0 120 255
-136.761721 -170.944934 -243.671766 0 120 255
-135.428142 -172.185836 -245.349827 0 120 255
-134.090201 -173.424628 -247.026186 0 120 255
-132.752260 -174.663419 -248.702546 0 120 255
-131.414320 -175.902211 -250.378905 0 120 255
-129.972200 -177.085415 -252.007920 0 120 255
-128.520420 -178.263465 -253.632545 0 120 255
-127.068640 -179.441514 -255.257170 0 120 255
-125.616860 -180.619564 -256.881794 0 120 255
-124.073888 -181.744228 -258.458864 0 120 255
-122.516722 -182.860583 -260.028532 0 120 255
-120.959556 -183.976938 -261.598200 0 120 255
-119.402390 -185.093293 -263.167867 0 120 255
-117.766040 -186.158969 -264.690714 0 120 255
-116.111711 -187.213137 -266.202930 0 120 255
-114.457381 -188.267305 -267.715145 0 120 255
-112.803052 -189.321473 -269.227361 0 120 255
-111.080521 -190.328088 -270.694234 0 120 255
-109.336936 -191.320024 -272.147109 0 120 255
-107.593351 -192.311960 -273.599984 0 120 255
-105.849766 -193.303895 -275.052859 0 120 255
-104.047953 -194.251693 -276.462511 0 120 255
-102.222685 -195.181710 -277.854752 0 120 255
-100.397416 -196.111727 -279.246993 0 120 255
-98.572148 -197.041744 -280.639234 0 120 255
-96.697637 -197.931249 -281.990875 0 120 255
-94.797896 -198.799996 -283.321714 0 120 255
-92.898154 -199.668744 -284.652552 0 120 255
-90.998412 -200.537491 -285.983391 0 120 255
-89.057448 -201.369487 -287.276622 0 120 255
-87.090041 -202.177910 -288.545731 0 120 255
-85.122635 -202.986333 -289.814840 0 120 255
-83.155229 -203.794756 -291.083948 0 120 255
-81.153710 -204.570239 -292.318733 0 120 255
-79.125055 -205.319518 -293.526214 0 120 255
-77.096399 -206.068797 -294.733694 0 120 255
-75.067744 -206.818076 -295.941175 0 120 255
-73.011218 -207.538232 -297.117787 0 120 255
-70.927309 -208.229773 -298.264070 0 120 255
-68.843399 -208.921314 -299.410353 0 120 255
-66.759490 -209.612856 -300.556635 0 120 255
-64.653158 -210.279023 -301.675636 0 120 255
-62.519600 -210.914382 -302.761509 0 120 255
-60.386041 -211.549740 -303.847382 0 120 255
-58.252483 -212.185098 -304.933254 0 120 255
-56.101201 -212.798747 -305.995451 0 120 255
-53.923180 -213.379646 -307.021927 0 120 255
-51.745159 -213.960545 -308.048404 0 120 255
-49.567139 -214.541443 -309.074881 0 120 255
-47.375419 -215.104165 -310.081278 0 120 255
-45.157743 -215.632445 -311.049629 0 120 255
-42.940066 -216.160726 -312.017979 0 120 255
-40.722390 -216.689006 -312.986330 0 120 255
-38.494422 -217.202482 -313.938128 0 120 255
-36.241513 -217.680080 -314.849815 0 120 255
-33.988603 -218.157678 -315.761501 0 120 255
-31.735694 -218.635276 -316.673187 0 120 255
-29.475347 -219.101258 -317.571744 0 120 255
-27.191264 -219.530171 -318.428408 0 120 255
-24.907182 -219.959084 -319.285071 0 120 255
-22.623099 -220.387996 -320.141734 0 120 255
-20.333936 -220.808289 -320.988545 0 120 255
-18.022389 -221.190603 -321.791949 0 120 255
-15.710841 -221.572916 -322.595352 0 120 255
-13.399294 -221.955230 -323.398756 0 120 255
-11.084585 -222.331703 -324.195418 0 120 255
-8.748950 -222.669516 -324.947456 0 120 255
-6.413315 -223.007329 -325.699494 0 120 255
-4.077679 -223.345142 -326.451532 0 120 255
-1.740417 -223.679676 -327.199749 0 120 255
0.616239 -223.975127 -327.902426 0 120 255
2.972894 -224.270578 -328.605102 0 120 255
5.329550 -224.566029 -329.307779 0 120 255
7.686634 -224.860536 -330.009346 0 120 255
10.061542 -225.115796 -330.664729 0 120 255
12.436449 -225.371056 -331.320113 0 120 255
14.811357 -225.626316 -331.975497 0 120 255
17.186265 -225.881575 -332.630880 0 120 255
19.576450 -226.099972 -333.242500 0 120 255
21.967116 -226.317207 -333.852741 0 120 255
24.357783 -226.534442 -334.462983 0 120 255
26.748449 -226.751678 -335.073224 0 120 255
29.151495 -226.936081 -335.644174 0 120 255
31.555684 -227.117449 -336.211491 0 120 255
33.959874 -227.298817 -336.778808 0 120 255
36.364064 -227.480185 -337.346125 0 120 255
38.778190 -227.632534 -337.878393 0 120 255
41.193916 -227.780208 -338.405012 0 120 255
43.609643 -227.927882 -338.931632 0 120 255
46.025370 -228.075555 -339.458252 0 120 255
48.449037 -228.199435 -339.953200 0 120 255
50.874602 -228.317625 -340.440575 0 120 255
53.300168 -228.435815 -340.927950 0 120 255
55.725734 -228.554005 -341.415325 0 120 255
58.157379 -228.653728 -341.875390 0 120 255
60.591021 -228.747384 -342.326483 0 120 255
63.024663 -228.841040 -342.777576 0 120 255
65.458306 -228.934697 -343.228669 0 120 255
67.896674 -229.018395 -343.655180 0 120 255
70.337085 -229.097790 -344.071065 0 120 255
72.777497 -229.177184 -344.486950 0 120 255
75.217908 -229.256578 -344.902835 0 120 255
77.662008 -229.331255 -345.297034 0 120 255
80.108154 -229.403315 -345.679197 0 120 255
82.554300 -229.475376 -346.061360 0 120 255
85.000446 -229.547436 -346.443523 0 120 255
87.449404 -229.608989 -346.808765 0 120 255
89.900331 -229.663187 -347.162162 0 120 255
92.351259 -229.717385 -347.515559 0 120 255
94.802186 -229.771583 -347.868957 0 120 255
97.255262 -229.811211 -348.208610 0 120 255
99.710213 -229.838125 -348.536271 0 120 255
102.165165 -229.865038 -348.863931 0 120 255
104.620116 -229.891952 -349.191592 0 120 255
107.076567 -229.905634 -349.508144 0 120 255
109.534645 -229.904974 -349.812654 0 120 255
111.992722 -229.904314 -350.117165 0 120 255
114.450799 -229.903655 -350.421676 0 120 255
116.909853 -229.891128 -350.717435 0 120 255
119.370224 -229.862597 -351.001392 0 120 255
121.830596 -229.834066 -351.285349 0 120 255
124.290967 -229.805535 -351.569307 0 120 255
126.751904 -229.766518 -351.846571 0 120 255
129.213797 -229.709784 -352.112529 0 120 255
131.675691 -229.653050 -352.378486 0 120 255
134.137584 -229.596316 -352.644443 0 120 255
136.599730 -229.530504 -352.905496 0 120 255
139.062418 -229.445209 -353.156024 0 120 255
141.525106 -229.359915 -353.406552 0 120 255
143.987794 -229.274621 -353.657081 0 120 255
146.450510 -229.181687 -353.904207 0 120 255
148.913303 -229.067458 -354.141849 0 120 255
151.376096 -228.953229 -354.379492 0 120 255
153.838889 -228.838999 -354.617135 0 120 255
156.301564 -228.718601 -354.852601 0 120 255
158.763799 -228.575038 -355.079894 0 120 255
161.226033 -228.431476 -355.307187 0 120 255
163.688268 -228.287913 -355.534480 0 120 255
166.149504 -228.135968 -355.766037 0 120 255
168.605368 -227.938907 -356.020544 0 120 255
171.061231 -227.741846 -356.275052 0 120 255
173.517094 -227.544784 -356.529559 0 120 255
175.972281 -227.343845 -356.787154 0 120 255
178.422103 -227.112160 -357.069226 0 120 255
180.871925 -226.880476 -357.351298 0 120 255
183.321748 -226.648792 -357.633371 0 120 255
185.771570 -226.417107 -357.915444 0 120 255
188.221390 -226.185411 -358.197528 0 120 255
190.671209 -225.953716 -358.479613 0 120 255
193.121029 -225.722021 -358.761698 0 120 255
195.570849 -225.490325 -359.043782 0 120 255
198.020670 -225.258634 -359.325859 0 120 255
200.470491 -225.026943 -359.607936 0 120 255
202.920312 -224.795252 -359.890014 0 120 255
205.370133 -224.563560 -360.172091 0 120 255
