ply
format ascii 1.0
element vertex 385
property float x
property float y
property float z
property uchar red
property uchar green
property uchar blue
end_header
77.430455 -42.474882 -360.397637 0 120 255
77.187540 -42.528714 -357.935804 0 120 255
76.944624 -42.582546 -355.473971 0 120 255
76.701709 -42.636379 -353.012138 0 120 255
76.458794 -42.690211 -350.550305 0 120 255
76.231729 -42.743704 -348.086954 0 120 255
76.005349 -42.797182 -345.623538 0 120 255
75.778969 -42.850660 -343.160122 0 120 255
75.552589 -42.904138 -340.696706 0 120 255
75.315789 -42.988806 -338.235165 0 120 255
75.077994 -43.076449 -335.773804 0 120 255
74.840200 -43.164092 -333.312443 0 120 255
74.602405 -43.251735 -330.851081 0 120 255
74.338083 -43.368923 -328.393710 0 120 255
74.069558 -43.490793 -325.936970 0 120 255
73.801033 -43.612662 -323.480231 0 120 255
73.532507 -43.734532 -321.023491 0 120 255
73.236446 -43.884544 -318.571551 0 120 255
72.934078 -44.041003 -316.120710 0 120 255
72.631709 -44.197461 -313.669869 0 120 255
72.329341 -44.353919 -311.219028 0 120 255
71.998671 -44.537137 -308.773800 0 120 255
71.659269 -44.728612 -306.330305 0 120 255
71.319866 -44.920088 -303.886809 0 120 255
70.980463 -45.111563 -301.443314 0 120 255
70.612262 -45.328421 -299.006241 0 120 255
70.232576 -45.555401 -296.571730 0 120 255
69.852890 -45.782381 -294.137218 0 120 255
69.473204 -46.009361 -291.702707 0 120 255
69.064504 -46.260346 -289.275412 0 120 255
68.641239 -46.523383 -286.851740 0 120 255
68.217973 -46.786419 -284.428068 0 120 255
67.794708 -47.049455 -282.004396 0 120 255
67.342499 -47.335113 -279.588707 0 120 255
66.872311 -47.634823 -277.177976 0 120 255
66.402122 -47.934533 -274.767245 0 120 255
65.931934 -48.234242 -272.356514 0 120 255
65.433167 -48.555173 -269.954485 0 120 255
64.912673 -48.892237 -267.559072 0 120 255
64.392180 -49.229301 -265.163660 0 120 255
63.871686 -49.566365 -262.768247 0 120 255
63.323302 -49.923217 -260.382184 0 120 255
62.749135 -50.298364 -258.004765 0 120 255
62.174967 -50.673510 -255.627345 0 120 255
61.600800 -51.048657 -253.249926 0 120 255
60.999743 -51.442126 -250.882407 0 120 255
60.368530 -51.856144 -248.525993 0 120 255
59.737316 -52.270162 -246.169580 0 120 255
59.106103 -52.684179 -243.813166 0 120 255
58.449325 -53.115007 -241.467076 0 120 255
57.757730 -53.568727 -239.135046 0 120 255
57.066135 -54.022447 -236.803017 0 120 255
56.374540 -54.476167 -234.470987 0 120 255
55.659032 -54.945127 -232.149538 0 120 255
54.903791 -55.439410 -229.845666 0 120 255
54.148550 -55.933693 -227.541795 0 120 255
53.393309 -56.427976 -225.237924 0 120 255
52.616128 -56.935869 -222.944680 0 120 255
51.794077 -57.471597 -220.673171 0 120 255
50.972026 -58.007326 -218.401662 0 120 255
50.149974 -58.543054 -216.130152 0 120 255
49.308270 -59.090697 -213.869064 0 120 255
48.416379 -59.668765 -211.634585 0 120 255
47.524488 -60.246832 -209.400106 0 120 255
46.632597 -60.824900 -207.165627 0 120 255
45.723641 -61.413116 -204.941055 0 120 255
44.759082 -62.034399 -202.748759 0 120 255
43.794523 -62.655683 -200.556463 0 120 255
42.829964 -63.276966 -198.364168 0 120 255
41.851204 -63.906562 -196.180902 0 120 255
40.811381 -64.571902 -194.036463 0 120 255
39.771558 -65.237243 -191.892024 0 120 255
38.731735 -65.902584 -189.747586 0 120 255
37.680823 -66.574336 -187.610879 0 120 255
36.563444 -67.284523 -185.520513 0 120 255
35.446065 -67.994709 -183.430148 0 120 255
34.328687 -68.704895 -181.339782 0 120 255
33.203536 -69.419535 -179.255367 0 120 255
32.006685 -70.175261 -177.225847 0 120 255
30.809834 -70.930987 -175.196327 0 120 255
29.612983 -71.686713 -173.166806 0 120 255
28.411831 -72.444889 -171.140909 0 120 255
27.134040 -73.246727 -169.179574 0 120 255
25.856250 -74.048565 -167.218239 0 120 255
24.578459 -74.850403 -165.256904 0 120 255
23.299928 -75.652661 -163.296258 0 120 255
21.940259 -76.501028 -161.411026 0 120 255
20.580589 -77.349395 -159.525793 0 120 255
19.220920 -78.197762 -157.640561 0 120 255
17.861251 -79.046128 -155.755329 0 120 255
16.422228 -79.939618 -153.951755 0 120 255
14.980375 -80.834717 -152.151092 0 120 255
13.538523 -81.729816 -150.350429 0 120 255
12.096670 -82.624915 -148.549766 0 120 255
10.579366 -83.563095 -146.835451 0 120 255
9.055746 -84.504881 -145.128363 0 120 255
7.532126 -85.446667 -143.421276 0 120 255
6.008506 -86.388453 -141.714188 0 120 255
4.413981 -87.371057 -140.097870 0 120 255
2.809845 -88.359194 -138.493856 0 120 255
1.205710 -89.347331 -136.889841 0 120 255
-0.398425 -90.335468 -135.285827 0 120 255
-2.068302 -91.361924 -133.776656 0 120 255
-3.750771 -92.395720 -132.285653 0 120 255
-5.433240 -93.429516 -130.794650 0 120 255
-7.115709 -94.463312 -129.303646 0 120 255
-8.858152 -95.532687 -127.911100 0 120 255
-10.615719 -96.611034 -126.543381 0 120 255
-12.373285 -97.689380 -125.175662 0 120 255
-14.130852 -98.767727 -123.807943 0 120 255
-15.942071 -99.878698 -122.541757 0 120 255
-17.770343 -101.000039 -121.307844 0 120 255
-19.598616 -102.121381 -120.073932 0 120 255
-21.426889 -103.242722 -118.840020 0 120 255
-23.301995 -104.393511 -117.710068 0 120 255
-25.195330 -105.555763 -116.620583 0 120 255
-27.088666 -106.718014 -115.531098 0 120 255
-28.982002 -107.880266 -114.441613 0 120 255
-30.914923 -109.068604 -113.457777 0 120 255
-32.866330 -110.269125 -112.523277 0 120 255
-34.817737 -111.469646 -111.588778 0 120 255
-36.769143 -112.670166 -110.654278 0 120 255
-38.752557 -113.893249 -109.826293 0 120 255
-40.753633 -115.128783 -109.057086 0 120 255
-42.754709 -116.364316 -108.287880 0 120 255
-44.755785 -117.599850 -107.518673 0 120 255
-46.781060 -118.854305 -106.855942 0 120 255
-48.821937 -120.120959 -106.261859 0 120 255
-50.862814 -121.387613 -105.667776 0 120 255
-52.903692 -122.654267 -105.073694 0 120 255
-54.960859 -123.936126 -104.585073 0 120 255
-57.030193 -125.229339 -104.175211 0 120 255
-59.099526 -126.522553 -103.765350 0 120 255
-61.168859 -127.815766 -103.355488 0 120 255
-63.246611 -129.120454 -103.049072 0 120 255
-65.331599 -130.435004 -102.831554 0 120 255
-67.416586 -131.749553 -102.614036 0 120 255
-69.501574 -133.064103 -102.396517 0 120 255
-71.587299 -134.386441 -102.279387 0 120 255
-73.673751 -135.716445 -102.261052 0 120 255
-75.760202 -137.046449 -102.242717 0 120 255
-77.846654 -138.376453 -102.224382 0 120 255
-79.926511 -139.710679 -102.302348 0 120 255
-81.998960 -141.049647 -102.488485 0 120 255
-84.071409 -142.388615 -102.674622 0 120 255
-86.143858 -143.727583 -102.860759 0 120 255
-88.202893 -145.067395 -103.138116 0 120 255
-90.244765 -146.408289 -103.532184 0 120 255
-92.286637 -147.749182 -103.926251 0 120 255
-94.328510 -149.090076 -104.320319 0 120 255
-96.350828 -150.428699 -104.799594 0 120 255
-98.344669 -151.764018 -105.402962 0 120 255
-100.338509 -153.099336 -106.006330 0 120 255
-102.332349 -154.434654 -106.609698 0 120 255
-104.301335 -155.764921 -107.291430 0 120 255
-106.229087 -157.086809 -108.103164 0 120 255
-108.156839 -158.408696 -108.914898 0 120 255
-110.084591 -159.730584 -109.726632 0 120 255
-111.983162 -161.045051 -110.609194 0 120 255
-113.826474 -162.345467 -111.625879 0 120 255
-115.669786 -163.645883 -112.642563 0 120 255
-117.513097 -164.946298 -113.659247 0 120 255
-119.324008 -166.237389 -114.738693 0 120 255
-121.064610 -167.508246 -115.954321 0 120 255
-122.805213 -168.779103 -117.169949 0 120 255
-124.545816 -170.049960 -118.385577 0 120 255
-126.251999 -171.310100 -119.655565 0 120 255
-127.872091 -172.543434 -121.061524 0 120 255
-129.492183 -173.776767 -122.467482 0 120 255
-131.112274 -175.010101 -123.873440 0 120 255
-132.697192 -176.231881 -125.325239 0 120 255
-134.179818 -177.420064 -126.910347 0 120 255
-135.662445 -178.608246 -128.495455 0 120 255
-137.145071 -179.796429 -130.080564 0 120 255
-138.593062 -180.972789 -131.703107 0 120 255
-139.922525 -182.108690 -133.453759 0 120 255
-141.251989 -183.244592 -135.204411 0 120 255
-142.581452 -184.380493 -136.955063 0 120 255
-143.878090 -185.504872 -138.735101 0 120 255
-145.040297 -186.582059 -140.635488 0 120 255
-146.202504 -187.659246 -142.535875 0 120 255
-147.364711 -188.736434 -144.436262 0 120 255
-148.497119 -189.802941 -146.358577 0 120 255
-149.479901 -190.815824 -148.390998 0 120 255
-150.462683 -191.828707 -150.423419 0 120 255
-151.445465 -192.841590 -152.455839 0 120 255
-152.402584 -193.845141 -154.503543 0 120 255
-153.195952 -194.789139 -156.648761 0 120 255
-153.989320 -195.733138 -158.793979 0 120 255
-154.782689 -196.677136 -160.939197 0 120 255
-155.555496 -197.613580 -163.094064 0 120 255
-156.151834 -198.485186 -165.331744 0 120 255
-156.748172 -199.356791 -167.569424 0 120 255
-157.344511 -200.228397 -169.807104 0 120 255
-157.926177 -201.094582 -172.049969 0 120 255
-158.320325 -201.891480 -174.359109 0 120 255
-158.714473 -202.688379 -176.668249 0 120 255
-159.108622 -203.485278 -178.977389 0 120 255
-159.494572 -204.279142 -181.288540 0 120 255
-159.683877 -205.000203 -183.647939 0 120 255
-159.873182 -205.721263 -186.007337 0 120 255
-160.062487 -206.442324 -188.366736 0 120 255
-160.250431 -207.162882 -190.726329 0 120 255
-160.234662 -207.808193 -193.115022 0 120 255
-160.218894 -208.453505 -195.503714 0 120 255
-160.203126 -209.098817 -197.892406 0 120 255
-160.187358 -209.744128 -200.281099 0 120 255
-159.974225 -210.316983 -202.678531 0 120 255
-159.755481 -210.887778 -205.076211 0 120 255
-159.536737 -211.458574 -207.473892 0 120 255
-159.317993 -212.029369 -209.871572 0 120 255
-158.912960 -212.532519 -212.259599 0 120 255
-158.495430 -213.031131 -214.646979 0 120 255
-158.077899 -213.529743 -217.034358 0 120 255
-157.660369 -214.028356 -219.421738 0 120 255
-157.069210 -214.464929 -221.783655 0 120 255
-156.458962 -214.894681 -224.142773 0 120 255
-155.848713 -215.324432 -226.501891 0 120 255
-155.238464 -215.754184 -228.861009 0 120 255
-154.468380 -216.128076 -231.181558 0 120 255
-153.673091 -216.493160 -233.496025 0 120 255
-152.877803 -216.858243 -235.810492 0 120 255
-152.082514 -217.223327 -238.124959 0 120 255
-151.141869 -217.539090 -240.390466 0 120 255
-150.170530 -217.844440 -242.645636 0 120 255
-149.199192 -218.149790 -244.900806 0 120 255
-148.227854 -218.455139 -247.155976 0 120 255
-147.125907 -218.717876 -249.354434 0 120 255
-145.988526 -218.969053 -251.537505 0 120 255
-144.851145 -219.220229 -253.720577 0 120 255
-143.713764 -219.471405 -255.903649 0 120 255
-142.460438 -219.686635 -258.024751 0 120 255
-141.167759 -219.889664 -260.124819 0 120 255
-139.875080 -220.092693 -262.224887 0 120 255
-138.582401 -220.295723 -264.324955 0 120 255
-137.188028 -220.469264 -266.360073 0 120 255
-135.751254 -220.630509 -268.368109 0 120 255
-134.314481 -220.791754 -270.376144 0 120 255
-132.877707 -220.953000 -272.384180 0 120 255
-131.352844 -221.090878 -274.326322 0 120 255
-129.783422 -221.216935 -276.235130 0 120 255
-128.213999 -221.342992 -278.143939 0 120 255
-126.644577 -221.469049 -280.052747 0 120 255
-124.999807 -221.577404 -281.896465 0 120 255
-123.309182 -221.674986 -283.700569 0 120 255
-121.618558 -221.772569 -285.504674 0 120 255
-119.927933 -221.870151 -287.308778 0 120 255
-118.173634 -221.959194 -289.049792 0 120 255
-116.372954 -222.042016 -290.744849 0 120 255
-114.572274 -222.124838 -292.439906 0 120 255
-112.771594 -222.207661 -294.134963 0 120 255
-110.917580 -222.289425 -295.769846 0 120 255
-109.017104 -222.370269 -297.352307 0 120 255
-107.116628 -222.451113 -298.934768 0 120 255
-105.216152 -222.531957 -300.517228 0 120 255
-103.272026 -222.613007 -302.044025 0 120 255
-101.282312 -222.694272 -303.512685 0 120 255
-99.292598 -222.775538 -304.981344 0 120 255
-97.302884 -222.856804 -306.450004 0 120 255
-95.278478 -222.937903 -307.868841 0 120 255
-93.210506 -223.018795 -309.225114 0 120 255
-91.142534 -223.099686 -310.581387 0 120 255
-89.074562 -223.180577 -311.937660 0 120 255
-86.979415 -223.261404 -313.250027 0 120 255
-84.843045 -223.342133 -314.495794 0 120 255
-82.706676 -223.422863 -315.741562 0 120 255
-80.570307 -223.503592 -316.987329 0 120 255
-78.413187 -223.584892 -318.195354 0 120 255
-76.217711 -223.667246 -319.333611 0 120 255
-74.022235 -223.749601 -320.471867 0 120 255
-71.826758 -223.831956 -321.610124 0 120 255
-69.615786 -223.914946 -322.716647 0 120 255
-67.369436 -223.999387 -323.750720 0 120 255
-65.123085 -224.083828 -324.784792 0 120 255
-62.876735 -224.168269 -325.818865 0 120 255
-60.619105 -224.253163 -326.826889 0 120 255
-58.329039 -224.339360 -327.759999 0 120 255
-56.038973 -224.425557 -328.693110 0 120 255
-53.748907 -224.511754 -329.626220 0 120 255
-51.451038 -224.598235 -330.538945 0 120 255
-49.124029 -224.685781 -331.375540 0 120 255
-46.797020 -224.773327 -332.212135 0 120 255
-44.470010 -224.860873 -333.048729 0 120 255
-42.137927 -224.948584 -333.870273 0 120 255
-39.780004 -225.037133 -334.615180 0 120 255
-37.422081 -225.125682 -335.360086 0 120 255
-35.064158 -225.214231 -336.104992 0 120 255
-32.703248 -225.302866 -336.839799 0 120 255
-30.319766 -225.392143 -337.498257 0 120 255
-27.936283 -225.481421 -338.156715 0 120 255
-25.552801 -225.570698 -338.815173 0 120 255
-23.167871 -225.660009 -339.468023 0 120 255
-20.763507 -225.749761 -340.045520 0 120 255
-18.359142 -225.839514 -340.623017 0 120 255
-15.954778 -225.929266 -341.200514 0 120 255
-13.550052 -226.019025 -341.776394 0 120 255
-11.128853 -226.109056 -342.278609 0 120 255
-8.707655 -226.199087 -342.780823 0 120 255
-6.286456 -226.289119 -343.283038 0 120 255
-3.865258 -226.379150 -343.785252 0 120 255
-1.431024 -226.469272 -344.219741 0 120 255
1.003565 -226.559396 -344.652385 0 120 255
3.438154 -226.649521 -345.085030 0 120 255
5.872743 -226.739645 -345.517675 0 120 255
8.317057 -226.829713 -345.891109 0 120 255
10.762156 -226.919777 -346.259770 0 120 255
13.207254 -227.009841 -346.628430 0 120 255
15.652352 -227.099904 -346.997090 0 120 255
18.104521 -227.189771 -347.314815 0 120 255
20.557680 -227.279611 -347.625404 0 120 255
23.010839 -227.369451 -347.935993 0 120 255
25.463999 -227.459291 -348.246582 0 120 255
27.922168 -227.548817 -348.514023 0 120 255
30.381373 -227.638278 -348.772547 0 120 255
32.840578 -227.727740 -349.031070 0 120 255
35.299783 -227.817201 -349.289593 0 120 255
37.762458 -227.906219 -349.512005 0 120 255
40.226109 -227.995110 -349.724248 0 120 255
42.689761 -228.084002 -349.936491 0 120 255
45.153412 -228.172894 -350.148734 0 120 255
47.619389 -228.261144 -350.331423 0 120 255
50.086218 -228.349158 -350.503285 0 120 255
52.553046 -228.437172 -350.675147 0 120 255
55.019875 -228.525186 -350.847009 0 120 255
57.488211 -228.612035 -350.995499 0 120 255
59.957244 -228.698345 -351.133171 0 120 255
62.426277 -228.784655 -351.270843 0 120 255
64.895310 -228.870965 -351.408515 0 120 255
67.365332 -228.953465 -351.529086 0 120 255
69.835920 -229.033778 -351.639845 0 120 255
72.306509 -229.114092 -351.750604 0 120 255
74.777098 -229.194406 -351.861363 0 120 255
77.248372 -229.267244 -351.960851 0 120 255
79.720127 -229.334834 -352.052425 0 120 255
82.191882 -229.402424 -352.143999 0 120 255
84.663637 -229.470014 -352.235573 0 120 255
87.135842 -229.528232 -352.320612 0 120 255
89.608429 -229.578459 -352.400078 0 120 255
92.081017 -229.628686 -352.479545 0 120 255
94.553605 -229.678912 -352.559011 0 120 255
97.026438 -229.719113 -352.635798 0 120 255
99.499524 -229.748970 -352.709819 0 120 255
101.972611 -229.778827 -352.783841 0 120 255
104.445697 -229.808683 -352.857862 0 120 255
106.918844 -229.828184 -352.932421 0 120 255
109.392065 -229.834758 -353.007651 0 120 255
111.865286 -229.841332 -353.082882 0 120 255
114.338508 -229.847906 -353.158112 0 120 255
116.811603 -229.844111 -353.236439 0 120 255
119.284507 -229.824610 -353.319456 0 120 255
121.757412 -229.805109 -353.402474 0 120 255
124.230316 -229.785607 -353.485491 0 120 255
126.702898 -229.756022 -353.573548 0 120 255
129.174884 -229.707769 -353.670934 0 120 255
131.646870 -229.659516 -353.768320 0 120 255
134.118856 -229.611263 -353.865706 0 120 255
136.590319 -229.553490 -353.969439 0 120 255
139.060585 -229.473936 -354.087695 0 120 255
141.530851 -229.394382 -354.205952 0 120 255
144.001117 -229.314827 -354.324208 0 120 255
146.470666 -229.226580 -354.449514 0 120 255
148.938155 -229.113311 -354.595112 0 120 255
151.405643 -229.000043 -354.740710 0 120 255
153.873131 -228.886774 -354.886308 0 120 255
156.339742 -228.765878 -355.039060 0 120 255
158.803089 -228.616617 -355.218419 0 120 255
161.266436 -228.467356 -355.397778 0 120 255
163.729783 -228.318095 -355.577136 0 120 255
166.191375 -228.159758 -355.769002 0 120 255
168.644167 -227.955939 -356.023546 0 120 255
171.096960 -227.752119 -356.278089 0 120 255
173.549753 -227.548299 -356.532633 0 120 255
176.001870 -227.341046 -356.790561 0 120 255
178.449226 -227.109595 -357.072349 0 120 255
180.896583 -226.878144 -357.354137 0 120 255
183.343939 -226.646693 -357.635926 0 120 255
185.791295 -226.415241 -357.917715 0 120 255
188.238649 -226.183779 -358.199516 0 120 255
190.686003 -225.952317 -358.481317 0 120 255
193.133357 -225.720855 -358.763117 0 120 255
195.580711 -225.489393 -359.044917 0 120 255
198.028067 -225.257935 -359.326703 0 120 255
200.475422 -225.026476 -359.608489 0 120 255
202.922778 -224.795018 -359.890275 0 120 255
205.370134 -224.563560 -360.172061 0 120 255
