ply
format ascii 1.0
element vertex 385
property float x
property float y
property float z
property uchar red
property uchar green
property uchar blue
end_header
77.430455 -42.474882 -360.397637 0 120 255
77.187562 -42.528709 -357.936032 0 120 255
76.944669 -42.582536 -355.474427 0 120 255
76.701776 -42.636364 -353.012822 0 120 255
76.458884 -42.690191 -350.551217 0 120 255
76.212938 -42.753671 -348.090146 0 120 255
75.966859 -42.817572 -345.629099 0 120 255
75.720780 -42.881472 -343.168051 0 120 255
75.474702 -42.945373 -340.707003 0 120 255
75.109896 -43.308607 -338.289003 0 120 255
74.734243 -43.699190 -335.874935 0 120 255
74.358589 -44.089774 -333.460868 0 120 255
73.982935 -44.480357 -331.046800 0 120 255
73.527803 -45.095876 -328.695969 0 120 255
73.060959 -45.744542 -326.354456 0 120 255
72.594114 -46.393207 -324.012943 0 120 255
72.127270 -47.041873 -321.671430 0 120 255
71.614924 -47.868563 -319.398230 0 120 255
71.093057 -48.732505 -317.139326 0 120 255
70.571190 -49.596448 -314.880421 0 120 255
70.049323 -50.460391 -312.621516 0 120 255
69.510834 -51.471363 -310.430169 0 120 255
68.967723 -52.523214 -308.257606 0 120 255
68.424612 -53.575066 -306.085042 0 120 255
67.881502 -54.626918 -303.912479 0 120 255
67.344369 -55.806171 -301.806560 0 120 255
66.809359 -57.030645 -299.724297 0 120 255
66.274348 -58.255120 -297.642034 0 120 255
65.739337 -59.479595 -295.559771 0 120 255
65.226545 -60.818531 -293.545411 0 120 255
64.723566 -62.208017 -291.561039 0 120 255
64.220586 -63.597502 -289.576666 0 120 255
63.717607 -64.986988 -287.592293 0 120 255
63.247402 -66.480904 -285.679367 0 120 255
62.794898 -68.031220 -283.805026 0 120 255
62.342395 -69.581536 -281.930685 0 120 255
61.889891 -71.131853 -280.056345 0 120 255
61.476120 -72.776998 -278.258280 0 120 255
61.087637 -74.484054 -276.510015 0 120 255
60.699154 -76.191111 -274.761750 0 120 255
60.310671 -77.898168 -273.013485 0 120 255
59.963522 -79.689593 -271.346267 0 120 255
59.648753 -81.547113 -269.742542 0 120 255
59.333985 -83.404634 -268.138817 0 120 255
59.019217 -85.262154 -266.535093 0 120 255
58.746206 -87.192370 -265.015932 0 120 255
58.512287 -89.190642 -263.575938 0 120 255
58.278368 -91.188914 -262.135943 0 120 255
58.044449 -93.187186 -260.695949 0 120 255
57.851527 -95.245480 -259.341901 0 120 255
57.704403 -97.370826 -258.083866 0 120 255
57.557279 -99.496172 -256.825830 0 120 255
57.410155 -101.621517 -255.567794 0 120 255
57.302765 -103.793760 -254.394511 0 120 255
57.248406 -106.028595 -253.334346 0 120 255
57.194048 -108.263430 -252.274180 0 120 255
57.139690 -110.498265 -251.214014 0 120 255
57.123707 -112.767064 -250.234725 0 120 255
57.169166 -115.090244 -249.384924 0 120 255
57.214625 -117.413424 -248.535122 0 120 255
57.260084 -119.736604 -247.685321 0 120 255
57.342574 -122.081632 -246.909998 0 120 255
57.496696 -124.468923 -246.278743 0 120 255
57.650818 -126.856213 -245.647489 0 120 255
57.804940 -129.243504 -245.016234 0 120 255
57.994661 -131.641889 -244.450908 0 120 255
58.268510 -134.066490 -244.041384 0 120 255
58.542358 -136.491091 -243.631860 0 120 255
58.816206 -138.915692 -243.222335 0 120 255
59.123862 -141.342435 -242.868533 0 120 255
59.530732 -143.775468 -242.678262 0 120 255
59.937603 -146.208500 -242.487991 0 120 255
60.344473 -148.641532 -242.297720 0 120 255
60.782647 -151.069909 -242.151919 0 120 255
61.337708 -153.480903 -242.172175 0 120 255
61.892770 -155.891896 -242.192431 0 120 255
62.447832 -158.302890 -242.212687 0 120 255
63.030627 -160.704847 -242.265812 0 120 255
63.750155 -163.062255 -242.480988 0 120 255
64.469683 -165.419663 -242.696164 0 120 255
65.189211 -167.777071 -242.911341 0 120 255
65.931566 -170.123665 -243.148243 0 120 255
66.831781 -172.395474 -243.535395 0 120 255
67.731996 -174.667284 -243.922546 0 120 255
68.632211 -176.939094 -244.309698 0 120 255
69.548901 -179.201010 -244.708769 0 120 255
70.644427 -181.355529 -245.237222 0 120 255
71.739953 -183.510049 -245.765674 0 120 255
72.835479 -185.664568 -246.294127 0 120 255
73.939824 -187.812781 -246.826975 0 120 255
75.241878 -189.819626 -247.458338 0 120 255
76.543933 -191.826471 -248.089702 0 120 255
77.845988 -193.833316 -248.721066 0 120 255
79.148333 -195.839921 -249.352508 0 120 255
80.662685 -197.671317 -250.041071 0 120 255
82.177038 -199.502713 -250.729634 0 120 255
83.691390 -201.334109 -251.418197 0 120 255
85.205743 -203.165504 -252.106760 0 120 255
86.922406 -204.805685 -252.800350 0 120 255
88.647427 -206.437965 -253.494148 0 120 255
90.372449 -208.070245 -254.187946 0 120 255
92.097471 -209.702525 -254.881744 0 120 255
94.006316 -211.135270 -255.528512 0 120 255
95.931246 -212.550556 -256.171166 0 120 255
97.856175 -213.965843 -256.813820 0 120 255
99.781104 -215.381130 -257.456473 0 120 255
101.863269 -216.596516 -258.002953 0 120 255
103.967082 -217.784381 -258.536192 0 120 255
106.070894 -218.972245 -259.069432 0 120 255
108.174707 -220.160109 -259.602671 0 120 255
110.402001 -221.155970 -259.996422 0 120 255
112.653064 -222.114872 -260.363323 0 120 255
114.904126 -223.073774 -260.730224 0 120 255
117.155189 -224.032676 -261.097125 0 120 255
119.490651 -224.815359 -261.289723 0 120 255
121.847439 -225.553517 -261.438278 0 120 255
124.204226 -226.291675 -261.586834 0 120 255
126.561014 -227.029833 -261.735390 0 120 255
128.960260 -227.614501 -261.685421 0 120 255
131.373060 -228.150176 -261.572086 0 120 255
133.785859 -228.685852 -261.458752 0 120 255
136.198658 -229.221527 -261.345417 0 120 255
138.612028 -229.631646 -261.021150 0 120 255
141.025623 -229.992399 -260.613948 0 120 255
143.439217 -230.353151 -260.206747 0 120 255
145.852811 -230.713904 -259.799546 0 120 255
148.228011 -230.980127 -259.180916 0 120 255
150.584931 -231.201341 -258.461619 0 120 255
152.941850 -231.422555 -257.742322 0 120 255
155.298769 -231.643769 -257.023025 0 120 255
157.583777 -231.803166 -256.102905 0 120 255
159.827807 -231.927337 -255.068350 0 120 255
162.071837 -232.051508 -254.033794 0 120 255
164.315867 -232.175679 -252.999239 0 120 255
166.461814 -232.268154 -251.783381 0 120 255
168.541371 -232.339174 -250.444803 0 120 255
170.620929 -232.410194 -249.106226 0 120 255
172.700486 -232.481214 -247.767648 0 120 255
174.663054 -232.539842 -246.272460 0 120 255
176.532014 -232.588556 -244.651964 0 120 255
178.400975 -232.637270 -243.031469 0 120 255
180.269935 -232.685984 -241.410973 0 120 255
182.008095 -232.725512 -239.659890 0 120 255
183.622729 -232.756367 -237.785484 0 120 255
185.237364 -232.787222 -235.911079 0 120 255
186.851998 -232.818077 -234.036673 0 120 255
188.327990 -232.841966 -232.059541 0 120 255
189.649542 -232.858096 -229.967979 0 120 255
190.971095 -232.874226 -227.876417 0 120 255
192.292647 -232.890356 -225.784855 0 120 255
193.474556 -232.902283 -223.618899 0 120 255
194.472647 -232.908677 -221.355016 0 120 255
195.470738 -232.915071 -219.091133 0 120 255
196.468828 -232.921464 -216.827249 0 120 255
197.332337 -232.925314 -214.515571 0 120 255
197.985607 -232.925190 -212.129228 0 120 255
198.638878 -232.925065 -209.742886 0 120 255
199.292148 -232.924941 -207.356543 0 120 255
199.821045 -232.923101 -204.945804 0 120 255
200.117736 -232.918059 -202.489518 0 120 255
200.414428 -232.913016 -200.033232 0 120 255
200.711119 -232.907973 -197.576946 0 120 255
200.897572 -232.901510 -195.115419 0 120 255
200.835415 -232.891844 -192.642074 0 120 255
200.773258 -232.882177 -190.168729 0 120 255
200.711101 -232.872510 -187.695384 0 120 255
200.555427 -232.861431 -185.231117 0 120 255
200.141055 -232.846447 -182.791964 0 120 255
199.726684 -232.831462 -180.352812 0 120 255
199.312312 -232.816478 -177.913660 0 120 255
198.822401 -232.800017 -175.492889 0 120 255
198.070403 -232.778436 -173.135893 0 120 255
197.318405 -232.756855 -170.778898 0 120 255
196.566407 -232.735273 -168.421903 0 120 255
195.756875 -232.712211 -166.087749 0 120 255
194.688550 -232.682483 -163.856339 0 120 255
193.620225 -232.652756 -161.624929 0 120 255
192.551899 -232.623028 -159.393519 0 120 255
191.443036 -232.591965 -157.185009 0 120 255
190.085050 -232.552692 -155.117226 0 120 255
188.727065 -232.513419 -153.049444 0 120 255
187.369079 -232.474146 -150.981661 0 120 255
185.985727 -232.433837 -148.933056 0 120 255
184.368756 -232.383983 -147.061075 0 120 255
182.751785 -232.334130 -145.189094 0 120 255
181.134814 -232.284276 -143.317113 0 120 255
179.505238 -232.233811 -141.457533 0 120 255
177.662644 -232.173007 -139.807519 0 120 255
175.820050 -232.112204 -138.157506 0 120 255
173.977456 -232.051400 -136.507493 0 120 255
172.132244 -231.990452 -134.860806 0 120 255
170.098908 -231.919138 -133.453022 0 120 255
168.065573 -231.847823 -132.045239 0 120 255
166.032237 -231.776509 -130.637455 0 120 255
163.998902 -231.705194 -129.229672 0 120 255
161.814605 -231.625034 -128.071517 0 120 255
159.625887 -231.544614 -126.920676 0 120 255
157.437168 -231.464195 -125.769834 0 120 255
155.248450 -231.383775 -124.618992 0 120 255
152.947891 -231.297190 -123.715829 0 120 255
150.638824 -231.210136 -122.831508 0 120 255
148.329757 -231.123082 -121.947187 0 120 255
146.020689 -231.036028 -121.062866 0 120 255
143.635069 -230.946515 -120.419391 0 120 255
141.239698 -230.856690 -119.806590 0 120 255
138.844328 -230.766865 -119.193790 0 120 255
136.448957 -230.677040 -118.580989 0 120 255
134.008273 -230.586616 -118.198715 0 120 255
131.559262 -230.496082 -117.858803 0 120 255
129.110250 -230.405548 -117.518890 0 120 255
126.661239 -230.315013 -117.178978 0 120 255
124.194148 -230.224693 -117.056629 0 120 255
121.722608 -230.134426 -116.987811 0 120 255
119.251068 -230.044159 -116.918992 0 120 255
116.779528 -229.953892 -116.850174 0 120 255
114.313233 -229.864576 -116.983846 0 120 255
111.848590 -229.775560 -117.181347 0 120 255
109.383948 -229.686544 -117.378847 0 120 255
106.919305 -229.597528 -117.576348 0 120 255
104.479433 -229.510094 -117.959717 0 120 255
102.049283 -229.423281 -118.416036 0 120 255
99.619133 -229.336468 -118.872356 0 120 255
97.188983 -229.249655 -119.328676 0 120 255
94.799507 -229.164949 -119.953365 0 120 255
92.429528 -229.081254 -120.658765 0 120 255
90.059549 -228.997558 -121.364165 0 120 255
87.689571 -228.913863 -122.069566 0 120 255
85.372752 -228.832656 -122.925392 0 120 255
83.086646 -228.752887 -123.868127 0 120 255
80.800540 -228.673118 -124.810863 0 120 255
78.514434 -228.593349 -125.753598 0 120 255
76.290786 -228.516334 -126.828794 0 120 255
74.110240 -228.441221 -127.995400 0 120 255
71.929694 -228.366108 -129.162007 0 120 255
69.749149 -228.290994 -130.328614 0 120 255
67.637449 -228.218810 -131.610096 0 120 255
65.582173 -228.149026 -132.985730 0 120 255
63.526898 -228.079242 -134.361363 0 120 255
61.471623 -228.009459 -135.736996 0 120 255
59.488914 -227.942683 -137.210555 0 120 255
57.576626 -227.878826 -138.779144 0 120 255
55.664338 -227.814969 -140.347733 0 120 255
53.752051 -227.751112 -141.916321 0 120 255
51.913661 -227.690255 -143.566786 0 120 255
50.160139 -227.632844 -145.311279 0 120 255
48.406616 -227.575433 -147.055772 0 120 255
46.653094 -227.518021 -148.800265 0 120 255
44.972678 -227.463518 -150.611684 0 120 255
43.391806 -227.412974 -152.514230 0 120 255
41.810933 -227.362429 -154.416776 0 120 255
40.230061 -227.311885 -156.319321 0 120 255
38.719620 -227.264106 -158.275090 0 120 255
37.323389 -227.220812 -160.317162 0 120 255
35.927158 -227.177517 -162.359234 0 120 255
34.530928 -227.134223 -164.401306 0 120 255
33.200848 -227.093490 -166.484294 0 120 255
31.999461 -227.057739 -168.646881 0 120 255
30.798074 -227.021988 -170.809469 0 120 255
29.596687 -226.986237 -172.972056 0 120 255
28.455781 -226.952804 -175.164731 0 120 255
27.457635 -226.924842 -177.428427 0 120 255
26.459489 -226.896880 -179.692122 0 120 255
25.461343 -226.868918 -181.955817 0 120 255
24.516833 -226.842987 -184.240324 0 120 255
23.728452 -226.822967 -186.585414 0 120 255
22.940071 -226.802947 -188.930505 0 120 255
22.151690 -226.782927 -191.275595 0 120 255
21.409178 -226.764626 -193.633847 0 120 255
20.835299 -226.752647 -196.040486 0 120 255
20.261421 -226.740668 -198.447125 0 120 255
19.687542 -226.728689 -200.853765 0 120 255
19.151073 -226.718101 -203.267576 0 120 255
18.794690 -226.714205 -205.715917 0 120 255
18.438307 -226.710310 -208.164257 0 120 255
18.081925 -226.706415 -210.612597 0 120 255
17.754011 -226.703568 -213.063797 0 120 255
17.616280 -226.707722 -215.534102 0 120 255
17.478549 -226.711875 -218.004407 0 120 255
17.340818 -226.716029 -220.474711 0 120 255
17.222367 -226.720883 -222.945238 0 120 255
17.302660 -226.732958 -225.418050 0 120 255
17.382954 -226.745032 -227.890862 0 120 255
17.463247 -226.757106 -230.363675 0 120 255
17.553611 -226.769544 -232.835716 0 120 255
17.849647 -226.789408 -235.292006 0 120 255
18.145683 -226.809271 -237.748296 0 120 255
18.441719 -226.829134 -240.204586 0 120 255
18.738801 -226.849035 -242.660703 0 120 255
19.246488 -226.876470 -245.082045 0 120 255
19.754174 -226.903905 -247.503386 0 120 255
20.261861 -226.931340 -249.924728 0 120 255
20.769548 -226.958774 -252.346069 0 120 255
21.475684 -226.993249 -254.716718 0 120 255
22.189395 -227.027992 -257.085431 0 120 255
22.903106 -227.062735 -259.454144 0 120 255
23.616817 -227.097478 -261.822857 0 120 255
24.513508 -227.138654 -264.127731 0 120 255
25.425782 -227.180379 -266.427167 0 120 255
26.338056 -227.222104 -268.726604 0 120 255
27.250329 -227.263829 -271.026041 0 120 255
28.329399 -227.311355 -273.250941 0 120 255
29.431251 -227.359673 -275.465660 0 120 255
30.533104 -227.407991 -277.680378 0 120 255
31.634956 -227.456309 -279.895097 0 120 255
32.887022 -227.509775 -282.027040 0 120 255
34.168100 -227.564235 -284.142995 0 120 255
35.449178 -227.618695 -286.258950 0 120 255
36.730256 -227.673156 -288.374905 0 120 255
38.144768 -227.732152 -290.402344 0 120 255
39.593392 -227.792308 -292.407154 0 120 255
41.042016 -227.852465 -294.411964 0 120 255
42.490640 -227.912621 -296.416774 0 120 255
44.056092 -227.976685 -298.329747 0 120 255
45.659523 -228.042019 -300.212865 0 120 255
47.262954 -228.107353 -302.095983 0 120 255
48.866385 -228.172688 -303.979102 0 120 255
50.570530 -228.241366 -305.769354 0 120 255
52.315234 -228.311390 -307.522208 0 120 255
54.059938 -228.381414 -309.275062 0 120 255
55.804642 -228.451438 -311.027916 0 120 255
57.634788 -228.524299 -312.688920 0 120 255
59.506803 -228.598550 -314.304915 0 120 255
61.378818 -228.672801 -315.920910 0 120 255
63.250833 -228.747052 -317.536905 0 120 255
65.194069 -228.823747 -319.063892 0 120 255
67.179254 -228.901881 -320.538452 0 120 255
69.164439 -228.980014 -322.013013 0 120 255
71.149624 -229.058148 -323.487573 0 120 255
73.193004 -229.138214 -324.877603 0 120 255
75.277249 -229.219637 -326.208275 0 120 255
77.361493 -229.301060 -327.538946 0 120 255
79.445738 -229.382483 -328.869618 0 120 255
81.576388 -229.464441 -330.121852 0 120 255
83.745686 -229.546843 -331.308760 0 120 255
85.914983 -229.629245 -332.495668 0 120 255
88.084281 -229.711647 -333.682576 0 120 255
90.289046 -229.788777 -334.799902 0 120 255
92.528759 -229.860711 -335.848664 0 120 255
94.768473 -229.932645 -336.897427 0 120 255
97.008186 -230.004579 -337.946190 0 120 255
99.274303 -230.066456 -338.934680 0 120 255
101.571200 -230.116608 -339.852906 0 120 255
103.868098 -230.166760 -340.771132 0 120 255
106.164996 -230.216912 -341.689359 0 120 255
108.480989 -230.254281 -342.556437 0 120 255
110.823380 -230.273979 -343.352810 0 120 255
113.165771 -230.293677 -344.149182 0 120 255
115.508162 -230.313376 -344.945555 0 120 255
117.863856 -230.319108 -345.699540 0 120 255
120.241464 -230.301835 -346.383700 0 120 255
122.619072 -230.284561 -347.067860 0 120 255
124.996680 -230.267288 -347.752019 0 120 255
127.383125 -230.236142 -348.401986 0 120 255
129.787055 -230.177547 -348.984293 0 120 255
132.190984 -230.118952 -349.566600 0 120 255
134.594914 -230.060357 -350.148907 0 120 255
137.004363 -229.989004 -350.704491 0 120 255
139.427089 -229.886961 -351.195796 0 120 255
141.849815 -229.784918 -351.687102 0 120 255
144.272540 -229.682875 -352.178408 0 120 255
146.698447 -229.569933 -352.649606 0 120 255
149.133817 -229.424567 -353.060988 0 120 255
151.569187 -229.279201 -353.472370 0 120 255
154.004557 -229.133834 -353.883752 0 120 255
156.441565 -228.979872 -354.280749 0 120 255
158.884760 -228.793468 -354.623456 0 120 255
161.327954 -228.607065 -354.966163 0 120 255
163.771149 -228.420661 -355.308870 0 120 255
166.215046 -228.228371 -355.642308 0 120 255
168.662441 -228.006784 -355.929624 0 120 255
171.109836 -227.785197 -356.216939 0 120 255
173.557231 -227.563610 -356.504255 0 120 255
176.004592 -227.340789 -356.790874 0 120 255
178.451722 -227.109359 -357.072637 0 120 255
180.898852 -226.877930 -357.354399 0 120 255
183.345981 -226.646500 -357.636161 0 120 255
185.793111 -226.415069 -357.917924 0 120 255
188.240238 -226.183629 -358.199699 0 120 255
190.687365 -225.952188 -358.481473 0 120 255
193.134492 -225.720747 -358.763248 0 120 255
195.581620 -225.489307 -359.045022 0 120 255
198.028748 -225.257870 -359.326789 0 120 255
200.475876 -225.026434 -359.608557 0 120 255
202.923005 -224.794997 -359.890324 0 120 255
205.370133 -224.563560 -360.172091 0 120 255
