ply
format ascii 1.0
element vertex 385
property float x
property float y
property float z
property uchar red
property uchar green
property uchar blue
end_header
77.430455 -42.474882 -360.397637 0 120 255
77.187507 -42.528721 -357.935475 0 120 255
76.944560 -42.582561 -355.473314 0 120 255
76.701612 -42.636400 -353.011153 0 120 255
76.458664 -42.690240 -350.548991 0 120 255
76.220309 -42.759312 -348.086764 0 120 255
75.982150 -42.829034 -345.624533 0 120 255
75.743991 -42.898756 -343.162302 0 120 255
75.505832 -42.968477 -340.700072 0 120 255
75.409091 -43.344900 -338.258165 0 120 255
75.324950 -43.748651 -335.818070 0 120 255
75.240810 -44.152402 -333.377974 0 120 255
75.156669 -44.556153 -330.937878 0 120 255
75.196908 -45.210438 -328.554058 0 120 255
75.255260 -45.901208 -326.178434 0 120 255
75.313611 -46.591978 -323.802809 0 120 255
75.371963 -47.282748 -321.427185 0 120 255
75.541773 -48.181802 -319.130651 0 120 255
75.734858 -49.124350 -316.850632 0 120 255
75.927942 -50.066897 -314.570614 0 120 255
76.121027 -51.009445 -312.290596 0 120 255
76.413177 -52.120168 -310.101501 0 120 255
76.733032 -53.277922 -307.937833 0 120 255
77.052888 -54.435676 -305.774165 0 120 255
77.372743 -55.593431 -303.610498 0 120 255
77.780170 -56.883026 -301.540976 0 120 255
78.219071 -58.220006 -299.505292 0 120 255
78.657972 -59.556986 -297.469607 0 120 255
79.096874 -60.893965 -295.433923 0 120 255
79.612872 -62.331089 -293.489270 0 120 255
80.163541 -63.813248 -291.585556 0 120 255
80.714210 -65.295407 -289.681841 0 120 255
81.264879 -66.777566 -287.778127 0 120 255
81.883181 -68.333040 -285.957960 0 120 255
82.538855 -69.929026 -284.183959 0 120 255
83.194530 -71.525013 -282.409958 0 120 255
83.850204 -73.120999 -280.635957 0 120 255
84.564957 -74.768210 -278.935287 0 120 255
85.319335 -76.449779 -277.283803 0 120 255
86.073714 -78.131348 -275.632319 0 120 255
86.828093 -79.812917 -273.980835 0 120 255
87.633763 -81.528000 -272.391042 0 120 255
88.480866 -83.270155 -270.851084 0 120 255
89.327969 -85.012310 -269.311125 0 120 255
90.175072 -86.754465 -267.771166 0 120 255
91.066302 -88.516313 -266.280826 0 120 255
92.000276 -90.297236 -264.838548 0 120 255
92.934250 -92.078160 -263.396271 0 120 255
93.868224 -93.859084 -261.953993 0 120 255
94.839674 -95.649247 -260.549583 0 120 255
95.854595 -97.450129 -259.189097 0 120 255
96.869515 -99.251010 -257.828610 0 120 255
97.884435 -101.051892 -256.468123 0 120 255
98.930589 -102.854403 -255.134594 0 120 255
100.020191 -104.659183 -253.838561 0 120 255
101.109792 -106.463962 -252.542529 0 120 255
102.199394 -108.268742 -251.246497 0 120 255
103.314366 -110.069920 -249.967765 0 120 255
104.471859 -111.865061 -248.718030 0 120 255
105.629351 -113.660203 -247.468294 0 120 255
106.786844 -115.455344 -246.218559 0 120 255
107.964209 -117.243580 -244.977948 0 120 255
109.182034 -119.017755 -243.755914 0 120 255
110.399859 -120.791929 -242.533880 0 120 255
111.617684 -122.566104 -241.311846 0 120 255
112.850291 -124.331625 -240.092411 0 120 255
114.119930 -126.075468 -238.879484 0 120 255
115.389569 -127.819310 -237.666558 0 120 255
116.659208 -129.563153 -236.453631 0 120 255
117.939026 -131.297818 -235.238493 0 120 255
119.250822 -133.003647 -234.016406 0 120 255
120.562618 -134.709476 -232.794318 0 120 255
121.874414 -136.415306 -231.572230 0 120 255
123.192384 -138.112383 -230.344850 0 120 255
124.535392 -139.773969 -229.096002 0 120 255
125.878401 -141.435556 -227.847155 0 120 255
127.221409 -143.097142 -226.598307 0 120 255
128.567330 -144.751123 -225.342760 0 120 255
129.929194 -146.363457 -224.050527 0 120 255
131.291058 -147.975791 -222.758295 0 120 255
132.652922 -149.588126 -221.466063 0 120 255
134.015345 -151.194533 -220.167296 0 120 255
135.382233 -152.753606 -218.816345 0 120 255
136.749121 -154.312679 -217.465393 0 120 255
138.116009 -155.871752 -216.114442 0 120 255
139.482188 -157.426966 -214.758536 0 120 255
140.838718 -158.929603 -213.335135 0 120 255
142.195247 -160.432241 -211.911735 0 120 255
143.551776 -161.934879 -210.488334 0 120 255
144.907604 -163.435998 -209.062764 0 120 255
146.236885 -164.879645 -207.555099 0 120 255
147.566166 -166.323293 -206.047434 0 120 255
148.895447 -167.766940 -204.539769 0 120 255
150.224729 -169.210588 -203.032104 0 120 255
151.509156 -170.594210 -201.432180 0 120 255
152.792824 -171.976818 -199.830695 0 120 255
154.076492 -173.359425 -198.229211 0 120 255
155.360161 -174.742033 -196.627726 0 120 255
156.582359 -176.065562 -194.931363 0 120 255
157.800721 -177.385405 -193.229079 0 120 255
159.019082 -178.705247 -191.526795 0 120 255
160.237444 -180.025089 -189.824511 0 120 255
161.378333 -181.287156 -188.027936 0 120 255
162.510557 -182.542760 -186.220814 0 120 255
163.642781 -183.798365 -184.413693 0 120 255
164.775004 -185.053969 -182.606572 0 120 255
165.814707 -186.253315 -180.708824 0 120 255
166.839075 -187.443336 -178.796057 0 120 255
167.863444 -188.633358 -176.883290 0 120 255
168.887812 -189.823379 -174.970522 0 120 255
169.805981 -190.958811 -172.973742 0 120 255
170.700287 -192.081976 -170.958084 0 120 255
171.594593 -193.205141 -168.942426 0 120 255
172.488900 -194.328306 -166.926768 0 120 255
173.265089 -195.398658 -164.836415 0 120 255
174.007088 -196.453723 -162.724440 0 120 255
174.749086 -197.508787 -160.612465 0 120 255
175.491084 -198.563852 -158.500490 0 120 255
176.105173 -199.567979 -156.325517 0 120 255
176.673091 -200.553718 -154.127803 0 120 255
177.241009 -201.539458 -151.930089 0 120 255
177.808926 -202.525198 -149.732374 0 120 255
178.241657 -203.461972 -147.485335 0 120 255
178.614862 -204.377186 -145.216577 0 120 255
178.988066 -205.292399 -142.947819 0 120 255
179.361271 -206.207613 -140.679061 0 120 255
179.594825 -207.075960 -138.376130 0 120 255
179.754517 -207.919519 -136.055124 0 120 255
179.914209 -208.763079 -133.734119 0 120 255
180.073900 -209.606638 -131.413113 0 120 255
180.092504 -210.405597 -129.073987 0 120 255
180.022439 -211.176526 -126.723472 0 120 255
179.952375 -211.947456 -124.372957 0 120 255
179.882310 -212.718386 -122.022443 0 120 255
179.672885 -213.447170 -119.670112 0 120 255
179.360165 -214.144717 -117.316435 0 120 255
179.047446 -214.842263 -114.962758 0 120 255
178.734726 -215.539810 -112.609081 0 120 255
178.287517 -216.197908 -110.269463 0 120 255
177.723302 -216.821685 -107.942078 0 120 255
177.159086 -217.445463 -105.614692 0 120 255
176.594871 -218.069241 -103.287307 0 120 255
175.904036 -218.656513 -100.988724 0 120 255
175.084214 -219.206596 -98.719481 0 120 255
174.264393 -219.756680 -96.450239 0 120 255
173.444571 -220.306764 -94.180996 0 120 255
172.508670 -220.823534 -91.953502 0 120 255
171.434351 -221.300578 -89.775791 0 120 255
170.360032 -221.777622 -87.598079 0 120 255
169.285713 -222.254666 -85.420367 0 120 255
168.108070 -222.701824 -83.294958 0 120 255
166.785945 -223.107190 -81.242685 0 120 255
165.463820 -223.512557 -79.190412 0 120 255
164.141695 -223.917924 -77.138139 0 120 255
162.730612 -224.297017 -75.145854 0 120 255
161.173056 -224.632851 -73.252339 0 120 255
159.615501 -224.968686 -71.358825 0 120 255
158.057945 -225.304520 -69.465311 0 120 255
156.426706 -225.617813 -67.636277 0 120 255
154.651646 -225.887107 -65.933103 0 120 255
152.876585 -226.156401 -64.229929 0 120 255
151.101525 -226.425696 -62.526755 0 120 255
149.268201 -226.676202 -60.889226 0 120 255
147.298701 -226.882797 -59.405129 0 120 255
145.329200 -227.089392 -57.921031 0 120 255
143.359699 -227.295987 -56.436933 0 120 255
141.346729 -227.487478 -55.016383 0 120 255
139.210337 -227.636082 -53.776258 0 120 255
137.073946 -227.784686 -52.536134 0 120 255
134.937554 -227.933290 -51.296009 0 120 255
132.771146 -228.070276 -50.114315 0 120 255
130.499037 -228.166352 -49.138379 0 120 255
128.226928 -228.262427 -48.162442 0 120 255
125.954820 -228.358503 -47.186506 0 120 255
123.664182 -228.446149 -46.261301 0 120 255
121.290122 -228.495849 -45.564502 0 120 255
118.916061 -228.545548 -44.867703 0 120 255
116.542001 -228.595247 -44.170904 0 120 255
114.158460 -228.639307 -43.515108 0 120 255
111.717696 -228.649327 -43.106781 0 120 255
109.276932 -228.659347 -42.698454 0 120 255
106.836168 -228.669366 -42.290128 0 120 255
104.392220 -228.676050 -41.911696 0 120 255
101.920349 -228.653466 -41.795497 0 120 255
99.448477 -228.630882 -41.679298 0 120 255
96.976606 -228.608298 -41.563099 0 120 255
94.504969 -228.584139 -41.464995 0 120 255
92.036860 -228.536283 -41.639094 0 120 255
89.568752 -228.488426 -41.813194 0 120 255
87.100643 -228.440569 -41.987293 0 120 255
84.633351 -228.392316 -42.167657 0 120 255
82.202192 -228.326551 -42.625151 0 120 255
79.771033 -228.260786 -43.082646 0 120 255
77.339874 -228.195021 -43.540141 0 120 255
74.908715 -228.129255 -43.997635 0 120 255
72.543972 -228.053080 -44.722158 0 120 255
70.180471 -227.976711 -45.451670 0 120 255
67.816969 -227.900341 -46.181182 0 120 255
65.453467 -227.823972 -46.910693 0 120 255
63.179703 -227.744958 -47.882156 0 120 255
60.911567 -227.665778 -48.868791 0 120 255
58.643430 -227.586598 -49.855426 0 120 255
56.375294 -227.507418 -50.842060 0 120 255
54.214695 -227.431882 -52.043664 0 120 255
52.066032 -227.356750 -53.269129 0 120 255
49.917370 -227.281618 -54.494595 0 120 255
47.768707 -227.206487 -55.720060 0 120 255
45.739778 -227.137040 -57.132391 0 120 255
43.730532 -227.068527 -58.575444 0 120 255
41.721287 -227.000014 -60.018496 0 120 255
39.712042 -226.931501 -61.461549 0 120 255
37.829777 -226.868702 -63.064046 0 120 255
35.975906 -226.807180 -64.702197 0 120 255
34.122035 -226.745659 -66.340348 0 120 255
32.268164 -226.684137 -67.978499 0 120 255
30.544256 -226.628036 -69.750247 0 120 255
28.857954 -226.573503 -71.560654 0 120 255
27.171652 -226.518971 -73.371061 0 120 255
25.485351 -226.464438 -75.181468 0 120 255
23.928362 -226.415076 -77.101640 0 120 255
22.418300 -226.367591 -79.061645 0 120 255
20.908237 -226.320106 -81.021649 0 120 255
19.398175 -226.272621 -82.981654 0 120 255
18.013865 -226.230046 -85.029946 0 120 255
16.685589 -226.189659 -87.117579 0 120 255
15.357312 -226.149272 -89.205212 0 120 255
14.029036 -226.108885 -91.292845 0 120 255
12.820661 -226.073109 -93.449777 0 120 255
11.676947 -226.039821 -95.644082 0 120 255
10.533233 -226.006533 -97.838386 0 120 255
9.389520 -225.973245 -100.032690 0 120 255
8.358169 -225.944235 -102.279835 0 120 255
7.399437 -225.917988 -104.561129 0 120 255
6.440704 -225.891741 -106.842424 0 120 255
5.481972 -225.865495 -109.123718 0 120 255
4.626888 -225.843159 -111.443859 0 120 255
3.851565 -225.823832 -113.793893 0 120 255
3.076242 -225.804505 -116.143928 0 120 255
2.300920 -225.785179 -118.493962 0 120 255
1.619842 -225.769374 -120.871197 0 120 255
1.024820 -225.756784 -123.273270 0 120 255
0.429798 -225.744195 -125.675342 0 120 255
-0.165224 -225.731606 -128.077414 0 120 255
-0.675767 -225.722150 -130.497195 0 120 255
-1.094877 -225.716085 -132.936144 0 120 255
-1.513986 -225.710021 -135.375093 0 120 255
-1.933096 -225.703956 -137.814042 0 120 255
-2.277560 -225.700645 -140.263163 0 120 255
-2.526126 -225.700870 -142.725352 0 120 255
-2.774691 -225.701095 -145.187541 0 120 255
-3.023257 -225.701320 -147.649730 0 120 255
-3.206793 -225.703921 -150.116298 0 120 255
-3.290767 -225.710159 -152.589569 0 120 255
-3.374741 -225.716397 -155.062840 0 120 255
-3.458715 -225.722635 -157.536111 0 120 255
-3.486922 -225.730905 -160.009485 0 120 255
-3.412689 -225.742909 -162.483046 0 120 255
-3.338457 -225.754913 -164.956608 0 120 255
-3.264224 -225.766917 -167.430169 0 120 255
-3.143000 -225.780621 -169.900864 0 120 255
-2.917106 -225.798113 -172.365175 0 120 255
-2.691212 -225.815605 -174.829485 0 120 255
-2.465318 -225.833098 -177.293796 0 120 255
-2.200686 -225.851974 -179.753388 0 120 255
-1.829799 -225.874647 -182.200036 0 120 255
-1.458912 -225.897320 -184.646685 0 120 255
-1.088025 -225.919993 -187.093334 0 120 255
-0.686084 -225.943779 -189.534357 0 120 255
-0.176850 -225.971407 -191.955942 0 120 255
0.332385 -225.999036 -194.377528 0 120 255
0.841619 -226.026664 -196.799114 0 120 255
1.374796 -226.055136 -199.214966 0 120 255
2.015759 -226.087403 -201.605005 0 120 255
2.656723 -226.119670 -203.995043 0 120 255
3.297687 -226.151938 -206.385082 0 120 255
3.956077 -226.184816 -208.769941 0 120 255
4.722418 -226.221476 -211.122713 0 120 255
5.488759 -226.258137 -213.475486 0 120 255
6.255099 -226.294797 -215.828259 0 120 255
7.032927 -226.331862 -218.176955 0 120 255
7.918641 -226.372718 -220.487366 0 120 255
8.804355 -226.413575 -222.797778 0 120 255
9.690069 -226.454432 -225.108190 0 120 255
10.581851 -226.495499 -227.416097 0 120 255
11.581122 -226.540302 -229.679636 0 120 255
12.580393 -226.585104 -231.943176 0 120 255
13.579664 -226.629906 -234.206715 0 120 255
14.580084 -226.674748 -236.469713 0 120 255
15.687353 -226.723278 -238.682350 0 120 255
16.794622 -226.771808 -240.894986 0 120 255
17.901891 -226.820338 -243.107623 0 120 255
19.009160 -226.868868 -245.320260 0 120 255
20.216020 -226.920827 -247.480011 0 120 255
21.426191 -226.972900 -249.638005 0 120 255
22.636361 -227.024973 -251.795998 0 120 255
23.846532 -227.077046 -253.953992 0 120 255
25.147380 -227.132220 -256.058275 0 120 255
26.455580 -227.187646 -258.158204 0 120 255
27.763781 -227.243072 -260.258133 0 120 255
29.071981 -227.298498 -262.358061 0 120 255
30.462744 -227.356741 -264.403848 0 120 255
31.864538 -227.415360 -266.442401 0 120 255
33.266332 -227.473979 -268.480954 0 120 255
34.668126 -227.532599 -270.519507 0 120 255
36.145028 -227.593763 -272.503830 0 120 255
37.636312 -227.655414 -274.477767 0 120 255
39.127597 -227.717066 -276.451705 0 120 255
40.618882 -227.778717 -278.425642 0 120 255
42.178412 -227.842681 -280.345538 0 120 255
43.755387 -227.907237 -282.251618 0 120 255
45.332363 -227.971792 -284.157698 0 120 255
46.909339 -228.036347 -286.063778 0 120 255
48.548325 -228.103012 -287.916138 0 120 255
50.207590 -228.170368 -289.750930 0 120 255
51.866855 -228.237723 -291.585723 0 120 255
53.526120 -228.305079 -293.420515 0 120 255
55.241587 -228.374373 -295.202114 0 120 255
56.979924 -228.444458 -296.962067 0 120 255
58.718260 -228.514542 -298.722020 0 120 255
60.456597 -228.584626 -300.481972 0 120 255
62.245748 -228.656283 -302.189400 0 120 255
64.060156 -228.728722 -303.870720 0 120 255
65.874564 -228.801160 -305.552040 0 120 255
67.688972 -228.873599 -307.233360 0 120 255
69.549020 -228.947101 -308.863126 0 120 255
71.436425 -229.021241 -310.461991 0 120 255
73.323829 -229.095381 -312.060855 0 120 255
75.211234 -229.169520 -313.659720 0 120 255
77.139655 -229.243831 -315.207875 0 120 255
79.097460 -229.318265 -316.719701 0 120 255
81.055266 -229.392700 -318.231527 0 120 255
83.013071 -229.467134 -319.743353 0 120 255
85.007839 -229.538226 -321.205099 0 120 255
87.034062 -229.606476 -322.624227 0 120 255
89.060284 -229.674725 -324.043355 0 120 255
91.086507 -229.742975 -325.462483 0 120 255
93.145576 -229.804172 -326.832551 0 120 255
95.237742 -229.858264 -328.153187 0 120 255
97.329907 -229.912356 -329.473823 0 120 255
99.422072 -229.966448 -330.794458 0 120 255
101.542866 -230.011456 -332.067482 0 120 255
103.697808 -230.045630 -333.283713 0 120 255
105.852750 -230.079804 -334.499945 0 120 255
108.007691 -230.113978 -335.716177 0 120 255
110.187083 -230.137776 -336.886594 0 120 255
112.401077 -230.146888 -337.992175 0 120 255
114.615071 -230.156001 -339.097755 0 120 255
116.829065 -230.165114 -340.203336 0 120 255
119.063400 -230.163174 -341.265310 0 120 255
121.332059 -230.142584 -342.253706 0 120 255
123.600717 -230.121994 -343.242101 0 120 255
125.869376 -230.101404 -344.230496 0 120 255
128.154395 -230.069645 -345.177936 0 120 255
130.472593 -230.015236 -346.042318 0 120 255
132.790792 -229.960826 -346.906700 0 120 255
135.108990 -229.906417 -347.771081 0 120 255
137.439758 -229.841221 -348.597658 0 120 255
139.801531 -229.749420 -349.330981 0 120 255
142.163304 -229.657618 -350.064303 0 120 255
144.525077 -229.565816 -350.797625 0 120 255
146.895903 -229.464068 -351.496830 0 120 255
149.294366 -229.331952 -352.091878 0 120 255
151.692828 -229.199837 -352.686927 0 120 255
154.091291 -229.067722 -353.281975 0 120 255
156.495661 -228.926876 -353.847168 0 120 255
158.922924 -228.752195 -354.296657 0 120 255
161.350188 -228.577514 -354.746146 0 120 255
163.777451 -228.402833 -355.195635 0 120 255
166.208020 -228.220825 -355.619527 0 120 255
168.655498 -228.001340 -355.912515 0 120 255
171.102975 -227.781856 -356.205503 0 120 255
173.550452 -227.562372 -356.498491 0 120 255
175.997955 -227.341416 -356.790110 0 120 255
178.445638 -227.109935 -357.071936 0 120 255
180.893320 -226.878453 -357.353762 0 120 255
183.341003 -226.646971 -357.635588 0 120 255
185.788686 -226.415488 -357.917415 0 120 255
188.236366 -226.183995 -358.199253 0 120 255
190.684046 -225.952502 -358.481091 0 120 255
193.131727 -225.721009 -358.762930 0 120 255
195.579407 -225.489516 -359.044768 0 120 255
198.027089 -225.258027 -359.326598 0 120 255
200.474770 -225.026538 -359.608429 0 120 255
202.922452 -224.795049 -359.890260 0 120 255
205.370133 -224.563560 -360.172091 0 120 255
