ply
format ascii 1.0
element vertex 385
property float x
property float y
property float z
property uchar red
property uchar green
property uchar blue
end_header
77.430455 -42.474882 -360.397637 0 120 255
77.187307 -42.528766 -357.933446 0 120 255
76.944159 -42.582649 -355.469256 0 120 255
76.701011 -42.636533 -353.005066 0 120 255
76.457863 -42.690417 -350.540875 0 120 255
76.207670 -42.809834 -348.079731 0 120 255
75.957201 -42.931809 -345.618705 0 120 255
75.706733 -43.053783 -343.157680 0 120 255
75.456265 -43.175758 -340.696655 0 120 255
75.304000 -43.503255 -338.247351 0 120 255
75.160669 -43.849449 -335.799114 0 120 255
75.017339 -44.195643 -333.350877 0 120 255
74.874008 -44.541837 -330.902640 0 120 255
74.828869 -45.010864 -328.472023 0 120 255
74.800726 -45.501153 -326.044456 0 120 255
74.772583 -45.991442 -323.616888 0 120 255
74.744441 -46.481731 -321.189321 0 120 255
74.809077 -47.076944 -318.787162 0 120 255
74.898609 -47.700311 -316.391822 0 120 255
74.988141 -48.323677 -313.996481 0 120 255
75.077673 -48.947044 -311.601141 0 120 255
75.254310 -49.658386 -309.236639 0 120 255
75.464034 -50.403144 -306.883851 0 120 255
75.673757 -51.147902 -304.531064 0 120 255
75.883480 -51.892660 -302.178276 0 120 255
76.174384 -52.709607 -299.859744 0 120 255
76.506833 -53.563499 -297.558743 0 120 255
76.839283 -54.417391 -295.257743 0 120 255
77.171733 -55.271284 -292.956742 0 120 255
77.570544 -56.178479 -290.688120 0 120 255
78.013819 -57.121390 -288.441192 0 120 255
78.457095 -58.064302 -286.194264 0 120 255
78.900370 -59.007213 -283.947337 0 120 255
79.405352 -59.991625 -281.732721 0 120 255
79.963459 -61.011768 -279.545923 0 120 255
80.521567 -62.031910 -277.359125 0 120 255
81.079674 -63.052053 -275.172328 0 120 255
81.701591 -64.106554 -273.020949 0 120 255
82.392886 -65.198412 -270.908080 0 120 255
83.084181 -66.290269 -268.795210 0 120 255
83.775476 -67.382127 -266.682341 0 120 255
84.524435 -68.498500 -264.603873 0 120 255
85.352395 -69.648458 -262.572534 0 120 255
86.180355 -70.798417 -260.541196 0 120 255
87.008314 -71.948375 -258.509857 0 120 255
87.887410 -73.114375 -256.511087 0 120 255
88.855081 -74.308161 -254.568731 0 120 255
89.822753 -75.501947 -252.626376 0 120 255
90.790424 -76.695733 -250.684020 0 120 255
91.802365 -77.898506 -248.771674 0 120 255
92.912192 -79.121149 -246.925682 0 120 255
94.022019 -80.343793 -245.079691 0 120 255
95.131846 -81.566437 -243.233699 0 120 255
96.278815 -82.792483 -241.414503 0 120 255
97.532456 -84.028300 -239.672263 0 120 255
98.786097 -85.264117 -237.930024 0 120 255
100.039739 -86.499934 -236.187785 0 120 255
101.323242 -87.735076 -234.468525 0 120 255
102.721349 -88.967624 -232.837458 0 120 255
104.119456 -90.200172 -231.206391 0 120 255
105.517564 -91.432720 -229.575325 0 120 255
106.938241 -92.662063 -227.962874 0 120 255
108.480234 -93.874171 -226.450489 0 120 255
110.022226 -95.086280 -224.938104 0 120 255
111.564219 -96.298389 -223.425718 0 120 255
113.121651 -97.506324 -221.927080 0 120 255
114.805442 -98.680095 -220.540945 0 120 255
116.489232 -99.853866 -219.154811 0 120 255
118.173023 -101.027637 -217.768676 0 120 255
119.865492 -102.197828 -216.390964 0 120 255
121.687206 -103.314697 -215.138677 0 120 255
123.508919 -104.431566 -213.886389 0 120 255
125.330632 -105.548434 -212.634102 0 120 255
127.154871 -106.663848 -211.384522 0 120 255
129.108541 -107.704699 -210.273639 0 120 255
131.062211 -108.745550 -209.162756 0 120 255
133.015882 -109.786402 -208.051874 0 120 255
134.969552 -110.827253 -206.940991 0 120 255
137.044059 -111.774693 -205.975579 0 120 255
139.121325 -112.720000 -205.013489 0 120 255
141.198592 -113.665307 -204.051400 0 120 255
143.275859 -114.610614 -203.089310 0 120 255
145.458755 -115.447755 -202.273514 0 120 255
147.648552 -116.277831 -201.467273 0 120 255
149.838349 -117.107906 -200.661032 0 120 255
152.028145 -117.937982 -199.854792 0 120 255
154.306809 -118.646435 -199.195046 0 120 255
156.595095 -119.341718 -198.551165 0 120 255
158.883382 -120.037001 -197.907283 0 120 255
161.171669 -120.732284 -197.263402 0 120 255
163.530527 -121.293955 -196.765509 0 120 255
165.900059 -121.835416 -196.289698 0 120 255
168.269591 -122.376876 -195.813887 0 120 255
170.639124 -122.918337 -195.338077 0 120 255
173.059462 -123.315822 -195.006927 0 120 255
175.489639 -123.685423 -194.703794 0 120 255
177.919817 -124.055024 -194.400661 0 120 255
180.349995 -124.424626 -194.097528 0 120 255
182.809843 -124.641709 -193.936773 0 120 255
185.276664 -124.822955 -193.809472 0 120 255
187.743484 -125.004200 -193.682171 0 120 255
190.210305 -125.185446 -193.554870 0 120 255
192.684444 -125.207680 -193.566570 0 120 255
195.160593 -125.186255 -193.616435 0 120 255
197.636742 -125.164829 -193.666301 0 120 255
200.112890 -125.143404 -193.716166 0 120 255
202.573007 -124.958750 -193.900450 0 120 255
205.028121 -124.723175 -194.126670 0 120 255
207.483236 -124.487599 -194.352889 0 120 255
209.938350 -124.252023 -194.579108 0 120 255
212.353373 -123.851535 -194.933815 0 120 255
214.754494 -123.393858 -195.333080 0 120 255
217.155614 -122.936181 -195.732345 0 120 255
219.556734 -122.478503 -196.131611 0 120 255
221.893388 -121.857009 -196.651951 0 120 255
224.205619 -121.173451 -197.218161 0 120 255
226.517850 -120.489893 -197.784372 0 120 255
228.830081 -119.806335 -198.350583 0 120 255
231.053650 -118.963056 -199.028907 0 120 255
233.241024 -118.054573 -199.753002 0 120 255
235.428397 -117.146089 -200.477098 0 120 255
237.615770 -116.237605 -201.201193 0 120 255
239.691062 -115.176667 -202.026876 0 120 255
241.717564 -114.049363 -202.896782 0 120 255
243.744066 -112.922060 -203.766688 0 120 255
245.770567 -111.794757 -204.636594 0 120 255
247.663065 -110.525525 -205.596031 0 120 255
249.493831 -109.190913 -206.596712 0 120 255
251.324598 -107.856301 -207.597393 0 120 255
253.155364 -106.521689 -208.598075 0 120 255
254.832469 -105.058858 -209.674857 0 120 255
256.435002 -103.533805 -210.788570 0 120 255
258.037535 -102.008751 -211.902283 0 120 255
259.640069 -100.483698 -213.015996 0 120 255
261.072353 -98.847106 -214.191287 0 120 255
262.417744 -97.153586 -215.398006 0 120 255
263.763136 -95.460066 -216.604725 0 120 255
265.108527 -93.766546 -217.811444 0 120 255
266.270935 -91.980703 -219.064483 0 120 255
267.335008 -90.145247 -220.342414 0 120 255
268.399081 -88.309791 -221.620345 0 120 255
269.463154 -86.474335 -222.898275 0 120 255
270.335966 -84.567668 -224.207045 0 120 255
271.100129 -82.620549 -225.533334 0 120 255
271.864292 -80.673430 -226.859622 0 120 255
272.628455 -78.726311 -228.185911 0 120 255
273.197990 -76.730191 -229.527889 0 120 255
273.649916 -74.704462 -230.879347 0 120 255
274.101842 -72.678732 -232.230806 0 120 255
274.553768 -70.653002 -233.582265 0 120 255
274.812769 -68.600638 -234.935184 0 120 255
274.946711 -66.531008 -236.289049 0 120 255
275.080653 -64.461379 -237.642915 0 120 255
275.214595 -62.391749 -238.996780 0 120 255
275.162247 -60.317020 -240.339364 0 120 255
274.979044 -58.238708 -241.674022 0 120 255
274.795840 -56.160396 -243.008681 0 120 255
274.612636 -54.082084 -244.343340 0 120 255
274.254260 -52.018419 -245.655952 0 120 255
273.761020 -49.966031 -246.951589 0 120 255
273.267780 -47.913644 -248.247227 0 120 255
272.774540 -45.861256 -249.542865 0 120 255
272.120975 -43.840641 -250.808017 0 120 255
271.330432 -41.847172 -252.047123 0 120 255
270.539890 -39.853703 -253.286229 0 120 255
269.749348 -37.860234 -254.525335 0 120 255
268.816156 -35.912395 -255.728044 0 120 255
267.745923 -34.008391 -256.895789 0 120 255
266.675690 -32.104386 -258.063534 0 120 255
265.605458 -30.200382 -259.231278 0 120 255
264.412043 -28.352177 -260.359284 0 120 255
263.083689 -26.565099 -261.443758 0 120 255
261.755334 -24.778020 -262.528232 0 120 255
260.426980 -22.990942 -263.612706 0 120 255
258.995632 -21.265971 -264.656515 0 120 255
257.433683 -19.619756 -265.648760 0 120 255
255.871733 -17.973542 -266.641004 0 120 255
254.309783 -16.327327 -267.633248 0 120 255
252.664755 -14.745748 -268.586083 0 120 255
250.895743 -13.260629 -269.480105 0 120 255
249.126730 -11.775510 -270.374127 0 120 255
247.357718 -10.290390 -271.268149 0 120 255
245.524412 -8.868894 -272.125809 0 120 255
243.575991 -7.561310 -272.918362 0 120 255
241.627570 -6.253727 -273.710915 0 120 255
239.679150 -4.946144 -274.503468 0 120 255
237.683390 -3.698061 -275.264085 0 120 255
235.583539 -2.580814 -275.954479 0 120 255
233.483689 -1.463567 -276.644873 0 120 255
231.383838 -0.346320 -277.335267 0 120 255
229.251282 0.718154 -277.999089 0 120 255
227.027666 1.635694 -278.588928 0 120 255
224.804050 2.553235 -279.178767 0 120 255
222.580434 3.470775 -279.768606 0 120 255
220.336109 4.344328 -280.337716 0 120 255
218.015541 5.055931 -280.830508 0 120 255
215.694973 5.767534 -281.323300 0 120 255
213.374405 6.479137 -281.816091 0 120 255
211.042351 7.157031 -282.294099 0 120 255
208.650432 7.659242 -282.695059 0 120 255
206.258514 8.161453 -283.096018 0 120 255
203.866595 8.663664 -283.496978 0 120 255
201.469636 9.143420 -283.888834 0 120 255
199.030481 9.435217 -284.204490 0 120 255
196.591327 9.727014 -284.520147 0 120 255
194.152173 10.018811 -284.835803 0 120 255
191.711753 10.299903 -285.147488 0 120 255
189.247847 10.382330 -285.385467 0 120 255
186.783942 10.464758 -285.623446 0 120 255
184.320036 10.547185 -285.861425 0 120 255
181.856131 10.629612 -286.099404 0 120 255
179.388285 10.506596 -286.268518 0 120 255
176.920416 10.382439 -286.437250 0 120 255
174.452548 10.258281 -286.605982 0 120 255
171.984680 10.134124 -286.774714 0 120 255
169.531001 9.820349 -286.887047 0 120 255
167.078275 9.493831 -286.995590 0 120 255
164.625550 9.167313 -287.104133 0 120 255
162.172824 8.840795 -287.212675 0 120 255
159.748775 8.341149 -287.276611 0 120 255
157.328673 7.817676 -287.334407 0 120 255
154.908571 7.294204 -287.392204 0 120 255
152.488469 6.770732 -287.450001 0 120 255
150.108238 6.090851 -287.474129 0 120 255
147.736718 5.376799 -287.490901 0 120 255
145.365198 4.662747 -287.507673 0 120 255
142.993678 3.948695 -287.524446 0 120 255
140.670290 3.094835 -287.517413 0 120 255
138.361917 2.197357 -287.502954 0 120 255
136.053545 1.299879 -287.488495 0 120 255
133.745172 0.402401 -287.474036 0 120 255
131.490607 -0.618665 -287.444506 0 120 255
129.258692 -1.691758 -287.408632 0 120 255
127.026778 -2.764851 -287.372758 0 120 255
124.794863 -3.837944 -287.336884 0 120 255
122.620175 -5.018992 -287.293469 0 120 255
120.476922 -6.259340 -287.245912 0 120 255
118.333669 -7.499689 -287.198354 0 120 255
116.190416 -8.740037 -287.150797 0 120 255
114.105852 -10.073440 -287.101962 0 120 255
112.062501 -11.472191 -287.052228 0 120 255
110.019151 -12.870941 -287.002495 0 120 255
107.975800 -14.269692 -286.952762 0 120 255
105.990905 -15.747445 -286.906787 0 120 255
104.057872 -17.295290 -286.864145 0 120 255
102.124840 -18.843135 -286.821504 0 120 255
100.191807 -20.390981 -286.778862 0 120 255
98.315531 -22.004710 -286.743807 0 120 255
96.502532 -23.691894 -286.717209 0 120 255
94.689534 -25.379077 -286.690611 0 120 255
92.876535 -27.066260 -286.664013 0 120 255
91.117323 -28.807211 -286.647658 0 120 255
89.433492 -30.623517 -286.645659 0 120 255
87.749660 -32.439822 -286.643660 0 120 255
86.065829 -34.256128 -286.641660 0 120 255
84.431703 -36.115143 -286.651448 0 120 255
82.885671 -38.049853 -286.682127 0 120 255
81.339640 -39.984563 -286.712805 0 120 255
79.793608 -41.919274 -286.743484 0 120 255
78.292221 -43.886744 -286.786477 0 120 255
76.892182 -45.928586 -286.857427 0 120 255
75.492144 -47.970428 -286.928376 0 120 255
74.092106 -50.012269 -286.999326 0 120 255
72.734564 -52.080229 -287.083022 0 120 255
71.503318 -54.225808 -287.204601 0 120 255
70.272071 -56.371387 -287.326179 0 120 255
69.040825 -58.516966 -287.447757 0 120 255
67.844653 -60.680087 -287.580559 0 120 255
66.789796 -62.913882 -287.758581 0 120 255
65.734938 -65.147678 -287.936603 0 120 255
64.680081 -67.381473 -288.114624 0 120 255
63.649322 -69.624828 -288.301064 0 120 255
62.761114 -71.924727 -288.537301 0 120 255
61.872906 -74.224627 -288.773538 0 120 255
60.984698 -76.524526 -289.009775 0 120 255
60.112113 -78.829161 -289.251709 0 120 255
59.395251 -81.180997 -289.550433 0 120 255
58.678390 -83.532833 -289.849157 0 120 255
57.961529 -85.884669 -290.147880 0 120 255
57.251449 -88.237948 -290.449150 0 120 255
56.710116 -90.627148 -290.813759 0 120 255
56.168782 -93.016349 -291.178367 0 120 255
55.627449 -95.405549 -291.542976 0 120 255
55.086116 -97.794749 -291.907585 0 120 255
54.721630 -100.206033 -292.339606 0 120 255
54.359467 -102.617606 -292.772512 0 120 255
53.997303 -105.029180 -293.205419 0 120 255
53.635140 -107.440754 -293.638325 0 120 255
53.443649 -109.858856 -294.136426 0 120 255
53.263740 -112.277401 -294.638952 0 120 255
53.083832 -114.695946 -295.141477 0 120 255
52.903923 -117.114491 -295.644003 0 120 255
52.887830 -119.525187 -296.208470 0 120 255
52.892620 -121.934884 -296.780833 0 120 255
52.897410 -124.344580 -297.353196 0 120 255
52.902200 -126.754276 -297.925559 0 120 255
53.063316 -129.142995 -298.555554 0 120 255
53.254536 -131.527674 -299.196646 0 120 255
53.445755 -133.912353 -299.837739 0 120 255
53.636975 -136.297032 -300.478831 0 120 255
53.976417 -138.648873 -301.172427 0 120 255
54.354957 -140.992052 -301.879871 0 120 255
54.733496 -143.335231 -302.587316 0 120 255
55.112035 -145.678410 -303.294760 0 120 255
55.630138 -147.978238 -304.048800 0 120 255
56.195949 -150.263247 -304.818768 0 120 255
56.761760 -152.548256 -305.588736 0 120 255
57.327571 -154.833265 -306.358704 0 120 255
58.023761 -157.065814 -307.168747 0 120 255
58.775710 -159.275928 -307.995928 0 120 255
59.527660 -161.486041 -308.823109 0 120 255
60.279609 -163.696155 -309.650290 0 120 255
61.152295 -165.846160 -310.510571 0 120 255
62.088043 -167.964769 -311.388140 0 120 255
63.023792 -170.083378 -312.265710 0 120 255
63.959540 -172.201987 -313.143280 0 120 255
65.005988 -174.254373 -314.046645 0 120 255
66.121852 -176.265231 -314.966185 0 120 255
67.237716 -178.276090 -315.885726 0 120 255
68.353580 -180.286948 -316.805267 0 120 255
69.569798 -182.227038 -317.743168 0 120 255
70.860633 -184.114510 -318.694721 0 120 255
72.151468 -186.001982 -319.646273 0 120 255
73.442303 -187.889454 -320.597826 0 120 255
74.822943 -189.703217 -321.560352 0 120 255
76.282039 -191.452587 -322.532465 0 120 255
77.741135 -193.201957 -323.504578 0 120 255
79.200231 -194.951327 -324.476690 0 120 255
80.738504 -196.625661 -325.452615 0 120 255
82.357529 -198.223468 -326.432426 0 120 255
83.976553 -199.821275 -327.412238 0 120 255
85.595577 -201.419083 -328.392050 0 120 255
87.283210 -202.942116 -329.368933 0 120 255
89.052186 -204.376500 -330.342342 0 120 255
90.821162 -205.810884 -331.315751 0 120 255
92.590138 -207.245268 -332.289160 0 120 255
94.417360 -208.606688 -333.253502 0 120 255
96.324677 -209.867775 -334.205374 0 120 255
98.231995 -211.128861 -335.157246 0 120 255
100.139312 -212.389947 -336.109119 0 120 255
102.094885 -213.581332 -337.046564 0 120 255
104.127405 -214.661571 -337.961006 0 120 255
106.159925 -215.741810 -338.875448 0 120 255
108.192445 -216.822049 -339.789890 0 120 255
110.263776 -217.837179 -340.685465 0 120 255
112.407008 -218.731686 -341.546089 0 120 255
114.550239 -219.626194 -342.406712 0 120 255
116.693471 -220.520701 -343.267336 0 120 255
118.866769 -221.355843 -344.105749 0 120 255
121.105052 -222.062671 -344.896155 0 120 255
123.343334 -222.769499 -345.686562 0 120 255
125.581617 -223.476327 -346.476969 0 120 255
127.842090 -224.130478 -347.242996 0 120 255
130.158925 -224.650834 -347.947101 0 120 255
132.475760 -225.171190 -348.651206 0 120 255
134.792595 -225.691547 -349.355311 0 120 255
137.124754 -226.166597 -350.034126 0 120 255
139.503149 -226.504945 -350.636634 0 120 255
141.881544 -226.843293 -351.239142 0 120 255
144.259939 -227.181641 -351.841650 0 120 255
146.647916 -227.482457 -352.419238 0 120 255
149.070795 -227.646551 -352.906051 0 120 255
151.493674 -227.810645 -353.392864 0 120 255
153.916554 -227.974739 -353.879677 0 120 255
156.344477 -228.109163 -354.343204 0 120 255
158.795114 -228.109973 -354.701864 0 120 255
161.245751 -228.110782 -355.060525 0 120 255
163.696387 -228.111591 -355.419185 0 120 255
166.147913 -228.085114 -355.762604 0 120 255
168.604568 -227.901104 -356.018034 0 120 255
171.061223 -227.717094 -356.273464 0 120 255
173.517878 -227.533084 -356.528894 0 120 255
175.973750 -227.343706 -356.787323 0 120 255
178.423450 -227.112033 -357.069381 0 120 255
180.873150 -226.880360 -357.351439 0 120 255
183.322849 -226.648688 -357.633497 0 120 255
185.772549 -226.417014 -357.915557 0 120 255
188.222246 -226.185330 -358.197627 0 120 255
190.671944 -225.953647 -358.479698 0 120 255
193.121641 -225.721963 -358.761768 0 120 255
195.571339 -225.490279 -359.043839 0 120 255
198.021037 -225.258599 -359.325902 0 120 255
200.470736 -225.026920 -359.607965 0 120 255
202.920435 -224.795240 -359.890028 0 120 255
205.370133 -224.563560 -360.172091 0 120 255
