ply
format ascii 1.0
element vertex 385
property float x
property float y
property float z
property uchar red
property uchar green
property uchar blue
end_header
77.430455 -42.474882 -360.397637 0 120 255
77.187551 -42.528712 -357.935921 0 120 255
76.944648 -42.582541 -355.474206 0 120 255
76.701744 -42.636371 -353.012490 0 120 255
76.458840 -42.690201 -350.550775 0 120 255
76.213788 -42.754705 -348.089529 0 120 255
75.968644 -42.819673 -345.628305 0 120 255
75.723499 -42.884642 -343.167080 0 120 255
75.478355 -42.949610 -340.705856 0 120 255
75.067325 -43.378075 -338.306992 0 120 255
74.641210 -43.839593 -335.913800 0 120 255
74.215096 -44.301112 -333.520607 0 120 255
73.788982 -44.762631 -331.127415 0 120 255
73.234311 -45.478524 -328.827743 0 120 255
72.660651 -46.231992 -326.541886 0 120 255
72.086991 -46.985460 -324.256029 0 120 255
71.513331 -47.738928 -321.970172 0 120 255
70.849410 -48.669060 -319.777939 0 120 255
70.166502 -49.636355 -317.605401 0 120 255
69.483595 -50.603649 -315.432863 0 120 255
68.800687 -51.570944 -313.260325 0 120 255
68.065144 -52.661752 -311.166456 0 120 255
67.314882 -53.787103 -309.094589 0 120 255
66.564619 -54.912453 -307.022721 0 120 255
65.814357 -56.037804 -304.950853 0 120 255
65.045699 -57.255116 -302.939683 0 120 255
64.270478 -58.505248 -300.950174 0 120 255
63.495256 -59.755379 -298.960665 0 120 255
62.720035 -61.005511 -296.971156 0 120 255
61.955373 -62.331940 -295.028421 0 120 255
61.195396 -63.692215 -293.106435 0 120 255
60.435419 -65.052490 -291.184449 0 120 255
59.675442 -66.412764 -289.262463 0 120 255
58.948541 -67.843385 -287.380243 0 120 255
58.239564 -69.312127 -285.519573 0 120 255
57.530587 -70.780868 -283.658903 0 120 255
56.821610 -72.249610 -281.798233 0 120 255
56.161434 -73.787158 -279.977141 0 120 255
55.533190 -75.369730 -278.181948 0 120 255
54.904946 -76.952302 -276.386755 0 120 255
54.276703 -78.534875 -274.591562 0 120 255
53.706549 -80.185307 -272.840810 0 120 255
53.181967 -81.888976 -271.124924 0 120 255
52.657384 -83.592646 -269.409037 0 120 255
52.132802 -85.296315 -267.693150 0 120 255
51.670102 -87.065181 -266.029157 0 120 255
51.265375 -88.895127 -264.413781 0 120 255
50.860649 -90.725072 -262.798406 0 120 255
50.455923 -92.555018 -261.183030 0 120 255
50.112649 -94.444834 -259.627232 0 120 255
49.838056 -96.401562 -258.138018 0 120 255
49.563463 -98.358291 -256.648805 0 120 255
49.288871 -100.315019 -255.159591 0 120 255
49.072439 -102.323648 -253.735988 0 120 255
48.933675 -104.401585 -252.400000 0 120 255
48.794912 -106.479522 -251.064011 0 120 255
48.656148 -108.557459 -249.728023 0 120 255
48.570624 -110.677343 -248.460830 0 120 255
48.570419 -112.864445 -247.303883 0 120 255
48.570215 -115.051548 -246.146937 0 120 255
48.570010 -117.238651 -244.989991 0 120 255
48.617440 -119.456703 -243.901609 0 120 255
48.757175 -121.734729 -242.946089 0 120 255
48.896910 -124.012754 -241.990570 0 120 255
49.036645 -126.290779 -241.035050 0 120 255
49.218339 -128.588740 -240.144427 0 120 255
49.499497 -130.933957 -239.407644 0 120 255
49.780655 -133.279174 -238.670860 0 120 255
50.061814 -135.624391 -237.934076 0 120 255
50.379458 -137.979455 -237.255455 0 120 255
50.804723 -140.363564 -236.748386 0 120 255
51.229988 -142.747673 -236.241318 0 120 255
51.655253 -145.131782 -235.734249 0 120 255
52.111723 -147.517372 -235.276186 0 120 255
52.685648 -149.908542 -235.002574 0 120 255
53.259573 -152.299711 -234.728963 0 120 255
53.833498 -154.690880 -234.455351 0 120 255
54.433333 -157.077507 -234.219994 0 120 255
55.162511 -159.441460 -234.175600 0 120 255
55.891689 -161.805412 -234.131205 0 120 255
56.620867 -164.169365 -234.086810 0 120 255
57.370355 -166.525520 -234.069292 0 120 255
58.263136 -168.826665 -234.241392 0 120 255
59.155917 -171.127810 -234.413492 0 120 255
60.048698 -173.428954 -234.585592 0 120 255
60.955600 -175.722054 -234.773607 0 120 255
62.021246 -177.924713 -235.140533 0 120 255
63.086891 -180.127373 -235.507460 0 120 255
64.152536 -182.330032 -235.874387 0 120 255
65.225369 -184.527437 -236.247799 0 120 255
66.472856 -186.597157 -236.778814 0 120 255
67.720343 -188.666877 -237.309828 0 120 255
68.967831 -190.736598 -237.840843 0 120 255
70.215318 -192.806318 -238.371858 0 120 255
71.651246 -194.711753 -239.026984 0 120 255
73.087615 -196.616803 -239.682401 0 120 255
74.523984 -198.521853 -240.337818 0 120 255
75.960353 -200.426903 -240.993235 0 120 255
77.580468 -202.148277 -241.721727 0 120 255
79.209018 -203.861218 -242.453574 0 120 255
80.837568 -205.574159 -243.185420 0 120 255
82.466118 -207.287101 -243.917267 0 120 255
84.268298 -208.804675 -244.668709 0 120 255
86.086642 -210.304061 -245.421975 0 120 255
87.904986 -211.803446 -246.175242 0 120 255
89.723330 -213.302832 -246.928508 0 120 255
91.698962 -214.603475 -247.648028 0 120 255
93.697310 -215.875414 -248.362674 0 120 255
95.695658 -217.147353 -249.077321 0 120 255
97.694006 -218.419293 -249.791967 0 120 255
99.826823 -219.497696 -250.422463 0 120 255
101.986603 -220.537292 -251.036085 0 120 255
104.146383 -221.576889 -251.649708 0 120 255
106.306162 -222.616486 -252.263331 0 120 255
108.571629 -223.475952 -252.748255 0 120 255
110.864795 -224.288205 -253.199448 0 120 255
113.157961 -225.100459 -253.650641 0 120 255
115.451128 -225.912713 -254.101835 0 120 255
117.816435 -226.565506 -254.388287 0 120 255
120.205558 -227.165653 -254.620353 0 120 255
122.594682 -227.765801 -254.852418 0 120 255
124.983806 -228.365949 -255.084483 0 120 255
127.408611 -228.832988 -255.126355 0 120 255
129.847895 -229.246014 -255.091051 0 120 255
132.287179 -229.659041 -255.055746 0 120 255
134.726462 -230.072067 -255.020441 0 120 255
137.164310 -230.381987 -254.781288 0 120 255
139.601454 -230.641337 -254.442154 0 120 255
142.038598 -230.900687 -254.103020 0 120 255
144.475741 -231.160037 -253.763886 0 120 255
146.876030 -231.348078 -253.219218 0 120 255
149.254720 -231.494327 -252.554095 0 120 255
151.633410 -231.640577 -251.888972 0 120 255
154.012100 -231.786826 -251.223850 0 120 255
156.322624 -231.892675 -250.362917 0 120 255
158.585767 -231.970443 -249.365882 0 120 255
160.848911 -232.048210 -248.368848 0 120 255
163.112054 -232.125978 -247.371814 0 120 255
165.281122 -232.183191 -246.196972 0 120 255
167.372969 -232.223533 -244.876180 0 120 255
169.464815 -232.263874 -243.555388 0 120 255
171.556662 -232.304216 -242.234595 0 120 255
173.533735 -232.331030 -240.759329 0 120 255
175.399802 -232.344761 -239.134660 0 120 255
177.265870 -232.358492 -237.509992 0 120 255
179.131937 -232.372223 -235.885323 0 120 255
180.869030 -232.377450 -234.134003 0 120 255
182.459222 -232.372991 -232.238425 0 120 255
184.049414 -232.368531 -230.342848 0 120 255
185.639605 -232.364072 -228.447270 0 120 255
187.094087 -232.355699 -226.455030 0 120 255
188.366148 -232.342066 -224.332858 0 120 255
189.638209 -232.328433 -222.210685 0 120 255
190.910271 -232.314800 -220.088512 0 120 255
192.047220 -232.300129 -217.899263 0 120 255
192.968848 -232.283805 -215.603119 0 120 255
193.890476 -232.267480 -213.306975 0 120 255
194.812104 -232.251156 -211.010831 0 120 255
195.605783 -232.235266 -208.674689 0 120 255
196.155904 -232.220202 -206.262412 0 120 255
196.706024 -232.205138 -203.850134 0 120 255
197.256145 -232.190074 -201.437856 0 120 255
197.690806 -232.175898 -199.008557 0 120 255
197.860033 -232.163763 -196.540124 0 120 255
198.029260 -232.151628 -194.071692 0 120 255
198.198487 -232.139494 -191.603260 0 120 255
198.268519 -232.128057 -189.135639 0 120 255
198.058748 -232.118591 -186.670310 0 120 255
197.848977 -232.109124 -184.204980 0 120 255
197.639207 -232.099657 -181.739651 0 120 255
197.348651 -232.090407 -179.287362 0 120 255
196.772016 -232.081922 -176.881252 0 120 255
196.195382 -232.073437 -174.475142 0 120 255
195.618747 -232.064952 -172.069032 0 120 255
194.980328 -232.056173 -169.682625 0 120 255
194.057715 -232.046038 -167.386840 0 120 255
193.135103 -232.035903 -165.091056 0 120 255
192.212490 -232.025768 -162.795271 0 120 255
191.246355 -232.014988 -160.520712 0 120 255
190.005687 -232.000140 -158.380043 0 120 255
188.765020 -231.985292 -156.239373 0 120 255
187.524352 -231.970443 -154.098704 0 120 255
186.256616 -231.954862 -151.976355 0 120 255
184.731042 -231.932291 -150.028521 0 120 255
183.205467 -231.909721 -148.080687 0 120 255
181.679893 -231.887150 -146.132853 0 120 255
180.141136 -231.864035 -144.196871 0 120 255
178.367250 -231.831193 -142.472286 0 120 255
176.593364 -231.798352 -140.747701 0 120 255
174.819478 -231.765511 -139.023117 0 120 255
173.043263 -231.732535 -137.301267 0 120 255
171.059553 -231.687651 -135.823153 0 120 255
169.075842 -231.642766 -134.345039 0 120 255
167.092132 -231.597881 -132.866924 0 120 255
165.108422 -231.552996 -131.388810 0 120 255
162.959199 -231.495726 -130.165474 0 120 255
160.804687 -231.438060 -128.950280 0 120 255
158.650175 -231.380395 -127.735086 0 120 255
156.495664 -231.322729 -126.519891 0 120 255
154.218455 -231.253641 -125.558000 0 120 255
151.931572 -231.183652 -124.616082 0 120 255
149.644689 -231.113663 -123.674164 0 120 255
147.357805 -231.043675 -122.732246 0 120 255
144.986573 -230.964307 -122.036498 0 120 255
142.604349 -230.883718 -121.372826 0 120 255
140.222126 -230.803128 -120.709153 0 120 255
137.839903 -230.722538 -120.045480 0 120 255
135.406874 -230.635788 -119.616533 0 120 255
132.964346 -230.547887 -119.231469 0 120 255
130.521818 -230.459985 -118.846406 0 120 255
128.079290 -230.372083 -118.461342 0 120 255
125.614648 -230.282186 -118.296507 0 120 255
123.144485 -230.191790 -118.186645 0 120 255
120.674323 -230.101395 -118.076784 0 120 255
118.204161 -230.011000 -117.966922 0 120 255
115.736013 -229.921293 -118.061043 0 120 255
113.268508 -229.831805 -118.220280 0 120 255
110.801004 -229.742318 -118.379518 0 120 255
108.333499 -229.652830 -118.538756 0 120 255
105.887984 -229.564948 -118.884661 0 120 255
103.451198 -229.477704 -119.304668 0 120 255
101.014412 -229.390459 -119.724674 0 120 255
98.577626 -229.303214 -120.144681 0 120 255
96.178955 -229.218021 -120.733383 0 120 255
93.798745 -229.133823 -121.403798 0 120 255
91.418536 -229.049625 -122.074214 0 120 255
89.038326 -228.965427 -122.744629 0 120 255
86.708828 -228.883636 -123.565583 0 120 255
84.408913 -228.803248 -124.474359 0 120 255
82.108998 -228.722861 -125.383135 0 120 255
79.809083 -228.642474 -126.291910 0 120 255
77.569285 -228.564756 -127.333276 0 120 255
75.371356 -228.488898 -128.466985 0 120 255
73.173426 -228.413040 -129.600693 0 120 255
70.975497 -228.337182 -130.734401 0 120 255
68.844229 -228.264173 -131.983267 0 120 255
66.768077 -228.193519 -133.327344 0 120 255
64.691925 -228.122864 -134.671421 0 120 255
62.615773 -228.052210 -136.015499 0 120 255
60.610266 -227.984492 -137.458039 0 120 255
58.673900 -227.919648 -138.996941 0 120 255
56.737533 -227.854803 -140.535844 0 120 255
54.801166 -227.789958 -142.074747 0 120 255
52.937127 -227.728053 -143.696317 0 120 255
51.156838 -227.669550 -145.413609 0 120 255
49.376550 -227.611048 -147.130902 0 120 255
47.596262 -227.552546 -148.848195 0 120 255
45.887913 -227.496920 -150.633397 0 120 255
44.278312 -227.445243 -152.511816 0 120 255
42.668712 -227.393566 -154.390236 0 120 255
41.059111 -227.341889 -156.268655 0 120 255
39.519209 -227.292955 -158.201392 0 120 255
38.093232 -227.248504 -160.222916 0 120 255
36.667256 -227.204053 -162.244440 0 120 255
35.241279 -227.159602 -164.265964 0 120 255
33.881112 -227.117704 -166.329496 0 120 255
32.650000 -227.080812 -168.475409 0 120 255
31.418887 -227.043920 -170.621323 0 120 255
30.187775 -227.007028 -172.767237 0 120 255
29.017130 -226.972453 -174.944236 0 120 255
27.990363 -226.943394 -177.195202 0 120 255
26.963597 -226.914334 -179.446168 0 120 255
25.936830 -226.885274 -181.697135 0 120 255
24.963939 -226.858259 -183.969752 0 120 255
24.149174 -226.837244 -186.305915 0 120 255
23.334409 -226.816230 -188.642079 0 120 255
22.519644 -226.795215 -190.978242 0 120 255
21.751118 -226.775935 -193.328198 0 120 255
21.154068 -226.763088 -195.729304 0 120 255
20.557018 -226.750240 -198.130410 0 120 255
19.959968 -226.737393 -200.531516 0 120 255
19.400708 -226.725952 -202.940211 0 120 255
19.025091 -226.721345 -205.385785 0 120 255
18.649474 -226.716739 -207.831360 0 120 255
18.273856 -226.712133 -210.276934 0 120 255
17.927016 -226.708583 -212.725601 0 120 255
17.774493 -226.712169 -215.195148 0 120 255
17.621970 -226.715755 -217.664696 0 120 255
17.469447 -226.719341 -220.134244 0 120 255
17.336367 -226.723635 -222.604114 0 120 255
17.406502 -226.735326 -225.077349 0 120 255
17.476637 -226.747017 -227.550583 0 120 255
17.546772 -226.758708 -230.023817 0 120 255
17.626961 -226.770762 -232.496314 0 120 255
17.917237 -226.790404 -234.953405 0 120 255
18.207512 -226.810046 -237.410497 0 120 255
18.497788 -226.829687 -239.867588 0 120 255
18.788929 -226.849360 -242.324538 0 120 255
19.294773 -226.876726 -244.746379 0 120 255
19.800616 -226.904092 -247.168221 0 120 255
20.306459 -226.931458 -249.590062 0 120 255
20.812303 -226.958823 -252.011904 0 120 255
21.519305 -226.993325 -254.382392 0 120 255
22.234175 -227.028106 -256.750871 0 120 255
22.949045 -227.062886 -259.119351 0 120 255
23.663915 -227.097667 -261.487830 0 120 255
24.563497 -227.138925 -263.791673 0 120 255
25.478986 -227.180740 -266.089949 0 120 255
26.394475 -227.222556 -268.388226 0 120 255
27.309964 -227.264371 -270.686502 0 120 255
28.393057 -227.312018 -272.909548 0 120 255
29.499213 -227.360467 -275.122242 0 120 255
30.605370 -227.408916 -277.334936 0 120 255
31.711526 -227.457365 -279.547630 0 120 255
32.967848 -227.510965 -281.677183 0 120 255
34.253341 -227.565565 -283.790585 0 120 255
35.538834 -227.620166 -285.903988 0 120 255
36.824327 -227.674766 -288.017390 0 120 255
38.242583 -227.733888 -290.042348 0 120 255
39.694942 -227.794170 -292.044588 0 120 255
41.147301 -227.854453 -294.046827 0 120 255
42.599660 -227.914736 -296.049066 0 120 255
44.167822 -227.978888 -297.959980 0 120 255
45.773791 -228.044304 -299.841078 0 120 255
47.379759 -228.109720 -301.722176 0 120 255
48.985728 -228.175135 -303.603274 0 120 255
50.691243 -228.243842 -305.392410 0 120 255
52.437000 -228.313879 -307.144372 0 120 255
54.182757 -228.383916 -308.896334 0 120 255
55.928514 -228.453953 -310.648296 0 120 255
57.758581 -228.526785 -312.309607 0 120 255
59.630111 -228.600992 -313.926335 0 120 255
61.501641 -228.675199 -315.543064 0 120 255
63.373172 -228.749405 -317.159792 0 120 255
65.314954 -228.826039 -318.688874 0 120 255
67.298259 -228.904107 -320.166152 0 120 255
69.281564 -228.982175 -321.643430 0 120 255
71.264869 -229.060243 -323.120708 0 120 255
73.305666 -229.140330 -324.514792 0 120 255
75.386966 -229.221841 -325.850265 0 120 255
77.468266 -229.303352 -327.185738 0 120 255
79.549567 -229.384862 -328.521211 0 120 255
81.676814 -229.466928 -329.779498 0 120 255
83.842448 -229.549459 -330.973300 0 120 255
86.008082 -229.631989 -332.167101 0 120 255
88.173715 -229.714519 -333.360903 0 120 255
90.374588 -229.791775 -334.486176 0 120 255
92.610290 -229.863817 -335.543716 0 120 255
94.845991 -229.935859 -336.601256 0 120 255
97.081693 -230.007901 -337.658796 0 120 255
99.343739 -230.069936 -338.656885 0 120 255
101.636590 -230.120270 -339.585457 0 120 255
103.929440 -230.170605 -340.514028 0 120 255
106.222291 -230.220939 -341.442600 0 120 255
108.534301 -230.258499 -342.320586 0 120 255
110.872877 -230.278348 -343.128428 0 120 255
113.211454 -230.298197 -343.936271 0 120 255
115.550030 -230.318045 -344.744113 0 120 255
117.902055 -230.323920 -345.509838 0 120 255
120.276302 -230.306705 -346.205969 0 120 255
122.650549 -230.289490 -346.902099 0 120 255
125.024796 -230.272275 -347.598230 0 120 255
127.408064 -230.241168 -348.260153 0 120 255
129.809239 -230.182486 -348.854175 0 120 255
132.210413 -230.123803 -349.448196 0 120 255
134.611587 -230.065121 -350.042218 0 120 255
137.018472 -229.993668 -350.609237 0 120 255
139.439138 -229.891394 -351.111093 0 120 255
141.859804 -229.789120 -351.612948 0 120 255
144.280471 -229.686846 -352.114803 0 120 255
146.704490 -229.573668 -352.596062 0 120 255
149.138520 -229.427936 -353.015823 0 120 255
151.572551 -229.282204 -353.435585 0 120 255
154.006582 -229.136471 -353.855347 0 120 255
156.442394 -228.982163 -354.260075 0 120 255
158.884956 -228.795359 -354.607837 0 120 255
161.327518 -228.608555 -354.955599 0 120 255
163.770080 -228.421751 -355.303361 0 120 255
166.213458 -228.229122 -355.641093 0 120 255
168.660919 -228.007372 -355.928682 0 120 255
171.108379 -227.785622 -356.216271 0 120 255
173.555840 -227.563873 -356.503859 0 120 255
176.003273 -227.340914 -356.790722 0 120 255
178.450512 -227.109474 -357.072497 0 120 255
180.897752 -226.878034 -357.354272 0 120 255
183.344992 -226.646594 -357.636047 0 120 255
185.792231 -226.415153 -357.917823 0 120 255
188.239468 -226.183702 -358.199610 0 120 255
190.686705 -225.952250 -358.481397 0 120 255
193.133943 -225.720799 -358.763185 0 120 255
195.581180 -225.489348 -359.044972 0 120 255
198.028418 -225.257901 -359.326751 0 120 255
200.475656 -225.026454 -359.608531 0 120 255
202.922895 -224.795007 -359.890311 0 120 255
205.370133 -224.563560 -360.172091 0 120 255
