ply
format ascii 1.0
element vertex 385
property float x
property float y
property float z
property uchar red
property uchar green
property uchar blue
end_header
77.430455 -42.474882 -360.397637 0 120 255
77.187534 -42.528715 -357.935744 0 120 255
76.944613 -42.582549 -355.473852 0 120 255
76.701691 -42.636383 -353.011960 0 120 255
76.458770 -42.690216 -350.550068 0 120 255
76.220216 -42.754530 -348.088001 0 120 255
75.981851 -42.819296 -345.625927 0 120 255
75.743485 -42.884061 -343.163853 0 120 255
75.505119 -42.948827 -340.701779 0 120 255
75.371682 -43.257717 -338.251645 0 120 255
75.247807 -43.588853 -335.802599 0 120 255
75.123931 -43.919989 -333.353553 0 120 255
75.000055 -44.251126 -330.904507 0 120 255
74.964832 -44.772998 -328.487375 0 120 255
74.942741 -45.323125 -326.074971 0 120 255
74.920650 -45.873252 -323.662567 0 120 255
74.898559 -46.423379 -321.250163 0 120 255
74.952704 -47.126767 -318.879810 0 120 255
75.022958 -47.862538 -316.518343 0 120 255
75.093211 -48.598309 -314.156876 0 120 255
75.163465 -49.334080 -311.795408 0 120 255
75.297982 -50.191325 -309.479386 0 120 255
75.450600 -51.082784 -307.176165 0 120 255
75.603218 -51.974242 -304.872943 0 120 255
75.755836 -52.865701 -302.569721 0 120 255
75.961660 -53.852264 -300.310925 0 120 255
76.186664 -54.873111 -298.068144 0 120 255
76.411668 -55.893958 -295.825363 0 120 255
76.636672 -56.914805 -293.582582 0 120 255
76.904945 -58.009252 -291.380534 0 120 255
77.192663 -59.136775 -289.196791 0 120 255
77.480382 -60.264297 -287.013048 0 120 255
77.768100 -61.391820 -284.829305 0 120 255
78.090319 -62.575612 -282.681157 0 120 255
78.431527 -63.790376 -280.552602 0 120 255
78.772736 -65.005141 -278.424048 0 120 255
79.113944 -66.219905 -276.295493 0 120 255
79.481998 -67.477107 -274.196796 0 120 255
79.867937 -68.762582 -272.117991 0 120 255
80.253876 -70.048056 -270.039187 0 120 255
80.639815 -71.333531 -267.960383 0 120 255
81.045975 -72.650500 -265.905665 0 120 255
81.468321 -73.992676 -263.870227 0 120 255
81.890666 -75.334852 -261.834788 0 120 255
82.313012 -76.677028 -259.799350 0 120 255
82.749875 -78.042102 -257.782543 0 120 255
83.200639 -79.429102 -255.783577 0 120 255
83.651404 -80.816102 -253.784611 0 120 255
84.102168 -82.203102 -251.785645 0 120 255
84.562576 -83.606301 -249.800385 0 120 255
85.034018 -85.028033 -247.830806 0 120 255
85.505460 -86.449765 -245.861227 0 120 255
85.976902 -87.871497 -243.891648 0 120 255
86.453862 -89.304266 -241.931501 0 120 255
86.938377 -90.752147 -239.984270 0 120 255
87.422893 -92.200028 -238.037040 0 120 255
87.907408 -93.647909 -236.089809 0 120 255
88.393994 -95.102890 -234.148433 0 120 255
88.883992 -96.569562 -232.216699 0 120 255
89.373989 -98.036233 -230.284964 0 120 255
89.863986 -99.502905 -228.353229 0 120 255
90.353246 -100.973734 -226.424484 0 120 255
90.841034 -102.452862 -224.501709 0 120 255
91.328823 -103.931990 -222.578934 0 120 255
91.816611 -105.411118 -220.656159 0 120 255
92.301473 -106.892259 -218.734201 0 120 255
92.779161 -108.378332 -216.814247 0 120 255
93.256850 -109.864405 -214.894293 0 120 255
93.734538 -111.350477 -212.974340 0 120 255
94.207726 -112.837069 -211.053690 0 120 255
94.667122 -114.325251 -209.130907 0 120 255
95.126517 -115.813433 -207.208125 0 120 255
95.585912 -117.301615 -205.285342 0 120 255
96.039867 -118.789350 -203.360956 0 120 255
96.472373 -120.275325 -201.430246 0 120 255
96.904878 -121.761300 -199.499536 0 120 255
97.337384 -123.247274 -197.568827 0 120 255
97.764179 -124.732280 -195.636153 0 120 255
98.160726 -126.212148 -193.693072 0 120 255
98.557273 -127.692016 -191.749991 0 120 255
98.953819 -129.171884 -189.806910 0 120 255
99.345107 -130.650630 -187.861974 0 120 255
99.696080 -132.120780 -185.902816 0 120 255
100.047053 -133.590929 -183.943657 0 120 255
100.398026 -135.061078 -181.984499 0 120 255
100.744974 -136.530280 -180.023976 0 120 255
101.040152 -137.987300 -178.045900 0 120 255
101.335330 -139.444321 -176.067825 0 120 255
101.630508 -140.901341 -174.089749 0 120 255
101.923750 -142.357884 -172.111070 0 120 255
102.152287 -143.798459 -170.112236 0 120 255
102.380823 -145.239034 -168.113403 0 120 255
102.609360 -146.679609 -166.114569 0 120 255
102.837897 -148.120185 -164.115735 0 120 255
102.989388 -149.541282 -162.095770 0 120 255
103.139797 -150.962105 -160.075508 0 120 255
103.290205 -152.382929 -158.055245 0 120 255
103.440613 -153.803752 -156.034983 0 120 255
103.505915 -155.202731 -153.995147 0 120 255
103.566109 -156.600399 -151.954137 0 120 255
103.626303 -157.998067 -149.913126 0 120 255
103.686497 -159.395734 -147.872116 0 120 255
103.654054 -160.769337 -145.814461 0 120 255
103.611411 -162.140290 -143.754973 0 120 255
103.568768 -163.511244 -141.695485 0 120 255
103.526126 -164.882197 -139.635997 0 120 255
103.384026 -166.226942 -137.564157 0 120 255
103.225527 -167.567365 -135.490280 0 120 255
103.067027 -168.907788 -133.416403 0 120 255
102.908527 -170.248212 -131.342526 0 120 255
102.644669 -171.560327 -129.261933 0 120 255
102.357094 -172.866070 -127.179829 0 120 255
102.069519 -174.171813 -125.097725 0 120 255
101.781944 -175.477556 -123.015621 0 120 255
101.384249 -176.752947 -120.933738 0 120 255
100.954454 -178.019491 -118.851920 0 120 255
100.524659 -179.286034 -116.770102 0 120 255
100.094864 -180.552577 -114.688284 0 120 255
99.551587 -181.786769 -112.614801 0 120 255
98.966876 -183.009148 -110.544360 0 120 255
98.382166 -184.231527 -108.473920 0 120 255
97.797455 -185.453907 -106.403479 0 120 255
97.097551 -186.642044 -104.350507 0 120 255
96.346141 -187.814870 -102.305346 0 120 255
95.594732 -188.987696 -100.260185 0 120 255
94.843322 -190.160523 -98.215024 0 120 255
93.976916 -191.297372 -96.197226 0 120 255
93.048520 -192.414826 -94.194179 0 120 255
92.120123 -193.532281 -92.191133 0 120 255
91.191727 -194.649736 -90.188086 0 120 255
90.150639 -195.729746 -88.222746 0 120 255
89.037114 -196.785686 -86.281645 0 120 255
87.923589 -197.841627 -84.340544 0 120 255
86.810064 -198.897567 -82.399443 0 120 255
85.588429 -199.914955 -80.506410 0 120 255
84.284542 -200.903011 -78.649950 0 120 255
82.980655 -201.891067 -76.793489 0 120 255
81.676768 -202.879124 -74.937029 0 120 255
80.271669 -203.828013 -73.138541 0 120 255
78.775859 -204.741800 -71.392010 0 120 255
77.280050 -205.655586 -69.645479 0 120 255
75.784241 -206.569373 -67.898948 0 120 255
74.196375 -207.444009 -66.219285 0 120 255
72.511557 -208.277413 -64.610046 0 120 255
70.826739 -209.110816 -63.000808 0 120 255
69.141921 -209.944219 -61.391569 0 120 255
67.376221 -210.739211 -59.856518 0 120 255
65.510440 -211.486675 -58.413264 0 120 255
63.644659 -212.234139 -56.970011 0 120 255
61.778878 -212.981602 -55.526757 0 120 255
59.845026 -213.692217 -54.162880 0 120 255
57.812015 -214.349152 -52.914631 0 120 255
55.779005 -215.006088 -51.666382 0 120 255
53.745994 -215.663023 -50.418133 0 120 255
51.658784 -216.285525 -49.251861 0 120 255
49.478222 -216.848719 -48.226783 0 120 255
47.297661 -217.411914 -47.201705 0 120 255
45.117099 -217.975109 -46.176626 0 120 255
42.896561 -218.507108 -45.233196 0 120 255
40.594026 -218.975121 -44.457234 0 120 255
38.291490 -219.443135 -43.681273 0 120 255
35.988955 -219.911148 -42.905311 0 120 255
33.660202 -220.351932 -42.207605 0 120 255
31.266719 -220.725487 -41.703108 0 120 255
28.873236 -221.099042 -41.198611 0 120 255
26.479753 -221.472597 -40.694114 0 120 255
24.072502 -221.823433 -40.261503 0 120 255
21.623694 -222.105689 -40.045885 0 120 255
19.174885 -222.387944 -39.830266 0 120 255
16.726077 -222.670199 -39.614647 0 120 255
14.273846 -222.934543 -39.461913 0 120 255
11.808698 -223.131276 -39.546543 0 120 255
9.343550 -223.328009 -39.631172 0 120 255
6.878402 -223.524742 -39.715802 0 120 255
4.417415 -223.708371 -39.852244 0 120 255
1.976744 -223.828025 -40.241642 0 120 255
-0.463927 -223.947679 -40.631039 0 120 255
-2.904598 -224.067333 -41.020436 0 120 255
-5.336732 -224.178356 -41.449255 0 120 255
-7.711986 -224.231874 -42.140722 0 120 255
-10.087240 -224.285393 -42.832189 0 120 255
-12.462494 -224.338911 -43.523656 0 120 255
-14.828227 -224.387623 -44.241683 0 120 255
-17.098734 -224.388254 -45.225359 0 120 255
-19.369241 -224.388886 -46.209035 0 120 255
-21.639749 -224.389518 -47.192711 0 120 255
-23.903050 -224.388217 -48.190491 0 120 255
-26.032686 -224.351084 -49.449894 0 120 255
-28.162321 -224.313950 -50.709296 0 120 255
-30.291957 -224.276817 -51.968698 0 120 255
-32.419647 -224.239472 -53.230962 0 120 255
-34.376511 -224.183544 -54.744361 0 120 255
-36.333376 -224.127616 -56.257759 0 120 255
-38.290240 -224.071688 -57.771158 0 120 255
-40.247105 -224.015760 -59.284557 0 120 255
-42.010935 -223.959355 -61.018335 0 120 255
-43.769022 -223.902935 -62.758671 0 120 255
-45.527109 -223.846516 -64.499008 0 120 255
-47.285195 -223.790096 -66.239344 0 120 255
-48.841080 -223.740298 -68.161331 0 120 255
-50.381843 -223.690995 -70.096904 0 120 255
-51.922605 -223.641691 -72.032477 0 120 255
-53.463368 -223.592388 -73.968049 0 120 255
-54.799407 -223.550899 -76.048499 0 120 255
-56.109993 -223.510381 -78.146962 0 120 255
-57.420578 -223.469863 -80.245425 0 120 255
-58.731164 -223.429346 -82.343888 0 120 255
-59.840719 -223.396934 -84.553234 0 120 255
-60.914294 -223.365974 -86.782427 0 120 255
-61.987870 -223.335013 -89.011619 0 120 255
-63.061446 -223.304053 -91.240812 0 120 255
-63.942385 -223.280519 -93.550737 0 120 255
-64.777202 -223.258762 -95.879992 0 120 255
-65.612019 -223.237006 -98.209247 0 120 255
-66.446835 -223.215250 -100.538503 0 120 255
-67.100981 -223.200343 -102.922564 0 120 255
-67.699720 -223.187536 -105.323432 0 120 255
-68.298460 -223.174730 -107.724301 0 120 255
-68.897199 -223.161923 -110.125169 0 120 255
-69.329688 -223.155282 -112.559248 0 120 255
-69.698695 -223.150994 -115.006009 0 120 255
-70.067701 -223.146707 -117.452770 0 120 255
-70.436707 -223.142420 -119.899530 0 120 255
-70.655412 -223.143678 -122.362114 0 120 255
-70.804004 -223.147523 -124.832079 0 120 255
-70.952597 -223.151369 -127.302044 0 120 255
-71.101190 -223.155214 -129.772009 0 120 255
-71.116011 -223.163935 -132.244345 0 120 255
-71.055599 -223.175399 -134.718015 0 120 255
-70.995186 -223.186863 -137.191685 0 120 255
-70.934774 -223.198327 -139.665354 0 120 255
-70.757051 -223.214011 -142.131463 0 120 255
-70.500492 -223.232531 -144.592490 0 120 255
-70.243932 -223.251051 -147.053518 0 120 255
-69.987373 -223.269571 -149.514545 0 120 255
-69.629318 -223.291741 -151.961119 0 120 255
-69.190225 -223.316827 -154.396153 0 120 255
-68.751132 -223.341913 -156.831187 0 120 255
-68.312039 -223.366999 -159.266221 0 120 255
-67.786239 -223.395185 -161.682439 0 120 255
-67.178441 -223.426305 -164.080862 0 120 255
-66.570642 -223.457424 -166.479285 0 120 255
-65.962843 -223.488544 -168.877709 0 120 255
-65.281910 -223.522241 -171.255002 0 120 255
-64.519109 -223.558824 -173.608641 0 120 255
-63.756308 -223.595406 -175.962280 0 120 255
-62.993507 -223.631989 -178.315920 0 120 255
-62.169840 -223.670701 -180.647730 0 120 255
-61.265373 -223.712238 -182.950562 0 120 255
-60.360906 -223.753776 -185.253394 0 120 255
-59.456439 -223.795314 -187.556227 0 120 255
-58.501962 -223.838591 -189.837727 0 120 255
-57.468414 -223.884616 -192.085500 0 120 255
-56.434866 -223.930642 -194.333273 0 120 255
-55.401319 -223.976668 -196.581045 0 120 255
-54.327274 -224.024091 -198.808854 0 120 255
-53.176404 -224.074167 -200.998788 0 120 255
-52.025534 -224.124242 -203.188723 0 120 255
-50.874664 -224.174317 -205.378657 0 120 255
-49.691557 -224.225497 -207.550597 0 120 255
-48.434263 -224.279222 -209.681124 0 120 255
-47.176969 -224.332947 -211.811652 0 120 255
-45.919675 -224.386672 -213.942179 0 120 255
-44.637219 -224.441258 -216.057044 0 120 255
-43.283376 -224.498285 -218.127474 0 120 255
-41.929533 -224.555313 -220.197903 0 120 255
-40.575690 -224.612340 -222.268333 0 120 255
-39.202726 -224.670012 -224.325647 0 120 255
-37.761296 -224.729994 -226.335996 0 120 255
-36.319866 -224.789975 -228.346345 0 120 255
-34.878436 -224.849956 -230.356695 0 120 255
-33.423008 -224.910409 -232.356560 0 120 255
-31.902035 -224.973075 -234.307339 0 120 255
-30.381063 -225.035741 -236.258117 0 120 255
-28.860090 -225.098406 -238.208896 0 120 255
-27.329445 -225.161395 -240.151825 0 120 255
-25.736115 -225.226476 -242.043884 0 120 255
-24.142785 -225.291556 -243.935943 0 120 255
-22.549455 -225.356637 -245.828002 0 120 255
-20.950093 -225.421918 -247.714787 0 120 255
-19.290728 -225.489194 -249.549128 0 120 255
-17.631364 -225.556470 -251.383469 0 120 255
-15.971999 -225.623747 -253.217809 0 120 255
-14.309670 -225.691121 -255.049373 0 120 255
-12.589849 -225.760393 -256.827079 0 120 255
-10.870028 -225.829666 -258.604784 0 120 255
-9.150207 -225.898938 -260.382490 0 120 255
-7.430012 -225.968223 -262.159823 0 120 255
-5.654648 -226.039310 -263.881988 0 120 255
-3.879285 -226.110396 -265.604153 0 120 255
-2.103921 -226.181483 -267.326318 0 120 255
-0.328557 -226.252569 -269.048483 0 120 255
1.496275 -226.325266 -270.718014 0 120 255
3.322932 -226.398023 -272.385602 0 120 255
5.149590 -226.470780 -274.053190 0 120 255
6.976247 -226.543536 -275.720779 0 120 255
8.846819 -226.617702 -277.338775 0 120 255
10.721101 -226.691987 -278.952581 0 120 255
12.595383 -226.766272 -280.566387 0 120 255
14.469665 -226.840557 -282.180193 0 120 255
16.383044 -226.916096 -283.747225 0 120 255
18.301765 -226.991807 -285.307866 0 120 255
20.220486 -227.067517 -286.868507 0 120 255
22.139207 -227.143228 -288.429148 0 120 255
24.092908 -227.220052 -289.945510 0 120 255
26.053398 -227.297092 -291.453279 0 120 255
28.013887 -227.374131 -292.961049 0 120 255
29.974376 -227.451171 -294.468818 0 120 255
31.966277 -227.529188 -295.934546 0 120 255
33.966267 -227.607456 -297.389446 0 120 255
35.966258 -227.685724 -298.844346 0 120 255
37.966249 -227.763993 -300.299246 0 120 255
39.994517 -227.843156 -301.714129 0 120 255
42.032064 -227.922614 -303.115881 0 120 255
44.069612 -228.002072 -304.517632 0 120 255
46.107160 -228.081530 -305.919384 0 120 255
48.170229 -228.161802 -307.282932 0 120 255
50.243690 -228.242406 -308.630926 0 120 255
52.317150 -228.323010 -309.978920 0 120 255
54.390610 -228.403613 -311.326913 0 120 255
56.487131 -228.484927 -312.638356 0 120 255
58.595094 -228.566592 -313.931664 0 120 255
60.703057 -228.648257 -315.224972 0 120 255
62.811020 -228.729922 -316.518279 0 120 255
64.939872 -228.812087 -317.776479 0 120 255
67.081196 -228.894549 -319.013714 0 120 255
69.222521 -228.977012 -320.250949 0 120 255
71.363846 -229.059474 -321.488184 0 120 255
73.524225 -229.141768 -322.691400 0 120 255
75.698183 -229.223942 -323.870372 0 120 255
77.872142 -229.306115 -325.049343 0 120 255
80.046100 -229.388289 -326.228315 0 120 255
82.237970 -229.467378 -327.373311 0 120 255
84.444992 -229.543857 -328.489567 0 120 255
86.652014 -229.620337 -329.605822 0 120 255
88.859036 -229.696816 -330.722078 0 120 255
91.082800 -229.766200 -331.804390 0 120 255
93.323322 -229.828482 -332.852725 0 120 255
95.563843 -229.890763 -333.901059 0 120 255
97.804365 -229.953045 -334.949394 0 120 255
100.060112 -230.005440 -335.964268 0 120 255
102.333886 -230.046129 -336.939519 0 120 255
104.607661 -230.086817 -337.914770 0 120 255
106.881436 -230.127505 -338.890022 0 120 255
109.168698 -230.156820 -339.832602 0 120 255
111.474898 -230.170169 -340.729311 0 120 255
113.781097 -230.183517 -341.626021 0 120 255
116.087297 -230.196865 -342.522730 0 120 255
118.405096 -230.198168 -343.387884 0 120 255
120.742301 -230.179320 -344.200250 0 120 255
123.079507 -230.160473 -345.012616 0 120 255
125.416712 -230.141626 -345.824982 0 120 255
127.763537 -230.110758 -346.607278 0 120 255
130.129691 -230.055741 -347.329158 0 120 255
132.495845 -230.000723 -348.051039 0 120 255
134.861999 -229.945705 -348.772920 0 120 255
137.235766 -229.879301 -349.466639 0 120 255
139.628124 -229.785092 -350.091595 0 120 255
142.020482 -229.690884 -350.716550 0 120 255
144.412840 -229.596675 -351.341506 0 120 255
146.810855 -229.492199 -351.940678 0 120 255
149.225953 -229.356722 -352.461997 0 120 255
151.641050 -229.221245 -352.983316 0 120 255
154.056147 -229.085768 -353.504635 0 120 255
156.475077 -228.941524 -354.003069 0 120 255
158.908686 -228.763706 -354.413861 0 120 255
161.342295 -228.585887 -354.824653 0 120 255
163.775904 -228.408069 -355.235445 0 120 255
166.211784 -228.223246 -355.626480 0 120 255
168.659127 -228.003062 -355.917774 0 120 255
171.106470 -227.782878 -356.209069 0 120 255
173.553813 -227.562694 -356.500363 0 120 255
176.001165 -227.341113 -356.790480 0 120 255
178.448581 -227.109656 -357.072275 0 120 255
180.895996 -226.878200 -357.354070 0 120 255
183.343411 -226.646743 -357.635865 0 120 255
185.790826 -226.415285 -357.917661 0 120 255
188.238239 -226.183818 -358.199469 0 120 255
190.685652 -225.952350 -358.481276 0 120 255
193.133064 -225.720882 -358.763084 0 120 255
195.580477 -225.489415 -359.044891 0 120 255
198.027891 -225.257951 -359.326691 0 120 255
200.475305 -225.026488 -359.608491 0 120 255
202.922719 -224.795024 -359.890291 0 120 255
205.370133 -224.563560 -360.172091 0 120 255
