ply
format ascii 1.0
element vertex 385
property float x
property float y
property float z
property uchar red
property uchar green
property uchar blue
end_header
77.430455 -42.474882 -360.397637 0 120 255
77.187558 -42.528710 -357.935985 0 120 255
76.944660 -42.582538 -355.474333 0 120 255
76.701763 -42.636367 -353.012681 0 120 255
76.458865 -42.690195 -350.551029 0 120 255
76.213832 -42.753927 -348.089827 0 120 255
75.968707 -42.818090 -345.628643 0 120 255
75.723581 -42.882253 -343.167460 0 120 255
75.478455 -42.946415 -340.706277 0 120 255
75.068234 -43.406343 -338.313655 0 120 255
74.642979 -43.902309 -335.927277 0 120 255
74.217724 -44.398276 -333.540898 0 120 255
73.792469 -44.894242 -331.154520 0 120 255
73.233606 -45.675401 -328.877977 0 120 255
72.654997 -46.498710 -326.617667 0 120 255
72.076388 -47.322018 -324.357357 0 120 255
71.497779 -48.145326 -322.097047 0 120 255
70.818124 -49.168548 -319.952442 0 120 255
70.117201 -50.233850 -317.832190 0 120 255
69.416278 -51.299151 -315.711939 0 120 255
68.715354 -52.364452 -313.591687 0 120 255
67.946566 -53.566691 -311.572827 0 120 255
67.158780 -54.807263 -309.582350 0 120 255
66.370993 -56.047835 -307.591873 0 120 255
65.583207 -57.288408 -305.601396 0 120 255
64.759471 -58.624777 -303.690586 0 120 255
63.922889 -59.995375 -301.808242 0 120 255
63.086307 -61.365973 -299.925899 0 120 255
62.249726 -62.736572 -298.043555 0 120 255
61.406273 -64.179583 -296.220363 0 120 255
60.559768 -65.654752 -294.423440 0 120 255
59.713264 -67.129921 -292.626517 0 120 255
58.866759 -68.605090 -290.829593 0 120 255
58.038325 -70.141633 -289.077148 0 120 255
57.219691 -71.711459 -287.348822 0 120 255
56.401056 -73.281284 -285.620495 0 120 255
55.582421 -74.851110 -283.892169 0 120 255
54.801750 -76.478378 -282.200965 0 120 255
54.045925 -78.143240 -280.534055 0 120 255
53.290100 -79.808103 -278.867145 0 120 255
52.534274 -81.472965 -277.200235 0 120 255
51.830838 -83.194156 -275.569706 0 120 255
51.168472 -84.959508 -273.967697 0 120 255
50.506107 -86.724860 -272.365689 0 120 255
49.843742 -88.490212 -270.763681 0 120 255
49.242817 -90.310596 -269.202004 0 120 255
48.699356 -92.182450 -267.678049 0 120 255
48.155895 -94.054303 -266.154093 0 120 255
47.612433 -95.926157 -264.630138 0 120 255
47.134640 -97.849850 -263.152802 0 120 255
46.730026 -99.831313 -261.727417 0 120 255
46.325413 -101.812775 -260.302033 0 120 255
45.920799 -103.794238 -258.876649 0 120 255
45.582103 -105.821844 -257.504286 0 120 255
45.331060 -107.910807 -256.202427 0 120 255
45.080017 -109.999770 -254.900568 0 120 255
44.828973 -112.088733 -253.598709 0 120 255
44.641112 -114.215850 -252.354641 0 120 255
44.553924 -116.403762 -251.202657 0 120 255
44.466736 -118.591674 -250.050674 0 120 255
44.379549 -120.779585 -248.898690 0 120 255
44.350755 -122.996087 -247.806484 0 120 255
44.434284 -125.267581 -246.829262 0 120 255
44.517813 -127.539076 -245.852041 0 120 255
44.601343 -129.810570 -244.874819 0 120 255
44.737224 -132.100503 -243.956067 0 120 255
44.996054 -134.433738 -243.174627 0 120 255
45.254884 -136.766973 -242.393187 0 120 255
45.513713 -139.100208 -241.611747 0 120 255
45.818161 -141.442181 -240.884183 0 120 255
46.255597 -143.809627 -240.313679 0 120 255
46.693033 -146.177073 -239.743175 0 120 255
47.130469 -148.544519 -239.172671 0 120 255
47.606436 -150.912419 -238.648627 0 120 255
48.225303 -153.281999 -238.296892 0 120 255
48.844171 -155.651580 -237.945157 0 120 255
49.463038 -158.021161 -237.593423 0 120 255
50.113132 -160.385120 -237.278673 0 120 255
50.916175 -162.721549 -237.145078 0 120 255
51.719219 -165.057978 -237.011484 0 120 255
52.522262 -167.394407 -236.877890 0 120 255
53.349037 -169.721930 -236.770742 0 120 255
54.338996 -171.988210 -236.845454 0 120 255
55.328955 -174.254490 -236.920166 0 120 255
56.318914 -176.520770 -236.994878 0 120 255
57.324888 -178.777978 -237.085573 0 120 255
58.504109 -180.937049 -237.349161 0 120 255
59.683329 -183.096120 -237.612749 0 120 255
60.862549 -185.255191 -237.876338 0 120 255
62.049875 -187.408194 -238.146728 0 120 255
63.419618 -189.424655 -238.570189 0 120 255
64.789360 -191.441115 -238.993651 0 120 255
66.159102 -193.457576 -239.417113 0 120 255
67.528980 -195.473911 -239.840661 0 120 255
69.088373 -197.315859 -240.385774 0 120 255
70.647766 -199.157807 -240.930886 0 120 255
72.207160 -200.999755 -241.475999 0 120 255
73.766553 -202.841702 -242.021111 0 120 255
75.503825 -204.490750 -242.638363 0 120 255
77.248676 -206.131578 -243.258687 0 120 255
78.993527 -207.772407 -243.879012 0 120 255
80.738378 -209.413236 -244.499336 0 120 255
82.645337 -210.851567 -245.139864 0 120 255
84.566816 -212.271759 -245.782202 0 120 255
86.488295 -213.691952 -246.424539 0 120 255
88.409774 -215.112145 -247.066877 0 120 255
90.473302 -216.329298 -247.677809 0 120 255
92.556817 -217.517882 -248.284322 0 120 255
94.640332 -218.706467 -248.890836 0 120 255
96.723847 -219.895051 -249.497349 0 120 255
98.924939 -220.889088 -250.023939 0 120 255
101.149147 -221.844875 -250.534816 0 120 255
103.373355 -222.800662 -251.045694 0 120 255
105.597563 -223.756449 -251.556571 0 120 255
107.910906 -224.534454 -251.944763 0 120 255
110.247247 -225.266587 -252.301299 0 120 255
112.583587 -225.998721 -252.657836 0 120 255
114.919928 -226.730855 -253.014373 0 120 255
117.313838 -227.308999 -253.213617 0 120 255
119.726509 -227.836962 -253.361603 0 120 255
122.139181 -228.364925 -253.509589 0 120 255
124.551852 -228.892888 -253.657576 0 120 255
126.988718 -229.295830 -253.623613 0 120 255
129.435294 -229.648605 -253.516641 0 120 255
131.881870 -230.001380 -253.409669 0 120 255
134.328446 -230.354155 -253.302697 0 120 255
136.765628 -230.613878 -253.000208 0 120 255
139.198249 -230.828412 -252.602771 0 120 255
141.630871 -231.042946 -252.205334 0 120 255
144.063492 -231.257480 -251.807897 0 120 255
146.454631 -231.412612 -251.212705 0 120 255
148.821683 -231.533249 -250.502676 0 120 255
151.188734 -231.653887 -249.792647 0 120 255
153.555785 -231.774524 -249.082618 0 120 255
155.852557 -231.867724 -248.183109 0 120 255
158.100901 -231.942018 -247.153033 0 120 255
160.349245 -232.016312 -246.122957 0 120 255
162.597589 -232.090606 -245.092880 0 120 255
164.751809 -232.147793 -243.890371 0 120 255
166.829384 -232.191050 -242.547450 0 120 255
168.906959 -232.234307 -241.204530 0 120 255
170.984534 -232.277564 -239.861609 0 120 255
172.948596 -232.309200 -238.368637 0 120 255
174.803661 -232.329677 -236.731585 0 120 255
176.658727 -232.350154 -235.094533 0 120 255
178.513792 -232.370631 -233.457481 0 120 255
180.241746 -232.384075 -231.696799 0 120 255
181.825924 -232.389563 -229.796279 0 120 255
183.410102 -232.395051 -227.895758 0 120 255
184.994279 -232.400539 -225.995238 0 120 255
186.444619 -232.402590 -223.999704 0 120 255
187.716289 -232.400053 -221.877329 0 120 255
188.987959 -232.397515 -219.754954 0 120 255
190.259628 -232.394977 -217.632579 0 120 255
191.397597 -232.391187 -215.443665 0 120 255
192.323989 -232.385416 -213.149457 0 120 255
193.250380 -232.379644 -210.855249 0 120 255
194.176771 -232.373873 -208.561040 0 120 255
194.975922 -232.367910 -206.226665 0 120 255
195.534660 -232.361588 -203.816395 0 120 255
196.093398 -232.355265 -201.406126 0 120 255
196.652136 -232.348942 -198.995856 0 120 255
197.095373 -232.342701 -196.568098 0 120 255
197.275230 -232.336646 -194.100459 0 120 255
197.455087 -232.330591 -191.632821 0 120 255
197.634944 -232.324536 -189.165182 0 120 255
197.714937 -232.318372 -186.697934 0 120 255
197.515792 -232.311906 -184.231778 0 120 255
197.316647 -232.305439 -181.765622 0 120 255
197.117502 -232.298973 -179.299465 0 120 255
196.836488 -232.292018 -176.846194 0 120 255
196.268623 -232.283355 -174.438066 0 120 255
195.700757 -232.274692 -172.029938 0 120 255
195.132892 -232.266029 -169.621810 0 120 255
194.501999 -232.256534 -167.233574 0 120 255
193.584889 -232.243260 -164.935671 0 120 255
192.667780 -232.229987 -162.637767 0 120 255
191.750670 -232.216714 -160.339864 0 120 255
190.788854 -232.202440 -158.063684 0 120 255
189.549630 -232.181957 -155.922299 0 120 255
188.310405 -232.161474 -153.780914 0 120 255
187.071181 -232.140991 -151.639529 0 120 255
185.803908 -232.119578 -149.517149 0 120 255
184.275567 -232.089501 -147.571669 0 120 255
182.747225 -232.059423 -145.626188 0 120 255
181.218884 -232.029346 -143.680708 0 120 255
179.676647 -231.998640 -141.747791 0 120 255
177.896291 -231.957155 -140.030165 0 120 255
176.115935 -231.915671 -138.312539 0 120 255
174.335579 -231.874187 -136.594913 0 120 255
172.552423 -231.832539 -134.880613 0 120 255
170.559537 -231.778680 -133.415303 0 120 255
168.566651 -231.724821 -131.949994 0 120 255
166.573765 -231.670962 -130.484685 0 120 255
164.580879 -231.617103 -129.019375 0 120 255
162.420797 -231.551280 -127.815853 0 120 255
160.255743 -231.485102 -126.620116 0 120 255
158.090688 -231.418924 -125.424379 0 120 255
155.925634 -231.352746 -124.228642 0 120 255
153.637752 -231.276270 -123.293211 0 120 255
151.340482 -231.199006 -122.377673 0 120 255
149.043213 -231.121743 -121.462135 0 120 255
146.745943 -231.044479 -120.546597 0 120 255
144.365609 -230.959619 -119.883728 0 120 255
141.974672 -230.873788 -119.253109 0 120 255
139.583735 -230.787957 -118.622491 0 120 255
137.192798 -230.702126 -117.991872 0 120 255
134.753496 -230.612450 -117.601579 0 120 255
132.305293 -230.522067 -117.255516 0 120 255
129.857090 -230.431683 -116.909453 0 120 255
127.408887 -230.341299 -116.563390 0 120 255
124.941869 -230.250828 -116.442001 0 120 255
122.470214 -230.160334 -116.375973 0 120 255
119.998559 -230.069841 -116.309945 0 120 255
117.526904 -229.979347 -116.243917 0 120 255
115.061111 -229.889954 -116.385107 0 120 255
112.597168 -229.800909 -116.591706 0 120 255
110.133226 -229.711864 -116.798305 0 120 255
107.669283 -229.622819 -117.004904 0 120 255
105.231323 -229.535470 -117.400018 0 120 255
102.803576 -229.448789 -117.869224 0 120 255
100.375828 -229.362108 -118.338430 0 120 255
97.948080 -229.275427 -118.807636 0 120 255
95.562238 -229.190901 -119.446104 0 120 255
93.196512 -229.107410 -120.165823 0 120 255
90.830786 -229.023919 -120.885542 0 120 255
88.465060 -228.940428 -121.605261 0 120 255
86.153358 -228.859455 -122.474971 0 120 255
83.872913 -228.779940 -123.431462 0 120 255
81.592468 -228.700425 -124.387953 0 120 255
79.312023 -228.620909 -125.344444 0 120 255
77.094341 -228.544155 -126.432103 0 120 255
74.920035 -228.469308 -127.610415 0 120 255
72.745730 -228.394462 -128.788727 0 120 255
70.571424 -228.319616 -129.967039 0 120 255
68.465675 -228.247686 -131.258509 0 120 255
66.416200 -228.178149 -132.642867 0 120 255
64.366726 -228.108613 -134.027224 0 120 255
62.317251 -228.039077 -135.411582 0 120 255
60.339525 -227.972508 -136.892055 0 120 255
58.431544 -227.908824 -138.465960 0 120 255
56.523562 -227.845140 -140.039865 0 120 255
54.615580 -227.781456 -141.613770 0 120 255
52.780309 -227.720721 -143.267922 0 120 255
51.028690 -227.663380 -145.014395 0 120 255
49.277071 -227.606038 -146.760868 0 120 255
47.525452 -227.548696 -148.507341 0 120 255
45.845541 -227.494209 -150.319428 0 120 255
44.263454 -227.443617 -152.221024 0 120 255
42.681367 -227.393025 -154.122620 0 120 255
41.099280 -227.342433 -156.024216 0 120 255
39.586194 -227.294552 -157.978113 0 120 255
38.185222 -227.251077 -160.016988 0 120 255
36.784251 -227.207601 -162.055864 0 120 255
35.383279 -227.164126 -164.094740 0 120 255
34.047142 -227.123164 -166.173995 0 120 255
32.837409 -227.087103 -168.331973 0 120 255
31.627675 -227.051042 -170.489952 0 120 255
30.417942 -227.014981 -172.647930 0 120 255
29.267589 -226.981193 -174.835785 0 120 255
28.257723 -226.952781 -177.094321 0 120 255
27.247856 -226.924369 -179.352858 0 120 255
26.237990 -226.895957 -181.611395 0 120 255
25.280954 -226.869546 -183.890778 0 120 255
24.478081 -226.848976 -186.230992 0 120 255
23.675208 -226.828407 -188.571205 0 120 255
22.872335 -226.807837 -190.911418 0 120 255
22.114813 -226.788969 -193.264965 0 120 255
21.524464 -226.776375 -195.667663 0 120 255
20.934114 -226.763781 -198.070360 0 120 255
20.343764 -226.751187 -200.473057 0 120 255
19.790555 -226.739975 -202.883146 0 120 255
19.416645 -226.735432 -205.328918 0 120 255
19.042736 -226.730888 -207.774689 0 120 255
18.668826 -226.726345 -210.220460 0 120 255
18.323306 -226.722845 -212.669288 0 120 255
18.168026 -226.726341 -215.138600 0 120 255
18.012746 -226.729837 -217.607913 0 120 255
17.857465 -226.733333 -220.077225 0 120 255
17.721484 -226.737531 -222.546892 0 120 255
17.785139 -226.748990 -225.020239 0 120 255
17.848793 -226.760449 -227.493585 0 120 255
17.912448 -226.771908 -229.966932 0 120 255
17.986194 -226.783731 -232.439571 0 120 255
18.267090 -226.803035 -234.897691 0 120 255
18.547986 -226.822339 -237.355810 0 120 255
18.828881 -226.841642 -239.813930 0 120 255
19.110798 -226.860983 -242.271887 0 120 255
19.605246 -226.887949 -244.696020 0 120 255
20.099693 -226.914916 -247.120152 0 120 255
20.594141 -226.941882 -249.544285 0 120 255
21.088589 -226.968848 -251.968418 0 120 255
21.783303 -227.002919 -254.342487 0 120 255
22.485689 -227.037262 -256.714638 0 120 255
23.188076 -227.071605 -259.086789 0 120 255
23.890462 -227.105948 -261.458940 0 120 255
24.777495 -227.146781 -263.767593 0 120 255
25.680273 -227.188166 -266.070831 0 120 255
26.583051 -227.229552 -268.374069 0 120 255
27.485829 -227.270937 -270.677307 0 120 255
28.556784 -227.318162 -272.906168 0 120 255
29.650731 -227.366184 -275.124862 0 120 255
30.744678 -227.414207 -277.343555 0 120 255
31.838625 -227.462230 -279.562248 0 120 255
33.083781 -227.515456 -281.698281 0 120 255
34.358163 -227.569687 -283.818337 0 120 255
35.632544 -227.623918 -285.938393 0 120 255
36.906926 -227.678150 -288.058449 0 120 255
38.315437 -227.736934 -290.090113 0 120 255
39.758259 -227.796884 -292.099167 0 120 255
41.201080 -227.856834 -294.108221 0 120 255
42.643902 -227.916783 -296.117275 0 120 255
44.204017 -227.980661 -298.034663 0 120 255
45.802285 -228.045816 -299.922232 0 120 255
47.400554 -228.110971 -301.809802 0 120 255
48.998823 -228.176127 -303.697371 0 120 255
50.698120 -228.244633 -305.492293 0 120 255
52.438126 -228.314488 -307.249884 0 120 255
54.178132 -228.384344 -309.007475 0 120 255
55.918138 -228.454200 -310.765066 0 120 255
57.743808 -228.526902 -312.431065 0 120 255
59.611484 -228.600999 -314.052152 0 120 255
61.479160 -228.675096 -315.673239 0 120 255
63.346836 -228.749193 -317.294326 0 120 255
65.285914 -228.825755 -318.826674 0 120 255
67.267077 -228.903770 -320.306719 0 120 255
69.248240 -228.981785 -321.786764 0 120 255
71.229404 -229.059800 -323.266808 0 120 255
73.268958 -229.139809 -324.662534 0 120 255
75.349544 -229.221220 -325.999006 0 120 255
77.430130 -229.302631 -327.335479 0 120 255
79.510717 -229.384042 -328.671951 0 120 255
81.637885 -229.466015 -329.930185 0 120 255
83.803878 -229.548456 -331.123207 0 120 255
85.969872 -229.630896 -332.316229 0 120 255
88.135865 -229.713337 -333.509251 0 120 255
90.337511 -229.790534 -334.632810 0 120 255
92.574314 -229.862559 -335.687870 0 120 255
94.811117 -229.934584 -336.742930 0 120 255
97.047920 -230.006609 -337.797990 0 120 255
99.311293 -230.068598 -338.792856 0 120 255
101.605665 -230.118877 -339.717493 0 120 255
103.900037 -230.169157 -340.642131 0 120 255
106.194409 -230.219436 -341.566769 0 120 255
108.508035 -230.256936 -342.440267 0 120 255
110.848300 -230.276754 -343.243008 0 120 255
113.188565 -230.296572 -344.045749 0 120 255
115.528830 -230.316389 -344.848490 0 120 255
117.882537 -230.322220 -345.608796 0 120 255
120.258409 -230.304988 -346.299132 0 120 255
122.634280 -230.287756 -346.989468 0 120 255
125.010152 -230.270524 -347.679804 0 120 255
127.394986 -230.239398 -348.335815 0 120 255
129.797572 -230.180754 -348.923835 0 120 255
132.200158 -230.122109 -349.511855 0 120 255
134.602744 -230.063465 -350.099874 0 120 255
137.010957 -229.992042 -350.660962 0 120 255
139.432719 -229.889850 -351.157198 0 120 255
141.854482 -229.787659 -351.653433 0 120 255
144.276244 -229.685467 -352.149668 0 120 255
146.701273 -229.572364 -352.625534 0 120 255
149.136031 -229.426761 -353.040723 0 120 255
151.570788 -229.281158 -353.455912 0 120 255
154.005546 -229.135556 -353.871101 0 120 255
156.442008 -228.981361 -354.271594 0 120 255
158.884915 -228.794694 -354.616541 0 120 255
161.327822 -228.608027 -354.961488 0 120 255
163.770728 -228.421360 -355.306435 0 120 255
166.214389 -228.228841 -355.641773 0 120 255
168.661808 -228.007146 -355.929210 0 120 255
171.109226 -227.785451 -356.216646 0 120 255
173.556645 -227.563755 -356.504083 0 120 255
176.004033 -227.340842 -356.790810 0 120 255
178.451209 -227.109408 -357.072578 0 120 255
180.898386 -226.877974 -357.354345 0 120 255
183.345562 -226.646540 -357.636113 0 120 255
185.792738 -226.415105 -357.917881 0 120 255
188.239912 -226.183660 -358.199661 0 120 255
190.687085 -225.952214 -358.481441 0 120 255
193.134259 -225.720769 -358.763221 0 120 255
195.581433 -225.489324 -359.045001 0 120 255
198.028608 -225.257883 -359.326773 0 120 255
200.475783 -225.026442 -359.608546 0 120 255
202.922958 -224.795001 -359.890318 0 120 255
205.370133 -224.563560 -360.172091 0 120 255
