ply
format ascii 1.0
element vertex 385
property float x
property float y
property float z
property uchar red
property uchar green
property uchar blue
end_header
77.430455 -42.474882 -360.397637 0 120 255
77.187577 -42.528706 -357.936175 0 120 255
76.944698 -42.582530 -355.474714 0 120 255
76.701819 -42.636354 -353.013253 0 120 255
76.458940 -42.690178 -350.551792 0 120 255
76.213702 -42.752361 -348.090762 0 120 255
75.968360 -42.814910 -345.629751 0 120 255
75.723019 -42.877460 -343.168740 0 120 255
75.477677 -42.940009 -340.707730 0 120 255
75.238031 -43.417167 -338.295344 0 120 255
74.998908 -43.932294 -335.887410 0 120 255
74.759784 -44.447420 -333.479477 0 120 255
74.520660 -44.962547 -331.071544 0 120 255
74.293293 -45.817257 -328.765047 0 120 255
74.067657 -46.722005 -326.473498 0 120 255
73.842022 -47.626754 -324.181949 0 120 255
73.616387 -48.531503 -321.890400 0 120 255
73.406672 -49.712293 -319.731056 0 120 255
73.200291 -50.950883 -317.599395 0 120 255
72.993911 -52.189474 -315.467734 0 120 255
72.787530 -53.428065 -313.336073 0 120 255
72.601330 -54.886407 -311.351211 0 120 255
72.420752 -56.405967 -309.407244 0 120 255
72.240175 -57.925527 -307.463277 0 120 255
72.059597 -59.445087 -305.519310 0 120 255
71.903373 -61.136412 -303.725732 0 120 255
71.755822 -62.888898 -301.985703 0 120 255
71.608271 -64.641385 -300.245675 0 120 255
71.460720 -66.393871 -298.505647 0 120 255
71.341530 -68.278144 -296.912419 0 120 255
71.234917 -70.220854 -295.384285 0 120 255
71.128305 -72.163563 -293.856151 0 120 255
71.021692 -74.106272 -292.328017 0 120 255
70.947238 -76.147936 -290.938619 0 120 255
70.890231 -78.243284 -289.624486 0 120 255
70.833225 -80.338633 -288.310354 0 120 255
70.776218 -82.433981 -286.996221 0 120 255
70.754945 -84.601509 -285.810025 0 120 255
70.757103 -86.816368 -284.707721 0 120 255
70.759261 -89.031227 -283.605417 0 120 255
70.761420 -91.246085 -282.503113 0 120 255
70.802600 -93.511413 -281.516419 0 120 255
70.874466 -95.816428 -280.620642 0 120 255
70.946333 -98.121444 -279.724866 0 120 255
71.018200 -100.426460 -278.829089 0 120 255
71.132009 -102.764390 -278.035818 0 120 255
71.285192 -105.133218 -277.338778 0 120 255
71.438376 -107.502047 -276.641739 0 120 255
71.591559 -109.870876 -275.944699 0 120 255
71.789107 -112.258459 -275.336724 0 120 255
72.036281 -114.667020 -274.828379 0 120 255
72.283456 -117.075582 -274.320034 0 120 255
72.530631 -119.484143 -273.811688 0 120 255
72.823922 -121.900104 -273.378957 0 120 255
73.178734 -124.325935 -273.047097 0 120 255
73.533545 -126.751766 -272.715236 0 120 255
73.888357 -129.177597 -272.383376 0 120 255
74.290164 -131.601824 -272.113933 0 120 255
74.767006 -134.023492 -271.944149 0 120 255
75.243849 -136.445159 -271.774366 0 120 255
75.720691 -138.866827 -271.604583 0 120 255
76.244313 -141.279910 -271.484422 0 120 255
76.857931 -143.676479 -271.459723 0 120 255
77.471548 -146.073048 -271.435024 0 120 255
78.085166 -148.469617 -271.410325 0 120 255
78.744051 -150.852441 -271.423115 0 120 255
79.508967 -153.203071 -271.523717 0 120 255
80.273882 -155.553701 -271.624318 0 120 255
81.038798 -157.904331 -271.724919 0 120 255
81.846014 -160.237773 -271.851785 0 120 255
82.775764 -162.521422 -272.054736 0 120 255
83.705514 -164.805071 -272.257686 0 120 255
84.635264 -167.088721 -272.460636 0 120 255
85.602816 -169.353436 -272.679869 0 120 255
86.708938 -171.548744 -272.958789 0 120 255
87.815060 -173.744052 -273.237709 0 120 255
88.921181 -175.939360 -273.516630 0 120 255
90.059133 -178.115727 -273.803475 0 120 255
91.349986 -180.201106 -274.128392 0 120 255
92.640839 -182.286485 -274.453310 0 120 255
93.931691 -184.371864 -274.778227 0 120 255
95.247167 -186.440088 -275.104781 0 120 255
96.726618 -188.394067 -275.442228 0 120 255
98.206068 -190.348046 -275.779676 0 120 255
99.685518 -192.302025 -276.117124 0 120 255
101.181589 -194.242456 -276.452431 0 120 255
102.847617 -196.044342 -276.765856 0 120 255
104.513645 -197.846228 -277.079281 0 120 255
106.179674 -199.648114 -277.392705 0 120 255
107.854193 -201.441814 -277.703121 0 120 255
109.697653 -203.072628 -277.953683 0 120 255
111.541112 -204.703442 -278.204244 0 120 255
113.384572 -206.334256 -278.454805 0 120 255
115.229129 -207.963788 -278.704663 0 120 255
117.232765 -209.407483 -278.852541 0 120 255
119.236400 -210.851178 -279.000419 0 120 255
121.240036 -212.294873 -279.148298 0 120 255
123.243671 -213.738568 -279.296176 0 120 255
125.377098 -214.990169 -279.307001 0 120 255
127.515085 -216.235019 -279.313009 0 120 255
129.653073 -217.479869 -279.319017 0 120 255
131.791060 -218.724719 -279.325025 0 120 255
134.021756 -219.779987 -279.165972 0 120 255
136.259925 -220.819974 -278.993615 0 120 255
138.498094 -221.859960 -278.821257 0 120 255
140.736263 -222.899947 -278.648900 0 120 255
143.026355 -223.759457 -278.290688 0 120 255
145.323202 -224.595491 -277.908300 0 120 255
147.620049 -225.431524 -277.525912 0 120 255
149.916896 -226.267558 -277.143524 0 120 255
152.223569 -226.938708 -276.562815 0 120 255
154.532053 -227.579478 -275.945567 0 120 255
156.840536 -228.220249 -275.328318 0 120 255
159.149020 -228.861019 -274.711070 0 120 255
161.426577 -229.358259 -273.891942 0 120 255
163.696594 -229.820503 -273.023591 0 120 255
165.966611 -230.282748 -272.155241 0 120 255
168.236627 -230.744992 -271.286890 0 120 255
170.438822 -231.089604 -270.221736 0 120 255
172.620009 -231.397782 -269.095625 0 120 255
174.801197 -231.705959 -267.969513 0 120 255
176.982384 -232.014136 -266.843402 0 120 255
179.064844 -232.233450 -265.533357 0 120 255
181.109476 -232.418715 -264.152837 0 120 255
183.154108 -232.603980 -262.772316 0 120 255
185.198740 -232.789245 -261.391796 0 120 255
187.121255 -232.916379 -259.846698 0 120 255
188.986931 -233.016456 -258.224996 0 120 255
190.852608 -233.116533 -256.603295 0 120 255
192.718284 -233.216610 -254.981594 0 120 255
194.446749 -233.287892 -253.219217 0 120 255
196.098565 -233.343087 -251.378257 0 120 255
197.750382 -233.398283 -249.537297 0 120 255
199.402198 -233.453479 -247.696337 0 120 255
200.908687 -233.500527 -245.740304 0 120 255
202.318526 -233.542157 -243.707744 0 120 255
203.728365 -233.583787 -241.675184 0 120 255
205.138203 -233.625418 -239.642625 0 120 255
206.397989 -233.661953 -237.519408 0 120 255
207.539559 -233.694476 -235.324769 0 120 255
208.681128 -233.726998 -233.130130 0 120 255
209.822698 -233.759520 -230.935491 0 120 255
210.813738 -233.786760 -228.674397 0 120 255
211.664669 -233.809082 -226.351446 0 120 255
212.515599 -233.831405 -224.028496 0 120 255
213.366530 -233.853727 -221.705546 0 120 255
214.071069 -233.870680 -219.339454 0 120 255
214.614748 -233.881732 -216.925957 0 120 255
215.158426 -233.892785 -214.512459 0 120 255
215.702105 -233.903837 -212.098962 0 120 255
216.107835 -233.909809 -209.663669 0 120 255
216.334347 -233.909181 -207.200059 0 120 255
216.560859 -233.908552 -204.736450 0 120 255
216.787371 -233.907924 -202.272841 0 120 255
216.887993 -233.902693 -199.805851 0 120 255
216.794476 -233.890364 -197.333650 0 120 255
216.700959 -233.878035 -194.861448 0 120 255
216.607442 -233.865707 -192.389246 0 120 255
216.402769 -233.849364 -189.928458 0 120 255
215.993233 -233.825626 -187.488705 0 120 255
215.583696 -233.801887 -185.048952 0 120 255
215.174159 -233.778149 -182.609199 0 120 255
214.669868 -233.751032 -180.191652 0 120 255
213.954719 -233.716397 -177.823522 0 120 255
213.239571 -233.681763 -175.455391 0 120 255
212.524422 -233.647128 -173.087261 0 120 255
211.731579 -233.609760 -170.748048 0 120 255
210.726843 -233.564937 -168.487700 0 120 255
209.722106 -233.520113 -166.227351 0 120 255
208.717370 -233.475290 -163.967003 0 120 255
207.651729 -233.428362 -161.738380 0 120 255
206.378057 -233.374244 -159.618118 0 120 255
205.104386 -233.320126 -157.497856 0 120 255
203.830714 -233.266009 -155.377594 0 120 255
202.511882 -233.210357 -153.288336 0 120 255
200.993540 -233.147929 -151.336051 0 120 255
199.475197 -233.085501 -149.383766 0 120 255
197.956855 -233.023073 -147.431480 0 120 255
196.407433 -232.959611 -145.506472 0 120 255
194.671171 -232.889930 -143.745445 0 120 255
192.934909 -232.820250 -141.984418 0 120 255
191.198646 -232.750569 -140.223391 0 120 255
189.443308 -232.680270 -138.483482 0 120 255
187.517447 -232.604442 -136.932358 0 120 255
185.591585 -232.528613 -135.381234 0 120 255
183.665724 -232.452785 -133.830109 0 120 255
181.730460 -232.376662 -132.292110 0 120 255
179.644006 -232.295807 -130.965138 0 120 255
177.557553 -232.214952 -129.638166 0 120 255
175.471100 -232.134096 -128.311194 0 120 255
173.382483 -232.053176 -126.988075 0 120 255
171.164441 -231.968374 -125.895475 0 120 255
168.946399 -231.883572 -124.802874 0 120 255
166.728357 -231.798770 -123.710273 0 120 255
164.510315 -231.713968 -122.617673 0 120 255
162.191805 -231.626366 -121.759888 0 120 255
159.870644 -231.538690 -120.908297 0 120 255
157.549484 -231.451015 -120.056707 0 120 255
155.228324 -231.363339 -119.205117 0 120 255
152.836753 -231.273934 -118.581473 0 120 255
150.440056 -231.184402 -117.974427 0 120 255
148.043358 -231.094871 -117.367381 0 120 255
145.646661 -231.005340 -116.760335 0 120 255
143.206293 -230.915022 -116.371769 0 120 255
140.760523 -230.824607 -116.010223 0 120 255
138.314754 -230.734192 -115.648676 0 120 255
135.868984 -230.643777 -115.287130 0 120 255
133.403040 -230.553389 -115.132691 0 120 255
130.933473 -230.463006 -115.015451 0 120 255
128.463905 -230.372624 -114.898211 0 120 255
125.994337 -230.282241 -114.780972 0 120 255
123.525014 -230.192589 -114.858162 0 120 255
121.055750 -230.103114 -114.982292 0 120 255
118.586486 -230.013639 -115.106421 0 120 255
116.117222 -229.924164 -115.230551 0 120 255
113.665769 -229.836003 -115.535575 0 120 255
111.219839 -229.748251 -115.896689 0 120 255
108.773909 -229.660498 -116.257804 0 120 255
106.327979 -229.572746 -116.618918 0 120 255
103.914815 -229.486791 -117.146884 0 120 255
101.514323 -229.401531 -117.739379 0 120 255
99.113832 -229.316271 -118.331874 0 120 255
96.713340 -229.231012 -118.924369 0 120 255
94.358201 -229.147966 -119.669432 0 120 255
92.024509 -229.065967 -120.486644 0 120 255
89.690817 -228.983969 -121.303857 0 120 255
87.357125 -228.901970 -122.121069 0 120 255
85.079043 -228.822524 -123.076112 0 120 255
82.832679 -228.744533 -124.109768 0 120 255
80.586315 -228.666542 -125.143425 0 120 255
78.339951 -228.588552 -126.177081 0 120 255
76.157002 -228.513320 -127.333270 0 120 255
74.017273 -228.439969 -128.572970 0 120 255
71.877544 -228.366618 -129.812671 0 120 255
69.737814 -228.293267 -131.052371 0 120 255
67.666771 -228.222807 -132.399001 0 120 255
65.651339 -228.154689 -133.832204 0 120 255
63.635907 -228.086571 -135.265407 0 120 255
61.620474 -228.018453 -136.698610 0 120 255
59.676575 -227.953281 -138.223321 0 120 255
57.801260 -227.890935 -139.835768 0 120 255
55.925946 -227.828588 -141.448216 0 120 255
54.050631 -227.766241 -143.060663 0 120 255
52.247424 -227.706806 -144.749751 0 120 255
50.526040 -227.650676 -146.525804 0 120 255
48.804656 -227.594545 -148.301857 0 120 255
47.083272 -227.538415 -150.077910 0 120 255
45.432635 -227.485096 -151.916712 0 120 255
43.877171 -227.435558 -153.839927 0 120 255
42.321707 -227.386020 -155.763142 0 120 255
40.766243 -227.336482 -157.686357 0 120 255
39.278577 -227.289603 -159.659664 0 120 255
37.899507 -227.246984 -161.713204 0 120 255
36.520437 -227.204365 -163.766744 0 120 255
35.141367 -227.161745 -165.820285 0 120 255
33.825801 -227.121582 -167.912582 0 120 255
32.632235 -227.086135 -170.079336 0 120 255
31.438668 -227.050688 -172.246089 0 120 255
30.245101 -227.015242 -174.412843 0 120 255
29.109615 -226.982018 -176.608394 0 120 255
28.109428 -226.953974 -178.871029 0 120 255
27.109240 -226.925930 -181.133664 0 120 255
26.109053 -226.897886 -183.396299 0 120 255
25.160560 -226.871800 -185.679170 0 120 255
24.360455 -226.851334 -188.020130 0 120 255
23.560349 -226.830867 -190.361090 0 120 255
22.760244 -226.810401 -192.702049 0 120 255
22.004634 -226.791605 -195.056105 0 120 255
21.410144 -226.778860 -197.457583 0 120 255
20.815654 -226.766114 -199.859061 0 120 255
20.221165 -226.753369 -202.260540 0 120 255
19.663313 -226.741987 -204.669426 0 120 255
19.278815 -226.737054 -207.113360 0 120 255
18.894318 -226.732122 -209.557295 0 120 255
18.509820 -226.727190 -212.001229 0 120 255
18.153576 -226.723298 -214.448362 0 120 255
17.982191 -226.726213 -216.916417 0 120 255
17.810805 -226.729129 -219.384472 0 120 255
17.639420 -226.732044 -221.852528 0 120 255
17.487514 -226.735671 -224.321086 0 120 255
17.530877 -226.746432 -226.794683 0 120 255
17.574240 -226.757193 -229.268280 0 120 255
17.617604 -226.767954 -231.741877 0 120 255
17.671461 -226.779096 -234.214830 0 120 255
17.929576 -226.797637 -236.675260 0 120 255
18.187691 -226.816178 -239.135689 0 120 255
18.445805 -226.834719 -241.596118 0 120 255
18.705423 -226.853314 -244.056323 0 120 255
19.176554 -226.879499 -246.484908 0 120 255
19.647685 -226.905684 -248.913494 0 120 255
20.118817 -226.931869 -251.342080 0 120 255
20.589948 -226.958055 -253.770665 0 120 255
21.262954 -226.991416 -256.150807 0 120 255
21.943228 -227.025035 -258.529205 0 120 255
22.623502 -227.058655 -260.907602 0 120 255
23.303776 -227.092274 -263.286000 0 120 255
24.171957 -227.132481 -265.601614 0 120 255
25.055716 -227.173233 -267.912022 0 120 255
25.939475 -227.213985 -270.222431 0 120 255
26.823234 -227.254737 -272.532840 0 120 255
27.879670 -227.301494 -274.768388 0 120 255
28.959282 -227.349057 -276.993889 0 120 255
30.038894 -227.396619 -279.219390 0 120 255
31.118506 -227.444182 -281.444891 0 120 255
32.354549 -227.497128 -283.585929 0 120 255
33.620411 -227.551100 -285.710866 0 120 255
34.886272 -227.605072 -287.835804 0 120 255
36.152133 -227.659045 -289.960742 0 120 255
37.557536 -227.717753 -291.994219 0 120 255
38.998237 -227.777660 -294.004560 0 120 255
40.438938 -227.837566 -296.014900 0 120 255
41.879640 -227.897473 -298.025241 0 120 255
43.442788 -227.961494 -299.939752 0 120 255
45.045386 -228.026840 -301.823389 0 120 255
46.647985 -228.092187 -303.707025 0 120 255
48.250584 -228.157533 -305.590661 0 120 255
49.958743 -228.226385 -307.376681 0 120 255
51.709083 -228.296637 -309.123694 0 120 255
53.459422 -228.366889 -310.870707 0 120 255
55.209761 -228.437141 -312.617721 0 120 255
57.049321 -228.510310 -314.267842 0 120 255
58.932297 -228.584897 -315.870812 0 120 255
60.815274 -228.659484 -317.473783 0 120 255
62.698251 -228.734072 -319.076753 0 120 255
64.655107 -228.811142 -320.585755 0 120 255
66.655207 -228.889665 -322.039754 0 120 255
68.655306 -228.968189 -323.493754 0 120 255
70.655406 -229.046712 -324.947753 0 120 255
72.715308 -229.127079 -326.312664 0 120 255
74.816960 -229.208734 -327.615381 0 120 255
76.918611 -229.290389 -328.918099 0 120 255
79.020263 -229.372043 -330.220816 0 120 255
81.168998 -229.454333 -331.441223 0 120 255
83.356735 -229.537149 -332.593451 0 120 255
85.544471 -229.619966 -333.745679 0 120 255
87.732208 -229.702782 -334.897906 0 120 255
89.955418 -229.780582 -335.977506 0 120 255
92.213403 -229.853464 -336.985905 0 120 255
94.471389 -229.926346 -337.994303 0 120 255
96.729374 -229.999228 -339.002702 0 120 255
99.013241 -230.062020 -339.948907 0 120 255
101.327134 -230.113107 -340.822961 0 120 255
103.641027 -230.164195 -341.697015 0 120 255
105.954919 -230.215282 -342.571069 0 120 255
108.287094 -230.253400 -343.393123 0 120 255
110.644425 -230.273672 -344.143630 0 120 255
113.001755 -230.293945 -344.894136 0 120 255
115.359086 -230.314217 -345.644643 0 120 255
117.728792 -230.320335 -346.352900 0 120 255
120.118791 -230.303244 -346.991878 0 120 255
122.508789 -230.286153 -347.630856 0 120 255
124.898788 -230.269062 -348.269834 0 120 255
127.296718 -230.237950 -348.875606 0 120 255
129.710269 -230.179224 -349.415976 0 120 255
132.123821 -230.120497 -349.956345 0 120 255
134.537372 -230.061771 -350.496715 0 120 255
136.955648 -229.990201 -351.012026 0 120 255
139.385236 -229.887883 -351.467345 0 120 255
141.814823 -229.785564 -351.922663 0 120 255
144.244410 -229.683246 -352.377982 0 120 255
146.676535 -229.569994 -352.815355 0 120 255
149.116172 -229.424371 -353.199600 0 120 255
151.555809 -229.278748 -353.583845 0 120 255
153.995446 -229.133125 -353.968090 0 120 255
156.436242 -228.978919 -354.340376 0 120 255
158.881387 -228.792488 -354.667769 0 120 255
161.326533 -228.606058 -354.995162 0 120 255
163.771678 -228.419627 -355.322555 0 120 255
166.217184 -228.227323 -355.643180 0 120 255
168.664474 -228.005966 -355.930323 0 120 255
171.111764 -227.784609 -356.217466 0 120 255
173.559054 -227.563252 -356.504609 0 120 255
176.006306 -227.340627 -356.791072 0 120 255
178.453293 -227.109211 -357.072817 0 120 255
180.900280 -226.877794 -357.354563 0 120 255
183.347267 -226.646378 -357.636309 0 120 255
185.794253 -226.414961 -357.918056 0 120 255
188.241238 -226.183534 -358.199814 0 120 255
190.688222 -225.952107 -358.481572 0 120 255
193.135206 -225.720680 -358.763330 0 120 255
195.582191 -225.489253 -359.045088 0 120 255
198.029176 -225.257830 -359.326839 0 120 255
200.476162 -225.026407 -359.608589 0 120 255
202.923148 -224.794983 -359.890340 0 120 255
205.370133 -224.563560 -360.172091 0 120 255
