ply
format ascii 1.0
element vertex 385
property float x
property float y
property float z
property uchar red
property uchar green
property uchar blue
end_header
77.430455 -42.474882 -360.397637 0 120 255
77.187565 -42.528709 -357.936055 0 120 255
76.944674 -42.582535 -355.474474 0 120 255
76.701783 -42.636362 -353.012893 0 120 255
76.458893 -42.690189 -350.551312 0 120 255
76.213922 -42.752731 -348.090143 0 120 255
75.968861 -42.815653 -345.628993 0 120 255
75.723800 -42.878575 -343.167843 0 120 255
75.478739 -42.941497 -340.706692 0 120 255
75.080131 -43.430051 -338.318289 0 120 255
74.667464 -43.957581 -335.936548 0 120 255
74.254796 -44.485110 -333.554806 0 120 255
73.842129 -45.012640 -331.173064 0 120 255
73.311860 -45.843643 -328.907726 0 120 255
72.764103 -46.719772 -326.659697 0 120 255
72.216347 -47.595902 -324.411668 0 120 255
71.668590 -48.472031 -322.163638 0 120 255
71.037565 -49.561478 -320.037149 0 120 255
70.388909 -50.696091 -317.936394 0 120 255
69.740253 -51.830705 -315.835638 0 120 255
69.091597 -52.965318 -313.734883 0 120 255
68.391634 -54.249625 -311.742007 0 120 255
67.677226 -55.576077 -309.779503 0 120 255
66.962819 -56.902529 -307.816998 0 120 255
66.248411 -58.228981 -305.854494 0 120 255
65.510890 -59.664118 -303.980877 0 120 255
64.765062 -61.138311 -302.139201 0 120 255
64.019234 -62.612504 -300.297524 0 120 255
63.273405 -64.086697 -298.455848 0 120 255
62.528172 -65.645071 -296.686133 0 120 255
61.783204 -67.241049 -294.948562 0 120 255
61.038236 -68.837027 -293.210991 0 120 255
60.293267 -70.433005 -291.473420 0 120 255
59.567859 -72.099251 -289.795980 0 120 255
58.853122 -73.803837 -288.151349 0 120 255
58.138385 -75.508423 -286.506717 0 120 255
57.423648 -77.213009 -284.862085 0 120 255
56.742781 -78.979837 -283.271236 0 120 255
56.084224 -80.787663 -281.715813 0 120 255
55.425666 -82.595489 -280.160389 0 120 255
54.767109 -84.403315 -278.604966 0 120 255
54.152455 -86.267890 -277.101420 0 120 255
53.572452 -88.177252 -275.638817 0 120 255
52.992448 -90.086614 -274.176214 0 120 255
52.412444 -91.995976 -272.713611 0 120 255
51.882696 -93.957025 -271.303857 0 120 255
51.400270 -95.966743 -269.943867 0 120 255
50.917844 -97.976461 -268.583877 0 120 255
50.435418 -99.986179 -267.223886 0 120 255
50.006600 -102.041817 -265.918992 0 120 255
49.637924 -104.148971 -264.675909 0 120 255
49.269248 -106.256125 -263.432826 0 120 255
48.900572 -108.363279 -262.189743 0 120 255
48.586550 -110.509439 -261.003891 0 120 255
48.345666 -112.707798 -259.894626 0 120 255
48.104782 -114.906157 -258.785362 0 120 255
47.863899 -117.104516 -257.676097 0 120 255
47.676998 -119.333877 -256.625075 0 120 255
47.576614 -121.612921 -255.667394 0 120 255
47.476230 -123.891966 -254.709713 0 120 255
47.375846 -126.171011 -253.752032 0 120 255
47.327492 -128.472300 -252.851786 0 120 255
47.379709 -130.816583 -252.062557 0 120 255
47.431926 -133.160867 -251.273328 0 120 255
47.484143 -135.505151 -250.484099 0 120 255
47.585410 -137.862701 -249.749317 0 120 255
47.802280 -140.251520 -249.142864 0 120 255
48.019150 -142.640339 -248.536410 0 120 255
48.236021 -145.029158 -247.929956 0 120 255
48.498005 -147.422700 -247.372720 0 120 255
48.891760 -149.830036 -246.959240 0 120 255
49.285515 -152.237372 -246.545760 0 120 255
49.679271 -154.644708 -246.132280 0 120 255
50.113215 -157.049370 -245.760762 0 120 255
50.696136 -159.444122 -245.544789 0 120 255
51.279056 -161.838873 -245.328817 0 120 255
51.861977 -164.233625 -245.112845 0 120 255
52.479072 -166.620183 -244.930012 0 120 255
53.262890 -168.966767 -244.908849 0 120 255
54.046709 -171.313351 -244.887686 0 120 255
54.830527 -173.659935 -244.866523 0 120 255
55.641368 -175.995363 -244.868859 0 120 255
56.636250 -178.254814 -245.031229 0 120 255
57.631132 -180.514266 -245.193600 0 120 255
58.626014 -182.773717 -245.355970 0 120 255
59.639712 -185.022153 -245.532350 0 120 255
60.852841 -187.153831 -245.857220 0 120 255
62.065969 -189.285510 -246.182091 0 120 255
63.279097 -191.417189 -246.506961 0 120 255
64.502083 -193.541379 -246.837688 0 120 255
65.936062 -195.505289 -247.293800 0 120 255
67.370041 -197.469199 -247.749912 0 120 255
68.804021 -199.433108 -248.206024 0 120 255
70.238711 -201.396349 -248.662430 0 120 255
71.889938 -203.156075 -249.208406 0 120 255
73.541165 -204.915802 -249.754381 0 120 255
75.192391 -206.675528 -250.300357 0 120 255
76.843618 -208.435254 -250.846333 0 120 255
78.693166 -209.970055 -251.430482 0 120 255
80.550529 -211.495994 -252.016136 0 120 255
82.407891 -213.021933 -252.601790 0 120 255
84.265253 -214.547873 -253.187444 0 120 255
86.294631 -215.840493 -253.757364 0 120 255
88.338754 -217.113114 -254.325935 0 120 255
90.382876 -218.385735 -254.894507 0 120 255
92.426999 -219.658356 -255.463078 0 120 255
94.611202 -220.702074 -255.963827 0 120 255
96.814488 -221.714606 -256.455336 0 120 255
99.017775 -222.727139 -256.946844 0 120 255
101.221062 -223.739671 -257.438353 0 120 255
103.528565 -224.540475 -257.815504 0 120 255
105.856036 -225.300709 -258.170743 0 120 255
108.183508 -226.060942 -258.525981 0 120 255
110.510980 -226.821176 -258.881220 0 120 255
112.905085 -227.398095 -259.084298 0 120 255
115.316025 -227.928700 -259.248933 0 120 255
117.726964 -228.459304 -259.413568 0 120 255
120.137904 -228.989908 -259.578203 0 120 255
122.578386 -229.374287 -259.563989 0 120 255
125.028330 -229.711828 -259.492488 0 120 255
127.478275 -230.049369 -259.420987 0 120 255
129.928220 -230.386910 -259.349486 0 120 255
132.373111 -230.620533 -259.084668 0 120 255
134.816002 -230.813029 -258.743341 0 120 255
137.258893 -231.005525 -258.402014 0 120 255
139.701784 -231.198021 -258.060688 0 120 255
142.108986 -231.332044 -257.523949 0 120 255
144.499041 -231.437972 -256.893322 0 120 255
146.889097 -231.543901 -256.262696 0 120 255
149.279152 -231.649829 -255.632069 0 120 255
151.608046 -231.738378 -254.815154 0 120 255
153.901680 -231.816907 -253.890842 0 120 255
156.195314 -231.895436 -252.966531 0 120 255
158.488948 -231.973964 -252.042219 0 120 255
160.698591 -232.047916 -250.943347 0 120 255
162.850602 -232.118727 -249.724696 0 120 255
165.002613 -232.189537 -248.506045 0 120 255
167.154624 -232.260348 -247.287394 0 120 255
169.202989 -232.326044 -245.911754 0 120 255
171.167138 -232.387584 -244.408556 0 120 255
173.131287 -232.449124 -242.905357 0 120 255
175.095436 -232.510664 -241.402159 0 120 255
176.940727 -232.567381 -239.764472 0 120 255
178.671939 -232.619469 -237.997705 0 120 255
180.403152 -232.671557 -236.230938 0 120 255
182.134364 -232.723645 -234.464171 0 120 255
183.736920 -232.771566 -232.588389 0 120 255
185.193703 -232.814764 -230.589092 0 120 255
186.650486 -232.857963 -228.589794 0 120 255
188.107270 -232.901162 -226.590496 0 120 255
189.431506 -232.940355 -224.508796 0 120 255
190.578134 -232.974182 -222.316679 0 120 255
191.724762 -233.008009 -220.124563 0 120 255
192.871390 -233.041835 -217.932446 0 120 255
193.887463 -233.071578 -215.683941 0 120 255
194.695768 -233.094821 -213.345699 0 120 255
195.504073 -233.118065 -211.007456 0 120 255
196.312378 -233.141308 -208.669214 0 120 255
196.997508 -233.160391 -206.298438 0 120 255
197.448155 -233.171553 -203.865730 0 120 255
197.898801 -233.182716 -201.433022 0 120 255
198.349447 -233.193878 -199.000314 0 120 255
198.688826 -233.200958 -196.555488 0 120 255
198.772088 -233.198640 -194.082769 0 120 255
198.855350 -233.196322 -191.610051 0 120 255
198.938612 -233.194004 -189.137332 0 120 255
198.925902 -233.187942 -186.668536 0 120 255
198.641871 -233.171292 -184.210829 0 120 255
198.357840 -233.154643 -181.753122 0 120 255
198.073810 -233.137994 -179.295414 0 120 255
197.711197 -233.118204 -176.852747 0 120 255
197.069475 -233.087263 -174.463498 0 120 255
196.427753 -233.056321 -172.074249 0 120 255
195.786031 -233.025379 -169.685000 0 120 255
195.083877 -232.992122 -167.316834 0 120 255
194.102698 -232.948169 -165.046012 0 120 255
193.121519 -232.904217 -162.775191 0 120 255
192.140341 -232.860265 -160.504369 0 120 255
191.116407 -232.814813 -158.255806 0 120 255
189.821563 -232.759856 -156.148288 0 120 255
188.526720 -232.704900 -154.040769 0 120 255
187.231876 -232.649944 -151.933250 0 120 255
185.910383 -232.594094 -149.844828 0 120 255
184.333659 -232.529687 -147.939291 0 120 255
182.756935 -232.465279 -146.033755 0 120 255
181.180211 -232.400872 -144.128219 0 120 255
179.590526 -232.336035 -142.235016 0 120 255
177.767951 -232.263482 -140.563421 0 120 255
175.945375 -232.190929 -138.891826 0 120 255
174.122799 -232.118377 -137.220231 0 120 255
172.297976 -232.045753 -135.551447 0 120 255
170.268456 -231.966661 -134.138624 0 120 255
168.238936 -231.887569 -132.725801 0 120 255
166.209416 -231.808477 -131.312978 0 120 255
164.179896 -231.729385 -129.900155 0 120 255
161.988863 -231.645363 -128.755406 0 120 255
159.792656 -231.561184 -127.619243 0 120 255
157.596450 -231.477005 -126.483080 0 120 255
155.400244 -231.392826 -125.346917 0 120 255
153.087056 -231.305374 -124.477365 0 120 255
150.764663 -231.217665 -123.628796 0 120 255
148.442269 -231.129955 -122.780228 0 120 255
146.119875 -231.042246 -121.931659 0 120 255
143.720866 -230.952687 -121.341239 0 120 255
141.311909 -230.862887 -120.784340 0 120 255
138.902952 -230.773088 -120.227442 0 120 255
136.493994 -230.683289 -119.670543 0 120 255
134.043725 -230.592878 -119.357689 0 120 255
131.585766 -230.502354 -119.090265 0 120 255
129.127806 -230.411829 -118.822841 0 120 255
126.669847 -230.321304 -118.555417 0 120 255
124.200287 -230.231187 -118.513766 0 120 255
121.727846 -230.141170 -118.528198 0 120 255
119.255405 -230.051153 -118.542629 0 120 255
116.782964 -229.961136 -118.557061 0 120 255
114.322916 -229.872315 -118.776495 0 120 255
111.866804 -229.783874 -119.061040 0 120 255
109.410691 -229.695433 -119.345584 0 120 255
106.954579 -229.606992 -119.630129 0 120 255
104.529534 -229.520371 -120.098338 0 120 255
102.116760 -229.434467 -120.639094 0 120 255
99.703986 -229.348564 -121.179850 0 120 255
97.291212 -229.262661 -121.720606 0 120 255
94.923556 -229.179001 -122.423990 0 120 255
92.577649 -229.096422 -123.205768 0 120 255
90.231742 -229.013843 -123.987546 0 120 255
87.885835 -228.931264 -124.769324 0 120 255
85.595187 -228.851228 -125.693574 0 120 255
83.336627 -228.772668 -126.700555 0 120 255
81.078068 -228.694108 -127.707537 0 120 255
78.819508 -228.615548 -128.714518 0 120 255
76.623124 -228.539712 -129.845071 0 120 255
74.469852 -228.465766 -131.061305 0 120 255
72.316579 -228.391819 -132.277539 0 120 255
70.163307 -228.317873 -133.493773 0 120 255
68.076500 -228.246742 -134.816097 0 120 255
66.044414 -228.177930 -136.225767 0 120 255
64.012329 -228.109118 -137.635436 0 120 255
61.980243 -228.040305 -139.045106 0 120 255
60.016774 -227.974328 -140.544842 0 120 255
58.120191 -227.911113 -142.132372 0 120 255
56.223609 -227.847899 -143.719903 0 120 255
54.327026 -227.784685 -145.307433 0 120 255
52.499435 -227.724266 -146.970404 0 120 255
50.751433 -227.667073 -148.720401 0 120 255
49.003430 -227.609879 -150.470399 0 120 255
47.255428 -227.552686 -152.220396 0 120 255
45.575297 -227.498192 -154.032542 0 120 255
43.988006 -227.447390 -155.929698 0 120 255
42.400716 -227.396588 -157.826855 0 120 255
40.813425 -227.345786 -159.724011 0 120 255
39.291548 -227.297557 -161.671258 0 120 255
37.876251 -227.253519 -163.700118 0 120 255
36.460955 -227.209480 -165.728977 0 120 255
35.045658 -227.165442 -167.757837 0 120 255
33.692069 -227.123802 -169.825898 0 120 255
32.459131 -227.086850 -171.970606 0 120 255
31.226192 -227.049898 -174.115314 0 120 255
29.993254 -227.012946 -176.260022 0 120 255
28.817193 -226.978170 -178.434233 0 120 255
27.776099 -226.948560 -180.678453 0 120 255
26.735004 -226.918949 -182.922672 0 120 255
25.693910 -226.889339 -185.166892 0 120 255
24.703814 -226.861666 -187.432129 0 120 255
23.863030 -226.839669 -189.758902 0 120 255
23.022246 -226.817671 -192.085675 0 120 255
22.181462 -226.795674 -194.412449 0 120 255
21.384847 -226.775335 -196.753032 0 120 255
20.751682 -226.761137 -199.144721 0 120 255
20.118517 -226.746938 -201.536410 0 120 255
19.485352 -226.732740 -203.928099 0 120 255
18.888731 -226.719905 -206.327757 0 120 255
18.469345 -226.713684 -208.766066 0 120 255
18.049960 -226.707464 -211.204376 0 120 255
17.630574 -226.701243 -213.642685 0 120 255
17.239416 -226.696063 -216.084565 0 120 255
17.038572 -226.697901 -218.550520 0 120 255
16.837728 -226.699739 -221.016475 0 120 255
16.636884 -226.701576 -223.482430 0 120 255
16.455426 -226.704123 -225.949089 0 120 255
16.476385 -226.714065 -228.423101 0 120 255
16.497343 -226.724008 -230.897114 0 120 255
16.518301 -226.733950 -233.371126 0 120 255
16.549451 -226.744262 -235.844589 0 120 255
16.793505 -226.762293 -238.306578 0 120 255
17.037560 -226.780324 -240.768566 0 120 255
17.281614 -226.798355 -243.230555 0 120 255
17.526557 -226.816418 -245.692414 0 120 255
17.992649 -226.842420 -248.122096 0 120 255
18.458742 -226.868422 -250.551779 0 120 255
18.924835 -226.894424 -252.981461 0 120 255
19.390927 -226.920425 -255.411144 0 120 255
20.067231 -226.953850 -257.790416 0 120 255
20.751768 -226.987566 -260.167715 0 120 255
21.436305 -227.021281 -262.545013 0 120 255
22.120841 -227.054996 -264.922312 0 120 255
23.000702 -227.095597 -267.233546 0 120 255
23.897401 -227.136792 -269.539085 0 120 255
24.794100 -227.177987 -271.844623 0 120 255
25.690799 -227.219181 -274.150162 0 120 255
26.766214 -227.266598 -276.376650 0 120 255
27.866238 -227.314871 -278.592252 0 120 255
28.966262 -227.363145 -280.807853 0 120 255
30.066287 -227.411418 -283.023455 0 120 255
31.327016 -227.465192 -285.150043 0 120 255
32.618987 -227.520035 -287.259328 0 120 255
33.910957 -227.574879 -289.368612 0 120 255
35.202927 -227.629722 -291.477896 0 120 255
36.636953 -227.689409 -293.491283 0 120 255
38.107497 -227.750341 -295.480017 0 120 255
39.578041 -227.811273 -297.468750 0 120 255
41.048586 -227.872206 -299.457484 0 120 255
42.642381 -227.937248 -301.346570 0 120 255
44.276447 -228.003633 -303.203099 0 120 255
45.910513 -228.070018 -305.059627 0 120 255
47.544579 -228.136403 -306.916155 0 120 255
49.283536 -228.206224 -308.672256 0 120 255
51.064936 -228.277436 -310.387721 0 120 255
52.846335 -228.348647 -312.103186 0 120 255
54.627735 -228.419859 -313.818651 0 120 255
56.496683 -228.493917 -315.435518 0 120 255
58.408731 -228.569376 -317.003846 0 120 255
60.320779 -228.644835 -318.572174 0 120 255
62.232827 -228.720294 -320.140502 0 120 255
64.216451 -228.798072 -321.614322 0 120 255
66.242425 -228.877224 -323.032221 0 120 255
68.268400 -228.956375 -324.450120 0 120 255
70.294374 -229.035527 -325.868019 0 120 255
72.377568 -229.116687 -327.197361 0 120 255
74.501121 -229.199265 -328.464237 0 120 255
76.624675 -229.281843 -329.731113 0 120 255
78.748229 -229.364421 -330.997990 0 120 255
80.916306 -229.448034 -332.183989 0 120 255
83.121633 -229.532513 -333.302324 0 120 255
85.326959 -229.616991 -334.420658 0 120 255
87.532286 -229.701470 -335.538993 0 120 255
89.771051 -229.782798 -336.586110 0 120 255
92.042917 -229.861007 -337.562728 0 120 255
94.314783 -229.939216 -338.539347 0 120 255
96.586649 -230.017425 -339.515965 0 120 255
98.882883 -230.086397 -340.431774 0 120 255
101.207645 -230.144553 -341.276389 0 120 255
103.532407 -230.202710 -342.121004 0 120 255
105.857169 -230.260867 -342.965619 0 120 255
108.199053 -230.305461 -343.759765 0 120 255
110.564697 -230.331237 -344.483879 0 120 255
112.930340 -230.357012 -345.207993 0 120 255
115.295984 -230.382787 -345.932108 0 120 255
117.673108 -230.393223 -346.615562 0 120 255
120.069205 -230.378308 -347.231817 0 120 255
122.465302 -230.363393 -347.848072 0 120 255
124.861400 -230.348478 -348.464327 0 120 255
127.264738 -230.318272 -349.048941 0 120 255
129.682444 -230.257724 -349.570772 0 120 255
132.100150 -230.197177 -350.092602 0 120 255
134.517856 -230.136629 -350.614433 0 120 255
136.939766 -230.062292 -351.112689 0 120 255
139.371812 -229.954711 -351.554111 0 120 255
141.803858 -229.847130 -351.995533 0 120 255
144.235904 -229.739549 -352.436955 0 120 255
146.670131 -229.620662 -352.861763 0 120 255
149.110858 -229.468088 -353.237063 0 120 255
151.551585 -229.315513 -353.612363 0 120 255
153.992311 -229.162939 -353.987662 0 120 255
156.434002 -229.002078 -354.352132 0 120 255
158.879336 -228.809919 -354.675692 0 120 255
161.324670 -228.617759 -354.999252 0 120 255
163.770005 -228.425599 -355.322812 0 120 255
166.215669 -228.228507 -355.640391 0 120 255
168.662977 -228.006878 -355.928210 0 120 255
171.110285 -227.785249 -356.216029 0 120 255
173.557593 -227.563620 -356.503848 0 120 255
176.004875 -227.340762 -356.790907 0 120 255
178.451981 -227.109335 -357.072666 0 120 255
180.899087 -226.877907 -357.354426 0 120 255
183.346193 -226.646480 -357.636185 0 120 255
185.793299 -226.415052 -357.917946 0 120 255
188.240403 -226.183613 -358.199718 0 120 255
190.687507 -225.952175 -358.481490 0 120 255
193.134610 -225.720736 -358.763262 0 120 255
195.581714 -225.489298 -359.045033 0 120 255
198.028819 -225.257864 -359.326798 0 120 255
200.475924 -225.026429 -359.608562 0 120 255
202.923028 -224.794995 -359.890326 0 120 255
205.370133 -224.563560 -360.172091 0 120 255
