ply
format ascii 1.0
element vertex 385
property float x
property float y
property float z
property uchar red
property uchar green
property uchar blue
end_header
77.430455 -42.474882 -360.397637 0 120 255
77.187550 -42.528712 -357.935904 0 120 255
76.944644 -42.582542 -355.474172 0 120 255
76.701739 -42.636372 -353.012440 0 120 255
76.458833 -42.690202 -350.550708 0 120 255
76.213896 -42.754888 -348.089439 0 120 255
75.968870 -42.820045 -345.628191 0 120 255
75.723844 -42.885202 -343.166942 0 120 255
75.478818 -42.950359 -340.705694 0 120 255
75.067932 -43.376332 -338.306305 0 120 255
74.641971 -43.835100 -335.912539 0 120 255
74.216010 -44.293867 -333.518773 0 120 255
73.790050 -44.752634 -331.125007 0 120 255
73.235930 -45.462020 -328.823094 0 120 255
72.662883 -46.208420 -326.534747 0 120 255
72.089836 -46.954820 -324.246401 0 120 255
71.516789 -47.701219 -321.958054 0 120 255
70.854578 -48.620502 -319.760618 0 120 255
70.173613 -49.576147 -317.582303 0 120 255
69.492648 -50.531792 -315.403988 0 120 255
68.811683 -51.487437 -313.225673 0 120 255
68.079882 -52.563428 -311.122728 0 120 255
67.333865 -53.673071 -309.040860 0 120 255
66.587847 -54.782715 -306.958991 0 120 255
65.841830 -55.892358 -304.877123 0 120 255
65.079795 -57.091758 -302.852616 0 120 255
64.312044 -58.323187 -300.848578 0 120 255
63.544293 -59.554615 -298.844540 0 120 255
62.776542 -60.786044 -296.840502 0 120 255
62.022017 -62.092614 -294.880359 0 120 255
61.273359 -63.432510 -292.939685 0 120 255
60.524702 -64.772406 -290.999011 0 120 255
59.776044 -66.112302 -289.058336 0 120 255
59.063079 -67.522329 -287.155337 0 120 255
58.369452 -68.970353 -285.272750 0 120 255
57.675825 -70.418376 -283.390162 0 120 255
56.982198 -71.866399 -281.507574 0 120 255
56.339601 -73.383739 -279.663404 0 120 255
55.730390 -74.946430 -277.844370 0 120 255
55.121179 -76.509121 -276.025336 0 120 255
54.511969 -78.071812 -274.206301 0 120 255
53.962436 -79.703321 -272.431426 0 120 255
53.459719 -81.388813 -270.691191 0 120 255
52.957001 -83.074305 -268.950956 0 120 255
52.454284 -84.759797 -267.210721 0 120 255
52.014255 -86.511654 -265.522816 0 120 255
51.632961 -88.325689 -263.883939 0 120 255
51.251666 -90.139724 -262.245062 0 120 255
50.870372 -91.953760 -260.606185 0 120 255
50.550537 -93.828859 -259.027816 0 120 255
50.299409 -95.772223 -257.517088 0 120 255
50.048282 -97.715587 -256.006361 0 120 255
49.797154 -99.658951 -254.495633 0 120 255
49.603491 -101.655311 -253.051699 0 120 255
49.486598 -103.722470 -251.696998 0 120 255
49.369706 -105.789630 -250.342297 0 120 255
49.252814 -107.856789 -248.987596 0 120 255
49.187923 -109.966841 -247.702940 0 120 255
49.206427 -112.145680 -246.530615 0 120 255
49.224932 -114.324519 -245.358290 0 120 255
49.243437 -116.503357 -244.185966 0 120 255
49.308003 -118.713936 -243.083380 0 120 255
49.461923 -120.986088 -242.116084 0 120 255
49.615844 -123.258239 -241.148787 0 120 255
49.769764 -125.530391 -240.181491 0 120 255
49.963944 -127.823134 -239.280114 0 120 255
50.253702 -130.164760 -238.535229 0 120 255
50.543459 -132.506386 -237.790345 0 120 255
50.833217 -134.848013 -237.045460 0 120 255
51.157817 -137.200037 -236.359567 0 120 255
51.585398 -139.582794 -235.848027 0 120 255
52.012979 -141.965550 -235.336487 0 120 255
52.440559 -144.348307 -234.824947 0 120 255
52.897903 -146.733019 -234.363052 0 120 255
53.467583 -149.125117 -234.088533 0 120 255
54.037262 -151.517215 -233.814014 0 120 255
54.606941 -153.909313 -233.539495 0 120 255
55.201381 -156.297282 -233.303696 0 120 255
55.919903 -158.664560 -233.261936 0 120 255
56.638425 -161.031839 -233.220177 0 120 255
57.356947 -163.399118 -233.178418 0 120 255
58.094957 -165.758954 -233.163841 0 120 255
58.971234 -168.065982 -233.342123 0 120 255
59.847510 -170.373011 -233.520405 0 120 255
60.723786 -172.680040 -233.698687 0 120 255
61.613669 -174.979311 -233.893044 0 120 255
62.657920 -177.190563 -234.269778 0 120 255
63.702172 -179.401816 -234.646511 0 120 255
64.746423 -181.613068 -235.023244 0 120 255
65.797589 -183.819272 -235.406487 0 120 255
67.020075 -185.900383 -235.951035 0 120 255
68.242560 -187.981494 -236.495582 0 120 255
69.465046 -190.062606 -237.040129 0 120 255
70.687531 -192.143717 -237.584677 0 120 255
72.096254 -194.063424 -238.256994 0 120 255
73.505558 -195.982627 -238.929711 0 120 255
74.914863 -197.901830 -239.602428 0 120 255
76.324167 -199.821032 -240.275145 0 120 255
77.916715 -201.559136 -241.024433 0 120 255
79.517839 -203.288763 -241.777305 0 120 255
81.118964 -205.018391 -242.530177 0 120 255
82.720089 -206.748018 -243.283050 0 120 255
84.495928 -208.284360 -244.058700 0 120 255
86.288214 -209.802508 -244.836495 0 120 255
88.080501 -211.320655 -245.614290 0 120 255
89.872787 -212.838803 -246.392084 0 120 255
91.824795 -214.159630 -247.138798 0 120 255
93.800059 -215.451727 -247.880987 0 120 255
95.775323 -216.743824 -248.623175 0 120 255
97.750587 -218.035922 -249.365364 0 120 255
99.863755 -219.135109 -250.025381 0 120 255
102.004756 -220.195362 -250.668814 0 120 255
104.145757 -221.255615 -251.312247 0 120 255
106.286757 -222.315868 -251.955680 0 120 255
108.537458 -223.195754 -252.471567 0 120 255
110.817072 -224.028100 -252.953836 0 120 255
113.096687 -224.860446 -253.436105 0 120 255
115.376302 -225.692792 -253.918375 0 120 255
117.732199 -226.364600 -254.236166 0 120 255
120.113406 -226.983143 -254.499385 0 120 255
122.494613 -227.601686 -254.762605 0 120 255
124.875820 -228.220230 -255.025825 0 120 255
127.296566 -228.703831 -255.098242 0 120 255
129.733429 -229.132432 -255.092889 0 120 255
132.170291 -229.561033 -255.087536 0 120 255
134.607154 -229.989634 -255.082184 0 120 255
137.045826 -230.312679 -254.871650 0 120 255
139.485389 -230.583738 -254.560063 0 120 255
141.924952 -230.854797 -254.248475 0 120 255
144.364514 -231.125856 -253.936888 0 120 255
146.769675 -231.322563 -253.417955 0 120 255
149.154595 -231.475525 -252.777030 0 120 255
151.539516 -231.628487 -252.136105 0 120 255
153.924436 -231.781449 -251.495180 0 120 255
156.242696 -231.890708 -250.656163 0 120 255
158.514455 -231.969480 -249.678954 0 120 255
160.786213 -232.048251 -248.701746 0 120 255
163.057971 -232.127022 -247.724538 0 120 255
165.236587 -232.184017 -246.567689 0 120 255
167.338492 -232.223076 -245.262891 0 120 255
169.440397 -232.262135 -243.958094 0 120 255
171.542302 -232.301194 -242.653297 0 120 255
173.529963 -232.326088 -241.192436 0 120 255
175.406759 -232.337237 -239.580127 0 120 255
177.283554 -232.348386 -237.967818 0 120 255
179.160350 -232.359535 -236.355509 0 120 255
180.908283 -232.361762 -234.615124 0 120 255
182.508971 -232.353795 -232.728390 0 120 255
184.109658 -232.345828 -230.841657 0 120 255
185.710345 -232.337862 -228.954923 0 120 255
187.175216 -232.325881 -226.970420 0 120 255
188.456941 -232.308489 -224.854078 0 120 255
189.738667 -232.291096 -222.737736 0 120 255
191.020392 -232.273704 -220.621394 0 120 255
192.166809 -232.255391 -218.437182 0 120 255
193.096901 -232.235605 -216.144462 0 120 255
194.026992 -232.215820 -213.851742 0 120 255
194.957084 -232.196035 -211.559022 0 120 255
195.759058 -232.176922 -209.225781 0 120 255
196.316347 -232.159096 -206.815151 0 120 255
196.873636 -232.141270 -204.404521 0 120 255
197.430925 -232.123444 -201.993891 0 120 255
197.872668 -232.106800 -199.565905 0 120 255
198.047857 -232.092880 -197.097881 0 120 255
198.223045 -232.078961 -194.629857 0 120 255
198.398233 -232.065042 -192.161833 0 120 255
198.474249 -232.052111 -189.694399 0 120 255
198.269461 -232.041979 -187.228637 0 120 255
198.064673 -232.031848 -184.762874 0 120 255
197.859885 -232.021716 -182.297111 0 120 255
197.574428 -232.012043 -179.844211 0 120 255
197.002102 -232.004003 -177.437054 0 120 255
196.429776 -231.995963 -175.029897 0 120 255
195.857451 -231.987923 -172.622740 0 120 255
195.223523 -231.979771 -170.235107 0 120 255
194.304836 -231.971101 -167.937725 0 120 255
193.386148 -231.962431 -165.640343 0 120 255
192.467461 -231.953761 -163.342961 0 120 255
191.505462 -231.944565 -161.066607 0 120 255
190.268568 -231.932030 -158.923721 0 120 255
189.031674 -231.919495 -156.780834 0 120 255
187.794780 -231.906960 -154.637947 0 120 255
186.531026 -231.893757 -152.513167 0 120 255
185.009192 -231.874126 -150.562356 0 120 255
183.487358 -231.854496 -148.611546 0 120 255
181.965523 -231.834865 -146.660735 0 120 255
180.430692 -231.814716 -144.721561 0 120 255
178.660541 -231.785164 -142.993059 0 120 255
176.890389 -231.755613 -141.264558 0 120 255
175.120238 -231.726062 -139.536056 0 120 255
173.347916 -231.696387 -137.810091 0 120 255
171.367883 -231.654883 -136.326929 0 120 255
169.387849 -231.613378 -134.843767 0 120 255
167.407815 -231.571873 -133.360605 0 120 255
165.427781 -231.530368 -131.877443 0 120 255
163.282149 -231.476297 -130.647663 0 120 255
161.131090 -231.421814 -129.426187 0 120 255
158.980032 -231.367331 -128.204710 0 120 255
156.828973 -231.312848 -126.983234 0 120 255
154.554933 -231.246530 -126.013650 0 120 255
152.271086 -231.179269 -125.064152 0 120 255
149.987239 -231.112008 -124.114654 0 120 255
147.703392 -231.044746 -123.165157 0 120 255
145.334703 -230.967522 -122.460495 0 120 255
142.954876 -230.888990 -121.787974 0 120 255
140.575050 -230.810458 -121.115452 0 120 255
138.195223 -230.731926 -120.442931 0 120 255
135.763916 -230.646467 -120.003950 0 120 255
133.322929 -230.559706 -119.608880 0 120 255
130.881941 -230.472944 -119.213810 0 120 255
128.440954 -230.386183 -118.818741 0 120 255
125.977036 -230.296557 -118.642918 0 120 255
123.507368 -230.206213 -118.522084 0 120 255
121.037699 -230.115868 -118.401249 0 120 255
118.568030 -230.025524 -118.280415 0 120 255
116.099434 -229.935761 -118.362711 0 120 255
113.631180 -229.846184 -118.510119 0 120 255
111.162927 -229.756607 -118.657527 0 120 255
108.694674 -229.667030 -118.804935 0 120 255
106.247418 -229.579025 -119.138464 0 120 255
103.808529 -229.491647 -119.546153 0 120 255
101.369640 -229.404268 -119.953842 0 120 255
98.930750 -229.316890 -120.361531 0 120 255
96.529022 -229.231531 -120.937703 0 120 255
94.145356 -229.147154 -121.595760 0 120 255
91.761689 -229.062776 -122.253816 0 120 255
89.378022 -228.978399 -122.911873 0 120 255
87.044225 -228.896398 -123.720550 0 120 255
84.739612 -228.815788 -124.617372 0 120 255
82.434999 -228.735177 -125.514193 0 120 255
80.130386 -228.654567 -126.411014 0 120 255
77.885213 -228.576614 -127.440741 0 120 255
75.681559 -228.500517 -128.563302 0 120 255
73.477904 -228.424420 -129.685862 0 120 255
71.274249 -228.348323 -130.808422 0 120 255
69.136756 -228.275050 -132.046592 0 120 255
67.054117 -228.204119 -133.380613 0 120 255
64.971478 -228.133187 -134.714633 0 120 255
62.888839 -228.062256 -136.048653 0 120 255
60.876517 -227.994252 -137.481652 0 120 255
58.933195 -227.929121 -139.011778 0 120 255
56.989873 -227.863991 -140.541903 0 120 255
55.046551 -227.798860 -142.072029 0 120 255
53.175383 -227.736667 -143.685349 0 120 255
51.387978 -227.677886 -145.395247 0 120 255
49.600572 -227.619104 -147.105146 0 120 255
47.813167 -227.560322 -148.815045 0 120 255
46.097649 -227.504414 -150.593341 0 120 255
44.481054 -227.452460 -152.465759 0 120 255
42.864460 -227.400506 -154.338177 0 120 255
41.247865 -227.348552 -156.210595 0 120 255
39.701006 -227.299342 -158.137754 0 120 255
38.268422 -227.254629 -160.154615 0 120 255
36.835838 -227.209916 -162.171477 0 120 255
35.403253 -227.165204 -164.188338 0 120 255
34.036563 -227.123049 -166.247545 0 120 255
32.799427 -227.085925 -168.390007 0 120 255
31.562292 -227.048800 -170.532469 0 120 255
30.325156 -227.011676 -172.674931 0 120 255
29.148591 -226.976875 -174.848730 0 120 255
28.116536 -226.947617 -177.097292 0 120 255
27.084481 -226.918360 -179.345855 0 120 255
26.052427 -226.889102 -181.594417 0 120 255
25.074347 -226.861892 -183.864804 0 120 255
24.255139 -226.840710 -186.199430 0 120 255
23.435932 -226.819528 -188.534055 0 120 255
22.616724 -226.798346 -190.868681 0 120 255
21.843833 -226.778903 -193.217208 0 120 255
21.243240 -226.765931 -195.617447 0 120 255
20.642648 -226.752958 -198.017685 0 120 255
20.042055 -226.739986 -200.417924 0 120 255
19.479291 -226.728419 -202.825810 0 120 255
19.101007 -226.723706 -205.270991 0 120 255
18.722723 -226.718994 -207.716171 0 120 255
18.344440 -226.714282 -210.161351 0 120 255
17.994920 -226.710625 -212.609649 0 120 255
17.840505 -226.714131 -215.079096 0 120 255
17.686091 -226.717637 -217.548544 0 120 255
17.531677 -226.721143 -220.017991 0 120 255
17.396661 -226.725356 -222.487772 0 120 255
17.465633 -226.737012 -224.961056 0 120 255
17.534606 -226.748669 -227.434340 0 120 255
17.603578 -226.760325 -229.907624 0 120 255
17.682527 -226.772341 -232.380179 0 120 255
17.972242 -226.791963 -234.837354 0 120 255
18.261957 -226.811584 -237.294529 0 120 255
18.551673 -226.831206 -239.751703 0 120 255
18.842154 -226.850855 -242.208752 0 120 255
19.347789 -226.878210 -244.630655 0 120 255
19.853425 -226.905564 -247.052557 0 120 255
20.359060 -226.932919 -249.474460 0 120 255
20.864695 -226.960274 -251.896362 0 120 255
21.571563 -226.994767 -254.266903 0 120 255
22.286398 -227.029543 -256.635411 0 120 255
23.001233 -227.064319 -259.003918 0 120 255
23.716069 -227.099094 -261.372426 0 120 255
24.615592 -227.140353 -263.676305 0 120 255
25.531116 -227.182174 -265.974586 0 120 255
26.446640 -227.223994 -268.272866 0 120 255
27.362164 -227.265815 -270.571147 0 120 255
28.445159 -227.313462 -272.794257 0 120 255
29.551290 -227.361914 -275.006982 0 120 255
30.657421 -227.410365 -277.219707 0 120 255
31.763552 -227.458817 -279.432432 0 120 255
33.019635 -227.512419 -281.562147 0 120 255
34.304930 -227.567024 -283.675689 0 120 255
35.590225 -227.621629 -285.789231 0 120 255
36.875520 -227.676234 -287.902774 0 120 255
38.293339 -227.735325 -289.928062 0 120 255
39.745278 -227.795572 -291.930628 0 120 255
41.197217 -227.855818 -293.933194 0 120 255
42.649156 -227.916065 -295.935760 0 120 255
44.216653 -227.980189 -297.847246 0 120 255
45.821949 -228.045583 -299.728941 0 120 255
47.427244 -228.110976 -301.610636 0 120 255
49.032540 -228.176369 -303.492331 0 120 255
50.737182 -228.245047 -305.282331 0 120 255
52.482052 -228.315056 -307.035201 0 120 255
54.226923 -228.385064 -308.788071 0 120 255
55.971793 -228.455072 -310.540941 0 120 255
57.800797 -228.527865 -312.203457 0 120 255
59.671239 -228.602029 -313.821473 0 120 255
61.541681 -228.676194 -315.439488 0 120 255
63.412123 -228.750358 -317.057503 0 120 255
65.352697 -228.826958 -318.588156 0 120 255
67.334778 -228.904998 -320.067106 0 120 255
69.316859 -228.983039 -321.546055 0 120 255
71.298940 -229.061079 -323.025005 0 120 255
73.338438 -229.141138 -324.421029 0 120 255
75.418437 -229.222620 -325.758561 0 120 255
77.498436 -229.304102 -327.096093 0 120 255
79.578435 -229.385584 -328.433624 0 120 255
81.704349 -229.467625 -329.694209 0 120 255
83.868666 -229.550135 -330.890432 0 120 255
86.032983 -229.632645 -332.086656 0 120 255
88.197300 -229.715155 -333.282879 0 120 255
90.396866 -229.792412 -334.410748 0 120 255
92.631308 -229.864474 -335.470984 0 120 255
94.865750 -229.936535 -336.531221 0 120 255
97.100193 -230.008597 -337.591457 0 120 255
99.361020 -230.070667 -338.592347 0 120 255
101.652729 -230.121044 -339.523775 0 120 255
103.944438 -230.171421 -340.455202 0 120 255
106.236147 -230.221798 -341.386630 0 120 255
108.547068 -230.259410 -342.267524 0 120 255
110.884652 -230.279307 -343.078284 0 120 255
113.222236 -230.299203 -343.889044 0 120 255
115.559820 -230.319100 -344.699804 0 120 255
117.910911 -230.325018 -345.468441 0 120 255
120.284340 -230.307816 -346.167416 0 120 255
122.657769 -230.290614 -346.866390 0 120 255
125.031199 -230.273412 -347.565364 0 120 255
127.413705 -230.242314 -348.230077 0 120 255
129.814245 -230.183607 -348.826726 0 120 255
132.214784 -230.124900 -349.423374 0 120 255
134.615324 -230.066193 -350.020023 0 120 255
137.021623 -229.994707 -350.589579 0 120 255
139.441832 -229.892357 -351.093701 0 120 255
141.862041 -229.790007 -351.597822 0 120 255
144.282250 -229.687656 -352.101944 0 120 255
146.705854 -229.574405 -352.585343 0 120 255
149.139599 -229.428579 -353.006822 0 120 255
151.573345 -229.282753 -353.428301 0 120 255
154.007090 -229.136927 -353.849781 0 120 255
156.442648 -228.982533 -354.256085 0 120 255
158.885078 -228.795650 -354.604847 0 120 255
161.327508 -228.608766 -354.953609 0 120 255
163.769939 -228.421883 -355.302371 0 120 255
166.213209 -228.229189 -355.640948 0 120 255
168.660682 -228.007427 -355.928568 0 120 255
171.108155 -227.785664 -356.216188 0 120 255
173.555627 -227.563902 -356.503808 0 120 255
176.003073 -227.340932 -356.790699 0 120 255
178.450329 -227.109491 -357.072476 0 120 255
180.897586 -226.878049 -357.354253 0 120 255
183.344842 -226.646608 -357.636030 0 120 255
185.792098 -226.415165 -357.917807 0 120 255
188.239352 -226.183713 -358.199597 0 120 255
190.686606 -225.952260 -358.481386 0 120 255
193.133859 -225.720807 -358.763175 0 120 255
195.581113 -225.489355 -359.044964 0 120 255
198.028368 -225.257906 -359.326746 0 120 255
200.475623 -225.026457 -359.608527 0 120 255
202.922878 -224.795009 -359.890309 0 120 255
205.370133 -224.563560 -360.172091 0 120 255
