ply
format ascii 1.0
element vertex 385
property float x
property float y
property float z
property uchar red
property uchar green
property uchar blue
end_header
77.430455 -42.474882 -360.397637 0 120 255
77.187489 -42.528725 -357.935288 0 120 255
76.944523 -42.582569 -355.472940 0 120 255
76.701556 -42.636413 -353.010591 0 120 255
76.458590 -42.690256 -350.548243 0 120 255
76.211279 -42.792723 -348.087891 0 120 255
75.963784 -42.897246 -345.627625 0 120 255
75.716289 -43.001769 -343.167358 0 120 255
75.468795 -43.106293 -340.707091 0 120 255
75.360652 -43.266676 -338.240198 0 120 255
75.265556 -43.432290 -335.772685 0 120 255
75.170461 -43.597903 -333.305172 0 120 255
75.075365 -43.763517 -330.837659 0 120 255
75.115307 -43.927554 -328.369116 0 120 255
75.176619 -44.091342 -325.900411 0 120 255
75.237932 -44.255130 -323.431706 0 120 255
75.299245 -44.418918 -320.963000 0 120 255
75.487901 -44.570957 -318.500763 0 120 255
75.705847 -44.720293 -316.040013 0 120 255
75.923793 -44.869629 -313.579263 0 120 255
76.141739 -45.018965 -311.118513 0 120 255
76.478904 -45.147188 -308.670989 0 120 255
76.853015 -45.268868 -306.227564 0 120 255
77.227126 -45.390548 -303.784139 0 120 255
77.601237 -45.512228 -301.340714 0 120 255
78.086060 -45.604353 -298.916634 0 120 255
78.615073 -45.684681 -296.500277 0 120 255
79.144087 -45.765008 -294.083919 0 120 255
79.673100 -45.845336 -291.667561 0 120 255
80.303968 -45.888690 -289.276108 0 120 255
80.985687 -45.913584 -286.897089 0 120 255
81.667406 -45.938478 -284.518070 0 120 255
82.349125 -45.963373 -282.139051 0 120 255
83.123532 -45.944982 -279.789989 0 120 255
83.954655 -45.900106 -277.459257 0 120 255
84.785778 -45.855229 -275.128525 0 120 255
85.616901 -45.810353 -272.797792 0 120 255
86.531270 -45.717058 -270.501582 0 120 255
87.507174 -45.587973 -268.230891 0 120 255
88.483079 -45.458888 -265.960199 0 120 255
89.458983 -45.329803 -263.689508 0 120 255
90.508487 -45.148402 -261.457423 0 120 255
91.623024 -44.920775 -259.259450 0 120 255
92.737561 -44.693148 -257.061477 0 120 255
93.852099 -44.465521 -254.863504 0 120 255
95.030447 -44.182960 -252.707710 0 120 255
96.275682 -43.842817 -250.596126 0 120 255
97.520917 -43.502674 -248.484543 0 120 255
98.766153 -43.162531 -246.372960 0 120 255
100.065359 -42.766122 -244.306569 0 120 255
101.431304 -42.300137 -242.296060 0 120 255
102.797249 -41.834152 -240.285552 0 120 255
104.163194 -41.368168 -238.275043 0 120 255
105.573335 -40.845876 -236.312120 0 120 255
107.047702 -40.241759 -234.418347 0 120 255
108.522069 -39.637642 -232.524574 0 120 255
109.996436 -39.033525 -230.630800 0 120 255
111.505422 -38.374309 -228.786313 0 120 255
113.073387 -37.621223 -227.025790 0 120 255
114.641351 -36.868138 -225.265267 0 120 255
116.209316 -36.115052 -223.504744 0 120 255
117.802673 -35.309253 -221.794442 0 120 255
119.446683 -34.398297 -220.184324 0 120 255
121.090694 -33.487342 -218.574206 0 120 255
122.734705 -32.576387 -216.964087 0 120 255
124.395399 -31.616175 -215.404297 0 120 255
126.095061 -30.540916 -213.962055 0 120 255
127.794723 -29.465657 -212.519814 0 120 255
129.494385 -28.390398 -211.077573 0 120 255
131.202719 -27.270272 -209.684893 0 120 255
132.934799 -26.027302 -208.427905 0 120 255
134.666879 -24.784332 -207.170918 0 120 255
136.398958 -23.541362 -205.913930 0 120 255
138.132564 -22.258665 -204.704829 0 120 255
139.871082 -20.848145 -203.649803 0 120 255
141.609601 -19.437625 -202.594777 0 120 255
143.348119 -18.027105 -201.539750 0 120 255
145.082054 -16.582541 -200.530038 0 120 255
146.798587 -15.008716 -199.692374 0 120 255
148.515120 -13.434891 -198.854710 0 120 255
150.231652 -11.861065 -198.017046 0 120 255
151.938680 -10.259186 -197.221268 0 120 255
153.602846 -8.530804 -196.614358 0 120 255
155.267011 -6.802421 -196.007449 0 120 255
156.931177 -5.074039 -195.400539 0 120 255
158.582223 -3.323645 -194.831294 0 120 255
160.162323 -1.454227 -194.465714 0 120 255
161.742424 0.415191 -194.100134 0 120 255
163.322525 2.284610 -193.734554 0 120 255
164.887296 4.170210 -193.401743 0 120 255
166.351199 6.162280 -193.284540 0 120 255
167.815102 8.154350 -193.167337 0 120 255
169.279005 10.146420 -193.050133 0 120 255
170.726828 12.149324 -192.960262 0 120 255
172.042964 14.240958 -193.094220 0 120 255
173.359100 16.332592 -193.228178 0 120 255
174.675236 18.424226 -193.362136 0 120 255
175.976021 20.522099 -193.517628 0 120 255
177.114533 22.685914 -193.900754 0 120 255
178.253045 24.849729 -194.283879 0 120 255
179.391557 27.013545 -194.667005 0 120 255
180.516896 29.180013 -195.065711 0 120 255
181.450756 31.385046 -195.690873 0 120 255
182.384616 33.590079 -196.316036 0 120 255
183.318475 35.795111 -196.941198 0 120 255
184.242706 38.000464 -197.576074 0 120 255
184.948886 40.213077 -198.430912 0 120 255
185.655065 42.425690 -199.285751 0 120 255
186.361245 44.638302 -200.140589 0 120 255
187.062565 46.850370 -200.999623 0 120 255
187.522965 49.035409 -202.066735 0 120 255
187.983366 51.220447 -203.133847 0 120 255
188.443766 53.405486 -204.200960 0 120 255
188.904166 55.590525 -205.268072 0 120 255
189.107288 57.712800 -206.524815 0 120 255
189.309484 59.834848 -207.782241 0 120 255
189.511679 61.956896 -209.039668 0 120 255
189.713875 64.078944 -210.297094 0 120 255
189.659019 66.106342 -211.714424 0 120 255
189.596714 68.130998 -213.136386 0 120 255
189.534410 70.155654 -214.558349 0 120 255
189.472106 72.180310 -215.980311 0 120 255
189.159613 74.082433 -217.530784 0 120 255
188.832762 75.977525 -219.088632 0 120 255
188.505911 77.872616 -220.646480 0 120 255
188.179060 79.767707 -222.204328 0 120 255
187.614914 81.517369 -223.858938 0 120 255
187.029512 83.254005 -225.522216 0 120 255
186.444110 84.990640 -227.185494 0 120 255
185.858709 86.727276 -228.848772 0 120 255
185.053998 88.301217 -230.578012 0 120 255
184.221575 89.854601 -232.315586 0 120 255
183.389153 91.407984 -234.053160 0 120 255
182.556730 92.961368 -235.790734 0 120 255
181.526923 94.340715 -237.565579 0 120 255
180.463819 95.690704 -239.346711 0 120 255
179.400715 97.040694 -241.127842 0 120 255
178.337611 98.390683 -242.908974 0 120 255
177.101660 99.561127 -244.701746 0 120 255
175.828092 100.692495 -246.497051 0 120 255
174.554523 101.823863 -248.292357 0 120 255
173.280954 102.955231 -250.087662 0 120 255
171.860399 103.906963 -251.872740 0 120 255
170.399491 104.809378 -253.655009 0 120 255
168.938582 105.711793 -255.437279 0 120 255
167.477674 106.614208 -257.219549 0 120 255
165.895726 107.341678 -258.973864 0 120 255
164.272508 108.009498 -260.718649 0 120 255
162.649290 108.677318 -262.463433 0 120 255
161.026072 109.345138 -264.208217 0 120 255
159.306790 109.846650 -265.911589 0 120 255
157.547264 110.278491 -267.597611 0 120 255
155.787737 110.710332 -269.283634 0 120 255
154.028211 111.142173 -270.969656 0 120 255
152.195782 111.419389 -272.604955 0 120 255
150.326105 111.617599 -274.214337 0 120 255
148.456427 111.815808 -275.823719 0 120 255
146.586750 112.014018 -277.433102 0 120 255
144.664896 112.071425 -278.986268 0 120 255
142.710671 112.041475 -280.504556 0 120 255
140.756447 112.011525 -282.022845 0 120 255
138.802222 111.981575 -283.541134 0 120 255
136.813724 111.825952 -285.001075 0 120 255
134.799455 111.575834 -286.417145 0 120 255
132.785186 111.325716 -287.833215 0 120 255
130.770917 111.075598 -289.249285 0 120 255
128.737282 110.715491 -290.607718 0 120 255
126.685988 110.255099 -291.913599 0 120 255
124.634694 109.794707 -293.219479 0 120 255
122.583400 109.334315 -294.525360 0 120 255
120.524629 108.779561 -295.776580 0 120 255
118.457565 108.120140 -296.967169 0 120 255
116.390501 107.460719 -298.157758 0 120 255
114.323437 106.801299 -299.348347 0 120 255
112.257884 106.062606 -300.488954 0 120 255
110.194382 105.216267 -301.561689 0 120 255
108.130880 104.369928 -302.634425 0 120 255
106.067377 103.523589 -303.707160 0 120 255
104.011695 102.612174 -304.735801 0 120 255
101.969143 101.591474 -305.690394 0 120 255
99.926592 100.570775 -306.644987 0 120 255
97.884040 99.550075 -307.599580 0 120 255
95.853192 98.477371 -308.516692 0 120 255
93.847027 97.294976 -309.354748 0 120 255
91.840861 96.112582 -310.192803 0 120 255
89.834696 94.930188 -311.030859 0 120 255
87.841992 93.707594 -311.838375 0 120 255
85.885784 92.376001 -312.563084 0 120 255
83.929576 91.044408 -313.287792 0 120 255
81.973368 89.712814 -314.012501 0 120 255
80.030557 88.351505 -314.713617 0 120 255
78.136143 86.882841 -315.329502 0 120 255
76.241729 85.414178 -315.945386 0 120 255
74.347315 83.945514 -316.561270 0 120 255
72.464698 82.456302 -317.160241 0 120 255
70.642305 80.862191 -317.672871 0 120 255
68.819913 79.268081 -318.185501 0 120 255
66.997521 77.673970 -318.698131 0 120 255
65.184063 76.067207 -319.200053 0 120 255
63.442486 74.358660 -319.615826 0 120 255
61.700909 72.650113 -320.031598 0 120 255
59.959332 70.941565 -320.447371 0 120 255
58.222803 69.227070 -320.858012 0 120 255
56.569544 67.414458 -321.183994 0 120 255
54.916285 65.601845 -321.509975 0 120 255
53.263027 63.789233 -321.835957 0 120 255
51.610114 61.976276 -322.161638 0 120 255
50.051556 60.069285 -322.405304 0 120 255
48.492998 58.162293 -322.648971 0 120 255
46.934440 56.255302 -322.892638 0 120 255
45.375883 54.348311 -323.136304 0 120 255
43.912437 52.360237 -323.309216 0 120 255
42.453985 50.367906 -323.478414 0 120 255
40.995533 48.375575 -323.647611 0 120 255
39.537082 46.383244 -323.816808 0 120 255
38.172491 44.321936 -323.926450 0 120 255
36.818724 42.252675 -324.029223 0 120 255
35.464958 40.183413 -324.131997 0 120 255
34.111191 38.114151 -324.234770 0 120 255
32.848957 35.986631 -324.288396 0 120 255
31.603747 33.848274 -324.332880 0 120 255
30.358538 31.709918 -324.377364 0 120 255
29.113329 29.571562 -324.421848 0 120 255
27.956462 27.384418 -324.426768 0 120 255
26.823100 25.184293 -324.421161 0 120 255
25.689737 22.984168 -324.415554 0 120 255
24.556375 20.784043 -324.409947 0 120 255
23.507474 18.543487 -324.373443 0 120 255
22.488763 16.288479 -324.325894 0 120 255
21.470051 14.033472 -324.278346 0 120 255
20.451340 11.778465 -324.230798 0 120 255
19.512666 9.490395 -324.160085 0 120 255
18.611017 7.187029 -324.078656 0 120 255
17.709369 4.883664 -323.997227 0 120 255
16.807720 2.580299 -323.915799 0 120 255
15.981255 0.250361 -323.818024 0 120 255
15.198761 -2.095119 -323.710690 0 120 255
14.416267 -4.440598 -323.603356 0 120 255
13.633773 -6.786078 -323.496022 0 120 255
12.921276 -9.152422 -323.378171 0 120 255
12.259781 -11.533968 -323.252655 0 120 255
11.598287 -13.915514 -323.127140 0 120 255
10.936792 -16.297060 -323.001624 0 120 255
10.339840 -18.694466 -322.870539 0 120 255
9.800980 -21.106146 -322.734441 0 120 255
9.262121 -23.517825 -322.598344 0 120 255
8.723261 -25.929505 -322.462246 0 120 255
8.243285 -28.352681 -322.324608 0 120 255
7.828537 -30.788591 -322.185265 0 120 255
7.413790 -33.224502 -322.045922 0 120 255
6.999043 -35.660412 -321.906580 0 120 255
6.637351 -38.104052 -321.768841 0 120 255
6.348055 -40.558237 -321.633293 0 120 255
6.058760 -43.012423 -321.497744 0 120 255
5.769464 -45.466608 -321.362196 0 120 255
5.527264 -47.925327 -321.230579 0 120 255
5.364644 -50.391707 -321.105605 0 120 255
5.202024 -52.858086 -320.980630 0 120 255
5.039404 -55.324466 -320.855656 0 120 255
4.917810 -57.792743 -320.736135 0 120 255
4.882974 -60.265033 -320.628145 0 120 255
4.848138 -62.737322 -320.520156 0 120 255
4.813302 -65.209612 -320.412166 0 120 255
4.813336 -67.681728 -320.310405 0 120 255
4.907278 -70.153376 -320.225418 0 120 255
5.001219 -72.625024 -320.140432 0 120 255
5.095161 -75.096672 -320.055445 0 120 255
5.217749 -77.566659 -319.976784 0 120 255
5.441326 -80.030787 -319.920420 0 120 255
5.664904 -82.494915 -319.864056 0 120 255
5.888482 -84.959043 -319.807691 0 120 255
6.134435 -87.420635 -319.757122 0 120 255
6.488346 -89.869987 -319.734511 0 120 255
6.842257 -92.319340 -319.711901 0 120 255
7.196168 -94.768692 -319.689290 0 120 255
7.566160 -97.215286 -319.671389 0 120 255
8.050907 -99.642190 -319.687099 0 120 255
8.535653 -102.069095 -319.702809 0 120 255
9.020400 -104.495999 -319.718520 0 120 255
9.514940 -106.920621 -319.737394 0 120 255
10.130783 -109.316963 -319.795472 0 120 255
10.746626 -111.713305 -319.853549 0 120 255
11.362469 -114.109648 -319.911627 0 120 255
11.981860 -116.504930 -319.970941 0 120 255
12.728763 -118.862146 -320.074688 0 120 255
13.475666 -121.219361 -320.178434 0 120 255
14.222569 -123.576577 -320.282181 0 120 255
14.969472 -125.933792 -320.385928 0 120 255
15.844435 -128.243831 -320.537018 0 120 255
16.722003 -130.552910 -320.689071 0 120 255
17.599571 -132.861989 -320.841124 0 120 255
18.477139 -135.171068 -320.993177 0 120 255
19.475938 -137.426407 -321.192011 0 120 255
20.483347 -139.677929 -321.394168 0 120 255
21.490756 -141.929451 -321.596326 0 120 255
22.498165 -144.180973 -321.798483 0 120 255
23.619692 -146.372699 -322.045973 0 120 255
24.755616 -148.556882 -322.299182 0 120 255
25.891541 -150.741064 -322.552391 0 120 255
27.027465 -152.925246 -322.805601 0 120 255
28.270121 -155.044183 -323.101819 0 120 255
29.532668 -157.150960 -323.406052 0 120 255
30.795214 -159.257737 -323.710285 0 120 255
32.057761 -161.364514 -324.014519 0 120 255
33.419382 -163.401307 -324.358671 0 120 255
34.805998 -165.420444 -324.712893 0 120 255
36.192614 -167.439581 -325.067115 0 120 255
37.579229 -169.458719 -325.421338 0 120 255
39.057038 -171.403936 -325.811727 0 120 255
40.564461 -173.325148 -326.213860 0 120 255
42.071884 -175.246360 -326.615994 0 120 255
43.579308 -177.167572 -327.018128 0 120 255
45.169849 -179.011844 -327.452093 0 120 255
46.794035 -180.824973 -327.898944 0 120 255
48.418220 -182.638103 -328.345794 0 120 255
50.042406 -184.451232 -328.792644 0 120 255
51.741520 -186.185402 -329.266512 0 120 255
53.477618 -187.880597 -329.753717 0 120 255
55.213716 -189.575792 -330.240922 0 120 255
56.949814 -191.270987 -330.728128 0 120 255
58.752586 -192.886291 -331.237239 0 120 255
60.594878 -194.454241 -331.759335 0 120 255
62.437171 -196.022191 -332.281431 0 120 255
64.279463 -197.590140 -332.803527 0 120 255
66.180231 -199.078396 -333.342226 0 120 255
68.122175 -200.510531 -333.892617 0 120 255
70.064120 -201.942667 -334.443007 0 120 255
72.006065 -203.374803 -334.993398 0 120 255
73.998418 -204.728621 -335.555081 0 120 255
76.032630 -206.017405 -336.126141 0 120 255
78.066842 -207.306189 -336.697200 0 120 255
80.101054 -208.594973 -337.268260 0 120 255
82.177873 -209.807970 -337.845451 0 120 255
84.296218 -210.947102 -338.428618 0 120 255
86.414563 -212.086234 -339.011785 0 120 255
88.532908 -213.225366 -339.594952 0 120 255
90.686431 -214.292382 -340.179382 0 120 255
92.880104 -215.277090 -340.765252 0 120 255
95.073776 -216.261798 -341.351122 0 120 255
97.267448 -217.246506 -341.936992 0 120 255
99.489363 -218.163810 -342.519734 0 120 255
101.749021 -218.991036 -343.098298 0 120 255
104.008679 -219.818262 -343.676862 0 120 255
106.268336 -220.645488 -344.255425 0 120 255
108.549900 -221.410962 -344.827091 0 120 255
110.865816 -222.079597 -345.387940 0 120 255
113.181732 -222.748232 -345.948789 0 120 255
115.497649 -223.416866 -346.509637 0 120 255
117.829839 -224.030168 -347.060551 0 120 255
120.192119 -224.541171 -347.593096 0 120 255
122.554398 -225.052173 -348.125642 0 120 255
124.916677 -225.563176 -348.658187 0 120 255
127.290379 -226.025844 -349.178600 0 120 255
129.689166 -226.382363 -349.672368 0 120 255
132.087953 -226.738881 -350.166135 0 120 255
134.486741 -227.095400 -350.659903 0 120 255
136.892928 -227.410936 -351.140257 0 120 255
139.318640 -227.618348 -351.585221 0 120 255
141.744352 -227.825759 -352.030185 0 120 255
144.170065 -228.033171 -352.475149 0 120 255
146.600010 -228.207051 -352.906348 0 120 255
149.043593 -228.272902 -353.293201 0 120 255
151.487177 -228.338753 -353.680054 0 120 255
153.930760 -228.404604 -354.066906 0 120 255
156.376248 -228.444219 -354.440566 0 120 255
158.829410 -228.378123 -354.761069 0 120 255
161.282571 -228.312027 -355.081572 0 120 255
163.735733 -228.245931 -355.402074 0 120 255
166.188688 -228.157806 -355.714221 0 120 255
168.640568 -227.954623 -355.982723 0 120 255
171.092448 -227.751440 -356.251225 0 120 255
173.544328 -227.548257 -356.519727 0 120 255
175.995720 -227.341628 -356.789853 0 120 255
178.443589 -227.110128 -357.071700 0 120 255
180.891458 -226.878629 -357.353547 0 120 255
183.339326 -226.647129 -357.635395 0 120 255
185.787195 -226.415629 -357.917243 0 120 255
188.235061 -226.184118 -358.199103 0 120 255
190.682928 -225.952608 -358.480962 0 120 255
193.130794 -225.721097 -358.762822 0 120 255
195.578661 -225.489587 -359.044681 0 120 255
198.026529 -225.258080 -359.326526 0 120 255
200.474397 -225.026573 -359.608371 0 120 255
202.922266 -224.795067 -359.890216 0 120 255
205.370134 -224.563560 -360.172061 0 120 255
