ply
format ascii 1.0
element vertex 385
property float x
property float y
property float z
property uchar red
property uchar green
property uchar blue
end_header
77.430455 -42.474882 -360.397637 0 120 255
77.187407 -42.528744 -357.934454 0 120 255
76.944358 -42.582605 -355.471271 0 120 255
76.701309 -42.636467 -353.008088 0 120 255
76.458261 -42.690329 -350.544905 0 120 255
76.210587 -42.796234 -348.083894 0 120 255
75.962724 -42.904263 -345.622972 0 120 255
75.714862 -43.012292 -343.162050 0 120 255
75.466999 -43.120321 -340.701128 0 120 255
75.299836 -43.473294 -338.257601 0 120 255
75.139783 -43.847845 -335.815606 0 120 255
74.979729 -44.222396 -333.373612 0 120 255
74.819675 -44.596948 -330.931617 0 120 255
74.739172 -45.144351 -328.519706 0 120 255
74.671103 -45.718772 -326.112498 0 120 255
74.603034 -46.293192 -323.705290 0 120 255
74.534965 -46.867613 -321.298082 0 120 255
74.541438 -47.592716 -318.932413 0 120 255
74.565402 -48.353179 -316.576491 0 120 255
74.589367 -49.113642 -314.220570 0 120 255
74.613331 -49.874105 -311.864649 0 120 255
74.707111 -50.763645 -309.557837 0 120 255
74.823601 -51.695170 -307.267000 0 120 255
74.940090 -52.626696 -304.976163 0 120 255
75.056580 -53.558221 -302.685326 0 120 255
75.238400 -54.598303 -300.447856 0 120 255
75.448366 -55.685153 -298.233378 0 120 255
75.658333 -56.772004 -296.018900 0 120 255
75.868299 -57.858855 -293.804422 0 120 255
76.139304 -59.035187 -291.644824 0 120 255
76.444179 -60.261173 -289.515680 0 120 255
76.749054 -61.487158 -287.386537 0 120 255
77.053930 -62.713144 -285.257393 0 120 255
77.415654 -64.011214 -283.182440 0 120 255
77.817313 -65.359919 -281.145553 0 120 255
78.218972 -66.708625 -279.108666 0 120 255
78.620630 -68.057330 -277.071779 0 120 255
79.074982 -69.462524 -275.086679 0 120 255
79.575724 -70.917451 -273.147171 0 120 255
80.076465 -72.372377 -271.207663 0 120 255
80.577207 -73.827303 -269.268155 0 120 255
81.126425 -75.324993 -267.376755 0 120 255
81.728906 -76.869668 -265.538212 0 120 255
82.331388 -78.414343 -263.699669 0 120 255
82.933869 -79.959018 -261.861127 0 120 255
83.576204 -81.532426 -260.062363 0 120 255
84.273235 -83.145268 -258.318191 0 120 255
84.970265 -84.758109 -256.574020 0 120 255
85.667295 -86.370951 -254.829848 0 120 255
86.400531 -88.003277 -253.120427 0 120 255
87.196214 -89.669212 -251.470944 0 120 255
87.991897 -91.335146 -249.821461 0 120 255
88.787581 -93.001080 -248.171977 0 120 255
89.619110 -94.680402 -246.555786 0 120 255
90.528778 -96.388905 -245.012166 0 120 255
91.438446 -98.097409 -243.468545 0 120 255
92.348113 -99.805912 -241.924925 0 120 255
93.289050 -101.521343 -240.409654 0 120 255
94.317693 -103.256206 -238.973900 0 120 255
95.346335 -104.991069 -237.538146 0 120 255
96.374978 -106.725931 -236.102392 0 120 255
97.429830 -108.462812 -234.689875 0 120 255
98.582056 -110.207188 -233.363688 0 120 255
99.734282 -111.951564 -232.037502 0 120 255
100.886509 -113.695940 -230.711316 0 120 255
102.059451 -115.439002 -229.403155 0 120 255
103.339270 -117.175287 -228.187991 0 120 255
104.619088 -118.911572 -226.972827 0 120 255
105.898907 -120.647856 -225.757663 0 120 255
107.193600 -122.381122 -224.555275 0 120 255
108.604152 -124.090875 -223.452399 0 120 255
110.014704 -125.800627 -222.349524 0 120 255
111.425255 -127.510379 -221.246648 0 120 255
112.844623 -129.217084 -220.151304 0 120 255
114.387911 -130.880953 -219.161836 0 120 255
115.931198 -132.544822 -218.172369 0 120 255
117.474485 -134.208691 -217.182901 0 120 255
119.020488 -135.871212 -216.195764 0 120 255
120.697021 -137.468923 -215.320662 0 120 255
122.373553 -139.066634 -214.445560 0 120 255
124.050085 -140.664345 -213.570458 0 120 255
125.726617 -142.262056 -212.695356 0 120 255
127.531895 -143.774524 -211.932631 0 120 255
129.340370 -145.284876 -211.172696 0 120 255
131.148844 -146.795228 -210.412761 0 120 255
132.957319 -148.305580 -209.652826 0 120 255
134.885568 -149.713904 -209.000833 0 120 255
136.822457 -151.114869 -208.356625 0 120 255
138.759346 -152.515833 -207.712418 0 120 255
140.696234 -153.916798 -207.068210 0 120 255
142.742111 -155.200042 -206.527398 0 120 255
144.801276 -156.468931 -205.999192 0 120 255
146.860441 -157.737821 -205.470986 0 120 255
148.919606 -159.006711 -204.942780 0 120 255
151.075098 -160.143480 -204.513241 0 120 255
153.247367 -161.257237 -204.100887 0 120 255
155.419636 -162.370995 -203.688533 0 120 255
157.591905 -163.484752 -203.276179 0 120 255
159.845994 -164.453486 -202.957539 0 120 255
162.118798 -165.389046 -202.660334 0 120 255
164.391602 -166.324607 -202.363130 0 120 255
166.664406 -167.260168 -202.065926 0 120 255
169.002739 -168.039565 -201.857210 0 120 255
171.359778 -168.774381 -201.673755 0 120 255
173.716817 -169.509196 -201.490300 0 120 255
176.073856 -170.244012 -201.306845 0 120 255
178.478475 -170.813572 -201.206306 0 120 255
180.899471 -171.326251 -201.134307 0 120 255
183.320467 -171.838929 -201.062308 0 120 255
185.741463 -172.351608 -200.990309 0 120 255
188.190638 -172.692305 -200.995246 0 120 255
190.651216 -172.963404 -201.031318 0 120 255
193.111795 -173.234502 -201.067390 0 120 255
195.572374 -173.505601 -201.103462 0 120 255
198.040577 -173.600638 -201.210078 0 120 255
200.512339 -173.613505 -201.349618 0 120 255
202.984101 -173.626371 -201.489158 0 120 255
205.455863 -173.639238 -201.628698 0 120 255
207.913921 -173.474910 -201.831918 0 120 255
210.364713 -173.216643 -202.068897 0 120 255
212.815505 -172.958377 -202.305877 0 120 255
215.266297 -172.700110 -202.542856 0 120 255
217.681762 -172.266708 -202.836210 0 120 255
220.076209 -171.729115 -203.163103 0 120 255
222.470657 -171.191522 -203.489995 0 120 255
224.865104 -170.653929 -203.816888 0 120 255
227.202881 -169.946633 -204.192447 0 120 255
229.503186 -169.127127 -204.600185 0 120 255
231.803491 -168.307621 -205.007924 0 120 255
234.103796 -167.488115 -205.415662 0 120 255
236.327022 -166.507777 -205.864037 0 120 255
238.494025 -165.410123 -206.342052 0 120 255
240.661028 -164.312469 -206.820067 0 120 255
242.828031 -163.214816 -207.298081 0 120 255
244.899197 -161.968573 -207.808506 0 120 255
246.893665 -160.603415 -208.344869 0 120 255
248.888133 -159.238257 -208.881232 0 120 255
250.882600 -157.873098 -209.417594 0 120 255
252.764877 -156.374750 -209.978115 0 120 255
254.548988 -154.759860 -210.559772 0 120 255
256.333099 -153.144971 -211.141430 0 120 255
258.117209 -151.530082 -211.723088 0 120 255
259.775871 -149.800103 -212.320853 0 120 255
261.314687 -147.960176 -212.934006 0 120 255
262.853502 -146.120248 -213.547159 0 120 255
264.392318 -144.280320 -214.160312 0 120 255
265.796171 -142.345499 -214.781940 0 120 255
267.059166 -140.311638 -215.412415 0 120 255
268.322160 -138.277778 -216.042890 0 120 255
269.585155 -136.243917 -216.673365 0 120 255
270.707871 -134.136632 -217.305380 0 120 255
271.670216 -131.945408 -217.939155 0 120 255
272.632560 -129.754183 -218.572930 0 120 255
273.594905 -127.562959 -219.206705 0 120 255
274.416081 -125.320096 -219.836011 0 120 255
275.059634 -123.012261 -220.459693 0 120 255
275.703187 -120.704425 -221.083375 0 120 255
276.346741 -118.396590 -221.707057 0 120 255
276.852641 -116.058201 -222.321390 0 120 255
277.166629 -113.677214 -222.922686 0 120 255
277.480617 -111.296228 -223.523983 0 120 255
277.794605 -108.915241 -224.125280 0 120 255
277.978558 -106.523077 -224.713620 0 120 255
277.959818 -104.113491 -225.281763 0 120 255
277.941078 -101.703905 -225.849907 0 120 255
277.922338 -99.294319 -226.418050 0 120 255
277.784683 -96.890323 -226.970961 0 120 255
277.437436 -94.496180 -227.497024 0 120 255
277.090189 -92.102037 -228.023087 0 120 255
276.742941 -89.707894 -228.549150 0 120 255
276.290621 -87.332792 -229.059018 0 120 255
275.625940 -84.996174 -229.536155 0 120 255
274.961259 -82.659556 -230.013293 0 120 255
274.296577 -80.322939 -230.490430 0 120 255
273.542453 -78.015029 -230.951606 0 120 255
272.577408 -75.774817 -231.375145 0 120 255
271.612364 -73.534606 -231.798683 0 120 255
270.647319 -71.294394 -232.222221 0 120 255
269.609263 -69.088580 -232.631045 0 120 255
268.365851 -66.979514 -232.998481 0 120 255
267.122440 -64.870447 -233.365918 0 120 255
265.879028 -62.761381 -233.733355 0 120 255
264.578894 -60.688492 -234.088101 0 120 255
263.082888 -58.740536 -234.399023 0 120 255
261.586882 -56.792579 -234.709946 0 120 255
260.090875 -54.844622 -235.020869 0 120 255
258.553452 -52.931018 -235.321629 0 120 255
256.833214 -51.169047 -235.577530 0 120 255
255.112977 -49.407076 -235.833431 0 120 255
253.392739 -47.645106 -236.089332 0 120 255
251.644728 -45.912531 -236.337824 0 120 255
249.730121 -44.356291 -236.541879 0 120 255
247.815513 -42.800051 -236.745934 0 120 255
245.900905 -41.243811 -236.949989 0 120 255
243.970024 -39.709457 -237.149358 0 120 255
241.891459 -38.373714 -237.306205 0 120 255
239.812894 -37.037971 -237.463051 0 120 255
237.734328 -35.702228 -237.619898 0 120 255
235.648533 -34.378946 -237.774507 0 120 255
233.436142 -33.273846 -237.889936 0 120 255
231.223751 -32.168746 -238.005366 0 120 255
229.011360 -31.063647 -238.120795 0 120 255
226.798194 -29.960300 -238.235968 0 120 255
224.481200 -29.091819 -238.316736 0 120 255
222.164206 -28.223338 -238.397505 0 120 255
219.847212 -27.354857 -238.478273 0 120 255
217.530218 -26.486376 -238.559041 0 120 255
215.139567 -25.847176 -238.613696 0 120 255
212.745817 -25.217626 -238.667252 0 120 255
210.352066 -24.588076 -238.720808 0 120 255
207.958315 -23.958526 -238.774364 0 120 255
205.518477 -23.545857 -238.810370 0 120 255
203.074128 -23.154421 -238.844659 0 120 255
200.629778 -22.762984 -238.878947 0 120 255
198.185428 -22.371547 -238.913235 0 120 255
195.718424 -22.182229 -238.938056 0 120 255
193.247771 -22.025466 -238.961350 0 120 255
190.777118 -21.868702 -238.984645 0 120 255
188.306465 -21.711939 -239.007940 0 120 255
185.832621 -21.740986 -239.029155 0 120 255
183.358033 -21.813310 -239.049886 0 120 255
180.883446 -21.885634 -239.070617 0 120 255
178.408858 -21.957958 -239.091347 0 120 255
175.946843 -22.198935 -239.116569 0 120 255
173.488787 -22.493037 -239.143205 0 120 255
171.030731 -22.787140 -239.169841 0 120 255
168.572675 -23.081242 -239.196478 0 120 255
166.139583 -23.526546 -239.233279 0 120 255
163.716712 -24.033752 -239.274241 0 120 255
161.293840 -24.540958 -239.315203 0 120 255
158.870968 -25.048164 -239.356165 0 120 255
156.482437 -25.689270 -239.411998 0 120 255
154.111721 -26.399842 -239.475544 0 120 255
151.741005 -27.110414 -239.539091 0 120 255
149.370290 -27.820987 -239.602638 0 120 255
147.040630 -28.648636 -239.684779 0 120 255
144.737523 -29.552005 -239.778946 0 120 255
142.434417 -30.455375 -239.873114 0 120 255
140.131310 -31.358744 -239.967281 0 120 255
137.873652 -32.363100 -240.082795 0 120 255
135.652268 -33.448053 -240.215347 0 120 255
133.430883 -34.533006 -240.347898 0 120 255
131.209498 -35.617959 -240.480449 0 120 255
129.035936 -36.788711 -240.636133 0 120 255
126.909216 -38.043502 -240.814474 0 120 255
124.782496 -39.298293 -240.992816 0 120 255
122.655776 -40.553083 -241.171158 0 120 255
120.577510 -41.879522 -241.373497 0 120 255
118.557411 -43.291973 -241.604645 0 120 255
116.537313 -44.704423 -241.835793 0 120 255
114.517214 -46.116873 -242.066942 0 120 255
112.544687 -47.587939 -242.322076 0 120 255
110.642330 -49.145462 -242.612593 0 120 255
108.739972 -50.702986 -242.903109 0 120 255
106.837615 -52.260510 -243.193625 0 120 255
104.980633 -53.864801 -243.507291 0 120 255
103.206452 -55.554432 -243.863202 0 120 255
101.432270 -57.244062 -244.219113 0 120 255
99.658089 -58.933693 -244.575024 0 120 255
97.925933 -60.659470 -244.952501 0 120 255
96.289794 -62.467834 -245.379248 0 120 255
94.653655 -64.276198 -245.805995 0 120 255
93.017516 -66.084562 -246.232743 0 120 255
91.419028 -67.919718 -246.678800 0 120 255
89.930314 -69.832990 -247.181157 0 120 255
88.441600 -71.746263 -247.683514 0 120 255
86.952886 -73.659535 -248.185871 0 120 255
85.497202 -75.591833 -248.705268 0 120 255
84.168113 -77.597047 -249.289974 0 120 255
82.839023 -79.602262 -249.874680 0 120 255
81.509934 -81.607476 -250.459386 0 120 255
80.208869 -83.625188 -251.058730 0 120 255
79.055684 -85.708847 -251.735318 0 120 255
77.902499 -87.792506 -252.411907 0 120 255
76.749313 -89.876165 -253.088495 0 120 255
75.616164 -91.966513 -253.775029 0 120 255
74.642239 -94.110016 -254.540608 0 120 255
73.668314 -96.253519 -255.306186 0 120 255
72.694389 -98.397022 -256.071764 0 120 255
71.731662 -100.543178 -256.842514 0 120 255
70.934851 -102.728652 -257.689885 0 120 255
70.138039 -104.914126 -258.537257 0 120 255
69.341228 -107.099600 -259.384628 0 120 255
68.547172 -109.285468 -260.233216 0 120 255
67.931997 -111.496896 -261.160787 0 120 255
67.316823 -113.708325 -262.088358 0 120 255
66.701648 -115.919753 -263.015929 0 120 255
66.086474 -118.131182 -263.943500 0 120 255
65.650828 -120.352182 -264.946169 0 120 255
65.221181 -122.573503 -265.951347 0 120 255
64.791535 -124.794823 -266.956526 0 120 255
64.361888 -127.016143 -267.961704 0 120 255
64.106040 -129.231767 -269.034922 0 120 255
63.865155 -131.446899 -270.113998 0 120 255
63.624270 -133.662032 -271.193074 0 120 255
63.383385 -135.877165 -272.272150 0 120 255
63.309770 -138.072811 -273.411608 0 120 255
63.260177 -140.265659 -274.559738 0 120 255
63.210584 -142.458507 -275.707868 0 120 255
63.160991 -144.651355 -276.855999 0 120 255
63.271380 -146.812417 -278.056336 0 120 255
63.414824 -148.966911 -279.267460 0 120 255
63.558267 -151.121405 -280.478584 0 120 255
63.701710 -153.275900 -281.689708 0 120 255
63.997135 -155.387827 -282.944433 0 120 255
64.334484 -157.488012 -284.211186 0 120 255
64.671834 -159.588197 -285.477939 0 120 255
65.009184 -161.688381 -286.744692 0 120 255
65.489843 -163.736743 -288.046161 0 120 255
66.020987 -165.766848 -289.359859 0 120 255
66.552130 -167.796954 -290.673557 0 120 255
67.083273 -169.827059 -291.987254 0 120 255
67.748430 -171.797638 -293.326637 0 120 255
68.472134 -173.742211 -294.677242 0 120 255
69.195838 -175.686784 -296.027846 0 120 255
69.919543 -177.631357 -297.378450 0 120 255
70.767402 -179.510289 -298.745699 0 120 255
71.681201 -181.354360 -300.121787 0 120 255
72.595000 -183.198430 -301.497876 0 120 255
73.508799 -185.042500 -302.873965 0 120 255
74.536400 -186.816413 -304.257836 0 120 255
75.636435 -188.545671 -305.646660 0 120 255
76.736470 -190.274929 -307.035485 0 120 255
77.836506 -192.004186 -308.424309 0 120 255
79.039594 -193.660376 -309.812404 0 120 255
80.320507 -195.261385 -311.199947 0 120 255
81.601420 -196.862394 -312.587490 0 120 255
82.882333 -198.463403 -313.975032 0 120 255
84.255267 -199.990057 -315.353837 0 120 255
85.710085 -201.450547 -316.724865 0 120 255
87.164902 -202.911037 -318.095894 0 120 255
88.619720 -204.371526 -319.466922 0 120 255
90.155382 -205.757937 -320.821925 0 120 255
91.775435 -207.067020 -322.160199 0 120 255
93.395487 -208.376102 -323.498472 0 120 255
95.015539 -209.685185 -324.836746 0 120 255
96.705268 -210.921988 -326.152592 0 120 255
98.480124 -212.070482 -327.441037 0 120 255
100.254979 -213.218977 -328.729483 0 120 255
102.029835 -214.367472 -330.017928 0 120 255
103.863388 -215.446904 -331.278604 0 120 255
105.780859 -216.427601 -332.499581 0 120 255
107.698329 -217.408298 -333.720557 0 120 255
109.615800 -218.388995 -334.941534 0 120 255
111.581370 -219.305155 -336.130593 0 120 255
113.627570 -220.113129 -337.266148 0 120 255
115.673770 -220.921104 -338.401703 0 120 255
117.719971 -221.729078 -339.537259 0 120 255
119.804248 -222.478162 -340.638084 0 120 255
121.963690 -223.110997 -341.670351 0 120 255
124.123132 -223.743831 -342.702618 0 120 255
126.282573 -224.376666 -343.734885 0 120 255
128.470848 -224.957186 -344.731021 0 120 255
130.726619 -225.415236 -345.642573 0 120 255
132.982391 -225.873287 -346.554126 0 120 255
135.238162 -226.331338 -347.465679 0 120 255
137.514497 -226.744313 -348.341154 0 120 255
139.848528 -227.030812 -349.115401 0 120 255
142.182560 -227.317312 -349.889648 0 120 255
144.516591 -227.603811 -350.663895 0 120 255
146.864057 -227.852877 -351.403578 0 120 255
149.257406 -227.974095 -352.025214 0 120 255
151.650755 -228.095312 -352.646850 0 120 255
154.044104 -228.216529 -353.268486 0 120 255
156.445048 -228.308038 -353.858470 0 120 255
158.878286 -228.273226 -354.313860 0 120 255
161.311525 -228.238414 -354.769251 0 120 255
163.744764 -228.203601 -355.224642 0 120 255
166.180795 -228.143398 -355.653545 0 120 255
168.632115 -227.944141 -355.937392 0 120 255
171.083436 -227.744884 -356.221238 0 120 255
173.534756 -227.545627 -356.505084 0 120 255
175.985768 -227.342569 -356.788707 0 120 255
178.434466 -227.110991 -357.070650 0 120 255
180.883165 -226.879413 -357.352593 0 120 255
183.331863 -226.647835 -357.634535 0 120 255
185.780561 -226.416256 -357.916479 0 120 255
188.229257 -226.184667 -358.198434 0 120 255
190.677953 -225.953078 -358.480390 0 120 255
193.126649 -225.721489 -358.762345 0 120 255
195.575345 -225.489900 -359.044300 0 120 255
198.024042 -225.258315 -359.326248 0 120 255
200.472739 -225.026730 -359.608195 0 120 255
202.921436 -224.795145 -359.890143 0 120 255
205.370133 -224.563560 -360.172091 0 120 255
