ply
format ascii 1.0
element vertex 385
property float x
property float y
property float z
property uchar red
property uchar green
property uchar blue
end_header
77.430455 -42.474882 -360.397637 0 120 255
77.187532 -42.528716 -357.935723 0 120 255
76.944608 -42.582550 -355.473809 0 120 255
76.701685 -42.636384 -353.011895 0 120 255
76.458762 -42.690218 -350.549981 0 120 255
76.220399 -42.755677 -348.087904 0 120 255
75.982232 -42.821637 -345.625820 0 120 255
75.744066 -42.887596 -343.163737 0 120 255
75.505900 -42.953556 -340.701653 0 120 255
75.431503 -43.377264 -338.267757 0 120 255
75.371860 -43.833200 -335.836400 0 120 255
75.312217 -44.289136 -333.405044 0 120 255
75.252574 -44.745073 -330.973687 0 120 255
75.335470 -45.486606 -328.617761 0 120 255
75.439299 -46.270082 -326.272912 0 120 255
75.543129 -47.053559 -323.928064 0 120 255
75.646958 -47.837035 -321.583215 0 120 255
75.875335 -48.847921 -319.339871 0 120 255
76.129880 -49.906586 -317.117853 0 120 255
76.384425 -50.965251 -314.895834 0 120 255
76.638970 -52.023917 -312.673816 0 120 255
77.000807 -53.258370 -310.563673 0 120 255
77.392770 -54.542181 -308.484941 0 120 255
77.784732 -55.825991 -306.406209 0 120 255
78.176695 -57.109802 -304.327477 0 120 255
78.660338 -58.525737 -302.360152 0 120 255
79.176989 -59.989242 -300.432938 0 120 255
79.693640 -61.452746 -298.505723 0 120 255
80.210291 -62.916251 -296.578509 0 120 255
80.804981 -64.476242 -294.755348 0 120 255
81.434749 -66.079602 -292.978958 0 120 255
82.064516 -67.682962 -291.202569 0 120 255
82.694283 -69.286322 -289.426179 0 120 255
83.390408 -70.957837 -287.742537 0 120 255
84.123103 -72.666914 -286.110010 0 120 255
84.855798 -74.375990 -284.477483 0 120 255
85.588494 -76.085067 -282.844956 0 120 255
86.377628 -77.840278 -281.292005 0 120 255
87.204438 -79.626286 -279.792174 0 120 255
88.031248 -81.412294 -278.292344 0 120 255
88.858057 -83.198301 -276.792513 0 120 255
89.732889 -85.013661 -275.358623 0 120 255
90.646250 -86.852569 -273.977638 0 120 255
91.559610 -88.691477 -272.596652 0 120 255
92.472971 -90.530385 -271.215667 0 120 255
93.427143 -92.386097 -269.887406 0 120 255
94.420498 -94.257942 -268.609763 0 120 255
95.413853 -96.129787 -267.332119 0 120 255
96.407208 -98.001632 -266.054476 0 120 255
97.435129 -99.881100 -264.817305 0 120 255
98.502704 -101.769314 -263.626565 0 120 255
99.570279 -103.657528 -262.435825 0 120 255
100.637854 -105.545742 -261.245085 0 120 255
101.734489 -107.435064 -260.083869 0 120 255
102.871022 -109.325909 -258.963186 0 120 255
104.007555 -111.216753 -257.842502 0 120 255
105.144088 -113.107598 -256.721819 0 120 255
106.304752 -114.995099 -255.621144 0 120 255
107.505244 -116.877083 -254.553489 0 120 255
108.705735 -118.759067 -253.485833 0 120 255
109.906227 -120.641050 -252.418178 0 120 255
111.126377 -122.516862 -251.362547 0 120 255
112.385838 -124.380331 -250.330961 0 120 255
113.645299 -126.243800 -249.299375 0 120 255
114.904760 -128.107270 -248.267788 0 120 255
116.179787 -129.962997 -247.241780 0 120 255
117.493000 -131.799734 -246.229456 0 120 255
118.806213 -133.636471 -245.217132 0 120 255
120.119425 -135.473208 -244.204808 0 120 255
121.444468 -137.301624 -243.193152 0 120 255
122.805767 -139.104534 -242.183544 0 120 255
124.167066 -140.907445 -241.173936 0 120 255
125.528365 -142.710355 -240.164328 0 120 255
126.898120 -144.505149 -239.151979 0 120 255
128.301151 -146.267996 -238.128846 0 120 255
129.704183 -148.030843 -237.105712 0 120 255
131.107214 -149.793690 -236.082579 0 120 255
132.515740 -151.549263 -235.054767 0 120 255
133.953246 -153.266462 -234.002279 0 120 255
135.390753 -154.983661 -232.949790 0 120 255
136.828260 -156.700860 -231.897301 0 120 255
138.268803 -158.412152 -230.839613 0 120 255
139.732418 -160.078561 -229.742415 0 120 255
141.196032 -161.744970 -228.645217 0 120 255
142.659647 -163.411380 -227.548020 0 120 255
144.124466 -165.073705 -226.446457 0 120 255
145.604488 -166.684504 -225.289828 0 120 255
147.084509 -168.295303 -224.133198 0 120 255
148.564531 -169.906102 -222.976568 0 120 255
150.044713 -171.515048 -221.817682 0 120 255
151.529936 -173.065602 -220.587712 0 120 255
153.015159 -174.616155 -219.357742 0 120 255
154.500383 -176.166709 -218.127773 0 120 255
155.985606 -177.717263 -216.897803 0 120 255
157.463215 -179.203786 -215.582618 0 120 255
158.940735 -180.689552 -214.266423 0 120 255
160.418254 -182.175317 -212.950228 0 120 255
161.895773 -183.661082 -211.634034 0 120 255
163.352072 -185.081285 -210.225350 0 120 255
164.807159 -186.497746 -208.811387 0 120 255
166.262246 -187.914207 -207.397425 0 120 255
167.717333 -189.330667 -205.983462 0 120 255
169.137102 -190.680394 -204.472234 0 120 255
170.553117 -192.023028 -202.950667 0 120 255
171.969133 -193.365662 -201.429100 0 120 255
173.385148 -194.708296 -199.907534 0 120 255
174.751441 -195.983370 -198.286530 0 120 255
176.109779 -197.247634 -196.649617 0 120 255
177.468117 -198.511898 -195.012704 0 120 255
178.826454 -199.776162 -193.375790 0 120 255
180.120662 -200.972422 -191.640029 0 120 255
181.400834 -202.153797 -189.882632 0 120 255
182.681006 -203.335172 -188.125235 0 120 255
183.961177 -204.516547 -186.367839 0 120 255
185.163155 -205.629901 -184.515005 0 120 255
186.342950 -206.723957 -182.635097 0 120 255
187.522745 -207.818014 -180.755189 0 120 255
188.702541 -208.912070 -178.875281 0 120 255
189.790840 -209.938591 -176.906178 0 120 255
190.846622 -210.941110 -174.905375 0 120 255
191.902404 -211.943629 -172.904573 0 120 255
192.958186 -212.946147 -170.903771 0 120 255
193.910421 -213.882210 -168.822766 0 120 255
194.817601 -214.789357 -166.706865 0 120 255
195.724782 -215.696504 -164.590963 0 120 255
196.631963 -216.603651 -162.475062 0 120 255
197.425301 -217.446094 -160.290486 0 120 255
198.158956 -218.254616 -158.069907 0 120 255
198.892611 -219.063137 -155.849327 0 120 255
199.626266 -219.871659 -153.628748 0 120 255
200.238065 -220.618005 -151.353221 0 120 255
200.773739 -221.325509 -149.043368 0 120 255
201.309413 -222.033013 -146.733515 0 120 255
201.845087 -222.740518 -144.423662 0 120 255
202.253640 -223.389189 -142.074281 0 120 255
202.568283 -223.994397 -139.695699 0 120 255
202.882927 -224.599606 -137.317117 0 120 255
203.197571 -225.204815 -134.938535 0 120 255
203.382975 -225.755387 -132.536900 0 120 255
203.456027 -226.258462 -130.115225 0 120 255
203.529079 -226.761536 -127.693550 0 120 255
203.602131 -227.264611 -125.271876 0 120 255
203.547250 -227.718054 -122.843903 0 120 255
203.361810 -228.120847 -120.409504 0 120 255
203.176370 -228.523640 -117.975104 0 120 255
202.990929 -228.926433 -115.540705 0 120 255
202.682315 -229.285330 -113.116188 0 120 255
202.226175 -229.591655 -110.703506 0 120 255
201.770035 -229.897979 -108.290825 0 120 255
201.313895 -230.204303 -105.878143 0 120 255
200.742683 -230.473033 -103.490061 0 120 255
200.009408 -230.688819 -101.136622 0 120 255
199.276133 -230.904605 -98.783183 0 120 255
198.542858 -231.120390 -96.429744 0 120 255
197.705553 -231.305240 -94.113322 0 120 255
196.695225 -231.438638 -91.858466 0 120 255
195.684898 -231.572036 -89.603611 0 120 255
194.674570 -231.705433 -87.348756 0 120 255
193.573597 -231.814637 -85.140319 0 120 255
192.293320 -231.875984 -83.023705 0 120 255
191.013042 -231.937331 -80.907090 0 120 255
189.732765 -231.998678 -78.790476 0 120 255
188.376771 -232.042355 -76.726153 0 120 255
186.840762 -232.044023 -74.786152 0 120 255
185.304752 -232.045691 -72.846152 0 120 255
183.768743 -232.047359 -70.906151 0 120 255
182.172585 -232.037351 -69.020509 0 120 255
180.401921 -231.993466 -67.292576 0 120 255
178.631257 -231.949581 -65.564642 0 120 255
176.860593 -231.905696 -63.836709 0 120 255
175.044974 -231.855710 -62.161458 0 120 255
173.066676 -231.783647 -60.676845 0 120 255
171.088378 -231.711584 -59.192232 0 120 255
169.110081 -231.639522 -57.707620 0 120 255
167.100856 -231.565420 -56.270445 0 120 255
164.947320 -231.481806 -55.054622 0 120 255
162.793785 -231.398192 -53.838799 0 120 255
160.640250 -231.314578 -52.622976 0 120 255
158.467874 -231.230323 -51.446264 0 120 255
156.175932 -231.141994 -50.517755 0 120 255
153.883990 -231.053666 -49.589246 0 120 255
151.592048 -230.965337 -48.660737 0 120 255
149.290629 -230.876851 -47.760718 0 120 255
146.899461 -230.786871 -47.130521 0 120 255
144.508292 -230.696890 -46.500325 0 120 255
142.117124 -230.606910 -45.870129 0 120 255
139.722682 -230.516902 -45.256488 0 120 255
137.271657 -230.426403 -44.929049 0 120 255
134.820632 -230.335905 -44.601609 0 120 255
132.369607 -230.245406 -44.274169 0 120 255
129.918283 -230.154914 -43.950888 0 120 255
127.445604 -230.064886 -43.924808 0 120 255
124.972924 -229.974857 -43.898728 0 120 255
122.500244 -229.884829 -43.872647 0 120 255
120.027565 -229.794801 -43.846567 0 120 255
117.568885 -229.706360 -44.106769 0 120 255
115.110597 -229.617963 -44.374979 0 120 255
112.652309 -229.529567 -44.643188 0 120 255
110.194021 -229.441171 -44.911398 0 120 255
107.779879 -229.355353 -45.442681 0 120 255
105.368976 -229.269724 -45.993266 0 120 255
102.958072 -229.184095 -46.543851 0 120 255
100.547169 -229.098466 -47.094436 0 120 255
98.204559 -229.016194 -47.882362 0 120 255
95.870357 -228.934336 -48.699509 0 120 255
93.536155 -228.852477 -49.516656 0 120 255
91.201952 -228.770618 -50.333803 0 120 255
88.954333 -228.692689 -51.361350 0 120 255
86.722113 -228.615459 -52.426321 0 120 255
84.489894 -228.538229 -53.491291 0 120 255
82.257674 -228.460999 -54.556262 0 120 255
80.124784 -228.388063 -55.804473 0 120 255
78.015573 -228.316151 -57.096366 0 120 255
75.906362 -228.244239 -58.388259 0 120 255
73.797151 -228.172326 -59.680152 0 120 255
71.795096 -228.104890 -61.128984 0 120 255
69.825792 -228.038821 -62.625782 0 120 255
67.856487 -227.972753 -64.122581 0 120 255
65.887183 -227.906685 -65.619379 0 120 255
64.028627 -227.845129 -67.248359 0 120 255
62.212244 -227.785293 -68.927676 0 120 255
60.395861 -227.725456 -70.606992 0 120 255
58.579478 -227.665619 -72.286309 0 120 255
56.873913 -227.610217 -74.075055 0 120 255
55.219919 -227.556878 -75.914726 0 120 255
53.565925 -227.503539 -77.754396 0 120 255
51.911931 -227.450200 -79.594067 0 120 255
50.366026 -227.401123 -81.522717 0 120 255
48.880777 -227.354438 -83.501298 0 120 255
47.395527 -227.307752 -85.479880 0 120 255
45.910278 -227.261067 -87.458461 0 120 255
44.528222 -227.218401 -89.507975 0 120 255
43.215365 -227.178430 -91.605054 0 120 255
41.902508 -227.138459 -93.702132 0 120 255
40.589651 -227.098488 -95.799211 0 120 255
39.373533 -227.062245 -97.951598 0 120 255
38.234486 -227.028973 -100.148049 0 120 255
37.095439 -226.995701 -102.344499 0 120 255
35.956391 -226.962428 -104.540949 0 120 255
34.906527 -226.932554 -106.779396 0 120 255
33.940820 -226.905886 -109.057471 0 120 255
32.975113 -226.879219 -111.335547 0 120 255
32.009406 -226.852551 -113.613623 0 120 255
31.124485 -226.828940 -115.922503 0 120 255
30.329810 -226.808743 -118.265794 0 120 255
29.535136 -226.788546 -120.609086 0 120 255
28.740462 -226.768349 -122.952377 0 120 255
28.017862 -226.750855 -125.317321 0 120 255
27.390756 -226.736944 -127.710953 0 120 255
26.763651 -226.723032 -130.104586 0 120 255
26.136546 -226.709121 -132.498218 0 120 255
25.572680 -226.697564 -134.906165 0 120 255
25.108628 -226.689724 -137.336705 0 120 255
24.644575 -226.681883 -139.767245 0 120 255
24.180523 -226.674043 -142.197784 0 120 255
23.771071 -226.668214 -144.636934 0 120 255
23.465047 -226.666195 -147.092392 0 120 255
23.159024 -226.664176 -149.547851 0 120 255
22.853000 -226.662157 -152.003309 0 120 255
22.593208 -226.661844 -154.463080 0 120 255
22.439687 -226.665454 -156.932766 0 120 255
22.286166 -226.669063 -159.402452 0 120 255
22.132645 -226.672672 -161.872138 0 120 255
22.017321 -226.677684 -164.343061 0 120 255
22.010271 -226.686670 -166.817490 0 120 255
22.003221 -226.695656 -169.291919 0 120 255
21.996171 -226.704642 -171.766349 0 120 255
22.019786 -226.714734 -174.239989 0 120 255
22.153148 -226.728783 -176.710809 0 120 255
22.286510 -226.742832 -179.181628 0 120 255
22.419872 -226.756880 -181.652447 0 120 255
22.576884 -226.771785 -184.121336 0 120 255
22.844653 -226.790698 -186.581188 0 120 255
23.112421 -226.809611 -189.041040 0 120 255
23.380190 -226.828524 -191.500893 0 120 255
23.665123 -226.848050 -193.958414 0 120 255
24.061444 -226.871553 -196.400812 0 120 255
24.457765 -226.895056 -198.843210 0 120 255
24.854087 -226.918558 -201.285608 0 120 255
25.261635 -226.942464 -203.725886 0 120 255
25.781246 -226.970388 -206.145009 0 120 255
26.300856 -226.998312 -208.564132 0 120 255
26.820467 -227.026235 -210.983255 0 120 255
27.345844 -227.054363 -213.400987 0 120 255
27.984069 -227.086488 -215.791503 0 120 255
28.622293 -227.118613 -218.182019 0 120 255
29.260518 -227.150738 -220.572535 0 120 255
29.899449 -227.182888 -222.962844 0 120 255
30.652145 -227.219067 -225.319764 0 120 255
31.404841 -227.255246 -227.676683 0 120 255
32.157537 -227.291424 -230.033603 0 120 255
32.910233 -227.327603 -232.390523 0 120 255
33.769798 -227.367546 -234.710437 0 120 255
34.633383 -227.407630 -237.028958 0 120 255
35.496969 -227.447714 -239.347480 0 120 255
36.360554 -227.487798 -241.666002 0 120 255
37.323562 -227.531344 -243.944745 0 120 255
38.295061 -227.575185 -246.220091 0 120 255
39.266559 -227.619027 -248.495437 0 120 255
40.238058 -227.662868 -250.770783 0 120 255
41.302249 -227.709943 -253.003893 0 120 255
42.379209 -227.757464 -255.231185 0 120 255
43.456169 -227.804984 -257.458477 0 120 255
44.533129 -227.852505 -259.685768 0 120 255
45.696666 -227.903009 -261.868589 0 120 255
46.877120 -227.954096 -264.042721 0 120 255
48.057574 -228.005183 -266.216853 0 120 255
49.238027 -228.056270 -268.390985 0 120 255
50.499369 -228.110123 -270.518610 0 120 255
51.781677 -228.164693 -272.634181 0 120 255
53.063985 -228.219263 -274.749751 0 120 255
54.346292 -228.273833 -276.865322 0 120 255
55.704141 -228.330992 -278.932506 0 120 255
57.086925 -228.389007 -280.983719 0 120 255
58.469708 -228.447021 -283.034932 0 120 255
59.852492 -228.505035 -285.086145 0 120 255
61.305727 -228.565443 -287.087226 0 120 255
62.787807 -228.626832 -289.067781 0 120 255
64.269887 -228.688221 -291.048337 0 120 255
65.751967 -228.749609 -293.028893 0 120 255
67.299495 -228.813215 -294.957771 0 120 255
68.879667 -228.877928 -296.860873 0 120 255
70.459839 -228.942640 -298.763976 0 120 255
72.040011 -229.007352 -300.667078 0 120 255
73.680791 -229.073942 -302.517061 0 120 255
75.357943 -229.141658 -304.335166 0 120 255
77.035095 -229.209375 -306.153272 0 120 255
78.712247 -229.277091 -307.971377 0 120 255
80.445526 -229.346014 -309.734760 0 120 255
82.218987 -229.415799 -311.458970 0 120 255
83.992447 -229.485584 -313.183179 0 120 255
85.765908 -229.555369 -314.907388 0 120 255
87.590252 -229.623356 -316.576303 0 120 255
89.457815 -229.689816 -318.198254 0 120 255
91.325377 -229.756276 -319.820204 0 120 255
93.192940 -229.822736 -321.442155 0 120 255
95.105668 -229.883186 -323.009201 0 120 255
97.063788 -229.937595 -324.521066 0 120 255
99.021908 -229.992005 -326.032930 0 120 255
100.980028 -230.046415 -327.544795 0 120 255
102.977659 -230.091741 -329.002501 0 120 255
105.022265 -230.126269 -330.395814 0 120 255
107.066872 -230.160797 -331.789128 0 120 255
109.111478 -230.195325 -333.182441 0 120 255
111.189961 -230.219093 -334.522791 0 120 255
113.316199 -230.227691 -335.788481 0 120 255
115.442436 -230.236290 -337.054170 0 120 255
117.568674 -230.244889 -338.319860 0 120 255
119.723173 -230.241880 -339.534393 0 120 255
121.925137 -230.219377 -340.663011 0 120 255
124.127101 -230.196874 -341.791629 0 120 255
126.329065 -230.174371 -342.920246 0 120 255
128.553794 -230.140163 -344.000171 0 120 255
130.824437 -230.082346 -344.981889 0 120 255
133.095079 -230.024529 -345.963607 0 120 255
135.365722 -229.966712 -346.945325 0 120 255
137.653843 -229.897731 -347.881568 0 120 255
139.984803 -229.801387 -348.706354 0 120 255
142.315764 -229.705043 -349.531140 0 120 255
144.646724 -229.608699 -350.355925 0 120 255
146.990225 -229.502257 -351.139259 0 120 255
149.371723 -229.365220 -351.796995 0 120 255
151.753222 -229.228182 -352.454730 0 120 255
154.134720 -229.091144 -353.112465 0 120 255
156.524322 -228.945488 -353.733628 0 120 255
158.945049 -228.766724 -354.214310 0 120 255
161.365776 -228.587960 -354.694992 0 120 255
163.786503 -228.409196 -355.175674 0 120 255
166.211618 -228.223584 -355.625156 0 120 255
168.658936 -228.003319 -355.916784 0 120 255
171.106255 -227.783054 -356.208411 0 120 255
173.553573 -227.562789 -356.500039 0 120 255
176.000906 -227.341137 -356.790450 0 120 255
178.448343 -227.109679 -357.072247 0 120 255
180.895780 -226.878220 -357.354045 0 120 255
183.343216 -226.646761 -357.635843 0 120 255
185.790653 -226.415302 -357.917641 0 120 255
188.238087 -226.183832 -358.199451 0 120 255
190.685522 -225.952362 -358.481261 0 120 255
193.132956 -225.720893 -358.763071 0 120 255
195.580391 -225.489423 -359.044881 0 120 255
198.027826 -225.257957 -359.326683 0 120 255
200.475262 -225.026492 -359.608486 0 120 255
202.922698 -224.795026 -359.890288 0 120 255
205.370133 -224.563560 -360.172091 0 120 255
