ply
format ascii 1.0
element vertex 385
property float x
property float y
property float z
property uchar red
property uchar green
property uchar blue
end_header
77.430455 -42.474882 -360.397637 0 120 255
77.187558 -42.528710 -357.935983 0 120 255
76.944660 -42.582539 -355.474330 0 120 255
76.701762 -42.636367 -353.012677 0 120 255
76.458865 -42.690195 -350.551024 0 120 255
76.213823 -42.754191 -348.089828 0 120 255
75.968688 -42.818630 -345.628651 0 120 255
75.723554 -42.883069 -343.167475 0 120 255
75.478419 -42.947508 -340.706298 0 120 255
75.074504 -43.367511 -338.304649 0 120 255
74.656094 -43.819972 -335.908435 0 120 255
74.237684 -44.272434 -333.512220 0 120 255
73.819274 -44.724896 -331.116006 0 120 255
73.282865 -45.425429 -328.807145 0 120 255
72.728971 -46.162723 -326.511228 0 120 255
72.175077 -46.900017 -324.215312 0 120 255
71.621183 -47.637312 -321.919396 0 120 255
70.989397 -48.549330 -319.710005 0 120 255
70.341186 -49.498195 -317.518862 0 120 255
69.692974 -50.447061 -315.327719 0 120 255
69.044763 -51.395926 -313.136575 0 120 255
68.356136 -52.471335 -311.018921 0 120 255
67.656180 -53.582217 -308.921867 0 120 255
66.956224 -54.693099 -306.824812 0 120 255
66.256268 -55.803981 -304.727758 0 120 255
65.548187 -57.013649 -302.690068 0 120 255
64.837200 -58.258658 -300.673615 0 120 255
64.126212 -59.503667 -298.657162 0 120 255
63.415224 -60.748676 -296.640709 0 120 255
62.721780 -62.078614 -294.674093 0 120 255
62.036139 -63.446332 -292.729644 0 120 255
61.350499 -64.814049 -290.785196 0 120 255
60.664858 -66.181766 -288.840748 0 120 255
60.015323 -67.628301 -286.942851 0 120 255
59.385416 -69.117680 -285.070259 0 120 255
58.755508 -70.607059 -283.197668 0 120 255
58.125600 -72.096438 -281.325077 0 120 255
57.543590 -73.661504 -279.501168 0 120 255
56.993038 -75.276277 -277.709233 0 120 255
56.442485 -76.891050 -275.917297 0 120 255
55.891933 -78.505823 -274.125362 0 120 255
55.395247 -80.193023 -272.387675 0 120 255
54.940997 -81.937279 -270.692723 0 120 255
54.486747 -83.681535 -268.997771 0 120 255
54.032497 -85.425791 -267.302819 0 120 255
53.633571 -87.237428 -265.668866 0 120 255
53.286712 -89.112481 -264.092319 0 120 255
52.939853 -90.987535 -262.515773 0 120 255
52.592995 -92.862588 -260.939227 0 120 255
52.299822 -94.797724 -259.429727 0 120 255
52.066944 -96.800339 -257.995526 0 120 255
51.834067 -98.802955 -256.561325 0 120 255
51.601189 -100.805570 -255.127124 0 120 255
51.418553 -102.858956 -253.763942 0 120 255
51.303356 -104.980490 -252.496087 0 120 255
51.188159 -107.102024 -251.228233 0 120 255
51.072961 -109.223559 -249.960379 0 120 255
51.003784 -111.385215 -248.764681 0 120 255
51.008753 -113.611516 -247.685238 0 120 255
51.013722 -115.837816 -246.605796 0 120 255
51.018691 -118.064116 -245.526354 0 120 255
51.065352 -120.319387 -244.517104 0 120 255
51.193253 -122.631108 -243.644625 0 120 255
51.321154 -124.942830 -242.772147 0 120 255
51.449055 -127.254551 -241.899669 0 120 255
51.614537 -129.584425 -241.092428 0 120 255
51.869609 -131.957573 -240.440706 0 120 255
52.124680 -134.330721 -239.788983 0 120 255
52.379752 -136.703868 -239.137261 0 120 255
52.668522 -139.085446 -238.543224 0 120 255
53.057257 -141.492033 -238.120306 0 120 255
53.445993 -143.898619 -237.697388 0 120 255
53.834728 -146.305206 -237.274471 0 120 255
54.253283 -148.712244 -236.899658 0 120 255
54.784732 -151.120991 -236.706964 0 120 255
55.316180 -153.529739 -236.514270 0 120 255
55.847629 -155.938486 -236.321575 0 120 255
56.404672 -158.341979 -236.166108 0 120 255
57.090248 -160.719084 -236.197593 0 120 255
57.775824 -163.096188 -236.229077 0 120 255
58.461400 -165.473293 -236.260561 0 120 255
59.167617 -167.842115 -236.317958 0 120 255
60.020390 -170.152124 -236.559346 0 120 255
60.873163 -172.462134 -236.800735 0 120 255
61.725936 -174.772143 -237.042123 0 120 255
62.593372 -177.073783 -237.298661 0 120 255
63.626825 -179.280673 -237.726734 0 120 255
64.660277 -181.487563 -238.154807 0 120 255
65.693729 -183.694453 -238.582880 0 120 255
66.734737 -185.895922 -239.016990 0 120 255
67.961130 -187.964400 -239.599222 0 120 255
69.187523 -190.032878 -240.181453 0 120 255
70.413916 -192.101355 -240.763685 0 120 255
71.640309 -194.169833 -241.345916 0 120 255
73.068116 -196.067419 -242.040149 0 120 255
74.496434 -197.964572 -242.734665 0 120 255
75.924751 -199.861725 -243.429181 0 120 255
77.353069 -201.758878 -244.123697 0 120 255
78.977847 -203.464820 -244.877272 0 120 255
80.611656 -205.161973 -245.633562 0 120 255
82.245464 -206.859126 -246.389851 0 120 255
83.879273 -208.556279 -247.146141 0 120 255
85.697438 -210.050035 -247.906136 0 120 255
87.532752 -211.524870 -248.666475 0 120 255
89.368067 -212.999705 -249.426814 0 120 255
91.203381 -214.474540 -250.187153 0 120 255
93.203242 -215.742871 -250.896444 0 120 255
95.226836 -216.981418 -251.598372 0 120 255
97.250429 -218.219965 -252.300301 0 120 255
99.274023 -219.458512 -253.002229 0 120 255
101.434880 -220.497014 -253.602207 0 120 255
103.623223 -221.495460 -254.181772 0 120 255
105.811566 -222.493905 -254.761336 0 120 255
107.999909 -223.492351 -255.340901 0 120 255
110.291947 -224.306397 -255.774780 0 120 255
112.611134 -225.072163 -256.170515 0 120 255
114.930321 -225.837929 -256.566250 0 120 255
117.249508 -226.603695 -256.961985 0 120 255
119.634487 -227.208807 -257.178260 0 120 255
122.041175 -227.760910 -257.335321 0 120 255
124.447863 -228.313014 -257.492382 0 120 255
126.854551 -228.865117 -257.649443 0 120 255
129.287355 -229.286411 -257.605265 0 120 255
131.730759 -229.654614 -257.479414 0 120 255
134.174162 -230.022818 -257.353562 0 120 255
136.617566 -230.391021 -257.227710 0 120 255
139.048388 -230.661870 -256.891636 0 120 255
141.473032 -230.884915 -256.452338 0 120 255
143.897677 -231.107960 -256.013039 0 120 255
146.322321 -231.331005 -255.573740 0 120 255
148.699245 -231.491799 -254.927748 0 120 255
151.048141 -231.616032 -254.160358 0 120 255
153.397037 -231.740264 -253.392968 0 120 255
155.745933 -231.864497 -252.625578 0 120 255
158.017876 -231.959465 -251.666180 0 120 255
160.236147 -232.034023 -250.572859 0 120 255
162.454417 -232.108580 -249.479538 0 120 255
164.672687 -232.183137 -248.386217 0 120 255
166.790134 -232.243114 -247.120733 0 120 255
168.824420 -232.291063 -245.713249 0 120 255
170.858706 -232.339013 -244.305764 0 120 255
172.892993 -232.386963 -242.898280 0 120 255
174.807940 -232.425150 -241.343278 0 120 255
176.606774 -232.453839 -239.644748 0 120 255
178.405609 -232.482528 -237.946218 0 120 255
180.204443 -232.511217 -236.247688 0 120 255
181.872161 -232.533868 -234.430055 0 120 255
183.389426 -232.549592 -232.475754 0 120 255
184.906691 -232.565315 -230.521453 0 120 255
186.423956 -232.581039 -228.567152 0 120 255
187.805539 -232.593730 -226.523412 0 120 255
189.003093 -232.602309 -224.358367 0 120 255
190.200647 -232.610888 -222.193321 0 120 255
191.398201 -232.619467 -220.028275 0 120 255
192.462386 -232.626644 -217.802408 0 120 255
193.311754 -232.631561 -215.478579 0 120 255
194.161123 -232.636479 -213.154750 0 120 255
195.010492 -232.641396 -210.830921 0 120 255
195.734811 -232.645537 -208.472009 0 120 255
196.218118 -232.648180 -206.045481 0 120 255
196.701426 -232.650822 -203.618952 0 120 255
197.184734 -232.653465 -201.192424 0 120 255
197.556063 -232.655320 -198.752328 0 120 255
197.666225 -232.655340 -196.280588 0 120 255
197.776386 -232.655360 -193.808849 0 120 255
197.886548 -232.655380 -191.337109 0 120 255
197.901075 -232.654321 -188.868272 0 120 255
197.641263 -232.650165 -186.407761 0 120 255
197.381451 -232.646009 -183.947250 0 120 255
197.121639 -232.641853 -181.486739 0 120 255
196.784323 -232.636302 -179.040231 0 120 255
196.167016 -232.625712 -176.644306 0 120 255
195.549709 -232.615122 -174.248382 0 120 255
194.932403 -232.604532 -171.852458 0 120 255
194.256106 -232.592387 -169.476360 0 120 255
193.301763 -232.572913 -167.193711 0 120 255
192.347421 -232.553439 -164.911063 0 120 255
191.393078 -232.533965 -162.628414 0 120 255
190.397432 -232.513014 -160.366568 0 120 255
189.132953 -232.482450 -158.240117 0 120 255
187.868475 -232.451886 -156.113667 0 120 255
186.603996 -232.421322 -153.987216 0 120 255
185.314113 -232.389607 -151.878351 0 120 255
183.771271 -232.346431 -149.944597 0 120 255
182.228429 -232.303255 -148.010842 0 120 255
180.685586 -232.260079 -146.077088 0 120 255
179.130755 -232.216253 -144.154301 0 120 255
177.344647 -232.159893 -142.443080 0 120 255
175.558539 -232.103532 -140.731860 0 120 255
173.772431 -232.047172 -139.020640 0 120 255
171.984828 -231.990721 -137.311202 0 120 255
169.992513 -231.921782 -135.845745 0 120 255
168.000199 -231.852844 -134.380289 0 120 255
166.007884 -231.783906 -132.914832 0 120 255
164.015569 -231.714968 -131.449375 0 120 255
161.860708 -231.635722 -130.237498 0 120 255
159.699980 -231.556104 -129.034772 0 120 255
157.539252 -231.476486 -127.832046 0 120 255
155.378525 -231.396868 -126.629320 0 120 255
153.096971 -231.310620 -125.679502 0 120 255
150.805343 -231.223819 -124.750772 0 120 255
148.513716 -231.137018 -123.822041 0 120 255
146.222088 -231.050216 -122.893310 0 120 255
143.847367 -230.960969 -122.211248 0 120 255
141.461411 -230.871390 -121.562541 0 120 255
139.075455 -230.781811 -120.913834 0 120 255
136.689498 -230.692233 -120.265126 0 120 255
134.253942 -230.601915 -119.852376 0 120 255
131.808849 -230.511455 -119.484992 0 120 255
129.363756 -230.420995 -119.117607 0 120 255
126.918664 -230.330534 -118.750222 0 120 255
124.452980 -230.240188 -118.604577 0 120 255
121.982039 -230.149872 -118.515546 0 120 255
119.511098 -230.059555 -118.426514 0 120 255
117.040157 -229.969238 -118.337483 0 120 255
114.573087 -229.879818 -118.453646 0 120 255
112.107276 -229.790691 -118.636583 0 120 255
109.641465 -229.701564 -118.819519 0 120 255
107.175654 -229.612436 -119.002456 0 120 255
104.733815 -229.524877 -119.372598 0 120 255
102.301655 -229.437952 -119.818329 0 120 255
99.869495 -229.351026 -120.264059 0 120 255
97.437336 -229.264101 -120.709790 0 120 255
95.045186 -229.179244 -121.324030 0 120 255
92.672719 -229.095405 -122.021171 0 120 255
90.300252 -229.011566 -122.718311 0 120 255
87.927785 -228.927728 -123.415452 0 120 255
85.607658 -228.846340 -124.262288 0 120 255
83.318512 -228.766404 -125.197731 0 120 255
81.029366 -228.686467 -126.133175 0 120 255
78.740221 -228.606531 -127.068619 0 120 255
76.512452 -228.529314 -128.135335 0 120 255
74.328027 -228.454018 -129.294752 0 120 255
72.143601 -228.378721 -130.454169 0 120 255
69.959175 -228.303425 -131.613586 0 120 255
67.842259 -228.231012 -132.886545 0 120 255
65.781913 -228.161016 -134.254649 0 120 255
63.721566 -228.091019 -135.622752 0 120 255
61.661220 -228.021023 -136.990856 0 120 255
59.671935 -227.953977 -138.455641 0 120 255
57.753121 -227.889856 -140.016305 0 120 255
55.834307 -227.825736 -141.576970 0 120 255
53.915492 -227.761615 -143.137635 0 120 255
52.069022 -227.700429 -144.779162 0 120 255
50.307434 -227.642687 -146.515568 0 120 255
48.545846 -227.584944 -148.251975 0 120 255
46.784258 -227.527202 -149.988381 0 120 255
45.094275 -227.472316 -151.790973 0 120 255
43.503911 -227.421404 -153.685646 0 120 255
41.913547 -227.370492 -155.580318 0 120 255
40.323183 -227.319580 -157.474990 0 120 255
38.801890 -227.271376 -159.422411 0 120 255
37.395075 -227.227662 -161.457256 0 120 255
35.988260 -227.183948 -163.492100 0 120 255
34.581444 -227.140233 -165.526945 0 120 255
33.239544 -227.099038 -167.602411 0 120 255
32.026821 -227.062854 -169.758710 0 120 255
30.814099 -227.026671 -171.915010 0 120 255
29.601377 -226.990487 -174.071309 0 120 255
28.448043 -226.956579 -176.257539 0 120 255
27.438262 -226.928170 -178.516116 0 120 255
26.428481 -226.899761 -180.774693 0 120 255
25.418701 -226.871353 -183.033269 0 120 255
24.461572 -226.844940 -185.312582 0 120 255
23.661679 -226.824486 -187.653818 0 120 255
22.861786 -226.804032 -189.995054 0 120 255
22.061892 -226.783578 -192.336290 0 120 255
21.306938 -226.764810 -194.690652 0 120 255
20.721950 -226.752421 -197.094663 0 120 255
20.136961 -226.740031 -199.498674 0 120 255
19.551973 -226.727641 -201.902685 0 120 255
19.003471 -226.716607 -204.313861 0 120 255
18.636452 -226.712319 -206.760678 0 120 255
18.269433 -226.708030 -209.207494 0 120 255
17.902414 -226.703742 -211.654311 0 120 255
17.562941 -226.700468 -214.104012 0 120 255
17.415076 -226.704250 -216.573781 0 120 255
17.267210 -226.708033 -219.043549 0 120 255
17.119345 -226.711815 -221.513317 0 120 255
16.989835 -226.716266 -223.983370 0 120 255
17.060445 -226.727996 -226.456527 0 120 255
17.131055 -226.739726 -228.929685 0 120 255
17.201665 -226.751456 -231.402843 0 120 255
17.281439 -226.763517 -233.875334 0 120 255
17.568297 -226.783054 -236.332765 0 120 255
17.855155 -226.802591 -238.790195 0 120 255
18.142014 -226.822128 -241.247625 0 120 255
18.429032 -226.841670 -243.705030 0 120 255
18.928245 -226.868814 -246.128185 0 120 255
19.427458 -226.895958 -248.551341 0 120 255
19.926671 -226.923102 -250.974496 0 120 255
20.425884 -226.950246 -253.397652 0 120 255
21.123437 -226.984428 -255.770857 0 120 255
21.829434 -227.018909 -258.141935 0 120 255
22.535431 -227.053391 -260.513013 0 120 255
23.241428 -227.087873 -262.884091 0 120 255
24.130739 -227.128786 -265.191840 0 120 255
25.036518 -227.170276 -267.493899 0 120 255
25.942296 -227.211767 -269.795958 0 120 255
26.848075 -227.253257 -272.098017 0 120 255
27.921465 -227.300582 -274.325676 0 120 255
29.018578 -227.348733 -276.542804 0 120 255
30.115691 -227.396884 -278.759932 0 120 255
31.212804 -227.445034 -280.977061 0 120 255
32.461330 -227.498375 -283.111082 0 120 255
33.739893 -227.552746 -285.228617 0 120 255
35.018456 -227.607117 -287.346152 0 120 255
36.297019 -227.661487 -289.463686 0 120 255
37.710422 -227.720443 -291.491890 0 120 255
39.159043 -227.780595 -293.496762 0 120 255
40.607664 -227.840748 -295.501634 0 120 255
42.056285 -227.900901 -297.506506 0 120 255
43.623259 -227.965014 -299.418207 0 120 255
45.229401 -228.030439 -301.299074 0 120 255
46.835543 -228.095864 -303.179941 0 120 255
48.441685 -228.161289 -305.060808 0 120 255
50.150054 -228.230100 -306.846985 0 120 255
51.900221 -228.300296 -308.594447 0 120 255
53.650387 -228.370492 -310.341910 0 120 255
55.400553 -228.440688 -312.089372 0 120 255
57.237425 -228.513709 -313.742877 0 120 255
59.117353 -228.588133 -315.349727 0 120 255
60.997281 -228.662557 -316.956576 0 120 255
62.877208 -228.736982 -318.563426 0 120 255
64.829250 -228.813843 -320.079078 0 120 255
66.824266 -228.892157 -321.540382 0 120 255
68.819283 -228.970470 -323.001686 0 120 255
70.814299 -229.048784 -324.462990 0 120 255
72.868073 -229.129199 -325.837539 0 120 255
74.963538 -229.211106 -327.150533 0 120 255
77.059002 -229.293012 -328.463526 0 120 255
79.154467 -229.374919 -329.776520 0 120 255
81.296543 -229.457647 -331.009007 0 120 255
83.477803 -229.541067 -332.173816 0 120 255
85.659063 -229.624487 -333.338624 0 120 255
87.840323 -229.707907 -334.503433 0 120 255
90.056999 -229.786858 -335.596778 0 120 255
92.308871 -229.861369 -336.619106 0 120 255
94.560743 -229.935879 -337.641433 0 120 255
96.812615 -230.010390 -338.663761 0 120 255
99.090530 -230.075212 -339.624586 0 120 255
101.399039 -230.128652 -340.513161 0 120 255
103.707547 -230.182093 -341.401735 0 120 255
106.016056 -230.235533 -342.290310 0 120 255
108.343081 -230.275923 -343.127292 0 120 255
110.695881 -230.298146 -343.892453 0 120 255
113.048681 -230.320369 -344.657614 0 120 255
115.401481 -230.342592 -345.422774 0 120 255
117.766911 -230.350338 -346.145794 0 120 255
120.153279 -230.334082 -346.798951 0 120 255
122.539648 -230.317826 -347.452109 0 120 255
124.926016 -230.301570 -348.105266 0 120 255
127.320545 -230.270908 -348.725077 0 120 255
129.731314 -230.211577 -349.278526 0 120 255
132.142083 -230.152245 -349.831974 0 120 255
134.552852 -230.092914 -350.385422 0 120 255
136.968537 -230.020427 -350.913445 0 120 255
139.396104 -229.916139 -351.380001 0 120 255
141.823671 -229.811850 -351.846556 0 120 255
144.251238 -229.707561 -352.313112 0 120 255
146.681496 -229.592218 -352.761184 0 120 255
149.119794 -229.443845 -353.154024 0 120 255
151.558091 -229.295471 -353.546863 0 120 255
153.996389 -229.147097 -353.939702 0 120 255
156.435976 -228.990255 -354.319922 0 120 255
158.880448 -228.801332 -354.652337 0 120 255
161.324919 -228.612409 -354.984752 0 120 255
163.769391 -228.423486 -355.317167 0 120 255
166.214355 -228.229081 -355.642061 0 120 255
168.661778 -228.007325 -355.929423 0 120 255
171.109202 -227.785568 -356.216784 0 120 255
173.556625 -227.563811 -356.504146 0 120 255
176.004017 -227.340843 -356.790808 0 120 255
178.451195 -227.109409 -357.072576 0 120 255
180.898372 -226.877975 -357.354344 0 120 255
183.345550 -226.646541 -357.636111 0 120 255
185.792727 -226.415106 -357.917880 0 120 255
188.239902 -226.183660 -358.199660 0 120 255
190.687078 -225.952215 -358.481440 0 120 255
193.134253 -225.720770 -358.763220 0 120 255
195.581428 -225.489325 -359.045000 0 120 255
198.028604 -225.257884 -359.326773 0 120 255
200.475781 -225.026443 -359.608545 0 120 255
202.922957 -224.795001 -359.890318 0 120 255
205.370133 -224.563560 -360.172091 0 120 255
