ply
format ascii 1.0
element vertex 385
property float x
property float y
property float z
property uchar red
property uchar green
property uchar blue
end_header
77.430455 -42.474882 -360.397637 0 120 255
77.187563 -42.528709 -357.936042 0 120 255
76.944671 -42.582536 -355.474447 0 120 255
76.701779 -42.636363 -353.012852 0 120 255
76.458888 -42.690190 -350.551258 0 120 255
76.213769 -42.753103 -348.090100 0 120 255
75.968553 -42.816412 -345.628961 0 120 255
75.723337 -42.879722 -343.167823 0 120 255
75.478121 -42.943031 -340.706684 0 120 255
75.077271 -43.398437 -338.311567 0 120 255
74.662181 -43.889718 -335.922490 0 120 255
74.247091 -44.380998 -333.533414 0 120 255
73.832002 -44.872278 -331.144337 0 120 255
73.298379 -45.643709 -328.858254 0 120 255
72.747165 -46.456715 -326.587455 0 120 255
72.195952 -47.269721 -324.316656 0 120 255
71.644738 -48.082727 -322.045857 0 120 255
71.010757 -49.094881 -319.881898 0 120 255
70.359294 -50.149102 -317.740507 0 120 255
69.707830 -51.203323 -315.599116 0 120 255
69.056367 -52.257543 -313.457725 0 120 255
68.355622 -53.454370 -311.411022 0 120 255
67.641037 -54.691244 -309.390909 0 120 255
66.926453 -55.928117 -307.370796 0 120 255
66.211869 -57.164991 -305.350683 0 120 255
65.477461 -58.508663 -303.409009 0 120 255
64.735950 -59.890612 -301.495447 0 120 255
63.994438 -61.272561 -299.581884 0 120 255
63.252927 -62.654510 -297.668322 0 120 255
62.516043 -64.122459 -295.819457 0 120 255
61.781222 -65.628728 -293.999421 0 120 255
61.046400 -67.134997 -292.179384 0 120 255
60.311579 -68.641266 -290.359347 0 120 255
59.600490 -70.222100 -288.595371 0 120 255
58.902321 -71.843525 -286.861911 0 120 255
58.204151 -73.464950 -285.128451 0 120 255
57.505982 -75.086375 -283.394991 0 120 255
56.845403 -76.775772 -281.714179 0 120 255
56.209532 -78.509845 -280.067971 0 120 255
55.573662 -80.243919 -278.421764 0 120 255
54.937791 -81.977993 -276.775556 0 120 255
54.348644 -83.775106 -275.182587 0 120 255
53.796306 -85.621881 -273.631561 0 120 255
53.243968 -87.468657 -272.080534 0 120 255
52.691630 -89.315433 -270.529507 0 120 255
52.191164 -91.220032 -269.034601 0 120 255
51.739473 -93.179001 -267.592463 0 120 255
51.287782 -95.137969 -266.150326 0 120 255
50.836091 -97.096938 -264.708189 0 120 255
50.438324 -99.107300 -263.325668 0 120 255
50.100987 -101.175260 -262.009959 0 120 255
49.763651 -103.243219 -260.694250 0 120 255
49.426315 -105.311179 -259.378541 0 120 255
49.142696 -107.422681 -258.125201 0 120 255
48.930923 -109.592422 -256.955279 0 120 255
48.719151 -111.762164 -255.785356 0 120 255
48.507378 -113.931905 -254.615434 0 120 255
48.347591 -116.136163 -253.508921 0 120 255
48.271119 -118.395741 -252.504031 0 120 255
48.194647 -120.655319 -251.499142 0 120 255
48.118175 -122.914896 -250.494252 0 120 255
48.090948 -125.199308 -249.551541 0 120 255
48.158973 -127.531753 -248.729098 0 120 255
48.226997 -129.864199 -247.906654 0 120 255
48.295021 -132.196644 -247.084211 0 120 255
48.408849 -134.544233 -246.320241 0 120 255
48.630792 -136.927564 -245.694289 0 120 255
48.852736 -139.310895 -245.068337 0 120 255
49.074679 -141.694227 -244.442386 0 120 255
49.338369 -144.083699 -243.868811 0 120 255
49.724295 -146.491150 -243.448596 0 120 255
50.110221 -148.898602 -243.028381 0 120 255
50.496147 -151.306053 -242.608166 0 120 255
50.919094 -153.712028 -242.232200 0 120 255
51.479796 -156.112507 -242.020877 0 120 255
52.040497 -158.512986 -241.809555 0 120 255
52.601199 -160.913465 -241.598233 0 120 255
53.193376 -163.306885 -241.421571 0 120 255
53.939976 -165.665674 -241.414952 0 120 255
54.686575 -168.024464 -241.408334 0 120 255
55.433175 -170.383253 -241.401715 0 120 255
56.204754 -172.732002 -241.419512 0 120 255
57.147895 -175.011788 -241.604994 0 120 255
58.091036 -177.291574 -241.790477 0 120 255
59.034177 -179.571359 -241.975959 0 120 255
59.994810 -181.841144 -242.175929 0 120 255
61.143406 -184.003453 -242.531582 0 120 255
62.292002 -186.165762 -242.887234 0 120 255
63.440598 -188.328071 -243.242887 0 120 255
64.598364 -190.483637 -243.604556 0 120 255
65.958098 -192.490690 -244.098727 0 120 255
67.317831 -194.497744 -244.592897 0 120 255
68.677564 -196.504797 -245.087067 0 120 255
70.037718 -198.511473 -245.581431 0 120 255
71.609293 -200.328524 -246.172887 0 120 255
73.180868 -202.145576 -246.764344 0 120 255
74.752442 -203.962627 -247.355800 0 120 255
76.324017 -205.779678 -247.947257 0 120 255
78.093509 -207.386175 -248.584369 0 120 255
79.871086 -208.984071 -249.223346 0 120 255
81.648662 -210.581968 -249.862323 0 120 255
83.426239 -212.179864 -250.501299 0 120 255
85.380689 -213.557029 -251.132087 0 120 255
87.350581 -214.914922 -251.762160 0 120 255
89.320474 -216.272815 -252.392233 0 120 255
91.290367 -217.630707 -253.022306 0 120 255
93.409746 -218.768752 -253.591667 0 120 255
95.549745 -219.876471 -254.152653 0 120 255
97.689744 -220.984190 -254.713639 0 120 255
99.829743 -222.091909 -255.274626 0 120 255
102.086577 -222.991910 -255.727156 0 120 255
104.366003 -223.851745 -256.158715 0 120 255
106.645429 -224.711580 -256.590274 0 120 255
108.924855 -225.571415 -257.021833 0 120 255
111.284953 -226.245988 -257.305121 0 120 255
113.665573 -226.873431 -257.550689 0 120 255
116.046194 -227.500874 -257.796256 0 120 255
118.426814 -228.128318 -258.041824 0 120 255
120.850543 -228.601432 -258.109711 0 120 255
123.288154 -229.024854 -258.120385 0 120 255
125.725764 -229.448275 -258.131059 0 120 255
128.163374 -229.871696 -258.141732 0 120 255
130.607380 -230.177427 -257.957218 0 120 255
133.053929 -230.436396 -257.695151 0 120 255
135.500477 -230.695366 -257.433084 0 120 255
137.947025 -230.954336 -257.171017 0 120 255
140.366105 -231.135643 -256.708530 0 120 255
142.771950 -231.279528 -256.149466 0 120 255
145.177794 -231.423413 -255.590403 0 120 255
147.583639 -231.567298 -255.031340 0 120 255
149.932813 -231.672313 -254.278203 0 120 255
152.249255 -231.754877 -253.412973 0 120 255
154.565697 -231.837442 -252.547744 0 120 255
156.882139 -231.920006 -251.682515 0 120 255
159.118033 -231.994128 -250.638413 0 120 255
161.298607 -232.062452 -249.471464 0 120 255
163.479181 -232.130777 -248.304515 0 120 255
165.659755 -232.199101 -247.137565 0 120 255
167.738883 -232.260283 -245.808965 0 120 255
169.735545 -232.315659 -244.348959 0 120 255
171.732207 -232.371035 -242.888954 0 120 255
173.728869 -232.426412 -241.428948 0 120 255
175.607471 -232.475799 -239.829656 0 120 255
177.372786 -232.519441 -238.096711 0 120 255
179.138102 -232.563083 -236.363767 0 120 255
180.903418 -232.606724 -234.630822 0 120 255
182.539822 -232.646337 -232.784584 0 120 255
184.030278 -232.681387 -230.810083 0 120 255
185.520734 -232.716437 -228.835582 0 120 255
187.011190 -232.751487 -226.861081 0 120 255
188.368143 -232.783514 -224.800679 0 120 255
189.546449 -232.811495 -222.625327 0 120 255
190.724755 -232.839476 -220.449975 0 120 255
191.903061 -232.867457 -218.274624 0 120 255
192.949494 -232.892740 -216.040232 0 120 255
193.786447 -232.913737 -213.712054 0 120 255
194.623399 -232.934733 -211.383876 0 120 255
195.460352 -232.955730 -209.055698 0 120 255
196.172747 -232.973974 -206.693120 0 120 255
196.648577 -232.986991 -204.265208 0 120 255
197.124406 -233.000008 -201.837295 0 120 255
197.600235 -233.013024 -199.409383 0 120 255
197.963556 -233.023125 -196.968122 0 120 255
198.068631 -233.026535 -194.496222 0 120 255
198.173705 -233.029944 -192.024321 0 120 255
198.278780 -233.033353 -189.552421 0 120 255
198.286890 -233.033764 -187.083670 0 120 255
198.021789 -233.025729 -184.623792 0 120 255
197.756688 -233.017694 -182.163914 0 120 255
197.491588 -233.009658 -179.704036 0 120 255
197.147180 -232.998753 -177.258719 0 120 255
196.522190 -232.977694 -174.864918 0 120 255
195.897199 -232.956635 -172.471116 0 120 255
195.272209 -232.935576 -170.077315 0 120 255
194.586297 -232.912021 -167.704290 0 120 255
193.620432 -232.876995 -165.426743 0 120 255
192.654567 -232.841969 -163.149196 0 120 255
191.688702 -232.806943 -160.871649 0 120 255
190.679752 -232.770004 -158.616164 0 120 255
189.399394 -232.721017 -156.499651 0 120 255
188.119037 -232.672030 -154.383138 0 120 255
186.838679 -232.623043 -152.266625 0 120 255
185.531443 -232.572841 -150.169089 0 120 255
183.968779 -232.511082 -148.251902 0 120 255
182.406115 -232.449324 -146.334714 0 120 255
180.843451 -232.387566 -144.417526 0 120 255
179.267660 -232.325265 -142.512638 0 120 255
177.458971 -232.253336 -140.825981 0 120 255
175.650282 -232.181407 -139.139323 0 120 255
173.841593 -232.109478 -137.452666 0 120 255
172.030536 -232.037469 -135.768916 0 120 255
170.014695 -231.958574 -134.336610 0 120 255
167.998853 -231.879679 -132.904304 0 120 255
165.983011 -231.800785 -131.471998 0 120 255
163.967170 -231.721890 -130.039692 0 120 255
161.788985 -231.638218 -128.870573 0 120 255
159.605686 -231.554395 -127.709744 0 120 255
157.422388 -231.470573 -126.548914 0 120 255
155.239090 -231.386750 -125.388085 0 120 255
152.936980 -231.299603 -124.489443 0 120 255
150.625580 -231.212195 -123.611301 0 120 255
148.314181 -231.124788 -122.733158 0 120 255
146.002781 -231.037380 -121.855015 0 120 255
143.612009 -230.948004 -121.231847 0 120 255
141.210971 -230.858373 -120.641654 0 120 255
138.809934 -230.768743 -120.051461 0 120 255
136.408896 -230.679112 -119.461268 0 120 255
133.963281 -230.588764 -119.113624 0 120 255
131.509391 -230.498283 -118.810995 0 120 255
129.055502 -230.407802 -118.508367 0 120 255
126.601613 -230.317321 -118.205739 0 120 255
124.132882 -230.227136 -118.129316 0 120 255
121.660473 -230.137024 -118.108948 0 120 255
119.188063 -230.046912 -118.088581 0 120 255
116.715654 -229.956801 -118.068214 0 120 255
114.252952 -229.867781 -118.254989 0 120 255
111.793327 -229.779108 -118.507422 0 120 255
109.333701 -229.690434 -118.759855 0 120 255
106.874076 -229.601761 -119.012287 0 120 255
104.443671 -229.514837 -119.451423 0 120 255
102.024789 -229.428604 -119.964173 0 120 255
99.605906 -229.342370 -120.476924 0 120 255
97.187024 -229.256137 -120.989674 0 120 255
94.812339 -229.172131 -121.668590 0 120 255
92.458926 -229.089197 -122.427478 0 120 255
90.105513 -229.006264 -123.186366 0 120 255
87.752099 -228.923330 -123.945254 0 120 255
85.453922 -228.842949 -124.850297 0 120 255
83.187771 -228.764049 -125.840084 0 120 255
80.921620 -228.685148 -126.829870 0 120 255
78.655469 -228.606248 -127.819657 0 120 255
76.452235 -228.530112 -128.936517 0 120 255
74.292565 -228.455890 -130.141365 0 120 255
72.132894 -228.381668 -131.346213 0 120 255
69.973224 -228.307446 -132.551060 0 120 255
67.881351 -228.236098 -133.865110 0 120 255
65.845222 -228.167113 -135.268949 0 120 255
63.809094 -228.098128 -136.672788 0 120 255
61.772965 -228.029143 -138.076627 0 120 255
59.807168 -227.963071 -139.573103 0 120 255
57.909840 -227.899833 -141.159763 0 120 255
56.012512 -227.836596 -142.746423 0 120 255
54.115184 -227.773358 -144.333083 0 120 255
52.288745 -227.712990 -145.997150 0 120 255
50.543981 -227.655927 -147.750399 0 120 255
48.799216 -227.598863 -149.503648 0 120 255
47.054451 -227.541800 -151.256897 0 120 255
45.379420 -227.487509 -153.073626 0 120 255
43.799651 -227.437004 -154.977077 0 120 255
42.219883 -227.386500 -156.880527 0 120 255
40.640115 -227.335996 -158.783978 0 120 255
39.127460 -227.288128 -160.738300 0 120 255
37.724002 -227.244552 -162.775394 0 120 255
36.320544 -227.200976 -164.812487 0 120 255
34.917086 -227.157400 -166.849580 0 120 255
33.576763 -227.116269 -168.926198 0 120 255
32.359702 -227.079915 -171.079981 0 120 255
31.142641 -227.043560 -173.233765 0 120 255
29.925581 -227.007206 -175.387549 0 120 255
28.766420 -226.973071 -177.570784 0 120 255
27.744440 -226.944197 -179.823796 0 120 255
26.722460 -226.915323 -182.076809 0 120 255
25.700480 -226.886450 -184.329821 0 120 255
24.730125 -226.859534 -186.603578 0 120 255
23.910660 -226.838341 -188.937967 0 120 255
23.091196 -226.817149 -191.272356 0 120 255
22.271732 -226.795957 -193.606745 0 120 255
21.496741 -226.776435 -195.954588 0 120 255
20.886020 -226.763088 -198.352125 0 120 255
20.275299 -226.749740 -200.749662 0 120 255
19.664578 -226.736392 -203.147199 0 120 255
19.090415 -226.724404 -205.552355 0 120 255
18.693201 -226.719002 -207.994390 0 120 255
18.295987 -226.713599 -210.436425 0 120 255
17.898773 -226.708196 -212.878460 0 120 255
17.529634 -226.703827 -215.323798 0 120 255
17.349335 -226.706408 -217.791353 0 120 255
17.169035 -226.708989 -220.258908 0 120 255
16.988735 -226.711571 -222.726463 0 120 255
16.827618 -226.714854 -225.194567 0 120 255
16.866082 -226.725441 -227.668380 0 120 255
16.904547 -226.736028 -230.142193 0 120 255
16.943011 -226.746615 -232.616006 0 120 255
16.991534 -226.757566 -235.089214 0 120 255
17.248871 -226.776069 -237.549859 0 120 255
17.506209 -226.794571 -240.010505 0 120 255
17.763546 -226.813074 -242.471151 0 120 255
18.021805 -226.831610 -244.931658 0 120 255
18.496193 -226.857886 -247.359746 0 120 255
18.970581 -226.884162 -249.787833 0 120 255
19.444969 -226.910438 -252.215921 0 120 255
19.919357 -226.936714 -254.644008 0 120 255
20.598850 -226.970261 -257.022405 0 120 255
21.286320 -227.004092 -259.398869 0 120 255
21.973790 -227.037922 -261.775334 0 120 255
22.661260 -227.071752 -264.151798 0 120 255
23.539309 -227.112270 -266.463778 0 120 255
24.433731 -227.153363 -268.770217 0 120 255
25.328153 -227.194456 -271.076657 0 120 255
26.222575 -227.235549 -273.383096 0 120 255
27.291512 -227.282710 -275.612781 0 120 255
28.384420 -227.330704 -277.831923 0 120 255
29.477329 -227.378698 -280.051064 0 120 255
30.570237 -227.426692 -282.270206 0 120 255
31.820616 -227.480125 -284.402993 0 120 255
33.101537 -227.534612 -286.519030 0 120 255
34.382458 -227.589100 -288.635068 0 120 255
35.663379 -227.643588 -290.751105 0 120 255
37.084156 -227.702803 -292.773970 0 120 255
38.540805 -227.763230 -294.772935 0 120 255
39.997455 -227.823657 -296.771901 0 120 255
41.454104 -227.884084 -298.770866 0 120 255
43.032851 -227.948613 -300.672653 0 120 255
44.651404 -228.014480 -302.542757 0 120 255
46.269958 -228.080346 -304.412861 0 120 255
47.888512 -228.146213 -306.282964 0 120 255
49.611735 -228.215520 -308.054602 0 120 255
51.377214 -228.286216 -309.786487 0 120 255
53.142694 -228.356912 -311.518373 0 120 255
54.908173 -228.427608 -313.250258 0 120 255
56.761756 -228.501175 -314.884789 0 120 255
58.658613 -228.576153 -316.471499 0 120 255
60.555471 -228.651130 -318.058210 0 120 255
62.452329 -228.726108 -319.644921 0 120 255
64.421832 -228.803492 -321.137594 0 120 255
66.434219 -228.882297 -322.574755 0 120 255
68.446606 -228.961103 -324.011915 0 120 255
70.458993 -229.039908 -325.449076 0 120 255
72.530001 -229.120753 -326.797314 0 120 255
74.642259 -229.203033 -328.082982 0 120 255
76.754516 -229.285314 -329.368650 0 120 255
78.866773 -229.367594 -330.654317 0 120 255
81.025067 -229.450857 -331.857978 0 120 255
83.221775 -229.534941 -332.993208 0 120 255
85.418482 -229.619024 -334.128438 0 120 255
87.615190 -229.703107 -335.263668 0 120 255
89.846578 -229.783240 -336.326421 0 120 255
92.112199 -229.859471 -337.317626 0 120 255
94.377821 -229.935703 -338.308832 0 120 255
96.643443 -230.011935 -339.300038 0 120 255
98.934249 -230.078580 -340.229447 0 120 255
101.254464 -230.134029 -341.086693 0 120 255
103.574679 -230.189478 -341.943938 0 120 255
105.894895 -230.244927 -342.801183 0 120 255
108.232761 -230.287035 -343.607183 0 120 255
110.595067 -230.310672 -344.342230 0 120 255
112.957373 -230.334310 -345.077278 0 120 255
115.319679 -230.357947 -345.812325 0 120 255
117.693838 -230.366711 -346.506024 0 120 255
120.087551 -230.350938 -347.131508 0 120 255
122.481264 -230.335165 -347.756993 0 120 255
124.874977 -230.319391 -348.382477 0 120 255
127.276198 -230.288834 -348.975726 0 120 255
129.692293 -230.228986 -349.505109 0 120 255
132.108388 -230.169137 -350.034491 0 120 255
134.524483 -230.109288 -350.563874 0 120 255
136.944978 -230.036022 -351.069143 0 120 255
139.376068 -229.930447 -351.516352 0 120 255
141.807159 -229.824873 -351.963561 0 120 255
144.238249 -229.719298 -352.410770 0 120 255
146.671656 -229.602563 -352.840873 0 120 255
149.111960 -229.452596 -353.220041 0 120 255
151.552264 -229.302630 -353.599208 0 120 255
153.992568 -229.152664 -353.978376 0 120 255
156.433913 -228.994295 -354.346275 0 120 255
158.879184 -228.804197 -354.671623 0 120 255
161.324456 -228.614099 -354.996971 0 120 255
163.769728 -228.424001 -355.322319 0 120 255
166.215347 -228.228622 -355.641345 0 120 255
168.662696 -228.006967 -355.928913 0 120 255
171.110045 -227.785313 -356.216481 0 120 255
173.557394 -227.563658 -356.504049 0 120 255
176.004714 -227.340777 -356.790888 0 120 255
178.451833 -227.109349 -357.072649 0 120 255
180.898953 -226.877920 -357.354410 0 120 255
183.346073 -226.646491 -357.636171 0 120 255
185.793192 -226.415062 -357.917933 0 120 255
188.240309 -226.183622 -358.199707 0 120 255
190.687426 -225.952182 -358.481480 0 120 255
193.134543 -225.720743 -358.763254 0 120 255
195.581660 -225.489303 -359.045027 0 120 255
198.028778 -225.257867 -359.326793 0 120 255
200.475897 -225.026432 -359.608559 0 120 255
202.923015 -224.794996 -359.890325 0 120 255
205.370133 -224.563560 -360.172091 0 120 255
