ply
format ascii 1.0
element vertex 385
property float x
property float y
property float z
property uchar red
property uchar green
property uchar blue
end_header
77.430455 -42.474882 -360.397637 0 120 255
77.187453 -42.528733 -357.934925 0 120 255
76.944451 -42.582585 -355.472213 0 120 255
76.701449 -42.636436 -353.009502 0 120 255
76.458447 -42.690288 -350.546790 0 120 255
76.234490 -42.783438 -348.083462 0 120 255
76.011326 -42.878225 -345.620108 0 120 255
75.788162 -42.973012 -343.156754 0 120 255
75.564998 -43.067799 -340.693400 0 120 255
75.442715 -43.060507 -338.221553 0 120 255
75.329528 -43.044011 -335.748940 0 120 255
75.216341 -43.027515 -333.276327 0 120 255
75.103154 -43.011019 -330.803714 0 120 255
75.061253 -42.854344 -328.334500 0 120 255
75.029659 -42.677400 -325.865777 0 120 255
74.998065 -42.500457 -323.397055 0 120 255
74.966471 -42.323514 -320.928332 0 120 255
74.994343 -42.006551 -318.474578 0 120 255
75.034300 -41.661131 -316.023866 0 120 255
75.074256 -41.315712 -313.573155 0 120 255
75.114213 -40.970292 -311.122443 0 120 255
75.201125 -40.486325 -308.697729 0 120 255
75.300546 -39.965449 -306.279940 0 120 255
75.399968 -39.444572 -303.862152 0 120 255
75.499389 -38.923695 -301.444363 0 120 255
75.632826 -38.267151 -299.062965 0 120 255
75.777640 -37.565230 -296.693739 0 120 255
75.922454 -36.863308 -294.324512 0 120 255
76.067268 -36.161387 -291.955286 0 120 255
76.233007 -35.328172 -289.632117 0 120 255
76.407275 -34.441433 -287.327725 0 120 255
76.581543 -33.554693 -285.023333 0 120 255
76.755812 -32.667954 -282.718941 0 120 255
76.938009 -31.655829 -280.469461 0 120 255
77.124064 -30.582713 -278.246691 0 120 255
77.310118 -29.509597 -276.023922 0 120 255
77.496172 -28.436481 -273.801152 0 120 255
77.677534 -27.245439 -271.641242 0 120 255
77.856216 -25.987048 -269.517230 0 120 255
78.034898 -24.728657 -267.393219 0 120 255
78.213580 -23.470266 -265.269208 0 120 255
78.375568 -22.102923 -263.215002 0 120 255
78.526503 -20.663444 -261.207013 0 120 255
78.677439 -19.223966 -259.199025 0 120 255
78.828374 -17.784487 -257.191036 0 120 255
78.951490 -16.246481 -255.258689 0 120 255
79.053471 -14.633617 -253.383810 0 120 255
79.155451 -13.020754 -251.508931 0 120 255
79.257432 -11.407891 -249.634052 0 120 255
79.321576 -9.708221 -247.839454 0 120 255
79.353001 -7.933487 -246.114280 0 120 255
79.384426 -6.158752 -244.389105 0 120 255
79.415851 -4.384018 -242.663930 0 120 255
79.400750 -2.535332 -241.022365 0 120 255
79.340166 -0.614350 -239.462539 0 120 255
79.279581 1.306631 -237.902712 0 120 255
79.218996 3.227613 -236.342886 0 120 255
79.104726 5.208810 -234.868607 0 120 255
78.931438 7.256202 -233.488369 0 120 255
78.758151 9.303594 -232.108132 0 120 255
78.584864 11.350987 -230.727894 0 120 255
78.352419 13.444276 -229.433677 0 120 255
78.047151 15.594065 -228.245353 0 120 255
77.741882 17.743855 -227.057028 0 120 255
77.436614 19.893644 -225.868704 0 120 255
77.068531 22.074778 -224.765359 0 120 255
76.614109 24.298993 -223.778816 0 120 255
76.159687 26.523208 -222.792274 0 120 255
75.705266 28.747424 -221.805731 0 120 255
75.186268 30.988600 -220.901612 0 120 255
74.568328 33.255762 -220.123779 0 120 255
73.950389 35.522925 -219.345947 0 120 255
73.332449 37.790087 -218.568114 0 120 255
72.650074 40.060425 -217.868664 0 120 255
71.857677 42.336187 -217.303053 0 120 255
71.065279 44.611948 -216.737442 0 120 255
70.272882 46.887709 -216.171830 0 120 255
69.418044 49.153919 -215.679188 0 120 255
68.444226 51.401928 -215.325589 0 120 255
67.470409 53.649937 -214.971989 0 120 255
66.496591 55.897946 -214.618390 0 120 255
65.464053 58.125181 -214.331113 0 120 255
64.306238 60.308094 -214.185334 0 120 255
63.148424 62.491008 -214.039554 0 120 255
61.990609 64.673922 -213.893775 0 120 255
60.779302 66.826765 -213.806684 0 120 255
59.439515 68.907382 -213.860553 0 120 255
58.099728 70.987999 -213.914423 0 120 255
56.759940 73.068615 -213.968293 0 120 255
55.373105 75.112150 -214.072506 0 120 255
53.858003 77.054586 -214.313972 0 120 255
52.342900 78.997022 -214.555437 0 120 255
50.827798 80.939458 -214.796903 0 120 255
49.272945 82.840355 -215.080002 0 120 255
47.593634 84.611194 -215.493452 0 120 255
45.914323 86.382033 -215.906903 0 120 255
44.235012 88.152873 -216.320353 0 120 255
42.523680 89.880420 -216.766738 0 120 255
40.695322 91.449752 -217.333489 0 120 255
38.866965 93.019084 -217.900239 0 120 255
37.038607 94.588415 -218.466990 0 120 255
35.185942 96.115417 -219.058384 0 120 255
33.227198 97.457693 -219.757323 0 120 255
31.268455 98.799970 -220.456263 0 120 255
29.309711 100.142246 -221.155202 0 120 255
27.333903 101.445736 -221.871267 0 120 255
25.266229 102.540424 -222.679527 0 120 255
23.198556 103.635111 -223.487787 0 120 255
21.130883 104.729799 -224.296047 0 120 255
19.052496 105.791546 -225.115028 0 120 255
16.899375 106.623510 -226.008788 0 120 255
14.746255 107.455474 -226.902549 0 120 255
12.593135 108.287438 -227.796309 0 120 255
10.434394 109.094210 -228.695754 0 120 255
8.220511 109.653827 -229.650976 0 120 255
6.006627 110.213443 -230.606197 0 120 255
3.792744 110.773059 -231.561419 0 120 255
1.576794 111.316648 -232.518840 0 120 255
-0.672736 111.599695 -233.512016 0 120 255
-2.922265 111.882742 -234.505192 0 120 255
-5.171795 112.165790 -235.498368 0 120 255
-7.421560 112.442849 -236.491883 0 120 255
-9.681931 112.450157 -237.500628 0 120 255
-11.942303 112.457465 -238.509374 0 120 255
-14.202674 112.464772 -239.518119 0 120 255
-16.463045 112.472080 -240.526864 0 120 255
-18.710579 112.213419 -241.530568 0 120 255
-20.957901 111.950387 -242.534188 0 120 255
-23.205224 111.687355 -243.537809 0 120 255
-25.452546 111.424323 -244.541429 0 120 255
-27.666341 110.914817 -245.522622 0 120 255
-29.878160 110.390784 -246.502492 0 120 255
-32.089979 109.866752 -247.482362 0 120 255
-34.301798 109.342719 -248.462233 0 120 255
-36.462889 108.594284 -249.405962 0 120 255
-38.618554 107.821842 -250.345824 0 120 255
-40.774219 107.049399 -251.285686 0 120 255
-42.929883 106.276956 -252.225549 0 120 255
-45.021201 105.303694 -253.119149 0 120 255
-47.102126 104.297998 -254.005278 0 120 255
-49.183052 103.292303 -254.891408 0 120 255
-51.263977 102.286608 -255.777537 0 120 255
-53.270435 101.104190 -256.610641 0 120 255
-55.260244 99.882261 -257.431891 0 120 255
-57.250052 98.660332 -258.253140 0 120 255
-59.239861 97.438404 -259.074389 0 120 255
-61.148376 96.063551 -259.838891 0 120 255
-63.032941 94.643645 -260.586675 0 120 255
-64.917506 93.223739 -261.334459 0 120 255
-66.802071 91.803833 -262.082243 0 120 255
-68.601508 90.253829 -262.772211 0 120 255
-70.368910 88.654866 -263.440422 0 120 255
-72.136312 87.055902 -264.108633 0 120 255
-73.903713 85.456938 -264.776843 0 120 255
-75.584805 83.749226 -265.388360 0 120 255
-77.225244 81.990291 -265.973174 0 120 255
-78.865683 80.231355 -266.557987 0 120 255
-80.506122 78.472420 -267.142800 0 120 255
-82.061335 76.624269 -267.673847 0 120 255
-83.566981 74.724229 -268.173623 0 120 255
-85.072627 72.824188 -268.673399 0 120 255
-86.578272 70.924148 -269.173175 0 120 255
-88.001677 68.952379 -269.623415 0 120 255
-89.366514 66.929528 -270.038379 0 120 255
-90.731351 64.906678 -270.453343 0 120 255
-92.096188 62.883828 -270.868307 0 120 255
-93.383296 60.804600 -271.238920 0 120 255
-94.602929 58.676433 -271.571031 0 120 255
-95.822562 56.548265 -271.903142 0 120 255
-97.042194 54.420098 -272.235252 0 120 255
-98.189808 52.248761 -272.528769 0 120 255
-99.261283 50.031787 -272.781485 0 120 255
-100.332759 47.814813 -273.034200 0 120 255
-101.404234 45.597839 -273.286916 0 120 255
-102.410298 43.348826 -273.507041 0 120 255
-103.331927 41.058456 -273.685096 0 120 255
-104.253556 38.768086 -273.863151 0 120 255
-105.175185 36.477716 -274.041206 0 120 255
-106.038640 34.164474 -274.192641 0 120 255
-106.809818 31.814951 -274.301850 0 120 255
-107.580996 29.465428 -274.411058 0 120 255
-108.352174 27.115906 -274.520266 0 120 255
-109.072829 24.750870 -274.608564 0 120 255
-109.693901 22.355259 -274.655646 0 120 255
-110.314973 19.959649 -274.702727 0 120 255
-110.936045 17.564038 -274.749809 0 120 255
-111.514458 15.158635 -274.781218 0 120 255
-111.986556 12.728827 -274.773565 0 120 255
-112.458654 10.299020 -274.765912 0 120 255
-112.930753 7.869213 -274.758260 0 120 255
-113.368116 5.433876 -274.739580 0 120 255
-113.693053 2.980642 -274.685210 0 120 255
-114.017990 0.527407 -274.630839 0 120 255
-114.342927 -1.925827 -274.576469 0 120 255
-114.640986 -4.381608 -274.514984 0 120 255
-114.821146 -6.848559 -274.422291 0 120 255
-115.001307 -9.315511 -274.329599 0 120 255
-115.181468 -11.782462 -274.236907 0 120 255
-115.342430 -14.250088 -274.140206 0 120 255
-115.380668 -16.722025 -274.017876 0 120 255
-115.418907 -19.193962 -273.895547 0 120 255
-115.457145 -21.665899 -273.773217 0 120 255
-115.483607 -24.137592 -273.649123 0 120 255
-115.383189 -26.606668 -273.506015 0 120 255
-115.282772 -29.075744 -273.362907 0 120 255
-115.182355 -31.544820 -273.219798 0 120 255
-115.077256 -34.013552 -273.076279 0 120 255
-114.841777 -36.472703 -272.921295 0 120 255
-114.606298 -38.931855 -272.766311 0 120 255
-114.370818 -41.391007 -272.611327 0 120 255
-114.135339 -43.850159 -272.456343 0 120 255
-113.770713 -46.293257 -272.298370 0 120 255
-113.404052 -48.736101 -272.140351 0 120 255
-113.037390 -51.178945 -271.982331 0 120 255
-112.670728 -53.621789 -271.824312 0 120 255
-112.185331 -56.043970 -271.671639 0 120 255
-111.691603 -58.464700 -271.519341 0 120 255
-111.197874 -60.885431 -271.367042 0 120 255
-110.704146 -63.306161 -271.214744 0 120 255
-110.101832 -65.702606 -271.074987 0 120 255
-109.485344 -68.095881 -270.936866 0 120 255
-108.868857 -70.489156 -270.798745 0 120 255
-108.252370 -72.882431 -270.660624 0 120 255
-107.537141 -75.248638 -270.541190 0 120 255
-106.802376 -77.609491 -270.425452 0 120 255
-106.067610 -79.970343 -270.309715 0 120 255
-105.332845 -82.331195 -270.193978 0 120 255
-104.508815 -84.662898 -270.101949 0 120 255
-103.660383 -86.986633 -270.016401 0 120 255
-102.811951 -89.310368 -269.930853 0 120 255
-101.963519 -91.634103 -269.845304 0 120 255
-101.034899 -93.927199 -269.787367 0 120 255
-100.077521 -96.209307 -269.739332 0 120 255
-99.120143 -98.491416 -269.691296 0 120 255
-98.162765 -100.773524 -269.643261 0 120 255
-97.133845 -103.024014 -269.625683 0 120 255
-96.072327 -105.260096 -269.621981 0 120 255
-95.010810 -107.496179 -269.618280 0 120 255
-93.949293 -109.732262 -269.614579 0 120 255
-92.824424 -111.936191 -269.643116 0 120 255
-91.663641 -114.121892 -269.689928 0 120 255
-90.502858 -116.307593 -269.736741 0 120 255
-89.342075 -118.493295 -269.783554 0 120 255
-88.125650 -120.646709 -269.863407 0 120 255
-86.870510 -122.777659 -269.966251 0 120 255
-85.615370 -124.908608 -270.069095 0 120 255
-84.360230 -127.039557 -270.171939 0 120 255
-83.056668 -129.138466 -270.307718 0 120 255
-81.712101 -131.210240 -270.471390 0 120 255
-80.367534 -133.282015 -270.635061 0 120 255
-79.022967 -135.353789 -270.798732 0 120 255
-77.636696 -137.394140 -270.994375 0 120 255
-76.207632 -139.402244 -271.222825 0 120 255
-74.778567 -141.410349 -271.451275 0 120 255
-73.349502 -143.418453 -271.679724 0 120 255
-71.884941 -145.396122 -271.938437 0 120 255
-70.376277 -147.335975 -272.234748 0 120 255
-68.867613 -149.275828 -272.531060 0 120 255
-67.358949 -151.215681 -272.827372 0 120 255
-65.820485 -153.126469 -273.151606 0 120 255
-64.237068 -154.993412 -273.517960 0 120 255
-62.653651 -156.860355 -273.884314 0 120 255
-61.070235 -158.727297 -274.250668 0 120 255
-59.462209 -160.566946 -274.642071 0 120 255
-57.808812 -162.356275 -275.079656 0 120 255
-56.155416 -164.145604 -275.517242 0 120 255
-54.502019 -165.934933 -275.954827 0 120 255
-52.828701 -167.699156 -276.414176 0 120 255
-51.109988 -169.406172 -276.923116 0 120 255
-49.391276 -171.113189 -277.432056 0 120 255
-47.672563 -172.820206 -277.940996 0 120 255
-45.938130 -174.504731 -278.468164 0 120 255
-44.158642 -176.124796 -279.047570 0 120 255
-42.379154 -177.744861 -279.626976 0 120 255
-40.599666 -179.364926 -280.206381 0 120 255
-38.808187 -180.965547 -280.800347 0 120 255
-36.972304 -182.494172 -281.448219 0 120 255
-35.136422 -184.022797 -282.096092 0 120 255
-33.300540 -185.551423 -282.743965 0 120 255
-31.455945 -187.064077 -283.402751 0 120 255
-29.567864 -188.497016 -284.116008 0 120 255
-27.679783 -189.929955 -284.829264 0 120 255
-25.791702 -191.362895 -285.542520 0 120 255
-23.897765 -192.783739 -286.263212 0 120 255
-21.961472 -194.117106 -287.037680 0 120 255
-20.025179 -195.450473 -287.812148 0 120 255
-18.088886 -196.783840 -288.586616 0 120 255
-16.149201 -198.109350 -289.365355 0 120 255
-14.168446 -199.339738 -290.195809 0 120 255
-12.187691 -200.570126 -291.026263 0 120 255
-10.206935 -201.800513 -291.856717 0 120 255
-8.224896 -203.027583 -292.688733 0 120 255
-6.203183 -204.152191 -293.568980 0 120 255
-4.181471 -205.276799 -294.449227 0 120 255
-2.159758 -206.401406 -295.329474 0 120 255
-0.138046 -207.526014 -296.209721 0 120 255
1.920909 -208.544216 -297.132041 0 120 255
3.980368 -209.560977 -298.054930 0 120 255
6.039827 -210.577739 -298.977819 0 120 255
8.099286 -211.594500 -299.900708 0 120 255
10.191546 -212.508540 -300.856268 0 120 255
12.285822 -213.416267 -301.813837 0 120 255
14.380098 -214.323995 -302.771405 0 120 255
16.474374 -215.231722 -303.728974 0 120 255
18.597544 -216.041387 -304.709912 0 120 255
20.724005 -216.839879 -305.693512 0 120 255
22.850467 -217.638372 -306.677113 0 120 255
24.976928 -218.436864 -307.660714 0 120 255
27.128869 -219.142890 -308.658693 0 120 255
29.285185 -219.833038 -309.659141 0 120 255
31.441501 -220.523185 -310.659589 0 120 255
33.597817 -221.213333 -311.660038 0 120 255
35.776668 -221.817500 -312.666327 0 120 255
37.960831 -222.401400 -313.673994 0 120 255
40.144994 -222.985299 -314.681661 0 120 255
42.329157 -223.569198 -315.689328 0 120 255
44.533292 -224.074368 -316.695043 0 120 255
46.743559 -224.555364 -317.700160 0 120 255
48.953826 -225.036361 -318.705276 0 120 255
51.164094 -225.517357 -319.710393 0 120 255
53.392130 -225.927509 -320.706602 0 120 255
55.627046 -226.310235 -321.699362 0 120 255
57.861961 -226.692960 -322.692122 0 120 255
60.096877 -227.075686 -323.684882 0 120 255
62.347646 -227.395943 -324.662779 0 120 255
64.605989 -227.686354 -325.633576 0 120 255
66.864332 -227.976765 -326.604372 0 120 255
69.122676 -228.267176 -327.575168 0 120 255
71.395188 -228.503765 -328.526266 0 120 255
73.675936 -228.709067 -329.465913 0 120 255
75.956685 -228.914368 -330.405560 0 120 255
78.237433 -229.119669 -331.345207 0 120 255
80.530858 -229.279898 -332.261453 0 120 255
82.833168 -229.408538 -333.161299 0 120 255
85.135477 -229.537177 -334.061144 0 120 255
87.437786 -229.665817 -334.960990 0 120 255
89.750638 -229.765187 -335.836448 0 120 255
92.072351 -229.839959 -336.691410 0 120 255
94.394063 -229.914730 -337.546371 0 120 255
96.715775 -229.989501 -338.401333 0 120 255
99.046761 -230.048259 -339.231381 0 120 255
101.387102 -230.090863 -340.036295 0 120 255
103.727443 -230.133468 -340.841210 0 120 255
106.067784 -230.176072 -341.646125 0 120 255
108.417181 -230.200928 -342.424101 0 120 255
110.777606 -230.204173 -343.169276 0 120 255
113.138030 -230.207418 -343.914450 0 120 255
115.498455 -230.210663 -344.659624 0 120 255
117.866997 -230.195225 -345.377209 0 120 255
120.247543 -230.152161 -346.054000 0 120 255
122.628089 -230.109097 -346.730790 0 120 255
125.008635 -230.066033 -347.407581 0 120 255
127.395882 -230.009207 -348.057992 0 120 255
129.795259 -229.927472 -348.660659 0 120 255
132.194637 -229.845737 -349.263326 0 120 255
134.594014 -229.764003 -349.865993 0 120 255
136.998703 -229.672895 -350.444335 0 120 255
139.415317 -229.560748 -350.968070 0 120 255
141.831931 -229.448600 -351.491805 0 120 255
144.248545 -229.336453 -352.015540 0 120 255
146.669156 -229.218654 -352.517745 0 120 255
149.101126 -229.084796 -352.958773 0 120 255
151.533095 -228.950939 -353.399801 0 120 255
153.965065 -228.817081 -353.840829 0 120 255
156.399840 -228.680532 -354.263734 0 120 255
158.845028 -228.533993 -354.619375 0 120 255
161.290216 -228.387455 -354.975016 0 120 255
163.735404 -228.240916 -355.330657 0 120 255
166.181795 -228.088053 -355.673704 0 120 255
168.634322 -227.902941 -355.952525 0 120 255
171.086850 -227.717828 -356.231345 0 120 255
173.539377 -227.532716 -356.510166 0 120 255
175.991390 -227.342037 -356.789354 0 120 255
178.439620 -227.110504 -357.071243 0 120 255
180.887849 -226.878970 -357.353132 0 120 255
183.336079 -226.647436 -357.635021 0 120 255
185.784309 -226.415902 -357.916911 0 120 255
188.232536 -226.184357 -358.198812 0 120 255
190.680764 -225.952812 -358.480713 0 120 255
193.128991 -225.721268 -358.762615 0 120 255
195.577219 -225.489723 -359.044516 0 120 255
198.025447 -225.258182 -359.326409 0 120 255
200.473676 -225.026642 -359.608303 0 120 255
202.921905 -224.795101 -359.890197 0 120 255
205.370133 -224.563560 -360.172091 0 120 255
