ply
format ascii 1.0
element vertex 385
property float x
property float y
property float z
property uchar red
property uchar green
property uchar blue
end_header
77.430455 -42.474882 -360.397637 0 120 255
77.187600 -42.528701 -357.936409 0 120 255
76.944744 -42.582520 -355.475181 0 120 255
76.701888 -42.636339 -353.013954 0 120 255
76.459032 -42.690158 -350.552726 0 120 255
76.213032 -42.747611 -348.091893 0 120 255
75.966892 -42.805224 -345.631077 0 120 255
75.720752 -42.862838 -343.170262 0 120 255
75.474613 -42.920452 -340.709446 0 120 255
75.088315 -43.427208 -338.323534 0 120 255
74.689103 -43.975345 -335.944523 0 120 255
74.289892 -44.523483 -333.565513 0 120 255
73.890680 -45.071620 -331.186502 0 120 255
73.387515 -45.998407 -328.954530 0 120 255
72.869146 -46.980573 -326.744064 0 120 255
72.350777 -47.962739 -324.533598 0 120 255
71.832407 -48.944905 -322.323132 0 120 255
71.237679 -50.229652 -320.301302 0 120 255
70.627192 -51.576842 -318.318399 0 120 255
70.016706 -52.924031 -316.335496 0 120 255
69.406219 -54.271221 -314.352593 0 120 255
68.741201 -55.846943 -312.572701 0 120 255
68.061278 -57.485128 -310.848296 0 120 255
67.381354 -59.123312 -309.123891 0 120 255
66.701431 -60.761496 -307.399485 0 120 255
65.984093 -62.563270 -305.871303 0 120 255
65.253726 -64.422004 -304.411443 0 120 255
64.523360 -66.280737 -302.951582 0 120 255
63.792993 -68.139470 -301.491722 0 120 255
63.039164 -70.109651 -300.206889 0 120 255
62.275191 -72.128007 -298.997715 0 120 255
61.511219 -74.146364 -297.788542 0 120 255
60.747246 -76.164720 -296.579369 0 120 255
59.972154 -78.256093 -295.515964 0 120 255
59.191199 -80.385965 -294.529420 0 120 255
58.410243 -82.515838 -293.542876 0 120 255
57.629288 -84.645710 -292.556331 0 120 255
56.849206 -86.822790 -291.683597 0 120 255
56.069679 -89.029864 -290.883172 0 120 255
55.290151 -91.236937 -290.082747 0 120 255
54.510624 -93.444011 -289.282322 0 120 255
53.744393 -95.682707 -288.565032 0 120 255
52.988258 -97.945414 -287.910863 0 120 255
52.232122 -100.208120 -287.256694 0 120 255
51.475987 -102.470826 -286.602525 0 120 255
50.746213 -104.756808 -286.004831 0 120 255
50.040235 -107.063801 -285.458115 0 120 255
49.334257 -109.370793 -284.911400 0 120 255
48.628279 -111.677785 -284.364684 0 120 255
47.962045 -114.003868 -283.853241 0 120 255
47.338354 -116.350387 -283.379555 0 120 255
46.714663 -118.696905 -282.905870 0 120 255
46.090972 -121.043424 -282.432184 0 120 255
45.519907 -123.406293 -281.978433 0 120 255
45.015632 -125.789915 -281.549983 0 120 255
44.511357 -128.173537 -281.121532 0 120 255
44.007082 -130.557159 -280.693082 0 120 255
43.566684 -132.953814 -280.274689 0 120 255
43.222625 -135.370123 -279.871465 0 120 255
42.878566 -137.786432 -279.468241 0 120 255
42.534507 -140.202742 -279.065017 0 120 255
42.262662 -142.627039 -278.666455 0 120 255
42.120874 -145.065724 -278.276288 0 120 255
41.979086 -147.504409 -277.886122 0 120 255
41.837298 -149.943094 -277.495956 0 120 255
41.771989 -152.382818 -277.108271 0 120 255
41.872483 -154.824797 -276.725965 0 120 255
41.972977 -157.266776 -276.343660 0 120 255
42.073471 -159.708755 -275.961354 0 120 255
42.249828 -162.143622 -275.581237 0 120 255
42.626591 -164.559701 -275.206899 0 120 255
43.003354 -166.975780 -274.832562 0 120 255
43.380117 -169.391859 -274.458224 0 120 255
43.827059 -171.792832 -274.086507 0 120 255
44.504043 -174.144289 -273.723382 0 120 255
45.181027 -176.495746 -273.360257 0 120 255
45.858012 -178.847203 -272.997131 0 120 255
46.594985 -181.177362 -272.636886 0 120 255
47.582615 -183.418535 -272.288676 0 120 255
48.570245 -185.659707 -271.940466 0 120 255
49.557875 -187.900880 -271.592256 0 120 255
50.592114 -190.117867 -271.246597 0 120 255
51.885280 -192.200499 -270.915112 0 120 255
53.178446 -194.283131 -270.583627 0 120 255
54.471612 -196.365763 -270.252141 0 120 255
55.796664 -198.425552 -269.922284 0 120 255
57.374527 -200.304223 -269.605329 0 120 255
58.952390 -202.182894 -269.288375 0 120 255
60.530253 -204.061565 -268.971421 0 120 255
62.125972 -205.923030 -268.654967 0 120 255
63.954052 -207.560581 -268.345022 0 120 255
65.782132 -209.198132 -268.035076 0 120 255
67.610213 -210.835683 -267.725131 0 120 255
69.444588 -212.465116 -267.414992 0 120 255
71.478502 -213.837218 -267.098694 0 120 255
73.512417 -215.209321 -266.782396 0 120 255
75.546331 -216.581423 -266.466099 0 120 255
77.580246 -217.953525 -266.149801 0 120 255
79.768940 -219.054284 -265.808574 0 120 255
81.959256 -220.152199 -265.467085 0 120 255
84.149572 -221.250114 -265.125597 0 120 255
86.339888 -222.348029 -264.784108 0 120 255
88.631376 -223.193216 -264.396650 0 120 255
90.928357 -224.024678 -264.006696 0 120 255
93.225339 -224.856139 -263.616742 0 120 255
95.522320 -225.687601 -263.226787 0 120 255
97.874178 -226.298365 -262.769085 0 120 255
100.231648 -226.886556 -262.304454 0 120 255
102.589118 -227.474748 -261.839822 0 120 255
104.946588 -228.062939 -261.375191 0 120 255
107.321445 -228.472160 -260.822116 0 120 255
109.698994 -228.853656 -260.255340 0 120 255
112.076544 -229.235152 -259.688564 0 120 255
114.454094 -229.616648 -259.121788 0 120 255
116.820044 -229.866624 -258.448594 0 120 255
119.183525 -230.088610 -257.752753 0 120 255
121.547007 -230.310595 -257.056912 0 120 255
123.910488 -230.532581 -256.361070 0 120 255
126.240010 -230.675853 -255.544815 0 120 255
128.560137 -230.797348 -254.695247 0 120 255
130.880264 -230.918843 -253.845678 0 120 255
133.200391 -231.040339 -252.996110 0 120 255
135.469097 -231.131867 -252.017784 0 120 255
137.719927 -231.212978 -250.994699 0 120 255
139.970757 -231.294089 -249.971615 0 120 255
142.221587 -231.375200 -248.948530 0 120 255
144.406401 -231.450406 -247.794723 0 120 255
146.563018 -231.523090 -246.585079 0 120 255
148.719634 -231.595773 -245.375434 0 120 255
150.876251 -231.668456 -244.165790 0 120 255
152.952535 -231.737950 -242.827209 0 120 255
154.987291 -231.805795 -241.421977 0 120 255
157.022048 -231.873641 -240.016744 0 120 255
159.056805 -231.941486 -238.611511 0 120 255
160.997438 -232.005954 -237.083605 0 120 255
162.879807 -232.068331 -235.479761 0 120 255
164.762176 -232.130709 -233.875918 0 120 255
166.644544 -232.193087 -232.272074 0 120 255
168.420197 -232.251326 -230.555830 0 120 255
170.117326 -232.306521 -228.756879 0 120 255
171.814455 -232.361715 -226.957929 0 120 255
173.511584 -232.416910 -225.158978 0 120 255
175.091549 -232.467509 -223.261545 0 120 255
176.569514 -232.514108 -221.278374 0 120 255
178.047478 -232.560706 -219.295202 0 120 255
179.525442 -232.607304 -217.312031 0 120 255
180.878800 -232.649079 -215.247240 0 120 255
182.104092 -232.685897 -213.098561 0 120 255
183.329385 -232.722714 -210.949882 0 120 255
184.554677 -232.759531 -208.801203 0 120 255
185.651691 -232.791448 -206.589804 0 120 255
186.593045 -232.817419 -204.302295 0 120 255
187.534398 -232.843389 -202.014786 0 120 255
188.475752 -232.869359 -199.727278 0 120 255
189.289421 -232.890516 -197.396846 0 120 255
189.919691 -232.904759 -195.004760 0 120 255
190.549961 -232.919002 -192.612674 0 120 255
191.180230 -232.933244 -190.220588 0 120 255
191.687877 -232.942928 -187.805005 0 120 255
191.985952 -232.944818 -185.349264 0 120 255
192.284027 -232.946709 -182.893523 0 120 255
192.582102 -232.948600 -180.437782 0 120 255
192.766855 -232.946337 -177.976290 0 120 255
192.719237 -232.935559 -175.503006 0 120 255
192.671619 -232.924780 -173.029722 0 120 255
192.624001 -232.914002 -170.556438 0 120 255
192.476034 -232.899600 -168.092276 0 120 255
192.078115 -232.876176 -165.650836 0 120 255
191.680196 -232.852751 -163.209396 0 120 255
191.282277 -232.829326 -160.767957 0 120 255
190.799707 -232.802888 -158.346678 0 120 255
190.056377 -232.767168 -155.987504 0 120 255
189.313047 -232.731447 -153.628330 0 120 255
188.569717 -232.695727 -151.269156 0 120 255
187.759002 -232.657647 -148.936727 0 120 255
186.684712 -232.610340 -146.708907 0 120 255
185.610422 -232.563033 -144.481088 0 120 255
184.536131 -232.515726 -142.253268 0 120 255
183.411982 -232.466707 -140.054113 0 120 255
182.030000 -232.408837 -138.003188 0 120 255
180.648017 -232.350968 -135.952263 0 120 255
179.266035 -232.293098 -133.901338 0 120 255
177.850730 -232.234110 -131.876532 0 120 255
176.191923 -232.166952 -130.042584 0 120 255
174.533116 -232.099793 -128.208635 0 120 255
172.874310 -232.032635 -126.374686 0 120 255
171.196637 -231.964861 -124.560403 0 120 255
169.297782 -231.889869 -122.976659 0 120 255
167.398927 -231.814878 -121.392916 0 120 255
165.500071 -231.739887 -119.809173 0 120 255
163.593905 -231.664667 -118.235547 0 120 255
161.495808 -231.583432 -116.927532 0 120 255
159.397710 -231.502197 -115.619517 0 120 255
157.299612 -231.420962 -114.311501 0 120 255
155.201514 -231.339727 -113.003486 0 120 255
152.947911 -231.253894 -111.987200 0 120 255
150.693477 -231.168036 -110.972473 0 120 255
148.439042 -231.082179 -109.957745 0 120 255
146.184608 -230.996321 -108.943018 0 120 255
143.822433 -230.907603 -108.217041 0 120 255
141.454892 -230.818742 -107.505441 0 120 255
139.087352 -230.729882 -106.793842 0 120 255
136.719812 -230.641021 -106.082242 0 120 255
134.287583 -230.550831 -105.649118 0 120 255
131.848984 -230.460509 -105.243420 0 120 255
129.410384 -230.370187 -104.837722 0 120 255
126.971784 -230.279866 -104.432024 0 120 255
124.505960 -230.189508 -104.288964 0 120 255
122.035998 -230.099145 -104.185833 0 120 255
119.566035 -230.008782 -104.082702 0 120 255
117.096072 -229.918419 -103.979571 0 120 255
114.630400 -229.829102 -104.119347 0 120 255
112.165635 -229.740006 -104.310417 0 120 255
109.700869 -229.650910 -104.501487 0 120 255
107.236103 -229.561814 -104.692558 0 120 255
104.801220 -229.474621 -105.104303 0 120 255
102.374611 -229.387954 -105.577136 0 120 255
99.948001 -229.301287 -106.049969 0 120 255
97.521391 -229.214620 -106.522803 0 120 255
95.144648 -229.130503 -107.192905 0 120 255
92.785363 -229.047278 -107.932070 0 120 255
90.426078 -228.964053 -108.671235 0 120 255
88.066793 -228.880829 -109.410399 0 120 255
85.772256 -228.800608 -110.323262 0 120 255
83.505713 -228.721687 -111.311227 0 120 255
81.239171 -228.642765 -112.299191 0 120 255
78.972628 -228.563844 -113.287155 0 120 255
76.781219 -228.488213 -114.425846 0 120 255
74.629283 -228.414310 -115.643723 0 120 255
72.477347 -228.340407 -116.861601 0 120 255
70.325410 -228.266504 -118.079479 0 120 255
68.255097 -228.196063 -119.426203 0 120 255
66.236316 -228.127808 -120.854271 0 120 255
64.217534 -228.059552 -122.282339 0 120 255
62.198752 -227.991297 -123.710407 0 120 255
60.264750 -227.926535 -125.246860 0 120 255
58.394595 -227.864404 -126.864938 0 120 255
56.524440 -227.802274 -128.483016 0 120 255
54.654285 -227.740143 -130.101094 0 120 255
52.869080 -227.681432 -131.808577 0 120 255
51.159869 -227.625781 -133.596039 0 120 255
49.450659 -227.570129 -135.383500 0 120 255
47.741448 -227.514477 -137.170962 0 120 255
46.114857 -227.462111 -139.030585 0 120 255
44.575918 -227.413231 -140.966766 0 120 255
43.036979 -227.364350 -142.902946 0 120 255
41.498040 -227.315470 -144.839127 0 120 255
40.037561 -227.269657 -146.832257 0 120 255
38.675879 -227.227706 -148.897101 0 120 255
37.314197 -227.185755 -150.961945 0 120 255
35.952516 -227.143804 -153.026789 0 120 255
34.663801 -227.104674 -155.135421 0 120 255
33.484526 -227.069777 -157.309727 0 120 255
32.305251 -227.034879 -159.484034 0 120 255
31.125976 -226.999981 -161.658341 0 120 255
30.013226 -226.967628 -163.865235 0 120 255
29.020073 -226.939851 -166.130713 0 120 255
28.026921 -226.912074 -168.396192 0 120 255
27.033768 -226.884296 -170.661671 0 120 255
26.100030 -226.858772 -172.950367 0 120 255
25.295596 -226.838149 -175.289593 0 120 255
24.491161 -226.817525 -177.628819 0 120 255
23.686726 -226.796902 -179.968044 0 120 255
22.934153 -226.778225 -182.322817 0 120 255
22.320205 -226.764747 -184.719149 0 120 255
21.706258 -226.751270 -187.115480 0 120 255
21.092311 -226.737793 -189.511811 0 120 255
20.522372 -226.725955 -191.917584 0 120 255
20.100029 -226.719616 -194.355022 0 120 255
19.677685 -226.713277 -196.792460 0 120 255
19.255341 -226.706937 -199.229898 0 120 255
18.868959 -226.701926 -201.672125 0 120 255
18.638771 -226.702684 -204.135158 0 120 255
18.408583 -226.703442 -206.598191 0 120 255
18.178394 -226.704200 -209.061223 0 120 255
17.976020 -226.705977 -211.525765 0 120 255
17.938140 -226.713785 -213.999228 0 120 255
17.900260 -226.721592 -216.472691 0 120 255
17.862380 -226.729400 -218.946155 0 120 255
17.844112 -226.737920 -221.419154 0 120 255
17.998205 -226.752698 -223.888071 0 120 255
18.152297 -226.767477 -226.356989 0 120 255
18.306390 -226.782255 -228.825907 0 120 255
18.471899 -226.797446 -231.293662 0 120 255
18.817132 -226.819121 -233.743124 0 120 255
19.162366 -226.840796 -236.192585 0 120 255
19.507600 -226.862471 -238.642046 0 120 255
19.856118 -226.884263 -241.090912 0 120 255
20.390885 -226.912710 -243.506017 0 120 255
20.925652 -226.941156 -245.921122 0 120 255
21.460418 -226.969602 -248.336227 0 120 255
21.995185 -226.998049 -250.751332 0 120 255
22.712184 -227.032964 -253.118461 0 120 255
23.433858 -227.068046 -255.484359 0 120 255
24.155532 -227.103128 -257.850257 0 120 255
24.877206 -227.138209 -260.216155 0 120 255
25.769601 -227.179274 -262.522472 0 120 255
26.674322 -227.220770 -264.824488 0 120 255
27.579042 -227.262266 -267.126503 0 120 255
28.483763 -227.303762 -269.428519 0 120 255
29.546745 -227.350750 -271.660938 0 120 255
30.629210 -227.398414 -273.884789 0 120 255
31.711674 -227.446078 -276.108641 0 120 255
32.794139 -227.493742 -278.332492 0 120 255
34.021570 -227.546393 -280.478490 0 120 255
35.274959 -227.599937 -282.610546 0 120 255
36.528348 -227.653481 -284.742603 0 120 255
37.781737 -227.707026 -286.874660 0 120 255
39.166165 -227.765032 -288.922503 0 120 255
40.582159 -227.824113 -290.950060 0 120 255
41.998153 -227.883194 -292.977618 0 120 255
43.414147 -227.942276 -295.005175 0 120 255
44.946814 -228.005282 -296.944204 0 120 255
46.515595 -228.069504 -298.855831 0 120 255
48.084376 -228.133726 -300.767458 0 120 255
49.653157 -228.197948 -302.679085 0 120 255
51.324123 -228.265564 -304.499964 0 120 255
53.034558 -228.334492 -306.285791 0 120 255
54.744993 -228.403419 -308.071618 0 120 255
56.455428 -228.472347 -309.857445 0 120 255
58.253820 -228.544189 -311.552313 0 120 255
60.093771 -228.617409 -313.204201 0 120 255
61.933723 -228.690629 -314.856089 0 120 255
63.773674 -228.763848 -316.507977 0 120 255
65.687877 -228.839555 -318.070643 0 120 255
67.644429 -228.916680 -319.582421 0 120 255
69.600981 -228.993805 -321.094199 0 120 255
71.557533 -229.070931 -322.605977 0 120 255
73.575413 -229.149970 -324.032111 0 120 255
75.635127 -229.230316 -325.399825 0 120 255
77.694840 -229.310662 -326.767540 0 120 255
79.754553 -229.391008 -328.135254 0 120 255
81.863691 -229.472082 -329.422600 0 120 255
84.012919 -229.553747 -330.644758 0 120 255
86.162146 -229.635412 -331.866916 0 120 255
88.311373 -229.717078 -333.089073 0 120 255
90.498676 -229.793733 -334.239269 0 120 255
92.722594 -229.865571 -335.320262 0 120 255
94.946511 -229.937409 -336.401256 0 120 255
97.170429 -230.009246 -337.482250 0 120 255
99.422813 -230.070961 -338.500561 0 120 255
101.707639 -230.121137 -339.447434 0 120 255
103.992465 -230.171314 -340.394306 0 120 255
106.277291 -230.221491 -341.341179 0 120 255
108.582794 -230.258659 -342.234550 0 120 255
110.916280 -230.278220 -343.055511 0 120 255
113.249766 -230.297782 -343.876472 0 120 255
115.583252 -230.317343 -344.697433 0 120 255
117.931198 -230.322706 -345.473815 0 120 255
120.302491 -230.305143 -346.178213 0 120 255
122.673784 -230.287579 -346.882611 0 120 255
125.045078 -230.270016 -347.587009 0 120 255
127.426013 -230.238373 -348.255263 0 120 255
129.825668 -230.179396 -348.853337 0 120 255
132.225323 -230.120418 -349.451411 0 120 255
134.624979 -230.061440 -350.049485 0 120 255
137.030684 -229.989549 -350.619178 0 120 255
139.450678 -229.887154 -351.121832 0 120 255
141.870672 -229.784759 -351.624485 0 120 255
144.290666 -229.682363 -352.127139 0 120 255
146.714165 -229.568967 -352.608368 0 120 255
149.147908 -229.423410 -353.026965 0 120 255
151.581651 -229.277853 -353.445563 0 120 255
154.015394 -229.132297 -353.864161 0 120 255
156.450960 -228.978087 -354.267386 0 120 255
158.893286 -228.791778 -354.613580 0 120 255
161.335612 -228.605468 -354.959774 0 120 255
163.777937 -228.419159 -355.305969 0 120 255
166.221059 -228.226908 -355.642198 0 120 255
168.668076 -228.005593 -355.929680 0 120 255
171.115093 -227.784277 -356.217162 0 120 255
173.562109 -227.562961 -356.504644 0 120 255
176.009093 -227.340363 -356.791393 0 120 255
178.455847 -227.108969 -357.073112 0 120 255
180.902602 -226.877575 -357.354831 0 120 255
183.349357 -226.646181 -357.636550 0 120 255
185.796111 -226.414786 -357.918270 0 120 255
188.242863 -226.183380 -358.200001 0 120 255
190.689615 -225.951975 -358.481732 0 120 255
193.136367 -225.720570 -358.763464 0 120 255
195.583120 -225.489165 -359.045195 0 120 255
198.029873 -225.257764 -359.326919 0 120 255
200.476626 -225.026363 -359.608643 0 120 255
202.923380 -224.794961 -359.890367 0 120 255
205.370133 -224.563560 -360.172091 0 120 255
