ply
format ascii 1.0
element vertex 385
property float x
property float y
property float z
property uchar red
property uchar green
property uchar blue
end_header
77.430455 -42.474882 -360.397637 0 120 255
77.187550 -42.528712 -357.935903 0 120 255
76.944644 -42.582542 -355.474170 0 120 255
76.701738 -42.636372 -353.012437 0 120 255
76.458833 -42.690202 -350.550704 0 120 255
76.213711 -42.754892 -348.089453 0 120 255
75.968494 -42.820053 -345.628223 0 120 255
75.723276 -42.885214 -343.166993 0 120 255
75.478059 -42.950375 -340.705762 0 120 255
75.069446 -43.365087 -338.303839 0 120 255
74.645990 -43.811557 -335.907304 0 120 255
74.222533 -44.258026 -333.510769 0 120 255
73.799077 -44.704496 -331.114234 0 120 255
73.249440 -45.395959 -328.805669 0 120 255
72.681200 -46.123543 -326.510074 0 120 255
72.112960 -46.851126 -324.214479 0 120 255
71.544720 -47.578709 -321.918884 0 120 255
70.888475 -48.477610 -319.711183 0 120 255
70.213760 -49.412465 -317.521927 0 120 255
69.539045 -50.347319 -315.332672 0 120 255
68.864331 -51.282174 -313.143417 0 120 255
68.139123 -52.338170 -311.028080 0 120 255
67.399831 -53.427958 -308.933363 0 120 255
66.660539 -54.517746 -306.838646 0 120 255
65.921247 -55.607534 -304.743929 0 120 255
65.165560 -56.788941 -302.706530 0 120 255
64.404038 -58.002957 -300.689532 0 120 255
63.642516 -59.216972 -298.672534 0 120 255
62.880993 -60.430988 -296.655536 0 120 255
62.131787 -61.722268 -294.683298 0 120 255
61.388028 -63.047730 -292.730862 0 120 255
60.644270 -64.373191 -290.778426 0 120 255
59.900512 -65.698652 -288.825989 0 120 255
59.191248 -67.096214 -286.912478 0 120 255
58.500624 -68.532739 -285.020002 0 120 255
57.810001 -69.969263 -283.127525 0 120 255
57.119377 -71.405788 -281.235049 0 120 255
56.478553 -72.913294 -279.382249 0 120 255
55.870222 -74.467115 -277.555337 0 120 255
55.261892 -76.020937 -275.728426 0 120 255
54.653562 -77.574758 -273.901515 0 120 255
54.103861 -79.198747 -272.119836 0 120 255
53.600026 -80.877626 -270.373541 0 120 255
53.096191 -82.556505 -268.627246 0 120 255
52.592356 -84.235384 -266.880951 0 120 255
52.150492 -85.981687 -265.187805 0 120 255
51.766523 -87.790976 -263.544312 0 120 255
51.382554 -89.600265 -261.900818 0 120 255
50.998585 -91.409554 -260.257324 0 120 255
50.675743 -93.280711 -258.674926 0 120 255
50.421027 -95.220819 -257.160617 0 120 255
50.166310 -97.160927 -255.646307 0 120 255
49.911594 -99.101035 -254.131998 0 120 255
49.714375 -101.094723 -252.684898 0 120 255
49.593724 -103.159764 -251.327296 0 120 255
49.473074 -105.224805 -249.969695 0 120 255
49.352424 -107.289846 -248.612094 0 120 255
49.284094 -109.398165 -247.324817 0 120 255
49.299385 -111.575650 -246.149932 0 120 255
49.314675 -113.753135 -244.975046 0 120 255
49.329965 -115.930620 -243.800161 0 120 255
49.391812 -118.140061 -242.695186 0 120 255
49.543641 -120.411263 -241.725330 0 120 255
49.695470 -122.682465 -240.755474 0 120 255
49.847299 -124.953667 -239.785617 0 120 255
50.039948 -127.245546 -238.881761 0 120 255
50.329116 -129.586318 -238.133966 0 120 255
50.618284 -131.927091 -237.386171 0 120 255
50.907452 -134.267863 -236.638376 0 120 255
51.231990 -136.619036 -235.949568 0 120 255
51.660606 -139.000811 -235.434334 0 120 255
52.089221 -141.382586 -234.919099 0 120 255
52.517836 -143.764362 -234.403865 0 120 255
52.976644 -146.148061 -233.938212 0 120 255
53.548838 -148.538989 -233.658769 0 120 255
54.121032 -150.929917 -233.379326 0 120 255
54.693226 -153.320845 -233.099883 0 120 255
55.290481 -155.707617 -232.859070 0 120 255
56.012586 -158.073680 -232.810710 0 120 255
56.734690 -160.439744 -232.762350 0 120 255
57.456795 -162.805808 -232.713990 0 120 255
58.198571 -165.164421 -232.692736 0 120 255
59.078896 -167.470560 -232.862393 0 120 255
59.959221 -169.776699 -233.032049 0 120 255
60.839545 -172.082837 -233.201706 0 120 255
61.733587 -174.381218 -233.387416 0 120 255
62.781610 -176.592502 -233.753341 0 120 255
63.829634 -178.803785 -234.119266 0 120 255
64.877658 -181.015069 -234.485191 0 120 255
65.932693 -183.221270 -234.857675 0 120 255
67.157902 -185.304108 -235.389352 0 120 255
68.383111 -187.386946 -235.921030 0 120 255
69.608320 -189.469784 -236.452707 0 120 255
70.833529 -191.552622 -236.984385 0 120 255
72.243403 -193.476455 -237.642392 0 120 255
73.653713 -195.399913 -238.300697 0 120 255
75.064023 -197.323371 -238.959003 0 120 255
76.474333 -199.246829 -239.617309 0 120 255
78.065964 -200.992192 -240.351621 0 120 255
79.665932 -202.729366 -241.089428 0 120 255
81.265901 -204.466539 -241.827236 0 120 255
82.865869 -206.203713 -242.565043 0 120 255
84.638620 -207.750931 -243.326164 0 120 255
86.427478 -209.280440 -244.089460 0 120 255
88.216336 -210.809949 -244.852755 0 120 255
90.005195 -212.339458 -245.616050 0 120 255
91.952204 -213.674878 -246.349979 0 120 255
93.922078 -214.982237 -247.079662 0 120 255
95.891953 -216.289596 -247.809345 0 120 255
97.861828 -217.596955 -248.539029 0 120 255
99.968696 -218.714080 -249.189319 0 120 255
102.103053 -219.793033 -249.823679 0 120 255
104.237410 -220.871986 -250.458039 0 120 255
106.371766 -221.950938 -251.092399 0 120 255
108.615782 -222.851178 -251.602727 0 120 255
110.888549 -223.704561 -252.080534 0 120 255
113.161316 -224.557943 -252.558342 0 120 255
115.434083 -225.411326 -253.036149 0 120 255
117.783991 -226.104461 -253.353262 0 120 255
120.159363 -226.744699 -253.617332 0 120 255
122.534736 -227.384937 -253.881401 0 120 255
124.910108 -228.025175 -254.145471 0 120 255
127.326647 -228.529199 -254.222260 0 120 255
129.759880 -228.977984 -254.223101 0 120 255
132.193113 -229.426770 -254.223942 0 120 255
134.626345 -229.875555 -254.224783 0 120 255
137.063492 -230.215982 -254.023219 0 120 255
139.502555 -230.503323 -253.722492 0 120 255
141.941618 -230.790664 -253.421765 0 120 255
144.380681 -231.078005 -253.121038 0 120 255
146.787544 -231.286742 -252.614590 0 120 255
149.175568 -231.449490 -251.987783 0 120 255
151.563592 -231.612239 -251.360976 0 120 255
153.951615 -231.774988 -250.734169 0 120 255
156.274838 -231.888944 -249.909553 0 120 255
158.553138 -231.969074 -248.947803 0 120 255
160.831437 -232.049204 -247.986054 0 120 255
163.109737 -232.129334 -247.024305 0 120 255
165.296525 -232.186233 -245.882795 0 120 255
167.408495 -232.224138 -244.594316 0 120 255
169.520465 -232.262043 -243.305838 0 120 255
171.632435 -232.299949 -242.017359 0 120 255
173.631531 -232.322171 -240.572033 0 120 255
175.521968 -232.329295 -238.975716 0 120 255
177.412405 -232.336419 -237.379399 0 120 255
179.302842 -232.343544 -235.783082 0 120 255
181.065283 -232.340327 -234.057346 0 120 255
182.682707 -232.325394 -232.184981 0 120 255
184.300130 -232.310461 -230.312616 0 120 255
185.917553 -232.295528 -228.440252 0 120 255
187.399450 -232.275693 -226.468490 0 120 255
188.700254 -232.249307 -224.363913 0 120 255
190.001058 -232.222922 -222.259337 0 120 255
191.301862 -232.196536 -220.154760 0 120 255
192.467076 -232.168837 -217.980644 0 120 255
193.417638 -232.139057 -215.696443 0 120 255
194.368199 -232.109277 -213.412241 0 120 255
195.318761 -232.079498 -211.128039 0 120 255
196.140427 -232.050426 -208.801815 0 120 255
196.718547 -232.022691 -206.396188 0 120 255
197.296668 -231.994956 -203.990562 0 120 255
197.874789 -231.967222 -201.584935 0 120 255
198.336228 -231.941009 -199.160768 0 120 255
198.531650 -231.918265 -196.694328 0 120 255
198.727071 -231.895522 -194.227888 0 120 255
198.922493 -231.872778 -191.761449 0 120 255
199.017398 -231.851549 -189.294804 0 120 255
198.831434 -231.834553 -186.827587 0 120 255
198.645470 -231.817557 -184.360370 0 120 255
198.459505 -231.800561 -181.893153 0 120 255
198.191469 -231.784613 -179.438405 0 120 255
197.635953 -231.772338 -177.027330 0 120 255
197.080438 -231.760063 -174.616255 0 120 255
196.524922 -231.747787 -172.205180 0 120 255
195.906466 -231.735949 -169.813592 0 120 255
195.002228 -231.726091 -167.510488 0 120 255
194.097990 -231.716233 -165.207384 0 120 255
193.193753 -231.706375 -162.904280 0 120 255
192.245010 -231.696425 -160.622457 0 120 255
191.020054 -231.685901 -158.472712 0 120 255
189.795098 -231.675377 -156.322968 0 120 255
188.570141 -231.664852 -154.173223 0 120 255
187.317325 -231.653938 -152.042045 0 120 255
185.804950 -231.639387 -150.083846 0 120 255
184.292575 -231.624837 -148.125648 0 120 255
182.780200 -231.610286 -146.167449 0 120 255
181.254043 -231.595337 -144.221475 0 120 255
179.491072 -231.573534 -142.485534 0 120 255
177.728101 -231.551731 -140.749594 0 120 255
175.965130 -231.529929 -139.013653 0 120 255
174.199408 -231.507997 -137.280903 0 120 255
172.224548 -231.476271 -135.790616 0 120 255
170.249688 -231.444545 -134.300330 0 120 255
168.274828 -231.412819 -132.810044 0 120 255
166.299968 -231.381093 -131.319757 0 120 255
164.157450 -231.337935 -130.084042 0 120 255
162.009904 -231.294434 -128.855960 0 120 255
159.862357 -231.250933 -127.627879 0 120 255
157.714811 -231.207431 -126.399797 0 120 255
155.442737 -231.152243 -125.424839 0 120 255
153.161103 -231.096158 -124.469310 0 120 255
150.879470 -231.040073 -123.513782 0 120 255
148.597837 -230.983988 -122.558253 0 120 255
146.230261 -230.917075 -121.848725 0 120 255
143.851682 -230.848774 -121.170694 0 120 255
141.473102 -230.780474 -120.492663 0 120 255
139.094523 -230.712174 -119.814632 0 120 255
136.663732 -230.634938 -119.371179 0 120 255
134.223307 -230.556054 -118.971009 0 120 255
131.782883 -230.477169 -118.570839 0 120 255
129.342458 -230.398285 -118.170669 0 120 255
126.878666 -230.313388 -117.990531 0 120 255
124.409102 -230.227006 -117.864745 0 120 255
121.939538 -230.140623 -117.738959 0 120 255
119.469973 -230.054241 -117.613173 0 120 255
117.001157 -229.965693 -117.690847 0 120 255
114.532578 -229.876461 -117.832917 0 120 255
112.063998 -229.787228 -117.974986 0 120 255
109.595419 -229.697996 -118.117056 0 120 255
107.147386 -229.609946 -118.445104 0 120 255
104.707451 -229.522362 -118.846450 0 120 255
102.267517 -229.434778 -119.247797 0 120 255
99.827582 -229.347195 -119.649144 0 120 255
97.424303 -229.261647 -120.218933 0 120 255
95.038669 -229.177079 -120.869799 0 120 255
92.653034 -229.092511 -121.520666 0 120 255
90.267400 -229.007942 -122.171533 0 120 255
87.931164 -228.925788 -122.973202 0 120 255
85.623581 -228.845034 -123.862343 0 120 255
83.315998 -228.764279 -124.751484 0 120 255
81.008416 -228.683525 -125.640625 0 120 255
78.759902 -228.605422 -126.663067 0 120 255
76.552305 -228.529157 -127.777845 0 120 255
74.344708 -228.452891 -128.892623 0 120 255
72.137111 -228.376625 -130.007401 0 120 255
69.995465 -228.303190 -131.238378 0 120 255
67.908067 -228.232083 -132.564930 0 120 255
65.820668 -228.160976 -133.891483 0 120 255
63.733270 -228.089869 -135.218036 0 120 255
61.716160 -228.021686 -136.644274 0 120 255
59.767497 -227.956350 -138.167584 0 120 255
57.818833 -227.891014 -139.690894 0 120 255
55.870170 -227.825678 -141.214203 0 120 255
53.993824 -227.763284 -142.821470 0 120 255
52.200799 -227.704280 -144.525469 0 120 255
50.407774 -227.645275 -146.229468 0 120 255
48.614749 -227.586270 -147.933466 0 120 255
46.893936 -227.530154 -149.706605 0 120 255
45.271747 -227.477981 -151.574174 0 120 255
43.649559 -227.425809 -153.441744 0 120 255
42.027371 -227.373637 -155.309313 0 120 255
40.475361 -227.324223 -157.232290 0 120 255
39.037469 -227.279296 -159.245367 0 120 255
37.599576 -227.234368 -161.258444 0 120 255
36.161684 -227.189441 -163.271520 0 120 255
34.790199 -227.147095 -165.327503 0 120 255
33.548243 -227.109784 -167.467172 0 120 255
32.306287 -227.072474 -169.606841 0 120 255
31.064331 -227.035163 -171.746510 0 120 255
29.883481 -227.000197 -173.917954 0 120 255
28.847196 -226.970778 -176.164569 0 120 255
27.810911 -226.941359 -178.411183 0 120 255
26.774625 -226.911940 -180.657798 0 120 255
25.792824 -226.884588 -182.926553 0 120 255
24.969934 -226.863263 -185.259883 0 120 255
24.147045 -226.841938 -187.593213 0 120 255
23.324155 -226.820614 -189.926543 0 120 255
22.548039 -226.801046 -192.273987 0 120 255
21.944179 -226.787952 -194.673406 0 120 255
21.340320 -226.774857 -197.072825 0 120 255
20.736460 -226.761763 -199.472245 0 120 255
20.170836 -226.750088 -201.879446 0 120 255
19.789504 -226.745255 -204.324153 0 120 255
19.408172 -226.740423 -206.768860 0 120 255
19.026840 -226.735590 -209.213568 0 120 255
18.674630 -226.731827 -211.661469 0 120 255
18.517131 -226.735216 -214.130722 0 120 255
18.359631 -226.738605 -216.599976 0 120 255
18.202132 -226.741994 -219.069229 0 120 255
18.064343 -226.746101 -221.538848 0 120 255
18.129818 -226.757612 -224.012229 0 120 255
18.195293 -226.769122 -226.485609 0 120 255
18.260768 -226.780633 -228.958990 0 120 255
18.336517 -226.792515 -231.431637 0 120 255
18.621982 -226.811984 -233.889311 0 120 255
18.907447 -226.831452 -236.346985 0 120 255
19.192911 -226.850921 -238.804659 0 120 255
19.479453 -226.870428 -241.262160 0 120 255
19.979888 -226.897594 -243.685145 0 120 255
20.480323 -226.924759 -246.108130 0 120 255
20.980758 -226.951925 -248.531116 0 120 255
21.481194 -226.979090 -250.954101 0 120 255
22.182035 -227.013378 -253.326451 0 120 255
22.890510 -227.047936 -255.696873 0 120 255
23.598985 -227.082495 -258.067295 0 120 255
24.307460 -227.117053 -260.437717 0 120 255
25.199724 -227.158059 -262.744445 0 120 255
26.107625 -227.199613 -265.045753 0 120 255
27.015526 -227.241167 -267.347061 0 120 255
27.923427 -227.282720 -269.648370 0 120 255
28.997881 -227.330065 -271.875655 0 120 255
30.095071 -227.378201 -274.092835 0 120 255
31.192261 -227.426336 -276.310015 0 120 255
32.289452 -227.474471 -278.527196 0 120 255
33.535794 -227.527729 -280.662666 0 120 255
34.810941 -227.581976 -282.782357 0 120 255
36.086088 -227.636223 -284.902047 0 120 255
37.361236 -227.690469 -287.021738 0 120 255
38.768298 -227.749197 -289.054561 0 120 255
40.209095 -227.809072 -291.065172 0 120 255
41.649891 -227.868946 -293.075782 0 120 255
43.090687 -227.928820 -295.086392 0 120 255
44.646661 -227.992561 -297.007323 0 120 255
46.240097 -228.057559 -298.899086 0 120 255
47.833533 -228.122558 -300.790850 0 120 255
49.426969 -228.187556 -302.682613 0 120 255
51.119615 -228.255845 -304.484016 0 120 255
52.852243 -228.325459 -306.249005 0 120 255
54.584871 -228.395074 -308.013995 0 120 255
56.317498 -228.464688 -309.778984 0 120 255
58.134365 -228.537111 -311.454810 0 120 255
59.992555 -228.610910 -313.086900 0 120 255
61.850744 -228.684710 -314.718990 0 120 255
63.708933 -228.758510 -316.351080 0 120 255
65.637570 -228.834776 -317.896798 0 120 255
67.607752 -228.912497 -319.391580 0 120 255
69.577934 -228.990218 -320.886362 0 120 255
71.548116 -229.067940 -322.381144 0 120 255
73.576181 -229.147651 -323.793776 0 120 255
75.644943 -229.228762 -325.148647 0 120 255
77.713705 -229.309873 -326.503517 0 120 255
79.782468 -229.390984 -327.858388 0 120 255
81.897713 -229.472544 -329.136841 0 120 255
84.051727 -229.554478 -330.351561 0 120 255
86.205741 -229.636411 -331.566280 0 120 255
88.359754 -229.718345 -332.781000 0 120 255
90.549572 -229.794706 -333.927754 0 120 255
92.774722 -229.865568 -335.007437 0 120 255
94.999873 -229.936430 -336.087120 0 120 255
97.225023 -230.007292 -337.166802 0 120 255
99.477127 -230.068050 -338.187244 0 120 255
101.760708 -230.117010 -339.138504 0 120 255
104.044288 -230.165970 -340.089764 0 120 255
106.327868 -230.214929 -341.041024 0 120 255
108.631232 -230.251267 -341.941520 0 120 255
110.961997 -230.270121 -342.771706 0 120 255
113.292763 -230.288976 -343.601892 0 120 255
115.623528 -230.307830 -344.432078 0 120 255
117.968328 -230.312933 -345.219658 0 120 255
120.336298 -230.295333 -345.936903 0 120 255
122.704267 -230.277732 -346.654149 0 120 255
125.072237 -230.260132 -347.371395 0 120 255
127.449748 -230.228856 -348.053685 0 120 255
129.846184 -230.170454 -348.666641 0 120 255
132.242620 -230.112052 -349.279596 0 120 255
134.639056 -230.053650 -349.892552 0 120 255
137.041636 -229.982633 -350.477563 0 120 255
139.459037 -229.881186 -350.995169 0 120 255
141.876437 -229.779739 -351.512775 0 120 255
144.293837 -229.678292 -352.030381 0 120 255
146.714924 -229.566005 -352.526333 0 120 255
149.147017 -229.421363 -352.957651 0 120 255
151.579110 -229.276721 -353.388968 0 120 255
154.011202 -229.132079 -353.820286 0 120 255
156.445307 -228.978815 -354.235487 0 120 255
158.887039 -228.792879 -354.589617 0 120 255
161.328770 -228.606943 -354.943747 0 120 255
163.770501 -228.421007 -355.297877 0 120 255
166.213189 -228.229105 -355.640926 0 120 255
168.660664 -228.007365 -355.928551 0 120 255
171.108139 -227.785624 -356.216177 0 120 255
173.555614 -227.563884 -356.503802 0 120 255
176.003062 -227.340933 -356.790698 0 120 255
178.450319 -227.109492 -357.072475 0 120 255
180.897576 -226.878050 -357.354252 0 120 255
183.344834 -226.646608 -357.636029 0 120 255
185.792091 -226.415166 -357.917807 0 120 255
188.239345 -226.183713 -358.199596 0 120 255
190.686600 -225.952260 -358.481385 0 120 255
193.133855 -225.720808 -358.763175 0 120 255
195.581109 -225.489355 -359.044964 0 120 255
198.028365 -225.257906 -359.326745 0 120 255
200.475621 -225.026458 -359.608527 0 120 255
202.922877 -224.795009 -359.890309 0 120 255
205.370133 -224.563560 -360.172091 0 120 255
