ply
format ascii 1.0
element vertex 385
property float x
property float y
property float z
property uchar red
property uchar green
property uchar blue
end_header
77.430455 -42.474882 -360.397637 0 120 255
77.187565 -42.528709 -357.936058 0 120 255
76.944675 -42.582535 -355.474479 0 120 255
76.701784 -42.636362 -353.012901 0 120 255
76.458894 -42.690189 -350.551322 0 120 255
76.217275 -42.753192 -348.089837 0 120 255
75.975712 -42.816596 -345.628356 0 120 255
75.734150 -42.880000 -343.166875 0 120 255
75.492587 -42.943405 -340.705393 0 120 255
75.400378 -43.512937 -338.304824 0 120 255
75.321753 -44.128497 -335.909795 0 120 255
75.243127 -44.744056 -333.514765 0 120 255
75.164501 -45.359615 -331.119736 0 120 255
75.217330 -46.375725 -328.871042 0 120 255
75.289549 -47.450916 -326.643934 0 120 255
75.361768 -48.526106 -324.416826 0 120 255
75.433988 -49.601297 -322.189718 0 120 255
75.618922 -50.981334 -320.151885 0 120 255
75.827599 -52.425584 -318.153922 0 120 255
76.036275 -53.869834 -316.155958 0 120 255
76.244952 -55.314084 -314.157994 0 120 255
76.548859 -56.979608 -312.361553 0 120 255
76.879539 -58.707341 -310.621768 0 120 255
77.210219 -60.435074 -308.881983 0 120 255
77.540900 -62.162807 -307.142199 0 120 255
77.952000 -64.044065 -305.596649 0 120 255
78.392064 -65.980615 -304.121054 0 120 255
78.832129 -67.917164 -302.645459 0 120 255
79.272193 -69.853714 -301.169864 0 120 255
79.780892 -71.891621 -299.870338 0 120 255
80.320417 -73.975051 -298.649888 0 120 255
80.859942 -76.058480 -297.429439 0 120 255
81.399467 -78.141910 -296.208990 0 120 255
81.998623 -80.287994 -295.141458 0 120 255
82.630578 -82.468538 -294.158035 0 120 255
83.262533 -84.649082 -293.174611 0 120 255
83.894488 -86.829626 -292.191187 0 120 255
84.579338 -89.044950 -291.336239 0 120 255
85.299382 -91.283412 -290.566769 0 120 255
86.019426 -93.521875 -289.797299 0 120 255
86.739469 -95.760338 -289.027830 0 120 255
87.507381 -98.014014 -288.363206 0 120 255
88.313512 -100.279838 -287.782291 0 120 255
89.119642 -102.545661 -287.201377 0 120 255
89.925773 -104.811484 -286.620462 0 120 255
90.775915 -107.079140 -286.122649 0 120 255
91.668034 -109.348545 -285.704094 0 120 255
92.560152 -111.617950 -285.285539 0 120 255
93.452271 -113.887355 -284.866985 0 120 255
94.385260 -116.149721 -284.512128 0 120 255
95.364737 -118.404080 -284.229725 0 120 255
96.344215 -120.658439 -283.947323 0 120 255
97.323692 -122.912798 -283.664920 0 120 255
98.341229 -125.154491 -283.429244 0 120 255
99.410457 -127.378981 -283.257030 0 120 255
100.479684 -129.603471 -283.084815 0 120 255
101.548912 -131.827962 -282.912600 0 120 255
102.653424 -134.036486 -282.772579 0 120 255
103.815385 -136.219015 -282.684975 0 120 255
104.977346 -138.401544 -282.597371 0 120 255
106.139308 -140.584074 -282.509767 0 120 255
107.333581 -142.749011 -282.442127 0 120 255
108.591389 -144.879357 -282.413745 0 120 255
109.849197 -147.009704 -282.385362 0 120 255
111.107005 -149.140050 -282.356979 0 120 255
112.393807 -151.252401 -282.338547 0 120 255
113.750252 -153.321529 -282.344015 0 120 255
115.106696 -155.390658 -282.349482 0 120 255
116.463140 -157.459786 -282.354950 0 120 255
117.844825 -159.511450 -282.362511 0 120 255
119.301836 -161.510998 -282.376317 0 120 255
120.758847 -163.510546 -282.390124 0 120 255
122.215858 -165.510093 -282.403931 0 120 255
123.693914 -167.493469 -282.414099 0 120 255
125.251989 -169.415357 -282.410433 0 120 255
126.810064 -171.337244 -282.406768 0 120 255
128.368139 -173.259132 -282.403102 0 120 255
129.942706 -175.166809 -282.392210 0 120 255
131.600309 -177.002941 -282.344931 0 120 255
133.257913 -178.839072 -282.297652 0 120 255
134.915516 -180.675203 -282.250374 0 120 255
136.584877 -182.499731 -282.194463 0 120 255
138.337781 -184.241811 -282.077218 0 120 255
140.090685 -185.983892 -281.959973 0 120 255
141.843588 -187.725972 -281.842728 0 120 255
143.603614 -189.459719 -281.717660 0 120 255
145.444178 -191.099229 -281.504129 0 120 255
147.284742 -192.738738 -281.290598 0 120 255
149.125305 -194.378248 -281.077066 0 120 255
150.968859 -196.013378 -280.858730 0 120 255
152.885414 -197.541585 -280.523077 0 120 255
154.801969 -199.069792 -280.187424 0 120 255
156.718524 -200.597999 -279.851770 0 120 255
158.635079 -202.126205 -279.516117 0 120 255
160.611168 -203.534687 -279.034015 0 120 255
162.587397 -204.942887 -278.551568 0 120 255
164.563626 -206.351087 -278.069122 0 120 255
166.539854 -207.759288 -277.586675 0 120 255
168.552715 -209.044752 -276.942255 0 120 255
170.567256 -210.324590 -276.290409 0 120 255
172.581797 -211.604428 -275.638563 0 120 255
174.596338 -212.884266 -274.986717 0 120 255
176.621584 -214.039822 -274.162034 0 120 255
178.647827 -215.183814 -273.321269 0 120 255
180.674069 -216.327806 -272.480504 0 120 255
182.700311 -217.471799 -271.639740 0 120 255
184.709127 -218.491797 -270.620591 0 120 255
186.715425 -219.493883 -269.575673 0 120 255
188.721723 -220.495969 -268.530755 0 120 255
190.728021 -221.498055 -267.485836 0 120 255
192.687616 -222.378746 -266.262780 0 120 255
194.637837 -223.235071 -265.003967 0 120 255
196.588057 -224.091395 -263.745154 0 120 255
198.538278 -224.947719 -262.486340 0 120 255
200.412775 -225.687825 -261.055622 0 120 255
202.267389 -226.397415 -259.579765 0 120 255
204.122002 -227.107005 -258.103909 0 120 255
205.976616 -227.816594 -256.628052 0 120 255
207.728265 -228.417912 -254.992339 0 120 255
209.445837 -228.983396 -253.303719 0 120 255
211.163408 -229.548880 -251.615098 0 120 255
212.880980 -230.114363 -249.926478 0 120 255
214.471664 -230.582237 -248.095256 0 120 255
216.010701 -231.010380 -246.205992 0 120 255
217.549737 -231.438524 -244.316727 0 120 255
219.088774 -231.866667 -242.427462 0 120 255
220.481750 -232.210315 -240.417100 0 120 255
221.802834 -232.512374 -238.347134 0 120 255
223.123919 -232.814433 -236.277168 0 120 255
224.445003 -233.116492 -234.207203 0 120 255
225.606664 -233.349123 -232.040546 0 120 255
226.674530 -233.540907 -229.817003 0 120 255
227.742395 -233.732690 -227.593460 0 120 255
228.810261 -233.924474 -225.369917 0 120 255
229.711807 -234.063163 -223.075474 0 120 255
230.497306 -234.164805 -220.731562 0 120 255
231.282805 -234.266446 -218.387650 0 120 255
232.068304 -234.368088 -216.043738 0 120 255
232.687125 -234.433846 -213.654518 0 120 255
233.168701 -234.470058 -211.227991 0 120 255
233.650277 -234.506269 -208.801464 0 120 255
234.131854 -234.542480 -206.374936 0 120 255
234.452539 -234.559888 -203.927032 0 120 255
234.617229 -234.559066 -201.458401 0 120 255
234.781919 -234.558244 -198.989770 0 120 255
234.946609 -234.557422 -196.521139 0 120 255
234.961712 -234.549688 -194.052261 0 120 255
234.805929 -234.534057 -191.583101 0 120 255
234.650146 -234.518427 -189.113942 0 120 255
234.494363 -234.502796 -186.644782 0 120 255
234.204610 -234.482405 -184.192797 0 120 255
233.733995 -234.455589 -181.763998 0 120 255
233.263380 -234.428773 -179.335199 0 120 255
232.792764 -234.401956 -176.906400 0 120 255
232.206253 -234.371235 -174.507797 0 120 255
231.433887 -234.334250 -172.157617 0 120 255
230.661520 -234.297265 -169.807437 0 120 255
229.889154 -234.260280 -167.457258 0 120 255
229.019849 -234.219967 -165.145763 0 120 255
227.964405 -234.173264 -162.908551 0 120 255
226.908960 -234.126560 -160.671339 0 120 255
225.853516 -234.079857 -158.434127 0 120 255
224.719843 -234.030470 -156.239797 0 120 255
223.404239 -233.974842 -154.145195 0 120 255
222.088636 -233.919215 -152.050594 0 120 255
220.773032 -233.863587 -149.955992 0 120 255
219.396749 -233.805905 -147.904686 0 120 255
217.846718 -233.742341 -145.977350 0 120 255
216.296686 -233.678777 -144.050014 0 120 255
214.746654 -233.615214 -142.122678 0 120 255
213.151741 -233.550169 -140.235862 0 120 255
211.394806 -233.479778 -138.495320 0 120 255
209.637870 -233.409387 -136.754778 0 120 255
207.880935 -233.338996 -135.014236 0 120 255
206.092755 -233.267600 -133.308917 0 120 255
204.157220 -233.191463 -131.769705 0 120 255
202.221686 -233.115326 -130.230493 0 120 255
200.286152 -233.039190 -128.691282 0 120 255
198.330630 -232.962424 -127.180138 0 120 255
196.244692 -232.881554 -125.852137 0 120 255
194.158755 -232.800684 -124.524136 0 120 255
192.072817 -232.719815 -123.196135 0 120 255
189.975698 -232.638609 -121.887850 0 120 255
187.766565 -232.554034 -120.777065 0 120 255
185.557432 -232.469460 -119.666280 0 120 255
183.348300 -232.384885 -118.555496 0 120 255
181.134427 -232.300179 -117.455418 0 120 255
178.827790 -232.212891 -116.564875 0 120 255
176.521152 -232.125604 -115.674333 0 120 255
174.214514 -232.038316 -114.783791 0 120 255
171.907405 -231.951017 -113.894666 0 120 255
169.527363 -231.861830 -113.224808 0 120 255
167.147322 -231.772643 -112.554949 0 120 255
164.767280 -231.683456 -111.885091 0 120 255
162.387239 -231.594269 -111.215232 0 120 255
159.957999 -231.504102 -110.756781 0 120 255
157.526933 -231.413899 -110.306175 0 120 255
155.095868 -231.323697 -109.855570 0 120 255
152.664802 -231.233494 -109.404964 0 120 255
150.205813 -231.143001 -109.153947 0 120 255
147.744461 -231.052484 -108.919815 0 120 255
145.283110 -230.961967 -108.685684 0 120 255
142.821758 -230.871450 -108.451552 0 120 255
140.350701 -230.781254 -108.404646 0 120 255
137.878317 -230.691103 -108.383325 0 120 255
135.405934 -230.600952 -108.362005 0 120 255
132.933550 -230.510801 -108.340684 0 120 255
130.467008 -230.421511 -108.494086 0 120 255
128.001599 -230.332389 -108.681377 0 120 255
125.536190 -230.243266 -108.868668 0 120 255
123.070781 -230.154144 -109.055959 0 120 255
120.624456 -230.066328 -109.405496 0 120 255
118.183041 -229.978849 -109.796780 0 120 255
115.741626 -229.891369 -110.188064 0 120 255
113.300211 -229.803889 -110.579347 0 120 255
110.889142 -229.718067 -111.120614 0 120 255
108.488018 -229.632787 -111.711032 0 120 255
106.086894 -229.547508 -112.301449 0 120 255
103.685770 -229.462229 -112.891866 0 120 255
101.324558 -229.378911 -113.620294 0 120 255
98.979566 -229.296390 -114.404810 0 120 255
96.634574 -229.213869 -115.189327 0 120 255
94.289582 -229.131348 -115.973843 0 120 255
91.992590 -229.051041 -116.884667 0 120 255
89.719354 -228.971829 -117.858006 0 120 255
87.446119 -228.892616 -118.831344 0 120 255
85.172883 -228.813404 -119.804683 0 120 255
82.954405 -228.736611 -120.892838 0 120 255
80.768521 -228.661258 -122.049340 0 120 255
78.582637 -228.585905 -123.205841 0 120 255
76.396753 -228.510552 -124.362342 0 120 255
74.271131 -228.437784 -125.622309 0 120 255
72.188286 -228.366850 -126.955722 0 120 255
70.105441 -228.295916 -128.289134 0 120 255
68.022597 -228.224982 -129.622547 0 120 255
66.004217 -228.156741 -131.048065 0 120 255
64.040116 -228.090767 -132.551134 0 120 255
62.076015 -228.024794 -134.054203 0 120 255
60.111914 -227.958820 -135.557272 0 120 255
58.215021 -227.895595 -137.140964 0 120 255
56.385069 -227.835107 -138.804959 0 120 255
54.555117 -227.774620 -140.468954 0 120 255
52.725165 -227.714132 -142.132950 0 120 255
50.963589 -227.656396 -143.866050 0 120 255
49.282553 -227.601901 -145.680550 0 120 255
47.601517 -227.547405 -147.495050 0 120 255
45.920480 -227.492910 -149.309549 0 120 255
44.307327 -227.441106 -151.181773 0 120 255
42.788942 -227.393058 -153.134581 0 120 255
41.270557 -227.345011 -155.087390 0 120 255
39.752172 -227.296963 -157.040198 0 120 255
38.299513 -227.251484 -159.039736 0 120 255
36.956124 -227.210275 -161.116963 0 120 255
35.612735 -227.169067 -163.194189 0 120 255
34.269346 -227.127858 -165.271416 0 120 255
32.987911 -227.089037 -167.385030 0 120 255
31.830104 -227.054980 -169.571257 0 120 255
30.672297 -227.020923 -171.757483 0 120 255
29.514491 -226.986867 -173.943710 0 120 255
28.413392 -226.954972 -176.156911 0 120 255
27.449726 -226.928314 -178.435485 0 120 255
26.486061 -226.901656 -180.714059 0 120 255
25.522395 -226.874998 -182.992633 0 120 255
24.608959 -226.850241 -185.289951 0 120 255
23.845916 -226.831175 -187.643387 0 120 255
23.082873 -226.812109 -189.996824 0 120 255
22.319829 -226.793044 -192.350260 0 120 255
21.599584 -226.775581 -194.715575 0 120 255
21.041644 -226.764196 -197.125935 0 120 255
20.483705 -226.752812 -199.536295 0 120 255
19.925765 -226.741428 -201.946655 0 120 255
19.402562 -226.731335 -204.363509 0 120 255
19.052649 -226.727686 -206.812756 0 120 255
18.702737 -226.724038 -209.262003 0 120 255
18.352825 -226.720389 -211.711249 0 120 255
18.029173 -226.717706 -214.163113 0 120 255
17.888803 -226.721763 -216.633243 0 120 255
17.748434 -226.725820 -219.103373 0 120 255
17.608064 -226.729877 -221.573504 0 120 255
17.485244 -226.734574 -224.043884 0 120 255
17.554612 -226.746285 -226.517002 0 120 255
17.623980 -226.757996 -228.990120 0 120 255
17.693349 -226.769706 -231.463238 0 120 255
17.771488 -226.781734 -233.935736 0 120 255
18.049496 -226.800993 -236.394110 0 120 255
18.327503 -226.820251 -238.852484 0 120 255
18.605510 -226.839509 -241.310859 0 120 255
18.883609 -226.858771 -243.769218 0 120 255
19.367898 -226.885426 -246.195330 0 120 255
19.852187 -226.912082 -248.621441 0 120 255
20.336476 -226.938737 -251.047552 0 120 255
20.820765 -226.965392 -253.473664 0 120 255
21.499393 -226.998949 -255.852294 0 120 255
22.186356 -227.032802 -258.228888 0 120 255
22.873319 -227.066655 -260.605481 0 120 255
23.560283 -227.100508 -262.982075 0 120 255
24.428603 -227.140750 -265.297752 0 120 255
25.313267 -227.181567 -267.607940 0 120 255
26.197931 -227.222385 -269.918127 0 120 255
27.082595 -227.263203 -272.228314 0 120 255
28.134701 -227.309849 -274.466044 0 120 255
29.210550 -227.357323 -276.693500 0 120 255
30.286399 -227.404796 -278.920955 0 120 255
31.362248 -227.452269 -281.148410 0 120 255
32.590790 -227.505009 -283.293916 0 120 255
33.849657 -227.558793 -285.423147 0 120 255
35.108524 -227.612578 -287.552377 0 120 255
36.367391 -227.666363 -289.681608 0 120 255
37.763497 -227.724803 -291.721640 0 120 255
39.195469 -227.784460 -293.738359 0 120 255
40.627442 -227.844116 -295.755079 0 120 255
42.059414 -227.903773 -297.771799 0 120 255
43.612618 -227.967503 -299.694548 0 120 255
45.205950 -228.032582 -301.586194 0 120 255
46.799281 -228.097661 -303.477839 0 120 255
48.392612 -228.162740 -305.369485 0 120 255
50.091137 -228.231300 -307.164827 0 120 255
51.832667 -228.301283 -308.920799 0 120 255
53.574198 -228.371266 -310.676770 0 120 255
55.315729 -228.441249 -312.432742 0 120 255
57.146650 -228.514137 -314.092597 0 120 255
59.021943 -228.588468 -315.704743 0 120 255
60.897235 -228.662798 -317.316889 0 120 255
62.772528 -228.737128 -318.929035 0 120 255
64.722141 -228.813866 -320.447543 0 120 255
66.716022 -228.892036 -321.910277 0 120 255
68.709903 -228.970207 -323.373011 0 120 255
70.703784 -229.048377 -324.835745 0 120 255
72.757992 -229.128452 -326.209377 0 120 255
74.854978 -229.209877 -327.519828 0 120 255
76.951965 -229.291302 -328.830278 0 120 255
79.048951 -229.372727 -330.140729 0 120 255
81.193479 -229.454549 -331.368719 0 120 255
83.377944 -229.536706 -332.527434 0 120 255
85.562410 -229.618862 -333.686150 0 120 255
87.746875 -229.701018 -334.844866 0 120 255
89.967127 -229.777733 -335.930824 0 120 255
92.222909 -229.849045 -336.944541 0 120 255
94.478692 -229.920356 -337.958257 0 120 255
96.734475 -229.991668 -338.971974 0 120 255
99.016349 -230.052719 -339.923341 0 120 255
101.328846 -230.101728 -340.801531 0 120 255
103.641343 -230.150737 -341.679722 0 120 255
105.953840 -230.199747 -342.557912 0 120 255
108.284767 -230.236044 -343.383887 0 120 255
110.641324 -230.254663 -344.137250 0 120 255
112.997881 -230.273282 -344.890614 0 120 255
115.354437 -230.291901 -345.643977 0 120 255
117.723472 -230.296807 -346.354861 0 120 255
120.113169 -230.279006 -346.995404 0 120 255
122.502865 -230.261204 -347.635947 0 120 255
124.892562 -230.243403 -348.276491 0 120 255
127.290256 -230.212061 -348.883642 0 120 255
129.703847 -230.153811 -349.424427 0 120 255
132.117438 -230.095560 -349.965212 0 120 255
134.531029 -230.037310 -350.505998 0 120 255
136.949384 -229.966603 -351.021614 0 120 255
139.379243 -229.865828 -351.476471 0 120 255
141.809101 -229.765054 -351.931329 0 120 255
144.238959 -229.664279 -352.386186 0 120 255
146.671373 -229.552784 -352.823070 0 120 255
149.111410 -229.409310 -353.206342 0 120 255
151.551447 -229.265836 -353.589614 0 120 255
153.991484 -229.122362 -353.972886 0 120 255
156.432672 -228.970309 -354.344271 0 120 255
158.878210 -228.785831 -354.670726 0 120 255
161.323749 -228.601352 -354.997180 0 120 255
163.769287 -228.416873 -355.323635 0 120 255
166.215145 -228.226274 -355.643490 0 120 255
168.662596 -228.005221 -355.930510 0 120 255
171.110047 -227.784168 -356.217531 0 120 255
173.557499 -227.563114 -356.504551 0 120 255
176.004906 -227.340759 -356.790911 0 120 255
178.452010 -227.109332 -357.072670 0 120 255
180.899113 -226.877905 -357.354429 0 120 255
183.346217 -226.646478 -357.636188 0 120 255
185.793320 -226.415050 -357.917948 0 120 255
188.240421 -226.183611 -358.199720 0 120 255
190.687522 -225.952173 -358.481491 0 120 255
193.134623 -225.720735 -358.763263 0 120 255
195.581724 -225.489297 -359.045034 0 120 255
198.028826 -225.257863 -359.326798 0 120 255
200.475929 -225.026429 -359.608563 0 120 255
202.923031 -224.794994 -359.890327 0 120 255
205.370133 -224.563560 -360.172091 0 120 255
