ply
format ascii 1.0
element vertex 385
property float x
property float y
property float z
property uchar red
property uchar green
property uchar blue
end_header
77.430455 -42.474882 -360.397637 0 120 255
77.187528 -42.528717 -357.935679 0 120 255
76.944600 -42.582552 -355.473721 0 120 255
76.701672 -42.636387 -353.011763 0 120 255
76.458744 -42.690222 -350.549805 0 120 255
76.221280 -42.755108 -348.087582 0 120 255
75.984050 -42.820470 -345.625347 0 120 255
75.746821 -42.885832 -343.163113 0 120 255
75.509591 -42.951194 -340.700878 0 120 255
75.418375 -43.279333 -338.251603 0 120 255
75.340390 -43.631285 -335.803502 0 120 255
75.262405 -43.983237 -333.355401 0 120 255
75.184420 -44.335189 -330.907301 0 120 255
75.230616 -44.893282 -328.498822 0 120 255
75.295138 -45.481796 -326.096191 0 120 255
75.359660 -46.070310 -323.693560 0 120 255
75.424183 -46.658825 -321.290928 0 120 255
75.595515 -47.412884 -318.942228 0 120 255
75.789364 -48.201843 -316.604897 0 120 255
75.983213 -48.990802 -314.267566 0 120 255
76.177063 -49.779761 -311.930236 0 120 255
76.460923 -50.699546 -309.652413 0 120 255
76.770108 -51.656138 -307.391332 0 120 255
77.079293 -52.612730 -305.130252 0 120 255
77.388478 -53.569322 -302.869171 0 120 255
77.772251 -54.627852 -300.667270 0 120 255
78.182903 -55.723115 -298.486693 0 120 255
78.593554 -56.818378 -296.306117 0 120 255
79.004205 -57.913641 -294.125540 0 120 255
79.475760 -59.087290 -292.000090 0 120 255
79.974689 -60.296171 -289.899417 0 120 255
80.473618 -61.505052 -287.798745 0 120 255
80.972547 -62.713933 -285.698072 0 120 255
81.520487 -63.982284 -283.646339 0 120 255
82.095421 -65.283388 -281.621561 0 120 255
82.670354 -66.584493 -279.596783 0 120 255
83.245287 -67.885597 -277.572004 0 120 255
83.859059 -69.231141 -275.588961 0 120 255
84.498731 -70.606322 -273.633751 0 120 255
85.138403 -71.981502 -271.678541 0 120 255
85.778076 -73.356683 -269.723330 0 120 255
86.447964 -74.764494 -267.802409 0 120 255
87.142067 -76.198456 -265.908967 0 120 255
87.836171 -77.632417 -264.015524 0 120 255
88.530274 -79.066379 -262.122082 0 120 255
89.247335 -80.523751 -260.255721 0 120 255
89.986412 -82.003575 -258.415330 0 120 255
90.725488 -83.483398 -256.574940 0 120 255
91.464565 -84.963221 -254.734549 0 120 255
92.220520 -86.459323 -252.914589 0 120 255
92.995820 -87.974081 -251.118046 0 120 255
93.771120 -89.488839 -249.321503 0 120 255
94.546420 -91.003597 -247.524960 0 120 255
95.333527 -92.529171 -245.742941 0 120 255
96.136833 -94.069586 -243.980848 0 120 255
96.940140 -95.610002 -242.218756 0 120 255
97.743446 -97.150417 -240.456664 0 120 255
98.554357 -98.697516 -238.704026 0 120 255
99.377816 -100.255646 -236.966990 0 120 255
100.201276 -101.813776 -235.229954 0 120 255
101.024735 -103.371906 -233.492918 0 120 255
101.852359 -104.933648 -231.761146 0 120 255
102.688316 -106.502616 -230.039907 0 120 255
103.524273 -108.071585 -228.318668 0 120 255
104.360230 -109.640553 -226.597429 0 120 255
105.197595 -111.210915 -224.878152 0 120 255
106.038420 -112.784702 -223.163696 0 120 255
106.879244 -114.358488 -221.449240 0 120 255
107.720069 -115.932275 -219.734784 0 120 255
108.560181 -117.505930 -218.019860 0 120 255
109.398106 -119.079181 -216.303494 0 120 255
110.236031 -120.652432 -214.587127 0 120 255
111.073956 -122.225682 -212.870761 0 120 255
111.909671 -123.797845 -211.152334 0 120 255
112.736645 -125.365703 -209.425752 0 120 255
113.563618 -126.933561 -207.699170 0 120 255
114.390591 -128.501418 -205.972587 0 120 255
115.214490 -130.067714 -204.243150 0 120 255
116.022023 -131.625696 -202.498521 0 120 255
116.829555 -133.183678 -200.753891 0 120 255
117.637088 -134.741660 -199.009262 0 120 255
118.441351 -136.298021 -197.261726 0 120 255
119.220399 -137.841886 -195.491779 0 120 255
119.999446 -139.385751 -193.721831 0 120 255
120.778494 -140.929616 -191.951883 0 120 255
121.554807 -142.472179 -190.179652 0 120 255
122.295627 -143.997830 -188.377786 0 120 255
123.036447 -145.523482 -186.575919 0 120 255
123.777266 -147.049133 -184.774053 0 120 255
124.516698 -148.574150 -182.971113 0 120 255
125.208747 -150.077519 -181.131520 0 120 255
125.900795 -151.580887 -179.291927 0 120 255
126.592844 -153.084255 -177.452334 0 120 255
127.284893 -154.587623 -175.612741 0 120 255
127.917632 -156.064981 -173.731222 0 120 255
128.549502 -157.541959 -171.849088 0 120 255
129.181373 -159.018936 -169.966955 0 120 255
129.813243 -160.495913 -168.084821 0 120 255
130.376725 -161.944008 -166.159150 0 120 255
130.936060 -163.390352 -164.230839 0 120 255
131.495395 -164.836695 -162.302528 0 120 255
132.054731 -166.283039 -160.374217 0 120 255
132.536779 -167.697794 -158.402348 0 120 255
133.010271 -169.109051 -156.425657 0 120 255
133.483763 -170.520308 -154.448966 0 120 255
133.957255 -171.931565 -152.472275 0 120 255
134.344875 -173.308671 -150.453668 0 120 255
134.718281 -174.680125 -148.428123 0 120 255
135.091688 -176.051578 -146.402578 0 120 255
135.465095 -177.423032 -144.377034 0 120 255
135.744569 -178.757896 -142.312923 0 120 255
136.002842 -180.084501 -140.240108 0 120 255
136.261114 -181.411106 -138.167293 0 120 255
136.519387 -182.737711 -136.094477 0 120 255
136.676393 -184.025437 -133.988178 0 120 255
136.803823 -185.301807 -131.872099 0 120 255
136.931253 -186.578177 -129.756020 0 120 255
137.058683 -187.854547 -127.639941 0 120 255
137.078522 -189.089923 -125.497164 0 120 255
137.059025 -190.310312 -123.344626 0 120 255
137.039529 -191.530700 -121.192087 0 120 255
137.020032 -192.751089 -119.039549 0 120 255
136.887951 -193.928611 -116.868720 0 120 255
136.705488 -195.086951 -114.689705 0 120 255
136.523024 -196.245290 -112.510690 0 120 255
136.340561 -197.403630 -110.331675 0 120 255
136.042162 -198.517561 -108.144231 0 120 255
135.681240 -199.607543 -105.952240 0 120 255
135.320318 -200.697525 -103.760249 0 120 255
134.959396 -201.787506 -101.568258 0 120 255
134.481145 -202.831961 -99.378885 0 120 255
133.927473 -203.847150 -97.191195 0 120 255
133.373800 -204.862339 -95.003505 0 120 255
132.820128 -205.877527 -92.815815 0 120 255
132.149995 -206.846628 -90.642609 0 120 255
131.391299 -207.780681 -88.480417 0 120 255
130.632602 -208.714733 -86.318225 0 120 255
129.873905 -209.648786 -84.156033 0 120 255
129.002073 -210.536859 -82.020525 0 120 255
128.028944 -211.383764 -79.908909 0 120 255
127.055815 -212.230669 -77.797294 0 120 255
126.082685 -213.077574 -75.685678 0 120 255
125.002334 -213.879394 -73.612690 0 120 255
123.809229 -214.633802 -71.580323 0 120 255
122.616123 -215.388210 -69.547956 0 120 255
121.423018 -216.142619 -67.515588 0 120 255
120.131147 -216.853711 -65.532873 0 120 255
118.717322 -217.511319 -63.611467 0 120 255
117.303497 -218.168927 -61.690061 0 120 255
115.889673 -218.826535 -59.768655 0 120 255
114.387866 -219.443510 -57.906303 0 120 255
112.758254 -220.001463 -56.129732 0 120 255
111.128641 -220.559415 -54.353162 0 120 255
109.499029 -221.117367 -52.576591 0 120 255
107.794122 -221.638272 -50.866182 0 120 255
105.959995 -222.095598 -49.269315 0 120 255
104.125869 -222.552923 -47.672448 0 120 255
102.291743 -223.010249 -46.075582 0 120 255
100.396301 -223.434916 -44.549103 0 120 255
98.375669 -223.792903 -43.166338 0 120 255
96.355036 -224.150891 -41.783573 0 120 255
94.334404 -224.508878 -40.400808 0 120 255
92.266941 -224.839221 -39.089369 0 120 255
90.084523 -225.101707 -37.953015 0 120 255
87.902104 -225.364192 -36.816662 0 120 255
85.719685 -225.626678 -35.680309 0 120 255
83.504539 -225.866920 -34.612747 0 120 255
81.191327 -226.040512 -33.751314 0 120 255
78.878115 -226.214103 -32.889882 0 120 255
76.564903 -226.387695 -32.028449 0 120 255
74.231759 -226.544505 -31.229907 0 120 255
71.824085 -226.638565 -30.666519 0 120 255
69.416410 -226.732625 -30.103131 0 120 255
67.008736 -226.826685 -29.539743 0 120 255
64.591765 -226.909152 -29.030359 0 120 255
62.129966 -226.935717 -28.781379 0 120 255
59.668168 -226.962282 -28.532400 0 120 255
57.206369 -226.988847 -28.283420 0 120 255
54.743054 -227.008371 -28.077230 0 120 255
52.269807 -226.981776 -28.151318 0 120 255
49.796559 -226.955181 -28.225406 0 120 255
47.323312 -226.928587 -28.299494 0 120 255
44.853015 -226.898561 -28.403674 0 120 255
42.411491 -226.835079 -28.801264 0 120 255
39.969967 -226.771598 -29.198855 0 120 255
37.528443 -226.708116 -29.596446 0 120 255
35.090857 -226.643751 -30.010961 0 120 255
32.723020 -226.563747 -30.725171 0 120 255
30.355183 -226.483743 -31.439382 0 120 255
27.987346 -226.403738 -32.153592 0 120 255
25.621042 -226.323750 -32.871901 0 120 255
23.365976 -226.244914 -33.887584 0 120 255
21.110910 -226.166078 -34.903266 0 120 255
18.855844 -226.087242 -35.918948 0 120 255
16.600778 -226.008406 -36.934631 0 120 255
14.488013 -225.935282 -38.219726 0 120 255
12.379168 -225.862315 -39.512241 0 120 255
10.270322 -225.789348 -40.804756 0 120 255
8.161476 -225.716381 -42.097271 0 120 255
6.214196 -225.650748 -43.620813 0 120 255
4.278619 -225.585646 -45.161090 0 120 255
2.343042 -225.520543 -46.701366 0 120 255
0.407465 -225.455441 -48.241643 0 120 255
-1.355008 -225.397667 -49.975222 0 120 255
-3.096397 -225.340785 -51.732344 0 120 255
-4.837786 -225.283904 -53.489466 0 120 255
-6.579175 -225.227022 -55.246588 0 120 255
-8.142742 -225.177271 -57.161262 0 120 255
-9.674983 -225.128776 -59.103692 0 120 255
-11.207225 -225.080281 -61.046122 0 120 255
-12.739466 -225.031786 -62.988552 0 120 255
-14.095293 -224.990205 -65.055464 0 120 255
-15.409430 -224.950259 -67.151793 0 120 255
-16.723567 -224.910312 -69.248123 0 120 255
-18.037704 -224.870366 -71.344453 0 120 255
-19.181624 -224.836966 -73.535786 0 120 255
-20.273931 -224.805551 -75.755928 0 120 255
-21.366239 -224.774136 -77.976069 0 120 255
-22.458546 -224.742722 -80.196210 0 120 255
-23.390467 -224.717401 -82.485853 0 120 255
-24.261758 -224.694384 -84.801770 0 120 255
-25.133049 -224.671368 -87.117687 0 120 255
-26.004340 -224.648351 -89.433605 0 120 255
-26.727655 -224.630885 -91.797596 0 120 255
-27.382572 -224.615984 -94.183808 0 120 255
-28.037490 -224.601083 -96.570021 0 120 255
-28.692407 -224.586182 -98.956233 0 120 255
-29.213185 -224.576286 -101.373105 0 120 255
-29.659162 -224.569179 -103.807074 0 120 255
-30.105138 -224.562073 -106.241043 0 120 255
-30.551114 -224.554967 -108.675011 0 120 255
-30.877485 -224.552269 -111.125906 0 120 255
-31.124124 -224.552509 -113.588083 0 120 255
-31.370764 -224.552748 -116.050261 0 120 255
-31.617403 -224.552988 -118.512438 0 120 255
-31.758971 -224.557069 -120.981102 0 120 255
-31.817293 -224.564192 -123.454904 0 120 255
-31.875615 -224.571315 -125.928706 0 120 255
-31.933937 -224.578438 -128.402508 0 120 255
-31.901257 -224.588863 -130.875196 0 120 255
-31.783156 -224.602388 -133.346839 0 120 255
-31.665056 -224.615913 -135.818482 0 120 255
-31.546955 -224.629439 -138.290125 0 120 255
-31.351069 -224.645754 -140.755431 0 120 255
-31.068731 -224.665170 -143.213694 0 120 255
-30.786394 -224.684585 -145.671957 0 120 255
-30.504056 -224.704001 -148.130220 0 120 255
-30.156081 -224.725773 -150.578848 0 120 255
-29.721578 -224.750650 -153.014775 0 120 255
-29.287076 -224.775528 -155.450701 0 120 255
-28.852573 -224.800406 -157.886628 0 120 255
-28.363434 -224.827232 -160.311143 0 120 255
-27.788505 -224.857117 -162.717741 0 120 255
-27.213576 -224.887003 -165.124338 0 120 255
-26.638646 -224.916889 -167.530936 0 120 255
-26.018901 -224.948363 -169.925516 0 120 255
-25.314727 -224.982829 -172.297456 0 120 255
-24.610554 -225.017295 -174.669397 0 120 255
-23.906380 -225.051762 -177.041337 0 120 255
-23.166055 -225.087502 -179.401524 0 120 255
-22.343123 -225.126153 -181.734856 0 120 255
-21.520190 -225.164803 -184.068188 0 120 255
-20.697258 -225.203453 -186.401520 0 120 255
-19.845745 -225.243107 -188.723990 0 120 255
-18.913748 -225.285585 -191.015873 0 120 255
-17.981752 -225.328063 -193.307756 0 120 255
-17.049755 -225.370541 -195.599639 0 120 255
-16.095745 -225.413785 -197.881983 0 120 255
-15.063542 -225.459746 -200.130448 0 120 255
-14.031339 -225.505706 -202.378913 0 120 255
-12.999136 -225.551667 -204.627378 0 120 255
-11.950586 -225.598193 -206.867912 0 120 255
-10.826182 -225.647340 -209.071647 0 120 255
-9.701778 -225.696488 -211.275383 0 120 255
-8.577375 -225.745635 -213.479118 0 120 255
-7.441498 -225.795179 -215.676705 0 120 255
-6.232049 -225.847271 -217.834869 0 120 255
-5.022600 -225.899362 -219.993032 0 120 255
-3.813151 -225.951454 -222.151195 0 120 255
-2.596421 -226.003795 -224.305094 0 120 255
-1.308265 -226.058579 -226.417155 0 120 255
-0.020108 -226.113364 -228.529215 0 120 255
1.268048 -226.168149 -230.641276 0 120 255
2.559869 -226.223058 -232.751010 0 120 255
3.921173 -226.280325 -234.816614 0 120 255
5.282477 -226.337591 -236.882219 0 120 255
6.643781 -226.394858 -238.947823 0 120 255
8.005609 -226.452142 -241.013068 0 120 255
9.435290 -226.511738 -243.031882 0 120 255
10.864970 -226.571333 -245.050697 0 120 255
12.294650 -226.630928 -247.069512 0 120 255
13.724330 -226.690524 -249.088326 0 120 255
15.216082 -226.752209 -251.061599 0 120 255
16.710068 -226.813968 -253.033233 0 120 255
18.204055 -226.875728 -255.004867 0 120 255
19.698041 -226.937488 -256.976500 0 120 255
21.248237 -227.001132 -258.904081 0 120 255
22.803132 -227.064934 -260.827977 0 120 255
24.358028 -227.128736 -262.751873 0 120 255
25.912924 -227.192538 -264.675770 0 120 255
27.518947 -227.258039 -266.556978 0 120 255
29.131915 -227.323769 -268.432389 0 120 255
30.744882 -227.389500 -270.307799 0 120 255
32.357849 -227.455230 -272.183210 0 120 255
34.017572 -227.522511 -274.017109 0 120 255
35.686333 -227.590091 -275.842984 0 120 255
37.355094 -227.657670 -277.668859 0 120 255
39.023855 -227.725250 -279.494733 0 120 255
40.735603 -227.794237 -281.280066 0 120 255
42.458395 -227.863585 -283.054982 0 120 255
44.181187 -227.932933 -284.829899 0 120 255
45.903978 -228.002282 -286.604816 0 120 255
47.666474 -228.072957 -288.339960 0 120 255
49.441980 -228.144067 -290.062073 0 120 255
51.217485 -228.215177 -291.784186 0 120 255
52.992990 -228.286287 -293.506299 0 120 255
54.805289 -228.358600 -295.189248 0 120 255
56.632555 -228.431402 -296.856266 0 120 255
58.459821 -228.504205 -298.523284 0 120 255
60.287087 -228.577008 -300.190301 0 120 255
62.148530 -228.650956 -301.818610 0 120 255
64.026924 -228.725473 -303.427718 0 120 255
65.905318 -228.799990 -305.036827 0 120 255
67.783712 -228.874507 -306.645936 0 120 255
69.693890 -228.950026 -308.216664 0 120 255
71.623048 -229.026143 -309.764470 0 120 255
73.552206 -229.102260 -311.312276 0 120 255
75.481365 -229.178377 -312.860082 0 120 255
77.440234 -229.254710 -314.369544 0 120 255
79.420287 -229.331198 -315.851668 0 120 255
81.400339 -229.407687 -317.333791 0 120 255
83.380391 -229.484175 -318.815915 0 120 255
85.388678 -229.558153 -320.258999 0 120 255
87.420870 -229.630006 -321.669028 0 120 255
89.453062 -229.701859 -323.079057 0 120 255
91.485255 -229.773712 -324.489085 0 120 255
93.544463 -229.838932 -325.858812 0 120 255
95.630762 -229.897501 -327.188126 0 120 255
97.717060 -229.956071 -328.517441 0 120 255
99.803359 -230.014640 -329.846755 0 120 255
101.914878 -230.063637 -331.134917 0 120 255
104.056335 -230.101272 -332.374230 0 120 255
106.197791 -230.138907 -333.613543 0 120 255
108.339248 -230.176541 -334.852856 0 120 255
110.503547 -230.203038 -336.050741 0 120 255
112.700015 -230.213848 -337.190285 0 120 255
114.896483 -230.224659 -338.329828 0 120 255
117.092952 -230.235469 -339.469372 0 120 255
119.309479 -230.234391 -340.567732 0 120 255
121.559683 -230.213354 -341.596950 0 120 255
123.809887 -230.192317 -342.626167 0 120 255
126.060091 -230.171280 -343.655384 0 120 255
128.327242 -230.138327 -344.644295 0 120 255
130.628582 -230.081335 -345.551894 0 120 255
132.929922 -230.024343 -346.459494 0 120 255
135.231261 -229.967351 -347.367093 0 120 255
137.546222 -229.899049 -348.235999 0 120 255
139.894594 -229.803007 -349.009998 0 120 255
142.242966 -229.706965 -349.783997 0 120 255
144.591338 -229.610924 -350.557996 0 120 255
146.949929 -229.504698 -351.295762 0 120 255
149.339525 -229.367575 -351.923597 0 120 255
151.729121 -229.230452 -352.551433 0 120 255
154.118717 -229.093329 -353.179269 0 120 255
156.515222 -228.947549 -353.774284 0 120 255
158.938316 -228.768451 -354.242995 0 120 255
161.361410 -228.589353 -354.711706 0 120 255
163.784503 -228.410256 -355.180417 0 120 255
166.211567 -228.224346 -355.620169 0 120 255
168.658761 -228.003897 -355.913067 0 120 255
171.105956 -227.783447 -356.205965 0 120 255
173.553151 -227.562998 -356.498863 0 120 255
176.000381 -227.341187 -356.790389 0 120 255
178.447862 -227.109724 -357.072192 0 120 255
180.895342 -226.878261 -357.353995 0 120 255
183.342823 -226.646799 -357.635797 0 120 255
185.790303 -226.415335 -357.917601 0 120 255
188.237781 -226.183861 -358.199416 0 120 255
190.685259 -225.952387 -358.481231 0 120 255
193.132738 -225.720913 -358.763046 0 120 255
195.580216 -225.489440 -359.044861 0 120 255
198.027695 -225.257970 -359.326668 0 120 255
200.475174 -225.026500 -359.608476 0 120 255
202.922654 -224.795030 -359.890283 0 120 255
205.370133 -224.563560 -360.172091 0 120 255
