ply
format ascii 1.0
element vertex 385
property float x
property float y
property float z
property uchar red
property uchar green
property uchar blue
end_header
77.430455 -42.474882 -360.397637 0 120 255
77.187535 -42.528715 -357.935758 0 120 255
76.944615 -42.582548 -355.473880 0 120 255
76.701696 -42.636382 -353.012002 0 120 255
76.458776 -42.690215 -350.550124 0 120 255
76.214208 -42.756475 -348.088713 0 120 255
75.969570 -42.823270 -345.627323 0 120 255
75.724932 -42.890066 -343.165932 0 120 255
75.480293 -42.956862 -340.704542 0 120 255
75.153869 -43.172008 -338.261744 0 120 255
74.819978 -43.400697 -335.820644 0 120 255
74.486087 -43.629385 -333.379544 0 120 255
74.152196 -43.858074 -330.938443 0 120 255
73.747830 -44.203056 -328.522370 0 120 255
73.333070 -44.565191 -326.109989 0 120 255
72.918310 -44.927325 -323.697607 0 120 255
72.503550 -45.289460 -321.285225 0 120 255
72.026362 -45.750180 -318.902004 0 120 255
71.536075 -46.231586 -316.524901 0 120 255
71.045789 -46.712992 -314.147797 0 120 255
70.555502 -47.194397 -311.770694 0 120 255
70.009464 -47.758728 -309.424833 0 120 255
69.447855 -48.346219 -307.087698 0 120 255
68.886246 -48.933711 -304.750562 0 120 255
68.324636 -49.521202 -302.413427 0 120 255
67.712820 -50.177932 -300.108180 0 120 255
67.083071 -50.859393 -297.814323 0 120 255
66.453322 -51.540854 -295.520466 0 120 255
65.823573 -52.222315 -293.226610 0 120 255
65.148221 -52.961182 -290.964334 0 120 255
64.452572 -53.725600 -288.716114 0 120 255
63.756923 -54.490017 -286.467895 0 120 255
63.061273 -55.254435 -284.219676 0 120 255
62.323902 -56.066111 -282.002124 0 120 255
61.563786 -56.903549 -279.801288 0 120 255
60.803671 -57.740987 -277.600453 0 120 255
60.043556 -58.578424 -275.399618 0 120 255
59.245044 -59.454479 -273.228182 0 120 255
58.421195 -60.356013 -271.076146 0 120 255
57.597346 -61.257548 -268.924109 0 120 255
56.773498 -62.159082 -266.772073 0 120 255
55.914186 -63.091914 -264.647981 0 120 255
55.026762 -64.049555 -262.546040 0 120 255
54.139338 -65.007197 -260.444100 0 120 255
53.251914 -65.964838 -258.342159 0 120 255
52.331698 -66.947614 -256.266629 0 120 255
51.380381 -67.954230 -254.216148 0 120 255
50.429064 -68.960846 -252.165666 0 120 255
49.477748 -69.967462 -250.115185 0 120 255
48.496162 -70.994050 -248.089557 0 120 255
47.480269 -72.043274 -246.092098 0 120 255
46.464375 -73.092498 -244.094639 0 120 255
45.448482 -74.141722 -242.097180 0 120 255
44.404779 -75.206614 -240.123017 0 120 255
43.323343 -76.292761 -238.180458 0 120 255
42.241907 -77.378909 -236.237900 0 120 255
41.160471 -78.465056 -234.295342 0 120 255
40.053695 -79.563304 -232.374510 0 120 255
38.905574 -80.681295 -230.489128 0 120 255
37.757452 -81.799286 -228.603746 0 120 255
36.609330 -82.917277 -226.718364 0 120 255
35.438401 -84.044427 -224.853099 0 120 255
34.222352 -85.189698 -223.027631 0 120 255
33.006304 -86.334968 -221.202163 0 120 255
31.790255 -87.480239 -219.376695 0 120 255
30.554031 -88.632265 -217.569649 0 120 255
29.268805 -89.800701 -215.807349 0 120 255
27.983579 -90.969137 -214.045048 0 120 255
26.698353 -92.137573 -212.282747 0 120 255
25.395707 -93.310820 -210.537030 0 120 255
24.040132 -94.498683 -208.841697 0 120 255
22.684558 -95.686545 -207.146365 0 120 255
21.328983 -96.874408 -205.451032 0 120 255
19.958870 -98.065533 -203.770238 0 120 255
18.531940 -99.269408 -202.146258 0 120 255
17.105009 -100.473282 -200.522279 0 120 255
15.678079 -101.677156 -198.898300 0 120 255
14.239612 -102.883085 -197.286532 0 120 255
12.740570 -104.099807 -195.738884 0 120 255
11.241528 -105.316528 -194.191236 0 120 255
9.742486 -106.533249 -192.643588 0 120 255
8.235006 -107.751120 -191.105470 0 120 255
6.663438 -108.977723 -189.639737 0 120 255
5.091870 -110.204325 -188.174004 0 120 255
3.520302 -111.430927 -186.708271 0 120 255
1.943454 -112.658044 -185.248954 0 120 255
0.299403 -113.891704 -183.871300 0 120 255
-1.344648 -115.125364 -182.493645 0 120 255
-2.988699 -116.359024 -181.115991 0 120 255
-4.634870 -117.592811 -179.741133 0 120 255
-6.350833 -118.830802 -178.458322 0 120 255
-8.066795 -120.068793 -177.175510 0 120 255
-9.782757 -121.306784 -175.892699 0 120 255
-11.498719 -122.544775 -174.609888 0 120 255
-13.284385 -123.784386 -173.427811 0 120 255
-15.071021 -125.024020 -172.247136 0 120 255
-16.857657 -126.263653 -171.066462 0 120 255
-18.644293 -127.503287 -169.885787 0 120 255
-20.495701 -128.741935 -168.808804 0 120 255
-22.351007 -129.980523 -167.738062 0 120 255
-24.206314 -131.219112 -166.667320 0 120 255
-26.061620 -132.457701 -165.596578 0 120 255
-27.976153 -133.692890 -164.632222 0 120 255
-29.897242 -134.927703 -163.679644 0 120 255
-31.818332 -136.162516 -162.727066 0 120 255
-33.739421 -137.397329 -161.774488 0 120 255
-35.713598 -138.626485 -160.930617 0 120 255
-37.696590 -139.854702 -160.104798 0 120 255
-39.679582 -141.082919 -159.278978 0 120 255
-41.662574 -142.311136 -158.453158 0 120 255
-43.691934 -143.531583 -157.737837 0 120 255
-45.731816 -144.750268 -157.047590 0 120 255
-47.771699 -145.968953 -156.357343 0 120 255
-49.811581 -147.187638 -155.667097 0 120 255
-51.890599 -148.396570 -155.088501 0 120 255
-53.981132 -149.602632 -154.542754 0 120 255
-56.071665 -150.808694 -153.997007 0 120 255
-58.162197 -152.014756 -153.451260 0 120 255
-60.284190 -153.209221 -153.017546 0 120 255
-62.417789 -154.399408 -152.625167 0 120 255
-64.551389 -155.589595 -152.232788 0 120 255
-66.684988 -156.779781 -151.840409 0 120 255
-68.842041 -157.956659 -151.559560 0 120 255
-71.009706 -159.127516 -151.329178 0 120 255
-73.177371 -160.298372 -151.098797 0 120 255
-75.345036 -161.469228 -150.868415 0 120 255
-77.527939 -162.625229 -150.748052 0 120 255
-79.719168 -163.773113 -150.687805 0 120 255
-81.910398 -164.920997 -150.627557 0 120 255
-84.101627 -166.068881 -150.567310 0 120 255
-86.299829 -167.200559 -150.614499 0 120 255
-88.502583 -168.321657 -150.731821 0 120 255
-90.705337 -169.442756 -150.849143 0 120 255
-92.908092 -170.563854 -150.966465 0 120 255
-95.109699 -171.667605 -151.187489 0 120 255
-97.310417 -172.757924 -151.488810 0 120 255
-99.511136 -173.848243 -151.790131 0 120 255
-101.711855 -174.938562 -152.091452 0 120 255
-103.903645 -176.010660 -152.491587 0 120 255
-106.087271 -177.066098 -152.982076 0 120 255
-108.270897 -178.121536 -153.472565 0 120 255
-110.454524 -179.176974 -153.963054 0 120 255
-112.622016 -180.213610 -154.546305 0 120 255
-114.772120 -181.229981 -155.229528 0 120 255
-116.922224 -182.246352 -155.912751 0 120 255
-119.072329 -183.262723 -156.595974 0 120 255
-121.199891 -184.260047 -157.364838 0 120 255
-123.298813 -185.233168 -158.242514 0 120 255
-125.397734 -186.206289 -159.120190 0 120 255
-127.496656 -187.179411 -159.997866 0 120 255
-129.567663 -188.133612 -160.953085 0 120 255
-131.596746 -189.059396 -162.024765 0 120 255
-133.625830 -189.985180 -163.096445 0 120 255
-135.654913 -190.910964 -164.168125 0 120 255
-137.651961 -191.818344 -165.308461 0 120 255
-139.591843 -192.692882 -166.571312 0 120 255
-141.531725 -193.567419 -167.834163 0 120 255
-143.471607 -194.441957 -169.097014 0 120 255
-145.376771 -195.299017 -170.419069 0 120 255
-147.207724 -196.118717 -171.867674 0 120 255
-149.038677 -196.938417 -173.316279 0 120 255
-150.869631 -197.758116 -174.764883 0 120 255
-152.664776 -198.561664 -176.262942 0 120 255
-154.367123 -199.323351 -177.889164 0 120 255
-156.069471 -200.085039 -179.515386 0 120 255
-157.771818 -200.846726 -181.141608 0 120 255
-159.438959 -201.593970 -182.807545 0 120 255
-160.993524 -202.295028 -184.600475 0 120 255
-162.548088 -202.996086 -186.393405 0 120 255
-164.102653 -203.697144 -188.186336 0 120 255
-165.624324 -204.385804 -190.009599 0 120 255
-167.012860 -205.024281 -191.955639 0 120 255
-168.401395 -205.662758 -193.901678 0 120 255
-169.789931 -206.301235 -195.847717 0 120 255
-171.149570 -206.929637 -197.815396 0 120 255
-172.355293 -207.504377 -199.898341 0 120 255
-173.561015 -208.079117 -201.981286 0 120 255
-174.766737 -208.653857 -204.064231 0 120 255
-175.949118 -209.221039 -206.161152 0 120 255
-176.957091 -209.731753 -208.362496 0 120 255
-177.965064 -210.242467 -210.563839 0 120 255
-178.973037 -210.753180 -212.765183 0 120 255
-179.964594 -211.258951 -214.974165 0 120 255
-180.762176 -211.706316 -217.273400 0 120 255
-181.559759 -212.153680 -219.572634 0 120 255
-182.357341 -212.601044 -221.871869 0 120 255
-183.146546 -213.046065 -224.173985 0 120 255
-183.723700 -213.431746 -226.549042 0 120 255
-184.300853 -213.817428 -228.924099 0 120 255
-184.878007 -214.203109 -231.299156 0 120 255
-185.455161 -214.588790 -233.674213 0 120 255
-185.805176 -214.915598 -236.101829 0 120 255
-186.154724 -215.242285 -238.529553 0 120 255
-186.504272 -215.568971 -240.957277 0 120 255
-186.853820 -215.895658 -243.385002 0 120 255
-186.981380 -216.169363 -245.840452 0 120 255
-187.099168 -216.440736 -248.297124 0 120 255
-187.216955 -216.712109 -250.753796 0 120 255
-187.334742 -216.983482 -253.210467 0 120 255
-187.238825 -217.208366 -255.671907 0 120 255
-187.123729 -217.429077 -258.133774 0 120 255
-187.008633 -217.649789 -260.595642 0 120 255
-186.893537 -217.870500 -263.057509 0 120 255
-186.575768 -218.051616 -265.503522 0 120 255
-186.229672 -218.227197 -267.947318 0 120 255
-185.883576 -218.402777 -270.391115 0 120 255
-185.537480 -218.578358 -272.834911 0 120 255
-185.002000 -218.721466 -275.244916 0 120 255
-184.429639 -218.858250 -277.648340 0 120 255
-183.857278 -218.995034 -280.051763 0 120 255
-183.284917 -219.131818 -282.455187 0 120 255
-182.538145 -219.243288 -284.809781 0 120 255
-181.746812 -219.348290 -287.151899 0 120 255
-180.955478 -219.453292 -289.494018 0 120 255
-180.164144 -219.558294 -291.836136 0 120 255
-179.214574 -219.645015 -294.117398 0 120 255
-178.213903 -219.725834 -296.379008 0 120 255
-177.213233 -219.806652 -298.640618 0 120 255
-176.212562 -219.887470 -300.902228 0 120 255
-175.070481 -219.957315 -303.093932 0 120 255
-173.872079 -220.022789 -305.257794 0 120 255
-172.673676 -220.088263 -307.421655 0 120 255
-171.475274 -220.153737 -309.585517 0 120 255
-170.152127 -220.215967 -311.673058 0 120 255
-168.768720 -220.276629 -313.723730 0 120 255
-167.385312 -220.337292 -315.774402 0 120 255
-166.001904 -220.397954 -317.825074 0 120 255
-164.510397 -220.460372 -319.795808 0 120 255
-162.956295 -220.523808 -321.720255 0 120 255
-161.402193 -220.587244 -323.644702 0 120 255
-159.848091 -220.650679 -325.569149 0 120 255
-158.202477 -220.716753 -327.413086 0 120 255
-156.493849 -220.784643 -329.201586 0 120 255
-154.785221 -220.852533 -330.990087 0 120 255
-153.076593 -220.920423 -332.778588 0 120 255
-151.291813 -220.991090 -334.488122 0 120 255
-149.444990 -221.064019 -336.133320 0 120 255
-147.598167 -221.136947 -337.778519 0 120 255
-145.751344 -221.209876 -339.423717 0 120 255
-143.842544 -221.284973 -340.993570 0 120 255
-141.874128 -221.362156 -342.490946 0 120 255
-139.905712 -221.439339 -343.988321 0 120 255
-137.937296 -221.516523 -345.485697 0 120 255
-135.919517 -221.595318 -346.912839 0 120 255
-133.845669 -221.675944 -348.260210 0 120 255
-131.771822 -221.756571 -349.607581 0 120 255
-129.697974 -221.837198 -350.954952 0 120 255
-127.585716 -221.919011 -352.238278 0 120 255
-125.421825 -222.002420 -353.435513 0 120 255
-123.257934 -222.085830 -354.632748 0 120 255
-121.094043 -222.169239 -355.829983 0 120 255
-118.901029 -222.253500 -356.970054 0 120 255
-116.661463 -222.339122 -358.018750 0 120 255
-114.421897 -222.424745 -359.067446 0 120 255
-112.182330 -222.510368 -360.116143 0 120 255
-109.921358 -222.596583 -361.114985 0 120 255
-107.619387 -222.683932 -362.018340 0 120 255
-105.317415 -222.771281 -362.921694 0 120 255
-103.015444 -222.858631 -363.825049 0 120 255
-100.698308 -222.946374 -364.685995 0 120 255
-98.345972 -223.035032 -365.448496 0 120 255
-95.993636 -223.123690 -366.210996 0 120 255
-93.641300 -223.212348 -366.973497 0 120 255
-91.278705 -223.301248 -367.700944 0 120 255
-88.886771 -223.390839 -368.328142 0 120 255
-86.494837 -223.480430 -368.955340 0 120 255
-84.102903 -223.570022 -369.582538 0 120 255
-81.704435 -223.659745 -370.181770 0 120 255
-79.282394 -223.749948 -370.680097 0 120 255
-76.860352 -223.840150 -371.178424 0 120 255
-74.438310 -223.930352 -371.676751 0 120 255
-72.012444 -224.020612 -372.153795 0 120 255
-69.568529 -224.111145 -372.530408 0 120 255
-67.124614 -224.201678 -372.907021 0 120 255
-64.680700 -224.292210 -373.283634 0 120 255
-62.234813 -224.382758 -373.645121 0 120 255
-59.776038 -224.473401 -373.907720 0 120 255
-57.317262 -224.564044 -374.170320 0 120 255
-54.858487 -224.654688 -374.432919 0 120 255
-52.398896 -224.745325 -374.685943 0 120 255
-49.931105 -224.835900 -374.842648 0 120 255
-47.463314 -224.926475 -374.999353 0 120 255
-44.995523 -225.017050 -375.156058 0 120 255
-42.527526 -225.107615 -375.308070 0 120 255
-40.055467 -225.197976 -375.367311 0 120 255
-37.583408 -225.288338 -375.426553 0 120 255
-35.111348 -225.378699 -375.485794 0 120 255
-32.639286 -225.469059 -375.544516 0 120 255
-30.166682 -225.559099 -375.514939 0 120 255
-27.694078 -225.649139 -375.485362 0 120 255
-25.221474 -225.739179 -375.455784 0 120 255
-22.748870 -225.829220 -375.426207 0 120 255
-20.278424 -225.918895 -375.319514 0 120 255
-17.808060 -226.008557 -375.209900 0 120 255
-15.337696 -226.098218 -375.100285 0 120 255
-12.867332 -226.187880 -374.990671 0 120 255
-10.400808 -226.277151 -374.815532 0 120 255
-7.934613 -226.366389 -374.634781 0 120 255
-5.468418 -226.455627 -374.454031 0 120 255
-3.002223 -226.544865 -374.273281 0 120 255
-0.540715 -226.633723 -374.037867 0 120 255
1.920146 -226.722529 -373.794909 0 120 255
4.381007 -226.811334 -373.551951 0 120 255
6.841868 -226.900139 -373.308993 0 120 255
9.297858 -226.988596 -373.021507 0 120 255
11.752895 -227.076984 -372.725309 0 120 255
14.207932 -227.165372 -372.429111 0 120 255
16.662969 -227.253760 -372.132913 0 120 255
19.113458 -227.341849 -371.801592 0 120 255
21.562766 -227.429860 -371.461156 0 120 255
24.012074 -227.517872 -371.120720 0 120 255
26.461382 -227.605883 -370.780285 0 120 255
28.906828 -227.693639 -370.413393 0 120 255
31.350997 -227.781310 -370.037756 0 120 255
33.795166 -227.868981 -369.662119 0 120 255
36.239335 -227.956652 -369.286481 0 120 255
38.680562 -228.044106 -368.892309 0 120 255
41.120582 -228.131470 -368.490536 0 120 255
43.560602 -228.218834 -368.088763 0 120 255
46.000623 -228.306198 -367.686990 0 120 255
48.438749 -228.393362 -367.273920 0 120 255
50.875930 -228.480427 -366.855205 0 120 255
53.313111 -228.567492 -366.436490 0 120 255
55.750292 -228.654557 -366.017775 0 120 255
58.186660 -228.741259 -365.594303 0 120 255
60.622540 -228.827743 -365.167969 0 120 255
63.058421 -228.914227 -364.741635 0 120 255
65.494301 -229.000710 -364.315302 0 120 255
67.930461 -229.086071 -363.890348 0 120 255
70.366823 -229.170626 -363.466385 0 120 255
72.803185 -229.255182 -363.042422 0 120 255
75.239546 -229.339737 -362.618458 0 120 255
77.677420 -229.419485 -362.202419 0 120 255
80.116583 -229.495136 -361.793131 0 120 255
82.555745 -229.570788 -361.383844 0 120 255
84.994907 -229.646440 -360.974557 0 120 255
87.436498 -229.713964 -360.578867 0 120 255
89.880538 -229.773287 -360.196898 0 120 255
92.324578 -229.832610 -359.814930 0 120 255
94.768619 -229.891932 -359.432961 0 120 255
97.215500 -229.941534 -359.068878 0 120 255
99.665777 -229.979522 -358.726161 0 120 255
102.116053 -230.017511 -358.383445 0 120 255
104.566330 -230.055499 -358.040729 0 120 255
107.019458 -230.082761 -357.719237 0 120 255
109.476629 -230.094819 -357.427828 0 120 255
111.933800 -230.106877 -357.136419 0 120 255
114.390970 -230.118936 -356.845010 0 120 255
116.850619 -230.119777 -356.577211 0 120 255
119.314453 -230.101668 -356.349296 0 120 255
121.778288 -230.083559 -356.121382 0 120 255
124.242122 -230.065451 -355.893467 0 120 255
126.707724 -230.036110 -355.690581 0 120 255
129.176915 -229.983978 -355.538484 0 120 255
131.646105 -229.931846 -355.386387 0 120 255
134.115295 -229.879714 -355.234290 0 120 255
136.585288 -229.816769 -355.107624 0 120 255
139.057257 -229.727164 -355.043668 0 120 255
141.529226 -229.637560 -354.979712 0 120 255
144.001196 -229.547955 -354.915756 0 120 255
146.472859 -229.448348 -354.876625 0 120 255
148.943587 -229.318267 -354.913134 0 120 255
151.414315 -229.188186 -354.949643 0 120 255
153.885044 -229.058104 -354.986151 0 120 255
156.354356 -228.919169 -355.045846 0 120 255
158.818203 -228.746070 -355.194995 0 120 255
161.282050 -228.572970 -355.344145 0 120 255
163.745898 -228.399871 -355.493295 0 120 255
166.207227 -228.219187 -355.664258 0 120 255
168.655789 -228.000046 -355.945811 0 120 255
171.104351 -227.780905 -356.227364 0 120 255
173.552914 -227.561765 -356.508916 0 120 255
176.001332 -227.341097 -356.790499 0 120 255
178.448734 -227.109642 -357.072292 0 120 255
180.896135 -226.878186 -357.354086 0 120 255
183.343536 -226.646731 -357.635879 0 120 255
185.790937 -226.415275 -357.917674 0 120 255
188.238336 -226.183809 -358.199480 0 120 255
190.685735 -225.952342 -358.481286 0 120 255
193.133134 -225.720876 -358.763092 0 120 255
195.580533 -225.489410 -359.044897 0 120 255
198.027933 -225.257947 -359.326696 0 120 255
200.475333 -225.026485 -359.608494 0 120 255
202.922733 -224.795023 -359.890292 0 120 255
205.370133 -224.563560 -360.172091 0 120 255
