ply
format ascii 1.0
element vertex 385
property float x
property float y
property float z
property uchar red
property uchar green
property uchar blue
end_header
77.430455 -42.474882 -360.397637 0 120 255
77.187297 -42.528768 -357.933340 0 120 255
76.944138 -42.582654 -355.469044 0 120 255
76.700980 -42.636540 -353.004748 0 120 255
76.457821 -42.690426 -350.540452 0 120 255
76.232400 -42.788414 -348.075846 0 120 255
76.007667 -42.888114 -345.611228 0 120 255
75.782935 -42.987814 -343.146611 0 120 255
75.558202 -43.087514 -340.681993 0 120 255
75.325270 -43.472303 -338.247691 0 120 255
75.091676 -43.880112 -335.815838 0 120 255
74.858082 -44.287921 -333.383984 0 120 255
74.624488 -44.695730 -330.952131 0 120 255
74.378706 -45.325931 -328.570959 0 120 255
74.131232 -45.987011 -326.196824 0 120 255
73.883758 -46.648090 -323.822690 0 120 255
73.636283 -47.309170 -321.448555 0 120 255
73.388747 -48.169776 -319.141227 0 120 255
73.141198 -49.071421 -316.847640 0 120 255
72.893649 -49.973067 -314.554054 0 120 255
72.646099 -50.874713 -312.260467 0 120 255
72.409270 -51.952165 -310.045229 0 120 255
72.175475 -53.079361 -307.852159 0 120 255
71.941679 -54.206558 -305.659090 0 120 255
71.707884 -55.333755 -303.466021 0 120 255
71.494050 -56.612940 -301.358594 0 120 255
71.287661 -57.948805 -299.283105 0 120 255
71.081272 -59.284670 -297.207617 0 120 255
70.874882 -60.620535 -295.132128 0 120 255
70.696038 -62.085131 -293.145757 0 120 255
70.530373 -63.611318 -291.202026 0 120 255
70.364709 -65.137506 -289.258294 0 120 255
70.199044 -66.663693 -287.314562 0 120 255
70.066784 -68.296431 -285.460074 0 120 255
69.954685 -69.993475 -283.659445 0 120 255
69.842587 -71.690518 -281.858817 0 120 255
69.730488 -73.387561 -280.058188 0 120 255
69.655921 -75.170502 -278.344105 0 120 255
69.609638 -77.018174 -276.695242 0 120 255
69.563355 -78.865847 -275.046379 0 120 255
69.517072 -80.713520 -273.397516 0 120 255
69.510750 -82.628265 -271.830172 0 120 255
69.541844 -84.605813 -270.339159 0 120 255
69.572938 -86.583362 -268.848145 0 120 255
69.604033 -88.560910 -267.357132 0 120 255
69.675886 -90.588778 -265.940795 0 120 255
69.795146 -92.675173 -264.611313 0 120 255
69.914405 -94.761567 -263.281831 0 120 255
70.033665 -96.847961 -261.952349 0 120 255
70.192948 -98.970146 -260.689359 0 120 255
70.410315 -101.144271 -259.522861 0 120 255
70.627682 -103.318396 -258.356363 0 120 255
70.845049 -105.492521 -257.189865 0 120 255
71.100302 -107.690222 -256.080776 0 120 255
71.424822 -109.931026 -255.076651 0 120 255
71.749343 -112.171831 -254.072526 0 120 255
72.073864 -114.412635 -253.068401 0 120 255
72.432859 -116.667147 -252.112104 0 120 255
72.872607 -118.953765 -251.267839 0 120 255
73.312356 -121.240383 -250.423574 0 120 255
73.752104 -123.527002 -249.579310 0 120 255
74.221806 -125.819803 -248.773166 0 120 255
74.783845 -128.131661 -248.084539 0 120 255
75.345884 -130.443520 -247.395911 0 120 255
75.907923 -132.755378 -246.707284 0 120 255
76.487488 -135.069221 -246.043072 0 120 255
77.141331 -137.391473 -245.482341 0 120 255
77.795174 -139.713726 -244.921611 0 120 255
78.449017 -142.035978 -244.360880 0 120 255
79.116567 -144.357650 -243.816727 0 120 255
79.869902 -146.675693 -243.376328 0 120 255
80.623238 -148.993735 -242.935930 0 120 255
81.376573 -151.311777 -242.495531 0 120 255
82.142881 -153.627158 -242.067426 0 120 255
83.040138 -155.915671 -241.763414 0 120 255
83.937396 -158.204184 -241.459402 0 120 255
84.834653 -160.492697 -241.155390 0 120 255
85.738489 -162.778984 -240.857055 0 120 255
86.785801 -165.016719 -240.682522 0 120 255
87.833113 -167.254455 -240.507988 0 120 255
88.880425 -169.492191 -240.333454 0 120 255
89.927737 -171.729927 -240.158921 0 120 255
91.129268 -173.895157 -240.105604 0 120 255
92.330955 -176.060313 -240.052410 0 120 255
93.532643 -178.225470 -239.999217 0 120 255
94.734331 -180.390626 -239.946023 0 120 255
96.085695 -182.465176 -239.999820 0 120 255
97.444008 -184.535518 -240.058585 0 120 255
98.802322 -186.605860 -240.117349 0 120 255
100.160636 -188.676202 -240.176114 0 120 255
101.662019 -190.639332 -240.327532 0 120 255
103.176894 -192.592353 -240.487688 0 120 255
104.691768 -194.545374 -240.647843 0 120 255
106.206643 -196.498395 -240.807998 0 120 255
107.855989 -198.329218 -241.046470 0 120 255
109.524782 -200.142370 -241.296266 0 120 255
111.193574 -201.955521 -241.546063 0 120 255
112.862367 -203.768673 -241.795859 0 120 255
114.655153 -205.446377 -242.109779 0 120 255
116.472411 -207.097348 -242.436354 0 120 255
118.289669 -208.748320 -242.762929 0 120 255
120.106927 -210.399292 -243.089504 0 120 255
122.035954 -211.903434 -243.466282 0 120 255
123.993206 -213.370498 -243.855738 0 120 255
125.950457 -214.837562 -244.245193 0 120 255
127.907709 -216.304626 -244.634648 0 120 255
129.962918 -217.615486 -245.060782 0 120 255
132.048498 -218.877916 -245.498287 0 120 255
134.134079 -220.140345 -245.935792 0 120 255
136.219659 -221.402775 -246.373298 0 120 255
138.388000 -222.501760 -246.834486 0 120 255
140.586953 -223.540287 -247.304435 0 120 255
142.785906 -224.578814 -247.774383 0 120 255
144.984860 -225.617340 -248.244332 0 120 255
147.250216 -226.487438 -248.725642 0 120 255
149.544260 -227.284772 -249.211861 0 120 255
151.838303 -228.082107 -249.698080 0 120 255
154.132346 -228.879441 -250.184299 0 120 255
156.475548 -229.505706 -250.670365 0 120 255
158.843149 -230.047058 -251.156356 0 120 255
161.210750 -230.588410 -251.642347 0 120 255
163.578352 -231.129762 -252.128339 0 120 255
165.977272 -231.499857 -252.603590 0 120 255
168.393827 -231.773531 -253.072796 0 120 255
170.810381 -232.047205 -253.542002 0 120 255
173.226935 -232.320879 -254.011207 0 120 255
175.656797 -232.437107 -254.459525 0 120 255
178.095071 -232.453799 -254.894639 0 120 255
180.533346 -232.470491 -255.329752 0 120 255
182.971621 -232.487182 -255.764865 0 120 255
185.407457 -232.349762 -256.171315 0 120 255
187.841568 -232.103241 -256.557474 0 120 255
190.275679 -231.856720 -256.943633 0 120 255
192.709789 -231.610200 -257.329792 0 120 255
195.123396 -231.204044 -257.680723 0 120 255
197.521008 -230.673364 -258.004175 0 120 255
199.918620 -230.142684 -258.327626 0 120 255
202.316232 -229.612004 -258.651077 0 120 255
204.675631 -228.929366 -258.933298 0 120 255
207.002456 -228.117193 -259.180373 0 120 255
209.329281 -227.305020 -259.427447 0 120 255
211.656106 -226.492847 -259.674521 0 120 255
213.927770 -225.538681 -259.875705 0 120 255
216.148387 -224.453116 -260.034423 0 120 255
218.369005 -223.367552 -260.193141 0 120 255
220.589623 -222.281987 -260.351859 0 120 255
222.739339 -221.066582 -260.461407 0 120 255
224.818175 -219.721375 -260.521801 0 120 255
226.897010 -218.376169 -260.582195 0 120 255
228.975846 -217.030962 -260.642589 0 120 255
230.969712 -215.570065 -260.652045 0 120 255
232.872103 -213.984621 -260.606661 0 120 255
234.774495 -212.399177 -260.561277 0 120 255
236.676886 -210.813733 -260.515894 0 120 255
238.482387 -209.128450 -260.419321 0 120 255
240.175701 -207.327565 -260.263478 0 120 255
241.869015 -205.526680 -260.107634 0 120 255
243.562329 -203.725795 -259.951790 0 120 255
245.149416 -201.842207 -259.746015 0 120 255
246.604128 -199.855558 -259.478016 0 120 255
248.058840 -197.868908 -259.210017 0 120 255
249.513551 -195.882259 -258.942017 0 120 255
250.855679 -193.830816 -258.626787 0 120 255
252.046393 -191.692234 -258.248036 0 120 255
253.237107 -189.553652 -257.869285 0 120 255
254.427821 -187.415070 -257.490533 0 120 255
255.502823 -185.229742 -257.068566 0 120 255
256.409051 -182.976232 -256.583564 0 120 255
257.315279 -180.722721 -256.098562 0 120 255
258.221506 -178.469210 -255.613561 0 120 255
259.012282 -176.186470 -255.090448 0 120 255
259.619130 -173.857164 -254.506620 0 120 255
260.225979 -171.527859 -253.922792 0 120 255
260.832828 -169.198553 -253.338964 0 120 255
261.327807 -166.856290 -252.722938 0 120 255
261.626301 -164.491269 -252.050359 0 120 255
261.924795 -162.126248 -251.377780 0 120 255
262.223289 -159.761227 -250.705201 0 120 255
262.416597 -157.397606 -250.006827 0 120 255
262.403776 -155.036730 -249.257904 0 120 255
262.390956 -152.675855 -248.508980 0 120 255
262.378135 -150.314979 -247.760056 0 120 255
262.269516 -147.967374 -246.991840 0 120 255
261.948316 -145.649217 -246.180813 0 120 255
261.627117 -143.331059 -245.369787 0 120 255
261.305918 -141.012902 -244.558760 0 120 255
260.900463 -138.716943 -243.734685 0 120 255
260.279373 -136.477796 -242.877216 0 120 255
259.658284 -134.238649 -242.019748 0 120 255
259.037194 -131.999502 -241.162279 0 120 255
258.344855 -129.788269 -240.297381 0 120 255
257.437276 -127.661367 -239.410041 0 120 255
256.529697 -125.534465 -238.522700 0 120 255
255.622119 -123.407563 -237.635359 0 120 255
254.657056 -121.310989 -236.745269 0 120 255
253.480675 -119.325906 -235.845071 0 120 255
252.304294 -117.340822 -234.944873 0 120 255
251.127913 -115.355738 -234.044675 0 120 255
249.907842 -113.400180 -233.145216 0 120 255
248.483879 -111.582413 -232.249205 0 120 255
247.059915 -109.764645 -231.353195 0 120 255
245.635952 -107.946878 -230.457184 0 120 255
244.181427 -106.154877 -229.564028 0 120 255
242.533835 -104.525651 -228.688900 0 120 255
240.886243 -102.896425 -227.813771 0 120 255
239.238651 -101.267199 -226.938643 0 120 255
237.572360 -99.657406 -226.067009 0 120 255
235.727072 -98.233631 -225.228819 0 120 255
233.881784 -96.809855 -224.390628 0 120 255
232.036497 -95.386080 -223.552438 0 120 255
230.182610 -93.973309 -222.716875 0 120 255
228.166846 -92.767689 -221.930770 0 120 255
226.151081 -91.562069 -221.144666 0 120 255
224.135317 -90.356449 -220.358562 0 120 255
222.118917 -89.151840 -219.572752 0 120 255
219.960560 -88.173069 -218.852831 0 120 255
217.802203 -87.194298 -218.132909 0 120 255
215.643845 -86.215527 -217.412987 0 120 255
213.485488 -85.236756 -216.693066 0 120 255
211.217501 -84.479822 -216.048820 0 120 255
208.944571 -83.732891 -215.407985 0 120 255
206.671641 -82.985960 -214.767151 0 120 255
204.398711 -82.239029 -214.126317 0 120 255
202.046943 -81.704047 -213.567844 0 120 255
199.687178 -81.190566 -213.017725 0 120 255
197.327413 -80.677085 -212.467606 0 120 255
194.967647 -80.163604 -211.917488 0 120 255
192.556650 -79.849167 -211.454068 0 120 255
190.137160 -79.567725 -211.005021 0 120 255
187.717670 -79.286283 -210.555973 0 120 255
185.298180 -79.004840 -210.106925 0 120 255
182.851679 -78.907336 -209.746721 0 120 255
180.398711 -78.853869 -209.407788 0 120 255
177.945743 -78.800402 -209.068855 0 120 255
175.492775 -78.746935 -208.729922 0 120 255
173.033566 -78.860796 -208.480019 0 120 255
170.572333 -79.028900 -208.258977 0 120 255
168.111100 -79.197004 -208.037936 0 120 255
165.649867 -79.365109 -207.816894 0 120 255
163.199754 -79.683100 -207.683309 0 120 255
160.754336 -80.064380 -207.586652 0 120 255
158.308919 -80.445660 -207.489994 0 120 255
155.863501 -80.826940 -207.393337 0 120 255
153.443272 -81.340356 -207.381059 0 120 255
151.036561 -81.924682 -207.414063 0 120 255
148.629849 -82.509008 -207.447067 0 120 255
146.223138 -83.093334 -207.480071 0 120 255
143.852567 -83.792208 -207.593088 0 120 255
141.506255 -84.567971 -207.759813 0 120 255
139.159943 -85.343735 -207.926537 0 120 255
136.813632 -86.119499 -208.093262 0 120 255
134.511495 -86.992754 -208.334565 0 120 255
132.246086 -87.947067 -208.637875 0 120 255
129.980678 -88.901381 -208.941185 0 120 255
127.715270 -89.855695 -209.244495 0 120 255
125.499378 -90.891294 -209.616091 0 120 255
123.334223 -92.010182 -210.057654 0 120 255
121.169068 -93.129070 -210.499218 0 120 255
119.003913 -94.247958 -210.940781 0 120 255
116.891146 -95.433009 -211.443694 0 120 255
114.844465 -96.701524 -212.023999 0 120 255
112.797784 -97.970038 -212.604304 0 120 255
110.751103 -99.238553 -213.184609 0 120 255
108.757438 -100.559393 -213.818868 0 120 255
106.846365 -101.961752 -214.537183 0 120 255
104.935292 -103.364111 -215.255498 0 120 255
103.024219 -104.766469 -215.973813 0 120 255
101.164760 -106.208749 -216.738417 0 120 255
99.405354 -107.728416 -217.592751 0 120 255
97.645947 -109.248083 -218.447086 0 120 255
95.886541 -110.767750 -219.301420 0 120 255
94.175531 -112.316484 -220.194301 0 120 255
92.582785 -113.936247 -221.181373 0 120 255
90.990040 -115.556011 -222.168446 0 120 255
89.397294 -117.175775 -223.155518 0 120 255
87.848114 -118.815390 -224.173496 0 120 255
86.435939 -120.517432 -225.288663 0 120 255
85.023764 -122.219475 -226.403831 0 120 255
83.611589 -123.921517 -227.518998 0 120 255
82.236741 -125.635898 -228.657724 0 120 255
81.017932 -127.401858 -229.894929 0 120 255
79.799124 -129.167818 -231.132135 0 120 255
78.580315 -130.933778 -232.369340 0 120 255
77.391386 -132.706309 -233.623234 0 120 255
76.377539 -134.517347 -234.974915 0 120 255
75.363692 -136.328384 -236.326596 0 120 255
74.349845 -138.139422 -237.678277 0 120 255
73.361084 -139.952804 -239.042675 0 120 255
72.599197 -141.787378 -240.522084 0 120 255
71.837310 -143.621953 -242.001493 0 120 255
71.075423 -145.456527 -243.480901 0 120 255
70.327963 -147.290977 -244.966398 0 120 255
69.826574 -149.123296 -246.555738 0 120 255
69.325186 -150.955615 -248.145078 0 120 255
68.823797 -152.787935 -249.734418 0 120 255
68.323484 -154.620170 -251.324109 0 120 255
68.048190 -156.434769 -252.987307 0 120 255
67.772897 -158.249369 -254.650505 0 120 255
67.497603 -160.063968 -256.313703 0 120 255
67.222310 -161.878567 -257.976901 0 120 255
67.162936 -163.659652 -259.696365 0 120 255
67.113930 -165.439127 -261.418530 0 120 255
67.064925 -167.218602 -263.140695 0 120 255
67.015919 -168.998076 -264.862860 0 120 255
67.170064 -170.731091 -266.624364 0 120 255
67.345847 -172.459156 -268.390058 0 120 255
67.521631 -174.187222 -270.155752 0 120 255
67.697415 -175.915287 -271.921446 0 120 255
68.062411 -177.586578 -273.710736 0 120 255
68.459874 -179.248127 -275.504075 0 120 255
68.857337 -180.909676 -277.297413 0 120 255
69.254800 -182.571225 -279.090752 0 120 255
69.826687 -184.168180 -280.893247 0 120 255
70.441208 -185.749347 -282.697980 0 120 255
71.055728 -187.330514 -284.502713 0 120 255
71.670248 -188.911681 -286.307446 0 120 255
72.443836 -190.422797 -288.108283 0 120 255
73.269336 -191.911052 -289.907847 0 120 255
74.094836 -193.399306 -291.707412 0 120 255
74.920336 -194.887560 -293.506977 0 120 255
75.889237 -196.302462 -295.291102 0 120 255
76.918229 -197.686624 -297.068756 0 120 255
77.947221 -199.070787 -298.846410 0 120 255
78.976213 -200.454950 -300.624064 0 120 255
80.132885 -201.764470 -302.376273 0 120 255
81.356561 -203.034819 -304.115128 0 120 255
82.580237 -204.305167 -305.853983 0 120 255
83.803912 -205.575516 -307.592838 0 120 255
85.139689 -206.771731 -309.297873 0 120 255
86.547919 -207.920031 -310.981049 0 120 255
87.956149 -209.068332 -312.664224 0 120 255
89.364378 -210.216632 -314.347400 0 120 255
90.869508 -211.292920 -315.990021 0 120 255
92.450939 -212.312503 -317.600708 0 120 255
94.032370 -213.332086 -319.211394 0 120 255
95.613802 -214.351669 -320.822081 0 120 255
97.277475 -215.302762 -322.387169 0 120 255
99.019535 -216.188575 -323.908795 0 120 255
100.761595 -217.074388 -325.430422 0 120 255
102.503655 -217.960201 -326.952048 0 120 255
104.314044 -218.782241 -328.424706 0 120 255
106.203032 -219.530922 -329.841034 0 120 255
108.092021 -220.279603 -331.257361 0 120 255
109.981010 -221.028283 -332.673689 0 120 255
111.925318 -221.718872 -334.039353 0 120 255
113.946455 -222.328780 -335.334653 0 120 255
115.967593 -222.938687 -336.629953 0 120 255
117.988730 -223.548594 -337.925253 0 120 255
120.053237 -224.106845 -339.169827 0 120 255
122.190742 -224.578150 -340.329021 0 120 255
124.328247 -225.049454 -341.488215 0 120 255
126.465752 -225.520758 -342.647409 0 120 255
128.635881 -225.947342 -343.757399 0 120 255
130.873061 -226.282014 -344.766262 0 120 255
133.110242 -226.616686 -345.775124 0 120 255
135.347422 -226.951358 -346.783987 0 120 255
137.607816 -227.248523 -347.746658 0 120 255
139.927186 -227.450397 -348.591972 0 120 255
142.246556 -227.652271 -349.437285 0 120 255
144.565926 -227.854145 -350.282598 0 120 255
146.900540 -228.025759 -351.086121 0 120 255
149.283940 -228.100528 -351.755897 0 120 255
151.667340 -228.175298 -352.425673 0 120 255
154.050739 -228.250068 -353.095450 0 120 255
156.442950 -228.301617 -353.729070 0 120 255
158.871710 -228.256836 -354.212706 0 120 255
161.300471 -228.212056 -354.696341 0 120 255
163.729231 -228.167276 -355.179977 0 120 255
166.161619 -228.100881 -355.634161 0 120 255
168.614420 -227.912840 -355.922594 0 120 255
171.067221 -227.724799 -356.211026 0 120 255
173.520022 -227.536759 -356.499459 0 120 255
175.972487 -227.343825 -356.787178 0 120 255
178.422292 -227.112142 -357.069248 0 120 255
180.872097 -226.880460 -357.351318 0 120 255
183.321902 -226.648777 -357.633388 0 120 255
185.771707 -226.417094 -357.915460 0 120 255
188.221510 -226.185400 -358.197542 0 120 255
190.671312 -225.953706 -358.479625 0 120 255
193.121115 -225.722013 -358.761708 0 120 255
195.570918 -225.490319 -359.043790 0 120 255
198.020722 -225.258629 -359.325865 0 120 255
200.470525 -225.026940 -359.607940 0 120 255
202.920329 -224.795250 -359.890016 0 120 255
205.370133 -224.563560 -360.172091 0 120 255
