ply
format ascii 1.0
element vertex 385
property float x
property float y
property float z
property uchar red
property uchar green
property uchar blue
end_header
77.430455 -42.474882 -360.397637 0 120 255
77.187574 -42.528706 -357.936154 0 120 255
76.944694 -42.582531 -355.474672 0 120 255
76.701813 -42.636356 -353.013190 0 120 255
76.458932 -42.690180 -350.551708 0 120 255
76.212711 -42.752330 -348.090754 0 120 255
75.966344 -42.814844 -345.629824 0 120 255
75.719977 -42.877358 -343.168893 0 120 255
75.473610 -42.939872 -340.707963 0 120 255
75.135078 -43.365558 -338.297172 0 120 255
74.788126 -43.824424 -335.890961 0 120 255
74.441173 -44.283290 -333.484751 0 120 255
74.094221 -44.742155 -331.078540 0 120 255
73.679950 -45.488513 -328.759442 0 120 255
73.255808 -46.277028 -326.453118 0 120 255
72.831666 -47.065543 -324.146794 0 120 255
72.407524 -47.854059 -321.840470 0 120 255
71.938396 -48.870932 -319.637476 0 120 255
71.459913 -49.935299 -317.455972 0 120 255
70.981430 -50.999666 -315.274468 0 120 255
70.502947 -52.064033 -313.092964 0 120 255
70.000861 -53.309237 -311.017912 0 120 255
69.492255 -54.604397 -308.972267 0 120 255
68.983649 -55.899557 -306.926622 0 120 255
68.475043 -57.194717 -304.880977 0 120 255
67.962274 -58.634368 -302.938258 0 120 255
67.448038 -60.124963 -301.031830 0 120 255
66.933802 -61.615559 -299.125402 0 120 255
66.419566 -63.106154 -297.218973 0 120 255
65.918063 -64.714020 -295.409604 0 120 255
65.422144 -66.373301 -293.642791 0 120 255
64.926224 -68.032583 -291.875977 0 120 255
64.430304 -69.691865 -290.109163 0 120 255
63.961169 -71.447777 -288.433567 0 120 255
63.506383 -73.255457 -286.806838 0 120 255
63.051596 -75.063136 -285.180109 0 120 255
62.596810 -76.870816 -283.553380 0 120 255
62.179961 -78.758749 -282.012987 0 120 255
61.787649 -80.698591 -280.528438 0 120 255
61.395338 -82.638434 -279.043889 0 120 255
61.003027 -84.578276 -277.559340 0 120 255
60.657008 -86.584439 -276.157186 0 120 255
60.346860 -88.641993 -274.818880 0 120 255
60.036712 -90.699547 -273.480575 0 120 255
59.726564 -92.757101 -272.142269 0 120 255
59.468479 -94.868320 -270.882902 0 120 255
59.258510 -97.029134 -269.696488 0 120 255
59.048542 -99.189948 -268.510074 0 120 255
58.838573 -101.350763 -267.323660 0 120 255
58.684128 -103.553221 -266.212548 0 120 255
58.590773 -105.801497 -265.184287 0 120 255
58.497417 -108.049773 -264.156025 0 120 255
58.404062 -110.298049 -263.127763 0 120 255
58.367657 -112.576411 -262.170427 0 120 255
58.405914 -114.894213 -261.306071 0 120 255
58.444171 -117.212016 -260.441716 0 120 255
58.482427 -119.529818 -259.577360 0 120 255
58.577284 -121.866739 -258.778434 0 120 255
58.760867 -124.233628 -258.082076 0 120 255
58.944451 -126.600518 -257.385719 0 120 255
59.128034 -128.967407 -256.689361 0 120 255
59.366288 -131.343333 -256.051617 0 120 255
59.707695 -133.736310 -255.524468 0 120 255
60.049102 -136.129287 -254.997318 0 120 255
60.390509 -138.522264 -254.470169 0 120 255
60.783256 -140.915485 -253.993615 0 120 255
61.293794 -143.309268 -253.633146 0 120 255
61.804332 -145.703051 -253.272676 0 120 255
62.314870 -148.096833 -252.912207 0 120 255
62.872125 -150.483747 -252.593350 0 120 255
63.561709 -152.851206 -252.392363 0 120 255
64.251293 -155.218665 -252.191375 0 120 255
64.940878 -157.586123 -251.990387 0 120 255
65.671395 -159.941632 -251.821535 0 120 255
66.548290 -162.254407 -251.767601 0 120 255
67.425185 -164.567182 -251.713666 0 120 255
68.302080 -166.879958 -251.659732 0 120 255
69.213085 -169.178004 -251.628543 0 120 255
70.283359 -171.407280 -251.703565 0 120 255
71.353633 -173.636555 -251.778587 0 120 255
72.423908 -175.865830 -251.853608 0 120 255
73.520631 -178.080054 -251.942762 0 120 255
74.787538 -180.197434 -252.122846 0 120 255
76.054445 -182.314814 -252.302930 0 120 255
77.321352 -184.432195 -252.483015 0 120 255
78.606493 -186.536676 -252.670106 0 120 255
80.069694 -188.515193 -252.925635 0 120 255
81.532896 -190.493710 -253.181164 0 120 255
82.996098 -192.472227 -253.436692 0 120 255
84.469169 -194.442328 -253.694313 0 120 255
86.123890 -196.257537 -253.990452 0 120 255
87.778612 -198.072745 -254.286590 0 120 255
89.433334 -199.887953 -254.582729 0 120 255
91.089945 -201.701245 -254.878881 0 120 255
92.926148 -203.332403 -255.176312 0 120 255
94.762350 -204.963562 -255.473743 0 120 255
96.598552 -206.594721 -255.771174 0 120 255
98.434755 -208.225879 -256.068605 0 120 255
100.431402 -209.663192 -256.326048 0 120 255
102.433088 -211.094416 -256.582234 0 120 255
104.434775 -212.525640 -256.838421 0 120 255
106.436462 -213.956863 -257.094607 0 120 255
108.570995 -215.193210 -257.271408 0 120 255
110.715698 -216.414637 -257.442131 0 120 255
112.860401 -217.636065 -257.612855 0 120 255
115.005104 -218.857492 -257.783578 0 120 255
117.251066 -219.889916 -257.839304 0 120 255
119.509744 -220.898604 -257.880587 0 120 255
121.768423 -221.907292 -257.921870 0 120 255
124.027101 -222.915979 -257.963153 0 120 255
126.352443 -223.748253 -257.859452 0 120 255
128.689723 -224.548936 -257.729789 0 120 255
131.027003 -225.349619 -257.600126 0 120 255
133.364283 -226.150302 -257.470463 0 120 255
135.732017 -226.793167 -257.172960 0 120 255
138.106989 -227.398519 -256.835564 0 120 255
140.481962 -228.003872 -256.498167 0 120 255
142.856934 -228.609225 -256.160770 0 120 255
145.226146 -229.080288 -255.640964 0 120 255
147.593617 -229.510757 -255.066018 0 120 255
149.961087 -229.941226 -254.491072 0 120 255
152.328558 -230.371696 -253.916126 0 120 255
154.655774 -230.694926 -253.153083 0 120 255
156.967941 -230.978064 -252.319716 0 120 255
159.280108 -231.261202 -251.486349 0 120 255
161.592274 -231.544340 -250.652982 0 120 255
163.833098 -231.749143 -249.634681 0 120 255
166.041549 -231.918401 -248.532466 0 120 255
168.250000 -232.087659 -247.430251 0 120 255
170.458451 -232.256916 -246.328035 0 120 255
172.569391 -232.378659 -245.052432 0 120 255
174.627333 -232.474576 -243.682594 0 120 255
176.685275 -232.570494 -242.312756 0 120 255
178.743218 -232.666412 -240.942918 0 120 255
180.683706 -232.741526 -239.418138 0 120 255
182.548350 -232.803205 -237.793306 0 120 255
184.412995 -232.864885 -236.168473 0 120 255
186.277639 -232.926564 -234.543641 0 120 255
188.010258 -232.980418 -232.786054 0 120 255
189.642110 -233.028300 -230.927143 0 120 255
191.273963 -233.076181 -229.068233 0 120 255
192.905816 -233.124062 -227.209323 0 120 255
194.395581 -233.164677 -225.241861 0 120 255
195.757439 -233.198752 -223.176683 0 120 255
197.119298 -233.232826 -221.111504 0 120 255
198.481156 -233.266901 -219.046325 0 120 255
199.696080 -233.294159 -216.898355 0 120 255
200.755123 -233.314185 -214.662553 0 120 255
201.814167 -233.334212 -212.426752 0 120 255
202.873210 -233.354239 -210.190950 0 120 255
203.786325 -233.369103 -207.898340 0 120 255
204.516827 -233.377506 -205.534639 0 120 255
205.247329 -233.385909 -203.170939 0 120 255
205.977831 -233.394313 -200.807239 0 120 255
206.568836 -233.398683 -198.411184 0 120 255
206.953228 -233.397081 -195.967207 0 120 255
207.337619 -233.395478 -193.523230 0 120 255
207.722011 -233.393875 -191.079253 0 120 255
207.978051 -233.388964 -188.624477 0 120 255
208.007719 -233.378218 -186.150657 0 120 255
208.037386 -233.367472 -183.676836 0 120 255
208.067054 -233.356725 -181.203016 0 120 255
207.983215 -233.343144 -178.736005 0 120 255
207.658779 -233.323555 -176.283426 0 120 255
207.334344 -233.303966 -173.830848 0 120 255
207.009908 -233.284376 -171.378270 0 120 255
206.589300 -233.262293 -168.945478 0 120 255
205.920348 -233.233771 -166.563783 0 120 255
205.251397 -233.205248 -164.182087 0 120 255
204.582446 -233.176726 -161.800392 0 120 255
203.835836 -233.146011 -159.446552 0 120 255
202.840108 -233.108263 -157.182069 0 120 255
201.844379 -233.070515 -154.917586 0 120 255
200.848651 -233.032767 -152.653103 0 120 255
199.793716 -232.993163 -150.419727 0 120 255
198.495954 -232.945943 -148.313933 0 120 255
197.198193 -232.898722 -146.208139 0 120 255
195.900431 -232.851502 -144.102345 0 120 255
194.560747 -232.802811 -142.026510 0 120 255
192.991251 -232.746056 -140.114902 0 120 255
191.421756 -232.689301 -138.203294 0 120 255
189.852260 -232.632546 -136.291686 0 120 255
188.256071 -232.574749 -134.405148 0 120 255
186.449118 -232.508731 -132.716556 0 120 255
184.642164 -232.442712 -131.027964 0 120 255
182.835210 -232.376694 -129.339372 0 120 255
181.014113 -232.310077 -127.668032 0 120 255
179.006366 -232.235563 -126.224362 0 120 255
176.998619 -232.161049 -124.780692 0 120 255
174.990872 -232.086535 -123.337022 0 120 255
172.978498 -232.011818 -121.900724 0 120 255
170.807534 -231.930138 -120.717075 0 120 255
168.636569 -231.848458 -119.533426 0 120 255
166.465605 -231.766778 -118.349777 0 120 255
164.294641 -231.685098 -117.166128 0 120 255
161.999409 -231.598353 -116.247452 0 120 255
159.702432 -231.511538 -115.332496 0 120 255
157.405455 -231.424722 -114.417540 0 120 255
155.108478 -231.337906 -113.502585 0 120 255
152.726290 -231.248620 -112.844067 0 120 255
150.339033 -231.159188 -112.200802 0 120 255
147.951776 -231.069756 -111.557538 0 120 255
145.564519 -230.980323 -110.914273 0 120 255
143.126014 -230.889995 -110.514863 0 120 255
140.681907 -230.799570 -110.142105 0 120 255
138.237800 -230.709144 -109.769347 0 120 255
135.793694 -230.618718 -109.396589 0 120 255
133.327290 -230.528357 -109.252285 0 120 255
130.857227 -230.438006 -109.145466 0 120 255
128.387164 -230.347655 -109.038647 0 120 255
125.917102 -230.257304 -108.931828 0 120 255
123.448931 -230.167812 -109.036171 0 120 255
120.981185 -230.078513 -109.187953 0 120 255
118.513438 -229.989215 -109.339735 0 120 255
116.045692 -229.899916 -109.491517 0 120 255
113.599618 -229.812111 -109.836184 0 120 255
111.159869 -229.724743 -110.237155 0 120 255
108.720121 -229.637375 -110.638125 0 120 255
106.280373 -229.550007 -111.039096 0 120 255
103.878110 -229.464646 -111.614389 0 120 255
101.489605 -229.380023 -112.253659 0 120 255
99.101100 -229.295399 -112.892928 0 120 255
96.712595 -229.210776 -113.532198 0 120 255
94.373904 -229.128547 -114.327459 0 120 255
92.057699 -229.047399 -115.193132 0 120 255
89.741493 -228.966250 -116.058804 0 120 255
87.425287 -228.885102 -116.924477 0 120 255
85.168197 -228.806616 -117.928371 0 120 255
82.943433 -228.729586 -119.007850 0 120 255
80.718670 -228.652557 -120.087330 0 120 255
78.493906 -228.575527 -121.166810 0 120 255
76.334942 -228.501340 -122.367508 0 120 255
74.219124 -228.429018 -123.647689 0 120 255
72.103305 -228.356696 -124.927870 0 120 255
69.987486 -228.284374 -126.208051 0 120 255
67.941874 -228.214992 -127.593316 0 120 255
65.951088 -228.147906 -129.060645 0 120 255
63.960302 -228.080820 -130.527974 0 120 255
61.969516 -228.013734 -131.995303 0 120 255
60.051314 -227.949619 -133.552481 0 120 255
58.200361 -227.888256 -135.192905 0 120 255
56.349408 -227.826894 -136.833329 0 120 255
54.498455 -227.765531 -138.473753 0 120 255
52.720654 -227.707118 -140.189748 0 120 255
51.023157 -227.651943 -141.988704 0 120 255
49.325660 -227.596768 -143.787661 0 120 255
47.628164 -227.541594 -145.586617 0 120 255
46.002739 -227.489276 -147.447856 0 120 255
44.471171 -227.440680 -149.390206 0 120 255
42.939603 -227.392084 -151.332555 0 120 255
41.408035 -227.343487 -153.274905 0 120 255
39.945926 -227.297608 -155.267275 0 120 255
38.591520 -227.255941 -157.337211 0 120 255
37.237114 -227.214274 -159.407146 0 120 255
35.882708 -227.172607 -161.477081 0 120 255
34.593749 -227.133469 -163.585885 0 120 255
33.426429 -227.099032 -165.766931 0 120 255
32.259108 -227.064595 -167.947976 0 120 255
31.091787 -227.030158 -170.129022 0 120 255
29.984640 -226.998021 -172.338984 0 120 255
29.012929 -226.971060 -174.614030 0 120 255
28.041217 -226.944100 -176.889075 0 120 255
27.069506 -226.917139 -179.164121 0 120 255
26.151583 -226.892214 -181.459426 0 120 255
25.382492 -226.872920 -183.810790 0 120 255
24.613400 -226.853626 -186.162153 0 120 255
23.844309 -226.834333 -188.513516 0 120 255
23.121678 -226.816780 -190.877871 0 120 255
22.560604 -226.805282 -193.287404 0 120 255
21.999530 -226.793784 -195.696936 0 120 255
21.438455 -226.782286 -198.106469 0 120 255
20.915749 -226.772214 -200.523195 0 120 255
20.566346 -226.768580 -202.972417 0 120 255
20.216944 -226.764946 -205.421639 0 120 255
19.867541 -226.761312 -207.870861 0 120 255
19.547861 -226.758769 -210.323014 0 120 255
19.411980 -226.762972 -212.793298 0 120 255
19.276098 -226.767174 -215.263582 0 120 255
19.140217 -226.771377 -217.733865 0 120 255
19.025078 -226.776334 -220.204391 0 120 255
19.102672 -226.788303 -222.677167 0 120 255
19.180266 -226.800271 -225.149942 0 120 255
19.257860 -226.812240 -227.622718 0 120 255
19.347117 -226.824629 -230.094623 0 120 255
19.636232 -226.844240 -232.551616 0 120 255
19.925346 -226.863850 -235.008608 0 120 255
20.214460 -226.883460 -237.465600 0 120 255
20.506298 -226.903167 -239.922153 0 120 255
21.003096 -226.930217 -242.345630 0 120 255
21.499895 -226.957267 -244.769108 0 120 255
21.996693 -226.984316 -247.192585 0 120 255
22.493492 -227.011366 -249.616062 0 120 255
23.186464 -227.045375 -251.990551 0 120 255
23.885276 -227.079591 -254.363582 0 120 255
24.584088 -227.113807 -256.736613 0 120 255
25.282900 -227.148023 -259.109643 0 120 255
26.162572 -227.188607 -261.421033 0 120 255
27.056054 -227.229678 -263.727716 0 120 255
27.949536 -227.270749 -266.034399 0 120 255
28.843018 -227.311819 -268.341081 0 120 255
29.901352 -227.358624 -270.575897 0 120 255
30.980680 -227.406158 -272.801559 0 120 255
32.060008 -227.453692 -275.027222 0 120 255
33.139336 -227.501227 -277.252884 0 120 255
34.367116 -227.553875 -279.398894 0 120 255
35.622133 -227.607461 -281.530289 0 120 255
36.877149 -227.661047 -283.661684 0 120 255
38.132166 -227.714634 -285.793079 0 120 255
39.519201 -227.772712 -287.839413 0 120 255
40.938647 -227.831892 -289.864865 0 120 255
42.358093 -227.891073 -291.890316 0 120 255
43.777539 -227.950254 -293.915768 0 120 255
45.312841 -228.013335 -295.853028 0 120 255
46.884573 -228.077641 -297.762559 0 120 255
48.456304 -228.141948 -299.672090 0 120 255
50.028036 -228.206255 -301.581621 0 120 255
51.700084 -228.273915 -303.401894 0 120 255
53.411408 -228.342888 -305.187222 0 120 255
55.122732 -228.411861 -306.972550 0 120 255
56.834056 -228.480833 -308.757878 0 120 255
58.630989 -228.552687 -310.454758 0 120 255
60.468862 -228.625918 -312.109340 0 120 255
62.306736 -228.699150 -313.763922 0 120 255
64.144609 -228.772381 -315.418504 0 120 255
66.054417 -228.848163 -316.987078 0 120 255
68.005695 -228.925414 -318.506067 0 120 255
69.956973 -229.002665 -320.025056 0 120 255
71.908251 -229.079916 -321.544046 0 120 255
73.918846 -229.158817 -322.981060 0 120 255
75.970302 -229.238854 -324.361606 0 120 255
78.021758 -229.318891 -325.742152 0 120 255
80.073213 -229.398929 -327.122698 0 120 255
82.172426 -229.478559 -328.426967 0 120 255
84.310733 -229.557855 -329.668794 0 120 255
86.449041 -229.637152 -330.910622 0 120 255
88.587348 -229.716449 -332.152450 0 120 255
90.762768 -229.789948 -333.325919 0 120 255
92.974189 -229.857824 -334.433073 0 120 255
95.185610 -229.925699 -335.540228 0 120 255
97.397032 -229.993574 -336.647383 0 120 255
99.636626 -230.051381 -337.694516 0 120 255
101.908602 -230.097616 -338.672663 0 120 255
104.180578 -230.143851 -339.650810 0 120 255
106.452554 -230.190086 -340.628956 0 120 255
108.745402 -230.223980 -341.555243 0 120 255
111.066735 -230.241034 -342.410759 0 120 255
113.388067 -230.258088 -343.266275 0 120 255
115.709400 -230.275142 -344.121791 0 120 255
118.045702 -230.278837 -344.933373 0 120 255
120.406374 -230.260784 -345.673430 0 120 255
122.767046 -230.242731 -346.413487 0 120 255
125.127718 -230.224678 -347.153545 0 120 255
127.498692 -230.193327 -347.857200 0 120 255
129.889835 -230.135945 -348.489600 0 120 255
132.280977 -230.078563 -349.122000 0 120 255
134.672119 -230.021181 -349.754400 0 120 255
137.069991 -229.951430 -350.357386 0 120 255
139.483894 -229.852219 -350.890316 0 120 255
141.897797 -229.753007 -351.423246 0 120 255
144.311699 -229.653796 -351.956176 0 120 255
146.729704 -229.543797 -352.466052 0 120 255
149.159808 -229.401985 -352.907944 0 120 255
151.589912 -229.260173 -353.349836 0 120 255
154.020015 -229.118361 -353.791729 0 120 255
156.452391 -228.967764 -354.216244 0 120 255
158.893275 -228.784267 -354.575685 0 120 255
161.334159 -228.600771 -354.935126 0 120 255
163.775042 -228.417274 -355.294567 0 120 255
166.217001 -228.227406 -355.641900 0 120 255
168.664273 -228.006033 -355.929365 0 120 255
171.111545 -227.784661 -356.216831 0 120 255
173.558817 -227.563288 -356.504297 0 120 255
176.006056 -227.340650 -356.791043 0 120 255
178.453064 -227.109232 -357.072791 0 120 255
180.900071 -226.877814 -357.354539 0 120 255
183.347079 -226.646396 -357.636287 0 120 255
185.794087 -226.414977 -357.918036 0 120 255
188.241092 -226.183548 -358.199797 0 120 255
190.688097 -225.952119 -358.481558 0 120 255
193.135102 -225.720690 -358.763318 0 120 255
195.582107 -225.489261 -359.045079 0 120 255
198.029114 -225.257836 -359.326832 0 120 255
200.476120 -225.026410 -359.608585 0 120 255
202.923127 -224.794985 -359.890338 0 120 255
205.370133 -224.563560 -360.172091 0 120 255
