ply
format ascii 1.0
element vertex 385
property float x
property float y
property float z
property uchar red
property uchar green
property uchar blue
end_header
77.430455 -42.474882 -360.397637 0 120 255
77.187560 -42.528710 -357.936003 0 120 255
76.944664 -42.582538 -355.474369 0 120 255
76.701768 -42.636366 -353.012736 0 120 255
76.458872 -42.690194 -350.551102 0 120 255
76.213268 -42.753819 -348.089972 0 120 255
75.967545 -42.817871 -345.628864 0 120 255
75.721823 -42.881924 -343.167755 0 120 255
75.476100 -42.945976 -340.706647 0 120 255
75.075598 -43.348369 -338.301174 0 120 255
74.660975 -43.781627 -335.900775 0 120 255
74.246353 -44.214885 -333.500377 0 120 255
73.831731 -44.648143 -331.099979 0 120 255
73.301021 -45.325220 -328.782725 0 120 255
72.753176 -46.038284 -326.477743 0 120 255
72.205331 -46.751348 -324.172761 0 120 255
71.657486 -47.464413 -321.867780 0 120 255
71.030729 -48.355550 -319.648527 0 120 255
70.387415 -49.284052 -317.447262 0 120 255
69.744101 -50.212554 -315.245997 0 120 255
69.100786 -51.141056 -313.044732 0 120 255
68.413390 -52.202679 -310.919911 0 120 255
67.713699 -53.301425 -308.816407 0 120 255
67.014009 -54.400171 -306.712904 0 120 255
66.314319 -55.498917 -304.609400 0 120 255
65.600962 -56.703313 -302.570637 0 120 255
64.882741 -57.945306 -300.554912 0 120 255
64.164520 -59.187300 -298.539187 0 120 255
63.446298 -60.429293 -296.523462 0 120 255
62.739181 -61.761880 -294.563701 0 120 255
62.036975 -63.134546 -292.628700 0 120 255
61.334770 -64.507212 -290.693699 0 120 255
60.632564 -65.879879 -288.758697 0 120 255
59.960181 -67.335377 -286.875799 0 120 255
59.303919 -68.835651 -285.021066 0 120 255
58.647658 -70.335926 -283.166334 0 120 255
57.991396 -71.836200 -281.311601 0 120 255
57.377820 -73.414645 -279.509778 0 120 255
56.792114 -75.044126 -277.742499 0 120 255
56.206407 -76.673607 -275.975220 0 120 255
55.620700 -78.303088 -274.207942 0 120 255
55.085351 -80.006299 -272.497610 0 120 255
54.589421 -81.767221 -270.831855 0 120 255
54.093491 -83.528144 -269.166100 0 120 255
53.597561 -85.289067 -267.500344 0 120 255
53.155455 -87.117878 -265.896948 0 120 255
52.763655 -89.010140 -264.351835 0 120 255
52.371855 -90.902401 -262.806722 0 120 255
51.980055 -92.794663 -261.261610 0 120 255
51.642419 -94.746969 -259.783877 0 120 255
51.365149 -96.766195 -258.381243 0 120 255
51.087880 -98.785421 -256.978608 0 120 255
50.810611 -100.804647 -255.575974 0 120 255
50.585747 -102.874245 -254.244038 0 120 255
50.430630 -105.010884 -253.006198 0 120 255
50.275513 -107.147523 -251.768358 0 120 255
50.120396 -109.284162 -250.530518 0 120 255
50.014681 -111.460254 -249.364131 0 120 255
49.987809 -113.699309 -248.311778 0 120 255
49.960936 -115.938364 -247.259426 0 120 255
49.934064 -118.177419 -246.207073 0 120 255
49.952946 -120.444562 -245.223999 0 120 255
50.060023 -122.765847 -244.374466 0 120 255
50.167100 -125.087132 -243.524932 0 120 255
50.274177 -127.408417 -242.675399 0 120 255
50.423050 -129.746822 -241.890082 0 120 255
50.670332 -132.125536 -241.255963 0 120 255
50.917614 -134.504250 -240.621845 0 120 255
51.164896 -136.882964 -239.987726 0 120 255
51.449794 -139.269005 -239.410219 0 120 255
51.844675 -141.676467 -238.998233 0 120 255
52.239555 -144.083929 -238.586246 0 120 255
52.634435 -146.491391 -238.174260 0 120 255
53.062445 -148.898224 -237.809327 0 120 255
53.613710 -151.302718 -237.619455 0 120 255
54.164976 -153.707212 -237.429583 0 120 255
54.716241 -156.111706 -237.239710 0 120 255
55.295637 -158.509976 -237.086115 0 120 255
56.013260 -160.877663 -237.110770 0 120 255
56.730883 -163.245351 -237.135426 0 120 255
57.448506 -165.613039 -237.160082 0 120 255
58.188532 -167.971642 -237.209922 0 120 255
59.083087 -170.267581 -237.433465 0 120 255
59.977641 -172.563520 -237.657009 0 120 255
60.872196 -174.859459 -237.880553 0 120 255
61.782547 -177.146393 -238.118850 0 120 255
62.864184 -179.335683 -238.517103 0 120 255
63.945821 -181.524973 -238.915356 0 120 255
65.027458 -183.714263 -239.313609 0 120 255
66.117416 -185.897585 -239.717903 0 120 255
67.394527 -187.946668 -240.258073 0 120 255
68.671638 -189.995751 -240.798242 0 120 255
69.948749 -192.044834 -241.338412 0 120 255
71.226054 -194.093751 -241.878679 0 120 255
72.703643 -195.971903 -242.519625 0 120 255
74.181232 -197.850055 -243.160571 0 120 255
75.658821 -199.728207 -243.801517 0 120 255
77.136410 -201.606359 -244.442463 0 120 255
78.806301 -203.295273 -245.133409 0 120 255
80.484274 -204.976234 -245.826456 0 120 255
82.162247 -206.657194 -246.519503 0 120 255
83.840220 -208.338154 -247.212550 0 120 255
85.695967 -209.819517 -247.903183 0 120 255
87.567466 -211.283194 -248.593603 0 120 255
89.438964 -212.746870 -249.284022 0 120 255
91.310463 -214.210547 -249.974441 0 120 255
93.338690 -215.472698 -250.611096 0 120 255
95.388739 -216.706789 -251.240265 0 120 255
97.438789 -217.940880 -251.869434 0 120 255
99.488838 -219.174970 -252.498603 0 120 255
101.668300 -220.214264 -253.026538 0 120 255
103.872940 -221.215658 -253.534777 0 120 255
106.077581 -222.217052 -254.043017 0 120 255
108.282221 -223.218447 -254.551256 0 120 255
110.583681 -224.039981 -254.917443 0 120 255
112.909860 -224.815598 -255.247364 0 120 255
115.236038 -225.591216 -255.577286 0 120 255
117.562216 -226.366833 -255.907208 0 120 255
119.948931 -226.984747 -256.063321 0 120 255
122.355162 -227.551821 -256.163404 0 120 255
124.761393 -228.118894 -256.263486 0 120 255
127.167624 -228.685968 -256.363569 0 120 255
129.596532 -229.123006 -256.268882 0 120 255
132.034442 -229.508428 -256.096886 0 120 255
134.472351 -229.893849 -255.924889 0 120 255
136.910261 -230.279271 -255.752893 0 120 255
139.333734 -230.565746 -255.376814 0 120 255
141.750272 -230.804688 -254.902697 0 120 255
144.166810 -231.043630 -254.428579 0 120 255
146.583347 -231.282572 -253.954462 0 120 255
148.951311 -231.455623 -253.278401 0 120 255
151.291364 -231.590815 -252.486309 0 120 255
153.631417 -231.726006 -251.694217 0 120 255
155.971470 -231.861198 -250.902125 0 120 255
158.234035 -231.961371 -249.920821 0 120 255
160.443750 -232.037660 -248.810474 0 120 255
162.653466 -232.113950 -247.700126 0 120 255
164.863182 -232.190239 -246.589779 0 120 255
166.972301 -232.251342 -245.309959 0 120 255
169.000357 -232.300208 -243.893578 0 120 255
171.028413 -232.349074 -242.477197 0 120 255
173.056470 -232.397940 -241.060816 0 120 255
174.965707 -232.436042 -239.498409 0 120 255
176.762060 -232.463917 -237.797269 0 120 255
178.558412 -232.491792 -236.096129 0 120 255
180.354764 -232.519668 -234.394989 0 120 255
182.020094 -232.539944 -232.574913 0 120 255
183.538721 -232.551713 -230.621667 0 120 255
185.057348 -232.563481 -228.668421 0 120 255
186.575975 -232.575249 -226.715175 0 120 255
187.958340 -232.582875 -224.671833 0 120 255
189.160585 -232.585025 -222.509395 0 120 255
190.362831 -232.587175 -220.346957 0 120 255
191.565076 -232.589325 -218.184519 0 120 255
192.632563 -232.589456 -215.960213 0 120 255
193.488835 -232.586420 -213.638936 0 120 255
194.345106 -232.583385 -211.317660 0 120 255
195.201378 -232.580350 -208.996383 0 120 255
195.930456 -232.576390 -206.639002 0 120 255
196.421470 -232.570700 -204.214047 0 120 255
196.912484 -232.565010 -201.789091 0 120 255
197.403497 -232.559320 -199.364136 0 120 255
197.779808 -232.553065 -196.924933 0 120 255
197.897034 -232.545533 -194.453549 0 120 255
198.014260 -232.538001 -191.982166 0 120 255
198.131486 -232.530469 -189.510782 0 120 255
198.150034 -232.522314 -187.042149 0 120 255
197.895447 -232.512432 -184.581128 0 120 255
197.640859 -232.502551 -182.120107 0 120 255
197.386272 -232.492670 -179.659086 0 120 255
197.051081 -232.481930 -177.212494 0 120 255
196.436354 -232.468211 -174.815943 0 120 255
195.821627 -232.454492 -172.419391 0 120 255
195.206901 -232.440774 -170.022840 0 120 255
194.530244 -232.425991 -167.647069 0 120 255
193.575492 -232.406434 -165.364614 0 120 255
192.620739 -232.386876 -163.082159 0 120 255
191.665987 -232.367318 -160.799704 0 120 255
190.667306 -232.346641 -158.539414 0 120 255
189.399549 -232.319112 -156.414898 0 120 255
188.131791 -232.291582 -154.290382 0 120 255
186.864033 -232.264053 -152.165866 0 120 255
185.568635 -232.235555 -150.060568 0 120 255
184.020169 -232.198189 -148.131217 0 120 255
182.471703 -232.160823 -146.201867 0 120 255
180.923237 -232.123458 -144.272517 0 120 255
179.360937 -232.085461 -142.355905 0 120 255
177.567693 -232.036928 -140.651952 0 120 255
175.774448 -231.988395 -138.948000 0 120 255
173.981203 -231.939862 -137.244047 0 120 255
172.184966 -231.891160 -135.543694 0 120 255
170.184960 -231.830962 -134.088397 0 120 255
168.184955 -231.770764 -132.633100 0 120 255
166.184949 -231.710566 -131.177802 0 120 255
164.184944 -231.650368 -129.722505 0 120 255
162.021597 -231.579278 -128.525106 0 120 255
159.853609 -231.507879 -127.335037 0 120 255
157.685621 -231.436480 -126.144968 0 120 255
155.517632 -231.365081 -124.954899 0 120 255
153.229102 -231.284682 -124.021267 0 120 255
150.931525 -231.203609 -123.106881 0 120 255
148.633948 -231.122535 -122.192494 0 120 255
146.336371 -231.041462 -121.278107 0 120 255
143.956702 -230.954319 -120.612954 0 120 255
141.566676 -230.866411 -119.979249 0 120 255
139.176650 -230.778504 -119.345544 0 120 255
136.786623 -230.690596 -118.711839 0 120 255
134.348219 -230.600485 -118.315773 0 120 255
131.900987 -230.509971 -117.963070 0 120 255
129.453755 -230.419458 -117.610367 0 120 255
127.006524 -230.328945 -117.257663 0 120 255
124.539895 -230.238452 -117.127910 0 120 255
122.068520 -230.147965 -117.052711 0 120 255
119.597146 -230.057477 -116.977512 0 120 255
117.125771 -229.966989 -116.902312 0 120 255
114.659387 -229.877572 -117.033256 0 120 255
112.194568 -229.788491 -117.228887 0 120 255
109.729750 -229.699410 -117.424517 0 120 255
107.264932 -229.610329 -117.620148 0 120 255
104.825131 -229.522884 -118.003805 0 120 255
102.395111 -229.436079 -118.460973 0 120 255
99.965090 -229.349274 -118.918141 0 120 255
97.535070 -229.262469 -119.375309 0 120 255
95.146033 -229.177783 -120.001709 0 120 255
92.776574 -229.094110 -120.708959 0 120 255
90.407116 -229.010437 -121.416209 0 120 255
88.037658 -228.926763 -122.123459 0 120 255
85.721463 -228.845584 -122.981086 0 120 255
83.435951 -228.765843 -123.925338 0 120 255
81.150439 -228.686101 -124.869590 0 120 255
78.864927 -228.606359 -125.813842 0 120 255
76.641678 -228.529363 -126.890002 0 120 255
74.461282 -228.454256 -128.056951 0 120 255
72.280886 -228.379149 -129.223899 0 120 255
70.100490 -228.304042 -130.390848 0 120 255
67.988438 -228.231844 -131.671897 0 120 255
65.932264 -228.162022 -133.046237 0 120 255
63.876090 -228.092201 -134.420577 0 120 255
61.819917 -228.022380 -135.794917 0 120 255
59.835594 -227.955538 -137.266440 0 120 255
57.920845 -227.891580 -138.832065 0 120 255
56.006096 -227.827622 -140.397690 0 120 255
54.091347 -227.763665 -141.963315 0 120 255
52.249685 -227.702674 -143.610248 0 120 255
50.491784 -227.645083 -145.350364 0 120 255
48.733883 -227.587493 -147.090480 0 120 255
46.975982 -227.529902 -148.830596 0 120 255
45.290402 -227.475191 -150.637310 0 120 255
43.703103 -227.424392 -152.534529 0 120 255
42.115805 -227.373594 -154.431747 0 120 255
40.528506 -227.322796 -156.328965 0 120 255
39.011002 -227.274738 -158.279335 0 120 255
37.606456 -227.231116 -160.315725 0 120 255
36.201911 -227.187494 -162.352115 0 120 255
34.797365 -227.143872 -164.388505 0 120 255
33.458530 -227.102797 -166.465932 0 120 255
32.247286 -227.066671 -168.623041 0 120 255
31.036042 -227.030544 -170.780150 0 120 255
29.824798 -226.994418 -172.937259 0 120 255
28.673823 -226.960600 -175.124703 0 120 255
27.664821 -226.932221 -177.383607 0 120 255
26.655820 -226.903841 -179.642511 0 120 255
25.646818 -226.875462 -181.901414 0 120 255
24.691472 -226.849117 -184.181433 0 120 255
23.891974 -226.828678 -186.522784 0 120 255
23.092476 -226.808239 -188.864134 0 120 255
22.292978 -226.787800 -191.205484 0 120 255
21.539542 -226.769088 -193.560280 0 120 255
20.955037 -226.756713 -195.964389 0 120 255
20.370533 -226.744337 -198.368497 0 120 255
19.786028 -226.731962 -200.772606 0 120 255
19.239225 -226.720988 -203.184105 0 120 255
18.873367 -226.716742 -205.631075 0 120 255
18.507508 -226.712497 -208.078046 0 120 255
18.141650 -226.708251 -210.525017 0 120 255
17.804588 -226.705064 -212.974982 0 120 255
17.659142 -226.708916 -215.444874 0 120 255
17.513695 -226.712769 -217.914766 0 120 255
17.368248 -226.716622 -220.384658 0 120 255
17.242373 -226.721187 -222.854828 0 120 255
17.317096 -226.733055 -225.327845 0 120 255
17.391819 -226.744924 -227.800861 0 120 255
17.466542 -226.756792 -230.273878 0 120 255
17.551542 -226.769032 -232.746126 0 120 255
17.844244 -226.788768 -235.202846 0 120 255
18.136946 -226.808504 -237.659566 0 120 255
18.429648 -226.828240 -240.116286 0 120 255
18.723507 -226.848017 -242.572815 0 120 255
19.229989 -226.875409 -244.994439 0 120 255
19.736471 -226.902801 -247.416063 0 120 255
20.242954 -226.930193 -249.837687 0 120 255
20.749436 -226.957585 -252.259310 0 120 255
21.456065 -226.992081 -254.629840 0 120 255
22.170237 -227.026844 -256.998444 0 120 255
22.884408 -227.061607 -259.367049 0 120 255
23.598580 -227.096370 -261.735653 0 120 255
24.496968 -227.137596 -264.039890 0 120 255
25.410949 -227.179370 -266.338679 0 120 255
26.324930 -227.221143 -268.637467 0 120 255
27.238911 -227.262917 -270.936256 0 120 255
28.320443 -227.310504 -273.159985 0 120 255
29.424772 -227.358882 -275.373501 0 120 255
30.529101 -227.407260 -277.587017 0 120 255
31.633430 -227.455638 -279.800533 0 120 255
32.888236 -227.509209 -281.930892 0 120 255
34.172023 -227.563781 -284.045235 0 120 255
35.455811 -227.618352 -286.159579 0 120 255
36.739598 -227.672923 -288.273922 0 120 255
38.156748 -227.732004 -290.299554 0 120 255
39.607918 -227.792235 -292.302554 0 120 255
41.059089 -227.852467 -294.305555 0 120 255
42.510260 -227.912698 -296.308555 0 120 255
44.077906 -227.976833 -298.219776 0 120 255
45.683355 -228.042234 -300.101210 0 120 255
47.288805 -228.107636 -301.982643 0 120 255
48.894254 -228.173038 -303.864076 0 120 255
50.599974 -228.241757 -305.652885 0 120 255
52.346022 -228.311811 -307.404439 0 120 255
54.092070 -228.381864 -309.155994 0 120 255
55.838118 -228.451918 -310.907549 0 120 255
57.669164 -228.524793 -312.567627 0 120 255
59.541821 -228.599051 -314.182922 0 120 255
61.414478 -228.673308 -315.798217 0 120 255
63.287134 -228.747565 -317.413512 0 120 255
65.230627 -228.824274 -318.940246 0 120 255
67.215812 -228.902426 -320.414854 0 120 255
69.200997 -228.980578 -321.889462 0 120 255
71.186181 -229.058731 -323.364071 0 120 255
73.229264 -229.138833 -324.754617 0 120 255
75.312978 -229.220302 -326.086170 0 120 255
77.396692 -229.301772 -327.417723 0 120 255
79.480407 -229.383242 -328.749276 0 120 255
81.610296 -229.465251 -330.002892 0 120 255
83.778626 -229.547709 -331.191622 0 120 255
85.946956 -229.630168 -332.380353 0 120 255
88.115286 -229.712626 -333.569084 0 120 255
90.318958 -229.789764 -334.688659 0 120 255
92.557444 -229.861660 -335.740107 0 120 255
94.795931 -229.933556 -336.791556 0 120 255
97.034418 -230.005452 -337.843005 0 120 255
99.299257 -230.067285 -338.834519 0 120 255
101.594814 -230.117390 -339.756173 0 120 255
103.890370 -230.167495 -340.677827 0 120 255
106.185926 -230.217601 -341.599481 0 120 255
108.500586 -230.254933 -342.470216 0 120 255
110.841652 -230.274609 -343.270564 0 120 255
113.182719 -230.294285 -344.070913 0 120 255
115.523785 -230.313961 -344.871261 0 120 255
117.878197 -230.319679 -345.629342 0 120 255
120.254597 -230.302400 -346.317790 0 120 255
122.630997 -230.285122 -347.006239 0 120 255
125.007397 -230.267844 -347.694687 0 120 255
127.392696 -230.236701 -348.348953 0 120 255
129.795609 -230.178119 -348.935565 0 120 255
132.198522 -230.119537 -349.522178 0 120 255
134.601435 -230.060955 -350.108791 0 120 255
137.009938 -229.989620 -350.668577 0 120 255
139.431894 -229.887599 -351.163813 0 120 255
141.853849 -229.785577 -351.659049 0 120 255
144.275805 -229.683556 -352.154285 0 120 255
146.701005 -229.570631 -352.629232 0 120 255
149.135866 -229.425252 -353.043789 0 120 255
151.570726 -229.279872 -353.458345 0 120 255
154.005586 -229.134493 -353.872902 0 120 255
156.442139 -228.980510 -354.272822 0 120 255
158.885085 -228.794037 -354.617459 0 120 255
161.328032 -228.607563 -354.962096 0 120 255
163.770979 -228.421089 -355.306733 0 120 255
166.214670 -228.228730 -355.641806 0 120 255
168.662073 -228.007059 -355.929241 0 120 255
171.109475 -227.785387 -356.216676 0 120 255
173.556878 -227.563715 -356.504110 0 120 255
176.004250 -227.340821 -356.790835 0 120 255
178.451408 -227.109389 -357.072600 0 120 255
180.898566 -226.877957 -357.354366 0 120 255
183.345724 -226.646524 -357.636131 0 120 255
185.792882 -226.415091 -357.917898 0 120 255
188.240038 -226.183648 -358.199676 0 120 255
190.687194 -225.952204 -358.481454 0 120 255
193.134350 -225.720761 -358.763232 0 120 255
195.581505 -225.489318 -359.045009 0 120 255
198.028662 -225.257878 -359.326780 0 120 255
200.475819 -225.026439 -359.608550 0 120 255
202.922976 -224.795000 -359.890320 0 120 255
205.370133 -224.563560 -360.172091 0 120 255
