ply
format ascii 1.0
element vertex 385
property float x
property float y
property float z
property uchar red
property uchar green
property uchar blue
end_header
77.430455 -42.474882 -360.397637 0 120 255
77.187532 -42.528716 -357.935726 0 120 255
76.944609 -42.582550 -355.473815 0 120 255
76.701686 -42.636384 -353.011905 0 120 255
76.458763 -42.690218 -350.549994 0 120 255
76.210967 -42.767904 -348.089211 0 120 255
75.962962 -42.846618 -345.628478 0 120 255
75.714956 -42.925333 -343.167744 0 120 255
75.466951 -43.004047 -340.707010 0 120 255
75.317287 -43.208291 -338.246013 0 120 255
75.176503 -43.423870 -335.784993 0 120 255
75.035718 -43.639448 -333.323973 0 120 255
74.894934 -43.855027 -330.862953 0 120 255
74.859106 -44.180988 -328.411014 0 120 255
74.838486 -44.522944 -325.960391 0 120 255
74.817866 -44.864900 -323.509768 0 120 255
74.797247 -45.206856 -321.059144 0 120 255
74.878604 -45.664996 -318.629867 0 120 255
74.980968 -46.147070 -316.204988 0 120 255
75.083333 -46.629143 -313.780109 0 120 255
75.185697 -47.111217 -311.355229 0 120 255
75.383160 -47.712220 -308.964407 0 120 255
75.606756 -48.345902 -306.582945 0 120 255
75.830351 -48.979585 -304.201482 0 120 255
76.053947 -49.613268 -301.820019 0 120 255
76.363008 -50.365142 -299.484677 0 120 255
76.702228 -51.158724 -297.165610 0 120 255
77.041449 -51.952307 -294.846544 0 120 255
77.380669 -52.745889 -292.527477 0 120 255
77.794125 -53.653493 -290.265040 0 120 255
78.240406 -54.611516 -288.027645 0 120 255
78.686687 -55.569539 -285.790249 0 120 255
79.132968 -56.527562 -283.552854 0 120 255
79.641695 -57.592420 -281.380403 0 120 255
80.184469 -58.715527 -279.243363 0 120 255
80.727243 -59.838634 -277.106323 0 120 255
81.270017 -60.961741 -274.969283 0 120 255
81.863747 -62.182094 -272.902934 0 120 255
82.491370 -63.467130 -270.883606 0 120 255
83.118993 -64.752166 -268.864278 0 120 255
83.746617 -66.037202 -266.844950 0 120 255
84.414651 -67.408249 -264.899390 0 120 255
85.115272 -68.848653 -263.013315 0 120 255
85.815893 -70.289057 -261.127240 0 120 255
86.516515 -71.729461 -259.241164 0 120 255
87.248363 -73.243733 -257.429357 0 120 255
88.010652 -74.830011 -255.689946 0 120 255
88.772942 -76.416290 -253.950535 0 120 255
89.535231 -78.002568 -252.211125 0 120 255
90.321134 -79.650344 -250.544150 0 120 255
91.134870 -81.370608 -248.962556 0 120 255
91.948606 -83.090872 -247.380962 0 120 255
92.762342 -84.811136 -245.799369 0 120 255
93.593672 -86.580883 -244.286383 0 120 255
94.450163 -88.421401 -242.871523 0 120 255
95.306655 -90.261920 -241.456663 0 120 255
96.163146 -92.102438 -240.041803 0 120 255
97.032706 -93.981228 -238.690102 0 120 255
97.925105 -95.926906 -237.448782 0 120 255
98.817503 -97.872584 -236.207462 0 120 255
99.709902 -99.818262 -234.966141 0 120 255
100.612121 -101.792135 -233.781264 0 120 255
101.535554 -103.826914 -232.718315 0 120 255
102.458987 -105.861692 -231.655366 0 120 255
103.382420 -107.896471 -230.592417 0 120 255
104.313444 -109.950731 -229.578287 0 120 255
105.265093 -112.057929 -228.696815 0 120 255
106.216743 -114.165128 -227.815344 0 120 255
107.168393 -116.272326 -226.933872 0 120 255
108.126121 -118.391794 -226.092987 0 120 255
109.105183 -120.554326 -225.394555 0 120 255
110.084244 -122.716858 -224.696123 0 120 255
111.063306 -124.879390 -223.997691 0 120 255
112.047347 -127.048557 -223.331264 0 120 255
113.054919 -129.249077 -222.816069 0 120 255
114.062491 -131.449597 -222.300875 0 120 255
115.070063 -133.650116 -221.785680 0 120 255
116.081644 -135.853249 -221.293780 0 120 255
117.120574 -138.074209 -220.960802 0 120 255
118.159503 -140.295170 -220.627825 0 120 255
119.198433 -142.516130 -220.294847 0 120 255
120.240267 -144.737310 -219.976511 0 120 255
121.314923 -146.960967 -219.823619 0 120 255
122.389580 -149.184625 -219.670727 0 120 255
123.464236 -151.408282 -219.517836 0 120 255
124.540339 -153.631406 -219.371039 0 120 255
125.656193 -155.839881 -219.391641 0 120 255
126.772047 -158.048355 -219.412243 0 120 255
127.887900 -160.256830 -219.432845 0 120 255
129.003754 -162.465304 -219.453447 0 120 255
130.167228 -164.640750 -219.644062 0 120 255
131.331210 -166.815843 -219.836494 0 120 255
132.495192 -168.990936 -220.028925 0 120 255
133.659174 -171.166029 -220.221357 0 120 255
134.875578 -173.290922 -220.576666 0 120 255
136.095051 -175.412875 -220.941512 0 120 255
137.314524 -177.534829 -221.306357 0 120 255
138.533997 -179.656782 -221.671203 0 120 255
139.810006 -181.712223 -222.187442 0 120 255
141.092263 -183.760314 -222.720409 0 120 255
142.374519 -185.808406 -223.253377 0 120 255
143.656776 -187.856497 -223.786345 0 120 255
144.998803 -189.822592 -224.458212 0 120 255
146.350813 -191.774991 -225.153280 0 120 255
147.702823 -193.727391 -225.848348 0 120 255
149.054833 -195.679790 -226.543416 0 120 255
150.468708 -197.535635 -227.363849 0 120 255
151.896730 -199.369399 -228.212951 0 120 255
153.324753 -201.203163 -229.062053 0 120 255
154.752775 -203.036928 -229.911156 0 120 255
156.243313 -204.760716 -230.871046 0 120 255
157.752364 -206.451938 -231.863743 0 120 255
159.261415 -208.143159 -232.856441 0 120 255
160.770467 -209.834381 -233.849138 0 120 255
162.341049 -211.403568 -234.937058 0 120 255
163.934402 -212.927592 -236.060218 0 120 255
165.527756 -214.451616 -237.183378 0 120 255
167.121110 -215.975640 -238.306538 0 120 255
168.773195 -217.367269 -239.508463 0 120 255
170.451799 -218.699122 -240.745949 0 120 255
172.130402 -220.030975 -241.983436 0 120 255
173.809005 -221.362828 -243.220923 0 120 255
175.541668 -222.553935 -244.520034 0 120 255
177.303604 -223.668831 -245.852514 0 120 255
179.065540 -224.783727 -247.184994 0 120 255
180.827476 -225.898623 -248.517475 0 120 255
182.636946 -226.866841 -249.893989 0 120 255
184.476906 -227.740978 -251.298747 0 120 255
186.316866 -228.615115 -252.703505 0 120 255
188.156826 -229.489252 -254.108263 0 120 255
190.036074 -230.213537 -255.539402 0 120 255
191.944907 -230.824975 -256.990406 0 120 255
193.853740 -231.436412 -258.441410 0 120 255
195.762573 -232.047850 -259.892415 0 120 255
197.700984 -232.509339 -261.352520 0 120 255
199.665383 -232.839070 -262.820623 0 120 255
201.629782 -233.168802 -264.288726 0 120 255
203.594182 -233.498534 -265.756829 0 120 255
205.577264 -233.684214 -267.217728 0 120 255
207.579423 -233.722799 -268.671269 0 120 255
209.581582 -233.761385 -270.124811 0 120 255
211.583741 -233.799970 -271.578353 0 120 255
213.593569 -233.698767 -273.009948 0 120 255
215.612486 -233.431901 -274.415534 0 120 255
217.631403 -233.165035 -275.821119 0 120 255
219.650320 -232.898169 -277.226704 0 120 255
221.664858 -232.496797 -278.596712 0 120 255
223.673401 -231.911268 -279.918010 0 120 255
225.681943 -231.325740 -281.239307 0 120 255
227.690486 -230.740212 -282.560605 0 120 255
229.682625 -230.031411 -283.834940 0 120 255
231.648803 -229.127508 -285.034947 0 120 255
233.614981 -228.223605 -286.234955 0 120 255
235.581159 -227.319702 -287.434962 0 120 255
237.519822 -226.306848 -288.579426 0 120 255
239.408007 -225.094109 -289.621988 0 120 255
241.296192 -223.881370 -290.664550 0 120 255
243.184377 -222.668631 -291.707112 0 120 255
245.035675 -221.363694 -292.688818 0 120 255
246.808108 -219.861633 -293.540409 0 120 255
248.580541 -218.359571 -294.391999 0 120 255
250.352974 -216.857510 -295.243590 0 120 255
252.081601 -215.281491 -296.032583 0 120 255
253.700130 -213.519595 -296.664250 0 120 255
255.318658 -211.757700 -297.295917 0 120 255
256.937187 -209.995804 -297.927584 0 120 255
258.508027 -208.178547 -298.498479 0 120 255
259.936152 -206.195612 -298.887503 0 120 255
261.364277 -204.212677 -299.276527 0 120 255
262.792402 -202.229741 -299.665551 0 120 255
264.172304 -200.209146 -299.998937 0 120 255
265.377093 -198.051799 -300.130287 0 120 255
266.581882 -195.894453 -300.261637 0 120 255
267.786671 -193.737107 -300.392987 0 120 255
268.946084 -191.557698 -300.476569 0 120 255
269.899956 -189.278354 -300.343778 0 120 255
270.853828 -186.999010 -300.210988 0 120 255
271.807700 -184.719666 -300.078198 0 120 255
272.722157 -182.430708 -299.907449 0 120 255
273.404243 -180.085069 -299.512920 0 120 255
274.086329 -177.739431 -299.118392 0 120 255
274.768415 -175.393792 -298.723863 0 120 255
275.419604 -173.047074 -298.302160 0 120 255
275.816525 -170.691463 -297.656819 0 120 255
276.213446 -168.335852 -297.011479 0 120 255
276.610367 -165.980240 -296.366138 0 120 255
276.986728 -163.627770 -295.704380 0 120 255
277.092909 -161.316572 -294.826882 0 120 255
277.199090 -159.005374 -293.949385 0 120 255
277.305271 -156.694175 -293.071887 0 120 255
277.402179 -154.386015 -292.187740 0 120 255
277.219457 -152.169470 -291.103096 0 120 255
277.036734 -149.952925 -290.018451 0 120 255
276.854012 -147.736380 -288.933806 0 120 255
276.671290 -145.519835 -287.849161 0 120 255
276.210355 -143.441257 -286.588605 0 120 255
275.747315 -141.363724 -285.326716 0 120 255
275.284274 -139.286190 -284.064828 0 120 255
274.821234 -137.208657 -282.802940 0 120 255
274.104873 -135.299032 -281.403848 0 120 255
273.375718 -133.397888 -279.997826 0 120 255
272.646563 -131.496743 -278.591805 0 120 255
271.917408 -129.595599 -277.185783 0 120 255
270.962881 -127.882183 -275.680272 0 120 255
269.986192 -126.187228 -274.164977 0 120 255
269.009502 -124.492273 -272.649681 0 120 255
268.032813 -122.797318 -271.134386 0 120 255
266.860085 -121.300669 -269.554756 0 120 255
265.657596 -119.834123 -267.965360 0 120 255
264.455108 -118.367578 -266.375964 0 120 255
263.252620 -116.901032 -264.786567 0 120 255
261.883311 -115.635363 -263.164432 0 120 255
260.478679 -114.412227 -261.535364 0 120 255
259.074047 -113.189091 -259.906297 0 120 255
257.669415 -111.965955 -258.277229 0 120 255
256.125995 -110.939675 -256.642815 0 120 255
254.543816 -109.968369 -255.006909 0 120 255
252.961638 -108.997063 -253.371002 0 120 255
251.379460 -108.025757 -251.735095 0 120 255
249.684510 -107.242184 -250.116792 0 120 255
247.949457 -106.525374 -248.504748 0 120 255
246.214403 -105.808564 -246.892704 0 120 255
244.479349 -105.091754 -245.280660 0 120 255
242.655064 -104.549850 -243.704716 0 120 255
240.791292 -104.085346 -242.144747 0 120 255
238.927519 -103.620842 -240.584778 0 120 255
237.063747 -103.156337 -239.024809 0 120 255
235.131560 -102.851434 -237.515212 0 120 255
233.162293 -102.633034 -236.032916 0 120 255
231.193025 -102.414635 -234.550621 0 120 255
229.223757 -102.196235 -233.068325 0 120 255
227.204124 -102.120715 -231.646779 0 120 255
225.151409 -102.139042 -230.265135 0 120 255
223.098695 -102.157368 -228.883491 0 120 255
221.045980 -102.175695 -227.501847 0 120 255
218.958269 -102.319606 -226.187840 0 120 255
216.842892 -102.562802 -224.927305 0 120 255
214.727514 -102.805997 -223.666770 0 120 255
212.612137 -103.049193 -222.406235 0 120 255
210.474631 -103.400772 -221.217146 0 120 255
208.316146 -103.855104 -220.095791 0 120 255
206.157661 -104.309435 -218.974435 0 120 255
203.999175 -104.763767 -217.853079 0 120 255
201.829135 -105.309862 -216.804309 0 120 255
199.645969 -105.960192 -215.837992 0 120 255
197.462803 -106.610523 -214.871674 0 120 255
195.279637 -107.260854 -213.905357 0 120 255
193.093421 -107.987279 -213.010475 0 120 255
190.903048 -108.817469 -212.213002 0 120 255
188.712674 -109.647658 -211.415529 0 120 255
186.522300 -110.477847 -210.618056 0 120 255
184.335522 -111.369650 -209.888910 0 120 255
182.154657 -112.362808 -209.272161 0 120 255
179.973792 -113.355967 -208.655412 0 120 255
177.792927 -114.349126 -208.038664 0 120 255
175.620620 -115.390783 -207.485491 0 120 255
173.465436 -116.529498 -207.059547 0 120 255
171.310253 -117.668213 -206.633603 0 120 255
169.155070 -118.806928 -206.207659 0 120 255
167.011866 -119.982495 -205.839160 0 120 255
164.898205 -121.248946 -205.612333 0 120 255
162.784543 -122.515397 -205.385506 0 120 255
160.670882 -123.781848 -205.158679 0 120 255
158.571185 -125.075046 -204.982037 0 120 255
156.514753 -126.451110 -204.960871 0 120 255
154.458321 -127.827175 -204.939706 0 120 255
152.401889 -129.203239 -204.918541 0 120 255
150.360034 -130.597530 -204.939407 0 120 255
148.376571 -132.064833 -205.128649 0 120 255
146.393109 -133.532137 -205.317891 0 120 255
144.409647 -134.999440 -205.507133 0 120 255
142.440028 -136.478059 -205.729592 0 120 255
140.545426 -138.018000 -206.132059 0 120 255
138.650824 -139.557940 -206.534526 0 120 255
136.756221 -141.097880 -206.936993 0 120 255
134.873392 -142.643861 -207.363452 0 120 255
133.083795 -144.237674 -207.979908 0 120 255
131.294199 -145.831487 -208.596364 0 120 255
129.504602 -147.425299 -209.212820 0 120 255
127.723430 -149.021485 -209.844103 0 120 255
126.056310 -150.649793 -210.676112 0 120 255
124.389190 -152.278102 -211.508120 0 120 255
122.722071 -153.906410 -212.340129 0 120 255
121.058522 -155.535108 -213.177542 0 120 255
119.530607 -157.178624 -214.220252 0 120 255
118.002693 -158.822141 -215.262963 0 120 255
116.474778 -160.465657 -216.305673 0 120 255
114.946864 -162.109173 -217.348384 0 120 255
113.569765 -163.750178 -218.586331 0 120 255
112.195404 -165.391137 -219.827822 0 120 255
110.821043 -167.032096 -221.069313 0 120 255
109.446682 -168.673055 -222.310803 0 120 255
108.230642 -170.295072 -223.728391 0 120 255
107.024891 -171.915857 -225.157423 0 120 255
105.819140 -173.536643 -226.586455 0 120 255
104.613390 -175.157428 -228.015488 0 120 255
103.571710 -176.744984 -229.600234 0 120 255
102.549057 -178.328685 -231.203039 0 120 255
101.526405 -179.912387 -232.805845 0 120 255
100.503752 -181.496089 -234.408650 0 120 255
99.649080 -183.034385 -236.145831 0 120 255
98.823247 -184.564886 -237.906081 0 120 255
97.997414 -186.095387 -239.666331 0 120 255
97.171581 -187.625888 -241.426581 0 120 255
96.515696 -189.100945 -243.299162 0 120 255
95.899372 -190.563095 -245.197892 0 120 255
95.283049 -192.025246 -247.096622 0 120 255
94.666725 -193.487396 -248.995351 0 120 255
94.220293 -194.886185 -250.983997 0 120 255
93.824845 -196.265958 -252.999626 0 120 255
93.429397 -197.645732 -255.015254 0 120 255
93.033949 -199.025506 -257.030883 0 120 255
92.806232 -200.336114 -259.113988 0 120 255
92.641351 -201.620812 -261.222371 0 120 255
92.476470 -202.905509 -263.330755 0 120 255
92.311589 -204.190207 -265.439138 0 120 255
92.310160 -205.401998 -267.592942 0 120 255
92.383526 -206.580427 -269.767531 0 120 255
92.456892 -207.758856 -271.942120 0 120 255
92.530258 -208.937284 -274.116709 0 120 255
92.760672 -210.041097 -276.315449 0 120 255
93.077551 -211.103829 -278.527485 0 120 255
93.394429 -212.166560 -280.739521 0 120 255
93.711308 -213.229292 -282.951557 0 120 255
94.176795 -214.217622 -285.167707 0 120 255
94.739692 -215.157182 -287.386555 0 120 255
95.302590 -216.096743 -289.605403 0 120 255
95.865487 -217.036304 -291.824251 0 120 255
96.566649 -217.903473 -294.028854 0 120 255
97.374949 -218.714548 -296.222418 0 120 255
98.183249 -219.525622 -298.415982 0 120 255
98.991549 -220.336697 -300.609545 0 120 255
99.926103 -221.079031 -302.772591 0 120 255
100.975807 -221.758671 -304.907802 0 120 255
102.025511 -222.438310 -307.043013 0 120 255
103.075215 -223.117949 -309.178223 0 120 255
104.237776 -223.733917 -311.269123 0 120 255
105.521243 -224.281671 -313.312549 0 120 255
106.804711 -224.829424 -315.355975 0 120 255
108.088178 -225.377178 -317.399401 0 120 255
109.470094 -225.867479 -319.387522 0 120 255
110.975925 -226.285465 -321.306030 0 120 255
112.481757 -226.703451 -323.224538 0 120 255
113.987589 -227.121436 -325.143046 0 120 255
115.576864 -227.489068 -326.998296 0 120 255
117.289851 -227.782044 -328.759759 0 120 255
119.002839 -228.075019 -330.521222 0 120 255
120.715826 -228.367995 -332.282686 0 120 255
122.497131 -228.618260 -333.976120 0 120 255
124.398336 -228.793566 -335.550160 0 120 255
126.299540 -228.968872 -337.124200 0 120 255
128.200745 -229.144179 -338.698240 0 120 255
130.155515 -229.284628 -340.202690 0 120 255
132.222443 -229.352092 -341.561429 0 120 255
134.289371 -229.419557 -342.920168 0 120 255
136.356299 -229.487021 -344.278907 0 120 255
138.462918 -229.527343 -345.569604 0 120 255
140.669854 -229.499066 -346.688330 0 120 255
142.876790 -229.470788 -347.807056 0 120 255
145.083726 -229.442510 -348.925782 0 120 255
147.317836 -229.394338 -349.980901 0 120 255
149.636239 -229.284454 -350.838718 0 120 255
151.954641 -229.174570 -351.696535 0 120 255
154.273043 -229.064685 -352.554352 0 120 255
156.607893 -228.941377 -353.355555 0 120 255
159.006897 -228.765707 -353.935930 0 120 255
161.405900 -228.590037 -354.516304 0 120 255
163.804904 -228.414367 -355.096679 0 120 255
166.211838 -228.231054 -355.629436 0 120 255
168.659109 -228.008861 -355.919961 0 120 255
171.106381 -227.786668 -356.210486 0 120 255
173.553653 -227.564474 -356.501010 0 120 255
176.000945 -227.341134 -356.790454 0 120 255
178.448379 -227.109675 -357.072252 0 120 255
180.895812 -226.878217 -357.354049 0 120 255
183.343246 -226.646759 -357.635846 0 120 255
185.790679 -226.415299 -357.917644 0 120 255
188.238110 -226.183830 -358.199454 0 120 255
190.685541 -225.952361 -358.481263 0 120 255
193.132973 -225.720891 -358.763073 0 120 255
195.580404 -225.489422 -359.044882 0 120 255
198.027836 -225.257956 -359.326684 0 120 255
200.475268 -225.026491 -359.608487 0 120 255
202.922701 -224.795026 -359.890289 0 120 255
205.370133 -224.563560 -360.172091 0 120 255
