ply
format ascii 1.0
element vertex 385
property float x
property float y
property float z
property uchar red
property uchar green
property uchar blue
end_header
77.430455 -42.474882 -360.397637 0 120 255
77.187563 -42.528709 -357.936035 0 120 255
76.944670 -42.582536 -355.474434 0 120 255
76.701778 -42.636363 -353.012832 0 120 255
76.458885 -42.690191 -350.551231 0 120 255
76.213396 -42.753723 -348.090119 0 120 255
75.967793 -42.817679 -345.629029 0 120 255
75.722191 -42.881634 -343.167939 0 120 255
75.476588 -42.945590 -340.706849 0 120 255
75.108497 -43.324729 -338.292003 0 120 255
74.729199 -43.732703 -335.881388 0 120 255
74.349901 -44.140678 -333.470773 0 120 255
73.970603 -44.548653 -331.060157 0 120 255
73.509718 -45.188212 -328.717011 0 120 255
73.036768 -45.862017 -326.383841 0 120 255
72.563819 -46.535822 -324.050671 0 120 255
72.090869 -47.209627 -321.717501 0 120 255
71.572244 -48.062403 -319.455435 0 120 255
71.044020 -48.952789 -317.208310 0 120 255
70.515797 -49.843176 -314.961186 0 120 255
69.987573 -50.733562 -312.714062 0 120 255
69.443923 -51.768968 -310.535415 0 120 255
68.895964 -52.844880 -308.375893 0 120 255
68.348005 -53.920791 -306.216372 0 120 255
67.800046 -54.996702 -304.056851 0 120 255
67.259963 -56.196819 -301.963451 0 120 255
66.722688 -57.441229 -299.893632 0 120 255
66.185413 -58.685640 -297.823812 0 120 255
65.648139 -59.930051 -295.753992 0 120 255
65.135036 -61.285490 -293.750696 0 120 255
64.632660 -62.690195 -291.776919 0 120 255
64.130284 -64.094901 -289.803142 0 120 255
63.627908 -65.499607 -287.829365 0 120 255
63.159817 -67.005532 -285.925258 0 120 255
62.710334 -68.566392 -284.058963 0 120 255
62.260851 -70.127252 -282.192668 0 120 255
61.811368 -71.688112 -280.326373 0 120 255
61.401365 -73.341015 -278.534455 0 120 255
61.017271 -75.054321 -276.791345 0 120 255
60.633177 -76.767626 -275.048235 0 120 255
60.249082 -78.480931 -273.305125 0 120 255
59.906202 -80.276328 -271.641160 0 120 255
59.595783 -82.136380 -270.039529 0 120 255
59.285364 -83.996432 -268.437898 0 120 255
58.974944 -85.856484 -266.836267 0 120 255
58.705332 -87.787517 -265.317372 0 120 255
58.474136 -89.785372 -263.876366 0 120 255
58.242941 -91.783227 -262.435359 0 120 255
58.011745 -93.781083 -260.994353 0 120 255
57.819925 -95.837830 -259.637609 0 120 255
57.672352 -97.960753 -258.375549 0 120 255
57.524779 -100.083676 -257.113489 0 120 255
57.377206 -102.206599 -255.851428 0 120 255
57.267306 -104.375866 -254.672672 0 120 255
57.208001 -106.607375 -253.605796 0 120 255
57.148696 -108.838885 -252.538920 0 120 255
57.089391 -111.070394 -251.472043 0 120 255
57.066212 -113.335833 -250.484920 0 120 255
57.101260 -115.655960 -249.626341 0 120 255
57.136309 -117.976087 -248.767763 0 120 255
57.171357 -120.296215 -247.909184 0 120 255
57.241239 -122.638569 -247.124364 0 120 255
57.378995 -125.024232 -246.483262 0 120 255
57.516750 -127.409894 -245.842160 0 120 255
57.654506 -129.795557 -245.201058 0 120 255
57.825917 -132.192962 -244.625598 0 120 255
58.077502 -134.618337 -244.206511 0 120 255
58.329088 -137.043713 -243.787425 0 120 255
58.580673 -139.469089 -243.368338 0 120 255
58.864510 -141.897364 -243.005083 0 120 255
59.243865 -144.334227 -242.807179 0 120 255
59.623219 -146.771089 -242.609275 0 120 255
60.002573 -149.207952 -242.411370 0 120 255
60.412127 -151.640877 -242.258349 0 120 255
60.935648 -154.058941 -242.274706 0 120 255
61.459169 -156.477005 -242.291063 0 120 255
61.982690 -158.895069 -242.307420 0 120 255
62.533265 -161.304668 -242.357212 0 120 255
63.218961 -163.671988 -242.573992 0 120 255
63.904657 -166.039308 -242.790772 0 120 255
64.590352 -168.406628 -243.007553 0 120 255
65.298520 -170.763515 -243.246610 0 120 255
66.164728 -173.047034 -243.642341 0 120 255
67.030936 -175.330552 -244.038072 0 120 255
67.897143 -177.614071 -244.433803 0 120 255
68.779632 -179.887928 -244.841838 0 120 255
69.843258 -182.054291 -245.386766 0 120 255
70.906883 -184.220654 -245.931694 0 120 255
71.970508 -186.387018 -246.476622 0 120 255
73.042728 -188.547279 -247.026073 0 120 255
74.317160 -190.563974 -247.681925 0 120 255
75.591592 -192.580668 -248.337778 0 120 255
76.866024 -194.597362 -248.993630 0 120 255
78.140457 -196.614056 -249.649482 0 120 255
79.633111 -198.451060 -250.369706 0 120 255
81.125903 -200.287950 -251.089971 0 120 255
82.618696 -202.124840 -251.810236 0 120 255
84.111489 -203.961730 -252.530501 0 120 255
85.813005 -205.601515 -253.261069 0 120 255
87.523616 -207.232711 -253.992085 0 120 255
89.234227 -208.863906 -254.723101 0 120 255
90.944839 -210.495102 -255.454118 0 120 255
92.845587 -211.919682 -256.141013 0 120 255
94.763465 -213.325647 -256.823933 0 120 255
96.681344 -214.731613 -257.506853 0 120 255
98.599222 -216.137578 -258.189773 0 120 255
100.679716 -217.336339 -258.777008 0 120 255
102.783086 -218.505951 -259.350783 0 120 255
104.886456 -219.675563 -259.924558 0 120 255
106.989827 -220.845175 -260.498333 0 120 255
109.220565 -221.816375 -260.930939 0 120 255
111.476271 -222.748682 -261.335871 0 120 255
113.731977 -223.680988 -261.740803 0 120 255
115.987683 -224.613295 -262.145736 0 120 255
118.329957 -225.364939 -262.373259 0 120 255
120.694468 -226.070173 -262.555209 0 120 255
123.058980 -226.775407 -262.737158 0 120 255
125.423491 -227.480642 -262.919108 0 120 255
127.831138 -228.030674 -262.898880 0 120 255
130.252772 -228.530379 -262.813092 0 120 255
132.674406 -229.030083 -262.727303 0 120 255
135.096040 -229.529788 -262.641515 0 120 255
137.517981 -229.905374 -262.341472 0 120 255
139.940045 -230.231390 -261.955860 0 120 255
142.362109 -230.557405 -261.570248 0 120 255
144.784172 -230.883421 -261.184636 0 120 255
147.167399 -231.119400 -260.585323 0 120 255
149.531838 -231.311824 -259.882629 0 120 255
151.896277 -231.504247 -259.179936 0 120 255
154.260716 -231.696671 -258.477243 0 120 255
156.553367 -231.834489 -257.572885 0 120 255
158.804436 -231.940679 -256.551716 0 120 255
161.055506 -232.046868 -255.530547 0 120 255
163.306575 -232.153058 -254.509378 0 120 255
165.460940 -232.237078 -253.307781 0 120 255
167.548723 -232.305832 -251.981956 0 120 255
169.636505 -232.374587 -250.656130 0 120 255
171.724288 -232.443342 -249.330305 0 120 255
173.696529 -232.501540 -247.847967 0 120 255
175.574626 -232.551136 -246.238102 0 120 255
177.452724 -232.600731 -244.628236 0 120 255
179.330821 -232.650327 -243.018371 0 120 255
181.079578 -232.691984 -241.277986 0 120 255
182.703893 -232.726002 -239.412022 0 120 255
184.328207 -232.760020 -237.546057 0 120 255
185.952521 -232.794038 -235.680093 0 120 255
187.440056 -232.822564 -233.711692 0 120 255
188.772266 -232.844853 -231.626962 0 120 255
190.104475 -232.867142 -229.542233 0 120 255
191.436685 -232.889431 -227.457504 0 120 255
192.631368 -232.908287 -225.298583 0 120 255
193.641333 -232.922531 -223.040012 0 120 255
194.651299 -232.936775 -220.781441 0 120 255
195.661264 -232.951019 -218.522870 0 120 255
196.538933 -232.962886 -216.216498 0 120 255
197.205499 -232.970960 -213.833853 0 120 255
197.872065 -232.979035 -211.451207 0 120 255
198.538631 -232.987109 -209.068561 0 120 255
199.083165 -232.993198 -206.661238 0 120 255
199.394624 -232.995496 -204.206780 0 120 255
199.706083 -232.997794 -201.752322 0 120 255
200.017542 -233.000092 -199.297864 0 120 255
200.221048 -233.000435 -196.837592 0 120 255
200.175020 -232.996258 -194.363883 0 120 255
200.128991 -232.992080 -191.890173 0 120 255
200.082963 -232.987903 -189.416463 0 120 255
199.945553 -232.981675 -186.950999 0 120 255
199.548365 -232.969619 -184.508977 0 120 255
199.151177 -232.957564 -182.066955 0 120 255
198.753989 -232.945508 -179.624933 0 120 255
198.283186 -232.931374 -177.200261 0 120 255
197.548947 -232.909807 -174.837677 0 120 255
196.814709 -232.888239 -172.475092 0 120 255
196.080471 -232.866672 -170.112508 0 120 255
195.290387 -232.843162 -167.771603 0 120 255
194.239820 -232.810590 -165.531822 0 120 255
193.189252 -232.778018 -163.292040 0 120 255
192.138684 -232.745446 -161.052258 0 120 255
191.049040 -232.711260 -158.834144 0 120 255
189.708165 -232.666693 -156.755336 0 120 255
188.367290 -232.622126 -154.676528 0 120 255
187.026415 -232.577559 -152.597719 0 120 255
185.661434 -232.531862 -150.536830 0 120 255
184.060272 -232.475090 -148.651510 0 120 255
182.459110 -232.418319 -146.766190 0 120 255
180.857947 -232.361547 -144.880870 0 120 255
179.245285 -232.304198 -143.006680 0 120 255
177.416628 -232.235996 -141.341525 0 120 255
175.587972 -232.167794 -139.676371 0 120 255
173.759315 -232.099592 -138.011216 0 120 255
171.929026 -232.031310 -136.348100 0 120 255
169.907288 -231.953577 -134.924054 0 120 255
167.885550 -231.875845 -133.500007 0 120 255
165.863812 -231.798113 -132.075961 0 120 255
163.842073 -231.720380 -130.651914 0 120 255
161.667631 -231.636731 -129.475810 0 120 255
159.487865 -231.552876 -128.308350 0 120 255
157.308098 -231.469021 -127.140891 0 120 255
155.128332 -231.385166 -125.973431 0 120 255
152.834759 -231.298095 -125.052971 0 120 255
150.531846 -231.210760 -124.152782 0 120 255
148.228933 -231.123425 -123.252593 0 120 255
145.926020 -231.036090 -122.352404 0 120 255
143.544662 -230.946897 -121.693666 0 120 255
141.152812 -230.857456 -121.067225 0 120 255
138.760962 -230.768014 -120.440785 0 120 255
136.369111 -230.678573 -119.814344 0 120 255
133.930485 -230.588310 -119.419802 0 120 255
131.482944 -230.497890 -119.069459 0 120 255
129.035402 -230.407470 -118.719115 0 120 255
126.587861 -230.317051 -118.368772 0 120 255
124.121336 -230.226741 -118.237555 0 120 255
121.650001 -230.136459 -118.161866 0 120 255
119.178666 -230.046178 -118.086178 0 120 255
116.707331 -229.955896 -118.010490 0 120 255
114.240860 -229.866546 -118.138765 0 120 255
111.775960 -229.777497 -118.332967 0 120 255
109.311060 -229.688449 -118.527168 0 120 255
106.846160 -229.599400 -118.721370 0 120 255
104.406079 -229.511945 -119.102726 0 120 255
101.975957 -229.425130 -119.559176 0 120 255
99.545836 -229.338315 -120.015626 0 120 255
97.115714 -229.251500 -120.472076 0 120 255
94.726559 -229.166796 -121.097643 0 120 255
92.357438 -229.083124 -121.805907 0 120 255
89.988316 -228.999452 -122.514171 0 120 255
87.619194 -228.915780 -123.222434 0 120 255
85.303564 -228.834597 -124.081278 0 120 255
83.019412 -228.754880 -125.028733 0 120 255
80.735260 -228.675163 -125.976187 0 120 255
78.451108 -228.595446 -126.923641 0 120 255
76.229545 -228.518503 -128.003053 0 120 255
74.051925 -228.443509 -129.175114 0 120 255
71.874306 -228.368515 -130.347174 0 120 255
69.696686 -228.293522 -131.519234 0 120 255
67.587704 -228.221451 -132.805172 0 120 255
65.535910 -228.151818 -134.185994 0 120 255
63.484116 -228.082184 -135.566816 0 120 255
61.432322 -228.012550 -136.947638 0 120 255
59.452551 -227.945898 -138.425167 0 120 255
57.543801 -227.882185 -139.998059 0 120 255
55.635051 -227.818473 -141.570952 0 120 255
53.726301 -227.754761 -143.143844 0 120 255
51.890536 -227.694006 -144.797281 0 120 255
50.139920 -227.636701 -146.544690 0 120 255
48.389305 -227.579395 -148.292099 0 120 255
46.638690 -227.522089 -150.039508 0 120 255
44.959986 -227.467650 -151.852582 0 120 255
43.380756 -227.417174 -153.756489 0 120 255
41.801527 -227.366698 -155.660396 0 120 255
40.222297 -227.316223 -157.564303 0 120 255
38.712140 -227.268459 -159.520361 0 120 255
37.315802 -227.225164 -161.562356 0 120 255
35.919464 -227.181869 -163.604350 0 120 255
34.523126 -227.138574 -165.646344 0 120 255
33.191507 -227.097783 -167.728417 0 120 255
31.987913 -227.061943 -169.889772 0 120 255
30.784319 -227.026104 -172.051126 0 120 255
29.580725 -226.990264 -174.212481 0 120 255
28.436223 -226.956690 -176.403341 0 120 255
27.433676 -226.928556 -178.665085 0 120 255
26.431128 -226.900423 -180.926828 0 120 255
25.428581 -226.872289 -183.188571 0 120 255
24.478363 -226.846141 -185.470764 0 120 255
23.683397 -226.825880 -187.813624 0 120 255
22.888431 -226.805619 -190.156484 0 120 255
22.093465 -226.785358 -192.499345 0 120 255
21.343198 -226.766772 -194.855185 0 120 255
20.760784 -226.754474 -197.259768 0 120 255
20.178369 -226.742176 -199.664350 0 120 255
19.595954 -226.729879 -202.068933 0 120 255
19.049889 -226.718933 -204.480631 0 120 255
18.683184 -226.714660 -206.927443 0 120 255
18.316478 -226.710387 -209.374254 0 120 255
17.949773 -226.706113 -211.821065 0 120 255
17.610611 -226.702853 -214.270768 0 120 255
17.461174 -226.706570 -216.740389 0 120 255
17.311737 -226.710288 -219.210011 0 120 255
17.162300 -226.714005 -221.679632 0 120 255
17.031336 -226.718396 -224.149557 0 120 255
17.099087 -226.730041 -226.622743 0 120 255
17.166838 -226.741686 -229.095929 0 120 255
17.234589 -226.753330 -231.569116 0 120 255
17.311681 -226.765312 -234.041635 0 120 255
17.594792 -226.784724 -236.499448 0 120 255
17.877904 -226.804137 -238.957262 0 120 255
18.161015 -226.823550 -241.415075 0 120 255
18.444490 -226.842976 -243.872831 0 120 255
18.939439 -226.869975 -246.296809 0 120 255
19.434388 -226.896974 -248.720788 0 120 255
19.929337 -226.923973 -251.144767 0 120 255
20.424286 -226.950971 -253.568745 0 120 255
21.117764 -226.985006 -255.943100 0 120 255
21.819496 -227.019333 -258.315392 0 120 255
22.521228 -227.053660 -260.687684 0 120 255
23.222960 -227.087987 -263.059976 0 120 255
24.108516 -227.128772 -265.369121 0 120 255
25.010385 -227.170129 -267.672661 0 120 255
25.912254 -227.211486 -269.976201 0 120 255
26.814122 -227.252843 -272.279742 0 120 255
27.884253 -227.300062 -274.508914 0 120 255
28.978004 -227.348104 -276.727647 0 120 255
30.071754 -227.396145 -278.946381 0 120 255
31.165505 -227.444187 -281.165114 0 120 255
32.411364 -227.497453 -283.300633 0 120 255
33.687209 -227.551749 -285.419748 0 120 255
34.963055 -227.606045 -287.538862 0 120 255
36.238900 -227.660341 -289.657977 0 120 255
37.650429 -227.719239 -291.687413 0 120 255
39.097217 -227.779333 -293.693546 0 120 255
40.544005 -227.839427 -295.699679 0 120 255
41.990792 -227.899522 -297.705813 0 120 255
43.556793 -227.963598 -299.618227 0 120 255
45.162078 -228.028987 -301.499758 0 120 255
46.767363 -228.094375 -303.381290 0 120 255
48.372648 -228.159764 -305.262821 0 120 255
50.080926 -228.228575 -307.048989 0 120 255
51.831160 -228.298780 -308.796309 0 120 255
53.581394 -228.368985 -310.543630 0 120 255
55.331628 -228.439190 -312.290950 0 120 255
57.169217 -228.512254 -313.943549 0 120 255
59.050040 -228.586733 -315.549267 0 120 255
60.930864 -228.661211 -317.154985 0 120 255
62.811688 -228.735690 -318.760704 0 120 255
64.765111 -228.812611 -320.274452 0 120 255
66.761675 -228.890984 -321.733549 0 120 255
68.758240 -228.969357 -323.192646 0 120 255
70.754804 -229.047730 -324.651744 0 120 255
72.810421 -229.128146 -326.023409 0 120 255
74.907828 -229.210008 -327.333202 0 120 255
77.005236 -229.291870 -328.642994 0 120 255
79.102643 -229.373732 -329.952786 0 120 255
81.246806 -229.456405 -331.181510 0 120 255
83.430179 -229.539758 -332.342248 0 120 255
85.613551 -229.623110 -333.502986 0 120 255
87.796923 -229.706463 -334.663725 0 120 255
90.015777 -229.785319 -335.752505 0 120 255
92.269811 -229.859717 -336.769938 0 120 255
94.523846 -229.934115 -337.787371 0 120 255
96.777880 -230.008513 -338.804804 0 120 255
99.057939 -230.073179 -339.760384 0 120 255
101.368507 -230.126438 -340.643457 0 120 255
103.679074 -230.179697 -341.526530 0 120 255
105.989641 -230.232956 -342.409604 0 120 255
108.318658 -230.273152 -343.240871 0 120 255
110.673303 -230.295200 -344.000169 0 120 255
113.027949 -230.317248 -344.759466 0 120 255
115.382595 -230.339295 -345.518764 0 120 255
117.749778 -230.346881 -346.235846 0 120 255
120.137705 -230.330539 -346.883080 0 120 255
122.525632 -230.314197 -347.530315 0 120 255
124.913560 -230.297855 -348.177550 0 120 255
127.309550 -230.267132 -348.791486 0 120 255
129.721557 -230.207848 -349.339287 0 120 255
132.133563 -230.148564 -349.887088 0 120 255
134.545570 -230.089280 -350.434889 0 120 255
136.962400 -230.016867 -350.957431 0 120 255
139.390871 -229.912775 -351.419028 0 120 255
141.819341 -229.808683 -351.880624 0 120 255
144.247812 -229.704591 -352.342221 0 120 255
146.678897 -229.589455 -352.785582 0 120 255
149.117779 -229.441378 -353.174559 0 120 255
151.556661 -229.293301 -353.563535 0 120 255
153.995544 -229.145224 -353.952512 0 120 255
156.435654 -228.988667 -354.329178 0 120 255
158.880406 -228.800050 -354.659306 0 120 255
161.325159 -228.611433 -354.989434 0 120 255
163.769911 -228.422816 -355.319562 0 120 255
166.215105 -228.228672 -355.642521 0 120 255
168.662496 -228.007006 -355.929783 0 120 255
171.109886 -227.785340 -356.217045 0 120 255
173.557277 -227.563675 -356.504307 0 120 255
176.004634 -227.340785 -356.790879 0 120 255
178.451760 -227.109356 -357.072641 0 120 255
180.898886 -226.877926 -357.354403 0 120 255
183.346013 -226.646497 -357.636164 0 120 255
185.793139 -226.415067 -357.917927 0 120 255
188.240262 -226.183626 -358.199702 0 120 255
190.687386 -225.952186 -358.481476 0 120 255
193.134510 -225.720746 -358.763250 0 120 255
195.581633 -225.489306 -359.045024 0 120 255
198.028758 -225.257869 -359.326791 0 120 255
200.475883 -225.026433 -359.608557 0 120 255
202.923008 -224.794997 -359.890324 0 120 255
205.370133 -224.563560 -360.172091 0 120 255
