ply
format ascii 1.0
element vertex 385
property float x
property float y
property float z
property uchar red
property uchar green
property uchar blue
end_header
77.430455 -42.474882 -360.397637 0 120 255
77.187478 -42.528728 -357.935178 0 120 255
76.944501 -42.582574 -355.472720 0 120 255
76.701524 -42.636420 -353.010262 0 120 255
76.458547 -42.690266 -350.547804 0 120 255
76.236058 -42.750224 -348.083555 0 120 255
76.014432 -42.810440 -345.619231 0 120 255
75.792806 -42.870656 -343.154907 0 120 255
75.571180 -42.930872 -340.690583 0 120 255
75.361675 -43.045901 -338.227207 0 120 255
75.153301 -43.166049 -335.763920 0 120 255
74.944927 -43.286196 -333.300633 0 120 255
74.736554 -43.406344 -330.837346 0 120 255
74.519532 -43.573014 -328.377589 0 120 255
74.301156 -43.746974 -325.918384 0 120 255
74.082780 -43.920933 -323.459180 0 120 255
73.864404 -44.094893 -320.999975 0 120 255
73.636011 -44.313368 -318.545334 0 120 255
73.405339 -44.541977 -316.091731 0 120 255
73.174666 -44.770586 -313.638128 0 120 255
72.943993 -44.999195 -311.184526 0 120 255
72.701931 -45.270095 -308.736454 0 120 255
72.456362 -45.554012 -306.290084 0 120 255
72.210794 -45.837929 -303.843714 0 120 255
71.965226 -46.121846 -301.397345 0 120 255
71.706943 -46.445651 -298.957393 0 120 255
71.443588 -46.785369 -296.520003 0 120 255
71.180232 -47.125086 -294.082612 0 120 255
70.916877 -47.464803 -291.645221 0 120 255
70.639559 -47.841858 -289.215049 0 120 255
70.355213 -48.237707 -286.788511 0 120 255
70.070867 -48.633557 -284.361973 0 120 255
69.786520 -49.029406 -281.935434 0 120 255
69.487108 -49.459925 -279.516816 0 120 255
69.178290 -49.912088 -277.103143 0 120 255
68.869473 -50.364252 -274.689471 0 120 255
68.560655 -50.816415 -272.275798 0 120 255
68.235842 -51.300488 -269.870641 0 120 255
67.898778 -51.809002 -267.472009 0 120 255
67.561714 -52.317516 -265.073376 0 120 255
67.224650 -52.826030 -262.674743 0 120 255
66.870896 -53.363629 -260.285108 0 120 255
66.501558 -53.928386 -257.903874 0 120 255
66.132219 -54.493142 -255.522639 0 120 255
65.762881 -55.057899 -253.141405 0 120 255
65.376435 -55.648872 -250.769520 0 120 255
64.970560 -56.269620 -248.408255 0 120 255
64.564685 -56.890369 -246.046990 0 120 255
64.158810 -57.511118 -243.685724 0 120 255
63.735730 -58.155192 -241.334019 0 120 255
63.288846 -58.831538 -238.995538 0 120 255
62.841963 -59.507883 -236.657058 0 120 255
62.395079 -60.184229 -234.318578 0 120 255
61.931247 -60.881013 -231.989708 0 120 255
61.438698 -61.612423 -229.677117 0 120 255
60.946150 -62.343833 -227.364527 0 120 255
60.453602 -63.075243 -225.051937 0 120 255
59.944754 -63.824219 -222.748819 0 120 255
59.401762 -64.609994 -220.465541 0 120 255
58.858770 -65.395769 -218.182264 0 120 255
58.315778 -66.181544 -215.898987 0 120 255
57.757547 -66.982058 -213.624830 0 120 255
57.159223 -67.821347 -211.374665 0 120 255
56.560899 -68.660636 -209.124501 0 120 255
55.962575 -69.499925 -206.874336 0 120 255
55.350510 -70.351186 -204.632685 0 120 255
54.691948 -71.242958 -202.419842 0 120 255
54.033385 -72.134730 -200.206998 0 120 255
53.374823 -73.026501 -197.994155 0 120 255
52.704455 -73.927564 -195.788923 0 120 255
51.980757 -74.870595 -193.618072 0 120 255
51.257059 -75.813625 -191.447222 0 120 255
50.533361 -76.756656 -189.276371 0 120 255
49.800232 -77.706407 -187.111882 0 120 255
49.006596 -78.699271 -184.988206 0 120 255
48.212961 -79.692136 -182.864530 0 120 255
47.419325 -80.685000 -180.740854 0 120 255
46.619055 -81.682150 -178.621885 0 120 255
45.750848 -82.723182 -176.551110 0 120 255
44.882641 -83.764215 -174.480336 0 120 255
44.014434 -84.805247 -172.409561 0 120 255
43.142782 -85.848298 -170.341372 0 120 255
42.195626 -86.935598 -168.329828 0 120 255
41.248470 -88.022899 -166.318283 0 120 255
40.301315 -89.110199 -164.306738 0 120 255
39.354159 -90.197499 -162.295193 0 120 255
38.324122 -91.328820 -160.349747 0 120 255
37.293997 -92.460189 -158.404372 0 120 255
36.263871 -93.591557 -156.458997 0 120 255
35.233746 -94.722926 -154.513622 0 120 255
34.120996 -95.893999 -152.638687 0 120 255
33.004340 -97.066949 -150.767083 0 120 255
31.887683 -98.239900 -148.895478 0 120 255
30.771027 -99.412850 -147.023874 0 120 255
29.572792 -100.621115 -145.227027 0 120 255
28.366634 -101.832809 -143.437441 0 120 255
27.160477 -103.044503 -141.647855 0 120 255
25.954319 -104.256197 -139.858269 0 120 255
24.668438 -105.498777 -138.147685 0 120 255
23.370522 -106.746020 -136.449028 0 120 255
22.072606 -107.993263 -134.750370 0 120 255
20.774690 -109.240506 -133.051713 0 120 255
19.399732 -110.514178 -131.436147 0 120 255
18.008657 -111.793379 -129.837963 0 120 255
16.617582 -113.072580 -128.239779 0 120 255
15.226507 -114.351781 -126.641594 0 120 255
13.761904 -115.652943 -125.130338 0 120 255
12.277283 -116.960083 -123.642749 0 120 255
10.792662 -118.267224 -122.155160 0 120 255
9.308040 -119.574364 -120.667571 0 120 255
7.754224 -120.899019 -119.270410 0 120 255
6.176833 -122.229641 -117.904057 0 120 255
4.599442 -123.560263 -116.537704 0 120 255
3.022051 -124.890885 -115.171351 0 120 255
1.380587 -126.234618 -113.898475 0 120 255
-0.287471 -127.583794 -112.664399 0 120 255
-1.955530 -128.932969 -111.430323 0 120 255
-3.623589 -130.282145 -110.196247 0 120 255
-5.349860 -131.640111 -109.058151 0 120 255
-7.105006 -133.002439 -107.967664 0 120 255
-8.860153 -134.364766 -106.877176 0 120 255
-10.615299 -135.727093 -105.786689 0 120 255
-12.422126 -137.094015 -104.794029 0 120 255
-14.259150 -138.463622 -103.858531 0 120 255
-16.096175 -139.833230 -102.923034 0 120 255
-17.933199 -141.202837 -101.987537 0 120 255
-19.814789 -142.573011 -101.150957 0 120 255
-21.726722 -143.943571 -100.381727 0 120 255
-23.638655 -145.314131 -99.612497 0 120 255
-25.550588 -146.684690 -98.843266 0 120 255
-27.499506 -148.052003 -98.173199 0 120 255
-29.477521 -149.416762 -97.581142 0 120 255
-31.455535 -150.781520 -96.989085 0 120 255
-33.433549 -152.146278 -96.397029 0 120 255
-35.440633 -153.504243 -95.903448 0 120 255
-37.473969 -154.856072 -95.498798 0 120 255
-39.507305 -156.207901 -95.094149 0 120 255
-41.540641 -157.559730 -94.689500 0 120 255
-43.594948 -158.901546 -94.381664 0 120 255
-45.670888 -160.233035 -94.173696 0 120 255
-47.746827 -161.564523 -93.965728 0 120 255
-49.822767 -162.896011 -93.757761 0 120 255
-51.911571 -164.214641 -93.643917 0 120 255
-54.015479 -165.518174 -93.640580 0 120 255
-56.119386 -166.821708 -93.637243 0 120 255
-58.223294 -168.125241 -93.633907 0 120 255
-60.332133 -169.413501 -93.720979 0 120 255
-62.447546 -170.681400 -93.928575 0 120 255
-64.562960 -171.949299 -94.136172 0 120 255
-66.678373 -173.217198 -94.343768 0 120 255
-68.791160 -174.467876 -94.637050 0 120 255
-70.899976 -175.692517 -95.059881 0 120 255
-73.008792 -176.917158 -95.482713 0 120 255
-75.117609 -178.141799 -95.905545 0 120 255
-77.216805 -179.347790 -96.408396 0 120 255
-79.299507 -180.521802 -97.048465 0 120 255
-81.382208 -181.695813 -97.688535 0 120 255
-83.464910 -182.869825 -98.328604 0 120 255
-85.531765 -184.024299 -99.042174 0 120 255
-87.567756 -185.140718 -99.898904 0 120 255
-89.603747 -186.257138 -100.755634 0 120 255
-91.639738 -187.373557 -101.612364 0 120 255
-93.654607 -188.470108 -102.535353 0 120 255
-95.622609 -189.522570 -103.605366 0 120 255
-97.590611 -190.575032 -104.675380 0 120 255
-99.558613 -191.627494 -105.745394 0 120 255
-101.501331 -192.660316 -106.873877 0 120 255
-103.379823 -193.643245 -108.150888 0 120 255
-105.258315 -194.626174 -109.427898 0 120 255
-107.136808 -195.609103 -110.704908 0 120 255
-108.987107 -196.573160 -112.032248 0 120 255
-110.754825 -197.481938 -113.507014 0 120 255
-112.522542 -198.390716 -114.981781 0 120 255
-114.290260 -199.299494 -116.456547 0 120 255
-116.028230 -200.190673 -117.973378 0 120 255
-117.664680 -201.021795 -119.633772 0 120 255
-119.301130 -201.852916 -121.294165 0 120 255
-120.937580 -202.684038 -122.954558 0 120 255
-122.544140 -203.499283 -124.648876 0 120 255
-124.030111 -204.250480 -126.480059 0 120 255
-125.516082 -205.001677 -128.311242 0 120 255
-127.002053 -205.752874 -130.142425 0 120 255
-128.459409 -206.490290 -131.999769 0 120 255
-129.777451 -207.160613 -133.984478 0 120 255
-131.095494 -207.830936 -135.969186 0 120 255
-132.413537 -208.501259 -137.953895 0 120 255
-133.705612 -209.160177 -139.957628 0 120 255
-134.840456 -209.750038 -142.076549 0 120 255
-135.975301 -210.339900 -144.195471 0 120 255
-137.110146 -210.929761 -146.314392 0 120 255
-138.222945 -211.510767 -148.446062 0 120 255
-139.161858 -212.021926 -150.678280 0 120 255
-140.100771 -212.533085 -152.910497 0 120 255
-141.039684 -213.044243 -155.142715 0 120 255
-141.961598 -213.549157 -157.382470 0 120 255
-142.694639 -213.984686 -159.705959 0 120 255
-143.427681 -214.420216 -162.029448 0 120 255
-144.160722 -214.855745 -164.352937 0 120 255
-144.882733 -215.287577 -166.679985 0 120 255
-145.402888 -215.651743 -169.072151 0 120 255
-145.923042 -216.015909 -171.464317 0 120 255
-146.443197 -216.380075 -173.856484 0 120 255
-146.958990 -216.742913 -176.249576 0 120 255
-147.262238 -217.041043 -178.687771 0 120 255
-147.565486 -217.339174 -181.125966 0 120 255
-147.868735 -217.637304 -183.564162 0 120 255
-148.171983 -217.935434 -186.002357 0 120 255
-148.259954 -218.174510 -188.464084 0 120 255
-148.345178 -218.412832 -190.926111 0 120 255
-148.430402 -218.651155 -193.388138 0 120 255
-148.515626 -218.889477 -195.850165 0 120 255
-148.394520 -219.077385 -198.314605 0 120 255
-148.263384 -219.262841 -200.779164 0 120 255
-148.132247 -219.448298 -203.243722 0 120 255
-148.001111 -219.633754 -205.708280 0 120 255
-147.675037 -219.777480 -208.156773 0 120 255
-147.331732 -219.917516 -210.603847 0 120 255
-146.988427 -220.057553 -213.050920 0 120 255
-146.645121 -220.197590 -215.497994 0 120 255
-146.120198 -220.304382 -217.913368 0 120 255
-145.571172 -220.406762 -220.324535 0 120 255
-145.022145 -220.509142 -222.735702 0 120 255
-144.473119 -220.611522 -225.146868 0 120 255
-143.757165 -220.688714 -227.513624 0 120 255
-143.010779 -220.761315 -229.872284 0 120 255
-142.264392 -220.833916 -232.230943 0 120 255
-141.518005 -220.906517 -234.589602 0 120 255
-140.619058 -220.966142 -236.893442 0 120 255
-139.683786 -221.022678 -239.184230 0 120 255
-138.748515 -221.079214 -241.475018 0 120 255
-137.813243 -221.135749 -243.765805 0 120 255
-136.741941 -221.189354 -245.994782 0 120 255
-135.629607 -221.242075 -248.205115 0 120 255
-134.517272 -221.294795 -250.415448 0 120 255
-133.404938 -221.347516 -252.625780 0 120 255
-132.173358 -221.399656 -254.770347 0 120 255
-130.897014 -221.451579 -256.890227 0 120 255
-129.620671 -221.503502 -259.010107 0 120 255
-128.344328 -221.555425 -261.129986 0 120 255
-126.963863 -221.608804 -263.181809 0 120 255
-125.535448 -221.662853 -265.202291 0 120 255
-124.107032 -221.716903 -267.222772 0 120 255
-122.678617 -221.770952 -269.243254 0 120 255
-121.161596 -221.826178 -271.196278 0 120 255
-119.595047 -221.882062 -273.111595 0 120 255
-118.028499 -221.937946 -275.026912 0 120 255
-116.461950 -221.993829 -276.942229 0 120 255
-114.820965 -222.049924 -278.792383 0 120 255
-113.129840 -222.106161 -280.598642 0 120 255
-111.438715 -222.162399 -282.404900 0 120 255
-109.747590 -222.218636 -284.211159 0 120 255
-107.994594 -222.276057 -285.955624 0 120 255
-106.191552 -222.334437 -287.650106 0 120 255
-104.388510 -222.392817 -289.344588 0 120 255
-102.585467 -222.451197 -291.039069 0 120 255
-100.731796 -222.511371 -292.676212 0 120 255
-98.828986 -222.573286 -294.257704 0 120 255
-96.926175 -222.635201 -295.839196 0 120 255
-95.023365 -222.697116 -297.420688 0 120 255
-93.079815 -222.761117 -298.950082 0 120 255
-91.088724 -222.827552 -300.418680 0 120 255
-89.097633 -222.893987 -301.887279 0 120 255
-87.106543 -222.960422 -303.355878 0 120 255
-85.083285 -223.028989 -304.778156 0 120 255
-83.014681 -223.100562 -306.135134 0 120 255
-80.946076 -223.172135 -307.492112 0 120 255
-78.877471 -223.243708 -308.849090 0 120 255
-76.784010 -223.317283 -310.165826 0 120 255
-74.647860 -223.394294 -311.413453 0 120 255
-72.511710 -223.471305 -312.661079 0 120 255
-70.375561 -223.548316 -313.908706 0 120 255
-68.220686 -223.627062 -315.122271 0 120 255
-66.026128 -223.709484 -316.263657 0 120 255
-63.831571 -223.791906 -317.405043 0 120 255
-61.637014 -223.874328 -318.546430 0 120 255
-59.428778 -223.958147 -319.659857 0 120 255
-57.184084 -224.045688 -320.698761 0 120 255
-54.939390 -224.133229 -321.737666 0 120 255
-52.694696 -224.220769 -322.776571 0 120 255
-50.440412 -224.309347 -323.793427 0 120 255
-48.153044 -224.401500 -324.734220 0 120 255
-45.865675 -224.493653 -325.675013 0 120 255
-43.578307 -224.585807 -326.615805 0 120 255
-41.284584 -224.678647 -327.540142 0 120 255
-38.961185 -224.774694 -328.387627 0 120 255
-36.637786 -224.870742 -329.235111 0 120 255
-34.314387 -224.966789 -330.082595 0 120 255
-31.987135 -225.063221 -330.918817 0 120 255
-29.633575 -225.162279 -331.678146 0 120 255
-27.280015 -225.261337 -332.437474 0 120 255
-24.926455 -225.360394 -333.196803 0 120 255
-22.570919 -225.459611 -333.949600 0 120 255
-20.192342 -225.560672 -334.626205 0 120 255
-17.813765 -225.661733 -335.302810 0 120 255
-15.435188 -225.762794 -335.979416 0 120 255
-13.055994 -225.863882 -336.653710 0 120 255
-10.656860 -225.965829 -337.253209 0 120 255
-8.257726 -226.067776 -337.852708 0 120 255
-5.858592 -226.169724 -338.452208 0 120 255
-3.459457 -226.271671 -339.051707 0 120 255
-1.043928 -226.373309 -339.581257 0 120 255
1.371922 -226.474940 -340.109441 0 120 255
3.787772 -226.576572 -340.637625 0 120 255
6.203621 -226.678204 -341.165810 0 120 255
8.632008 -226.778389 -341.632985 0 120 255
11.061315 -226.878467 -342.095682 0 120 255
13.490623 -226.978545 -342.558379 0 120 255
15.919930 -227.078623 -343.021076 0 120 255
18.358683 -227.176215 -343.431214 0 120 255
20.798697 -227.273476 -343.834339 0 120 255
23.238711 -227.370737 -344.237464 0 120 255
25.678725 -227.467997 -344.640590 0 120 255
28.125746 -227.561848 -344.999064 0 120 255
30.574174 -227.655014 -345.348580 0 120 255
33.022601 -227.748181 -345.698095 0 120 255
35.471028 -227.841348 -346.047610 0 120 255
37.924518 -227.931739 -346.359796 0 120 255
40.379408 -228.021362 -346.661663 0 120 255
42.834297 -228.110986 -346.963530 0 120 255
45.289186 -228.200610 -347.265396 0 120 255
47.747680 -228.288968 -347.536104 0 120 255
50.207479 -228.376868 -347.795525 0 120 255
52.667278 -228.464767 -348.054945 0 120 255
55.127078 -228.552667 -348.314366 0 120 255
57.589414 -228.639710 -348.548148 0 120 255
60.052917 -228.726361 -348.770140 0 120 255
62.516421 -228.813011 -348.992132 0 120 255
64.979924 -228.899662 -349.214124 0 120 255
67.445129 -228.984682 -349.416488 0 120 255
69.911306 -229.068769 -349.607630 0 120 255
72.377484 -229.152857 -349.798773 0 120 255
74.843661 -229.236945 -349.989915 0 120 255
77.311048 -229.314920 -350.167112 0 120 255
79.779281 -229.388613 -350.334537 0 120 255
82.247514 -229.462306 -350.501963 0 120 255
84.715747 -229.536000 -350.669389 0 120 255
87.184844 -229.599559 -350.827503 0 120 255
89.654674 -229.654492 -350.977691 0 120 255
92.124505 -229.709424 -351.127879 0 120 255
94.594336 -229.764357 -351.278066 0 120 255
97.064680 -229.808352 -351.422800 0 120 255
99.535553 -229.841073 -351.561911 0 120 255
102.006426 -229.873794 -351.701022 0 120 255
104.477300 -229.906515 -351.840133 0 120 255
106.948387 -229.927966 -351.977025 0 120 255
109.419742 -229.935352 -352.111146 0 120 255
111.891097 -229.942738 -352.245268 0 120 255
114.362451 -229.950124 -352.379389 0 120 255
116.833753 -229.946312 -352.513923 0 120 255
119.304975 -229.925519 -352.649082 0 120 255
121.776197 -229.904727 -352.784240 0 120 255
124.247419 -229.883934 -352.919399 0 120 255
126.718346 -229.852375 -353.056998 0 120 255
129.188727 -229.800836 -353.199129 0 120 255
131.659107 -229.749297 -353.341259 0 120 255
134.129488 -229.697758 -353.483389 0 120 255
136.599360 -229.636223 -353.629394 0 120 255
139.068064 -229.551707 -353.784308 0 120 255
141.536767 -229.467190 -353.939222 0 120 255
144.005470 -229.382674 -354.094136 0 120 255
146.473488 -229.289216 -354.253800 0 120 255
148.939517 -229.169816 -354.427246 0 120 255
151.405545 -229.050415 -354.600692 0 120 255
153.871574 -228.931015 -354.774137 0 120 255
156.336795 -228.803975 -354.952649 0 120 255
158.798972 -228.648157 -355.150242 0 120 255
161.261149 -228.492339 -355.347836 0 120 255
163.723326 -228.336521 -355.545429 0 120 255
166.183963 -228.172351 -355.752976 0 120 255
168.636720 -227.965447 -356.011449 0 120 255
171.089478 -227.758542 -356.269922 0 120 255
173.542235 -227.551637 -356.528396 0 120 255
175.994414 -227.341751 -356.789702 0 120 255
178.442391 -227.110242 -357.071562 0 120 255
180.890369 -226.878732 -357.353422 0 120 255
183.338347 -226.647222 -357.635282 0 120 255
185.786325 -226.415711 -357.917143 0 120 255
188.234300 -226.184190 -358.199015 0 120 255
190.682276 -225.952669 -358.480887 0 120 255
193.130251 -225.721148 -358.762760 0 120 255
195.578227 -225.489628 -359.044632 0 120 255
198.026203 -225.258111 -359.326496 0 120 255
200.474180 -225.026594 -359.608361 0 120 255
202.922157 -224.795077 -359.890226 0 120 255
205.370133 -224.563560 -360.172091 0 120 255
