ply
format ascii 1.0
element vertex 385
property float x
property float y
property float z
property uchar red
property uchar green
property uchar blue
end_header
77.430455 -42.474882 -360.397637 0 120 255
77.187549 -42.528712 -357.935897 0 120 255
76.944643 -42.582542 -355.474156 0 120 255
76.701736 -42.636373 -353.012416 0 120 255
76.458830 -42.690203 -350.550676 0 120 255
76.217086 -42.755654 -348.089104 0 120 255
75.975391 -42.821609 -345.627540 0 120 255
75.733697 -42.887565 -343.165976 0 120 255
75.492003 -42.953520 -340.704411 0 120 255
75.200665 -43.018421 -338.248247 0 120 255
74.904735 -43.083225 -335.792582 0 120 255
74.608804 -43.148029 -333.336916 0 120 255
74.312873 -43.212832 -330.881251 0 120 255
73.963918 -43.268358 -328.432420 0 120 255
73.607094 -43.322506 -325.984602 0 120 255
73.250270 -43.376654 -323.536785 0 120 255
72.893445 -43.430802 -321.088968 0 120 255
72.482152 -43.478846 -318.649716 0 120 255
72.059404 -43.525605 -316.212266 0 120 255
71.636656 -43.572365 -313.774816 0 120 255
71.213908 -43.619125 -311.337366 0 120 255
70.736149 -43.662954 -308.910225 0 120 255
70.243032 -43.705966 -306.485962 0 120 255
69.749916 -43.748977 -304.061698 0 120 255
69.256799 -43.791988 -301.637435 0 120 255
68.708973 -43.835145 -299.225181 0 120 255
68.141654 -43.878354 -296.817205 0 120 255
67.574335 -43.921563 -294.409229 0 120 255
67.007016 -43.964772 -292.001253 0 120 255
66.386032 -44.011016 -289.606897 0 120 255
65.741260 -44.058606 -287.218577 0 120 255
65.096489 -44.106196 -284.830258 0 120 255
64.451718 -44.153785 -282.441938 0 120 255
63.754999 -44.207048 -280.068711 0 120 255
63.030120 -44.263386 -277.703665 0 120 255
62.305242 -44.319723 -275.338619 0 120 255
61.580363 -44.376061 -272.973573 0 120 255
60.805839 -44.440395 -270.624912 0 120 255
59.998779 -44.509969 -268.286990 0 120 255
59.191719 -44.579544 -265.949069 0 120 255
58.384658 -44.649118 -263.611147 0 120 255
57.530753 -44.728650 -261.290685 0 120 255
56.640001 -44.816015 -258.983957 0 120 255
55.749249 -44.903380 -256.677229 0 120 255
54.858497 -44.990745 -254.370501 0 120 255
53.924117 -45.089640 -252.082054 0 120 255
52.948717 -45.199375 -249.810795 0 120 255
51.973317 -45.309109 -247.539535 0 120 255
50.997917 -45.418844 -245.268276 0 120 255
49.982430 -45.541261 -243.015837 0 120 255
48.921935 -45.677916 -240.784527 0 120 255
47.861441 -45.814571 -238.553218 0 120 255
46.800947 -45.951226 -236.321908 0 120 255
45.704161 -46.101287 -234.109644 0 120 255
44.558639 -46.269350 -231.922957 0 120 255
43.413117 -46.437413 -229.736270 0 120 255
42.267596 -46.605476 -227.549583 0 120 255
41.089753 -46.787232 -225.381831 0 120 255
39.859754 -46.991083 -223.244634 0 120 255
38.629754 -47.194935 -221.107436 0 120 255
37.399755 -47.398786 -218.970239 0 120 255
36.141511 -47.616185 -216.851504 0 120 255
34.828050 -47.860070 -214.768860 0 120 255
33.514589 -48.103955 -212.686216 0 120 255
32.201128 -48.347839 -210.603572 0 120 255
30.863539 -48.604704 -208.538530 0 120 255
29.468090 -48.892695 -206.515698 0 120 255
28.072641 -49.180686 -204.492866 0 120 255
26.677192 -49.468678 -202.470034 0 120 255
25.261706 -49.768675 -200.463537 0 120 255
23.786182 -50.104650 -198.505984 0 120 255
22.310657 -50.440626 -196.548431 0 120 255
20.835133 -50.776601 -194.590878 0 120 255
19.343579 -51.123225 -192.647958 0 120 255
17.790329 -51.510837 -190.761364 0 120 255
16.237079 -51.898449 -188.874771 0 120 255
14.683829 -52.286061 -186.988177 0 120 255
13.118416 -52.682606 -185.114058 0 120 255
11.490235 -53.125254 -183.304319 0 120 255
9.862054 -53.567902 -181.494580 0 120 255
8.233873 -54.010550 -179.684841 0 120 255
6.597196 -54.460089 -177.884936 0 120 255
4.897319 -54.960894 -176.158181 0 120 255
3.197443 -55.461698 -174.431427 0 120 255
1.497567 -55.962502 -172.704673 0 120 255
-0.207395 -56.467867 -170.984600 0 120 255
-1.975252 -57.029636 -169.347175 0 120 255
-3.743110 -57.591405 -167.709750 0 120 255
-5.510967 -58.153174 -166.072325 0 120 255
-7.280816 -58.716922 -164.437893 0 120 255
-9.112465 -59.342130 -162.896386 0 120 255
-10.944113 -59.967338 -161.354879 0 120 255
-12.775762 -60.592546 -159.813373 0 120 255
-14.607411 -61.217754 -158.271866 0 120 255
-16.497407 -61.907691 -156.831815 0 120 255
-18.388126 -62.598431 -155.393022 0 120 255
-20.278845 -63.289170 -153.954229 0 120 255
-22.169564 -63.979910 -152.515436 0 120 255
-24.111092 -64.734136 -151.180274 0 120 255
-26.055608 -65.492095 -149.851207 0 120 255
-28.000124 -66.250055 -148.522139 0 120 255
-29.944640 -67.008014 -147.193072 0 120 255
-31.932345 -67.827670 -145.969379 0 120 255
-33.924777 -68.654080 -144.757222 0 120 255
-35.917210 -69.480490 -143.545065 0 120 255
-37.909643 -70.306900 -142.332908 0 120 255
-39.937597 -71.192691 -141.227389 0 120 255
-41.971413 -72.088281 -140.139465 0 120 255
-44.005228 -72.983870 -139.051540 0 120 255
-46.039044 -73.879460 -137.963616 0 120 255
-48.100709 -74.831621 -136.983061 0 120 255
-50.168670 -75.796571 -136.026780 0 120 255
-52.236631 -76.761522 -135.070499 0 120 255
-54.304592 -77.726472 -134.114218 0 120 255
-56.392771 -78.744710 -133.265443 0 120 255
-58.486885 -79.778591 -132.448229 0 120 255
-60.581000 -80.812472 -131.631014 0 120 255
-62.675115 -81.846352 -130.813799 0 120 255
-64.781910 -82.929800 -130.103561 0 120 255
-66.893379 -84.031511 -129.432741 0 120 255
-69.004847 -85.133222 -128.761921 0 120 255
-71.116315 -86.234933 -128.091101 0 120 255
-73.233092 -87.382106 -127.526021 0 120 255
-75.352268 -88.549832 -127.008745 0 120 255
-77.471445 -89.717557 -126.491470 0 120 255
-79.590621 -90.885283 -125.974194 0 120 255
-81.707976 -92.094022 -125.560638 0 120 255
-83.824337 -93.325153 -125.203711 0 120 255
-85.940698 -94.556285 -124.846784 0 120 255
-88.057059 -95.787416 -124.489858 0 120 255
-90.164809 -97.054834 -124.233802 0 120 255
-92.266944 -98.345916 -124.043528 0 120 255
-94.369078 -99.636999 -123.853255 0 120 255
-96.471212 -100.928081 -123.662981 0 120 255
-98.558387 -102.250527 -123.569879 0 120 255
-100.633998 -103.597221 -123.551899 0 120 255
-102.709608 -104.943914 -123.533920 0 120 255
-104.785218 -106.290608 -123.515941 0 120 255
-106.840087 -107.663624 -123.590540 0 120 255
-108.876037 -109.060649 -123.749586 0 120 255
-110.911986 -110.457674 -123.908633 0 120 255
-112.947936 -111.854700 -124.067679 0 120 255
-114.958050 -113.272992 -124.313850 0 120 255
-116.940427 -114.714117 -124.653562 0 120 255
-118.922804 -116.155243 -124.993274 0 120 255
-120.905181 -117.596368 -125.332986 0 120 255
-122.857450 -119.053802 -125.753534 0 120 255
-124.771680 -120.531840 -126.276214 0 120 255
-126.685909 -122.009878 -126.798894 0 120 255
-128.600139 -123.487916 -127.321574 0 120 255
-130.480938 -124.977518 -127.918040 0 120 255
-132.311933 -126.484348 -128.624429 0 120 255
-134.142928 -127.991178 -129.330818 0 120 255
-135.973923 -129.498008 -130.037208 0 120 255
-137.769235 -131.012001 -130.809676 0 120 255
-139.501592 -132.538630 -131.698724 0 120 255
-141.233948 -134.065260 -132.587773 0 120 255
-142.966305 -135.591889 -133.476822 0 120 255
-144.661902 -137.121747 -134.423733 0 120 255
-146.280140 -138.658399 -135.492411 0 120 255
-147.898379 -140.195050 -136.561089 0 120 255
-149.516618 -141.731702 -137.629766 0 120 255
-151.098272 -143.268238 -138.747767 0 120 255
-152.587113 -144.804481 -139.990898 0 120 255
-154.075954 -146.340724 -141.234029 0 120 255
-155.564795 -147.876967 -142.477160 0 120 255
-157.018527 -149.410450 -143.760970 0 120 255
-158.363207 -150.935359 -145.171130 0 120 255
-159.707888 -152.460269 -146.581289 0 120 255
-161.052569 -153.985178 -147.991449 0 120 255
-162.364914 -155.505483 -149.433779 0 120 255
-163.551515 -157.007879 -151.001212 0 120 255
-164.738117 -158.510276 -152.568646 0 120 255
-165.924718 -160.012673 -154.136079 0 120 255
-167.083013 -161.509475 -155.727585 0 120 255
-168.098798 -162.978113 -157.440287 0 120 255
-169.114583 -164.446751 -159.152990 0 120 255
-170.130368 -165.915389 -160.865692 0 120 255
-171.123041 -167.378341 -162.595038 0 120 255
-171.956812 -168.802204 -164.438813 0 120 255
-172.790583 -170.226068 -166.282587 0 120 255
-173.624354 -171.649931 -168.126361 0 120 255
-174.441222 -173.068912 -169.980284 0 120 255
-175.083592 -174.437487 -171.938964 0 120 255
-175.725963 -175.806062 -173.897644 0 120 255
-176.368333 -177.174637 -175.856325 0 120 255
-177.000834 -178.539980 -177.819826 0 120 255
-177.444527 -179.843516 -179.875548 0 120 255
-177.888220 -181.147052 -181.931271 0 120 255
-178.331913 -182.450588 -183.986994 0 120 255
-178.773362 -183.753312 -186.043574 0 120 255
-179.013381 -184.983113 -188.177127 0 120 255
-179.253400 -186.212914 -190.310679 0 120 255
-179.493419 -187.442714 -192.444232 0 120 255
-179.733438 -188.672515 -194.577784 0 120 255
-179.772934 -189.823408 -196.767428 0 120 255
-179.806717 -190.972052 -198.958670 0 120 255
-179.840500 -192.120697 -201.149911 0 120 255
-179.874283 -193.269342 -203.341153 0 120 255
-179.715452 -194.336689 -205.567003 0 120 255
-179.542897 -195.398244 -207.795319 0 120 255
-179.370342 -196.459799 -210.023634 0 120 255
-179.197787 -197.521354 -212.251950 0 120 255
-178.842726 -198.501163 -214.494991 0 120 255
-178.466147 -199.471335 -216.739767 0 120 255
-178.089568 -200.441507 -218.984543 0 120 255
-177.712989 -201.411679 -221.229319 0 120 255
-177.165834 -202.301493 -223.470949 0 120 255
-176.589841 -203.177722 -225.712047 0 120 255
-176.013848 -204.053951 -227.953145 0 120 255
-175.437855 -204.930180 -230.194243 0 120 255
-174.704603 -205.729106 -232.416657 0 120 255
-173.935899 -206.510605 -234.634859 0 120 255
-173.167195 -207.292104 -236.853061 0 120 255
-172.398491 -208.073604 -239.071262 0 120 255
-171.486773 -208.782292 -241.257787 0 120 255
-170.533881 -209.470019 -243.435193 0 120 255
-169.580989 -210.157746 -245.612598 0 120 255
-168.628098 -210.845473 -247.790004 0 120 255
-167.546919 -211.466060 -249.925387 0 120 255
-166.419873 -212.062643 -252.045746 0 120 255
-165.292828 -212.659225 -254.166106 0 120 255
-164.165782 -213.255808 -256.286465 0 120 255
-162.925234 -213.791807 -258.357098 0 120 255
-161.635237 -214.301412 -260.406067 0 120 255
-160.345240 -214.811018 -262.455037 0 120 255
-159.055243 -215.320623 -264.504006 0 120 255
-157.666216 -215.776803 -266.498086 0 120 255
-156.225304 -216.204992 -268.463409 0 120 255
-154.784393 -216.633181 -270.428732 0 120 255
-153.343481 -217.061370 -272.394055 0 120 255
-151.817369 -217.443585 -274.301679 0 120 255
-150.238056 -217.797092 -276.173273 0 120 255
-148.658742 -218.150598 -278.044868 0 120 255
-147.079428 -218.504105 -279.916462 0 120 255
-145.427866 -218.819129 -281.729661 0 120 255
-143.722849 -219.105679 -283.499653 0 120 255
-142.017833 -219.392229 -285.269646 0 120 255
-140.312816 -219.678780 -287.039638 0 120 255
-138.547440 -219.934134 -288.752356 0 120 255
-136.729314 -220.162225 -290.415022 0 120 255
-134.911188 -220.390316 -292.077688 0 120 255
-133.093061 -220.618407 -293.740354 0 120 255
-131.225293 -220.822180 -295.348382 0 120 255
-129.306333 -221.000876 -296.900067 0 120 255
-127.387373 -221.179572 -298.451752 0 120 255
-125.468413 -221.358268 -300.003437 0 120 255
-123.509294 -221.518949 -301.504300 0 120 255
-121.501244 -221.657679 -302.943242 0 120 255
-119.493194 -221.796409 -304.382184 0 120 255
-117.485144 -221.935139 -305.821126 0 120 255
-115.445192 -222.061452 -307.213944 0 120 255
-113.359151 -222.169826 -308.540123 0 120 255
-111.273109 -222.278199 -309.866302 0 120 255
-109.187068 -222.386572 -311.192482 0 120 255
-107.076361 -222.488750 -312.478010 0 120 255
-104.923139 -222.580248 -313.693464 0 120 255
-102.769917 -222.671747 -314.908918 0 120 255
-100.616695 -222.763246 -316.124372 0 120 255
-98.444939 -222.853075 -317.305157 0 120 255
-96.234679 -222.939435 -318.413921 0 120 255
-94.024419 -223.025795 -319.522685 0 120 255
-91.814159 -223.112155 -320.631450 0 120 255
-89.590043 -223.198148 -321.710948 0 120 255
-87.330753 -223.283206 -322.716154 0 120 255
-85.071463 -223.368264 -323.721359 0 120 255
-82.812173 -223.453323 -324.726565 0 120 255
-80.542654 -223.538548 -325.707312 0 120 255
-78.240800 -223.624300 -326.610740 0 120 255
-75.938946 -223.710052 -327.514168 0 120 255
-73.637093 -223.795803 -328.417596 0 120 255
-71.328118 -223.881900 -329.301657 0 120 255
-68.990292 -223.969392 -330.107250 0 120 255
-66.652466 -224.056885 -330.912842 0 120 255
-64.314640 -224.144378 -331.718435 0 120 255
-61.972182 -224.232071 -332.509655 0 120 255
-59.604562 -224.320860 -333.222788 0 120 255
-57.236943 -224.409648 -333.935920 0 120 255
-54.869323 -224.498436 -334.649053 0 120 255
-52.498954 -224.587315 -335.352406 0 120 255
-50.106971 -224.676905 -335.978871 0 120 255
-47.714988 -224.766495 -336.605335 0 120 255
-45.323006 -224.856085 -337.231800 0 120 255
-42.929643 -224.945712 -337.852604 0 120 255
-40.517980 -225.035823 -338.398340 0 120 255
-38.106317 -225.125933 -338.944076 0 120 255
-35.694654 -225.216044 -339.489812 0 120 255
-33.282564 -225.306165 -340.033510 0 120 255
-30.855245 -225.396654 -340.504681 0 120 255
-28.427927 -225.487144 -340.975852 0 120 255
-26.000608 -225.577633 -341.447023 0 120 255
-23.573290 -225.668122 -341.918194 0 120 255
-21.133923 -225.758856 -342.322233 0 120 255
-18.694366 -225.849593 -342.725217 0 120 255
-16.254809 -225.940330 -343.128200 0 120 255
-13.815252 -226.031068 -343.531183 0 120 255
-11.366863 -226.121887 -343.876140 0 120 255
-8.917927 -226.212711 -344.217501 0 120 255
-6.468991 -226.303536 -344.558862 0 120 255
-4.020055 -226.394360 -344.900223 0 120 255
-1.564794 -226.485169 -345.192171 0 120 255
0.891180 -226.575975 -345.478553 0 120 255
3.347153 -226.666782 -345.764935 0 120 255
5.803126 -226.757589 -346.051317 0 120 255
8.263507 -226.848346 -346.296396 0 120 255
10.724631 -226.939095 -346.534517 0 120 255
13.185754 -227.029843 -346.772638 0 120 255
15.646878 -227.120592 -347.010759 0 120 255
18.110980 -227.211264 -347.215158 0 120 255
20.575768 -227.301919 -347.411795 0 120 255
23.040557 -227.392573 -347.608432 0 120 255
25.505345 -227.483228 -347.805069 0 120 255
27.972079 -227.573763 -347.975000 0 120 255
30.439395 -227.664263 -348.136949 0 120 255
32.906711 -227.754762 -348.298899 0 120 255
35.374027 -227.845262 -348.460848 0 120 255
37.842553 -227.935587 -348.602735 0 120 255
40.311535 -228.025846 -348.737085 0 120 255
42.780516 -228.116104 -348.871434 0 120 255
45.249498 -228.206363 -349.005783 0 120 255
47.719182 -228.296334 -349.126369 0 120 255
50.189192 -228.386172 -349.240590 0 120 255
52.659202 -228.476010 -349.354811 0 120 255
55.129211 -228.565848 -349.469032 0 120 255
57.599596 -228.655155 -349.575112 0 120 255
60.070191 -228.744163 -349.676625 0 120 255
62.540785 -228.833171 -349.778138 0 120 255
65.011380 -228.922179 -349.879651 0 120 255
67.482164 -229.009846 -349.977610 0 120 255
69.953076 -229.096609 -350.073173 0 120 255
72.423988 -229.183372 -350.168736 0 120 255
74.894900 -229.270135 -350.264299 0 120 255
77.366009 -229.351916 -350.359048 0 120 255
79.837276 -229.429688 -350.453141 0 120 255
82.308544 -229.507460 -350.547234 0 120 255
84.779812 -229.585232 -350.641326 0 120 255
87.251277 -229.654343 -350.736585 0 120 255
89.722932 -229.715158 -350.832960 0 120 255
92.194587 -229.775973 -350.929335 0 120 255
94.666242 -229.836788 -351.025709 0 120 255
97.137977 -229.887266 -351.125281 0 120 255
99.609801 -229.925969 -351.228493 0 120 255
102.081625 -229.964673 -351.331706 0 120 255
104.553449 -230.003377 -351.434918 0 120 255
107.025173 -230.030864 -351.543030 0 120 255
109.496760 -230.043136 -351.657789 0 120 255
111.968348 -230.055408 -351.772547 0 120 255
114.439936 -230.067680 -351.887306 0 120 255
116.911204 -230.068395 -352.008216 0 120 255
119.381954 -230.050349 -352.139112 0 120 255
121.852704 -230.032303 -352.270007 0 120 255
124.323454 -230.014258 -352.400903 0 120 255
126.793644 -229.984803 -352.538774 0 120 255
129.262738 -229.933018 -352.690300 0 120 255
131.731832 -229.881233 -352.841825 0 120 255
134.200926 -229.829448 -352.993350 0 120 255
136.669222 -229.766848 -353.152251 0 120 255
139.135614 -229.678423 -353.328765 0 120 255
141.602006 -229.589999 -353.505279 0 120 255
144.068398 -229.501574 -353.681792 0 120 255
146.533787 -229.403306 -353.865676 0 120 255
148.996204 -229.275856 -354.071410 0 120 255
151.458621 -229.148407 -354.277143 0 120 255
153.921037 -229.020957 -354.482876 0 120 255
156.382309 -228.884958 -354.695589 0 120 255
158.839258 -228.716681 -354.934652 0 120 255
161.296206 -228.548403 -355.173716 0 120 255
163.753155 -228.380125 -355.412780 0 120 255
166.208714 -228.204019 -355.659151 0 120 255
168.657322 -227.988754 -355.942071 0 120 255
171.105931 -227.773489 -356.224991 0 120 255
173.554539 -227.558223 -356.507911 0 120 255
176.002980 -227.340941 -356.790689 0 120 255
178.450244 -227.109499 -357.072466 0 120 255
180.897508 -226.878057 -357.354244 0 120 255
183.344772 -226.646614 -357.636022 0 120 255
185.792036 -226.415171 -357.917800 0 120 255
188.239297 -226.183718 -358.199590 0 120 255
190.686559 -225.952264 -358.481381 0 120 255
193.133820 -225.720811 -358.763171 0 120 255
195.581082 -225.489358 -359.044960 0 120 255
198.028345 -225.257908 -359.326743 0 120 255
200.475608 -225.026459 -359.608526 0 120 255
202.922870 -224.795010 -359.890308 0 120 255
205.370133 -224.563560 -360.172091 0 120 255
