ply
format ascii 1.0
element vertex 385
property float x
property float y
property float z
property uchar red
property uchar green
property uchar blue
end_header
77.430455 -42.474882 -360.397637 0 120 255
77.187558 -42.528710 -357.935989 0 120 255
76.944661 -42.582538 -355.474341 0 120 255
76.701764 -42.636367 -353.012693 0 120 255
76.458867 -42.690195 -350.551045 0 120 255
76.215279 -42.753683 -348.089697 0 120 255
75.971662 -42.817592 -345.628361 0 120 255
75.728045 -42.881501 -343.167026 0 120 255
75.484428 -42.945411 -340.705690 0 120 255
75.297279 -43.493576 -338.304838 0 120 255
75.115279 -44.085897 -335.909502 0 120 255
74.933279 -44.678218 -333.514165 0 120 255
74.751279 -45.270539 -331.118828 0 120 255
74.606104 -46.255559 -328.859533 0 120 255
74.466396 -47.298895 -326.620439 0 120 255
74.326689 -48.342231 -324.381346 0 120 255
74.186981 -49.385567 -322.142253 0 120 255
74.071487 -50.738490 -320.080529 0 120 255
73.961134 -52.157160 -318.056473 0 120 255
73.850782 -53.575831 -316.032417 0 120 255
73.740430 -54.994502 -314.008361 0 120 255
73.648190 -56.648173 -312.177478 0 120 255
73.561087 -58.368489 -310.401378 0 120 255
73.473984 -60.088806 -308.625278 0 120 255
73.386880 -61.809123 -306.849179 0 120 255
73.316703 -63.702066 -305.265162 0 120 255
73.252675 -65.657730 -303.750934 0 120 255
73.188647 -67.613393 -302.236705 0 120 255
73.124620 -69.569056 -300.722477 0 120 255
73.079741 -71.647508 -299.389130 0 120 255
73.043537 -73.781589 -298.137734 0 120 255
73.007333 -75.915670 -296.886338 0 120 255
72.971130 -78.049752 -295.634941 0 120 255
72.958446 -80.267966 -294.547855 0 120 255
72.958811 -82.532858 -293.551928 0 120 255
72.959176 -84.797750 -292.556001 0 120 255
72.959541 -87.062642 -291.560074 0 120 255
72.988944 -89.382233 -290.709491 0 120 255
73.037832 -91.738530 -289.956442 0 120 255
73.086721 -94.094826 -289.203393 0 120 255
73.135609 -96.451123 -288.450344 0 120 255
73.219403 -98.839956 -287.823053 0 120 255
73.331301 -101.254987 -287.297020 0 120 255
73.443199 -103.670018 -286.770987 0 120 255
73.555097 -106.085049 -286.244954 0 120 255
73.707489 -108.516029 -285.825455 0 120 255
73.898825 -110.962349 -285.508409 0 120 255
74.090161 -113.408668 -285.191364 0 120 255
74.281496 -115.854988 -284.874318 0 120 255
74.518123 -118.304873 -284.645389 0 120 255
74.806685 -120.758846 -284.517504 0 120 255
75.095247 -123.212819 -284.389618 0 120 255
75.383809 -125.666792 -284.261732 0 120 255
75.721240 -128.115122 -284.204596 0 120 255
76.125559 -130.555727 -284.244296 0 120 255
76.529878 -132.996333 -284.283996 0 120 255
76.934196 -135.436939 -284.323696 0 120 255
77.389394 -137.865133 -284.417974 0 120 255
77.928041 -140.272972 -284.601769 0 120 255
78.466688 -142.680810 -284.785563 0 120 255
79.005335 -145.088649 -284.969357 0 120 255
79.595034 -147.479263 -285.192862 0 120 255
80.285791 -149.835784 -285.494974 0 120 255
80.976547 -152.192305 -285.797085 0 120 255
81.667304 -154.548826 -286.099197 0 120 255
82.407289 -156.884974 -286.427682 0 120 255
83.266204 -159.171905 -286.819882 0 120 255
84.125118 -161.458835 -287.212081 0 120 255
84.984033 -163.745766 -287.604280 0 120 255
85.888310 -166.010715 -288.011249 0 120 255
86.928580 -168.209764 -288.462498 0 120 255
87.968850 -170.408814 -288.913747 0 120 255
89.009120 -172.607864 -289.364996 0 120 255
90.088974 -174.784827 -289.821517 0 120 255
91.319761 -176.877576 -290.298142 0 120 255
92.550548 -178.970325 -290.774767 0 120 255
93.781335 -181.063074 -291.251392 0 120 255
95.044320 -183.135179 -291.726231 0 120 255
96.469481 -185.103304 -292.192073 0 120 255
97.894641 -187.071428 -292.657916 0 120 255
99.319802 -189.039553 -293.123758 0 120 255
100.768696 -190.990051 -293.583568 0 120 255
102.385615 -192.815758 -294.000672 0 120 255
104.002533 -194.641464 -294.417775 0 120 255
105.619452 -196.467171 -294.834879 0 120 255
107.251283 -198.279831 -295.244791 0 120 255
109.049851 -199.946622 -295.574287 0 120 255
110.848419 -201.613413 -295.903782 0 120 255
112.646988 -203.280204 -296.233277 0 120 255
114.452193 -204.939960 -296.557656 0 120 255
116.414187 -206.433538 -296.761154 0 120 255
118.376181 -207.927115 -296.964653 0 120 255
120.338175 -209.420693 -297.168152 0 120 255
122.300169 -210.914270 -297.371651 0 120 255
124.398979 -212.223791 -297.412959 0 120 255
126.497885 -213.533181 -297.454152 0 120 255
128.596791 -214.842572 -297.495345 0 120 255
130.695697 -216.151962 -297.536538 0 120 255
132.892926 -217.278562 -297.391091 0 120 255
135.094456 -218.397167 -297.237480 0 120 255
137.295985 -219.515771 -297.083868 0 120 255
139.497515 -220.634376 -296.930257 0 120 255
141.755599 -221.576951 -296.573356 0 120 255
144.018804 -222.503589 -296.198049 0 120 255
146.282008 -223.430226 -295.822741 0 120 255
148.545212 -224.356863 -295.447434 0 120 255
150.822323 -225.119610 -294.860566 0 120 255
153.101405 -225.859137 -294.243723 0 120 255
155.380486 -226.598664 -293.626881 0 120 255
157.659568 -227.338190 -293.010039 0 120 255
159.911493 -227.930917 -292.181868 0 120 255
162.158047 -228.494601 -291.311888 0 120 255
164.404600 -229.058285 -290.441909 0 120 255
166.651154 -229.621969 -289.571930 0 120 255
168.833368 -230.059960 -288.498711 0 120 255
170.998863 -230.465288 -287.372680 0 120 255
173.164358 -230.870617 -286.246649 0 120 255
175.329853 -231.275946 -285.120617 0 120 255
177.399591 -231.579503 -283.806249 0 120 255
179.437850 -231.849605 -282.429968 0 120 255
181.476110 -232.119707 -281.053687 0 120 255
183.514370 -232.389809 -279.677406 0 120 255
185.432449 -232.583480 -278.132944 0 120 255
187.301768 -232.746141 -276.520246 0 120 255
189.171087 -232.908801 -274.907548 0 120 255
191.040406 -233.071462 -273.294850 0 120 255
192.772576 -233.183642 -271.537634 0 120 255
194.437219 -233.270967 -269.709261 0 120 255
196.101861 -233.358293 -267.880889 0 120 255
197.766504 -233.445618 -266.052517 0 120 255
199.284644 -233.506795 -264.105291 0 120 255
200.716239 -233.552525 -262.087854 0 120 255
202.147835 -233.598254 -260.070418 0 120 255
203.579430 -233.643984 -258.052982 0 120 255
204.862888 -233.681894 -255.943144 0 120 255
206.042112 -233.714301 -253.768291 0 120 255
207.221335 -233.746709 -251.593437 0 120 255
208.400559 -233.779116 -249.418584 0 120 255
209.433724 -233.806845 -247.175439 0 120 255
210.345023 -233.830670 -244.875314 0 120 255
211.256322 -233.854494 -242.575190 0 120 255
212.167621 -233.878319 -240.275065 0 120 255
212.938188 -233.897316 -237.928624 0 120 255
213.569885 -233.911547 -235.536477 0 120 255
214.201582 -233.925779 -233.144331 0 120 255
214.833279 -233.940011 -230.752185 0 120 255
215.332988 -233.949432 -228.333378 0 120 255
215.678717 -233.953239 -225.883467 0 120 255
216.024445 -233.957046 -223.433556 0 120 255
216.370174 -233.960854 -220.983645 0 120 255
216.595318 -233.960236 -218.523838 0 120 255
216.653756 -233.953502 -216.050349 0 120 255
216.712194 -233.946769 -213.576861 0 120 255
216.770631 -233.940035 -211.103372 0 120 255
216.721741 -233.929381 -208.633536 0 120 255
216.496152 -233.912274 -206.169713 0 120 255
216.270564 -233.895168 -203.705890 0 120 255
216.044975 -233.878061 -201.242067 0 120 255
215.726432 -233.857604 -198.792120 0 120 255
215.224187 -233.830525 -196.369596 0 120 255
214.721942 -233.803447 -193.947072 0 120 255
214.219697 -233.776368 -191.524548 0 120 255
213.639281 -233.746512 -189.122860 0 120 255
212.871223 -233.709988 -186.771188 0 120 255
212.103166 -233.673465 -184.419517 0 120 255
211.335108 -233.636941 -182.067845 0 120 255
210.503499 -233.598192 -179.740889 0 120 255
209.483401 -233.552841 -177.487236 0 120 255
208.463304 -233.507490 -175.233583 0 120 255
207.443206 -233.462139 -172.979930 0 120 255
206.373527 -233.415067 -170.752054 0 120 255
205.117541 -233.361528 -168.621036 0 120 255
203.861556 -233.307989 -166.490017 0 120 255
202.605570 -233.254450 -164.358999 0 120 255
201.312931 -233.199665 -162.252317 0 120 255
199.839053 -233.138716 -160.265970 0 120 255
198.365174 -233.077767 -158.279623 0 120 255
196.891296 -233.016818 -156.293276 0 120 255
195.392366 -232.955033 -154.327652 0 120 255
193.720060 -232.887463 -152.505446 0 120 255
192.047754 -232.819893 -150.683240 0 120 255
190.375448 -232.752323 -148.861035 0 120 255
188.688155 -232.684260 -147.054092 0 120 255
186.837988 -232.610838 -145.413027 0 120 255
184.987820 -232.537415 -143.771961 0 120 255
183.137653 -232.463993 -142.130896 0 120 255
181.280870 -232.390359 -140.498107 0 120 255
179.274268 -232.311956 -139.052767 0 120 255
177.267666 -232.233552 -137.607427 0 120 255
175.261064 -232.155149 -136.162087 0 120 255
173.254419 -232.076744 -134.716813 0 120 255
171.113333 -231.994220 -133.479660 0 120 255
168.972248 -231.911697 -132.242507 0 120 255
166.831162 -231.829173 -131.005353 0 120 255
164.690076 -231.746650 -129.768200 0 120 255
162.441509 -231.660953 -128.740681 0 120 255
160.188271 -231.575118 -127.722271 0 120 255
157.935033 -231.489283 -126.703862 0 120 255
155.681796 -231.403448 -125.685452 0 120 255
153.346579 -231.315414 -124.875488 0 120 255
151.003885 -231.227178 -124.084534 0 120 255
148.661192 -231.138943 -123.293580 0 120 255
146.318498 -231.050708 -122.502626 0 120 255
143.917680 -230.961110 -121.916857 0 120 255
141.508522 -230.871317 -121.360529 0 120 255
139.099364 -230.781524 -120.804201 0 120 255
136.690206 -230.691730 -120.247873 0 120 255
134.245173 -230.601354 -119.891572 0 120 255
131.792928 -230.510861 -119.575477 0 120 255
129.340684 -230.420367 -119.259381 0 120 255
126.888440 -230.329874 -118.943286 0 120 255
124.420975 -230.239537 -118.820237 0 120 255
121.949483 -230.149241 -118.748254 0 120 255
119.477991 -230.058945 -118.676270 0 120 255
117.006500 -229.968650 -118.604287 0 120 255
114.538788 -229.879179 -118.716600 0 120 255
112.072343 -229.789984 -118.890664 0 120 255
109.605897 -229.700790 -119.064728 0 120 255
107.139452 -229.611595 -119.238793 0 120 255
104.694018 -229.523812 -119.586729 0 120 255
102.257280 -229.436612 -120.006621 0 120 255
99.820542 -229.349413 -120.426513 0 120 255
97.383804 -229.262214 -120.846406 0 120 255
94.983352 -229.176945 -121.428088 0 120 255
92.601131 -229.092646 -122.091052 0 120 255
90.218909 -229.008347 -122.754017 0 120 255
87.836688 -228.924047 -123.416981 0 120 255
85.503815 -228.842097 -124.228089 0 120 255
83.200682 -228.761561 -125.128478 0 120 255
80.897549 -228.681025 -126.028866 0 120 255
78.594417 -228.600490 -126.929255 0 120 255
76.351185 -228.522620 -127.962775 0 120 255
74.150913 -228.446663 -129.091775 0 120 255
71.950641 -228.370706 -130.220775 0 120 255
69.750369 -228.294749 -131.349774 0 120 255
67.617883 -228.221693 -132.596042 0 120 255
65.542965 -228.151102 -133.941902 0 120 255
63.468048 -228.080510 -135.287763 0 120 255
61.393130 -228.009918 -136.633623 0 120 255
59.391084 -227.942348 -138.080444 0 120 255
57.462154 -227.877809 -139.628561 0 120 255
55.533223 -227.813269 -141.176679 0 120 255
53.604293 -227.748730 -142.724797 0 120 255
51.750500 -227.687248 -144.357607 0 120 255
49.985780 -227.629390 -146.090819 0 120 255
48.221060 -227.571533 -147.824031 0 120 255
46.456341 -227.513675 -149.557243 0 120 255
44.766346 -227.458791 -151.359456 0 120 255
43.181274 -227.408081 -153.258556 0 120 255
41.596202 -227.357371 -155.157657 0 120 255
40.011130 -227.306661 -157.056757 0 120 255
38.497911 -227.258769 -159.010191 0 120 255
37.104803 -227.215589 -161.054449 0 120 255
35.711695 -227.172409 -163.098707 0 120 255
34.318587 -227.129229 -165.142965 0 120 255
32.992334 -227.088642 -167.228306 0 120 255
31.800203 -227.053255 -169.396065 0 120 255
30.608072 -227.017868 -171.563824 0 120 255
29.415941 -226.982481 -173.731582 0 120 255
28.284105 -226.949399 -175.928956 0 120 255
27.299185 -226.921933 -178.198490 0 120 255
26.314265 -226.894467 -180.468024 0 120 255
25.329344 -226.867001 -182.737558 0 120 255
24.397150 -226.841532 -185.027181 0 120 255
23.623709 -226.822075 -187.377291 0 120 255
22.850269 -226.802618 -189.727401 0 120 255
22.076829 -226.783161 -192.077511 0 120 255
21.347811 -226.765371 -194.440072 0 120 255
20.788303 -226.753939 -196.850139 0 120 255
20.228794 -226.742508 -199.260207 0 120 255
19.669285 -226.731076 -201.670275 0 120 255
19.145433 -226.720967 -204.086980 0 120 255
18.800734 -226.717504 -206.537037 0 120 255
18.456035 -226.714041 -208.987093 0 120 255
18.111336 -226.710578 -211.437150 0 120 255
17.793288 -226.708096 -213.889779 0 120 255
17.662939 -226.712520 -216.360527 0 120 255
17.532590 -226.716945 -218.831275 0 120 255
17.402241 -226.721369 -221.302023 0 120 255
17.289481 -226.726435 -223.772940 0 120 255
17.371836 -226.738618 -226.245727 0 120 255
17.454192 -226.750800 -228.718514 0 120 255
17.536547 -226.762983 -231.191301 0 120 255
17.627527 -226.775477 -233.663430 0 120 255
17.919912 -226.795254 -236.120202 0 120 255
18.212296 -226.815030 -238.576973 0 120 255
18.504681 -226.834806 -241.033745 0 120 255
18.797066 -226.854583 -243.490516 0 120 255
19.295629 -226.881744 -245.913795 0 120 255
19.794304 -226.908909 -248.337056 0 120 255
20.292979 -226.936074 -250.760316 0 120 255
20.791654 -226.963240 -253.183577 0 120 255
21.483379 -226.997260 -255.558492 0 120 255
22.183594 -227.031581 -257.931281 0 120 255
22.883809 -227.065903 -260.304070 0 120 255
23.584024 -227.100225 -262.676859 0 120 255
24.463598 -227.140844 -264.988357 0 120 255
25.359548 -227.182039 -267.294258 0 120 255
26.255498 -227.223233 -269.600160 0 120 255
27.151448 -227.264428 -271.906062 0 120 255
28.212460 -227.311356 -274.139670 0 120 255
29.297091 -227.359104 -276.362934 0 120 255
30.381722 -227.406852 -278.586198 0 120 255
31.466353 -227.454600 -280.809462 0 120 255
32.701194 -227.507505 -282.951455 0 120 255
33.966079 -227.561441 -285.077193 0 120 255
35.230964 -227.615377 -287.202932 0 120 255
36.495850 -227.669313 -289.328670 0 120 255
37.895575 -227.727835 -291.366346 0 120 255
39.330746 -227.787563 -293.380874 0 120 255
40.765918 -227.847291 -295.395402 0 120 255
42.201089 -227.907019 -297.409930 0 120 255
43.755445 -227.970738 -299.331893 0 120 255
45.349450 -228.035784 -301.223063 0 120 255
46.943454 -228.100831 -303.114234 0 120 255
48.537459 -228.165878 -305.005404 0 120 255
50.234952 -228.234370 -306.801886 0 120 255
51.974940 -228.304277 -308.559487 0 120 255
53.714928 -228.374184 -310.317087 0 120 255
55.454917 -228.444090 -312.074688 0 120 255
57.283105 -228.516895 -313.737727 0 120 255
59.155246 -228.591143 -315.353642 0 120 255
61.027387 -228.665391 -316.969557 0 120 255
62.899528 -228.739639 -318.585472 0 120 255
64.845258 -228.816357 -320.109127 0 120 255
66.834976 -228.894552 -321.577635 0 120 255
68.824694 -228.972748 -323.046142 0 120 255
70.814412 -229.050943 -324.514650 0 120 255
72.864083 -229.130983 -325.895225 0 120 255
74.956405 -229.212337 -327.213245 0 120 255
77.048727 -229.293690 -328.531265 0 120 255
79.141049 -229.375043 -329.849285 0 120 255
81.280887 -229.457075 -331.085588 0 120 255
83.460760 -229.539679 -332.253036 0 120 255
85.640633 -229.622284 -333.420484 0 120 255
87.820507 -229.704888 -334.587932 0 120 255
90.036338 -229.782565 -335.682983 0 120 255
92.287971 -229.855335 -336.705948 0 120 255
94.539604 -229.928105 -337.728914 0 120 255
96.791237 -230.000875 -338.751879 0 120 255
99.069187 -230.063646 -339.712676 0 120 255
101.378105 -230.114651 -340.600316 0 120 255
103.687023 -230.165657 -341.487955 0 120 255
105.995940 -230.216662 -342.375594 0 120 255
108.323514 -230.254804 -343.211087 0 120 255
110.677095 -230.275013 -343.973878 0 120 255
113.030677 -230.295222 -344.736670 0 120 255
115.384259 -230.315431 -345.499461 0 120 255
117.750518 -230.321595 -346.219731 0 120 255
120.137822 -230.304444 -346.869420 0 120 255
122.525125 -230.287293 -347.519109 0 120 255
124.912428 -230.270142 -348.168797 0 120 255
127.307895 -230.239075 -348.784927 0 120 255
129.719628 -230.180281 -349.334195 0 120 255
132.131361 -230.121487 -349.883463 0 120 255
134.543093 -230.062693 -350.432731 0 120 255
136.959721 -229.991151 -350.956544 0 120 255
139.388194 -229.888757 -351.418759 0 120 255
141.816666 -229.786364 -351.880973 0 120 255
144.245139 -229.683970 -352.343188 0 120 255
146.676268 -229.570724 -352.787047 0 120 255
149.115342 -229.425024 -353.176018 0 120 255
151.554415 -229.279324 -353.564988 0 120 255
153.993489 -229.133624 -353.953958 0 120 255
156.433801 -228.979408 -354.330581 0 120 255
158.878804 -228.792918 -354.660409 0 120 255
161.323807 -228.606428 -354.990237 0 120 255
163.768811 -228.419938 -355.320065 0 120 255
166.214226 -228.227623 -355.642773 0 120 255
168.661699 -228.006241 -355.929953 0 120 255
171.109172 -227.784859 -356.217133 0 120 255
173.556645 -227.563477 -356.504313 0 120 255
176.004081 -227.340837 -356.790815 0 120 255
178.451253 -227.109403 -357.072583 0 120 255
180.898425 -226.877970 -357.354350 0 120 255
183.345598 -226.646536 -357.636117 0 120 255
185.792770 -226.415102 -357.917884 0 120 255
188.239940 -226.183657 -358.199656 0 120 255
190.687111 -225.952212 -358.481429 0 120 255
193.134282 -225.720767 -358.763201 0 120 255
195.581452 -225.489323 -359.044973 0 120 255
198.028623 -225.257882 -359.326753 0 120 255
200.475793 -225.026441 -359.608532 0 120 255
202.922963 -224.795001 -359.890311 0 120 255
205.370133 -224.563560 -360.172091 0 120 255
