ply
format ascii 1.0
element vertex 385
property float x
property float y
property float z
property uchar red
property uchar green
property uchar blue
end_header
77.430455 -42.474882 -360.397637 0 120 255
77.187576 -42.528706 -357.936166 0 120 255
76.944696 -42.582531 -355.474695 0 120 255
76.701816 -42.636355 -353.013224 0 120 255
76.458936 -42.690179 -350.551753 0 120 255
76.213794 -42.751552 -348.090683 0 120 255
75.968553 -42.813256 -345.629631 0 120 255
75.723312 -42.874960 -343.168579 0 120 255
75.478071 -42.936664 -340.707528 0 120 255
75.077782 -43.454941 -338.326350 0 120 255
74.663293 -44.015032 -335.952487 0 120 255
74.248805 -44.575123 -333.578624 0 120 255
73.834316 -45.135214 -331.204761 0 120 255
73.292879 -46.045905 -328.974377 0 120 255
72.732674 -47.008428 -326.765203 0 120 255
72.172468 -47.970950 -324.556030 0 120 255
71.612263 -48.933473 -322.346856 0 120 255
70.949958 -50.152377 -320.303687 0 120 255
70.266184 -51.425192 -318.295423 0 120 255
69.582409 -52.698006 -316.287159 0 120 255
68.898635 -53.970821 -314.278896 0 120 255
68.136303 -55.421457 -312.430237 0 120 255
67.352003 -56.921823 -310.626213 0 120 255
66.567702 -58.422188 -308.822189 0 120 255
65.783402 -59.922553 -307.018164 0 120 255
64.943207 -61.541762 -305.350790 0 120 255
64.083055 -63.203405 -303.732208 0 120 255
63.222902 -64.865049 -302.113627 0 120 255
62.362750 -66.526692 -300.495045 0 120 255
61.468846 -68.267075 -298.983631 0 120 255
60.559963 -70.042406 -297.519780 0 120 255
59.651079 -71.817737 -296.055929 0 120 255
58.742195 -73.593067 -294.592079 0 120 255
57.821157 -75.422740 -293.206543 0 120 255
56.893532 -77.281860 -291.863445 0 120 255
55.965907 -79.140979 -290.520346 0 120 255
55.038282 -81.000099 -289.177248 0 120 255
54.119155 -82.900655 -287.888561 0 120 255
53.205582 -84.828294 -286.635436 0 120 255
52.292009 -86.755932 -285.382311 0 120 255
51.378437 -88.683570 -284.129186 0 120 255
50.492373 -90.646987 -282.913488 0 120 255
49.627821 -92.638384 -281.727058 0 120 255
48.763269 -94.629782 -280.540629 0 120 255
47.898717 -96.621179 -279.354199 0 120 255
47.078228 -98.646268 -278.195335 0 120 255
46.298782 -100.702739 -277.062147 0 120 255
45.519336 -102.759211 -275.928960 0 120 255
44.739889 -104.815683 -274.795772 0 120 255
44.017849 -106.904523 -273.686405 0 120 255
43.359387 -109.029211 -272.603421 0 120 255
42.700924 -111.153899 -271.520437 0 120 255
42.042462 -113.278587 -270.437453 0 120 255
41.450964 -115.433223 -269.378906 0 120 255
40.947722 -117.627330 -268.352568 0 120 255
40.444480 -119.821436 -267.326229 0 120 255
39.941238 -122.015543 -266.299891 0 120 255
39.510437 -124.235209 -265.301019 0 120 255
39.193664 -126.495107 -264.345381 0 120 255
38.876890 -128.755005 -263.389744 0 120 255
38.560117 -131.014903 -262.434106 0 120 255
38.317160 -133.293910 -261.509441 0 120 255
38.213883 -135.609078 -260.643383 0 120 255
38.110607 -137.924247 -259.777324 0 120 255
38.007330 -140.239415 -258.911266 0 120 255
37.975389 -142.565764 -258.078648 0 120 255
38.107415 -144.917812 -257.322892 0 120 255
38.239440 -147.269860 -256.567137 0 120 255
38.371465 -149.621908 -255.811381 0 120 255
38.568967 -151.976708 -255.089423 0 120 255
38.952073 -154.339311 -254.463271 0 120 255
39.335179 -156.701913 -253.837119 0 120 255
39.718285 -159.064516 -253.210967 0 120 255
40.158285 -161.422142 -252.616414 0 120 255
40.801691 -163.761979 -252.134836 0 120 255
41.445097 -166.101817 -251.653258 0 120 255
42.088503 -168.441654 -251.171679 0 120 255
42.778274 -170.770664 -250.717040 0 120 255
43.684316 -173.049169 -250.388061 0 120 255
44.590358 -175.327675 -250.059081 0 120 255
45.496400 -177.606180 -249.730101 0 120 255
46.437196 -179.870856 -249.421560 0 120 255
47.601310 -182.046669 -249.244342 0 120 255
48.765423 -184.222481 -249.067124 0 120 255
49.929537 -186.398294 -248.889907 0 120 255
51.116593 -188.560730 -248.725779 0 120 255
52.527552 -190.592626 -248.689395 0 120 255
53.938510 -192.624522 -248.653012 0 120 255
55.349468 -194.656417 -248.616628 0 120 255
56.772213 -196.678974 -248.586385 0 120 255
58.412695 -198.529009 -248.669558 0 120 255
60.053176 -200.379044 -248.752732 0 120 255
61.693657 -202.229080 -248.835906 0 120 255
63.336179 -204.077009 -248.919952 0 120 255
65.183563 -205.713605 -249.091572 0 120 255
67.030947 -207.350201 -249.263191 0 120 255
68.878331 -208.986798 -249.434810 0 120 255
70.725715 -210.623394 -249.606429 0 120 255
72.747445 -212.031433 -249.825506 0 120 255
74.774852 -213.432031 -250.046128 0 120 255
76.802258 -214.832629 -250.266750 0 120 255
78.829665 -216.233228 -250.487372 0 120 255
80.996099 -217.404378 -250.711062 0 120 255
83.173460 -218.557498 -250.934993 0 120 255
85.350820 -219.710618 -251.158924 0 120 255
87.528180 -220.863737 -251.382854 0 120 255
89.809845 -221.798306 -251.565999 0 120 255
92.104948 -222.704718 -251.743889 0 120 255
94.400052 -223.611130 -251.921779 0 120 255
96.695155 -224.517542 -252.099670 0 120 255
99.061366 -225.226871 -252.196306 0 120 255
101.440655 -225.899952 -252.277998 0 120 255
103.819943 -226.573034 -252.359691 0 120 255
106.199232 -227.246115 -252.441383 0 120 255
108.618534 -227.752102 -252.407118 0 120 255
111.047622 -228.217223 -252.344493 0 120 255
113.476710 -228.682344 -252.281869 0 120 255
115.905798 -229.147464 -252.219244 0 120 255
118.346093 -229.481546 -252.013560 0 120 255
120.789881 -229.774790 -251.763293 0 120 255
123.233670 -230.068034 -251.513025 0 120 255
125.677458 -230.361278 -251.262758 0 120 255
128.105878 -230.562895 -250.851100 0 120 255
130.528362 -230.729123 -250.377113 0 120 255
132.950846 -230.895352 -249.903125 0 120 255
135.373331 -231.061581 -249.429137 0 120 255
137.755884 -231.178627 -248.784945 0 120 255
140.119688 -231.272581 -248.060841 0 120 255
142.483493 -231.366536 -247.336737 0 120 255
144.847298 -231.460490 -246.612633 0 120 255
147.148642 -231.542898 -245.718647 0 120 255
149.414779 -231.618798 -244.728905 0 120 255
151.680916 -231.694699 -243.739163 0 120 255
153.947053 -231.770599 -242.749421 0 120 255
156.131005 -231.841315 -241.598710 0 120 255
158.259795 -231.908552 -240.339956 0 120 255
160.388584 -231.975788 -239.081202 0 120 255
162.517374 -232.043025 -237.822448 0 120 255
164.546601 -232.104966 -236.417389 0 120 255
166.496633 -232.162696 -234.895951 0 120 255
168.446664 -232.220425 -233.374514 0 120 255
170.396695 -232.278154 -231.853076 0 120 255
172.232845 -232.331076 -230.204138 0 120 255
173.961992 -232.379480 -228.435399 0 120 255
175.691138 -232.427885 -226.666661 0 120 255
177.420284 -232.476289 -224.897922 0 120 255
179.025507 -232.520722 -223.023719 0 120 255
180.493325 -232.560752 -221.032580 0 120 255
181.961143 -232.600782 -219.041441 0 120 255
183.428961 -232.640812 -217.050302 0 120 255
184.767818 -232.677256 -214.977543 0 120 255
185.937728 -232.709004 -212.797857 0 120 255
187.107638 -232.740751 -210.618172 0 120 255
188.277548 -232.772498 -208.438486 0 120 255
189.318780 -232.800753 -206.201326 0 120 255
190.160071 -232.823582 -203.874862 0 120 255
191.001363 -232.846411 -201.548398 0 120 255
191.842654 -232.869240 -199.221934 0 120 255
192.560768 -232.888545 -196.860941 0 120 255
193.050374 -232.901315 -194.435895 0 120 255
193.539980 -232.914084 -192.010849 0 120 255
194.029586 -232.926853 -189.585802 0 120 255
194.406211 -232.936100 -187.146589 0 120 255
194.530084 -232.937468 -184.675682 0 120 255
194.653957 -232.938836 -182.204775 0 120 255
194.777830 -232.940204 -179.733868 0 120 255
194.802720 -232.938180 -177.265421 0 120 255
194.556633 -232.926868 -174.803706 0 120 255
194.310547 -232.915557 -172.341991 0 120 255
194.064460 -232.904245 -169.880276 0 120 255
193.736056 -232.889862 -167.433089 0 120 255
193.125924 -232.864967 -165.035622 0 120 255
192.515793 -232.840071 -162.638155 0 120 255
191.905661 -232.815176 -160.240689 0 120 255
191.231205 -232.787721 -157.864827 0 120 255
190.272678 -232.748964 -155.584377 0 120 255
189.314152 -232.710206 -153.303927 0 120 255
188.355626 -232.671449 -151.023477 0 120 255
187.350767 -232.630788 -148.766688 0 120 255
186.068351 -232.578725 -146.651640 0 120 255
184.785936 -232.526662 -144.536593 0 120 255
183.503520 -232.474599 -142.421545 0 120 255
182.191503 -232.421339 -140.327555 0 120 255
180.617127 -232.357475 -138.420205 0 120 255
179.042750 -232.293611 -136.512854 0 120 255
177.468373 -232.229748 -134.605503 0 120 255
175.878828 -232.165348 -132.712624 0 120 255
174.050103 -232.092509 -131.047936 0 120 255
172.221378 -232.019669 -129.383248 0 120 255
170.392653 -231.946829 -127.718560 0 120 255
168.560142 -231.873871 -126.058667 0 120 255
166.518662 -231.794357 -124.663402 0 120 255
164.477182 -231.714842 -123.268136 0 120 255
162.435703 -231.635328 -121.872871 0 120 255
160.394223 -231.555814 -120.477605 0 120 255
158.187456 -231.471349 -119.363539 0 120 255
155.976606 -231.386763 -118.256420 0 120 255
153.765756 -231.302176 -117.149300 0 120 255
151.554906 -231.217590 -116.042181 0 120 255
149.226496 -231.129768 -115.214521 0 120 255
146.889769 -231.041716 -114.406635 0 120 255
144.553042 -230.953665 -113.598748 0 120 255
142.216315 -230.865614 -112.790861 0 120 255
139.804993 -230.775817 -112.253615 0 120 255
137.384628 -230.685808 -111.749179 0 120 255
134.964262 -230.595799 -111.244742 0 120 255
132.543897 -230.505790 -110.740305 0 120 255
130.086445 -230.415384 -110.492027 0 120 255
127.622437 -230.324908 -110.289025 0 120 255
125.158430 -230.234431 -110.086023 0 120 255
122.694423 -230.143955 -109.883021 0 120 255
120.225010 -230.054149 -109.917698 0 120 255
117.754310 -229.964503 -110.008976 0 120 255
115.283610 -229.874857 -110.100254 0 120 255
112.812910 -229.785212 -110.191532 0 120 255
110.362662 -229.697104 -110.499357 0 120 255
107.918681 -229.609467 -110.873523 0 120 255
105.474699 -229.521830 -111.247688 0 120 255
103.030717 -229.434194 -111.621854 0 120 255
100.627442 -229.348752 -112.189904 0 120 255
98.239741 -229.264150 -112.832126 0 120 255
95.852039 -229.179549 -113.474349 0 120 255
93.464337 -229.094947 -114.116571 0 120 255
91.132444 -229.013001 -114.929684 0 120 255
88.826684 -228.932298 -115.822815 0 120 255
86.520923 -228.851596 -116.715946 0 120 255
84.215163 -228.770893 -117.609077 0 120 255
81.975756 -228.693157 -118.650613 0 120 255
79.773859 -228.617098 -119.776042 0 120 255
77.571962 -228.541039 -120.901471 0 120 255
75.370065 -228.464979 -122.026900 0 120 255
73.241162 -228.392056 -123.279364 0 120 255
71.161611 -228.321253 -124.617714 0 120 255
69.082061 -228.250450 -125.956065 0 120 255
67.002510 -228.179647 -127.294415 0 120 255
64.999344 -228.112028 -128.739943 0 120 255
63.057576 -228.046967 -130.271620 0 120 255
61.115809 -227.981906 -131.803296 0 120 255
59.174041 -227.916845 -133.334972 0 120 255
57.309389 -227.854921 -134.955694 0 120 255
55.518194 -227.795985 -136.661236 0 120 255
53.727000 -227.737049 -138.366779 0 120 255
51.935805 -227.678113 -140.072321 0 120 255
50.220315 -227.622206 -141.850593 0 120 255
48.590226 -227.569715 -143.710912 0 120 255
46.960138 -227.517224 -145.571230 0 120 255
45.330050 -227.464733 -147.431548 0 120 255
43.772571 -227.415103 -149.350120 0 120 255
42.312260 -227.369301 -151.346646 0 120 255
40.851948 -227.323499 -153.343173 0 120 255
39.391637 -227.277697 -155.339700 0 120 255
37.999526 -227.234550 -157.381796 0 120 255
36.716150 -227.195638 -159.496544 0 120 255
35.432773 -227.156725 -161.611291 0 120 255
34.149397 -227.117813 -163.726039 0 120 255
32.928800 -227.081318 -165.875387 0 120 255
31.828321 -227.049448 -168.090936 0 120 255
30.727843 -227.017579 -170.306485 0 120 255
29.627364 -226.985709 -172.522034 0 120 255
28.583449 -226.955993 -174.762830 0 120 255
27.670846 -226.931277 -177.062237 0 120 255
26.758243 -226.906561 -179.361644 0 120 255
25.845640 -226.881844 -181.661051 0 120 255
24.982767 -226.859003 -183.977880 0 120 255
24.262229 -226.841528 -186.344576 0 120 255
23.541692 -226.824053 -188.711271 0 120 255
22.821154 -226.806578 -191.077966 0 120 255
22.143013 -226.790690 -193.455708 0 120 255
21.618034 -226.780538 -195.873356 0 120 255
21.093056 -226.770385 -198.291004 0 120 255
20.568078 -226.760233 -200.708652 0 120 255
20.077762 -226.751367 -203.132365 0 120 255
19.751174 -226.748580 -205.584723 0 120 255
19.424586 -226.745793 -208.037081 0 120 255
19.097998 -226.743006 -210.489438 0 120 255
18.798011 -226.741195 -212.944242 0 120 255
18.671926 -226.745771 -215.415033 0 120 255
18.545840 -226.750348 -217.885824 0 120 255
18.419755 -226.754924 -220.356615 0 120 255
18.311973 -226.760168 -222.827590 0 120 255
18.387738 -226.772115 -225.300411 0 120 255
18.463504 -226.784061 -227.773232 0 120 255
18.539269 -226.796007 -230.246053 0 120 255
18.624890 -226.808310 -232.718165 0 120 255
18.902902 -226.827560 -235.176430 0 120 255
19.180914 -226.846811 -237.634695 0 120 255
19.458926 -226.866062 -240.092960 0 120 255
19.738311 -226.885362 -242.551011 0 120 255
20.217725 -226.911828 -244.977982 0 120 255
20.697140 -226.938294 -247.404953 0 120 255
21.176554 -226.964760 -249.831924 0 120 255
21.655968 -226.991226 -252.258895 0 120 255
22.327518 -227.024500 -254.639488 0 120 255
23.006043 -227.058021 -257.018396 0 120 255
23.684569 -227.091542 -259.397305 0 120 255
24.363094 -227.125063 -261.776214 0 120 255
25.221741 -227.164908 -264.095452 0 120 255
26.095379 -227.205280 -266.409724 0 120 255
26.969017 -227.245652 -268.723995 0 120 255
27.842655 -227.286024 -271.038267 0 120 255
28.883045 -227.332202 -273.281425 0 120 255
29.945876 -227.379161 -275.515012 0 120 255
31.008708 -227.426120 -277.748599 0 120 255
32.071540 -227.473079 -279.982186 0 120 255
33.286647 -227.525285 -282.135287 0 120 255
34.530846 -227.578493 -284.273011 0 120 255
35.775044 -227.631701 -286.410735 0 120 255
37.019243 -227.684909 -288.548459 0 120 255
38.400419 -227.742790 -290.598588 0 120 255
39.816304 -227.801853 -292.626520 0 120 255
41.232189 -227.860917 -294.654452 0 120 255
42.648074 -227.919981 -296.682384 0 120 255
44.185187 -227.983117 -298.617978 0 120 255
45.761414 -228.047566 -300.523780 0 120 255
47.337642 -228.112016 -302.429582 0 120 255
48.913869 -228.176465 -304.335384 0 120 255
50.595492 -228.244409 -306.146522 0 120 255
52.319283 -228.313750 -307.919786 0 120 255
54.043073 -228.383092 -309.693050 0 120 255
55.766863 -228.452434 -311.466314 0 120 255
57.580578 -228.524738 -313.144893 0 120 255
59.438100 -228.598485 -314.777345 0 120 255
61.295623 -228.672232 -316.409797 0 120 255
63.153145 -228.745979 -318.042249 0 120 255
65.085841 -228.822257 -319.582139 0 120 255
67.062577 -228.900017 -321.067802 0 120 255
69.039312 -228.977777 -322.553466 0 120 255
71.016048 -229.055537 -324.039129 0 120 255
73.054220 -229.135346 -325.436306 0 120 255
75.135314 -229.216587 -326.771662 0 120 255
77.216408 -229.297828 -328.107017 0 120 255
79.297502 -229.379069 -329.442373 0 120 255
81.427469 -229.461130 -330.695214 0 120 255
83.597945 -229.543873 -331.879661 0 120 255
85.768420 -229.626615 -333.064109 0 120 255
87.938896 -229.709357 -334.248556 0 120 255
90.146510 -229.787466 -335.359594 0 120 255
92.390551 -229.861030 -336.398631 0 120 255
94.634591 -229.934595 -337.437668 0 120 255
96.878632 -230.008160 -338.476705 0 120 255
99.149944 -230.071850 -339.452510 0 120 255
101.452906 -230.124079 -340.354932 0 120 255
103.755868 -230.176309 -341.257353 0 120 255
106.058830 -230.228538 -342.159775 0 120 255
108.381171 -230.267715 -343.009060 0 120 255
110.730185 -230.288926 -343.785212 0 120 255
113.079199 -230.310138 -344.561364 0 120 255
115.428212 -230.331349 -345.337516 0 120 255
117.790438 -230.338182 -346.070214 0 120 255
120.174335 -230.321431 -346.731640 0 120 255
122.558231 -230.304681 -347.393066 0 120 255
124.942127 -230.287930 -348.054493 0 120 255
127.334562 -230.256901 -348.681503 0 120 255
129.743819 -230.197741 -349.240708 0 120 255
132.153075 -230.138581 -349.799912 0 120 255
134.562332 -230.079422 -350.359117 0 120 255
136.976735 -230.007208 -350.892078 0 120 255
139.403464 -229.903734 -351.362191 0 120 255
141.830193 -229.800259 -351.832304 0 120 255
144.256922 -229.696785 -352.302417 0 120 255
146.686471 -229.582278 -352.753470 0 120 255
149.124369 -229.435100 -353.148080 0 120 255
151.562268 -229.287921 -353.542690 0 120 255
154.000166 -229.140743 -353.937300 0 120 255
156.439412 -228.985020 -354.318931 0 120 255
158.883719 -228.797210 -354.651823 0 120 255
161.328026 -228.609401 -354.984715 0 120 255
163.772334 -228.421591 -355.317607 0 120 255
166.217139 -228.228108 -355.642823 0 120 255
168.664411 -228.006551 -355.930055 0 120 255
171.111682 -227.784994 -356.217286 0 120 255
173.558953 -227.563437 -356.504518 0 120 255
176.006190 -227.340638 -356.791058 0 120 255
178.453187 -227.109221 -357.072805 0 120 255
180.900183 -226.877804 -357.354552 0 120 255
183.347180 -226.646387 -357.636299 0 120 255
185.794176 -226.414969 -357.918047 0 120 255
188.241170 -226.183541 -358.199806 0 120 255
190.688164 -225.952112 -358.481565 0 120 255
193.135158 -225.720684 -358.763325 0 120 255
195.582152 -225.489256 -359.045084 0 120 255
198.029147 -225.257832 -359.326835 0 120 255
200.476143 -225.026408 -359.608587 0 120 255
202.923138 -224.794984 -359.890339 0 120 255
205.370133 -224.563560 -360.172091 0 120 255
