ply
format ascii 1.0
element vertex 385
property float x
property float y
property float z
property uchar red
property uchar green
property uchar blue
end_header
77.430455 -42.474882 -360.397637 0 120 255
77.187508 -42.528721 -357.935485 0 120 255
76.944562 -42.582560 -355.473334 0 120 255
76.701615 -42.636400 -353.011183 0 120 255
76.458668 -42.690239 -350.549032 0 120 255
76.195252 -42.789397 -348.090417 0 120 255
75.930964 -42.890489 -345.631954 0 120 255
75.666675 -42.991581 -343.173490 0 120 255
75.402387 -43.092672 -340.715027 0 120 255
75.162077 -43.333827 -338.264258 0 120 255
74.924064 -43.588401 -335.814227 0 120 255
74.686051 -43.842975 -333.364196 0 120 255
74.448039 -44.097548 -330.914165 0 120 255
74.256918 -44.431198 -328.469818 0 120 255
74.073700 -44.778176 -326.026429 0 120 255
73.890482 -45.125154 -323.583040 0 120 255
73.707265 -45.472131 -321.139652 0 120 255
73.568420 -45.878518 -318.702791 0 120 255
73.440720 -46.299825 -316.267569 0 120 255
73.313020 -46.721133 -313.832348 0 120 255
73.185320 -47.142440 -311.397126 0 120 255
73.104802 -47.610107 -308.968672 0 120 255
73.040563 -48.093767 -306.542552 0 120 255
72.976324 -48.577428 -304.116433 0 120 255
72.912085 -49.061089 -301.690313 0 120 255
72.902001 -49.583336 -299.271792 0 120 255
72.916354 -50.122996 -296.856699 0 120 255
72.930708 -50.662655 -294.441607 0 120 255
72.945061 -51.202314 -292.026514 0 120 255
73.014477 -51.769962 -289.619266 0 120 255
73.115513 -52.353683 -287.216523 0 120 255
73.216549 -52.937404 -284.813781 0 120 255
73.317584 -53.521125 -282.411038 0 120 255
73.473637 -54.123411 -280.016348 0 120 255
73.669187 -54.739027 -277.627438 0 120 255
73.864737 -55.354643 -275.238529 0 120 255
74.060288 -55.970259 -272.849619 0 120 255
74.309899 -56.596173 -270.469013 0 120 255
74.607504 -57.231229 -268.095778 0 120 255
74.905109 -57.866286 -265.722543 0 120 255
75.202714 -58.501342 -263.349308 0 120 255
75.552556 -59.139585 -260.984715 0 120 255
75.959398 -59.781303 -258.629553 0 120 255
76.366241 -60.423022 -256.274392 0 120 255
76.773083 -61.064741 -253.919230 0 120 255
77.229513 -61.703675 -251.573141 0 120 255
77.752320 -62.338882 -249.239197 0 120 255
78.275128 -62.974089 -246.905253 0 120 255
78.797935 -63.609296 -244.571308 0 120 255
79.366909 -64.236903 -242.246929 0 120 255
80.011832 -64.852007 -239.938287 0 120 255
80.656756 -65.467110 -237.629644 0 120 255
81.301680 -66.082213 -235.321001 0 120 255
81.988641 -66.686063 -233.022413 0 120 255
82.761095 -67.267028 -230.744277 0 120 255
83.533550 -67.847992 -228.466141 0 120 255
84.306005 -68.428957 -226.188005 0 120 255
85.115746 -68.996196 -223.920323 0 120 255
86.020211 -69.528569 -221.679200 0 120 255
86.924675 -70.060942 -219.438076 0 120 255
87.829140 -70.593316 -217.196953 0 120 255
88.765623 -71.110678 -214.966472 0 120 255
89.805397 -71.579615 -212.770321 0 120 255
90.845171 -72.048552 -210.574170 0 120 255
91.884945 -72.517490 -208.378019 0 120 255
92.951091 -72.971324 -206.192353 0 120 255
94.128022 -73.361715 -204.050732 0 120 255
95.304952 -73.752105 -201.909111 0 120 255
96.481883 -74.142495 -199.767490 0 120 255
97.679329 -74.518862 -197.635703 0 120 255
98.993493 -74.815449 -195.559860 0 120 255
100.307656 -75.112035 -193.484018 0 120 255
101.621819 -75.408622 -191.408176 0 120 255
102.950638 -75.693395 -189.340873 0 120 255
104.399996 -75.881006 -187.343806 0 120 255
105.849353 -76.068617 -185.346739 0 120 255
107.298711 -76.256228 -183.349673 0 120 255
108.757096 -76.435287 -181.359066 0 120 255
110.337108 -76.499124 -179.455491 0 120 255
111.917120 -76.562960 -177.551916 0 120 255
113.497132 -76.626796 -175.648341 0 120 255
115.081046 -76.686269 -173.748243 0 120 255
116.784327 -76.612266 -171.954513 0 120 255
118.487608 -76.538264 -170.160783 0 120 255
120.190890 -76.464261 -168.367052 0 120 255
121.894171 -76.390259 -166.573322 0 120 255
123.709701 -76.166112 -164.906733 0 120 255
125.525667 -75.941384 -163.240637 0 120 255
127.341632 -75.716655 -161.574540 0 120 255
129.157597 -75.491927 -159.908444 0 120 255
131.068463 -75.111353 -158.383386 0 120 255
132.983014 -74.724728 -156.863804 0 120 255
134.897564 -74.338103 -155.344223 0 120 255
136.812115 -73.951478 -153.824642 0 120 255
138.801887 -73.405830 -152.459679 0 120 255
140.797228 -72.848409 -151.106162 0 120 255
142.792570 -72.290988 -149.752646 0 120 255
144.787911 -71.733567 -148.399129 0 120 255
146.836632 -71.016766 -147.213003 0 120 255
148.891188 -70.282546 -146.045171 0 120 255
150.945744 -69.548326 -144.877339 0 120 255
153.000300 -68.814106 -143.709507 0 120 255
155.084529 -67.923226 -142.720498 0 120 255
157.173046 -67.009704 -141.757334 0 120 255
159.261563 -66.096183 -140.794169 0 120 255
161.350080 -65.182662 -139.831005 0 120 255
163.443117 -64.118472 -139.056183 0 120 255
165.536967 -63.027207 -138.315205 0 120 255
167.630816 -61.935943 -137.574228 0 120 255
169.724665 -60.844678 -136.833250 0 120 255
171.797002 -59.612100 -136.287642 0 120 255
173.864717 -58.349158 -135.784013 0 120 255
175.932432 -57.086215 -135.280383 0 120 255
178.000147 -55.823273 -134.776754 0 120 255
180.020160 -54.431716 -134.472505 0 120 255
182.028236 -53.007972 -134.218152 0 120 255
184.036312 -51.584228 -133.963799 0 120 255
186.044388 -50.160484 -133.709446 0 120 255
187.979231 -48.623958 -133.654986 0 120 255
189.893110 -47.055146 -133.657748 0 120 255
191.806989 -45.486335 -133.660510 0 120 255
193.720868 -43.917523 -133.663273 0 120 255
195.537576 -42.254538 -133.862631 0 120 255
197.322855 -40.561096 -134.125575 0 120 255
199.108135 -38.867653 -134.388519 0 120 255
200.893414 -37.174210 -134.651462 0 120 255
202.560115 -35.407397 -135.103729 0 120 255
204.183825 -33.613983 -135.624635 0 120 255
205.807535 -31.820569 -136.145542 0 120 255
207.431245 -30.027155 -136.666448 0 120 255
208.918405 -28.182616 -137.365516 0 120 255
210.350310 -26.317390 -138.136677 0 120 255
211.782215 -24.452164 -138.907838 0 120 255
213.214120 -22.586937 -139.678999 0 120 255
214.495720 -20.693387 -140.613601 0 120 255
215.709539 -18.787063 -141.621910 0 120 255
216.923357 -16.880740 -142.630219 0 120 255
218.137175 -14.974416 -143.638527 0 120 255
219.191709 -13.062137 -144.792562 0 120 255
220.166120 -11.146862 -146.019899 0 120 255
221.140532 -9.231588 -147.247236 0 120 255
222.114943 -7.316313 -148.474572 0 120 255
222.926149 -5.416051 -149.827732 0 120 255
223.645533 -3.524235 -151.251681 0 120 255
224.364917 -1.632419 -152.675629 0 120 255
225.084301 0.259397 -154.099578 0 120 255
225.641594 2.117536 -155.628175 0 120 255
226.096443 3.954392 -157.222912 0 120 255
226.551292 5.791248 -158.817648 0 120 255
227.006141 7.628104 -160.412384 0 120 255
227.304708 9.415651 -162.090337 0 120 255
227.491693 11.167995 -163.827702 0 120 255
227.678679 12.920338 -165.565068 0 120 255
227.865664 14.672682 -167.302433 0 120 255
227.906240 16.363636 -169.102295 0 120 255
227.827935 18.004744 -170.952901 0 120 255
227.749630 19.645853 -172.803507 0 120 255
227.671325 21.286961 -174.654113 0 120 255
227.459725 22.858404 -176.548078 0 120 255
227.124079 24.365019 -178.482391 0 120 255
226.788434 25.871633 -180.416703 0 120 255
226.452789 27.378247 -182.351016 0 120 255
225.999243 28.810726 -184.311829 0 120 255
225.418837 30.163436 -186.301154 0 120 255
224.838431 31.516147 -188.290479 0 120 255
224.258025 32.868857 -190.279804 0 120 255
223.576412 34.146560 -192.281516 0 120 255
222.767592 35.329985 -194.298798 0 120 255
221.958772 36.513411 -196.316079 0 120 255
221.149952 37.696837 -198.333361 0 120 255
220.256969 38.807564 -200.351924 0 120 255
219.238931 39.810269 -202.372392 0 120 255
218.220892 40.812974 -204.392860 0 120 255
217.202854 41.815679 -206.413328 0 120 255
216.117227 42.750669 -208.427012 0 120 255
214.911124 43.564953 -210.428602 0 120 255
213.705021 44.379238 -212.430193 0 120 255
212.498918 45.193523 -214.431784 0 120 255
211.240660 45.947170 -216.421424 0 120 255
209.868784 46.568720 -218.385029 0 120 255
208.496908 47.190269 -220.348633 0 120 255
207.125032 47.811819 -222.312238 0 120 255
205.714800 48.381321 -224.261351 0 120 255
204.199885 48.808771 -226.170914 0 120 255
202.684970 49.236222 -228.080476 0 120 255
201.170054 49.663672 -229.990039 0 120 255
199.628609 50.048626 -231.884822 0 120 255
197.993219 50.283103 -233.727275 0 120 255
196.357829 50.517579 -235.569727 0 120 255
194.722439 50.752055 -237.412180 0 120 255
193.070202 50.954071 -239.241410 0 120 255
191.336295 50.998726 -241.006539 0 120 255
189.602387 51.043381 -242.771669 0 120 255
187.868480 51.088036 -244.536798 0 120 255
186.125215 51.110346 -246.291678 0 120 255
184.313799 50.969912 -247.971904 0 120 255
182.502383 50.829479 -249.652131 0 120 255
180.690967 50.689046 -251.332357 0 120 255
178.875539 50.536149 -253.006315 0 120 255
177.006446 50.216540 -254.596426 0 120 255
175.137353 49.896930 -256.186536 0 120 255
173.268259 49.577321 -257.776647 0 120 255
171.398475 49.254665 -259.365110 0 120 255
169.490242 48.762621 -260.861990 0 120 255
167.582009 48.270578 -262.358871 0 120 255
165.673776 47.778534 -263.855751 0 120 255
163.765543 47.286491 -265.352631 0 120 255
161.836118 46.635024 -266.758259 0 120 255
159.905929 45.977813 -268.160598 0 120 255
157.975740 45.320601 -269.562937 0 120 255
156.045552 44.663389 -270.965276 0 120 255
154.109789 43.862387 -272.281570 0 120 255
152.173491 43.047569 -273.589596 0 120 255
150.237193 42.232751 -274.897622 0 120 255
148.300895 41.417934 -276.205648 0 120 255
146.371873 40.474287 -277.433959 0 120 255
144.444045 39.509524 -278.649204 0 120 255
142.516216 38.544761 -279.864449 0 120 255
140.588388 37.579998 -281.079694 0 120 255
138.678160 36.500539 -282.222231 0 120 255
136.772174 35.393440 -283.347246 0 120 255
134.866187 34.286341 -284.472260 0 120 255
132.960201 33.179242 -285.597275 0 120 255
131.079906 31.970687 -286.656987 0 120 255
129.208068 30.728738 -287.695204 0 120 255
127.336230 29.486789 -288.733421 0 120 255
125.464391 28.244839 -289.771638 0 120 255
123.624347 26.913729 -290.752041 0 120 255
121.798000 25.544206 -291.707538 0 120 255
119.971653 24.174683 -292.663034 0 120 255
118.145305 22.805160 -293.618530 0 120 255
116.355118 21.357843 -294.523615 0 120 255
114.584787 19.867807 -295.401016 0 120 255
112.814457 18.377771 -296.278417 0 120 255
111.044126 16.887735 -297.155818 0 120 255
109.312785 15.330367 -297.989913 0 120 255
107.608284 13.726647 -298.794196 0 120 255
105.903783 12.122927 -299.598479 0 120 255
104.199283 10.519207 -300.402761 0 120 255
102.535263 8.857761 -301.170455 0 120 255
100.905835 7.146988 -301.906886 0 120 255
99.276406 5.436215 -302.643316 0 120 255
97.646977 3.725443 -303.379746 0 120 255
96.058336 1.965746 -304.085820 0 120 255
94.512752 0.154402 -304.759849 0 120 255
92.967169 -1.656943 -305.433878 0 120 255
91.421586 -3.468287 -306.107906 0 120 255
89.916043 -5.320509 -306.757260 0 120 255
88.462717 -7.226041 -307.374434 0 120 255
87.009391 -9.131572 -307.991609 0 120 255
85.556065 -11.037104 -308.608783 0 120 255
84.141083 -12.976175 -309.206377 0 120 255
82.788153 -14.969524 -309.772284 0 120 255
81.435222 -16.962872 -310.338192 0 120 255
80.082291 -18.956221 -310.904099 0 120 255
78.765141 -20.976444 -311.454916 0 120 255
77.520543 -23.051164 -311.975135 0 120 255
76.275946 -25.125883 -312.495354 0 120 255
75.031349 -27.200603 -313.015573 0 120 255
73.819165 -29.296187 -313.524575 0 120 255
72.690697 -31.445662 -314.004607 0 120 255
71.562230 -33.595136 -314.484640 0 120 255
70.433763 -35.744611 -314.964672 0 120 255
69.335315 -37.910435 -315.436428 0 120 255
68.338233 -40.131465 -315.880236 0 120 255
67.341151 -42.352494 -316.324044 0 120 255
66.344070 -44.573524 -316.767853 0 120 255
65.371690 -46.805780 -317.206126 0 120 255
64.513225 -49.089809 -317.618874 0 120 255
63.654759 -51.373838 -318.031621 0 120 255
62.796294 -53.657866 -318.444369 0 120 255
61.955258 -55.948393 -318.854033 0 120 255
61.233608 -58.283424 -319.242571 0 120 255
60.511959 -60.618455 -319.631110 0 120 255
59.790309 -62.953486 -320.019649 0 120 255
59.079652 -65.291788 -320.406718 0 120 255
58.500511 -67.669221 -320.776200 0 120 255
57.921370 -70.046654 -321.145683 0 120 255
57.342228 -72.424087 -321.515165 0 120 255
56.767157 -74.802438 -321.884260 0 120 255
56.336036 -77.213235 -322.239650 0 120 255
55.904915 -79.624033 -322.595040 0 120 255
55.473794 -82.034830 -322.950430 0 120 255
55.042673 -84.445627 -323.305820 0 120 255
54.761583 -86.879709 -323.651992 0 120 255
54.483783 -89.314302 -323.997961 0 120 255
54.205984 -91.748895 -324.343931 0 120 255
53.928185 -94.183489 -324.689901 0 120 255
53.797679 -96.630723 -325.031198 0 120 255
53.678209 -99.078904 -325.372145 0 120 255
53.558739 -101.527086 -325.713092 0 120 255
53.439270 -103.975268 -326.054039 0 120 255
53.463691 -106.425803 -326.394097 0 120 255
53.507209 -108.876652 -326.734037 0 120 255
53.550728 -111.327500 -327.073977 0 120 255
53.594247 -113.778349 -327.413917 0 120 255
53.777554 -116.221628 -327.756050 0 120 255
53.988245 -118.663424 -328.098613 0 120 255
54.198935 -121.105221 -328.441176 0 120 255
54.409626 -123.547018 -328.783739 0 120 255
54.755282 -125.971728 -329.130872 0 120 255
55.136720 -128.391908 -329.479217 0 120 255
55.518159 -130.812088 -329.827561 0 120 255
55.899597 -133.232268 -330.175906 0 120 255
56.410453 -135.626306 -330.530533 0 120 255
56.965462 -138.011424 -330.887304 0 120 255
57.520471 -140.396542 -331.244075 0 120 255
58.075481 -142.781661 -331.600846 0 120 255
58.753613 -145.132126 -331.964967 0 120 255
59.484070 -147.467865 -332.332212 0 120 255
60.214528 -149.803603 -332.699456 0 120 255
60.944985 -152.139342 -333.066700 0 120 255
61.791549 -154.432548 -333.441800 0 120 255
62.698214 -156.703737 -333.820966 0 120 255
63.604879 -158.974927 -334.200132 0 120 255
64.511544 -161.246117 -334.579298 0 120 255
65.526591 -163.467649 -334.966243 0 120 255
66.608885 -165.658372 -335.358017 0 120 255
67.691179 -167.849094 -335.749790 0 120 255
68.773474 -170.039816 -336.141564 0 120 255
69.955768 -172.174620 -336.540584 0 120 255
71.211565 -174.268321 -336.944931 0 120 255
72.467363 -176.362023 -337.349278 0 120 255
73.723161 -178.455724 -337.753625 0 120 255
75.069999 -180.488241 -338.164227 0 120 255
76.495433 -182.467935 -338.580229 0 120 255
77.920867 -184.447630 -338.996231 0 120 255
79.346300 -186.427325 -339.412233 0 120 255
80.853336 -188.341676 -339.833158 0 120 255
82.442605 -190.190177 -340.259043 0 120 255
84.031874 -192.038678 -340.684929 0 120 255
85.621144 -193.887179 -341.110814 0 120 255
87.282230 -195.667392 -341.540031 0 120 255
89.027446 -197.367609 -341.973148 0 120 255
90.772663 -199.067827 -342.406266 0 120 255
92.517880 -200.768044 -342.839384 0 120 255
94.324940 -202.398344 -343.274039 0 120 255
96.216021 -203.933654 -343.710782 0 120 255
98.107103 -205.468963 -344.147526 0 120 255
99.998185 -207.004272 -344.584270 0 120 255
101.941137 -208.469403 -345.020674 0 120 255
103.965767 -209.824026 -345.456543 0 120 255
105.990397 -211.178648 -345.892412 0 120 255
108.015027 -212.533270 -346.328282 0 120 255
110.081754 -213.818855 -346.761947 0 120 255
112.225399 -214.978299 -347.191584 0 120 255
114.369044 -216.137743 -347.621221 0 120 255
116.512689 -217.297186 -348.050859 0 120 255
118.689078 -218.390128 -348.476536 0 120 255
120.935104 -219.341642 -348.893790 0 120 255
123.181129 -220.293155 -349.311044 0 120 255
125.427155 -221.244669 -349.728298 0 120 255
127.697220 -222.133545 -350.140045 0 120 255
130.027113 -222.866535 -350.538087 0 120 255
132.357005 -223.599524 -350.936129 0 120 255
134.686898 -224.332514 -351.334171 0 120 255
137.032990 -225.007961 -351.725456 0 120 255
139.426661 -225.514406 -352.096892 0 120 255
141.820332 -226.020850 -352.468329 0 120 255
144.214002 -226.527294 -352.839766 0 120 255
146.617101 -226.982358 -353.203587 0 120 255
149.053279 -227.257146 -353.540690 0 120 255
151.489458 -227.531933 -353.877793 0 120 255
153.925636 -227.806721 -354.214896 0 120 255
156.365714 -228.037158 -354.543974 0 120 255
158.822437 -228.078344 -354.838809 0 120 255
161.279160 -228.119531 -355.133644 0 120 255
163.735883 -228.160717 -355.428480 0 120 255
166.191810 -228.163065 -355.718971 0 120 255
168.643499 -227.958475 -355.986315 0 120 255
171.095189 -227.753884 -356.253659 0 120 255
173.546878 -227.549294 -356.521003 0 120 255
175.998075 -227.341405 -356.790124 0 120 255
178.445747 -227.109924 -357.071949 0 120 255
180.893420 -226.878443 -357.353773 0 120 255
183.341093 -226.646962 -357.635598 0 120 255
185.788766 -226.415480 -357.917424 0 120 255
188.236436 -226.183988 -358.199261 0 120 255
190.684106 -225.952496 -358.481098 0 120 255
193.131777 -225.721004 -358.762935 0 120 255
195.579447 -225.489512 -359.044772 0 120 255
198.027119 -225.258024 -359.326602 0 120 255
200.474790 -225.026536 -359.608431 0 120 255
202.922462 -224.795048 -359.890261 0 120 255
205.370133 -224.563560 -360.172091 0 120 255
