ply
format ascii 1.0
element vertex 385
property float x
property float y
property float z
property uchar red
property uchar green
property uchar blue
end_header
77.430455 -42.474882 -360.397637 0 120 255
77.187571 -42.528707 -357.936124 0 120 255
76.944688 -42.582532 -355.474611 0 120 255
76.701804 -42.636358 -353.013098 0 120 255
76.458920 -42.690183 -350.551585 0 120 255
76.218837 -42.749920 -348.089934 0 120 255
75.978876 -42.809915 -345.628278 0 120 255
75.738916 -42.869910 -343.166621 0 120 255
75.498955 -42.929906 -340.704964 0 120 255
75.228005 -43.255691 -338.268840 0 120 255
74.954186 -43.606079 -335.835080 0 120 255
74.680368 -43.956466 -333.401321 0 120 255
74.406549 -44.306853 -330.967561 0 120 255
74.103282 -44.896264 -328.585854 0 120 255
73.795634 -45.521231 -326.211890 0 120 255
73.487985 -46.146197 -323.837926 0 120 255
73.180337 -46.771164 -321.463962 0 120 255
72.848463 -47.613370 -319.163908 0 120 255
72.511478 -48.501409 -316.879446 0 120 255
72.174492 -49.389448 -314.594985 0 120 255
71.837507 -50.277487 -312.310524 0 120 255
71.482334 -51.360257 -310.117504 0 120 255
71.122066 -52.497588 -307.950105 0 120 255
70.761798 -53.634919 -305.782705 0 120 255
70.401529 -54.772249 -303.615306 0 120 255
70.029668 -56.081565 -301.552835 0 120 255
69.653661 -57.452378 -299.527884 0 120 255
69.277655 -58.823192 -297.502934 0 120 255
68.901648 -60.194005 -295.477983 0 120 255
68.520974 -61.714171 -293.567655 0 120 255
68.138225 -63.300726 -291.708279 0 120 255
67.755476 -64.887282 -289.848902 0 120 255
67.372727 -66.473837 -287.989526 0 120 255
66.992304 -68.187560 -286.250945 0 120 255
66.613144 -69.970318 -284.577940 0 120 255
66.233985 -71.753077 -282.904935 0 120 255
65.854825 -73.535835 -281.231930 0 120 255
65.484832 -75.424283 -279.682602 0 120 255
65.120842 -77.381947 -278.214270 0 120 255
64.756852 -79.339610 -276.745937 0 120 255
64.392863 -81.297274 -275.277605 0 120 255
64.044492 -83.340127 -273.932806 0 120 255
63.708360 -85.449740 -272.684813 0 120 255
63.372229 -87.559352 -271.436820 0 120 255
63.036098 -89.668965 -270.188828 0 120 255
62.721418 -91.844469 -269.061421 0 120 255
62.426753 -94.081453 -268.046526 0 120 255
62.132088 -96.318437 -267.031632 0 120 255
61.837422 -98.555421 -266.016738 0 120 255
61.569221 -100.840454 -265.116960 0 120 255
61.330354 -103.178750 -264.344788 0 120 255
61.091486 -105.517046 -263.572615 0 120 255
60.852619 -107.855341 -262.800442 0 120 255
60.644211 -110.225539 -262.135683 0 120 255
60.475925 -112.637759 -261.612416 0 120 255
60.307640 -115.049980 -261.089150 0 120 255
60.139354 -117.462200 -260.565884 0 120 255
60.004342 -119.892106 -260.140421 0 120 255
59.921573 -122.349778 -259.868517 0 120 255
59.838804 -124.807450 -259.596613 0 120 255
59.756035 -127.265122 -259.324709 0 120 255
59.708052 -129.728422 -259.139494 0 120 255
59.725551 -132.202314 -259.117464 0 120 255
59.743049 -134.676207 -259.095435 0 120 255
59.760548 -137.150099 -259.073405 0 120 255
59.812955 -139.619914 -259.125855 0 120 255
59.944898 -142.080437 -259.348003 0 120 255
60.076841 -144.540961 -259.570151 0 120 255
60.208784 -147.001485 -259.792298 0 120 255
60.374350 -149.450732 -260.076120 0 120 255
60.633961 -151.868438 -260.532448 0 120 255
60.893573 -154.286144 -260.988776 0 120 255
61.153184 -156.703850 -261.445103 0 120 255
61.443756 -159.105676 -261.950217 0 120 255
61.842893 -161.451821 -262.626403 0 120 255
62.242030 -163.797967 -263.302589 0 120 255
62.641167 -166.144112 -263.978775 0 120 255
63.067328 -168.472385 -264.691313 0 120 255
63.616104 -170.719566 -265.568784 0 120 255
64.164879 -172.966747 -266.446256 0 120 255
64.713655 -175.213929 -267.323727 0 120 255
65.284412 -177.443767 -268.226124 0 120 255
65.990852 -179.566549 -269.282379 0 120 255
66.697291 -181.689331 -270.338634 0 120 255
67.403731 -183.812113 -271.394889 0 120 255
68.126221 -185.920427 -272.466152 0 120 255
68.995961 -187.896016 -273.675092 0 120 255
69.865701 -189.871605 -274.884032 0 120 255
70.735441 -191.847194 -276.092972 0 120 255
71.614696 -193.813242 -277.308984 0 120 255
72.650777 -195.622041 -278.641544 0 120 255
73.686858 -197.430841 -279.974104 0 120 255
74.722938 -199.239640 -281.306664 0 120 255
75.761695 -201.045508 -282.640704 0 120 255
76.964431 -202.671685 -284.065453 0 120 255
78.167166 -204.297862 -285.490203 0 120 255
79.369902 -205.924038 -286.914952 0 120 255
80.572637 -207.550215 -288.339702 0 120 255
81.935481 -208.986948 -289.822171 0 120 255
83.302460 -210.418789 -291.306130 0 120 255
84.669439 -211.850630 -292.790090 0 120 255
86.036418 -213.282471 -294.274050 0 120 255
87.551945 -214.526071 -295.781841 0 120 255
89.078058 -215.756256 -297.291330 0 120 255
90.604171 -216.986442 -298.800819 0 120 255
92.130284 -218.216628 -300.310308 0 120 255
93.791584 -219.264427 -301.812601 0 120 255
95.469263 -220.290129 -303.314022 0 120 255
97.146942 -221.315831 -304.815442 0 120 255
98.824621 -222.341533 -306.316863 0 120 255
100.620689 -223.196940 -307.785052 0 120 255
102.437620 -224.022338 -309.247384 0 120 255
104.254550 -224.847736 -310.709716 0 120 255
106.071481 -225.673134 -312.172049 0 120 255
107.992022 -226.341409 -313.577997 0 120 255
109.937184 -226.972348 -314.970548 0 120 255
111.882346 -227.603288 -316.363099 0 120 255
113.827507 -228.234227 -317.755649 0 120 255
115.863736 -228.719875 -319.070190 0 120 255
117.927775 -229.161153 -320.360908 0 120 255
119.991814 -229.602431 -321.651625 0 120 255
122.055853 -230.043708 -322.942343 0 120 255
124.195973 -230.355283 -324.138896 0 120 255
126.365099 -230.617410 -325.299551 0 120 255
128.534224 -230.879537 -326.460206 0 120 255
130.703350 -231.141664 -327.620860 0 120 255
132.933269 -231.293346 -328.675729 0 120 255
135.191562 -231.393482 -329.681224 0 120 255
137.449855 -231.493617 -330.686719 0 120 255
139.708148 -231.593752 -331.692215 0 120 255
142.012195 -231.606580 -332.586455 0 120 255
144.342067 -231.570130 -333.417902 0 120 255
146.671939 -231.533680 -334.249348 0 120 255
149.001811 -231.497230 -335.080794 0 120 255
151.364754 -231.381404 -335.794736 0 120 255
153.750015 -231.212012 -336.429380 0 120 255
156.135275 -231.042619 -337.064024 0 120 255
158.520536 -230.873227 -337.698669 0 120 255
160.925248 -230.629283 -338.210590 0 120 255
163.345452 -230.325968 -338.624776 0 120 255
165.765655 -230.022652 -339.038962 0 120 255
168.185859 -229.719337 -339.453148 0 120 255
170.611452 -229.352545 -339.744726 0 120 255
173.042093 -228.926311 -339.921490 0 120 255
175.472734 -228.500078 -340.098254 0 120 255
177.903375 -228.073845 -340.275018 0 120 255
180.326137 -227.595183 -340.332518 0 120 255
182.740236 -227.058865 -340.258860 0 120 255
185.154335 -226.522547 -340.185203 0 120 255
187.568433 -225.986229 -340.111546 0 120 255
189.962752 -225.408202 -339.924957 0 120 255
192.331499 -224.776255 -339.592370 0 120 255
194.700247 -224.144308 -339.259782 0 120 255
197.068994 -223.512362 -338.927195 0 120 255
199.407937 -222.848803 -338.490615 0 120 255
201.701431 -222.137039 -337.895457 0 120 255
203.994925 -221.425276 -337.300300 0 120 255
206.288420 -220.713513 -336.705143 0 120 255
208.544369 -219.979320 -336.017035 0 120 255
210.732378 -219.204540 -335.160725 0 120 255
212.920387 -218.429760 -334.304414 0 120 255
215.108396 -217.654980 -333.448104 0 120 255
217.253703 -216.865818 -332.511402 0 120 255
219.306468 -216.045487 -331.400479 0 120 255
221.359233 -215.225156 -330.289556 0 120 255
223.411997 -214.404825 -329.178633 0 120 255
225.419657 -213.576819 -328.000775 0 120 255
227.308672 -212.728623 -326.646846 0 120 255
229.197686 -211.880428 -325.292916 0 120 255
231.086700 -211.032233 -323.938987 0 120 255
232.930990 -210.181618 -322.531784 0 120 255
234.629716 -209.323128 -320.951195 0 120 255
236.328441 -208.464638 -319.370606 0 120 255
238.027167 -207.606149 -317.790017 0 120 255
239.684230 -206.748971 -316.169375 0 120 255
241.168726 -205.897230 -314.382829 0 120 255
242.653221 -205.045488 -312.596284 0 120 255
244.137716 -204.193747 -310.809738 0 120 255
245.586084 -203.345532 -308.995306 0 120 255
246.835593 -202.516730 -307.027376 0 120 255
248.085101 -201.687927 -305.059445 0 120 255
249.334610 -200.859125 -303.091515 0 120 255
250.555657 -200.034607 -301.106250 0 120 255
251.552955 -199.243760 -298.984719 0 120 255
252.550253 -198.452914 -296.863188 0 120 255
253.547552 -197.662068 -294.741657 0 120 255
254.525797 -196.874920 -292.611285 0 120 255
255.257585 -196.135609 -290.366549 0 120 255
255.989374 -195.396297 -288.121813 0 120 255
256.721162 -194.656986 -285.877077 0 120 255
257.444567 -193.919611 -283.629567 0 120 255
257.901537 -193.243800 -281.293889 0 120 255
258.358507 -192.567988 -278.958211 0 120 255
258.815476 -191.892177 -276.622533 0 120 255
259.272446 -191.216366 -274.286854 0 120 255
259.452524 -190.613445 -271.894355 0 120 255
259.629544 -190.011329 -269.501228 0 120 255
259.806565 -189.409214 -267.108101 0 120 255
259.983585 -188.807098 -264.714975 0 120 255
259.894331 -188.282706 -262.299671 0 120 255
259.790321 -187.762622 -259.883139 0 120 255
259.686311 -187.242537 -257.466606 0 120 255
259.582302 -186.722452 -255.050074 0 120 255
259.226371 -186.282510 -252.643122 0 120 255
258.844227 -185.850906 -250.237167 0 120 255
258.462084 -185.419302 -247.831212 0 120 255
258.079940 -184.987698 -245.425257 0 120 255
257.463286 -184.636457 -243.057264 0 120 255
256.809671 -184.297883 -240.695254 0 120 255
256.156056 -183.959309 -238.333244 0 120 255
255.502441 -183.620734 -235.971235 0 120 255
254.634122 -183.360867 -233.671835 0 120 255
253.719255 -183.118062 -231.386009 0 120 255
252.804389 -182.875258 -229.100183 0 120 255
251.889522 -182.632454 -226.814357 0 120 255
250.781454 -182.465089 -224.611860 0 120 255
249.618796 -182.319039 -222.432909 0 120 255
248.456138 -182.172990 -220.253957 0 120 255
247.293480 -182.026941 -218.075005 0 120 255
245.960207 -181.951765 -215.996073 0 120 255
244.566200 -181.901818 -213.952747 0 120 255
243.172192 -181.851871 -211.909420 0 120 255
241.778185 -181.801925 -209.866094 0 120 255
240.236588 -181.817293 -207.935501 0 120 255
238.630283 -181.861299 -206.054336 0 120 255
237.023978 -181.905304 -204.173171 0 120 255
235.417672 -181.949310 -202.292006 0 120 255
233.686759 -182.052345 -200.532377 0 120 255
231.889583 -182.186769 -198.837378 0 120 255
230.092407 -182.321194 -197.142378 0 120 255
228.295231 -182.455619 -195.447378 0 120 255
226.395829 -182.642344 -193.879039 0 120 255
224.431191 -182.862444 -192.391528 0 120 255
222.466553 -183.082544 -190.904017 0 120 255
220.501915 -183.302644 -189.416506 0 120 255
218.456426 -183.568112 -188.057323 0 120 255
216.349456 -183.868077 -186.795723 0 120 255
214.242486 -184.168042 -185.534124 0 120 255
212.135516 -184.468007 -184.272524 0 120 255
209.967668 -184.806406 -183.137775 0 120 255
207.744880 -185.179491 -182.117501 0 120 255
205.522093 -185.552576 -181.097228 0 120 255
203.299305 -185.925661 -180.076954 0 120 255
201.033894 -186.330469 -179.179237 0 120 255
198.722901 -186.769200 -178.412582 0 120 255
196.411907 -187.207931 -177.645926 0 120 255
194.100914 -187.646662 -176.879270 0 120 255
191.763556 -188.110760 -176.228429 0 120 255
189.392757 -188.607033 -175.724482 0 120 255
187.021959 -189.103305 -175.220535 0 120 255
184.651160 -189.599578 -174.716587 0 120 255
182.268044 -190.115370 -174.319653 0 120 255
179.866332 -190.660628 -174.084258 0 120 255
177.464621 -191.205886 -173.848862 0 120 255
175.062909 -191.751144 -173.613467 0 120 255
172.660547 -192.310689 -173.474621 0 120 255
170.257008 -192.896064 -173.510314 0 120 255
167.853469 -193.481438 -173.546006 0 120 255
165.449931 -194.066813 -173.581699 0 120 255
163.054911 -194.661939 -173.702248 0 120 255
160.678515 -195.278385 -174.008303 0 120 255
158.302118 -195.894831 -174.314357 0 120 255
155.925722 -196.511276 -174.620412 0 120 255
153.564454 -197.133700 -174.998818 0 120 255
151.243758 -197.772154 -175.571252 0 120 255
148.923061 -198.410608 -176.143685 0 120 255
146.602365 -199.049062 -176.716119 0 120 255
144.300830 -199.690505 -177.348008 0 120 255
142.063661 -200.341988 -178.179620 0 120 255
139.826492 -200.993472 -179.011233 0 120 255
137.589323 -201.644956 -179.842845 0 120 255
135.372810 -202.297243 -180.721053 0 120 255
133.245967 -202.953022 -181.801528 0 120 255
131.119123 -203.608800 -182.882003 0 120 255
128.992279 -204.264579 -183.962477 0 120 255
126.885140 -204.919763 -185.077133 0 120 255
124.894084 -205.571447 -186.393166 0 120 255
122.903029 -206.223131 -187.709199 0 120 255
120.911974 -206.874815 -189.025232 0 120 255
118.937361 -207.525261 -190.363867 0 120 255
117.105921 -208.164925 -191.899312 0 120 255
115.274481 -208.804589 -193.434758 0 120 255
113.443041 -209.444252 -194.970203 0 120 255
111.622668 -210.082735 -196.517880 0 120 255
109.972754 -210.703032 -198.253954 0 120 255
108.322841 -211.323328 -199.990028 0 120 255
106.672928 -211.943624 -201.726103 0 120 255
105.026826 -212.563427 -203.465575 0 120 255
103.578155 -213.157678 -205.381078 0 120 255
102.129484 -213.751929 -207.296582 0 120 255
100.680813 -214.346179 -209.212086 0 120 255
99.232142 -214.940430 -211.127589 0 120 255
97.996972 -215.503427 -213.195602 0 120 255
96.766841 -216.065688 -215.267214 0 120 255
95.536710 -216.627948 -217.338826 0 120 255
94.306580 -217.190208 -219.410438 0 120 255
93.294467 -217.717768 -221.604478 0 120 255
92.297522 -218.242915 -223.807035 0 120 255
91.300577 -218.768061 -226.009592 0 120 255
90.303631 -219.293208 -228.212148 0 120 255
89.525474 -219.781405 -230.507825 0 120 255
88.773536 -220.265174 -232.814661 0 120 255
88.021598 -220.748942 -235.121497 0 120 255
87.269659 -221.232711 -237.428333 0 120 255
86.733755 -221.678415 -239.800236 0 120 255
86.235674 -222.117455 -242.183531 0 120 255
85.737593 -222.556494 -244.566825 0 120 255
85.239511 -222.995534 -246.950120 0 120 255
84.951496 -223.396412 -249.372137 0 120 255
84.713068 -223.788282 -251.803294 0 120 255
84.474641 -224.180152 -254.234451 0 120 255
84.236213 -224.572021 -256.665609 0 120 255
84.198999 -224.926543 -259.111233 0 120 255
84.222900 -225.269720 -261.561252 0 120 255
84.246802 -225.612898 -264.011271 0 120 255
84.270703 -225.956076 -266.461290 0 120 255
84.484482 -226.263483 -268.903944 0 120 255
84.770276 -226.557324 -271.343803 0 120 255
85.056070 -226.851164 -273.783663 0 120 255
85.341864 -227.145005 -276.223522 0 120 255
85.804121 -227.405309 -278.636859 0 120 255
86.348285 -227.650046 -281.037885 0 120 255
86.892449 -227.894783 -283.438910 0 120 255
87.436613 -228.139520 -285.839936 0 120 255
88.142195 -228.353442 -288.198149 0 120 255
88.938222 -228.550098 -290.532373 0 120 255
89.734248 -228.746755 -292.866598 0 120 255
90.530274 -228.943411 -295.200822 0 120 255
91.471498 -229.112331 -297.478924 0 120 255
92.510008 -229.262668 -299.719422 0 120 255
93.548517 -229.413004 -301.959920 0 120 255
94.587027 -229.563340 -304.200418 0 120 255
95.753789 -229.689232 -306.374507 0 120 255
97.022699 -229.795654 -308.495704 0 120 255
98.291609 -229.902076 -310.616902 0 120 255
99.560519 -230.008498 -312.738099 0 120 255
100.941516 -230.095329 -314.784749 0 120 255
102.428299 -230.163672 -316.761043 0 120 255
103.915082 -230.232014 -318.737338 0 120 255
105.401865 -230.300357 -320.713633 0 120 255
106.983051 -230.354064 -322.611203 0 120 255
108.669780 -230.391410 -324.420756 0 120 255
110.356509 -230.428755 -326.230310 0 120 255
112.043239 -230.466100 -328.039864 0 120 255
113.806090 -230.488471 -329.770928 0 120 255
115.670226 -230.490919 -331.397559 0 120 255
117.534362 -230.493367 -333.024189 0 120 255
119.398498 -230.495815 -334.650820 0 120 255
121.322662 -230.483627 -336.200978 0 120 255
123.342402 -230.448135 -337.629377 0 120 255
125.362143 -230.412643 -339.057776 0 120 255
127.381883 -230.377151 -340.486175 0 120 255
129.447174 -230.328632 -341.842193 0 120 255
131.599937 -230.255097 -343.059213 0 120 255
133.752700 -230.181562 -344.276233 0 120 255
135.905464 -230.108027 -345.493254 0 120 255
138.091032 -230.023194 -346.643846 0 120 255
140.353507 -229.911874 -347.638707 0 120 255
142.615983 -229.800554 -348.633568 0 120 255
144.878458 -229.689233 -349.628429 0 120 255
147.162885 -229.568409 -350.564347 0 120 255
149.511255 -229.419902 -351.328570 0 120 255
151.859626 -229.271394 -352.092793 0 120 255
154.207996 -229.122887 -352.857016 0 120 255
156.569461 -228.966693 -353.571018 0 120 255
158.979569 -228.781947 -354.098449 0 120 255
161.389677 -228.597200 -354.625879 0 120 255
163.799785 -228.412453 -355.153310 0 120 255
166.216178 -228.221777 -355.640350 0 120 255
168.663567 -228.001866 -355.928204 0 120 255
171.110957 -227.781955 -356.216059 0 120 255
173.558346 -227.562044 -356.503914 0 120 255
176.005691 -227.340685 -356.791001 0 120 255
178.452729 -227.109264 -357.072752 0 120 255
180.899767 -226.877843 -357.354504 0 120 255
183.346805 -226.646422 -357.636256 0 120 255
185.793843 -226.415000 -357.918008 0 120 255
188.240879 -226.183568 -358.199773 0 120 255
190.687914 -225.952136 -358.481537 0 120 255
193.134950 -225.720704 -358.763301 0 120 255
195.581986 -225.489272 -359.045064 0 120 255
198.029023 -225.257844 -359.326821 0 120 255
200.476059 -225.026416 -359.608578 0 120 255
202.923096 -224.794988 -359.890334 0 120 255
205.370133 -224.563560 -360.172091 0 120 255
