ply
format ascii 1.0
element vertex 385
property float x
property float y
property float z
property uchar red
property uchar green
property uchar blue
end_header
77.430455 -42.474882 -360.397637 0 120 255
77.187565 -42.528708 -357.936062 0 120 255
76.944675 -42.582535 -355.474488 0 120 255
76.701786 -42.636362 -353.012914 0 120 255
76.458896 -42.690188 -350.551340 0 120 255
76.218549 -42.752657 -348.089721 0 120 255
75.978314 -42.815503 -345.628100 0 120 255
75.738079 -42.878350 -343.166479 0 120 255
75.497844 -42.941196 -340.704858 0 120 255
75.459745 -43.487766 -338.297410 0 120 255
75.440016 -44.078296 -335.894885 0 120 255
75.420287 -44.668827 -333.492361 0 120 255
75.400558 -45.259357 -331.089836 0 120 255
75.560823 -46.229438 -328.825831 0 120 255
75.747567 -47.255355 -326.582204 0 120 255
75.934311 -48.281272 -324.338578 0 120 255
76.121056 -49.307190 -322.094951 0 120 255
76.462028 -50.619258 -320.032331 0 120 255
76.835372 -51.991385 -318.007703 0 120 255
77.208715 -53.363513 -315.983074 0 120 255
77.582059 -54.735640 -313.958445 0 120 255
78.083576 -56.313226 -312.127033 0 120 255
78.620981 -57.948338 -310.349719 0 120 255
79.158386 -59.583451 -308.572406 0 120 255
79.695791 -61.218564 -306.795092 0 120 255
80.337967 -62.994358 -305.203881 0 120 255
81.017710 -64.820596 -303.679399 0 120 255
81.697453 -66.646834 -302.154918 0 120 255
82.377196 -68.473072 -300.630436 0 120 255
83.142119 -70.390616 -299.274138 0 120 255
83.945121 -72.348977 -297.993025 0 120 255
84.748123 -74.307338 -296.711912 0 120 255
85.551125 -76.265699 -295.430799 0 120 255
86.423614 -78.279199 -294.295040 0 120 255
87.334140 -80.322880 -293.238844 0 120 255
88.244665 -82.366562 -292.182648 0 120 255
89.155190 -84.410244 -291.126452 0 120 255
90.122976 -86.483425 -290.191539 0 120 255
91.128671 -88.576138 -289.336922 0 120 255
92.134365 -90.668851 -288.482304 0 120 255
93.140060 -92.761564 -287.627687 0 120 255
94.193615 -94.866166 -286.871157 0 120 255
95.285191 -96.980214 -286.192552 0 120 255
96.376767 -99.094261 -285.513946 0 120 255
97.468343 -101.208308 -284.835340 0 120 255
98.600557 -103.322563 -284.233605 0 120 255
99.771335 -105.437014 -283.704817 0 120 255
100.942112 -107.551466 -283.176029 0 120 255
102.112889 -109.665917 -282.647241 0 120 255
103.318670 -111.773168 -282.176537 0 120 255
104.564064 -113.872271 -281.771566 0 120 255
105.809457 -115.971374 -281.366596 0 120 255
107.054851 -118.070477 -280.961625 0 120 255
108.330715 -120.157995 -280.598471 0 120 255
109.647750 -122.229860 -280.291820 0 120 255
110.964786 -124.301725 -279.985169 0 120 255
112.281821 -126.373589 -279.678517 0 120 255
113.625495 -128.431606 -279.399921 0 120 255
115.012319 -130.467189 -279.166769 0 120 255
116.399142 -132.502773 -278.933617 0 120 255
117.785966 -134.538356 -278.700465 0 120 255
119.196003 -136.559283 -278.483958 0 120 255
120.651453 -138.551536 -278.300014 0 120 255
122.106902 -140.543788 -278.116069 0 120 255
123.562352 -142.536041 -277.932124 0 120 255
125.037773 -144.513828 -277.755643 0 120 255
126.560921 -146.457046 -277.596998 0 120 255
128.084068 -148.400263 -277.438352 0 120 255
129.607216 -150.343480 -277.279706 0 120 255
131.147126 -152.273116 -277.121468 0 120 255
132.736807 -154.162427 -276.964436 0 120 255
134.326489 -156.051737 -276.807404 0 120 255
135.916171 -157.941047 -276.650373 0 120 255
137.519378 -159.818147 -276.488736 0 120 255
139.173759 -161.649049 -276.309678 0 120 255
140.828140 -163.479951 -276.130620 0 120 255
142.482521 -165.310854 -275.951562 0 120 255
144.147159 -167.131297 -275.764909 0 120 255
145.863206 -168.899327 -275.540195 0 120 255
147.579252 -170.667356 -275.315481 0 120 255
149.295299 -172.435386 -275.090767 0 120 255
151.018392 -174.195042 -274.857465 0 120 255
152.791337 -175.895464 -274.563408 0 120 255
154.564283 -177.595887 -274.269351 0 120 255
156.337228 -179.296309 -273.975294 0 120 255
158.114236 -180.990792 -273.673664 0 120 255
159.936997 -182.618388 -273.286733 0 120 255
161.759758 -184.245984 -272.899803 0 120 255
163.582519 -185.873579 -272.512872 0 120 255
165.406851 -187.498070 -272.121368 0 120 255
167.269460 -189.046946 -271.618464 0 120 255
169.132070 -190.595821 -271.115560 0 120 255
170.994679 -192.144697 -270.612656 0 120 255
172.857288 -193.693572 -270.109752 0 120 255
174.746240 -195.157304 -269.469031 0 120 255
176.635257 -196.620824 -268.827968 0 120 255
178.524275 -198.084345 -268.186906 0 120 255
180.413292 -199.547866 -267.545843 0 120 255
182.310919 -200.922766 -266.753080 0 120 255
184.208943 -202.293574 -265.953311 0 120 255
186.106967 -203.664381 -265.153543 0 120 255
188.004992 -205.035189 -264.353774 0 120 255
189.891382 -206.313966 -263.392393 0 120 255
191.776682 -207.584127 -262.415882 0 120 255
193.661983 -208.854288 -261.439371 0 120 255
195.547284 -210.124448 -260.462861 0 120 255
197.398600 -211.299546 -259.319409 0 120 255
199.244979 -212.460832 -258.151702 0 120 255
201.091358 -213.622118 -256.983995 0 120 255
202.937737 -214.783405 -255.816288 0 120 255
204.726379 -215.847409 -254.481493 0 120 255
206.503370 -216.891783 -253.112980 0 120 255
208.280361 -217.936157 -251.744468 0 120 255
210.057352 -218.980532 -250.375955 0 120 255
211.752397 -219.926680 -248.845711 0 120 255
213.425821 -220.846913 -247.272796 0 120 255
215.099246 -221.767146 -245.699881 0 120 255
216.772670 -222.687379 -244.126966 0 120 255
218.340727 -223.510174 -242.403293 0 120 255
219.873767 -224.300586 -240.629518 0 120 255
221.406807 -225.090998 -238.855743 0 120 255
222.939847 -225.881410 -237.081968 0 120 255
224.346238 -226.577326 -235.173716 0 120 255
225.700904 -227.234647 -233.210543 0 120 255
227.055569 -227.891969 -231.247370 0 120 255
228.410235 -228.549290 -229.284196 0 120 255
229.620509 -229.117470 -227.207403 0 120 255
230.759534 -229.641662 -225.074545 0 120 255
231.898559 -230.165855 -222.941686 0 120 255
233.037583 -230.690047 -220.808828 0 120 255
234.019231 -231.132937 -218.586607 0 120 255
234.908146 -231.527922 -216.311732 0 120 255
235.797062 -231.922906 -214.036857 0 120 255
236.685978 -232.317891 -211.761982 0 120 255
237.410224 -232.641742 -209.423910 0 120 255
238.019525 -232.915938 -207.041724 0 120 255
238.628825 -233.190134 -204.659539 0 120 255
239.238126 -233.464330 -202.277353 0 120 255
239.681606 -233.679502 -199.858333 0 120 255
239.988640 -233.846106 -197.409003 0 120 255
240.295674 -234.012709 -194.959674 0 120 255
240.602708 -234.179313 -192.510345 0 120 255
240.748803 -234.300321 -190.049036 0 120 255
240.739176 -234.377212 -187.576136 0 120 255
240.729548 -234.454103 -185.103235 0 120 255
240.719921 -234.530994 -182.630335 0 120 255
240.559661 -234.576484 -180.167320 0 120 255
240.228043 -234.586252 -177.715551 0 120 255
239.896424 -234.596019 -175.263781 0 120 255
239.564805 -234.605787 -172.812012 0 120 255
239.097201 -234.599106 -170.387889 0 120 255
238.447339 -234.570378 -168.000821 0 120 255
237.797477 -234.541650 -165.613752 0 120 255
237.147615 -234.512922 -163.226684 0 120 255
236.379933 -234.478435 -160.880195 0 120 255
235.425211 -234.434808 -158.598125 0 120 255
234.470489 -234.391180 -156.316055 0 120 255
233.515767 -234.347552 -154.033986 0 120 255
232.463429 -234.300571 -151.800362 0 120 255
231.225974 -234.247228 -149.658610 0 120 255
229.988519 -234.193885 -147.516858 0 120 255
228.751064 -234.140543 -145.375107 0 120 255
227.435843 -234.084618 -143.285056 0 120 255
225.942457 -234.022776 -141.313455 0 120 255
224.449070 -233.960935 -139.341853 0 120 255
222.955683 -233.899094 -137.370252 0 120 255
221.403035 -233.835302 -135.449498 0 120 255
219.683709 -233.766021 -133.671758 0 120 255
217.964383 -233.696741 -131.894019 0 120 255
216.245057 -233.627460 -130.116279 0 120 255
214.482852 -233.556800 -128.385184 0 120 255
212.569145 -233.481266 -126.818894 0 120 255
210.655439 -233.405732 -125.252605 0 120 255
208.741733 -233.330198 -123.686315 0 120 255
206.798979 -233.253754 -122.159907 0 120 255
204.722802 -233.173128 -120.816691 0 120 255
202.646625 -233.092502 -119.473475 0 120 255
200.570448 -233.011876 -118.130260 0 120 255
198.476270 -232.930709 -116.818468 0 120 255
196.268581 -232.846133 -115.704826 0 120 255
194.060893 -232.761556 -114.591184 0 120 255
191.853205 -232.676979 -113.477541 0 120 255
189.635817 -232.592132 -112.385877 0 120 255
187.325926 -232.504706 -111.503835 0 120 255
185.016034 -232.417280 -110.621793 0 120 255
182.706143 -232.329854 -109.739751 0 120 255
180.392284 -232.242328 -108.869861 0 120 255
178.007313 -232.153016 -108.217805 0 120 255
175.622342 -232.063705 -107.565748 0 120 255
173.237372 -231.974393 -106.913691 0 120 255
170.851860 -231.885071 -106.264053 0 120 255
168.416467 -231.794752 -105.837503 0 120 255
165.981075 -231.704433 -105.410953 0 120 255
163.545682 -231.614114 -104.984403 0 120 255
161.110289 -231.523795 -104.557853 0 120 255
158.647437 -231.433274 -104.343564 0 120 255
156.183694 -231.342747 -104.136166 0 120 255
153.719950 -231.252219 -103.928768 0 120 255
151.256207 -231.161692 -103.721371 0 120 255
148.784380 -231.071570 -103.709893 0 120 255
146.311910 -230.981481 -103.713997 0 120 255
143.839440 -230.891392 -103.718100 0 120 255
141.366970 -230.801302 -103.722203 0 120 255
138.902164 -230.712185 -103.906017 0 120 255
136.438363 -230.623196 -104.113390 0 120 255
133.974561 -230.534207 -104.320763 0 120 255
131.510760 -230.445217 -104.528136 0 120 255
129.067298 -230.357563 -104.899515 0 120 255
126.627658 -230.270159 -105.301702 0 120 255
124.188017 -230.182755 -105.703890 0 120 255
121.748377 -230.095351 -106.106078 0 120 255
119.339189 -230.009616 -106.657353 0 120 255
116.937635 -229.924299 -107.245992 0 120 255
114.536080 -229.838983 -107.834631 0 120 255
112.134525 -229.753667 -108.423270 0 120 255
109.771451 -229.670248 -109.147035 0 120 255
107.420705 -229.587438 -109.914094 0 120 255
105.069960 -229.504628 -110.681152 0 120 255
102.719214 -229.421818 -111.448211 0 120 255
100.413292 -229.341098 -112.337423 0 120 255
98.125228 -229.261210 -113.275305 0 120 255
95.837164 -229.181322 -114.213187 0 120 255
93.549100 -229.101434 -115.151068 0 120 255
91.310849 -229.023768 -116.199081 0 120 255
89.096817 -228.947182 -117.300643 0 120 255
86.882784 -228.870595 -118.402204 0 120 255
84.668752 -228.794009 -119.503765 0 120 255
82.508444 -228.719746 -120.704331 0 120 255
80.379602 -228.646843 -121.962885 0 120 255
78.250760 -228.573940 -123.221438 0 120 255
76.121918 -228.501037 -124.479992 0 120 255
74.049825 -228.430525 -125.827192 0 120 255
72.017424 -228.361685 -127.236392 0 120 255
69.985022 -228.292844 -128.645592 0 120 255
67.952621 -228.224004 -130.054793 0 120 255
65.979233 -228.157609 -131.542913 0 120 255
64.054862 -228.093245 -133.096584 0 120 255
62.130491 -228.028882 -134.650255 0 120 255
60.206119 -227.964518 -136.203926 0 120 255
58.342312 -227.902616 -137.827268 0 120 255
56.538071 -227.843135 -139.519137 0 120 255
54.733831 -227.783655 -141.211005 0 120 255
52.929590 -227.724174 -142.902873 0 120 255
51.186745 -227.667158 -144.655524 0 120 255
49.515376 -227.613012 -146.478937 0 120 255
47.844007 -227.558865 -148.302349 0 120 255
46.172637 -227.504718 -150.125762 0 120 255
44.562697 -227.453002 -152.001311 0 120 255
43.037562 -227.404641 -153.948839 0 120 255
41.512427 -227.356280 -155.896367 0 120 255
39.987292 -227.307919 -157.843895 0 120 255
38.522626 -227.261924 -159.835057 0 120 255
37.157400 -227.219822 -161.897974 0 120 255
35.792174 -227.177720 -163.960890 0 120 255
34.426948 -227.135618 -166.023807 0 120 255
33.119996 -227.095773 -168.121988 0 120 255
31.928046 -227.060382 -170.289762 0 120 255
30.736096 -227.024991 -172.457536 0 120 255
29.544146 -226.989599 -174.625310 0 120 255
28.406950 -226.956309 -176.820293 0 120 255
27.400908 -226.928049 -179.080453 0 120 255
26.394867 -226.899790 -181.340612 0 120 255
25.388825 -226.871531 -183.600772 0 120 255
24.432622 -226.845161 -185.880624 0 120 255
23.623732 -226.824375 -188.218679 0 120 255
22.814841 -226.803588 -190.556735 0 120 255
22.005951 -226.782802 -192.894791 0 120 255
21.240665 -226.763650 -195.245847 0 120 255
20.638357 -226.750601 -197.645491 0 120 255
20.036048 -226.737553 -200.045136 0 120 255
19.433740 -226.724505 -202.444781 0 120 255
18.867672 -226.712806 -204.851844 0 120 255
18.479307 -226.707723 -207.295281 0 120 255
18.090941 -226.702641 -209.738719 0 120 255
17.702576 -226.697558 -212.182156 0 120 255
17.342158 -226.693505 -214.628769 0 120 255
17.172606 -226.696481 -217.097064 0 120 255
17.003054 -226.699456 -219.565360 0 120 255
16.833502 -226.702432 -222.033656 0 120 255
16.683001 -226.706107 -224.502403 0 120 255
16.734780 -226.717200 -226.975951 0 120 255
16.786559 -226.728294 -229.449498 0 120 255
16.838339 -226.739387 -231.923045 0 120 255
16.899941 -226.750835 -234.395944 0 120 255
17.172714 -226.769897 -236.854902 0 120 255
17.445488 -226.788960 -239.313859 0 120 255
17.718262 -226.808022 -241.772816 0 120 255
17.991648 -226.827107 -244.231678 0 120 255
18.482635 -226.854042 -246.656435 0 120 255
18.973623 -226.880977 -249.081192 0 120 255
19.464610 -226.907911 -251.505949 0 120 255
19.955598 -226.934846 -253.930705 0 120 255
20.651118 -226.968970 -256.304422 0 120 255
21.354903 -227.003385 -258.676076 0 120 255
22.058689 -227.037799 -261.047730 0 120 255
22.762475 -227.072213 -263.419383 0 120 255
23.654917 -227.113300 -265.725811 0 120 255
24.563880 -227.154972 -268.026526 0 120 255
25.472843 -227.196644 -270.327241 0 120 255
26.381806 -227.238315 -272.627956 0 120 255
27.462717 -227.285967 -274.851840 0 120 255
28.567562 -227.334451 -277.065029 0 120 255
29.672407 -227.382936 -279.278219 0 120 255
30.777252 -227.431420 -281.491408 0 120 255
32.036750 -227.485258 -283.618817 0 120 255
33.326551 -227.540145 -285.729420 0 120 255
34.616352 -227.595033 -287.840022 0 120 255
35.906153 -227.649920 -289.950624 0 120 255
37.333055 -227.709391 -291.969186 0 120 255
38.795423 -227.770047 -293.963940 0 120 255
40.257790 -227.830704 -295.958694 0 120 255
41.720158 -227.891361 -297.953448 0 120 255
43.302126 -227.956059 -299.852586 0 120 255
44.923372 -228.022085 -301.720323 0 120 255
46.544617 -228.088111 -303.588061 0 120 255
48.165863 -228.154137 -305.455798 0 120 255
49.889583 -228.223533 -307.227000 0 120 255
51.654939 -228.294299 -308.958979 0 120 255
53.420295 -228.365065 -310.690958 0 120 255
55.185652 -228.435830 -312.422936 0 120 255
57.037235 -228.509412 -314.059798 0 120 255
58.931414 -228.584385 -315.649675 0 120 255
60.825592 -228.659358 -317.239551 0 120 255
62.719771 -228.734330 -318.829428 0 120 255
64.685086 -228.811574 -320.327702 0 120 255
66.692609 -228.890164 -321.771626 0 120 255
68.700132 -228.968755 -323.215550 0 120 255
70.707655 -229.047345 -324.659474 0 120 255
72.772570 -229.127519 -326.017174 0 120 255
74.878059 -229.208811 -327.313919 0 120 255
76.983549 -229.290104 -328.610663 0 120 255
79.089038 -229.371397 -329.907408 0 120 255
81.239593 -229.452371 -331.125136 0 120 255
83.427920 -229.533077 -332.276637 0 120 255
85.616246 -229.613783 -333.428138 0 120 255
87.804572 -229.694489 -334.579639 0 120 255
90.027000 -229.769420 -335.661513 0 120 255
92.283224 -229.838627 -336.674382 0 120 255
94.539448 -229.907834 -337.687250 0 120 255
96.795673 -229.977041 -338.700118 0 120 255
99.077020 -230.036075 -339.653086 0 120 255
101.387805 -230.083188 -340.535861 0 120 255
103.698590 -230.130300 -341.418637 0 120 255
106.009375 -230.177412 -342.301412 0 120 255
108.338134 -230.212126 -343.133710 0 120 255
110.691852 -230.229620 -343.895907 0 120 255
113.045570 -230.247114 -344.658104 0 120 255
115.399289 -230.264609 -345.420300 0 120 255
117.765367 -230.268774 -346.141074 0 120 255
120.151886 -230.250894 -346.793337 0 120 255
122.538405 -230.233014 -347.445600 0 120 255
124.924924 -230.215134 -348.097863 0 120 255
127.319530 -230.184061 -348.717137 0 120 255
129.730192 -230.126793 -349.270913 0 120 255
132.140855 -230.069526 -349.824690 0 120 255
134.551517 -230.012258 -350.378466 0 120 255
136.967129 -229.942769 -350.906920 0 120 255
139.394679 -229.843807 -351.374302 0 120 255
141.822230 -229.744845 -351.841684 0 120 255
144.249780 -229.645882 -352.309067 0 120 255
146.680086 -229.536281 -352.757904 0 120 255
149.118606 -229.394972 -353.151472 0 120 255
151.557125 -229.253664 -353.545039 0 120 255
153.995645 -229.112356 -353.938606 0 120 255
156.435484 -228.962387 -354.319435 0 120 255
158.880309 -228.779707 -354.652149 0 120 255
161.325134 -228.597027 -354.984863 0 120 255
163.769959 -228.414347 -355.317576 0 120 255
166.215223 -228.225286 -355.642677 0 120 255
168.662668 -228.004487 -355.929908 0 120 255
171.110113 -227.783687 -356.217140 0 120 255
173.557557 -227.562887 -356.504372 0 120 255
176.004959 -227.340754 -356.790917 0 120 255
178.452058 -227.109327 -357.072675 0 120 255
180.899157 -226.877901 -357.354434 0 120 255
183.346256 -226.646474 -357.636193 0 120 255
185.793355 -226.415046 -357.917952 0 120 255
188.240452 -226.183609 -358.199723 0 120 255
190.687548 -225.952171 -358.481494 0 120 255
193.134645 -225.720733 -358.763266 0 120 255
195.581742 -225.489295 -359.045036 0 120 255
198.028840 -225.257862 -359.326800 0 120 255
200.475937 -225.026428 -359.608564 0 120 255
202.923035 -224.794994 -359.890327 0 120 255
205.370133 -224.563560 -360.172091 0 120 255
