ply
format ascii 1.0
element vertex 385
property float x
property float y
property float z
property uchar red
property uchar green
property uchar blue
end_header
77.430455 -42.474882 -360.397637 0 120 255
77.187553 -42.528711 -357.935933 0 120 255
76.944650 -42.582541 -355.474228 0 120 255
76.701747 -42.636370 -353.012524 0 120 255
76.458844 -42.690200 -350.550820 0 120 255
76.217941 -42.754180 -348.089164 0 120 255
75.977125 -42.818601 -345.627509 0 120 255
75.736309 -42.883022 -343.165854 0 120 255
75.495493 -42.947444 -340.704200 0 120 255
75.336245 -43.434541 -338.287107 0 120 255
75.184369 -43.959840 -335.874042 0 120 255
75.032494 -44.485138 -333.460978 0 120 255
74.880618 -45.010436 -331.047913 0 120 255
74.810421 -45.882992 -328.738050 0 120 255
74.752151 -46.806252 -326.443255 0 120 255
74.693880 -47.729512 -324.148461 0 120 255
74.635609 -48.652772 -321.853666 0 120 255
74.658242 -49.856398 -319.697057 0 120 255
74.697715 -51.118380 -317.569212 0 120 255
74.737188 -52.380363 -315.441366 0 120 255
74.776661 -53.642346 -313.313520 0 120 255
74.894546 -55.122702 -311.339950 0 120 255
75.034207 -56.663698 -309.409222 0 120 255
75.173868 -58.204694 -307.478494 0 120 255
75.313529 -59.745691 -305.547766 0 120 255
75.528145 -61.450850 -303.773517 0 120 255
75.769431 -63.214419 -302.054945 0 120 255
76.010717 -64.977988 -300.336372 0 120 255
76.252003 -66.741557 -298.617799 0 120 255
76.564321 -68.623893 -297.048481 0 120 255
76.908177 -70.558961 -295.545431 0 120 255
77.252033 -72.494030 -294.042381 0 120 255
77.595889 -74.429099 -292.539331 0 120 255
78.006696 -76.446152 -291.172423 0 120 255
78.453936 -78.507820 -289.879602 0 120 255
78.901176 -80.569489 -288.586781 0 120 255
79.348416 -82.631157 -287.293961 0 120 255
79.858511 -84.745828 -286.120955 0 120 255
80.410022 -86.895424 -285.026897 0 120 255
80.961533 -89.045019 -283.932840 0 120 255
81.513044 -91.194614 -282.838783 0 120 255
82.123347 -93.374942 -281.846895 0 120 255
82.780185 -95.579595 -280.935876 0 120 255
83.437023 -97.784248 -280.024858 0 120 255
84.093861 -99.988902 -279.113840 0 120 255
84.805426 -102.207597 -278.287293 0 120 255
85.568786 -104.439582 -277.540694 0 120 255
86.332147 -106.671567 -276.794096 0 120 255
87.095508 -108.903552 -276.047498 0 120 255
87.909484 -111.137423 -275.368457 0 120 255
88.780648 -113.373423 -274.765746 0 120 255
89.651813 -115.609424 -274.163036 0 120 255
90.522977 -117.845425 -273.560326 0 120 255
91.440521 -120.074786 -273.009562 0 120 255
92.420693 -122.295181 -272.528941 0 120 255
93.400864 -124.515576 -272.048320 0 120 255
94.381036 -126.735970 -271.567699 0 120 255
95.403170 -128.944080 -271.125038 0 120 255
96.493298 -131.132282 -270.743884 0 120 255
97.583427 -133.320484 -270.362730 0 120 255
98.673555 -135.508686 -269.981577 0 120 255
99.801003 -137.681230 -269.626202 0 120 255
101.001545 -139.823106 -269.321321 0 120 255
102.202086 -141.964982 -269.016440 0 120 255
103.402628 -144.106858 -268.711558 0 120 255
104.635610 -146.231499 -268.422192 0 120 255
105.946283 -148.314865 -268.169983 0 120 255
107.256955 -150.398231 -267.917774 0 120 255
108.567628 -152.481597 -267.665566 0 120 255
109.905645 -154.547584 -267.420589 0 120 255
111.325116 -156.561800 -267.197157 0 120 255
112.744586 -158.576017 -266.973724 0 120 255
114.164057 -160.590233 -266.750292 0 120 255
115.605631 -162.588078 -266.527837 0 120 255
117.131201 -164.523711 -266.309097 0 120 255
118.656772 -166.459344 -266.090358 0 120 255
120.182342 -168.394977 -265.871618 0 120 255
121.724741 -170.316199 -265.649651 0 120 255
123.351972 -172.164779 -265.411412 0 120 255
124.979203 -174.013359 -265.173173 0 120 255
126.606435 -175.861938 -264.934934 0 120 255
128.245367 -177.698865 -264.691337 0 120 255
129.967756 -179.452673 -264.409525 0 120 255
131.690145 -181.206482 -264.127713 0 120 255
133.412534 -182.960290 -263.845901 0 120 255
135.141871 -184.705888 -263.558656 0 120 255
136.950445 -186.357861 -263.209464 0 120 255
138.759018 -188.009833 -262.860272 0 120 255
140.567592 -189.661806 -262.511080 0 120 255
142.379030 -191.309608 -262.158401 0 120 255
144.262008 -192.853271 -261.718644 0 120 255
146.144985 -194.396935 -261.278887 0 120 255
148.027962 -195.940598 -260.839130 0 120 255
149.910939 -197.484261 -260.399374 0 120 255
151.853211 -198.914145 -259.847286 0 120 255
153.795686 -200.343640 -259.294816 0 120 255
155.738160 -201.773135 -258.742346 0 120 255
157.680634 -203.202631 -258.189876 0 120 255
159.662454 -204.518155 -257.510008 0 120 255
161.646131 -205.828302 -256.824130 0 120 255
163.629807 -207.138448 -256.138251 0 120 255
165.613484 -208.448595 -255.452373 0 120 255
167.614875 -209.645752 -254.627707 0 120 255
169.617942 -210.832211 -253.789900 0 120 255
171.621010 -212.018671 -252.952093 0 120 255
173.624078 -213.205130 -252.114287 0 120 255
175.621951 -214.280810 -251.130229 0 120 255
177.619064 -215.340271 -250.124760 0 120 255
179.616177 -216.399732 -249.119290 0 120 255
181.613290 -217.459193 -248.113821 0 120 255
183.581596 -218.411414 -246.958877 0 120 255
185.544056 -219.341871 -245.773597 0 120 255
187.506515 -220.272327 -244.588317 0 120 255
189.468975 -221.202784 -243.403037 0 120 255
191.379027 -222.030903 -242.069444 0 120 255
193.275190 -222.831898 -240.696541 0 120 255
195.171353 -223.632894 -239.323639 0 120 255
197.067515 -224.433889 -237.950737 0 120 255
198.888502 -225.138877 -236.435108 0 120 255
200.684413 -225.811840 -234.871871 0 120 255
202.480324 -226.484802 -233.308633 0 120 255
204.276235 -227.157765 -231.745396 0 120 255
205.975927 -227.742425 -230.049258 0 120 255
207.636208 -228.290916 -228.298684 0 120 255
209.296489 -228.839406 -226.548109 0 120 255
210.956771 -229.387897 -224.797535 0 120 255
212.502439 -229.857096 -222.927771 0 120 255
213.991430 -230.287085 -220.999066 0 120 255
215.480420 -230.717073 -219.070361 0 120 255
216.969411 -231.147061 -217.141656 0 120 255
218.328879 -231.507863 -215.110728 0 120 255
219.611927 -231.827845 -213.019487 0 120 255
220.894975 -232.147826 -210.928247 0 120 255
222.178023 -232.467808 -208.837007 0 120 255
223.320852 -232.729559 -206.662972 0 120 255
224.365767 -232.950647 -204.431121 0 120 255
225.410682 -233.171735 -202.199270 0 120 255
226.455597 -233.392824 -199.967419 0 120 255
227.354295 -233.567120 -197.673662 0 120 255
228.132771 -233.702944 -195.329006 0 120 255
228.911248 -233.838767 -192.984350 0 120 255
229.689724 -233.974590 -190.639693 0 120 255
230.320926 -234.075158 -188.254401 0 120 255
230.809932 -234.141684 -185.829873 0 120 255
231.298938 -234.208210 -183.405346 0 120 255
231.787944 -234.274737 -180.980818 0 120 255
232.133336 -234.317893 -178.536176 0 120 255
232.315956 -234.334563 -176.068737 0 120 255
232.498577 -234.351233 -173.601297 0 120 255
232.681197 -234.367902 -171.133858 0 120 255
232.728602 -234.371762 -168.665047 0 120 255
232.595727 -234.358544 -166.194408 0 120 255
232.462852 -234.345326 -163.723769 0 120 255
232.329976 -234.332107 -161.253131 0 120 255
232.074302 -234.313288 -158.797116 0 120 255
231.625067 -234.285641 -156.364153 0 120 255
231.175832 -234.257994 -153.931190 0 120 255
230.726597 -234.230347 -151.498227 0 120 255
230.170004 -234.199289 -149.092383 0 120 255
229.411848 -234.161826 -146.737456 0 120 255
228.653693 -234.124364 -144.382528 0 120 255
227.895537 -234.086901 -142.027601 0 120 255
227.047254 -234.046572 -139.708242 0 120 255
225.995144 -233.999758 -137.469323 0 120 255
224.943033 -233.952945 -135.230404 0 120 255
223.890923 -233.906132 -132.991485 0 120 255
222.766125 -233.856892 -130.792569 0 120 255
221.440251 -233.800939 -128.704313 0 120 255
220.114376 -233.744987 -126.616057 0 120 255
218.788502 -233.689034 -124.527801 0 120 255
217.406760 -233.631215 -122.480164 0 120 255
215.831773 -233.566943 -120.573027 0 120 255
214.256786 -233.502670 -118.665889 0 120 255
212.681800 -233.438397 -116.758752 0 120 255
211.066402 -233.372797 -114.889425 0 120 255
209.270468 -233.301267 -113.189016 0 120 255
207.474534 -233.229737 -111.488607 0 120 255
205.678600 -233.158207 -109.788198 0 120 255
203.855746 -233.085814 -108.119913 0 120 255
201.869437 -233.008187 -106.646672 0 120 255
199.883129 -232.930559 -105.173431 0 120 255
197.896820 -232.852932 -103.700190 0 120 255
195.894700 -232.774817 -102.251134 0 120 255
193.749957 -232.692309 -101.020216 0 120 255
191.605214 -232.609801 -99.789299 0 120 255
189.460472 -232.527293 -98.558382 0 120 255
187.308403 -232.444571 -97.342121 0 120 255
185.037527 -232.358377 -96.363561 0 120 255
182.766652 -232.272184 -95.385000 0 120 255
180.495776 -232.185991 -94.406440 0 120 255
178.223367 -232.099757 -93.432065 0 120 255
175.858160 -232.011065 -92.711082 0 120 255
173.492954 -231.922373 -91.990099 0 120 255
171.127747 -231.833680 -91.269117 0 120 255
168.762540 -231.744988 -90.548134 0 120 255
166.335212 -231.654963 -90.078995 0 120 255
163.906248 -231.564903 -89.616495 0 120 255
161.477283 -231.474844 -89.153995 0 120 255
159.048319 -231.384784 -88.691495 0 120 255
156.586752 -231.294398 -88.467437 0 120 255
154.122818 -231.203988 -88.260693 0 120 255
151.658885 -231.113578 -88.053948 0 120 255
149.194951 -231.023168 -87.847204 0 120 255
146.723628 -230.933302 -87.863072 0 120 255
144.251393 -230.843503 -87.906394 0 120 255
141.779158 -230.753704 -87.949717 0 120 255
139.306923 -230.663906 -87.993039 0 120 255
136.848322 -230.575366 -88.241543 0 120 255
134.392164 -230.487051 -88.526806 0 120 255
131.936006 -230.398736 -88.812070 0 120 255
129.479849 -230.310422 -89.097333 0 120 255
127.054402 -230.223897 -89.569521 0 120 255
124.636354 -230.137802 -90.086743 0 120 255
122.218306 -230.051708 -90.603964 0 120 255
119.800258 -229.965614 -91.121186 0 120 255
117.426374 -229.881758 -91.806855 0 120 255
115.066163 -229.798594 -92.544671 0 120 255
112.705952 -229.715430 -93.282487 0 120 255
110.345740 -229.632266 -94.020304 0 120 255
108.039911 -229.551631 -94.908374 0 120 255
105.755091 -229.471973 -95.854490 0 120 255
103.470270 -229.392315 -96.800606 0 120 255
101.185449 -229.312657 -97.746722 0 120 255
98.962382 -229.235732 -98.825523 0 120 255
96.768502 -229.160098 -99.967039 0 120 255
94.574623 -229.084465 -101.108555 0 120 255
92.380744 -229.008831 -102.250072 0 120 255
90.253532 -228.936058 -103.507587 0 120 255
88.164356 -228.864916 -104.831281 0 120 255
86.075179 -228.793774 -106.154976 0 120 255
83.986003 -228.722632 -107.478670 0 120 255
81.966304 -228.654386 -108.902705 0 120 255
79.994010 -228.588115 -110.395203 0 120 255
78.021715 -228.521845 -111.887701 0 120 255
76.049421 -228.455574 -113.380199 0 120 255
74.147641 -228.392187 -114.958517 0 120 255
72.303063 -228.331140 -116.606452 0 120 255
70.458485 -228.270093 -118.254387 0 120 255
68.613906 -228.209046 -119.902322 0 120 255
66.839366 -228.150818 -121.622709 0 120 255
65.132163 -228.095301 -123.412754 0 120 255
63.424960 -228.039783 -125.202800 0 120 255
61.717758 -227.984266 -126.992846 0 120 255
60.078853 -227.931461 -128.843152 0 120 255
58.517726 -227.881745 -130.762083 0 120 255
56.956598 -227.832029 -132.681014 0 120 255
55.395471 -227.782313 -134.599945 0 120 255
53.899822 -227.735163 -136.568097 0 120 255
52.492648 -227.691479 -138.602756 0 120 255
51.085475 -227.647795 -140.637416 0 120 255
49.678301 -227.604111 -142.672076 0 120 255
48.332844 -227.562822 -144.746033 0 120 255
47.086763 -227.525389 -146.883267 0 120 255
45.840681 -227.487956 -149.020500 0 120 255
44.594600 -227.450523 -151.157733 0 120 255
43.405634 -227.415282 -153.325427 0 120 255
42.327065 -227.384277 -155.551997 0 120 255
41.248496 -227.353273 -157.778567 0 120 255
40.169927 -227.322268 -160.005137 0 120 255
39.143113 -227.293234 -162.254402 0 120 255
38.237723 -227.268821 -164.556914 0 120 255
37.332333 -227.244409 -166.859425 0 120 255
36.426943 -227.219997 -169.161937 0 120 255
35.567282 -227.197312 -171.480460 0 120 255
34.839967 -227.179628 -173.845325 0 120 255
34.112651 -227.161943 -176.210190 0 120 255
33.385335 -227.144259 -178.575055 0 120 255
32.697127 -227.128038 -180.950343 0 120 255
32.151873 -227.117167 -183.363736 0 120 255
31.606619 -227.106297 -185.777130 0 120 255
31.061365 -227.095427 -188.190523 0 120 255
30.548095 -227.085744 -190.609877 0 120 255
30.187882 -227.081745 -193.057757 0 120 255
29.827670 -227.077745 -195.505637 0 120 255
29.467457 -227.073746 -197.953517 0 120 255
29.131721 -227.070648 -200.404054 0 120 255
28.958463 -227.073536 -202.872223 0 120 255
28.785204 -227.076424 -205.340392 0 120 255
28.611945 -227.079312 -207.808561 0 120 255
28.455398 -227.082811 -210.277266 0 120 255
28.469849 -227.092562 -212.751449 0 120 255
28.484300 -227.102312 -215.225632 0 120 255
28.498750 -227.112062 -217.699816 0 120 255
28.522038 -227.122133 -220.173610 0 120 255
28.723827 -227.138676 -222.639557 0 120 255
28.925617 -227.155218 -225.105504 0 120 255
29.127406 -227.171760 -227.571451 0 120 255
29.330187 -227.188339 -230.037278 0 120 255
29.717715 -227.211551 -232.480876 0 120 255
30.105242 -227.234764 -234.924474 0 120 255
30.492770 -227.257977 -237.368071 0 120 255
30.880298 -227.281190 -239.811669 0 120 255
31.444077 -227.310681 -242.220392 0 120 255
32.014531 -227.340410 -244.627794 0 120 255
32.584985 -227.370140 -247.035196 0 120 255
33.155439 -227.399869 -249.442598 0 120 255
33.890766 -227.435429 -251.804256 0 120 255
34.640096 -227.471485 -254.162028 0 120 255
35.389426 -227.507540 -256.519800 0 120 255
36.138757 -227.543596 -258.877573 0 120 255
37.040940 -227.585014 -261.180317 0 120 255
37.963981 -227.627163 -263.475552 0 120 255
38.887023 -227.669313 -265.770787 0 120 255
39.810064 -227.711462 -268.066022 0 120 255
40.873502 -227.758510 -270.298555 0 120 255
41.964054 -227.806504 -272.518978 0 120 255
43.054605 -227.854498 -274.739402 0 120 255
44.145156 -227.902492 -276.959825 0 120 255
45.363346 -227.954870 -279.111517 0 120 255
46.614177 -228.008369 -281.245632 0 120 255
47.865009 -228.061869 -283.379746 0 120 255
49.115841 -228.115368 -285.513860 0 120 255
50.481462 -228.172787 -287.574840 0 120 255
51.884429 -228.231481 -289.612025 0 120 255
53.287397 -228.290175 -291.649210 0 120 255
54.690365 -228.348869 -293.686395 0 120 255
56.195402 -228.411013 -295.647608 0 120 255
57.741588 -228.474548 -297.578193 0 120 255
59.287774 -228.538083 -299.508777 0 120 255
60.833961 -228.601619 -301.439362 0 120 255
62.469815 -228.668169 -303.292617 0 120 255
64.149664 -228.736198 -305.107932 0 120 255
65.829512 -228.804228 -306.923247 0 120 255
67.509360 -228.872257 -308.738562 0 120 255
69.266911 -228.942764 -310.476619 0 120 255
71.070294 -229.014732 -312.169107 0 120 255
72.873678 -229.086700 -313.861596 0 120 255
74.677061 -229.158667 -315.554084 0 120 255
76.546620 -229.232060 -317.170914 0 120 255
78.462720 -229.306454 -318.734536 0 120 255
80.378820 -229.380847 -320.298158 0 120 255
82.294920 -229.455241 -321.861780 0 120 255
84.266073 -229.527886 -323.353183 0 120 255
86.283150 -229.599070 -324.784343 0 120 255
88.300226 -229.670255 -326.215503 0 120 255
90.317303 -229.741439 -327.646664 0 120 255
92.379006 -229.806357 -329.010702 0 120 255
94.484756 -229.865090 -330.308491 0 120 255
96.590506 -229.923823 -331.606279 0 120 255
98.696256 -229.982556 -332.904067 0 120 255
100.837512 -230.031875 -334.140387 0 120 255
103.020235 -230.070201 -335.304920 0 120 255
105.202959 -230.108527 -336.469452 0 120 255
107.385682 -230.146852 -337.633985 0 120 255
109.596079 -230.174053 -338.742940 0 120 255
111.844805 -230.185846 -339.774918 0 120 255
114.093531 -230.197639 -340.806896 0 120 255
116.342257 -230.209431 -341.838873 0 120 255
118.611956 -230.209280 -342.821398 0 120 255
120.916276 -230.189411 -343.722288 0 120 255
123.220595 -230.169542 -344.623179 0 120 255
125.524915 -230.149673 -345.524069 0 120 255
127.844575 -230.117803 -346.381732 0 120 255
130.194663 -230.062130 -347.153662 0 120 255
132.544750 -230.006457 -347.925591 0 120 255
134.894838 -229.950785 -348.697521 0 120 255
137.255644 -229.883696 -349.432424 0 120 255
139.642298 -229.789080 -350.078036 0 120 255
142.028953 -229.694464 -350.723649 0 120 255
144.415607 -229.599848 -351.369261 0 120 255
146.809291 -229.494908 -351.983939 0 120 255
149.223950 -229.359167 -352.506324 0 120 255
151.638608 -229.223426 -353.028709 0 120 255
154.053266 -229.087684 -353.551094 0 120 255
156.472126 -228.943103 -354.048453 0 120 255
158.906893 -228.765049 -354.451057 0 120 255
161.341661 -228.586994 -354.853660 0 120 255
163.776429 -228.408940 -355.256263 0 120 255
166.213325 -228.223826 -355.639744 0 120 255
168.660855 -228.003440 -355.927685 0 120 255
171.108386 -227.783053 -356.215626 0 120 255
173.555917 -227.562667 -356.503567 0 120 255
176.003410 -227.340901 -356.790738 0 120 255
178.450638 -227.109462 -357.072512 0 120 255
180.897866 -226.878023 -357.354285 0 120 255
183.345094 -226.646584 -357.636059 0 120 255
185.792322 -226.415144 -357.917833 0 120 255
188.239548 -226.183694 -358.199619 0 120 255
190.686774 -225.952244 -358.481405 0 120 255
193.133999 -225.720794 -358.763191 0 120 255
195.581225 -225.489344 -359.044977 0 120 255
198.028452 -225.257898 -359.326755 0 120 255
200.475679 -225.026452 -359.608534 0 120 255
202.922906 -224.795006 -359.890312 0 120 255
205.370133 -224.563560 -360.172091 0 120 255
