ply
format ascii 1.0
element vertex 385
property float x
property float y
property float z
property uchar red
property uchar green
property uchar blue
end_header
77.430455 -42.474882 -360.397637 0 120 255
77.187570 -42.528707 -357.936110 0 120 255
76.944685 -42.582533 -355.474583 0 120 255
76.701800 -42.636359 -353.013056 0 120 255
76.458914 -42.690184 -350.551529 0 120 255
76.213620 -42.751971 -348.090429 0 120 255
75.968220 -42.814106 -345.629347 0 120 255
75.722821 -42.876242 -343.168265 0 120 255
75.477421 -42.938377 -340.707184 0 120 255
75.081863 -43.434634 -338.320047 0 120 255
74.672537 -43.970695 -335.939691 0 120 255
74.263211 -44.506756 -333.559335 0 120 255
73.853885 -45.042817 -331.178978 0 120 255
73.328665 -45.897268 -328.921598 0 120 255
72.786232 -46.799010 -326.682484 0 120 255
72.243799 -47.700752 -324.443370 0 120 255
71.701365 -48.602494 -322.204256 0 120 255
71.074583 -49.733554 -320.098917 0 120 255
70.429972 -50.913085 -318.021855 0 120 255
69.785361 -52.092616 -315.944792 0 120 255
69.140750 -53.272147 -313.867730 0 120 255
68.440856 -54.615139 -311.914567 0 120 255
67.725428 -56.004062 -309.996219 0 120 255
67.010001 -57.392985 -308.077870 0 120 255
66.294573 -58.781908 -306.159521 0 120 255
65.549622 -60.289325 -304.347240 0 120 255
64.794083 -61.839236 -302.572996 0 120 255
64.038543 -63.389146 -300.798751 0 120 255
63.283004 -64.939057 -299.024507 0 120 255
62.520089 -66.578595 -297.338140 0 120 255
61.753887 -68.258087 -295.690947 0 120 255
60.987684 -69.937579 -294.043754 0 120 255
60.221482 -71.617071 -292.396561 0 120 255
59.466447 -73.368386 -290.822380 0 120 255
58.717492 -75.158801 -289.287947 0 120 255
57.968536 -76.949216 -287.753513 0 120 255
57.219581 -78.739631 -286.219080 0 120 255
56.496826 -80.590867 -284.747315 0 120 255
55.791284 -82.482064 -283.316724 0 120 255
55.085742 -84.373261 -281.886133 0 120 255
54.380200 -86.264457 -280.455542 0 120 255
53.712601 -88.209053 -279.081507 0 120 255
53.074859 -90.195665 -277.751972 0 120 255
52.437116 -92.182277 -276.422438 0 120 255
51.799374 -94.168889 -275.092903 0 120 255
51.208295 -96.202855 -273.817066 0 120 255
50.660998 -98.281250 -272.591609 0 120 255
50.113700 -100.359644 -271.366151 0 120 255
49.566403 -102.438039 -270.140693 0 120 255
49.071813 -104.557752 -268.968057 0 120 255
48.636090 -106.723614 -267.854416 0 120 255
48.200368 -108.889475 -266.740775 0 120 255
47.764646 -111.055336 -265.627135 0 120 255
47.385300 -113.255807 -264.566237 0 120 255
47.080990 -115.502342 -263.575540 0 120 255
46.776680 -117.748877 -262.584843 0 120 255
46.472370 -119.995412 -261.594147 0 120 255
46.226025 -122.268962 -260.655845 0 120 255
46.071960 -124.585519 -259.800957 0 120 255
45.917895 -126.902075 -258.946069 0 120 255
45.763829 -129.218632 -258.091181 0 120 255
45.667423 -131.553899 -257.287311 0 120 255
45.681562 -133.925036 -256.581258 0 120 255
45.695701 -136.296174 -255.875205 0 120 255
45.709839 -138.667312 -255.169152 0 120 255
45.779565 -141.048562 -254.511162 0 120 255
45.978994 -143.453410 -253.965322 0 120 255
46.178422 -145.858258 -253.419482 0 120 255
46.377850 -148.263105 -252.873641 0 120 255
46.629070 -150.669807 -252.371129 0 120 255
47.029673 -153.081856 -251.993584 0 120 255
47.430275 -155.493906 -251.616040 0 120 255
47.830878 -157.905955 -251.238495 0 120 255
48.277791 -160.312680 -250.897810 0 120 255
48.893658 -162.699978 -250.691598 0 120 255
49.509524 -165.087275 -250.485386 0 120 255
50.125390 -167.474573 -250.279174 0 120 255
50.780472 -169.851244 -250.101985 0 120 255
51.622916 -172.177144 -250.063458 0 120 255
52.465360 -174.503043 -250.024931 0 120 255
53.307804 -176.828943 -249.986405 0 120 255
54.180955 -179.141539 -249.968351 0 120 255
55.257320 -181.366096 -250.085783 0 120 255
56.333684 -183.590653 -250.203215 0 120 255
57.410049 -185.815210 -250.320648 0 120 255
58.507573 -188.026989 -250.450205 0 120 255
59.819862 -190.109076 -250.702826 0 120 255
61.132150 -192.191163 -250.955447 0 120 255
62.444439 -194.273250 -251.208068 0 120 255
63.767906 -196.346543 -251.465762 0 120 255
65.311549 -198.246617 -251.823377 0 120 255
66.855193 -200.146691 -252.180993 0 120 255
68.398837 -202.046764 -252.538608 0 120 255
69.944039 -203.945298 -252.896693 0 120 255
71.706951 -205.628675 -253.320234 0 120 255
73.469864 -207.312052 -253.743776 0 120 255
75.232776 -208.995428 -254.167318 0 120 255
76.995688 -210.678805 -254.590860 0 120 255
78.951196 -212.127285 -255.033180 0 120 255
80.913473 -213.567507 -255.476161 0 120 255
82.875751 -215.007729 -255.919141 0 120 255
84.838028 -216.447952 -256.362121 0 120 255
86.959391 -217.649291 -256.775477 0 120 255
89.093641 -218.831280 -257.186433 0 120 255
91.227891 -220.013269 -257.597389 0 120 255
93.362141 -221.195258 -258.008345 0 120 255
95.618654 -222.147617 -258.343830 0 120 255
97.891189 -223.069885 -258.669425 0 120 255
100.163724 -223.992153 -258.995020 0 120 255
102.436259 -224.914421 -259.320616 0 120 255
104.793080 -225.628884 -259.530628 0 120 255
107.165574 -226.304709 -259.719150 0 120 255
109.538067 -226.980534 -259.907672 0 120 255
111.910561 -227.656359 -260.096194 0 120 255
114.330366 -228.156724 -260.137347 0 120 255
116.761829 -228.613851 -260.142185 0 120 255
119.193293 -229.070978 -260.147022 0 120 255
121.624757 -229.528105 -260.151860 0 120 255
124.069295 -229.849726 -259.987501 0 120 255
126.517932 -230.128869 -259.770101 0 120 255
128.966569 -230.408012 -259.552702 0 120 255
131.415206 -230.687154 -259.335302 0 120 255
133.846562 -230.875222 -258.937578 0 120 255
136.271210 -231.027934 -258.469853 0 120 255
138.695857 -231.180647 -258.002127 0 120 255
141.120505 -231.333360 -257.534402 0 120 255
143.502000 -231.441195 -256.885865 0 120 255
145.863128 -231.527850 -256.151991 0 120 255
148.224256 -231.614504 -255.418117 0 120 255
150.585383 -231.701159 -254.684242 0 120 255
152.881993 -231.780937 -253.778139 0 120 255
155.142030 -231.856818 -252.774407 0 120 255
157.402068 -231.932699 -251.770675 0 120 255
159.662105 -232.008579 -250.766943 0 120 255
161.837643 -232.081742 -249.600737 0 120 255
163.956117 -232.153070 -248.324812 0 120 255
166.074591 -232.224398 -247.048886 0 120 255
168.193064 -232.295726 -245.772961 0 120 255
170.208874 -232.363116 -244.349216 0 120 255
172.142544 -232.427357 -242.807205 0 120 255
174.076214 -232.491597 -241.265194 0 120 255
176.009884 -232.555837 -239.723182 0 120 255
177.826325 -232.615455 -238.053013 0 120 255
179.531983 -232.670705 -236.261734 0 120 255
181.237641 -232.725955 -234.470454 0 120 255
182.943299 -232.781205 -232.679174 0 120 255
184.521791 -232.831651 -230.782748 0 120 255
185.958465 -232.876738 -228.769059 0 120 255
187.395138 -232.921826 -226.755371 0 120 255
188.831811 -232.966913 -224.741682 0 120 255
190.136734 -233.007083 -222.647609 0 120 255
191.268003 -233.040770 -220.447587 0 120 255
192.399272 -233.074458 -218.247564 0 120 255
193.530541 -233.108146 -216.047541 0 120 255
194.531089 -233.136911 -213.791993 0 120 255
195.327203 -233.157980 -211.449608 0 120 255
196.123317 -233.179048 -209.107224 0 120 255
196.919431 -233.200116 -206.764840 0 120 255
197.591281 -233.216469 -204.390281 0 120 255
198.030982 -233.224011 -201.955612 0 120 255
198.470682 -233.231554 -199.520943 0 120 255
198.910382 -233.239097 -197.086275 0 120 255
199.237015 -233.242386 -194.639823 0 120 255
199.308711 -233.236086 -192.166803 0 120 255
199.380408 -233.229785 -189.693784 0 120 255
199.452104 -233.223484 -187.220765 0 120 255
199.425659 -233.213605 -184.752261 0 120 255
199.128101 -233.193843 -182.296233 0 120 255
198.830543 -233.174080 -179.840205 0 120 255
198.532985 -233.154317 -177.384177 0 120 255
198.154639 -233.131663 -174.944124 0 120 255
197.496853 -233.099009 -172.559327 0 120 255
196.839068 -233.066354 -170.174530 0 120 255
196.181282 -233.033700 -167.789733 0 120 255
195.461051 -232.998850 -165.427241 0 120 255
194.461454 -232.954171 -163.164541 0 120 255
193.461856 -232.909493 -160.901840 0 120 255
192.462259 -232.864815 -158.639140 0 120 255
191.418156 -232.818602 -156.400116 0 120 255
190.103035 -232.763039 -154.305271 0 120 255
188.787913 -232.707475 -152.210427 0 120 255
187.472792 -232.651912 -150.115582 0 120 255
186.129567 -232.595401 -148.041324 0 120 255
184.531552 -232.530291 -146.153702 0 120 255
182.933538 -232.465182 -144.266080 0 120 255
181.335524 -232.400072 -142.378458 0 120 255
179.723365 -232.334497 -140.504624 0 120 255
177.879653 -232.261291 -138.856482 0 120 255
176.035941 -232.188084 -137.208340 0 120 255
174.192229 -232.114878 -135.560198 0 120 255
172.345280 -232.041569 -133.916218 0 120 255
170.295907 -231.961813 -132.532485 0 120 255
168.246535 -231.882058 -131.148752 0 120 255
166.197163 -231.802303 -129.765019 0 120 255
164.147790 -231.722547 -128.381285 0 120 255
161.938582 -231.637994 -127.271986 0 120 255
159.725081 -231.553311 -126.170058 0 120 255
157.511580 -231.468629 -125.068129 0 120 255
155.298078 -231.383947 -123.966201 0 120 255
152.970362 -231.296106 -123.136345 0 120 255
150.634298 -231.208034 -122.326373 0 120 255
148.298235 -231.119963 -121.516400 0 120 255
145.962171 -231.031891 -120.706427 0 120 255
143.553062 -230.942151 -120.158727 0 120 255
141.134917 -230.852205 -119.643468 0 120 255
138.716773 -230.762259 -119.128209 0 120 255
136.298628 -230.672313 -118.612950 0 120 255
133.843101 -230.581884 -118.344578 0 120 255
131.380865 -230.491368 -118.120507 0 120 255
128.918629 -230.400852 -117.896436 0 120 255
126.456394 -230.310337 -117.672366 0 120 255
123.986489 -230.220355 -117.675544 0 120 255
121.514734 -230.130503 -117.733516 0 120 255
119.042979 -230.040651 -117.791489 0 120 255
116.571225 -229.950799 -117.849461 0 120 255
114.115425 -229.862292 -118.112390 0 120 255
111.664567 -229.774201 -118.438795 0 120 255
109.213709 -229.686111 -118.765200 0 120 255
106.762851 -229.598020 -119.091605 0 120 255
104.345953 -229.511842 -119.600404 0 120 255
101.942176 -229.426402 -120.179683 0 120 255
99.538400 -229.340963 -120.758962 0 120 255
97.134623 -229.255523 -121.338241 0 120 255
94.778013 -229.172401 -122.078008 0 120 255
92.443698 -229.090373 -122.893635 0 120 255
90.109382 -229.008346 -123.709262 0 120 255
87.775067 -228.926319 -124.524889 0 120 255
85.497186 -228.846865 -125.480385 0 120 255
83.251497 -228.768879 -126.515665 0 120 255
81.005808 -228.690893 -127.550946 0 120 255
78.760120 -228.612907 -128.586226 0 120 255
76.576994 -228.537646 -129.742368 0 120 255
74.436539 -228.464242 -130.980945 0 120 255
72.296085 -228.390838 -132.219521 0 120 255
70.155630 -228.317434 -133.458097 0 120 255
68.081362 -228.246835 -134.800180 0 120 255
66.060752 -228.178508 -136.226179 0 120 255
64.040143 -228.110182 -137.652179 0 120 255
62.019533 -228.041856 -139.078178 0 120 255
60.066782 -227.976325 -140.591993 0 120 255
58.179219 -227.913479 -142.190167 0 120 255
56.291656 -227.850633 -143.788341 0 120 255
54.404093 -227.787786 -145.386516 0 120 255
52.584505 -227.727691 -147.058357 0 120 255
50.842241 -227.670724 -148.813998 0 120 255
49.099976 -227.613757 -150.569639 0 120 255
47.357712 -227.556790 -152.325280 0 120 255
45.682266 -227.502484 -154.141842 0 120 255
44.096981 -227.451768 -156.040605 0 120 255
42.511696 -227.401053 -157.939369 0 120 255
40.926411 -227.350338 -159.838133 0 120 255
39.405680 -227.302158 -161.786318 0 120 255
37.988716 -227.258054 -163.813946 0 120 255
36.571753 -227.213951 -165.841574 0 120 255
35.154790 -227.169847 -167.869202 0 120 255
33.799079 -227.128121 -169.935871 0 120 255
32.561524 -227.090979 -172.077853 0 120 255
31.323969 -227.053838 -174.219834 0 120 255
30.086414 -227.016696 -176.361815 0 120 255
28.905717 -226.981736 -178.533473 0 120 255
27.858094 -226.951879 -180.774589 0 120 255
26.810471 -226.922023 -183.015704 0 120 255
25.762848 -226.892167 -185.256820 0 120 255
24.766582 -226.864261 -187.519284 0 120 255
23.918508 -226.841984 -189.843350 0 120 255
23.070434 -226.819708 -192.167415 0 120 255
22.222360 -226.797431 -194.491480 0 120 255
21.419088 -226.776841 -196.829702 0 120 255
20.778991 -226.762398 -199.219488 0 120 255
20.138894 -226.747954 -201.609273 0 120 255
19.498797 -226.733511 -203.999058 0 120 255
18.895984 -226.720455 -206.397077 0 120 255
18.470775 -226.714011 -208.834321 0 120 255
18.045566 -226.707567 -211.271566 0 120 255
17.620357 -226.701122 -213.708810 0 120 255
17.224109 -226.695746 -216.149780 0 120 255
17.018961 -226.697418 -218.615326 0 120 255
16.813814 -226.699091 -221.080871 0 120 255
16.608666 -226.700763 -223.546417 0 120 255
16.423555 -226.703168 -226.012720 0 120 255
16.441681 -226.713015 -228.486701 0 120 255
16.459807 -226.722862 -230.960681 0 120 255
16.477934 -226.732708 -233.434662 0 120 255
16.506809 -226.742945 -235.908072 0 120 255
16.749365 -226.760925 -238.370154 0 120 255
16.991922 -226.778905 -240.832236 0 120 255
17.234478 -226.796886 -243.294319 0 120 255
17.478390 -226.814915 -245.756204 0 120 255
17.944027 -226.840904 -248.185918 0 120 255
18.409663 -226.866893 -250.615633 0 120 255
18.875300 -226.892882 -253.045347 0 120 255
19.340936 -226.918871 -255.475062 0 120 255
20.017939 -226.952349 -257.854095 0 120 255
20.702770 -226.986104 -260.231251 0 120 255
21.387602 -227.019859 -262.608407 0 120 255
22.072434 -227.053614 -264.985564 0 120 255
22.953463 -227.094248 -267.296306 0 120 255
23.850980 -227.135460 -269.601468 0 120 255
24.748496 -227.176672 -271.906630 0 120 255
25.646012 -227.217884 -274.211792 0 120 255
26.722906 -227.265360 -276.437512 0 120 255
27.824100 -227.313685 -278.652470 0 120 255
28.925295 -227.362009 -280.867429 0 120 255
30.026489 -227.410334 -283.082387 0 120 255
31.288954 -227.464181 -285.207887 0 120 255
32.582398 -227.519089 -287.316202 0 120 255
33.875841 -227.573998 -289.424518 0 120 255
35.169285 -227.628906 -291.532833 0 120 255
36.605103 -227.688636 -293.544881 0 120 255
38.077182 -227.749593 -295.532409 0 120 255
39.549262 -227.810551 -297.519938 0 120 255
41.021342 -227.871509 -299.507467 0 120 255
42.616864 -227.936627 -301.395028 0 120 255
44.252412 -228.003094 -303.250175 0 120 255
45.887959 -228.069562 -305.105323 0 120 255
47.523506 -228.136029 -306.960470 0 120 255
49.264081 -228.205925 -308.714893 0 120 255
51.046882 -228.277201 -310.428821 0 120 255
52.829682 -228.348476 -312.142748 0 120 255
54.612482 -228.419751 -313.856676 0 120 255
56.482843 -228.493880 -315.471831 0 120 255
58.396077 -228.569406 -317.038623 0 120 255
60.309311 -228.644932 -318.605415 0 120 255
62.222544 -228.720458 -320.172207 0 120 255
64.207299 -228.798290 -321.644420 0 120 255
66.234178 -228.877480 -323.060929 0 120 255
68.261057 -228.956671 -324.477437 0 120 255
70.287936 -229.035861 -325.893946 0 120 255
72.371890 -229.116985 -327.222017 0 120 255
74.495942 -229.199467 -328.487956 0 120 255
76.619995 -229.281949 -329.753896 0 120 255
78.744047 -229.364431 -331.019835 0 120 255
80.912564 -229.447955 -332.204938 0 120 255
83.118145 -229.532348 -333.322657 0 120 255
85.323726 -229.616741 -334.440376 0 120 255
87.529307 -229.701135 -335.558095 0 120 255
89.768360 -229.782145 -336.604492 0 120 255
92.040435 -229.859817 -337.580529 0 120 255
94.312510 -229.937490 -338.556566 0 120 255
96.584585 -230.015162 -339.532603 0 120 255
98.881042 -230.083483 -340.447753 0 120 255
101.205954 -230.140892 -341.291845 0 120 255
103.530867 -230.198300 -342.135937 0 120 255
105.855779 -230.255708 -342.980028 0 120 255
108.197828 -230.299579 -343.773560 0 120 255
110.563585 -230.324719 -344.497139 0 120 255
112.929342 -230.349859 -345.220718 0 120 255
115.295099 -230.374999 -345.944297 0 120 255
117.672347 -230.384896 -346.627130 0 120 255
120.068535 -230.369670 -347.242807 0 120 255
122.464723 -230.354444 -347.858483 0 120 255
124.860910 -230.339218 -348.474160 0 120 255
127.264348 -230.308833 -349.058132 0 120 255
129.682132 -230.248451 -349.579361 0 120 255
132.099916 -230.188068 -350.100589 0 120 255
134.517700 -230.127686 -350.621818 0 120 255
136.939698 -230.053609 -351.119420 0 120 255
139.371828 -229.946604 -351.560211 0 120 255
141.803959 -229.839599 -352.001001 0 120 255
144.236089 -229.732594 -352.441792 0 120 255
146.670406 -229.614323 -352.865945 0 120 255
149.111220 -229.462565 -353.240644 0 120 255
151.552034 -229.310806 -353.615344 0 120 255
153.992849 -229.159047 -353.990043 0 120 255
156.434623 -228.998967 -354.353929 0 120 255
158.880014 -228.807527 -354.677065 0 120 255
161.325406 -228.616088 -355.000202 0 120 255
163.770797 -228.424648 -355.323338 0 120 255
166.216502 -228.228158 -355.640548 0 120 255
168.663764 -228.006604 -355.928347 0 120 255
171.111026 -227.785050 -356.216145 0 120 255
173.558288 -227.563496 -356.503943 0 120 255
176.005523 -227.340701 -356.790982 0 120 255
178.452575 -227.109278 -357.072735 0 120 255
180.899627 -226.877856 -357.354488 0 120 255
183.346680 -226.646434 -357.636241 0 120 255
185.793731 -226.415011 -357.917996 0 120 255
188.240781 -226.183577 -358.199761 0 120 255
190.687831 -225.952144 -358.481527 0 120 255
193.134880 -225.720711 -358.763293 0 120 255
195.581930 -225.489277 -359.045058 0 120 255
198.028981 -225.257848 -359.326816 0 120 255
200.476032 -225.026419 -359.608574 0 120 255
202.923082 -224.794990 -359.890333 0 120 255
205.370133 -224.563560 -360.172091 0 120 255
