ply
format ascii 1.0
element vertex 385
property float x
property float y
property float z
property uchar red
property uchar green
property uchar blue
end_header
77.430455 -42.474882 -360.397637 0 120 255
77.187574 -42.528706 -357.936152 0 120 255
76.944693 -42.582531 -355.474667 0 120 255
76.701812 -42.636356 -353.013182 0 120 255
76.458931 -42.690181 -350.551697 0 120 255
76.216453 -42.752757 -348.090380 0 120 255
75.973993 -42.815718 -345.629070 0 120 255
75.731532 -42.878678 -343.167761 0 120 255
75.489072 -42.941639 -340.706451 0 120 255
75.393285 -43.493083 -338.301556 0 120 255
75.310874 -44.089071 -335.901806 0 120 255
75.228462 -44.685059 -333.502055 0 120 255
75.146050 -45.281047 -331.102305 0 120 255
75.192327 -46.267351 -328.839956 0 120 255
75.257544 -47.311098 -326.597828 0 120 255
75.322760 -48.354845 -324.355701 0 120 255
75.387976 -49.398593 -322.113574 0 120 255
75.562176 -50.743254 -320.051028 0 120 255
75.759227 -52.151010 -318.026135 0 120 255
75.956278 -53.558766 -316.001242 0 120 255
76.153329 -54.966522 -313.976349 0 120 255
76.441061 -56.596291 -312.144586 0 120 255
76.754142 -58.288120 -310.366809 0 120 255
77.067223 -59.979949 -308.589032 0 120 255
77.380303 -61.671778 -306.811255 0 120 255
77.768723 -63.520818 -305.221457 0 120 255
78.184100 -65.426111 -303.698920 0 120 255
78.599476 -67.331404 -302.176384 0 120 255
79.014853 -69.236697 -300.653847 0 120 255
79.493565 -71.248604 -299.303367 0 120 255
80.000526 -73.308064 -298.029628 0 120 255
80.507487 -75.367524 -296.755889 0 120 255
81.014449 -77.426984 -295.482149 0 120 255
81.575836 -79.554959 -294.359320 0 120 255
82.166944 -81.720347 -293.318897 0 120 255
82.758053 -83.885736 -292.278474 0 120 255
83.349161 -86.051125 -291.238052 0 120 255
83.988333 -88.257127 -290.325716 0 120 255
84.659247 -90.489951 -289.497967 0 120 255
85.330161 -92.722775 -288.670217 0 120 255
86.001075 -94.955599 -287.842468 0 120 255
86.715618 -97.209074 -287.120405 0 120 255
87.464730 -99.478912 -286.482076 0 120 255
88.213842 -101.748750 -285.843748 0 120 255
88.962954 -104.018588 -285.205419 0 120 255
89.752584 -106.295103 -284.651924 0 120 255
90.580554 -108.577935 -284.178700 0 120 255
91.408523 -110.860767 -283.705475 0 120 255
92.236492 -113.143598 -283.232250 0 120 255
93.102683 -115.423536 -282.825041 0 120 255
94.011994 -117.700209 -282.492306 0 120 255
94.921305 -119.976881 -282.159572 0 120 255
95.830615 -122.253554 -281.826837 0 120 255
96.776220 -124.520968 -281.543492 0 120 255
97.770691 -126.775919 -281.326643 0 120 255
98.765162 -129.030869 -281.109795 0 120 255
99.759633 -131.285819 -280.892946 0 120 255
100.788489 -133.527472 -280.711080 0 120 255
101.872812 -135.747676 -280.585644 0 120 255
102.957136 -137.967880 -280.460209 0 120 255
104.041459 -140.188084 -280.334773 0 120 255
105.157999 -142.392643 -280.232038 0 120 255
106.337249 -144.566749 -280.173490 0 120 255
107.516499 -146.740856 -280.114942 0 120 255
108.695748 -148.914962 -280.056394 0 120 255
109.904586 -151.072338 -280.010325 0 120 255
111.183697 -153.189978 -279.993892 0 120 255
112.462808 -155.307619 -279.977459 0 120 255
113.741918 -157.425260 -279.961026 0 120 255
115.047395 -159.526080 -279.948875 0 120 255
116.430545 -161.577346 -279.949339 0 120 255
117.813694 -163.628612 -279.949802 0 120 255
119.196844 -165.679878 -279.950266 0 120 255
120.602513 -167.715071 -279.948846 0 120 255
122.092503 -169.690078 -279.940372 0 120 255
123.582494 -171.665085 -279.931899 0 120 255
125.072484 -173.640092 -279.923426 0 120 255
126.580571 -175.600557 -279.908983 0 120 255
128.178058 -177.489182 -279.865052 0 120 255
129.775544 -179.377806 -279.821121 0 120 255
131.373031 -181.266431 -279.777190 0 120 255
132.983792 -183.142829 -279.725364 0 120 255
134.686499 -184.934544 -279.618857 0 120 255
136.389206 -186.726259 -279.512349 0 120 255
138.091912 -188.517974 -279.405842 0 120 255
139.802968 -190.300609 -279.291753 0 120 255
141.604834 -191.984486 -279.095202 0 120 255
143.406700 -193.668363 -278.898651 0 120 255
145.208566 -195.352241 -278.702100 0 120 255
147.014192 -197.031062 -278.500567 0 120 255
148.904561 -198.595930 -278.186739 0 120 255
150.794931 -200.160798 -277.872910 0 120 255
152.685300 -201.725666 -277.559082 0 120 255
154.575742 -203.290404 -277.245110 0 120 255
156.538616 -204.725220 -276.787701 0 120 255
158.501491 -206.160037 -276.330292 0 120 255
160.464365 -207.594853 -275.872883 0 120 255
162.427239 -209.029670 -275.415475 0 120 255
164.438744 -210.329690 -274.796894 0 120 255
166.452288 -211.624056 -274.171553 0 120 255
168.465833 -212.918422 -273.546212 0 120 255
170.479377 -214.212788 -272.920871 0 120 255
172.513875 -215.369834 -272.121821 0 120 255
174.550227 -216.514727 -271.307397 0 120 255
176.586579 -217.659621 -270.492974 0 120 255
178.622931 -218.804514 -269.678550 0 120 255
180.649777 -219.812268 -268.683584 0 120 255
182.675301 -220.800938 -267.663495 0 120 255
184.700824 -221.789608 -266.643406 0 120 255
186.726348 -222.778279 -265.623317 0 120 255
188.710492 -223.633190 -264.422110 0 120 255
190.686587 -224.462083 -263.185671 0 120 255
192.662682 -225.290975 -261.949231 0 120 255
194.638777 -226.119867 -260.712792 0 120 255
196.541897 -226.821911 -259.301140 0 120 255
198.426382 -227.491564 -257.844748 0 120 255
200.310867 -228.161216 -256.388356 0 120 255
202.195352 -228.830869 -254.931964 0 120 255
203.977399 -229.384223 -253.312526 0 120 255
205.726406 -229.900066 -251.640498 0 120 255
207.475413 -230.415908 -249.968470 0 120 255
209.224419 -230.931750 -248.296442 0 120 255
210.845501 -231.345219 -246.479059 0 120 255
212.415766 -231.718022 -244.603938 0 120 255
213.986031 -232.090825 -242.728816 0 120 255
215.556296 -232.463627 -240.853694 0 120 255
216.978694 -232.750831 -238.855258 0 120 255
218.329991 -232.996876 -236.797528 0 120 255
219.681288 -233.242920 -234.739797 0 120 255
221.032585 -233.488965 -232.682067 0 120 255
222.222748 -233.668159 -230.525885 0 120 255
223.320237 -233.808905 -228.313080 0 120 255
224.417727 -233.949652 -226.100276 0 120 255
225.515216 -234.090398 -223.887471 0 120 255
226.445501 -234.184012 -221.602209 0 120 255
227.261688 -234.245464 -219.267501 0 120 255
228.077874 -234.306916 -216.932794 0 120 255
228.894061 -234.368368 -214.598086 0 120 255
229.544164 -234.403905 -212.216414 0 120 255
230.060484 -234.418565 -209.796911 0 120 255
230.576804 -234.433226 -207.377408 0 120 255
231.093123 -234.447886 -204.957905 0 120 255
231.451026 -234.453859 -202.514904 0 120 255
231.658565 -234.451585 -200.049601 0 120 255
231.866104 -234.449310 -197.584298 0 120 255
232.073642 -234.447036 -195.118995 0 120 255
232.134184 -234.439266 -192.650626 0 120 255
232.030250 -234.425345 -190.178825 0 120 255
231.926316 -234.411424 -187.707024 0 120 255
231.822382 -234.397503 -185.235223 0 120 255
231.585751 -234.379113 -182.777399 0 120 255
231.173679 -234.354815 -180.338054 0 120 255
230.761607 -234.330517 -177.898709 0 120 255
230.349536 -234.306219 -175.459365 0 120 255
229.821096 -234.277893 -173.047249 0 120 255
229.110032 -234.243244 -170.677864 0 120 255
228.398968 -234.208595 -168.308479 0 120 255
227.687905 -234.173946 -165.939094 0 120 255
226.878018 -234.135852 -163.606159 0 120 255
225.882711 -234.091293 -161.341611 0 120 255
224.887403 -234.046735 -159.077064 0 120 255
223.892096 -234.002177 -156.812517 0 120 255
222.815766 -233.954822 -154.589629 0 120 255
221.555733 -233.901127 -152.461196 0 120 255
220.295699 -233.847432 -150.332762 0 120 255
219.035665 -233.793736 -148.204329 0 120 255
217.711803 -233.737874 -146.119013 0 120 255
216.210325 -233.675983 -144.153682 0 120 255
214.708847 -233.614092 -142.188350 0 120 255
213.207369 -233.552200 -140.223018 0 120 255
211.657922 -233.488711 -138.298964 0 120 255
209.940937 -233.419641 -136.519079 0 120 255
208.223953 -233.350571 -134.739195 0 120 255
206.506968 -233.281500 -132.959310 0 120 255
204.756015 -233.211326 -131.216126 0 120 255
202.851086 -233.136151 -129.639295 0 120 255
200.946158 -233.060975 -128.062465 0 120 255
199.041230 -232.985799 -126.485635 0 120 255
197.114127 -232.909926 -124.938807 0 120 255
195.049473 -232.829729 -123.578084 0 120 255
192.984818 -232.749531 -122.217361 0 120 255
190.920164 -232.669334 -120.856638 0 120 255
188.842761 -232.588752 -119.517699 0 120 255
186.646478 -232.504578 -118.381894 0 120 255
184.450195 -232.420405 -117.246090 0 120 255
182.253912 -232.336232 -116.110285 0 120 255
180.051909 -232.251896 -114.987093 0 120 255
177.751308 -232.164765 -114.081314 0 120 255
175.450706 -232.077633 -113.175535 0 120 255
173.150104 -231.990502 -112.269756 0 120 255
170.848505 -231.903345 -111.366934 0 120 255
168.469690 -231.814210 -110.693071 0 120 255
166.090876 -231.725075 -110.019207 0 120 255
163.712061 -231.635939 -109.345344 0 120 255
161.333246 -231.546804 -108.671480 0 120 255
158.902393 -231.456610 -108.222025 0 120 255
156.469966 -231.366383 -107.779356 0 120 255
154.037540 -231.276157 -107.336688 0 120 255
151.605113 -231.185930 -106.894019 0 120 255
149.144238 -231.095444 -106.663420 0 120 255
146.681172 -231.004938 -106.449150 0 120 255
144.218106 -230.914432 -106.234879 0 120 255
141.755040 -230.823927 -106.020608 0 120 255
139.283731 -230.733851 -106.004890 0 120 255
136.811364 -230.643830 -106.014635 0 120 255
134.338997 -230.553810 -106.024379 0 120 255
131.866630 -230.463789 -106.034124 0 120 255
129.403124 -230.374774 -106.228319 0 120 255
126.941253 -230.285943 -106.456566 0 120 255
124.479382 -230.197113 -106.684813 0 120 255
122.017511 -230.108282 -106.913060 0 120 255
119.578832 -230.020926 -107.311469 0 120 255
117.145881 -229.933934 -107.751896 0 120 255
114.712930 -229.846941 -108.192323 0 120 255
112.279978 -229.759949 -108.632750 0 120 255
109.882113 -229.674814 -109.229163 0 120 255
107.495343 -229.590267 -109.874899 0 120 255
105.108572 -229.505719 -110.520634 0 120 255
102.721802 -229.421172 -111.166369 0 120 255
100.379891 -229.338784 -111.954225 0 120 255
98.055636 -229.257247 -112.798018 0 120 255
95.731381 -229.175709 -113.641811 0 120 255
93.407126 -229.094172 -114.485604 0 120 255
91.135665 -229.015021 -115.458075 0 120 255
88.889579 -228.937017 -116.492389 0 120 255
86.643492 -228.859013 -117.526703 0 120 255
84.397405 -228.781009 -118.561017 0 120 255
82.210421 -228.705592 -119.710989 0 120 255
80.057669 -228.631675 -120.927948 0 120 255
77.904917 -228.557758 -122.144908 0 120 255
75.752164 -228.483840 -123.361867 0 120 255
73.663379 -228.412632 -124.681912 0 120 255
71.618841 -228.343298 -126.073261 0 120 255
69.574303 -228.273964 -127.464610 0 120 255
67.529765 -228.204630 -128.855960 0 120 255
65.552510 -228.138088 -130.337970 0 120 255
63.630516 -228.073840 -131.894443 0 120 255
61.708523 -228.009591 -133.450917 0 120 255
59.786530 -227.945343 -135.007390 0 120 255
57.933535 -227.883897 -136.642266 0 120 255
56.147627 -227.825174 -138.353371 0 120 255
54.361719 -227.766451 -140.064476 0 120 255
52.575811 -227.707729 -141.775581 0 120 255
50.858964 -227.651771 -143.553088 0 120 255
49.221564 -227.598993 -145.406985 0 120 255
47.584163 -227.546216 -147.260881 0 120 255
45.946763 -227.493439 -149.114777 0 120 255
44.376893 -227.443326 -151.023561 0 120 255
42.899111 -227.396847 -153.007193 0 120 255
41.421330 -227.350367 -154.990826 0 120 255
39.943549 -227.303888 -156.974458 0 120 255
38.530278 -227.259921 -159.002168 0 120 255
37.221756 -227.220035 -161.101448 0 120 255
35.913233 -227.180149 -163.200727 0 120 255
34.604711 -227.140263 -165.300007 0 120 255
33.356377 -227.102695 -167.433479 0 120 255
32.225281 -227.069641 -169.633553 0 120 255
31.094186 -227.036587 -171.833627 0 120 255
29.963090 -227.003533 -174.033701 0 120 255
28.886824 -226.972576 -176.259201 0 120 255
27.940134 -226.946574 -178.544786 0 120 255
26.993444 -226.920572 -180.830370 0 120 255
26.046754 -226.894570 -183.115955 0 120 255
25.148711 -226.870404 -185.419408 0 120 255
24.392441 -226.851593 -187.774933 0 120 255
23.636171 -226.832782 -190.130458 0 120 255
22.879901 -226.813971 -192.485983 0 120 255
22.165408 -226.796724 -194.853064 0 120 255
21.604689 -226.785236 -197.262682 0 120 255
21.043971 -226.773747 -199.672300 0 120 255
20.483252 -226.762259 -202.081918 0 120 255
19.956865 -226.752047 -204.498054 0 120 255
19.595972 -226.747988 -206.945611 0 120 255
19.235078 -226.743929 -209.393168 0 120 255
18.874184 -226.739871 -211.840725 0 120 255
18.539702 -226.736783 -214.291069 0 120 255
18.381944 -226.740195 -216.760056 0 120 255
18.224186 -226.743607 -219.229043 0 120 255
18.066428 -226.747018 -221.698030 0 120 255
17.926800 -226.751094 -224.167419 0 120 255
17.974508 -226.762024 -226.640959 0 120 255
18.022215 -226.772954 -229.114499 0 120 255
18.069922 -226.783884 -231.588039 0 120 255
18.127237 -226.795162 -234.060989 0 120 255
18.381603 -226.813568 -236.521833 0 120 255
18.635969 -226.831975 -238.982678 0 120 255
18.890335 -226.850381 -241.443522 0 120 255
19.145686 -226.868822 -243.904222 0 120 255
19.606593 -226.894635 -246.334797 0 120 255
20.067500 -226.920447 -248.765372 0 120 255
20.528407 -226.946259 -251.195947 0 120 255
20.989314 -226.972072 -253.626522 0 120 255
21.647594 -227.004912 -256.010806 0 120 255
22.313439 -227.038021 -258.393315 0 120 255
22.979284 -227.071130 -260.775824 0 120 255
23.645129 -227.104239 -263.158334 0 120 255
24.496487 -227.143889 -265.480221 0 120 255
25.363660 -227.184098 -267.796941 0 120 255
26.230834 -227.224306 -270.113660 0 120 255
27.098008 -227.264514 -272.430380 0 120 255
28.137181 -227.310706 -274.674039 0 120 255
29.199851 -227.357714 -276.907717 0 120 255
30.262521 -227.404723 -279.141396 0 120 255
31.325190 -227.451732 -281.375074 0 120 255
32.544864 -227.504159 -283.525502 0 120 255
33.794846 -227.557632 -285.659860 0 120 255
35.044828 -227.611105 -287.794217 0 120 255
36.294810 -227.664577 -289.928575 0 120 255
37.685725 -227.722848 -291.971995 0 120 255
39.112637 -227.782344 -293.992187 0 120 255
40.539549 -227.841840 -296.012380 0 120 255
41.966461 -227.901336 -298.032573 0 120 255
43.517572 -227.964988 -299.956838 0 120 255
45.109013 -228.029989 -301.849954 0 120 255
46.700454 -228.094989 -303.743069 0 120 255
48.291895 -228.159990 -305.636185 0 120 255
49.990699 -228.228544 -307.431078 0 120 255
51.732682 -228.298527 -309.186467 0 120 255
53.474665 -228.368509 -310.941857 0 120 255
55.216649 -228.438492 -312.697247 0 120 255
57.049545 -228.511441 -314.354722 0 120 255
58.926926 -228.585841 -315.964288 0 120 255
60.804307 -228.660242 -317.573854 0 120 255
62.681688 -228.734642 -319.183420 0 120 255
64.634341 -228.811483 -320.697808 0 120 255
66.631261 -228.889760 -322.156225 0 120 255
68.628181 -228.968036 -323.614642 0 120 255
70.625101 -229.046312 -325.073059 0 120 255
72.682854 -229.126518 -326.441160 0 120 255
74.783252 -229.208076 -327.745949 0 120 255
76.883650 -229.289633 -329.050738 0 120 255
78.984047 -229.371191 -330.355527 0 120 255
81.132223 -229.453281 -331.576884 0 120 255
83.320119 -229.535815 -332.728880 0 120 255
85.508016 -229.618348 -333.880875 0 120 255
87.695912 -229.700881 -335.032871 0 120 255
89.919644 -229.778146 -336.111409 0 120 255
92.178622 -229.850230 -337.117699 0 120 255
94.437599 -229.922314 -338.123990 0 120 255
96.696577 -229.994398 -339.130281 0 120 255
98.981583 -230.056271 -340.073795 0 120 255
101.296876 -230.106262 -340.944264 0 120 255
103.612168 -230.156254 -341.814734 0 120 255
105.927461 -230.206246 -342.685204 0 120 255
108.261056 -230.243377 -343.503295 0 120 255
110.619904 -230.262764 -344.249121 0 120 255
112.978752 -230.282151 -344.994948 0 120 255
115.337600 -230.301537 -345.740774 0 120 255
117.708778 -230.306981 -346.444159 0 120 255
120.100225 -230.289503 -347.077777 0 120 255
122.491672 -230.272026 -347.711396 0 120 255
124.883119 -230.254549 -348.345014 0 120 255
127.282424 -230.223291 -348.945413 0 120 255
129.697243 -230.164827 -349.480229 0 120 255
132.112062 -230.106364 -350.015045 0 120 255
134.526880 -230.047900 -350.549862 0 120 255
136.946346 -229.976787 -351.059762 0 120 255
139.376962 -229.875328 -351.509885 0 120 255
141.807577 -229.773869 -351.960008 0 120 255
144.238193 -229.672410 -352.410131 0 120 255
146.671275 -229.560122 -352.842569 0 120 255
149.111676 -229.415712 -353.222551 0 120 255
151.552077 -229.271302 -353.602534 0 120 255
153.992477 -229.126892 -353.982516 0 120 255
156.433971 -228.973890 -354.350900 0 120 255
158.879575 -228.788578 -354.675671 0 120 255
161.325179 -228.603267 -355.000442 0 120 255
163.770784 -228.417955 -355.325213 0 120 255
166.216680 -228.226620 -355.643642 0 120 255
168.664026 -228.005451 -355.930657 0 120 255
171.111372 -227.784282 -356.217672 0 120 255
173.558719 -227.563113 -356.504687 0 120 255
176.006022 -227.340654 -356.791039 0 120 255
178.453033 -227.109235 -357.072787 0 120 255
180.900043 -226.877817 -357.354536 0 120 255
183.347053 -226.646399 -357.636284 0 120 255
185.794063 -226.414979 -357.918034 0 120 255
188.241071 -226.183550 -358.199795 0 120 255
190.688079 -225.952121 -358.481556 0 120 255
193.135087 -225.720691 -358.763316 0 120 255
195.582095 -225.489262 -359.045077 0 120 255
198.029104 -225.257840 -359.326830 0 120 255
200.476114 -225.026419 -359.608584 0 120 255
202.923123 -224.794997 -359.890337 0 120 255
205.370133 -224.563575 -360.172091 0 120 255
