ply
format ascii 1.0
element vertex 385
property float x
property float y
property float z
property uchar red
property uchar green
property uchar blue
end_header
77.430455 -42.474882 -360.397637 0 120 255
77.187558 -42.528710 -357.935985 0 120 255
76.944660 -42.582538 -355.474333 0 120 255
76.701763 -42.636367 -353.012681 0 120 255
76.458865 -42.690195 -350.551029 0 120 255
76.214212 -42.754029 -348.089791 0 120 255
75.969482 -42.818299 -345.628572 0 120 255
75.724752 -42.882569 -343.167352 0 120 255
75.480023 -42.946839 -340.706132 0 120 255
75.068101 -43.431458 -338.319099 0 120 255
74.640932 -43.954410 -335.938831 0 120 255
74.213763 -44.477362 -333.558563 0 120 255
73.786594 -45.000314 -331.178296 0 120 255
73.223861 -45.820818 -328.916933 0 120 255
72.641005 -46.685491 -326.673220 0 120 255
72.058148 -47.550163 -324.429507 0 120 255
71.475292 -48.414835 -322.185794 0 120 255
70.789964 -49.482709 -320.065079 0 120 255
70.082950 -50.593588 -317.970394 0 120 255
69.375936 -51.704466 -315.875708 0 120 255
68.668922 -52.815344 -313.781023 0 120 255
67.893227 -54.060893 -311.791300 0 120 255
67.098196 -55.344361 -309.831132 0 120 255
66.303164 -56.627829 -307.870963 0 120 255
65.508132 -57.911296 -305.910794 0 120 255
64.677051 -59.285574 -304.030213 0 120 255
63.833014 -60.692489 -302.178236 0 120 255
62.988977 -62.099403 -300.326259 0 120 255
62.144940 -63.506318 -298.474282 0 120 255
61.294646 -64.979815 -296.678728 0 120 255
60.441557 -66.483055 -294.908379 0 120 255
59.588468 -67.986294 -293.138030 0 120 255
58.735379 -69.489534 -291.367681 0 120 255
57.901566 -71.048520 -289.637605 0 120 255
57.078267 -72.637915 -287.929498 0 120 255
56.254967 -74.227310 -286.221391 0 120 255
55.431668 -75.816704 -284.513284 0 120 255
54.647871 -77.458619 -282.837614 0 120 255
53.890080 -79.135111 -281.183301 0 120 255
53.132290 -80.811603 -279.528987 0 120 255
52.374499 -82.488096 -277.874674 0 120 255
51.670637 -84.216888 -276.252260 0 120 255
51.009314 -85.986936 -274.655010 0 120 255
50.347992 -87.756985 -273.057759 0 120 255
49.686670 -89.527033 -271.460509 0 120 255
49.088035 -91.348999 -269.899670 0 120 255
48.548407 -93.219836 -268.373106 0 120 255
48.008780 -95.090673 -266.846542 0 120 255
47.469153 -96.961509 -265.319978 0 120 255
46.995927 -98.881959 -263.836828 0 120 255
46.597209 -100.858078 -262.402393 0 120 255
46.198491 -102.834198 -260.967959 0 120 255
45.799773 -104.810317 -259.533524 0 120 255
45.467102 -106.831169 -258.149628 0 120 255
45.222910 -108.911946 -256.833435 0 120 255
44.978719 -110.992722 -255.517241 0 120 255
44.734527 -113.073499 -254.201048 0 120 255
44.553077 -115.191737 -252.940825 0 120 255
44.472407 -117.370148 -251.770506 0 120 255
44.391737 -119.548558 -250.600187 0 120 255
44.311068 -121.726968 -249.429868 0 120 255
44.287915 -123.933873 -248.318107 0 120 255
44.376380 -126.196074 -247.319984 0 120 255
44.464845 -128.458274 -246.321861 0 120 255
44.553309 -130.720474 -245.323737 0 120 255
44.692996 -133.001458 -244.383392 0 120 255
44.954167 -135.326992 -243.580080 0 120 255
45.215337 -137.652525 -242.776768 0 120 255
45.476508 -139.978059 -241.973455 0 120 255
45.782101 -142.312937 -241.223771 0 120 255
46.218662 -144.675368 -240.632198 0 120 255
46.655224 -147.037800 -240.040624 0 120 255
47.091785 -149.400231 -239.449050 0 120 255
47.565774 -151.763808 -238.904024 0 120 255
48.180410 -154.131691 -238.533921 0 120 255
48.795046 -156.499575 -238.163819 0 120 255
49.409683 -158.867459 -237.793716 0 120 255
50.054635 -161.230354 -237.460882 0 120 255
50.850457 -163.568425 -237.313518 0 120 255
51.646279 -165.906497 -237.166154 0 120 255
52.442100 -168.244568 -237.018790 0 120 255
53.260959 -170.574225 -236.898193 0 120 255
54.241541 -172.844810 -236.965503 0 120 255
55.222123 -175.115395 -237.032812 0 120 255
56.202705 -177.385979 -237.100122 0 120 255
57.198785 -179.647844 -237.183617 0 120 255
58.367639 -181.812503 -237.447549 0 120 255
59.536492 -183.977162 -237.711481 0 120 255
60.705346 -186.141820 -237.975414 0 120 255
61.881875 -188.300717 -238.246115 0 120 255
63.241593 -190.322088 -238.678382 0 120 255
64.601311 -192.343458 -239.110649 0 120 255
65.961028 -194.364829 -239.542915 0 120 255
67.320746 -196.386200 -239.975182 0 120 255
68.871445 -198.230344 -240.537277 0 120 255
70.422459 -200.074197 -241.099585 0 120 255
71.973472 -201.918050 -241.661893 0 120 255
73.524486 -203.761902 -242.224202 0 120 255
75.255487 -205.408249 -242.865525 0 120 255
76.994624 -207.045667 -243.510421 0 120 255
78.733762 -208.683084 -244.155317 0 120 255
80.472899 -210.320502 -244.800212 0 120 255
82.376706 -211.749337 -245.470276 0 120 255
84.295743 -213.158882 -246.142667 0 120 255
86.214779 -214.568426 -246.815059 0 120 255
88.133815 -215.977971 -247.487450 0 120 255
90.197384 -217.177795 -248.131092 0 120 255
92.281761 -218.347424 -248.770595 0 120 255
94.366139 -219.517052 -249.410098 0 120 255
96.450517 -220.686681 -250.049601 0 120 255
98.654445 -221.655516 -250.609492 0 120 255
100.882323 -222.584124 -251.153433 0 120 255
103.110202 -223.512731 -251.697374 0 120 255
105.338080 -224.441338 -252.241316 0 120 255
107.656271 -225.187398 -252.660928 0 120 255
109.998155 -225.885568 -253.047923 0 120 255
112.340039 -226.583737 -253.434918 0 120 255
114.681923 -227.281907 -253.821913 0 120 255
117.081718 -227.823649 -254.048678 0 120 255
119.500678 -228.313622 -254.222414 0 120 255
121.919639 -228.803595 -254.396150 0 120 255
124.338599 -229.293568 -254.569886 0 120 255
126.781438 -229.658916 -254.558305 0 120 255
129.234005 -229.973502 -254.471237 0 120 255
131.686571 -230.288088 -254.384170 0 120 255
134.139137 -230.602673 -254.297103 0 120 255
136.581692 -230.827544 -254.011543 0 120 255
139.019312 -231.008187 -253.628132 0 120 255
141.456932 -231.188831 -253.244722 0 120 255
143.894552 -231.369475 -252.861312 0 120 255
146.290270 -231.496701 -252.278398 0 120 255
148.661278 -231.592426 -251.577838 0 120 255
151.032286 -231.688151 -250.877278 0 120 255
153.403294 -231.783876 -250.176718 0 120 255
155.704226 -231.860497 -249.286452 0 120 255
157.956095 -231.923743 -248.263362 0 120 255
160.207964 -231.986988 -247.240272 0 120 255
162.459833 -232.050234 -246.217183 0 120 255
164.617421 -232.100229 -245.020702 0 120 255
166.697000 -232.139260 -243.680757 0 120 255
168.776579 -232.178292 -242.340811 0 120 255
170.856159 -232.217323 -241.000866 0 120 255
172.821955 -232.247215 -239.510377 0 120 255
174.676757 -232.268192 -237.873032 0 120 255
176.531558 -232.289169 -236.235687 0 120 255
178.386359 -232.310146 -234.598342 0 120 255
180.114055 -232.326457 -232.837574 0 120 255
181.695592 -232.337404 -230.934878 0 120 255
183.277129 -232.348350 -229.032183 0 120 255
184.858665 -232.359296 -227.129488 0 120 255
186.306714 -232.368381 -225.132394 0 120 255
187.573427 -232.374937 -223.007066 0 120 255
188.840141 -232.381493 -220.881738 0 120 255
190.106855 -232.388048 -218.756410 0 120 255
191.240638 -232.394165 -216.565366 0 120 255
192.160118 -232.399574 -214.268378 0 120 255
193.079597 -232.404983 -211.971389 0 120 255
193.999077 -232.410392 -209.674401 0 120 255
194.792500 -232.415784 -207.338067 0 120 255
195.342908 -232.421143 -204.925879 0 120 255
195.893316 -232.426501 -202.513692 0 120 255
196.443724 -232.431859 -200.101504 0 120 255
196.880145 -232.436989 -197.672474 0 120 255
197.050855 -232.441586 -195.204182 0 120 255
197.221564 -232.446183 -192.735891 0 120 255
197.392274 -232.450780 -190.267599 0 120 255
197.464852 -232.454668 -187.800059 0 120 255
197.256320 -232.456524 -185.334671 0 120 255
197.047789 -232.458381 -182.869283 0 120 255
196.839257 -232.460238 -180.403895 0 120 255
196.550692 -232.460904 -177.951413 0 120 255
195.973726 -232.457278 -175.545436 0 120 255
195.396760 -232.453651 -173.139460 0 120 255
194.819793 -232.450025 -170.733483 0 120 255
194.181620 -232.444915 -168.347076 0 120 255
193.256112 -232.432838 -166.052535 0 120 255
192.330603 -232.420762 -163.757995 0 120 255
191.405095 -232.408685 -161.463455 0 120 255
190.436587 -232.395117 -159.190003 0 120 255
189.189949 -232.371905 -157.052953 0 120 255
187.943312 -232.348692 -154.915903 0 120 255
186.696674 -232.325480 -152.778853 0 120 255
185.423513 -232.301057 -150.659912 0 120 255
183.888911 -232.264701 -148.719474 0 120 255
182.354310 -232.228346 -146.779035 0 120 255
180.819708 -232.191991 -144.838596 0 120 255
179.272506 -232.154926 -142.909628 0 120 255
177.487080 -232.104442 -141.197515 0 120 255
175.701653 -232.053958 -139.485402 0 120 255
173.916227 -232.003474 -137.773289 0 120 255
172.129049 -231.952875 -136.063268 0 120 255
170.132234 -231.888528 -134.603744 0 120 255
168.135418 -231.824181 -133.144219 0 120 255
166.138602 -231.759835 -131.684694 0 120 255
164.141786 -231.695488 -130.225169 0 120 255
161.979584 -231.619345 -129.026261 0 120 255
159.811609 -231.542790 -127.836451 0 120 255
157.643634 -231.466236 -126.646640 0 120 255
155.475659 -231.389681 -125.456829 0 120 255
153.186264 -231.304853 -124.526032 0 120 255
150.886909 -231.219347 -123.616481 0 120 255
148.587555 -231.133840 -122.706929 0 120 255
146.288200 -231.048334 -121.797378 0 120 255
143.906778 -230.959287 -121.139217 0 120 255
141.514384 -230.869766 -120.514668 0 120 255
139.121990 -230.780246 -119.890118 0 120 255
136.729595 -230.690725 -119.265569 0 120 255
134.289588 -230.600256 -118.880257 0 120 255
131.840506 -230.509605 -118.540537 0 120 255
129.391425 -230.418955 -118.200817 0 120 255
126.942344 -230.328305 -117.861096 0 120 255
124.475109 -230.237953 -117.745161 0 120 255
122.003274 -230.147678 -117.685946 0 120 255
119.531439 -230.057402 -117.626731 0 120 255
117.059603 -229.967126 -117.567516 0 120 255
114.594169 -229.877874 -117.714341 0 120 255
112.130805 -229.788953 -117.927784 0 120 255
109.667442 -229.700032 -118.141226 0 120 255
107.204078 -229.611110 -118.354669 0 120 255
104.767019 -229.523837 -118.755202 0 120 255
102.340521 -229.437225 -119.230837 0 120 255
99.914022 -229.350613 -119.706473 0 120 255
97.487523 -229.264002 -120.182108 0 120 255
95.102974 -229.179528 -120.825384 0 120 255
92.738951 -229.096102 -121.550685 0 120 255
90.374928 -229.012675 -122.275985 0 120 255
88.010905 -228.929248 -123.001286 0 120 255
85.700666 -228.848314 -123.874904 0 120 255
83.422099 -228.768846 -124.835865 0 120 255
81.143533 -228.689379 -125.796826 0 120 255
78.864966 -228.609912 -126.757787 0 120 255
76.648648 -228.533200 -127.848272 0 120 255
74.476071 -228.458425 -129.029774 0 120 255
72.303494 -228.383650 -130.211275 0 120 255
70.130918 -228.308875 -131.392777 0 120 255
68.026143 -228.236985 -132.685894 0 120 255
65.977915 -228.167501 -134.072097 0 120 255
63.929687 -228.098017 -135.458300 0 120 255
61.881458 -228.028533 -136.844503 0 120 255
59.904048 -227.961979 -138.325457 0 120 255
57.996544 -227.898318 -139.899941 0 120 255
56.089039 -227.834658 -141.474425 0 120 255
54.181534 -227.770997 -143.048909 0 120 255
52.345698 -227.710241 -144.702488 0 120 255
50.593569 -227.652879 -146.448449 0 120 255
48.841439 -227.595517 -148.194410 0 120 255
47.089310 -227.538154 -149.940371 0 120 255
45.407790 -227.483605 -151.751015 0 120 255
43.824055 -227.432951 -153.651237 0 120 255
42.240320 -227.382298 -155.551459 0 120 255
40.656585 -227.331644 -157.451681 0 120 255
39.140782 -227.283655 -159.403512 0 120 255
37.737053 -227.240061 -161.440488 0 120 255
36.333325 -227.196467 -163.477465 0 120 255
34.929596 -227.152873 -165.514441 0 120 255
33.589695 -227.111756 -167.591306 0 120 255
32.376210 -227.075543 -169.747175 0 120 255
31.162726 -227.039330 -171.903043 0 120 255
29.949241 -227.003117 -174.058912 0 120 255
28.794209 -226.969144 -176.244328 0 120 255
27.779777 -226.940558 -178.500816 0 120 255
26.765345 -226.911972 -180.757304 0 120 255
25.750913 -226.883386 -183.013791 0 120 255
24.788475 -226.856771 -185.290922 0 120 255
23.980484 -226.836012 -187.629371 0 120 255
23.172493 -226.815253 -189.967821 0 120 255
22.364502 -226.794493 -192.306270 0 120 255
21.601105 -226.775408 -194.657938 0 120 255
21.005372 -226.762617 -197.059306 0 120 255
20.409639 -226.749826 -199.460673 0 120 255
19.813906 -226.737034 -201.862040 0 120 255
19.254614 -226.725599 -204.270744 0 120 255
18.875329 -226.720860 -206.715687 0 120 255
18.496045 -226.716122 -209.160631 0 120 255
18.116761 -226.711383 -211.605574 0 120 255
17.765191 -226.707665 -214.053562 0 120 255
17.604717 -226.710985 -216.522542 0 120 255
17.444243 -226.714305 -218.991522 0 120 255
17.283769 -226.717626 -221.460502 0 120 255
17.141933 -226.721625 -223.929864 0 120 255
17.200781 -226.732935 -226.403330 0 120 255
17.259628 -226.744245 -228.876796 0 120 255
17.318476 -226.755555 -231.350263 0 120 255
17.386762 -226.767206 -233.823085 0 120 255
17.663445 -226.786372 -236.281683 0 120 255
17.940129 -226.805539 -238.740281 0 120 255
18.216812 -226.824706 -241.198880 0 120 255
18.493860 -226.843886 -243.657421 0 120 255
18.985007 -226.870734 -246.082226 0 120 255
19.476154 -226.897583 -248.507031 0 120 255
19.967300 -226.924432 -250.931836 0 120 255
20.458447 -226.951280 -253.356641 0 120 255
21.150390 -226.985246 -255.731490 0 120 255
21.850679 -227.019507 -258.104262 0 120 255
22.550967 -227.053769 -260.477035 0 120 255
23.251255 -227.088031 -262.849807 0 120 255
24.137099 -227.128841 -265.158881 0 120 255
25.039409 -227.170232 -267.462303 0 120 255
25.941718 -227.211623 -269.765724 0 120 255
26.844027 -227.253014 -272.069146 0 120 255
27.915743 -227.300281 -274.297597 0 120 255
29.011238 -227.348372 -276.515525 0 120 255
30.106734 -227.396463 -278.733453 0 120 255
31.202229 -227.444554 -280.951381 0 120 255
32.450436 -227.497884 -283.085573 0 120 255
33.728750 -227.552246 -285.203257 0 120 255
35.007064 -227.606608 -287.320941 0 120 255
36.285378 -227.660970 -289.438625 0 120 255
37.699430 -227.719956 -291.466359 0 120 255
39.148755 -227.780143 -293.470719 0 120 255
40.598080 -227.840331 -295.475080 0 120 255
42.047404 -227.900518 -297.479441 0 120 255
43.615592 -227.964670 -299.390134 0 120 255
45.222949 -228.030128 -301.269959 0 120 255
46.830306 -228.095585 -303.149785 0 120 255
48.437663 -228.161043 -305.029611 0 120 255
50.147405 -228.229879 -306.814469 0 120 255
51.898862 -228.300091 -308.560635 0 120 255
53.650319 -228.370304 -310.306802 0 120 255
55.401776 -228.440516 -312.052968 0 120 255
57.239933 -228.513590 -313.705044 0 120 255
59.121013 -228.588081 -315.310539 0 120 255
61.002093 -228.662571 -316.916035 0 120 255
62.883173 -228.737062 -318.521530 0 120 255
64.836281 -228.813973 -320.035811 0 120 255
66.832201 -228.892322 -321.495876 0 120 255
68.828122 -228.970672 -322.955941 0 120 255
70.824042 -229.049021 -324.416006 0 120 255
72.878547 -229.129454 -325.789478 0 120 255
74.974526 -229.211361 -327.101649 0 120 255
77.070504 -229.293268 -328.413820 0 120 255
79.166482 -229.375176 -329.725991 0 120 255
81.308879 -229.457901 -330.957946 0 120 255
83.490221 -229.541312 -332.122599 0 120 255
85.671563 -229.624724 -333.287251 0 120 255
87.852905 -229.708135 -334.451904 0 120 255
90.069548 -229.787055 -335.545341 0 120 255
92.321210 -229.861519 -336.568131 0 120 255
94.572872 -229.935983 -337.590921 0 120 255
96.824534 -230.010447 -338.613711 0 120 255
99.102163 -230.075196 -339.575241 0 120 255
101.410247 -230.128552 -340.464919 0 120 255
103.718331 -230.181908 -341.354597 0 120 255
106.026415 -230.235263 -342.244275 0 120 255
108.352984 -230.275549 -343.082545 0 120 255
110.705247 -230.297667 -343.849353 0 120 255
113.057510 -230.319785 -344.616162 0 120 255
115.409773 -230.341904 -345.382971 0 120 255
117.774664 -230.349549 -346.107764 0 120 255
120.160462 -230.333234 -346.762996 0 120 255
122.546260 -230.316919 -347.418227 0 120 255
124.932058 -230.300604 -348.073458 0 120 255
127.326040 -230.269889 -348.695377 0 120 255
129.736290 -230.210549 -349.251072 0 120 255
132.146541 -230.151209 -349.806767 0 120 255
134.556792 -230.091869 -350.362462 0 120 255
136.971987 -230.019386 -350.892709 0 120 255
139.399128 -229.915159 -351.361486 0 120 255
141.826268 -229.810932 -351.830264 0 120 255
144.253409 -229.706705 -352.299042 0 120 255
146.683274 -229.591427 -352.749235 0 120 255
149.121276 -229.443148 -353.143934 0 120 255
151.559278 -229.294870 -353.538632 0 120 255
153.997280 -229.146591 -353.933330 0 120 255
156.436601 -228.989840 -354.315259 0 120 255
158.880920 -228.801007 -354.648839 0 120 255
161.325239 -228.612175 -354.982418 0 120 255
163.769557 -228.423343 -355.315997 0 120 255
166.214393 -228.229016 -355.641868 0 120 255
168.661811 -228.007275 -355.929280 0 120 255
171.109228 -227.785535 -356.216692 0 120 255
173.556645 -227.563795 -356.504104 0 120 255
176.004033 -227.340842 -356.790810 0 120 255
178.451209 -227.109408 -357.072577 0 120 255
180.898385 -226.877974 -357.354345 0 120 255
183.345562 -226.646540 -357.636113 0 120 255
185.792738 -226.415105 -357.917881 0 120 255
188.239912 -226.183660 -358.199661 0 120 255
190.687085 -225.952215 -358.481441 0 120 255
193.134259 -225.720769 -358.763221 0 120 255
195.581433 -225.489324 -359.045001 0 120 255
198.028608 -225.257883 -359.326773 0 120 255
200.475783 -225.026442 -359.608546 0 120 255
202.922958 -224.795001 -359.890318 0 120 255
205.370133 -224.563560 -360.172091 0 120 255
