ply
format ascii 1.0
element vertex 385
property float x
property float y
property float z
property uchar red
property uchar green
property uchar blue
end_header
77.430455 -42.474882 -360.397637 0 120 255
77.187557 -42.528710 -357.935978 0 120 255
76.944659 -42.582539 -355.474320 0 120 255
76.701761 -42.636367 -353.012662 0 120 255
76.458862 -42.690196 -350.551004 0 120 255
76.213802 -42.754125 -348.089802 0 120 255
75.968648 -42.818494 -345.628621 0 120 255
75.723493 -42.882863 -343.167439 0 120 255
75.478339 -42.947232 -340.706258 0 120 255
75.067991 -43.388155 -338.309789 0 120 255
74.642582 -43.863408 -335.919220 0 120 255
74.217172 -44.338661 -333.528651 0 120 255
73.791763 -44.813914 -331.138082 0 120 255
73.237500 -45.555169 -328.846662 0 120 255
72.664166 -46.335795 -326.569916 0 120 255
72.090832 -47.116420 -324.293171 0 120 255
71.517498 -47.897045 -322.016425 0 120 255
70.852221 -48.863320 -319.840607 0 120 255
70.167565 -49.868723 -317.686061 0 120 255
69.482909 -50.874125 -315.531514 0 120 255
68.798254 -51.879527 -313.376967 0 120 255
68.057846 -53.014558 -311.308758 0 120 255
67.301815 -54.185912 -309.264741 0 120 255
66.545784 -55.357267 -307.220724 0 120 255
65.789753 -56.528621 -305.176707 0 120 255
65.011061 -57.795265 -303.200388 0 120 255
64.224264 -59.095989 -301.248280 0 120 255
63.437468 -60.396714 -299.296172 0 120 255
62.650671 -61.697438 -297.344063 0 120 255
61.869535 -63.075305 -295.444303 0 120 255
61.090916 -64.487466 -293.567814 0 120 255
60.312297 -65.899627 -291.691325 0 120 255
59.533678 -67.311789 -289.814836 0 120 255
58.783234 -68.793160 -287.981813 0 120 255
58.048089 -70.312114 -286.172394 0 120 255
57.312944 -71.831068 -284.362974 0 120 255
56.577800 -73.350023 -282.553555 0 120 255
55.887151 -74.935277 -280.785411 0 120 255
55.225677 -76.564002 -279.044329 0 120 255
54.564204 -78.192727 -277.303248 0 120 255
53.902730 -79.821452 -275.562166 0 120 255
53.296105 -81.514786 -273.865375 0 120 255
52.732588 -83.258898 -272.203395 0 120 255
52.169070 -85.003010 -270.541414 0 120 255
51.605553 -86.747122 -268.879433 0 120 255
51.102019 -88.552997 -267.267726 0 120 255
50.654768 -90.416826 -265.703192 0 120 255
50.207516 -92.280654 -264.138657 0 120 255
49.760265 -94.144483 -262.574123 0 120 255
49.373977 -96.064973 -261.066551 0 120 255
49.055902 -98.048865 -259.622715 0 120 255
48.737827 -100.032756 -258.178879 0 120 255
48.419752 -102.016647 -256.735043 0 120 255
48.160628 -104.049717 -255.353724 0 120 255
47.980285 -106.148506 -254.055950 0 120 255
47.799942 -108.247296 -252.758176 0 120 255
47.619599 -110.346086 -251.460403 0 120 255
47.494312 -112.484667 -250.228279 0 120 255
47.457274 -114.687028 -249.101385 0 120 255
47.420236 -116.889389 -247.974491 0 120 255
47.383198 -119.091751 -246.847596 0 120 255
47.396299 -121.323443 -245.786399 0 120 255
47.506517 -123.611948 -244.852453 0 120 255
47.616736 -125.900453 -243.918507 0 120 255
47.726954 -128.188958 -242.984561 0 120 255
47.881973 -130.496204 -242.113118 0 120 255
48.143063 -132.847819 -241.389657 0 120 255
48.404153 -135.199434 -240.666195 0 120 255
48.665244 -137.551049 -239.942734 0 120 255
48.965668 -139.911598 -239.275582 0 120 255
49.381859 -142.298442 -238.774163 0 120 255
49.798050 -144.685285 -238.272744 0 120 255
50.214242 -147.072129 -237.771324 0 120 255
50.664223 -149.459697 -237.317586 0 120 255
51.240953 -151.849986 -237.042701 0 120 255
51.817683 -154.240274 -236.767815 0 120 255
52.394413 -156.630562 -236.492930 0 120 255
52.999186 -159.015624 -236.255429 0 120 255
53.743229 -161.374728 -236.203593 0 120 255
54.487271 -163.733832 -236.151758 0 120 255
55.231314 -166.092936 -236.099923 0 120 255
55.997241 -168.443606 -236.074447 0 120 255
56.916372 -170.735235 -236.233495 0 120 255
57.835502 -173.026863 -236.392542 0 120 255
58.754633 -175.318492 -236.551589 0 120 255
59.688896 -177.601516 -236.726303 0 120 255
60.791086 -179.789058 -237.074864 0 120 255
61.893276 -181.976601 -237.423425 0 120 255
62.995465 -184.164143 -237.771986 0 120 255
64.105375 -186.346018 -238.126998 0 120 255
65.397583 -188.394054 -238.634347 0 120 255
66.689791 -190.442091 -239.141695 0 120 255
67.981999 -192.490127 -239.649044 0 120 255
69.274207 -194.538164 -240.156392 0 120 255
70.760619 -196.414380 -240.782457 0 120 255
72.247253 -198.290401 -241.408658 0 120 255
73.733886 -200.166421 -242.034858 0 120 255
75.220519 -202.042442 -242.661059 0 120 255
76.893450 -203.727182 -243.354767 0 120 255
78.574677 -205.403405 -244.051482 0 120 255
80.255905 -207.079627 -244.748197 0 120 255
81.937132 -208.755849 -245.444912 0 120 255
83.791305 -210.229698 -246.155520 0 120 255
85.661315 -211.685015 -246.867399 0 120 255
87.531325 -213.140333 -247.579279 0 120 255
89.401335 -214.595650 -248.291159 0 120 255
91.424962 -215.846528 -248.963722 0 120 255
93.470518 -217.068221 -249.630672 0 120 255
95.516075 -218.289914 -250.297623 0 120 255
97.561632 -219.511606 -250.964573 0 120 255
99.735511 -220.536067 -251.542333 0 120 255
101.934890 -221.521332 -252.102370 0 120 255
104.134270 -222.506597 -252.662406 0 120 255
106.333649 -223.491862 -253.222442 0 120 255
108.630844 -224.295808 -253.649755 0 120 255
110.953493 -225.052571 -254.042529 0 120 255
113.276141 -225.809333 -254.435303 0 120 255
115.598790 -226.566096 -254.828077 0 120 255
117.984882 -227.165023 -255.053510 0 120 255
120.391798 -227.712146 -255.224017 0 120 255
122.798713 -228.259268 -255.394524 0 120 255
125.205629 -228.806390 -255.565031 0 120 255
127.639639 -229.224846 -255.544481 0 120 255
130.084592 -229.591333 -255.446762 0 120 255
132.529546 -229.957820 -255.349044 0 120 255
134.974499 -230.324307 -255.251326 0 120 255
137.410387 -230.594647 -254.950739 0 120 255
139.841846 -230.818003 -254.551016 0 120 255
142.273305 -231.041358 -254.151293 0 120 255
144.704764 -231.264714 -253.751570 0 120 255
147.093323 -231.426124 -253.149042 0 120 255
149.456812 -231.551335 -252.428003 0 120 255
151.820302 -231.676546 -251.706963 0 120 255
154.183791 -231.801757 -250.985923 0 120 255
156.475091 -231.897386 -250.073350 0 120 255
158.716315 -231.972497 -249.027917 0 120 255
160.957540 -232.047607 -247.982485 0 120 255
163.198764 -232.122717 -246.937052 0 120 255
165.343492 -232.181698 -245.718123 0 120 255
167.409089 -232.227450 -244.356919 0 120 255
169.474685 -232.273203 -242.995715 0 120 255
171.540281 -232.318956 -241.634511 0 120 255
173.489972 -232.353921 -240.123142 0 120 255
175.327583 -232.378455 -238.466567 0 120 255
177.165195 -232.402988 -236.809993 0 120 255
179.002807 -232.427521 -235.153418 0 120 255
180.711497 -232.445433 -233.374210 0 120 255
182.273255 -232.455797 -231.455235 0 120 255
183.835012 -232.466161 -229.536260 0 120 255
185.396770 -232.476525 -227.617285 0 120 255
186.823677 -232.483661 -225.604990 0 120 255
188.069074 -232.486453 -223.467086 0 120 255
189.314472 -232.489245 -221.329181 0 120 255
190.559869 -232.492036 -219.191277 0 120 255
191.671454 -232.493561 -216.988827 0 120 255
192.569343 -232.493064 -214.683300 0 120 255
193.467231 -232.492566 -212.377774 0 120 255
194.365120 -232.492069 -210.072247 0 120 255
195.136492 -232.491170 -207.728468 0 120 255
195.666379 -232.489506 -205.311678 0 120 255
196.196267 -232.487842 -202.894888 0 120 255
196.726155 -232.486178 -200.478098 0 120 255
197.141914 -232.484252 -198.045369 0 120 255
197.294412 -232.481720 -195.575876 0 120 255
197.446910 -232.479189 -193.106383 0 120 255
197.599409 -232.476657 -190.636890 0 120 255
197.653817 -232.473600 -188.168808 0 120 255
197.430409 -232.469053 -185.704720 0 120 255
197.207001 -232.464506 -183.240633 0 120 255
196.983592 -232.459959 -180.776546 0 120 255
196.680238 -232.454515 -178.325786 0 120 255
196.092383 -232.445879 -175.922452 0 120 255
195.504527 -232.437243 -173.519119 0 120 255
194.916672 -232.428607 -171.115786 0 120 255
194.267632 -232.418794 -168.732267 0 120 255
193.335469 -232.403537 -166.440435 0 120 255
192.403305 -232.388279 -164.148602 0 120 255
191.471141 -232.373022 -161.856770 0 120 255
190.495873 -232.356522 -159.586186 0 120 255
189.246638 -232.332121 -157.450659 0 120 255
187.997403 -232.307720 -155.315132 0 120 255
186.748168 -232.283318 -153.179605 0 120 255
185.472164 -232.257860 -151.062368 0 120 255
183.938477 -232.222221 -149.121185 0 120 255
182.404789 -232.186582 -147.180002 0 120 255
180.871102 -232.150942 -145.238820 0 120 255
179.324470 -232.114648 -143.309387 0 120 255
177.542655 -232.066439 -141.593441 0 120 255
175.760841 -232.018230 -139.877494 0 120 255
173.979026 -231.970022 -138.161548 0 120 255
172.195078 -231.921682 -136.448136 0 120 255
170.203588 -231.860574 -134.981204 0 120 255
168.212097 -231.799467 -133.514273 0 120 255
166.220606 -231.738359 -132.047341 0 120 255
164.229115 -231.677251 -130.580409 0 120 255
162.072592 -231.604490 -129.370994 0 120 255
159.910632 -231.531345 -128.170062 0 120 255
157.748672 -231.458200 -126.969130 0 120 255
155.586713 -231.385054 -125.768197 0 120 255
153.302841 -231.302731 -124.823545 0 120 255
151.009225 -231.219674 -123.899378 0 120 255
148.715608 -231.136616 -122.975212 0 120 255
146.421992 -231.053559 -122.051046 0 120 255
144.045191 -230.965003 -121.376100 0 120 255
141.657452 -230.875723 -120.733922 0 120 255
139.269714 -230.786443 -120.091744 0 120 255
136.881975 -230.697163 -119.449567 0 120 255
134.445009 -230.606702 -119.045123 0 120 255
131.998776 -230.516018 -118.685428 0 120 255
129.552543 -230.425335 -118.325734 0 120 255
127.106311 -230.334652 -117.966039 0 120 255
124.640092 -230.244222 -117.829448 0 120 255
122.168859 -230.153855 -117.748839 0 120 255
119.697626 -230.063489 -117.668229 0 120 255
117.226392 -229.973123 -117.587620 0 120 255
114.759758 -229.883737 -117.713139 0 120 255
112.294598 -229.794665 -117.904741 0 120 255
109.829438 -229.705594 -118.096343 0 120 255
107.364278 -229.616522 -118.287945 0 120 255
104.923829 -229.529056 -118.667314 0 120 255
102.493225 -229.442230 -119.121500 0 120 255
100.062621 -229.355404 -119.575686 0 120 255
97.632017 -229.268577 -120.029872 0 120 255
95.242108 -229.183848 -120.652890 0 120 255
92.871977 -229.100139 -121.357966 0 120 255
90.501847 -229.016429 -122.063043 0 120 255
88.131717 -228.932720 -122.768120 0 120 255
85.814514 -228.851479 -123.623017 0 120 255
83.528289 -228.771683 -124.565602 0 120 255
81.242064 -228.691887 -125.508186 0 120 255
78.955839 -228.612090 -126.450771 0 120 255
76.731436 -228.535030 -127.524572 0 120 255
74.550227 -228.459881 -128.690049 0 120 255
72.369018 -228.384732 -129.855526 0 120 255
70.187809 -228.309582 -131.021004 0 120 255
68.074385 -228.237320 -132.299832 0 120 255
66.017186 -228.167452 -133.672678 0 120 255
63.959986 -228.097584 -135.045525 0 120 255
61.902787 -228.027716 -136.418371 0 120 255
59.916761 -227.960800 -137.887647 0 120 255
58.000620 -227.896782 -139.451604 0 120 255
56.084479 -227.832764 -141.015562 0 120 255
54.168338 -227.768745 -142.579519 0 120 255
52.324506 -227.707665 -144.224079 0 120 255
50.564689 -227.649997 -145.962290 0 120 255
48.804873 -227.592329 -147.700502 0 120 255
47.045056 -227.534662 -149.438713 0 120 255
45.356732 -227.479843 -151.242920 0 120 255
43.766898 -227.428948 -153.138044 0 120 255
42.177064 -227.378053 -155.033168 0 120 255
40.587230 -227.327159 -156.928293 0 120 255
39.066318 -227.278971 -158.876063 0 120 255
37.658505 -227.235225 -160.910223 0 120 255
36.250692 -227.191479 -162.944383 0 120 255
34.842879 -227.147733 -164.978543 0 120 255
33.499899 -227.106502 -167.053348 0 120 255
32.284610 -227.070224 -169.208206 0 120 255
31.069320 -227.033945 -171.363065 0 120 255
29.854031 -226.997666 -173.517923 0 120 255
28.698168 -226.963661 -175.702841 0 120 255
27.684404 -226.935093 -177.959636 0 120 255
26.670639 -226.906525 -180.216431 0 120 255
25.656874 -226.877957 -182.473225 0 120 255
24.695963 -226.851395 -184.750955 0 120 255
23.891056 -226.830752 -187.090476 0 120 255
23.086149 -226.810109 -189.429996 0 120 255
22.281243 -226.789466 -191.769517 0 120 255
21.521643 -226.770524 -194.122381 0 120 255
20.931186 -226.757930 -196.525059 0 120 255
20.340729 -226.745336 -198.927737 0 120 255
19.750273 -226.732742 -201.330414 0 120 255
19.196814 -226.721524 -203.740443 0 120 255
18.824620 -226.717048 -206.186482 0 120 255
18.452426 -226.712571 -208.632522 0 120 255
18.080232 -226.708095 -211.078561 0 120 255
17.736172 -226.704653 -213.527602 0 120 255
17.584137 -226.708268 -215.997122 0 120 255
17.432101 -226.711883 -218.466642 0 120 255
17.280066 -226.715498 -220.936163 0 120 255
17.146980 -226.719802 -223.406003 0 120 255
17.215035 -226.731432 -225.879238 0 120 255
17.283091 -226.743063 -228.352473 0 120 255
17.351146 -226.754693 -230.825708 0 120 255
17.428887 -226.766672 -233.298245 0 120 255
17.715010 -226.786175 -235.755766 0 120 255
18.001132 -226.805678 -238.213288 0 120 255
18.287255 -226.825181 -240.670809 0 120 255
18.573968 -226.844705 -243.128235 0 120 255
19.074259 -226.871869 -245.551174 0 120 255
19.574549 -226.899033 -247.974112 0 120 255
20.074840 -226.926197 -250.397050 0 120 255
20.575131 -226.953361 -252.819988 0 120 255
21.275683 -226.987645 -255.192325 0 120 255
21.984337 -227.022217 -257.562615 0 120 255
22.692991 -227.056788 -259.932904 0 120 255
23.401645 -227.091360 -262.303194 0 120 255
24.294937 -227.132416 -264.609415 0 120 255
25.204395 -227.174038 -266.910026 0 120 255
26.113853 -227.215661 -269.210637 0 120 255
27.023311 -227.257284 -271.511248 0 120 255
28.100969 -227.304748 -273.736857 0 120 255
29.202029 -227.353024 -275.952031 0 120 255
30.303088 -227.401300 -278.167205 0 120 255
31.404148 -227.449577 -280.382379 0 120 255
32.656510 -227.503050 -282.514171 0 120 255
33.938502 -227.557542 -284.629634 0 120 255
35.220495 -227.612034 -286.745097 0 120 255
36.502487 -227.666525 -288.860560 0 120 255
37.918732 -227.725580 -290.886812 0 120 255
39.369684 -227.785815 -292.890002 0 120 255
40.820636 -227.846051 -294.893192 0 120 255
42.271588 -227.906286 -296.896382 0 120 255
43.840004 -227.970446 -298.806948 0 120 255
45.446966 -228.035894 -300.687120 0 120 255
47.053928 -228.101343 -302.567293 0 120 255
48.660890 -228.166791 -304.447465 0 120 255
50.369000 -228.235577 -306.233961 0 120 255
52.118173 -228.305718 -307.982426 0 120 255
53.867346 -228.375860 -309.730892 0 120 255
55.616519 -228.446001 -311.479358 0 120 255
57.451368 -228.518975 -313.135196 0 120 255
59.328502 -228.593346 -314.745319 0 120 255
61.205635 -228.667718 -316.355442 0 120 255
63.082769 -228.742089 -317.965565 0 120 255
65.031201 -228.818892 -319.485954 0 120 255
67.021897 -228.897137 -320.953150 0 120 255
69.012593 -228.975381 -322.420347 0 120 255
71.003289 -229.053626 -323.887543 0 120 255
73.052143 -229.133917 -325.269531 0 120 255
75.142070 -229.215655 -326.591342 0 120 255
77.231997 -229.297392 -327.913152 0 120 255
79.321924 -229.379130 -329.234963 0 120 255
81.458088 -229.461544 -330.477806 0 120 255
83.632961 -229.544524 -331.654538 0 120 255
85.807835 -229.627505 -332.831270 0 120 255
87.982708 -229.710486 -334.008002 0 120 255
90.192867 -229.788558 -335.114635 0 120 255
92.437963 -229.861770 -336.151865 0 120 255
94.683058 -229.934983 -337.189094 0 120 255
96.928153 -230.008195 -338.226323 0 120 255
99.199394 -230.071524 -339.203004 0 120 255
101.501248 -230.123282 -340.108790 0 120 255
103.803102 -230.175039 -341.014575 0 120 255
106.104957 -230.226797 -341.920360 0 120 255
108.425594 -230.265643 -342.775018 0 120 255
110.772304 -230.286567 -343.558711 0 120 255
113.119013 -230.307492 -344.342404 0 120 255
115.465723 -230.328416 -345.126097 0 120 255
117.825413 -230.335136 -345.867671 0 120 255
120.206566 -230.318368 -346.539600 0 120 255
122.587718 -230.301600 -347.211529 0 120 255
124.968871 -230.284832 -347.883458 0 120 255
127.358559 -230.253937 -348.521656 0 120 255
129.765193 -230.194990 -349.092877 0 120 255
132.171828 -230.136042 -349.664097 0 120 255
134.578463 -230.077095 -350.235317 0 120 255
136.990360 -230.005200 -350.780408 0 120 255
139.414955 -229.902061 -351.262446 0 120 255
141.839549 -229.798923 -351.744485 0 120 255
144.264144 -229.695784 -352.226523 0 120 255
146.691718 -229.581667 -352.689133 0 120 255
149.128181 -229.434794 -353.093772 0 120 255
151.564645 -229.287920 -353.498411 0 120 255
154.001108 -229.141046 -353.903049 0 120 255
156.439074 -228.985636 -354.293993 0 120 255
158.882723 -228.797915 -354.633104 0 120 255
161.326373 -228.610194 -354.972215 0 120 255
163.770022 -228.422473 -355.311325 0 120 255
166.214301 -228.229070 -355.641807 0 120 255
168.661723 -228.007318 -355.929232 0 120 255
171.109144 -227.785565 -356.216658 0 120 255
173.556565 -227.563813 -356.504083 0 120 255
176.003956 -227.340849 -356.790801 0 120 255
178.451139 -227.109414 -357.072569 0 120 255
180.898322 -226.877980 -357.354338 0 120 255
183.345504 -226.646545 -357.636106 0 120 255
185.792687 -226.415110 -357.917875 0 120 255
188.239867 -226.183664 -358.199656 0 120 255
190.687047 -225.952218 -358.481437 0 120 255
193.134227 -225.720772 -358.763217 0 120 255
195.581408 -225.489327 -359.044998 0 120 255
198.028589 -225.257885 -359.326771 0 120 255
200.475770 -225.026444 -359.608544 0 120 255
202.922952 -224.795002 -359.890318 0 120 255
205.370133 -224.563560 -360.172091 0 120 255
