ply
format ascii 1.0
element vertex 385
property float x
property float y
property float z
property uchar red
property uchar green
property uchar blue
end_header
77.430455 -42.474882 -360.397637 0 120 255
77.187563 -42.528709 -357.936034 0 120 255
76.944670 -42.582536 -355.474432 0 120 255
76.701777 -42.636364 -353.012830 0 120 255
76.458885 -42.690191 -350.551227 0 120 255
76.213606 -42.753572 -348.090090 0 120 255
75.968223 -42.817370 -345.628973 0 120 255
75.722840 -42.881168 -343.167855 0 120 255
75.477458 -42.944965 -340.706738 0 120 255
75.075812 -43.370506 -338.305811 0 120 255
74.659881 -43.829118 -335.910387 0 120 255
74.243950 -44.287729 -333.514963 0 120 255
73.828018 -44.746340 -331.119539 0 120 255
73.294234 -45.463229 -328.815336 0 120 255
72.742988 -46.218386 -326.524649 0 120 255
72.191743 -46.973543 -324.233962 0 120 255
71.640497 -47.728700 -321.943275 0 120 255
71.008602 -48.669197 -319.746210 0 120 255
70.359710 -49.648757 -317.568876 0 120 255
69.710817 -50.628318 -315.391543 0 120 255
69.061924 -51.607879 -313.214210 0 120 255
68.367262 -52.722803 -311.119422 0 120 255
67.659775 -53.875655 -309.047762 0 120 255
66.952288 -55.028507 -306.976102 0 120 255
66.244801 -56.181359 -304.904442 0 120 255
65.522008 -57.438863 -302.901458 0 120 255
64.793741 -58.733794 -300.923033 0 120 255
64.065475 -60.028724 -298.944609 0 120 255
63.337208 -61.323655 -296.966185 0 120 255
62.618547 -62.706204 -295.045632 0 120 255
61.904158 -64.127713 -293.150813 0 120 255
61.189769 -65.549222 -291.255993 0 120 255
60.475380 -66.970731 -289.361174 0 120 255
59.789517 -68.471017 -287.518672 0 120 255
59.119152 -70.014105 -285.704596 0 120 255
58.448788 -71.557193 -283.890521 0 120 255
57.778423 -73.100282 -282.076445 0 120 255
57.149698 -74.717065 -280.314164 0 120 255
56.548299 -76.382214 -278.585876 0 120 255
55.946900 -78.047362 -276.857588 0 120 255
55.345502 -79.712511 -275.129299 0 120 255
54.793711 -81.446984 -273.455852 0 120 255
54.280955 -83.236007 -271.825558 0 120 255
53.768199 -85.025029 -270.195264 0 120 255
53.255443 -86.814052 -268.564969 0 120 255
52.796057 -88.666986 -266.994259 0 120 255
52.386814 -90.579969 -265.479532 0 120 255
51.977571 -92.492951 -263.964804 0 120 255
51.568329 -94.405933 -262.450077 0 120 255
51.213087 -96.375670 -260.999624 0 120 255
50.918350 -98.408998 -259.621187 0 120 255
50.623612 -100.442326 -258.242750 0 120 255
50.328875 -102.475654 -256.864313 0 120 255
50.086642 -104.556856 -255.553419 0 120 255
49.914662 -106.702114 -254.332899 0 120 255
49.742681 -108.847373 -253.112379 0 120 255
49.570700 -110.992632 -251.891860 0 120 255
49.448449 -113.175646 -250.739864 0 120 255
49.405995 -115.419241 -249.697819 0 120 255
49.363540 -117.662837 -248.655775 0 120 255
49.321086 -119.906433 -247.613731 0 120 255
49.324898 -122.177116 -246.638461 0 120 255
49.418390 -124.500302 -245.792620 0 120 255
49.511883 -126.823488 -244.946780 0 120 255
49.605375 -129.146674 -244.100939 0 120 255
49.741314 -131.486504 -243.317361 0 120 255
49.977764 -133.865746 -242.681220 0 120 255
50.214215 -136.244989 -242.045078 0 120 255
50.450666 -138.624232 -241.408937 0 120 255
50.725461 -141.010646 -240.828038 0 120 255
51.113049 -143.418155 -240.409643 0 120 255
51.500636 -145.825664 -239.991247 0 120 255
51.888224 -148.233174 -239.572851 0 120 255
52.309676 -150.640027 -239.200663 0 120 255
52.857956 -153.044421 -239.001525 0 120 255
53.406235 -155.448816 -238.802387 0 120 255
53.954515 -157.853211 -238.603250 0 120 255
54.531590 -160.251344 -238.439954 0 120 255
55.251233 -162.618471 -238.454121 0 120 255
55.970876 -164.985599 -238.468287 0 120 255
56.690519 -167.352727 -238.482454 0 120 255
57.433084 -169.710659 -238.521628 0 120 255
58.335215 -172.004577 -238.734883 0 120 255
59.237346 -174.298496 -238.948138 0 120 255
60.139478 -176.592414 -239.161393 0 120 255
61.057710 -178.877177 -239.389332 0 120 255
62.152736 -181.061404 -239.778496 0 120 255
63.247762 -183.245632 -240.167660 0 120 255
64.342788 -185.429859 -240.556825 0 120 255
65.446184 -187.608043 -240.951963 0 120 255
66.742354 -189.647043 -241.484695 0 120 255
68.038524 -191.686043 -242.017426 0 120 255
69.334694 -193.725043 -242.550157 0 120 255
70.630871 -195.764037 -243.082892 0 120 255
72.132499 -197.625061 -243.717781 0 120 255
73.634127 -199.486085 -244.352670 0 120 255
75.135754 -201.347109 -244.987559 0 120 255
76.637382 -203.208133 -245.622448 0 120 255
78.334661 -204.871716 -246.307779 0 120 255
80.040366 -206.526796 -246.995283 0 120 255
81.746072 -208.181875 -247.682786 0 120 255
83.451778 -209.836954 -248.370290 0 120 255
85.336725 -211.283779 -249.054595 0 120 255
87.237767 -212.711903 -249.738612 0 120 255
89.138809 -214.140028 -250.422629 0 120 255
91.039851 -215.568153 -251.106647 0 120 255
93.096974 -216.786720 -251.734882 0 120 255
95.176049 -217.975814 -252.355271 0 120 255
97.255124 -219.164907 -252.975661 0 120 255
99.334200 -220.354001 -253.596051 0 120 255
101.539972 -221.342048 -254.112285 0 120 255
103.770611 -222.290636 -254.608077 0 120 255
106.001251 -223.239223 -255.103869 0 120 255
108.231891 -224.187810 -255.599661 0 120 255
110.554943 -224.953109 -255.950149 0 120 255
112.901787 -225.671222 -256.263229 0 120 255
115.248630 -226.389334 -256.576309 0 120 255
117.595474 -227.107447 -256.889389 0 120 255
119.997432 -227.667943 -257.025827 0 120 255
122.417309 -228.177192 -257.104832 0 120 255
124.837186 -228.686440 -257.183836 0 120 255
127.257063 -229.195689 -257.262840 0 120 255
129.694038 -229.578793 -257.145336 0 120 255
132.137861 -229.911375 -256.949130 0 120 255
134.581685 -230.243957 -256.752923 0 120 255
137.025508 -230.576539 -256.556717 0 120 255
139.450058 -230.817652 -256.156295 0 120 255
141.865260 -231.014401 -255.656825 0 120 255
144.280461 -231.211150 -255.157354 0 120 255
146.695663 -231.407899 -254.657884 0 120 255
149.058965 -231.549521 -253.958219 0 120 255
151.392139 -231.659141 -253.142335 0 120 255
153.725312 -231.768760 -252.326451 0 120 255
156.058485 -231.878380 -251.510567 0 120 255
158.312907 -231.966252 -250.509124 0 120 255
160.513012 -232.039124 -249.379695 0 120 255
162.713116 -232.111996 -248.250266 0 120 255
164.913220 -232.184868 -247.120836 0 120 255
167.012403 -232.246107 -245.824703 0 120 255
169.029234 -232.297853 -244.392537 0 120 255
171.046064 -232.349599 -242.960372 0 120 255
173.062895 -232.401345 -241.528207 0 120 255
174.961222 -232.444637 -239.952622 0 120 255
176.745446 -232.479789 -238.238945 0 120 255
178.529670 -232.514941 -236.525268 0 120 255
180.313894 -232.550092 -234.811591 0 120 255
181.968204 -232.579734 -232.981517 0 120 255
183.474967 -232.603119 -231.019248 0 120 255
184.981729 -232.626503 -229.056979 0 120 255
186.488492 -232.649887 -227.094710 0 120 255
187.860632 -232.670062 -225.044471 0 120 255
189.052081 -232.685930 -222.876159 0 120 255
190.243531 -232.701798 -220.707847 0 120 255
191.434980 -232.717665 -218.539535 0 120 255
192.493638 -232.731535 -216.310961 0 120 255
193.340714 -232.742221 -213.986369 0 120 255
194.187791 -232.752908 -211.661777 0 120 255
195.034867 -232.763594 -209.337185 0 120 255
195.756846 -232.772728 -206.977549 0 120 255
196.240467 -232.778902 -204.551142 0 120 255
196.724088 -232.785076 -202.124734 0 120 255
197.207709 -232.791251 -199.698327 0 120 255
197.578696 -232.795865 -197.258231 0 120 255
197.690231 -232.796888 -194.786604 0 120 255
197.801766 -232.797910 -192.314977 0 120 255
197.913301 -232.798932 -189.843351 0 120 255
197.928097 -232.798208 -187.374616 0 120 255
197.669193 -232.792543 -184.914064 0 120 255
197.410289 -232.786878 -182.453511 0 120 255
197.151385 -232.781213 -179.992959 0 120 255
196.813623 -232.773655 -177.546657 0 120 255
196.195475 -232.759365 -175.151022 0 120 255
195.577327 -232.745075 -172.755386 0 120 255
194.959179 -232.730784 -170.359751 0 120 255
194.280645 -232.714613 -167.984479 0 120 255
193.322858 -232.689740 -165.703382 0 120 255
192.365071 -232.664867 -163.422285 0 120 255
191.407284 -232.639995 -161.141187 0 120 255
190.406922 -232.613475 -158.881660 0 120 255
189.136073 -232.576488 -156.759171 0 120 255
187.865225 -232.539502 -154.636683 0 120 255
186.594376 -232.502515 -152.514195 0 120 255
185.297073 -232.464313 -150.410177 0 120 255
183.745143 -232.414415 -148.483936 0 120 255
182.193213 -232.364517 -146.557695 0 120 255
180.641283 -232.314619 -144.631454 0 120 255
179.076554 -232.264056 -142.717057 0 120 255
177.279317 -232.201414 -141.017824 0 120 255
175.482080 -232.138772 -139.318590 0 120 255
173.684843 -232.076130 -137.619356 0 120 255
171.885501 -232.013371 -135.922670 0 120 255
169.881020 -231.939317 -134.474239 0 120 255
167.876538 -231.865262 -133.025809 0 120 255
165.872057 -231.791207 -131.577379 0 120 255
163.867575 -231.717152 -130.128948 0 120 255
161.700191 -231.634550 -128.939869 0 120 255
159.527435 -231.551665 -127.759344 0 120 255
157.354679 -231.468781 -126.578819 0 120 255
155.181922 -231.385896 -125.398293 0 120 255
152.889188 -231.298772 -124.475972 0 120 255
150.586858 -231.211309 -123.574303 0 120 255
148.284528 -231.123846 -122.672634 0 120 255
145.982199 -231.036382 -121.770964 0 120 255
143.598769 -230.947068 -121.120176 0 120 255
141.204676 -230.857511 -120.502372 0 120 255
138.810584 -230.767953 -119.884569 0 120 255
136.416492 -230.678396 -119.266765 0 120 255
133.975471 -230.588078 -118.887978 0 120 255
131.525622 -230.497617 -118.554159 0 120 255
129.075772 -230.407156 -118.220340 0 120 255
126.625923 -230.316695 -117.886520 0 120 255
124.158440 -230.226428 -117.776332 0 120 255
121.686535 -230.136210 -117.722231 0 120 255
119.214630 -230.045991 -117.668129 0 120 255
116.742726 -229.955773 -117.614027 0 120 255
114.277612 -229.866563 -117.765815 0 120 255
111.814675 -229.777677 -117.983576 0 120 255
109.351738 -229.688791 -118.201337 0 120 255
106.888800 -229.599905 -118.419098 0 120 255
104.452457 -229.512672 -118.823816 0 120 255
102.026705 -229.426097 -119.302997 0 120 255
99.600953 -229.339521 -119.782177 0 120 255
97.175202 -229.252946 -120.261358 0 120 255
94.791623 -229.168513 -120.908116 0 120 255
92.428536 -229.085120 -121.636293 0 120 255
90.065448 -229.001727 -122.364470 0 120 255
87.702360 -228.918334 -123.092648 0 120 255
85.393233 -228.837448 -123.969115 0 120 255
83.115678 -228.758030 -124.932347 0 120 255
80.838123 -228.678612 -125.895579 0 120 255
78.560567 -228.599194 -126.858811 0 120 255
76.345445 -228.522538 -127.951641 0 120 255
74.173932 -228.447812 -129.134996 0 120 255
72.002420 -228.373086 -130.318351 0 120 255
69.830907 -228.298361 -131.501707 0 120 255
67.727437 -228.226525 -132.796860 0 120 255
65.680395 -228.157087 -134.184727 0 120 255
63.633352 -228.087649 -135.572595 0 120 255
61.586310 -228.018210 -136.960462 0 120 255
59.610421 -227.951718 -138.443356 0 120 255
57.704391 -227.888117 -140.019550 0 120 255
55.798362 -227.824516 -141.595745 0 120 255
53.892333 -227.760916 -143.171939 0 120 255
52.058393 -227.700235 -144.827532 0 120 255
50.308215 -227.642947 -146.575381 0 120 255
48.558038 -227.585659 -148.323230 0 120 255
46.807860 -227.528371 -150.071080 0 120 255
45.128813 -227.473919 -151.883926 0 120 255
43.547776 -227.423376 -153.786332 0 120 255
41.966739 -227.372833 -155.688738 0 120 255
40.385702 -227.322289 -157.591144 0 120 255
38.873185 -227.274432 -159.545432 0 120 255
37.473147 -227.230986 -161.584890 0 120 255
36.073109 -227.187539 -163.624347 0 120 255
34.673072 -227.144093 -165.663805 0 120 255
33.337444 -227.103142 -167.743336 0 120 255
32.128749 -227.067110 -169.901840 0 120 255
30.920055 -227.031078 -172.060344 0 120 255
29.711360 -226.995045 -174.218848 0 120 255
28.561679 -226.961277 -176.407003 0 120 255
27.553215 -226.932926 -178.666113 0 120 255
26.544751 -226.904574 -180.925223 0 120 255
25.536287 -226.876223 -183.184333 0 120 255
24.580283 -226.849858 -185.464099 0 120 255
23.779278 -226.829362 -187.804901 0 120 255
22.978274 -226.808866 -190.145703 0 120 255
22.177269 -226.788370 -192.486504 0 120 255
21.421203 -226.769560 -194.840476 0 120 255
20.833135 -226.757055 -197.243682 0 120 255
20.245068 -226.744550 -199.646888 0 120 255
19.657001 -226.732045 -202.050095 0 120 255
19.105584 -226.720901 -204.460558 0 120 255
18.734057 -226.716438 -206.906643 0 120 255
18.362530 -226.711976 -209.352727 0 120 255
17.991004 -226.707513 -211.798811 0 120 255
17.647298 -226.704076 -214.247866 0 120 255
17.493998 -226.707659 -216.717252 0 120 255
17.340699 -226.711242 -219.186638 0 120 255
17.187399 -226.714825 -221.656024 0 120 255
17.052801 -226.719090 -224.125743 0 120 255
17.117591 -226.730627 -226.599010 0 120 255
17.182380 -226.742164 -229.072277 0 120 255
17.247169 -226.753701 -231.545544 0 120 255
17.321483 -226.765582 -234.018141 0 120 255
17.602506 -226.784919 -236.476195 0 120 255
17.883530 -226.804257 -238.934250 0 120 255
18.164553 -226.823594 -241.392304 0 120 255
18.446081 -226.842950 -243.850279 0 120 255
18.939821 -226.869891 -246.274506 0 120 255
19.433560 -226.896832 -248.698733 0 120 255
19.927300 -226.923773 -251.122959 0 120 255
20.421040 -226.950714 -253.547186 0 120 255
21.114080 -226.984740 -255.921674 0 120 255
21.815268 -227.019055 -258.294128 0 120 255
22.516457 -227.053370 -260.666581 0 120 255
23.217646 -227.087686 -263.039035 0 120 255
24.103196 -227.128474 -265.348184 0 120 255
25.004978 -227.169831 -267.651759 0 120 255
25.906760 -227.211189 -269.955335 0 120 255
26.808542 -227.252547 -272.258910 0 120 255
27.879066 -227.299764 -274.487895 0 120 255
28.973154 -227.347799 -276.706462 0 120 255
30.067243 -227.395833 -278.925030 0 120 255
31.161332 -227.443868 -281.143598 0 120 255
32.407874 -227.497152 -283.278717 0 120 255
33.684358 -227.551466 -285.397448 0 120 255
34.960842 -227.605780 -287.516178 0 120 255
36.237327 -227.660094 -289.634909 0 120 255
37.649666 -227.719019 -291.663782 0 120 255
39.097202 -227.779138 -293.669376 0 120 255
40.544737 -227.839258 -295.674970 0 120 255
41.992273 -227.899377 -297.680564 0 120 255
43.559044 -227.963488 -299.592351 0 120 255
45.165006 -228.028910 -301.473304 0 120 255
46.770968 -228.094332 -303.354257 0 120 255
48.376930 -228.159754 -305.235211 0 120 255
50.085811 -228.228583 -307.020810 0 120 255
51.836527 -228.298797 -308.767648 0 120 255
53.587243 -228.369010 -310.514486 0 120 255
55.337959 -228.439224 -312.261324 0 120 255
57.175949 -228.512293 -313.913486 0 120 255
59.057054 -228.586774 -315.518877 0 120 255
60.938158 -228.661254 -317.124267 0 120 255
62.819263 -228.735734 -318.729657 0 120 255
64.772903 -228.812664 -320.243136 0 120 255
66.769572 -228.891048 -321.702091 0 120 255
68.766241 -228.969431 -323.161046 0 120 255
70.762910 -229.047815 -324.620001 0 120 255
72.818599 -229.128252 -325.991567 0 120 255
74.915989 -229.210139 -327.301387 0 120 255
77.013380 -229.292026 -328.611207 0 120 255
79.110770 -229.373914 -329.921026 0 120 255
81.254893 -229.456609 -331.149829 0 120 255
83.438149 -229.539980 -332.310785 0 120 255
85.621406 -229.623352 -333.471742 0 120 255
87.804662 -229.706723 -334.632698 0 120 255
90.023373 -229.785555 -335.721785 0 120 255
92.277191 -229.859891 -336.739704 0 120 255
94.531009 -229.934228 -337.757624 0 120 255
96.784826 -230.008564 -338.775543 0 120 255
99.064650 -230.073132 -339.731705 0 120 255
101.374923 -230.126262 -340.615558 0 120 255
103.685197 -230.179391 -341.499410 0 120 255
105.995470 -230.232521 -342.383262 0 120 255
108.324191 -230.272587 -343.215373 0 120 255
110.678513 -230.294524 -343.975680 0 120 255
113.032836 -230.316461 -344.735987 0 120 255
115.387158 -230.338398 -345.496293 0 120 255
117.754024 -230.345894 -346.214432 0 120 255
120.141625 -230.329520 -346.862872 0 120 255
122.529226 -230.313146 -347.511312 0 120 255
124.916827 -230.296772 -348.159752 0 120 255
127.312509 -230.266032 -348.774898 0 120 255
129.724229 -230.206781 -349.323966 0 120 255
132.135949 -230.147530 -349.873035 0 120 255
134.547669 -230.088278 -350.422104 0 120 255
136.964232 -230.015910 -350.945889 0 120 255
139.392475 -229.911912 -351.408707 0 120 255
141.820719 -229.807914 -351.871524 0 120 255
144.248962 -229.703917 -352.334341 0 120 255
146.679838 -229.588876 -352.778867 0 120 255
149.118565 -229.440917 -353.168868 0 120 255
151.557292 -229.292957 -353.558869 0 120 255
153.996018 -229.144998 -353.948870 0 120 255
156.435989 -228.988546 -354.326481 0 120 255
158.880659 -228.799999 -354.657267 0 120 255
161.325328 -228.611451 -354.988053 0 120 255
163.769998 -228.422904 -355.318839 0 120 255
166.215122 -228.228811 -355.642352 0 120 255
168.662505 -228.007109 -355.929658 0 120 255
171.109889 -227.785408 -356.216963 0 120 255
173.557272 -227.563707 -356.504268 0 120 255
176.004623 -227.340786 -356.790878 0 120 255
178.451750 -227.109357 -357.072640 0 120 255
180.898877 -226.877927 -357.354402 0 120 255
183.346004 -226.646498 -357.636164 0 120 255
185.793131 -226.415067 -357.917926 0 120 255
188.240256 -226.183627 -358.199701 0 120 255
190.687380 -225.952187 -358.481475 0 120 255
193.134505 -225.720746 -358.763249 0 120 255
195.581630 -225.489306 -359.045024 0 120 255
198.028756 -225.257869 -359.326790 0 120 255
200.475881 -225.026433 -359.608557 0 120 255
202.923007 -224.794997 -359.890324 0 120 255
205.370133 -224.563560 -360.172091 0 120 255
