ply
format ascii 1.0
element vertex 385
property float x
property float y
property float z
property uchar red
property uchar green
property uchar blue
end_header
77.430455 -42.474882 -360.397637 0 120 255
77.187408 -42.528743 -357.934470 0 120 255
76.944361 -42.582605 -355.471303 0 120 255
76.701314 -42.636466 -353.008137 0 120 255
76.458267 -42.690328 -350.544970 0 120 255
76.208051 -42.797665 -348.084297 0 120 255
75.957542 -42.907187 -345.623725 0 120 255
75.707033 -43.016709 -343.163154 0 120 255
75.456524 -43.126230 -340.702582 0 120 255
75.338070 -43.427712 -338.249189 0 120 255
75.232017 -43.747219 -335.796470 0 120 255
75.125964 -44.066727 -333.343751 0 120 255
75.019911 -44.386234 -330.891032 0 120 255
75.036249 -44.838412 -328.458186 0 120 255
75.073703 -45.313479 -326.028768 0 120 255
75.111157 -45.788547 -323.599350 0 120 255
75.148611 -46.263614 -321.169933 0 120 255
75.294537 -46.862384 -318.773704 0 120 255
75.469072 -47.493782 -316.386229 0 120 255
75.643607 -48.125179 -313.998754 0 120 255
75.818142 -48.756577 -311.611279 0 120 255
76.087953 -49.501066 -309.267502 0 120 255
76.393071 -50.287464 -306.939919 0 120 255
76.698189 -51.073862 -304.612336 0 120 255
77.003307 -51.860261 -302.284752 0 120 255
77.391390 -52.747982 -300.008645 0 120 255
77.820702 -53.686058 -297.758119 0 120 255
78.250015 -54.624133 -295.507593 0 120 255
78.679328 -55.562208 -293.257067 0 120 255
79.180244 -56.589169 -291.063196 0 120 255
79.727591 -57.673765 -288.906062 0 120 255
80.274937 -58.758360 -286.748928 0 120 255
80.822283 -59.842956 -284.591795 0 120 255
81.430844 -61.003743 -282.494059 0 120 255
82.090387 -62.227985 -280.445791 0 120 255
82.749930 -63.452226 -278.397524 0 120 255
83.409473 -64.676468 -276.349257 0 120 255
84.120797 -65.964325 -274.360878 0 120 255
84.887093 -67.319717 -272.436075 0 120 255
85.653389 -68.675109 -270.511273 0 120 255
86.419685 -70.030501 -268.586470 0 120 255
87.229229 -71.437399 -266.719996 0 120 255
88.097257 -72.913946 -264.932400 0 120 255
88.965285 -74.390492 -263.144804 0 120 255
89.833313 -75.867039 -261.357208 0 120 255
90.736880 -77.383723 -259.624524 0 120 255
91.702025 -78.969949 -257.986982 0 120 255
92.667170 -80.556176 -256.349440 0 120 255
93.632315 -82.142402 -254.711898 0 120 255
94.626029 -83.758407 -253.124195 0 120 255
95.684040 -85.441430 -251.648659 0 120 255
96.742050 -87.124454 -250.173122 0 120 255
97.800061 -88.807477 -248.697586 0 120 255
98.882727 -90.512306 -247.269058 0 120 255
100.039228 -92.282437 -245.981305 0 120 255
101.195729 -94.052567 -244.693553 0 120 255
102.352230 -95.822698 -243.405801 0 120 255
103.526712 -97.606210 -242.156559 0 120 255
104.775768 -99.445220 -241.067034 0 120 255
106.024823 -101.284229 -239.977508 0 120 255
107.273879 -103.123239 -238.887983 0 120 255
108.533685 -104.968714 -237.824499 0 120 255
109.861387 -106.855017 -236.925483 0 120 255
111.189089 -108.741321 -236.026467 0 120 255
112.516790 -110.627624 -235.127451 0 120 255
113.850465 -112.516270 -234.244176 0 120 255
115.252673 -114.431795 -233.541511 0 120 255
116.654880 -116.347321 -232.838845 0 120 255
118.057088 -118.262846 -232.136180 0 120 255
119.461042 -120.178626 -231.438493 0 120 255
120.933709 -122.104412 -230.936737 0 120 255
122.406377 -124.030199 -230.434981 0 120 255
123.879045 -125.955985 -229.933225 0 120 255
125.351713 -127.881771 -229.431469 0 120 255
126.888818 -129.798276 -229.127887 0 120 255
128.427872 -131.714501 -228.830296 0 120 255
129.966926 -133.630725 -228.532706 0 120 255
131.505979 -135.546950 -228.235115 0 120 255
133.102034 -137.435452 -228.126612 0 120 255
134.703188 -139.321474 -228.035023 0 120 255
136.304343 -141.207496 -227.943433 0 120 255
137.905497 -143.093518 -227.851844 0 120 255
139.556421 -144.934822 -227.939044 0 120 255
141.215005 -146.769243 -228.053757 0 120 255
142.873589 -148.603665 -228.168470 0 120 255
144.532173 -150.438086 -228.283183 0 120 255
146.233393 -152.212319 -228.565337 0 120 255
147.944166 -153.973067 -228.885005 0 120 255
149.654938 -155.733815 -229.204673 0 120 255
151.365711 -157.494562 -229.524341 0 120 255
153.111980 -159.181270 -229.999174 0 120 255
154.868910 -160.845741 -230.520610 0 120 255
156.625840 -162.510211 -231.042046 0 120 255
158.382771 -164.174682 -231.563483 0 120 255
160.168027 -165.752934 -232.226995 0 120 255
161.964140 -167.298142 -232.944960 0 120 255
163.760253 -168.843350 -233.662925 0 120 255
165.556366 -170.388558 -234.380890 0 120 255
167.373545 -171.837129 -235.227200 0 120 255
169.200693 -173.239968 -236.134247 0 120 255
171.027840 -174.642808 -237.041294 0 120 255
172.854988 -176.045647 -237.948342 0 120 255
174.695859 -177.343253 -238.969481 0 120 255
176.544559 -178.580810 -240.055722 0 120 255
178.393259 -179.818367 -241.141964 0 120 255
180.241960 -181.055925 -242.228206 0 120 255
182.096995 -182.181495 -243.413917 0 120 255
183.956312 -183.231393 -244.666841 0 120 255
185.815628 -184.281291 -245.919765 0 120 255
187.674945 -185.331189 -247.172689 0 120 255
189.533194 -186.264251 -248.510243 0 120 255
191.390601 -187.105163 -249.914546 0 120 255
193.248009 -187.946074 -251.318850 0 120 255
195.105416 -188.786985 -252.723153 0 120 255
196.954418 -189.508107 -254.197195 0 120 255
198.795772 -190.120260 -255.734675 0 120 255
200.637127 -190.732413 -257.272155 0 120 255
202.478481 -191.344566 -258.809635 0 120 255
204.304234 -191.835874 -260.402071 0 120 255
206.113786 -192.201699 -262.051573 0 120 255
207.923338 -192.567523 -263.701074 0 120 255
209.732890 -192.933348 -265.350576 0 120 255
211.519883 -193.179125 -267.040536 0 120 255
213.280375 -193.283887 -268.778022 0 120 255
215.040867 -193.388649 -270.515507 0 120 255
216.801359 -193.493411 -272.252992 0 120 255
218.532683 -193.480760 -274.016881 0 120 255
220.225555 -193.313321 -275.815578 0 120 255
221.918427 -193.145881 -277.614275 0 120 255
223.611299 -192.978442 -279.412972 0 120 255
225.268853 -192.697960 -281.224645 0 120 255
226.874525 -192.251423 -283.055377 0 120 255
228.480198 -191.804886 -284.886110 0 120 255
230.085871 -191.358349 -286.716843 0 120 255
231.650652 -190.804807 -288.547927 0 120 255
233.148922 -190.077215 -290.379582 0 120 255
234.647191 -189.349624 -292.211238 0 120 255
236.145460 -188.622033 -294.042894 0 120 255
237.597979 -187.795021 -295.863255 0 120 255
238.968531 -186.789892 -297.663384 0 120 255
240.339084 -185.784762 -299.463513 0 120 255
241.709637 -184.779633 -301.263641 0 120 255
243.030424 -183.684080 -303.042005 0 120 255
244.253404 -182.410807 -304.777591 0 120 255
245.476384 -181.137535 -306.513178 0 120 255
246.699363 -179.864262 -308.248764 0 120 255
247.869539 -178.510794 -309.953493 0 120 255
248.926154 -176.984858 -311.591859 0 120 255
249.982769 -175.458922 -313.230226 0 120 255
251.039385 -173.932985 -314.868593 0 120 255
252.041274 -172.338089 -316.468592 0 120 255
252.914471 -170.581028 -317.978369 0 120 255
253.787667 -168.823966 -319.488145 0 120 255
254.660864 -167.066904 -320.997922 0 120 255
255.478653 -165.252825 -322.463599 0 120 255
256.153731 -163.291887 -323.815691 0 120 255
256.828810 -161.330949 -325.167784 0 120 255
257.503888 -159.370012 -326.519877 0 120 255
258.124208 -157.364342 -327.824100 0 120 255
258.589382 -155.231935 -328.992695 0 120 255
259.054556 -153.099527 -330.161290 0 120 255
259.519730 -150.967120 -331.329885 0 120 255
259.932175 -148.802166 -332.448928 0 120 255
260.179020 -146.534997 -333.412346 0 120 255
260.425864 -144.267828 -334.375764 0 120 255
260.672708 -142.000659 -335.339182 0 120 255
260.870230 -139.712528 -336.253512 0 120 255
260.894012 -137.350558 -336.994926 0 120 255
260.917794 -134.988588 -337.736340 0 120 255
260.941575 -132.626618 -338.477754 0 120 255
260.920728 -130.254130 -339.172652 0 120 255
260.720525 -127.839370 -339.680606 0 120 255
260.520322 -125.424611 -340.188559 0 120 255
260.320118 -123.009851 -340.696513 0 120 255
260.081107 -120.593335 -341.162464 0 120 255
259.659824 -118.168567 -341.431138 0 120 255
259.238542 -115.743800 -341.699813 0 120 255
258.817260 -113.319032 -341.968487 0 120 255
258.363859 -110.899097 -342.201325 0 120 255
257.727972 -108.506618 -342.230554 0 120 255
257.092085 -106.114139 -342.259783 0 120 255
256.456197 -103.721660 -342.289012 0 120 255
255.795456 -101.338029 -342.289828 0 120 255
254.954756 -99.018460 -342.084917 0 120 255
254.114056 -96.698892 -341.880006 0 120 255
253.273356 -94.379324 -341.675095 0 120 255
252.415277 -92.069778 -341.449946 0 120 255
251.382406 -89.861031 -341.021253 0 120 255
250.349534 -87.652284 -340.592560 0 120 255
249.316663 -85.443537 -340.163867 0 120 255
248.273719 -83.243043 -339.723299 0 120 255
247.063604 -81.179504 -339.085655 0 120 255
245.853490 -79.115964 -338.448011 0 120 255
244.643375 -77.052424 -337.810368 0 120 255
243.429968 -74.992484 -337.168818 0 120 255
242.059345 -73.104362 -336.340839 0 120 255
240.688723 -71.216239 -335.512859 0 120 255
239.318100 -69.328116 -334.684879 0 120 255
237.947478 -67.439994 -333.856900 0 120 255
236.436926 -65.749239 -332.863357 0 120 255
234.923745 -64.062192 -331.866704 0 120 255
233.410564 -62.375145 -330.870051 0 120 255
231.897382 -60.688098 -329.873398 0 120 255
230.267719 -59.209735 -328.740710 0 120 255
228.630629 -57.744678 -327.599348 0 120 255
226.993539 -56.279622 -326.457986 0 120 255
225.356449 -54.814565 -325.316624 0 120 255
223.625262 -53.562957 -324.068421 0 120 255
221.883179 -52.336068 -322.807845 0 120 255
220.141096 -51.109180 -321.547269 0 120 255
218.399012 -49.882291 -320.286693 0 120 255
216.583625 -48.867734 -318.947208 0 120 255
214.755322 -47.890588 -317.593821 0 120 255
212.927019 -46.913443 -316.240434 0 120 255
211.098716 -45.936297 -314.887047 0 120 255
209.215959 -45.165333 -313.480597 0 120 255
207.319781 -44.445182 -312.061070 0 120 255
205.423604 -43.725031 -310.641544 0 120 255
203.527426 -43.004881 -309.222017 0 120 255
201.593460 -42.480616 -307.772633 0 120 255
199.647076 -42.020719 -306.313439 0 120 255
197.700693 -41.560823 -304.854244 0 120 255
195.754310 -41.100926 -303.395049 0 120 255
193.784526 -40.823407 -301.926144 0 120 255
191.804793 -40.623427 -300.453111 0 120 255
189.825060 -40.423447 -298.980077 0 120 255
187.845327 -40.223466 -297.507044 0 120 255
185.854296 -40.190012 -296.041172 0 120 255
183.857168 -40.246417 -294.579166 0 120 255
181.860041 -40.302821 -293.117160 0 120 255
179.862913 -40.359226 -291.655153 0 120 255
177.864376 -40.564776 -290.213827 0 120 255
175.864886 -40.871232 -288.786492 0 120 255
173.865395 -41.177687 -287.359158 0 120 255
171.865904 -41.484143 -285.931823 0 120 255
169.872806 -41.921558 -284.535362 0 120 255
167.885093 -42.469312 -283.164915 0 120 255
165.897381 -43.017067 -281.794467 0 120 255
163.909668 -43.564821 -280.424020 0 120 255
161.934199 -44.225173 -279.091472 0 120 255
159.971548 -45.003413 -277.798604 0 120 255
158.008898 -45.781653 -276.505736 0 120 255
156.046247 -46.559894 -275.212869 0 120 255
154.099914 -47.432715 -273.961937 0 120 255
152.174856 -48.428855 -272.765684 0 120 255
150.249799 -49.424994 -271.569431 0 120 255
148.324741 -50.421134 -270.373178 0 120 255
146.418453 -51.494629 -269.220172 0 120 255
144.542853 -52.694593 -268.137873 0 120 255
142.667253 -53.894557 -267.055574 0 120 255
140.791652 -55.094521 -265.973275 0 120 255
138.935810 -56.355757 -264.933077 0 120 255
137.120992 -57.744209 -263.980292 0 120 255
135.306174 -59.132661 -263.027508 0 120 255
133.491356 -60.521113 -262.074724 0 120 255
131.695945 -61.956174 -261.160750 0 120 255
129.952780 -63.516704 -260.351254 0 120 255
128.209616 -65.077235 -259.541758 0 120 255
126.466451 -66.637765 -258.732262 0 120 255
124.741120 -68.231878 -257.956447 0 120 255
123.080138 -69.947167 -257.302165 0 120 255
121.419156 -71.662456 -256.647883 0 120 255
119.758173 -73.377745 -255.993601 0 120 255
118.112318 -75.115395 -255.366359 0 120 255
116.543791 -76.967353 -254.877344 0 120 255
114.975264 -78.819311 -254.388329 0 120 255
113.406736 -80.671269 -253.899314 0 120 255
111.849574 -82.536296 -253.429514 0 120 255
110.383602 -84.506188 -253.113897 0 120 255
108.917630 -86.476080 -252.798279 0 120 255
107.451658 -88.445972 -252.482662 0 120 255
105.991747 -90.421239 -252.176763 0 120 255
104.629041 -92.482717 -252.026746 0 120 255
103.266335 -94.544194 -251.876728 0 120 255
101.903629 -96.605672 -251.726711 0 120 255
100.541699 -98.667669 -251.577874 0 120 255
99.290804 -100.804025 -251.598073 0 120 255
98.039909 -102.940381 -251.618273 0 120 255
96.789014 -105.076736 -251.638473 0 120 255
95.538119 -107.213092 -251.658672 0 120 255
94.413809 -109.409182 -251.858740 0 120 255
93.294990 -111.607863 -252.066608 0 120 255
92.176170 -113.806543 -252.274476 0 120 255
91.057351 -116.005224 -252.482344 0 120 255
90.069236 -118.242096 -252.862476 0 120 255
89.093844 -120.482686 -253.259376 0 120 255
88.118452 -122.723276 -253.656276 0 120 255
87.143060 -124.963866 -254.053176 0 120 255
86.301666 -127.222452 -254.612697 0 120 255
85.481083 -129.483832 -255.197474 0 120 255
84.660501 -131.745213 -255.782250 0 120 255
83.839918 -134.006594 -256.367027 0 120 255
83.155701 -136.267238 -257.102884 0 120 255
82.501149 -138.527722 -257.871607 0 120 255
81.846598 -140.788207 -258.640331 0 120 255
81.192047 -143.048691 -259.409054 0 120 255
80.675196 -145.291296 -260.315621 0 120 255
80.197508 -147.528816 -261.261390 0 120 255
79.719820 -149.766337 -262.207159 0 120 255
79.242131 -152.003857 -263.152928 0 120 255
78.902364 -154.208076 -264.221838 0 120 255
78.611725 -156.400433 -265.334610 0 120 255
78.321085 -158.592790 -266.447382 0 120 255
78.030445 -160.785146 -267.560155 0 120 255
77.876730 -162.930629 -268.780147 0 120 255
77.782354 -165.055798 -270.046603 0 120 255
77.687977 -167.180967 -271.313060 0 120 255
77.593601 -169.306136 -272.579516 0 120 255
77.633866 -171.372838 -273.936328 0 120 255
77.743661 -173.409348 -275.339801 0 120 255
77.853456 -175.445858 -276.743274 0 120 255
77.963251 -177.482367 -278.146747 0 120 255
78.204070 -179.450904 -279.623098 0 120 255
78.524281 -181.378253 -281.143609 0 120 255
78.844492 -183.305601 -282.664120 0 120 255
79.164703 -185.232950 -284.184631 0 120 255
79.610954 -187.085008 -285.760265 0 120 255
80.145777 -188.884156 -287.374637 0 120 255
80.680599 -190.683303 -288.989008 0 120 255
81.215422 -192.482451 -290.603379 0 120 255
81.869952 -194.201235 -292.255228 0 120 255
82.621198 -195.855090 -293.937356 0 120 255
83.372443 -197.508946 -295.619484 0 120 255
84.123688 -199.162801 -297.301612 0 120 255
84.987014 -200.733512 -299.004065 0 120 255
85.953787 -202.227480 -300.725276 0 120 255
86.920561 -203.721449 -302.446488 0 120 255
87.887334 -205.215418 -304.167699 0 120 255
88.957365 -206.625726 -305.893001 0 120 255
90.135807 -207.948201 -307.622596 0 120 255
91.314248 -209.270675 -309.352191 0 120 255
92.492690 -210.593149 -311.081787 0 120 255
93.764527 -211.833667 -312.800557 0 120 255
95.147653 -212.976526 -314.506428 0 120 255
96.530780 -214.119386 -316.212299 0 120 255
97.913906 -215.262245 -317.918170 0 120 255
99.379736 -216.326917 -319.600041 0 120 255
100.957385 -217.285872 -321.249461 0 120 255
102.535034 -218.244828 -322.898882 0 120 255
104.112683 -219.203784 -324.548303 0 120 255
105.761768 -220.090192 -326.162658 0 120 255
107.520642 -220.865099 -327.723120 0 120 255
109.279517 -221.640006 -329.283583 0 120 255
111.038391 -222.414913 -330.844045 0 120 255
112.857169 -223.124512 -332.360801 0 120 255
114.781045 -223.719530 -333.800876 0 120 255
116.704921 -224.314548 -335.240952 0 120 255
118.628797 -224.909566 -336.681027 0 120 255
120.601110 -225.447752 -338.071453 0 120 255
122.671099 -225.871332 -339.361758 0 120 255
124.741089 -226.294913 -340.652063 0 120 255
126.811078 -226.718493 -341.942367 0 120 255
128.918485 -227.094540 -343.179903 0 120 255
131.113523 -227.359266 -344.293856 0 120 255
133.308561 -227.623991 -345.407808 0 120 255
135.503599 -227.888717 -346.521761 0 120 255
137.725840 -228.115556 -347.582702 0 120 255
140.023152 -228.237837 -348.497341 0 120 255
142.320464 -228.360119 -349.411981 0 120 255
144.617777 -228.482400 -350.326621 0 120 255
146.933236 -228.576285 -351.190778 0 120 255
149.308936 -228.575904 -351.887348 0 120 255
151.684636 -228.575522 -352.583919 0 120 255
154.060336 -228.575140 -353.280490 0 120 255
156.446596 -228.555179 -353.931653 0 120 255
158.876283 -228.454694 -354.396072 0 120 255
161.305971 -228.354208 -354.860490 0 120 255
163.735658 -228.253722 -355.324908 0 120 255
166.169244 -228.137846 -355.756583 0 120 255
168.623590 -227.940015 -356.013895 0 120 255
171.077937 -227.742184 -356.271207 0 120 255
173.532283 -227.544353 -356.528519 0 120 255
175.985963 -227.342551 -356.788729 0 120 255
178.434645 -227.110974 -357.070670 0 120 255
180.883327 -226.879398 -357.352611 0 120 255
183.332009 -226.647821 -357.634552 0 120 255
185.780691 -226.416244 -357.916494 0 120 255
188.229371 -226.184657 -358.198447 0 120 255
190.678050 -225.953069 -358.480401 0 120 255
193.126730 -225.721481 -358.762354 0 120 255
195.575410 -225.489894 -359.044307 0 120 255
198.024091 -225.258311 -359.326253 0 120 255
200.472771 -225.026727 -359.608199 0 120 255
202.921452 -224.795144 -359.890145 0 120 255
205.370133 -224.563560 -360.172091 0 120 255
