ply
format ascii 1.0
element vertex 385
property float x
property float y
property float z
property uchar red
property uchar green
property uchar blue
end_header
77.430455 -42.474882 -360.397637 0 120 255
77.187566 -42.528708 -357.936070 0 120 255
76.944677 -42.582535 -355.474503 0 120 255
76.701788 -42.636361 -353.012936 0 120 255
76.458899 -42.690188 -350.551369 0 120 255
76.214328 -42.752842 -348.090178 0 120 255
75.969685 -42.815883 -345.629004 0 120 255
75.725041 -42.878923 -343.167830 0 120 255
75.480397 -42.941964 -340.706655 0 120 255
75.078205 -43.475441 -338.329320 0 120 255
74.661623 -44.051886 -335.959641 0 120 255
74.245042 -44.628331 -333.589963 0 120 255
73.828460 -45.204775 -331.220285 0 120 255
73.279914 -46.132654 -328.998757 0 120 255
72.711797 -47.112651 -326.799199 0 120 255
72.143680 -48.092647 -324.599641 0 120 255
71.575563 -49.072644 -322.400083 0 120 255
70.899360 -50.300807 -320.366803 0 120 255
70.200305 -51.581438 -318.368675 0 120 255
69.501250 -52.862068 -316.370548 0 120 255
68.802196 -54.142698 -314.372421 0 120 255
68.018919 -55.587815 -312.527675 0 120 255
67.211937 -57.079227 -310.726100 0 120 255
66.404955 -58.570640 -308.924525 0 120 255
65.597973 -60.062052 -307.122950 0 120 255
64.731036 -61.657482 -305.445601 0 120 255
63.842548 -63.290302 -303.812906 0 120 255
62.954060 -64.923121 -302.180211 0 120 255
62.065572 -66.555940 -300.547516 0 120 255
61.141839 -68.253897 -299.005191 0 120 255
60.202358 -69.980957 -297.503245 0 120 255
59.262877 -71.708018 -296.001299 0 120 255
58.323396 -73.435078 -294.499353 0 120 255
57.373246 -75.205714 -293.057054 0 120 255
56.417274 -77.000120 -291.647290 0 120 255
55.461303 -78.794525 -290.237527 0 120 255
54.505332 -80.588930 -288.827764 0 120 255
53.562086 -82.417491 -287.454406 0 120 255
52.627213 -84.268524 -286.105001 0 120 255
51.692341 -86.119557 -284.755596 0 120 255
50.757468 -87.970590 -283.406191 0 120 255
49.856286 -89.853517 -282.078946 0 120 255
48.981635 -91.761559 -280.769151 0 120 255
48.106983 -93.669601 -279.459356 0 120 255
47.232332 -95.577643 -278.149561 0 120 255
46.408710 -97.518349 -276.856187 0 120 255
45.632972 -99.489704 -275.578223 0 120 255
44.857233 -101.461060 -274.300259 0 120 255
44.081495 -103.432415 -273.022295 0 120 255
43.369653 -105.437211 -271.761685 0 120 255
42.729153 -107.479343 -270.520453 0 120 255
42.088653 -109.521475 -269.279220 0 120 255
41.448153 -111.563608 -268.037987 0 120 255
40.879539 -113.638123 -266.819247 0 120 255
40.406548 -115.755715 -265.630429 0 120 255
39.933557 -117.873306 -264.441611 0 120 255
39.460567 -119.990898 -263.252792 0 120 255
39.062661 -122.137220 -262.093254 0 120 255
38.784230 -124.329256 -260.980304 0 120 255
38.505799 -126.521292 -259.867354 0 120 255
38.227368 -128.713328 -258.754404 0 120 255
38.022881 -130.927968 -257.676963 0 120 255
37.960145 -133.185940 -256.667592 0 120 255
37.897408 -135.443912 -255.658220 0 120 255
37.834672 -137.701884 -254.648849 0 120 255
37.841138 -139.974598 -253.679004 0 120 255
38.009187 -142.281732 -252.801454 0 120 255
38.177235 -144.588866 -251.923903 0 120 255
38.345284 -146.896000 -251.046352 0 120 255
38.575016 -149.209388 -250.209191 0 120 255
38.983047 -151.540852 -249.488781 0 120 255
39.391079 -153.872316 -248.768371 0 120 255
39.799111 -156.203779 -248.047961 0 120 255
40.259399 -158.533620 -247.365377 0 120 255
40.911193 -160.857512 -246.821416 0 120 255
41.562987 -163.181404 -246.277454 0 120 255
42.214782 -165.505296 -245.733493 0 120 255
42.908275 -167.821480 -245.221724 0 120 255
43.802672 -170.100524 -244.865052 0 120 255
44.697070 -172.379568 -244.508380 0 120 255
45.591468 -174.658612 -244.151708 0 120 255
46.516582 -176.926603 -243.819380 0 120 255
47.648033 -179.120351 -243.650582 0 120 255
48.779484 -181.314099 -243.481785 0 120 255
49.910935 -183.507847 -243.312987 0 120 255
51.062285 -185.690549 -243.159681 0 120 255
52.421267 -187.757987 -243.168025 0 120 255
53.780249 -189.825425 -243.176368 0 120 255
55.139232 -191.892864 -243.184712 0 120 255
56.507972 -193.952790 -243.200102 0 120 255
58.081374 -195.855149 -243.363307 0 120 255
59.654777 -197.757509 -243.526512 0 120 255
61.228179 -199.659869 -243.689717 0 120 255
62.802317 -201.561491 -243.853373 0 120 255
64.573706 -203.265101 -244.138146 0 120 255
66.345096 -204.968711 -244.422919 0 120 255
68.116486 -206.672321 -244.707693 0 120 255
69.887876 -208.375930 -244.992466 0 120 255
71.830952 -209.863374 -245.352939 0 120 255
73.780796 -211.342296 -245.716397 0 120 255
75.730640 -212.821218 -246.079855 0 120 255
77.680484 -214.300140 -246.443312 0 120 255
79.773899 -215.557548 -246.832765 0 120 255
81.879703 -216.795839 -247.224461 0 120 255
83.985508 -218.034130 -247.616156 0 120 255
86.091313 -219.272421 -248.007852 0 120 255
88.311960 -220.295301 -248.375788 0 120 255
90.548394 -221.288569 -248.740458 0 120 255
92.784829 -222.281836 -249.105127 0 120 255
95.021263 -223.275104 -249.469797 0 120 255
97.343556 -224.069817 -249.764028 0 120 255
99.682468 -224.826098 -250.044626 0 120 255
102.021380 -225.582380 -250.325223 0 120 255
104.360291 -226.338661 -250.605821 0 120 255
106.756168 -226.922354 -250.775206 0 120 255
109.166589 -227.461980 -250.916196 0 120 255
111.577010 -228.001606 -251.057186 0 120 255
113.987431 -228.541232 -251.198176 0 120 255
116.426274 -228.941183 -251.195305 0 120 255
118.874319 -229.295921 -251.145867 0 120 255
121.322363 -229.650658 -251.096429 0 120 255
123.770407 -230.005396 -251.046991 0 120 255
126.218979 -230.257604 -250.830738 0 120 255
128.667761 -230.468823 -250.547794 0 120 255
131.116543 -230.680042 -250.264851 0 120 255
133.565325 -230.891261 -249.981907 0 120 255
135.987628 -231.040182 -249.519671 0 120 255
138.397090 -231.158892 -248.970484 0 120 255
140.806551 -231.277601 -248.421298 0 120 255
143.216013 -231.396311 -247.872111 0 120 255
145.573549 -231.489978 -247.141741 0 120 255
147.900897 -231.569086 -246.306040 0 120 255
150.228245 -231.648195 -245.470339 0 120 255
152.555593 -231.727303 -244.634638 0 120 255
154.807992 -231.794419 -243.625385 0 120 255
157.008574 -231.853244 -242.496146 0 120 255
159.209157 -231.912069 -241.366907 0 120 255
161.409739 -231.970894 -240.237668 0 120 255
163.514938 -232.021000 -238.949751 0 120 255
165.542110 -232.063974 -237.532031 0 120 255
167.569283 -232.106948 -236.114312 0 120 255
169.596455 -232.149922 -234.696592 0 120 255
171.511532 -232.186972 -233.140428 0 120 255
173.318409 -232.218304 -231.450629 0 120 255
175.125286 -232.249636 -229.760831 0 120 255
176.932162 -232.280967 -228.071032 0 120 255
178.615227 -232.308972 -226.266777 0 120 255
180.157343 -232.333190 -224.332224 0 120 255
181.699459 -232.357408 -222.397672 0 120 255
183.241576 -232.381626 -220.463119 0 120 255
184.653953 -232.403982 -218.440072 0 120 255
185.891831 -232.423834 -216.298001 0 120 255
187.129709 -232.443685 -214.155930 0 120 255
188.367587 -232.463537 -212.013859 0 120 255
189.475812 -232.482121 -209.809397 0 120 255
190.377123 -232.498682 -207.505364 0 120 255
191.278434 -232.515243 -205.201331 0 120 255
192.179745 -232.531804 -202.897298 0 120 255
192.957214 -232.547111 -200.555393 0 120 255
193.498479 -232.560025 -198.141254 0 120 255
194.039745 -232.572939 -195.727114 0 120 255
194.581011 -232.585853 -193.312975 0 120 255
195.009231 -232.597222 -190.882413 0 120 255
195.176997 -232.605032 -188.414013 0 120 255
195.344763 -232.612842 -185.945613 0 120 255
195.512529 -232.620652 -183.477214 0 120 255
195.581925 -232.626571 -181.009627 0 120 255
195.373232 -232.627147 -178.544337 0 120 255
195.164540 -232.627722 -176.079048 0 120 255
194.955847 -232.628297 -173.613759 0 120 255
194.666019 -232.626758 -171.161572 0 120 255
194.088330 -232.617717 -168.755871 0 120 255
193.510641 -232.608676 -166.350170 0 120 255
192.932952 -232.599634 -163.944469 0 120 255
192.292505 -232.588488 -161.558913 0 120 255
191.362977 -232.567647 -159.266154 0 120 255
190.433448 -232.546805 -156.973394 0 120 255
189.503920 -232.525964 -154.680635 0 120 255
188.529776 -232.503286 -152.409935 0 120 255
187.274072 -232.469017 -150.278448 0 120 255
186.018368 -232.434749 -148.146961 0 120 255
184.762664 -232.400481 -146.015474 0 120 255
183.479039 -232.364867 -143.903305 0 120 255
181.929764 -232.316453 -141.974936 0 120 255
180.380489 -232.268039 -140.046567 0 120 255
178.831214 -232.219625 -138.118198 0 120 255
177.268295 -232.170476 -136.202497 0 120 255
175.463207 -232.108287 -134.511641 0 120 255
173.658119 -232.046099 -132.820785 0 120 255
171.853031 -231.983910 -131.129929 0 120 255
170.045479 -231.921582 -129.442102 0 120 255
168.025643 -231.847236 -128.015239 0 120 255
166.005806 -231.772890 -126.588376 0 120 255
163.985970 -231.698544 -125.161513 0 120 255
161.966134 -231.624199 -123.734649 0 120 255
159.779400 -231.541022 -122.581722 0 120 255
157.587420 -231.457568 -121.437403 0 120 255
155.395441 -231.374114 -120.293085 0 120 255
153.203461 -231.290659 -119.148766 0 120 255
150.891283 -231.203039 -118.276738 0 120 255
148.569710 -231.115093 -117.425991 0 120 255
146.248138 -231.027148 -116.575244 0 120 255
143.926565 -230.939202 -115.724497 0 120 255
141.526730 -230.849515 -115.137866 0 120 255
139.116772 -230.759604 -114.585398 0 120 255
136.706814 -230.669693 -114.032929 0 120 255
134.296856 -230.579781 -113.480461 0 120 255
131.845324 -230.489358 -113.178761 0 120 255
129.386073 -230.398839 -112.923623 0 120 255
126.926822 -230.308320 -112.668485 0 120 255
124.467571 -230.217802 -112.413347 0 120 255
121.997938 -230.127786 -112.391736 0 120 255
119.525732 -230.037896 -112.428021 0 120 255
117.053525 -229.948006 -112.464306 0 120 255
114.581318 -229.858116 -112.500591 0 120 255
112.124422 -229.769571 -112.750538 0 120 255
109.672381 -229.681453 -113.068240 0 120 255
107.220340 -229.593335 -113.385943 0 120 255
104.768299 -229.505217 -113.703646 0 120 255
102.351999 -229.419095 -114.213720 0 120 255
99.949796 -229.333760 -114.799677 0 120 255
97.547594 -229.248424 -115.385633 0 120 255
95.145392 -229.163089 -115.971590 0 120 255
92.794478 -229.080241 -116.728078 0 120 255
90.468257 -228.998590 -117.566670 0 120 255
88.142037 -228.916939 -118.405261 0 120 255
85.815817 -228.835289 -119.243853 0 120 255
83.552047 -228.756469 -120.231378 0 120 255
81.324501 -228.679291 -121.305289 0 120 255
79.096955 -228.602114 -122.379200 0 120 255
76.869408 -228.524936 -123.453111 0 120 255
74.711630 -228.450772 -124.655169 0 120 255
72.602174 -228.378696 -125.945986 0 120 255
70.492719 -228.306619 -127.236802 0 120 255
68.383264 -228.234542 -128.527619 0 120 255
66.347616 -228.165565 -129.927045 0 120 255
64.372675 -228.099136 -131.415803 0 120 255
62.397735 -228.032707 -132.904561 0 120 255
60.422794 -227.966278 -134.393318 0 120 255
58.522985 -227.902919 -135.972690 0 120 255
56.696349 -227.842551 -137.640310 0 120 255
54.869712 -227.782183 -139.307931 0 120 255
53.043075 -227.721814 -140.975551 0 120 255
51.290683 -227.664427 -142.717477 0 120 255
49.623874 -227.610477 -144.545055 0 120 255
47.957066 -227.556527 -146.372633 0 120 255
46.290257 -227.502576 -148.200211 0 120 255
44.695029 -227.451456 -150.087522 0 120 255
43.197660 -227.404205 -152.056496 0 120 255
41.700291 -227.356954 -154.025470 0 120 255
40.202922 -227.309702 -155.994443 0 120 255
38.773069 -227.265086 -158.010309 0 120 255
37.453184 -227.224759 -160.102553 0 120 255
36.133299 -227.184433 -162.194796 0 120 255
34.813415 -227.144107 -164.287039 0 120 255
33.555869 -227.106183 -166.415005 0 120 255
32.420215 -227.072954 -168.612820 0 120 255
31.284561 -227.039726 -170.810635 0 120 255
30.148907 -227.006497 -173.008449 0 120 255
29.069539 -226.975421 -175.232420 0 120 255
28.123804 -226.949456 -177.518490 0 120 255
27.178068 -226.923490 -179.804559 0 120 255
26.232332 -226.897525 -182.090629 0 120 255
25.336127 -226.873429 -184.394816 0 120 255
24.585094 -226.854815 -186.752104 0 120 255
23.834061 -226.836202 -189.109392 0 120 255
23.083029 -226.817588 -191.466680 0 120 255
22.374209 -226.800555 -193.835515 0 120 255
21.821877 -226.789383 -196.247155 0 120 255
21.269546 -226.778212 -198.658795 0 120 255
20.717215 -226.767040 -201.070436 0 120 255
20.199319 -226.757147 -203.488475 0 120 255
19.848906 -226.753473 -205.937639 0 120 255
19.498492 -226.749798 -208.386802 0 120 255
19.148079 -226.746123 -210.835965 0 120 255
18.823960 -226.743417 -213.287782 0 120 255
18.677902 -226.747265 -215.757571 0 120 255
18.531843 -226.751114 -218.227360 0 120 255
18.385785 -226.754962 -220.697148 0 120 255
18.257605 -226.759462 -223.167247 0 120 255
18.317383 -226.770817 -225.640605 0 120 255
18.377161 -226.782172 -228.113964 0 120 255
18.436939 -226.793527 -230.587322 0 120 255
18.506017 -226.805218 -233.060064 0 120 255
18.772021 -226.824036 -235.519758 0 120 255
19.038025 -226.842855 -237.979451 0 120 255
19.304029 -226.861673 -240.439144 0 120 255
19.570728 -226.880517 -242.898733 0 120 255
20.042010 -226.906663 -245.327398 0 120 255
20.513292 -226.932810 -247.756063 0 120 255
20.984573 -226.958956 -250.184728 0 120 255
21.455855 -226.985103 -252.613393 0 120 255
22.122064 -227.018173 -254.995550 0 120 255
22.796035 -227.051518 -257.375856 0 120 255
23.470006 -227.084863 -259.756162 0 120 255
24.143978 -227.118208 -262.136467 0 120 255
25.000336 -227.157970 -264.456610 0 120 255
25.872544 -227.198288 -266.771526 0 120 255
26.744751 -227.238607 -269.086441 0 120 255
27.616958 -227.278925 -271.401356 0 120 255
28.657641 -227.325110 -273.644435 0 120 255
29.721639 -227.372106 -275.877572 0 120 255
30.785638 -227.419102 -278.110710 0 120 255
31.849637 -227.466098 -280.343847 0 120 255
33.067087 -227.518384 -282.495683 0 120 255
34.314466 -227.571702 -284.631662 0 120 255
35.561844 -227.625019 -286.767641 0 120 255
36.809223 -227.678337 -288.903621 0 120 255
38.194271 -227.736337 -290.951200 0 120 255
39.614778 -227.795543 -292.976011 0 120 255
41.035285 -227.854749 -295.000822 0 120 255
42.455792 -227.913955 -297.025632 0 120 255
43.997795 -227.977234 -298.957409 0 120 255
45.579534 -228.041846 -300.858759 0 120 255
47.161273 -228.106457 -302.760109 0 120 255
48.743012 -228.171069 -304.661459 0 120 255
50.430094 -228.239176 -306.467602 0 120 255
52.159812 -228.308698 -308.235213 0 120 255
53.889529 -228.378220 -310.002824 0 120 255
55.619246 -228.447742 -311.770435 0 120 255
57.438594 -228.520209 -313.443016 0 120 255
59.302044 -228.594125 -315.068836 0 120 255
61.165495 -228.668042 -316.694656 0 120 255
63.028946 -228.741958 -318.320477 0 120 255
64.967140 -228.818393 -319.853570 0 120 255
66.949515 -228.896316 -321.331854 0 120 255
68.931889 -228.974240 -322.810137 0 120 255
70.914264 -229.052163 -324.288421 0 120 255
72.957593 -229.132204 -325.678194 0 120 255
75.043848 -229.213737 -327.005633 0 120 255
77.130103 -229.295269 -328.333073 0 120 255
79.216358 -229.376801 -329.660513 0 120 255
81.350970 -229.459194 -330.905595 0 120 255
83.525954 -229.542307 -332.081920 0 120 255
85.700939 -229.625419 -333.258245 0 120 255
87.875923 -229.708531 -334.434570 0 120 255
90.087593 -229.787182 -335.537700 0 120 255
92.335484 -229.861429 -336.568561 0 120 255
94.583376 -229.935675 -337.599421 0 120 255
96.831268 -230.009921 -338.630282 0 120 255
99.106046 -230.074413 -339.598190 0 120 255
101.412220 -230.127514 -340.492587 0 120 255
103.718394 -230.180615 -341.386983 0 120 255
106.024568 -230.233717 -342.281380 0 120 255
108.349788 -230.273737 -343.123024 0 120 255
110.701372 -230.295651 -343.891644 0 120 255
113.052956 -230.317564 -344.660264 0 120 255
115.404540 -230.339478 -345.428885 0 120 255
117.769063 -230.346917 -346.154491 0 120 255
120.154925 -230.330486 -346.809162 0 120 255
122.540788 -230.314054 -347.463833 0 120 255
124.926650 -230.297623 -348.118504 0 120 255
127.320839 -230.266802 -348.739218 0 120 255
129.731514 -230.207483 -349.292690 0 120 255
132.142189 -230.148165 -349.846162 0 120 255
134.552864 -230.088846 -350.399634 0 120 255
136.968526 -230.016391 -350.927320 0 120 255
139.396192 -229.912323 -351.392952 0 120 255
141.823857 -229.808254 -351.858585 0 120 255
144.251523 -229.704185 -352.324217 0 120 255
146.681899 -229.589058 -352.771209 0 120 255
149.120340 -229.441032 -353.162744 0 120 255
151.558781 -229.293007 -353.554278 0 120 255
153.997221 -229.144981 -353.945813 0 120 255
156.436944 -228.988460 -354.324732 0 120 255
158.881503 -228.799892 -354.656057 0 120 255
161.326062 -228.611324 -354.987381 0 120 255
163.770622 -228.422756 -355.318706 0 120 255
166.215649 -228.228643 -355.642647 0 120 255
168.663007 -228.006975 -355.929889 0 120 255
171.110365 -227.785307 -356.217131 0 120 255
173.557722 -227.563639 -356.504373 0 120 255
176.005046 -227.340746 -356.790927 0 120 255
178.452138 -227.109320 -357.072684 0 120 255
180.899230 -226.877894 -357.354442 0 120 255
183.346322 -226.646468 -357.636200 0 120 255
185.793413 -226.415041 -357.917959 0 120 255
188.240503 -226.183604 -358.199729 0 120 255
190.687592 -225.952167 -358.481500 0 120 255
193.134682 -225.720729 -358.763270 0 120 255
195.581771 -225.489293 -359.045040 0 120 255
198.028861 -225.257859 -359.326803 0 120 255
200.475952 -225.026426 -359.608565 0 120 255
202.923043 -224.794993 -359.890328 0 120 255
205.370133 -224.563560 -360.172091 0 120 255
