ply
format ascii 1.0
element vertex 385
property float x
property float y
property float z
property uchar red
property uchar green
property uchar blue
end_header
77.430455 -42.474882 -360.397637 0 120 255
77.187563 -42.528709 -357.936035 0 120 255
76.944670 -42.582536 -355.474433 0 120 255
76.701777 -42.636364 -353.012831 0 120 255
76.458885 -42.690191 -350.551229 0 120 255
76.213142 -42.753463 -348.090136 0 120 255
75.967274 -42.817148 -345.629065 0 120 255
75.721406 -42.880832 -343.167994 0 120 255
75.475539 -42.944516 -340.706923 0 120 255
75.076241 -43.350124 -338.301863 0 120 255
74.662934 -43.786954 -335.901919 0 120 255
74.249626 -44.223785 -333.501974 0 120 255
73.836319 -44.660615 -331.102029 0 120 255
73.307192 -45.346844 -328.787237 0 120 255
72.760975 -46.069876 -326.485010 0 120 255
72.214758 -46.792909 -324.182783 0 120 255
71.668541 -47.515941 -321.880556 0 120 255
71.042326 -48.422842 -319.667718 0 120 255
70.399329 -49.368312 -317.473630 0 120 255
69.756333 -50.313782 -315.279543 0 120 255
69.113336 -51.259252 -313.085456 0 120 255
68.423981 -52.342769 -310.972541 0 120 255
67.721703 -53.464766 -308.882252 0 120 255
67.019425 -54.586764 -306.791964 0 120 255
66.317147 -55.708761 -304.701676 0 120 255
65.598056 -56.939874 -302.681136 0 120 255
64.872985 -58.209801 -300.685406 0 120 255
64.147914 -59.479728 -298.689677 0 120 255
63.422844 -60.749654 -296.693947 0 120 255
62.705338 -62.112025 -294.758725 0 120 255
61.991177 -63.515279 -292.850263 0 120 255
61.277017 -64.918534 -290.941800 0 120 255
60.562856 -66.321788 -289.033337 0 120 255
59.875092 -67.808261 -287.180511 0 120 255
59.201590 -69.339702 -285.357748 0 120 255
58.528089 -70.871142 -283.534986 0 120 255
57.854588 -72.402582 -281.712223 0 120 255
57.220903 -74.011471 -279.944636 0 120 255
56.613201 -75.670897 -278.213053 0 120 255
56.005498 -77.330324 -276.481470 0 120 255
55.397796 -78.989750 -274.749887 0 120 255
54.838473 -80.721483 -273.076241 0 120 255
54.316993 -82.509775 -271.447915 0 120 255
53.795513 -84.298068 -269.819588 0 120 255
53.274032 -86.086360 -268.191262 0 120 255
52.805457 -87.940776 -266.625170 0 120 255
52.386278 -89.856932 -265.117187 0 120 255
51.967100 -91.773089 -263.609205 0 120 255
51.547921 -93.689245 -262.101222 0 120 255
51.183056 -95.663643 -260.659684 0 120 255
50.878647 -97.702868 -259.292104 0 120 255
50.574237 -99.742093 -257.924524 0 120 255
50.269828 -101.781317 -256.556944 0 120 255
50.018915 -103.869237 -255.258604 0 120 255
49.839079 -106.021854 -254.052255 0 120 255
49.659243 -108.174471 -252.845906 0 120 255
49.479407 -110.327088 -251.639557 0 120 255
49.350795 -112.517697 -250.502963 0 120 255
49.303746 -114.768799 -249.477437 0 120 255
49.256697 -117.019901 -248.451911 0 120 255
49.209647 -119.271003 -247.426385 0 120 255
49.210623 -121.548957 -246.468411 0 120 255
49.303901 -123.878520 -245.640273 0 120 255
49.397180 -126.208083 -244.812136 0 120 255
49.490459 -128.537646 -243.983998 0 120 255
49.627974 -130.883291 -243.218474 0 120 255
49.869258 -133.266657 -242.599826 0 120 255
50.110542 -135.650023 -241.981178 0 120 255
50.351827 -138.033389 -241.362531 0 120 255
50.633086 -140.423195 -240.799095 0 120 255
51.030679 -142.831738 -240.396337 0 120 255
51.428273 -145.240282 -239.993578 0 120 255
51.825867 -147.648826 -239.590820 0 120 255
52.258663 -150.055968 -239.233961 0 120 255
52.821649 -152.457929 -239.046853 0 120 255
53.384636 -154.859889 -238.859744 0 120 255
53.947622 -157.261850 -238.672636 0 120 255
54.540402 -159.656908 -238.520915 0 120 255
55.278435 -162.018317 -238.541725 0 120 255
56.016469 -164.379726 -238.562535 0 120 255
56.754502 -166.741135 -238.583344 0 120 255
57.516143 -169.092872 -238.628713 0 120 255
58.438849 -171.378622 -238.841643 0 120 255
59.361554 -173.664372 -239.054573 0 120 255
60.284260 -175.950122 -239.267503 0 120 255
61.223540 -178.226381 -239.494825 0 120 255
62.339538 -180.401453 -239.875600 0 120 255
63.455535 -182.576525 -240.256376 0 120 255
64.571533 -184.751597 -240.637151 0 120 255
65.696306 -186.920330 -241.023863 0 120 255
67.011956 -188.951179 -241.539703 0 120 255
68.327607 -190.982028 -242.055543 0 120 255
69.643258 -193.012878 -242.571384 0 120 255
70.959399 -195.043304 -243.087452 0 120 255
72.477335 -196.899433 -243.697396 0 120 255
73.995272 -198.755562 -244.307340 0 120 255
75.513209 -200.611691 -244.917284 0 120 255
77.031146 -202.467819 -245.527228 0 120 255
78.740963 -204.131256 -246.181303 0 120 255
80.458534 -205.786906 -246.837162 0 120 255
82.176105 -207.442556 -247.493020 0 120 255
83.893676 -209.098207 -248.148878 0 120 255
85.786318 -210.551660 -248.797373 0 120 255
87.694151 -211.987568 -249.445229 0 120 255
89.601985 -213.423476 -250.093085 0 120 255
91.509818 -214.859384 -250.740941 0 120 255
93.569849 -216.092207 -251.331285 0 120 255
95.650763 -217.297165 -251.913738 0 120 255
97.731678 -218.502122 -252.496190 0 120 255
99.812592 -219.707080 -253.078643 0 120 255
102.017153 -220.716842 -253.557537 0 120 255
104.245492 -221.689067 -254.016516 0 120 255
106.473831 -222.661291 -254.475494 0 120 255
108.702171 -223.633515 -254.934473 0 120 255
111.021019 -224.426647 -255.250580 0 120 255
113.362748 -225.174504 -255.530568 0 120 255
115.704477 -225.922360 -255.810556 0 120 255
118.046206 -226.670217 -256.090544 0 120 255
120.442290 -227.262210 -256.197354 0 120 255
122.855748 -227.804383 -256.248808 0 120 255
125.269205 -228.346557 -256.300263 0 120 255
127.682663 -228.888730 -256.351717 0 120 255
130.113321 -229.303610 -256.210293 0 120 255
132.550754 -229.668347 -255.992892 0 120 255
134.988188 -230.033084 -255.775490 0 120 255
137.425621 -230.397821 -255.558089 0 120 255
139.844258 -230.667028 -255.139448 0 120 255
142.253928 -230.890663 -254.624808 0 120 255
144.663598 -231.114299 -254.110167 0 120 255
147.073268 -231.337934 -253.595527 0 120 255
149.431320 -231.499776 -252.882375 0 120 255
151.759909 -231.626348 -252.055918 0 120 255
154.088497 -231.752920 -251.229461 0 120 255
156.417086 -231.879492 -250.403004 0 120 255
158.666498 -231.975377 -249.391016 0 120 255
160.862249 -232.050465 -248.253293 0 120 255
163.058001 -232.125554 -247.115569 0 120 255
165.253752 -232.200642 -245.977846 0 120 255
167.347998 -232.262426 -244.673587 0 120 255
169.360952 -232.313556 -243.235958 0 120 255
171.373907 -232.364685 -241.798328 0 120 255
173.386861 -232.415815 -240.360699 0 120 255
175.280680 -232.457060 -238.779507 0 120 255
177.062007 -232.488972 -237.062755 0 120 255
178.843334 -232.520884 -235.346004 0 120 255
180.624660 -232.552797 -233.629253 0 120 255
182.275078 -232.577564 -231.795532 0 120 255
183.779801 -232.594380 -229.831633 0 120 255
185.284525 -232.611197 -227.867733 0 120 255
186.789249 -232.628013 -225.903834 0 120 255
188.157980 -232.640699 -223.851242 0 120 255
189.348026 -232.647959 -221.682114 0 120 255
190.538072 -232.655219 -219.512986 0 120 255
191.728117 -232.662478 -217.343858 0 120 255
192.783640 -232.667446 -215.113782 0 120 255
193.629601 -232.668844 -212.788760 0 120 255
194.475562 -232.670241 -210.463738 0 120 255
195.321522 -232.671639 -208.138717 0 120 255
196.040367 -232.671686 -205.778157 0 120 255
196.522817 -232.669224 -203.351511 0 120 255
197.005268 -232.666761 -200.924864 0 120 255
197.487718 -232.664299 -198.498218 0 120 255
197.855335 -232.660799 -196.057684 0 120 255
197.965343 -232.654973 -193.585996 0 120 255
198.075352 -232.649147 -191.114308 0 120 255
198.185361 -232.643322 -188.642620 0 120 255
198.196379 -232.636430 -186.173964 0 120 255
197.935435 -232.626612 -183.713641 0 120 255
197.674491 -232.616793 -181.253318 0 120 255
197.413547 -232.606974 -178.792995 0 120 255
197.071556 -232.595937 -176.347395 0 120 255
196.450856 -232.580712 -173.952426 0 120 255
195.830156 -232.565486 -171.557457 0 120 255
195.209456 -232.550261 -169.162487 0 120 255
194.526323 -232.533713 -166.788649 0 120 255
193.565585 -232.511283 -164.508768 0 120 255
192.604847 -232.488853 -162.228887 0 120 255
191.644110 -232.466423 -159.949006 0 120 255
190.638943 -232.442714 -157.691703 0 120 255
189.364990 -232.411270 -155.570987 0 120 255
188.091038 -232.379825 -153.450271 0 120 255
186.817086 -232.348380 -151.329556 0 120 255
185.515039 -232.315886 -149.228508 0 120 255
183.960122 -232.273952 -147.304488 0 120 255
182.405206 -232.232018 -145.380468 0 120 255
180.850289 -232.190083 -143.456448 0 120 255
179.281159 -232.147488 -141.545614 0 120 255
177.481358 -232.094169 -139.848778 0 120 255
175.681558 -232.040849 -138.151942 0 120 255
173.881757 -231.987529 -136.455106 0 120 255
172.078649 -231.934026 -134.762282 0 120 255
170.072252 -231.869257 -133.316061 0 120 255
168.065856 -231.804489 -131.869840 0 120 255
166.059459 -231.739720 -130.423618 0 120 255
164.053063 -231.674951 -128.977397 0 120 255
161.883581 -231.599896 -127.791412 0 120 255
159.709726 -231.524566 -126.612404 0 120 255
157.535872 -231.449235 -125.433396 0 120 255
155.362017 -231.373904 -124.254388 0 120 255
153.068269 -231.290528 -123.333963 0 120 255
150.765732 -231.206562 -122.432491 0 120 255
148.463195 -231.122597 -121.531019 0 120 255
146.160658 -231.038631 -120.629547 0 120 255
143.777015 -230.949856 -119.979091 0 120 255
141.383293 -230.860484 -119.359830 0 120 255
138.989571 -230.771112 -118.740570 0 120 255
136.595848 -230.681740 -118.121309 0 120 255
134.154974 -230.591221 -117.741032 0 120 255
131.705593 -230.500495 -117.403865 0 120 255
129.256212 -230.409770 -117.066698 0 120 255
126.806832 -230.319044 -116.729531 0 120 255
124.339414 -230.228656 -116.616287 0 120 255
121.867624 -230.138350 -116.557318 0 120 255
119.395834 -230.048044 -116.498349 0 120 255
116.924044 -229.957738 -116.439379 0 120 255
114.458623 -229.868484 -116.587055 0 120 255
111.995185 -229.779558 -116.799044 0 120 255
109.531746 -229.690633 -117.011033 0 120 255
107.068307 -229.601707 -117.223023 0 120 255
104.631156 -229.514435 -117.623095 0 120 255
102.204208 -229.427804 -118.096167 0 120 255
99.777261 -229.341174 -118.569240 0 120 255
97.350313 -229.254544 -119.042313 0 120 255
94.965455 -229.170067 -119.684411 0 120 255
92.600572 -229.086613 -120.406730 0 120 255
90.235690 -229.003159 -121.129049 0 120 255
87.870807 -228.919704 -121.851367 0 120 255
85.560100 -228.838779 -122.723662 0 120 255
83.280408 -228.759301 -123.681820 0 120 255
81.000717 -228.679822 -124.639978 0 120 255
78.721025 -228.600344 -125.598136 0 120 255
76.504283 -228.523628 -126.687643 0 120 255
74.330618 -228.448802 -127.867032 0 120 255
72.156952 -228.373975 -129.046421 0 120 255
69.983287 -228.299149 -130.225809 0 120 255
67.878425 -228.227253 -131.518652 0 120 255
65.829509 -228.157740 -132.903747 0 120 255
63.780592 -228.088227 -134.288841 0 120 255
61.731675 -228.018714 -135.673935 0 120 255
59.754862 -227.952182 -137.155547 0 120 255
57.847496 -227.888523 -138.730120 0 120 255
55.940130 -227.824864 -140.304693 0 120 255
54.032765 -227.761205 -141.879266 0 120 255
52.198580 -227.700516 -143.534537 0 120 255
50.447834 -227.643212 -145.281815 0 120 255
48.697087 -227.585909 -147.029093 0 120 255
46.946340 -227.528605 -148.776371 0 120 255
45.267898 -227.474179 -150.589728 0 120 255
43.687212 -227.423642 -152.492425 0 120 255
42.106526 -227.373105 -154.395122 0 120 255
40.525840 -227.322568 -156.297819 0 120 255
39.014839 -227.274768 -158.253238 0 120 255
37.616043 -227.231373 -160.293548 0 120 255
36.217248 -227.187979 -162.333858 0 120 255
34.818452 -227.144584 -164.374168 0 120 255
33.485221 -227.103730 -166.455198 0 120 255
32.278636 -227.067783 -168.614883 0 120 255
31.072052 -227.031836 -170.774568 0 120 255
29.865468 -226.995888 -172.934253 0 120 255
28.719010 -226.962244 -175.124064 0 120 255
27.713429 -226.933995 -177.384459 0 120 255
26.707848 -226.905746 -179.644854 0 120 255
25.702266 -226.877497 -181.905249 0 120 255
24.750238 -226.851277 -184.186644 0 120 255
23.952879 -226.830919 -186.528691 0 120 255
23.155520 -226.810560 -188.870738 0 120 255
22.358162 -226.790202 -191.212784 0 120 255
21.606828 -226.771570 -193.568234 0 120 255
21.023249 -226.759233 -195.972534 0 120 255
20.439670 -226.746896 -198.376835 0 120 255
19.856091 -226.734558 -200.781135 0 120 255
19.310243 -226.723623 -203.192826 0 120 255
18.944213 -226.719371 -205.639739 0 120 255
18.578183 -226.715119 -208.086652 0 120 255
18.212153 -226.710867 -210.533564 0 120 255
17.875008 -226.707678 -212.983488 0 120 255
17.728456 -226.711501 -215.453283 0 120 255
17.581904 -226.715324 -217.923078 0 120 255
17.435353 -226.719147 -220.392872 0 120 255
17.308512 -226.723687 -222.862958 0 120 255
17.381446 -226.735490 -225.335997 0 120 255
17.454380 -226.747293 -227.809035 0 120 255
17.527314 -226.759097 -230.282074 0 120 255
17.610693 -226.771277 -232.754340 0 120 255
17.901099 -226.790938 -235.211301 0 120 255
18.191505 -226.810599 -237.668261 0 120 255
18.481911 -226.830260 -240.125222 0 120 255
18.773655 -226.849968 -242.581964 0 120 255
19.277592 -226.877265 -245.004087 0 120 255
19.781530 -226.904563 -247.426210 0 120 255
20.285467 -226.931860 -249.848333 0 120 255
20.789405 -226.959158 -252.270456 0 120 255
21.493593 -226.993563 -254.641688 0 120 255
22.205153 -227.028230 -257.011046 0 120 255
22.916712 -227.062897 -259.380404 0 120 255
23.628272 -227.097564 -261.749763 0 120 255
24.524324 -227.138708 -264.054882 0 120 255
25.435822 -227.180395 -266.354624 0 120 255
26.347319 -227.222081 -268.654366 0 120 255
27.258816 -227.263768 -270.954108 0 120 255
28.338259 -227.311296 -273.178821 0 120 255
29.440389 -227.359612 -275.393398 0 120 255
30.542519 -227.407929 -277.607975 0 120 255
31.644650 -227.456246 -279.822553 0 120 255
32.897672 -227.509746 -281.953927 0 120 255
34.179602 -227.564239 -284.069362 0 120 255
35.461531 -227.618731 -286.184797 0 120 255
36.743461 -227.673224 -288.300232 0 120 255
38.159157 -227.732259 -290.326840 0 120 255
39.608834 -227.792447 -292.330884 0 120 255
41.058512 -227.852635 -294.334927 0 120 255
42.508189 -227.912823 -296.338971 0 120 255
44.074784 -227.976930 -298.251007 0 120 255
45.679191 -228.042304 -300.133289 0 120 255
47.283597 -228.107678 -302.015571 0 120 255
48.888003 -228.173052 -303.897853 0 120 255
50.593074 -228.241763 -305.687227 0 120 255
52.338507 -228.311811 -307.439350 0 120 255
54.083940 -228.381859 -309.191473 0 120 255
55.829373 -228.451907 -310.943596 0 120 255
57.660106 -228.524772 -312.603963 0 120 255
59.532485 -228.599013 -314.219532 0 120 255
61.404864 -228.673253 -315.835101 0 120 255
63.277243 -228.747494 -317.450670 0 120 255
65.220676 -228.824199 -318.977420 0 120 255
67.205827 -228.902350 -320.452020 0 120 255
69.190978 -228.980501 -321.926620 0 120 255
71.176129 -229.058652 -323.401220 0 120 255
73.219350 -229.138740 -324.791496 0 120 255
75.303235 -229.220185 -326.122723 0 120 255
77.387120 -229.301631 -327.453951 0 120 255
79.471006 -229.383076 -328.785178 0 120 255
81.601182 -229.465035 -330.038235 0 120 255
83.769822 -229.547421 -331.226339 0 120 255
85.938462 -229.629808 -332.414443 0 120 255
88.107102 -229.712194 -333.602547 0 120 255
90.311140 -229.789233 -334.721329 0 120 255
92.549987 -229.861013 -335.771944 0 120 255
94.788833 -229.932794 -336.822558 0 120 255
97.027680 -230.004575 -337.873172 0 120 255
99.292909 -230.066270 -338.863720 0 120 255
101.588836 -230.116231 -339.784372 0 120 255
103.884763 -230.166191 -340.705023 0 120 255
106.180691 -230.216151 -341.625674 0 120 255
108.495733 -230.253339 -342.495301 0 120 255
110.837157 -230.272898 -343.294508 0 120 255
113.178580 -230.292458 -344.093715 0 120 255
115.520004 -230.312018 -344.892921 0 120 255
117.874771 -230.317633 -345.649794 0 120 255
120.251488 -230.300311 -346.337031 0 120 255
122.628204 -230.282989 -347.024269 0 120 255
125.004921 -230.265667 -347.711506 0 120 255
127.390531 -230.234499 -348.364515 0 120 255
129.793717 -230.175968 -348.949879 0 120 255
132.196902 -230.117437 -349.535243 0 120 255
134.600088 -230.058906 -350.120607 0 120 255
137.008850 -229.987630 -350.679149 0 120 255
139.431011 -229.885731 -351.173247 0 120 255
141.853171 -229.783832 -351.667344 0 120 255
144.275332 -229.681933 -352.161442 0 120 255
146.700724 -229.569132 -352.635280 0 120 255
149.135721 -229.423926 -353.048901 0 120 255
151.570718 -229.278720 -353.462522 0 120 255
154.005715 -229.133514 -353.876143 0 120 255
156.442391 -228.979694 -354.275188 0 120 255
158.885398 -228.793384 -354.619257 0 120 255
161.328405 -228.607075 -354.963325 0 120 255
163.771412 -228.420766 -355.307394 0 120 255
166.215151 -228.228545 -355.641977 0 120 255
168.662528 -228.006912 -355.929379 0 120 255
171.109906 -227.785279 -356.216782 0 120 255
173.557283 -227.563646 -356.504184 0 120 255
176.004629 -227.340785 -356.790879 0 120 255
178.451756 -227.109356 -357.072640 0 120 255
180.898882 -226.877927 -357.354402 0 120 255
183.346009 -226.646497 -357.636164 0 120 255
185.793135 -226.415067 -357.917927 0 120 255
188.240259 -226.183627 -358.199701 0 120 255
190.687384 -225.952186 -358.481475 0 120 255
193.134508 -225.720746 -358.763250 0 120 255
195.581632 -225.489306 -359.045024 0 120 255
198.028757 -225.257869 -359.326790 0 120 255
200.475883 -225.026433 -359.608557 0 120 255
202.923008 -224.794997 -359.890324 0 120 255
205.370133 -224.563560 -360.172091 0 120 255
