ply
format ascii 1.0
element vertex 385
property float x
property float y
property float z
property uchar red
property uchar green
property uchar blue
end_header
77.430455 -42.474882 -360.397637 0 120 255
77.187533 -42.528716 -357.935732 0 120 255
76.944610 -42.582550 -355.473827 0 120 255
76.701688 -42.636383 -353.011923 0 120 255
76.458765 -42.690217 -350.550018 0 120 255
76.222438 -42.753543 -348.087698 0 120 255
75.986395 -42.817278 -345.625361 0 120 255
75.750352 -42.881012 -343.163023 0 120 255
75.514309 -42.944747 -340.700686 0 120 255
75.288689 -43.099612 -338.241577 0 120 255
75.064029 -43.262882 -335.782765 0 120 255
74.839369 -43.426151 -333.323953 0 120 255
74.614709 -43.589421 -330.865141 0 120 255
74.391448 -43.823481 -328.412082 0 120 255
74.168397 -44.068130 -325.959883 0 120 255
73.945345 -44.312779 -323.507685 0 120 255
73.722293 -44.557427 -321.055486 0 120 255
73.497980 -44.863341 -318.610455 0 120 255
73.273399 -45.182319 -316.166954 0 120 255
73.048818 -45.501298 -313.723452 0 120 255
72.824236 -45.820277 -311.279951 0 120 255
72.595842 -46.192093 -308.844452 0 120 255
72.366363 -46.578935 -306.411228 0 120 255
72.136884 -46.965777 -303.978005 0 120 255
71.907404 -47.352619 -301.544781 0 120 255
71.671704 -47.784890 -299.119976 0 120 255
71.433738 -48.233710 -296.698238 0 120 255
71.195772 -48.682530 -294.276499 0 120 255
70.957806 -49.131349 -291.854761 0 120 255
70.711389 -49.619121 -289.441571 0 120 255
70.461130 -50.124601 -287.032267 0 120 255
70.210872 -50.630081 -284.622963 0 120 255
69.960613 -51.135562 -282.213660 0 120 255
69.699901 -51.674356 -279.812848 0 120 255
69.433361 -52.231728 -277.416773 0 120 255
69.166820 -52.789100 -275.020698 0 120 255
68.900279 -53.346473 -272.624623 0 120 255
68.621526 -53.932275 -270.236879 0 120 255
68.334515 -54.537304 -267.854769 0 120 255
68.047503 -55.142332 -265.472658 0 120 255
67.760491 -55.747361 -263.090548 0 120 255
67.459785 -56.376600 -260.716557 0 120 255
67.147930 -57.025550 -258.349176 0 120 255
66.836074 -57.674500 -255.981794 0 120 255
66.524219 -58.323449 -253.614413 0 120 255
66.197495 -58.992973 -251.254925 0 120 255
65.856256 -59.682582 -248.903143 0 120 255
65.515016 -60.372192 -246.551361 0 120 255
65.173776 -61.061802 -244.199579 0 120 255
64.816825 -61.768853 -241.855473 0 120 255
64.441491 -62.496309 -239.520346 0 120 255
64.066156 -63.223765 -237.185220 0 120 255
63.690822 -63.951221 -234.850093 0 120 255
63.299291 -64.693417 -232.522438 0 120 255
62.885004 -65.456322 -230.205279 0 120 255
62.470716 -66.219228 -227.888120 0 120 255
62.056428 -66.982133 -225.570961 0 120 255
61.625841 -67.757439 -223.261074 0 120 255
61.167606 -68.553780 -220.963522 0 120 255
60.709372 -69.350121 -218.665970 0 120 255
60.251137 -70.146462 -216.368417 0 120 255
59.776902 -70.953166 -214.077924 0 120 255
59.269602 -71.781287 -211.802019 0 120 255
58.762302 -72.609409 -209.526113 0 120 255
58.255002 -73.437530 -207.250207 0 120 255
57.732429 -74.274216 -204.981098 0 120 255
57.170866 -75.132769 -202.729340 0 120 255
56.609302 -75.991322 -200.477581 0 120 255
56.047738 -76.849875 -198.225822 0 120 255
55.472068 -77.715390 -195.980507 0 120 255
54.850975 -78.603322 -193.755938 0 120 255
54.229883 -79.491254 -191.531370 0 120 255
53.608791 -80.379186 -189.306801 0 120 255
52.975213 -81.272621 -187.088173 0 120 255
52.289316 -82.189117 -184.894441 0 120 255
51.603418 -83.105612 -182.700708 0 120 255
50.917520 -84.022108 -180.506975 0 120 255
50.221219 -84.942755 -178.318463 0 120 255
49.465277 -85.887201 -176.159885 0 120 255
48.709336 -86.831647 -174.001308 0 120 255
47.953394 -87.776093 -171.842730 0 120 255
47.189589 -88.723416 -169.688359 0 120 255
46.358463 -89.695367 -167.570005 0 120 255
45.527337 -90.667319 -165.451651 0 120 255
44.696211 -91.639271 -163.333297 0 120 255
43.860206 -92.612876 -161.217750 0 120 255
42.948949 -93.611989 -159.145488 0 120 255
42.037693 -94.611102 -157.073226 0 120 255
41.126436 -95.610215 -155.000964 0 120 255
40.213704 -96.609795 -152.929622 0 120 255
39.217626 -97.635794 -150.910206 0 120 255
38.221548 -98.661793 -148.890791 0 120 255
37.225470 -99.687792 -146.871375 0 120 255
36.229392 -100.713791 -144.851960 0 120 255
35.146514 -101.765698 -142.891490 0 120 255
34.061336 -102.818291 -140.932582 0 120 255
32.976157 -103.870884 -138.973674 0 120 255
31.890979 -104.923477 -137.014767 0 120 255
30.719320 -106.000505 -135.120246 0 120 255
29.541275 -107.079338 -133.230481 0 120 255
28.363231 -108.158171 -131.340715 0 120 255
27.185186 -109.237004 -129.450949 0 120 255
25.921876 -110.338713 -127.631175 0 120 255
24.647874 -111.443291 -125.820178 0 120 255
23.373872 -112.547869 -124.009181 0 120 255
22.099871 -113.652447 -122.198184 0 120 255
20.742771 -114.778210 -120.462831 0 120 255
19.370573 -115.907821 -118.741223 0 120 255
17.998375 -117.037433 -117.019615 0 120 255
16.626177 -118.167044 -115.298006 0 120 255
15.174049 -119.315975 -113.657606 0 120 255
13.702467 -120.469607 -112.036970 0 120 255
12.230884 -121.623240 -110.416334 0 120 255
10.759302 -122.776873 -108.795698 0 120 255
9.211968 -123.947760 -107.261601 0 120 255
7.641055 -125.124019 -105.754440 0 120 255
6.070143 -126.300277 -104.247279 0 120 255
4.499230 -127.476535 -102.740118 0 120 255
2.857777 -128.667769 -101.324406 0 120 255
1.189080 -129.864786 -99.944014 0 120 255
-0.479618 -131.061804 -98.563622 0 120 255
-2.148315 -132.258821 -97.183230 0 120 255
-3.881348 -133.468324 -95.898604 0 120 255
-5.644583 -134.683687 -94.658936 0 120 255
-7.407818 -135.899050 -93.419267 0 120 255
-9.171053 -137.114414 -92.179599 0 120 255
-10.991482 -138.339568 -91.039211 0 120 255
-12.844070 -139.570228 -89.954647 0 120 255
-14.696658 -140.800888 -88.870083 0 120 255
-16.549246 -142.031548 -87.785519 0 120 255
-18.451052 -143.269137 -86.802750 0 120 255
-20.385661 -144.511344 -85.887822 0 120 255
-22.320270 -145.753552 -84.972895 0 120 255
-24.254880 -146.995759 -84.057967 0 120 255
-26.230044 -148.241928 -83.246160 0 120 255
-28.237011 -149.491204 -82.515217 0 120 255
-30.243978 -150.740480 -81.784273 0 120 255
-32.250945 -151.989756 -81.053330 0 120 255
-34.289318 -153.239976 -80.425472 0 120 255
-36.356527 -154.491062 -79.892264 0 120 255
-38.423737 -155.742149 -79.359057 0 120 255
-40.490947 -156.993236 -78.825849 0 120 255
-42.580163 -158.242294 -78.394181 0 120 255
-44.692973 -159.489176 -78.071378 0 120 255
-46.805783 -160.736058 -77.748575 0 120 255
-48.918593 -161.982941 -77.425772 0 120 255
-51.044052 -163.224960 -77.201374 0 120 255
-53.185334 -164.460894 -77.100076 0 120 255
-55.326616 -165.696829 -76.998779 0 120 255
-57.467898 -166.932764 -76.897482 0 120 255
-59.612822 -168.161264 -76.889830 0 120 255
-61.763068 -169.378900 -77.019011 0 120 255
-63.913314 -170.596537 -77.148193 0 120 255
-66.063560 -171.814173 -77.277375 0 120 255
-68.209143 -173.022161 -77.493869 0 120 255
-70.346745 -174.213628 -77.859862 0 120 255
-72.484346 -175.405096 -78.225855 0 120 255
-74.621947 -176.596563 -78.591848 0 120 255
-76.747616 -177.776654 -79.037371 0 120 255
-78.849211 -178.933795 -79.643347 0 120 255
-80.950806 -180.090935 -80.249324 0 120 255
-83.052402 -181.248076 -80.855300 0 120 255
-85.136162 -182.392680 -81.531795 0 120 255
-87.177163 -183.507227 -82.377362 0 120 255
-89.218164 -184.621774 -83.222929 0 120 255
-91.259165 -185.736321 -84.068496 0 120 255
-93.278076 -186.837815 -84.974648 0 120 255
-95.233273 -187.901662 -86.055536 0 120 255
-97.188470 -188.965509 -87.136423 0 120 255
-99.143667 -190.029356 -88.217311 0 120 255
-101.074379 -191.080325 -89.348298 0 120 255
-102.918637 -192.085823 -90.656187 0 120 255
-104.762895 -193.091320 -91.964075 0 120 255
-106.607153 -194.096817 -93.271963 0 120 255
-108.426527 -195.090306 -94.619345 0 120 255
-110.135538 -196.030538 -96.141886 0 120 255
-111.844549 -196.970769 -97.664427 0 120 255
-113.553559 -197.911000 -99.186968 0 120 255
-115.239312 -198.840749 -100.738733 0 120 255
-116.790358 -199.709787 -102.459754 0 120 255
-118.341404 -200.578825 -104.180776 0 120 255
-119.892449 -201.447863 -105.901797 0 120 255
-121.423805 -202.308527 -107.642561 0 120 255
-122.796478 -203.101711 -109.542433 0 120 255
-124.169150 -203.894895 -111.442305 0 120 255
-125.541822 -204.688079 -113.342177 0 120 255
-126.900127 -205.475462 -115.253518 0 120 255
-128.076933 -206.189571 -117.309743 0 120 255
-129.253739 -206.903680 -119.365968 0 120 255
-130.430545 -207.617788 -121.422193 0 120 255
-131.599778 -208.328986 -123.483167 0 120 255
-132.566661 -208.962398 -125.671045 0 120 255
-133.533545 -209.595810 -127.858923 0 120 255
-134.500428 -210.229223 -130.046801 0 120 255
-135.467311 -210.862635 -132.234679 0 120 255
-136.214290 -211.415501 -134.527962 0 120 255
-136.960937 -211.968245 -136.821404 0 120 255
-137.707584 -212.520989 -139.114845 0 120 255
-138.454232 -213.073733 -141.408287 0 120 255
-138.983177 -213.550621 -143.777519 0 120 255
-139.503186 -214.024396 -146.149863 0 120 255
-140.023195 -214.498171 -148.522206 0 120 255
-140.543205 -214.971946 -150.894549 0 120 255
-140.851857 -215.375922 -153.315302 0 120 255
-141.142695 -215.774015 -155.740136 0 120 255
-141.433533 -216.172108 -158.164970 0 120 255
-141.724370 -216.570201 -160.589804 0 120 255
-141.813769 -216.905650 -163.038564 0 120 255
-141.876617 -217.232842 -165.490477 0 120 255
-141.939465 -217.560035 -167.942391 0 120 255
-142.002313 -217.887227 -170.394304 0 120 255
-141.876434 -218.159675 -172.849033 0 120 255
-141.715781 -218.422036 -175.304281 0 120 255
-141.555129 -218.684397 -177.759529 0 120 255
-141.394477 -218.946758 -180.214776 0 120 255
-141.059933 -219.162728 -182.655354 0 120 255
-140.683233 -219.367450 -185.092374 0 120 255
-140.306532 -219.572173 -187.529395 0 120 255
-139.929831 -219.776896 -189.966415 0 120 255
-139.395417 -219.943734 -192.374966 0 120 255
-138.812531 -220.098928 -194.774766 0 120 255
-138.229645 -220.254123 -197.174567 0 120 255
-137.646759 -220.409317 -199.574368 0 120 255
-136.923004 -220.535000 -201.935474 0 120 255
-136.145703 -220.649465 -204.281872 0 120 255
-135.368401 -220.763930 -206.628270 0 120 255
-134.591099 -220.878395 -208.974668 0 120 255
-133.689835 -220.971373 -211.275469 0 120 255
-132.731271 -221.054419 -213.555193 0 120 255
-131.772707 -221.137465 -215.834918 0 120 255
-130.814144 -221.220511 -218.114642 0 120 255
-129.748277 -221.291365 -220.344878 0 120 255
-128.622804 -221.355446 -222.547624 0 120 255
-127.497331 -221.419526 -224.750369 0 120 255
-126.371857 -221.483607 -226.953115 0 120 255
-125.155322 -221.544401 -229.105331 0 120 255
-123.878434 -221.603016 -231.224058 0 120 255
-122.601546 -221.661632 -233.342786 0 120 255
-121.324659 -221.720247 -235.461513 0 120 255
-119.971171 -221.778981 -237.530556 0 120 255
-118.557342 -221.837807 -239.560460 0 120 255
-117.143512 -221.896634 -241.590364 0 120 255
-115.729683 -221.955461 -243.620268 0 120 255
-114.251744 -222.015542 -245.602438 0 120 255
-112.713900 -222.076797 -247.540006 0 120 255
-111.176056 -222.138051 -249.477573 0 120 255
-109.638212 -222.199306 -251.415140 0 120 255
-108.047391 -222.262629 -253.307977 0 120 255
-106.397843 -222.328245 -255.151227 0 120 255
-104.748296 -222.393862 -256.994477 0 120 255
-103.098748 -222.459478 -258.837728 0 120 255
-101.405847 -222.526808 -260.639873 0 120 255
-99.655791 -222.596397 -262.387827 0 120 255
-97.905734 -222.665986 -264.135781 0 120 255
-96.155677 -222.735575 -265.883735 0 120 255
-94.370629 -222.806462 -267.594691 0 120 255
-92.530443 -222.879394 -269.247350 0 120 255
-90.690256 -222.952327 -270.900008 0 120 255
-88.850070 -223.025259 -272.552667 0 120 255
-86.982120 -223.099163 -274.172761 0 120 255
-85.061460 -223.174914 -275.731033 0 120 255
-83.140800 -223.250664 -277.289304 0 120 255
-81.220140 -223.326414 -278.847576 0 120 255
-79.277901 -223.402880 -280.377889 0 120 255
-77.285714 -223.481003 -281.843485 0 120 255
-75.293527 -223.559127 -283.309081 0 120 255
-73.301340 -223.637250 -284.774677 0 120 255
-71.292813 -223.715899 -286.216963 0 120 255
-69.237362 -223.796059 -287.592310 0 120 255
-67.181910 -223.876218 -288.967656 0 120 255
-65.126459 -223.956378 -290.343003 0 120 255
-63.059038 -224.036910 -291.699602 0 120 255
-60.947864 -224.118806 -292.987670 0 120 255
-58.836689 -224.200702 -294.275738 0 120 255
-56.725515 -224.282597 -295.563806 0 120 255
-54.605967 -224.364747 -296.837508 0 120 255
-52.445905 -224.448127 -298.041693 0 120 255
-50.285842 -224.531508 -299.245878 0 120 255
-48.125780 -224.614888 -300.450063 0 120 255
-45.960265 -224.698429 -301.644021 0 120 255
-43.757512 -224.783072 -302.768120 0 120 255
-41.554759 -224.867714 -303.892219 0 120 255
-39.352006 -224.952356 -305.016317 0 120 255
-37.146130 -225.037088 -306.134023 0 120 255
-34.906238 -225.122797 -307.182078 0 120 255
-32.666345 -225.208507 -308.230133 0 120 255
-30.426453 -225.294216 -309.278189 0 120 255
-28.185260 -225.379962 -310.323342 0 120 255
-25.913188 -225.466574 -311.299596 0 120 255
-23.641116 -225.553186 -312.275850 0 120 255
-21.369044 -225.639797 -313.252105 0 120 255
-19.096973 -225.726409 -314.228359 0 120 255
-16.797232 -225.813769 -315.137439 0 120 255
-14.497400 -225.901130 -316.046299 0 120 255
-12.197568 -225.988492 -316.955159 0 120 255
-9.897737 -226.075854 -317.864018 0 120 255
-7.575172 -226.163812 -318.712922 0 120 255
-5.251486 -226.251798 -319.558869 0 120 255
-2.927800 -226.339785 -320.404816 0 120 255
-0.604114 -226.427771 -321.250763 0 120 255
1.738134 -226.516217 -322.043618 0 120 255
4.082234 -226.604708 -322.831175 0 120 255
6.426335 -226.693200 -323.618732 0 120 255
8.770436 -226.781691 -324.406289 0 120 255
11.129588 -226.870529 -325.147248 0 120 255
13.491079 -226.959421 -325.880967 0 120 255
15.852570 -227.048313 -326.614685 0 120 255
18.214061 -227.137205 -327.348403 0 120 255
20.587668 -227.226340 -328.041613 0 120 255
22.963904 -227.315527 -328.726035 0 120 255
25.340139 -227.404715 -329.410457 0 120 255
27.716375 -227.493902 -330.094879 0 120 255
30.102296 -227.583227 -330.744428 0 120 255
32.490981 -227.672590 -331.384022 0 120 255
34.879666 -227.761954 -332.023616 0 120 255
37.268351 -227.851318 -332.663211 0 120 255
39.664713 -227.940695 -333.273133 0 120 255
42.063855 -228.030075 -333.872311 0 120 255
44.462997 -228.119456 -334.471489 0 120 255
46.862138 -228.208837 -335.070667 0 120 255
49.267322 -228.298030 -335.644885 0 120 255
51.675215 -228.387138 -336.207908 0 120 255
54.083108 -228.476247 -336.770931 0 120 255
56.491001 -228.565355 -337.333954 0 120 255
58.903633 -228.653772 -337.876195 0 120 255
61.318855 -228.741811 -338.407076 0 120 255
63.734077 -228.829851 -338.937958 0 120 255
66.149299 -228.917890 -339.468840 0 120 255
68.568379 -229.003292 -339.982088 0 120 255
70.990001 -229.086957 -340.483716 0 120 255
73.411623 -229.170623 -340.985345 0 120 255
75.833245 -229.254288 -341.486973 0 120 255
78.258198 -229.331972 -341.972999 0 120 255
80.685780 -229.404939 -342.446717 0 120 255
83.113361 -229.477906 -342.920434 0 120 255
85.540943 -229.550873 -343.394152 0 120 255
87.971345 -229.615433 -343.854161 0 120 255
90.404402 -229.672084 -344.301274 0 120 255
92.837459 -229.728734 -344.748387 0 120 255
95.270515 -229.785385 -345.195501 0 120 255
97.705843 -229.832411 -345.630918 0 120 255
100.143716 -229.868650 -346.053226 0 120 255
102.581590 -229.904889 -346.475535 0 120 255
105.019463 -229.941128 -346.897844 0 120 255
107.459110 -229.966934 -347.310222 0 120 255
109.901131 -229.978789 -347.709321 0 120 255
112.343151 -229.990644 -348.108419 0 120 255
114.785172 -230.002499 -348.507517 0 120 255
117.228511 -230.003507 -348.898252 0 120 255
119.673964 -229.987130 -349.275582 0 120 255
122.119416 -229.970753 -349.652912 0 120 255
124.564869 -229.954375 -350.030241 0 120 255
127.011224 -229.927109 -350.400593 0 120 255
129.459328 -229.878759 -350.757432 0 120 255
131.907432 -229.830408 -351.114271 0 120 255
134.355535 -229.782057 -351.471110 0 120 255
136.804170 -229.723138 -351.822191 0 120 255
139.254061 -229.639194 -352.159638 0 120 255
141.703952 -229.555250 -352.497085 0 120 255
144.153844 -229.471306 -352.834531 0 120 255
146.603941 -229.377460 -353.167316 0 120 255
149.054647 -229.254433 -353.486360 0 120 255
151.505353 -229.131405 -353.805403 0 120 255
153.956059 -229.008378 -354.124447 0 120 255
156.406707 -228.876440 -354.439803 0 120 255
158.857138 -228.710932 -354.741268 0 120 255
161.307569 -228.545424 -355.042732 0 120 255
163.757999 -228.379917 -355.344197 0 120 255
166.208070 -228.206060 -355.643251 0 120 255
168.656332 -227.990313 -355.930214 0 120 255
171.104595 -227.774566 -356.217177 0 120 255
173.552857 -227.558820 -356.504140 0 120 255
176.001016 -227.341127 -356.790463 0 120 255
178.448444 -227.109669 -357.072259 0 120 255
180.895872 -226.878211 -357.354056 0 120 255
183.343299 -226.646754 -357.635852 0 120 255
185.790727 -226.415295 -357.917650 0 120 255
188.238152 -226.183826 -358.199459 0 120 255
190.685577 -225.952357 -358.481267 0 120 255
193.133002 -225.720888 -358.763076 0 120 255
195.580428 -225.489420 -359.044885 0 120 255
198.027854 -225.257955 -359.326687 0 120 255
200.475280 -225.026490 -359.608488 0 120 255
202.922707 -224.795025 -359.890289 0 120 255
205.370133 -224.563560 -360.172091 0 120 255
