ply
format ascii 1.0
element vertex 385
property float x
property float y
property float z
property uchar red
property uchar green
property uchar blue
end_header
77.430455 -42.474882 -360.397637 0 120 255
77.187540 -42.528714 -357.935808 0 120 255
76.944625 -42.582546 -355.473980 0 120 255
76.701710 -42.636378 -353.012151 0 120 255
76.458795 -42.690211 -350.550323 0 120 255
76.250576 -42.717820 -348.084901 0 120 255
76.043858 -42.744296 -345.619324 0 120 255
75.837139 -42.770772 -343.153747 0 120 255
75.630420 -42.797249 -340.688169 0 120 255
75.429880 -42.796546 -338.221955 0 120 255
75.229949 -42.793168 -335.755679 0 120 255
75.030017 -42.789791 -333.289402 0 120 255
74.830085 -42.786413 -330.823125 0 120 255
74.602458 -42.782952 -328.359277 0 120 255
74.370130 -42.779476 -325.895841 0 120 255
74.137802 -42.776001 -323.432406 0 120 255
73.905474 -42.772525 -320.968970 0 120 255
73.644503 -42.771167 -318.508444 0 120 255
73.376354 -42.770340 -316.048647 0 120 255
73.108205 -42.769513 -313.588850 0 120 255
72.840056 -42.768685 -311.129053 0 120 255
72.542671 -42.771919 -308.672683 0 120 255
72.235259 -42.776545 -306.217489 0 120 255
71.927847 -42.781171 -303.762294 0 120 255
71.620435 -42.785798 -301.307099 0 120 255
71.283546 -42.796170 -298.855877 0 120 255
70.933407 -42.809125 -296.406440 0 120 255
70.583267 -42.822079 -293.957004 0 120 255
70.233128 -42.835034 -291.507567 0 120 255
69.853634 -42.855151 -289.062665 0 120 255
69.457304 -42.879375 -286.620362 0 120 255
69.060974 -42.903600 -284.178060 0 120 255
68.664644 -42.927824 -281.735758 0 120 255
68.239438 -42.960358 -279.298551 0 120 255
67.793451 -42.998872 -276.865011 0 120 255
67.347464 -43.037386 -274.431471 0 120 255
66.901477 -43.075901 -271.997931 0 120 255
66.427451 -43.123592 -269.570026 0 120 255
65.928348 -43.179491 -267.147161 0 120 255
65.429244 -43.235390 -264.724295 0 120 255
64.930141 -43.291289 -262.301430 0 120 255
64.404203 -43.356948 -259.884689 0 120 255
63.848571 -43.433406 -257.474724 0 120 255
63.292939 -43.509865 -255.064759 0 120 255
62.737306 -43.586323 -252.654793 0 120 255
62.156391 -43.672828 -250.251361 0 120 255
61.540850 -43.773092 -247.856876 0 120 255
60.925308 -43.873355 -245.462390 0 120 255
60.309766 -43.973619 -243.067905 0 120 255
59.670845 -44.083917 -240.680241 0 120 255
58.992092 -44.211311 -238.304201 0 120 255
58.313338 -44.338705 -235.928160 0 120 255
57.634585 -44.466100 -233.552119 0 120 255
56.934696 -44.603207 -231.183027 0 120 255
56.189535 -44.761120 -228.828817 0 120 255
55.444375 -44.919033 -226.474607 0 120 255
54.699214 -45.076946 -224.120397 0 120 255
53.935481 -45.243940 -221.773052 0 120 255
53.120853 -45.435822 -219.444519 0 120 255
52.306225 -45.627705 -217.115986 0 120 255
51.491597 -45.819587 -214.787453 0 120 255
50.661260 -46.019603 -212.465437 0 120 255
49.774288 -46.248945 -210.166918 0 120 255
48.887315 -46.478288 -207.868400 0 120 255
48.000343 -46.707630 -205.569881 0 120 255
47.100797 -46.943845 -203.277212 0 120 255
46.138830 -47.214173 -201.013576 0 120 255
45.176863 -47.484501 -198.749940 0 120 255
44.214896 -47.754828 -196.486304 0 120 255
43.243720 -48.030455 -194.227467 0 120 255
42.204391 -48.345298 -192.004142 0 120 255
41.165061 -48.660141 -189.780817 0 120 255
40.125732 -48.974984 -187.557493 0 120 255
39.080743 -49.293252 -185.337471 0 120 255
37.962031 -49.656124 -183.160475 0 120 255
36.843320 -50.018996 -180.983478 0 120 255
35.724609 -50.381868 -178.806482 0 120 255
34.603911 -50.746003 -176.630784 0 120 255
33.404220 -51.160360 -174.506742 0 120 255
32.204530 -51.574717 -172.382700 0 120 255
31.004839 -51.989074 -170.258657 0 120 255
29.805148 -52.403431 -168.134615 0 120 255
28.525115 -52.871479 -166.069507 0 120 255
27.243342 -53.340691 -164.005675 0 120 255
25.961568 -53.809902 -161.941843 0 120 255
24.679795 -54.279113 -159.878011 0 120 255
23.320863 -54.802579 -157.877791 0 120 255
21.956497 -55.329867 -155.882051 0 120 255
20.592130 -55.857155 -153.886311 0 120 255
19.227764 -56.384442 -151.890572 0 120 255
17.789973 -56.966165 -149.963069 0 120 255
16.343181 -57.554562 -148.043932 0 120 255
14.896389 -58.142958 -146.124795 0 120 255
13.449597 -58.731355 -144.205658 0 120 255
11.933659 -59.373966 -142.359265 0 120 255
10.405390 -60.026246 -140.525845 0 120 255
8.877121 -60.678525 -138.692424 0 120 255
7.348853 -61.330804 -136.859003 0 120 255
5.756244 -62.036668 -135.102649 0 120 255
4.148336 -62.755273 -133.364621 0 120 255
2.540428 -63.473879 -131.626593 0 120 255
0.932520 -64.192485 -129.888564 0 120 255
-0.734418 -64.963633 -128.231672 0 120 255
-2.419133 -65.750604 -126.599216 0 120 255
-4.103848 -66.537575 -124.966759 0 120 255
-5.788564 -67.324547 -123.334302 0 120 255
-7.526526 -68.162607 -121.786728 0 120 255
-9.284112 -69.019496 -120.270438 0 120 255
-11.041698 -69.876386 -118.754148 0 120 255
-12.799284 -70.733275 -117.237857 0 120 255
-14.603909 -71.639383 -115.809805 0 120 255
-16.429235 -72.567151 -114.420583 0 120 255
-18.254561 -73.494920 -113.031362 0 120 255
-20.079887 -74.422688 -111.642140 0 120 255
-21.945660 -75.397414 -110.344050 0 120 255
-23.832296 -76.396359 -109.092963 0 120 255
-25.718932 -77.395305 -107.841876 0 120 255
-27.605568 -78.394250 -106.590789 0 120 255
-29.525740 -79.437507 -105.433200 0 120 255
-31.465888 -80.507159 -104.331305 0 120 255
-33.406037 -81.576811 -103.229409 0 120 255
-35.346185 -82.646462 -102.127514 0 120 255
-37.312705 -83.757416 -101.120893 0 120 255
-39.297149 -84.896441 -100.179028 0 120 255
-41.281592 -86.035466 -99.237163 0 120 255
-43.266036 -87.174492 -98.295298 0 120 255
-45.269505 -88.351483 -97.449847 0 120 255
-47.287581 -89.557623 -96.678419 0 120 255
-49.305657 -90.763762 -95.906991 0 120 255
-51.323732 -91.969902 -95.135563 0 120 255
-53.353391 -93.210364 -94.460988 0 120 255
-55.393009 -94.480336 -93.869690 0 120 255
-57.432627 -95.750309 -93.278391 0 120 255
-59.472245 -97.020281 -92.687093 0 120 255
-61.515988 -98.320681 -92.192354 0 120 255
-63.563674 -99.650162 -91.789901 0 120 255
-65.611359 -100.979643 -91.387448 0 120 255
-67.659045 -102.309124 -90.984995 0 120 255
-69.703484 -103.664919 -90.678035 0 120 255
-71.744498 -105.048489 -90.471868 0 120 255
-73.785511 -106.432059 -90.265701 0 120 255
-75.826524 -107.815628 -90.059534 0 120 255
-77.857102 -109.221239 -89.946997 0 120 255
-79.875584 -110.652399 -89.942989 0 120 255
-81.894066 -112.083559 -89.938982 0 120 255
-83.912548 -113.514719 -89.934975 0 120 255
-85.913698 -114.963542 -90.021919 0 120 255
-87.892888 -116.434745 -90.224094 0 120 255
-89.872078 -117.905948 -90.426270 0 120 255
-91.851267 -119.377150 -90.628446 0 120 255
-93.806631 -120.861599 -90.918082 0 120 255
-95.729127 -122.364323 -91.328373 0 120 255
-97.651622 -123.867046 -91.738664 0 120 255
-99.574118 -125.369769 -92.148955 0 120 255
-101.466816 -126.881356 -92.642411 0 120 255
-103.314884 -128.406220 -93.260424 0 120 255
-105.162952 -129.931083 -93.878437 0 120 255
-107.011020 -131.455946 -94.496450 0 120 255
-108.823961 -132.985406 -95.192559 0 120 255
-110.579887 -134.522325 -96.015425 0 120 255
-112.335813 -136.059244 -96.838292 0 120 255
-114.091739 -137.596162 -97.661158 0 120 255
-115.807974 -139.133606 -98.556338 0 120 255
-117.454437 -140.671973 -99.578635 0 120 255
-119.100900 -142.210340 -100.600932 0 120 255
-120.747363 -143.748706 -101.623230 0 120 255
-122.350458 -145.283815 -102.711420 0 120 255
-123.870927 -146.812716 -103.925151 0 120 255
-125.391395 -148.341617 -105.138881 0 120 255
-126.911864 -149.870518 -106.352612 0 120 255
-128.386276 -151.392760 -107.625293 0 120 255
-129.765370 -152.901223 -109.019977 0 120 255
-131.144465 -154.409686 -110.414660 0 120 255
-132.523560 -155.918149 -111.809344 0 120 255
-133.854992 -157.417028 -113.255651 0 120 255
-135.078850 -158.894275 -114.818475 0 120 255
-136.302708 -160.371521 -116.381299 0 120 255
-137.526565 -161.848768 -117.944124 0 120 255
-138.702304 -163.314058 -119.551036 0 120 255
-139.758886 -164.749739 -121.267124 0 120 255
-140.815467 -166.185421 -122.983212 0 120 255
-141.872048 -167.621103 -124.699300 0 120 255
-142.881235 -169.043088 -126.451921 0 120 255
-143.760572 -170.427547 -128.304634 0 120 255
-144.639909 -171.812006 -130.157347 0 120 255
-145.519245 -173.196465 -132.010060 0 120 255
-146.353083 -174.566164 -133.891952 0 120 255
-147.047453 -175.890623 -135.863288 0 120 255
-147.741822 -177.215082 -137.834624 0 120 255
-148.436192 -178.539540 -139.805960 0 120 255
-149.088081 -179.848895 -141.799534 0 120 255
-149.592109 -181.105678 -143.870514 0 120 255
-150.096137 -182.362461 -145.941494 0 120 255
-150.600166 -183.619244 -148.012473 0 120 255
-151.065756 -184.861285 -150.099387 0 120 255
-151.376439 -186.043918 -152.250517 0 120 255
-151.687122 -187.226551 -154.401648 0 120 255
-151.997805 -188.409183 -156.552778 0 120 255
-152.274983 -189.578124 -158.714364 0 120 255
-152.391621 -190.681460 -160.926048 0 120 255
-152.508258 -191.784796 -163.137733 0 120 255
-152.624896 -192.888132 -165.349418 0 120 255
-152.713682 -193.979455 -167.567071 0 120 255
-152.637756 -194.999733 -169.820019 0 120 255
-152.561830 -196.020010 -172.072967 0 120 255
-152.485904 -197.040288 -174.325914 0 120 255
-152.388302 -198.050770 -176.581459 0 120 255
-152.123275 -198.985594 -178.857062 0 120 255
-151.858248 -199.920417 -181.132666 0 120 255
-151.593221 -200.855241 -183.408269 0 120 255
-151.313009 -201.782922 -185.684288 0 120 255
-150.864111 -202.631250 -187.964931 0 120 255
-150.415212 -203.479579 -190.245575 0 120 255
-149.966314 -204.327907 -192.526218 0 120 255
-149.508825 -205.172053 -194.806312 0 120 255
-148.882786 -205.934122 -197.075636 0 120 255
-148.256747 -206.696191 -199.344960 0 120 255
-147.630708 -207.458261 -201.614284 0 120 255
-147.002576 -208.219280 -203.883283 0 120 255
-146.207335 -208.896512 -206.126373 0 120 255
-145.412093 -209.573745 -208.369463 0 120 255
-144.616851 -210.250977 -210.612552 0 120 255
-143.821610 -210.928209 -212.855642 0 120 255
-142.870172 -211.525213 -215.060184 0 120 255
-141.914609 -212.120098 -217.263707 0 120 255
-140.959046 -212.714984 -219.467231 0 120 255
-140.003483 -213.309869 -221.670754 0 120 255
-138.907068 -213.831039 -223.826403 0 120 255
-137.800741 -214.347021 -225.978682 0 120 255
-136.694413 -214.863003 -228.130962 0 120 255
-135.588086 -215.378985 -230.283241 0 120 255
-134.356114 -215.828333 -232.380868 0 120 255
-133.108996 -216.269647 -234.471906 0 120 255
-131.861878 -216.710962 -236.562945 0 120 255
-130.614759 -217.152277 -238.653984 0 120 255
-129.256749 -217.534378 -240.685948 0 120 255
-127.878999 -217.905939 -242.707396 0 120 255
-126.501249 -218.277500 -244.728843 0 120 255
-125.123499 -218.649060 -246.750291 0 120 255
-123.648918 -218.968949 -248.710375 0 120 255
-122.150697 -219.276223 -250.655477 0 120 255
-120.652477 -219.583497 -252.600580 0 120 255
-119.154257 -219.890771 -254.545682 0 120 255
-117.572383 -220.153833 -256.428999 0 120 255
-115.963686 -220.402719 -258.292505 0 120 255
-114.354990 -220.651606 -260.156012 0 120 255
-112.746294 -220.900492 -262.019518 0 120 255
-111.066106 -221.112366 -263.822412 0 120 255
-109.356623 -221.309072 -265.600466 0 120 255
-107.647140 -221.505778 -267.378521 0 120 255
-105.937656 -221.702484 -269.156575 0 120 255
-104.167757 -221.868986 -270.876503 0 120 255
-102.366771 -222.019947 -272.566523 0 120 255
-100.565786 -222.170908 -274.256543 0 120 255
-98.764800 -222.321868 -275.946562 0 120 255
-96.913295 -222.449449 -277.581880 0 120 255
-95.029511 -222.562089 -279.182247 0 120 255
-93.145726 -222.674730 -280.782613 0 120 255
-91.261941 -222.787371 -282.382979 0 120 255
-89.336194 -222.888863 -283.932222 0 120 255
-87.377350 -222.981563 -285.441143 0 120 255
-85.418507 -223.074263 -286.950064 0 120 255
-83.459663 -223.166963 -288.458985 0 120 255
-81.467005 -223.257982 -289.921985 0 120 255
-79.441437 -223.347363 -291.340290 0 120 255
-77.415868 -223.436744 -292.758594 0 120 255
-75.390300 -223.526126 -294.176899 0 120 255
-73.338374 -223.615229 -295.555836 0 120 255
-71.254765 -223.704000 -296.887451 0 120 255
-69.171157 -223.792770 -298.219066 0 120 255
-67.087548 -223.881541 -299.550682 0 120 255
-64.983566 -223.970276 -300.849000 0 120 255
-62.849363 -224.058961 -302.097927 0 120 255
-60.715160 -224.147646 -303.346854 0 120 255
-58.580958 -224.236330 -304.595780 0 120 255
-56.430598 -224.324959 -305.815858 0 120 255
-54.250465 -224.413484 -306.982771 0 120 255
-52.070331 -224.502010 -308.149685 0 120 255
-49.890198 -224.590535 -309.316598 0 120 255
-47.697485 -224.678496 -310.458964 0 120 255
-45.475436 -224.765143 -311.544090 0 120 255
-43.253388 -224.851789 -312.629216 0 120 255
-41.031339 -224.938435 -313.714341 0 120 255
-38.800167 -225.024400 -314.779975 0 120 255
-36.541305 -225.108299 -315.786459 0 120 255
-34.282443 -225.192197 -316.792943 0 120 255
-32.023582 -225.276095 -317.799427 0 120 255
-29.758531 -225.359874 -318.791399 0 120 255
-27.468027 -225.443163 -319.723685 0 120 255
-25.177522 -225.526452 -320.655971 0 120 255
-22.887018 -225.609741 -321.588257 0 120 255
-20.592632 -225.693179 -322.510564 0 120 255
-18.275063 -225.777505 -323.373273 0 120 255
-15.957493 -225.861831 -324.235982 0 120 255
-13.639924 -225.946156 -325.098691 0 120 255
-11.320197 -226.030575 -325.955330 0 120 255
-8.979038 -226.115911 -326.751697 0 120 255
-6.637880 -226.201248 -327.548063 0 120 255
-4.296721 -226.286584 -328.344429 0 120 255
-1.954747 -226.371950 -329.138282 0 120 255
0.406981 -226.458044 -329.871315 0 120 255
2.768708 -226.544137 -330.604347 0 120 255
5.130436 -226.630231 -331.337379 0 120 255
7.492163 -226.716325 -332.070411 0 120 255
9.871605 -226.802936 -332.743622 0 120 255
12.251262 -226.889553 -333.416107 0 120 255
14.630918 -226.976171 -334.088592 0 120 255
17.010575 -227.062789 -334.761076 0 120 255
19.404980 -227.149682 -335.378783 0 120 255
21.800384 -227.236593 -335.992778 0 120 255
24.195789 -227.323505 -336.606772 0 120 255
26.591193 -227.410417 -337.220766 0 120 255
28.998670 -227.497382 -337.785267 0 120 255
31.407713 -227.584355 -338.343344 0 120 255
33.816757 -227.671328 -338.901421 0 120 255
36.225800 -227.758301 -339.459498 0 120 255
38.644512 -227.845076 -339.973702 0 120 255
41.065152 -227.931813 -340.479156 0 120 255
43.485792 -228.018549 -340.984610 0 120 255
45.906432 -228.105285 -341.490063 0 120 255
48.334729 -228.191248 -341.957029 0 120 255
50.765158 -228.276995 -342.413283 0 120 255
53.195587 -228.362742 -342.869537 0 120 255
55.626016 -228.448490 -343.325791 0 120 255
58.062375 -228.530871 -343.749425 0 120 255
60.500918 -228.612011 -344.161040 0 120 255
62.939461 -228.693152 -344.572655 0 120 255
65.378005 -228.774293 -344.984270 0 120 255
67.821071 -228.848367 -345.369071 0 120 255
70.266274 -228.919104 -345.741207 0 120 255
72.711477 -228.989840 -346.113343 0 120 255
75.156679 -229.060577 -346.485479 0 120 255
77.605296 -229.122439 -346.835641 0 120 255
80.055938 -229.179038 -347.172768 0 120 255
82.506580 -229.235636 -347.509895 0 120 255
84.957222 -229.292234 -347.847022 0 120 255
87.410388 -229.339561 -348.166304 0 120 255
89.865410 -229.380068 -348.472460 0 120 255
92.320432 -229.420576 -348.778616 0 120 255
94.775454 -229.461083 -349.084772 0 120 255
97.232280 -229.492116 -349.376805 0 120 255
99.690739 -229.514569 -349.656045 0 120 255
102.149199 -229.537021 -349.935286 0 120 255
104.607659 -229.559474 -350.214526 0 120 255
107.067348 -229.572454 -350.482922 0 120 255
109.528403 -229.574895 -350.739255 0 120 255
111.989458 -229.577336 -350.995588 0 120 255
114.450513 -229.579777 -351.251920 0 120 255
116.912337 -229.572942 -351.500269 0 120 255
119.375212 -229.553410 -351.737690 0 120 255
121.838087 -229.533877 -351.975111 0 120 255
124.300963 -229.514344 -352.212531 0 120 255
126.764242 -229.485928 -352.444404 0 120 255
129.228207 -229.442456 -352.666873 0 120 255
131.692172 -229.398984 -352.889342 0 120 255
134.156136 -229.355511 -353.111811 0 120 255
136.620222 -229.303748 -353.330756 0 120 255
139.084563 -229.234379 -353.542219 0 120 255
141.548903 -229.165010 -353.753682 0 120 255
144.013244 -229.095641 -353.965145 0 120 255
146.477493 -229.018767 -354.174696 0 120 255
148.941491 -228.921542 -354.379063 0 120 255
151.405489 -228.824317 -354.583430 0 120 255
153.869487 -228.727092 -354.787796 0 120 255
156.333246 -228.623338 -354.991459 0 120 255
158.796151 -228.496288 -355.192609 0 120 255
161.259056 -228.369239 -355.393759 0 120 255
163.721961 -228.242190 -355.594909 0 120 255
166.183506 -228.104593 -355.803561 0 120 255
168.638343 -227.915005 -356.049189 0 120 255
171.093181 -227.725418 -356.294818 0 120 255
173.548019 -227.535830 -356.540446 0 120 255
176.001926 -227.341041 -356.790567 0 120 255
178.449278 -227.109590 -357.072355 0 120 255
180.896630 -226.878140 -357.354143 0 120 255
183.343982 -226.646689 -357.635931 0 120 255
185.791333 -226.415238 -357.917719 0 120 255
188.238683 -226.183776 -358.199520 0 120 255
190.686032 -225.952314 -358.481320 0 120 255
193.133381 -225.720852 -358.763120 0 120 255
195.580731 -225.489391 -359.044920 0 120 255
198.028081 -225.257933 -359.326713 0 120 255
200.475432 -225.026476 -359.608505 0 120 255
202.922783 -224.795018 -359.890298 0 120 255
205.370133 -224.563560 -360.172091 0 120 255
