ply
format ascii 1.0
element vertex 385
property float x
property float y
property float z
property uchar red
property uchar green
property uchar blue
end_header
77.430455 -42.474882 -360.397637 0 120 255
77.187584 -42.528704 -357.936248 0 120 255
76.944712 -42.582527 -355.474860 0 120 255
76.701841 -42.636350 -353.013471 0 120 255
76.458969 -42.690172 -350.552083 0 120 255
76.213545 -42.748260 -348.091045 0 120 255
75.968009 -42.806536 -345.630023 0 120 255
75.722472 -42.864813 -343.169000 0 120 255
75.476936 -42.923089 -340.707977 0 120 255
75.120865 -43.278221 -338.287626 0 120 255
74.754704 -43.660452 -335.870988 0 120 255
74.388544 -44.042683 -333.454349 0 120 255
74.022383 -44.424914 -331.037711 0 120 255
73.577040 -45.077344 -328.695893 0 120 255
73.120303 -45.768652 -326.364842 0 120 255
72.663567 -46.459960 -324.033790 0 120 255
72.206830 -47.151268 -321.702739 0 120 255
71.699048 -48.085980 -319.472440 0 120 255
71.180947 -49.069894 -317.262508 0 120 255
70.662846 -50.053808 -315.052575 0 120 255
70.144746 -51.037722 -312.842643 0 120 255
69.601804 -52.235979 -310.751345 0 120 255
69.052231 -53.491446 -308.691712 0 120 255
68.502659 -54.746912 -306.632078 0 120 255
67.953087 -56.002379 -304.572445 0 120 255
67.402262 -57.442253 -302.642038 0 120 255
66.851013 -58.944684 -300.755469 0 120 255
66.299764 -60.447115 -298.868901 0 120 255
65.748515 -61.949547 -296.982332 0 120 255
65.216531 -63.606732 -295.229241 0 120 255
64.692649 -65.328985 -293.532270 0 120 255
64.168766 -67.051238 -291.835300 0 120 255
63.644884 -68.773491 -290.138330 0 120 255
63.157485 -70.621998 -288.573734 0 120 255
62.688773 -72.535170 -287.076939 0 120 255
62.220061 -74.448342 -285.580143 0 120 255
61.751348 -76.361514 -284.083347 0 120 255
61.332924 -78.374253 -282.713487 0 120 255
60.945502 -80.448374 -281.421883 0 120 255
60.558080 -82.522495 -280.130278 0 120 255
60.170659 -84.596616 -278.838674 0 120 255
59.843948 -86.745899 -277.665211 0 120 255
59.561929 -88.950509 -276.578715 0 120 255
59.279910 -91.155120 -275.492218 0 120 255
58.997890 -93.359730 -274.405722 0 120 255
58.783729 -95.617667 -273.426094 0 120 255
58.628911 -97.922239 -272.539927 0 120 255
58.474094 -100.226812 -271.653759 0 120 255
58.319276 -102.531385 -270.767592 0 120 255
58.236387 -104.870210 -269.975369 0 120 255
58.228046 -107.244535 -269.280513 0 120 255
58.219705 -109.618861 -268.585657 0 120 255
58.211363 -111.993186 -267.890800 0 120 255
58.276157 -114.385536 -267.276040 0 120 255
58.430781 -116.800026 -266.759661 0 120 255
58.585405 -119.214516 -266.243282 0 120 255
58.740029 -121.629005 -265.726904 0 120 255
58.966427 -124.048158 -265.276506 0 120 255
59.297555 -126.474116 -264.922386 0 120 255
59.628683 -128.900073 -264.568266 0 120 255
59.959810 -131.326031 -264.214146 0 120 255
60.359083 -133.746119 -263.912184 0 120 255
60.877074 -136.155982 -263.701086 0 120 255
61.395065 -138.565845 -263.489989 0 120 255
61.913057 -140.975708 -263.278892 0 120 255
62.493654 -143.371919 -263.106922 0 120 255
63.205544 -145.739501 -263.017006 0 120 255
63.917433 -148.107083 -262.927089 0 120 255
64.629322 -150.474665 -262.837173 0 120 255
65.396734 -152.823450 -262.774589 0 120 255
66.306034 -155.124197 -262.781853 0 120 255
67.215333 -157.424944 -262.789117 0 120 255
68.124633 -159.725691 -262.796382 0 120 255
69.081246 -162.004973 -262.820764 0 120 255
70.187846 -164.216210 -262.899409 0 120 255
71.294446 -166.427447 -262.978055 0 120 255
72.401046 -168.638683 -263.056700 0 120 255
73.546051 -170.828076 -263.144140 0 120 255
74.846100 -172.929284 -263.267085 0 120 255
76.146149 -175.030491 -263.390030 0 120 255
77.446198 -177.131699 -263.512974 0 120 255
78.775501 -179.212737 -263.638499 0 120 255
80.261392 -181.185813 -263.777836 0 120 255
81.747283 -183.158889 -263.917173 0 120 255
83.233174 -185.131965 -264.056510 0 120 255
84.739381 -187.088329 -264.194472 0 120 255
86.399737 -188.917884 -264.322006 0 120 255
88.060092 -190.747438 -264.449540 0 120 255
89.720447 -192.576993 -264.577074 0 120 255
91.392864 -194.394751 -264.701600 0 120 255
93.212673 -196.068343 -264.789362 0 120 255
95.032482 -197.741934 -264.877125 0 120 255
96.852291 -199.415526 -264.964887 0 120 255
98.677027 -201.083345 -265.050310 0 120 255
100.637800 -202.591738 -265.071111 0 120 255
102.598573 -204.100132 -265.091911 0 120 255
104.559346 -205.608526 -265.112712 0 120 255
106.520120 -207.116919 -265.133513 0 120 255
108.599514 -208.455215 -265.062049 0 120 255
110.679581 -209.792548 -264.990063 0 120 255
112.759647 -211.129880 -264.918077 0 120 255
114.839713 -212.467213 -264.846091 0 120 255
117.010177 -213.639166 -264.662753 0 120 255
119.185009 -214.803127 -264.474034 0 120 255
121.359842 -215.967088 -264.285315 0 120 255
123.534675 -217.131048 -264.096596 0 120 255
125.771492 -218.137800 -263.781631 0 120 255
128.014178 -219.129667 -263.454714 0 120 255
130.256864 -220.121535 -263.127797 0 120 255
132.499550 -221.113402 -262.800880 0 120 255
134.776330 -221.959264 -262.337068 0 120 255
137.058061 -222.783921 -261.853375 0 120 255
139.339792 -223.608579 -261.369682 0 120 255
141.621524 -224.433237 -260.885990 0 120 255
143.910675 -225.125618 -260.259035 0 120 255
146.201315 -225.791466 -259.603345 0 120 255
148.491955 -226.457315 -258.947655 0 120 255
150.782596 -227.123164 -258.291964 0 120 255
153.055825 -227.672443 -257.490796 0 120 255
155.324502 -228.191241 -256.651588 0 120 255
157.593178 -228.710040 -255.812380 0 120 255
159.861855 -229.228838 -254.973172 0 120 255
162.090692 -229.648166 -253.990218 0 120 255
164.306428 -230.034784 -252.959997 0 120 255
166.522164 -230.421402 -251.929775 0 120 255
168.737900 -230.808020 -250.899553 0 120 255
170.894201 -231.113061 -249.730888 0 120 255
173.026508 -231.385167 -248.506329 0 120 255
175.158814 -231.657273 -247.281770 0 120 255
177.291120 -231.929379 -246.057211 0 120 255
179.347579 -232.137991 -244.702675 0 120 255
181.367061 -232.315650 -243.284773 0 120 255
183.386542 -232.493308 -241.866870 0 120 255
185.406024 -232.670967 -240.448968 0 120 255
187.336704 -232.803327 -238.912321 0 120 255
189.215715 -232.909329 -237.306582 0 120 255
191.094726 -233.015331 -235.700843 0 120 255
192.973737 -233.121333 -234.095103 0 120 255
194.755075 -233.202694 -232.384556 0 120 255
196.469112 -233.267075 -230.601793 0 120 255
198.183150 -233.331456 -228.819029 0 120 255
199.897187 -233.395838 -227.036265 0 120 255
201.507989 -233.450510 -225.163481 0 120 255
203.034887 -233.497291 -223.217534 0 120 255
204.561785 -233.544073 -221.271587 0 120 255
206.088683 -233.590854 -219.325639 0 120 255
207.507883 -233.631969 -217.303792 0 120 255
208.824121 -233.667667 -215.209380 0 120 255
210.140358 -233.703365 -213.114968 0 120 255
211.456595 -233.739062 -211.020556 0 120 255
212.662583 -233.770727 -208.864865 0 120 255
213.744617 -233.797858 -206.640280 0 120 255
214.826652 -233.824988 -204.415694 0 120 255
215.908686 -233.852119 -202.191108 0 120 255
216.880015 -233.873665 -199.920150 0 120 255
217.704742 -233.887816 -197.587782 0 120 255
218.529469 -233.901966 -195.255413 0 120 255
219.354196 -233.916117 -192.923045 0 120 255
220.070843 -233.924536 -190.559404 0 120 255
220.618326 -233.923983 -188.146817 0 120 255
221.165809 -233.923430 -185.734229 0 120 255
221.713292 -233.922877 -183.321642 0 120 255
222.158313 -233.917468 -180.892210 0 120 255
222.412693 -233.903021 -178.431439 0 120 255
222.667073 -233.888575 -175.970667 0 120 255
222.921453 -233.874129 -173.509895 0 120 255
223.081712 -233.855711 -171.045254 0 120 255
223.031906 -233.828429 -168.571979 0 120 255
222.982101 -233.801147 -166.098703 0 120 255
222.932295 -233.773864 -163.625428 0 120 255
222.799068 -233.743459 -161.159134 0 120 255
222.439532 -233.704581 -158.711781 0 120 255
222.079997 -233.665702 -156.264427 0 120 255
221.720461 -233.626824 -153.817074 0 120 255
221.290070 -233.585607 -151.384849 0 120 255
220.621504 -233.536525 -149.003478 0 120 255
219.952937 -233.487443 -146.622108 0 120 255
219.284371 -233.438361 -144.240737 0 120 255
218.558700 -233.387628 -141.879504 0 120 255
217.588347 -233.329824 -139.604556 0 120 255
216.617993 -233.272019 -137.329608 0 120 255
215.647639 -233.214214 -135.054660 0 120 255
214.634356 -233.155336 -132.801466 0 120 255
213.376090 -233.090328 -130.672415 0 120 255
212.117824 -233.025320 -128.543364 0 120 255
210.859558 -232.960312 -126.414313 0 120 255
209.572144 -232.894685 -124.305198 0 120 255
208.046225 -232.823996 -122.359205 0 120 255
206.520307 -232.753307 -120.413211 0 120 255
204.994388 -232.682618 -118.467217 0 120 255
203.451904 -232.611639 -116.536079 0 120 255
201.684403 -232.536720 -114.806731 0 120 255
199.916902 -232.461800 -113.077383 0 120 255
198.149401 -232.386881 -111.348036 0 120 255
196.375989 -232.311881 -109.625583 0 120 255
194.397925 -232.234102 -108.141828 0 120 255
192.419860 -232.156322 -106.658073 0 120 255
190.441796 -232.078543 -105.174319 0 120 255
188.463731 -232.000764 -103.690564 0 120 255
186.312233 -231.921386 -102.472457 0 120 255
184.158519 -231.841987 -101.257743 0 120 255
182.004806 -231.762589 -100.043030 0 120 255
179.851092 -231.683190 -98.828316 0 120 255
177.566695 -231.603281 -97.884737 0 120 255
175.274911 -231.523343 -96.956485 0 120 255
172.983127 -231.443404 -96.028234 0 120 255
170.691342 -231.363466 -95.099982 0 120 255
168.309849 -231.283898 -94.441161 0 120 255
165.918979 -231.204369 -93.810503 0 120 255
163.528108 -231.124839 -93.179846 0 120 255
161.137237 -231.045310 -92.549189 0 120 255
158.694576 -230.966798 -92.179889 0 120 255
156.243762 -230.888446 -91.851731 0 120 255
153.792948 -230.810095 -91.523573 0 120 255
151.342134 -230.731743 -91.195415 0 120 255
148.873404 -230.654875 -91.115206 0 120 255
146.400805 -230.578328 -91.088551 0 120 255
143.928206 -230.501781 -91.061895 0 120 255
141.455607 -230.425233 -91.035239 0 120 255
138.994251 -230.350477 -91.238951 0 120 255
136.536058 -230.276225 -91.507440 0 120 255
134.077864 -230.201973 -91.775928 0 120 255
131.619670 -230.127721 -92.044417 0 120 255
129.196802 -230.055455 -92.522715 0 120 255
126.786447 -229.983893 -93.075329 0 120 255
124.376092 -229.912332 -93.627944 0 120 255
121.965737 -229.840770 -94.180559 0 120 255
119.609634 -229.771300 -94.920593 0 120 255
117.277215 -229.702743 -95.742444 0 120 255
114.944796 -229.634187 -96.564294 0 120 255
112.612377 -229.565630 -97.386145 0 120 255
110.348150 -229.499213 -98.372254 0 120 255
108.120066 -229.433930 -99.445425 0 120 255
105.891982 -229.368648 -100.518596 0 120 255
103.663898 -229.303365 -101.591767 0 120 255
101.513310 -229.240245 -102.806167 0 120 255
99.412091 -229.178503 -104.110537 0 120 255
97.310871 -229.116761 -105.414908 0 120 255
95.209652 -229.055018 -106.719278 0 120 255
93.191082 -228.995452 -108.142710 0 120 255
91.235384 -228.937541 -109.656714 0 120 255
89.279687 -228.879630 -111.170719 0 120 255
87.323990 -228.821718 -112.684724 0 120 255
85.452507 -228.766002 -114.297048 0 120 255
83.657258 -228.712272 -115.998374 0 120 255
81.862009 -228.658543 -117.699700 0 120 255
80.066759 -228.604813 -119.401025 0 120 255
78.354299 -228.553313 -121.181750 0 120 255
76.730936 -228.504212 -123.047922 0 120 255
75.107573 -228.455112 -124.914094 0 120 255
73.484211 -228.406012 -126.780266 0 120 255
71.939801 -228.359193 -128.708974 0 120 255
70.496573 -228.315298 -130.717826 0 120 255
69.053346 -228.271403 -132.726677 0 120 255
67.610118 -228.227508 -134.735528 0 120 255
66.240154 -228.186027 -136.792236 0 120 255
64.982485 -228.148244 -138.922297 0 120 255
63.724816 -228.110462 -141.052357 0 120 255
62.467147 -228.072680 -143.182417 0 120 255
61.275676 -228.037357 -145.347839 0 120 255
60.206476 -228.006576 -147.578574 0 120 255
59.137276 -227.975796 -149.809310 0 120 255
58.068077 -227.945015 -152.040045 0 120 255
57.057199 -227.916479 -154.295826 0 120 255
56.177635 -227.892996 -156.607996 0 120 255
55.298071 -227.869512 -158.920167 0 120 255
54.418507 -227.846029 -161.232337 0 120 255
53.588840 -227.824441 -163.561234 0 120 255
52.898433 -227.808141 -165.936816 0 120 255
52.208026 -227.791841 -168.312398 0 120 255
51.517619 -227.775541 -170.687980 0 120 255
50.868326 -227.760783 -173.073801 0 120 255
50.364862 -227.751494 -175.495939 0 120 255
49.861398 -227.742205 -177.918077 0 120 255
49.357934 -227.732915 -180.340215 0 120 255
48.886779 -227.724822 -182.767813 0 120 255
48.566907 -227.722331 -185.220972 0 120 255
48.247035 -227.719839 -187.674132 0 120 255
47.927163 -227.717348 -190.127292 0 120 255
47.630962 -227.715728 -192.582665 0 120 255
47.490443 -227.719845 -195.052594 0 120 255
47.349924 -227.723963 -197.522524 0 120 255
47.209404 -227.728080 -199.992454 0 120 255
47.084219 -227.732755 -202.462713 0 120 255
47.118041 -227.743217 -204.936387 0 120 255
47.151863 -227.753678 -207.410061 0 120 255
47.185685 -227.764140 -209.883735 0 120 255
47.226918 -227.774869 -212.357053 0 120 255
47.429698 -227.791420 -214.822600 0 120 255
47.632477 -227.807971 -217.288147 0 120 255
47.835257 -227.824522 -219.753694 0 120 255
48.038036 -227.841074 -222.219241 0 120 255
48.404195 -227.863497 -224.665817 0 120 255
48.770397 -227.885921 -227.112388 0 120 255
49.136600 -227.908346 -229.558959 0 120 255
49.502803 -227.930771 -232.005530 0 120 255
50.019958 -227.958600 -234.424413 0 120 255
50.544132 -227.986681 -236.842009 0 120 255
51.068305 -228.014761 -239.259605 0 120 255
51.592479 -228.042842 -241.677201 0 120 255
52.255733 -228.075858 -244.059913 0 120 255
52.932507 -228.109353 -246.439235 0 120 255
53.609280 -228.142849 -248.818557 0 120 255
54.286054 -228.176344 -251.197878 0 120 255
55.090627 -228.214345 -253.536420 0 120 255
55.914768 -228.253036 -255.868717 0 120 255
56.738909 -228.291726 -258.201014 0 120 255
57.563050 -228.330417 -260.533312 0 120 255
58.504321 -228.373213 -262.820033 0 120 255
59.470777 -228.416891 -265.096954 0 120 255
60.437233 -228.460569 -267.373875 0 120 255
61.403689 -228.504247 -269.650797 0 120 255
62.477227 -228.551664 -271.878269 0 120 255
63.581166 -228.600142 -274.091701 0 120 255
64.685105 -228.648620 -276.305134 0 120 255
65.789045 -228.697098 -278.518567 0 120 255
66.990453 -228.748954 -280.679543 0 120 255
68.227050 -228.802031 -282.821581 0 120 255
69.463647 -228.855107 -284.963619 0 120 255
70.700243 -228.908183 -287.105658 0 120 255
72.025208 -228.964208 -289.192953 0 120 255
73.389758 -229.021552 -291.255726 0 120 255
74.754307 -229.078897 -293.318499 0 120 255
76.118857 -229.136242 -295.381271 0 120 255
77.562994 -229.195939 -297.387767 0 120 255
79.050646 -229.256923 -299.363491 0 120 255
80.538298 -229.317907 -301.339216 0 120 255
82.025951 -229.378891 -303.314941 0 120 255
83.584706 -229.441083 -305.233597 0 120 255
85.190396 -229.504073 -307.114583 0 120 255
86.796087 -229.567063 -308.995568 0 120 255
88.401778 -229.630053 -310.876553 0 120 255
90.071598 -229.690491 -312.699304 0 120 255
91.792168 -229.748910 -314.475970 0 120 255
93.512738 -229.807328 -316.252636 0 120 255
95.233308 -229.865747 -318.029302 0 120 255
97.011400 -229.917711 -319.746720 0 120 255
98.843820 -229.963578 -321.408181 0 120 255
100.676240 -230.009445 -323.069641 0 120 255
102.508659 -230.055312 -324.731102 0 120 255
104.391586 -230.092497 -326.333161 0 120 255
106.331360 -230.119910 -327.868362 0 120 255
108.271133 -230.147323 -329.403563 0 120 255
110.210907 -230.174736 -330.938764 0 120 255
112.194105 -230.192070 -332.415118 0 120 255
114.235622 -230.195867 -333.812440 0 120 255
116.277140 -230.199664 -335.209762 0 120 255
118.318657 -230.203461 -336.607084 0 120 255
120.396537 -230.196397 -337.946875 0 120 255
122.532927 -230.171856 -339.194091 0 120 255
124.669318 -230.147315 -340.441308 0 120 255
126.805708 -230.122773 -341.688525 0 120 255
128.971501 -230.087159 -342.880381 0 120 255
131.194397 -230.030040 -343.964718 0 120 255
133.417293 -229.972921 -345.049055 0 120 255
135.640189 -229.915802 -346.133391 0 120 255
137.885737 -229.847915 -347.165509 0 120 255
140.184983 -229.754502 -348.073837 0 120 255
142.484228 -229.661089 -348.982166 0 120 255
144.783474 -229.567676 -349.890494 0 120 255
147.098996 -229.464271 -350.750796 0 120 255
149.462407 -229.331467 -351.469802 0 120 255
151.825818 -229.198664 -352.188807 0 120 255
154.189229 -229.065860 -352.907813 0 120 255
156.563120 -228.924245 -353.584105 0 120 255
158.976238 -228.749650 -354.100528 0 120 255
161.389357 -228.575055 -354.616950 0 120 255
163.802475 -228.400460 -355.133373 0 120 255
166.221206 -228.218382 -355.612555 0 120 255
168.667684 -227.999313 -355.907631 0 120 255
171.114162 -227.780244 -356.202707 0 120 255
173.560640 -227.561174 -356.497782 0 120 255
176.007174 -227.340545 -356.791172 0 120 255
178.454088 -227.109135 -357.072909 0 120 255
180.901002 -226.877726 -357.354646 0 120 255
183.347917 -226.646317 -357.636384 0 120 255
185.794831 -226.414907 -357.918122 0 120 255
188.241743 -226.183486 -358.199872 0 120 255
190.688655 -225.952066 -358.481622 0 120 255
193.135567 -225.720646 -358.763372 0 120 255
195.582479 -225.489226 -359.045121 0 120 255
198.029392 -225.257813 -359.326864 0 120 255
200.476306 -225.026400 -359.608606 0 120 255
202.923219 -224.794988 -359.890348 0 120 255
205.370133 -224.563575 -360.172091 0 120 255
