ply
format ascii 1.0
element vertex 385
property float x
property float y
property float z
property uchar red
property uchar green
property uchar blue
end_header
77.430455 -42.474882 -360.397637 0 120 255
77.187515 -42.528720 -357.935552 0 120 255
76.944575 -42.582557 -355.473467 0 120 255
76.701634 -42.636395 -353.011383 0 120 255
76.458694 -42.690233 -350.549298 0 120 255
76.219847 -42.757328 -348.087140 0 120 255
75.981174 -42.824991 -345.624979 0 120 255
75.742501 -42.892654 -343.162818 0 120 255
75.503829 -42.960316 -340.700658 0 120 255
75.313363 -43.262071 -338.252951 0 120 255
75.127249 -43.584964 -335.806549 0 120 255
74.941136 -43.907856 -333.360147 0 120 255
74.755023 -44.230749 -330.913746 0 120 255
74.613189 -44.738263 -328.496998 0 120 255
74.477860 -45.272902 -326.084608 0 120 255
74.342532 -45.807540 -323.672218 0 120 255
74.207203 -46.342179 -321.259827 0 120 255
74.114560 -47.028295 -318.885181 0 120 255
74.030871 -47.746188 -316.518452 0 120 255
73.947182 -48.464080 -314.151723 0 120 255
73.863493 -49.181972 -311.784994 0 120 255
73.819634 -50.022011 -309.458815 0 120 255
73.786922 -50.896235 -307.143984 0 120 255
73.754210 -51.770459 -304.829153 0 120 255
73.721497 -52.644683 -302.514322 0 120 255
73.724858 -53.615697 -300.239127 0 120 255
73.741148 -54.621404 -297.978139 0 120 255
73.757438 -55.627110 -295.717151 0 120 255
73.773729 -56.632817 -293.456162 0 120 255
73.821685 -57.713839 -291.231461 0 120 255
73.883801 -58.828536 -289.022984 0 120 255
73.945917 -59.943233 -286.814507 0 120 255
74.008033 -61.057930 -284.606029 0 120 255
74.097001 -62.230068 -282.429057 0 120 255
74.200683 -63.433682 -280.269348 0 120 255
74.304365 -64.637295 -278.109639 0 120 255
74.408047 -65.840909 -275.949930 0 120 255
74.533576 -67.087302 -273.816260 0 120 255
74.673602 -68.362081 -271.699869 0 120 255
74.813627 -69.636860 -269.583478 0 120 255
74.953652 -70.911639 -267.467087 0 120 255
75.110477 -72.217377 -265.371160 0 120 255
75.280697 -73.547803 -263.291552 0 120 255
75.450917 -74.878228 -261.211943 0 120 255
75.621138 -76.208653 -259.132334 0 120 255
75.803233 -77.560648 -257.067889 0 120 255
75.996656 -78.933221 -255.017911 0 120 255
76.190080 -80.305794 -252.967933 0 120 255
76.383504 -81.678367 -250.917955 0 120 255
76.584125 -83.065194 -248.878390 0 120 255
76.792952 -84.468272 -246.850696 0 120 255
77.001779 -85.871351 -244.823002 0 120 255
77.210606 -87.274429 -242.795309 0 120 255
77.422326 -88.686178 -240.773985 0 120 255
77.637995 -90.109757 -238.761353 0 120 255
77.853664 -91.533336 -236.748721 0 120 255
78.069332 -92.956916 -234.736088 0 120 255
78.284080 -94.385023 -232.726581 0 120 255
78.497319 -95.820559 -230.722199 0 120 255
78.710557 -97.256094 -228.717817 0 120 255
78.923796 -98.691630 -226.713435 0 120 255
79.132887 -100.128733 -224.709751 0 120 255
79.333737 -101.568954 -222.707451 0 120 255
79.534588 -103.009174 -220.705151 0 120 255
79.735438 -104.449394 -218.702852 0 120 255
79.929610 -105.889184 -216.699611 0 120 255
80.107502 -107.327923 -214.694078 0 120 255
80.285394 -108.766662 -212.688545 0 120 255
80.463285 -110.205401 -210.683012 0 120 255
80.632748 -111.642481 -208.675619 0 120 255
80.776537 -113.074507 -206.662560 0 120 255
80.920326 -114.506533 -204.649501 0 120 255
81.064114 -115.938559 -202.636442 0 120 255
81.198588 -117.368318 -200.621224 0 120 255
81.296633 -118.789214 -198.597558 0 120 255
81.394678 -120.210110 -196.573893 0 120 255
81.492722 -121.631005 -194.550227 0 120 255
81.581505 -123.049513 -192.524583 0 120 255
81.621762 -124.455508 -190.488573 0 120 255
81.662018 -125.861502 -188.452563 0 120 255
81.702275 -127.267497 -186.416553 0 120 255
81.734318 -128.671370 -184.379070 0 120 255
81.704436 -130.059238 -182.330484 0 120 255
81.674553 -131.447107 -180.281897 0 120 255
81.644670 -132.834976 -178.233310 0 120 255
81.608662 -134.221292 -176.183896 0 120 255
81.496121 -135.588217 -174.124131 0 120 255
81.383581 -136.955142 -172.064366 0 120 255
81.271040 -138.322067 -170.004602 0 120 255
81.155518 -139.688257 -167.944586 0 120 255
80.947772 -141.031731 -165.876810 0 120 255
80.740025 -142.375204 -163.809033 0 120 255
80.532279 -143.718678 -161.741257 0 120 255
80.324533 -145.062152 -159.673481 0 120 255
80.010428 -146.380163 -157.602773 0 120 255
79.695112 -147.697883 -155.532033 0 120 255
79.379796 -149.015604 -153.461292 0 120 255
79.064481 -150.333325 -151.390551 0 120 255
78.636023 -151.624593 -149.323654 0 120 255
78.201154 -152.914363 -147.256975 0 120 255
77.766285 -154.204133 -145.190296 0 120 255
77.331416 -155.493902 -143.123617 0 120 255
76.778194 -156.756435 -141.068828 0 120 255
76.212437 -158.016084 -139.015298 0 120 255
75.646680 -159.275732 -136.961769 0 120 255
75.080924 -160.535381 -134.908239 0 120 255
74.393345 -161.767131 -132.875693 0 120 255
73.686317 -162.994427 -130.846497 0 120 255
72.979288 -164.221723 -128.817302 0 120 255
72.272260 -165.449019 -126.788106 0 120 255
71.441824 -166.647850 -124.789796 0 120 255
70.584418 -167.840461 -122.798235 0 120 255
69.727012 -169.033071 -120.806674 0 120 255
68.869605 -170.225682 -118.815114 0 120 255
67.889205 -171.389303 -116.864839 0 120 255
66.873956 -172.544711 -114.926262 0 120 255
65.858707 -173.700119 -112.987684 0 120 255
64.843459 -174.855526 -111.049107 0 120 255
63.707718 -175.981488 -109.162399 0 120 255
62.529212 -177.096999 -107.294100 0 120 255
61.350707 -178.212509 -105.425801 0 120 255
60.172201 -179.328020 -103.557503 0 120 255
58.877813 -180.413681 -101.751465 0 120 255
57.533080 -181.486374 -99.972476 0 120 255
56.188346 -182.559067 -98.193487 0 120 255
54.843613 -183.631760 -96.414498 0 120 255
53.389693 -184.674313 -94.707587 0 120 255
51.878633 -185.701094 -93.038397 0 120 255
50.367572 -186.727875 -91.369206 0 120 255
48.856512 -187.754655 -89.700016 0 120 255
47.244918 -188.751138 -88.111742 0 120 255
45.570659 -189.728734 -86.573905 0 120 255
43.896401 -190.706331 -85.036068 0 120 255
42.222142 -191.683928 -83.498231 0 120 255
40.457781 -192.631273 -82.048770 0 120 255
38.627049 -193.556336 -80.664408 0 120 255
36.796317 -194.481398 -79.280045 0 120 255
34.965585 -195.406461 -77.895683 0 120 255
33.056655 -196.301577 -76.605415 0 120 255
31.079997 -197.170756 -75.396643 0 120 255
29.103339 -198.039935 -74.187871 0 120 255
27.126680 -198.909114 -72.979100 0 120 255
25.084836 -199.748969 -71.868063 0 120 255
22.976785 -200.559042 -70.856291 0 120 255
20.868734 -201.369116 -69.844520 0 120 255
18.760683 -202.179189 -68.832748 0 120 255
16.601093 -202.960921 -67.920036 0 120 255
14.380151 -203.708916 -67.125240 0 120 255
12.159209 -204.456912 -66.330445 0 120 255
9.938268 -205.204907 -65.535649 0 120 255
7.679543 -205.925945 -64.838770 0 120 255
5.368023 -206.609313 -64.278714 0 120 255
3.056503 -207.292681 -63.718659 0 120 255
0.744983 -207.976050 -63.158603 0 120 255
-1.591025 -208.634255 -62.692834 0 120 255
-3.967358 -209.251026 -62.382321 0 120 255
-6.343690 -209.867797 -62.071808 0 120 255
-8.720022 -210.484568 -61.761295 0 120 255
-11.108588 -211.078368 -61.539054 0 120 255
-13.521047 -211.627308 -61.489209 0 120 255
-15.933506 -212.176248 -61.439363 0 120 255
-18.345966 -212.725189 -61.389517 0 120 255
-20.759994 -213.253704 -61.419798 0 120 255
-23.177694 -213.734448 -61.637495 0 120 255
-25.595394 -214.215191 -61.855193 0 120 255
-28.013094 -214.695934 -62.072891 0 120 255
-30.423766 -215.159084 -62.360816 0 120 255
-32.814472 -215.572254 -62.848255 0 120 255
-35.205177 -215.985424 -63.335694 0 120 255
-37.595883 -216.398594 -63.823133 0 120 255
-39.973401 -216.797195 -64.369632 0 120 255
-42.304484 -217.144492 -65.124095 0 120 255
-44.635568 -217.491789 -65.878558 0 120 255
-46.966651 -217.839086 -66.633021 0 120 255
-49.281061 -218.174909 -67.434677 0 120 255
-51.520504 -218.459139 -68.448526 0 120 255
-53.759946 -218.743369 -69.462374 0 120 255
-55.999389 -219.027599 -70.476223 0 120 255
-58.221423 -219.303390 -71.525303 0 120 255
-60.338790 -219.528441 -72.786211 0 120 255
-62.456157 -219.753492 -74.047120 0 120 255
-64.573523 -219.978543 -75.308028 0 120 255
-66.675420 -220.198000 -76.592700 0 120 255
-68.642767 -220.368811 -78.084058 0 120 255
-70.610114 -220.539622 -79.575416 0 120 255
-72.577461 -220.710433 -81.066774 0 120 255
-74.533717 -220.878172 -82.571474 0 120 255
-76.326338 -221.000598 -84.273033 0 120 255
-78.118959 -221.123025 -85.974591 0 120 255
-79.911580 -221.245451 -87.676150 0 120 255
-81.699575 -221.366892 -89.382131 0 120 255
-83.296605 -221.447622 -91.270717 0 120 255
-84.893635 -221.528352 -93.159304 0 120 255
-86.490665 -221.609082 -95.047890 0 120 255
-88.087694 -221.689812 -96.936476 0 120 255
-89.475943 -221.736736 -98.984201 0 120 255
-90.860715 -221.783097 -101.034575 0 120 255
-92.245487 -221.829458 -103.084950 0 120 255
-93.630260 -221.875819 -105.135324 0 120 255
-94.803202 -221.897130 -107.313357 0 120 255
-95.963433 -221.916938 -109.499049 0 120 255
-97.123664 -221.936746 -111.684741 0 120 255
-98.283895 -221.956554 -113.870433 0 120 255
-99.234219 -221.959750 -116.154040 0 120 255
-100.161982 -221.961161 -118.448170 0 120 255
-101.089746 -221.962572 -120.742299 0 120 255
-102.017510 -221.963984 -123.036429 0 120 255
-102.741523 -221.957857 -125.401194 0 120 255
-103.433002 -221.950527 -127.777237 0 120 255
-104.124481 -221.943198 -130.153281 0 120 255
-104.815960 -221.935868 -132.529324 0 120 255
-105.313111 -221.928868 -134.951698 0 120 255
-105.768006 -221.921941 -137.384145 0 120 255
-106.222900 -221.915013 -139.816593 0 120 255
-106.677795 -221.908085 -142.249041 0 120 255
-106.950686 -221.906424 -144.706639 0 120 255
-107.172310 -221.906245 -147.171322 0 120 255
-107.393933 -221.906067 -149.636005 0 120 255
-107.615556 -221.905888 -152.100688 0 120 255
-107.670295 -221.912112 -154.572704 0 120 255
-107.666029 -221.920600 -157.047313 0 120 255
-107.661764 -221.929088 -159.521922 0 120 255
-107.657498 -221.937576 -161.996531 0 120 255
-107.502368 -221.951973 -164.464239 0 120 255
-107.281695 -221.968937 -166.928949 0 120 255
-107.061021 -221.985901 -169.393658 0 120 255
-106.840347 -222.002865 -171.858368 0 120 255
-106.485062 -222.024842 -174.305276 0 120 255
-106.058973 -222.049456 -176.742820 0 120 255
-105.632884 -222.074070 -179.180364 0 120 255
-105.206794 -222.098684 -181.617908 0 120 255
-104.662252 -222.127582 -184.029784 0 120 255
-104.043029 -222.159182 -186.425477 0 120 255
-103.423806 -222.190781 -188.821170 0 120 255
-102.804583 -222.222380 -191.216862 0 120 255
-102.082405 -222.257635 -193.581669 0 120 255
-101.282946 -222.295635 -195.923293 0 120 255
-100.483488 -222.333634 -198.264917 0 120 255
-99.684029 -222.371633 -200.606540 0 120 255
-98.796222 -222.412730 -202.914334 0 120 255
-97.829760 -222.456585 -205.192010 0 120 255
-96.863297 -222.500440 -207.469685 0 120 255
-95.896835 -222.544294 -209.747361 0 120 255
-94.855541 -222.590733 -211.990157 0 120 255
-93.735329 -222.639899 -214.196169 0 120 255
-92.615118 -222.689064 -216.402181 0 120 255
-91.494906 -222.738229 -218.608192 0 120 255
-90.312161 -222.789545 -220.779801 0 120 255
-89.051206 -222.843551 -222.908381 0 120 255
-87.790251 -222.897557 -225.036962 0 120 255
-86.529296 -222.951563 -227.165542 0 120 255
-85.216841 -223.007310 -229.261392 0 120 255
-83.827724 -223.065647 -231.308519 0 120 255
-82.438607 -223.123983 -233.355647 0 120 255
-81.049490 -223.182320 -235.402774 0 120 255
-79.618630 -223.242061 -237.419731 0 120 255
-78.113331 -223.304305 -239.382887 0 120 255
-76.608033 -223.366548 -241.346043 0 120 255
-75.102734 -223.428792 -243.309199 0 120 255
-73.564232 -223.492149 -245.245387 0 120 255
-71.954091 -223.557908 -247.123391 0 120 255
-70.343949 -223.623667 -249.001395 0 120 255
-68.733808 -223.689426 -250.879400 0 120 255
-67.097804 -223.756037 -252.734018 0 120 255
-65.393301 -223.824903 -254.526700 0 120 255
-63.688799 -223.893769 -256.319382 0 120 255
-61.984297 -223.962635 -258.112064 0 120 255
-60.260200 -224.032136 -259.885166 0 120 255
-58.471027 -224.103747 -261.593239 0 120 255
-56.681855 -224.175358 -263.301312 0 120 255
-54.892683 -224.246969 -265.009385 0 120 255
-53.089226 -224.319041 -266.701778 0 120 255
-51.224366 -224.393095 -268.326768 0 120 255
-49.359506 -224.467148 -269.951757 0 120 255
-47.494646 -224.541201 -271.576747 0 120 255
-45.619930 -224.615568 -273.189913 0 120 255
-43.687568 -224.691773 -274.733917 0 120 255
-41.755206 -224.767978 -276.277921 0 120 255
-39.822844 -224.844183 -277.821925 0 120 255
-37.884270 -224.920585 -279.357819 0 120 255
-35.891769 -224.998697 -280.823294 0 120 255
-33.899268 -225.076809 -282.288769 0 120 255
-31.906767 -225.154921 -283.754243 0 120 255
-29.911030 -225.233133 -285.215136 0 120 255
-27.865079 -225.312893 -286.604921 0 120 255
-25.819128 -225.392653 -287.994706 0 120 255
-23.773177 -225.472413 -289.384491 0 120 255
-21.726382 -225.552199 -290.772984 0 120 255
-19.633018 -225.633433 -292.090180 0 120 255
-17.539653 -225.714666 -293.407376 0 120 255
-15.446289 -225.795899 -294.724572 0 120 255
-13.352924 -225.877132 -296.041769 0 120 255
-11.218592 -225.959581 -297.291347 0 120 255
-9.083212 -226.042062 -298.539196 0 120 255
-6.947832 -226.124543 -299.787045 0 120 255
-4.812451 -226.207024 -301.034894 0 120 255
-2.642371 -226.290520 -302.221147 0 120 255
-0.469769 -226.374089 -303.402925 0 120 255
1.702832 -226.457659 -304.584702 0 120 255
3.875434 -226.541228 -305.766479 0 120 255
6.077308 -226.625671 -306.892493 0 120 255
8.282819 -226.710222 -308.011578 0 120 255
10.488330 -226.794772 -309.130662 0 120 255
12.693842 -226.879323 -310.249746 0 120 255
14.923989 -226.964585 -311.318571 0 120 255
17.158597 -227.049975 -312.378296 0 120 255
19.393204 -227.135366 -313.438020 0 120 255
21.627812 -227.220757 -314.497745 0 120 255
23.883131 -227.306719 -315.512302 0 120 255
26.143500 -227.392822 -316.515842 0 120 255
28.403870 -227.478924 -317.519383 0 120 255
30.664240 -227.565026 -318.522923 0 120 255
32.941965 -227.651594 -319.486067 0 120 255
35.225137 -227.738308 -320.436535 0 120 255
37.508308 -227.825022 -321.387003 0 120 255
39.791479 -227.911736 -322.337470 0 120 255
42.089161 -227.998800 -323.251947 0 120 255
44.392531 -228.086001 -324.152315 0 120 255
46.695901 -228.173202 -325.052682 0 120 255
48.999271 -228.260403 -325.953050 0 120 255
51.314762 -228.347820 -326.821426 0 120 255
53.636072 -228.435341 -327.674442 0 120 255
55.957383 -228.522861 -328.527458 0 120 255
58.278694 -228.610382 -329.380474 0 120 255
60.610135 -228.697823 -330.205087 0 120 255
62.947453 -228.785218 -331.013225 0 120 255
65.284771 -228.872613 -331.821363 0 120 255
67.622088 -228.960008 -332.629501 0 120 255
69.967989 -229.046326 -333.412175 0 120 255
72.319848 -229.131896 -334.177167 0 120 255
74.671708 -229.217466 -334.942159 0 120 255
77.023568 -229.303036 -335.707150 0 120 255
79.383132 -229.383702 -336.448222 0 120 255
81.749063 -229.460317 -337.169527 0 120 255
84.114994 -229.536931 -337.890831 0 120 255
86.480925 -229.613546 -338.612136 0 120 255
88.853730 -229.681890 -339.310916 0 120 255
91.233275 -229.742126 -339.987612 0 120 255
93.612820 -229.802362 -340.664308 0 120 255
95.992364 -229.862597 -341.341004 0 120 255
98.377818 -229.912954 -341.996897 0 120 255
100.770144 -229.951822 -342.628597 0 120 255
103.162470 -229.990690 -343.260297 0 120 255
105.554796 -230.029558 -343.891997 0 120 255
107.952096 -230.057527 -344.504571 0 120 255
110.356271 -230.070432 -345.090707 0 120 255
112.760446 -230.083336 -345.676843 0 120 255
115.164621 -230.096241 -346.262979 0 120 255
117.572865 -230.097769 -346.831654 0 120 255
119.987828 -230.080516 -347.371501 0 120 255
122.402792 -230.063262 -347.911347 0 120 255
124.817755 -230.046009 -348.451194 0 120 255
127.235928 -230.017390 -348.975241 0 120 255
129.660482 -229.966176 -349.467878 0 120 255
132.085037 -229.914963 -349.960516 0 120 255
134.509591 -229.863750 -350.453154 0 120 255
136.936555 -229.801619 -350.931673 0 120 255
139.369356 -229.713039 -351.375985 0 120 255
141.802157 -229.624458 -351.820297 0 120 255
144.234958 -229.535877 -352.264608 0 120 255
146.669441 -229.437223 -352.696537 0 120 255
149.108982 -229.308292 -353.091248 0 120 255
151.548523 -229.179360 -353.485959 0 120 255
153.988063 -229.050429 -353.880670 0 120 255
156.428655 -228.912600 -354.264804 0 120 255
158.873269 -228.740717 -354.608457 0 120 255
161.317883 -228.568835 -354.952110 0 120 255
163.762497 -228.396952 -355.295764 0 120 255
166.207638 -228.217374 -355.630609 0 120 255
168.655452 -227.998759 -355.920767 0 120 255
171.103267 -227.780143 -356.210925 0 120 255
173.551081 -227.561527 -356.501083 0 120 255
175.998870 -227.341330 -356.790215 0 120 255
178.446476 -227.109855 -357.072033 0 120 255
180.894083 -226.878381 -357.353850 0 120 255
183.341689 -226.646906 -357.635667 0 120 255
185.789296 -226.415430 -357.917485 0 120 255
188.236900 -226.183944 -358.199314 0 120 255
190.684504 -225.952459 -358.481144 0 120 255
193.132108 -225.720973 -358.762973 0 120 255
195.579712 -225.489487 -359.044803 0 120 255
198.027317 -225.258005 -359.326625 0 120 255
200.474923 -225.026524 -359.608447 0 120 255
202.922528 -224.795042 -359.890269 0 120 255
205.370133 -224.563560 -360.172091 0 120 255
