ply
format ascii 1.0
element vertex 385
property float x
property float y
property float z
property uchar red
property uchar green
property uchar blue
end_header
77.430455 -42.474882 -360.397637 0 120 255
77.187518 -42.528719 -357.935583 0 120 255
76.944581 -42.582556 -355.473530 0 120 255
76.701644 -42.636393 -353.011477 0 120 255
76.458707 -42.690230 -350.549424 0 120 255
76.220632 -42.756486 -348.087200 0 120 255
75.982765 -42.823274 -345.624969 0 120 255
75.744898 -42.890061 -343.162738 0 120 255
75.507032 -42.956849 -340.700507 0 120 255
75.434588 -43.336164 -338.258540 0 120 255
75.377032 -43.743608 -335.818397 0 120 255
75.319477 -44.151051 -333.378253 0 120 255
75.261921 -44.558494 -330.938110 0 120 255
75.345076 -45.210523 -328.554968 0 120 255
75.448951 -45.898568 -326.180220 0 120 255
75.552825 -46.586613 -323.805473 0 120 255
75.656700 -47.274658 -321.430725 0 120 255
75.881102 -48.156418 -319.132124 0 120 255
76.130923 -49.079030 -316.849582 0 120 255
76.380743 -50.001641 -314.567039 0 120 255
76.630563 -50.924253 -312.284497 0 120 255
76.982109 -51.996724 -310.084801 0 120 255
77.362325 -53.111432 -307.908454 0 120 255
77.742541 -54.226140 -305.732107 0 120 255
78.122757 -55.340847 -303.555760 0 120 255
78.587959 -56.568995 -301.460715 0 120 255
79.083870 -57.838132 -299.395047 0 120 255
79.579780 -59.107270 -297.329378 0 120 255
80.075690 -60.376407 -295.263710 0 120 255
80.642095 -61.729597 -293.272796 0 120 255
81.240295 -63.120699 -291.315600 0 120 255
81.838495 -64.511800 -289.358404 0 120 255
82.436696 -65.902901 -287.401208 0 120 255
83.093027 -67.354803 -285.509503 0 120 255
83.781501 -68.840324 -283.654010 0 120 255
84.469975 -70.325844 -281.798516 0 120 255
85.158449 -71.811364 -279.943023 0 120 255
85.894596 -73.339603 -278.142629 0 120 255
86.662670 -74.896449 -276.379134 0 120 255
87.430744 -76.453295 -274.615639 0 120 255
88.198817 -78.010142 -272.852143 0 120 255
89.005717 -79.595869 -271.133273 0 120 255
89.843869 -81.204843 -269.450321 0 120 255
90.682020 -82.813817 -267.767369 0 120 255
91.520172 -84.422791 -266.084417 0 120 255
92.389650 -86.050187 -264.436151 0 120 255
93.289303 -87.695330 -262.821297 0 120 255
94.188956 -89.340472 -261.206443 0 120 255
95.088610 -90.985614 -259.591589 0 120 255
96.013186 -92.641409 -258.002400 0 120 255
96.966458 -94.309467 -256.442760 0 120 255
97.919730 -95.977526 -254.883121 0 120 255
98.873001 -97.645585 -253.323481 0 120 255
99.845704 -99.318641 -251.781610 0 120 255
100.845191 -100.998584 -250.264231 0 120 255
101.844677 -102.678528 -248.746852 0 120 255
102.844163 -104.358471 -247.229472 0 120 255
103.858342 -106.039408 -245.723168 0 120 255
104.896878 -107.721991 -244.235224 0 120 255
105.935414 -109.404575 -242.747279 0 120 255
106.973950 -111.087158 -241.259335 0 120 255
108.023098 -112.768028 -239.777009 0 120 255
109.093580 -114.445454 -238.305977 0 120 255
110.164062 -116.122880 -236.834946 0 120 255
111.234544 -117.800306 -235.363915 0 120 255
112.312144 -119.474325 -233.894254 0 120 255
113.407314 -121.139935 -232.427977 0 120 255
114.502484 -122.805546 -230.961700 0 120 255
115.597654 -124.471156 -229.495423 0 120 255
116.697009 -126.132473 -228.027449 0 120 255
117.809289 -127.780530 -226.554233 0 120 255
118.921569 -129.428587 -225.081018 0 120 255
120.033849 -131.076643 -223.607802 0 120 255
121.147951 -132.720158 -222.130943 0 120 255
122.269291 -134.345616 -220.639600 0 120 255
123.390630 -135.971074 -219.148256 0 120 255
124.511970 -137.596532 -217.656913 0 120 255
125.633366 -139.217720 -216.161040 0 120 255
126.755063 -140.816078 -214.640951 0 120 255
127.876760 -142.414437 -213.120862 0 120 255
128.998457 -144.012795 -211.600774 0 120 255
130.119112 -145.607585 -210.076260 0 120 255
131.231698 -147.174729 -208.517468 0 120 255
132.344283 -148.741873 -206.958675 0 120 255
133.456869 -150.309017 -205.399882 0 120 255
134.568067 -151.873664 -203.837677 0 120 255
135.661157 -153.405744 -202.230970 0 120 255
136.754248 -154.937824 -200.624263 0 120 255
137.847339 -156.469904 -199.017557 0 120 255
138.939556 -158.000887 -197.409259 0 120 255
140.001751 -159.494227 -195.746340 0 120 255
141.063946 -160.987568 -194.083421 0 120 255
142.126141 -162.480908 -192.420502 0 120 255
143.188336 -163.974248 -190.757583 0 120 255
144.207775 -165.425828 -189.032135 0 120 255
145.226588 -166.876796 -187.305771 0 120 255
146.245401 -168.327764 -185.579406 0 120 255
147.264214 -169.778733 -183.853042 0 120 255
148.229218 -171.186319 -182.061243 0 120 255
149.190971 -172.591284 -180.265491 0 120 255
150.152724 -173.996249 -178.469738 0 120 255
151.114477 -175.401215 -176.673985 0 120 255
152.011459 -176.761405 -174.811794 0 120 255
152.901296 -178.116656 -172.942274 0 120 255
153.791133 -179.471907 -171.072753 0 120 255
154.680969 -180.827158 -169.203232 0 120 255
155.495296 -182.136426 -167.268208 0 120 255
156.297174 -183.438111 -165.322384 0 120 255
157.099051 -184.739797 -163.376561 0 120 255
157.900928 -186.041482 -161.430737 0 120 255
158.617013 -187.296157 -159.422353 0 120 255
159.313816 -188.540265 -157.399908 0 120 255
160.010619 -189.784374 -155.377464 0 120 255
160.707421 -191.028483 -153.355019 0 120 255
161.308854 -192.224725 -151.274964 0 120 255
161.882556 -193.407049 -149.178157 0 120 255
162.456257 -194.589373 -147.081350 0 120 255
163.029959 -195.771697 -144.984543 0 120 255
163.499720 -196.905520 -142.837063 0 120 255
163.931656 -198.021694 -140.671143 0 120 255
164.363592 -199.137868 -138.505223 0 120 255
164.795528 -200.254041 -136.339303 0 120 255
165.116288 -201.321345 -134.131532 0 120 255
165.387537 -202.366885 -131.905124 0 120 255
165.658785 -203.412425 -129.678716 0 120 255
165.930034 -204.457965 -127.452308 0 120 255
166.084562 -205.454603 -125.194580 0 120 255
166.176457 -206.424999 -122.920045 0 120 255
166.268352 -207.395396 -120.645510 0 120 255
166.360248 -208.365793 -118.370976 0 120 255
166.331916 -209.287671 -116.077077 0 120 255
166.226692 -210.178518 -113.770794 0 120 255
166.121469 -211.069366 -111.464511 0 120 255
166.016246 -211.960214 -109.158228 0 120 255
165.789662 -212.803433 -106.845573 0 120 255
165.471259 -213.610617 -104.528097 0 120 255
165.152857 -214.417802 -102.210621 0 120 255
164.834454 -215.224986 -99.893144 0 120 255
164.396143 -215.986014 -97.582821 0 120 255
163.851017 -216.705924 -95.278871 0 120 255
163.305890 -217.425834 -92.974920 0 120 255
162.760764 -218.145744 -90.670969 0 120 255
162.099954 -218.821639 -88.387628 0 120 255
161.318098 -219.451476 -86.125853 0 120 255
160.536242 -220.081313 -83.864077 0 120 255
159.754385 -220.711151 -81.602302 0 120 255
158.863831 -221.299789 -79.373833 0 120 255
157.839700 -221.837800 -77.186295 0 120 255
156.815570 -222.375811 -74.998757 0 120 255
155.791440 -222.913821 -72.811218 0 120 255
154.668186 -223.414152 -70.668215 0 120 255
153.401592 -223.859993 -68.589612 0 120 255
152.134998 -224.305834 -66.511010 0 120 255
150.868405 -224.751675 -64.432407 0 120 255
149.514493 -225.163977 -62.407391 0 120 255
148.011342 -225.518952 -60.473961 0 120 255
146.508191 -225.873928 -58.540531 0 120 255
145.005040 -226.228904 -56.607101 0 120 255
143.428052 -226.554997 -54.733517 0 120 255
141.700834 -226.822327 -52.981695 0 120 255
139.973617 -227.089656 -51.229874 0 120 255
138.246400 -227.356985 -49.478052 0 120 255
136.459766 -227.600421 -47.789091 0 120 255
134.527686 -227.785368 -46.254007 0 120 255
132.595606 -227.970315 -44.718922 0 120 255
130.663526 -228.155261 -43.183838 0 120 255
128.686555 -228.321424 -41.711127 0 120 255
126.575308 -228.431403 -40.424985 0 120 255
124.464061 -228.541381 -39.138842 0 120 255
122.352814 -228.651360 -37.852699 0 120 255
120.210397 -228.747509 -36.624963 0 120 255
117.951489 -228.791975 -35.615519 0 120 255
115.692580 -228.836441 -34.606075 0 120 255
113.433672 -228.880906 -33.596630 0 120 255
111.155652 -228.916078 -32.638427 0 120 255
108.785361 -228.906379 -31.927618 0 120 255
106.415070 -228.896680 -31.216808 0 120 255
104.044779 -228.886981 -30.505999 0 120 255
101.665022 -228.871835 -29.836605 0 120 255
99.223025 -228.820873 -29.439522 0 120 255
96.781028 -228.769911 -29.042439 0 120 255
94.339031 -228.718949 -28.645355 0 120 255
91.894242 -228.665568 -28.277941 0 120 255
89.422010 -228.588408 -28.202174 0 120 255
86.949779 -228.511248 -28.126407 0 120 255
84.477547 -228.434088 -28.050640 0 120 255
82.005916 -228.356359 -27.991744 0 120 255
79.545130 -228.268334 -28.237514 0 120 255
77.084343 -228.180309 -28.483284 0 120 255
74.623556 -228.092285 -28.729055 0 120 255
72.163412 -228.004274 -28.978711 0 120 255
69.754659 -227.917376 -29.539050 0 120 255
67.345906 -227.830478 -30.099390 0 120 255
64.937153 -227.743580 -30.659730 0 120 255
62.528400 -227.656682 -31.220069 0 120 255
60.206419 -227.574646 -32.070158 0 120 255
57.886945 -227.492750 -32.928620 0 120 255
55.567471 -227.410855 -33.787082 0 120 255
53.247998 -227.328959 -34.645544 0 120 255
51.041773 -227.252602 -35.761126 0 120 255
48.843926 -227.176654 -36.895729 0 120 255
46.646080 -227.100707 -38.030333 0 120 255
44.448233 -227.024759 -39.164936 0 120 255
42.382742 -226.954661 -40.522923 0 120 255
40.333593 -226.885285 -41.908490 0 120 255
38.284444 -226.815909 -43.294058 0 120 255
36.235295 -226.746533 -44.679625 0 120 255
34.330630 -226.683167 -46.254976 0 120 255
32.451674 -226.620871 -47.864096 0 120 255
30.572719 -226.558574 -49.473217 0 120 255
28.693764 -226.496278 -51.082337 0 120 255
26.965121 -226.440038 -52.848959 0 120 255
25.272282 -226.385240 -54.653098 0 120 255
23.579443 -226.330442 -56.457237 0 120 255
21.886604 -226.275645 -58.261376 0 120 255
20.344531 -226.226800 -60.193042 0 120 255
18.848470 -226.179772 -62.163629 0 120 255
17.352408 -226.132744 -64.134215 0 120 255
15.856347 -226.085716 -66.104802 0 120 255
14.507118 -226.044401 -68.175901 0 120 255
13.213697 -226.005258 -70.285202 0 120 255
11.920276 -225.966114 -72.394504 0 120 255
10.626855 -225.926971 -74.503805 0 120 255
9.472975 -225.893182 -76.689953 0 120 255
8.383890 -225.861880 -78.911785 0 120 255
7.294806 -225.830578 -81.133618 0 120 255
6.205722 -225.799276 -83.355450 0 120 255
5.246466 -225.772905 -85.633938 0 120 255
4.359893 -225.749296 -87.944145 0 120 255
3.473321 -225.725686 -90.254351 0 120 255
2.586749 -225.702077 -92.564558 0 120 255
1.818717 -225.682926 -94.914644 0 120 255
1.129982 -225.666758 -97.291408 0 120 255
0.441248 -225.650590 -99.668172 0 120 255
-0.247487 -225.634422 -102.044935 0 120 255
-0.829855 -225.622217 -104.448010 0 120 255
-1.327687 -225.613162 -106.871995 0 120 255
-1.825518 -225.604107 -109.295980 0 120 255
-2.323350 -225.595052 -111.719965 0 120 255
-2.727158 -225.589477 -114.159631 0 120 255
-3.042453 -225.587180 -116.614056 0 120 255
-3.357748 -225.584882 -119.068482 0 120 255
-3.673043 -225.582584 -121.522908 0 120 255
-3.906445 -225.583286 -123.984939 0 120 255
-4.048582 -225.587331 -126.455446 0 120 255
-4.190719 -225.591377 -128.925953 0 120 255
-4.332856 -225.595423 -131.396459 0 120 255
-4.404778 -225.602017 -133.868681 0 120 255
-4.383895 -225.611981 -136.343168 0 120 255
-4.363012 -225.621945 -138.817655 0 120 255
-4.342129 -225.631908 -141.292143 0 120 255
-4.261927 -225.644019 -143.764285 0 120 255
-4.088333 -225.659510 -146.232735 0 120 255
-3.914739 -225.675002 -148.701186 0 120 255
-3.741145 -225.690493 -151.169636 0 120 255
-3.518211 -225.707763 -153.633165 0 120 255
-3.202072 -225.728396 -156.087397 0 120 255
-2.885933 -225.749028 -158.541628 0 120 255
-2.569794 -225.769661 -160.995860 0 120 255
-2.213333 -225.791742 -163.443767 0 120 255
-1.764470 -225.817140 -165.877180 0 120 255
-1.315608 -225.842539 -168.310594 0 120 255
-0.866745 -225.867938 -170.744007 0 120 255
-0.385644 -225.894483 -173.170607 0 120 255
0.186533 -225.924263 -175.577960 0 120 255
0.758709 -225.954044 -177.985314 0 120 255
1.330886 -225.983825 -180.392667 0 120 255
1.928142 -226.014497 -182.793410 0 120 255
2.614819 -226.048345 -185.170583 0 120 255
3.301497 -226.082193 -187.547756 0 120 255
3.988174 -226.116041 -189.924928 0 120 255
4.693639 -226.150553 -192.296202 0 120 255
5.486690 -226.188157 -194.639977 0 120 255
6.279742 -226.225761 -196.983751 0 120 255
7.072793 -226.263366 -199.327526 0 120 255
7.879132 -226.301436 -201.666478 0 120 255
8.771197 -226.342515 -203.974325 0 120 255
9.663261 -226.383593 -206.282172 0 120 255
10.555326 -226.424672 -208.590018 0 120 255
11.455875 -226.466046 -210.894381 0 120 255
12.440388 -226.510341 -213.164270 0 120 255
13.424902 -226.554636 -215.434158 0 120 255
14.409415 -226.598932 -217.704047 0 120 255
15.398201 -226.643376 -219.971981 0 120 255
16.469335 -226.690696 -222.202240 0 120 255
17.540469 -226.738015 -224.432499 0 120 255
18.611603 -226.785334 -226.662758 0 120 255
19.683298 -226.832673 -228.892734 0 120 255
20.836016 -226.882805 -231.081878 0 120 255
21.988735 -226.932937 -233.271022 0 120 255
23.141453 -226.983069 -235.460165 0 120 255
24.294171 -227.033201 -237.649309 0 120 255
25.521449 -227.085898 -239.797417 0 120 255
26.751479 -227.138689 -241.944010 0 120 255
27.981510 -227.191480 -244.090603 0 120 255
29.211540 -227.244271 -246.237196 0 120 255
30.509602 -227.299391 -248.343160 0 120 255
31.813425 -227.354707 -250.445684 0 120 255
33.117249 -227.410024 -252.548208 0 120 255
34.421072 -227.465340 -254.650732 0 120 255
35.787280 -227.522771 -256.713023 0 120 255
37.162040 -227.580491 -258.769799 0 120 255
38.536799 -227.638212 -260.826575 0 120 255
39.911558 -227.695932 -262.883351 0 120 255
41.343845 -227.755601 -264.900196 0 120 255
42.787337 -227.815648 -266.909262 0 120 255
44.230829 -227.875696 -268.918328 0 120 255
45.674321 -227.935744 -270.927395 0 120 255
47.171132 -227.997584 -272.896712 0 120 255
48.681733 -228.059888 -274.855749 0 120 255
50.192334 -228.122191 -276.814786 0 120 255
51.702935 -228.184495 -278.773823 0 120 255
53.263183 -228.248483 -280.693152 0 120 255
54.839797 -228.313025 -282.599390 0 120 255
56.416412 -228.377568 -284.505627 0 120 255
57.993027 -228.442111 -286.411865 0 120 255
59.616037 -228.508206 -288.278296 0 120 255
61.258032 -228.574938 -290.128437 0 120 255
62.900027 -228.641669 -291.978578 0 120 255
64.542022 -228.708401 -293.828719 0 120 255
66.227464 -228.776616 -295.638833 0 120 255
67.934578 -228.845571 -297.428981 0 120 255
69.641692 -228.914527 -299.219129 0 120 255
71.348806 -228.983482 -301.009276 0 120 255
73.096673 -229.053768 -302.759038 0 120 255
74.869012 -229.124852 -304.484548 0 120 255
76.641350 -229.195937 -306.210058 0 120 255
78.413689 -229.267022 -307.935568 0 120 255
80.224338 -229.338628 -309.620143 0 120 255
82.062451 -229.410609 -311.275371 0 120 255
83.900565 -229.482590 -312.930600 0 120 255
85.738678 -229.554571 -314.585828 0 120 255
87.613264 -229.624385 -316.198908 0 120 255
89.518904 -229.692355 -317.776102 0 120 255
91.424544 -229.760324 -319.353295 0 120 255
93.330184 -229.828293 -320.930488 0 120 255
95.270747 -229.889937 -322.463727 0 120 255
97.246528 -229.945201 -323.952638 0 120 255
99.222310 -230.000465 -325.441549 0 120 255
101.198091 -230.055730 -326.930460 0 120 255
103.206525 -230.101716 -328.374022 0 120 255
105.253944 -230.136626 -329.763439 0 120 255
107.301363 -230.171535 -331.152856 0 120 255
109.348782 -230.206445 -332.542272 0 120 255
111.425871 -230.230485 -333.885519 0 120 255
113.544997 -230.239127 -335.163350 0 120 255
115.664123 -230.247768 -336.441182 0 120 255
117.783249 -230.256410 -337.719013 0 120 255
119.928513 -230.253391 -338.950449 0 120 255
122.117931 -230.230675 -340.103513 0 120 255
124.307349 -230.207959 -341.256576 0 120 255
126.496768 -230.185243 -342.409639 0 120 255
128.708346 -230.150805 -343.516800 0 120 255
130.964910 -230.092570 -344.530776 0 120 255
133.221475 -230.034335 -345.544753 0 120 255
135.478039 -229.976100 -346.558729 0 120 255
137.752450 -229.906703 -347.528202 0 120 255
140.070916 -229.809754 -348.387819 0 120 255
142.389381 -229.712806 -349.247437 0 120 255
144.707846 -229.615857 -350.107054 0 120 255
147.039694 -229.508839 -350.924611 0 120 255
149.412400 -229.371078 -351.613750 0 120 255
151.785105 -229.233318 -352.302889 0 120 255
154.157811 -229.095558 -352.992028 0 120 255
156.539501 -228.949235 -353.642764 0 120 255
158.955980 -228.769762 -354.144802 0 120 255
161.372459 -228.590288 -354.646840 0 120 255
163.788938 -228.410815 -355.148878 0 120 255
166.210451 -228.224617 -355.616767 0 120 255
168.657637 -228.004124 -355.910507 0 120 255
171.104824 -227.783632 -356.204247 0 120 255
173.552011 -227.563139 -356.497987 0 120 255
175.999245 -227.341294 -356.790259 0 120 255
178.446820 -227.109823 -357.072072 0 120 255
180.894396 -226.878351 -357.353886 0 120 255
183.341971 -226.646879 -357.635699 0 120 255
185.789546 -226.415407 -357.917514 0 120 255
188.237119 -226.183924 -358.199340 0 120 255
190.684692 -225.952441 -358.481166 0 120 255
193.132264 -225.720958 -358.762991 0 120 255
195.579837 -225.489475 -359.044817 0 120 255
198.027411 -225.257997 -359.326636 0 120 255
200.474985 -225.026518 -359.608454 0 120 255
202.922559 -224.795039 -359.890272 0 120 255
205.370133 -224.563560 -360.172091 0 120 255
