ply
format ascii 1.0
element vertex 385
property float x
property float y
property float z
property uchar red
property uchar green
property uchar blue
end_header
77.430455 -42.474882 -360.397637 0 120 255
77.187570 -42.528707 -357.936105 0 120 255
76.944684 -42.582533 -355.474574 0 120 255
76.701798 -42.636359 -353.013043 0 120 255
76.458913 -42.690185 -350.551511 0 120 255
76.214572 -42.750655 -348.090279 0 120 255
75.970168 -42.811416 -345.629059 0 120 255
75.725764 -42.872177 -343.167840 0 120 255
75.481360 -42.932939 -340.706620 0 120 255
75.115876 -43.365791 -338.301242 0 120 255
74.739355 -43.832563 -335.900954 0 120 255
74.362833 -44.299335 -333.500665 0 120 255
73.986312 -44.766106 -331.100377 0 120 255
73.525836 -45.555321 -328.805086 0 120 255
73.053140 -46.391472 -326.525078 0 120 255
72.580444 -47.227623 -324.245070 0 120 255
72.107747 -48.063774 -321.965062 0 120 255
71.584603 -49.175650 -319.822397 0 120 255
71.051067 -50.344324 -317.708026 0 120 255
70.517531 -51.512998 -315.593654 0 120 255
69.983995 -52.681672 -313.479283 0 120 255
69.429826 -54.079812 -311.520195 0 120 255
68.870017 -55.540688 -309.603563 0 120 255
68.310207 -57.001565 -307.686930 0 120 255
67.750397 -58.462441 -305.770297 0 120 255
67.195467 -60.109367 -304.015448 0 120 255
66.642238 -61.821203 -302.317042 0 120 255
66.089009 -63.533040 -300.618637 0 120 255
65.535780 -65.244877 -298.920232 0 120 255
65.008514 -67.103504 -297.381457 0 120 255
64.492511 -69.025809 -295.911929 0 120 255
63.976508 -70.948114 -294.442401 0 120 255
63.460504 -72.870418 -292.972874 0 120 255
62.987263 -74.905001 -291.654631 0 120 255
62.536683 -76.999084 -290.416559 0 120 255
62.086102 -79.093166 -289.178487 0 120 255
61.635522 -81.187249 -287.940415 0 120 255
61.240517 -83.363904 -286.841086 0 120 255
60.881056 -85.593369 -285.830492 0 120 255
60.521595 -87.822834 -284.819898 0 120 255
60.162134 -90.052299 -283.809304 0 120 255
59.867426 -92.339219 -282.922323 0 120 255
59.622300 -94.670131 -282.129993 0 120 255
59.377173 -97.001044 -281.337663 0 120 255
59.132047 -99.331956 -280.545333 0 120 255
58.957576 -101.699396 -279.860067 0 120 255
58.847557 -104.100155 -279.272463 0 120 255
58.737538 -106.500914 -278.684859 0 120 255
58.627519 -108.901673 -278.097255 0 120 255
58.591105 -111.321811 -277.599704 0 120 255
58.634505 -113.762964 -277.199806 0 120 255
58.677906 -116.204116 -276.799908 0 120 255
58.721307 -118.645269 -276.400010 0 120 255
58.838608 -121.092013 -276.073345 0 120 255
59.051212 -123.545969 -275.841122 0 120 255
59.263816 -125.999924 -275.608899 0 120 255
59.476419 -128.453880 -275.376676 0 120 255
59.760849 -130.902651 -275.201634 0 120 255
60.155765 -133.343447 -275.114554 0 120 255
60.550682 -135.784243 -275.027473 0 120 255
60.945598 -138.225039 -274.940392 0 120 255
61.408158 -140.652587 -274.895600 0 120 255
61.995572 -143.055682 -274.928862 0 120 255
62.582985 -145.458777 -274.962123 0 120 255
63.170399 -147.861873 -274.995385 0 120 255
63.819463 -150.246135 -275.057598 0 120 255
64.606361 -152.588293 -275.184537 0 120 255
65.393258 -154.930452 -275.311476 0 120 255
66.180155 -157.272610 -275.438415 0 120 255
67.021210 -159.592648 -275.582799 0 120 255
68.010994 -161.851935 -275.775091 0 120 255
69.000778 -164.111222 -275.967383 0 120 255
69.990562 -166.370509 -276.159676 0 120 255
71.025894 -168.606521 -276.360010 0 120 255
72.218084 -170.762376 -276.588038 0 120 255
73.410273 -172.918232 -276.816066 0 120 255
74.602463 -175.074088 -277.044094 0 120 255
75.830884 -177.207507 -277.273084 0 120 255
77.220696 -179.240985 -277.506355 0 120 255
78.610509 -181.274464 -277.739627 0 120 255
80.000321 -183.307942 -277.972899 0 120 255
81.416844 -185.321644 -278.202530 0 120 255
82.994974 -187.215696 -278.410136 0 120 255
84.573104 -189.109748 -278.617741 0 120 255
86.151234 -191.003800 -278.825346 0 120 255
87.746881 -192.882356 -279.027287 0 120 255
89.499282 -194.622253 -279.178539 0 120 255
91.251683 -196.362150 -279.329791 0 120 255
93.004084 -198.102047 -279.481044 0 120 255
94.765716 -199.832080 -279.627181 0 120 255
96.673627 -201.405822 -279.692274 0 120 255
98.581538 -202.979565 -279.757368 0 120 255
100.489449 -204.553308 -279.822461 0 120 255
102.399786 -206.123839 -279.885455 0 120 255
104.439850 -207.522674 -279.836178 0 120 255
106.479914 -208.921508 -279.786902 0 120 255
108.519978 -210.320342 -279.737625 0 120 255
110.560042 -211.719177 -279.688348 0 120 255
112.702365 -212.942037 -279.502055 0 120 255
114.847045 -214.160840 -279.312602 0 120 255
116.991726 -215.379643 -279.123149 0 120 255
119.136406 -216.598445 -278.933697 0 120 255
121.349884 -217.647613 -278.591712 0 120 255
123.568013 -218.685311 -278.239414 0 120 255
125.786142 -219.723009 -277.887116 0 120 255
128.004271 -220.760707 -277.534818 0 120 255
130.257741 -221.639008 -277.019733 0 120 255
132.515315 -222.498797 -276.485742 0 120 255
134.772890 -223.358586 -275.951751 0 120 255
137.030465 -224.218375 -275.417759 0 120 255
139.291055 -224.932520 -274.716043 0 120 255
141.552155 -225.622019 -273.985944 0 120 255
143.813255 -226.311518 -273.255844 0 120 255
146.074354 -227.001017 -272.525745 0 120 255
148.308354 -227.561532 -271.628108 0 120 255
150.536187 -228.092692 -270.692341 0 120 255
152.764019 -228.623852 -269.756574 0 120 255
154.991851 -229.155012 -268.820807 0 120 255
157.165600 -229.576099 -267.722439 0 120 255
159.323554 -229.965038 -266.576581 0 120 255
161.481508 -230.353976 -265.430724 0 120 255
163.639461 -230.742915 -264.284866 0 120 255
165.720213 -231.042150 -262.985522 0 120 255
167.772889 -231.308761 -261.630359 0 120 255
169.825565 -231.575373 -260.275196 0 120 255
171.878241 -231.841984 -258.920033 0 120 255
173.834997 -232.039934 -257.424047 0 120 255
175.749192 -232.207417 -255.865575 0 120 255
177.663386 -232.374900 -254.307102 0 120 255
179.577581 -232.542383 -252.748630 0 120 255
181.381736 -232.662673 -251.064727 0 120 255
183.127152 -232.757771 -249.313868 0 120 255
184.872567 -232.852869 -247.563008 0 120 255
186.617982 -232.947967 -245.812149 0 120 255
188.244259 -233.018157 -243.953517 0 120 255
189.794763 -233.072507 -242.026339 0 120 255
191.345267 -233.126857 -240.099162 0 120 255
192.895770 -233.181207 -238.171985 0 120 255
194.322909 -233.226950 -236.155870 0 120 255
195.657065 -233.266207 -234.072720 0 120 255
196.991220 -233.305463 -231.989569 0 120 255
198.325375 -233.344719 -229.906419 0 120 255
199.533433 -233.378911 -227.751948 0 120 255
200.629221 -233.408594 -225.533977 0 120 255
201.725010 -233.438277 -223.316007 0 120 255
202.820799 -233.467959 -221.098036 0 120 255
203.790864 -233.493434 -218.826534 0 120 255
204.628875 -233.514490 -216.498805 0 120 255
205.466885 -233.535545 -214.171076 0 120 255
206.304895 -233.556600 -211.843347 0 120 255
207.020927 -233.573385 -209.479464 0 120 255
207.585653 -233.584871 -207.070734 0 120 255
208.150378 -233.596358 -204.662004 0 120 255
208.715104 -233.607844 -202.253274 0 120 255
209.164326 -233.615143 -199.824498 0 120 255
209.443851 -233.616289 -197.366268 0 120 255
209.723377 -233.617436 -194.908039 0 120 255
210.002902 -233.618582 -192.449810 0 120 255
210.175911 -233.615855 -189.985839 0 120 255
210.162542 -233.606352 -187.511822 0 120 255
210.149173 -233.596848 -185.037806 0 120 255
210.135804 -233.587344 -182.563789 0 120 255
210.027110 -233.574393 -180.096030 0 120 255
209.718034 -233.554193 -177.641424 0 120 255
209.408957 -233.533994 -175.186818 0 120 255
209.099881 -233.513794 -172.732212 0 120 255
208.708332 -233.490649 -170.293126 0 120 255
208.105804 -233.459969 -167.893741 0 120 255
207.503277 -233.429289 -165.494356 0 120 255
206.900749 -233.398609 -163.094972 0 120 255
206.229658 -233.365513 -160.717339 0 120 255
205.341094 -233.324750 -158.408699 0 120 255
204.452529 -233.283988 -156.100059 0 120 255
203.563964 -233.243226 -153.791419 0 120 255
202.621137 -233.200579 -151.507589 0 120 255
201.458981 -233.150312 -149.324038 0 120 255
200.296824 -233.100045 -147.140487 0 120 255
199.134668 -233.049778 -144.956937 0 120 255
197.932278 -232.998136 -142.798086 0 120 255
196.513751 -232.939107 -140.771927 0 120 255
195.095223 -232.880079 -138.745768 0 120 255
193.676695 -232.821051 -136.719608 0 120 255
192.231050 -232.761113 -134.715029 0 120 255
190.577718 -232.694208 -132.875724 0 120 255
188.924385 -232.627303 -131.036419 0 120 255
187.271053 -232.560398 -129.197114 0 120 255
185.602224 -232.492986 -127.373551 0 120 255
183.739398 -232.419234 -125.747061 0 120 255
181.876573 -232.345482 -124.120572 0 120 255
180.013747 -232.271730 -122.494082 0 120 255
178.145048 -232.197792 -120.875205 0 120 255
176.101020 -232.118316 -119.483565 0 120 255
174.056993 -232.038840 -118.091926 0 120 255
172.012965 -231.959365 -116.700286 0 120 255
169.968937 -231.879889 -115.308646 0 120 255
167.775711 -231.795895 -114.167180 0 120 255
165.581101 -231.711859 -113.028036 0 120 255
163.386491 -231.627823 -111.888891 0 120 255
161.191880 -231.543786 -110.749746 0 120 255
158.884844 -231.456582 -109.862660 0 120 255
156.571781 -231.369209 -108.989085 0 120 255
154.258718 -231.281835 -108.115511 0 120 255
151.945655 -231.194461 -107.241937 0 120 255
149.554928 -231.105164 -106.616994 0 120 255
147.156274 -231.015670 -106.017434 0 120 255
144.757619 -230.926177 -105.417874 0 120 255
142.358964 -230.836683 -104.818313 0 120 255
139.914641 -230.746400 -104.459366 0 120 255
137.463223 -230.655994 -104.137798 0 120 255
135.011806 -230.565587 -103.816230 0 120 255
132.560388 -230.475181 -103.494662 0 120 255
130.091985 -230.385021 -103.401801 0 120 255
127.619945 -230.294913 -103.357910 0 120 255
125.147905 -230.204804 -103.314018 0 120 255
122.675866 -230.114696 -103.270126 0 120 255
120.211827 -230.025656 -103.439943 0 120 255
117.750023 -229.936914 -103.669446 0 120 255
115.288218 -229.848172 -103.898948 0 120 255
112.826414 -229.759430 -104.128451 0 120 255
110.393688 -229.672477 -104.554400 0 120 255
107.971197 -229.586153 -105.049487 0 120 255
105.548706 -229.499830 -105.544573 0 120 255
103.126214 -229.413506 -106.039659 0 120 255
100.749941 -229.329516 -106.712472 0 120 255
98.393701 -229.246538 -107.462324 0 120 255
96.037462 -229.163560 -108.212176 0 120 255
93.681223 -229.080582 -108.962028 0 120 255
91.384460 -229.000366 -109.870028 0 120 255
89.118958 -228.921601 -110.861150 0 120 255
86.853455 -228.842836 -111.852272 0 120 255
84.587953 -228.764071 -112.843393 0 120 255
82.391513 -228.688309 -113.972927 0 120 255
80.238621 -228.614442 -115.189736 0 120 255
78.085728 -228.540574 -116.406544 0 120 255
75.932835 -228.466706 -117.623353 0 120 255
73.855292 -228.396029 -118.959356 0 120 255
71.834346 -228.327748 -120.384887 0 120 255
69.813399 -228.259466 -121.810419 0 120 255
67.792453 -228.191185 -123.235951 0 120 255
65.850178 -228.126153 -124.762314 0 120 255
63.978002 -228.064016 -126.378519 0 120 255
62.105825 -228.001878 -127.994725 0 120 255
60.233649 -227.939741 -129.610931 0 120 255
58.440878 -227.880797 -131.310777 0 120 255
56.731902 -227.825222 -133.098888 0 120 255
55.022926 -227.769648 -134.886999 0 120 255
53.313950 -227.714073 -136.675110 0 120 255
51.682907 -227.661588 -138.531074 0 120 255
50.149345 -227.612965 -140.471912 0 120 255
48.615784 -227.564342 -142.412749 0 120 255
47.082222 -227.515719 -144.353587 0 120 255
45.623253 -227.470013 -146.348025 0 120 255
44.275241 -227.428647 -148.422195 0 120 255
42.927230 -227.387280 -150.496365 0 120 255
41.579218 -227.345914 -152.570535 0 120 255
40.300912 -227.307234 -154.685674 0 120 255
39.146676 -227.273336 -156.873737 0 120 255
37.992439 -227.239439 -159.061799 0 120 255
36.838203 -227.205541 -161.249862 0 120 255
35.747502 -227.174073 -163.467920 0 120 255
34.793411 -227.147827 -165.750472 0 120 255
33.839319 -227.121580 -168.033025 0 120 255
32.885227 -227.095334 -170.315578 0 120 255
31.987457 -227.071219 -172.618828 0 120 255
31.238032 -227.052717 -174.976591 0 120 255
30.488607 -227.034215 -177.334354 0 120 255
29.739182 -227.015714 -179.692117 0 120 255
29.038034 -226.999016 -182.062959 0 120 255
28.495862 -226.988260 -184.476868 0 120 255
27.953689 -226.977504 -186.890778 0 120 255
27.411516 -226.966748 -189.304688 0 120 255
26.909004 -226.957465 -191.725746 0 120 255
26.574806 -226.954438 -194.177139 0 120 255
26.240609 -226.951411 -196.628533 0 120 255
25.906411 -226.948383 -199.079926 0 120 255
25.602928 -226.946484 -201.534199 0 120 255
25.475642 -226.951057 -204.004989 0 120 255
25.348356 -226.955630 -206.475779 0 120 255
25.221069 -226.960203 -208.946569 0 120 255
25.115473 -226.965566 -211.417578 0 120 255
25.192445 -226.977578 -213.890422 0 120 255
25.269418 -226.989591 -216.363266 0 120 255
25.346390 -227.001603 -218.836110 0 120 255
25.436147 -227.014077 -221.308034 0 120 255
25.713164 -227.033303 -223.766472 0 120 255
25.990181 -227.052530 -226.224910 0 120 255
26.267198 -227.071756 -228.683348 0 120 255
26.548417 -227.091133 -231.141142 0 120 255
27.019898 -227.117334 -233.569731 0 120 255
27.491378 -227.143536 -235.998321 0 120 255
27.962859 -227.169737 -238.426910 0 120 255
28.434340 -227.195939 -240.855499 0 120 255
29.089623 -227.228670 -243.240831 0 120 255
29.748795 -227.261539 -245.625246 0 120 255
30.407967 -227.294408 -248.009662 0 120 255
31.067140 -227.327278 -250.394078 0 120 255
31.894839 -227.366095 -252.724813 0 120 255
32.733884 -227.405314 -255.051934 0 120 255
33.572928 -227.444532 -257.379055 0 120 255
34.411972 -227.483750 -259.706177 0 120 255
35.404267 -227.528326 -261.971385 0 120 255
36.414628 -227.573533 -264.229294 0 120 255
37.424989 -227.618741 -266.487203 0 120 255
38.435350 -227.663948 -268.745112 0 120 255
39.583849 -227.713921 -270.934944 0 120 255
40.756317 -227.764720 -273.112962 0 120 255
41.928786 -227.815520 -275.290980 0 120 255
43.101254 -227.866319 -277.468999 0 120 255
44.397153 -227.921365 -279.574664 0 120 255
45.722067 -227.977410 -281.663321 0 120 255
47.046981 -228.033454 -283.751978 0 120 255
48.371896 -228.089499 -285.840635 0 120 255
49.806122 -228.149240 -287.854368 0 120 255
51.273523 -228.210103 -289.845361 0 120 255
52.740925 -228.270966 -291.836355 0 120 255
54.208326 -228.331829 -293.827349 0 120 255
55.771622 -228.395915 -295.742378 0 120 255
57.371355 -228.461226 -297.628542 0 120 255
58.971088 -228.526536 -299.514706 0 120 255
60.570821 -228.591846 -301.400870 0 120 255
62.253817 -228.659960 -303.211398 0 120 255
63.975620 -228.729381 -304.986673 0 120 255
65.697423 -228.798802 -306.761949 0 120 255
67.419227 -228.868222 -308.537224 0 120 255
69.212562 -228.939955 -310.238354 0 120 255
71.046222 -229.012992 -311.897686 0 120 255
72.879882 -229.086028 -313.557018 0 120 255
74.713543 -229.159065 -315.216349 0 120 255
76.607971 -229.233279 -316.804019 0 120 255
78.543448 -229.308289 -318.343283 0 120 255
80.478924 -229.383298 -319.882546 0 120 255
82.414400 -229.458308 -321.421810 0 120 255
84.400236 -229.531288 -322.893700 0 120 255
86.426594 -229.602633 -324.311377 0 120 255
88.452953 -229.673978 -325.729054 0 120 255
90.479312 -229.745324 -327.146730 0 120 255
92.546997 -229.810010 -328.501756 0 120 255
94.654189 -229.868329 -329.796888 0 120 255
96.761381 -229.926649 -331.092020 0 120 255
98.868574 -229.984969 -332.387151 0 120 255
101.009321 -230.033632 -333.624353 0 120 255
103.188157 -230.071336 -334.795796 0 120 255
105.366993 -230.109039 -335.967239 0 120 255
107.545829 -230.146742 -337.138682 0 120 255
109.751361 -230.173184 -338.257179 0 120 255
111.992944 -230.184420 -339.304179 0 120 255
114.234527 -230.195655 -340.351178 0 120 255
116.476109 -230.206890 -341.398177 0 120 255
118.738427 -230.206099 -342.397340 0 120 255
121.034206 -230.185902 -343.319303 0 120 255
123.329986 -230.165704 -344.241266 0 120 255
125.625766 -230.145507 -345.163228 0 120 255
127.937150 -230.113253 -346.042545 0 120 255
130.278868 -230.057561 -346.838962 0 120 255
132.620587 -230.001869 -347.635379 0 120 255
134.962305 -229.946178 -348.431796 0 120 255
137.315279 -229.879010 -349.190809 0 120 255
139.694922 -229.784650 -349.861201 0 120 255
142.074565 -229.690291 -350.531592 0 120 255
144.454207 -229.595932 -351.201983 0 120 255
146.841494 -229.491176 -351.840257 0 120 255
149.251245 -229.355870 -352.384153 0 120 255
151.660995 -229.220564 -352.928048 0 120 255
154.070745 -229.085259 -353.471944 0 120 255
156.485238 -228.941022 -353.989032 0 120 255
158.917461 -228.763392 -354.405881 0 120 255
161.349685 -228.585761 -354.822731 0 120 255
163.781908 -228.408131 -355.239580 0 120 255
166.216651 -228.223327 -355.634979 0 120 255
168.663860 -228.003021 -355.924213 0 120 255
171.111070 -227.782715 -356.213447 0 120 255
173.558280 -227.562409 -356.502682 0 120 255
176.005471 -227.340706 -356.790976 0 120 255
178.452527 -227.109283 -357.072729 0 120 255
180.899584 -226.877860 -357.354483 0 120 255
183.346640 -226.646438 -357.636237 0 120 255
185.793696 -226.415014 -357.917992 0 120 255
188.240750 -226.183580 -358.199758 0 120 255
190.687804 -225.952147 -358.481524 0 120 255
193.134858 -225.720713 -358.763290 0 120 255
195.581912 -225.489279 -359.045056 0 120 255
198.028968 -225.257849 -359.326815 0 120 255
200.476023 -225.026420 -359.608573 0 120 255
202.923078 -224.794990 -359.890332 0 120 255
205.370133 -224.563560 -360.172091 0 120 255
