ply
format ascii 1.0
element vertex 385
property float x
property float y
property float z
property uchar red
property uchar green
property uchar blue
end_header
77.430455 -42.474882 -360.397637 0 120 255
77.187565 -42.528708 -357.936063 0 120 255
76.944676 -42.582535 -355.474489 0 120 255
76.701786 -42.636362 -353.012916 0 120 255
76.458896 -42.690188 -350.551342 0 120 255
76.215692 -42.752264 -348.089994 0 120 255
75.972475 -42.814700 -345.628656 0 120 255
75.729257 -42.877135 -343.167318 0 120 255
75.486040 -42.939571 -340.705980 0 120 255
75.141154 -43.496594 -338.325189 0 120 255
74.786994 -44.098736 -335.951745 0 120 255
74.432833 -44.700879 -333.578302 0 120 255
74.078672 -45.303022 -331.204859 0 120 255
73.665381 -46.304865 -328.986962 0 120 255
73.243361 -47.365710 -326.792026 0 120 255
72.821340 -48.426555 -324.597090 0 120 255
72.399320 -49.487401 -322.402154 0 120 255
71.953956 -50.861872 -320.400900 0 120 255
71.503682 -52.302321 -318.440390 0 120 255
71.053408 -53.742770 -316.479880 0 120 255
70.603133 -55.183218 -314.519370 0 120 255
70.157904 -56.860900 -312.764150 0 120 255
69.714089 -58.605077 -311.066472 0 120 255
69.270273 -60.349255 -309.368795 0 120 255
68.826458 -62.093433 -307.671117 0 120 255
68.409247 -64.011275 -306.173227 0 120 255
68.001576 -65.991388 -304.746975 0 120 255
67.593904 -67.971502 -303.320724 0 120 255
67.186233 -69.951615 -301.894473 0 120 255
66.821000 -72.054666 -300.652586 0 120 255
66.474722 -74.212624 -299.493040 0 120 255
66.128443 -76.370582 -298.333495 0 120 255
65.782164 -78.528540 -297.173949 0 120 255
65.489608 -80.770049 -296.178353 0 120 255
65.226402 -83.057205 -295.272329 0 120 255
64.963196 -85.344361 -294.366305 0 120 255
64.699990 -87.631516 -293.460281 0 120 255
64.498226 -89.972178 -292.695955 0 120 255
64.337027 -92.348164 -292.025176 0 120 255
64.175827 -94.724149 -291.354397 0 120 255
64.014627 -97.100135 -290.683617 0 120 255
63.919790 -99.506949 -290.132293 0 120 255
63.877469 -101.938160 -289.675500 0 120 255
63.835148 -104.369371 -289.218706 0 120 255
63.792828 -106.800582 -288.761913 0 120 255
63.819512 -109.245612 -288.403346 0 120 255
63.911348 -111.703689 -288.137522 0 120 255
64.003185 -114.161765 -287.871697 0 120 255
64.095021 -116.619842 -287.605873 0 120 255
64.256562 -119.079041 -287.418554 0 120 255
64.496483 -121.539502 -287.319513 0 120 255
64.736403 -123.999962 -287.220471 0 120 255
64.976324 -126.460423 -287.121429 0 120 255
65.284898 -128.912609 -287.082926 0 120 255
65.685492 -131.353704 -287.125566 0 120 255
66.086086 -133.794799 -287.168207 0 120 255
66.486680 -136.235893 -287.210847 0 120 255
66.953246 -138.661890 -287.297926 0 120 255
67.525597 -141.063677 -287.456264 0 120 255
68.097949 -143.465464 -287.614602 0 120 255
68.670301 -145.867251 -287.772940 0 120 255
69.304388 -148.249209 -287.961516 0 120 255
70.057715 -150.592868 -288.208497 0 120 255
70.811041 -152.936527 -288.455478 0 120 255
71.564368 -155.280186 -288.702458 0 120 255
72.373740 -157.601077 -288.967500 0 120 255
73.314897 -159.868432 -289.275009 0 120 255
74.256055 -162.135787 -289.582518 0 120 255
75.197212 -164.403142 -289.890027 0 120 255
76.187409 -166.646432 -290.205520 0 120 255
77.320241 -168.819725 -290.544236 0 120 255
78.453072 -170.993017 -290.882952 0 120 255
79.585904 -173.166310 -291.221668 0 120 255
80.759697 -175.315807 -291.560556 0 120 255
82.084355 -177.377661 -291.900079 0 120 255
83.409013 -179.439515 -292.239602 0 120 255
84.733672 -181.501370 -292.579126 0 120 255
86.090481 -183.541242 -292.913437 0 120 255
87.602682 -185.474874 -293.222556 0 120 255
89.114883 -187.408505 -293.531676 0 120 255
90.627084 -189.342137 -293.840795 0 120 255
92.162368 -191.257112 -294.141888 0 120 255
93.852790 -193.046702 -294.389034 0 120 255
95.543212 -194.836291 -294.636179 0 120 255
97.233634 -196.625881 -294.883324 0 120 255
98.938392 -198.401578 -295.122280 0 120 255
100.792130 -200.032904 -295.276127 0 120 255
102.645868 -201.664229 -295.429975 0 120 255
104.499606 -203.295555 -295.583822 0 120 255
106.359934 -204.919016 -295.731968 0 120 255
108.356304 -206.380118 -295.762405 0 120 255
110.352675 -207.841219 -295.792843 0 120 255
112.349045 -209.302320 -295.823281 0 120 255
114.345968 -210.762571 -295.852999 0 120 255
116.458544 -212.044607 -295.731992 0 120 255
118.571120 -213.326643 -295.610985 0 120 255
120.683696 -214.608679 -295.489978 0 120 255
122.796273 -215.890715 -295.368971 0 120 255
124.990277 -216.995443 -295.078078 0 120 255
127.187373 -218.093438 -294.780734 0 120 255
129.384469 -219.191434 -294.483390 0 120 255
131.581565 -220.289429 -294.186047 0 120 255
133.823271 -221.217393 -293.707005 0 120 255
136.068742 -222.131007 -293.212629 0 120 255
138.314213 -223.044621 -292.718253 0 120 255
140.559684 -223.958235 -292.223877 0 120 255
142.813074 -224.713614 -291.542157 0 120 255
145.067534 -225.447616 -290.835129 0 120 255
147.321993 -226.181619 -290.128101 0 120 255
149.576453 -226.915621 -289.421073 0 120 255
151.803842 -227.507358 -288.527115 0 120 255
154.026067 -228.071962 -287.597505 0 120 255
156.248293 -228.636566 -286.667895 0 120 255
158.470518 -229.201170 -285.738285 0 120 255
160.633879 -229.642954 -284.627871 0 120 255
162.782402 -230.053780 -283.471883 0 120 255
164.930926 -230.464607 -282.315896 0 120 255
167.079449 -230.875433 -281.159908 0 120 255
169.141714 -231.185537 -279.834278 0 120 255
171.176369 -231.463401 -278.454348 0 120 255
173.211025 -231.741265 -277.074418 0 120 255
175.245680 -232.019129 -275.694488 0 120 255
177.171928 -232.219969 -274.160202 0 120 255
179.055255 -232.390314 -272.564802 0 120 255
180.938582 -232.560659 -270.969402 0 120 255
182.821909 -232.731004 -269.374002 0 120 255
184.580377 -232.849028 -267.642703 0 120 255
186.278782 -232.941884 -265.846029 0 120 255
187.977187 -233.034740 -264.049356 0 120 255
189.675591 -233.127595 -262.252682 0 120 255
191.238427 -233.193181 -260.340678 0 120 255
192.722989 -233.243022 -258.362084 0 120 255
194.207550 -233.292862 -256.383491 0 120 255
195.692111 -233.342703 -254.404898 0 120 255
197.035967 -233.384485 -252.332733 0 120 255
198.283082 -233.420726 -250.196233 0 120 255
199.530197 -233.456967 -248.059734 0 120 255
200.777311 -233.493208 -245.923235 0 120 255
201.883133 -233.524147 -243.714856 0 120 255
202.873827 -233.550767 -241.447907 0 120 255
203.864521 -233.577387 -239.180959 0 120 255
204.855214 -233.604006 -236.914010 0 120 255
205.707676 -233.625882 -234.596008 0 120 255
206.427023 -233.643190 -232.228841 0 120 255
207.146370 -233.660499 -229.861674 0 120 255
207.865716 -233.677807 -227.494507 0 120 255
208.453320 -233.690278 -225.095573 0 120 255
208.891056 -233.697245 -222.660501 0 120 255
209.328792 -233.704213 -220.225429 0 120 255
209.766528 -233.711181 -217.790357 0 120 255
210.081932 -233.713659 -215.340605 0 120 255
210.232620 -233.710091 -212.871087 0 120 255
210.383308 -233.706523 -210.401569 0 120 255
210.533996 -233.702955 -207.932051 0 120 255
210.574104 -233.695351 -205.462239 0 120 255
210.437188 -233.681285 -202.991957 0 120 255
210.300272 -233.667220 -200.521675 0 120 255
210.163355 -233.653154 -198.051393 0 120 255
209.929161 -233.635594 -195.592190 0 120 255
209.508444 -233.611333 -193.154231 0 120 255
209.087726 -233.587072 -190.716271 0 120 255
208.667009 -233.562811 -188.278312 0 120 255
208.163304 -233.535593 -185.859655 0 120 255
207.466902 -233.501510 -183.485818 0 120 255
206.770499 -233.467426 -181.111982 0 120 255
206.074097 -233.433343 -178.738145 0 120 255
205.309337 -233.396861 -176.388680 0 120 255
204.349262 -233.353526 -174.108852 0 120 255
203.389187 -233.310192 -171.829024 0 120 255
202.429111 -233.266857 -169.549197 0 120 255
201.415086 -233.221650 -167.295766 0 120 255
200.206876 -233.169706 -165.137348 0 120 255
198.998666 -233.117762 -162.978930 0 120 255
197.790456 -233.065818 -160.820512 0 120 255
196.541921 -233.012495 -158.687714 0 120 255
195.104004 -232.952697 -156.675239 0 120 255
193.666086 -232.892898 -154.662764 0 120 255
192.228169 -232.833100 -152.650289 0 120 255
190.762282 -232.772370 -150.660215 0 120 255
189.115083 -232.705602 -148.815353 0 120 255
187.467885 -232.638833 -146.970491 0 120 255
185.820686 -232.572064 -145.125628 0 120 255
184.156310 -232.504729 -143.297860 0 120 255
182.321831 -232.431784 -141.639365 0 120 255
180.487353 -232.358839 -139.980870 0 120 255
178.652874 -232.285894 -138.322375 0 120 255
176.810219 -232.212689 -136.673956 0 120 255
174.811491 -232.134533 -135.217860 0 120 255
172.812763 -232.056376 -133.761764 0 120 255
170.814035 -231.978219 -132.305668 0 120 255
168.814206 -231.900029 -130.851263 0 120 255
166.675022 -231.817533 -129.610972 0 120 255
164.535837 -231.735038 -128.370681 0 120 255
162.396653 -231.652543 -127.130390 0 120 255
160.257468 -231.570047 -125.890099 0 120 255
158.006052 -231.484254 -124.868893 0 120 255
155.750670 -231.398345 -123.855428 0 120 255
153.495289 -231.312436 -122.841962 0 120 255
151.239908 -231.226526 -121.828497 0 120 255
148.899892 -231.138368 -121.032695 0 120 255
146.552907 -231.050025 -120.254817 0 120 255
144.205921 -230.961682 -119.476940 0 120 255
141.858936 -230.873339 -118.699062 0 120 255
139.453050 -230.783611 -118.134860 0 120 255
137.039281 -230.693697 -117.599256 0 120 255
134.625512 -230.603783 -117.063653 0 120 255
132.211742 -230.513869 -116.528049 0 120 255
129.762873 -230.423456 -116.199915 0 120 255
127.307319 -230.332948 -115.911297 0 120 255
124.851765 -230.242439 -115.622678 0 120 255
122.396211 -230.151931 -115.334059 0 120 255
119.927401 -230.061671 -115.244821 0 120 255
117.455236 -229.971474 -115.206022 0 120 255
114.983072 -229.881277 -115.167223 0 120 255
112.510907 -229.791080 -115.128424 0 120 255
110.045359 -229.701828 -115.279219 0 120 255
107.581943 -229.612881 -115.491137 0 120 255
105.118527 -229.523933 -115.703055 0 120 255
102.655112 -229.434986 -115.914973 0 120 255
100.216187 -229.347588 -116.305216 0 120 255
97.787056 -229.260810 -116.766767 0 120 255
95.357925 -229.174031 -117.228317 0 120 255
92.928794 -229.087253 -117.689868 0 120 255
90.539936 -229.002564 -118.316994 0 120 255
88.170688 -228.918893 -119.024738 0 120 255
85.801440 -228.835222 -119.732481 0 120 255
83.432192 -228.751550 -120.440225 0 120 255
81.116740 -228.670409 -121.299416 0 120 255
78.832775 -228.590748 -122.247254 0 120 255
76.548810 -228.511087 -123.195093 0 120 255
74.264846 -228.431426 -124.142931 0 120 255
72.045646 -228.354625 -125.226749 0 120 255
69.871628 -228.279820 -126.405430 0 120 255
67.697611 -228.205015 -127.584111 0 120 255
65.523593 -228.130210 -128.762792 0 120 255
63.422508 -228.058511 -130.060991 0 120 255
61.381735 -227.989379 -131.458024 0 120 255
59.340961 -227.920248 -132.855058 0 120 255
57.300187 -227.851116 -134.252091 0 120 255
55.337546 -227.785212 -135.751650 0 120 255
53.451286 -227.722464 -137.351439 0 120 255
51.565026 -227.659716 -138.951227 0 120 255
49.678766 -227.596967 -140.551016 0 120 255
47.872863 -227.537458 -142.236387 0 120 255
46.159804 -227.481691 -144.020640 0 120 255
44.446745 -227.425924 -145.804893 0 120 255
42.733686 -227.370157 -147.589145 0 120 255
41.100377 -227.317559 -149.442653 0 120 255
39.576198 -227.269298 -151.390931 0 120 255
38.052018 -227.221038 -153.339208 0 120 255
36.527838 -227.172777 -155.287486 0 120 255
35.080207 -227.127506 -157.289795 0 120 255
33.757217 -227.087104 -159.380083 0 120 255
32.434226 -227.046701 -161.470370 0 120 255
31.111236 -227.006299 -163.560658 0 120 255
29.859330 -226.968634 -165.691267 0 120 255
28.746225 -226.936315 -167.900609 0 120 255
27.633120 -226.903995 -170.109950 0 120 255
26.520015 -226.871675 -172.319292 0 120 255
25.470685 -226.841774 -174.557078 0 120 255
24.572416 -226.817602 -176.862239 0 120 255
23.674148 -226.793429 -179.167400 0 120 255
22.775879 -226.769257 -181.472561 0 120 255
21.932800 -226.747164 -183.796359 0 120 255
21.250968 -226.731150 -186.174612 0 120 255
20.569137 -226.715136 -188.552865 0 120 255
19.887305 -226.699121 -190.931118 0 120 255
19.251512 -226.684825 -193.320369 0 120 255
18.785710 -226.676875 -195.750225 0 120 255
18.319909 -226.668924 -198.180082 0 120 255
17.854107 -226.660973 -200.609939 0 120 255
17.424970 -226.654378 -203.045176 0 120 255
17.173308 -226.654351 -205.506457 0 120 255
16.921646 -226.654323 -207.967738 0 120 255
16.669984 -226.654296 -210.429019 0 120 255
16.445613 -226.655269 -212.891915 0 120 255
16.404982 -226.662977 -215.365682 0 120 255
16.364351 -226.670686 -217.839450 0 120 255
16.323720 -226.678394 -220.313218 0 120 255
16.301181 -226.686760 -222.786523 0 120 255
16.467458 -226.701984 -225.254996 0 120 255
16.633734 -226.717209 -227.723469 0 120 255
16.800011 -226.732434 -230.191942 0 120 255
16.975492 -226.747990 -232.659411 0 120 255
17.343757 -226.770493 -235.105860 0 120 255
17.712022 -226.792996 -237.552309 0 120 255
18.080286 -226.815499 -239.998758 0 120 255
18.449279 -226.838028 -242.445067 0 120 255
19.014009 -226.867549 -244.853686 0 120 255
19.578739 -226.897071 -247.262305 0 120 255
20.143469 -226.926592 -249.670924 0 120 255
20.708198 -226.956114 -252.079543 0 120 255
21.456091 -226.992121 -254.437331 0 120 255
22.211246 -227.028385 -256.793104 0 120 255
22.966401 -227.064649 -259.148876 0 120 255
23.721556 -227.100913 -261.504649 0 120 255
24.645849 -227.143111 -263.798623 0 120 255
25.584841 -227.185824 -266.087227 0 120 255
26.523833 -227.228538 -268.375831 0 120 255
27.462825 -227.271251 -270.664435 0 120 255
28.556961 -227.319354 -272.882035 0 120 255
29.672605 -227.368205 -275.089791 0 120 255
30.788249 -227.417055 -277.297548 0 120 255
31.903893 -227.465905 -279.505305 0 120 255
33.160762 -227.519610 -281.634513 0 120 255
34.445235 -227.574263 -283.748367 0 120 255
35.729707 -227.628917 -285.862222 0 120 255
37.014180 -227.683570 -287.976076 0 120 255
38.425900 -227.742547 -290.005554 0 120 255
39.870478 -227.802641 -292.013245 0 120 255
41.315055 -227.862734 -294.020936 0 120 255
42.759633 -227.922827 -296.028627 0 120 255
44.317317 -227.986711 -297.948007 0 120 255
45.912086 -228.051838 -299.838432 0 120 255
47.506856 -228.116965 -301.728857 0 120 255
49.101626 -228.182092 -303.619282 0 120 255
50.795362 -228.250490 -305.419430 0 120 255
52.529249 -228.320215 -307.182952 0 120 255
54.263137 -228.389940 -308.946473 0 120 255
55.997025 -228.459665 -310.709995 0 120 255
57.815965 -228.532162 -312.383271 0 120 255
59.676853 -228.606026 -314.012036 0 120 255
61.537742 -228.679889 -315.640802 0 120 255
63.398630 -228.753753 -317.269567 0 120 255
65.331213 -228.829952 -318.809983 0 120 255
67.306269 -228.907534 -320.298060 0 120 255
69.281325 -228.985116 -321.786138 0 120 255
71.256380 -229.062699 -323.274215 0 120 255
73.290554 -229.142155 -324.677616 0 120 255
75.366451 -229.222935 -326.021253 0 120 255
77.442349 -229.303715 -327.364890 0 120 255
79.518247 -229.384494 -328.708527 0 120 255
81.641585 -229.465668 -329.973027 0 120 255
83.804615 -229.547172 -331.171317 0 120 255
85.967645 -229.628676 -332.369606 0 120 255
88.130674 -229.710180 -333.567896 0 120 255
90.330003 -229.786193 -334.695804 0 120 255
92.565243 -229.856775 -335.754086 0 120 255
94.800482 -229.927356 -336.812368 0 120 255
97.035722 -229.997937 -337.870650 0 120 255
99.297960 -230.058256 -338.867919 0 120 255
101.591784 -230.106567 -339.793811 0 120 255
103.885608 -230.154878 -340.719702 0 120 255
106.179432 -230.203189 -341.645594 0 120 255
108.492792 -230.238833 -342.519576 0 120 255
110.833241 -230.256911 -343.321580 0 120 255
113.173690 -230.274989 -344.123583 0 120 255
115.514139 -230.293067 -344.925586 0 120 255
117.868198 -230.297489 -345.684498 0 120 255
120.244733 -230.279356 -346.372241 0 120 255
122.621268 -230.261224 -347.059984 0 120 255
124.997803 -230.243091 -347.747726 0 120 255
127.383374 -230.211463 -348.400694 0 120 255
129.786863 -230.153075 -348.984706 0 120 255
132.190352 -230.094686 -349.568718 0 120 255
134.593841 -230.036298 -350.152730 0 120 255
137.002968 -229.965483 -350.709600 0 120 255
139.425681 -229.864728 -351.201077 0 120 255
141.848393 -229.763974 -351.692555 0 120 255
144.271106 -229.663220 -352.184033 0 120 255
146.697053 -229.551759 -352.655193 0 120 255
149.132634 -229.408411 -353.065844 0 120 255
151.568215 -229.265063 -353.476495 0 120 255
154.003796 -229.121715 -353.887146 0 120 255
156.441021 -228.969782 -354.283402 0 120 255
158.884451 -228.785432 -354.625310 0 120 255
161.327882 -228.601082 -354.967219 0 120 255
163.771312 -228.416732 -355.309128 0 120 255
166.215407 -228.226238 -355.641915 0 120 255
168.662806 -228.005193 -355.929344 0 120 255
171.110205 -227.784147 -356.216772 0 120 255
173.557604 -227.563102 -356.504201 0 120 255
176.004965 -227.340754 -356.790917 0 120 255
178.452063 -227.109327 -357.072676 0 120 255
180.899162 -226.877900 -357.354434 0 120 255
183.346261 -226.646474 -357.636193 0 120 255
185.793359 -226.415046 -357.917953 0 120 255
188.240455 -226.183608 -358.199724 0 120 255
190.687551 -225.952170 -358.481495 0 120 255
193.134648 -225.720733 -358.763266 0 120 255
195.581744 -225.489295 -359.045037 0 120 255
198.028841 -225.257861 -359.326800 0 120 255
200.475938 -225.026428 -359.608564 0 120 255
202.923036 -224.794994 -359.890327 0 120 255
205.370133 -224.563560 -360.172091 0 120 255
