ply
format ascii 1.0
element vertex 385
property float x
property float y
property float z
property uchar red
property uchar green
property uchar blue
end_header
77.430455 -42.474882 -360.397637 0 120 255
77.187571 -42.528707 -357.936123 0 120 255
76.944687 -42.582532 -355.474609 0 120 255
76.701803 -42.636358 -353.013095 0 120 255
76.458920 -42.690183 -350.551582 0 120 255
76.214816 -42.766414 -348.090785 0 120 255
75.970660 -42.843626 -345.630020 0 120 255
75.726503 -42.920838 -343.169254 0 120 255
75.482347 -42.998050 -340.708489 0 120 255
75.388651 -43.063230 -338.237507 0 120 255
75.309155 -43.127276 -335.765561 0 120 255
75.229658 -43.191321 -333.293615 0 120 255
75.150162 -43.255366 -330.821668 0 120 255
75.222962 -43.296431 -328.349760 0 120 255
75.319005 -43.333989 -325.877857 0 120 255
75.415047 -43.371547 -323.405953 0 120 255
75.511089 -43.409105 -320.934050 0 120 255
75.757424 -43.432639 -318.473415 0 120 255
76.036406 -43.453127 -316.015226 0 120 255
76.315387 -43.473615 -313.557038 0 120 255
76.594369 -43.494104 -311.098850 0 120 255
77.019819 -43.508881 -308.663002 0 120 255
77.487645 -43.522007 -306.233619 0 120 255
77.955471 -43.535133 -303.804235 0 120 255
78.423297 -43.548258 -301.374851 0 120 255
79.032382 -43.563332 -298.978617 0 120 255
79.693741 -43.579126 -296.594651 0 120 255
80.355100 -43.594921 -294.210685 0 120 255
81.016459 -43.610715 -291.826719 0 120 255
81.811269 -43.634239 -289.485872 0 120 255
82.667635 -43.661328 -287.164915 0 120 255
83.524002 -43.688418 -284.843957 0 120 255
84.380368 -43.715507 -282.523000 0 120 255
85.360738 -43.754703 -280.254085 0 120 255
86.411177 -43.800739 -278.014576 0 120 255
87.461616 -43.846776 -275.775068 0 120 255
88.512055 -43.892812 -273.535560 0 120 255
89.675736 -43.953954 -271.355724 0 120 255
90.916882 -44.025429 -269.216708 0 120 255
92.158029 -44.096903 -267.077693 0 120 255
93.399175 -44.168378 -264.938678 0 120 255
94.741831 -44.256664 -262.865478 0 120 255
96.167921 -44.358770 -260.846374 0 120 255
97.594011 -44.460875 -258.827269 0 120 255
99.020101 -44.562981 -256.808165 0 120 255
100.535328 -44.682436 -254.859374 0 120 255
102.138206 -44.818951 -252.979724 0 120 255
103.741085 -44.955466 -251.100074 0 120 255
105.343963 -45.091982 -249.220424 0 120 255
107.023300 -45.245369 -247.413835 0 120 255
108.792455 -45.418577 -245.693070 0 120 255
110.561610 -45.591784 -243.972306 0 120 255
112.330765 -45.764992 -242.251541 0 120 255
114.163707 -45.953760 -240.604762 0 120 255
116.086267 -46.164388 -239.061927 0 120 255
118.008826 -46.375016 -237.519092 0 120 255
119.931386 -46.585645 -235.976257 0 120 255
121.905375 -46.809880 -234.506479 0 120 255
123.966117 -47.057068 -233.159936 0 120 255
126.026860 -47.304255 -231.813393 0 120 255
128.087602 -47.551443 -230.466849 0 120 255
130.188035 -47.809853 -229.190607 0 120 255
132.369429 -48.091155 -228.057765 0 120 255
134.550823 -48.372457 -226.924923 0 120 255
136.732216 -48.653759 -225.792082 0 120 255
138.942464 -48.943678 -224.725009 0 120 255
141.224669 -49.255086 -223.821956 0 120 255
143.506874 -49.566494 -222.918903 0 120 255
145.789079 -49.877902 -222.015850 0 120 255
148.090490 -50.195307 -221.172379 0 120 255
150.451423 -50.531299 -220.513559 0 120 255
152.812357 -50.867291 -219.854739 0 120 255
155.173290 -51.203283 -219.195920 0 120 255
157.545235 -51.542840 -218.588987 0 120 255
159.960623 -51.896464 -218.186754 0 120 255
162.376011 -52.250087 -217.784521 0 120 255
164.791399 -52.603711 -217.382288 0 120 255
167.211315 -52.958844 -217.022968 0 120 255
169.654826 -53.321840 -216.887215 0 120 255
172.098337 -53.684835 -216.751463 0 120 255
174.541848 -54.047831 -216.615710 0 120 255
176.985346 -54.410820 -216.512886 0 120 255
179.428757 -54.773767 -216.650561 0 120 255
181.872168 -55.136713 -216.788235 0 120 255
184.315578 -55.499659 -216.925910 0 120 255
186.756580 -55.861766 -217.085855 0 120 255
189.170026 -56.214284 -217.500524 0 120 255
191.583471 -56.566802 -217.915192 0 120 255
193.996917 -56.919320 -218.329861 0 120 255
196.407859 -57.270956 -218.755862 0 120 255
198.760177 -57.601937 -219.447234 0 120 255
201.112494 -57.932919 -220.138606 0 120 255
203.464811 -58.263900 -220.829977 0 120 255
205.816934 -58.594813 -221.521917 0 120 255
208.076089 -58.892709 -222.485460 0 120 255
210.335244 -59.190605 -223.449003 0 120 255
212.594400 -59.488501 -224.412546 0 120 255
214.853555 -59.786397 -225.376089 0 120 255
216.991739 -60.041164 -226.593120 0 120 255
219.125375 -60.294309 -227.819682 0 120 255
221.259011 -60.547455 -229.046244 0 120 255
223.392647 -60.800600 -230.272806 0 120 255
225.380396 -61.001733 -231.729917 0 120 255
227.356477 -61.198707 -233.205465 0 120 255
229.332559 -61.395682 -234.681013 0 120 255
231.308641 -61.592656 -236.156561 0 120 255
233.117178 -61.730131 -237.836453 0 120 255
234.904711 -61.860147 -239.541962 0 120 255
236.692245 -61.990164 -241.247471 0 120 255
238.479778 -62.120180 -242.952979 0 120 255
240.081921 -62.184879 -244.833884 0 120 255
241.651769 -62.238199 -246.745342 0 120 255
243.221617 -62.291519 -248.656801 0 120 255
244.791465 -62.344840 -250.568259 0 120 255
246.162356 -62.328897 -252.624113 0 120 255
247.488081 -62.297231 -254.712747 0 120 255
248.813806 -62.265565 -256.801381 0 120 255
250.139531 -62.233898 -258.890014 0 120 255
251.257337 -62.131044 -261.090821 0 120 255
252.316005 -62.007942 -263.323535 0 120 255
253.374672 -61.884840 -265.556248 0 120 255
254.433339 -61.761737 -267.788962 0 120 255
255.279979 -61.567596 -270.101294 0 120 255
256.052980 -61.348782 -272.441279 0 120 255
256.825981 -61.129968 -274.781264 0 120 255
257.598982 -60.911154 -277.121249 0 120 255
258.160680 -60.623495 -279.508960 0 120 255
258.634344 -60.307155 -281.916554 0 120 255
259.108009 -59.990815 -284.324149 0 120 255
259.581674 -59.674475 -286.731743 0 120 255
259.849479 -59.293404 -289.156792 0 120 255
260.015651 -58.880376 -291.590459 0 120 255
260.181824 -58.467348 -294.024126 0 120 255
260.347996 -58.054320 -296.457793 0 120 255
260.318090 -57.582372 -298.881204 0 120 255
260.174400 -57.076232 -301.298665 0 120 255
260.030710 -56.570092 -303.716125 0 120 255
259.887020 -56.063952 -306.133586 0 120 255
259.560834 -55.506097 -308.516466 0 120 255
259.110826 -54.913153 -310.875883 0 120 255
258.660819 -54.320210 -313.235301 0 120 255
258.210812 -53.727267 -315.594719 0 120 255
257.594955 -53.090841 -317.899276 0 120 255
256.847893 -52.420016 -320.160433 0 120 255
256.100831 -51.749191 -322.421591 0 120 255
255.353769 -51.078366 -324.682748 0 120 255
254.459780 -50.372898 -326.873279 0 120 255
253.430322 -49.635489 -328.998693 0 120 255
252.400865 -48.898080 -331.124107 0 120 255
251.371407 -48.160671 -333.249521 0 120 255
250.215303 -47.397636 -335.293292 0 120 255
248.922907 -46.607023 -337.249202 0 120 255
247.630511 -45.816410 -339.205112 0 120 255
246.338115 -45.025797 -341.161022 0 120 255
244.939792 -44.218327 -343.029009 0 120 255
243.407939 -43.389608 -344.786163 0 120 255
241.876086 -42.560888 -346.543317 0 120 255
240.344233 -41.732168 -348.300471 0 120 255
238.726778 -40.894705 -349.967950 0 120 255
236.982153 -40.044253 -351.502211 0 120 255
235.237529 -39.193801 -353.036472 0 120 255
233.492904 -38.343349 -354.570733 0 120 255
231.681812 -37.491276 -356.017654 0 120 255
229.753348 -36.636342 -357.310346 0 120 255
227.824884 -35.781407 -358.603038 0 120 255
225.896419 -34.926473 -359.895730 0 120 255
223.918813 -34.075765 -361.106942 0 120 255
221.836795 -33.234038 -362.145035 0 120 255
219.754777 -32.392311 -363.183127 0 120 255
217.672759 -31.550584 -364.221219 0 120 255
215.556615 -30.717452 -365.186497 0 120 255
213.351742 -29.906667 -365.962448 0 120 255
211.146868 -29.095881 -366.738399 0 120 255
208.941995 -28.285096 -367.514351 0 120 255
206.715403 -27.485668 -368.228233 0 120 255
204.418030 -26.723255 -368.739843 0 120 255
202.120657 -25.960841 -369.251453 0 120 255
199.823285 -25.198427 -369.763063 0 120 255
197.513829 -24.448476 -370.224657 0 120 255
195.153251 -23.751253 -370.474632 0 120 255
192.792672 -23.054031 -370.724608 0 120 255
190.432093 -22.356808 -370.974583 0 120 255
188.066294 -21.671506 -371.187173 0 120 255
185.670178 -21.055430 -371.182651 0 120 255
183.274063 -20.439354 -371.178128 0 120 255
180.877947 -19.823278 -371.173606 0 120 255
178.480819 -19.217003 -371.144240 0 120 255
176.074783 -18.696970 -370.896261 0 120 255
173.668746 -18.176937 -370.648282 0 120 255
171.262710 -17.656903 -370.400303 0 120 255
168.857429 -17.143091 -370.139338 0 120 255
166.464729 -16.732795 -369.662279 0 120 255
164.072030 -16.322499 -369.185220 0 120 255
161.679330 -15.912204 -368.708162 0 120 255
159.287001 -15.503237 -368.228797 0 120 255
156.928366 -15.215066 -367.539782 0 120 255
154.569732 -14.926896 -366.850768 0 120 255
152.211097 -14.638726 -366.161754 0 120 255
149.852463 -14.350555 -365.472740 0 120 255
147.544181 -14.190823 -364.597926 0 120 255
145.237742 -14.035793 -363.716310 0 120 255
142.931304 -13.880763 -362.834694 0 120 255
140.624865 -13.725734 -361.953078 0 120 255
138.380631 -13.701763 -360.913996 0 120 255
136.141940 -13.689473 -359.860880 0 120 255
133.903250 -13.677183 -358.807763 0 120 255
131.664560 -13.664893 -357.754647 0 120 255
129.496306 -13.784105 -356.571588 0 120 255
127.338446 -13.922721 -355.369354 0 120 255
125.180587 -14.061338 -354.167120 0 120 255
123.022727 -14.199954 -352.964886 0 120 255
120.940396 -14.468527 -351.658898 0 120 255
118.874146 -14.764769 -350.330820 0 120 255
116.807896 -15.061010 -349.002742 0 120 255
114.741646 -15.357252 -347.674664 0 120 255
112.753350 -15.780123 -346.267302 0 120 255
110.787377 -16.239256 -344.837237 0 120 255
108.821404 -16.698388 -343.407172 0 120 255
106.855430 -17.157520 -341.977106 0 120 255
104.967645 -17.738383 -340.490204 0 120 255
103.108740 -18.364211 -338.982307 0 120 255
101.249836 -18.990039 -337.474410 0 120 255
99.390932 -19.615868 -335.966513 0 120 255
97.608700 -20.357158 -334.421993 0 120 255
95.862036 -21.152012 -332.860483 0 120 255
94.115371 -21.946865 -331.298973 0 120 255
92.368707 -22.741718 -329.737463 0 120 255
90.695848 -23.644602 -328.157184 0 120 255
89.065225 -24.609309 -326.566162 0 120 255
87.434602 -25.574016 -324.975141 0 120 255
85.803979 -26.538723 -323.384120 0 120 255
84.243294 -27.603061 -321.789742 0 120 255
82.731404 -28.736909 -320.193022 0 120 255
81.219513 -29.870757 -318.596302 0 120 255
79.707622 -31.004606 -316.999582 0 120 255
78.261098 -32.228927 -315.412463 0 120 255
76.869761 -33.529636 -313.833451 0 120 255
75.478425 -34.830346 -312.254439 0 120 255
74.087089 -36.131055 -310.675427 0 120 255
72.756467 -37.512848 -309.116524 0 120 255
71.487638 -38.977166 -307.578089 0 120 255
70.218809 -40.441485 -306.039653 0 120 255
68.949980 -41.905804 -304.501218 0 120 255
67.736476 -43.440973 -302.991013 0 120 255
66.590795 -45.063000 -301.515417 0 120 255
65.445114 -46.685027 -300.039821 0 120 255
64.299433 -48.307054 -298.564225 0 120 255
63.203184 -49.989311 -297.122525 0 120 255
62.180130 -51.760752 -295.731016 0 120 255
61.157076 -53.532193 -294.339507 0 120 255
60.134022 -55.303633 -292.947998 0 120 255
59.154845 -57.125099 -291.593762 0 120 255
58.254588 -59.036541 -290.306570 0 120 255
57.354331 -60.947983 -289.019377 0 120 255
56.454074 -62.859426 -287.732184 0 120 255
55.592187 -64.811028 -286.483480 0 120 255
54.814956 -66.851236 -285.319691 0 120 255
54.037724 -68.891443 -284.155901 0 120 255
53.260492 -70.931650 -282.992112 0 120 255
52.516223 -73.002720 -281.865978 0 120 255
51.862490 -75.158559 -280.843271 0 120 255
51.208758 -77.314398 -279.820563 0 120 255
50.555026 -79.470238 -278.797856 0 120 255
49.928925 -81.648445 -277.810101 0 120 255
49.399456 -83.904874 -276.944579 0 120 255
48.869988 -86.161304 -276.079057 0 120 255
48.340519 -88.417733 -275.213535 0 120 255
47.833411 -90.689079 -274.378590 0 120 255
47.429339 -93.029156 -273.684541 0 120 255
47.025267 -95.369233 -272.990492 0 120 255
46.621195 -97.709311 -272.296443 0 120 255
46.234232 -100.058127 -271.627146 0 120 255
45.957078 -102.463034 -271.116707 0 120 255
45.679924 -104.867941 -270.606268 0 120 255
45.402771 -107.272848 -270.095829 0 120 255
45.137446 -109.681819 -269.603143 0 120 255
44.989111 -112.130977 -269.286032 0 120 255
44.840776 -114.580136 -268.968921 0 120 255
44.692441 -117.029294 -268.651810 0 120 255
44.550580 -119.479543 -268.344595 0 120 255
44.533279 -121.950776 -268.227764 0 120 255
44.515979 -124.422008 -268.110933 0 120 255
44.498678 -126.893241 -267.994103 0 120 255
44.482384 -129.364463 -267.878811 0 120 255
44.598576 -131.834243 -267.966134 0 120 255
44.714769 -134.304023 -268.053458 0 120 255
44.830961 -136.773803 -268.140781 0 120 255
44.947153 -139.243583 -268.228105 0 120 255
45.194798 -141.688242 -268.513167 0 120 255
45.447040 -144.132023 -268.805144 0 120 255
45.699283 -146.575803 -269.097121 0 120 255
45.951525 -149.019584 -269.389098 0 120 255
46.332010 -151.416035 -269.867514 0 120 255
46.722832 -153.808672 -270.360958 0 120 255
47.113655 -156.201309 -270.854401 0 120 255
47.504477 -158.593946 -271.347845 0 120 255
48.019991 -160.918986 -272.013367 0 120 255
48.551691 -163.235251 -272.701225 0 120 255
49.083391 -165.551517 -273.389084 0 120 255
49.615091 -167.867782 -274.076943 0 120 255
50.267473 -170.098591 -274.919809 0 120 255
50.941951 -172.313755 -275.791056 0 120 255
51.616429 -174.528918 -276.662303 0 120 255
52.290906 -176.744081 -277.533549 0 120 255
53.081473 -178.858800 -278.540422 0 120 255
53.900024 -180.949307 -279.579987 0 120 255
54.718574 -183.039814 -280.619552 0 120 255
55.537125 -185.130321 -281.659117 0 120 255
56.466504 -187.108621 -282.813222 0 120 255
57.429622 -189.052765 -284.002192 0 120 255
58.392739 -190.996908 -285.191163 0 120 255
59.355856 -192.941051 -286.380134 0 120 255
60.423841 -194.764765 -287.661418 0 120 255
61.531059 -196.543424 -288.977237 0 120 255
62.638276 -198.322084 -290.293056 0 120 255
63.745494 -200.100743 -291.608874 0 120 255
64.950914 -201.754426 -292.994386 0 120 255
66.200654 -203.351705 -294.411351 0 120 255
67.450394 -204.948983 -295.828316 0 120 255
68.700135 -206.546262 -297.245281 0 120 255
70.040749 -208.017758 -298.709604 0 120 255
71.430214 -209.421638 -300.199385 0 120 255
72.819679 -210.825518 -301.689167 0 120 255
74.209144 -212.229398 -303.178948 0 120 255
75.681599 -213.510290 -304.694774 0 120 255
77.206728 -214.713122 -306.227131 0 120 255
78.731857 -215.915954 -307.759487 0 120 255
80.256986 -217.118785 -309.291844 0 120 255
81.856785 -218.204755 -310.830638 0 120 255
83.512232 -219.203635 -312.374230 0 120 255
85.167678 -220.202516 -313.917821 0 120 255
86.823124 -221.201396 -315.461413 0 120 255
88.544649 -222.092429 -316.994155 0 120 255
90.323817 -222.889378 -318.517431 0 120 255
92.102985 -223.686327 -320.040708 0 120 255
93.882154 -224.483276 -321.563984 0 120 255
95.718725 -225.183748 -323.061905 0 120 255
97.613878 -225.785760 -324.533950 0 120 255
99.509032 -226.387772 -326.005994 0 120 255
101.404185 -226.989783 -327.478039 0 120 255
103.348163 -227.508385 -328.913366 0 120 255
105.350517 -227.927257 -330.304791 0 120 255
107.352871 -228.346128 -331.696216 0 120 255
109.355225 -228.765000 -333.087641 0 120 255
111.398107 -229.114516 -334.434311 0 120 255
113.497975 -229.366516 -335.718053 0 120 255
115.597842 -229.618515 -337.001796 0 120 255
117.697709 -229.870515 -338.285538 0 120 255
119.830268 -230.067463 -339.519819 0 120 255
122.017220 -230.172819 -340.671810 0 120 255
124.204171 -230.278176 -341.823801 0 120 255
126.391122 -230.383532 -342.975792 0 120 255
128.603532 -230.447698 -344.076812 0 120 255
130.866527 -230.430021 -345.076553 0 120 255
133.129522 -230.412344 -346.076294 0 120 255
135.392517 -230.394667 -347.076034 0 120 255
137.674469 -230.348570 -348.026188 0 120 255
140.001998 -230.234145 -348.857123 0 120 255
142.329528 -230.119721 -349.688058 0 120 255
144.657057 -230.005296 -350.518994 0 120 255
146.997871 -229.873579 -351.304223 0 120 255
149.378042 -229.690628 -351.954031 0 120 255
151.758214 -229.507676 -352.603839 0 120 255
154.138386 -229.324725 -353.253647 0 120 255
156.527075 -229.133529 -353.863627 0 120 255
158.947693 -228.911427 -354.324301 0 120 255
161.368311 -228.689325 -354.784974 0 120 255
163.788928 -228.467223 -355.245647 0 120 255
166.214145 -228.244502 -355.675667 0 120 255
168.662056 -228.018725 -355.954406 0 120 255
171.109967 -227.792949 -356.233144 0 120 255
173.557878 -227.567172 -356.511882 0 120 255
176.005680 -227.340686 -356.791000 0 120 255
178.452719 -227.109265 -357.072751 0 120 255
180.899758 -226.877844 -357.354503 0 120 255
183.346797 -226.646423 -357.636255 0 120 255
185.793836 -226.415001 -357.918008 0 120 255
188.240872 -226.183569 -358.199772 0 120 255
190.687909 -225.952137 -358.481536 0 120 255
193.134946 -225.720704 -358.763300 0 120 255
195.581982 -225.489273 -359.045064 0 120 255
198.029020 -225.257844 -359.326821 0 120 255
200.476058 -225.026416 -359.608577 0 120 255
202.923095 -224.794988 -359.890334 0 120 255
205.370133 -224.563560 -360.172091 0 120 255
