ply
format ascii 1.0
element vertex 385
property float x
property float y
property float z
property uchar red
property uchar green
property uchar blue
end_header
77.430455 -42.474882 -360.397637 0 120 255
77.187592 -42.528703 -357.936331 0 120 255
76.944729 -42.582523 -355.475026 0 120 255
76.701865 -42.636344 -353.013721 0 120 255
76.459002 -42.690165 -350.552416 0 120 255
76.216802 -42.748768 -348.091155 0 120 255
75.974632 -42.807583 -345.629896 0 120 255
75.732462 -42.866398 -343.168637 0 120 255
75.490292 -42.925213 -340.707377 0 120 255
75.424917 -43.436595 -338.292369 0 120 255
75.375760 -43.989490 -335.881603 0 120 255
75.326602 -44.542386 -333.470837 0 120 255
75.277445 -45.095281 -331.060071 0 120 255
75.427047 -46.026293 -328.779344 0 120 255
75.605580 -47.012342 -326.517545 0 120 255
75.784114 -47.998392 -324.255746 0 120 255
75.962647 -48.984441 -321.993947 0 120 255
76.340168 -50.268949 -319.921852 0 120 255
76.758586 -51.614800 -317.888747 0 120 255
77.177005 -52.960650 -315.855642 0 120 255
77.595423 -54.306500 -313.822537 0 120 255
78.196438 -55.872421 -312.014074 0 120 255
78.847209 -57.498311 -310.266824 0 120 255
79.497980 -59.124202 -308.519575 0 120 255
80.148751 -60.750092 -306.772325 0 120 255
80.955196 -62.526184 -305.262637 0 120 255
81.815754 -64.354488 -303.835524 0 120 255
82.676312 -66.182791 -302.408412 0 120 255
83.536870 -68.011094 -300.981300 0 120 255
84.521235 -69.932238 -299.786997 0 120 255
85.559111 -71.893508 -298.693318 0 120 255
86.596987 -73.854779 -297.599639 0 120 255
87.634863 -75.816049 -296.505960 0 120 255
88.764227 -77.826660 -295.627485 0 120 255
89.941911 -79.863330 -294.862673 0 120 255
91.119596 -81.900000 -294.097862 0 120 255
92.297280 -83.936670 -293.333050 0 120 255
93.536943 -85.992470 -292.757454 0 120 255
94.816130 -88.060469 -292.302524 0 120 255
96.095317 -90.128468 -291.847593 0 120 255
97.374504 -92.196468 -291.392662 0 120 255
98.691027 -94.264950 -291.096447 0 120 255
100.036070 -96.333801 -290.921475 0 120 255
101.381113 -98.402653 -290.746502 0 120 255
102.726156 -100.471504 -290.571530 0 120 255
104.089771 -102.531386 -290.523292 0 120 255
105.470301 -104.583099 -290.590475 0 120 255
106.850830 -106.634812 -290.657658 0 120 255
108.231360 -108.686526 -290.724840 0 120 255
109.617738 -110.726449 -290.887585 0 120 255
111.010453 -112.753597 -291.153887 0 120 255
112.403169 -114.780745 -291.420189 0 120 255
113.795885 -116.807893 -291.686490 0 120 255
115.187254 -118.824615 -292.019556 0 120 255
116.576886 -120.827885 -292.438762 0 120 255
117.966518 -122.831155 -292.857968 0 120 255
119.356151 -124.834425 -293.277174 0 120 255
120.741809 -126.830670 -293.737746 0 120 255
122.121341 -128.816086 -294.262067 0 120 255
123.500874 -130.801502 -294.786389 0 120 255
124.880407 -132.786919 -295.310710 0 120 255
126.256654 -134.769053 -295.854965 0 120 255
127.626815 -136.745109 -296.436140 0 120 255
128.996976 -138.721165 -297.017316 0 120 255
130.367137 -140.697221 -297.598491 0 120 255
131.736659 -142.672902 -298.182425 0 120 255
133.104743 -144.647740 -298.772561 0 120 255
134.472828 -146.622579 -299.362696 0 120 255
135.840913 -148.597417 -299.952831 0 120 255
137.211680 -150.573315 -300.532848 0 120 255
138.589871 -152.552145 -301.084868 0 120 255
139.968062 -154.530974 -301.636888 0 120 255
141.346253 -156.509804 -302.188907 0 120 255
142.730014 -158.489538 -302.722229 0 120 255
144.133150 -160.472422 -303.190506 0 120 255
145.536286 -162.455306 -303.658783 0 120 255
146.939421 -164.438190 -304.127060 0 120 255
148.349803 -166.420587 -304.572238 0 120 255
149.792883 -168.400786 -304.913170 0 120 255
151.235963 -170.380985 -305.254102 0 120 255
152.679043 -172.361184 -305.595034 0 120 255
154.129452 -174.338981 -305.912487 0 120 255
155.624954 -176.302003 -306.085465 0 120 255
157.120457 -178.265024 -306.258444 0 120 255
158.615959 -180.228046 -306.431422 0 120 255
160.117347 -182.187181 -306.584278 0 120 255
161.672599 -184.110749 -306.552964 0 120 255
163.227850 -186.034317 -306.521651 0 120 255
164.783102 -187.957885 -306.490338 0 120 255
166.341782 -189.877515 -306.445534 0 120 255
167.956687 -191.732565 -306.179497 0 120 255
169.571592 -193.587614 -305.913459 0 120 255
171.186497 -195.442664 -305.647422 0 120 255
172.802245 -197.296007 -305.377093 0 120 255
174.467713 -199.048756 -304.853651 0 120 255
176.133181 -200.801504 -304.330210 0 120 255
177.798650 -202.554252 -303.806768 0 120 255
179.464118 -204.307001 -303.283327 0 120 255
181.160713 -205.925282 -302.495637 0 120 255
182.858072 -207.540264 -301.701467 0 120 255
184.555431 -209.155247 -300.907297 0 120 255
186.252789 -210.770230 -300.113127 0 120 255
187.954059 -212.225095 -299.063043 0 120 255
189.655598 -213.668931 -297.995334 0 120 255
191.357137 -215.112768 -296.927624 0 120 255
193.058676 -216.556604 -295.859914 0 120 255
194.732731 -217.822660 -294.554491 0 120 255
196.403566 -219.067883 -293.221212 0 120 255
198.074400 -220.313106 -291.887933 0 120 255
199.745235 -221.558329 -290.554654 0 120 255
201.356199 -222.618368 -289.009678 0 120 255
202.956978 -223.646907 -287.428692 0 120 255
204.557757 -224.675445 -285.847706 0 120 255
206.158537 -225.703983 -284.266720 0 120 255
207.669303 -226.551062 -282.505151 0 120 255
209.159506 -227.356687 -280.702331 0 120 255
210.649710 -228.162313 -278.899510 0 120 255
212.139913 -228.967939 -277.096689 0 120 255
213.514906 -229.606405 -275.146506 0 120 255
214.856130 -230.195878 -273.153131 0 120 255
216.197353 -230.785350 -271.159756 0 120 255
217.538577 -231.374823 -269.166381 0 120 255
218.746043 -231.820228 -267.058157 0 120 255
219.904656 -232.213015 -264.907986 0 120 255
221.063270 -232.605803 -262.757815 0 120 255
222.221883 -232.998590 -260.607644 0 120 255
223.235584 -233.276650 -258.372354 0 120 255
224.184625 -233.503519 -256.099085 0 120 255
225.133666 -233.730388 -253.825815 0 120 255
226.082707 -233.957256 -251.552546 0 120 255
226.882779 -234.102167 -249.219876 0 120 255
227.602757 -234.203012 -246.855269 0 120 255
228.322734 -234.303857 -244.490663 0 120 255
229.042712 -234.404701 -242.126056 0 120 255
229.616104 -234.460128 -239.723553 0 120 255
230.095449 -234.486415 -237.296736 0 120 255
230.574795 -234.512703 -234.869919 0 120 255
231.054140 -234.538990 -232.443103 0 120 255
231.394437 -234.550495 -229.995907 0 120 255
231.628863 -234.550745 -227.533196 0 120 255
231.863290 -234.550996 -225.070485 0 120 255
232.097717 -234.551246 -222.607774 0 120 255
232.202210 -234.545985 -220.139234 0 120 255
232.189665 -234.535759 -217.665443 0 120 255
232.177120 -234.525534 -215.191652 0 120 255
232.164575 -234.515308 -212.717862 0 120 255
232.031686 -234.500801 -210.250769 0 120 255
231.770668 -234.481735 -207.790808 0 120 255
231.509650 -234.462669 -205.330847 0 120 255
231.248633 -234.443604 -202.870886 0 120 255
230.878404 -234.420776 -200.428163 0 120 255
230.370587 -234.393208 -198.007158 0 120 255
229.862771 -234.365641 -195.586153 0 120 255
229.354954 -234.338074 -193.165149 0 120 255
228.750228 -234.307111 -190.769693 0 120 255
228.000519 -234.271070 -188.412462 0 120 255
227.250810 -234.235028 -186.055231 0 120 255
226.501100 -234.198986 -183.697999 0 120 255
225.667408 -234.160014 -181.372287 0 120 255
224.683564 -234.115800 -179.102926 0 120 255
223.699720 -234.071586 -176.833565 0 120 255
222.715876 -234.027373 -174.564204 0 120 255
221.661357 -233.980716 -172.329863 0 120 255
220.454379 -233.928790 -170.171065 0 120 255
219.247401 -233.876863 -168.012266 0 120 255
218.040423 -233.824937 -165.853468 0 120 255
216.775837 -233.771048 -163.730828 0 120 255
215.359184 -233.711981 -161.703636 0 120 255
213.942530 -233.652914 -159.676445 0 120 255
212.525877 -233.593847 -157.649253 0 120 255
211.064056 -233.533255 -155.657139 0 120 255
209.453326 -233.467635 -153.780667 0 120 255
207.842596 -233.402015 -151.904196 0 120 255
206.231866 -233.336396 -150.027724 0 120 255
204.587491 -233.269669 -148.183179 0 120 255
202.800329 -233.198245 -146.474129 0 120 255
201.013167 -233.126822 -144.765079 0 120 255
199.226004 -233.055398 -143.056029 0 120 255
197.415471 -232.983222 -141.373959 0 120 255
195.471057 -232.906731 -139.846442 0 120 255
193.526644 -232.830241 -138.318925 0 120 255
191.582230 -232.753750 -136.791408 0 120 255
189.623199 -232.676808 -135.284481 0 120 255
187.541573 -232.596076 -133.950232 0 120 255
185.459948 -232.515343 -132.615983 0 120 255
183.378323 -232.434611 -131.281734 0 120 255
181.289184 -232.353652 -129.960541 0 120 255
179.090940 -232.269397 -128.828937 0 120 255
176.892696 -232.185142 -127.697334 0 120 255
174.694452 -232.100887 -126.565730 0 120 255
172.494073 -232.016572 -125.438802 0 120 255
170.199998 -231.929589 -124.517088 0 120 255
167.905923 -231.842607 -123.595374 0 120 255
165.611848 -231.755625 -122.673661 0 120 255
163.317773 -231.668642 -121.751947 0 120 255
160.950192 -231.579738 -121.040927 0 120 255
158.581119 -231.490796 -120.334185 0 120 255
156.212046 -231.401853 -119.627443 0 120 255
153.842973 -231.312910 -118.920701 0 120 255
151.422899 -231.222862 -118.418617 0 120 255
148.999448 -231.132740 -117.930082 0 120 255
146.575997 -231.042619 -117.441548 0 120 255
144.152546 -230.952498 -116.953014 0 120 255
141.698554 -230.861998 -116.661450 0 120 255
139.241006 -230.771454 -116.392824 0 120 255
136.783457 -230.680911 -116.124198 0 120 255
134.325909 -230.590367 -115.855572 0 120 255
131.856264 -230.500074 -115.774851 0 120 255
129.384542 -230.409824 -115.726389 0 120 255
126.912820 -230.319574 -115.677926 0 120 255
124.441098 -230.229324 -115.629463 0 120 255
121.973745 -230.139899 -115.758762 0 120 255
119.507408 -230.050667 -115.929418 0 120 255
117.041072 -229.961434 -116.100074 0 120 255
114.574735 -229.872201 -116.270730 0 120 255
112.127317 -229.784277 -116.608156 0 120 255
109.685581 -229.696746 -116.995667 0 120 255
107.243845 -229.609215 -117.383179 0 120 255
104.802109 -229.521684 -117.770691 0 120 255
102.392001 -229.435878 -118.313366 0 120 255
99.993782 -229.350722 -118.914360 0 120 255
97.595562 -229.265565 -119.515354 0 120 255
95.197343 -229.180409 -120.116348 0 120 255
92.841695 -229.097340 -120.860430 0 120 255
90.505658 -229.015233 -121.670425 0 120 255
88.169621 -228.933126 -122.480420 0 120 255
85.833585 -228.851019 -123.290416 0 120 255
83.549341 -228.771277 -124.231045 0 120 255
81.293923 -228.692851 -125.244377 0 120 255
79.038506 -228.614425 -126.257709 0 120 255
76.783088 -228.536000 -127.271041 0 120 255
74.587004 -228.460174 -128.402306 0 120 255
72.430428 -228.386080 -129.612096 0 120 255
70.273852 -228.311985 -130.821885 0 120 255
68.117275 -228.237891 -132.031675 0 120 255
66.025888 -228.166564 -133.346516 0 120 255
63.986104 -228.097428 -134.744516 0 120 255
61.946320 -228.028292 -136.142517 0 120 255
59.906536 -227.959155 -137.540517 0 120 255
57.936152 -227.892890 -139.030687 0 120 255
56.030849 -227.829318 -140.607291 0 120 255
54.125546 -227.765745 -142.183895 0 120 255
52.220243 -227.702172 -143.760499 0 120 255
50.386838 -227.641514 -145.416434 0 120 255
48.633224 -227.584090 -147.160408 0 120 255
46.879611 -227.526666 -148.904382 0 120 255
45.125998 -227.469242 -150.648356 0 120 255
43.445018 -227.414711 -152.459002 0 120 255
41.859556 -227.363984 -154.357328 0 120 255
40.274095 -227.313257 -156.255654 0 120 255
38.688634 -227.262530 -158.153980 0 120 255
37.174682 -227.214609 -160.106651 0 120 255
35.772614 -227.171078 -162.144348 0 120 255
34.370545 -227.127547 -164.182046 0 120 255
32.968476 -227.084016 -166.219743 0 120 255
31.634863 -227.043142 -168.300011 0 120 255
30.429536 -227.007245 -170.460058 0 120 255
29.224209 -226.971349 -172.620104 0 120 255
28.018883 -226.935453 -174.780151 0 120 255
26.877079 -226.901988 -176.971868 0 120 255
25.879364 -226.874037 -179.235425 0 120 255
24.881650 -226.846086 -181.498981 0 120 255
23.883936 -226.818136 -183.762537 0 120 255
22.943165 -226.792345 -186.048097 0 120 255
22.161159 -226.772575 -188.395005 0 120 255
21.379153 -226.752805 -190.741914 0 120 255
20.597147 -226.733035 -193.088822 0 120 255
19.864159 -226.715098 -195.449585 0 120 255
19.302977 -226.703584 -197.858909 0 120 255
18.741794 -226.692070 -200.268234 0 120 255
18.180612 -226.680556 -202.677558 0 120 255
17.659534 -226.670535 -205.094310 0 120 255
17.321232 -226.667314 -207.544911 0 120 255
16.982931 -226.664094 -209.995511 0 120 255
16.644629 -226.660873 -212.446112 0 120 255
16.336991 -226.658780 -214.899542 0 120 255
16.221059 -226.663731 -217.370663 0 120 255
16.105127 -226.668682 -219.841784 0 120 255
15.989194 -226.673633 -222.312905 0 120 255
15.894355 -226.679353 -224.784073 0 120 255
15.998494 -226.692329 -227.255689 0 120 255
16.102634 -226.705305 -229.727306 0 120 255
16.206774 -226.718280 -232.198923 0 120 255
16.322532 -226.731675 -234.669536 0 120 255
16.642684 -226.752446 -237.122488 0 120 255
16.962836 -226.773216 -239.575440 0 120 255
17.282988 -226.793986 -242.028392 0 120 255
17.605611 -226.814845 -244.480911 0 120 255
18.136369 -226.843149 -246.896981 0 120 255
18.667127 -226.871453 -249.313052 0 120 255
19.197885 -226.899757 -251.729123 0 120 255
19.728643 -226.928061 -254.145193 0 120 255
20.457153 -226.963375 -256.508796 0 120 255
21.191846 -226.998910 -258.870758 0 120 255
21.926539 -227.034444 -261.232721 0 120 255
22.661231 -227.069978 -263.594683 0 120 255
23.577820 -227.111891 -265.891441 0 120 255
24.508596 -227.154302 -268.183113 0 120 255
25.439371 -227.196712 -270.474785 0 120 255
26.370146 -227.239123 -272.766457 0 120 255
27.466651 -227.287292 -274.982528 0 120 255
28.584556 -227.336205 -277.188837 0 120 255
29.702462 -227.385117 -279.395145 0 120 255
30.820367 -227.434030 -281.601454 0 120 255
32.087931 -227.488059 -283.723906 0 120 255
33.383236 -227.543037 -285.830815 0 120 255
34.678542 -227.598015 -287.937723 0 120 255
35.973848 -227.652994 -290.044631 0 120 255
37.402930 -227.712497 -292.061472 0 120 255
38.865117 -227.773121 -294.056023 0 120 255
40.327304 -227.833744 -296.050575 0 120 255
41.789492 -227.894368 -298.045126 0 120 255
43.369483 -227.958968 -299.945696 0 120 255
44.986749 -228.024828 -301.816529 0 120 255
46.604016 -228.090687 -303.687361 0 120 255
48.221282 -228.156546 -305.558193 0 120 255
49.940581 -228.225752 -307.333419 0 120 255
51.700027 -228.296276 -309.071027 0 120 255
53.459472 -228.366799 -310.808634 0 120 255
55.218918 -228.437322 -312.546242 0 120 255
57.065195 -228.510711 -314.188744 0 120 255
58.953164 -228.585476 -315.785579 0 120 255
60.841134 -228.660241 -317.382415 0 120 255
62.729103 -228.735006 -318.979250 0 120 255
64.689442 -228.812165 -320.483591 0 120 255
66.691639 -228.890709 -321.934432 0 120 255
68.693836 -228.969253 -323.385273 0 120 255
70.696033 -229.047797 -324.836114 0 120 255
72.757138 -229.128174 -326.199034 0 120 255
74.858927 -229.209817 -327.501232 0 120 255
76.960716 -229.291460 -328.803431 0 120 255
79.062505 -229.373103 -330.105629 0 120 255
81.210962 -229.455373 -331.326295 0 120 255
83.397699 -229.538159 -332.480084 0 120 255
85.584437 -229.620944 -333.633873 0 120 255
87.771174 -229.703730 -334.787662 0 120 255
89.993273 -229.781569 -335.869242 0 120 255
92.249723 -229.854602 -336.880677 0 120 255
94.506174 -229.927636 -337.892111 0 120 255
96.762625 -230.000669 -338.903545 0 120 255
99.045010 -230.063573 -339.852937 0 120 255
101.357226 -230.114826 -340.730964 0 120 255
103.669442 -230.166079 -341.608991 0 120 255
105.981658 -230.217331 -342.487019 0 120 255
108.312276 -230.255527 -343.313017 0 120 255
110.668010 -230.275901 -344.068004 0 120 255
113.023744 -230.296275 -344.822991 0 120 255
115.379478 -230.316648 -345.577978 0 120 255
117.747731 -230.322763 -346.290525 0 120 255
120.136358 -230.305672 -346.934010 0 120 255
122.524984 -230.288582 -347.577496 0 120 255
124.913611 -230.271491 -348.220981 0 120 255
127.310299 -230.240279 -348.830984 0 120 255
129.722752 -230.181453 -349.375516 0 120 255
132.135204 -230.122626 -349.920048 0 120 255
134.547657 -230.063800 -350.464580 0 120 255
136.964939 -229.992041 -350.983728 0 120 255
139.393704 -229.889536 -351.442528 0 120 255
141.822468 -229.787032 -351.901329 0 120 255
144.251233 -229.684527 -352.360129 0 120 255
146.682612 -229.571029 -352.800649 0 120 255
149.121678 -229.425209 -353.187422 0 120 255
151.560745 -229.279389 -353.574195 0 120 255
153.999812 -229.133569 -353.960967 0 120 255
156.440090 -228.979134 -354.335468 0 120 255
158.884886 -228.792577 -354.664212 0 120 255
161.329681 -228.606020 -354.992955 0 120 255
163.774477 -228.419463 -355.321699 0 120 255
166.219669 -228.227026 -355.643406 0 120 255
168.666803 -228.005702 -355.930548 0 120 255
171.113938 -227.784377 -356.217689 0 120 255
173.561072 -227.563053 -356.504831 0 120 255
176.008168 -227.340451 -356.791286 0 120 255
178.455000 -227.109049 -357.073014 0 120 255
180.901832 -226.877648 -357.354742 0 120 255
183.348663 -226.646246 -357.636470 0 120 255
185.795495 -226.414844 -357.918199 0 120 255
188.242324 -226.183431 -358.199939 0 120 255
190.689153 -225.952019 -358.481679 0 120 255
193.135982 -225.720606 -358.763420 0 120 255
195.582812 -225.489194 -359.045160 0 120 255
198.029642 -225.257786 -359.326892 0 120 255
200.476472 -225.026377 -359.608625 0 120 255
202.923303 -224.794969 -359.890358 0 120 255
205.370133 -224.563560 -360.172091 0 120 255
