ply
format ascii 1.0
element vertex 385
property float x
property float y
property float z
property uchar red
property uchar green
property uchar blue
end_header
77.430455 -42.474882 -360.397637 0 120 255
77.187525 -42.528717 -357.935657 0 120 255
76.944595 -42.582553 -355.473677 0 120 255
76.701666 -42.636388 -353.011697 0 120 255
76.458736 -42.690224 -350.549718 0 120 255
76.220083 -42.757418 -348.087650 0 120 255
75.981613 -42.825185 -345.625578 0 120 255
75.743144 -42.892953 -343.163506 0 120 255
75.504675 -42.960720 -340.701434 0 120 255
75.436680 -43.369516 -338.264555 0 120 255
75.384030 -43.809009 -335.829944 0 120 255
75.331380 -44.248502 -333.395333 0 120 255
75.278729 -44.687995 -330.960722 0 120 255
75.372003 -45.397478 -328.595008 0 120 255
75.486790 -46.146767 -326.239451 0 120 255
75.601577 -46.896056 -323.883894 0 120 255
75.716365 -47.645345 -321.528337 0 120 255
75.956525 -48.609951 -319.265558 0 120 255
76.223195 -49.620086 -317.022397 0 120 255
76.489865 -50.630220 -314.779236 0 120 255
76.756535 -51.640354 -312.536074 0 120 255
77.129637 -52.817668 -310.395066 0 120 255
77.532857 -54.042291 -308.282965 0 120 255
77.936077 -55.266913 -306.170864 0 120 255
78.339297 -56.491536 -304.058763 0 120 255
78.832307 -57.842761 -302.048319 0 120 255
79.357939 -59.239982 -300.074809 0 120 255
79.883570 -60.637202 -298.101299 0 120 255
80.409201 -62.034423 -296.127788 0 120 255
81.010427 -63.525095 -294.249217 0 120 255
81.645974 -65.058196 -292.413750 0 120 255
82.281521 -66.591297 -290.578283 0 120 255
82.917068 -68.124398 -288.742816 0 120 255
83.616276 -69.724485 -286.992006 0 120 255
84.350956 -71.361897 -285.288367 0 120 255
85.085636 -72.999310 -283.584729 0 120 255
85.820316 -74.636722 -281.881091 0 120 255
86.608677 -76.320407 -280.250145 0 120 255
87.433309 -78.035356 -278.668313 0 120 255
88.257940 -79.750305 -277.086482 0 120 255
89.082572 -81.465254 -275.504651 0 120 255
89.952517 -83.210541 -273.983122 0 120 255
90.859303 -84.980495 -272.510620 0 120 255
91.766090 -86.750448 -271.038118 0 120 255
92.672876 -88.520401 -269.565617 0 120 255
93.617870 -90.308624 -268.141367 0 120 255
94.600080 -92.114643 -266.764117 0 120 255
95.582290 -93.920662 -265.386868 0 120 255
96.564501 -95.726681 -264.009618 0 120 255
97.578805 -97.542027 -262.669447 0 120 255
98.630521 -99.368246 -261.372499 0 120 255
99.682236 -101.194465 -260.075550 0 120 255
100.733952 -103.020684 -258.778602 0 120 255
101.812397 -104.849758 -257.508692 0 120 255
102.928193 -106.682822 -256.276566 0 120 255
104.043989 -108.515886 -255.044440 0 120 255
105.159785 -110.348949 -253.812314 0 120 255
106.297531 -112.180363 -252.598504 0 120 255
107.472224 -114.008999 -251.415523 0 120 255
108.646916 -115.837635 -250.232542 0 120 255
109.821609 -117.666271 -249.049560 0 120 255
111.013934 -119.490302 -247.877551 0 120 255
112.242309 -121.304918 -246.727978 0 120 255
113.470684 -123.119535 -245.578404 0 120 255
114.699059 -124.934151 -244.428830 0 120 255
115.941140 -126.742444 -243.284308 0 120 255
117.217711 -128.534826 -242.152499 0 120 255
118.494282 -130.327208 -241.020690 0 120 255
119.770853 -132.119590 -239.888881 0 120 255
121.057575 -133.904912 -238.757623 0 120 255
122.376362 -135.667937 -237.628110 0 120 255
123.695149 -137.430961 -236.498596 0 120 255
125.013936 -139.193986 -235.369082 0 120 255
126.339709 -140.950006 -234.237025 0 120 255
127.693998 -142.677434 -233.094592 0 120 255
129.048287 -144.404861 -231.952158 0 120 255
130.402576 -146.132288 -230.809725 0 120 255
131.761138 -147.853406 -229.663035 0 120 255
133.143312 -149.539667 -228.492830 0 120 255
134.525485 -151.225928 -227.322626 0 120 255
135.907658 -152.912188 -226.152421 0 120 255
137.291934 -154.593371 -224.977583 0 120 255
138.693234 -156.233436 -223.765230 0 120 255
140.094534 -157.873502 -222.552876 0 120 255
141.495834 -159.513567 -221.340522 0 120 255
142.897740 -161.150237 -220.124435 0 120 255
144.308108 -162.739465 -218.856178 0 120 255
145.718475 -164.328694 -217.587922 0 120 255
147.128843 -165.917922 -216.319666 0 120 255
148.539152 -167.505834 -215.049768 0 120 255
149.947064 -169.039866 -213.712687 0 120 255
151.354976 -170.573897 -212.375605 0 120 255
152.762888 -172.107929 -211.038523 0 120 255
154.170801 -173.641961 -209.701441 0 120 255
155.563420 -175.117732 -208.285187 0 120 255
156.955744 -176.592382 -206.867407 0 120 255
158.348068 -178.067031 -205.449627 0 120 255
159.740393 -179.541680 -204.031847 0 120 255
161.104133 -180.956775 -202.528448 0 120 255
162.466003 -182.367972 -201.019444 0 120 255
163.827873 -183.779169 -199.510441 0 120 255
165.189743 -185.190366 -198.001437 0 120 255
166.509406 -186.541097 -196.402778 0 120 255
167.824183 -187.884827 -194.793738 0 120 255
169.138960 -189.228557 -193.184699 0 120 255
170.453737 -190.572287 -191.575659 0 120 255
171.712559 -191.854973 -189.875439 0 120 255
172.961825 -193.127233 -188.159645 0 120 255
174.211090 -194.399492 -186.443851 0 120 255
175.460355 -195.671751 -184.728056 0 120 255
176.640077 -196.882719 -182.922175 0 120 255
177.803720 -198.079517 -181.095465 0 120 255
178.967363 -199.276315 -179.268756 0 120 255
180.131006 -200.473112 -177.442046 0 120 255
181.212003 -201.608736 -175.529014 0 120 255
182.268391 -202.726144 -173.590276 0 120 255
183.324778 -203.843552 -171.651539 0 120 255
184.381166 -204.960960 -169.712801 0 120 255
185.342709 -206.017691 -167.694156 0 120 255
186.269013 -207.051877 -165.645821 0 120 255
187.195317 -208.086063 -163.597485 0 120 255
188.121620 -209.120249 -161.549150 0 120 255
188.942222 -210.094694 -159.429869 0 120 255
189.714861 -211.042031 -157.278394 0 120 255
190.487499 -211.989367 -155.126920 0 120 255
191.260138 -212.936703 -152.975446 0 120 255
191.918037 -213.825768 -150.764336 0 120 255
192.513300 -214.683023 -148.520671 0 120 255
193.108563 -215.540277 -146.277005 0 120 255
193.703826 -216.397532 -144.033340 0 120 255
194.177580 -217.198544 -141.743330 0 120 255
194.572361 -217.963003 -139.423199 0 120 255
194.967142 -218.727461 -137.103067 0 120 255
195.361922 -219.491919 -134.782936 0 120 255
195.631147 -220.202808 -132.431270 0 120 255
195.803904 -220.872537 -130.055376 0 120 255
195.976660 -221.542266 -127.679481 0 120 255
196.149417 -222.211995 -125.303586 0 120 255
196.195598 -222.831499 -122.911863 0 120 255
196.127315 -223.405584 -120.505824 0 120 255
196.059031 -223.979669 -118.099785 0 120 255
195.990748 -224.553753 -115.693747 0 120 255
195.798149 -225.081631 -113.287749 0 120 255
195.473503 -225.560429 -110.881795 0 120 255
195.148857 -226.039228 -108.475841 0 120 255
194.824210 -226.518026 -106.069887 0 120 255
194.380794 -226.955253 -103.679192 0 120 255
193.789169 -227.340607 -101.307539 0 120 255
193.197545 -227.725962 -98.935886 0 120 255
192.605920 -228.111316 -96.564232 0 120 255
191.904209 -228.460279 -94.221564 0 120 255
191.040726 -228.755766 -91.921490 0 120 255
190.177242 -229.051253 -89.621416 0 120 255
189.313758 -229.346740 -87.321341 0 120 255
188.351612 -229.611377 -85.061679 0 120 255
187.217888 -229.822363 -82.872293 0 120 255
186.084164 -230.033350 -80.682907 0 120 255
184.950439 -230.244337 -78.493520 0 120 255
183.731610 -230.430198 -76.352986 0 120 255
182.336272 -230.563948 -74.313770 0 120 255
180.940935 -230.697698 -72.274554 0 120 255
179.545597 -230.831447 -70.235338 0 120 255
178.080055 -230.945728 -68.249926 0 120 255
176.438858 -231.011297 -66.399135 0 120 255
174.797660 -231.076865 -64.548344 0 120 255
173.156462 -231.142434 -62.697553 0 120 255
171.460400 -231.193871 -60.901766 0 120 255
169.595961 -231.201936 -59.274787 0 120 255
167.731523 -231.210002 -57.647808 0 120 255
165.867084 -231.218067 -56.020828 0 120 255
163.962601 -231.216767 -54.446326 0 120 255
161.903705 -231.179353 -53.074173 0 120 255
159.844809 -231.141939 -51.702019 0 120 255
157.785913 -231.104525 -50.329865 0 120 255
155.700368 -231.061757 -49.004212 0 120 255
153.480956 -230.992099 -47.912142 0 120 255
151.261545 -230.922441 -46.820071 0 120 255
149.042134 -230.852782 -45.728000 0 120 255
146.807241 -230.780830 -44.673581 0 120 255
144.464950 -230.692967 -43.880353 0 120 255
142.122659 -230.605103 -43.087125 0 120 255
139.780368 -230.517239 -42.293896 0 120 255
137.430943 -230.429018 -41.527396 0 120 255
135.005516 -230.336982 -41.045636 0 120 255
132.580090 -230.244946 -40.563877 0 120 255
130.154663 -230.152911 -40.082117 0 120 255
127.727343 -230.060917 -39.614594 0 120 255
125.260237 -229.969796 -39.446240 0 120 255
122.793131 -229.878675 -39.277887 0 120 255
120.326025 -229.787554 -39.109533 0 120 255
117.858911 -229.696441 -38.942633 0 120 255
115.389975 -229.607048 -39.082722 0 120 255
112.921040 -229.517655 -39.222810 0 120 255
110.452105 -229.428262 -39.362899 0 120 255
107.983169 -229.338869 -39.502987 0 120 255
105.548079 -229.251969 -39.930652 0 120 255
103.114258 -229.165162 -40.369098 0 120 255
100.680436 -229.078356 -40.807545 0 120 255
98.246615 -228.991550 -41.245991 0 120 255
95.875840 -228.908031 -41.945754 0 120 255
93.510334 -228.824788 -42.667358 0 120 255
91.144829 -228.741544 -43.388962 0 120 255
88.779324 -228.658301 -44.110566 0 120 255
86.499460 -228.579023 -45.064995 0 120 255
84.231085 -228.500277 -46.050658 0 120 255
81.962710 -228.421531 -47.036321 0 120 255
79.694335 -228.342785 -48.021984 0 120 255
77.527822 -228.268488 -49.211153 0 120 255
75.380651 -228.195036 -50.438963 0 120 255
73.233480 -228.121583 -51.666774 0 120 255
71.086309 -228.048131 -52.894584 0 120 255
69.051369 -227.979387 -54.296978 0 120 255
67.044662 -227.911827 -55.743291 0 120 255
65.037955 -227.844268 -57.189604 0 120 255
63.031248 -227.776708 -58.635917 0 120 255
61.141992 -227.713957 -60.229242 0 120 255
59.290346 -227.652746 -61.869644 0 120 255
57.438701 -227.591535 -63.510046 0 120 255
55.587055 -227.530324 -65.150448 0 120 255
53.853824 -227.473859 -66.912417 0 120 255
52.167611 -227.419277 -68.722656 0 120 255
50.481399 -227.364695 -70.532895 0 120 255
48.795187 -227.310114 -72.343135 0 120 255
47.225016 -227.260120 -74.252084 0 120 255
45.710963 -227.212344 -76.208770 0 120 255
44.196911 -227.164569 -78.165456 0 120 255
42.682859 -227.116793 -80.122143 0 120 255
41.279681 -227.073339 -82.157263 0 120 255
39.941009 -227.032400 -84.238018 0 120 255
38.602338 -226.991461 -86.318773 0 120 255
37.263666 -226.950522 -88.399527 0 120 255
36.028823 -226.913578 -90.541251 0 120 255
34.866054 -226.879406 -92.725298 0 120 255
33.703286 -226.845234 -94.909344 0 120 255
32.540518 -226.811063 -97.093391 0 120 255
31.473292 -226.780532 -99.323652 0 120 255
30.484789 -226.753001 -101.591990 0 120 255
29.496286 -226.725470 -103.860329 0 120 255
28.507783 -226.697940 -106.128668 0 120 255
27.605732 -226.673685 -108.430960 0 120 255
26.788009 -226.652626 -110.766371 0 120 255
25.970286 -226.631568 -113.101781 0 120 255
25.152562 -226.610509 -115.437192 0 120 255
24.411963 -226.592329 -117.796619 0 120 255
23.760402 -226.577473 -120.183773 0 120 255
23.108841 -226.562617 -122.570927 0 120 255
22.457280 -226.547761 -124.958082 0 120 255
21.873600 -226.535430 -127.361360 0 120 255
21.382877 -226.526558 -129.786720 0 120 255
20.892154 -226.517686 -132.212080 0 120 255
20.401431 -226.508814 -134.637439 0 120 255
19.969581 -226.502123 -137.072782 0 120 255
19.633818 -226.498991 -139.524416 0 120 255
19.298055 -226.495860 -141.976050 0 120 255
18.962292 -226.492728 -144.427684 0 120 255
18.676800 -226.491452 -146.884661 0 120 255
18.489857 -226.493813 -149.352110 0 120 255
18.302914 -226.496174 -151.819559 0 120 255
18.115970 -226.498535 -154.287008 0 120 255
17.971201 -226.502434 -156.756427 0 120 255
17.926910 -226.510000 -159.230541 0 120 255
17.882619 -226.517565 -161.704654 0 120 255
17.838328 -226.525131 -164.178768 0 120 255
17.828661 -226.533959 -166.652541 0 120 255
17.920973 -226.546508 -169.125308 0 120 255
18.013285 -226.559057 -171.598075 0 120 255
18.105597 -226.571606 -174.070843 0 120 255
18.225548 -226.585153 -176.541838 0 120 255
18.448670 -226.602422 -179.006220 0 120 255
18.671792 -226.619692 -181.470601 0 120 255
18.894914 -226.636962 -183.934982 0 120 255
19.139239 -226.654996 -186.396891 0 120 255
19.487739 -226.676783 -188.846653 0 120 255
19.836239 -226.698571 -191.296414 0 120 255
20.184739 -226.720359 -193.746176 0 120 255
20.548532 -226.742694 -196.193369 0 120 255
21.017510 -226.768797 -198.622903 0 120 255
21.486488 -226.794900 -201.052437 0 120 255
21.955465 -226.821002 -203.481971 0 120 255
22.434288 -226.847453 -205.909355 0 120 255
23.019397 -226.877656 -208.313516 0 120 255
23.604505 -226.907859 -210.717678 0 120 255
24.189613 -226.938062 -213.121840 0 120 255
24.779510 -226.968436 -215.524714 0 120 255
25.476977 -227.002636 -217.898661 0 120 255
26.174445 -227.036836 -220.272609 0 120 255
26.871913 -227.071036 -222.646556 0 120 255
27.569430 -227.105238 -225.020488 0 120 255
28.376050 -227.143297 -227.359542 0 120 255
29.182671 -227.181356 -229.698596 0 120 255
29.989291 -227.219414 -232.037649 0 120 255
30.795912 -227.257473 -234.376703 0 120 255
31.704533 -227.299094 -236.677880 0 120 255
32.617597 -227.340870 -238.977408 0 120 255
33.530660 -227.382646 -241.276935 0 120 255
34.443723 -227.424422 -243.576463 0 120 255
35.452277 -227.469524 -245.835458 0 120 255
36.469577 -227.514930 -248.090740 0 120 255
37.486877 -227.560337 -250.346022 0 120 255
38.504177 -227.605743 -252.601303 0 120 255
39.611031 -227.654237 -254.813622 0 120 255
40.730803 -227.703176 -257.019744 0 120 255
41.850574 -227.752115 -259.225866 0 120 255
42.970345 -227.801055 -261.431989 0 120 255
44.174115 -227.852902 -263.592930 0 120 255
45.394863 -227.905338 -265.744739 0 120 255
46.615612 -227.957773 -267.896548 0 120 255
47.836360 -228.010209 -270.048356 0 120 255
49.135917 -228.065320 -272.152905 0 120 255
50.456453 -228.121144 -274.244872 0 120 255
51.776988 -228.176967 -276.336839 0 120 255
53.097524 -228.232791 -278.428806 0 120 255
54.491966 -228.291182 -280.471529 0 120 255
55.911343 -228.350441 -282.497637 0 120 255
57.330720 -228.409699 -284.523745 0 120 255
58.750098 -228.468957 -286.549853 0 120 255
60.238541 -228.530571 -288.524928 0 120 255
61.755785 -228.593167 -290.478722 0 120 255
63.273029 -228.655764 -292.432515 0 120 255
64.790273 -228.718360 -294.386309 0 120 255
66.371834 -228.783276 -296.287415 0 120 255
67.985982 -228.849367 -298.161826 0 120 255
69.600130 -228.915458 -300.036236 0 120 255
71.214278 -228.981549 -301.910647 0 120 255
72.887992 -229.049547 -303.730914 0 120 255
74.597935 -229.118706 -305.518250 0 120 255
76.307878 -229.187864 -307.305586 0 120 255
78.017821 -229.257023 -309.092922 0 120 255
79.782429 -229.327378 -310.824998 0 120 255
81.586631 -229.398599 -312.517050 0 120 255
83.390834 -229.469821 -314.209101 0 120 255
85.195037 -229.541042 -315.901153 0 120 255
87.048507 -229.610563 -317.537717 0 120 255
88.944263 -229.678624 -319.126659 0 120 255
90.840019 -229.746685 -320.715600 0 120 255
92.735775 -229.814747 -322.304541 0 120 255
94.675148 -229.876962 -323.838554 0 120 255
96.658763 -229.933248 -325.316851 0 120 255
98.642377 -229.989534 -326.795147 0 120 255
100.625992 -230.045820 -328.273444 0 120 255
102.647583 -230.093045 -329.697835 0 120 255
104.714694 -230.129410 -331.057610 0 120 255
106.781804 -230.165774 -332.417385 0 120 255
108.848915 -230.202138 -333.777161 0 120 255
110.948394 -230.227634 -335.084540 0 120 255
113.093832 -230.237699 -336.317525 0 120 255
115.239270 -230.247764 -337.550510 0 120 255
117.384708 -230.257829 -338.783495 0 120 255
119.556968 -230.256103 -339.966212 0 120 255
121.774564 -230.234447 -341.063962 0 120 255
123.992160 -230.212791 -342.161713 0 120 255
126.209756 -230.191135 -343.259464 0 120 255
128.448801 -230.157566 -344.309707 0 120 255
130.731349 -230.099835 -345.263593 0 120 255
133.013897 -230.042104 -346.217480 0 120 255
135.296445 -229.984373 -347.171366 0 120 255
137.595339 -229.915295 -348.081211 0 120 255
139.934494 -229.818271 -348.882584 0 120 255
142.273649 -229.721247 -349.683957 0 120 255
144.612804 -229.624222 -350.485330 0 120 255
146.963608 -229.516981 -351.246849 0 120 255
149.349861 -229.378650 -351.887100 0 120 255
151.736113 -229.240319 -352.527351 0 120 255
154.122366 -229.101988 -353.167601 0 120 255
156.516110 -228.954992 -353.772938 0 120 255
158.938736 -228.774588 -354.243675 0 120 255
161.361363 -228.594184 -354.714413 0 120 255
163.783989 -228.413780 -355.185150 0 120 255
166.210686 -228.226685 -355.626347 0 120 255
168.658040 -228.005638 -355.917644 0 120 255
171.105394 -227.784592 -356.208940 0 120 255
173.552748 -227.563545 -356.500236 0 120 255
176.000121 -227.341212 -356.790360 0 120 255
178.447623 -227.109747 -357.072165 0 120 255
180.895125 -226.878282 -357.353970 0 120 255
183.342628 -226.646817 -357.635775 0 120 255
185.790130 -226.415351 -357.917581 0 120 255
188.237630 -226.183875 -358.199398 0 120 255
190.685129 -225.952399 -358.481216 0 120 255
193.132629 -225.720924 -358.763033 0 120 255
195.580129 -225.489448 -359.044851 0 120 255
198.027630 -225.257976 -359.326661 0 120 255
200.475131 -225.026504 -359.608471 0 120 255
202.922632 -224.795032 -359.890281 0 120 255
205.370133 -224.563560 -360.172091 0 120 255
