ply
format ascii 1.0
element vertex 385
property float x
property float y
property float z
property uchar red
property uchar green
property uchar blue
end_header
77.430455 -42.474882 -360.397637 0 120 255
77.187537 -42.528715 -357.935773 0 120 255
76.944618 -42.582548 -355.473909 0 120 255
76.701700 -42.636381 -353.012046 0 120 255
76.458781 -42.690214 -350.550182 0 120 255
76.216744 -42.756156 -348.088527 0 120 255
75.974745 -42.822622 -345.626882 0 120 255
75.732746 -42.889087 -343.165236 0 120 255
75.490747 -42.955552 -340.703590 0 120 255
75.322184 -43.374099 -338.273082 0 120 255
75.160221 -43.824289 -335.845371 0 120 255
74.998258 -44.274478 -333.417661 0 120 255
74.836295 -44.724668 -330.989951 0 120 255
74.741187 -45.475050 -328.637078 0 120 255
74.655788 -46.269031 -326.295074 0 120 255
74.570389 -47.063011 -323.953070 0 120 255
74.484990 -47.856992 -321.611066 0 120 255
74.461764 -48.907603 -319.374639 0 120 255
74.451416 -50.011369 -317.160080 0 120 255
74.441069 -51.115136 -314.945521 0 120 255
74.430721 -52.218902 -312.730961 0 120 255
74.478979 -53.535940 -310.640999 0 120 255
74.543443 -54.911953 -308.585491 0 120 255
74.607907 -56.287965 -306.529982 0 120 255
74.672370 -57.663977 -304.474474 0 120 255
74.792842 -59.212302 -302.552792 0 120 255
74.933177 -60.821738 -300.678571 0 120 255
75.073513 -62.431173 -298.804350 0 120 255
75.213848 -64.040609 -296.930129 0 120 255
75.408352 -65.785139 -295.191172 0 120 255
75.626854 -67.589518 -293.512139 0 120 255
75.845356 -69.393897 -291.833105 0 120 255
76.063858 -71.198276 -290.154072 0 120 255
76.335212 -73.104986 -288.605851 0 120 255
76.635299 -75.067333 -287.128752 0 120 255
76.935387 -77.029681 -285.651653 0 120 255
77.235474 -78.992028 -284.174554 0 120 255
77.587365 -81.028607 -282.819576 0 120 255
77.973407 -83.114121 -281.545103 0 120 255
78.359448 -85.199635 -280.270629 0 120 255
78.745489 -87.285150 -278.996156 0 120 255
79.182325 -89.421368 -277.832265 0 120 255
79.659446 -91.597798 -276.756072 0 120 255
80.136566 -93.774228 -275.679880 0 120 255
80.613686 -95.950657 -274.603687 0 120 255
81.140418 -98.158541 -273.624805 0 120 255
81.714268 -100.396299 -272.738342 0 120 255
82.288118 -102.634057 -271.851879 0 120 255
82.861968 -104.871815 -270.965416 0 120 255
83.483889 -107.125683 -270.162179 0 120 255
84.160398 -109.397845 -269.453453 0 120 255
84.836908 -111.670008 -268.744728 0 120 255
85.513417 -113.942171 -268.036002 0 120 255
86.235950 -116.218572 -267.396277 0 120 255
87.021047 -118.500735 -266.850355 0 120 255
87.806145 -120.782899 -266.304432 0 120 255
88.591243 -123.065062 -265.758510 0 120 255
89.419710 -125.342657 -265.267799 0 120 255
90.319049 -127.612785 -264.867313 0 120 255
91.218389 -129.882912 -264.466827 0 120 255
92.117728 -132.153040 -264.066341 0 120 255
93.057113 -134.412463 -263.708152 0 120 255
94.075758 -136.650701 -263.433676 0 120 255
95.094402 -138.888939 -263.159200 0 120 255
96.113046 -141.127176 -262.884724 0 120 255
97.167734 -143.350889 -262.640840 0 120 255
98.309844 -145.539376 -262.471156 0 120 255
99.451954 -147.727862 -262.301472 0 120 255
100.594063 -149.916349 -262.131789 0 120 255
101.767576 -152.088494 -261.982508 0 120 255
103.036076 -154.211209 -261.894946 0 120 255
104.304576 -156.333925 -261.807383 0 120 255
105.573075 -158.456640 -261.719821 0 120 255
106.867795 -160.562917 -261.644191 0 120 255
108.264045 -162.605538 -261.614766 0 120 255
109.660296 -164.648158 -261.585342 0 120 255
111.056547 -166.690779 -261.555918 0 120 255
112.473438 -168.718339 -261.531881 0 120 255
113.996884 -170.668154 -261.535649 0 120 255
115.520330 -172.617969 -261.539417 0 120 255
117.043776 -174.567784 -261.543185 0 120 255
118.582101 -176.505164 -261.547858 0 120 255
120.229971 -178.350991 -261.559192 0 120 255
121.877841 -180.196817 -261.570526 0 120 255
123.525711 -182.042644 -261.581860 0 120 255
125.182766 -183.879706 -261.591770 0 120 255
126.949730 -185.611892 -261.584632 0 120 255
128.716694 -187.344077 -261.577495 0 120 255
130.483658 -189.076263 -261.570357 0 120 255
132.254501 -190.804192 -261.561662 0 120 255
134.132432 -192.414590 -261.509970 0 120 255
136.010363 -194.024989 -261.458278 0 120 255
137.888294 -195.635387 -261.406587 0 120 255
139.766225 -197.245786 -261.354895 0 120 255
141.743254 -198.728717 -261.233497 0 120 255
143.720977 -200.210753 -261.111610 0 120 255
145.698701 -201.692790 -260.989723 0 120 255
147.676425 -203.174827 -260.867836 0 120 255
149.735414 -204.530041 -260.655561 0 120 255
151.798558 -205.878771 -260.438664 0 120 255
153.861702 -207.227502 -260.221767 0 120 255
155.924846 -208.576232 -260.004870 0 120 255
158.049680 -209.800705 -259.680263 0 120 255
160.180621 -211.012878 -259.344994 0 120 255
162.311563 -212.225052 -259.009726 0 120 255
164.442504 -213.437225 -258.674457 0 120 255
166.614215 -214.529520 -258.217740 0 120 255
168.792087 -215.603702 -257.742673 0 120 255
170.969958 -216.677884 -257.267606 0 120 255
173.147830 -217.752066 -256.792539 0 120 255
175.344737 -218.712401 -256.186175 0 120 255
177.545605 -219.649046 -255.552491 0 120 255
179.746473 -220.585691 -254.918806 0 120 255
181.947342 -221.522336 -254.285122 0 120 255
184.145277 -222.352650 -253.514289 0 120 255
186.342418 -223.154182 -252.706331 0 120 255
188.539560 -223.955714 -251.898373 0 120 255
190.736702 -224.757246 -251.090415 0 120 255
192.909359 -225.461246 -250.143512 0 120 255
195.073698 -226.132105 -249.149395 0 120 255
197.238036 -226.802963 -248.155277 0 120 255
199.402374 -227.473821 -247.161159 0 120 255
201.521768 -228.057006 -246.030271 0 120 255
203.622440 -228.603668 -244.842408 0 120 255
205.723112 -229.150331 -243.654546 0 120 255
207.823784 -229.696994 -242.466683 0 120 255
209.860796 -230.166621 -241.147938 0 120 255
211.865832 -230.597553 -239.763448 0 120 255
213.870867 -231.028484 -238.378959 0 120 255
215.875903 -231.459415 -236.994469 0 120 255
217.800961 -231.824436 -235.488381 0 120 255
219.678128 -232.149988 -233.909475 0 120 255
221.555294 -232.475540 -232.330570 0 120 255
223.432460 -232.801091 -230.751664 0 120 255
225.216244 -233.072031 -229.063289 0 120 255
226.933878 -233.304286 -227.297370 0 120 255
228.651512 -233.536540 -225.531451 0 120 255
230.369147 -233.768795 -223.765532 0 120 255
231.983343 -233.957557 -221.904516 0 120 255
233.511297 -234.110057 -219.964211 0 120 255
235.039250 -234.262556 -218.023906 0 120 255
236.567203 -234.415055 -216.083601 0 120 255
237.985306 -234.534715 -214.064111 0 120 255
239.295870 -234.622226 -211.967103 0 120 255
240.606435 -234.709737 -209.870095 0 120 255
241.916999 -234.797248 -207.773087 0 120 255
243.114991 -234.862338 -205.613544 0 120 255
244.183635 -234.901666 -203.382147 0 120 255
245.252279 -234.940994 -201.150750 0 120 255
246.320923 -234.980322 -198.919352 0 120 255
247.278918 -235.008397 -196.642378 0 120 255
248.087363 -235.021263 -194.303803 0 120 255
248.895807 -235.034129 -191.965229 0 120 255
249.704252 -235.046995 -189.626654 0 120 255
250.405123 -235.051244 -187.257816 0 120 255
250.934295 -235.041740 -184.840676 0 120 255
251.463466 -235.032235 -182.423536 0 120 255
251.992638 -235.022731 -180.006395 0 120 255
252.419489 -235.005042 -177.573342 0 120 255
252.652713 -234.971866 -175.110176 0 120 255
252.885938 -234.938690 -172.647010 0 120 255
253.119163 -234.905514 -170.183845 0 120 255
253.258952 -234.866449 -167.717726 0 120 255
253.187119 -234.814045 -165.244919 0 120 255
253.115285 -234.761640 -162.772112 0 120 255
253.043451 -234.709236 -160.299305 0 120 255
252.889403 -234.652870 -157.834149 0 120 255
252.509426 -234.585617 -155.390019 0 120 255
252.129450 -234.518363 -152.945888 0 120 255
251.749473 -234.451109 -150.501757 0 120 255
251.300196 -234.381406 -148.073009 0 120 255
250.615271 -234.303370 -145.696569 0 120 255
249.930346 -234.225335 -143.320129 0 120 255
249.245421 -234.147299 -140.943689 0 120 255
248.505084 -234.067931 -138.587153 0 120 255
247.524786 -233.982795 -136.316812 0 120 255
246.544488 -233.897658 -134.046471 0 120 255
245.564190 -233.812522 -131.776130 0 120 255
244.542538 -233.726812 -129.526877 0 120 255
243.282487 -233.637796 -127.399196 0 120 255
242.022436 -233.548781 -125.271515 0 120 255
240.762385 -233.459766 -123.143833 0 120 255
239.474431 -233.370627 -121.035165 0 120 255
237.955740 -233.280464 -119.083723 0 120 255
236.437048 -233.190302 -117.132280 0 120 255
234.918357 -233.100139 -115.180838 0 120 255
233.383890 -233.010048 -113.243346 0 120 255
231.632396 -232.920941 -111.497777 0 120 255
229.880902 -232.831834 -109.752209 0 120 255
228.129408 -232.742726 -108.006641 0 120 255
226.372337 -232.653695 -106.267408 0 120 255
224.417649 -232.567341 -104.752675 0 120 255
222.462960 -232.480988 -103.237942 0 120 255
220.508272 -232.394634 -101.723209 0 120 255
218.553583 -232.308281 -100.208476 0 120 255
216.430258 -232.225810 -98.941124 0 120 255
214.304699 -232.143391 -97.677048 0 120 255
212.179141 -232.060971 -96.412972 0 120 255
210.053582 -231.978552 -95.148896 0 120 255
207.798502 -231.900556 -94.135646 0 120 255
205.536056 -231.822812 -93.136659 0 120 255
203.273610 -231.745068 -92.137672 0 120 255
201.011164 -231.667324 -91.138685 0 120 255
198.656109 -231.594098 -90.387895 0 120 255
196.291360 -231.521344 -89.663085 0 120 255
193.926611 -231.448591 -88.938274 0 120 255
191.561863 -231.375837 -88.213464 0 120 255
189.138302 -231.307380 -87.728986 0 120 255
186.705492 -231.239598 -87.282308 0 120 255
184.272682 -231.171816 -86.835630 0 120 255
181.839872 -231.104034 -86.388952 0 120 255
179.378276 -231.040120 -86.170467 0 120 255
176.910477 -230.977040 -86.001150 0 120 255
174.442677 -230.913960 -85.831832 0 120 255
171.974878 -230.850879 -85.662514 0 120 255
169.504144 -230.791087 -85.705976 0 120 255
167.032587 -230.732215 -85.809040 0 120 255
164.561031 -230.673343 -85.912103 0 120 255
162.089474 -230.614471 -86.015167 0 120 255
159.636493 -230.558281 -86.313287 0 120 255
157.190056 -230.503036 -86.680136 0 120 255
154.743620 -230.447792 -87.046985 0 120 255
152.297184 -230.392548 -87.413835 0 120 255
149.886526 -230.339388 -87.956612 0 120 255
147.491380 -230.287132 -88.575664 0 120 255
145.096234 -230.234876 -89.194716 0 120 255
142.701088 -230.182620 -89.813768 0 120 255
140.354809 -230.131916 -90.589013 0 120 255
138.034210 -230.082028 -91.446342 0 120 255
135.713612 -230.032140 -92.303671 0 120 255
133.393013 -229.982252 -93.161000 0 120 255
131.130567 -229.933485 -94.154859 0 120 255
128.904785 -229.885424 -95.234796 0 120 255
126.679003 -229.837364 -96.314734 0 120 255
124.453221 -229.789303 -97.394672 0 120 255
122.291462 -229.742044 -98.592083 0 120 255
120.177804 -229.695388 -99.877757 0 120 255
118.064147 -229.648731 -101.163430 0 120 255
115.950490 -229.602074 -102.449104 0 120 255
113.903747 -229.556027 -103.834234 0 120 255
111.916688 -229.510524 -105.308075 0 120 255
109.929630 -229.465021 -106.781916 0 120 255
107.942571 -229.419518 -108.255758 0 120 255
106.022782 -229.374547 -109.812368 0 120 255
104.174133 -229.330139 -111.456511 0 120 255
102.325485 -229.285730 -113.100654 0 120 255
100.476836 -229.241322 -114.744797 0 120 255
98.693717 -229.197485 -116.456555 0 120 255
96.992863 -229.154366 -118.253195 0 120 255
95.292009 -229.111246 -120.049836 0 120 255
93.591155 -229.068127 -121.846476 0 120 255
91.952399 -229.025692 -123.697209 0 120 255
90.406532 -228.984280 -125.628856 0 120 255
88.860666 -228.942869 -127.560504 0 120 255
87.314799 -228.901457 -129.492151 0 120 255
85.826286 -228.860904 -131.466045 0 120 255
84.440682 -228.821891 -133.515743 0 120 255
83.055078 -228.782877 -135.565440 0 120 255
81.669474 -228.743863 -137.615138 0 120 255
80.335484 -228.706025 -139.696889 0 120 255
79.113724 -228.670740 -141.848339 0 120 255
77.891963 -228.635456 -143.999789 0 120 255
76.670203 -228.600172 -146.151239 0 120 255
75.493612 -228.566350 -148.326149 0 120 255
74.437858 -228.536439 -150.563820 0 120 255
73.382103 -228.506528 -152.801490 0 120 255
72.326349 -228.476617 -155.039160 0 120 255
71.308881 -228.448104 -157.293219 0 120 255
70.420263 -228.424295 -159.602434 0 120 255
69.531646 -228.400485 -161.911648 0 120 255
68.643028 -228.376676 -164.220863 0 120 255
67.785537 -228.354035 -166.540804 0 120 255
67.064268 -228.336508 -168.907689 0 120 255
66.342999 -228.318982 -171.274574 0 120 255
65.621730 -228.301455 -173.641459 0 120 255
64.924291 -228.284819 -176.014711 0 120 255
64.369811 -228.273528 -178.426164 0 120 255
63.815331 -228.262237 -180.837617 0 120 255
63.260850 -228.250945 -183.249070 0 120 255
62.722900 -228.240266 -185.663736 0 120 255
62.334143 -228.235107 -188.107406 0 120 255
61.945386 -228.229949 -190.551075 0 120 255
61.556629 -228.224790 -192.994745 0 120 255
61.177168 -228.219975 -195.439576 0 120 255
60.952692 -228.220882 -197.903778 0 120 255
60.728215 -228.221790 -200.367980 0 120 255
60.503738 -228.222697 -202.832181 0 120 255
60.281441 -228.223685 -205.296509 0 120 255
60.219397 -228.230546 -207.770127 0 120 255
60.157352 -228.237407 -210.243744 0 120 255
60.095308 -228.244269 -212.717362 0 120 255
60.033263 -228.251130 -215.190979 0 120 255
60.126700 -228.263649 -217.663438 0 120 255
60.224908 -228.276341 -220.135860 0 120 255
60.323116 -228.289034 -222.608283 0 120 255
60.421323 -228.301727 -225.080706 0 120 255
60.666053 -228.319722 -227.542568 0 120 255
60.922314 -228.338136 -230.003598 0 120 255
61.178575 -228.356549 -232.464629 0 120 255
61.434836 -228.374962 -234.925660 0 120 255
61.828739 -228.398318 -237.367879 0 120 255
62.240729 -228.422323 -239.807627 0 120 255
62.652719 -228.446328 -242.247374 0 120 255
63.064708 -228.470333 -244.687122 0 120 255
63.605728 -228.498961 -247.100806 0 120 255
64.171199 -228.528466 -249.509551 0 120 255
64.736670 -228.557970 -251.918296 0 120 255
65.302141 -228.587475 -254.327041 0 120 255
65.988198 -228.621277 -256.703362 0 120 255
66.704861 -228.656170 -259.071453 0 120 255
67.421524 -228.691062 -261.439544 0 120 255
68.138188 -228.725955 -263.807636 0 120 255
68.967097 -228.764880 -266.137764 0 120 255
69.832532 -228.805117 -268.455540 0 120 255
70.697966 -228.845354 -270.773316 0 120 255
71.563401 -228.885592 -273.091091 0 120 255
72.532958 -228.929632 -275.366076 0 120 255
73.544750 -228.975215 -277.623703 0 120 255
74.556541 -229.020798 -279.881330 0 120 255
75.568332 -229.066381 -282.138957 0 120 255
76.676315 -229.115273 -284.349607 0 120 255
77.832017 -229.165806 -286.536952 0 120 255
78.987720 -229.216339 -288.724298 0 120 255
80.143422 -229.266872 -290.911643 0 120 255
81.387445 -229.320131 -293.048474 0 120 255
82.684357 -229.375022 -295.155056 0 120 255
83.981269 -229.429914 -297.261637 0 120 255
85.278180 -229.484806 -299.368219 0 120 255
86.655629 -229.541292 -301.421371 0 120 255
88.090765 -229.598922 -303.436252 0 120 255
89.525901 -229.656551 -305.451132 0 120 255
90.961037 -229.714180 -307.466013 0 120 255
92.469931 -229.770039 -309.424442 0 120 255
94.041659 -229.824389 -311.334782 0 120 255
95.613387 -229.878740 -313.245121 0 120 255
97.185115 -229.933090 -315.155461 0 120 255
98.823608 -229.981844 -317.006839 0 120 255
100.529520 -230.024947 -318.798679 0 120 255
102.235431 -230.068051 -320.590518 0 120 255
103.941343 -230.111154 -322.382357 0 120 255
105.706281 -230.146201 -324.113783 0 120 255
107.541828 -230.171611 -325.772939 0 120 255
109.377376 -230.197021 -327.432095 0 120 255
111.212923 -230.222430 -329.091252 0 120 255
113.099504 -230.238249 -330.689417 0 120 255
115.058544 -230.240449 -332.200985 0 120 255
117.017585 -230.242649 -333.712552 0 120 255
118.976626 -230.244849 -335.224119 0 120 255
120.978533 -230.236565 -336.675145 0 120 255
123.053009 -230.210531 -338.023682 0 120 255
125.127485 -230.184498 -339.372219 0 120 255
127.201961 -230.158465 -340.720756 0 120 255
129.311113 -230.121648 -342.010351 0 120 255
131.490790 -230.062898 -343.180066 0 120 255
133.670468 -230.004149 -344.349782 0 120 255
135.850146 -229.945400 -345.519498 0 120 255
138.056479 -229.876121 -346.633127 0 120 255
140.328685 -229.780823 -347.608153 0 120 255
142.600892 -229.685524 -348.583180 0 120 255
144.873098 -229.590226 -349.558207 0 120 255
147.164349 -229.485148 -350.481346 0 120 255
149.513745 -229.350214 -351.246077 0 120 255
151.863141 -229.215279 -352.010807 0 120 255
154.212537 -229.080345 -352.775538 0 120 255
156.574059 -228.936807 -353.493975 0 120 255
158.982441 -228.760023 -354.033536 0 120 255
161.390822 -228.583239 -354.573096 0 120 255
163.799204 -228.406455 -355.112657 0 120 255
166.213925 -228.222553 -355.611956 0 120 255
168.660804 -228.002540 -355.907008 0 120 255
171.107684 -227.782527 -356.202060 0 120 255
173.554563 -227.562513 -356.497112 0 120 255
176.001505 -227.341081 -356.790519 0 120 255
178.448892 -227.109627 -357.072311 0 120 255
180.896279 -226.878173 -357.354103 0 120 255
183.343666 -226.646719 -357.635894 0 120 255
185.791053 -226.415264 -357.917687 0 120 255
188.238437 -226.183799 -358.199491 0 120 255
190.685822 -225.952334 -358.481296 0 120 255
193.133206 -225.720869 -358.763100 0 120 255
195.580591 -225.489404 -359.044904 0 120 255
198.027976 -225.257943 -359.326701 0 120 255
200.475362 -225.026482 -359.608497 0 120 255
202.922748 -224.795021 -359.890294 0 120 255
205.370133 -224.563560 -360.172091 0 120 255
