ply
format ascii 1.0
element vertex 385
property float x
property float y
property float z
property uchar red
property uchar green
property uchar blue
end_header
77.430455 -42.474882 -360.397637 0 120 255
77.187519 -42.528719 -357.935588 0 120 255
76.944582 -42.582556 -355.473539 0 120 255
76.701645 -42.636393 -353.011491 0 120 255
76.458708 -42.690230 -350.549442 0 120 255
76.220779 -42.755538 -348.087183 0 120 255
75.983064 -42.821338 -345.624916 0 120 255
75.745349 -42.887137 -343.162648 0 120 255
75.507634 -42.952937 -340.700380 0 120 255
75.412562 -43.306931 -338.254998 0 120 255
75.330360 -43.686927 -335.811139 0 120 255
75.248158 -44.066924 -333.367281 0 120 255
75.165955 -44.446920 -330.923422 0 120 255
75.205234 -45.051862 -328.526307 0 120 255
75.262397 -45.689920 -326.136074 0 120 255
75.319560 -46.327978 -323.745841 0 120 255
75.376723 -46.966035 -321.355607 0 120 255
75.538689 -47.782688 -319.027387 0 120 255
75.722712 -48.636926 -316.712217 0 120 255
75.906735 -49.491165 -314.397047 0 120 255
76.090758 -50.345404 -312.081877 0 120 255
76.363769 -51.338668 -309.833862 0 120 255
76.661777 -52.370984 -307.604711 0 120 255
76.959785 -53.403300 -305.375559 0 120 255
77.257792 -54.435615 -303.146408 0 120 255
77.630425 -55.574220 -300.982914 0 120 255
78.029906 -56.751063 -298.843041 0 120 255
78.429387 -57.927907 -296.703169 0 120 255
78.828868 -59.104750 -294.563296 0 120 255
79.290301 -60.361436 -292.483582 0 120 255
79.779532 -61.653948 -290.430860 0 120 255
80.268763 -62.946459 -288.378138 0 120 255
80.757994 -64.238971 -286.325416 0 120 255
81.298153 -65.590305 -284.325195 0 120 255
81.866303 -66.973970 -282.353831 0 120 255
82.434453 -68.357635 -280.382467 0 120 255
83.002604 -69.741300 -278.411103 0 120 255
83.612181 -71.167343 -276.483723 0 120 255
84.249322 -72.621580 -274.585606 0 120 255
84.886462 -74.075817 -272.687490 0 120 255
85.523603 -75.530054 -270.789374 0 120 255
86.194008 -77.013934 -268.926668 0 120 255
86.890997 -78.521502 -267.092262 0 120 255
87.587985 -80.029071 -265.257857 0 120 255
88.284974 -81.536639 -263.423451 0 120 255
89.008218 -83.064116 -261.616359 0 120 255
89.756558 -84.610622 -259.835375 0 120 255
90.504898 -86.157129 -258.054390 0 120 255
91.253238 -87.703635 -256.273406 0 120 255
92.021811 -89.262700 -254.512410 0 120 255
92.813484 -90.836104 -252.774234 0 120 255
93.605157 -92.409508 -251.036059 0 120 255
94.396830 -93.982913 -249.297883 0 120 255
95.203558 -95.563420 -247.573310 0 120 255
96.030851 -97.153628 -245.867312 0 120 255
96.858143 -98.743836 -244.161315 0 120 255
97.685435 -100.334044 -242.455318 0 120 255
98.523342 -101.927394 -240.757545 0 120 255
99.378672 -103.525902 -239.073270 0 120 255
100.234002 -105.124410 -237.388994 0 120 255
101.089332 -106.722917 -235.704719 0 120 255
101.951503 -108.321786 -234.024315 0 120 255
102.827272 -109.921373 -232.351607 0 120 255
103.703042 -111.520959 -230.678900 0 120 255
104.578811 -113.120546 -229.006192 0 120 255
105.458263 -114.718645 -227.334007 0 120 255
106.346693 -116.313118 -225.663094 0 120 255
107.235124 -117.907591 -223.992182 0 120 255
108.123554 -119.502064 -222.321269 0 120 255
109.013114 -121.093946 -220.648499 0 120 255
109.906112 -122.677940 -218.970072 0 120 255
110.799110 -124.261935 -217.291646 0 120 255
111.692108 -125.845929 -215.613219 0 120 255
112.584297 -127.426827 -213.931471 0 120 255
113.473327 -128.995622 -212.236742 0 120 255
114.362357 -130.564417 -210.542012 0 120 255
115.251387 -132.133213 -208.847283 0 120 255
116.138318 -133.698895 -207.148625 0 120 255
117.014262 -135.248276 -205.429398 0 120 255
117.890205 -136.797657 -203.710171 0 120 255
118.766148 -138.347038 -201.990944 0 120 255
119.639413 -139.893693 -200.267967 0 120 255
120.492482 -141.419803 -198.516721 0 120 255
121.345551 -142.945913 -196.765475 0 120 255
122.198620 -144.472023 -195.014229 0 120 255
123.049211 -145.996143 -193.260113 0 120 255
123.868829 -147.495388 -191.470116 0 120 255
124.688447 -148.994634 -189.680119 0 120 255
125.508066 -150.493880 -187.890123 0 120 255
126.326284 -151.992181 -186.098737 0 120 255
127.101009 -153.461109 -184.264165 0 120 255
127.875734 -154.930037 -182.429594 0 120 255
128.650458 -156.398965 -180.595023 0 120 255
129.425183 -157.867893 -178.760451 0 120 255
130.143306 -159.303514 -176.877152 0 120 255
130.860767 -160.738744 -174.993283 0 120 255
131.578229 -162.173975 -173.109414 0 120 255
132.295690 -163.609206 -171.225546 0 120 255
132.946392 -165.009330 -169.291800 0 120 255
133.593276 -166.407445 -167.355201 0 120 255
134.240160 -167.805561 -165.418602 0 120 255
134.887044 -169.203676 -163.482004 0 120 255
135.457262 -170.565086 -161.496058 0 120 255
136.019294 -171.922577 -159.504842 0 120 255
136.581327 -173.280068 -157.513627 0 120 255
137.143359 -174.637559 -155.522412 0 120 255
137.619240 -175.956878 -153.484092 0 120 255
138.081255 -177.270053 -151.438190 0 120 255
138.543270 -178.583228 -149.392288 0 120 255
139.005285 -179.896403 -147.346386 0 120 255
139.372300 -181.170066 -145.257382 0 120 255
139.718375 -182.435019 -143.158877 0 120 255
140.064450 -183.699973 -141.060371 0 120 255
140.410524 -184.964927 -138.961866 0 120 255
140.653604 -186.189129 -136.825998 0 120 255
140.867229 -187.401677 -134.679444 0 120 255
141.080854 -188.614225 -132.532891 0 120 255
141.294479 -189.826773 -130.386337 0 120 255
141.398274 -190.997478 -128.209872 0 120 255
141.462687 -192.153178 -126.022680 0 120 255
141.527100 -193.308879 -123.835489 0 120 255
141.591513 -194.464580 -121.648297 0 120 255
141.540699 -195.577509 -119.440226 0 120 255
141.439256 -196.671645 -117.222981 0 120 255
141.337813 -197.765780 -115.005735 0 120 255
141.236371 -198.859915 -112.788490 0 120 255
141.016091 -199.910593 -110.560798 0 120 255
140.732843 -200.938243 -108.327570 0 120 255
140.449595 -201.965893 -106.094342 0 120 255
140.166347 -202.993544 -103.861115 0 120 255
139.762715 -203.977363 -101.628984 0 120 255
139.283014 -204.933488 -99.397546 0 120 255
138.803313 -205.889612 -97.166109 0 120 255
138.323612 -206.845736 -94.934671 0 120 255
137.724321 -207.758076 -92.716603 0 120 255
137.035609 -208.637677 -90.508532 0 120 255
136.346897 -209.517279 -88.300461 0 120 255
135.658185 -210.396880 -86.092390 0 120 255
134.853222 -211.233260 -83.910197 0 120 255
133.945905 -212.031586 -81.750787 0 120 255
133.038588 -212.829912 -79.591377 0 120 255
132.131271 -213.628238 -77.431966 0 120 255
131.113672 -214.384520 -75.310593 0 120 255
129.982032 -215.097328 -73.228551 0 120 255
128.850393 -215.810135 -71.146509 0 120 255
127.718754 -216.522943 -69.064467 0 120 255
126.485362 -217.195570 -67.031624 0 120 255
125.128443 -217.819420 -65.058509 0 120 255
123.771524 -218.443270 -63.085394 0 120 255
122.414605 -219.067120 -61.112279 0 120 255
120.966808 -219.653386 -59.197847 0 120 255
119.389266 -220.185996 -57.367195 0 120 255
117.811723 -220.718606 -55.536543 0 120 255
116.234181 -221.251216 -53.705891 0 120 255
114.578537 -221.749559 -51.941090 0 120 255
112.791228 -222.190137 -50.287301 0 120 255
111.003919 -222.630715 -48.633512 0 120 255
109.216610 -223.071293 -46.979723 0 120 255
107.365281 -223.481581 -45.396079 0 120 255
105.385643 -223.831164 -43.953018 0 120 255
103.406005 -224.180747 -42.509956 0 120 255
101.426367 -224.530330 -41.066895 0 120 255
99.397315 -224.854121 -39.695023 0 120 255
97.249324 -225.115830 -38.494506 0 120 255
95.101333 -225.377539 -37.293989 0 120 255
92.953341 -225.639248 -36.093472 0 120 255
90.770205 -225.879995 -34.961768 0 120 255
88.483960 -226.059242 -34.031955 0 120 255
86.197715 -226.238489 -33.102141 0 120 255
83.911469 -226.417736 -32.172328 0 120 255
81.603108 -226.580921 -31.305638 0 120 255
79.213950 -226.685427 -30.669551 0 120 255
76.824793 -226.789933 -30.033464 0 120 255
74.435636 -226.894439 -29.397376 0 120 255
72.035316 -226.987577 -28.815780 0 120 255
69.582581 -227.027341 -28.490032 0 120 255
67.129847 -227.067106 -28.164283 0 120 255
64.677112 -227.106870 -27.838535 0 120 255
62.221406 -227.139461 -27.556322 0 120 255
59.746857 -227.126554 -27.550223 0 120 255
57.272307 -227.113648 -27.544124 0 120 255
54.797757 -227.100742 -27.538025 0 120 255
52.325204 -227.084078 -27.562987 0 120 255
49.871300 -227.032323 -27.878070 0 120 255
47.417397 -226.980567 -28.193154 0 120 255
44.963493 -226.928811 -28.508237 0 120 255
42.513133 -226.875800 -28.841319 0 120 255
40.121316 -226.802048 -29.471691 0 120 255
37.729498 -226.728296 -30.102063 0 120 255
35.337680 -226.654543 -30.732436 0 120 255
32.947601 -226.580698 -31.368007 0 120 255
30.656743 -226.501552 -32.300374 0 120 255
28.365885 -226.422405 -33.232740 0 120 255
26.075028 -226.343258 -34.165106 0 120 255
23.784170 -226.264112 -35.097472 0 120 255
21.625803 -226.189195 -36.304636 0 120 255
19.470562 -226.114377 -37.518283 0 120 255
17.315321 -226.039559 -38.731930 0 120 255
15.160080 -225.964742 -39.945577 0 120 255
13.158620 -225.896668 -41.397353 0 120 255
11.167619 -225.829053 -42.865325 0 120 255
9.176617 -225.761437 -44.333297 0 120 255
7.185616 -225.693822 -45.801269 0 120 255
5.362006 -225.633404 -47.470515 0 120 255
3.557960 -225.573826 -49.163285 0 120 255
1.753914 -225.514249 -50.856054 0 120 255
-0.050132 -225.454672 -52.548823 0 120 255
-1.680297 -225.402203 -54.407198 0 120 255
-3.280776 -225.350948 -56.293846 0 120 255
-4.881256 -225.299693 -58.180494 0 120 255
-6.481735 -225.248438 -60.067141 0 120 255
-7.908010 -225.204070 -62.086135 0 120 255
-9.294162 -225.161289 -64.135611 0 120 255
-10.680315 -225.118507 -66.185086 0 120 255
-12.066468 -225.075726 -68.234562 0 120 255
-13.283071 -225.039511 -70.386426 0 120 255
-14.449395 -225.005243 -72.568653 0 120 255
-15.615719 -224.970976 -74.750880 0 120 255
-16.782043 -224.936709 -76.933107 0 120 255
-17.787349 -224.908586 -79.191513 0 120 255
-18.732988 -224.882740 -81.478148 0 120 255
-19.678628 -224.856895 -83.764782 0 120 255
-20.624267 -224.831049 -86.051417 0 120 255
-21.420203 -224.810846 -88.391967 0 120 255
-22.148202 -224.793204 -90.756984 0 120 255
-22.876202 -224.775561 -93.122001 0 120 255
-23.604202 -224.757919 -95.487018 0 120 255
-24.195637 -224.745380 -97.887584 0 120 255
-24.712226 -224.735637 -100.307634 0 120 255
-25.228815 -224.725895 -102.727684 0 120 255
-25.745404 -224.716153 -105.147734 0 120 255
-26.139513 -224.710943 -107.588659 0 120 255
-26.453308 -224.708704 -110.043272 0 120 255
-26.767104 -224.706465 -112.497886 0 120 255
-27.080900 -224.704226 -114.952499 0 120 255
-27.286571 -224.705963 -117.416662 0 120 255
-27.407934 -224.710799 -119.888270 0 120 255
-27.529298 -224.715635 -122.359879 0 120 255
-27.650661 -224.720471 -124.831487 0 120 255
-27.678006 -224.728726 -127.304259 0 120 255
-27.618467 -224.740140 -129.778108 0 120 255
-27.558929 -224.751555 -132.251956 0 120 255
-27.499390 -224.762969 -134.725804 0 120 255
-27.359226 -224.777303 -137.194934 0 120 255
-27.130833 -224.794834 -139.658900 0 120 255
-26.902441 -224.812364 -142.122866 0 120 255
-26.674049 -224.829894 -144.586832 0 120 255
-26.377513 -224.849869 -147.042263 0 120 255
-25.992536 -224.873018 -149.486615 0 120 255
-25.607560 -224.896166 -151.930967 0 120 255
-25.222583 -224.919315 -154.375319 0 120 255
-24.780859 -224.944490 -156.808976 0 120 255
-24.251428 -224.972797 -159.226103 0 120 255
-23.721996 -225.001105 -161.643229 0 120 255
-23.192565 -225.029412 -164.060356 0 120 255
-22.616581 -225.059370 -166.465907 0 120 255
-21.954308 -225.092388 -168.850001 0 120 255
-21.292035 -225.125406 -171.234095 0 120 255
-20.629761 -225.158424 -173.618189 0 120 255
-19.929996 -225.192755 -175.990802 0 120 255
-19.145993 -225.230037 -178.337618 0 120 255
-18.361989 -225.267320 -180.684435 0 120 255
-17.577985 -225.304602 -183.031252 0 120 255
-16.764404 -225.342922 -185.367376 0 120 255
-15.869002 -225.384113 -187.673923 0 120 255
-14.973600 -225.425305 -189.980470 0 120 255
-14.078198 -225.466497 -192.287017 0 120 255
-13.160049 -225.508483 -194.584129 0 120 255
-12.162643 -225.553234 -196.848368 0 120 255
-11.165236 -225.597986 -199.112607 0 120 255
-10.167829 -225.642737 -201.376846 0 120 255
-9.153564 -225.688075 -203.633223 0 120 255
-8.062736 -225.736077 -205.853896 0 120 255
-6.971908 -225.784078 -208.074570 0 120 255
-5.881080 -225.832079 -210.295243 0 120 255
-4.778437 -225.880487 -212.509815 0 120 255
-3.601934 -225.931439 -214.686244 0 120 255
-2.425432 -225.982390 -216.862674 0 120 255
-1.248929 -226.033342 -219.039104 0 120 255
-0.064901 -226.084553 -221.211279 0 120 255
1.190523 -226.138222 -223.343093 0 120 255
2.445946 -226.191891 -225.474907 0 120 255
3.701370 -226.245560 -227.606721 0 120 255
4.960649 -226.299360 -229.736170 0 120 255
6.289106 -226.355505 -231.823189 0 120 255
7.617564 -226.411651 -233.910208 0 120 255
8.946022 -226.467796 -235.997227 0 120 255
10.275173 -226.523965 -238.083788 0 120 255
11.671632 -226.582437 -240.125866 0 120 255
13.068090 -226.640908 -242.167945 0 120 255
14.464548 -226.699379 -244.210024 0 120 255
15.861007 -226.757850 -246.252102 0 120 255
17.319151 -226.818400 -248.250491 0 120 255
18.779360 -226.879019 -250.247418 0 120 255
20.239568 -226.939639 -252.244345 0 120 255
21.699776 -227.000258 -254.241272 0 120 255
23.215684 -227.062757 -256.196092 0 120 255
24.736104 -227.125409 -258.147501 0 120 255
26.256525 -227.188060 -260.098910 0 120 255
27.776946 -227.250712 -262.050318 0 120 255
29.348003 -227.315054 -263.960992 0 120 255
30.925807 -227.379622 -265.866239 0 120 255
32.503611 -227.444189 -267.771487 0 120 255
34.081414 -227.508757 -269.676734 0 120 255
35.705547 -227.574862 -271.542401 0 120 255
37.338515 -227.641261 -273.400520 0 120 255
38.971483 -227.707660 -275.258640 0 120 255
40.604450 -227.774059 -277.116759 0 120 255
42.280085 -227.841875 -278.936211 0 120 255
43.966570 -227.910052 -280.745830 0 120 255
45.653055 -227.978228 -282.555449 0 120 255
47.339541 -228.046404 -284.365067 0 120 255
49.065547 -228.115882 -286.136704 0 120 255
50.804399 -228.185784 -287.895996 0 120 255
52.543251 -228.255685 -289.655288 0 120 255
54.282103 -228.325586 -291.414580 0 120 255
56.057748 -228.396700 -293.136355 0 120 255
57.848266 -228.468303 -294.842965 0 120 255
59.638784 -228.539906 -296.549575 0 120 255
61.429302 -228.611509 -298.256185 0 120 255
63.254217 -228.684257 -299.925534 0 120 255
65.096104 -228.757569 -301.576497 0 120 255
66.937991 -228.830882 -303.227459 0 120 255
68.779878 -228.904194 -304.878422 0 120 255
70.654012 -228.978414 -306.492198 0 120 255
72.547322 -229.053174 -308.083860 0 120 255
74.440633 -229.127934 -309.675521 0 120 255
76.333943 -229.202693 -311.267183 0 120 255
78.257612 -229.277743 -312.821473 0 120 255
80.202854 -229.353000 -314.349207 0 120 255
82.148096 -229.428256 -315.876941 0 120 255
84.093338 -229.503512 -317.404675 0 120 255
86.067763 -229.576227 -318.893965 0 120 255
88.066832 -229.646797 -320.350790 0 120 255
90.065902 -229.717366 -321.807616 0 120 255
92.064972 -229.787935 -323.264441 0 120 255
94.092245 -229.851763 -324.681214 0 120 255
96.147741 -229.908845 -326.057904 0 120 255
98.203238 -229.965927 -327.434594 0 120 255
100.258734 -230.023009 -328.811284 0 120 255
102.340808 -230.070554 -330.146704 0 120 255
104.454390 -230.106793 -331.433194 0 120 255
106.567973 -230.143032 -332.719683 0 120 255
108.681555 -230.179271 -334.006173 0 120 255
110.819451 -230.204478 -335.250715 0 120 255
112.991571 -230.214154 -336.436212 0 120 255
115.163691 -230.223830 -337.621709 0 120 255
117.335810 -230.233507 -338.807205 0 120 255
119.529503 -230.231446 -339.950584 0 120 255
121.759425 -230.209673 -341.023234 0 120 255
123.989346 -230.187900 -342.095883 0 120 255
126.219268 -230.166127 -343.168532 0 120 255
128.467609 -230.132599 -344.199537 0 120 255
130.753147 -230.075333 -345.146447 0 120 255
133.038684 -230.018068 -346.093357 0 120 255
135.324222 -229.960802 -347.040266 0 120 255
137.624712 -229.892367 -347.946799 0 120 255
139.961940 -229.796487 -348.754122 0 120 255
142.299169 -229.700606 -349.561444 0 120 255
144.636397 -229.604726 -350.368767 0 120 255
146.984941 -229.498766 -351.137911 0 120 255
149.367901 -229.362148 -351.790935 0 120 255
151.750860 -229.225530 -352.443959 0 120 255
154.133819 -229.088911 -353.096984 0 120 255
156.524473 -228.943695 -353.715100 0 120 255
158.944834 -228.765278 -354.198441 0 120 255
161.365196 -228.586861 -354.681782 0 120 255
163.785557 -228.408445 -355.165122 0 120 255
166.210329 -228.223182 -355.617320 0 120 255
168.657561 -228.003059 -355.910919 0 120 255
171.104793 -227.782935 -356.204518 0 120 255
173.552025 -227.562811 -356.498117 0 120 255
175.999299 -227.341289 -356.790265 0 120 255
178.446870 -227.109818 -357.072078 0 120 255
180.894441 -226.878347 -357.353891 0 120 255
183.342011 -226.646875 -357.635704 0 120 255
185.789582 -226.415403 -357.917518 0 120 255
188.237150 -226.183921 -358.199343 0 120 255
190.684719 -225.952438 -358.481169 0 120 255
193.132287 -225.720956 -358.762994 0 120 255
195.579855 -225.489474 -359.044819 0 120 255
198.027425 -225.257995 -359.326637 0 120 255
200.474994 -225.026517 -359.608455 0 120 255
202.922564 -224.795039 -359.890273 0 120 255
205.370133 -224.563560 -360.172091 0 120 255
