ply
format ascii 1.0
element vertex 385
property float x
property float y
property float z
property uchar red
property uchar green
property uchar blue
end_header
77.430455 -42.474882 -360.397637 0 120 255
77.187046 -42.528824 -357.930800 0 120 255
76.943637 -42.582765 -355.463964 0 120 255
76.700228 -42.636707 -352.997127 0 120 255
76.456819 -42.690649 -350.530291 0 120 255
76.270246 -42.803528 -348.060543 0 120 255
76.085627 -42.918433 -345.590694 0 120 255
75.901008 -43.033338 -343.120845 0 120 255
75.716389 -43.148243 -340.650997 0 120 255
75.661735 -43.344553 -338.180338 0 120 255
75.616816 -43.546961 -335.709619 0 120 255
75.571898 -43.749369 -333.238900 0 120 255
75.526979 -43.951776 -330.768181 0 120 255
75.545990 -44.164155 -328.298078 0 120 255
75.573609 -44.377877 -325.828058 0 120 255
75.601227 -44.591598 -323.358038 0 120 255
75.628846 -44.805319 -320.888017 0 120 255
75.708849 -45.016416 -318.419025 0 120 255
75.799382 -45.226985 -315.950239 0 120 255
75.889916 -45.437554 -313.481453 0 120 255
75.980449 -45.648123 -311.012667 0 120 255
76.111895 -45.845652 -308.544746 0 120 255
76.254585 -46.039597 -306.077062 0 120 255
76.397275 -46.233543 -303.609378 0 120 255
76.539966 -46.427489 -301.141694 0 120 255
76.712386 -46.600056 -298.674418 0 120 255
76.895424 -46.764989 -296.207287 0 120 255
77.078462 -46.929922 -293.740156 0 120 255
77.261500 -47.094856 -291.273026 0 120 255
77.463566 -47.232003 -288.805782 0 120 255
77.674174 -47.356676 -286.338488 0 120 255
77.884782 -47.481349 -283.871194 0 120 255
78.095390 -47.606022 -281.403900 0 120 255
78.314959 -47.698282 -278.936088 0 120 255
78.539473 -47.772656 -276.467992 0 120 255
78.763987 -47.847030 -273.999895 0 120 255
78.988502 -47.921404 -271.531798 0 120 255
79.212677 -47.960347 -269.063027 0 120 255
79.436628 -47.975651 -266.593807 0 120 255
79.660578 -47.990954 -264.124586 0 120 255
79.884528 -48.006257 -261.655365 0 120 255
80.099717 -47.984551 -259.185647 0 120 255
80.307923 -47.933345 -256.715532 0 120 255
80.516129 -47.882140 -254.245417 0 120 255
80.724335 -47.830934 -251.775302 0 120 255
80.916320 -47.742399 -249.305245 0 120 255
81.093000 -47.618644 -246.835243 0 120 255
81.269681 -47.494889 -244.365242 0 120 255
81.446361 -47.371134 -241.895240 0 120 255
81.600393 -47.210815 -239.426241 0 120 255
81.729306 -47.009945 -236.958352 0 120 255
81.858219 -46.809075 -234.490464 0 120 255
81.987133 -46.608206 -232.022576 0 120 255
82.088045 -46.372448 -229.556998 0 120 255
82.152651 -46.091455 -227.094417 0 120 255
82.217256 -45.810462 -224.631835 0 120 255
82.281862 -45.529469 -222.169253 0 120 255
82.314210 -45.216004 -219.710606 0 120 255
82.297859 -44.853517 -217.257898 0 120 255
82.281509 -44.491030 -214.805191 0 120 255
82.265159 -44.128542 -212.352483 0 120 255
82.213398 -43.736572 -209.905579 0 120 255
82.099599 -43.292951 -207.468841 0 120 255
81.985801 -42.849331 -205.032104 0 120 255
81.872002 -42.405710 -202.595366 0 120 255
81.720710 -41.936010 -200.166461 0 120 255
81.493388 -41.413427 -197.753440 0 120 255
81.266067 -40.890845 -195.340419 0 120 255
81.038745 -40.368262 -192.927398 0 120 255
80.772874 -39.823265 -190.524308 0 120 255
80.416713 -39.225769 -188.144478 0 120 255
80.060552 -38.628274 -185.764649 0 120 255
79.704391 -38.030778 -183.384819 0 120 255
79.309579 -37.414657 -181.016994 0 120 255
78.810395 -36.748239 -178.681583 0 120 255
78.311212 -36.081821 -176.346173 0 120 255
77.812028 -35.415403 -174.010762 0 120 255
77.274952 -34.734144 -171.689314 0 120 255
76.620108 -34.006758 -169.411260 0 120 255
75.965264 -33.279373 -167.133207 0 120 255
75.310420 -32.551987 -164.855153 0 120 255
74.619194 -31.813430 -162.592826 0 120 255
73.798027 -31.034969 -160.386670 0 120 255
72.976861 -30.256509 -158.180514 0 120 255
72.155694 -29.478049 -155.974358 0 120 255
71.300289 -28.691880 -153.785432 0 120 255
70.304580 -27.874126 -151.667112 0 120 255
69.308871 -27.056371 -149.548792 0 120 255
68.313163 -26.238617 -147.430471 0 120 255
67.285865 -25.416338 -145.330571 0 120 255
66.110265 -24.572818 -143.317146 0 120 255
64.934666 -23.729299 -141.303720 0 120 255
63.759067 -22.885779 -139.290295 0 120 255
62.554913 -22.040584 -137.296126 0 120 255
61.197366 -21.186384 -135.405400 0 120 255
59.839818 -20.332184 -133.514674 0 120 255
58.482270 -19.477984 -131.623947 0 120 255
57.099471 -18.624580 -129.752931 0 120 255
55.561546 -17.776068 -128.003002 0 120 255
54.023621 -16.927556 -126.253072 0 120 255
52.485695 -16.079044 -124.503143 0 120 255
50.925986 -15.233396 -122.772973 0 120 255
49.213147 -14.407881 -121.181702 0 120 255
47.500308 -13.582365 -119.590430 0 120 255
45.787469 -12.756849 -117.999158 0 120 255
44.056381 -11.935837 -116.427269 0 120 255
42.178111 -11.151150 -115.011710 0 120 255
40.299841 -10.366463 -113.596151 0 120 255
38.421571 -9.581776 -112.180592 0 120 255
36.528567 -8.802783 -110.783590 0 120 255
34.498348 -8.076815 -109.559409 0 120 255
32.468129 -7.350847 -108.335227 0 120 255
30.437910 -6.624879 -107.111045 0 120 255
28.396363 -5.905320 -105.904117 0 120 255
26.231520 -5.255519 -104.884975 0 120 255
24.066676 -4.605717 -103.865833 0 120 255
21.901833 -3.955916 -102.846691 0 120 255
19.728856 -3.312735 -101.842999 0 120 255
17.450192 -2.755590 -101.040055 0 120 255
15.171528 -2.198444 -100.237111 0 120 255
12.892864 -1.641298 -99.434167 0 120 255
10.608934 -1.090451 -98.644348 0 120 255
8.240244 -0.641001 -98.065780 0 120 255
5.871554 -0.191552 -97.487211 0 120 255
3.502864 0.257898 -96.908643 0 120 255
1.131310 0.701932 -96.340350 0 120 255
-1.301267 1.030541 -95.991031 0 120 255
-3.733844 1.359151 -95.641711 0 120 255
-6.166421 1.687760 -95.292392 0 120 255
-8.600084 2.012413 -94.950000 0 120 255
-11.068805 2.209303 -94.831293 0 120 255
-13.537526 2.406194 -94.712587 0 120 255
-16.006246 2.603085 -94.593880 0 120 255
-18.475072 2.798048 -94.478317 0 120 255
-20.951394 2.854882 -94.588042 0 120 255
-23.427715 2.911715 -94.697768 0 120 255
-25.904037 2.968548 -94.807493 0 120 255
-28.380359 3.025381 -94.917219 0 120 255
-30.835848 2.937155 -95.248764 0 120 255
-33.291245 2.848293 -95.581280 0 120 255
-35.746642 2.759431 -95.913796 0 120 255
-38.202039 2.670569 -96.246312 0 120 255
-40.609984 2.436779 -96.787511 0 120 255
-43.016732 2.199332 -97.333978 0 120 255
-45.423479 1.961884 -97.880445 0 120 255
-47.830226 1.724436 -98.426911 0 120 255
-50.165643 1.345229 -99.166086 0 120 255
-52.497521 0.958990 -99.914819 0 120 255
-54.829400 0.572751 -100.663553 0 120 255
-57.161278 0.186513 -101.412286 0 120 255
-59.401341 -0.335597 -102.335584 0 120 255
-61.634232 -0.868318 -103.272518 0 120 255
-63.867123 -1.401040 -104.209451 0 120 255
-66.100015 -1.933762 -105.146384 0 120 255
-68.224457 -2.594154 -106.238292 0 120 255
-70.336808 -3.268780 -107.347476 0 120 255
-72.449160 -3.943405 -108.456660 0 120 255
-74.561512 -4.618030 -109.565845 0 120 255
-76.552871 -5.410308 -110.809711 0 120 255
-78.526014 -6.220300 -112.073855 0 120 255
-80.499157 -7.030292 -113.337999 0 120 255
-82.472300 -7.840284 -114.602142 0 120 255
-84.316036 -8.756605 -115.980677 0 120 255
-86.134366 -9.693802 -117.381669 0 120 255
-87.952696 -10.630998 -118.782661 0 120 255
-89.771026 -11.568194 -120.183653 0 120 255
-91.455506 -12.599622 -121.679374 0 120 255
-93.106527 -13.654606 -123.198774 0 120 255
-94.757548 -14.709590 -124.718175 0 120 255
-96.408569 -15.764573 -126.237575 0 120 255
-97.924965 -16.901396 -127.833204 0 120 255
-99.399226 -18.063832 -129.452690 0 120 255
-100.873487 -19.226268 -131.072176 0 120 255
-102.347748 -20.388705 -132.691663 0 120 255
-103.689857 -21.620736 -134.370436 0 120 255
-104.980792 -22.879718 -136.072168 0 120 255
-106.271728 -24.138699 -137.773900 0 120 255
-107.562663 -25.397681 -139.475632 0 120 255
-108.726673 -26.714519 -141.221565 0 120 255
-109.830376 -28.058848 -142.988501 0 120 255
-110.934078 -29.403177 -144.755436 0 120 255
-112.037781 -30.747506 -146.522371 0 120 255
-113.022018 -32.138756 -148.320432 0 120 255
-113.936968 -33.557219 -150.136545 0 120 255
-114.851917 -34.975683 -151.952659 0 120 255
-115.766867 -36.394147 -153.768772 0 120 255
-116.571516 -37.849596 -155.605019 0 120 255
-117.298279 -39.331163 -157.455482 0 120 255
-118.025043 -40.812729 -159.305946 0 120 255
-118.751806 -42.294296 -161.156409 0 120 255
-119.378639 -43.804056 -163.018067 0 120 255
-119.919561 -45.338054 -164.889348 0 120 255
-120.460483 -46.872052 -166.760629 0 120 255
-121.001406 -48.406050 -168.631910 0 120 255
-121.453524 -49.960666 -170.507398 0 120 255
-121.812427 -51.536924 -172.387302 0 120 255
-122.171330 -53.113182 -174.267205 0 120 255
-122.530232 -54.689440 -176.147109 0 120 255
-122.811822 -56.279968 -178.026045 0 120 255
-122.993726 -57.888892 -179.903733 0 120 255
-123.175629 -59.497817 -181.781420 0 120 255
-123.357533 -61.106742 -183.659108 0 120 255
-123.473636 -62.724792 -185.532282 0 120 255
-123.484477 -64.357440 -187.398236 0 120 255
-123.495318 -65.990088 -189.264190 0 120 255
-123.506159 -67.622735 -191.130144 0 120 255
-123.462474 -69.260505 -192.989473 0 120 255
-123.308889 -70.908600 -194.835451 0 120 255
-123.155303 -72.556695 -196.681429 0 120 255
-123.001718 -74.204789 -198.527407 0 120 255
-122.804430 -75.855068 -200.365878 0 120 255
-122.493536 -77.511023 -202.184833 0 120 255
-122.182643 -79.166977 -204.003788 0 120 255
-121.871749 -80.822932 -205.822744 0 120 255
-121.527371 -82.479100 -207.634335 0 120 255
-121.066585 -84.136010 -209.420327 0 120 255
-120.605799 -85.792919 -211.206319 0 120 255
-120.145012 -87.449829 -212.992310 0 120 255
-119.660250 -89.105845 -214.771921 0 120 255
-119.057136 -90.757452 -216.520030 0 120 255
-118.454022 -92.409060 -218.268139 0 120 255
-117.850908 -94.060667 -220.016248 0 120 255
-117.232555 -95.711039 -221.759620 0 120 255
-116.494715 -97.351716 -223.465846 0 120 255
-115.756875 -98.992394 -225.172073 0 120 255
-115.019035 -100.633072 -226.878299 0 120 255
-114.273889 -102.272832 -228.581937 0 120 255
-113.408845 -103.897536 -230.243104 0 120 255
-112.543800 -105.522240 -231.904271 0 120 255
-111.678756 -107.146944 -233.565437 0 120 255
-110.813528 -108.771616 -235.226532 0 120 255
-109.828646 -110.375835 -236.840201 0 120 255
-108.843764 -111.980053 -238.453871 0 120 255
-107.858882 -113.584272 -240.067540 0 120 255
-106.874000 -115.188491 -241.681210 0 120 255
-105.782586 -116.769553 -243.248273 0 120 255
-104.685025 -118.349278 -244.812646 0 120 255
-103.587463 -119.929004 -246.377020 0 120 255
-102.489902 -121.508730 -247.941393 0 120 255
-101.298272 -123.063505 -249.460835 0 120 255
-100.094924 -124.615171 -250.974679 0 120 255
-98.891577 -126.166838 -252.488523 0 120 255
-97.688229 -127.718505 -254.002368 0 120 255
-96.402269 -129.244169 -255.473498 0 120 255
-95.099740 -130.764618 -256.936061 0 120 255
-93.797211 -132.285068 -258.398625 0 120 255
-92.494682 -133.805517 -259.861188 0 120 255
-91.120009 -135.299552 -261.283655 0 120 255
-89.724584 -136.785990 -262.694587 0 120 255
-88.329159 -138.272428 -264.105520 0 120 255
-86.933734 -139.758866 -265.516453 0 120 255
-85.475698 -141.219011 -266.890214 0 120 255
-83.993350 -142.668947 -268.249541 0 120 255
-82.511001 -144.118882 -269.608867 0 120 255
-81.028653 -145.568818 -270.968194 0 120 255
-79.492331 -146.993057 -272.293449 0 120 255
-77.928697 -148.404293 -273.601464 0 120 255
-76.365063 -149.815528 -274.909479 0 120 255
-74.801429 -151.226764 -276.217493 0 120 255
-73.191629 -152.613291 -277.494656 0 120 255
-71.552033 -153.983869 -278.751906 0 120 255
-69.912437 -155.354448 -280.009156 0 120 255
-68.272841 -156.725027 -281.266406 0 120 255
-66.594101 -158.072210 -282.496064 0 120 255
-64.883536 -159.400372 -283.703289 0 120 255
-63.172970 -160.728534 -284.910514 0 120 255
-61.462405 -162.056696 -286.117739 0 120 255
-59.719003 -163.363062 -287.300620 0 120 255
-57.942162 -164.647236 -288.458711 0 120 255
-56.165321 -165.931409 -289.616803 0 120 255
-54.388480 -167.215582 -290.774894 0 120 255
-52.584450 -168.479798 -291.911842 0 120 255
-50.745740 -169.718559 -293.021822 0 120 255
-48.907031 -170.957321 -294.131803 0 120 255
-47.068321 -172.196082 -295.241784 0 120 255
-45.207461 -173.416926 -296.333732 0 120 255
-43.311003 -174.608978 -297.396700 0 120 255
-41.414546 -175.801029 -298.459668 0 120 255
-39.518088 -176.993081 -299.522636 0 120 255
-37.603969 -178.169430 -300.570578 0 120 255
-35.653633 -179.313577 -301.587708 0 120 255
-33.703296 -180.457725 -302.604838 0 120 255
-31.752959 -181.601872 -303.621968 0 120 255
-29.788945 -182.732681 -304.626949 0 120 255
-27.788346 -183.827812 -305.599436 0 120 255
-25.787747 -184.922944 -306.571923 0 120 255
-23.787148 -186.018075 -307.544410 0 120 255
-21.776399 -187.102366 -308.507491 0 120 255
-19.728941 -188.147446 -309.436554 0 120 255
-17.681482 -189.192526 -310.365618 0 120 255
-15.634023 -190.237607 -311.294682 0 120 255
-13.579524 -191.274458 -312.216941 0 120 255
-11.488396 -192.268493 -313.103799 0 120 255
-9.397268 -193.262528 -313.990656 0 120 255
-7.306139 -194.256563 -314.877513 0 120 255
-5.210703 -195.245088 -315.760027 0 120 255
-3.078919 -196.187129 -316.605898 0 120 255
-0.947135 -197.129170 -317.451768 0 120 255
1.184649 -198.071211 -318.297638 0 120 255
3.318356 -199.010560 -319.141483 0 120 255
5.487958 -199.899686 -319.947536 0 120 255
7.657560 -200.788812 -320.753588 0 120 255
9.827163 -201.677938 -321.559641 0 120 255
11.996765 -202.567063 -322.365693 0 120 255
14.201354 -203.402586 -323.133224 0 120 255
16.406087 -204.237889 -323.900597 0 120 255
18.610821 -205.073191 -324.667970 0 120 255
20.815554 -205.908493 -325.435343 0 120 255
23.050937 -206.692312 -326.167346 0 120 255
25.288238 -207.472909 -326.897135 0 120 255
27.525538 -208.253506 -327.626925 0 120 255
29.762839 -209.034103 -328.356714 0 120 255
32.026847 -209.765416 -329.054105 0 120 255
34.294275 -210.490417 -329.747346 0 120 255
36.561702 -211.215419 -330.440588 0 120 255
38.829130 -211.940420 -331.133829 0 120 255
41.119677 -212.618426 -331.797462 0 120 255
43.414894 -213.286942 -332.455116 0 120 255
45.710110 -213.955457 -333.112769 0 120 255
48.005327 -214.623973 -333.770423 0 120 255
50.320392 -215.247879 -334.401108 0 120 255
52.641132 -215.859031 -335.024084 0 120 255
54.961872 -216.470184 -335.647060 0 120 255
57.282611 -217.081336 -336.270035 0 120 255
59.620234 -217.650339 -336.868515 0 120 255
61.964308 -218.203236 -337.457636 0 120 255
64.308381 -218.756133 -338.046756 0 120 255
66.652455 -219.309031 -338.635877 0 120 255
69.010719 -219.822323 -339.202839 0 120 255
71.375986 -220.316070 -339.758866 0 120 255
73.741253 -220.809817 -340.314893 0 120 255
76.106520 -221.303564 -340.870920 0 120 255
78.483547 -221.760331 -341.406974 0 120 255
80.867913 -222.194025 -341.930565 0 120 255
83.252279 -222.627719 -342.454157 0 120 255
85.636645 -223.061412 -342.977749 0 120 255
88.030582 -223.460838 -343.483445 0 120 255
90.431973 -223.833576 -343.975202 0 120 255
92.833365 -224.206314 -344.466960 0 120 255
95.234756 -224.579052 -344.958717 0 120 255
97.643764 -224.920317 -345.434532 0 120 255
100.060127 -225.231193 -345.894954 0 120 255
102.476489 -225.542069 -346.355376 0 120 255
104.892852 -225.852945 -346.815797 0 120 255
107.315097 -226.135229 -347.262144 0 120 255
109.744374 -226.383343 -347.691669 0 120 255
112.173651 -226.631458 -348.121194 0 120 255
114.602928 -226.879572 -348.550720 0 120 255
117.036575 -227.102059 -348.967943 0 120 255
119.476707 -227.286511 -349.366908 0 120 255
121.916839 -227.470964 -349.765873 0 120 255
124.356971 -227.655416 -350.164837 0 120 255
126.800173 -227.817289 -350.553200 0 120 255
129.249083 -227.937185 -350.921852 0 120 255
131.697993 -228.057081 -351.290504 0 120 255
134.146903 -228.176977 -351.659156 0 120 255
136.597794 -228.277432 -352.018860 0 120 255
139.053372 -228.331912 -352.357401 0 120 255
141.508949 -228.386391 -352.695942 0 120 255
143.964527 -228.440871 -353.034484 0 120 255
146.421213 -228.479123 -353.365673 0 120 255
148.881319 -228.467325 -353.674186 0 120 255
151.341425 -228.455527 -353.982699 0 120 255
153.801530 -228.443729 -354.291211 0 120 255
156.262087 -228.419001 -354.593944 0 120 255
158.724534 -228.340113 -354.872465 0 120 255
161.186980 -228.261225 -355.150986 0 120 255
163.649426 -228.182337 -355.429506 0 120 255
166.111229 -228.088603 -355.706675 0 120 255
168.569106 -227.904312 -355.975593 0 120 255
171.026983 -227.720020 -356.244512 0 120 255
173.484860 -227.535728 -356.513431 0 120 255
175.942184 -227.346691 -356.783689 0 120 255
178.394514 -227.114769 -357.066050 0 120 255
180.846845 -226.882848 -357.348411 0 120 255
183.299175 -226.650926 -357.630772 0 120 255
185.751505 -226.419004 -357.913133 0 120 255
188.203833 -226.187072 -358.195507 0 120 255
190.656161 -225.955139 -358.477880 0 120 255
193.108489 -225.723207 -358.760254 0 120 255
195.560817 -225.491274 -359.042627 0 120 255
198.013146 -225.259346 -359.324993 0 120 255
200.465475 -225.027417 -359.607359 0 120 255
202.917804 -224.795489 -359.889725 0 120 255
205.370133 -224.563560 -360.172091 0 120 255
