ply
format ascii 1.0
element vertex 385
property float x
property float y
property float z
property uchar red
property uchar green
property uchar blue
end_header
77.430455 -42.474882 -360.397637 0 120 255
77.187482 -42.528727 -357.935218 0 120 255
76.944509 -42.582572 -355.472800 0 120 255
76.701536 -42.636417 -353.010382 0 120 255
76.458563 -42.690262 -350.547964 0 120 255
76.229749 -42.761654 -348.084640 0 120 255
76.001533 -42.833785 -345.621278 0 120 255
75.773317 -42.905917 -343.157916 0 120 255
75.545100 -42.978049 -340.694554 0 120 255
75.384826 -43.162476 -338.231993 0 120 255
75.230585 -43.356874 -335.769503 0 120 255
75.076344 -43.551272 -333.307013 0 120 255
74.922102 -43.745670 -330.844523 0 120 255
74.816724 -44.016842 -328.386962 0 120 255
74.718365 -44.299044 -325.930109 0 120 255
74.620006 -44.581247 -323.473256 0 120 255
74.521648 -44.863449 -321.016403 0 120 255
74.465736 -45.205911 -318.566115 0 120 255
74.418502 -45.560692 -316.117169 0 120 255
74.371268 -45.915473 -313.668222 0 120 255
74.324034 -46.270254 -311.219276 0 120 255
74.312183 -46.670823 -308.777163 0 120 255
74.309957 -47.083849 -306.336908 0 120 255
74.307732 -47.496875 -303.896653 0 120 255
74.305507 -47.909901 -301.456399 0 120 255
74.331222 -48.356317 -299.022304 0 120 255
74.366650 -48.814341 -296.590350 0 120 255
74.402078 -49.272365 -294.158397 0 120 255
74.437506 -49.730388 -291.726444 0 120 255
74.493294 -50.211427 -289.299406 0 120 255
74.557890 -50.702423 -286.874496 0 120 255
74.622486 -51.193419 -284.449586 0 120 255
74.687083 -51.684414 -282.024676 0 120 255
74.764538 -52.189966 -279.603179 0 120 255
74.848791 -52.703215 -277.183486 0 120 255
74.933045 -53.216464 -274.763792 0 120 255
75.017299 -53.729713 -272.344099 0 120 255
75.107191 -54.250843 -269.926307 0 120 255
75.200683 -54.777003 -267.509728 0 120 255
75.294175 -55.303162 -265.093149 0 120 255
75.387666 -55.829322 -262.676570 0 120 255
75.480045 -56.358306 -260.260567 0 120 255
75.571573 -56.889448 -257.845003 0 120 255
75.663101 -57.420591 -255.429439 0 120 255
75.754629 -57.951733 -253.013875 0 120 255
75.838918 -58.482070 -250.597881 0 120 255
75.916617 -59.011675 -248.181495 0 120 255
75.994316 -59.541280 -245.765110 0 120 255
76.072015 -60.070885 -243.348724 0 120 255
76.137130 -60.597293 -240.931306 0 120 255
76.188633 -61.120243 -238.512771 0 120 255
76.240137 -61.643193 -236.094237 0 120 255
76.291640 -62.166143 -233.675703 0 120 255
76.326105 -62.684542 -231.255969 0 120 255
76.338666 -63.197090 -228.834693 0 120 255
76.351227 -63.709638 -226.413418 0 120 255
76.363788 -64.222186 -223.992142 0 120 255
76.355857 -64.729670 -221.569922 0 120 255
76.316532 -65.229396 -219.146254 0 120 255
76.277208 -65.729122 -216.722586 0 120 255
76.237884 -66.228848 -214.298918 0 120 255
76.175689 -66.723645 -211.874926 0 120 255
76.071519 -67.209395 -209.450336 0 120 255
75.967348 -67.695145 -207.025747 0 120 255
75.863177 -68.180894 -204.601157 0 120 255
75.734880 -68.662312 -202.177135 0 120 255
75.553061 -69.134118 -199.754373 0 120 255
75.371241 -69.605925 -197.331610 0 120 255
75.189421 -70.077731 -194.908848 0 120 255
74.983368 -70.546095 -192.487695 0 120 255
74.711486 -71.005106 -190.070914 0 120 255
74.439603 -71.464116 -187.654134 0 120 255
74.167720 -71.923127 -185.237354 0 120 255
73.872630 -72.379714 -182.823225 0 120 255
73.498863 -72.828083 -180.418084 0 120 255
73.125097 -73.276453 -178.012943 0 120 255
72.751330 -73.724822 -175.607802 0 120 255
72.356475 -74.171776 -173.206186 0 120 255
71.869834 -74.612569 -170.819909 0 120 255
71.383192 -75.053363 -168.433631 0 120 255
70.896550 -75.494156 -166.047354 0 120 255
70.391954 -75.934403 -163.665123 0 120 255
69.782541 -76.371461 -161.306514 0 120 255
69.173128 -76.808518 -158.947906 0 120 255
68.563715 -77.245575 -156.589297 0 120 255
67.940378 -77.682715 -154.234722 0 120 255
67.199620 -78.120548 -151.914157 0 120 255
66.458863 -78.558381 -149.593593 0 120 255
65.718105 -78.996214 -147.273028 0 120 255
64.968196 -79.434430 -144.955767 0 120 255
64.089098 -79.878058 -142.685124 0 120 255
63.210000 -80.321686 -140.414481 0 120 255
62.330902 -80.765313 -138.143838 0 120 255
61.447979 -81.209240 -135.874879 0 120 255
60.425374 -81.664066 -133.667425 0 120 255
59.402770 -82.118893 -131.459972 0 120 255
58.380165 -82.573719 -129.252518 0 120 255
57.357560 -83.028546 -127.045065 0 120 255
56.190184 -83.499964 -124.914316 0 120 255
55.020977 -83.971592 -122.784536 0 120 255
53.851770 -84.443220 -120.654757 0 120 255
52.682563 -84.914848 -118.524977 0 120 255
51.373484 -85.407792 -116.483593 0 120 255
50.056844 -85.901889 -114.446986 0 120 255
48.740205 -86.395986 -112.410379 0 120 255
47.423565 -86.890083 -110.373773 0 120 255
45.974195 -87.409674 -108.436762 0 120 255
44.511740 -87.931779 -106.509570 0 120 255
43.049284 -88.453884 -104.582378 0 120 255
41.586828 -88.975989 -102.655186 0 120 255
40.000876 -89.527118 -100.837958 0 120 255
38.396815 -90.082503 -99.036855 0 120 255
36.792753 -90.637888 -97.235752 0 120 255
35.188692 -91.193274 -95.434649 0 120 255
33.472228 -91.780441 -93.752718 0 120 255
31.733433 -92.373922 -92.094462 0 120 255
29.994638 -92.967402 -90.436207 0 120 255
28.255843 -93.560883 -88.777951 0 120 255
26.417333 -94.188080 -87.246611 0 120 255
24.553374 -94.823882 -85.747661 0 120 255
22.689414 -95.459684 -84.248711 0 120 255
20.825455 -96.095486 -82.749762 0 120 255
18.875730 -96.766061 -81.383737 0 120 255
16.898819 -97.447658 -80.059846 0 120 255
14.921909 -98.129256 -78.735954 0 120 255
12.944998 -98.810853 -77.412063 0 120 255
10.897165 -99.527415 -76.225164 0 120 255
8.822044 -100.257428 -75.090971 0 120 255
6.746924 -100.987441 -73.956777 0 120 255
4.671803 -101.717454 -72.822584 0 120 255
2.541090 -102.481763 -71.827347 0 120 255
0.384830 -103.261833 -70.895967 0 120 255
-1.771431 -104.041903 -69.964586 0 120 255
-3.927691 -104.821973 -69.033205 0 120 255
-6.124148 -105.634891 -68.240567 0 120 255
-8.342415 -106.465632 -67.523214 0 120 255
-10.560683 -107.296373 -66.805860 0 120 255
-12.778951 -108.127114 -66.088507 0 120 255
-15.022383 -108.988541 -65.507490 0 120 255
-17.281808 -109.869472 -65.013124 0 120 255
-19.541233 -110.750403 -64.518758 0 120 255
-21.800658 -111.631333 -64.024393 0 120 255
-24.070995 -112.540200 -63.661850 0 120 255
-26.349412 -113.469750 -63.396911 0 120 255
-28.627828 -114.399300 -63.131973 0 120 255
-30.906245 -115.328850 -62.867034 0 120 255
-33.182487 -116.283123 -62.727435 0 120 255
-35.456860 -117.258650 -62.695599 0 120 255
-37.731232 -118.234178 -62.663764 0 120 255
-40.005605 -119.209705 -62.631928 0 120 255
-42.266224 -120.206427 -62.717213 0 120 255
-44.513129 -121.224280 -62.919274 0 120 255
-46.760035 -122.242132 -63.121335 0 120 255
-49.006941 -123.259985 -63.323396 0 120 255
-51.230303 -124.295336 -63.632904 0 120 255
-53.426429 -125.350931 -64.066714 0 120 255
-55.622555 -126.406525 -64.500523 0 120 255
-57.818680 -127.462120 -64.934332 0 120 255
-59.983465 -128.531517 -65.464793 0 120 255
-62.106083 -129.619485 -66.125290 0 120 255
-64.228701 -130.707452 -66.785788 0 120 255
-66.351320 -131.795420 -67.446286 0 120 255
-68.436929 -132.893623 -68.191886 0 120 255
-70.464373 -134.007916 -69.071240 0 120 255
-72.491817 -135.122208 -69.950593 0 120 255
-74.519260 -136.236500 -70.829947 0 120 255
-76.506202 -137.357734 -71.782479 0 120 255
-78.418278 -138.491800 -72.870273 0 120 255
-80.330355 -139.625865 -73.958067 0 120 255
-82.242432 -140.759931 -75.045861 0 120 255
-84.112650 -141.898029 -76.194920 0 120 255
-85.890998 -143.044977 -77.478442 0 120 255
-87.669345 -144.191924 -78.761964 0 120 255
-89.447693 -145.338872 -80.045487 0 120 255
-91.184860 -146.487414 -81.378724 0 120 255
-92.813251 -147.640167 -82.843288 0 120 255
-94.441641 -148.792920 -84.307851 0 120 255
-96.070031 -149.945672 -85.772414 0 120 255
-97.659774 -151.098126 -87.275835 0 120 255
-99.124315 -152.249609 -88.905143 0 120 255
-100.588857 -153.401092 -90.534450 0 120 255
-102.053398 -154.552575 -92.163758 0 120 255
-103.483455 -155.702443 -93.822037 0 120 255
-104.772736 -156.845716 -95.598584 0 120 255
-106.062016 -157.988989 -97.375132 0 120 255
-107.351297 -159.132261 -99.151679 0 120 255
-108.611617 -160.273196 -100.948502 0 120 255
-109.716751 -161.401604 -102.853972 0 120 255
-110.821886 -162.530011 -104.759441 0 120 255
-111.927021 -163.658418 -106.664910 0 120 255
-113.009790 -164.784344 -108.583314 0 120 255
-113.924421 -165.891613 -110.598964 0 120 255
-114.839053 -166.998881 -112.614614 0 120 255
-115.753684 -168.106150 -114.630264 0 120 255
-116.653314 -169.211344 -116.652963 0 120 255
-117.373510 -170.291727 -118.759982 0 120 255
-118.093706 -171.372111 -120.867000 0 120 255
-118.813902 -172.452494 -122.974019 0 120 255
-119.526938 -173.531705 -125.083698 0 120 255
-120.051074 -174.580004 -127.263558 0 120 255
-120.575211 -175.628303 -129.443418 0 120 255
-121.099348 -176.676601 -131.623278 0 120 255
-121.623484 -177.724900 -133.803137 0 120 255
-121.952921 -178.736709 -136.037631 0 120 255
-122.281482 -179.748354 -138.272371 0 120 255
-122.610043 -180.759999 -140.507110 0 120 255
-122.938603 -181.771643 -142.741850 0 120 255
-123.082827 -182.744584 -145.012589 0 120 255
-123.218195 -183.715666 -147.285058 0 120 255
-123.353564 -184.686748 -149.557527 0 120 255
-123.488932 -185.657830 -151.829995 0 120 255
-123.451719 -186.588940 -154.122165 0 120 255
-123.397949 -187.516214 -156.416224 0 120 255
-123.344179 -188.443489 -158.710284 0 120 255
-123.290409 -189.370763 -161.004343 0 120 255
-123.076773 -190.257670 -163.304157 0 120 255
-122.839341 -191.138568 -165.604827 0 120 255
-122.601909 -192.019466 -167.905497 0 120 255
-122.364476 -192.900364 -170.206167 0 120 255
-121.980458 -193.741252 -172.500960 0 120 255
-121.566009 -194.573834 -174.794533 0 120 255
-121.151560 -195.406417 -177.088106 0 120 255
-120.737112 -196.238999 -179.381679 0 120 255
-120.189583 -197.032603 -181.659952 0 120 255
-119.605703 -197.815561 -183.934045 0 120 255
-119.021824 -198.598519 -186.208139 0 120 255
-118.437945 -199.381477 -188.482232 0 120 255
-117.734411 -200.127039 -190.733673 0 120 255
-116.989390 -200.859636 -192.977260 0 120 255
-116.244369 -201.592233 -195.220848 0 120 255
-115.499348 -202.324830 -197.464435 0 120 255
-114.647778 -203.022061 -199.679921 0 120 255
-113.750409 -203.704089 -201.883329 0 120 255
-112.853041 -204.386118 -204.086736 0 120 255
-111.955672 -205.068147 -206.290144 0 120 255
-110.964338 -205.717187 -208.461712 0 120 255
-109.923723 -206.348925 -210.616582 0 120 255
-108.883108 -206.980664 -212.771452 0 120 255
-107.842493 -207.612402 -214.926322 0 120 255
-106.719824 -208.213786 -217.047127 0 120 255
-105.545209 -208.795952 -219.146365 0 120 255
-104.370595 -209.378119 -221.245603 0 120 255
-103.195980 -209.960285 -223.344842 0 120 255
-101.950445 -210.514894 -225.409101 0 120 255
-100.651084 -211.048589 -227.446813 0 120 255
-99.351723 -211.582283 -229.484524 0 120 255
-98.052362 -212.115978 -231.522236 0 120 255
-96.692357 -212.625005 -233.525167 0 120 255
-95.277375 -213.111669 -235.496568 0 120 255
-93.862392 -213.598334 -237.467969 0 120 255
-92.447410 -214.084998 -239.439370 0 120 255
-90.981171 -214.549907 -241.377116 0 120 255
-89.459477 -214.991279 -243.278452 0 120 255
-87.937784 -215.432651 -245.179788 0 120 255
-86.416090 -215.874024 -247.081123 0 120 255
-84.851625 -216.296516 -248.950683 0 120 255
-83.231830 -216.694584 -250.779137 0 120 255
-81.612034 -217.092653 -252.607590 0 120 255
-79.992238 -217.490721 -254.436044 0 120 255
-78.337267 -217.872698 -256.235194 0 120 255
-76.627622 -218.229663 -257.988798 0 120 255
-74.917976 -218.586627 -259.742402 0 120 255
-73.208331 -218.943592 -261.496006 0 120 255
-71.470239 -219.287126 -263.223225 0 120 255
-69.678581 -219.605370 -264.900759 0 120 255
-67.886923 -219.923615 -266.578293 0 120 255
-66.095265 -220.241859 -268.255827 0 120 255
-64.281067 -220.549173 -269.910214 0 120 255
-62.414803 -220.831236 -271.511131 0 120 255
-60.548539 -221.113299 -273.112049 0 120 255
-58.682275 -221.395363 -274.712966 0 120 255
-56.798606 -221.668802 -276.294184 0 120 255
-54.864685 -221.917342 -277.818526 0 120 255
-52.930764 -222.165882 -279.342867 0 120 255
-50.996844 -222.414422 -280.867209 0 120 255
-49.049936 -222.656432 -282.375409 0 120 255
-47.054836 -222.874210 -283.823715 0 120 255
-45.059737 -223.091988 -285.272021 0 120 255
-43.064638 -223.309767 -286.720327 0 120 255
-41.060314 -223.522878 -288.156081 0 120 255
-39.010050 -223.712744 -289.529328 0 120 255
-36.959786 -223.902611 -290.902574 0 120 255
-34.909522 -224.092477 -292.275821 0 120 255
-32.853202 -224.279293 -293.640069 0 120 255
-30.753331 -224.444170 -294.939607 0 120 255
-28.653461 -224.609046 -296.239144 0 120 255
-26.553590 -224.773923 -297.538682 0 120 255
-24.450300 -224.937109 -298.832682 0 120 255
-22.305939 -225.079983 -300.060176 0 120 255
-20.161578 -225.222857 -301.287670 0 120 255
-18.017217 -225.365731 -302.515164 0 120 255
-15.871600 -225.508006 -303.740445 0 120 255
-13.687434 -225.631903 -304.897816 0 120 255
-11.503268 -225.755800 -306.055187 0 120 255
-9.319102 -225.879697 -307.212558 0 120 255
-7.134937 -226.003594 -308.369929 0 120 255
-4.915734 -226.111811 -309.460241 0 120 255
-2.696041 -226.219809 -310.549616 0 120 255
-0.476348 -226.327807 -311.638991 0 120 255
1.743345 -226.435805 -312.728366 0 120 255
3.992647 -226.532554 -313.756188 0 120 255
6.243812 -226.628596 -314.780137 0 120 255
8.494977 -226.724637 -315.804086 0 120 255
10.746142 -226.820679 -316.828034 0 120 255
13.022631 -226.911417 -317.794645 0 120 255
15.302082 -227.001536 -318.754552 0 120 255
17.581533 -227.091655 -319.714460 0 120 255
19.860983 -227.181773 -320.674367 0 120 255
22.161890 -227.269521 -321.581556 0 120 255
24.466591 -227.356850 -322.479425 0 120 255
26.771291 -227.444179 -323.377293 0 120 255
29.075992 -227.531508 -324.275162 0 120 255
31.398537 -227.617571 -325.125566 0 120 255
33.725431 -227.703326 -325.964404 0 120 255
36.052325 -227.789081 -326.803241 0 120 255
38.379219 -227.874836 -327.642078 0 120 255
40.720526 -227.960831 -328.439391 0 120 255
43.066430 -228.046902 -329.223463 0 120 255
45.412333 -228.132974 -330.007534 0 120 255
47.758236 -228.219045 -330.791606 0 120 255
50.115632 -228.305274 -331.540019 0 120 255
52.477668 -228.391566 -332.274031 0 120 255
54.839705 -228.477859 -333.008043 0 120 255
57.201742 -228.564151 -333.742055 0 120 255
59.573225 -228.649883 -334.444634 0 120 255
61.949436 -228.735334 -335.131482 0 120 255
64.325646 -228.820785 -335.818330 0 120 255
66.701857 -228.906236 -336.505178 0 120 255
69.085982 -228.988610 -337.164022 0 120 255
71.474949 -229.069103 -337.805737 0 120 255
73.863915 -229.149596 -338.447452 0 120 255
76.252882 -229.230088 -339.089166 0 120 255
78.648569 -229.303890 -339.705723 0 120 255
81.049232 -229.372738 -340.303649 0 120 255
83.449895 -229.441586 -340.901575 0 120 255
85.850558 -229.510434 -341.499500 0 120 255
88.256785 -229.570402 -342.075148 0 120 255
90.667972 -229.622456 -342.630941 0 120 255
93.079159 -229.674511 -343.186734 0 120 255
95.490346 -229.726565 -343.742527 0 120 255
97.906005 -229.768885 -344.278916 0 120 255
100.326451 -229.800786 -344.794535 0 120 255
102.746897 -229.832687 -345.310154 0 120 255
105.167343 -229.864588 -345.825773 0 120 255
107.591307 -229.886236 -346.324628 0 120 255
110.019798 -229.894691 -346.801910 0 120 255
112.448289 -229.903146 -347.279192 0 120 255
114.876780 -229.911601 -347.756474 0 120 255
117.307954 -229.909605 -348.219425 0 120 255
119.743298 -229.891374 -348.660115 0 120 255
122.178641 -229.873143 -349.100805 0 120 255
124.613985 -229.854913 -349.541496 0 120 255
127.051288 -229.826352 -349.970086 0 120 255
129.492295 -229.778267 -350.375808 0 120 255
131.933302 -229.730183 -350.781530 0 120 255
134.374310 -229.682099 -351.187252 0 120 255
136.816656 -229.624106 -351.582918 0 120 255
139.262121 -229.543044 -351.955167 0 120 255
141.707585 -229.461982 -352.327416 0 120 255
144.153050 -229.380919 -352.699666 0 120 255
146.599332 -229.290676 -353.063746 0 120 255
149.048004 -229.173598 -353.403950 0 120 255
151.496675 -229.056521 -353.744154 0 120 255
153.945347 -228.939443 -354.084358 0 120 255
156.394418 -228.814197 -354.418117 0 120 255
158.844995 -228.658118 -354.727548 0 120 255
161.295573 -228.502039 -355.036979 0 120 255
163.746150 -228.345960 -355.346410 0 120 255
166.196572 -228.181168 -355.651765 0 120 255
168.646203 -227.971979 -355.936346 0 120 255
171.095835 -227.762791 -356.220926 0 120 255
173.545466 -227.553603 -356.505507 0 120 255
175.994891 -227.341706 -356.789757 0 120 255
178.442829 -227.110200 -357.071613 0 120 255
180.890767 -226.878694 -357.353468 0 120 255
183.338705 -226.647188 -357.635323 0 120 255
185.786643 -226.415681 -357.917179 0 120 255
188.234579 -226.184164 -358.199047 0 120 255
190.682515 -225.952647 -358.480915 0 120 255
193.130450 -225.721130 -358.762783 0 120 255
195.578386 -225.489613 -359.044650 0 120 255
198.026323 -225.258100 -359.326510 0 120 255
200.474260 -225.026586 -359.608370 0 120 255
202.922196 -224.795073 -359.890231 0 120 255
205.370133 -224.563560 -360.172091 0 120 255
