ply
format ascii 1.0
element vertex 385
property float x
property float y
property float z
property uchar red
property uchar green
property uchar blue
end_header
77.430455 -42.474882 -360.397637 0 120 255
77.187592 -42.528702 -357.936337 0 120 255
76.944730 -42.582523 -355.475037 0 120 255
76.701867 -42.636344 -353.013738 0 120 255
76.459004 -42.690164 -350.552438 0 120 255
76.212938 -42.749491 -348.091584 0 120 255
75.966731 -42.809062 -345.630749 0 120 255
75.720524 -42.868632 -343.169914 0 120 255
75.474316 -42.928202 -340.709079 0 120 255
75.084481 -43.422107 -338.320729 0 120 255
74.681427 -43.955989 -335.939051 0 120 255
74.278372 -44.489870 -333.557372 0 120 255
73.875318 -45.023752 -331.175694 0 120 255
73.360517 -45.907179 -328.928040 0 120 255
72.829268 -46.842056 -326.700115 0 120 255
72.298019 -47.776934 -324.472189 0 120 255
71.766770 -48.711812 -322.244263 0 120 255
71.150385 -49.917310 -320.179219 0 120 255
70.516252 -51.179227 -318.148131 0 120 255
69.882119 -52.441143 -316.117044 0 120 255
69.247985 -53.703059 -314.085956 0 120 255
68.552456 -55.166329 -312.221826 0 120 255
67.839940 -56.685312 -310.403892 0 120 255
67.127423 -58.204295 -308.585957 0 120 255
66.414906 -59.723278 -306.768023 0 120 255
65.662130 -61.387947 -305.105030 0 120 255
64.895145 -63.104033 -303.496721 0 120 255
64.128160 -64.820118 -301.888411 0 120 255
63.361175 -66.536203 -300.280102 0 120 255
62.572998 -68.356417 -298.806124 0 120 255
61.775527 -70.222295 -297.391057 0 120 255
60.978057 -72.088173 -295.975990 0 120 255
60.180586 -73.954052 -294.560924 0 120 255
59.379423 -75.895029 -293.256694 0 120 255
58.576282 -77.876209 -292.011798 0 120 255
57.773141 -79.857389 -290.766902 0 120 255
56.970000 -81.838569 -289.522006 0 120 255
56.179374 -83.875712 -288.365428 0 120 255
55.396828 -85.948982 -287.265860 0 120 255
54.614281 -88.022251 -286.166292 0 120 255
53.831734 -90.095521 -285.066724 0 120 255
53.076662 -92.212587 -284.036176 0 120 255
52.342805 -94.363469 -283.058919 0 120 255
51.608947 -96.514352 -282.081661 0 120 255
50.875089 -98.665235 -281.104404 0 120 255
50.182216 -100.851978 -280.181065 0 120 255
49.527007 -103.071679 -279.307277 0 120 255
48.871799 -105.291380 -278.433490 0 120 255
48.216590 -107.511081 -277.559702 0 120 255
47.614041 -109.760661 -276.728934 0 120 255
47.068968 -112.042855 -275.945120 0 120 255
46.523895 -114.325048 -275.161306 0 120 255
45.978822 -116.607241 -274.377492 0 120 255
45.495753 -118.913640 -273.629397 0 120 255
45.093089 -121.251426 -272.927622 0 120 255
44.690426 -123.589213 -272.225846 0 120 255
44.287762 -125.927000 -271.524070 0 120 255
43.953622 -128.282661 -270.853362 0 120 255
43.725364 -130.665938 -270.230658 0 120 255
43.497106 -133.049216 -269.607953 0 120 255
43.268848 -135.432493 -268.985248 0 120 255
43.112356 -137.826341 -268.390536 0 120 255
43.088757 -140.239762 -267.847657 0 120 255
43.065158 -142.653183 -267.304778 0 120 255
43.041559 -145.066604 -266.761899 0 120 255
43.089414 -147.482591 -266.244516 0 120 255
43.297320 -149.904326 -265.784244 0 120 255
43.505226 -152.326060 -265.323972 0 120 255
43.713132 -154.747795 -264.863700 0 120 255
43.988582 -157.164112 -264.426240 0 120 255
44.449561 -159.565548 -264.051436 0 120 255
44.910540 -161.966984 -263.676632 0 120 255
45.371519 -164.368420 -263.301828 0 120 255
45.892806 -166.757466 -262.946491 0 120 255
46.621382 -169.103923 -262.658066 0 120 255
47.349959 -171.450381 -262.369641 0 120 255
48.078536 -173.796838 -262.081215 0 120 255
48.857448 -176.126001 -261.808154 0 120 255
49.859534 -178.378488 -261.603210 0 120 255
50.861620 -180.630975 -261.398265 0 120 255
51.863706 -182.883461 -261.193321 0 120 255
52.904344 -185.116712 -260.999139 0 120 255
54.176287 -187.234550 -260.869528 0 120 255
55.448230 -189.352388 -260.739917 0 120 255
56.720173 -191.470225 -260.610306 0 120 255
58.018214 -193.570375 -260.486911 0 120 255
59.546492 -195.514480 -260.418364 0 120 255
61.074770 -197.458584 -260.349816 0 120 255
62.603048 -199.402689 -260.281268 0 120 255
64.145536 -201.334154 -260.215181 0 120 255
65.907453 -203.070453 -260.187076 0 120 255
67.669370 -204.806752 -260.158971 0 120 255
69.431287 -206.543051 -260.130866 0 120 255
71.197241 -208.274708 -260.103039 0 120 255
73.162345 -209.777386 -260.088969 0 120 255
75.127449 -211.280065 -260.074898 0 120 255
77.092553 -212.782744 -260.060828 0 120 255
79.057657 -214.285423 -260.046757 0 120 255
81.186374 -215.544642 -260.016028 0 120 255
83.318615 -216.798618 -259.984940 0 120 255
85.450856 -218.052594 -259.953851 0 120 255
87.583098 -219.306570 -259.922763 0 120 255
89.835272 -220.324685 -259.843745 0 120 255
92.095383 -221.327191 -259.761555 0 120 255
94.355493 -222.329697 -259.679365 0 120 255
96.615604 -223.332203 -259.597175 0 120 255
98.954407 -224.118071 -259.437505 0 120 255
101.302253 -224.879041 -259.268931 0 120 255
103.650099 -225.640011 -259.100356 0 120 255
105.997945 -226.400981 -258.931782 0 120 255
108.387352 -226.974172 -258.659697 0 120 255
110.783757 -227.515743 -258.370183 0 120 255
113.180162 -228.057314 -258.080668 0 120 255
115.576567 -228.598885 -257.791154 0 120 255
117.982331 -228.988561 -257.376986 0 120 255
120.390221 -229.343725 -256.934495 0 120 255
122.798112 -229.698888 -256.492004 0 120 255
125.206002 -230.054052 -256.049514 0 120 255
127.595966 -230.297505 -255.467091 0 120 255
129.980692 -230.508317 -254.843782 0 120 255
132.365418 -230.719129 -254.220472 0 120 255
134.750144 -230.929941 -253.597163 0 120 255
137.093901 -231.073338 -252.825277 0 120 255
139.422734 -231.192178 -251.999269 0 120 255
141.751566 -231.311018 -251.173261 0 120 255
144.080399 -231.429858 -250.347252 0 120 255
146.348922 -231.521551 -249.370898 0 120 255
148.590602 -231.601162 -248.327632 0 120 255
150.832283 -231.680773 -247.284365 0 120 255
153.073963 -231.760384 -246.241098 0 120 255
155.238217 -231.834155 -245.051272 0 120 255
157.360949 -231.904795 -243.782851 0 120 255
159.483681 -231.975435 -242.514429 0 120 255
161.606413 -232.046075 -241.246007 0 120 255
163.635856 -232.113405 -239.839282 0 120 255
165.605569 -232.178616 -238.344005 0 120 255
167.575282 -232.243827 -236.848728 0 120 255
169.544995 -232.309038 -235.353451 0 120 255
171.407045 -232.370332 -233.732328 0 120 255
173.187303 -232.428651 -232.015601 0 120 255
174.967561 -232.486969 -230.298873 0 120 255
176.747819 -232.545288 -228.582145 0 120 255
178.408620 -232.599003 -226.755911 0 120 255
179.962158 -232.648584 -224.831349 0 120 255
181.515696 -232.698165 -222.906788 0 120 255
183.069234 -232.747746 -220.982227 0 120 255
184.495077 -232.792371 -218.967544 0 120 255
185.785629 -232.831746 -216.857378 0 120 255
187.076180 -232.871122 -214.747212 0 120 255
188.366731 -232.910497 -212.637045 0 120 255
189.525663 -232.944834 -210.458066 0 120 255
190.519955 -232.972868 -208.193012 0 120 255
191.514247 -233.000902 -205.927957 0 120 255
192.508539 -233.028937 -203.662903 0 120 255
193.372084 -233.052031 -201.350973 0 120 255
194.041955 -233.067809 -198.969608 0 120 255
194.711825 -233.083586 -196.588243 0 120 255
195.381695 -233.099363 -194.206878 0 120 255
195.926574 -233.110488 -191.799786 0 120 255
196.250942 -233.113404 -189.347308 0 120 255
196.575310 -233.116320 -186.894829 0 120 255
196.899679 -233.119236 -184.442350 0 120 255
197.109330 -233.117944 -181.983106 0 120 255
197.075771 -233.107728 -179.509516 0 120 255
197.042213 -233.097512 -177.035927 0 120 255
197.008655 -233.087297 -174.562338 0 120 255
196.874406 -233.073443 -172.097535 0 120 255
196.480218 -233.050195 -169.655415 0 120 255
196.086029 -233.026948 -167.213295 0 120 255
195.691841 -233.003701 -164.771175 0 120 255
195.213647 -232.977462 -162.349070 0 120 255
194.466244 -232.941635 -159.991109 0 120 255
193.718841 -232.905807 -157.633149 0 120 255
192.971438 -232.869980 -155.275188 0 120 255
192.158052 -232.831843 -152.943637 0 120 255
191.074629 -232.784256 -150.720170 0 120 255
189.991206 -232.736670 -148.496703 0 120 255
188.907783 -232.689083 -146.273236 0 120 255
187.776360 -232.639849 -144.077675 0 120 255
186.382883 -232.581626 -142.034465 0 120 255
184.989405 -232.523403 -139.991256 0 120 255
183.595928 -232.465180 -137.948046 0 120 255
182.171133 -232.405906 -135.929685 0 120 255
180.500811 -232.338389 -134.106133 0 120 255
178.830490 -232.270871 -132.282581 0 120 255
177.160168 -232.203354 -130.459029 0 120 255
175.472847 -232.135283 -128.653418 0 120 255
173.564201 -232.060008 -127.081388 0 120 255
171.655555 -231.984733 -125.509358 0 120 255
169.746908 -231.909458 -123.937328 0 120 255
167.832484 -231.834002 -122.373392 0 120 255
165.727361 -231.752563 -121.076588 0 120 255
163.622238 -231.671125 -119.779784 0 120 255
161.517115 -231.589687 -118.482980 0 120 255
159.411993 -231.508249 -117.186177 0 120 255
157.155507 -231.422354 -116.176512 0 120 255
154.897086 -231.336402 -115.170519 0 120 255
152.638665 -231.250450 -114.164527 0 120 255
150.380244 -231.164498 -113.158534 0 120 255
148.017371 -231.075779 -112.434945 0 120 255
145.648446 -230.986898 -111.727718 0 120 255
143.279521 -230.898018 -111.020491 0 120 255
140.910596 -230.809138 -110.313264 0 120 255
138.478922 -230.718967 -109.876916 0 120 255
136.040507 -230.628658 -109.469663 0 120 255
133.602093 -230.538348 -109.062410 0 120 255
131.163679 -230.448039 -108.655157 0 120 255
128.698376 -230.357681 -108.502154 0 120 255
126.228720 -230.267315 -108.390304 0 120 255
123.759065 -230.176949 -108.278453 0 120 255
121.289409 -230.086583 -108.166602 0 120 255
118.822689 -229.997188 -108.289019 0 120 255
116.356620 -229.908009 -108.463450 0 120 255
113.890551 -229.818829 -108.637881 0 120 255
111.424482 -229.729650 -108.812312 0 120 255
108.985338 -229.642223 -109.199060 0 120 255
106.553970 -229.555302 -109.647138 0 120 255
104.122603 -229.468381 -110.095215 0 120 255
101.691236 -229.381460 -110.543292 0 120 255
99.305379 -229.296898 -111.180938 0 120 255
96.936065 -229.213194 -111.887492 0 120 255
94.566750 -229.129490 -112.594045 0 120 255
92.197436 -229.045786 -113.300599 0 120 255
89.887397 -228.964857 -114.174098 0 120 255
87.603875 -228.885169 -115.122283 0 120 255
85.320354 -228.805481 -116.070468 0 120 255
83.036833 -228.725794 -117.018653 0 120 255
80.822164 -228.649151 -118.111928 0 120 255
78.644832 -228.574160 -119.283884 0 120 255
76.467501 -228.499169 -120.455839 0 120 255
74.290170 -228.424177 -121.627794 0 120 255
72.187688 -228.352378 -122.924162 0 120 255
70.133899 -228.282654 -124.301465 0 120 255
68.080109 -228.212931 -125.678767 0 120 255
66.026320 -228.143208 -127.056070 0 120 255
64.050366 -228.076713 -128.538561 0 120 255
62.134744 -228.012721 -130.102586 0 120 255
60.219122 -227.948730 -131.666610 0 120 255
58.303500 -227.884738 -133.230634 0 120 255
56.466174 -227.823922 -134.882211 0 120 255
54.700877 -227.766029 -136.614334 0 120 255
52.935580 -227.708135 -138.346457 0 120 255
51.170282 -227.650242 -140.078580 0 120 255
49.481702 -227.595408 -141.882337 0 120 255
47.876782 -227.543910 -143.764212 0 120 255
46.271862 -227.492413 -145.646088 0 120 255
44.666942 -227.440916 -147.527963 0 120 255
43.135522 -227.392312 -149.467290 0 120 255
41.699229 -227.347452 -151.480974 0 120 255
40.262936 -227.302592 -153.494659 0 120 255
38.826644 -227.257733 -155.508344 0 120 255
37.459360 -227.215555 -157.567022 0 120 255
36.198481 -227.177512 -159.695075 0 120 255
34.937603 -227.139469 -161.823129 0 120 255
33.676724 -227.101426 -163.951183 0 120 255
32.479374 -227.065824 -166.113432 0 120 255
31.399513 -227.034739 -168.338923 0 120 255
30.319652 -227.003654 -170.564414 0 120 255
29.239791 -226.972569 -172.789904 0 120 255
28.217213 -226.943663 -175.040373 0 120 255
27.323025 -226.919644 -177.346826 0 120 255
26.428838 -226.895625 -179.653280 0 120 255
25.534651 -226.871607 -181.959733 0 120 255
24.690912 -226.849491 -184.283446 0 120 255
23.986301 -226.832624 -186.654756 0 120 255
23.281690 -226.815758 -189.026067 0 120 255
22.577079 -226.798891 -191.397377 0 120 255
21.915612 -226.783636 -193.779649 0 120 255
21.403840 -226.773971 -196.199953 0 120 255
20.892067 -226.764306 -198.620257 0 120 255
20.380295 -226.754641 -201.040561 0 120 255
19.903983 -226.746291 -203.466892 0 120 255
19.587704 -226.743880 -205.920428 0 120 255
19.271426 -226.741470 -208.373963 0 120 255
18.955147 -226.739059 -210.827499 0 120 255
18.666344 -226.737657 -213.283461 0 120 255
18.547609 -226.742506 -215.754443 0 120 255
18.428874 -226.747354 -218.225426 0 120 255
18.310139 -226.752203 -220.696408 0 120 255
18.210666 -226.757753 -223.167538 0 120 255
18.290874 -226.769853 -225.640046 0 120 255
18.371082 -226.781953 -228.112553 0 120 255
18.451290 -226.794052 -230.585061 0 120 255
18.542393 -226.806546 -233.056771 0 120 255
18.822151 -226.825863 -235.514664 0 120 255
19.101909 -226.845180 -237.972557 0 120 255
19.381667 -226.864496 -240.430450 0 120 255
19.663901 -226.883902 -242.887957 0 120 255
20.142798 -226.910364 -245.314855 0 120 255
20.621695 -226.936825 -247.741753 0 120 255
21.100592 -226.963287 -250.168650 0 120 255
21.579489 -226.989749 -252.595548 0 120 255
22.249973 -227.023020 -254.976310 0 120 255
22.926319 -227.056500 -257.355661 0 120 255
23.602664 -227.089980 -259.735012 0 120 255
24.279010 -227.123460 -262.114363 0 120 255
25.135612 -227.163281 -264.434219 0 120 255
26.006148 -227.203591 -266.749476 0 120 255
26.876685 -227.243902 -269.064733 0 120 255
27.747222 -227.284213 -271.379991 0 120 255
28.785299 -227.330338 -273.624068 0 120 255
29.844888 -227.377209 -275.859006 0 120 255
30.904478 -227.424081 -278.093944 0 120 255
31.964067 -227.470953 -280.328882 0 120 255
33.177184 -227.523112 -282.482934 0 120 255
34.418634 -227.576248 -284.622058 0 120 255
35.660085 -227.629383 -286.761182 0 120 255
36.901536 -227.682519 -288.900306 0 120 255
38.281483 -227.740375 -290.951065 0 120 255
39.695579 -227.799396 -292.980037 0 120 255
41.109674 -227.858417 -295.009008 0 120 255
42.523769 -227.917438 -297.037980 0 120 255
44.060699 -227.980583 -298.973494 0 120 255
45.636371 -228.045028 -300.879532 0 120 255
47.212044 -228.109472 -302.785569 0 120 255
48.787717 -228.173917 -304.691606 0 120 255
50.470307 -228.241920 -306.501586 0 120 255
52.194848 -228.311319 -308.273878 0 120 255
53.919389 -228.380717 -310.046169 0 120 255
55.643930 -228.450116 -311.818461 0 120 255
57.459738 -228.522512 -313.494480 0 120 255
59.319257 -228.596345 -315.124393 0 120 255
61.178775 -228.670178 -316.754306 0 120 255
63.038293 -228.744010 -318.384218 0 120 255
64.974051 -228.820402 -319.919927 0 120 255
66.953800 -228.898271 -321.401280 0 120 255
68.933549 -228.976139 -322.882632 0 120 255
70.913298 -229.054008 -324.363985 0 120 255
72.955237 -229.133800 -325.755292 0 120 255
75.040034 -229.214917 -327.084547 0 120 255
77.124830 -229.296034 -328.413802 0 120 255
79.209627 -229.377150 -329.743056 0 120 255
81.343748 -229.459003 -330.988427 0 120 255
83.518245 -229.541457 -332.165136 0 120 255
85.692741 -229.623911 -333.341844 0 120 255
87.867237 -229.706365 -334.518552 0 120 255
90.079024 -229.783879 -335.620880 0 120 255
92.326968 -229.856602 -336.651092 0 120 255
94.574911 -229.929325 -337.681304 0 120 255
96.822855 -230.002048 -338.711516 0 120 255
99.098061 -230.064675 -339.677812 0 120 255
101.404572 -230.115710 -340.570716 0 120 255
103.711083 -230.166744 -341.463619 0 120 255
106.017594 -230.217778 -342.356523 0 120 255
108.343389 -230.255777 -343.195842 0 120 255
110.695464 -230.276013 -343.962138 0 120 255
113.047539 -230.296248 -344.728435 0 120 255
115.399613 -230.316483 -345.494731 0 120 255
117.764767 -230.322478 -346.217351 0 120 255
120.151174 -230.305331 -346.868996 0 120 255
122.537581 -230.288184 -347.520642 0 120 255
124.923988 -230.271037 -348.172287 0 120 255
127.318794 -230.239775 -348.789510 0 120 255
129.730000 -230.180948 -349.339508 0 120 255
132.141207 -230.122121 -349.889506 0 120 255
134.552413 -230.063294 -350.439503 0 120 255
136.968637 -229.991540 -350.963449 0 120 255
139.396777 -229.889086 -351.425528 0 120 255
141.824916 -229.786632 -351.887606 0 120 255
144.253056 -229.684178 -352.349685 0 120 255
146.683905 -229.570726 -352.793045 0 120 255
149.122715 -229.424965 -353.181419 0 120 255
151.561525 -229.279204 -353.569794 0 120 255
154.000335 -229.133443 -353.958168 0 120 255
156.440397 -228.979057 -354.334024 0 120 255
158.885127 -228.792533 -354.663234 0 120 255
161.329857 -228.606008 -354.992445 0 120 255
163.774587 -228.419483 -355.321655 0 120 255
166.219724 -228.227068 -355.643733 0 120 255
168.666862 -228.005732 -355.930793 0 120 255
171.113999 -227.784395 -356.217852 0 120 255
173.561137 -227.563058 -356.504911 0 120 255
176.008235 -227.340444 -356.791294 0 120 255
178.455061 -227.109043 -357.073021 0 120 255
180.901887 -226.877643 -357.354748 0 120 255
183.348713 -226.646242 -357.636475 0 120 255
185.795539 -226.414840 -357.918204 0 120 255
188.242363 -226.183428 -358.199943 0 120 255
190.689186 -225.952016 -358.481683 0 120 255
193.136010 -225.720604 -358.763423 0 120 255
195.582834 -225.489192 -359.045162 0 120 255
198.029659 -225.257784 -359.326894 0 120 255
200.476483 -225.026376 -359.608626 0 120 255
202.923308 -224.794968 -359.890359 0 120 255
205.370133 -224.563560 -360.172091 0 120 255
