ply
format ascii 1.0
element vertex 385
property float x
property float y
property float z
property uchar red
property uchar green
property uchar blue
end_header
77.430455 -42.474882 -360.397637 0 120 255
77.187349 -42.528756 -357.933866 0 120 255
76.944242 -42.582631 -355.470096 0 120 255
76.701135 -42.636506 -353.006325 0 120 255
76.458029 -42.690380 -350.542555 0 120 255
76.213220 -42.802240 -348.080931 0 120 255
75.968344 -42.916407 -345.619393 0 120 255
75.723468 -43.030573 -343.157855 0 120 255
75.478591 -43.144740 -340.696317 0 120 255
75.397119 -43.268172 -338.224918 0 120 255
75.330738 -43.392460 -335.752609 0 120 255
75.264356 -43.516748 -333.280299 0 120 255
75.197975 -43.641035 -330.807990 0 120 255
75.290786 -43.728754 -328.335833 0 120 255
75.409254 -43.810579 -325.863700 0 120 255
75.527722 -43.892404 -323.391568 0 120 255
75.646190 -43.974229 -320.919436 0 120 255
75.918519 -44.026888 -318.459894 0 120 255
76.227543 -44.072590 -316.003355 0 120 255
76.536567 -44.118292 -313.546816 0 120 255
76.845590 -44.163995 -311.090277 0 120 255
77.301246 -44.186797 -308.657858 0 120 255
77.804679 -44.202137 -306.233299 0 120 255
78.308112 -44.217477 -303.808740 0 120 255
78.811545 -44.232817 -301.384180 0 120 255
79.452767 -44.230412 -298.994142 0 120 255
80.152566 -44.220464 -296.618778 0 120 255
80.852364 -44.210515 -294.243415 0 120 255
81.552163 -44.200566 -291.868051 0 120 255
82.379576 -44.176968 -289.536292 0 120 255
83.275733 -44.146018 -287.228022 0 120 255
84.171891 -44.115068 -284.919751 0 120 255
85.068048 -44.084118 -282.611481 0 120 255
86.080603 -44.042642 -280.354430 0 120 255
87.171095 -43.994118 -278.131675 0 120 255
88.261587 -43.945594 -275.908920 0 120 255
89.352078 -43.897071 -273.686164 0 120 255
90.547009 -43.840275 -271.520669 0 120 255
91.827766 -43.776681 -269.402230 0 120 255
93.108523 -43.713088 -267.283791 0 120 255
94.389281 -43.649494 -265.165351 0 120 255
95.762043 -43.579146 -263.108550 0 120 255
97.226831 -43.502043 -261.113402 0 120 255
98.691620 -43.424939 -259.118253 0 120 255
100.156408 -43.347836 -257.123104 0 120 255
101.700601 -43.264892 -255.192286 0 120 255
103.341018 -43.174870 -253.339424 0 120 255
104.981435 -43.084849 -251.486562 0 120 255
106.621852 -42.994827 -249.633700 0 120 255
108.329171 -42.899421 -247.846170 0 120 255
110.134549 -42.796122 -246.154393 0 120 255
111.939927 -42.692823 -244.462616 0 120 255
113.745304 -42.589524 -242.770839 0 120 255
115.605443 -42.480975 -241.143732 0 120 255
117.562759 -42.363111 -239.631386 0 120 255
119.520075 -42.245246 -238.119040 0 120 255
121.477391 -42.127382 -236.606694 0 120 255
123.477955 -42.004218 -235.156784 0 120 255
125.571798 -41.869626 -233.841537 0 120 255
127.665641 -41.735034 -232.526289 0 120 255
129.759484 -41.600442 -231.211042 0 120 255
131.885926 -41.460441 -229.954530 0 120 255
134.098413 -41.306165 -228.853046 0 120 255
136.310900 -41.151889 -227.751561 0 120 255
138.523388 -40.997612 -226.650077 0 120 255
140.758916 -40.837863 -225.602314 0 120 255
143.069665 -40.660247 -224.729927 0 120 255
145.380414 -40.482632 -223.857539 0 120 255
147.691163 -40.305016 -222.985151 0 120 255
150.016690 -40.121995 -222.160352 0 120 255
152.402816 -39.916808 -221.530692 0 120 255
154.788941 -39.711621 -220.901031 0 120 255
157.175066 -39.506434 -220.271371 0 120 255
159.569175 -39.296106 -219.682275 0 120 255
162.005330 -39.058699 -219.306838 0 120 255
164.441486 -38.821292 -218.931401 0 120 255
166.877641 -38.583885 -218.555964 0 120 255
169.316591 -38.341835 -218.213443 0 120 255
171.775086 -38.067310 -218.101167 0 120 255
174.233581 -37.792784 -217.988891 0 120 255
176.692076 -37.518259 -217.876615 0 120 255
179.149876 -37.239837 -217.789266 0 120 255
181.600868 -36.923254 -217.946043 0 120 255
184.051861 -36.606671 -218.102819 0 120 255
186.502854 -36.290088 -218.259596 0 120 255
188.951405 -35.970589 -218.433279 0 120 255
191.363200 -35.607189 -218.861474 0 120 255
193.774996 -35.243788 -219.289668 0 120 255
196.186791 -34.880387 -219.717862 0 120 255
198.596128 -34.515247 -220.155230 0 120 255
200.935585 -34.100694 -220.853266 0 120 255
203.275042 -33.686141 -221.551302 0 120 255
205.614499 -33.271588 -222.249339 0 120 255
207.953137 -32.856613 -222.949406 0 120 255
210.186213 -32.387253 -223.911300 0 120 255
212.419290 -31.917893 -224.873193 0 120 255
214.652366 -31.448533 -225.835087 0 120 255
216.885442 -30.979173 -226.796981 0 120 255
218.980199 -30.453251 -228.007822 0 120 255
221.072605 -29.926368 -229.222893 0 120 255
223.165011 -29.399485 -230.437965 0 120 255
225.257417 -28.872602 -231.653037 0 120 255
227.182263 -28.288993 -233.096339 0 120 255
229.100239 -27.703059 -234.548998 0 120 255
231.018215 -27.117125 -236.001657 0 120 255
232.936190 -26.531191 -237.454315 0 120 255
234.659901 -25.889673 -239.110859 0 120 255
236.371096 -25.244575 -240.780538 0 120 255
238.082291 -24.599477 -242.450217 0 120 255
239.793485 -23.954378 -244.119897 0 120 255
241.286930 -23.256251 -245.965785 0 120 255
242.761333 -22.553486 -247.827081 0 120 255
244.235736 -21.850722 -249.688378 0 120 255
245.710140 -21.147957 -251.549675 0 120 255
246.947228 -20.396176 -253.556609 0 120 255
248.158136 -19.638988 -255.579612 0 120 255
249.369043 -18.881799 -257.602614 0 120 255
250.579950 -18.124611 -259.625616 0 120 255
251.538544 -17.323880 -261.761418 0 120 255
252.463468 -16.517338 -263.912272 0 120 255
253.388393 -15.710797 -266.063126 0 120 255
254.313317 -14.904255 -268.213980 0 120 255
254.976056 -14.061015 -270.443306 0 120 255
255.597539 -13.211999 -272.684980 0 120 255
256.219022 -12.362984 -274.926653 0 120 255
256.840505 -11.513969 -277.168326 0 120 255
257.195485 -10.636343 -279.453597 0 120 255
257.501791 -9.753492 -281.746831 0 120 255
257.808097 -8.870642 -284.040064 0 120 255
258.114403 -7.987791 -286.333297 0 120 255
258.155634 -7.085412 -288.635757 0 120 255
258.141171 -6.178930 -290.940155 0 120 255
258.126709 -5.272449 -293.244553 0 120 255
258.112247 -4.365967 -295.548951 0 120 255
257.839853 -3.449769 -297.829825 0 120 255
257.505399 -2.531232 -300.105039 0 120 255
257.170945 -1.612695 -302.380253 0 120 255
256.836491 -0.694158 -304.655467 0 120 255
256.256632 0.223927 -306.877107 0 120 255
255.609228 1.141888 -309.084002 0 120 255
254.961824 2.059849 -311.290897 0 120 255
254.314420 2.977810 -313.497791 0 120 255
253.439004 3.885160 -315.624784 0 120 255
252.491719 4.789166 -317.726591 0 120 255
251.544434 5.693172 -319.828398 0 120 255
250.597149 6.597178 -321.930205 0 120 255
249.443238 7.480835 -323.930320 0 120 255
248.214539 8.357127 -325.893628 0 120 255
246.985839 9.233420 -327.856935 0 120 255
245.757139 10.109712 -329.820243 0 120 255
244.346150 10.956690 -331.665193 0 120 255
242.859115 11.791438 -333.460769 0 120 255
241.372081 12.626186 -335.256345 0 120 255
239.885047 13.460934 -337.051921 0 120 255
238.241912 14.258540 -338.717920 0 120 255
236.523370 15.038204 -340.321324 0 120 255
234.804827 15.817868 -341.924728 0 120 255
233.086285 16.597531 -343.528133 0 120 255
231.238494 17.333616 -344.996212 0 120 255
229.318028 18.045196 -346.388200 0 120 255
227.397562 18.756776 -347.780189 0 120 255
225.477095 19.468356 -349.172177 0 120 255
223.453761 20.131521 -350.428297 0 120 255
221.362703 20.762811 -351.594966 0 120 255
219.271645 21.394102 -352.761635 0 120 255
217.180587 22.025392 -353.928304 0 120 255
215.011559 22.605149 -354.963255 0 120 255
212.782021 23.144912 -355.895985 0 120 255
210.552483 23.684675 -356.828714 0 120 255
208.322945 24.224438 -357.761443 0 120 255
206.038018 24.711301 -358.570614 0 120 255
203.702025 25.149392 -359.265871 0 120 255
201.366032 25.587484 -359.961128 0 120 255
199.030040 26.025576 -360.656385 0 120 255
196.658286 26.411120 -361.239405 0 120 255
194.246992 26.738563 -361.698331 0 120 255
191.835699 27.066007 -362.157256 0 120 255
189.424405 27.393451 -362.616181 0 120 255
186.993623 27.670323 -362.976481 0 120 255
184.536693 27.879342 -363.204455 0 120 255
182.079762 28.088361 -363.432429 0 120 255
179.622832 28.297380 -363.660402 0 120 255
177.159133 28.459279 -363.804742 0 120 255
174.684244 28.543279 -363.810814 0 120 255
172.209355 28.627279 -363.816887 0 120 255
169.734466 28.711280 -363.822959 0 120 255
167.261976 28.752919 -363.760946 0 120 255
164.794476 28.706467 -363.557347 0 120 255
162.326976 28.660015 -363.353747 0 120 255
159.859475 28.613564 -363.150147 0 120 255
157.400147 28.530616 -362.893780 0 120 255
154.962826 28.349373 -362.495299 0 120 255
152.525505 28.168131 -362.096818 0 120 255
150.088185 27.986889 -361.698336 0 120 255
147.661693 27.775924 -361.261531 0 120 255
145.274681 27.456601 -360.685011 0 120 255
142.887669 27.137278 -360.108492 0 120 255
140.500657 26.817954 -359.531972 0 120 255
138.124381 26.476386 -358.930166 0 120 255
135.805123 26.016660 -358.194050 0 120 255
133.485866 25.556934 -357.457934 0 120 255
131.166609 25.097207 -356.721818 0 120 255
128.855658 24.623221 -355.971618 0 120 255
126.619004 24.021682 -355.095434 0 120 255
124.382350 23.420143 -354.219250 0 120 255
122.145696 22.818605 -353.343066 0 120 255
119.913016 22.211110 -352.461870 0 120 255
117.771328 21.467214 -351.465898 0 120 255
115.629640 20.723319 -350.469926 0 120 255
113.487952 19.979423 -349.473954 0 120 255
111.346264 19.235527 -348.477982 0 120 255
109.307755 18.352028 -347.384652 0 120 255
107.271087 17.466037 -346.289584 0 120 255
105.234420 16.580046 -345.194516 0 120 255
103.197752 15.694055 -344.099449 0 120 255
101.265330 14.677924 -342.932134 0 120 255
99.341645 13.650885 -341.758765 0 120 255
97.417961 12.623846 -340.585395 0 120 255
95.494276 11.596807 -339.412026 0 120 255
93.673285 10.449658 -338.188980 0 120 255
91.868654 9.283376 -336.958020 0 120 255
90.064023 8.117094 -335.727061 0 120 255
88.259392 6.950812 -334.496102 0 120 255
86.553859 5.674855 -333.235285 0 120 255
84.872729 4.371890 -331.967116 0 120 255
83.191599 3.068925 -330.698947 0 120 255
81.510469 1.765960 -329.430779 0 120 255
79.923254 0.363998 -328.149804 0 120 255
78.368653 -1.072343 -326.864383 0 120 255
76.814051 -2.508684 -325.578962 0 120 255
75.259449 -3.945024 -324.293540 0 120 255
73.792450 -5.469570 -323.009546 0 120 255
72.366248 -7.035195 -321.726217 0 120 255
70.940046 -8.600820 -320.442887 0 120 255
69.513843 -10.166445 -319.159558 0 120 255
68.168145 -11.809523 -317.889168 0 120 255
66.871257 -13.499561 -316.626623 0 120 255
65.574368 -15.189599 -315.364078 0 120 255
64.277479 -16.879638 -314.101534 0 120 255
63.053536 -18.636539 -312.860781 0 120 255
61.886155 -20.445286 -311.636925 0 120 255
60.718774 -22.254034 -310.413070 0 120 255
59.551393 -24.062781 -309.189214 0 120 255
58.449174 -25.928095 -307.993473 0 120 255
57.410969 -27.848978 -306.825352 0 120 255
56.372764 -29.769861 -305.657231 0 120 255
55.334560 -31.690744 -304.489109 0 120 255
54.353694 -33.658336 -303.353070 0 120 255
53.443988 -35.683896 -302.256845 0 120 255
52.534282 -37.709457 -301.160621 0 120 255
51.624576 -39.735018 -300.064396 0 120 255
50.764488 -41.797989 -299.001998 0 120 255
49.982436 -43.919801 -297.992800 0 120 255
49.200383 -46.041612 -296.983603 0 120 255
48.418331 -48.163423 -295.974405 0 120 255
47.678359 -50.314060 -294.998770 0 120 255
47.023087 -52.522720 -294.090689 0 120 255
46.367814 -54.731379 -293.182609 0 120 255
45.712542 -56.940039 -292.274529 0 120 255
45.092046 -59.169784 -291.397915 0 120 255
44.562777 -61.454844 -290.603846 0 120 255
44.033509 -63.739904 -289.809778 0 120 255
43.504241 -66.024964 -289.015709 0 120 255
43.002694 -68.324367 -288.249414 0 120 255
42.598868 -70.674335 -287.581024 0 120 255
42.195042 -73.024302 -286.912634 0 120 255
41.791215 -75.374270 -286.244244 0 120 255
41.408288 -77.732974 -285.598551 0 120 255
41.129623 -80.135263 -285.066085 0 120 255
40.850957 -82.537553 -284.533620 0 120 255
40.572292 -84.939842 -284.001154 0 120 255
40.307907 -87.346541 -283.485189 0 120 255
40.154470 -89.787495 -283.097416 0 120 255
40.001033 -92.228449 -282.709643 0 120 255
39.847596 -94.669403 -282.321870 0 120 255
39.701981 -97.111847 -281.943543 0 120 255
39.674209 -99.576741 -281.707538 0 120 255
39.646438 -102.041634 -281.471533 0 120 255
39.618666 -104.506527 -281.235528 0 120 255
39.592369 -106.971516 -281.001354 0 120 255
39.691080 -109.444608 -280.922361 0 120 255
39.789791 -111.917700 -280.843368 0 120 255
39.888503 -114.390792 -280.764376 0 120 255
39.987214 -116.863884 -280.685383 0 120 255
40.208761 -119.328820 -280.760583 0 120 255
40.435114 -121.793436 -280.841817 0 120 255
40.661467 -124.258053 -280.923050 0 120 255
40.887820 -126.722669 -281.004283 0 120 255
41.232211 -129.163546 -281.232945 0 120 255
41.587657 -131.602201 -281.475415 0 120 255
41.943102 -134.040855 -281.717884 0 120 255
42.298548 -136.479509 -281.960354 0 120 255
42.767447 -138.879908 -282.341502 0 120 255
43.253636 -141.274476 -282.743784 0 120 255
43.739824 -143.669045 -283.146066 0 120 255
44.226013 -146.063613 -283.548348 0 120 255
44.821169 -148.406665 -284.078807 0 120 255
45.439834 -150.738603 -284.636916 0 120 255
46.058498 -153.070542 -285.195026 0 120 255
46.677162 -155.402480 -285.753136 0 120 255
47.400294 -157.671105 -286.427320 0 120 255
48.153100 -159.921745 -287.134475 0 120 255
48.905906 -162.172386 -287.841631 0 120 255
49.658712 -164.423026 -288.548786 0 120 255
50.511359 -166.600191 -289.358627 0 120 255
51.399737 -168.751060 -290.205217 0 120 255
52.288115 -170.901930 -291.051807 0 120 255
53.176492 -173.052799 -291.898397 0 120 255
54.159865 -175.121850 -292.833214 0 120 255
55.184822 -177.155086 -293.806654 0 120 255
56.209779 -179.188322 -294.780093 0 120 255
57.234737 -181.221557 -295.753532 0 120 255
58.349525 -183.166601 -296.800008 0 120 255
59.511426 -185.065392 -297.884787 0 120 255
60.673327 -186.964183 -298.969567 0 120 255
61.835229 -188.862973 -300.054347 0 120 255
63.081444 -190.669292 -301.196536 0 120 255
64.379843 -192.418378 -302.374257 0 120 255
65.678242 -194.167463 -303.551979 0 120 255
66.976641 -195.916549 -304.729700 0 120 255
68.353426 -197.571044 -305.949175 0 120 255
69.786829 -199.157215 -307.198808 0 120 255
71.220233 -200.743386 -308.448442 0 120 255
72.653636 -202.329557 -309.698076 0 120 255
74.159090 -203.821223 -310.974131 0 120 255
75.724796 -205.233859 -312.272280 0 120 255
77.290503 -206.646495 -313.570430 0 120 255
78.856209 -208.059131 -314.868579 0 120 255
80.487251 -209.379504 -316.178557 0 120 255
82.181208 -210.611034 -317.499924 0 120 255
83.875165 -211.842564 -318.821292 0 120 255
85.569121 -213.074094 -320.142659 0 120 255
87.321377 -214.217675 -321.462387 0 120 255
89.138073 -215.264040 -322.780303 0 120 255
90.954769 -216.310406 -324.098219 0 120 255
92.771466 -217.356771 -325.416135 0 120 255
94.639203 -218.321394 -326.720443 0 120 255
96.571652 -219.182384 -328.007497 0 120 255
98.504100 -220.043375 -329.294551 0 120 255
100.436548 -220.904365 -330.581605 0 120 255
102.412670 -221.691456 -331.844954 0 120 255
104.452382 -222.370946 -333.073789 0 120 255
106.492095 -223.050436 -334.302623 0 120 255
108.531807 -223.729926 -335.531458 0 120 255
110.607881 -224.344667 -336.728638 0 120 255
112.744999 -224.850702 -337.872675 0 120 255
114.882118 -225.356738 -339.016712 0 120 255
117.019236 -225.862773 -340.160749 0 120 255
119.185624 -226.314111 -341.267558 0 120 255
121.409054 -226.658850 -342.301812 0 120 255
123.632484 -227.003589 -343.336066 0 120 255
125.855915 -227.348328 -344.370319 0 120 255
128.101918 -227.648861 -345.364290 0 120 255
130.399516 -227.848352 -346.266185 0 120 255
132.697114 -228.047844 -347.168081 0 120 255
134.994711 -228.247336 -348.069976 0 120 255
137.308778 -228.413040 -348.931036 0 120 255
139.667654 -228.486815 -349.680990 0 120 255
142.026529 -228.560590 -350.430945 0 120 255
144.385405 -228.634364 -351.180899 0 120 255
146.755392 -228.684186 -351.891899 0 120 255
149.162137 -228.654764 -352.474034 0 120 255
151.568882 -228.625343 -353.056168 0 120 255
153.975627 -228.595922 -353.638303 0 120 255
156.389028 -228.551284 -354.185547 0 120 255
158.830043 -228.443519 -354.588044 0 120 255
161.271057 -228.335754 -354.990541 0 120 255
163.712072 -228.227989 -355.393038 0 120 255
166.155413 -228.107501 -355.772376 0 120 255
168.611443 -227.917631 -356.025426 0 120 255
171.067473 -227.727762 -356.278477 0 120 255
173.523503 -227.537892 -356.531528 0 120 255
175.978759 -227.343232 -356.787900 0 120 255
178.428041 -227.111599 -357.069910 0 120 255
180.877324 -226.879965 -357.351920 0 120 255
183.326606 -226.648332 -357.633930 0 120 255
185.775888 -226.416698 -357.915941 0 120 255
188.225168 -226.185054 -358.197964 0 120 255
190.674448 -225.953410 -358.479986 0 120 255
193.123728 -225.721765 -358.762009 0 120 255
195.573008 -225.490121 -359.044031 0 120 255
198.022290 -225.258481 -359.326046 0 120 255
200.471571 -225.026841 -359.608061 0 120 255
202.920852 -224.795201 -359.890076 0 120 255
205.370133 -224.563560 -360.172091 0 120 255
