ply
format ascii 1.0
element vertex 385
property float x
property float y
property float z
property uchar red
property uchar green
property uchar blue
end_header
77.430455 -42.474882 -360.397637 0 120 255
77.187496 -42.528724 -357.935355 0 120 255
76.944536 -42.582566 -355.473074 0 120 255
76.701576 -42.636408 -353.010793 0 120 255
76.458617 -42.690250 -350.548511 0 120 255
76.223260 -42.761163 -348.085927 0 120 255
75.988225 -42.832800 -345.623330 0 120 255
75.753191 -42.904437 -343.160733 0 120 255
75.518156 -42.976074 -340.698135 0 120 255
75.266559 -43.318531 -338.261442 0 120 255
75.013467 -43.685428 -335.827086 0 120 255
74.760376 -44.052326 -333.392730 0 120 255
74.507284 -44.419223 -330.958374 0 120 255
74.232673 -45.021076 -328.575431 0 120 255
73.954850 -45.658001 -326.200163 0 120 255
73.677027 -46.294925 -323.824895 0 120 255
73.399204 -46.931850 -321.449627 0 120 255
73.103169 -47.782964 -319.147099 0 120 255
72.803211 -48.680217 -316.860241 0 120 255
72.503253 -49.577470 -314.573383 0 120 255
72.203295 -50.474723 -312.286525 0 120 255
71.889244 -51.564088 -310.089638 0 120 255
71.571107 -52.709136 -307.918828 0 120 255
71.252971 -53.854183 -305.748019 0 120 255
70.934834 -54.999231 -303.577210 0 120 255
70.607307 -56.313590 -301.509552 0 120 255
70.276266 -57.691284 -299.480481 0 120 255
69.945225 -59.068977 -297.451410 0 120 255
69.614184 -60.446671 -295.422339 0 120 255
69.278794 -61.970717 -293.505690 0 120 255
68.941359 -63.563540 -291.641874 0 120 255
68.603924 -65.156363 -289.778059 0 120 255
68.266489 -66.749186 -287.914243 0 120 255
67.929857 -68.465722 -286.168391 0 120 255
67.593691 -70.253994 -284.490942 0 120 255
67.257525 -72.042265 -282.813493 0 120 255
66.921360 -73.830537 -281.136044 0 120 255
66.591032 -75.720662 -279.578634 0 120 255
66.264831 -77.682791 -278.106086 0 120 255
65.938631 -79.644921 -276.633537 0 120 255
65.612430 -81.607050 -275.160989 0 120 255
65.296782 -83.650334 -273.807368 0 120 255
64.990161 -85.763036 -272.555477 0 120 255
64.683539 -87.875738 -271.303586 0 120 255
64.376918 -89.988440 -270.051695 0 120 255
64.085044 -92.163112 -268.914788 0 120 255
63.808371 -94.401662 -267.896405 0 120 255
63.531697 -96.640212 -266.878022 0 120 255
63.255024 -98.878762 -265.859638 0 120 255
62.996616 -101.161893 -264.949809 0 120 255
62.760872 -103.500347 -264.174684 0 120 255
62.525129 -105.838800 -263.399558 0 120 255
62.289386 -108.177253 -262.624433 0 120 255
62.074597 -110.544948 -261.949364 0 120 255
61.891178 -112.956418 -261.424075 0 120 255
61.707759 -115.367888 -260.898786 0 120 255
61.524340 -117.779358 -260.373497 0 120 255
61.363632 -120.206965 -259.938092 0 120 255
61.244161 -122.663871 -259.665887 0 120 255
61.124690 -125.120778 -259.393682 0 120 255
61.005219 -127.577684 -259.121477 0 120 255
60.909199 -130.040006 -258.927757 0 120 255
60.865308 -132.514367 -258.908500 0 120 255
60.821416 -134.988727 -258.889242 0 120 255
60.777525 -137.463088 -258.869985 0 120 255
60.756766 -139.934621 -258.917030 0 120 255
60.799877 -142.398348 -259.147139 0 120 255
60.842988 -144.862075 -259.377249 0 120 255
60.886099 -147.325801 -259.607359 0 120 255
60.950954 -149.780978 -259.891262 0 120 255
61.092037 -152.206183 -260.363740 0 120 255
61.233119 -154.631387 -260.836219 0 120 255
61.374201 -157.056592 -261.308698 0 120 255
61.534604 -159.470039 -261.822567 0 120 255
61.783934 -161.829370 -262.526945 0 120 255
62.033265 -164.188701 -263.231323 0 120 255
62.282595 -166.548033 -263.935702 0 120 255
62.547855 -168.894853 -264.669624 0 120 255
62.914779 -171.161826 -265.592096 0 120 255
63.281703 -173.428800 -266.514568 0 120 255
63.648627 -175.695774 -267.437040 0 120 255
64.027232 -177.951821 -268.378190 0 120 255
64.519921 -180.101157 -269.501741 0 120 255
65.012609 -182.250494 -270.625292 0 120 255
65.505297 -184.399831 -271.748844 0 120 255
66.004707 -186.541998 -272.881576 0 120 255
66.629921 -188.549968 -274.186154 0 120 255
67.255134 -190.557938 -275.490731 0 120 255
67.880347 -192.565909 -276.795308 0 120 255
68.506790 -194.572421 -278.101298 0 120 255
69.269662 -196.417184 -279.564047 0 120 255
70.032535 -198.261946 -281.026796 0 120 255
70.795407 -200.106709 -282.489545 0 120 255
71.558279 -201.951472 -283.952294 0 120 255
72.457546 -203.619342 -285.543537 0 120 255
73.361399 -205.281263 -287.139100 0 120 255
74.265253 -206.943184 -288.734664 0 120 255
75.169107 -208.605106 -290.330228 0 120 255
76.204779 -210.081788 -292.023356 0 120 255
77.250941 -211.543729 -293.724247 0 120 255
78.297103 -213.005671 -295.425138 0 120 255
79.343265 -214.467612 -297.126029 0 120 255
80.514718 -215.739780 -298.894293 0 120 255
81.702395 -216.987374 -300.671282 0 120 255
82.890073 -218.234969 -302.448271 0 120 255
84.077750 -219.482563 -304.225260 0 120 255
85.382415 -220.539533 -306.040733 0 120 255
86.708609 -221.561424 -307.863288 0 120 255
88.034803 -222.583315 -309.685843 0 120 255
89.360997 -223.605205 -311.508398 0 120 255
90.794314 -224.439024 -313.342423 0 120 255
92.253756 -225.226976 -315.179246 0 120 255
93.713198 -226.014929 -317.016069 0 120 255
95.172639 -226.802881 -318.852892 0 120 255
96.728040 -227.408494 -320.676489 0 120 255
98.313187 -227.957584 -322.495985 0 120 255
99.898334 -228.506673 -324.315482 0 120 255
101.483481 -229.055763 -326.134978 0 120 255
103.152991 -229.430652 -327.918822 0 120 255
104.854857 -229.738729 -329.688991 0 120 255
106.556723 -230.046807 -331.459160 0 120 255
108.258588 -230.354885 -333.229329 0 120 255
110.031654 -230.502562 -334.944981 0 120 255
111.837880 -230.575532 -336.635241 0 120 255
113.644106 -230.648503 -338.325501 0 120 255
115.450333 -230.721474 -340.015761 0 120 255
117.319514 -230.656665 -341.631552 0 120 255
119.223916 -230.514772 -343.205679 0 120 255
121.128319 -230.372878 -344.779805 0 120 255
123.032722 -230.230985 -346.353932 0 120 255
124.986951 -229.960905 -347.842334 0 120 255
126.974309 -229.605601 -349.273740 0 120 255
128.961667 -229.250296 -350.705147 0 120 255
130.949025 -228.894992 -352.136554 0 120 255
132.968059 -228.416380 -353.478279 0 120 255
135.011864 -227.841344 -354.749874 0 120 255
137.055668 -227.266307 -356.021469 0 120 255
139.099473 -226.691271 -357.293064 0 120 255
141.162137 -226.007898 -358.469399 0 120 255
143.242097 -225.225164 -359.558367 0 120 255
145.322057 -224.442430 -360.647335 0 120 255
147.402017 -223.659697 -361.736303 0 120 255
149.489017 -222.784015 -362.727659 0 120 255
151.583586 -221.808409 -363.614074 0 120 255
153.678154 -220.832802 -364.500490 0 120 255
155.772723 -219.857195 -365.386906 0 120 255
157.863847 -218.804015 -366.176395 0 120 255
159.950624 -217.652898 -366.843518 0 120 255
162.037400 -216.501782 -367.510642 0 120 255
164.124176 -215.350666 -368.177765 0 120 255
166.198621 -214.136899 -368.751475 0 120 255
168.254705 -212.829850 -369.186102 0 120 255
170.310789 -211.522802 -369.620729 0 120 255
172.366873 -210.215753 -370.055355 0 120 255
174.403563 -208.860118 -370.402565 0 120 255
176.405956 -207.418566 -370.595192 0 120 255
178.408350 -205.977014 -370.787819 0 120 255
180.410743 -204.535461 -370.980446 0 120 255
182.388668 -203.058167 -371.093748 0 120 255
184.314664 -201.505019 -371.038705 0 120 255
186.240660 -199.951872 -370.983661 0 120 255
188.166657 -198.398725 -370.928617 0 120 255
190.065192 -196.821140 -370.803984 0 120 255
191.892734 -195.180377 -370.499441 0 120 255
193.720276 -193.539614 -370.194897 0 120 255
195.547817 -191.898852 -369.890353 0 120 255
197.347020 -190.243159 -369.527131 0 120 255
199.055049 -188.539433 -368.975123 0 120 255
200.763077 -186.835706 -368.423115 0 120 255
202.471106 -185.131980 -367.871108 0 120 255
204.151992 -183.420843 -367.271986 0 120 255
205.720748 -181.679088 -366.478228 0 120 255
207.289504 -179.937332 -365.684469 0 120 255
208.858260 -178.195577 -364.890711 0 120 255
210.403046 -176.451815 -364.061562 0 120 255
211.814354 -174.696874 -363.035330 0 120 255
213.225662 -172.941934 -362.009098 0 120 255
214.636969 -171.186993 -360.982866 0 120 255
216.029301 -169.433275 -359.932632 0 120 255
217.266793 -167.689530 -358.686547 0 120 255
218.504284 -165.945785 -357.440463 0 120 255
219.741776 -164.202041 -356.194378 0 120 255
220.966892 -162.460586 -354.934866 0 120 255
222.016194 -160.751663 -353.484588 0 120 255
223.065496 -159.042741 -352.034309 0 120 255
224.114797 -157.333818 -350.584031 0 120 255
225.159687 -155.626158 -349.129664 0 120 255
226.008603 -153.974626 -347.493650 0 120 255
226.857519 -152.323094 -345.857636 0 120 255
227.706435 -150.671562 -344.221622 0 120 255
228.555351 -149.020030 -342.585609 0 120 255
229.198590 -147.445434 -340.788394 0 120 255
229.837202 -145.872568 -338.987554 0 120 255
230.475815 -144.299702 -337.186714 0 120 255
231.114427 -142.726836 -335.385874 0 120 255
231.549613 -141.245872 -333.452654 0 120 255
231.970375 -139.771424 -331.510047 0 120 255
232.391136 -138.296976 -329.567440 0 120 255
232.811898 -136.822528 -327.624833 0 120 255
233.034373 -135.451661 -325.578271 0 120 255
233.232193 -134.093672 -323.518783 0 120 255
233.430013 -132.735683 -321.459294 0 120 255
233.627833 -131.377695 -319.399806 0 120 255
233.635077 -130.131820 -317.263815 0 120 255
233.607350 -128.906518 -315.113786 0 120 255
233.579623 -127.681217 -312.963757 0 120 255
233.551896 -126.455915 -310.813728 0 120 255
233.343529 -125.348224 -308.613241 0 120 255
233.090134 -124.269850 -306.400175 0 120 255
232.836738 -123.191475 -304.187110 0 120 255
232.583343 -122.113101 -301.974045 0 120 255
232.161153 -121.155015 -299.734738 0 120 255
231.684489 -120.235748 -297.486961 0 120 255
231.207826 -119.316482 -295.239185 0 120 255
230.731163 -118.397215 -292.991408 0 120 255
230.099081 -117.598354 -290.739434 0 120 255
229.404049 -116.848262 -288.485759 0 120 255
228.709018 -116.098170 -286.232084 0 120 255
228.013986 -115.348078 -283.978409 0 120 255
227.178088 -114.716186 -281.740153 0 120 255
226.272054 -114.143145 -279.509573 0 120 255
225.366021 -113.570104 -277.278994 0 120 255
224.459987 -112.997062 -275.048415 0 120 255
223.428456 -112.537979 -272.850239 0 120 255
222.321217 -112.147640 -270.671612 0 120 255
221.213978 -111.757301 -268.492985 0 120 255
220.106740 -111.366962 -266.314358 0 120 255
218.889844 -111.084607 -264.182343 0 120 255
217.593600 -110.880388 -262.084057 0 120 255
216.297357 -110.676169 -259.985771 0 120 255
215.001113 -110.471950 -257.887485 0 120 255
213.611170 -110.368302 -255.847169 0 120 255
212.140446 -110.351360 -253.856832 0 120 255
210.669721 -110.334417 -251.866495 0 120 255
209.198997 -110.317475 -249.876159 0 120 255
207.650322 -110.392562 -247.952276 0 120 255
206.021888 -110.561814 -246.096390 0 120 255
204.393454 -110.731065 -244.240503 0 120 255
202.765020 -110.900317 -242.384617 0 120 255
201.073847 -111.152226 -240.600836 0 120 255
199.306611 -111.504347 -238.904474 0 120 255
197.539374 -111.856468 -237.208112 0 120 255
195.772137 -112.208589 -235.511750 0 120 255
193.956543 -112.633468 -233.890394 0 120 255
192.071434 -113.162939 -232.376862 0 120 255
190.186324 -113.692410 -230.863330 0 120 255
188.301215 -114.221882 -229.349798 0 120 255
186.381019 -114.813973 -227.911559 0 120 255
184.400835 -115.513127 -226.602049 0 120 255
182.420652 -116.212281 -225.292539 0 120 255
180.440469 -116.911435 -223.983029 0 120 255
178.437095 -117.663111 -222.746685 0 120 255
176.386294 -118.522203 -221.659978 0 120 255
174.335493 -119.381296 -220.573271 0 120 255
172.284692 -120.240388 -219.486563 0 120 255
170.221002 -121.142213 -218.468706 0 120 255
168.125495 -122.149522 -217.620804 0 120 255
166.029988 -123.156830 -216.772902 0 120 255
163.934481 -124.164139 -215.925000 0 120 255
161.834590 -125.204944 -215.139731 0 120 255
159.721461 -126.346894 -214.543578 0 120 255
157.608333 -127.488843 -213.947425 0 120 255
155.495205 -128.630792 -213.351272 0 120 255
153.384245 -129.797787 -212.809949 0 120 255
151.281452 -131.059096 -212.475105 0 120 255
149.178660 -132.320405 -212.140261 0 120 255
147.075867 -133.581714 -211.805417 0 120 255
144.979728 -134.860605 -211.516376 0 120 255
142.915753 -136.224495 -211.448768 0 120 255
140.851778 -137.588384 -211.381161 0 120 255
138.787803 -138.952273 -211.313553 0 120 255
136.732825 -140.327439 -211.281888 0 120 255
134.736268 -141.775827 -211.483607 0 120 255
132.739711 -143.224215 -211.685327 0 120 255
130.743154 -144.672603 -211.887047 0 120 255
128.755782 -146.127266 -212.114421 0 120 255
126.854957 -147.641053 -212.583537 0 120 255
124.954132 -149.154840 -213.052653 0 120 255
123.053307 -150.668628 -213.521769 0 120 255
121.159734 -152.185095 -214.006257 0 120 255
119.382206 -153.744443 -214.736725 0 120 255
117.604678 -155.303792 -215.467193 0 120 255
115.827149 -156.863141 -216.197660 0 120 255
114.052912 -158.423046 -216.933651 0 120 255
112.425031 -160.007706 -217.915290 0 120 255
110.797151 -161.592366 -218.896930 0 120 255
109.169270 -163.177026 -219.878569 0 120 255
107.541390 -164.761686 -220.860208 0 120 255
106.085276 -166.351272 -222.075305 0 120 255
104.631712 -167.940931 -223.293867 0 120 255
103.178147 -169.530590 -224.512428 0 120 255
101.724583 -171.120249 -225.730990 0 120 255
100.457788 -172.695663 -227.157120 0 120 255
99.201055 -174.270310 -228.594433 0 120 255
97.944323 -175.844956 -230.031746 0 120 255
96.687590 -177.419603 -231.469060 0 120 255
95.628629 -178.962912 -233.086035 0 120 255
94.588659 -180.503211 -234.720262 0 120 255
93.548689 -182.043511 -236.354489 0 120 255
92.508719 -183.583810 -237.988716 0 120 255
91.673429 -185.077990 -239.773379 0 120 255
90.867166 -186.565629 -241.579376 0 120 255
90.060903 -188.053268 -243.385374 0 120 255
89.254640 -189.540908 -245.191371 0 120 255
88.655892 -190.970193 -247.117947 0 120 255
88.096969 -192.388280 -249.067663 0 120 255
87.538047 -193.806367 -251.017380 0 120 255
86.979124 -195.224453 -252.967096 0 120 255
86.626572 -196.574587 -255.007659 0 120 255
86.325019 -197.907927 -257.070673 0 120 255
86.023466 -199.241268 -259.133687 0 120 255
85.721913 -200.574609 -261.196701 0 120 255
85.621849 -201.833093 -263.321679 0 120 255
85.583926 -203.068489 -265.465767 0 120 255
85.546004 -204.303886 -267.609855 0 120 255
85.508082 -205.539283 -269.753944 0 120 255
85.663335 -206.695614 -271.932629 0 120 255
85.891433 -207.822130 -274.124362 0 120 255
86.119531 -208.948647 -276.316094 0 120 255
86.347629 -210.075163 -278.507826 0 120 255
86.757570 -211.120969 -280.708953 0 120 255
87.250196 -212.130077 -282.914350 0 120 255
87.742822 -213.139184 -285.119748 0 120 255
88.235448 -214.148292 -287.325146 0 120 255
88.896049 -215.077436 -289.517441 0 120 255
89.647911 -215.963137 -291.702618 0 120 255
90.399773 -216.848837 -293.887794 0 120 255
91.151635 -217.734538 -296.072971 0 120 255
92.055619 -218.543174 -298.225696 0 120 255
93.057808 -219.302060 -300.357471 0 120 255
94.059996 -220.060946 -302.489247 0 120 255
95.062185 -220.819832 -304.621023 0 120 255
96.199232 -221.506401 -306.704483 0 120 255
97.439444 -222.137649 -308.750982 0 120 255
98.679656 -222.768897 -310.797481 0 120 255
99.919868 -223.400145 -312.843980 0 120 255
101.276890 -223.965307 -314.829981 0 120 255
102.739778 -224.470574 -316.761151 0 120 255
104.202667 -224.975840 -318.692322 0 120 255
105.665556 -225.481107 -320.623493 0 120 255
107.226481 -225.928014 -322.486148 0 120 255
108.892915 -226.312112 -324.275064 0 120 255
110.559350 -226.696210 -326.063981 0 120 255
112.225785 -227.080308 -327.852897 0 120 255
113.969911 -227.414576 -329.571549 0 120 255
115.813830 -227.684836 -331.199946 0 120 255
117.657750 -227.955097 -332.828343 0 120 255
119.501669 -228.225357 -334.456741 0 120 255
121.407531 -228.453885 -336.013557 0 120 255
123.409159 -228.617894 -337.459706 0 120 255
125.410786 -228.781902 -338.905855 0 120 255
127.412413 -228.945910 -340.352005 0 120 255
129.462968 -229.075932 -341.725525 0 120 255
131.605105 -229.142342 -342.963102 0 120 255
133.747242 -229.208752 -344.200679 0 120 255
135.889379 -229.275162 -345.438256 0 120 255
138.066767 -229.315304 -346.607415 0 120 255
140.325144 -229.295098 -347.619385 0 120 255
142.583522 -229.274891 -348.631354 0 120 255
144.841899 -229.254684 -349.643324 0 120 255
147.123713 -229.215282 -350.593543 0 120 255
149.472958 -229.120656 -351.366108 0 120 255
151.822202 -229.026030 -352.138672 0 120 255
154.171446 -228.931405 -352.911237 0 120 255
156.534428 -228.823783 -353.630767 0 120 255
158.948400 -228.667924 -354.153458 0 120 255
161.362371 -228.512065 -354.676150 0 120 255
163.776343 -228.356207 -355.198841 0 120 255
166.196325 -228.191052 -355.680714 0 120 255
168.646445 -227.979279 -355.957879 0 120 255
171.096565 -227.767505 -356.235044 0 120 255
173.546685 -227.555732 -356.512210 0 120 255
175.996523 -227.341552 -356.789945 0 120 255
178.444325 -227.110059 -357.071785 0 120 255
180.892127 -226.878566 -357.353624 0 120 255
183.339929 -226.647072 -357.635464 0 120 255
185.787731 -226.415578 -357.917305 0 120 255
188.235531 -226.184074 -358.199157 0 120 255
190.683330 -225.952570 -358.481009 0 120 255
193.131130 -225.721065 -358.762861 0 120 255
195.578930 -225.489561 -359.044713 0 120 255
198.026731 -225.258061 -359.326557 0 120 255
200.474531 -225.026561 -359.608402 0 120 255
202.922332 -224.795061 -359.890246 0 120 255
205.370133 -224.563560 -360.172091 0 120 255
