ply
format ascii 1.0
element vertex 385
property float x
property float y
property float z
property uchar red
property uchar green
property uchar blue
end_header
77.430455 -42.474882 -360.397637 0 120 255
77.187529 -42.528717 -357.935691 0 120 255
76.944602 -42.582551 -355.473746 0 120 255
76.701676 -42.636386 -353.011801 0 120 255
76.458749 -42.690221 -350.549856 0 120 255
76.216590 -42.756817 -348.088149 0 120 255
75.974463 -42.823962 -345.626452 0 120 255
75.732336 -42.891107 -343.164755 0 120 255
75.490209 -42.958253 -340.703058 0 120 255
75.212770 -43.128444 -338.250293 0 120 255
74.932103 -43.308055 -335.798345 0 120 255
74.651436 -43.487666 -333.346396 0 120 255
74.370769 -43.667278 -330.894448 0 120 255
74.054565 -43.929434 -328.454538 0 120 255
73.733116 -44.203774 -326.016404 0 120 255
73.411667 -44.478114 -323.578271 0 120 255
73.090218 -44.752454 -321.140138 0 120 255
72.734280 -45.101915 -318.716754 0 120 255
72.371099 -45.467148 -316.296467 0 120 255
72.007919 -45.832382 -313.876179 0 120 255
71.644738 -46.197615 -311.455892 0 120 255
71.248542 -46.630870 -309.052410 0 120 255
70.843116 -47.083139 -306.653625 0 120 255
70.437691 -47.535408 -304.254840 0 120 255
70.032265 -47.987677 -301.856056 0 120 255
69.595530 -48.501157 -299.475536 0 120 255
69.147598 -49.036529 -297.101548 0 120 255
68.699665 -49.571901 -294.727560 0 120 255
68.251733 -50.107273 -292.353572 0 120 255
67.774291 -50.697341 -289.998775 0 120 255
67.283691 -51.311799 -287.652535 0 120 255
66.793091 -51.926257 -285.306296 0 120 255
66.302490 -52.540714 -282.960057 0 120 255
65.784193 -53.203657 -280.633462 0 120 255
65.250759 -53.893095 -278.317601 0 120 255
64.717326 -54.582533 -276.001741 0 120 255
64.183892 -55.271971 -273.685881 0 120 255
63.624503 -56.004021 -271.389717 0 120 255
63.047929 -56.764282 -269.106594 0 120 255
62.471355 -57.524543 -266.823471 0 120 255
61.894782 -58.284805 -264.540348 0 120 255
61.293908 -59.082163 -262.276636 0 120 255
60.673687 -59.909056 -260.028379 0 120 255
60.053466 -60.735950 -257.780123 0 120 255
59.433245 -61.562844 -255.531866 0 120 255
58.790276 -62.421696 -253.302462 0 120 255
58.125613 -63.311023 -251.091035 0 120 255
57.460951 -64.200350 -248.879609 0 120 255
56.796288 -65.089677 -246.668183 0 120 255
56.110362 -66.006218 -244.474827 0 120 255
55.400174 -66.953808 -242.302088 0 120 255
54.689986 -67.901398 -240.129350 0 120 255
53.979798 -68.848988 -237.956612 0 120 255
53.249773 -69.819447 -235.800990 0 120 255
52.492617 -70.821183 -233.668779 0 120 255
51.735460 -71.822920 -231.536568 0 120 255
50.978304 -72.824657 -229.404357 0 120 255
50.202731 -73.845314 -227.288168 0 120 255
49.396816 -74.897146 -225.198374 0 120 255
48.590901 -75.948979 -223.108581 0 120 255
47.784986 -77.000811 -221.018788 0 120 255
46.962114 -78.068009 -218.943802 0 120 255
46.105297 -79.165965 -216.898455 0 120 255
45.248481 -80.263922 -214.853109 0 120 255
44.391664 -81.361879 -212.807762 0 120 255
43.519443 -82.472029 -210.775895 0 120 255
42.609266 -83.612221 -208.777239 0 120 255
41.699090 -84.752414 -206.778584 0 120 255
40.788914 -85.892607 -204.779928 0 120 255
39.865023 -87.042188 -202.793305 0 120 255
38.898725 -88.220803 -200.843889 0 120 255
37.932427 -89.399418 -198.894474 0 120 255
36.966130 -90.578033 -196.945058 0 120 255
35.987995 -91.763589 -195.006087 0 120 255
34.962557 -92.976880 -193.108856 0 120 255
33.937119 -94.190172 -191.211625 0 120 255
32.911680 -95.403464 -189.314394 0 120 255
31.876511 -96.621592 -187.425842 0 120 255
30.788728 -97.865868 -185.584215 0 120 255
29.700945 -99.110145 -183.742588 0 120 255
28.613162 -100.354421 -181.900962 0 120 255
27.518014 -101.601761 -180.066017 0 120 255
26.364557 -102.873344 -178.283967 0 120 255
25.211101 -104.144927 -176.501918 0 120 255
24.057644 -105.416510 -174.719868 0 120 255
22.899467 -106.689708 -172.942208 0 120 255
21.676980 -107.984911 -171.224344 0 120 255
20.454492 -109.280115 -169.506479 0 120 255
19.232004 -110.575318 -167.788615 0 120 255
18.007725 -111.871014 -166.072472 0 120 255
16.712909 -113.186115 -164.424126 0 120 255
15.418092 -114.501215 -162.775780 0 120 255
14.123275 -115.816316 -161.127433 0 120 255
12.828459 -117.131417 -159.479087 0 120 255
11.459630 -118.462302 -157.904945 0 120 255
10.089393 -119.793488 -156.332215 0 120 255
8.719156 -121.124674 -154.759484 0 120 255
7.348920 -122.455859 -153.186753 0 120 255
5.905346 -123.798439 -151.691460 0 120 255
4.456932 -125.141770 -150.201277 0 120 255
3.008519 -126.485101 -148.711095 0 120 255
1.560105 -127.828432 -147.220912 0 120 255
0.039704 -129.178953 -145.811593 0 120 255
-1.489138 -130.530317 -144.411756 0 120 255
-3.017980 -131.881681 -143.011920 0 120 255
-4.546823 -133.233045 -141.612083 0 120 255
-6.145542 -134.587558 -140.296640 0 120 255
-7.756379 -135.942618 -138.995831 0 120 255
-9.367216 -137.297678 -137.695023 0 120 255
-10.978052 -138.652738 -136.394214 0 120 255
-12.655813 -140.007066 -135.181312 0 120 255
-14.349311 -141.361222 -133.989082 0 120 255
-16.042809 -142.715378 -132.796853 0 120 255
-17.736307 -144.069533 -131.604623 0 120 255
-19.492874 -145.419242 -130.503666 0 120 255
-21.268572 -146.767602 -129.430397 0 120 255
-23.044271 -148.115962 -128.357128 0 120 255
-24.819969 -149.464322 -127.283860 0 120 255
-26.653954 -150.804683 -126.304915 0 120 255
-28.510032 -152.142012 -125.361723 0 120 255
-30.366110 -153.479341 -124.418531 0 120 255
-32.222188 -154.816670 -123.475340 0 120 255
-34.130837 -156.142651 -122.629035 0 120 255
-36.063852 -157.463371 -121.827641 0 120 255
-37.996868 -158.784091 -121.026246 0 120 255
-39.929884 -160.104811 -120.224852 0 120 255
-41.908861 -161.411063 -119.522214 0 120 255
-43.913503 -162.709234 -118.874722 0 120 255
-45.918146 -164.007406 -118.227230 0 120 255
-47.922788 -165.305578 -117.579738 0 120 255
-49.965983 -166.586444 -117.032008 0 120 255
-52.034842 -167.855789 -116.550688 0 120 255
-54.103701 -169.125135 -116.069367 0 120 255
-56.172560 -170.394480 -115.588047 0 120 255
-58.271891 -171.644033 -115.206418 0 120 255
-60.395232 -172.877992 -114.903340 0 120 255
-62.518573 -174.111950 -114.600261 0 120 255
-64.641914 -175.345908 -114.297182 0 120 255
-66.787172 -176.558004 -114.092497 0 120 255
-68.952781 -177.749800 -113.979171 0 120 255
-71.118391 -178.941597 -113.865845 0 120 255
-73.284000 -180.133394 -113.752519 0 120 255
-75.462745 -181.301748 -113.734913 0 120 255
-77.655833 -182.444507 -113.821824 0 120 255
-79.848921 -183.587266 -113.908735 0 120 255
-82.042009 -184.730025 -113.995646 0 120 255
-84.239523 -185.848320 -114.174148 0 120 255
-86.442723 -186.935203 -114.470263 0 120 255
-88.645923 -188.022085 -114.766378 0 120 255
-90.849122 -189.108967 -115.062494 0 120 255
-93.048448 -190.170997 -115.444590 0 120 255
-95.241910 -191.195407 -115.956834 0 120 255
-97.435372 -192.219817 -116.469077 0 120 255
-99.628834 -193.244227 -116.981321 0 120 255
-101.810903 -194.244057 -117.572516 0 120 255
-103.972547 -195.199820 -118.305247 0 120 255
-106.134192 -196.155584 -119.037977 0 120 255
-108.295837 -197.111347 -119.770708 0 120 255
-110.439718 -198.043496 -120.574083 0 120 255
-112.545598 -198.925124 -121.528593 0 120 255
-114.651477 -199.806752 -122.483102 0 120 255
-116.757356 -200.688381 -123.437612 0 120 255
-118.840604 -201.548033 -124.453431 0 120 255
-120.865418 -202.350944 -125.627548 0 120 255
-122.890231 -203.153854 -126.801664 0 120 255
-124.915045 -203.956765 -127.975781 0 120 255
-126.914165 -204.739973 -129.201158 0 120 255
-128.831904 -205.460776 -130.588891 0 120 255
-130.749644 -206.181580 -131.976624 0 120 255
-132.667383 -206.902384 -133.364357 0 120 255
-134.558398 -207.606290 -134.793003 0 120 255
-136.343087 -208.242969 -136.384420 0 120 255
-138.127776 -208.879648 -137.975838 0 120 255
-139.912465 -209.516327 -139.567256 0 120 255
-141.671555 -210.139324 -141.189388 0 120 255
-143.298059 -210.691454 -142.970602 0 120 255
-144.924564 -211.243583 -144.751815 0 120 255
-146.551068 -211.795713 -146.533029 0 120 255
-148.155263 -212.337614 -148.335386 0 120 255
-149.600124 -212.806459 -150.288754 0 120 255
-151.044984 -213.275304 -152.242122 0 120 255
-152.489845 -213.744149 -154.195491 0 120 255
-153.917727 -214.206272 -156.161523 0 120 255
-155.159947 -214.594886 -158.266031 0 120 255
-156.402167 -214.983501 -160.370539 0 120 255
-157.644388 -215.372115 -162.475046 0 120 255
-158.876751 -215.757357 -164.585246 0 120 255
-159.898496 -216.070550 -166.817069 0 120 255
-160.920241 -216.383743 -169.048892 0 120 255
-161.941986 -216.696935 -171.280715 0 120 255
-162.962434 -217.009746 -173.513098 0 120 255
-163.749608 -217.253998 -175.846289 0 120 255
-164.536783 -217.498249 -178.179481 0 120 255
-165.323958 -217.742500 -180.512673 0 120 255
-166.111132 -217.986752 -182.845864 0 120 255
-166.662018 -218.172081 -185.250653 0 120 255
-167.204643 -218.355351 -187.657945 0 120 255
-167.747269 -218.538621 -190.065238 0 120 255
-168.289894 -218.721891 -192.472530 0 120 255
-168.600636 -218.857210 -194.922762 0 120 255
-168.893055 -218.988741 -197.376387 0 120 255
-169.185474 -219.120271 -199.830012 0 120 255
-169.477893 -219.251802 -202.283637 0 120 255
-169.547133 -219.346492 -204.754018 0 120 255
-169.587977 -219.436495 -207.226530 0 120 255
-169.628821 -219.526497 -209.699042 0 120 255
-169.669665 -219.616499 -212.171555 0 120 255
-169.499692 -219.680564 -214.637716 0 120 255
-169.291724 -219.739954 -217.102733 0 120 255
-169.083757 -219.799344 -219.567749 0 120 255
-168.875789 -219.858734 -222.032766 0 120 255
-168.471884 -219.903281 -224.471738 0 120 255
-168.021201 -219.944286 -226.904491 0 120 255
-167.570518 -219.985290 -229.337245 0 120 255
-167.119835 -220.026294 -231.769998 0 120 255
-166.490166 -220.063472 -234.160593 0 120 255
-165.806142 -220.099488 -236.538386 0 120 255
-165.122117 -220.135504 -238.916179 0 120 255
-164.438092 -220.171520 -241.293972 0 120 255
-163.594131 -220.210742 -243.617445 0 120 255
-162.689944 -220.251171 -245.920465 0 120 255
-161.785758 -220.291599 -248.223484 0 120 255
-160.881571 -220.332028 -250.526503 0 120 255
-159.838656 -220.377189 -252.767658 0 120 255
-158.732076 -220.424521 -254.980422 0 120 255
-157.625495 -220.471853 -257.193186 0 120 255
-156.518914 -220.519185 -259.405950 0 120 255
-155.293196 -220.571140 -261.552511 0 120 255
-154.001653 -220.625649 -263.662495 0 120 255
-152.710111 -220.680158 -265.772479 0 120 255
-151.418569 -220.734668 -267.882464 0 120 255
-150.025431 -220.792877 -269.924274 0 120 255
-148.565327 -220.853526 -271.921147 0 120 255
-147.105224 -220.914174 -273.918021 0 120 255
-145.645120 -220.974822 -275.914895 0 120 255
-144.099801 -221.038410 -277.844082 0 120 255
-142.487851 -221.104294 -279.720345 0 120 255
-140.875901 -221.170179 -281.596608 0 120 255
-139.263951 -221.236064 -283.472871 0 120 255
-137.581753 -221.304325 -285.283987 0 120 255
-135.834593 -221.374781 -287.034859 0 120 255
-134.087433 -221.445238 -288.785731 0 120 255
-132.340273 -221.515695 -290.536603 0 120 255
-130.536190 -221.588030 -292.226431 0 120 255
-128.669884 -221.662416 -293.849531 0 120 255
-126.803578 -221.736803 -295.472632 0 120 255
-124.937273 -221.811190 -297.095732 0 120 255
-123.025663 -221.887012 -298.663022 0 120 255
-121.055418 -221.964692 -300.158074 0 120 255
-119.085172 -222.042372 -301.653127 0 120 255
-117.114926 -222.120052 -303.148180 0 120 255
-115.109327 -222.198808 -304.593418 0 120 255
-113.049324 -222.279219 -305.961996 0 120 255
-110.989321 -222.359630 -307.330575 0 120 255
-108.929318 -222.440042 -308.699153 0 120 255
-106.842321 -222.521258 -310.024339 0 120 255
-104.705585 -222.603960 -311.269574 0 120 255
-102.568850 -222.686661 -312.514808 0 120 255
-100.432115 -222.769362 -313.760043 0 120 255
-98.275262 -222.852647 -314.968431 0 120 255
-96.073554 -222.937233 -316.094671 0 120 255
-93.871847 -223.021819 -317.220910 0 120 255
-91.670140 -223.106406 -318.347150 0 120 255
-89.453864 -223.191392 -319.442993 0 120 255
-87.197681 -223.277475 -320.455571 0 120 255
-84.941498 -223.363558 -321.468149 0 120 255
-82.685316 -223.449641 -322.480727 0 120 255
-80.418949 -223.535983 -323.469078 0 120 255
-78.117542 -223.623218 -324.374064 0 120 255
-75.816134 -223.710454 -325.279050 0 120 255
-73.514727 -223.797689 -326.184036 0 120 255
-71.206525 -223.885091 -327.070556 0 120 255
-68.867961 -223.973239 -327.874567 0 120 255
-66.529397 -224.061387 -328.678578 0 120 255
-64.190833 -224.149535 -329.482589 0 120 255
-61.848025 -224.237785 -330.273396 0 120 255
-59.479271 -224.326659 -330.983461 0 120 255
-57.110517 -224.415532 -331.693525 0 120 255
-54.741763 -224.504406 -332.403589 0 120 255
-52.370626 -224.593334 -333.105135 0 120 255
-49.977599 -224.682770 -333.728440 0 120 255
-47.584572 -224.772206 -334.351745 0 120 255
-45.191545 -224.861641 -334.975050 0 120 255
-42.797442 -224.951101 -335.593919 0 120 255
-40.385134 -225.040959 -336.137777 0 120 255
-37.972826 -225.130817 -336.681635 0 120 255
-35.560518 -225.220675 -337.225494 0 120 255
-33.148007 -225.310537 -337.768382 0 120 255
-30.720586 -225.400671 -338.240175 0 120 255
-28.293165 -225.490804 -338.711968 0 120 255
-25.865744 -225.580938 -339.183761 0 120 255
-23.438323 -225.671072 -339.655554 0 120 255
-20.999559 -225.761404 -340.064495 0 120 255
-18.560457 -225.851741 -340.471564 0 120 255
-16.121354 -225.942079 -340.878633 0 120 255
-13.682252 -226.032416 -341.285702 0 120 255
-11.234894 -226.122877 -341.639419 0 120 255
-8.786901 -226.213348 -341.989038 0 120 255
-6.338909 -226.303818 -342.338658 0 120 255
-3.890917 -226.394288 -342.688278 0 120 255
-1.437026 -226.484808 -342.993325 0 120 255
1.017621 -226.575334 -343.292653 0 120 255
3.472269 -226.665860 -343.591980 0 120 255
5.926916 -226.756386 -343.891308 0 120 255
8.385678 -226.846952 -344.154218 0 120 255
10.845202 -226.937525 -344.410389 0 120 255
13.304727 -227.028098 -344.666559 0 120 255
15.764251 -227.118671 -344.922730 0 120 255
18.226585 -227.209286 -345.149820 0 120 255
20.689617 -227.299911 -345.369703 0 120 255
23.152648 -227.390536 -345.589587 0 120 255
25.615680 -227.481162 -345.809470 0 120 255
28.080572 -227.571850 -346.006970 0 120 255
30.546056 -227.662558 -346.197359 0 120 255
33.011540 -227.753266 -346.387748 0 120 255
35.477023 -227.843975 -346.578138 0 120 255
37.943689 -227.934803 -346.752175 0 120 255
40.410823 -228.025678 -346.919739 0 120 255
42.877957 -228.116554 -347.087304 0 120 255
45.345091 -228.207429 -347.254868 0 120 255
47.812943 -228.298165 -347.411382 0 120 255
50.281143 -228.388834 -347.562550 0 120 255
52.749344 -228.479503 -347.713717 0 120 255
55.217544 -228.570172 -347.864884 0 120 255
57.686137 -228.660469 -348.009653 0 120 255
60.154959 -228.750547 -348.150687 0 120 255
62.623780 -228.840626 -348.291720 0 120 255
65.092602 -228.930704 -348.432753 0 120 255
67.561606 -229.019673 -348.571268 0 120 255
70.030736 -229.107866 -348.708024 0 120 255
72.499867 -229.196058 -348.844780 0 120 255
74.968997 -229.284251 -348.981536 0 120 255
77.438273 -229.368354 -349.118199 0 120 255
79.907669 -229.449061 -349.254785 0 120 255
82.377065 -229.529767 -349.391370 0 120 255
84.846461 -229.610474 -349.527956 0 120 255
87.316014 -229.683199 -349.665942 0 120 255
89.785721 -229.748066 -349.805306 0 120 255
92.255429 -229.812932 -349.944671 0 120 255
94.725136 -229.877799 -350.084036 0 120 255
97.194904 -229.932339 -350.226253 0 120 255
99.664741 -229.974828 -350.371799 0 120 255
102.134578 -230.017317 -350.517346 0 120 255
104.604416 -230.059806 -350.662892 0 120 255
107.074137 -230.090774 -350.812543 0 120 255
109.543698 -230.105775 -350.967883 0 120 255
112.013258 -230.120775 -351.123223 0 120 255
114.482819 -230.135776 -351.278564 0 120 255
116.952045 -230.138746 -351.438929 0 120 255
119.420718 -230.121815 -351.607607 0 120 255
121.889391 -230.104884 -351.776286 0 120 255
124.358064 -230.087953 -351.944964 0 120 255
126.826167 -230.059093 -352.119251 0 120 255
129.293134 -230.006495 -352.304700 0 120 255
131.760102 -229.953896 -352.490148 0 120 255
134.227069 -229.901298 -352.675597 0 120 255
136.693240 -229.837399 -352.866923 0 120 255
139.157484 -229.746121 -353.072491 0 120 255
141.621727 -229.654842 -353.278058 0 120 255
144.085971 -229.563564 -353.483626 0 120 255
146.549236 -229.462057 -353.695022 0 120 255
149.009563 -229.329842 -353.923916 0 120 255
151.469891 -229.197628 -354.152811 0 120 255
153.930219 -229.065413 -354.381706 0 120 255
156.389456 -228.924394 -354.616088 0 120 255
158.844532 -228.749768 -354.871414 0 120 255
161.299609 -228.575142 -355.126740 0 120 255
163.754685 -228.400516 -355.382067 0 120 255
166.208592 -228.218560 -355.642647 0 120 255
168.656594 -227.999599 -355.929751 0 120 255
171.104596 -227.780639 -356.216855 0 120 255
173.552597 -227.561679 -356.503959 0 120 255
176.000533 -227.341173 -356.790407 0 120 255
178.448001 -227.109711 -357.072208 0 120 255
180.895469 -226.878249 -357.354009 0 120 255
183.342937 -226.646788 -357.635810 0 120 255
185.790405 -226.415325 -357.917612 0 120 255
188.237870 -226.183853 -358.199426 0 120 255
190.685336 -225.952380 -358.481240 0 120 255
193.132801 -225.720907 -358.763053 0 120 255
195.580267 -225.489435 -359.044867 0 120 255
198.027733 -225.257966 -359.326673 0 120 255
200.475200 -225.026498 -359.608479 0 120 255
202.922667 -224.795029 -359.890285 0 120 255
205.370133 -224.563560 -360.172091 0 120 255
