ply
format ascii 1.0
element vertex 385
property float x
property float y
property float z
property uchar red
property uchar green
property uchar blue
end_header
77.430455 -42.474882 -360.397637 0 120 255
77.187500 -42.528723 -357.935403 0 120 255
76.944545 -42.582564 -355.473169 0 120 255
76.701590 -42.636405 -353.010936 0 120 255
76.458635 -42.690246 -350.548702 0 120 255
76.236106 -42.755950 -348.084831 0 120 255
76.014445 -42.822157 -345.620891 0 120 255
75.792783 -42.888365 -343.156950 0 120 255
75.571122 -42.954573 -340.693009 0 120 255
75.332339 -42.948805 -338.229888 0 120 255
75.091976 -42.936394 -335.766843 0 120 255
74.851613 -42.923983 -333.303798 0 120 255
74.611250 -42.911571 -330.840753 0 120 255
74.330969 -42.821088 -328.383799 0 120 255
74.044715 -42.718922 -325.927758 0 120 255
73.758460 -42.616756 -323.471716 0 120 255
73.472206 -42.514590 -321.015674 0 120 255
73.142749 -42.339910 -318.569467 0 120 255
72.804101 -42.149803 -316.125352 0 120 255
72.465452 -41.959695 -313.681238 0 120 255
72.126804 -41.769587 -311.237123 0 120 255
71.742007 -41.513074 -308.806330 0 120 255
71.344167 -41.237793 -306.379302 0 120 255
70.946327 -40.962512 -303.952274 0 120 255
70.548487 -40.687230 -301.525246 0 120 255
70.101995 -40.352098 -299.114726 0 120 255
69.637973 -39.995402 -296.710153 0 120 255
69.173951 -39.638705 -294.305580 0 120 255
68.709929 -39.282008 -291.901007 0 120 255
68.195283 -38.872352 -289.515787 0 120 255
67.658003 -38.439018 -287.139219 0 120 255
67.120723 -38.005683 -284.762652 0 120 255
66.583443 -37.572348 -282.386085 0 120 255
65.994174 -37.093156 -280.031349 0 120 255
65.376582 -36.588981 -277.688508 0 120 255
64.758989 -36.084806 -275.345666 0 120 255
64.141396 -35.580631 -273.002824 0 120 255
63.471141 -35.037793 -270.683895 0 120 255
62.766373 -34.469616 -268.380637 0 120 255
62.061604 -33.901439 -266.077379 0 120 255
61.356835 -33.333262 -263.774121 0 120 255
60.599459 -32.733576 -261.496441 0 120 255
59.800966 -32.109262 -259.238752 0 120 255
59.002473 -31.484948 -256.981062 0 120 255
58.203980 -30.860634 -254.723373 0 120 255
57.353694 -30.211787 -252.492494 0 120 255
56.455400 -29.540201 -250.286466 0 120 255
55.557106 -28.868615 -248.080437 0 120 255
54.658812 -28.197030 -245.874409 0 120 255
53.710305 -27.507581 -243.695977 0 120 255
52.706766 -26.798556 -241.547788 0 120 255
51.703227 -26.089530 -239.399600 0 120 255
50.699688 -25.380505 -237.251412 0 120 255
49.648268 -24.659846 -235.131145 0 120 255
48.534839 -23.924121 -233.047037 0 120 255
47.421410 -23.188397 -230.962929 0 120 255
46.307981 -22.452672 -228.878821 0 120 255
45.149705 -21.710973 -226.822494 0 120 255
43.922684 -20.960116 -224.808753 0 120 255
42.695663 -20.209260 -222.795012 0 120 255
41.468642 -19.458403 -220.781270 0 120 255
40.200450 -18.706545 -218.794694 0 120 255
38.857257 -17.952863 -216.857604 0 120 255
37.514064 -17.199182 -214.920515 0 120 255
36.170870 -16.445500 -212.983425 0 120 255
34.790727 -15.694992 -211.072409 0 120 255
33.330026 -14.951405 -209.218238 0 120 255
31.869325 -14.207818 -207.364067 0 120 255
30.408624 -13.464230 -205.509896 0 120 255
28.915628 -12.727104 -203.680227 0 120 255
27.337484 -12.007015 -201.915163 0 120 255
25.759339 -11.286926 -200.150098 0 120 255
24.181195 -10.566837 -198.385034 0 120 255
22.575707 -9.855530 -196.642430 0 120 255
20.881687 -9.172660 -194.972549 0 120 255
19.187666 -8.489790 -193.302668 0 120 255
17.493646 -7.806919 -191.632787 0 120 255
15.777375 -7.134134 -189.982862 0 120 255
13.970654 -6.502347 -188.414065 0 120 255
12.163932 -5.870560 -186.845269 0 120 255
10.357210 -5.238774 -185.276473 0 120 255
8.533306 -4.617326 -183.724683 0 120 255
6.618738 -4.050439 -182.262635 0 120 255
4.704169 -3.483551 -180.800586 0 120 255
2.789600 -2.916664 -179.338538 0 120 255
0.862713 -2.359319 -177.890127 0 120 255
-1.153140 -1.870889 -176.540202 0 120 255
-3.168993 -1.382459 -175.190278 0 120 255
-5.184845 -0.894030 -173.840354 0 120 255
-7.208540 -0.413321 -172.500308 0 120 255
-9.317377 -0.016436 -171.267503 0 120 255
-11.426214 0.380448 -170.034697 0 120 255
-13.535051 0.777332 -168.801892 0 120 255
-15.647825 1.169287 -167.574857 0 120 255
-17.839650 1.462234 -166.463729 0 120 255
-20.031475 1.755181 -165.352602 0 120 255
-22.223300 2.048129 -164.241474 0 120 255
-24.415900 2.339822 -163.131712 0 120 255
-26.679075 2.517355 -162.146298 0 120 255
-28.942250 2.694889 -161.160883 0 120 255
-31.205425 2.872422 -160.175469 0 120 255
-33.468600 3.049956 -159.190055 0 120 255
-35.788480 3.104921 -158.330539 0 120 255
-38.109837 3.156694 -157.474302 0 120 255
-40.431194 3.208467 -156.618065 0 120 255
-42.752551 3.260240 -155.761828 0 120 255
-45.114838 3.185508 -155.029450 0 120 255
-47.479800 3.102508 -154.305167 0 120 255
-49.844762 3.019509 -153.580884 0 120 255
-52.209724 2.936509 -152.856601 0 120 255
-54.599803 2.725054 -152.253346 0 120 255
-56.992581 2.499787 -151.663104 0 120 255
-59.385360 2.274521 -151.072861 0 120 255
-61.778139 2.049255 -150.482619 0 120 255
-64.180468 1.695544 -150.009775 0 120 255
-66.584257 1.322197 -149.554878 0 120 255
-68.988045 0.948850 -149.099981 0 120 255
-71.391834 0.575503 -148.645084 0 120 255
-73.790153 0.075619 -148.303197 0 120 255
-76.187368 -0.449809 -147.984122 0 120 255
-78.584582 -0.975237 -147.665048 0 120 255
-80.981796 -1.500666 -147.345973 0 120 255
-83.359350 -2.148938 -147.134821 0 120 255
-85.731889 -2.828541 -146.951192 0 120 255
-88.104428 -3.508144 -146.767564 0 120 255
-90.476967 -4.187747 -146.583935 0 120 255
-92.816745 -4.984868 -146.502536 0 120 255
-95.146269 -5.818773 -146.453136 0 120 255
-97.475793 -6.652679 -146.403735 0 120 255
-99.805317 -7.486584 -146.354335 0 120 255
-102.090303 -8.431230 -146.400911 0 120 255
-104.358520 -9.417573 -146.483625 0 120 255
-106.626736 -10.403915 -146.566340 0 120 255
-108.894953 -11.390258 -146.649054 0 120 255
-111.108373 -12.479337 -146.821057 0 120 255
-113.297323 -13.614294 -147.032933 0 120 255
-115.486273 -14.749250 -147.244810 0 120 255
-117.675224 -15.884206 -147.456686 0 120 255
-119.800792 -17.112907 -147.750818 0 120 255
-121.893134 -18.390751 -148.088072 0 120 255
-123.985475 -19.668596 -148.425327 0 120 255
-126.077817 -20.946440 -148.762581 0 120 255
-128.099974 -22.308311 -149.174830 0 120 255
-130.079248 -23.721523 -149.632900 0 120 255
-132.058521 -25.134735 -150.090970 0 120 255
-134.037795 -26.547947 -150.549040 0 120 255
-135.941927 -28.035009 -151.074722 0 120 255
-137.792808 -29.574407 -151.648318 0 120 255
-139.643689 -31.113806 -152.221915 0 120 255
-141.494570 -32.653204 -152.795511 0 120 255
-143.267202 -34.256096 -153.429339 0 120 255
-144.975702 -35.911027 -154.112531 0 120 255
-146.684202 -37.565958 -154.795723 0 120 255
-148.392702 -39.220889 -155.478915 0 120 255
-150.021668 -40.929031 -156.215064 0 120 255
-151.575337 -42.687550 -157.001351 0 120 255
-153.129006 -44.446069 -157.787637 0 120 255
-154.682674 -46.204587 -158.573923 0 120 255
-156.157259 -48.006364 -159.406104 0 120 255
-157.545315 -49.855472 -160.288500 0 120 255
-158.933371 -51.704579 -161.170897 0 120 255
-160.321426 -53.553687 -162.053293 0 120 255
-161.632467 -55.436650 -162.974831 0 120 255
-162.845913 -57.362515 -163.945970 0 120 255
-164.059360 -59.288380 -164.917109 0 120 255
-165.272807 -61.214245 -165.888248 0 120 255
-166.412766 -63.165317 -166.892169 0 120 255
-167.444456 -65.153526 -167.944387 0 120 255
-168.476146 -67.141734 -168.996605 0 120 255
-169.507835 -69.129943 -170.048823 0 120 255
-170.470838 -71.135626 -171.127935 0 120 255
-171.315481 -73.171418 -172.253390 0 120 255
-172.160124 -75.207210 -173.378845 0 120 255
-173.004767 -77.243002 -174.504300 0 120 255
-173.786601 -79.289581 -175.651284 0 120 255
-174.440780 -81.358084 -176.842026 0 120 255
-175.094958 -83.426587 -178.032768 0 120 255
-175.749137 -85.495090 -179.223509 0 120 255
-176.347238 -87.568837 -180.430985 0 120 255
-176.809333 -89.655301 -181.679047 0 120 255
-177.271427 -91.741765 -182.927108 0 120 255
-177.733522 -93.828229 -184.175170 0 120 255
-178.146908 -95.915590 -185.435770 0 120 255
-178.417038 -98.005589 -186.733250 0 120 255
-178.687168 -100.095588 -188.030729 0 120 255
-178.957297 -102.185588 -189.328209 0 120 255
-179.186496 -104.273354 -190.634653 0 120 255
-179.266367 -106.352976 -191.973799 0 120 255
-179.346238 -108.432598 -193.312946 0 120 255
-179.426110 -110.512220 -194.652093 0 120 255
-179.473036 -112.587683 -195.997248 0 120 255
-179.365865 -114.643695 -197.370511 0 120 255
-179.258694 -116.699707 -198.743773 0 120 255
-179.151524 -118.755719 -200.117036 0 120 255
-179.019398 -120.806807 -201.493964 0 120 255
-178.729724 -122.826810 -202.894034 0 120 255
-178.440051 -124.846814 -204.294105 0 120 255
-178.150377 -126.866817 -205.694175 0 120 255
-177.843566 -128.882218 -207.096166 0 120 255
-177.377112 -130.854748 -208.516047 0 120 255
-176.910657 -132.827279 -209.935928 0 120 255
-176.444203 -134.799810 -211.355810 0 120 255
-175.968098 -136.769056 -212.776436 0 120 255
-175.331586 -138.683691 -214.209455 0 120 255
-174.695074 -140.598327 -215.642475 0 120 255
-174.058561 -142.512962 -217.075494 0 120 255
-173.419423 -144.426511 -218.508623 0 120 255
-172.620412 -146.273930 -219.948464 0 120 255
-171.821401 -148.121350 -221.388306 0 120 255
-171.022390 -149.968769 -222.828148 0 120 255
-170.223379 -151.816188 -224.267989 0 120 255
-169.273939 -153.590094 -225.708694 0 120 255
-168.320671 -155.362128 -227.149421 0 120 255
-167.367402 -157.134163 -228.590147 0 120 255
-166.414134 -158.906198 -230.030874 0 120 255
-165.324966 -160.601309 -231.467224 0 120 255
-164.226170 -162.290970 -232.903265 0 120 255
-163.127374 -163.980632 -234.339305 0 120 255
-162.028578 -165.670293 -235.775346 0 120 255
-160.808063 -167.281289 -237.202583 0 120 255
-159.572832 -168.882774 -238.628756 0 120 255
-158.337600 -170.484259 -240.054929 0 120 255
-157.102369 -172.085744 -241.481102 0 120 255
-155.759057 -173.608334 -242.894809 0 120 255
-154.396682 -175.117008 -244.306317 0 120 255
-153.034306 -176.625683 -245.717826 0 120 255
-151.671930 -178.134357 -247.129334 0 120 255
-150.214424 -179.565273 -248.525408 0 120 255
-148.734258 -180.977668 -249.917804 0 120 255
-147.254092 -182.390063 -251.310201 0 120 255
-145.773926 -183.802458 -252.702598 0 120 255
-144.210793 -185.139401 -254.077282 0 120 255
-142.622153 -186.453149 -255.446520 0 120 255
-141.033513 -187.766896 -256.815758 0 120 255
-139.444874 -189.080643 -258.184996 0 120 255
-137.784539 -190.322267 -259.534828 0 120 255
-136.096565 -191.536086 -260.877179 0 120 255
-134.408591 -192.749906 -262.219530 0 120 255
-132.720617 -193.963726 -263.561881 0 120 255
-130.971286 -195.109576 -264.883702 0 120 255
-129.192859 -196.223197 -266.195788 0 120 255
-127.414433 -197.336817 -267.507874 0 120 255
-125.636006 -198.450437 -268.819960 0 120 255
-123.805612 -199.500904 -270.110925 0 120 255
-121.945299 -200.515013 -271.389728 0 120 255
-120.084986 -201.529122 -272.668532 0 120 255
-118.224673 -202.543231 -273.947336 0 120 255
-116.320808 -203.499504 -275.204878 0 120 255
-114.386752 -204.415687 -276.447681 0 120 255
-112.452697 -205.331870 -277.690484 0 120 255
-110.518642 -206.248053 -278.933286 0 120 255
-108.548503 -207.112066 -280.155108 0 120 255
-106.548399 -207.932755 -281.359506 0 120 255
-104.548294 -208.753443 -282.563903 0 120 255
-102.548190 -209.574131 -283.768301 0 120 255
-100.518561 -210.348509 -284.952388 0 120 255
-98.459612 -211.076894 -286.116304 0 120 255
-96.400662 -211.805280 -287.280221 0 120 255
-94.341712 -212.533666 -288.444137 0 120 255
-92.258923 -213.221656 -289.588742 0 120 255
-90.147795 -213.861627 -290.710390 0 120 255
-88.036667 -214.501598 -291.832039 0 120 255
-85.925539 -215.141570 -292.953687 0 120 255
-83.795445 -215.746994 -294.057317 0 120 255
-81.638260 -216.303071 -295.135210 0 120 255
-79.481075 -216.859148 -296.213102 0 120 255
-77.323890 -217.415225 -297.290994 0 120 255
-75.151872 -217.942421 -298.352423 0 120 255
-72.954212 -218.419691 -299.385391 0 120 255
-70.756551 -218.896961 -300.418358 0 120 255
-68.558890 -219.374231 -301.451326 0 120 255
-66.349857 -219.828005 -302.469601 0 120 255
-64.116761 -220.232062 -303.456788 0 120 255
-61.883664 -220.636118 -304.443975 0 120 255
-59.650567 -221.040175 -305.431162 0 120 255
-57.408958 -221.425740 -306.405598 0 120 255
-55.144922 -221.762596 -307.346443 0 120 255
-52.880886 -222.099452 -308.287288 0 120 255
-50.616850 -222.436307 -309.228134 0 120 255
-48.346637 -222.759228 -310.158300 0 120 255
-46.055647 -223.035282 -311.052549 0 120 255
-43.764658 -223.311337 -311.946798 0 120 255
-41.473668 -223.587391 -312.841047 0 120 255
-39.178386 -223.853540 -313.726781 0 120 255
-36.863947 -224.075478 -314.574502 0 120 255
-34.549507 -224.297416 -315.422224 0 120 255
-32.235067 -224.519354 -316.269946 0 120 255
-29.917840 -224.734845 -317.111361 0 120 255
-27.583010 -224.909625 -317.912950 0 120 255
-25.248181 -225.084405 -318.714538 0 120 255
-22.913351 -225.259185 -319.516126 0 120 255
-20.576922 -225.430356 -320.313616 0 120 255
-18.224352 -225.565126 -321.069775 0 120 255
-15.871783 -225.699895 -321.825933 0 120 255
-13.519214 -225.834665 -322.582091 0 120 255
-11.165956 -225.968278 -323.336225 0 120 255
-8.797598 -226.076516 -324.045931 0 120 255
-6.429239 -226.184753 -324.755638 0 120 255
-4.060881 -226.292991 -325.465345 0 120 255
-1.692523 -226.401229 -326.175051 0 120 255
0.689049 -226.495948 -326.841127 0 120 255
3.070667 -226.590620 -327.507049 0 120 255
5.452286 -226.685292 -328.172971 0 120 255
7.833904 -226.779964 -328.838893 0 120 255
10.226439 -226.866352 -329.465583 0 120 255
12.619556 -226.952299 -330.090183 0 120 255
15.012673 -227.038246 -330.714784 0 120 255
17.405789 -227.124194 -331.339384 0 120 255
19.807974 -227.207088 -331.928460 0 120 255
22.211137 -227.289653 -332.513705 0 120 255
24.614300 -227.372218 -333.098949 0 120 255
27.017463 -227.454783 -333.684193 0 120 255
29.427330 -227.538042 -334.240957 0 120 255
31.838334 -227.621418 -334.792890 0 120 255
34.249337 -227.704795 -335.344823 0 120 255
36.660341 -227.788172 -335.896756 0 120 255
39.076704 -227.872243 -336.424481 0 120 255
41.494354 -227.956480 -336.946397 0 120 255
43.912003 -228.040718 -337.468313 0 120 255
46.329652 -228.124955 -337.990230 0 120 255
48.752045 -228.209377 -338.489462 0 120 255
51.175957 -228.293857 -338.981431 0 120 255
53.599869 -228.378338 -339.473400 0 120 255
56.023781 -228.462819 -339.965370 0 120 255
58.451786 -228.546338 -340.436705 0 120 255
60.881480 -228.629459 -340.899521 0 120 255
63.311174 -228.712581 -341.362337 0 120 255
65.740868 -228.795703 -341.825152 0 120 255
68.174069 -228.873329 -342.269936 0 120 255
70.609096 -228.948096 -342.705338 0 120 255
73.044123 -229.022863 -343.140740 0 120 255
75.479150 -229.097631 -343.576141 0 120 255
77.917225 -229.162890 -343.995449 0 120 255
80.357265 -229.222021 -344.404385 0 120 255
82.797305 -229.281153 -344.813320 0 120 255
85.237345 -229.340285 -345.222256 0 120 255
87.679832 -229.389341 -345.617397 0 120 255
90.124253 -229.430434 -346.001637 0 120 255
92.568673 -229.471527 -346.385877 0 120 255
95.013094 -229.512621 -346.770117 0 120 255
97.459418 -229.543619 -347.142710 0 120 255
99.907577 -229.564885 -347.504075 0 120 255
102.355736 -229.586151 -347.865439 0 120 255
104.803896 -229.607417 -348.226804 0 120 255
107.253486 -229.618804 -348.578468 0 120 255
109.704759 -229.618582 -348.918735 0 120 255
112.156032 -229.618361 -349.259002 0 120 255
114.607305 -229.618140 -349.599269 0 120 255
117.059601 -229.608489 -349.931616 0 120 255
119.513364 -229.585298 -350.252592 0 120 255
121.967128 -229.562106 -350.573568 0 120 255
124.420892 -229.538915 -350.894544 0 120 255
126.875336 -229.506949 -351.209184 0 120 255
129.330979 -229.459478 -351.512631 0 120 255
131.786623 -229.412007 -351.816078 0 120 255
134.242267 -229.364536 -352.119524 0 120 255
136.698307 -229.309133 -352.418064 0 120 255
139.155220 -229.236271 -352.705803 0 120 255
141.612132 -229.163410 -352.993542 0 120 255
144.069044 -229.090548 -353.281281 0 120 255
146.526133 -229.010763 -353.565352 0 120 255
148.983717 -228.911633 -353.839174 0 120 255
151.441300 -228.812503 -354.112996 0 120 255
153.898883 -228.713373 -354.386818 0 120 255
156.356484 -228.608464 -354.658048 0 120 255
158.814149 -228.482429 -354.919804 0 120 255
161.271815 -228.356394 -355.181560 0 120 255
163.729480 -228.230359 -355.443315 0 120 255
166.186344 -228.094226 -355.706528 0 120 255
168.639187 -227.907410 -355.977053 0 120 255
171.092029 -227.720593 -356.247578 0 120 255
173.544872 -227.533776 -356.518103 0 120 255
175.997092 -227.341498 -356.790011 0 120 255
178.444847 -227.110009 -357.071845 0 120 255
180.892602 -226.878521 -357.353679 0 120 255
183.340356 -226.647032 -357.635513 0 120 255
185.788111 -226.415542 -357.917348 0 120 255
188.235863 -226.184043 -358.199195 0 120 255
190.683615 -225.952543 -358.481042 0 120 255
193.131367 -225.721043 -358.762888 0 120 255
195.579120 -225.489543 -359.044734 0 120 255
198.026873 -225.258048 -359.326574 0 120 255
200.474626 -225.026552 -359.608413 0 120 255
202.922380 -224.795056 -359.890252 0 120 255
205.370133 -224.563560 -360.172091 0 120 255
