ply
format ascii 1.0
element vertex 385
property float x
property float y
property float z
property uchar red
property uchar green
property uchar blue
end_header
77.430455 -42.474882 -360.397637 0 120 255
77.187556 -42.528710 -357.935971 0 120 255
76.944657 -42.582539 -355.474305 0 120 255
76.701758 -42.636368 -353.012639 0 120 255
76.458859 -42.690196 -350.550973 0 120 255
76.213364 -42.754219 -348.089809 0 120 255
75.967756 -42.818686 -345.628668 0 120 255
75.722147 -42.883153 -343.167526 0 120 255
75.476539 -42.947620 -340.706385 0 120 255
75.074229 -43.348745 -338.300954 0 120 255
74.657640 -43.780546 -335.900601 0 120 255
74.241051 -44.212348 -333.500247 0 120 255
73.824463 -44.644150 -331.099893 0 120 255
73.291147 -45.315596 -328.781499 0 120 255
72.740601 -46.022419 -326.475204 0 120 255
72.190055 -46.729242 -324.168909 0 120 255
71.639508 -47.436065 -321.862614 0 120 255
71.010899 -48.316160 -319.639339 0 120 255
70.365898 -49.232637 -317.433497 0 120 255
69.720898 -50.149113 -315.227654 0 120 255
69.075898 -51.065590 -313.021811 0 120 255
68.389000 -52.110914 -310.888604 0 120 255
67.690409 -53.192194 -308.775668 0 120 255
66.991818 -54.273475 -306.662731 0 120 255
66.293228 -55.354756 -304.549795 0 120 255
65.584083 -56.538628 -302.497440 0 120 255
64.871180 -57.759035 -300.466658 0 120 255
64.158277 -58.979442 -298.435877 0 120 255
63.445374 -60.199849 -296.405096 0 120 255
62.747115 -61.509222 -294.426493 0 120 255
62.055341 -62.857989 -292.470995 0 120 255
61.363566 -64.206756 -290.515496 0 120 255
60.671792 -65.555523 -288.559998 0 120 255
60.013295 -66.986778 -286.653693 0 120 255
59.372804 -68.462663 -284.774004 0 120 255
58.732313 -69.938548 -282.894315 0 120 255
58.091822 -71.414434 -281.014626 0 120 255
57.496919 -72.969114 -279.186066 0 120 255
56.931810 -74.575292 -277.390922 0 120 255
56.366701 -76.181469 -275.595777 0 120 255
55.801593 -77.787646 -273.800633 0 120 255
55.288872 -79.468768 -272.061780 0 120 255
54.817211 -81.208625 -270.367045 0 120 255
54.345549 -82.948483 -268.672310 0 120 255
53.873888 -84.688341 -266.977575 0 120 255
53.457047 -86.497531 -265.345463 0 120 255
53.091522 -88.371620 -263.771971 0 120 255
52.725997 -90.245709 -262.198478 0 120 255
52.360472 -92.119799 -260.624986 0 120 255
52.049073 -94.055376 -259.119807 0 120 255
51.798118 -96.059618 -257.690915 0 120 255
51.547163 -98.063860 -256.262023 0 120 255
51.296208 -100.068102 -254.833131 0 120 255
51.096718 -102.124005 -253.476240 0 120 255
50.965891 -104.248833 -252.215411 0 120 255
50.835064 -106.373660 -250.954582 0 120 255
50.704237 -108.498488 -249.693754 0 120 255
50.621200 -110.663846 -248.505798 0 120 255
50.614656 -112.894080 -247.434484 0 120 255
50.608112 -115.124313 -246.363170 0 120 255
50.601568 -117.354547 -245.291856 0 120 255
50.638746 -119.613750 -244.291189 0 120 255
50.760510 -121.929000 -243.427194 0 120 255
50.882274 -124.244251 -242.563199 0 120 255
51.004037 -126.559501 -241.699203 0 120 255
51.165415 -128.892600 -240.900634 0 120 255
51.420473 -131.267912 -240.256788 0 120 255
51.675532 -133.643223 -239.612942 0 120 255
51.930591 -136.018535 -238.969096 0 120 255
52.221162 -138.401799 -238.382866 0 120 255
52.616132 -140.808442 -237.966018 0 120 255
53.011103 -143.215086 -237.549170 0 120 255
53.406074 -145.621729 -237.132321 0 120 255
53.832322 -148.028303 -236.763305 0 120 255
54.375748 -150.434619 -236.573483 0 120 255
54.919175 -152.840934 -236.383661 0 120 255
55.462601 -155.247249 -236.193839 0 120 255
56.032669 -157.647854 -236.040866 0 120 255
56.734836 -160.020147 -236.070596 0 120 255
57.437002 -162.392441 -236.100327 0 120 255
58.139168 -164.764734 -236.130057 0 120 255
58.862650 -167.128410 -236.185342 0 120 255
59.734981 -169.431908 -236.419074 0 120 255
60.607312 -171.735407 -236.652806 0 120 255
61.479643 -174.038905 -236.886538 0 120 255
62.367051 -176.333808 -237.135204 0 120 255
63.421026 -178.533745 -237.548856 0 120 255
64.475002 -180.733682 -237.962508 0 120 255
65.528977 -182.933620 -238.376160 0 120 255
66.590826 -185.127928 -238.795855 0 120 255
67.836583 -187.190755 -239.356688 0 120 255
69.082339 -189.253582 -239.917521 0 120 255
70.328096 -191.316409 -240.478354 0 120 255
71.573852 -193.379235 -241.039187 0 120 255
73.018286 -195.274168 -241.705889 0 120 255
74.462838 -197.169001 -242.372654 0 120 255
75.907390 -199.063833 -243.039419 0 120 255
77.351942 -200.958666 -243.706184 0 120 255
78.988929 -202.666995 -244.427506 0 120 255
80.634344 -204.367157 -245.151216 0 120 255
82.279759 -206.067319 -245.874926 0 120 255
83.925174 -207.767481 -246.598637 0 120 255
85.750381 -209.270142 -247.323804 0 120 255
87.591869 -210.754918 -248.049103 0 120 255
89.433357 -212.239693 -248.774402 0 120 255
91.274846 -213.724469 -249.499701 0 120 255
93.276603 -215.009010 -250.174204 0 120 255
95.301023 -216.265236 -250.841524 0 120 255
97.325443 -217.521461 -251.508844 0 120 255
99.349864 -218.777687 -252.176164 0 120 255
101.508269 -219.839501 -252.744153 0 120 255
103.693064 -220.863024 -253.292578 0 120 255
105.877858 -221.886547 -253.841003 0 120 255
108.062653 -222.910070 -254.389427 0 120 255
110.349310 -223.753234 -254.796559 0 120 255
112.662242 -224.549875 -255.167243 0 120 255
114.975174 -225.346515 -255.537928 0 120 255
117.288106 -226.143155 -255.908612 0 120 255
119.666556 -226.780773 -256.105136 0 120 255
122.066322 -227.366659 -256.245002 0 120 255
124.466087 -227.952545 -256.384868 0 120 255
126.865852 -228.538430 -256.524734 0 120 255
129.292768 -228.992264 -256.468561 0 120 255
131.730550 -229.393250 -256.333931 0 120 255
134.168333 -229.794235 -256.199301 0 120 255
136.606115 -230.195221 -256.064670 0 120 255
139.033115 -230.494717 -255.723980 0 120 255
141.454896 -230.745083 -255.283537 0 120 255
143.876678 -230.995450 -254.843095 0 120 255
146.298459 -231.245816 -254.402652 0 120 255
148.674394 -231.427180 -253.757966 0 120 255
151.023795 -231.568607 -252.995070 0 120 255
153.373196 -231.710035 -252.232174 0 120 255
155.722597 -231.851462 -251.469278 0 120 255
157.996295 -231.954671 -250.514722 0 120 255
160.217999 -232.031631 -249.428535 0 120 255
162.439704 -232.108590 -248.342347 0 120 255
164.661408 -232.185550 -247.256160 0 120 255
166.783157 -232.245578 -245.997648 0 120 255
168.823827 -232.291870 -244.599356 0 120 255
170.864496 -232.338163 -243.201063 0 120 255
172.905166 -232.384455 -241.802771 0 120 255
174.827014 -232.419052 -240.256061 0 120 255
176.635268 -232.442466 -238.567462 0 120 255
178.443522 -232.465880 -236.878863 0 120 255
180.251776 -232.489295 -235.190264 0 120 255
181.928697 -232.504734 -233.380986 0 120 255
183.457675 -232.511190 -231.435766 0 120 255
184.986653 -232.517646 -229.490545 0 120 255
186.515631 -232.524101 -227.545325 0 120 255
187.907948 -232.526455 -225.508855 0 120 255
189.118517 -232.523354 -223.351030 0 120 255
190.329086 -232.520253 -221.193204 0 120 255
191.539655 -232.517151 -219.035379 0 120 255
192.615172 -232.512345 -216.815018 0 120 255
193.477710 -232.504849 -214.496038 0 120 255
194.340247 -232.497353 -212.177057 0 120 255
195.202784 -232.489858 -209.858077 0 120 255
195.938053 -232.481884 -207.502657 0 120 255
196.433586 -232.473008 -205.078598 0 120 255
196.929120 -232.464132 -202.654538 0 120 255
197.424653 -232.455256 -200.230479 0 120 255
197.805664 -232.446294 -197.792007 0 120 255
197.926205 -232.437135 -195.320755 0 120 255
198.046746 -232.427975 -192.849504 0 120 255
198.167286 -232.418816 -190.378253 0 120 255
198.189556 -232.409462 -187.909618 0 120 255
197.937732 -232.399566 -185.448280 0 120 255
197.685907 -232.389670 -182.986942 0 120 255
197.434083 -232.379774 -180.525605 0 120 255
197.102200 -232.369366 -178.078501 0 120 255
196.490276 -232.357171 -175.681191 0 120 255
195.878352 -232.344975 -173.283881 0 120 255
195.266428 -232.332780 -170.886570 0 120 255
194.593176 -232.319769 -168.509747 0 120 255
193.641722 -232.303056 -166.225857 0 120 255
192.690268 -232.286343 -163.941967 0 120 255
191.738814 -232.269630 -161.658077 0 120 255
190.744011 -232.251949 -159.395966 0 120 255
189.480305 -232.228265 -157.268953 0 120 255
188.216599 -232.204582 -155.141940 0 120 255
186.952893 -232.180898 -153.014927 0 120 255
185.662050 -232.156322 -150.906690 0 120 255
184.118410 -232.123422 -148.973353 0 120 255
182.574770 -232.090522 -147.040017 0 120 255
181.031130 -232.057622 -145.106680 0 120 255
179.474068 -232.024120 -143.185630 0 120 255
177.686249 -231.980268 -141.475812 0 120 255
175.898430 -231.936415 -139.765994 0 120 255
174.110611 -231.892562 -138.056177 0 120 255
172.320120 -231.848556 -136.349548 0 120 255
170.325800 -231.792833 -134.886236 0 120 255
168.331480 -231.737110 -133.422925 0 120 255
166.337160 -231.681387 -131.959614 0 120 255
164.342841 -231.625664 -130.496302 0 120 255
162.185257 -231.558486 -129.288306 0 120 255
160.022768 -231.490964 -128.087982 0 120 255
157.860279 -231.423442 -126.887658 0 120 255
155.697790 -231.355920 -125.687333 0 120 255
153.414351 -231.278569 -124.741006 0 120 255
151.121621 -231.200462 -123.814192 0 120 255
148.828891 -231.122356 -122.887378 0 120 255
146.536160 -231.044249 -121.960564 0 120 255
144.160510 -230.958951 -121.280861 0 120 255
141.774236 -230.872731 -120.632817 0 120 255
139.387963 -230.786511 -119.984773 0 120 255
137.001689 -230.700291 -119.336728 0 120 255
134.565897 -230.610556 -118.924622 0 120 255
132.120964 -230.520171 -118.556069 0 120 255
129.676031 -230.429786 -118.187517 0 120 255
127.231099 -230.339401 -117.818964 0 120 255
124.765394 -230.248870 -117.672186 0 120 255
122.294557 -230.158302 -117.580191 0 120 255
119.823721 -230.067735 -117.488196 0 120 255
117.352885 -229.977167 -117.396201 0 120 255
114.885612 -229.887621 -117.509687 0 120 255
112.419466 -229.798399 -117.688180 0 120 255
109.953320 -229.709176 -117.866673 0 120 255
107.487173 -229.619954 -118.045166 0 120 255
105.044682 -229.532338 -118.411430 0 120 255
102.611506 -229.445355 -118.851642 0 120 255
100.178330 -229.358372 -119.291854 0 120 255
97.745155 -229.271389 -119.732066 0 120 255
95.351756 -229.186489 -120.341638 0 120 255
92.977487 -229.102592 -121.032655 0 120 255
90.603218 -229.018694 -121.723672 0 120 255
88.228949 -228.934796 -122.414689 0 120 255
85.906949 -228.853349 -123.256483 0 120 255
83.615242 -228.773321 -124.185661 0 120 255
81.323535 -228.693294 -125.114838 0 120 255
79.031828 -228.613267 -126.044016 0 120 255
76.801628 -228.535964 -127.105692 0 120 255
74.614006 -228.460548 -128.259086 0 120 255
72.426383 -228.385131 -129.412480 0 120 255
70.238761 -228.309714 -130.565873 0 120 255
68.118967 -228.237187 -131.834056 0 120 255
66.054932 -228.167036 -133.196604 0 120 255
63.990897 -228.096884 -134.559151 0 120 255
61.926861 -228.026733 -135.921698 0 120 255
59.934373 -227.959552 -137.382129 0 120 255
58.011527 -227.895262 -138.937837 0 120 255
56.088681 -227.830973 -140.493545 0 120 255
54.165835 -227.766683 -142.049252 0 120 255
52.315966 -227.705359 -143.686944 0 120 255
50.550160 -227.647451 -145.419073 0 120 255
48.784353 -227.589542 -147.151202 0 120 255
47.018547 -227.531634 -148.883331 0 120 255
45.325104 -227.476610 -150.682662 0 120 255
43.730490 -227.425526 -152.573771 0 120 255
42.135875 -227.374442 -154.464880 0 120 255
40.541261 -227.323359 -156.355989 0 120 255
39.016576 -227.275022 -158.300738 0 120 255
37.605625 -227.231154 -160.332730 0 120 255
36.194675 -227.187286 -162.364722 0 120 255
34.783724 -227.143417 -164.396714 0 120 255
33.438664 -227.102103 -166.470110 0 120 255
32.222183 -227.065771 -168.624304 0 120 255
31.005702 -227.029439 -170.778498 0 120 255
29.789222 -226.993107 -172.932692 0 120 255
28.633197 -226.959093 -175.117472 0 120 255
27.620309 -226.930566 -177.374670 0 120 255
26.607421 -226.902038 -179.631868 0 120 255
25.594533 -226.873511 -181.889066 0 120 255
24.635446 -226.847025 -184.167522 0 120 255
23.833458 -226.826500 -186.508054 0 120 255
23.031470 -226.805975 -188.848586 0 120 255
22.229482 -226.785449 -191.189119 0 120 255
21.473639 -226.766652 -193.543159 0 120 255
20.888002 -226.754231 -195.947025 0 120 255
20.302365 -226.741809 -198.350891 0 120 255
19.716728 -226.729388 -200.754757 0 120 255
19.168804 -226.718370 -203.166025 0 120 255
18.803064 -226.714129 -205.613046 0 120 255
18.437323 -226.709887 -208.060067 0 120 255
18.071583 -226.705646 -210.507088 0 120 255
17.734573 -226.702460 -212.957090 0 120 255
17.590263 -226.706347 -215.427081 0 120 255
17.445952 -226.710234 -217.897072 0 120 255
17.301642 -226.714121 -220.367064 0 120 255
17.176781 -226.718716 -222.837319 0 120 255
17.253418 -226.730643 -225.310309 0 120 255
17.330055 -226.742570 -227.783300 0 120 255
17.406692 -226.754497 -230.256290 0 120 255
17.493445 -226.766790 -232.728515 0 120 255
17.788545 -226.786616 -235.184980 0 120 255
18.083644 -226.806442 -237.641445 0 120 255
18.378744 -226.826268 -240.097910 0 120 255
18.674828 -226.846130 -242.554212 0 120 255
19.184000 -226.873614 -244.975304 0 120 255
19.693171 -226.901098 -247.396396 0 120 255
20.202343 -226.928583 -249.817488 0 120 255
20.711514 -226.956067 -252.238580 0 120 255
21.420752 -226.990640 -254.608356 0 120 255
22.137698 -227.025487 -256.976155 0 120 255
22.854645 -227.060333 -259.343953 0 120 255
23.571591 -227.095179 -261.711752 0 120 255
24.472493 -227.136503 -264.015035 0 120 255
25.389125 -227.178380 -266.312801 0 120 255
26.305757 -227.220258 -268.610567 0 120 255
27.222389 -227.262135 -270.908333 0 120 255
28.306152 -227.309811 -273.131007 0 120 255
29.412806 -227.358280 -275.343396 0 120 255
30.519460 -227.406750 -277.555785 0 120 255
31.626114 -227.455220 -279.768174 0 120 255
32.882782 -227.508838 -281.897472 0 120 255
34.168491 -227.563453 -284.010684 0 120 255
35.454201 -227.618068 -286.123896 0 120 255
36.739910 -227.672683 -288.237108 0 120 255
38.158491 -227.731811 -290.261780 0 120 255
39.611106 -227.792095 -292.263771 0 120 255
41.063722 -227.852379 -294.265763 0 120 255
42.516338 -227.912663 -296.267754 0 120 255
44.085011 -227.976833 -298.178179 0 120 255
45.691483 -228.042269 -300.058781 0 120 255
47.297955 -228.107704 -301.939383 0 120 255
48.904427 -228.173140 -303.819985 0 120 255
50.610792 -228.241889 -305.608228 0 120 255
52.357455 -228.311974 -307.359215 0 120 255
54.104118 -228.382059 -309.110201 0 120 255
55.850781 -228.452144 -310.861188 0 120 255
57.682105 -228.525022 -312.521019 0 120 255
59.554983 -228.599272 -314.136108 0 120 255
61.427861 -228.673522 -315.751197 0 120 255
63.300739 -228.747771 -317.366285 0 120 255
65.244187 -228.824464 -318.893141 0 120 255
67.229271 -228.902599 -320.367941 0 120 255
69.214355 -228.980733 -321.842741 0 120 255
71.199438 -229.058868 -323.317541 0 120 255
73.242246 -229.138979 -324.708560 0 120 255
75.325653 -229.220480 -326.040652 0 120 255
77.409059 -229.301981 -327.372745 0 120 255
79.492466 -229.383482 -328.704838 0 120 255
81.621954 -229.465533 -329.959205 0 120 255
83.789880 -229.548043 -331.148736 0 120 255
85.957807 -229.630552 -332.338267 0 120 255
88.125733 -229.713062 -333.527799 0 120 255
90.328947 -229.790282 -334.648347 0 120 255
92.566985 -229.862283 -335.700820 0 120 255
94.805023 -229.934285 -336.753294 0 120 255
97.043060 -230.006286 -337.805767 0 120 255
99.307419 -230.068253 -338.798459 0 120 255
101.602509 -230.118504 -339.721354 0 120 255
103.897598 -230.168755 -340.644250 0 120 255
106.192687 -230.219006 -341.567146 0 120 255
108.506867 -230.256484 -342.439248 0 120 255
110.847478 -230.276277 -343.241025 0 120 255
113.188089 -230.296071 -344.042802 0 120 255
115.528700 -230.315864 -344.844578 0 120 255
117.882661 -230.321687 -345.604169 0 120 255
120.258649 -230.304462 -346.294156 0 120 255
122.634636 -230.287236 -346.984143 0 120 255
125.010624 -230.270010 -347.674130 0 120 255
127.395527 -230.238902 -348.329963 0 120 255
129.798099 -230.180279 -348.918102 0 120 255
132.200672 -230.121656 -349.506240 0 120 255
134.603244 -230.063033 -350.094378 0 120 255
137.011425 -229.991643 -350.655679 0 120 255
139.433123 -229.889490 -351.152311 0 120 255
141.854820 -229.787337 -351.648944 0 120 255
144.276517 -229.685184 -352.145577 0 120 255
146.701479 -229.572127 -352.621873 0 120 255
149.136169 -229.426567 -353.037554 0 120 255
151.570860 -229.281007 -353.453236 0 120 255
154.005551 -229.135448 -353.868917 0 120 255
156.441951 -228.981297 -354.269890 0 120 255
158.884818 -228.794655 -354.615235 0 120 255
161.327685 -228.608013 -354.960580 0 120 255
163.770552 -228.421371 -355.305924 0 120 255
166.214180 -228.228875 -355.641606 0 120 255
168.661609 -228.007175 -355.929080 0 120 255
171.109037 -227.785475 -356.216555 0 120 255
173.556465 -227.563775 -356.504029 0 120 255
176.003863 -227.340858 -356.790790 0 120 255
178.451054 -227.109422 -357.072560 0 120 255
180.898244 -226.877987 -357.354329 0 120 255
183.345435 -226.646552 -357.636098 0 120 255
185.792625 -226.415115 -357.917868 0 120 255
188.239813 -226.183669 -358.199650 0 120 255
190.687001 -225.952223 -358.481431 0 120 255
193.134189 -225.720776 -358.763213 0 120 255
195.581377 -225.489330 -359.044994 0 120 255
198.028566 -225.257887 -359.326768 0 120 255
200.475755 -225.026445 -359.608543 0 120 255
202.922944 -224.795003 -359.890317 0 120 255
205.370133 -224.563560 -360.172091 0 120 255
