ply
format ascii 1.0
element vertex 385
property float x
property float y
property float z
property uchar red
property uchar green
property uchar blue
end_header
77.430455 -42.474882 -360.397637 0 120 255
77.187568 -42.528708 -357.936084 0 120 255
76.944680 -42.582534 -355.474532 0 120 255
76.701792 -42.636360 -353.012979 0 120 255
76.458904 -42.690186 -350.551427 0 120 255
76.213229 -42.753214 -348.090370 0 120 255
75.967432 -42.816644 -345.629336 0 120 255
75.721635 -42.880074 -343.168301 0 120 255
75.475838 -42.943504 -340.707266 0 120 255
75.109969 -43.335616 -338.294366 0 120 255
74.733098 -43.757842 -335.885875 0 120 255
74.356228 -44.180068 -333.477385 0 120 255
73.979357 -44.602294 -331.068894 0 120 255
73.519808 -45.270518 -328.733801 0 120 255
73.048027 -45.975137 -326.409566 0 120 255
72.576246 -46.679755 -324.085331 0 120 255
72.104465 -47.384374 -321.761097 0 120 255
71.582843 -48.280122 -319.516740 0 120 255
71.050744 -49.216046 -317.289175 0 120 255
70.518645 -50.151971 -315.061609 0 120 255
69.986546 -51.087896 -312.834044 0 120 255
69.432839 -52.177329 -310.684801 0 120 255
68.873095 -53.309652 -308.557440 0 120 255
68.313351 -54.441974 -306.430079 0 120 255
67.753607 -55.574297 -304.302718 0 120 255
67.194772 -56.835320 -302.250714 0 120 255
66.636260 -58.142253 -300.225591 0 120 255
66.077748 -59.449187 -298.200468 0 120 255
65.519237 -60.756120 -296.175346 0 120 255
64.978317 -62.175061 -294.224189 0 120 255
64.445205 -63.643716 -292.305863 0 120 255
63.912093 -65.112371 -290.387537 0 120 255
63.378982 -66.581027 -288.469211 0 120 255
62.874887 -68.149245 -286.625616 0 120 255
62.386542 -69.771506 -284.822585 0 120 255
61.898197 -71.393766 -283.019553 0 120 255
61.409852 -73.016027 -281.216522 0 120 255
60.957650 -74.727000 -279.490454 0 120 255
60.529160 -76.496172 -277.814877 0 120 255
60.100670 -78.265344 -276.139300 0 120 255
59.672180 -80.034516 -274.463723 0 120 255
59.283723 -81.881677 -272.867729 0 120 255
58.926775 -83.790221 -271.334374 0 120 255
58.569827 -85.698765 -269.801018 0 120 255
58.212879 -87.607309 -268.267662 0 120 255
57.897655 -89.582607 -266.815803 0 120 255
57.621662 -91.620672 -265.440576 0 120 255
57.345670 -93.658737 -264.065348 0 120 255
57.069678 -95.696802 -262.690121 0 120 255
56.835762 -97.789839 -261.396786 0 120 255
56.649044 -99.944536 -260.195309 0 120 255
56.462325 -102.099234 -258.993832 0 120 255
56.275606 -104.253931 -257.792354 0 120 255
56.130585 -106.451561 -256.671154 0 120 255
56.041429 -108.706710 -255.657504 0 120 255
55.952273 -110.961859 -254.643854 0 120 255
55.863117 -113.217008 -253.630203 0 120 255
55.814913 -115.503243 -252.693031 0 120 255
55.832501 -117.839422 -251.878728 0 120 255
55.850090 -120.175601 -251.064424 0 120 255
55.867679 -122.511780 -250.250121 0 120 255
55.925215 -124.867850 -249.506311 0 120 255
56.060264 -127.262512 -248.899282 0 120 255
56.195312 -129.657175 -248.292252 0 120 255
56.330360 -132.051837 -247.685222 0 120 255
56.504003 -134.456316 -247.140774 0 120 255
56.769099 -136.884054 -246.744614 0 120 255
57.034195 -139.311793 -246.348454 0 120 255
57.299291 -141.739531 -245.952294 0 120 255
57.601032 -144.168551 -245.609221 0 120 255
58.010568 -146.601343 -245.422306 0 120 255
58.420105 -149.034135 -245.235391 0 120 255
58.829641 -151.466926 -245.048476 0 120 255
59.272976 -153.894392 -244.904089 0 120 255
59.842759 -156.301935 -244.918801 0 120 255
60.412541 -158.709478 -244.933514 0 120 255
60.982324 -161.117021 -244.948227 0 120 255
61.581847 -163.514902 -244.994466 0 120 255
62.328212 -165.865074 -245.196365 0 120 255
63.074577 -168.215245 -245.398265 0 120 255
63.820943 -170.565417 -245.600164 0 120 255
64.591571 -172.904145 -245.822924 0 120 255
65.530150 -175.163659 -246.190077 0 120 255
66.468728 -177.423172 -246.557230 0 120 255
67.407307 -179.682685 -246.924384 0 120 255
68.363213 -181.931729 -247.302949 0 120 255
69.507252 -184.067106 -247.805417 0 120 255
70.651292 -186.202482 -248.307885 0 120 255
71.795331 -188.337858 -248.810353 0 120 255
72.948538 -190.466544 -249.316979 0 120 255
74.307049 -192.445403 -249.916727 0 120 255
75.665561 -194.424261 -250.516475 0 120 255
77.024073 -196.403119 -251.116223 0 120 255
78.382896 -198.381711 -251.716045 0 120 255
79.958593 -200.174484 -252.367410 0 120 255
81.534289 -201.967257 -253.018775 0 120 255
83.109985 -203.760031 -253.670141 0 120 255
84.685681 -205.552804 -254.321506 0 120 255
86.464770 -207.143034 -254.972464 0 120 255
88.252250 -208.724907 -255.623405 0 120 255
90.039730 -210.306780 -256.274347 0 120 255
91.827210 -211.888653 -256.925288 0 120 255
93.795632 -213.260155 -257.523997 0 120 255
95.779888 -214.613247 -258.118136 0 120 255
97.764145 -215.966339 -258.712274 0 120 255
99.748401 -217.319431 -259.306412 0 120 255
101.883396 -218.463528 -259.799789 0 120 255
104.039170 -219.578813 -260.279276 0 120 255
106.194944 -220.694099 -260.758763 0 120 255
108.350718 -221.809385 -261.238250 0 120 255
110.620648 -222.726570 -261.574851 0 120 255
112.912599 -223.605538 -261.883887 0 120 255
115.204551 -224.484507 -262.192924 0 120 255
117.496503 -225.363476 -262.501960 0 120 255
119.861939 -226.064089 -262.635011 0 120 255
122.246002 -226.719490 -262.723452 0 120 255
124.630066 -227.374891 -262.811892 0 120 255
127.014130 -228.030292 -262.900332 0 120 255
129.429634 -228.534538 -262.790785 0 120 255
131.855217 -228.990329 -262.617769 0 120 255
134.280800 -229.446120 -262.444754 0 120 255
136.706382 -229.901911 -262.271739 0 120 255
139.122911 -230.238928 -261.890663 0 120 255
141.535862 -230.528996 -261.427344 0 120 255
143.948812 -230.819063 -260.964026 0 120 255
146.361762 -231.109131 -260.500707 0 120 255
148.729321 -231.315409 -259.831014 0 120 255
151.075130 -231.481539 -259.062436 0 120 255
153.420939 -231.647669 -258.293859 0 120 255
155.766749 -231.813799 -257.525281 0 120 255
158.037082 -231.932469 -256.562743 0 120 255
160.264092 -232.023896 -255.488872 0 120 255
162.491102 -232.115324 -254.415001 0 120 255
164.718112 -232.206751 -253.341130 0 120 255
166.847298 -232.283362 -252.094247 0 120 255
168.909714 -232.349859 -250.729274 0 120 255
170.972129 -232.416356 -249.364301 0 120 255
173.034545 -232.482853 -247.999328 0 120 255
174.981116 -232.540793 -246.483008 0 120 255
176.834081 -232.591820 -244.844396 0 120 255
178.687047 -232.642847 -243.205785 0 120 255
180.540013 -232.693874 -241.567174 0 120 255
182.263795 -232.737793 -239.801818 0 120 255
183.864328 -232.774931 -237.915540 0 120 255
185.464861 -232.812070 -236.029261 0 120 255
187.065394 -232.849208 -234.142982 0 120 255
188.529496 -232.881237 -232.156951 0 120 255
189.839979 -232.907513 -230.058601 0 120 255
191.150462 -232.933789 -227.960250 0 120 255
192.460945 -232.960066 -225.861899 0 120 255
193.634028 -232.982747 -223.691103 0 120 255
194.624189 -233.000643 -221.423859 0 120 255
195.614350 -233.018538 -219.156616 0 120 255
196.604511 -233.036434 -216.889373 0 120 255
197.462120 -233.051500 -214.575463 0 120 255
198.110171 -233.062094 -212.187776 0 120 255
198.758223 -233.072688 -209.800089 0 120 255
199.406274 -233.083282 -207.412402 0 120 255
199.931628 -233.091328 -205.000864 0 120 255
200.224972 -233.094556 -202.544226 0 120 255
200.518316 -233.097783 -200.087587 0 120 255
200.811660 -233.101011 -197.630949 0 120 255
200.996071 -233.101739 -195.169258 0 120 255
200.931439 -233.096753 -192.696016 0 120 255
200.866806 -233.091767 -190.222773 0 120 255
200.802174 -233.086780 -187.749530 0 120 255
200.645017 -233.079304 -185.285368 0 120 255
200.228085 -233.064837 -182.846703 0 120 255
199.811153 -233.050370 -180.408037 0 120 255
199.394222 -233.035902 -177.969371 0 120 255
198.902526 -233.019051 -175.549007 0 120 255
198.147098 -232.993789 -173.193200 0 120 255
197.391670 -232.968527 -170.837394 0 120 255
196.636242 -232.943265 -168.481588 0 120 255
195.823937 -232.915891 -166.148495 0 120 255
194.750844 -232.878831 -163.919542 0 120 255
193.677751 -232.841771 -161.690589 0 120 255
192.604658 -232.804711 -159.461637 0 120 255
191.491641 -232.765973 -157.255388 0 120 255
190.127451 -232.716678 -155.191971 0 120 255
188.763261 -232.667382 -153.128555 0 120 255
187.399070 -232.618087 -151.065139 0 120 255
186.010111 -232.567666 -149.020597 0 120 255
184.385706 -232.506548 -147.155468 0 120 255
182.761301 -232.445430 -145.290339 0 120 255
181.136896 -232.384312 -143.425210 0 120 255
179.500459 -232.322638 -141.572031 0 120 255
177.649685 -232.251074 -139.931713 0 120 255
175.798910 -232.179510 -138.291394 0 120 255
173.948136 -232.107946 -136.651075 0 120 255
172.095251 -232.036295 -135.013468 0 120 255
170.053643 -231.956890 -133.618239 0 120 255
168.012035 -231.877486 -132.223010 0 120 255
165.970428 -231.798081 -130.827780 0 120 255
163.928820 -231.718677 -129.432551 0 120 255
161.737068 -231.634464 -128.289089 0 120 255
159.540500 -231.550098 -127.153702 0 120 255
157.343931 -231.465731 -126.018316 0 120 255
155.147363 -231.381365 -124.882929 0 120 255
152.839999 -231.294013 -123.997686 0 120 255
150.523880 -231.206425 -123.132208 0 120 255
148.207761 -231.118837 -122.266729 0 120 255
145.891641 -231.031249 -121.401251 0 120 255
143.500425 -230.941862 -120.779358 0 120 255
141.099414 -230.852240 -120.189233 0 120 255
138.698403 -230.762618 -119.599108 0 120 255
136.297393 -230.672996 -119.008983 0 120 255
133.853051 -230.582666 -118.651657 0 120 255
131.400608 -230.492203 -118.337853 0 120 255
128.948165 -230.401741 -118.024050 0 120 255
126.495722 -230.311278 -117.710246 0 120 255
124.027530 -230.221049 -117.615384 0 120 255
121.555409 -230.130877 -117.575137 0 120 255
119.083289 -230.040706 -117.534891 0 120 255
116.611168 -229.950535 -117.494644 0 120 255
114.146699 -229.861379 -117.657243 0 120 255
111.684671 -229.772546 -117.884528 0 120 255
109.222643 -229.683714 -118.111813 0 120 255
106.760615 -229.594882 -118.339097 0 120 255
104.325550 -229.507722 -118.751543 0 120 255
101.901176 -229.421226 -119.237403 0 120 255
99.476802 -229.334729 -119.723264 0 120 255
97.052428 -229.248233 -120.209124 0 120 255
94.670472 -229.163886 -120.861788 0 120 255
92.309037 -229.080580 -121.595147 0 120 255
89.947601 -228.997274 -122.328507 0 120 255
87.586166 -228.913968 -123.061866 0 120 255
85.278994 -228.833177 -123.943373 0 120 255
83.003438 -228.753853 -124.911198 0 120 255
80.727882 -228.674528 -125.879022 0 120 255
78.452326 -228.595203 -126.846847 0 120 255
76.239621 -228.518651 -127.944454 0 120 255
74.070636 -228.444027 -129.132336 0 120 255
71.901650 -228.369402 -130.320218 0 120 255
69.732664 -228.294778 -131.508100 0 120 255
67.632199 -228.223068 -132.808017 0 120 255
65.588320 -228.153766 -134.200458 0 120 255
63.544442 -228.084464 -135.592898 0 120 255
61.500564 -228.015161 -136.985339 0 120 255
59.528340 -227.948822 -138.473011 0 120 255
57.626170 -227.885379 -140.053789 0 120 255
55.724001 -227.821936 -141.634566 0 120 255
53.821831 -227.758493 -143.215344 0 120 255
51.992213 -227.697990 -144.875631 0 120 255
50.246530 -227.640890 -146.627905 0 120 255
48.500846 -227.583790 -148.380178 0 120 255
46.755163 -227.526689 -150.132451 0 120 255
45.080988 -227.472431 -151.949730 0 120 255
43.504906 -227.422072 -153.856183 0 120 255
41.928825 -227.371714 -155.762636 0 120 255
40.352744 -227.321355 -157.669090 0 120 255
38.845423 -227.273701 -159.627335 0 120 255
37.450455 -227.230466 -161.670207 0 120 255
36.055486 -227.187232 -163.713079 0 120 255
34.660518 -227.143998 -165.755951 0 120 255
33.330106 -227.103260 -167.838776 0 120 255
32.126296 -227.067420 -169.999954 0 120 255
30.922487 -227.031579 -172.161132 0 120 255
29.718677 -226.995738 -174.322310 0 120 255
28.573909 -226.962158 -176.513001 0 120 255
27.569702 -226.933957 -178.773953 0 120 255
26.565494 -226.905757 -181.034905 0 120 255
25.561286 -226.877556 -183.295856 0 120 255
24.609500 -226.851341 -185.577352 0 120 255
23.811749 -226.830960 -187.919212 0 120 255
23.013998 -226.810579 -190.261073 0 120 255
22.216248 -226.790198 -192.602933 0 120 255
21.463372 -226.771504 -194.957892 0 120 255
20.877238 -226.759074 -197.361519 0 120 255
20.291103 -226.746645 -199.765146 0 120 255
19.704969 -226.734216 -202.168774 0 120 255
19.155455 -226.723147 -204.579633 0 120 255
18.784444 -226.718710 -207.025745 0 120 255
18.413432 -226.714274 -209.471856 0 120 255
18.042420 -226.709837 -211.917968 0 120 255
17.699283 -226.706427 -214.367057 0 120 255
17.545277 -226.709980 -216.836349 0 120 255
17.391271 -226.713534 -219.305641 0 120 255
17.237265 -226.717087 -221.774933 0 120 255
17.102076 -226.721327 -224.244568 0 120 255
17.165153 -226.732809 -226.717830 0 120 255
17.228231 -226.744291 -229.191091 0 120 255
17.291309 -226.755773 -231.664352 0 120 255
17.364071 -226.767605 -234.136940 0 120 255
17.642625 -226.786864 -236.595226 0 120 255
17.921178 -226.806124 -239.053512 0 120 255
18.199732 -226.825384 -241.511798 0 120 255
18.478971 -226.844668 -243.969975 0 120 255
18.969593 -226.871508 -246.394785 0 120 255
19.460214 -226.898349 -248.819595 0 120 255
19.950836 -226.925189 -251.244404 0 120 255
20.441458 -226.952030 -253.669214 0 120 255
21.131236 -226.985941 -256.044609 0 120 255
21.828979 -227.020134 -258.418028 0 120 255
22.526721 -227.054327 -260.791447 0 120 255
23.224464 -227.088521 -263.164866 0 120 255
24.106764 -227.129208 -265.475214 0 120 255
25.005140 -227.170461 -267.780067 0 120 255
25.903517 -227.211715 -270.084921 0 120 255
26.801893 -227.252968 -272.389774 0 120 255
27.869334 -227.300092 -274.620188 0 120 255
28.960220 -227.348031 -276.840278 0 120 255
30.051106 -227.395969 -279.060369 0 120 255
31.141992 -227.443908 -281.280459 0 120 255
32.385795 -227.497100 -283.417121 0 120 255
33.659473 -227.551317 -285.537484 0 120 255
34.933150 -227.605535 -287.657846 0 120 255
36.206828 -227.659753 -289.778209 0 120 255
37.616960 -227.718609 -291.808553 0 120 255
39.062291 -227.778661 -293.815676 0 120 255
40.507623 -227.838714 -295.822799 0 120 255
41.952955 -227.898766 -297.829921 0 120 255
43.518198 -227.962832 -299.742883 0 120 255
45.122714 -228.028214 -301.625006 0 120 255
46.727229 -228.093595 -303.507129 0 120 255
48.331745 -228.158976 -305.389252 0 120 255
50.039839 -228.227791 -307.175516 0 120 255
51.789904 -228.297998 -308.922935 0 120 255
53.539969 -228.368205 -310.670355 0 120 255
55.290034 -228.438412 -312.417774 0 120 255
57.127934 -228.511485 -314.069937 0 120 255
59.009103 -228.585971 -315.675175 0 120 255
60.890271 -228.660456 -317.280412 0 120 255
62.771440 -228.734942 -318.885650 0 120 255
64.725613 -228.811902 -320.398327 0 120 255
66.722983 -228.890325 -321.856234 0 120 255
68.720354 -228.968749 -323.314141 0 120 255
70.717724 -229.047173 -324.772048 0 120 255
72.774456 -229.127584 -326.141928 0 120 255
74.873034 -229.209397 -327.449755 0 120 255
76.971612 -229.291209 -328.757581 0 120 255
79.070189 -229.373022 -330.065407 0 120 255
81.215707 -229.455643 -331.291643 0 120 255
83.400450 -229.538940 -332.449698 0 120 255
85.585193 -229.622236 -333.607754 0 120 255
87.769936 -229.705533 -334.765809 0 120 255
89.990236 -229.784287 -335.851514 0 120 255
92.245673 -229.858550 -336.865724 0 120 255
94.501109 -229.932814 -337.879934 0 120 255
96.756546 -230.007078 -338.894144 0 120 255
99.038011 -230.071532 -339.846238 0 120 255
101.349892 -230.124524 -340.725744 0 120 255
103.661772 -230.177516 -341.605251 0 120 255
105.973653 -230.230507 -342.484757 0 120 255
108.303948 -230.270422 -343.312295 0 120 255
110.659748 -230.292222 -344.067847 0 120 255
113.015549 -230.314023 -344.823399 0 120 255
115.371350 -230.335823 -345.578951 0 120 255
117.739636 -230.343184 -346.292217 0 120 255
120.128521 -230.326721 -346.935714 0 120 255
122.517406 -230.310258 -347.579211 0 120 255
124.906292 -230.293795 -348.222708 0 120 255
127.303186 -230.262987 -348.832912 0 120 255
129.715947 -230.203760 -349.377162 0 120 255
132.128708 -230.144533 -349.921412 0 120 255
134.541470 -230.085307 -350.465661 0 120 255
136.959002 -230.012981 -350.984741 0 120 255
139.388020 -229.909125 -351.443238 0 120 255
141.817038 -229.805270 -351.901735 0 120 255
144.246055 -229.701415 -352.360232 0 120 255
146.677642 -229.586524 -352.800641 0 120 255
149.116875 -229.438797 -353.187235 0 120 255
151.556107 -229.291071 -353.573828 0 120 255
153.995340 -229.143345 -353.960421 0 120 255
156.435763 -228.987118 -354.334888 0 120 255
158.880680 -228.798832 -354.663615 0 120 255
161.325597 -228.610546 -354.992342 0 120 255
163.770514 -228.422259 -355.321069 0 120 255
166.215839 -228.228390 -355.642838 0 120 255
168.663193 -228.006783 -355.930036 0 120 255
171.110546 -227.785176 -356.217234 0 120 255
173.557900 -227.563570 -356.504432 0 120 255
176.005219 -227.340730 -356.790947 0 120 255
178.452296 -227.109305 -357.072703 0 120 255
180.899374 -226.877880 -357.354459 0 120 255
183.346451 -226.646456 -357.636215 0 120 255
185.793528 -226.415030 -357.917972 0 120 255
188.240603 -226.183594 -358.199741 0 120 255
190.687678 -225.952158 -358.481509 0 120 255
193.134753 -225.720723 -358.763278 0 120 255
195.581828 -225.489287 -359.045046 0 120 255
198.028905 -225.257855 -359.326807 0 120 255
200.475981 -225.026424 -359.608569 0 120 255
202.923057 -224.794992 -359.890330 0 120 255
205.370133 -224.563560 -360.172091 0 120 255
