ply
format ascii 1.0
element vertex 385
property float x
property float y
property float z
property uchar red
property uchar green
property uchar blue
end_header
77.430455 -42.474882 -360.397637 0 120 255
77.187554 -42.528711 -357.935944 0 120 255
76.944652 -42.582540 -355.474252 0 120 255
76.701751 -42.636369 -353.012559 0 120 255
76.458849 -42.690199 -350.550867 0 120 255
76.216618 -42.753641 -348.089338 0 120 255
75.974416 -42.817501 -345.627817 0 120 255
75.732214 -42.881361 -343.166295 0 120 255
75.490012 -42.945221 -340.704773 0 120 255
75.185931 -43.068208 -338.252519 0 120 255
74.876110 -43.196679 -335.801125 0 120 255
74.566290 -43.325150 -333.349730 0 120 255
74.256470 -43.453621 -330.898336 0 120 255
73.887534 -43.626687 -328.458065 0 120 255
73.509761 -43.806420 -326.019456 0 120 255
73.131988 -43.986152 -323.580847 0 120 255
72.754215 -44.165884 -321.142238 0 120 255
72.320383 -44.385733 -318.716493 0 120 255
71.874642 -44.614105 -316.293481 0 120 255
71.428901 -44.842477 -313.870468 0 120 255
70.983160 -45.070848 -311.447456 0 120 255
70.484327 -45.335273 -309.038752 0 120 255
69.970490 -45.609887 -306.634093 0 120 255
69.456653 -45.884500 -304.229433 0 120 255
68.942816 -46.159114 -301.824774 0 120 255
68.378766 -46.466115 -299.435622 0 120 255
67.796568 -46.784821 -297.052074 0 120 255
67.214371 -47.103527 -294.668526 0 120 255
66.632173 -47.422233 -292.284978 0 120 255
66.002592 -47.770010 -289.917914 0 120 255
65.351667 -48.130882 -287.558275 0 120 255
64.700742 -48.491753 -285.198635 0 120 255
64.049817 -48.852624 -282.838996 0 120 255
63.354296 -49.239577 -280.496624 0 120 255
62.634164 -49.640923 -278.163780 0 120 255
61.914032 -50.042269 -275.830936 0 120 255
61.193900 -50.443615 -273.498092 0 120 255
60.431961 -50.868338 -271.183111 0 120 255
59.642079 -51.308684 -268.880067 0 120 255
58.852198 -51.749030 -266.577023 0 120 255
58.062316 -52.189376 -264.273979 0 120 255
57.233415 -52.650653 -261.989219 0 120 255
56.373157 -53.128751 -259.719151 0 120 255
55.512899 -53.606849 -257.449084 0 120 255
54.652641 -54.084947 -255.179016 0 120 255
53.756189 -54.581748 -252.927469 0 120 255
52.824902 -55.096551 -250.693748 0 120 255
51.893615 -55.611353 -248.460026 0 120 255
50.962328 -56.126156 -246.226305 0 120 255
49.997719 -56.657621 -244.011151 0 120 255
48.994735 -57.208276 -241.817380 0 120 255
47.991751 -57.758932 -239.623610 0 120 255
46.988767 -58.309587 -237.429839 0 120 255
45.955393 -58.875021 -235.254475 0 120 255
44.880060 -59.460862 -233.104527 0 120 255
43.804728 -60.046703 -230.954578 0 120 255
42.729396 -60.632543 -228.804629 0 120 255
41.626679 -61.231407 -226.672697 0 120 255
40.478401 -61.851940 -224.570739 0 120 255
39.330123 -62.472472 -222.468782 0 120 255
38.181845 -63.093004 -220.366824 0 120 255
37.009260 -63.724903 -218.282235 0 120 255
35.787521 -64.379787 -216.232770 0 120 255
34.565782 -65.034672 -214.183304 0 120 255
33.344044 -65.689557 -212.133839 0 120 255
32.101153 -66.354225 -210.100801 0 120 255
30.805575 -67.043261 -208.108682 0 120 255
29.509998 -67.732297 -206.116564 0 120 255
28.214420 -68.421334 -204.124446 0 120 255
26.900913 -69.118619 -202.147482 0 120 255
25.531296 -69.841719 -200.217947 0 120 255
24.161679 -70.564819 -198.288413 0 120 255
22.792062 -71.287920 -196.358879 0 120 255
21.407796 -72.017766 -194.442850 0 120 255
19.964184 -72.774940 -192.581533 0 120 255
18.520573 -73.532115 -190.720216 0 120 255
17.076961 -74.289289 -188.858898 0 120 255
15.622011 -75.051721 -187.009016 0 120 255
14.104741 -75.843048 -185.221972 0 120 255
12.587472 -76.634374 -183.434928 0 120 255
11.070203 -77.425701 -181.647885 0 120 255
9.544905 -78.220799 -179.869729 0 120 255
7.954692 -79.046387 -178.163430 0 120 255
6.364480 -79.871976 -176.457131 0 120 255
4.774267 -80.697564 -174.750831 0 120 255
3.179291 -81.525434 -173.050349 0 120 255
1.517279 -82.385406 -171.431710 0 120 255
-0.144734 -83.245378 -169.813072 0 120 255
-1.806746 -84.105350 -168.194433 0 120 255
-3.470359 -84.966109 -166.577962 0 120 255
-5.202487 -85.860554 -165.054306 0 120 255
-6.934616 -86.754999 -163.530650 0 120 255
-8.666744 -87.649444 -162.006994 0 120 255
-10.398873 -88.543889 -160.483338 0 120 255
-12.197438 -89.472111 -159.060290 0 120 255
-13.997396 -90.401040 -157.639350 0 120 255
-15.797354 -91.329970 -156.218410 0 120 255
-17.597312 -92.258900 -154.797471 0 120 255
-19.457979 -93.220019 -153.480298 0 120 255
-21.322774 -94.183327 -152.170181 0 120 255
-23.187569 -95.146635 -150.860064 0 120 255
-25.052364 -96.109943 -149.549948 0 120 255
-26.971686 -97.103719 -148.346362 0 120 255
-28.897514 -98.101130 -147.155485 0 120 255
-30.823341 -99.098541 -145.964608 0 120 255
-32.749169 -100.095952 -144.773731 0 120 255
-34.722919 -101.121952 -143.691678 0 120 255
-36.705078 -102.152969 -142.628721 0 120 255
-38.687237 -103.183986 -141.565763 0 120 255
-40.669396 -104.215002 -140.502805 0 120 255
-42.692480 -105.272552 -139.550394 0 120 255
-44.725271 -106.336394 -138.624206 0 120 255
-46.758062 -107.400237 -137.698017 0 120 255
-48.790854 -108.464080 -136.771828 0 120 255
-50.857224 -109.552222 -135.957234 0 120 255
-52.933846 -110.647783 -135.176714 0 120 255
-55.010469 -111.743345 -134.396193 0 120 255
-57.087092 -112.838906 -133.615673 0 120 255
-59.189676 -113.956342 -132.947018 0 120 255
-61.302149 -115.082110 -132.320973 0 120 255
-63.414622 -116.207877 -131.694928 0 120 255
-65.527095 -117.333645 -131.068882 0 120 255
-67.657736 -118.478688 -130.554109 0 120 255
-69.796827 -119.632696 -130.091092 0 120 255
-71.935918 -120.786704 -129.628076 0 120 255
-74.075008 -121.940712 -129.165060 0 120 255
-76.224409 -123.111244 -128.811774 0 120 255
-78.379579 -124.291022 -128.519898 0 120 255
-80.534750 -125.470800 -128.228021 0 120 255
-82.689920 -126.650579 -127.936145 0 120 255
-84.847616 -127.844012 -127.751443 0 120 255
-87.006993 -129.046543 -127.638155 0 120 255
-89.166371 -130.249074 -127.524867 0 120 255
-91.325749 -131.451606 -127.411579 0 120 255
-93.480108 -132.664831 -127.401837 0 120 255
-95.630513 -133.886480 -127.473665 0 120 255
-97.780918 -135.108129 -127.545494 0 120 255
-99.931324 -136.329778 -127.617323 0 120 255
-102.069567 -137.559154 -127.787988 0 120 255
-104.196535 -138.795695 -128.050290 0 120 255
-106.323503 -140.032236 -128.312593 0 120 255
-108.450471 -141.268777 -128.574895 0 120 255
-110.558734 -142.510121 -128.930258 0 120 255
-112.646631 -143.756695 -129.386949 0 120 255
-114.734529 -145.003270 -129.843640 0 120 255
-116.822426 -146.249844 -130.300330 0 120 255
-118.885871 -147.498417 -130.843288 0 120 255
-120.918051 -148.749543 -131.496553 0 120 255
-122.950231 -150.000670 -132.149817 0 120 255
-124.982411 -151.251796 -132.803082 0 120 255
-126.985372 -152.502334 -133.534904 0 120 255
-128.944367 -153.751984 -134.384929 0 120 255
-130.903362 -155.001634 -135.234953 0 120 255
-132.862357 -156.251284 -136.084978 0 120 255
-134.788528 -157.498044 -137.005094 0 120 255
-136.656324 -158.739664 -138.049866 0 120 255
-138.524119 -159.981284 -139.094637 0 120 255
-140.391915 -161.222904 -140.139409 0 120 255
-142.224605 -162.459713 -141.245225 0 120 255
-143.982971 -163.686339 -142.480282 0 120 255
-145.741337 -164.912965 -143.715340 0 120 255
-147.499703 -166.139591 -144.950397 0 120 255
-149.222116 -167.359946 -146.237123 0 120 255
-150.852947 -168.564325 -147.655462 0 120 255
-152.483778 -169.768705 -149.073802 0 120 255
-154.114609 -170.973084 -150.492142 0 120 255
-155.710158 -172.170258 -151.952705 0 120 255
-157.195905 -173.345007 -153.544669 0 120 255
-158.681653 -174.519757 -155.136632 0 120 255
-160.167400 -175.694506 -156.728595 0 120 255
-161.620070 -176.861684 -158.353575 0 120 255
-162.944146 -177.999430 -160.106911 0 120 255
-164.268223 -179.137175 -161.860246 0 120 255
-165.592300 -180.274921 -163.613581 0 120 255
-166.886997 -181.405332 -165.391270 0 120 255
-168.034217 -182.498924 -167.291210 0 120 255
-169.181437 -183.592517 -169.191149 0 120 255
-170.328656 -184.686109 -171.091089 0 120 255
-171.451585 -185.773203 -173.007569 0 120 255
-172.408566 -186.815902 -175.037051 0 120 255
-173.365547 -187.858600 -177.066533 0 120 255
-174.322528 -188.901299 -179.096014 0 120 255
-175.261526 -189.938907 -181.135358 0 120 255
-176.017048 -190.924571 -183.275330 0 120 255
-176.772570 -191.910235 -185.415303 0 120 255
-177.528092 -192.895899 -187.555275 0 120 255
-178.272935 -193.878393 -189.699811 0 120 255
-178.818247 -194.801657 -191.929620 0 120 255
-179.363559 -195.724920 -194.159429 0 120 255
-179.908871 -196.648184 -196.389238 0 120 255
-180.451530 -197.570628 -198.619881 0 120 255
-180.780569 -198.427082 -200.917717 0 120 255
-181.109608 -199.283536 -203.215552 0 120 255
-181.438647 -200.139990 -205.513388 0 120 255
-181.767686 -200.996443 -207.811223 0 120 255
-181.882985 -201.784605 -210.153427 0 120 255
-181.992491 -202.570915 -212.496833 0 120 255
-182.101998 -203.357226 -214.840240 0 120 255
-182.211504 -204.143537 -217.183646 0 120 255
-182.115415 -204.862266 -219.548540 0 120 255
-182.004986 -205.576282 -221.914933 0 120 255
-181.894558 -206.290298 -224.281325 0 120 255
-181.784130 -207.004314 -226.647718 0 120 255
-181.478778 -207.652748 -229.014827 0 120 255
-181.150750 -208.293551 -231.382018 0 120 255
-180.822721 -208.934355 -233.749210 0 120 255
-180.494693 -209.575159 -236.116402 0 120 255
-179.984512 -210.153533 -238.466033 0 120 255
-179.443827 -210.721452 -240.812723 0 120 255
-178.903143 -211.289372 -243.159414 0 120 255
-178.362459 -211.857291 -245.506104 0 120 255
-177.653952 -212.366949 -247.819713 0 120 255
-176.907879 -212.863564 -250.125917 0 120 255
-176.161806 -213.360179 -252.432121 0 120 255
-175.415733 -213.856795 -254.738325 0 120 255
-174.517217 -214.300107 -256.998835 0 120 255
-173.575042 -214.728154 -259.246258 0 120 255
-172.632867 -215.156201 -261.493681 0 120 255
-171.690692 -215.584247 -263.741104 0 120 255
-170.611992 -215.964559 -265.933148 0 120 255
-169.484670 -216.327869 -268.105469 0 120 255
-168.357347 -216.691179 -270.277790 0 120 255
-167.230024 -217.054490 -272.450110 0 120 255
-165.982158 -217.376027 -274.560210 0 120 255
-164.681920 -217.679416 -276.643276 0 120 255
-163.381682 -217.982805 -278.726342 0 120 255
-162.081444 -218.286194 -280.809408 0 120 255
-160.676287 -218.553950 -282.826074 0 120 255
-159.216256 -218.803071 -284.808012 0 120 255
-157.756225 -219.052192 -286.789950 0 120 255
-156.296195 -219.301313 -288.771888 0 120 255
-154.746170 -219.520954 -290.685658 0 120 255
-153.140002 -219.722203 -292.556901 0 120 255
-151.533833 -219.923453 -294.428143 0 120 255
-149.927664 -220.124702 -296.299386 0 120 255
-148.245451 -220.302453 -298.102800 0 120 255
-146.506980 -220.462820 -299.856033 0 120 255
-144.768508 -220.623186 -301.609266 0 120 255
-143.030036 -220.783552 -303.362499 0 120 255
-141.228315 -220.926085 -305.050032 0 120 255
-139.371289 -221.053022 -306.680114 0 120 255
-137.514262 -221.179960 -308.310196 0 120 255
-135.657235 -221.306898 -309.940278 0 120 255
-133.748464 -221.421241 -311.508215 0 120 255
-131.786265 -221.522578 -313.011989 0 120 255
-129.824066 -221.623915 -314.515762 0 120 255
-127.861867 -221.725253 -316.019535 0 120 255
-125.858181 -221.820417 -317.465855 0 120 255
-123.803856 -221.908046 -318.842044 0 120 255
-121.749530 -221.995675 -320.218232 0 120 255
-119.695204 -222.083304 -321.594421 0 120 255
-117.608108 -222.169833 -322.918376 0 120 255
-115.473518 -222.254769 -324.166632 0 120 255
-113.338929 -222.339705 -325.414888 0 120 255
-111.204340 -222.424641 -326.663144 0 120 255
-109.044408 -222.509562 -327.865005 0 120 255
-106.840555 -222.594456 -328.986456 0 120 255
-104.636702 -222.679349 -330.107908 0 120 255
-102.432849 -222.764243 -331.229359 0 120 255
-100.210201 -222.849324 -332.311209 0 120 255
-97.948178 -222.934798 -333.310094 0 120 255
-95.686154 -223.020272 -334.308980 0 120 255
-93.424130 -223.105746 -335.307865 0 120 255
-91.148537 -223.191568 -336.273712 0 120 255
-88.838078 -223.278285 -337.154671 0 120 255
-86.527619 -223.365001 -338.035629 0 120 255
-84.217160 -223.451717 -338.916587 0 120 255
-81.897228 -223.538770 -339.770732 0 120 255
-79.546829 -223.626905 -340.538644 0 120 255
-77.196431 -223.715041 -341.306555 0 120 255
-74.846033 -223.803176 -342.074467 0 120 255
-72.489389 -223.891506 -342.821672 0 120 255
-70.106813 -223.980642 -343.482894 0 120 255
-67.724237 -224.069779 -344.144115 0 120 255
-65.341661 -224.158916 -344.805337 0 120 255
-62.955239 -224.248158 -345.451470 0 120 255
-60.547167 -224.337997 -346.012671 0 120 255
-58.139095 -224.427835 -346.573872 0 120 255
-55.731022 -224.517673 -347.135072 0 120 255
-53.320820 -224.607558 -347.686253 0 120 255
-50.892940 -224.697835 -348.154315 0 120 255
-48.465061 -224.788112 -348.622376 0 120 255
-46.037182 -224.878389 -349.090437 0 120 255
-43.608340 -224.968681 -349.552981 0 120 255
-41.165478 -225.059204 -349.935157 0 120 255
-38.722616 -225.149726 -350.317334 0 120 255
-36.279754 -225.240248 -350.699510 0 120 255
-33.836663 -225.330773 -351.080051 0 120 255
-31.382819 -225.421412 -351.383797 0 120 255
-28.928975 -225.512050 -351.687543 0 120 255
-26.475130 -225.602689 -351.991288 0 120 255
-24.021286 -225.693328 -352.295034 0 120 255
-21.559880 -225.783970 -352.529508 0 120 255
-19.098299 -225.874613 -352.762384 0 120 255
-16.636718 -225.965255 -352.995260 0 120 255
-14.175136 -226.055898 -353.228136 0 120 255
-11.708735 -226.146497 -353.402028 0 120 255
-9.241994 -226.237094 -353.571751 0 120 255
-6.775252 -226.327690 -353.741475 0 120 255
-4.308510 -226.418286 -353.911199 0 120 255
-1.838925 -226.508776 -354.031562 0 120 255
0.631010 -226.599253 -354.145858 0 120 255
3.100945 -226.689731 -354.260155 0 120 255
5.570880 -226.780208 -354.374451 0 120 255
8.042299 -226.870570 -354.448309 0 120 255
10.513986 -226.960912 -354.514869 0 120 255
12.985673 -227.051254 -354.581429 0 120 255
15.457360 -227.141596 -354.647989 0 120 255
17.929658 -227.231793 -354.682350 0 120 255
20.402106 -227.321954 -354.708845 0 120 255
22.874553 -227.412116 -354.735340 0 120 255
25.347001 -227.502278 -354.761835 0 120 255
27.819558 -227.592257 -354.763769 0 120 255
30.292150 -227.682178 -354.757957 0 120 255
32.764741 -227.772100 -354.752146 0 120 255
35.237333 -227.862021 -354.746334 0 120 255
37.709802 -227.951725 -354.722847 0 120 255
40.182224 -228.041342 -354.692378 0 120 255
42.654646 -228.130960 -354.661909 0 120 255
45.127067 -228.220577 -354.631440 0 120 255
47.599321 -228.309867 -354.589566 0 120 255
50.071494 -228.399000 -354.542164 0 120 255
52.543666 -228.488132 -354.494762 0 120 255
55.015839 -228.577264 -354.447359 0 120 255
57.487910 -228.665706 -354.393998 0 120 255
59.959923 -228.753742 -354.337143 0 120 255
62.431935 -228.841779 -354.280288 0 120 255
64.903947 -228.929815 -354.223432 0 120 255
67.375996 -229.015662 -354.164870 0 120 255
69.848070 -229.099972 -354.105109 0 120 255
72.320144 -229.184282 -354.045347 0 120 255
74.792217 -229.268592 -353.985586 0 120 255
77.264511 -229.347357 -353.927643 0 120 255
79.736990 -229.421491 -353.871218 0 120 255
82.209468 -229.495625 -353.814793 0 120 255
84.681946 -229.569759 -353.758369 0 120 255
87.154750 -229.635609 -353.706978 0 120 255
89.627876 -229.693256 -353.660573 0 120 255
92.101002 -229.750903 -353.614169 0 120 255
94.574128 -229.808550 -353.567764 0 120 255
97.047554 -229.856640 -353.529042 0 120 255
99.521334 -229.893516 -353.499337 0 120 255
101.995114 -229.930391 -353.469632 0 120 255
104.468894 -229.967267 -353.439927 0 120 255
106.942847 -229.993744 -353.419985 0 120 255
109.417043 -230.005732 -353.413651 0 120 255
111.891239 -230.017720 -353.407317 0 120 255
114.365434 -230.029707 -353.400983 0 120 255
116.839580 -230.030879 -353.405919 0 120 255
119.313643 -230.014068 -353.429594 0 120 255
121.787705 -229.997257 -353.453268 0 120 255
124.261768 -229.980447 -353.476942 0 120 255
126.735478 -229.952787 -353.512839 0 120 255
129.208483 -229.903445 -353.573160 0 120 255
131.681488 -229.854104 -353.633482 0 120 255
134.154493 -229.804762 -353.693804 0 120 255
136.626795 -229.744909 -353.766724 0 120 255
139.097384 -229.659508 -353.870265 0 120 255
141.567974 -229.574106 -353.973806 0 120 255
144.038564 -229.488705 -354.077346 0 120 255
146.508090 -229.393473 -354.193304 0 120 255
148.974415 -229.268687 -354.346588 0 120 255
151.440740 -229.143901 -354.499872 0 120 255
153.907066 -229.019115 -354.653156 0 120 255
156.372008 -228.885499 -354.818119 0 120 255
158.831677 -228.718231 -355.027584 0 120 255
161.291346 -228.550963 -355.237050 0 120 255
163.751016 -228.383694 -355.446516 0 120 255
166.208865 -228.208264 -355.667822 0 120 255
168.657583 -227.991890 -355.948521 0 120 255
171.106300 -227.775517 -356.229221 0 120 255
173.555018 -227.559143 -356.509921 0 120 255
176.003548 -227.340887 -356.790754 0 120 255
178.450765 -227.109450 -357.072526 0 120 255
180.897982 -226.878012 -357.354299 0 120 255
183.345198 -226.646574 -357.636071 0 120 255
185.792415 -226.415135 -357.917844 0 120 255
188.239629 -226.183686 -358.199629 0 120 255
190.686843 -225.952237 -358.481413 0 120 255
193.134057 -225.720788 -358.763198 0 120 255
195.581272 -225.489340 -359.044982 0 120 255
198.028487 -225.257895 -359.326759 0 120 255
200.475702 -225.026450 -359.608536 0 120 255
202.922918 -224.795005 -359.890314 0 120 255
205.370133 -224.563560 -360.172091 0 120 255
