ply
format ascii 1.0
element vertex 385
property float x
property float y
property float z
property uchar red
property uchar green
property uchar blue
end_header
77.430455 -42.474882 -360.397637 0 120 255
77.187511 -42.528720 -357.935511 0 120 255
76.944567 -42.582559 -355.473386 0 120 255
76.701622 -42.636398 -353.011261 0 120 255
76.458678 -42.690237 -350.549135 0 120 255
76.226317 -42.752673 -348.086193 0 120 255
75.994409 -42.815477 -345.623216 0 120 255
75.762500 -42.878280 -343.160239 0 120 255
75.530591 -42.941084 -340.697262 0 120 255
75.307938 -43.078650 -338.236580 0 120 255
75.086141 -43.223136 -335.776110 0 120 255
74.864345 -43.367622 -333.315640 0 120 255
74.642548 -43.512108 -330.855170 0 120 255
74.419063 -43.718750 -328.399413 0 120 255
74.195321 -43.934833 -325.944371 0 120 255
73.971579 -44.150917 -323.489329 0 120 255
73.747838 -44.367001 -321.034288 0 120 255
73.521249 -44.641322 -318.585484 0 120 255
73.294040 -44.928346 -316.138042 0 120 255
73.066831 -45.215369 -313.690599 0 120 255
72.839621 -45.502393 -311.243157 0 120 255
72.608177 -45.843631 -308.803261 0 120 255
72.375494 -46.200718 -306.365572 0 120 255
72.142811 -46.557805 -303.927882 0 120 255
71.910128 -46.914892 -301.490193 0 120 255
71.671658 -47.322120 -299.061141 0 120 255
71.431012 -47.748209 -296.635338 0 120 255
71.190366 -48.174298 -294.209535 0 120 255
70.949720 -48.600387 -291.783733 0 120 255
70.701644 -49.072547 -289.367447 0 120 255
70.450064 -49.566430 -286.955649 0 120 255
70.198485 -50.060312 -284.543851 0 120 255
69.946905 -50.554195 -282.132053 0 120 255
69.686249 -51.090107 -279.730449 0 120 255
69.420321 -51.650430 -277.334764 0 120 255
69.154393 -52.210752 -274.939080 0 120 255
68.888464 -52.771075 -272.543396 0 120 255
68.611870 -53.369449 -270.158393 0 120 255
68.327731 -53.994740 -267.780945 0 120 255
68.043592 -54.620032 -265.403497 0 120 255
67.759453 -55.245323 -263.026050 0 120 255
67.463203 -55.904777 -260.659594 0 120 255
67.156590 -56.593464 -258.302545 0 120 255
66.849977 -57.282151 -255.945496 0 120 255
66.543363 -57.970838 -253.588447 0 120 255
66.223402 -58.689899 -251.242537 0 120 255
65.889670 -59.440299 -248.908120 0 120 255
65.555937 -60.190698 -246.573702 0 120 255
65.222205 -60.941097 -244.239284 0 120 255
64.874168 -61.718204 -241.915998 0 120 255
64.508340 -62.528530 -239.606555 0 120 255
64.142511 -63.338855 -237.297113 0 120 255
63.776683 -64.149181 -234.987671 0 120 255
63.395934 -64.982686 -232.689203 0 120 255
62.992738 -65.851061 -230.407243 0 120 255
62.589542 -66.719436 -228.125283 0 120 255
62.186346 -67.587811 -225.843323 0 120 255
61.768001 -68.475976 -223.572027 0 120 255
61.321908 -69.400389 -221.320263 0 120 255
60.875814 -70.324803 -219.068499 0 120 255
60.429721 -71.249217 -216.816735 0 120 255
59.968693 -72.190196 -214.575165 0 120 255
59.473980 -73.168537 -212.356586 0 120 255
58.979267 -74.146878 -210.138008 0 120 255
58.484553 -75.125219 -207.919429 0 120 255
57.975596 -76.117069 -205.710395 0 120 255
57.426402 -77.147078 -203.528321 0 120 255
56.877208 -78.177087 -201.346246 0 120 255
56.328013 -79.207096 -199.164172 0 120 255
55.765768 -80.247743 -196.990784 0 120 255
55.156151 -81.327001 -194.848928 0 120 255
54.546534 -82.406260 -192.707071 0 120 255
53.936917 -83.485518 -190.565214 0 120 255
53.315963 -84.572747 -188.430941 0 120 255
52.639979 -85.698667 -186.333483 0 120 255
51.963995 -86.824588 -184.236025 0 120 255
51.288010 -87.950508 -182.138567 0 120 255
50.602928 -89.081954 -180.047294 0 120 255
49.854709 -90.251745 -177.998944 0 120 255
49.106489 -91.421535 -175.950594 0 120 255
48.358270 -92.591326 -173.902243 0 120 255
47.603706 -93.764443 -171.858323 0 120 255
46.777557 -94.975093 -169.864385 0 120 255
45.951408 -96.185743 -167.870448 0 120 255
45.125258 -97.396393 -165.876511 0 120 255
44.296005 -98.608442 -163.884821 0 120 255
43.386502 -99.856675 -161.951249 0 120 255
42.476999 -101.104909 -160.017677 0 120 255
41.567496 -102.353142 -158.084105 0 120 255
40.657994 -103.601375 -156.150533 0 120 255
39.660682 -104.883420 -154.283551 0 120 255
38.662793 -106.165687 -152.417005 0 120 255
37.664905 -107.447954 -150.550460 0 120 255
36.667016 -108.730221 -148.683915 0 120 255
35.580862 -110.041157 -146.888091 0 120 255
34.490074 -111.353597 -145.095979 0 120 255
33.399287 -112.666038 -143.303867 0 120 255
32.308500 -113.978478 -141.511755 0 120 255
31.129943 -115.314481 -139.794588 0 120 255
29.942412 -116.652894 -138.085084 0 120 255
28.754881 -117.991307 -136.375580 0 120 255
27.567350 -119.329719 -134.666076 0 120 255
26.293536 -120.686642 -133.035756 0 120 255
25.006236 -122.046457 -131.417812 0 120 255
23.718936 -123.406273 -129.799869 0 120 255
22.431636 -124.766089 -128.181925 0 120 255
21.060565 -126.139442 -126.647323 0 120 255
19.671471 -127.515708 -125.130652 0 120 255
18.282376 -128.891974 -123.613982 0 120 255
16.893281 -130.268240 -122.097311 0 120 255
15.423962 -131.653170 -120.667940 0 120 255
13.932226 -133.040522 -119.262963 0 120 255
12.440489 -134.427874 -117.857986 0 120 255
10.948753 -135.815225 -116.453009 0 120 255
9.381369 -137.206510 -115.138963 0 120 255
7.787520 -138.599170 -113.856729 0 120 255
6.193671 -139.991831 -112.574495 0 120 255
4.599823 -141.384491 -111.292261 0 120 255
2.935894 -142.776535 -110.104130 0 120 255
1.242024 -144.168317 -108.956205 0 120 255
-0.451846 -145.560098 -107.808281 0 120 255
-2.145716 -146.951880 -106.660357 0 120 255
-3.903160 -148.338726 -105.609093 0 120 255
-5.693197 -149.723042 -104.607386 0 120 255
-7.483234 -151.107359 -103.605679 0 120 255
-9.273271 -152.491675 -102.603971 0 120 255
-11.119532 -153.867029 -101.700727 0 120 255
-12.999940 -155.236938 -100.857287 0 120 255
-14.880349 -156.606848 -100.013846 0 120 255
-16.760758 -157.976757 -99.170405 0 120 255
-18.689327 -159.334014 -98.426327 0 120 255
-20.652226 -160.682252 -97.753079 0 120 255
-22.615126 -162.030489 -97.079831 0 120 255
-24.578026 -163.378727 -96.406583 0 120 255
-26.580460 -164.711038 -95.832568 0 120 255
-28.615748 -166.030114 -95.341020 0 120 255
-30.651037 -167.349190 -94.849472 0 120 255
-32.686326 -168.668267 -94.357923 0 120 255
-34.752161 -169.968617 -93.964347 0 120 255
-36.847452 -171.250910 -93.665247 0 120 255
-38.942743 -172.533203 -93.366147 0 120 255
-41.038035 -173.815496 -93.067046 0 120 255
-43.154748 -175.076794 -92.863437 0 120 255
-45.295363 -176.314666 -92.766382 0 120 255
-47.435979 -177.552538 -92.669326 0 120 255
-49.576595 -178.790409 -92.572271 0 120 255
-51.729617 -180.005615 -92.566983 0 120 255
-53.898641 -181.191590 -92.680045 0 120 255
-56.067664 -182.377565 -92.793107 0 120 255
-58.236688 -183.563540 -92.906169 0 120 255
-60.409494 -184.725803 -93.106026 0 120 255
-62.587943 -185.852704 -93.435324 0 120 255
-64.766392 -186.979604 -93.764621 0 120 255
-66.944841 -188.106505 -94.093919 0 120 255
-69.119115 -189.209313 -94.503863 0 120 255
-71.286173 -190.270479 -95.053197 0 120 255
-73.453231 -191.331645 -95.602532 0 120 255
-75.620290 -192.392810 -96.151866 0 120 255
-77.776161 -193.430168 -96.774641 0 120 255
-79.909528 -194.419635 -97.545150 0 120 255
-82.042894 -195.409101 -98.315659 0 120 255
-84.176261 -196.398567 -99.086168 0 120 255
-86.292634 -197.365169 -99.922022 0 120 255
-88.368957 -198.277889 -100.911874 0 120 255
-90.445280 -199.190610 -101.901726 0 120 255
-92.521603 -200.103330 -102.891578 0 120 255
-94.576559 -200.994737 -103.938030 0 120 255
-96.571955 -201.826736 -105.142254 0 120 255
-98.567350 -202.658735 -106.346478 0 120 255
-100.562746 -203.490734 -107.550702 0 120 255
-102.534013 -204.303523 -108.802402 0 120 255
-104.424636 -205.052107 -110.212773 0 120 255
-106.315259 -205.800691 -111.623145 0 120 255
-108.205882 -206.549275 -113.033516 0 120 255
-110.071345 -207.281196 -114.482175 0 120 255
-111.834006 -207.945037 -116.087267 0 120 255
-113.596667 -208.608878 -117.692360 0 120 255
-115.359329 -209.272718 -119.297453 0 120 255
-117.097575 -209.922782 -120.931905 0 120 255
-118.710359 -210.502048 -122.717222 0 120 255
-120.323143 -211.081315 -124.502540 0 120 255
-121.935927 -211.660582 -126.287858 0 120 255
-123.526782 -212.229153 -128.094204 0 120 255
-124.969625 -212.725536 -130.042483 0 120 255
-126.412468 -213.221918 -131.990762 0 120 255
-127.855310 -213.718301 -133.939041 0 120 255
-129.280346 -214.207117 -135.900923 0 120 255
-130.535583 -214.623789 -137.992512 0 120 255
-131.790821 -215.040462 -140.084101 0 120 255
-133.046059 -215.457134 -142.175690 0 120 255
-134.289051 -215.869264 -144.274644 0 120 255
-135.341839 -216.210838 -146.488000 0 120 255
-136.394626 -216.552412 -148.701357 0 120 255
-137.447413 -216.893985 -150.914714 0 120 255
-138.494710 -217.233785 -153.130606 0 120 255
-139.333354 -217.506160 -155.442849 0 120 255
-140.171998 -217.778535 -157.755093 0 120 255
-141.010642 -218.050910 -160.067336 0 120 255
-141.849286 -218.323285 -162.379580 0 120 255
-142.467608 -218.534089 -164.766347 0 120 255
-143.083776 -218.744291 -167.153842 0 120 255
-143.699943 -218.954493 -169.541338 0 120 255
-144.316111 -219.164695 -171.928833 0 120 255
-144.715236 -219.323149 -174.365446 0 120 255
-145.104002 -219.479133 -176.804403 0 120 255
-145.492768 -219.635117 -179.243360 0 120 255
-145.881534 -219.791101 -181.682317 0 120 255
-146.060117 -219.905235 -184.147049 0 120 255
-146.219929 -220.015630 -186.614082 0 120 255
-146.379741 -220.126026 -189.081116 0 120 255
-146.539552 -220.236422 -191.548150 0 120 255
-146.499093 -220.314629 -194.020126 0 120 255
-146.431578 -220.388486 -196.492770 0 120 255
-146.364063 -220.462344 -198.965414 0 120 255
-146.296548 -220.536202 -201.438058 0 120 255
-146.041266 -220.587403 -203.897634 0 120 255
-145.751102 -220.634394 -206.354783 0 120 255
-145.460939 -220.681386 -208.811931 0 120 255
-145.170775 -220.728377 -211.269080 0 120 255
-144.706660 -220.766140 -213.697992 0 120 255
-144.200425 -220.801668 -216.120066 0 120 255
-143.694190 -220.837196 -218.542141 0 120 255
-143.187955 -220.872724 -220.964216 0 120 255
-142.523055 -220.907105 -223.345919 0 120 255
-141.809634 -220.941135 -225.715276 0 120 255
-141.096213 -220.975165 -228.084634 0 120 255
-140.382792 -221.009195 -230.453991 0 120 255
-139.527270 -221.044140 -232.773964 0 120 255
-138.617957 -221.079432 -235.075243 0 120 255
-137.708643 -221.114724 -237.376522 0 120 255
-136.799329 -221.150016 -239.677801 0 120 255
-135.765042 -221.186878 -241.923743 0 120 255
-134.673097 -221.224463 -244.144154 0 120 255
-133.581152 -221.262049 -246.364565 0 120 255
-132.489207 -221.299634 -248.584976 0 120 255
-131.289055 -221.337741 -250.746861 0 120 255
-130.028718 -221.376138 -252.876194 0 120 255
-128.768380 -221.414536 -255.005526 0 120 255
-127.508043 -221.452933 -257.134859 0 120 255
-126.154936 -221.493011 -259.204490 0 120 255
-124.740082 -221.534207 -261.234385 0 120 255
-123.325228 -221.575403 -263.264280 0 120 255
-121.910375 -221.616599 -265.294175 0 120 255
-120.417126 -221.660216 -267.265128 0 120 255
-118.861719 -221.705752 -269.189347 0 120 255
-117.306313 -221.751289 -271.113567 0 120 255
-115.750907 -221.796825 -273.037786 0 120 255
-114.130211 -221.845178 -274.905388 0 120 255
-112.447952 -221.896188 -276.719606 0 120 255
-110.765693 -221.947197 -278.533823 0 120 255
-109.083434 -221.998207 -280.348041 0 120 255
-107.347653 -222.052143 -282.109221 0 120 255
-105.551817 -222.109364 -283.810891 0 120 255
-103.755981 -222.166584 -285.512560 0 120 255
-101.960144 -222.223805 -287.214230 0 120 255
-100.121168 -222.283850 -288.867374 0 120 255
-98.224409 -222.347680 -290.455521 0 120 255
-96.327649 -222.411509 -292.043668 0 120 255
-94.430890 -222.475338 -293.631816 0 120 255
-92.500005 -222.541747 -295.176596 0 120 255
-90.514230 -222.612305 -296.651622 0 120 255
-88.528455 -222.682863 -298.126648 0 120 255
-86.542680 -222.753421 -299.601674 0 120 255
-84.530483 -222.826198 -301.038889 0 120 255
-82.466766 -222.903300 -302.402381 0 120 255
-80.403049 -222.980403 -303.765873 0 120 255
-78.339333 -223.057505 -305.129365 0 120 255
-76.255671 -223.136426 -306.460785 0 120 255
-74.124208 -223.219703 -307.715343 0 120 255
-71.992745 -223.302980 -308.969900 0 120 255
-69.861283 -223.386257 -310.224457 0 120 255
-67.715230 -223.470930 -311.452683 0 120 255
-65.525317 -223.559797 -312.601756 0 120 255
-63.335405 -223.648665 -313.750828 0 120 255
-61.145493 -223.737532 -314.899901 0 120 255
-58.945337 -223.827397 -316.028236 0 120 255
-56.705369 -223.921136 -317.075966 0 120 255
-54.465401 -224.014876 -318.123695 0 120 255
-52.225433 -224.108615 -319.171425 0 120 255
-49.978678 -224.202995 -320.203737 0 120 255
-47.696156 -224.300753 -321.154799 0 120 255
-45.413634 -224.398512 -322.105861 0 120 255
-43.131112 -224.496270 -323.056923 0 120 255
-40.844491 -224.594381 -323.997530 0 120 255
-38.526082 -224.695237 -324.857059 0 120 255
-36.207673 -224.796093 -325.716587 0 120 255
-33.889264 -224.896949 -326.576115 0 120 255
-31.568788 -224.997950 -327.429721 0 120 255
-29.220352 -225.100911 -328.203174 0 120 255
-26.871917 -225.203872 -328.976627 0 120 255
-24.523481 -225.306833 -329.750080 0 120 255
-22.174464 -225.409819 -330.521660 0 120 255
-19.801120 -225.513879 -331.214764 0 120 255
-17.427777 -225.617939 -331.907868 0 120 255
-15.054433 -225.721999 -332.600972 0 120 255
-12.681089 -225.826059 -333.294076 0 120 255
-10.287717 -225.930189 -333.914379 0 120 255
-7.893888 -226.034321 -334.533025 0 120 255
-5.500059 -226.138452 -335.151670 0 120 255
-3.106230 -226.242584 -335.770316 0 120 255
-0.696842 -226.345840 -336.325162 0 120 255
1.713680 -226.449031 -336.875358 0 120 255
4.124202 -226.552223 -337.425554 0 120 255
6.534725 -226.655415 -337.975750 0 120 255
8.957184 -226.756932 -338.470683 0 120 255
11.381173 -226.858234 -338.958530 0 120 255
13.805163 -226.959537 -339.446377 0 120 255
16.229152 -227.060839 -339.934224 0 120 255
18.662180 -227.159779 -340.374824 0 120 255
21.096922 -227.258272 -340.806465 0 120 255
23.531664 -227.356764 -341.238105 0 120 255
25.966405 -227.455257 -341.669745 0 120 255
28.407886 -227.550991 -342.061622 0 120 255
30.851106 -227.646013 -342.443232 0 120 255
33.294327 -227.741036 -342.824842 0 120 255
35.737547 -227.836058 -343.206452 0 120 255
38.185693 -227.929017 -343.555092 0 120 255
40.635489 -228.021285 -343.892681 0 120 255
43.085286 -228.113553 -344.230269 0 120 255
45.535082 -228.205821 -344.567857 0 120 255
47.988412 -228.296532 -344.878691 0 120 255
50.443234 -228.386586 -345.178223 0 120 255
52.898057 -228.476640 -345.477755 0 120 255
55.352879 -228.566695 -345.777287 0 120 255
57.810079 -228.655332 -346.056717 0 120 255
60.268518 -228.743229 -346.325659 0 120 255
62.726958 -228.831127 -346.594601 0 120 255
65.185398 -228.919025 -346.863543 0 120 255
67.645402 -229.005436 -347.118018 0 120 255
70.106401 -229.090902 -347.363301 0 120 255
72.567399 -229.176369 -347.608584 0 120 255
75.028398 -229.261835 -347.853867 0 120 255
77.490614 -229.342191 -348.088185 0 120 255
79.953762 -229.418632 -348.314103 0 120 255
82.416910 -229.495073 -348.540021 0 120 255
84.880059 -229.571513 -348.765938 0 120 255
87.344163 -229.638883 -348.983874 0 120 255
89.809146 -229.697922 -349.194480 0 120 255
92.274130 -229.756961 -349.405085 0 120 255
94.739113 -229.816000 -349.615691 0 120 255
97.204713 -229.864437 -349.821364 0 120 255
99.670991 -229.901225 -350.021617 0 120 255
102.137269 -229.938013 -350.221869 0 120 255
104.603547 -229.974801 -350.422122 0 120 255
107.070116 -230.000327 -350.620090 0 120 255
109.537069 -230.011028 -350.815049 0 120 255
112.004023 -230.021730 -351.010009 0 120 255
114.470976 -230.032431 -351.204968 0 120 255
116.937920 -230.031686 -351.399804 0 120 255
119.404849 -230.012813 -351.594444 0 120 255
121.871779 -229.993940 -351.789085 0 120 255
124.338708 -229.975067 -351.983725 0 120 255
126.805352 -229.944988 -352.179938 0 120 255
129.271447 -229.893394 -352.379170 0 120 255
131.737543 -229.841800 -352.578402 0 120 255
134.203638 -229.790206 -352.777634 0 120 255
136.669206 -229.728042 -352.979647 0 120 255
139.133532 -229.640973 -353.188214 0 120 255
141.597857 -229.553905 -353.396781 0 120 255
144.062183 -229.466836 -353.605348 0 120 255
146.525785 -229.370179 -353.817473 0 120 255
148.987255 -229.245293 -354.040068 0 120 255
151.448726 -229.120406 -354.262663 0 120 255
153.910196 -228.995520 -354.485259 0 120 255
156.370811 -228.862321 -354.711735 0 120 255
158.828195 -228.697706 -354.952876 0 120 255
161.285579 -228.533091 -355.194018 0 120 255
163.742962 -228.368476 -355.435159 0 120 255
166.199109 -228.195868 -355.682192 0 120 255
168.648996 -227.982810 -355.959031 0 120 255
171.098884 -227.769753 -356.235870 0 120 255
173.548771 -227.556695 -356.512709 0 120 255
175.998384 -227.341376 -356.790160 0 120 255
178.446031 -227.109897 -357.071981 0 120 255
180.893678 -226.878419 -357.353803 0 120 255
183.341325 -226.646940 -357.635625 0 120 255
185.788972 -226.415461 -357.917447 0 120 255
188.236616 -226.183971 -358.199282 0 120 255
190.684261 -225.952482 -358.481116 0 120 255
193.131905 -225.720992 -358.762950 0 120 255
195.579550 -225.489503 -359.044784 0 120 255
198.027196 -225.258017 -359.326611 0 120 255
200.474842 -225.026531 -359.608437 0 120 255
202.922487 -224.795046 -359.890264 0 120 255
205.370133 -224.563560 -360.172091 0 120 255
