ply
format ascii 1.0
element vertex 385
property float x
property float y
property float z
property uchar red
property uchar green
property uchar blue
end_header
77.430455 -42.474882 -360.397637 0 120 255
77.187376 -42.528750 -357.934141 0 120 255
76.944296 -42.582619 -355.470646 0 120 255
76.701217 -42.636488 -353.007150 0 120 255
76.458137 -42.690356 -350.543655 0 120 255
76.245779 -42.772029 -348.078099 0 120 255
76.034658 -42.854820 -345.612461 0 120 255
75.823537 -42.937612 -343.146822 0 120 255
75.612415 -43.020404 -340.681184 0 120 255
75.500984 -43.191857 -338.213902 0 120 255
75.397981 -43.370807 -335.746481 0 120 255
75.294978 -43.549756 -333.279059 0 120 255
75.191976 -43.728706 -330.811638 0 120 255
75.150312 -43.952977 -328.346287 0 120 255
75.117186 -44.183556 -325.881224 0 120 255
75.084059 -44.414136 -323.416161 0 120 255
75.050933 -44.644715 -320.951098 0 120 255
75.069564 -44.906106 -318.489107 0 120 255
75.098532 -45.173650 -316.027729 0 120 255
75.127500 -45.441195 -313.566352 0 120 255
75.156468 -45.708740 -311.104974 0 120 255
75.227258 -45.994675 -308.646627 0 120 255
75.309212 -46.285520 -306.189089 0 120 255
75.391167 -46.576365 -303.731551 0 120 255
75.473121 -46.867210 -301.274013 0 120 255
75.586896 -47.166101 -298.818785 0 120 255
75.711553 -47.467743 -296.364345 0 120 255
75.836209 -47.769386 -293.909906 0 120 255
75.960865 -48.071028 -291.455467 0 120 255
76.107488 -48.372361 -289.002246 0 120 255
76.263466 -48.673564 -286.549543 0 120 255
76.419444 -48.974766 -284.096841 0 120 255
76.575421 -49.275968 -281.644139 0 120 255
76.743891 -49.570384 -279.191461 0 120 255
76.918859 -49.861270 -276.738795 0 120 255
77.093828 -50.152156 -274.286129 0 120 255
77.268796 -50.443042 -271.833463 0 120 255
77.447340 -50.722389 -269.379732 0 120 255
77.628126 -50.994501 -266.925333 0 120 255
77.808911 -51.266613 -264.470935 0 120 255
77.989697 -51.538725 -262.016537 0 120 255
78.165860 -51.796102 -259.560250 0 120 255
78.338563 -52.042448 -257.102551 0 120 255
78.511266 -52.288794 -254.644851 0 120 255
78.683969 -52.535140 -252.187152 0 120 255
78.844723 -52.764923 -249.727115 0 120 255
78.994869 -52.980001 -247.265003 0 120 255
79.145014 -53.195079 -244.802890 0 120 255
79.295160 -53.410157 -242.340778 0 120 255
79.427020 -53.608023 -239.876311 0 120 255
79.539702 -53.787836 -237.409376 0 120 255
79.652384 -53.967649 -234.942441 0 120 255
79.765065 -54.147462 -232.475506 0 120 255
79.854213 -54.310398 -230.006647 0 120 255
79.914256 -54.452461 -227.535410 0 120 255
79.974300 -54.594525 -225.064173 0 120 255
80.034343 -54.736589 -222.592936 0 120 255
80.066774 -54.862894 -220.120626 0 120 255
80.058939 -54.966220 -217.646750 0 120 255
80.051105 -55.069545 -215.172874 0 120 255
80.043271 -55.172871 -212.698998 0 120 255
80.004961 -55.262151 -210.225252 0 120 255
79.914137 -55.327227 -207.751729 0 120 255
79.823314 -55.392303 -205.278206 0 120 255
79.732491 -55.457380 -202.804683 0 120 255
79.609578 -55.510529 -200.332747 0 120 255
79.421046 -55.539290 -197.864058 0 120 255
79.232514 -55.568051 -195.395368 0 120 255
79.043982 -55.596812 -192.926679 0 120 255
78.822988 -55.615993 -190.461162 0 120 255
78.522686 -55.611770 -188.003399 0 120 255
78.222384 -55.607548 -185.545636 0 120 255
77.922082 -55.603325 -183.087872 0 120 255
77.590148 -55.591928 -180.634850 0 120 255
77.164949 -55.559378 -178.195804 0 120 255
76.739749 -55.526828 -175.756758 0 120 255
76.314550 -55.494278 -173.317712 0 120 255
75.859686 -55.456863 -170.884791 0 120 255
75.297732 -55.401886 -168.473986 0 120 255
74.735777 -55.346908 -166.063180 0 120 255
74.173823 -55.291931 -163.652374 0 120 255
73.585194 -55.234161 -161.248731 0 120 255
72.876202 -55.163791 -158.877407 0 120 255
72.167210 -55.093421 -156.506083 0 120 255
71.458218 -55.023051 -154.134759 0 120 255
70.726426 -54.951599 -151.771117 0 120 255
69.862036 -54.873860 -149.452155 0 120 255
68.997646 -54.796120 -147.133192 0 120 255
68.133257 -54.718380 -144.814230 0 120 255
67.250644 -54.640810 -142.502797 0 120 255
66.224750 -54.564572 -140.250570 0 120 255
65.198856 -54.488333 -137.998342 0 120 255
64.172963 -54.412095 -135.746115 0 120 255
63.133913 -54.336735 -133.500454 0 120 255
61.942964 -54.271511 -131.330618 0 120 255
60.752016 -54.206288 -129.160783 0 120 255
59.561067 -54.141065 -126.990947 0 120 255
58.362277 -54.076833 -124.825796 0 120 255
57.005552 -54.032575 -122.755015 0 120 255
55.648827 -53.988318 -120.684233 0 120 255
54.292102 -53.944060 -118.613451 0 120 255
52.932838 -53.900286 -116.544476 0 120 255
51.412665 -53.887144 -114.590071 0 120 255
49.892493 -53.874002 -112.635665 0 120 255
48.372320 -53.860861 -110.681259 0 120 255
46.852148 -53.847719 -108.726853 0 120 255
45.176539 -53.875140 -106.904301 0 120 255
43.498455 -53.903207 -105.083849 0 120 255
41.820372 -53.931274 -103.263396 0 120 255
40.142289 -53.959341 -101.442943 0 120 255
38.322017 -54.036026 -99.766812 0 120 255
36.494826 -54.115077 -98.097703 0 120 255
34.667635 -54.194128 -96.428594 0 120 255
32.840445 -54.273179 -94.759485 0 120 255
30.886717 -54.407783 -93.245536 0 120 255
28.922468 -54.547006 -91.744490 0 120 255
26.958218 -54.686228 -90.243444 0 120 255
24.993968 -54.825451 -88.742398 0 120 255
22.920838 -55.025863 -87.405357 0 120 255
20.834675 -55.233598 -86.087947 0 120 255
18.748512 -55.441334 -84.770537 0 120 255
16.662348 -55.649070 -83.453127 0 120 255
14.486506 -55.922201 -82.306243 0 120 255
12.296438 -56.205707 -81.186411 0 120 255
10.106369 -56.489213 -80.066579 0 120 255
7.916301 -56.772719 -78.946747 0 120 255
5.656765 -57.124314 -78.001401 0 120 255
3.383306 -57.489555 -77.091024 0 120 255
1.109848 -57.854797 -76.180648 0 120 255
-1.163610 -58.220038 -75.270271 0 120 255
-3.485891 -58.654516 -74.535631 0 120 255
-5.820160 -59.105996 -73.844144 0 120 255
-8.154429 -59.557476 -73.152657 0 120 255
-10.488697 -60.008955 -72.461170 0 120 255
-12.851303 -60.529302 -71.943913 0 120 255
-15.222259 -61.069945 -71.478005 0 120 255
-17.593215 -61.610588 -71.012096 0 120 255
-19.964172 -62.151231 -70.546187 0 120 255
-22.343727 -62.758930 -70.250308 0 120 255
-24.726281 -63.390009 -70.013713 0 120 255
-27.108834 -64.021088 -69.777119 0 120 255
-29.491388 -64.652167 -69.540525 0 120 255
-31.864100 -65.347194 -69.467230 0 120 255
-34.232793 -66.068339 -69.460626 0 120 255
-36.601486 -66.789483 -69.454023 0 120 255
-38.970179 -67.510627 -69.447420 0 120 255
-41.312379 -68.291488 -69.595129 0 120 255
-43.641991 -69.100720 -69.816151 0 120 255
-45.971603 -69.909951 -70.037173 0 120 255
-48.301216 -70.719183 -70.258194 0 120 255
-50.589870 -71.582998 -70.622622 0 120 255
-52.855989 -72.476844 -71.065951 0 120 255
-55.122109 -73.370691 -71.509280 0 120 255
-57.388228 -74.264537 -71.952608 0 120 255
-59.601419 -75.207161 -72.526932 0 120 255
-61.780971 -76.180785 -73.184512 0 120 255
-63.960522 -77.154409 -73.842092 0 120 255
-66.140073 -78.128033 -74.499672 0 120 255
-68.257397 -79.144218 -75.274789 0 120 255
-70.329075 -80.191621 -76.136123 0 120 255
-72.400753 -81.239024 -76.997457 0 120 255
-74.472431 -82.286428 -77.858792 0 120 255
-76.475341 -83.369994 -78.823598 0 120 255
-78.419993 -84.484196 -79.876061 0 120 255
-80.364646 -85.598398 -80.928524 0 120 255
-82.309299 -86.712600 -81.980988 0 120 255
-84.181350 -87.856635 -83.122720 0 120 255
-85.982218 -89.029922 -84.351977 0 120 255
-87.783086 -90.203208 -85.581234 0 120 255
-89.583955 -91.376494 -86.810491 0 120 255
-91.310972 -92.573547 -88.115081 0 120 255
-92.953881 -93.797669 -89.505469 0 120 255
-94.596789 -95.021791 -90.895856 0 120 255
-96.239698 -96.245912 -92.286243 0 120 255
-97.809865 -97.488180 -93.738673 0 120 255
-99.283279 -98.754583 -95.273624 0 120 255
-100.756693 -100.020985 -96.808575 0 120 255
-102.230107 -101.287388 -98.343526 0 120 255
-103.633973 -102.566895 -99.928177 0 120 255
-104.929001 -103.866908 -101.590605 0 120 255
-106.224029 -105.166922 -103.253033 0 120 255
-107.519057 -106.466935 -104.915461 0 120 255
-108.749487 -107.775698 -106.616436 0 120 255
-109.859783 -109.100734 -108.389095 0 120 255
-110.970079 -110.425770 -110.161755 0 120 255
-112.080375 -111.750806 -111.934415 0 120 255
-113.132445 -113.080979 -113.735826 0 120 255
-114.054076 -114.422660 -115.601647 0 120 255
-114.975708 -115.764341 -117.467468 0 120 255
-115.897340 -117.106021 -119.333288 0 120 255
-116.768185 -118.450007 -121.219523 0 120 255
-117.499429 -119.800326 -123.161872 0 120 255
-118.230672 -121.150645 -125.104221 0 120 255
-118.961916 -122.500965 -127.046570 0 120 255
-119.650553 -123.851525 -129.002495 0 120 255
-120.191691 -125.202921 -131.005418 0 120 255
-120.732830 -126.554316 -133.008341 0 120 255
-121.273968 -127.905711 -135.011264 0 120 255
-121.781106 -129.256030 -137.022408 0 120 255
-122.134171 -130.601470 -139.070806 0 120 255
-122.487235 -131.946911 -141.119204 0 120 255
-122.840300 -133.292352 -143.167601 0 120 255
-123.168121 -134.636096 -145.220290 0 120 255
-123.336655 -135.969134 -147.300051 0 120 255
-123.505189 -137.302172 -149.379812 0 120 255
-123.673723 -138.635210 -151.459573 0 120 255
-123.825679 -139.966566 -153.541024 0 120 255
-123.814487 -141.281358 -155.639117 0 120 255
-123.803295 -142.596151 -157.737210 0 120 255
-123.792103 -143.910944 -159.835303 0 120 255
-123.772714 -145.224631 -161.933699 0 120 255
-123.587636 -146.515961 -164.038221 0 120 255
-123.402559 -147.807291 -166.142743 0 120 255
-123.217481 -149.098621 -168.247265 0 120 255
-123.032142 -150.389907 -170.351780 0 120 255
-122.679821 -151.653165 -172.451982 0 120 255
-122.327499 -152.916424 -174.552184 0 120 255
-121.975178 -154.179683 -176.652385 0 120 255
-121.622856 -155.442941 -178.752587 0 120 255
-121.117655 -156.675554 -180.839474 0 120 255
-120.605341 -157.906742 -182.925741 0 120 255
-120.093026 -159.137929 -185.012008 0 120 255
-119.580712 -160.369117 -187.098275 0 120 255
-118.929927 -161.568019 -189.164153 0 120 255
-118.265303 -162.763696 -191.227992 0 120 255
-117.600679 -163.959372 -193.291832 0 120 255
-116.936056 -165.155048 -195.355671 0 120 255
-116.146934 -166.317603 -197.393758 0 120 255
-115.337950 -167.474874 -199.427737 0 120 255
-114.528966 -168.632145 -201.461715 0 120 255
-113.719982 -169.789416 -203.495694 0 120 255
-112.799875 -170.913417 -205.500083 0 120 255
-111.854604 -172.029884 -207.497773 0 120 255
-110.909334 -173.146352 -209.495463 0 120 255
-109.964063 -174.262819 -211.493152 0 120 255
-108.920343 -175.346461 -213.458758 0 120 255
-107.846895 -176.420191 -215.414675 0 120 255
-106.773447 -177.493921 -217.370592 0 120 255
-105.699999 -178.567651 -219.326510 0 120 255
-104.539966 -179.609485 -221.249001 0 120 255
-103.346353 -180.638948 -223.158527 0 120 255
-102.152739 -181.668411 -225.068054 0 120 255
-100.959125 -182.697874 -226.977580 0 120 255
-99.689959 -183.696793 -228.853318 0 120 255
-98.384050 -184.680859 -230.712623 0 120 255
-97.078142 -185.664926 -232.571929 0 120 255
-95.772234 -186.648992 -234.431235 0 120 255
-94.400926 -187.604181 -236.257212 0 120 255
-92.990361 -188.542036 -238.063184 0 120 255
-91.579797 -189.479891 -239.869156 0 120 255
-90.169232 -190.417746 -241.675128 0 120 255
-88.702561 -191.328650 -243.448917 0 120 255
-87.194733 -192.219785 -245.199098 0 120 255
-85.686905 -193.110919 -246.949278 0 120 255
-84.179076 -194.002054 -248.699459 0 120 255
-82.623568 -194.868362 -250.419139 0 120 255
-81.025549 -195.712537 -252.111624 0 120 255
-79.427531 -196.556711 -253.804109 0 120 255
-77.829512 -197.400885 -255.496594 0 120 255
-76.191424 -198.222491 -257.160707 0 120 255
-74.509988 -199.019681 -258.794126 0 120 255
-72.828552 -199.816871 -260.427546 0 120 255
-71.147116 -200.614062 -262.060966 0 120 255
-69.432416 -201.391038 -263.668459 0 120 255
-67.673967 -202.141430 -265.241854 0 120 255
-65.915519 -202.891822 -266.815249 0 120 255
-64.157071 -203.642214 -268.388643 0 120 255
-62.371421 -204.374796 -269.938809 0 120 255
-60.542033 -205.078739 -271.451622 0 120 255
-58.712645 -205.782683 -272.964434 0 120 255
-56.883257 -206.486626 -274.477247 0 120 255
-55.032032 -207.175180 -275.969701 0 120 255
-53.137436 -207.833169 -277.421718 0 120 255
-51.242839 -208.491157 -278.873735 0 120 255
-49.348242 -209.149146 -280.325753 0 120 255
-47.436519 -209.794161 -281.760382 0 120 255
-45.482086 -210.406826 -283.151653 0 120 255
-43.527653 -211.019491 -284.542924 0 120 255
-41.573221 -211.632155 -285.934195 0 120 255
-39.605771 -212.234226 -287.311107 0 120 255
-37.596540 -212.802290 -288.641931 0 120 255
-35.587308 -213.370354 -289.972754 0 120 255
-33.578076 -213.938418 -291.303578 0 120 255
-31.559388 -214.498215 -292.623083 0 120 255
-29.500066 -215.022493 -293.893959 0 120 255
-27.440744 -215.546771 -295.164834 0 120 255
-25.381421 -216.071049 -296.435709 0 120 255
-23.315702 -216.589321 -297.698286 0 120 255
-21.210690 -217.070705 -298.909895 0 120 255
-19.105679 -217.552089 -300.121504 0 120 255
-17.000667 -218.033473 -301.333113 0 120 255
-14.891862 -218.511031 -302.539390 0 120 255
-12.745248 -218.950470 -303.692534 0 120 255
-10.598634 -219.389909 -304.845679 0 120 255
-8.452021 -219.829348 -305.998824 0 120 255
-6.303806 -220.267053 -307.149531 0 120 255
-4.119381 -220.665546 -308.245108 0 120 255
-1.934955 -221.064038 -309.340685 0 120 255
0.249470 -221.462531 -310.436262 0 120 255
2.433896 -221.861023 -311.531839 0 120 255
4.652380 -222.219876 -312.571219 0 120 255
6.871089 -222.578468 -313.610230 0 120 255
9.089797 -222.937060 -314.649241 0 120 255
11.308506 -223.295652 -315.688252 0 120 255
13.556504 -223.617563 -316.674856 0 120 255
15.806220 -223.937322 -317.658386 0 120 255
18.055936 -224.257080 -318.641915 0 120 255
20.305653 -224.576839 -319.625445 0 120 255
22.580447 -224.862815 -320.560242 0 120 255
24.858163 -225.144855 -321.489361 0 120 255
27.135879 -225.426896 -322.418480 0 120 255
29.413595 -225.708936 -323.347599 0 120 255
31.712646 -225.959986 -324.231631 0 120 255
34.015561 -226.205425 -325.107499 0 120 255
36.318475 -226.450864 -325.983368 0 120 255
38.621389 -226.696302 -326.859236 0 120 255
40.942346 -226.913460 -327.693548 0 120 255
43.267879 -227.123446 -328.517322 0 120 255
45.593412 -227.333431 -329.341096 0 120 255
47.918944 -227.543417 -330.164871 0 120 255
50.259637 -227.727727 -330.950491 0 120 255
52.605418 -227.903419 -331.723306 0 120 255
54.951199 -228.079112 -332.496121 0 120 255
57.296980 -228.254804 -333.268937 0 120 255
59.655392 -228.407321 -334.006913 0 120 255
62.019226 -228.549893 -334.729938 0 120 255
64.383059 -228.692465 -335.452962 0 120 255
66.746892 -228.835036 -336.175987 0 120 255
69.121157 -228.956822 -336.867369 0 120 255
71.501021 -229.067448 -337.541764 0 120 255
73.880885 -229.178075 -338.216158 0 120 255
76.260749 -229.288702 -338.890553 0 120 255
78.649391 -229.383653 -339.535043 0 120 255
81.043845 -229.468227 -340.159732 0 120 255
83.438299 -229.552800 -340.784422 0 120 255
85.832753 -229.637373 -341.409111 0 120 255
88.234486 -229.709956 -342.006131 0 120 255
90.642112 -229.772831 -342.580747 0 120 255
93.049738 -229.835706 -343.155363 0 120 255
95.457364 -229.898581 -343.729979 0 120 255
97.870567 -229.947926 -344.281406 0 120 255
100.289272 -229.983927 -344.809963 0 120 255
102.707976 -230.019928 -345.338519 0 120 255
105.126681 -230.055929 -345.867075 0 120 255
107.549530 -230.077654 -346.376406 0 120 255
109.977360 -230.082230 -346.862640 0 120 255
112.405189 -230.086806 -347.348874 0 120 255
114.833018 -230.091382 -347.835108 0 120 255
117.263941 -230.083029 -348.304882 0 120 255
119.699406 -230.055690 -348.750487 0 120 255
122.134871 -230.028351 -349.196091 0 120 255
124.570335 -230.001012 -349.641695 0 120 255
127.008018 -229.962136 -350.073431 0 120 255
129.449711 -229.902387 -350.480078 0 120 255
131.891405 -229.842638 -350.886725 0 120 255
134.333098 -229.782890 -351.293373 0 120 255
136.776296 -229.713044 -351.688561 0 120 255
139.222891 -229.620393 -352.057869 0 120 255
141.669486 -229.527742 -352.427177 0 120 255
144.116081 -229.435091 -352.796486 0 120 255
146.563617 -229.333836 -353.156562 0 120 255
149.013861 -229.207808 -353.490061 0 120 255
151.464104 -229.081781 -353.823560 0 120 255
153.914348 -228.955753 -354.157059 0 120 255
156.365104 -228.822655 -354.483395 0 120 255
158.817801 -228.662759 -354.782582 0 120 255
161.270497 -228.502863 -355.081769 0 120 255
163.723194 -228.342967 -355.380955 0 120 255
166.175724 -228.175477 -355.676721 0 120 255
168.627379 -227.968040 -355.954488 0 120 255
171.079035 -227.760602 -356.232255 0 120 255
173.530690 -227.553164 -356.510022 0 120 255
175.982039 -227.342922 -356.788278 0 120 255
178.431048 -227.111314 -357.070256 0 120 255
180.880057 -226.879707 -357.352235 0 120 255
183.329066 -226.648100 -357.634213 0 120 255
185.778075 -226.416491 -357.916193 0 120 255
188.227082 -226.184873 -358.198184 0 120 255
190.676088 -225.953255 -358.480175 0 120 255
193.125095 -225.721636 -358.762166 0 120 255
195.574102 -225.490018 -359.044157 0 120 255
198.023110 -225.258403 -359.326140 0 120 255
200.472117 -225.026789 -359.608124 0 120 255
202.921125 -224.795175 -359.890107 0 120 255
205.370133 -224.563560 -360.172091 0 120 255
