ply
format ascii 1.0
element vertex 385
property float x
property float y
property float z
property uchar red
property uchar green
property uchar blue
end_header
77.430455 -42.474882 -360.397637 0 120 255
77.187553 -42.528711 -357.935941 0 120 255
76.944652 -42.582540 -355.474246 0 120 255
76.701750 -42.636370 -353.012551 0 120 255
76.458848 -42.690199 -350.550855 0 120 255
76.234380 -42.745910 -348.087456 0 120 255
76.010714 -42.801702 -345.623982 0 120 255
75.787048 -42.857495 -343.160508 0 120 255
75.563382 -42.913288 -340.697034 0 120 255
75.326113 -42.947139 -338.234447 0 120 255
75.087555 -42.978910 -335.771943 0 120 255
74.848997 -43.010681 -333.309440 0 120 255
74.610438 -43.042452 -330.846936 0 120 255
74.337923 -43.054133 -328.387831 0 120 255
74.060129 -43.062690 -325.929255 0 120 255
73.782335 -43.071248 -323.470678 0 120 255
73.504540 -43.079805 -321.012101 0 120 255
73.190407 -43.071870 -318.557974 0 120 255
72.868170 -43.060256 -316.104839 0 120 255
72.545933 -43.048643 -313.651704 0 120 255
72.223695 -43.037030 -311.198569 0 120 255
71.863318 -43.012387 -308.750944 0 120 255
71.491550 -42.983854 -306.304964 0 120 255
71.119782 -42.955320 -303.858984 0 120 255
70.748014 -42.926787 -301.413004 0 120 255
70.336889 -42.888520 -298.973597 0 120 255
69.910658 -42.846517 -296.536713 0 120 255
69.484426 -42.804514 -294.099829 0 120 255
69.058195 -42.762512 -291.662944 0 120 255
68.591951 -42.713881 -289.233690 0 120 255
68.106477 -42.662064 -286.808103 0 120 255
67.621003 -42.610248 -284.382516 0 120 255
67.135530 -42.558431 -281.956929 0 120 255
66.609947 -42.502868 -279.540006 0 120 255
66.060647 -42.445090 -277.128207 0 120 255
65.511347 -42.387312 -274.716409 0 120 255
64.962046 -42.329534 -272.304610 0 120 255
64.373071 -42.270640 -269.902468 0 120 255
63.755561 -42.210944 -267.507273 0 120 255
63.138051 -42.151247 -265.112078 0 120 255
62.520541 -42.091551 -262.716883 0 120 255
61.864312 -42.033093 -260.332268 0 120 255
61.174452 -41.975711 -257.956843 0 120 255
60.484593 -41.918330 -255.581418 0 120 255
59.794733 -41.860948 -253.205993 0 120 255
59.067604 -41.806851 -250.841971 0 120 255
58.301519 -41.756188 -248.489868 0 120 255
57.535434 -41.705525 -246.137764 0 120 255
56.769349 -41.654863 -243.785661 0 120 255
55.967916 -41.609202 -241.445645 0 120 255
55.122042 -41.569830 -239.120824 0 120 255
54.276168 -41.530458 -236.796004 0 120 255
53.430294 -41.491086 -234.471184 0 120 255
52.551434 -41.458081 -232.158954 0 120 255
51.622561 -41.434729 -229.865814 0 120 255
50.693688 -41.411376 -227.572673 0 120 255
49.764815 -41.388024 -225.279533 0 120 255
48.805719 -41.372025 -222.999262 0 120 255
47.791033 -41.369551 -220.742661 0 120 255
46.776347 -41.367077 -218.486059 0 120 255
45.761661 -41.364603 -216.229458 0 120 255
44.719877 -41.370075 -213.985727 0 120 255
43.617022 -41.393456 -211.771002 0 120 255
42.514166 -41.416837 -209.556278 0 120 255
41.411311 -41.440219 -207.341553 0 120 255
40.284793 -41.471727 -205.139370 0 120 255
39.091919 -41.526028 -202.972356 0 120 255
37.899045 -41.580328 -200.805343 0 120 255
36.706172 -41.634629 -198.638330 0 120 255
35.493323 -41.696817 -196.483144 0 120 255
34.209171 -41.787161 -194.370176 0 120 255
32.925019 -41.877505 -192.257208 0 120 255
31.640867 -41.967849 -190.144239 0 120 255
30.340608 -42.065413 -188.041943 0 120 255
28.964561 -42.196948 -185.989862 0 120 255
27.588514 -42.328482 -183.937781 0 120 255
26.212467 -42.460017 -181.885700 0 120 255
24.824287 -42.597674 -179.842639 0 120 255
23.356454 -42.775524 -177.858784 0 120 255
21.888621 -42.953373 -175.874930 0 120 255
20.420788 -43.131222 -173.891075 0 120 255
18.944810 -43.313676 -171.914036 0 120 255
17.386104 -43.542898 -170.006227 0 120 255
15.827399 -43.772120 -168.098418 0 120 255
14.268693 -44.001341 -166.190608 0 120 255
12.705747 -44.233243 -164.286812 0 120 255
11.057970 -44.518770 -162.463314 0 120 255
9.410192 -44.804297 -160.639816 0 120 255
7.762414 -45.089824 -158.816317 0 120 255
6.114107 -45.375726 -156.993390 0 120 255
4.380017 -45.722296 -155.262880 0 120 255
2.645928 -46.068866 -153.532370 0 120 255
0.911839 -46.415437 -151.801860 0 120 255
-0.822251 -46.762007 -150.071349 0 120 255
-2.635968 -47.171825 -148.439295 0 120 255
-4.452549 -47.583917 -146.810782 0 120 255
-6.269130 -47.996010 -145.182268 0 120 255
-8.085711 -48.408102 -143.553755 0 120 255
-9.974038 -48.884637 -142.028184 0 120 255
-11.868179 -49.366394 -140.510955 0 120 255
-13.762320 -49.848150 -138.993726 0 120 255
-15.656461 -50.329907 -137.476498 0 120 255
-17.613843 -50.876635 -136.066163 0 120 255
-19.579408 -51.431770 -134.669658 0 120 255
-21.544972 -51.986904 -133.273154 0 120 255
-23.510536 -52.542038 -131.876649 0 120 255
-25.530315 -53.161993 -130.590378 0 120 255
-27.559925 -53.793703 -129.324096 0 120 255
-29.589534 -54.425412 -128.057814 0 120 255
-31.619144 -55.057122 -126.791531 0 120 255
-33.693508 -55.752811 -125.638100 0 120 255
-35.778492 -56.463682 -124.511446 0 120 255
-37.863475 -57.174552 -123.384791 0 120 255
-39.948458 -57.885422 -122.258137 0 120 255
-42.068419 -58.658743 -121.246136 0 120 255
-44.198791 -59.450651 -120.268261 0 120 255
-46.329163 -60.242559 -119.290385 0 120 255
-48.459535 -61.034468 -118.312510 0 120 255
-50.614923 -61.886622 -117.450197 0 120 255
-52.779392 -62.760644 -116.629828 0 120 255
-54.943860 -63.634666 -115.809459 0 120 255
-57.108329 -64.508687 -114.989090 0 120 255
-59.287812 -65.440107 -114.284224 0 120 255
-61.473809 -66.396426 -113.629463 0 120 255
-63.659806 -67.352746 -112.974702 0 120 255
-65.845804 -68.309065 -112.319940 0 120 255
-68.036938 -69.319322 -111.779605 0 120 255
-70.230698 -70.357138 -111.297733 0 120 255
-72.424458 -71.394953 -110.815862 0 120 255
-74.618218 -72.432768 -110.333991 0 120 255
-76.807520 -73.520520 -109.964404 0 120 255
-78.994168 -74.637997 -109.661653 0 120 255
-81.180816 -75.755474 -109.358902 0 120 255
-83.367464 -76.872951 -109.056151 0 120 255
-85.540527 -78.035878 -108.862477 0 120 255
-87.704245 -79.230068 -108.743829 0 120 255
-89.867963 -80.424258 -108.625180 0 120 255
-92.031681 -81.618447 -108.506532 0 120 255
-94.173323 -82.853217 -108.492697 0 120 255
-96.297523 -84.120047 -108.561670 0 120 255
-98.421723 -85.386878 -108.630644 0 120 255
-100.545923 -86.653708 -108.699617 0 120 255
-102.640368 -87.955960 -108.868132 0 120 255
-104.707922 -89.290223 -109.126597 0 120 255
-106.775477 -90.624485 -109.385063 0 120 255
-108.843031 -91.958748 -109.643529 0 120 255
-110.874127 -93.323097 -109.995323 0 120 255
-112.867636 -94.718465 -110.443332 0 120 255
-114.861145 -96.113833 -110.891341 0 120 255
-116.854654 -97.509202 -111.339350 0 120 255
-118.806119 -98.929278 -111.873644 0 120 255
-120.708191 -100.378381 -112.509305 0 120 255
-122.610263 -101.827485 -113.144966 0 120 255
-124.512335 -103.276588 -113.780626 0 120 255
-126.368026 -104.745095 -114.494835 0 120 255
-128.161608 -106.239586 -115.314227 0 120 255
-129.955190 -107.734077 -116.133619 0 120 255
-131.748773 -109.228567 -116.953011 0 120 255
-133.492974 -110.737372 -117.842682 0 120 255
-135.161665 -112.268066 -118.839823 0 120 255
-136.830356 -113.798760 -119.836964 0 120 255
-138.499047 -115.329454 -120.834104 0 120 255
-140.116757 -116.869714 -121.892913 0 120 255
-141.645137 -118.426736 -123.059780 0 120 255
-143.173518 -119.983758 -124.226648 0 120 255
-144.701898 -121.540780 -125.393515 0 120 255
-146.179122 -123.103079 -126.613303 0 120 255
-147.553077 -124.676030 -127.939921 0 120 255
-148.927032 -126.248981 -129.266539 0 120 255
-150.300987 -127.821932 -130.593157 0 120 255
-151.625005 -129.396447 -131.964026 0 120 255
-152.831988 -130.974627 -133.438604 0 120 255
-154.038971 -132.552808 -134.913182 0 120 255
-155.245955 -134.130988 -136.387760 0 120 255
-156.405559 -135.707684 -137.898214 0 120 255
-157.434849 -137.280298 -139.507341 0 120 255
-158.464140 -138.852911 -141.116469 0 120 255
-159.493430 -140.425524 -142.725596 0 120 255
-160.479129 -141.994336 -144.362736 0 120 255
-161.322029 -143.550696 -146.091639 0 120 255
-162.164930 -145.107056 -147.820542 0 120 255
-163.007830 -146.663416 -149.549445 0 120 255
-163.812011 -148.214437 -151.299202 0 120 255
-164.461969 -149.744199 -153.132022 0 120 255
-165.111927 -151.273961 -154.964841 0 120 255
-165.761885 -152.803722 -156.797661 0 120 255
-166.378907 -154.327402 -158.645056 0 120 255
-166.831614 -155.820740 -160.565170 0 120 255
-167.284321 -157.314079 -162.485285 0 120 255
-167.737028 -158.807417 -164.405399 0 120 255
-168.163284 -160.294716 -166.334832 0 120 255
-168.416652 -161.742543 -168.325170 0 120 255
-168.670020 -163.190369 -170.315508 0 120 255
-168.923387 -164.638195 -172.305847 0 120 255
-169.157282 -166.080771 -174.301369 0 120 255
-169.211405 -167.474870 -176.344749 0 120 255
-169.265528 -168.868969 -178.388129 0 120 255
-169.319651 -170.263068 -180.431509 0 120 255
-169.361542 -171.653384 -182.477128 0 120 255
-169.218590 -172.986529 -184.556582 0 120 255
-169.075638 -174.319674 -186.636037 0 120 255
-168.932686 -175.652819 -188.715492 0 120 255
-168.784785 -176.984243 -190.795449 0 120 255
-168.448817 -178.250304 -192.894510 0 120 255
-168.112850 -179.516365 -194.993572 0 120 255
-167.776883 -180.782425 -197.092634 0 120 255
-167.440916 -182.048486 -199.191695 0 120 255
-166.919858 -183.243320 -201.294610 0 120 255
-166.396635 -184.437321 -203.397571 0 120 255
-165.873412 -185.631322 -205.500531 0 120 255
-165.350189 -186.825322 -207.603491 0 120 255
-164.655864 -187.947225 -209.696166 0 120 255
-163.952615 -189.065367 -211.788304 0 120 255
-163.249367 -190.183509 -213.880442 0 120 255
-162.546118 -191.301651 -215.972581 0 120 255
-161.686445 -192.348219 -218.042504 0 120 255
-160.811607 -193.387849 -220.110274 0 120 255
-159.936769 -194.427478 -222.178044 0 120 255
-159.061931 -195.467108 -224.245814 0 120 255
-158.045657 -196.436967 -226.281643 0 120 255
-157.008624 -197.396587 -228.312784 0 120 255
-155.971590 -198.356206 -230.343926 0 120 255
-154.934557 -199.315825 -232.375067 0 120 255
-153.771025 -200.208535 -234.366710 0 120 255
-152.581880 -201.087698 -236.350356 0 120 255
-151.392735 -201.966860 -238.334002 0 120 255
-150.203590 -202.846022 -240.317648 0 120 255
-148.902546 -203.662033 -242.256291 0 120 255
-147.571836 -204.461302 -244.183004 0 120 255
-146.241127 -205.260571 -246.109717 0 120 255
-144.910417 -206.059840 -248.036431 0 120 255
-143.481799 -206.800399 -249.914540 0 120 255
-142.020291 -207.521236 -251.776322 0 120 255
-140.558784 -208.242073 -253.638104 0 120 255
-139.097277 -208.962910 -255.499886 0 120 255
-137.551057 -209.629987 -257.311185 0 120 255
-135.969555 -210.274673 -259.101457 0 120 255
-134.388053 -210.919359 -260.891729 0 120 255
-132.806551 -211.564045 -262.682001 0 120 255
-131.152580 -212.160239 -264.421423 0 120 255
-129.461725 -212.731752 -266.134965 0 120 255
-127.770870 -213.303266 -267.848506 0 120 255
-126.080016 -213.874779 -269.562048 0 120 255
-124.327894 -214.403237 -271.225676 0 120 255
-122.538038 -214.905176 -272.858561 0 120 255
-120.748183 -215.407115 -274.491447 0 120 255
-118.958327 -215.909055 -276.124333 0 120 255
-117.117306 -216.373389 -277.709323 0 120 255
-115.238379 -216.809862 -279.258828 0 120 255
-113.359452 -217.246335 -280.808334 0 120 255
-111.480525 -217.682809 -282.357839 0 120 255
-109.559418 -218.087014 -283.862333 0 120 255
-107.600827 -218.462542 -285.326826 0 120 255
-105.642235 -218.838070 -286.791320 0 120 255
-103.683643 -219.213598 -288.255813 0 120 255
-101.690769 -219.561992 -289.678854 0 120 255
-99.661350 -219.881460 -291.057709 0 120 255
-97.631931 -220.200928 -292.436564 0 120 255
-95.602512 -220.520396 -293.815419 0 120 255
-93.545656 -220.817548 -295.156869 0 120 255
-91.453616 -221.086084 -296.450354 0 120 255
-89.361577 -221.354619 -297.743839 0 120 255
-87.269538 -221.623155 -299.037324 0 120 255
-85.155916 -221.873817 -300.297760 0 120 255
-83.008804 -222.096747 -301.506914 0 120 255
-80.861691 -222.319676 -302.716068 0 120 255
-78.714579 -222.542605 -303.925222 0 120 255
-76.550834 -222.751676 -305.105862 0 120 255
-74.355553 -222.934470 -306.232437 0 120 255
-72.160272 -223.117264 -307.359012 0 120 255
-69.964991 -223.300058 -308.485586 0 120 255
-67.757200 -223.472539 -309.588213 0 120 255
-65.519993 -223.620770 -310.634526 0 120 255
-63.282785 -223.769001 -311.680839 0 120 255
-61.045577 -223.917233 -312.727152 0 120 255
-58.799248 -224.058195 -313.754015 0 120 255
-56.525731 -224.177487 -314.722896 0 120 255
-54.252214 -224.296780 -315.691777 0 120 255
-51.978696 -224.416073 -316.660659 0 120 255
-49.698861 -224.531650 -317.614461 0 120 255
-47.394341 -224.632705 -318.509346 0 120 255
-45.089822 -224.733760 -319.404231 0 120 255
-42.785302 -224.834815 -320.299117 0 120 255
-40.476686 -224.934884 -321.183074 0 120 255
-38.145898 -225.029614 -322.007872 0 120 255
-35.815109 -225.124344 -322.832670 0 120 255
-33.484320 -225.219073 -323.657468 0 120 255
-31.151157 -225.313599 -324.475272 0 120 255
-28.798247 -225.406429 -325.234905 0 120 255
-26.445338 -225.499259 -325.994539 0 120 255
-24.092429 -225.592089 -326.754172 0 120 255
-21.738401 -225.684818 -327.510193 0 120 255
-19.366432 -225.775930 -328.208266 0 120 255
-16.994463 -225.867042 -328.906339 0 120 255
-14.622495 -225.958154 -329.604412 0 120 255
-12.250349 -226.049238 -330.301860 0 120 255
-9.861791 -226.137686 -330.941243 0 120 255
-7.473233 -226.226135 -331.580625 0 120 255
-5.084675 -226.314583 -332.220008 0 120 255
-2.696118 -226.403032 -332.859391 0 120 255
-0.294271 -226.490095 -333.447002 0 120 255
2.108088 -226.577104 -334.032614 0 120 255
4.510447 -226.664113 -334.618226 0 120 255
6.912807 -226.751123 -335.203839 0 120 255
9.325667 -226.838525 -335.744309 0 120 255
11.739500 -226.925965 -336.280599 0 120 255
14.153333 -227.013404 -336.816890 0 120 255
16.567166 -227.100843 -337.353180 0 120 255
18.989388 -227.188659 -337.849894 0 120 255
21.412886 -227.276531 -338.340586 0 120 255
23.836384 -227.364404 -338.831278 0 120 255
26.259882 -227.452276 -339.321970 0 120 255
28.690015 -227.540294 -339.778350 0 120 255
31.121596 -227.628342 -340.227242 0 120 255
33.553177 -227.716391 -340.676133 0 120 255
35.984758 -227.804439 -341.125025 0 120 255
38.421752 -227.892389 -341.543218 0 120 255
40.860326 -227.980309 -341.952446 0 120 255
43.298901 -228.068229 -342.361673 0 120 255
45.737475 -228.156149 -342.770901 0 120 255
48.180494 -228.243697 -343.152401 0 120 255
50.625179 -228.331105 -343.523506 0 120 255
53.069863 -228.418513 -343.894610 0 120 255
55.514548 -228.505921 -344.265715 0 120 255
57.962738 -228.592199 -344.612827 0 120 255
60.412573 -228.677947 -344.948687 0 120 255
62.862407 -228.763695 -345.284547 0 120 255
65.312241 -228.849443 -345.620407 0 120 255
67.764713 -228.930481 -345.937324 0 120 255
70.218707 -229.008797 -346.243298 0 120 255
72.672702 -229.087114 -346.549272 0 120 255
75.126696 -229.165431 -346.855247 0 120 255
77.582627 -229.235645 -347.147005 0 120 255
80.039923 -229.300153 -347.428752 0 120 255
82.497218 -229.364661 -347.710499 0 120 255
84.954513 -229.429169 -347.992246 0 120 255
87.413214 -229.484579 -348.263149 0 120 255
89.873114 -229.532231 -348.524807 0 120 255
92.333014 -229.579884 -348.786465 0 120 255
94.792914 -229.627536 -349.048124 0 120 255
97.253777 -229.665559 -349.301866 0 120 255
99.715633 -229.693671 -349.547464 0 120 255
102.177489 -229.721783 -349.793062 0 120 255
104.639345 -229.749895 -350.038660 0 120 255
107.101790 -229.768095 -350.278907 0 120 255
109.564966 -229.773983 -350.512509 0 120 255
112.028143 -229.779871 -350.746111 0 120 255
114.491319 -229.785759 -350.979713 0 120 255
116.954768 -229.781712 -351.210108 0 120 255
119.418627 -229.762719 -351.435677 0 120 255
121.882486 -229.743726 -351.661247 0 120 255
124.346344 -229.724733 -351.886817 0 120 255
126.810204 -229.696027 -352.110956 0 120 255
129.274064 -229.649495 -352.332469 0 120 255
131.737925 -229.602964 -352.553982 0 120 255
134.201786 -229.556433 -352.775495 0 120 255
136.665420 -229.500663 -352.996960 0 120 255
139.128540 -229.423969 -353.218317 0 120 255
141.591660 -229.347274 -353.439673 0 120 255
144.054781 -229.270580 -353.661030 0 120 255
146.517490 -229.185359 -353.883363 0 120 255
148.979030 -229.075870 -354.108475 0 120 255
151.440570 -228.966382 -354.333587 0 120 255
153.902111 -228.856894 -354.558699 0 120 255
156.363109 -228.739838 -354.785426 0 120 255
158.822118 -228.594969 -355.018091 0 120 255
161.281126 -228.450100 -355.250756 0 120 255
163.740135 -228.305231 -355.483421 0 120 255
166.197889 -228.150841 -355.721814 0 120 255
168.649430 -227.949287 -355.988579 0 120 255
171.100971 -227.747732 -356.255345 0 120 255
173.552513 -227.546178 -356.522110 0 120 255
176.003514 -227.340891 -356.790750 0 120 255
178.450734 -227.109453 -357.072523 0 120 255
180.897953 -226.878015 -357.354295 0 120 255
183.345173 -226.646576 -357.636068 0 120 255
185.792392 -226.415137 -357.917841 0 120 255
188.239609 -226.183688 -358.199626 0 120 255
190.686826 -225.952239 -358.481411 0 120 255
193.134043 -225.720790 -358.763196 0 120 255
195.581260 -225.489341 -359.044981 0 120 255
198.028478 -225.257896 -359.326758 0 120 255
200.475697 -225.026451 -359.608536 0 120 255
202.922915 -224.795005 -359.890313 0 120 255
205.370133 -224.563560 -360.172091 0 120 255
