ply
format ascii 1.0
element vertex 385
property float x
property float y
property float z
property uchar red
property uchar green
property uchar blue
end_header
77.430455 -42.474882 -360.397637 0 120 255
77.187551 -42.528712 -357.935915 0 120 255
76.944646 -42.582542 -355.474193 0 120 255
76.701742 -42.636371 -353.012471 0 120 255
76.458837 -42.690201 -350.550748 0 120 255
76.214159 -42.754735 -348.089461 0 120 255
75.969403 -42.819734 -345.628191 0 120 255
75.724647 -42.884732 -343.166922 0 120 255
75.479891 -42.949731 -340.705653 0 120 255
75.067393 -43.409321 -338.313278 0 120 255
74.639651 -43.904771 -335.927164 0 120 255
74.211909 -44.400221 -333.541049 0 120 255
73.784167 -44.895671 -331.154935 0 120 255
73.220814 -45.668704 -328.876514 0 120 255
72.637411 -46.482778 -326.614015 0 120 255
72.054008 -47.296852 -324.351517 0 120 255
71.470605 -48.110926 -322.089018 0 120 255
70.786105 -49.114528 -319.936356 0 120 255
70.080300 -50.158072 -317.806842 0 120 255
69.374494 -51.201617 -315.677328 0 120 255
68.668689 -52.245161 -313.547815 0 120 255
67.897428 -53.415151 -311.510614 0 120 255
67.107819 -54.620587 -309.499292 0 120 255
66.318210 -55.826022 -307.487970 0 120 255
65.528601 -57.031458 -305.476647 0 120 255
64.707893 -58.323978 -303.534213 0 120 255
63.876060 -59.647654 -301.616425 0 120 255
63.044227 -60.971329 -299.698636 0 120 255
62.212394 -62.295004 -297.780848 0 120 255
61.380458 -63.685132 -295.911517 0 120 255
60.548478 -65.104803 -294.063730 0 120 255
59.716497 -66.524475 -292.215943 0 120 255
58.884516 -67.944146 -290.368156 0 120 255
58.078379 -69.422168 -288.555788 0 120 255
57.286272 -70.931867 -286.762648 0 120 255
56.494164 -72.441566 -284.969508 0 120 255
55.702057 -73.951265 -283.176368 0 120 255
54.955608 -75.517939 -281.413923 0 120 255
54.239076 -77.121945 -279.671591 0 120 255
53.522544 -78.725951 -277.929259 0 120 255
52.806012 -80.329957 -276.186927 0 120 255
52.148450 -81.991697 -274.477538 0 120 255
51.537187 -83.698765 -272.794015 0 120 255
50.925923 -85.405834 -271.110491 0 120 255
50.314660 -87.112902 -269.426968 0 120 255
49.769502 -88.877538 -267.783144 0 120 255
49.286293 -90.696124 -266.176523 0 120 255
48.803084 -92.514711 -264.569903 0 120 255
48.319875 -94.333297 -262.963282 0 120 255
47.904660 -96.206749 -261.404879 0 120 255
47.565421 -98.141510 -259.900355 0 120 255
47.226182 -100.076271 -258.395831 0 120 255
46.886943 -102.011031 -256.891306 0 120 255
46.613571 -103.994980 -255.442867 0 120 255
46.428096 -106.044568 -254.069272 0 120 255
46.242622 -108.094156 -252.695677 0 120 255
46.057147 -110.143744 -251.322082 0 120 255
45.932725 -112.234288 -250.010060 0 120 255
45.906039 -114.390395 -248.796609 0 120 255
45.879353 -116.546503 -247.583158 0 120 255
45.852667 -118.702611 -246.369707 0 120 255
45.880703 -120.889776 -245.219928 0 120 255
46.014634 -123.137042 -244.193366 0 120 255
46.148566 -125.384309 -243.166804 0 120 255
46.282498 -127.631576 -242.140242 0 120 255
46.464219 -129.899428 -241.175732 0 120 255
46.759043 -132.216001 -240.358085 0 120 255
47.053867 -134.532573 -239.540438 0 120 255
47.348691 -136.849145 -238.722791 0 120 255
47.684327 -139.176338 -237.962051 0 120 255
48.140134 -141.534802 -237.368869 0 120 255
48.595941 -143.893266 -236.775688 0 120 255
49.051747 -146.251730 -236.182506 0 120 255
49.541596 -148.612321 -235.638175 0 120 255
50.159353 -150.980904 -235.277388 0 120 255
50.777109 -153.349487 -234.916602 0 120 255
51.394866 -155.718070 -234.555815 0 120 255
52.040086 -158.082520 -234.233758 0 120 255
52.822168 -160.426378 -234.104701 0 120 255
53.604250 -162.770235 -233.975643 0 120 255
54.386331 -165.114093 -233.846586 0 120 255
55.189320 -167.450337 -233.745118 0 120 255
56.139604 -169.732947 -233.838021 0 120 255
57.089888 -172.015556 -233.930923 0 120 255
58.040172 -174.298165 -234.023826 0 120 255
59.004607 -176.572765 -234.133292 0 120 255
60.128003 -178.757396 -234.428835 0 120 255
61.251399 -180.942027 -234.724377 0 120 255
62.374795 -183.126658 -235.019919 0 120 255
63.505222 -185.306025 -235.322321 0 120 255
64.806772 -187.357289 -235.791640 0 120 255
66.108322 -189.408553 -236.260958 0 120 255
67.409872 -191.459817 -236.730277 0 120 255
68.711422 -193.511080 -237.199596 0 120 255
70.194541 -195.397004 -237.804101 0 120 255
71.678121 -197.282508 -238.408948 0 120 255
73.161700 -199.168013 -239.013796 0 120 255
74.645280 -201.053517 -239.618643 0 120 255
76.303891 -202.754121 -240.308280 0 120 255
77.970604 -204.446166 -241.001841 0 120 255
79.637317 -206.138210 -241.695402 0 120 255
81.304030 -207.830255 -242.388963 0 120 255
83.135093 -209.325959 -243.114097 0 120 255
84.981559 -210.803259 -243.842190 0 120 255
86.828026 -212.280559 -244.570284 0 120 255
88.674493 -213.757860 -245.298377 0 120 255
90.669593 -215.036025 -246.004635 0 120 255
92.686298 -216.285245 -246.707719 0 120 255
94.703002 -217.534465 -247.410804 0 120 255
96.719707 -218.783686 -248.113888 0 120 255
98.863868 -219.839753 -248.744280 0 120 255
101.033751 -220.856842 -249.360004 0 120 255
103.203633 -221.873932 -249.975727 0 120 255
105.373515 -222.891022 -250.591451 0 120 255
107.644429 -223.729184 -251.089036 0 120 255
109.941994 -224.520146 -251.555457 0 120 255
112.239560 -225.311107 -252.021878 0 120 255
114.537125 -226.102069 -252.488299 0 120 255
116.904857 -226.735525 -252.799156 0 120 255
119.295906 -227.316640 -253.058320 0 120 255
121.686955 -227.897756 -253.317483 0 120 255
124.078004 -228.478871 -253.576647 0 120 255
126.505348 -228.929417 -253.652901 0 120 255
128.947519 -229.326630 -253.654444 0 120 255
131.389689 -229.723843 -253.655987 0 120 255
133.831859 -230.121056 -253.657530 0 120 255
136.275296 -230.418061 -253.460282 0 120 255
138.719360 -230.665589 -253.164884 0 120 255
141.163423 -230.913117 -252.869486 0 120 255
143.607486 -231.160644 -252.574088 0 120 255
146.018692 -231.339991 -252.075847 0 120 255
148.410515 -231.479114 -251.457943 0 120 255
150.802337 -231.618238 -250.840038 0 120 255
153.194159 -231.757361 -250.222133 0 120 255
155.522063 -231.859731 -249.408626 0 120 255
157.805250 -231.936387 -248.458281 0 120 255
160.088437 -232.013044 -247.507936 0 120 255
162.371624 -232.089700 -246.557591 0 120 255
164.564724 -232.144299 -245.428127 0 120 255
166.683381 -232.180672 -244.150652 0 120 255
168.802039 -232.217045 -242.873177 0 120 255
170.920697 -232.253417 -241.595703 0 120 255
172.927835 -232.275519 -240.161588 0 120 255
174.826380 -232.283724 -238.574946 0 120 255
176.724926 -232.291930 -236.988304 0 120 255
178.623472 -232.300135 -235.401662 0 120 255
180.395370 -232.299967 -233.685649 0 120 255
182.022089 -232.290201 -231.821336 0 120 255
183.648808 -232.280435 -229.957022 0 120 255
185.275528 -232.270669 -228.092709 0 120 255
186.767892 -232.257294 -226.128834 0 120 255
188.078540 -232.239039 -224.030300 0 120 255
189.389188 -232.220784 -221.931766 0 120 255
190.699836 -232.202529 -219.833232 0 120 255
191.875848 -232.183660 -217.664882 0 120 255
192.836013 -232.163805 -215.384605 0 120 255
193.796178 -232.143950 -213.104328 0 120 255
194.756344 -232.124096 -210.824051 0 120 255
195.588355 -232.105144 -208.501445 0 120 255
196.175000 -232.087923 -206.097797 0 120 255
196.761645 -232.070701 -203.694148 0 120 255
197.348290 -232.053479 -201.290499 0 120 255
197.818837 -232.037601 -198.868038 0 120 255
198.020940 -232.024828 -196.402076 0 120 255
198.223042 -232.012056 -193.936114 0 120 255
198.425145 -231.999283 -191.470153 0 120 255
198.527229 -231.987611 -189.003773 0 120 255
198.345522 -231.979059 -186.536206 0 120 255
198.163816 -231.970507 -184.068639 0 120 255
197.982109 -231.961955 -181.601073 0 120 255
197.718808 -231.953931 -179.145809 0 120 255
197.164784 -231.947789 -176.734378 0 120 255
196.610760 -231.941648 -174.322948 0 120 255
196.056736 -231.935506 -171.911518 0 120 255
195.440279 -231.929286 -169.519419 0 120 255
194.534710 -231.922702 -167.216839 0 120 255
193.629142 -231.916118 -164.914258 0 120 255
192.723573 -231.909535 -162.611677 0 120 255
191.774064 -231.902436 -160.330174 0 120 255
190.545216 -231.892063 -158.182664 0 120 255
189.316367 -231.881690 -156.035154 0 120 255
188.087519 -231.871317 -153.887643 0 120 255
186.831420 -231.860273 -151.758392 0 120 255
185.313095 -231.842771 -149.804842 0 120 255
183.794771 -231.825270 -147.851291 0 120 255
182.276447 -231.807768 -145.897740 0 120 255
180.744956 -231.789741 -143.955956 0 120 255
178.974696 -231.762182 -142.227547 0 120 255
177.204435 -231.734624 -140.499139 0 120 255
175.434175 -231.707065 -138.770731 0 120 255
173.661727 -231.679381 -137.044885 0 120 255
171.679038 -231.639649 -135.565242 0 120 255
169.696349 -231.599916 -134.085600 0 120 255
167.713661 -231.560183 -132.605957 0 120 255
165.730972 -231.520451 -131.126315 0 120 255
163.581337 -231.467887 -129.903530 0 120 255
161.426231 -231.414902 -128.689163 0 120 255
159.271125 -231.361918 -127.474796 0 120 255
157.116019 -231.308933 -126.260430 0 120 255
154.837657 -231.243832 -125.301058 0 120 255
152.549466 -231.177765 -124.362019 0 120 255
150.261276 -231.111697 -123.422980 0 120 255
147.973085 -231.045630 -122.483942 0 120 255
145.600601 -230.969309 -121.792204 0 120 255
143.217055 -230.891642 -121.132924 0 120 255
140.833509 -230.813975 -120.473644 0 120 255
138.449963 -230.736309 -119.814363 0 120 255
136.016032 -230.651407 -119.390256 0 120 255
133.572630 -230.565145 -119.010360 0 120 255
131.129228 -230.478883 -118.630464 0 120 255
128.685826 -230.392621 -118.250567 0 120 255
126.220844 -230.303187 -118.090599 0 120 255
123.750450 -230.212957 -117.985782 0 120 255
121.280055 -230.122727 -117.880966 0 120 255
118.809661 -230.032496 -117.776149 0 120 255
116.341646 -229.942844 -117.874285 0 120 255
113.874392 -229.853377 -118.037480 0 120 255
111.407139 -229.763910 -118.200676 0 120 255
108.939886 -229.674442 -118.363871 0 120 255
106.494736 -229.586559 -118.712567 0 120 255
104.058395 -229.499307 -119.135183 0 120 255
101.622054 -229.412055 -119.557800 0 120 255
99.185713 -229.324802 -119.980416 0 120 255
96.787375 -229.239607 -120.570617 0 120 255
94.407511 -229.155411 -121.242281 0 120 255
92.027647 -229.071216 -121.913945 0 120 255
89.647782 -228.987020 -122.585609 0 120 255
87.318354 -228.905222 -123.406863 0 120 255
85.018447 -228.824828 -124.315677 0 120 255
82.718541 -228.744434 -125.224490 0 120 255
80.418634 -228.664039 -126.133304 0 120 255
78.178457 -228.586311 -127.173931 0 120 255
75.980011 -228.510445 -128.306650 0 120 255
73.781564 -228.434580 -129.439369 0 120 255
71.583118 -228.358714 -130.572089 0 120 255
69.450882 -228.285666 -131.819360 0 120 255
67.373556 -228.214955 -133.161631 0 120 255
65.296230 -228.144244 -134.503903 0 120 255
63.218905 -228.073533 -135.846175 0 120 255
61.211747 -228.005742 -137.286462 0 120 255
59.273470 -227.940819 -138.822965 0 120 255
57.335192 -227.875896 -140.359468 0 120 255
55.396915 -227.810973 -141.895970 0 120 255
53.530485 -227.748975 -143.514825 0 120 255
51.747499 -227.690375 -145.229323 0 120 255
49.964513 -227.631776 -146.943821 0 120 255
48.181527 -227.573176 -148.658319 0 120 255
46.470022 -227.517429 -150.440525 0 120 255
44.856932 -227.465610 -152.315954 0 120 255
43.243843 -227.413791 -154.191382 0 120 255
41.630753 -227.361972 -156.066811 0 120 255
40.086932 -227.312880 -157.996444 0 120 255
38.656683 -227.268258 -160.014951 0 120 255
37.226433 -227.223637 -162.033459 0 120 255
35.796184 -227.179015 -164.051966 0 120 255
34.431331 -227.136932 -166.112425 0 120 255
33.195137 -227.099844 -168.255419 0 120 255
31.958943 -227.062756 -170.398414 0 120 255
30.722748 -227.025668 -172.541408 0 120 255
29.546637 -226.990885 -174.715480 0 120 255
28.513982 -226.961604 -176.963755 0 120 255
27.481327 -226.932323 -179.212030 0 120 255
26.448672 -226.903043 -181.460306 0 120 255
25.469544 -226.875793 -183.730263 0 120 255
24.648108 -226.854527 -186.064093 0 120 255
23.826671 -226.833261 -188.397924 0 120 255
23.005235 -226.811994 -190.731755 0 120 255
22.229731 -226.792453 -193.079435 0 120 255
21.625288 -226.779337 -195.478696 0 120 255
21.020845 -226.766220 -197.877957 0 120 255
20.416402 -226.753104 -200.277218 0 120 255
19.849497 -226.741383 -202.684141 0 120 255
19.465898 -226.736473 -205.128482 0 120 255
19.082298 -226.731564 -207.572823 0 120 255
18.698699 -226.726655 -210.017164 0 120 255
18.343664 -226.722796 -212.464671 0 120 255
18.182696 -226.726069 -214.933690 0 120 255
18.021728 -226.729341 -217.402709 0 120 255
17.860760 -226.732614 -219.871728 0 120 255
17.719057 -226.736589 -222.341133 0 120 255
17.780424 -226.747969 -224.814608 0 120 255
17.841791 -226.759349 -227.288084 0 120 255
17.903158 -226.770729 -229.761559 0 120 255
17.974427 -226.782466 -232.234344 0 120 255
18.255772 -226.801790 -234.692483 0 120 255
18.537116 -226.821114 -237.150622 0 120 255
18.818461 -226.840438 -239.608761 0 120 255
19.100535 -226.859787 -242.066784 0 120 255
19.597432 -226.886819 -244.490487 0 120 255
20.094330 -226.913851 -246.914190 0 120 255
20.591228 -226.940883 -249.337893 0 120 255
21.088126 -226.967915 -251.761597 0 120 255
21.786207 -227.002105 -254.134733 0 120 255
22.492289 -227.036579 -256.505858 0 120 255
23.198370 -227.071052 -258.876984 0 120 255
23.904452 -227.105526 -261.248109 0 120 255
24.795461 -227.146495 -263.555288 0 120 255
25.702522 -227.188026 -265.856916 0 120 255
26.609582 -227.229558 -268.158544 0 120 255
27.516643 -227.271090 -270.460172 0 120 255
28.591611 -227.318460 -272.687166 0 120 255
29.689802 -227.366637 -274.903837 0 120 255
30.787994 -227.414815 -277.120508 0 120 255
31.886185 -227.462992 -279.337179 0 120 255
33.134949 -227.516337 -281.471180 0 120 255
34.413072 -227.570689 -283.589062 0 120 255
35.691195 -227.625041 -285.706943 0 120 255
36.969318 -227.679393 -287.824825 0 120 255
38.380688 -227.738265 -289.854595 0 120 255
39.826384 -227.798301 -291.861666 0 120 255
41.272080 -227.858337 -293.868737 0 120 255
42.717777 -227.918372 -295.875808 0 120 255
44.279776 -227.982313 -297.791766 0 120 255
45.879834 -228.047532 -299.677910 0 120 255
47.479891 -228.112751 -301.564054 0 120 255
49.079949 -228.177970 -303.450197 0 120 255
50.780074 -228.246494 -305.244458 0 120 255
52.520731 -228.316357 -307.001504 0 120 255
54.261387 -228.386220 -308.758550 0 120 255
56.002044 -228.456083 -310.515596 0 120 255
57.827503 -228.528763 -312.181968 0 120 255
59.694733 -228.602832 -313.803678 0 120 255
61.561963 -228.676900 -315.425387 0 120 255
63.429192 -228.750968 -317.047097 0 120 255
65.367134 -228.827478 -318.581041 0 120 255
67.346925 -228.905431 -320.063041 0 120 255
69.326717 -228.983385 -321.545041 0 120 255
71.306508 -229.061339 -323.027041 0 120 255
73.344191 -229.141335 -324.425668 0 120 255
75.422705 -229.222771 -325.765489 0 120 255
77.501220 -229.304208 -327.105310 0 120 255
79.579735 -229.385644 -328.445131 0 120 255
81.704511 -229.467651 -329.707582 0 120 255
83.867977 -229.550135 -330.905323 0 120 255
86.031444 -229.632620 -332.103064 0 120 255
88.194910 -229.715104 -333.300806 0 120 255
90.393864 -229.792355 -334.429817 0 120 255
92.627925 -229.864427 -335.490830 0 120 255
94.861987 -229.936500 -336.551843 0 120 255
97.096049 -230.008572 -337.612856 0 120 255
99.356648 -230.070678 -338.614209 0 120 255
101.648303 -230.121120 -339.545738 0 120 255
103.939958 -230.171562 -340.477268 0 120 255
106.231614 -230.222003 -341.408797 0 120 255
108.542567 -230.259675 -342.289554 0 120 255
110.880298 -230.279627 -343.099856 0 120 255
113.218030 -230.299579 -343.910157 0 120 255
115.555761 -230.319531 -344.720459 0 120 255
117.907040 -230.325492 -345.488474 0 120 255
120.280718 -230.308318 -346.186564 0 120 255
122.654397 -230.291144 -346.884655 0 120 255
125.028075 -230.273971 -347.582745 0 120 255
127.410839 -230.242886 -348.246488 0 120 255
129.811649 -230.184169 -348.842004 0 120 255
132.212459 -230.125453 -349.437520 0 120 255
134.613269 -230.066736 -350.033037 0 120 255
137.019831 -229.995228 -350.601430 0 120 255
139.440282 -229.892834 -351.104330 0 120 255
141.860733 -229.790439 -351.607229 0 120 255
144.281184 -229.688045 -352.110129 0 120 255
146.705011 -229.574744 -352.592344 0 120 255
149.138925 -229.428866 -353.012774 0 120 255
151.572838 -229.282987 -353.433204 0 120 255
154.006751 -229.137109 -353.853634 0 120 255
156.442460 -228.982662 -354.258958 0 120 255
158.884976 -228.795735 -354.607022 0 120 255
161.327493 -228.608807 -354.955086 0 120 255
163.770009 -228.421880 -355.303151 0 120 255
166.213350 -228.229149 -355.641135 0 120 255
168.660818 -228.007394 -355.928711 0 120 255
171.108287 -227.785639 -356.216286 0 120 255
173.555755 -227.563884 -356.503862 0 120 255
176.003195 -227.340921 -356.790714 0 120 255
178.450441 -227.109480 -357.072489 0 120 255
180.897687 -226.878040 -357.354265 0 120 255
183.344934 -226.646599 -357.636040 0 120 255
185.792179 -226.415158 -357.917817 0 120 255
188.239423 -226.183706 -358.199605 0 120 255
190.686667 -225.952254 -358.481393 0 120 255
193.133910 -225.720802 -358.763181 0 120 255
195.581154 -225.489351 -359.044969 0 120 255
198.028399 -225.257903 -359.326749 0 120 255
200.475644 -225.026456 -359.608530 0 120 255
202.922888 -224.795008 -359.890310 0 120 255
205.370133 -224.563560 -360.172091 0 120 255
