ply
format ascii 1.0
element vertex 385
property float x
property float y
property float z
property uchar red
property uchar green
property uchar blue
end_header
77.430455 -42.474882 -360.397637 0 120 255
77.187573 -42.528707 -357.936137 0 120 255
76.944690 -42.582532 -355.474637 0 120 255
76.701808 -42.636357 -353.013137 0 120 255
76.458925 -42.690182 -350.551638 0 120 255
76.213434 -42.752722 -348.090603 0 120 255
75.967829 -42.815644 -345.629589 0 120 255
75.722224 -42.878566 -343.168576 0 120 255
75.476619 -42.941489 -340.707562 0 120 255
75.206728 -43.380644 -338.290543 0 120 255
74.934613 -43.854253 -335.877554 0 120 255
74.662497 -44.327861 -333.464564 0 120 255
74.390382 -44.801470 -331.051575 0 120 255
74.108356 -45.581466 -328.723914 0 120 255
73.824869 -46.406647 -326.408837 0 120 255
73.541382 -47.231827 -324.093759 0 120 255
73.257894 -48.057007 -321.778682 0 120 255
72.975363 -49.134325 -319.573099 0 120 255
72.693031 -50.264485 -317.390464 0 120 255
72.410700 -51.394645 -315.207828 0 120 255
72.128368 -52.524805 -313.025193 0 120 255
71.856186 -53.860937 -310.964726 0 120 255
71.586834 -55.254486 -308.938316 0 120 255
71.317481 -56.648035 -306.911905 0 120 255
71.048129 -58.041585 -304.885494 0 120 255
70.796342 -59.602240 -302.986552 0 120 255
70.550815 -61.222437 -301.133029 0 120 255
70.305288 -62.842634 -299.279506 0 120 255
70.059762 -64.462831 -297.425983 0 120 255
69.837680 -66.217337 -295.700367 0 120 255
69.626000 -68.031436 -294.031502 0 120 255
69.414321 -69.845534 -292.362638 0 120 255
69.202641 -71.659633 -290.693773 0 120 255
69.019084 -73.580209 -289.149917 0 120 255
68.850795 -75.558596 -287.673930 0 120 255
68.682505 -77.536982 -286.197944 0 120 255
68.514216 -79.515369 -284.721957 0 120 255
68.377889 -81.576445 -283.365603 0 120 255
68.262542 -83.691802 -282.087781 0 120 255
68.147195 -85.807159 -280.809958 0 120 255
68.031849 -87.922515 -279.532136 0 120 255
67.951729 -90.100174 -278.366685 0 120 255
67.899352 -92.326899 -277.289734 0 120 255
67.846974 -94.553623 -276.212782 0 120 255
67.794597 -96.780348 -275.135831 0 120 255
67.780294 -99.051900 -274.162504 0 120 255
67.801800 -101.365612 -273.286638 0 120 255
67.823307 -103.679325 -272.410772 0 120 255
67.844813 -105.993038 -271.534906 0 120 255
67.906862 -108.336653 -270.752729 0 120 255
68.014371 -110.713797 -270.075603 0 120 255
68.121881 -113.090940 -269.398477 0 120 255
68.229390 -115.468084 -268.721350 0 120 255
68.379439 -117.862494 -268.127087 0 120 255
68.586408 -120.280006 -267.643695 0 120 255
68.793377 -122.697519 -267.160303 0 120 255
69.000346 -125.115031 -266.676911 0 120 255
69.251212 -127.539255 -266.264904 0 120 255
69.572423 -129.974234 -265.967293 0 120 255
69.893634 -132.409212 -265.669681 0 120 255
70.214844 -134.844191 -265.372069 0 120 255
70.580421 -137.277271 -265.133977 0 120 255
71.031734 -139.706683 -265.010902 0 120 255
71.483046 -142.136094 -264.887828 0 120 255
71.934358 -144.565506 -264.764753 0 120 255
72.429355 -146.986280 -264.689254 0 120 255
73.027238 -149.386711 -264.725802 0 120 255
73.625121 -151.787142 -264.762350 0 120 255
74.223003 -154.187574 -264.798899 0 120 255
74.862481 -156.574487 -264.871342 0 120 255
75.623256 -158.921979 -265.048460 0 120 255
76.384030 -161.269472 -265.225579 0 120 255
77.144805 -163.616965 -265.402697 0 120 255
77.943499 -165.947957 -265.604728 0 120 255
78.882351 -168.217962 -265.898844 0 120 255
79.821203 -170.487967 -266.192959 0 120 255
80.760056 -172.757972 -266.487074 0 120 255
81.731502 -175.010479 -266.796306 0 120 255
82.861165 -177.178046 -267.178909 0 120 255
83.990827 -179.345613 -267.561513 0 120 255
85.120490 -181.513180 -267.944116 0 120 255
86.275901 -183.664315 -268.333824 0 120 255
87.605176 -185.704497 -268.771498 0 120 255
88.934450 -187.744679 -269.209171 0 120 255
90.263724 -189.784861 -269.646845 0 120 255
91.610737 -191.811788 -270.085997 0 120 255
93.142836 -193.700411 -270.540578 0 120 255
94.674935 -195.589034 -270.995158 0 120 255
96.207035 -197.477658 -271.449738 0 120 255
97.748320 -199.358249 -271.903153 0 120 255
99.479294 -201.072970 -272.332489 0 120 255
101.210269 -202.787691 -272.761826 0 120 255
102.941244 -204.502411 -273.191162 0 120 255
104.673179 -206.216137 -273.620136 0 120 255
106.590528 -207.737862 -273.979300 0 120 255
108.507876 -209.259587 -274.338465 0 120 255
110.425224 -210.781312 -274.697629 0 120 255
112.342573 -212.303037 -275.056793 0 120 255
114.418545 -213.624843 -275.304108 0 120 255
116.500384 -214.939257 -275.547287 0 120 255
118.582222 -216.253670 -275.790466 0 120 255
120.664061 -217.568084 -276.033645 0 120 255
122.868797 -218.683724 -276.128666 0 120 255
125.083687 -219.782941 -276.211445 0 120 255
127.298578 -220.882159 -276.294225 0 120 255
129.513468 -221.981376 -276.377005 0 120 255
131.810350 -222.890460 -276.282463 0 120 255
134.118079 -223.774390 -276.164462 0 120 255
136.425808 -224.658319 -276.046461 0 120 255
138.733537 -225.542249 -275.928460 0 120 255
141.079638 -226.252071 -275.612849 0 120 255
143.432903 -226.929389 -275.260348 0 120 255
145.786167 -227.606707 -274.907847 0 120 255
148.139431 -228.284026 -274.555346 0 120 255
150.487622 -228.809760 -273.994864 0 120 255
152.834562 -229.298125 -273.383112 0 120 255
155.181502 -229.786491 -272.771359 0 120 255
157.528442 -230.274856 -272.159606 0 120 255
159.829900 -230.639278 -271.339638 0 120 255
162.117133 -230.964934 -270.454547 0 120 255
164.404365 -231.290590 -269.569456 0 120 255
166.691598 -231.616246 -268.684366 0 120 255
168.898484 -231.848721 -267.600247 0 120 255
171.074312 -232.045175 -266.439191 0 120 255
173.250139 -232.241629 -265.278135 0 120 255
175.425966 -232.438083 -264.117078 0 120 255
177.494004 -232.574146 -262.774351 0 120 255
179.511448 -232.681863 -261.346349 0 120 255
181.528892 -232.789580 -259.918348 0 120 255
183.546336 -232.897297 -258.490347 0 120 255
185.437044 -232.975334 -256.904047 0 120 255
187.256367 -233.036653 -255.228585 0 120 255
189.075691 -233.097973 -253.553123 0 120 255
190.895014 -233.159293 -251.877661 0 120 255
192.576081 -233.212672 -250.070048 0 120 255
194.164456 -233.260728 -248.173834 0 120 255
195.752830 -233.308783 -246.277620 0 120 255
197.341205 -233.356839 -244.381406 0 120 255
198.783889 -233.400147 -242.378475 0 120 255
200.110845 -233.439685 -240.290774 0 120 255
201.437801 -233.479224 -238.203073 0 120 255
202.764757 -233.518762 -236.115372 0 120 255
203.943087 -233.552714 -233.946433 0 120 255
204.981910 -233.581423 -231.701240 0 120 255
206.020734 -233.610131 -229.456047 0 120 255
207.059557 -233.638840 -227.210854 0 120 255
207.952071 -233.662171 -224.909445 0 120 255
208.682409 -233.679542 -222.545725 0 120 255
209.412748 -233.696913 -220.182004 0 120 255
210.143086 -233.714284 -217.818284 0 120 255
210.734285 -233.726766 -215.421545 0 120 255
211.143063 -233.732837 -212.981518 0 120 255
211.551840 -233.738909 -210.541490 0 120 255
211.960617 -233.744980 -208.101463 0 120 255
212.241421 -233.746570 -205.648662 0 120 255
212.322949 -233.741182 -203.175973 0 120 255
212.404476 -233.735795 -200.703283 0 120 255
212.486004 -233.730407 -198.230593 0 120 255
212.453760 -233.720955 -195.761670 0 120 255
212.209647 -233.703937 -193.299763 0 120 255
211.965534 -233.686919 -190.837855 0 120 255
211.721421 -233.669901 -188.375947 0 120 255
211.379736 -233.649317 -185.930205 0 120 255
210.818447 -233.620707 -183.520847 0 120 255
210.257158 -233.592098 -181.111489 0 120 255
209.695868 -233.563489 -178.702131 0 120 255
209.054141 -233.531921 -176.317066 0 120 255
208.190248 -233.492182 -173.999097 0 120 255
207.326355 -233.452442 -171.681129 0 120 255
206.462462 -233.412703 -169.363160 0 120 255
205.535234 -233.370723 -167.073473 0 120 255
204.388528 -233.320978 -164.881793 0 120 255
203.241822 -233.271232 -162.690113 0 120 255
202.095116 -233.221487 -160.498433 0 120 255
200.901244 -233.170125 -158.335279 0 120 255
199.495391 -233.111496 -156.300332 0 120 255
198.089538 -233.052868 -154.265385 0 120 255
196.683685 -232.994239 -152.230438 0 120 255
195.245254 -232.934516 -150.221038 0 120 255
193.606713 -232.868068 -148.368571 0 120 255
191.968171 -232.801620 -146.516103 0 120 255
190.329629 -232.735171 -144.663636 0 120 255
188.671062 -232.668066 -142.831107 0 120 255
186.828082 -232.594905 -141.182185 0 120 255
184.985102 -232.521745 -139.533263 0 120 255
183.142122 -232.448585 -137.884341 0 120 255
181.289353 -232.375112 -136.247717 0 120 255
179.271110 -232.296372 -134.818953 0 120 255
177.252867 -232.217632 -133.390189 0 120 255
175.234624 -232.138891 -131.961425 0 120 255
173.214379 -232.060090 -130.535855 0 120 255
171.050284 -231.976880 -129.339763 0 120 255
168.886188 -231.893671 -128.143671 0 120 255
166.722092 -231.810461 -126.947579 0 120 255
164.557997 -231.727252 -125.751487 0 120 255
162.280493 -231.640767 -124.790041 0 120 255
159.999670 -231.554186 -123.835462 0 120 255
157.718847 -231.467605 -122.880884 0 120 255
155.438023 -231.381024 -121.926305 0 120 255
153.075167 -231.292293 -121.201472 0 120 255
150.706077 -231.203399 -120.494098 0 120 255
148.336986 -231.114505 -119.786723 0 120 255
145.967896 -231.025611 -119.079348 0 120 255
143.544977 -230.935566 -118.593973 0 120 255
141.115212 -230.845376 -118.136829 0 120 255
138.685448 -230.755185 -117.679685 0 120 255
136.255683 -230.664995 -117.222540 0 120 255
133.797182 -230.574535 -116.977486 0 120 255
131.333408 -230.484026 -116.771340 0 120 255
128.869634 -230.393517 -116.565194 0 120 255
126.405860 -230.303008 -116.359048 0 120 255
123.935465 -230.213017 -116.353435 0 120 255
121.463443 -230.123154 -116.397081 0 120 255
118.991422 -230.033290 -116.440726 0 120 255
116.519400 -229.943426 -116.484372 0 120 255
114.060084 -229.854690 -116.715886 0 120 255
111.604765 -229.766308 -117.006521 0 120 255
109.149446 -229.677926 -117.297156 0 120 255
106.694127 -229.589543 -117.587791 0 120 255
104.268185 -229.502897 -118.052500 0 120 255
101.853752 -229.416930 -118.585409 0 120 255
99.439318 -229.330963 -119.118318 0 120 255
97.024885 -229.244996 -119.651227 0 120 255
94.653851 -229.161204 -120.343338 0 120 255
92.303578 -229.078453 -121.111610 0 120 255
89.953306 -228.995702 -121.879883 0 120 255
87.603034 -228.912950 -122.648155 0 120 255
85.307442 -228.832719 -123.559808 0 120 255
83.043368 -228.753941 -124.554110 0 120 255
80.779294 -228.675162 -125.548411 0 120 255
78.515221 -228.596384 -126.542713 0 120 255
76.314310 -228.520359 -127.663978 0 120 255
74.156877 -228.446229 -128.872637 0 120 255
71.999444 -228.372099 -130.081296 0 120 255
69.842011 -228.297969 -131.289955 0 120 255
67.753465 -228.226759 -132.609019 0 120 255
65.721221 -228.157936 -134.018316 0 120 255
63.688977 -228.089113 -135.427612 0 120 255
61.656732 -228.020290 -136.836909 0 120 255
59.696532 -227.954443 -138.340415 0 120 255
57.806038 -227.891477 -139.935074 0 120 255
55.915544 -227.828511 -141.529733 0 120 255
54.025050 -227.765545 -143.124393 0 120 255
52.207416 -227.705527 -144.797799 0 120 255
50.473192 -227.648882 -146.561354 0 120 255
48.738968 -227.592237 -148.324910 0 120 255
47.004744 -227.535593 -150.088466 0 120 255
45.342117 -227.481797 -151.916325 0 120 255
43.776656 -227.431869 -153.831451 0 120 255
42.211195 -227.381940 -155.746578 0 120 255
40.645734 -227.332011 -157.661704 0 120 255
39.148899 -227.284771 -159.627988 0 120 255
37.762960 -227.241873 -161.676939 0 120 255
36.377020 -227.198976 -163.725891 0 120 255
34.991081 -227.156078 -165.774842 0 120 255
33.669346 -227.115670 -167.863201 0 120 255
32.472079 -227.080089 -170.027954 0 120 255
31.274812 -227.044507 -172.192707 0 120 255
30.077545 -227.008925 -174.357460 0 120 255
28.938859 -226.975584 -176.551332 0 120 255
27.937951 -226.947513 -178.813691 0 120 255
26.937043 -226.919442 -181.076049 0 120 255
25.936135 -226.891370 -183.338407 0 120 255
24.987214 -226.865267 -185.621100 0 120 255
24.189068 -226.844871 -187.962770 0 120 255
23.390922 -226.824475 -190.304440 0 120 255
22.592776 -226.804079 -192.646110 0 120 255
21.839211 -226.785359 -195.000838 0 120 255
21.248914 -226.772778 -197.403391 0 120 255
20.658617 -226.760196 -199.805944 0 120 255
20.068320 -226.747615 -202.208498 0 120 255
19.514549 -226.736389 -204.618357 0 120 255
19.135884 -226.731662 -207.063241 0 120 255
18.757220 -226.726935 -209.508126 0 120 255
18.378555 -226.722207 -211.953011 0 120 255
18.027878 -226.718512 -214.400990 0 120 255
17.863308 -226.721682 -216.869548 0 120 255
17.698738 -226.724851 -219.338105 0 120 255
17.534168 -226.728020 -221.806663 0 120 255
17.388710 -226.731888 -224.275660 0 120 255
17.439169 -226.742919 -226.749160 0 120 255
17.489628 -226.753949 -229.222660 0 120 255
17.540087 -226.764979 -231.696160 0 120 255
17.600644 -226.776375 -234.169012 0 120 255
17.865619 -226.795160 -236.628749 0 120 255
18.130593 -226.813945 -239.088486 0 120 255
18.395568 -226.832730 -241.548223 0 120 255
18.661663 -226.851555 -244.007789 0 120 255
19.138849 -226.877941 -246.435230 0 120 255
19.616036 -226.904328 -248.862670 0 120 255
20.093222 -226.930714 -251.290111 0 120 255
20.570408 -226.957101 -253.717551 0 120 255
21.248256 -226.990605 -256.096344 0 120 255
21.933700 -227.024378 -258.473295 0 120 255
22.619143 -227.058151 -260.850246 0 120 255
23.304587 -227.091924 -263.227197 0 120 255
24.176530 -227.132243 -265.541430 0 120 255
25.064296 -227.173117 -267.850341 0 120 255
25.952061 -227.213991 -270.159253 0 120 255
26.839826 -227.254866 -272.468164 0 120 255
27.898823 -227.301699 -274.702542 0 120 255
28.981152 -227.349345 -276.926764 0 120 255
30.063482 -227.396991 -279.150986 0 120 255
31.145811 -227.444637 -281.375208 0 120 255
32.383303 -227.497628 -283.515458 0 120 255
33.650707 -227.551649 -285.639520 0 120 255
34.918110 -227.605671 -287.763582 0 120 255
36.185514 -227.659692 -289.887644 0 120 255
37.591463 -227.718424 -291.920798 0 120 255
39.032772 -227.778359 -293.930750 0 120 255
40.474081 -227.838294 -295.940701 0 120 255
41.915391 -227.898228 -297.950653 0 120 255
43.478320 -227.962216 -299.865406 0 120 255
45.080726 -228.027520 -301.749259 0 120 255
46.683132 -228.092823 -303.633111 0 120 255
48.285539 -228.158126 -305.516963 0 120 255
49.992866 -228.226938 -307.303848 0 120 255
51.742383 -228.297159 -309.051741 0 120 255
53.491900 -228.367381 -310.799633 0 120 255
55.241417 -228.437603 -312.547526 0 120 255
57.079780 -228.510734 -314.199051 0 120 255
58.961616 -228.585289 -315.803422 0 120 255
60.843452 -228.659843 -317.407792 0 120 255
62.725288 -228.734398 -319.012163 0 120 255
64.680779 -228.811429 -320.523008 0 120 255
66.679594 -228.889916 -321.978840 0 120 255
68.678409 -228.968403 -323.434673 0 120 255
70.677224 -229.046890 -324.890505 0 120 255
72.735714 -229.127266 -326.257622 0 120 255
74.836053 -229.208965 -327.562526 0 120 255
76.936391 -229.290665 -328.867430 0 120 255
79.036729 -229.372365 -330.172335 0 120 255
81.184128 -229.454778 -331.395163 0 120 255
83.370669 -229.537784 -332.549728 0 120 255
85.557210 -229.620791 -333.704292 0 120 255
87.743751 -229.703797 -334.858856 0 120 255
89.965826 -229.781977 -335.940841 0 120 255
92.222864 -229.855407 -336.951415 0 120 255
94.479902 -229.928838 -337.961988 0 120 255
96.736940 -230.002269 -338.972561 0 120 255
99.019939 -230.065705 -339.920902 0 120 255
101.333157 -230.117508 -340.796807 0 120 255
103.646375 -230.169312 -341.672711 0 120 255
105.959593 -230.221115 -342.548616 0 120 255
108.291151 -230.259910 -343.372490 0 120 255
110.648021 -230.280753 -344.124556 0 120 255
113.004890 -230.301596 -344.876622 0 120 255
115.361759 -230.322438 -345.628688 0 120 255
117.731045 -230.329019 -346.338465 0 120 255
120.120747 -230.312149 -346.978704 0 120 255
122.510450 -230.295278 -347.618943 0 120 255
124.900153 -230.278407 -348.259181 0 120 255
127.297811 -230.247405 -348.866177 0 120 255
129.711179 -230.188496 -349.407522 0 120 255
132.124547 -230.129587 -349.948868 0 120 255
134.537915 -230.070677 -350.490213 0 120 255
136.956020 -229.998832 -351.006460 0 120 255
139.385493 -229.895940 -351.462470 0 120 255
141.814966 -229.793047 -351.918480 0 120 255
144.244439 -229.690155 -352.374489 0 120 255
146.676453 -229.576294 -352.812526 0 120 255
149.116010 -229.429887 -353.197233 0 120 255
151.555566 -229.283480 -353.581940 0 120 255
153.995123 -229.137073 -353.966647 0 120 255
156.435843 -228.982112 -354.339367 0 120 255
158.880942 -228.794970 -354.666994 0 120 255
161.326041 -228.607829 -354.994620 0 120 255
163.771140 -228.420687 -355.322247 0 120 255
166.216612 -228.227782 -355.643078 0 120 255
168.663930 -228.006318 -355.930234 0 120 255
171.111248 -227.784853 -356.217389 0 120 255
173.558566 -227.563388 -356.504544 0 120 255
176.005847 -227.340670 -356.791019 0 120 255
178.452872 -227.109250 -357.072769 0 120 255
180.899897 -226.877831 -357.354519 0 120 255
183.346922 -226.646411 -357.636269 0 120 255
185.793947 -226.414990 -357.918020 0 120 255
188.240970 -226.183560 -358.199783 0 120 255
190.687992 -225.952129 -358.481546 0 120 255
193.135015 -225.720698 -358.763308 0 120 255
195.582038 -225.489267 -359.045070 0 120 255
198.029062 -225.257841 -359.326826 0 120 255
200.476085 -225.026414 -359.608581 0 120 255
202.923109 -224.794987 -359.890336 0 120 255
205.370133 -224.563560 -360.172091 0 120 255
