ply
format ascii 1.0
element vertex 385
property float x
property float y
property float z
property uchar red
property uchar green
property uchar blue
end_header
77.430455 -42.474882 -360.397637 0 120 255
77.187555 -42.528711 -357.935959 0 120 255
76.944655 -42.582540 -355.474282 0 120 255
76.701755 -42.636368 -353.012604 0 120 255
76.458855 -42.690197 -350.550927 0 120 255
76.213825 -42.754260 -348.089707 0 120 255
75.968702 -42.818767 -345.628506 0 120 255
75.723580 -42.883274 -343.167306 0 120 255
75.478457 -42.947782 -340.706106 0 120 255
75.069652 -43.379481 -338.307525 0 120 255
74.645936 -43.844630 -335.914649 0 120 255
74.222221 -44.309779 -333.521773 0 120 255
73.798505 -44.774927 -331.128897 0 120 255
73.247437 -45.498854 -328.830990 0 120 255
72.677543 -46.261035 -326.547122 0 120 255
72.107648 -47.023216 -324.263254 0 120 255
71.537754 -47.785397 -321.979386 0 120 255
70.877642 -48.728329 -319.791612 0 120 255
70.198543 -49.709302 -317.624063 0 120 255
69.519445 -50.690275 -315.456513 0 120 255
68.840346 -51.671249 -313.288964 0 120 255
68.107510 -52.778977 -311.203186 0 120 255
67.359641 -53.922166 -309.140285 0 120 255
66.611771 -55.065356 -307.077383 0 120 255
65.863902 -56.208546 -305.014482 0 120 255
65.095614 -57.445808 -303.015506 0 120 255
64.320036 -58.716655 -301.039354 0 120 255
63.544458 -59.987502 -299.063201 0 120 255
62.768880 -61.258349 -297.087048 0 120 255
62.001256 -62.606414 -295.160533 0 120 255
61.237162 -63.988745 -293.256044 0 120 255
60.473067 -65.371075 -291.351556 0 120 255
59.708973 -66.753406 -289.447068 0 120 255
58.975165 -68.205948 -287.584468 0 120 255
58.257772 -69.696547 -285.744572 0 120 255
57.540379 -71.187146 -283.904676 0 120 255
56.822986 -72.677744 -282.064780 0 120 255
56.151792 -74.236258 -280.265675 0 120 255
55.510834 -75.839222 -278.493266 0 120 255
54.869877 -77.442186 -276.720857 0 120 255
54.228920 -79.045151 -274.948448 0 120 255
53.643955 -80.714640 -273.220769 0 120 255
53.102916 -82.436319 -271.528181 0 120 255
52.561877 -84.157997 -269.835594 0 120 255
52.020838 -85.879676 -268.143006 0 120 255
51.540275 -87.665082 -266.501838 0 120 255
51.116354 -89.510176 -264.908831 0 120 255
50.692434 -91.355271 -263.315824 0 120 255
50.268514 -93.200365 -261.722817 0 120 255
49.905401 -95.103952 -260.188387 0 120 255
49.610213 -97.072877 -258.719389 0 120 255
49.315025 -99.041801 -257.250392 0 120 255
49.019837 -101.010726 -255.781395 0 120 255
48.782877 -103.030397 -254.376742 0 120 255
48.623603 -105.117772 -253.057936 0 120 255
48.464330 -107.205147 -251.739129 0 120 255
48.305056 -109.292523 -250.420323 0 120 255
48.199674 -111.420958 -249.169013 0 120 255
48.180542 -113.615106 -248.025727 0 120 255
48.161409 -115.809253 -246.882441 0 120 255
48.142277 -118.003401 -245.739155 0 120 255
48.171842 -120.227856 -244.663269 0 120 255
48.295601 -122.510931 -243.717750 0 120 255
48.419361 -124.794006 -242.772232 0 120 255
48.543120 -127.077081 -241.826714 0 120 255
48.710129 -129.379628 -240.945156 0 120 255
48.979410 -131.728220 -240.214842 0 120 255
49.248690 -134.076812 -239.484528 0 120 255
49.517971 -136.425404 -238.754214 0 120 255
49.825080 -138.783484 -238.081378 0 120 255
50.243410 -141.169462 -237.577528 0 120 255
50.661740 -143.555439 -237.073679 0 120 255
51.080070 -145.941417 -236.569829 0 120 255
51.530859 -148.328562 -236.114539 0 120 255
52.103302 -150.720083 -235.841247 0 120 255
52.675746 -153.111605 -235.567955 0 120 255
53.248189 -155.503126 -235.294663 0 120 255
53.847606 -157.889796 -235.059367 0 120 255
54.580917 -160.252385 -235.012676 0 120 255
55.314227 -162.614975 -234.965985 0 120 255
56.047538 -164.977564 -234.919294 0 120 255
56.801975 -167.332046 -234.899362 0 120 255
57.704292 -169.629776 -235.066735 0 120 255
58.606608 -171.927507 -235.234107 0 120 255
59.508925 -174.225237 -235.401480 0 120 255
60.425924 -176.514627 -235.584748 0 120 255
61.505968 -178.711401 -235.944533 0 120 255
62.586012 -180.908174 -236.304317 0 120 255
63.666055 -183.104948 -236.664102 0 120 255
64.753629 -185.296218 -237.030433 0 120 255
66.019497 -187.357174 -237.551771 0 120 255
67.285365 -189.418129 -238.073110 0 120 255
68.551233 -191.479084 -238.594449 0 120 255
69.817102 -193.540039 -239.115788 0 120 255
71.274432 -195.433357 -239.758585 0 120 255
72.732010 -197.326458 -240.401538 0 120 255
74.189588 -199.219559 -241.044492 0 120 255
75.647166 -201.112660 -241.687445 0 120 255
77.290085 -202.818722 -242.400608 0 120 255
78.941296 -204.516416 -243.116912 0 120 255
80.592507 -206.214110 -243.833215 0 120 255
82.243717 -207.911804 -244.549519 0 120 255
84.068706 -209.411034 -245.282368 0 120 255
85.909649 -210.892042 -246.016735 0 120 255
87.750593 -212.373049 -246.751103 0 120 255
89.591537 -213.854057 -247.485471 0 120 255
91.588548 -215.133792 -248.182971 0 120 255
93.607881 -216.384739 -248.875199 0 120 255
95.627214 -217.635686 -249.567426 0 120 255
97.646547 -218.886633 -250.259654 0 120 255
99.797956 -219.942327 -250.864744 0 120 255
101.975648 -220.959166 -251.452494 0 120 255
104.153340 -221.976004 -252.040244 0 120 255
106.331032 -222.992842 -252.627995 0 120 255
108.611114 -223.828863 -253.084404 0 120 255
110.917867 -224.617784 -253.506601 0 120 255
113.224619 -225.406705 -253.928798 0 120 255
115.531372 -226.195625 -254.350995 0 120 255
117.906402 -226.825548 -254.606353 0 120 255
120.303855 -227.403254 -254.806918 0 120 255
122.701309 -227.980960 -255.007484 0 120 255
125.098762 -228.558666 -255.208050 0 120 255
127.527828 -229.004873 -255.217037 0 120 255
129.969662 -229.397962 -255.148639 0 120 255
132.411497 -229.791050 -255.080241 0 120 255
134.853332 -230.184139 -255.011843 0 120 255
137.289787 -230.476780 -254.739011 0 120 255
139.723615 -230.720349 -254.366305 0 120 255
142.157443 -230.963918 -253.993600 0 120 255
144.591271 -231.207487 -253.620894 0 120 255
146.984696 -231.383456 -253.042903 0 120 255
149.354524 -231.519943 -252.345022 0 120 255
151.724352 -231.656431 -251.647140 0 120 255
154.094180 -231.792919 -250.949258 0 120 255
156.392772 -231.894256 -250.056366 0 120 255
158.642032 -231.971252 -249.028429 0 120 255
160.891292 -232.048247 -248.000492 0 120 255
163.140552 -232.125243 -246.972555 0 120 255
165.293711 -232.185249 -245.768805 0 120 255
167.368332 -232.231369 -244.421373 0 120 255
169.442954 -232.277490 -243.073941 0 120 255
171.517575 -232.323611 -241.726509 0 120 255
173.476317 -232.357832 -240.226988 0 120 255
175.323452 -232.380593 -238.580985 0 120 255
177.170588 -232.403353 -236.934981 0 120 255
179.017723 -232.426114 -235.288978 0 120 255
180.735434 -232.441218 -233.518567 0 120 255
182.306272 -232.447634 -231.606976 0 120 255
183.877109 -232.454049 -229.695384 0 120 255
185.447947 -232.460465 -227.783793 0 120 255
186.883156 -232.463125 -225.777493 0 120 255
188.136640 -232.460753 -223.644297 0 120 255
189.390124 -232.458380 -221.511101 0 120 255
190.643608 -232.456008 -219.377905 0 120 255
191.762379 -232.452237 -217.179173 0 120 255
192.667078 -232.446246 -214.876297 0 120 255
193.571776 -232.440254 -212.573421 0 120 255
194.476475 -232.434262 -210.270545 0 120 255
195.253761 -232.428023 -207.928783 0 120 255
195.789138 -232.421317 -205.513192 0 120 255
196.324515 -232.414611 -203.097601 0 120 255
196.859892 -232.407904 -200.682010 0 120 255
197.280326 -232.401250 -198.250131 0 120 255
197.437149 -232.394715 -195.780897 0 120 255
197.593971 -232.388180 -193.311662 0 120 255
197.750793 -232.381645 -190.842428 0 120 255
197.808829 -232.374977 -188.374459 0 120 255
197.588850 -232.367930 -185.910050 0 120 255
197.368870 -232.360884 -183.445640 0 120 255
197.148891 -232.353838 -180.981231 0 120 255
196.848386 -232.346273 -178.530138 0 120 255
196.263381 -232.336874 -176.126093 0 120 255
195.678376 -232.327476 -173.722047 0 120 255
195.093370 -232.318077 -171.318002 0 120 255
194.446709 -232.307812 -168.933843 0 120 255
193.517132 -232.293571 -166.640933 0 120 255
192.587554 -232.279330 -164.348023 0 120 255
191.657976 -232.265089 -162.055113 0 120 255
190.684900 -232.249823 -159.783580 0 120 255
189.438189 -232.228109 -157.646528 0 120 255
188.191479 -232.206395 -155.509475 0 120 255
186.944768 -232.184681 -153.372422 0 120 255
185.670953 -232.162026 -151.253833 0 120 255
184.139861 -232.130443 -149.310508 0 120 255
182.608769 -232.098860 -147.367183 0 120 255
181.077677 -232.067277 -145.423857 0 120 255
179.533347 -232.035073 -143.492510 0 120 255
177.754209 -231.991850 -141.773629 0 120 255
175.975071 -231.948627 -140.054748 0 120 255
174.195932 -231.905404 -138.335867 0 120 255
172.414413 -231.862039 -136.619803 0 120 255
170.425604 -231.806297 -135.148992 0 120 255
168.436795 -231.750555 -133.678181 0 120 255
166.447986 -231.694813 -132.207370 0 120 255
164.459177 -231.639072 -130.736559 0 120 255
162.305001 -231.571421 -129.522581 0 120 255
160.145582 -231.503393 -128.316747 0 120 255
157.986164 -231.435365 -127.110913 0 120 255
155.826745 -231.367337 -125.905078 0 120 255
153.544970 -231.289253 -124.954899 0 120 255
151.253579 -231.210379 -124.024816 0 120 255
148.962187 -231.131505 -123.094732 0 120 255
146.670795 -231.052631 -122.164648 0 120 255
144.295675 -230.966704 -121.483318 0 120 255
141.909667 -230.879860 -120.834336 0 120 255
139.523659 -230.793015 -120.185354 0 120 255
137.137651 -230.706171 -119.536372 0 120 255
134.701802 -230.616310 -119.124883 0 120 255
132.256649 -230.525885 -118.757728 0 120 255
129.811496 -230.435460 -118.390573 0 120 255
127.366342 -230.345036 -118.023418 0 120 255
124.900526 -230.254526 -117.879103 0 120 255
122.429559 -230.163996 -117.790338 0 120 255
119.958592 -230.073465 -117.701574 0 120 255
117.487625 -229.982934 -117.612809 0 120 255
115.020546 -229.893427 -117.730002 0 120 255
112.554707 -229.804247 -117.912862 0 120 255
110.088868 -229.715066 -118.095722 0 120 255
107.623028 -229.625886 -118.278582 0 120 255
105.181204 -229.538315 -118.649215 0 120 255
102.748904 -229.451382 -119.094312 0 120 255
100.316604 -229.364449 -119.539408 0 120 255
97.884303 -229.277516 -119.984505 0 120 255
95.492039 -229.192664 -120.598537 0 120 255
93.119151 -229.108820 -121.294329 0 120 255
90.746263 -229.024975 -121.990121 0 120 255
88.373375 -228.941131 -122.685913 0 120 255
86.052838 -228.859746 -123.531788 0 120 255
83.762822 -228.779796 -124.465163 0 120 255
81.472807 -228.699846 -125.398539 0 120 255
79.182791 -228.619897 -126.331914 0 120 255
76.954151 -228.542654 -127.396931 0 120 255
74.768239 -228.467297 -128.553591 0 120 255
72.582326 -228.391940 -129.710250 0 120 255
70.396413 -228.316583 -130.866909 0 120 255
68.277996 -228.244111 -132.137466 0 120 255
66.215371 -228.174022 -133.502170 0 120 255
64.152745 -228.103934 -134.866874 0 120 255
62.090119 -228.033845 -136.231577 0 120 255
60.098563 -227.966703 -137.693349 0 120 255
58.176555 -227.902445 -139.250112 0 120 255
56.254548 -227.838186 -140.806876 0 120 255
54.332541 -227.773927 -142.363639 0 120 255
52.482908 -227.712611 -144.001665 0 120 255
50.717090 -227.654702 -145.733799 0 120 255
48.951273 -227.596793 -147.465933 0 120 255
47.185455 -227.538884 -149.198067 0 120 255
45.491330 -227.483835 -150.996818 0 120 255
43.895646 -227.432713 -152.887038 0 120 255
42.299962 -227.381590 -154.777258 0 120 255
40.704277 -227.330468 -156.667478 0 120 255
39.177830 -227.282065 -158.610899 0 120 255
37.764611 -227.238108 -160.641327 0 120 255
36.351393 -227.194151 -162.671754 0 120 255
34.938175 -227.150195 -164.702181 0 120 255
33.590177 -227.108765 -166.773718 0 120 255
32.370178 -227.072294 -168.925932 0 120 255
31.150179 -227.035822 -171.078146 0 120 255
29.930179 -226.999351 -173.230360 0 120 255
28.770023 -226.965176 -175.412990 0 120 255
27.752409 -226.936468 -177.668071 0 120 255
26.734795 -226.907761 -179.923153 0 120 255
25.717181 -226.879054 -182.178234 0 120 255
24.752837 -226.852367 -184.454505 0 120 255
23.945066 -226.831616 -186.793058 0 120 255
23.137295 -226.810865 -189.131610 0 120 255
22.329524 -226.790114 -191.470163 0 120 255
21.567474 -226.771080 -193.822229 0 120 255
20.975290 -226.758421 -196.224502 0 120 255
20.383106 -226.745762 -198.626774 0 120 255
19.790923 -226.733104 -201.029046 0 120 255
19.236114 -226.721834 -203.438762 0 120 255
18.863362 -226.717330 -205.884736 0 120 255
18.490610 -226.712826 -208.330710 0 120 255
18.117858 -226.708322 -210.776684 0 120 255
17.773571 -226.704864 -213.225694 0 120 255
17.622147 -226.708498 -215.695271 0 120 255
17.470724 -226.712132 -218.164848 0 120 255
17.319300 -226.715765 -220.634425 0 120 255
17.187102 -226.720099 -223.104318 0 120 255
17.256875 -226.731780 -225.577524 0 120 255
17.326648 -226.743461 -228.050730 0 120 255
17.396421 -226.755143 -230.523936 0 120 255
17.476098 -226.767182 -232.996420 0 120 255
17.764835 -226.786776 -235.453654 0 120 255
18.053571 -226.806369 -237.910889 0 120 255
18.342308 -226.825963 -240.368123 0 120 255
18.631812 -226.845584 -242.825233 0 120 255
19.135283 -226.872872 -245.247530 0 120 255
19.638755 -226.900161 -247.669828 0 120 255
20.142226 -226.927449 -250.092125 0 120 255
20.645698 -226.954737 -252.514423 0 120 255
21.349859 -226.989142 -254.885715 0 120 255
22.061967 -227.023829 -257.254988 0 120 255
22.774074 -227.058515 -259.624261 0 120 255
23.486182 -227.093202 -261.993533 0 120 255
24.383002 -227.134377 -264.298409 0 120 255
25.295828 -227.176114 -266.597705 0 120 255
26.208654 -227.217851 -268.897000 0 120 255
27.121480 -227.259588 -271.196296 0 120 255
28.202231 -227.307152 -273.420433 0 120 255
29.306187 -227.355521 -275.634184 0 120 255
30.410144 -227.403890 -277.847935 0 120 255
31.514101 -227.452259 -280.061686 0 120 255
32.768821 -227.505807 -282.192127 0 120 255
34.052920 -227.560363 -284.306333 0 120 255
35.337019 -227.614919 -286.420539 0 120 255
36.621118 -227.669476 -288.534745 0 120 255
38.038803 -227.728569 -290.560034 0 120 255
39.490885 -227.788832 -292.562427 0 120 255
40.942968 -227.849094 -294.564820 0 120 255
42.395051 -227.909356 -296.567213 0 120 255
43.963867 -227.973533 -298.477505 0 120 255
45.570865 -228.038990 -300.357671 0 120 255
47.177863 -228.104447 -302.237838 0 120 255
48.784861 -228.169904 -304.118004 0 120 255
50.492310 -228.238676 -305.905195 0 120 255
52.240430 -228.308790 -307.654742 0 120 255
53.988550 -228.378905 -309.404289 0 120 255
55.736670 -228.449019 -311.153836 0 120 255
57.569868 -228.521949 -312.811576 0 120 255
59.444958 -228.596266 -314.424110 0 120 255
61.320048 -228.670583 -316.036645 0 120 255
63.195139 -228.744901 -317.649179 0 120 255
65.141104 -228.821646 -319.172803 0 120 255
67.129002 -228.899829 -320.643825 0 120 255
69.116899 -228.978011 -322.114847 0 120 255
71.104796 -229.056194 -323.585869 0 120 255
73.150588 -229.136406 -324.972470 0 120 255
75.237197 -229.218050 -326.299554 0 120 255
77.323806 -229.299693 -327.626638 0 120 255
79.410415 -229.381336 -328.953722 0 120 255
81.543166 -229.463605 -330.202501 0 120 255
83.714490 -229.546396 -331.385824 0 120 255
85.885813 -229.629187 -332.569147 0 120 255
88.057137 -229.711978 -333.752470 0 120 255
90.263736 -229.789676 -334.866294 0 120 255
92.505215 -229.862340 -335.911401 0 120 255
94.746693 -229.935004 -336.956507 0 120 255
96.988172 -230.007667 -338.001614 0 120 255
99.255872 -230.070362 -338.986607 0 120 255
101.554240 -230.121399 -339.901295 0 120 255
103.852608 -230.172436 -340.815983 0 120 255
106.150976 -230.223473 -341.730671 0 120 255
108.468269 -230.261661 -342.594457 0 120 255
110.811806 -230.282034 -343.387662 0 120 255
113.155343 -230.302407 -344.180867 0 120 255
115.498880 -230.322780 -344.974071 0 120 255
117.855579 -230.329064 -345.725163 0 120 255
120.234026 -230.312068 -346.406674 0 120 255
122.612472 -230.295072 -347.088185 0 120 255
124.990918 -230.278077 -347.769696 0 120 255
127.378089 -230.247073 -348.417297 0 120 255
129.782573 -230.188272 -348.997602 0 120 255
132.187056 -230.129470 -349.577907 0 120 255
134.591540 -230.070668 -350.158212 0 120 255
137.001464 -229.999008 -350.712038 0 120 255
139.424511 -229.896332 -351.201990 0 120 255
141.847559 -229.793656 -351.691941 0 120 255
144.270606 -229.690979 -352.181892 0 120 255
146.696781 -229.577362 -352.651949 0 120 255
149.132287 -229.431102 -353.062649 0 120 255
151.567792 -229.284842 -353.473349 0 120 255
154.003298 -229.138582 -353.884049 0 120 255
156.440416 -228.983761 -354.280513 0 120 255
158.883640 -228.796532 -354.623086 0 120 255
161.326864 -228.609303 -354.965659 0 120 255
163.770088 -228.422074 -355.308232 0 120 255
166.214014 -228.229084 -355.641609 0 120 255
168.661450 -228.007333 -355.929079 0 120 255
171.108886 -227.785582 -356.216548 0 120 255
173.556321 -227.563832 -356.504018 0 120 255
176.003728 -227.340871 -356.790775 0 120 255
178.450930 -227.109434 -357.072545 0 120 255
180.898131 -226.877998 -357.354316 0 120 255
183.345333 -226.646561 -357.636086 0 120 255
185.792534 -226.415124 -357.917858 0 120 255
188.239734 -226.183676 -358.199641 0 120 255
190.686933 -225.952229 -358.481424 0 120 255
193.134132 -225.720781 -358.763207 0 120 255
195.581331 -225.489334 -359.044989 0 120 255
198.028532 -225.257891 -359.326765 0 120 255
200.475732 -225.026447 -359.608540 0 120 255
202.922933 -224.795004 -359.890315 0 120 255
205.370133 -224.563560 -360.172091 0 120 255
