ply
format ascii 1.0
element vertex 385
property float x
property float y
property float z
property uchar red
property uchar green
property uchar blue
end_header
77.430455 -42.474882 -360.397637 0 120 255
77.187531 -42.528716 -357.935719 0 120 255
76.944608 -42.582550 -355.473801 0 120 255
76.701684 -42.636384 -353.011884 0 120 255
76.458760 -42.690218 -350.549966 0 120 255
76.214883 -42.757305 -348.088470 0 120 255
75.970965 -42.824963 -345.626991 0 120 255
75.727046 -42.892621 -343.165513 0 120 255
75.483128 -42.960279 -340.704035 0 120 255
75.213766 -43.158346 -338.252598 0 120 255
74.942087 -43.368288 -335.802074 0 120 255
74.670408 -43.578231 -333.351551 0 120 255
74.398729 -43.788173 -330.901028 0 120 255
74.101250 -44.094300 -328.463969 0 120 255
73.799985 -44.414537 -326.028884 0 120 255
73.498720 -44.734774 -323.593800 0 120 255
73.197455 -45.055011 -321.158715 0 120 255
72.868454 -45.453742 -318.739164 0 120 255
72.533675 -45.868824 -316.322849 0 120 255
72.198896 -46.283907 -313.906534 0 120 255
71.864116 -46.698990 -311.490220 0 120 255
71.499433 -47.177971 -309.090411 0 120 255
71.126469 -47.674645 -306.695174 0 120 255
70.753505 -48.171319 -304.299937 0 120 255
70.380541 -48.667994 -301.904700 0 120 255
69.975579 -49.216668 -299.526362 0 120 255
69.559300 -49.783734 -297.154001 0 120 255
69.143021 -50.350799 -294.781640 0 120 255
68.726741 -50.917865 -292.409279 0 120 255
68.276684 -51.527315 -290.053956 0 120 255
67.811757 -52.155423 -287.706133 0 120 255
67.346829 -52.783532 -285.358310 0 120 255
66.881902 -53.411640 -283.010488 0 120 255
66.381885 -54.074409 -280.679780 0 120 255
65.862973 -54.755842 -278.358287 0 120 255
65.344061 -55.437274 -276.036794 0 120 255
64.825149 -56.118707 -273.715301 0 120 255
64.270405 -56.828609 -271.411025 0 120 255
63.692335 -57.557045 -269.117956 0 120 255
63.114265 -58.285480 -266.824887 0 120 255
62.536196 -59.013916 -264.531818 0 120 255
61.922159 -59.765860 -262.256118 0 120 255
61.280027 -60.536168 -259.993986 0 120 255
60.637896 -61.306476 -257.731854 0 120 255
59.995764 -62.076784 -255.469722 0 120 255
59.318159 -62.866603 -253.225135 0 120 255
58.607447 -63.674631 -250.996924 0 120 255
57.896734 -64.482660 -248.768712 0 120 255
57.186022 -65.290689 -246.540501 0 120 255
56.440935 -66.114982 -244.329986 0 120 255
55.657563 -66.957392 -242.139182 0 120 255
54.874190 -67.799802 -239.948378 0 120 255
54.090818 -68.642213 -237.757575 0 120 255
53.274732 -69.498216 -235.584530 0 120 255
52.415101 -70.372313 -233.435127 0 120 255
51.555470 -71.246411 -231.285723 0 120 255
50.695838 -72.120508 -229.136319 0 120 255
49.805667 -73.005969 -227.004581 0 120 255
48.866699 -73.909588 -224.901069 0 120 255
47.927731 -74.813206 -222.797558 0 120 255
46.988762 -75.716824 -220.694046 0 120 255
46.021875 -76.629899 -218.607875 0 120 255
45.001025 -77.561251 -216.555218 0 120 255
43.980175 -78.492603 -214.502562 0 120 255
42.959326 -79.423955 -212.449906 0 120 255
41.913557 -80.363107 -210.413970 0 120 255
40.808823 -81.320715 -208.417598 0 120 255
39.704089 -82.278322 -206.421227 0 120 255
38.599355 -83.235930 -204.424855 0 120 255
37.473014 -84.199864 -202.444221 0 120 255
36.282962 -85.182453 -200.509992 0 120 255
35.092910 -86.165042 -198.575763 0 120 255
33.902857 -87.147631 -196.641533 0 120 255
32.694745 -88.135218 -194.721641 0 120 255
31.418497 -89.141658 -192.855839 0 120 255
30.142250 -90.148099 -190.990037 0 120 255
28.866002 -91.154540 -189.124235 0 120 255
27.575410 -92.164763 -187.270891 0 120 255
26.212690 -93.193998 -185.480187 0 120 255
24.849971 -94.223233 -183.689484 0 120 255
23.487251 -95.252468 -181.898781 0 120 255
22.113990 -96.284365 -180.118129 0 120 255
20.665112 -97.335351 -178.409583 0 120 255
19.216235 -98.386338 -176.701036 0 120 255
17.767358 -99.437324 -174.992490 0 120 255
16.311757 -100.489942 -173.291012 0 120 255
14.777680 -101.561602 -171.672031 0 120 255
13.243603 -102.633263 -170.053049 0 120 255
11.709526 -103.704923 -168.434068 0 120 255
10.172474 -104.777278 -166.818551 0 120 255
8.554825 -105.868459 -165.296879 0 120 255
6.937176 -106.959641 -163.775208 0 120 255
5.319527 -108.050822 -162.253536 0 120 255
3.701878 -109.142003 -160.731865 0 120 255
2.003613 -110.251283 -159.314753 0 120 255
0.304730 -111.360702 -157.898442 0 120 255
-1.394152 -112.470121 -156.482131 0 120 255
-3.093035 -113.579540 -155.065820 0 120 255
-4.866076 -114.704905 -153.757425 0 120 255
-6.643076 -115.831121 -152.454790 0 120 255
-8.420076 -116.957337 -151.152155 0 120 255
-10.197075 -118.083553 -149.849519 0 120 255
-12.041306 -119.223496 -148.657657 0 120 255
-13.892480 -120.364857 -147.477234 0 120 255
-15.743654 -121.506218 -146.296811 0 120 255
-17.594828 -122.647579 -145.116388 0 120 255
-19.505869 -123.800386 -144.049007 0 120 255
-21.426365 -124.955001 -142.999479 0 120 255
-23.346861 -126.109616 -141.949951 0 120 255
-25.267357 -127.264230 -140.900423 0 120 255
-27.239982 -128.427949 -139.965553 0 120 255
-29.223975 -129.593653 -139.055688 0 120 255
-31.207968 -130.759358 -138.145823 0 120 255
-33.191961 -131.925062 -137.235958 0 120 255
-35.220030 -133.097465 -136.441608 0 120 255
-37.260641 -134.271774 -135.680128 0 120 255
-39.301253 -135.446083 -134.918648 0 120 255
-41.341864 -136.620392 -134.157168 0 120 255
-43.418268 -137.798968 -133.511255 0 120 255
-45.507498 -138.979074 -132.906759 0 120 255
-47.596729 -140.159179 -132.302263 0 120 255
-49.685960 -141.339285 -131.697768 0 120 255
-51.802554 -142.521207 -131.207966 0 120 255
-53.931212 -143.703931 -130.768732 0 120 255
-56.059871 -144.886654 -130.329498 0 120 255
-58.188529 -146.069378 -129.890264 0 120 255
-60.336092 -147.251499 -129.563880 0 120 255
-62.493743 -148.433298 -129.297716 0 120 255
-64.651393 -149.615097 -129.031552 0 120 255
-66.809044 -150.796897 -128.765388 0 120 255
-68.977245 -151.975733 -128.609208 0 120 255
-71.152186 -153.152677 -128.523270 0 120 255
-73.327126 -154.329621 -128.437332 0 120 255
-75.502067 -155.506565 -128.351394 0 120 255
-77.679457 -156.678301 -128.371488 0 120 255
-79.858704 -157.846086 -128.472018 0 120 255
-82.037952 -159.013871 -128.572547 0 120 255
-84.217200 -160.181656 -128.673077 0 120 255
-86.391216 -161.342156 -128.874615 0 120 255
-88.560540 -162.496125 -129.166743 0 120 255
-90.729865 -163.650093 -129.458871 0 120 255
-92.899189 -164.804061 -129.750999 0 120 255
-95.056205 -165.948895 -130.138046 0 120 255
-97.200200 -167.084067 -130.625507 0 120 255
-99.344195 -168.219239 -131.112968 0 120 255
-101.488190 -169.354412 -131.600429 0 120 255
-103.613592 -170.478893 -132.175717 0 120 255
-105.715790 -171.590034 -132.860608 0 120 255
-107.817989 -172.701175 -133.545500 0 120 255
-109.920187 -173.812316 -134.230391 0 120 255
-111.998492 -174.911559 -134.995117 0 120 255
-114.041536 -175.993246 -135.877654 0 120 255
-116.084581 -177.074933 -136.760190 0 120 255
-118.127625 -178.156620 -137.642727 0 120 255
-120.142648 -179.225601 -138.596348 0 120 255
-122.108529 -180.272300 -139.674624 0 120 255
-124.074411 -181.319000 -140.752899 0 120 255
-126.040293 -182.365700 -141.831175 0 120 255
-127.975349 -183.399348 -142.971223 0 120 255
-129.845661 -184.405583 -144.241015 0 120 255
-131.715974 -185.411818 -145.510806 0 120 255
-133.586286 -186.418053 -146.780597 0 120 255
-135.424436 -187.411363 -148.102532 0 120 255
-137.180728 -188.371774 -149.557180 0 120 255
-138.937019 -189.332185 -151.011828 0 120 255
-140.693310 -190.292596 -152.466475 0 120 255
-142.417661 -191.240708 -153.963578 0 120 255
-144.041806 -192.150235 -155.593874 0 120 255
-145.665950 -193.059762 -157.224169 0 120 255
-147.290095 -193.969290 -158.854465 0 120 255
-148.884110 -194.867641 -160.517778 0 120 255
-150.358673 -195.721687 -162.311996 0 120 255
-151.833237 -196.575733 -164.106213 0 120 255
-153.307801 -197.429779 -165.900431 0 120 255
-154.755620 -198.274231 -167.718792 0 120 255
-156.064315 -199.068772 -169.662749 0 120 255
-157.373010 -199.863314 -171.606706 0 120 255
-158.681705 -200.657856 -173.550663 0 120 255
-159.968526 -201.444795 -175.510762 0 120 255
-161.096581 -202.176559 -177.588010 0 120 255
-162.224636 -202.908322 -179.665259 0 120 255
-163.352692 -203.640086 -181.742507 0 120 255
-164.465079 -204.366573 -183.829054 0 120 255
-165.399640 -205.033171 -186.021129 0 120 255
-166.334201 -205.699769 -188.213203 0 120 255
-167.268763 -206.366367 -190.405278 0 120 255
-168.194981 -207.030243 -192.601224 0 120 255
-168.925403 -207.630245 -194.888018 0 120 255
-169.655825 -208.230247 -197.174813 0 120 255
-170.386247 -208.830248 -199.461608 0 120 255
-171.116509 -209.430200 -201.748458 0 120 255
-171.634647 -209.963271 -204.108610 0 120 255
-172.152785 -210.496342 -206.468762 0 120 255
-172.670923 -211.029413 -208.828913 0 120 255
-173.189061 -211.562484 -211.189065 0 120 255
-173.497992 -212.031976 -213.598428 0 120 255
-173.798341 -212.498860 -216.009809 0 120 255
-174.098690 -212.965744 -218.421190 0 120 255
-174.399039 -213.432628 -220.832571 0 120 255
-174.496428 -213.840354 -223.270458 0 120 255
-174.576257 -214.242963 -225.710639 0 120 255
-174.656086 -214.645572 -228.150820 0 120 255
-174.735915 -215.048180 -230.591001 0 120 255
-174.621668 -215.396861 -233.036974 0 120 255
-174.480976 -215.738193 -235.483737 0 120 255
-174.340285 -216.079526 -237.930499 0 120 255
-174.199593 -216.420858 -240.377262 0 120 255
-173.875934 -216.714157 -242.811457 0 120 255
-173.517344 -216.998286 -245.243253 0 120 255
-173.158754 -217.282414 -247.675049 0 120 255
-172.800164 -217.566543 -250.106846 0 120 255
-172.271506 -217.808984 -252.510341 0 120 255
-171.700123 -218.040952 -254.906725 0 120 255
-171.128739 -218.272920 -257.303110 0 120 255
-170.557355 -218.504888 -259.699495 0 120 255
-169.830083 -218.701783 -262.054615 0 120 255
-169.053213 -218.887518 -264.396607 0 120 255
-168.276342 -219.073253 -266.738598 0 120 255
-167.499472 -219.258988 -269.080589 0 120 255
-166.581684 -219.416316 -271.371158 0 120 255
-165.608527 -219.562482 -273.641521 0 120 255
-164.635370 -219.708648 -275.911884 0 120 255
-163.662213 -219.854814 -278.182248 0 120 255
-162.563466 -219.979127 -280.393774 0 120 255
-161.404824 -220.093018 -282.577241 0 120 255
-160.246182 -220.206909 -284.760707 0 120 255
-159.087540 -220.320800 -286.944174 0 120 255
-157.818544 -220.419110 -289.063964 0 120 255
-156.486429 -220.508507 -291.147333 0 120 255
-155.154314 -220.597904 -293.230702 0 120 255
-153.822199 -220.687301 -295.314071 0 120 255
-152.394777 -220.767464 -297.331442 0 120 255
-150.902509 -220.841344 -299.303909 0 120 255
-149.410241 -220.915225 -301.276376 0 120 255
-147.917973 -220.989105 -303.248843 0 120 255
-146.344104 -221.060213 -305.154592 0 120 255
-144.704528 -221.129088 -307.006617 0 120 255
-143.064952 -221.197964 -308.858641 0 120 255
-141.425376 -221.266839 -310.710666 0 120 255
-139.717061 -221.336638 -312.497045 0 120 255
-137.943425 -221.407314 -314.221043 0 120 255
-136.169789 -221.477990 -315.945041 0 120 255
-134.396153 -221.548666 -317.669039 0 120 255
-132.566102 -221.620879 -319.330574 0 120 255
-130.672755 -221.694817 -320.922025 0 120 255
-128.779408 -221.768754 -322.513477 0 120 255
-126.886061 -221.842691 -324.104929 0 120 255
-124.947205 -221.918307 -325.638166 0 120 255
-122.947936 -221.996151 -327.094124 0 120 255
-120.948667 -222.073995 -328.550081 0 120 255
-118.949398 -222.151838 -330.006039 0 120 255
-116.914404 -222.230927 -331.409281 0 120 255
-114.823020 -222.311980 -332.729317 0 120 255
-112.731637 -222.393034 -334.049352 0 120 255
-110.640253 -222.474087 -335.369388 0 120 255
-108.521496 -222.556020 -336.642798 0 120 255
-106.350978 -222.639615 -337.828046 0 120 255
-104.180460 -222.723210 -339.013294 0 120 255
-102.009942 -222.806805 -340.198543 0 120 255
-99.819017 -222.891009 -341.343550 0 120 255
-97.581350 -222.976607 -342.396386 0 120 255
-95.343682 -223.062205 -343.449223 0 120 255
-93.106014 -223.147804 -344.502059 0 120 255
-90.853639 -223.233814 -345.521144 0 120 255
-88.559795 -223.320988 -346.445065 0 120 255
-86.265951 -223.408162 -347.368987 0 120 255
-83.972108 -223.495336 -348.292909 0 120 255
-81.668106 -223.582776 -349.189490 0 120 255
-79.328018 -223.671162 -349.988942 0 120 255
-76.987930 -223.759548 -350.788393 0 120 255
-74.647841 -223.847934 -351.587845 0 120 255
-72.301119 -223.936480 -352.366127 0 120 255
-69.923645 -224.025770 -353.046267 0 120 255
-67.546170 -224.115061 -353.726406 0 120 255
-65.168695 -224.204351 -354.406546 0 120 255
-62.787228 -224.293729 -355.071352 0 120 255
-60.380213 -224.383667 -355.638041 0 120 255
-57.973197 -224.473605 -356.204731 0 120 255
-55.566182 -224.563543 -356.771421 0 120 255
-53.157058 -224.653520 -357.328165 0 120 255
-50.727332 -224.743873 -357.787747 0 120 255
-48.297606 -224.834226 -358.247330 0 120 255
-45.867880 -224.924579 -358.706912 0 120 255
-43.437303 -225.014944 -359.161426 0 120 255
-40.990735 -225.105524 -359.520661 0 120 255
-38.544167 -225.196103 -359.879895 0 120 255
-36.097599 -225.286683 -360.239130 0 120 255
-33.650934 -225.377263 -360.597606 0 120 255
-31.192485 -225.467918 -360.863603 0 120 255
-28.734035 -225.558573 -361.129599 0 120 255
-26.275585 -225.649229 -361.395596 0 120 255
-23.817135 -225.739884 -361.661592 0 120 255
-21.351174 -225.830491 -361.844705 0 120 255
-18.884946 -225.921096 -362.024877 0 120 255
-16.418719 -226.011701 -362.205048 0 120 255
-13.952492 -226.102307 -362.385220 0 120 255
-11.482133 -226.192784 -362.493183 0 120 255
-9.011431 -226.283251 -362.595149 0 120 255
-6.540729 -226.373718 -362.697115 0 120 255
-4.070028 -226.464184 -362.799081 0 120 255
-1.597643 -226.554453 -362.839048 0 120 255
0.874968 -226.644695 -362.870631 0 120 255
3.347580 -226.734937 -362.902214 0 120 255
5.820191 -226.825179 -362.933797 0 120 255
8.292818 -226.915211 -362.913009 0 120 255
10.765447 -227.005203 -362.882130 0 120 255
13.238077 -227.095195 -362.851251 0 120 255
15.710706 -227.185188 -362.820372 0 120 255
18.182325 -227.274988 -362.746190 0 120 255
20.653685 -227.364739 -362.660909 0 120 255
23.125045 -227.454490 -362.575628 0 120 255
25.596405 -227.544242 -362.490347 0 120 255
28.066242 -227.633822 -362.370206 0 120 255
30.535580 -227.723346 -362.238662 0 120 255
33.004918 -227.812870 -362.107119 0 120 255
35.474256 -227.902395 -361.975575 0 120 255
37.941949 -227.991735 -361.816965 0 120 255
40.408975 -228.081000 -361.647358 0 120 255
42.876000 -228.170266 -361.477752 0 120 255
45.343025 -228.259531 -361.308145 0 120 255
47.808573 -228.348551 -361.118664 0 120 255
50.273388 -228.437448 -360.919335 0 120 255
52.738203 -228.526346 -360.720006 0 120 255
55.203018 -228.615243 -360.520676 0 120 255
57.666719 -228.703746 -360.308101 0 120 255
60.129755 -228.792013 -360.087621 0 120 255
62.592791 -228.880280 -359.867140 0 120 255
65.055827 -228.968547 -359.646660 0 120 255
67.518255 -229.055685 -359.419141 0 120 255
69.980251 -229.142018 -359.186605 0 120 255
72.442247 -229.228351 -358.954069 0 120 255
74.904242 -229.314684 -358.721533 0 120 255
77.366355 -229.396465 -358.488626 0 120 255
79.828566 -229.474392 -358.255404 0 120 255
82.290777 -229.552320 -358.022182 0 120 255
84.752988 -229.630247 -357.788960 0 120 255
87.215952 -229.700077 -357.561399 0 120 255
89.679670 -229.761785 -357.339515 0 120 255
92.143388 -229.823493 -357.117630 0 120 255
94.607107 -229.885202 -356.895746 0 120 255
97.071916 -229.936928 -356.684226 0 120 255
99.538021 -229.976798 -356.485014 0 120 255
102.004126 -230.016668 -356.285803 0 120 255
104.470231 -230.056539 -356.086591 0 120 255
106.937495 -230.085360 -355.901460 0 120 255
109.406392 -230.098608 -355.736177 0 120 255
111.875290 -230.111856 -355.570894 0 120 255
114.344187 -230.125104 -355.405611 0 120 255
116.814049 -230.126818 -355.257197 0 120 255
119.285530 -230.109145 -355.137135 0 120 255
121.757012 -230.091473 -355.017072 0 120 255
124.228494 -230.073800 -354.897010 0 120 255
126.700507 -230.044642 -354.795661 0 120 255
129.173596 -229.992287 -354.732106 0 120 255
131.646685 -229.939932 -354.668551 0 120 255
134.119774 -229.887577 -354.604997 0 120 255
136.592782 -229.824247 -354.561069 0 120 255
139.065590 -229.733966 -354.565341 0 120 255
141.538398 -229.643686 -354.569613 0 120 255
144.011206 -229.553405 -354.573886 0 120 255
146.483216 -229.453064 -354.597752 0 120 255
148.952804 -229.322171 -354.681125 0 120 255
151.422392 -229.191277 -354.764498 0 120 255
153.891980 -229.060384 -354.847871 0 120 255
156.360055 -228.920682 -354.949844 0 120 255
158.822305 -228.747064 -355.123431 0 120 255
161.284554 -228.573446 -355.297017 0 120 255
163.746804 -228.399828 -355.470604 0 120 255
166.206796 -228.218730 -355.662072 0 120 255
168.655347 -227.999718 -355.944175 0 120 255
171.103898 -227.780706 -356.226277 0 120 255
173.552448 -227.561695 -356.508380 0 120 255
176.000861 -227.341142 -356.790445 0 120 255
178.448302 -227.109683 -357.072243 0 120 255
180.895743 -226.878224 -357.354041 0 120 255
183.343183 -226.646765 -357.635839 0 120 255
185.790624 -226.415305 -357.917638 0 120 255
188.238062 -226.183835 -358.199448 0 120 255
190.685500 -225.952364 -358.481259 0 120 255
193.132938 -225.720894 -358.763069 0 120 255
195.580376 -225.489424 -359.044879 0 120 255
198.027815 -225.257958 -359.326682 0 120 255
200.475255 -225.026492 -359.608485 0 120 255
202.922694 -224.795026 -359.890288 0 120 255
205.370133 -224.563560 -360.172091 0 120 255
