ply
format ascii 1.0
element vertex 385
property float x
property float y
property float z
property uchar red
property uchar green
property uchar blue
end_header
77.430455 -42.474882 -360.397637 0 120 255
77.187549 -42.528712 -357.935893 0 120 255
76.944642 -42.582542 -355.474150 0 120 255
76.701735 -42.636373 -353.012407 0 120 255
76.458829 -42.690203 -350.550663 0 120 255
76.215854 -42.753496 -348.089152 0 120 255
75.972875 -42.817200 -345.627652 0 120 255
75.729897 -42.880904 -343.166151 0 120 255
75.486919 -42.944607 -340.704651 0 120 255
75.144292 -43.390744 -338.298175 0 120 255
74.792573 -43.871770 -335.896719 0 120 255
74.440855 -44.352797 -333.495264 0 120 255
74.089136 -44.833823 -331.093808 0 120 255
73.659633 -45.634396 -328.796187 0 120 255
73.218601 -46.482330 -326.513956 0 120 255
72.777569 -47.330265 -324.231724 0 120 255
72.336537 -48.178200 -321.949493 0 120 255
71.839927 -49.293622 -319.802014 0 120 255
71.331563 -50.465616 -317.683033 0 120 255
70.823199 -51.637610 -315.564053 0 120 255
70.314835 -52.809604 -313.445073 0 120 255
69.772291 -54.201258 -311.477687 0 120 255
69.220107 -55.654858 -309.553051 0 120 255
68.667923 -57.108458 -307.628416 0 120 255
68.115740 -58.562058 -305.703780 0 120 255
67.549246 -60.192923 -303.937139 0 120 255
66.977588 -61.887776 -302.227531 0 120 255
66.405929 -63.582629 -300.517922 0 120 255
65.834271 -65.277482 -298.808313 0 120 255
65.266281 -67.112854 -297.255602 0 120 255
64.699942 -69.011446 -295.773478 0 120 255
64.133603 -70.910038 -294.291355 0 120 255
63.567264 -72.808631 -292.809232 0 120 255
63.020476 -74.816306 -291.477655 0 120 255
62.484456 -76.884059 -290.228990 0 120 255
61.948436 -78.951811 -288.980325 0 120 255
61.412415 -81.019563 -287.731660 0 120 255
60.909635 -83.169689 -286.623582 0 120 255
60.428992 -85.374675 -285.609137 0 120 255
59.948350 -87.579662 -284.594692 0 120 255
59.467707 -89.784649 -283.580248 0 120 255
59.031708 -92.049373 -282.694000 0 120 255
58.631379 -94.361828 -281.910181 0 120 255
58.231050 -96.674282 -281.126363 0 120 255
57.830720 -98.986737 -280.342544 0 120 255
57.484073 -101.339772 -279.672933 0 120 255
57.188640 -103.731522 -279.112277 0 120 255
56.893207 -106.123271 -278.551622 0 120 255
56.597774 -108.515021 -277.990966 0 120 255
56.362613 -110.931191 -277.529561 0 120 255
56.195985 -113.375128 -277.181008 0 120 255
56.029357 -115.819065 -276.832454 0 120 255
55.862728 -118.263001 -276.483900 0 120 255
55.760426 -120.717840 -276.219173 0 120 255
55.745374 -123.187464 -276.068148 0 120 255
55.730322 -125.657089 -275.917122 0 120 255
55.715270 -128.126714 -275.766097 0 120 255
55.766009 -130.596137 -275.683465 0 120 255
55.923595 -133.065234 -275.711906 0 120 255
56.081182 -135.534331 -275.740347 0 120 255
56.238768 -138.003428 -275.768788 0 120 255
56.461022 -140.463524 -275.850589 0 120 255
56.809893 -142.905996 -276.036868 0 120 255
57.158764 -145.348469 -276.223146 0 120 255
57.507635 -147.790941 -276.409425 0 120 255
57.917566 -150.217884 -276.634913 0 120 255
58.473188 -152.607775 -276.953957 0 120 255
59.028810 -154.997665 -277.273000 0 120 255
59.584433 -157.387556 -277.592044 0 120 255
60.195221 -159.757682 -277.937467 0 120 255
60.969041 -162.069398 -278.360850 0 120 255
61.742861 -164.381114 -278.784233 0 120 255
62.516681 -166.692830 -279.207615 0 120 255
63.337843 -168.982863 -279.646338 0 120 255
64.336506 -171.191595 -280.142580 0 120 255
65.335170 -173.400326 -280.638822 0 120 255
66.333834 -175.609058 -281.135064 0 120 255
67.370568 -177.796488 -281.637867 0 120 255
68.595152 -179.878810 -282.173043 0 120 255
69.819736 -181.961131 -282.708219 0 120 255
71.044319 -184.043453 -283.243394 0 120 255
72.296885 -186.107067 -283.778974 0 120 255
73.742400 -188.041680 -284.317342 0 120 255
75.187915 -189.976293 -284.855710 0 120 255
76.633430 -191.910906 -285.394077 0 120 255
78.096745 -193.831414 -285.929611 0 120 255
79.751805 -195.599980 -286.434623 0 120 255
81.406864 -197.368545 -286.939635 0 120 255
83.061923 -199.137110 -287.444647 0 120 255
84.725300 -200.897844 -287.946642 0 120 255
86.572159 -202.485800 -288.382058 0 120 255
88.419018 -204.073756 -288.817475 0 120 255
90.265877 -205.661713 -289.252891 0 120 255
92.113048 -207.249315 -289.688114 0 120 255
94.127964 -208.646681 -290.019120 0 120 255
96.142880 -210.044047 -290.350126 0 120 255
98.157796 -211.441413 -290.681131 0 120 255
100.172711 -212.838779 -291.012137 0 120 255
102.321186 -214.048445 -291.212008 0 120 255
104.475168 -215.250371 -291.406471 0 120 255
106.629151 -216.452297 -291.600933 0 120 255
108.783133 -217.654222 -291.795396 0 120 255
111.034374 -218.677192 -291.838380 0 120 255
113.294194 -219.684375 -291.868002 0 120 255
115.554014 -220.691558 -291.897624 0 120 255
117.813834 -221.698741 -291.927246 0 120 255
120.134780 -222.540582 -291.791478 0 120 255
122.464264 -223.359331 -291.632611 0 120 255
124.793747 -224.178081 -291.473745 0 120 255
127.123230 -224.996830 -291.314879 0 120 255
129.479402 -225.667875 -290.983281 0 120 255
131.840812 -226.309927 -290.617777 0 120 255
134.202222 -226.951979 -290.252273 0 120 255
136.563632 -227.594031 -289.886769 0 120 255
138.920289 -228.108996 -289.347293 0 120 255
141.275716 -228.591049 -288.762765 0 120 255
143.631142 -229.073102 -288.178236 0 120 255
145.986568 -229.555155 -287.593708 0 120 255
148.309808 -229.932555 -286.839518 0 120 255
150.622468 -230.275551 -286.029554 0 120 255
152.935127 -230.618547 -285.219590 0 120 255
155.247786 -230.961543 -284.409625 0 120 255
157.505460 -231.222981 -283.438957 0 120 255
159.740763 -231.451236 -282.402905 0 120 255
161.976065 -231.679491 -281.366852 0 120 255
164.211367 -231.907746 -280.330800 0 120 255
166.373802 -232.077160 -279.146710 0 120 255
168.500170 -232.217451 -277.889347 0 120 255
170.626537 -232.357741 -276.631985 0 120 255
172.752905 -232.498032 -275.374622 0 120 255
174.793694 -232.602323 -273.985069 0 120 255
176.783560 -232.685195 -272.516857 0 120 255
178.773427 -232.768066 -271.048645 0 120 255
180.763293 -232.850937 -269.580433 0 120 255
182.659630 -232.918895 -267.997504 0 120 255
184.489588 -232.976268 -266.333160 0 120 255
186.319547 -233.033641 -264.668816 0 120 255
188.149505 -233.091014 -263.004471 0 120 255
189.878841 -233.141103 -261.240374 0 120 255
191.523529 -233.185066 -259.392362 0 120 255
193.168218 -233.229028 -257.544350 0 120 255
194.812906 -233.272991 -255.696338 0 120 255
196.351615 -233.310660 -253.763789 0 120 255
197.785062 -233.342078 -251.747276 0 120 255
199.218509 -233.373496 -249.730763 0 120 255
200.651956 -233.404913 -247.714251 0 120 255
201.977193 -233.430806 -245.629554 0 120 255
203.175663 -233.450227 -243.464982 0 120 255
204.374133 -233.469647 -241.300409 0 120 255
205.572603 -233.489068 -239.135836 0 120 255
206.664035 -233.504468 -236.919746 0 120 255
207.607243 -233.514300 -234.632314 0 120 255
208.550451 -233.524133 -232.344883 0 120 255
209.493659 -233.533965 -230.057451 0 120 255
210.334027 -233.540848 -227.734451 0 120 255
211.005282 -233.542879 -225.352961 0 120 255
211.676537 -233.544910 -222.971471 0 120 255
212.347791 -233.546941 -220.589981 0 120 255
212.923186 -233.546746 -218.187473 0 120 255
213.309966 -233.542172 -215.743611 0 120 255
213.696746 -233.537598 -213.299749 0 120 255
214.083526 -233.533024 -210.855887 0 120 255
214.383798 -233.526685 -208.403565 0 120 255
214.478118 -233.516145 -205.931101 0 120 255
214.572437 -233.505605 -203.458638 0 120 255
214.666756 -233.495064 -200.986175 0 120 255
214.685801 -233.483048 -198.515351 0 120 255
214.484469 -233.466710 -196.049326 0 120 255
214.283137 -233.450372 -193.583301 0 120 255
214.081805 -233.434034 -191.117275 0 120 255
213.817751 -233.416420 -188.660195 0 120 255
213.322505 -233.394103 -186.236084 0 120 255
212.827258 -233.371786 -183.811972 0 120 255
212.332012 -233.349470 -181.387861 0 120 255
211.787302 -233.326046 -178.977009 0 120 255
211.004763 -233.297303 -176.629907 0 120 255
210.222224 -233.268560 -174.282805 0 120 255
209.439685 -233.239816 -171.935703 0 120 255
208.621017 -233.210157 -169.603126 0 120 255
207.562515 -233.174419 -167.366973 0 120 255
206.504014 -233.138681 -165.130821 0 120 255
205.445512 -233.102943 -162.894668 0 120 255
204.363686 -233.066529 -160.671335 0 120 255
203.044996 -233.023243 -158.578188 0 120 255
201.726305 -232.979957 -156.485042 0 120 255
200.407615 -232.936671 -154.391895 0 120 255
199.077306 -232.892999 -152.307087 0 120 255
197.518223 -232.841719 -150.386485 0 120 255
195.959139 -232.790440 -148.465884 0 120 255
194.400055 -232.739160 -146.545282 0 120 255
192.839456 -232.687824 -144.626071 0 120 255
191.063311 -232.628344 -142.904486 0 120 255
189.287167 -232.568865 -141.182901 0 120 255
187.511022 -232.509385 -139.461316 0 120 255
185.734878 -232.449906 -137.739731 0 120 255
183.774547 -232.382608 -136.232479 0 120 255
181.807653 -232.315032 -134.732865 0 120 255
179.840759 -232.247455 -133.233250 0 120 255
177.873865 -232.179879 -131.733636 0 120 255
175.757175 -232.105295 -130.456834 0 120 255
173.628193 -232.030136 -129.198317 0 120 255
171.499210 -231.954977 -127.939799 0 120 255
169.370227 -231.879818 -126.681282 0 120 255
167.124989 -231.798806 -125.648893 0 120 255
164.864299 -231.717017 -124.646559 0 120 255
162.603610 -231.635228 -123.644224 0 120 255
160.342920 -231.553439 -122.641890 0 120 255
157.997912 -231.467314 -121.864250 0 120 255
155.636982 -231.380370 -121.129041 0 120 255
153.276052 -231.293426 -120.393833 0 120 255
150.915122 -231.206482 -119.658624 0 120 255
148.499566 -231.117093 -119.142484 0 120 255
146.070318 -231.027090 -118.681250 0 120 255
143.641070 -230.937088 -118.220017 0 120 255
141.211823 -230.847085 -117.758783 0 120 255
138.754914 -230.756597 -117.507415 0 120 255
136.289173 -230.665953 -117.323059 0 120 255
133.823432 -230.575309 -117.138702 0 120 255
131.357691 -230.484666 -116.954345 0 120 255
128.888197 -230.394697 -116.967279 0 120 255
126.417217 -230.304996 -117.058341 0 120 255
123.946237 -230.215295 -117.149403 0 120 255
121.475257 -230.125594 -117.240465 0 120 255
119.020977 -230.037217 -117.513680 0 120 255
116.574753 -229.949480 -117.874745 0 120 255
114.128528 -229.861742 -118.235811 0 120 255
111.682303 -229.774004 -118.596876 0 120 255
109.269619 -229.688117 -119.123319 0 120 255
106.876391 -229.603303 -119.745693 0 120 255
104.483164 -229.518489 -120.368067 0 120 255
102.089936 -229.433675 -120.990441 0 120 255
99.743497 -229.351112 -121.760439 0 120 255
97.429424 -229.270106 -122.632554 0 120 255
95.115350 -229.189100 -123.504668 0 120 255
92.801277 -229.108094 -124.376783 0 120 255
90.543793 -229.029626 -125.378428 0 120 255
88.332740 -228.953242 -126.486350 0 120 255
86.121686 -228.876858 -127.594271 0 120 255
83.910633 -228.800474 -128.702193 0 120 255
81.762799 -228.726799 -129.921811 0 120 255
79.676316 -228.655753 -131.249825 0 120 255
77.589833 -228.584707 -132.577840 0 120 255
75.503350 -228.513661 -133.905855 0 120 255
73.483824 -228.445403 -135.328366 0 120 255
71.541124 -228.380342 -136.859302 0 120 255
69.598424 -228.315281 -138.390239 0 120 255
67.655725 -228.250221 -139.921176 0 120 255
65.781114 -228.187922 -141.530338 0 120 255
63.999055 -228.129378 -143.245833 0 120 255
62.216996 -228.070834 -144.961327 0 120 255
60.434937 -228.012290 -146.676821 0 120 255
58.719835 -227.956412 -148.455490 0 120 255
57.113038 -227.904846 -150.336348 0 120 255
55.506241 -227.853281 -152.217206 0 120 255
53.899445 -227.801715 -154.098065 0 120 255
52.356494 -227.752659 -156.028429 0 120 255
50.937355 -227.708472 -158.054799 0 120 255
49.518216 -227.664284 -160.081168 0 120 255
48.099077 -227.620097 -162.107538 0 120 255
46.738972 -227.578199 -164.171262 0 120 255
45.517661 -227.541685 -166.322807 0 120 255
44.296349 -227.505171 -168.474352 0 120 255
43.075038 -227.468657 -170.625897 0 120 255
41.906554 -227.434167 -172.804281 0 120 255
40.891104 -227.405543 -175.060411 0 120 255
39.875655 -227.376919 -177.316542 0 120 255
38.860205 -227.348294 -179.572672 0 120 255
37.890232 -227.321393 -181.846821 0 120 255
37.086468 -227.300790 -184.186826 0 120 255
36.282704 -227.280187 -186.526830 0 120 255
35.478940 -227.259584 -188.866834 0 120 255
34.712461 -227.240379 -191.217791 0 120 255
34.124151 -227.227858 -193.621084 0 120 255
33.535841 -227.215337 -196.024376 0 120 255
32.947531 -227.202816 -198.427669 0 120 255
32.387725 -227.191351 -200.836605 0 120 255
32.016543 -227.186868 -203.282885 0 120 255
31.645362 -227.182385 -205.729165 0 120 255
31.274181 -227.177903 -208.175445 0 120 255
30.922414 -227.174134 -210.623801 0 120 255
30.768125 -227.177634 -213.093267 0 120 255
30.613837 -227.181133 -215.562734 0 120 255
30.459549 -227.184632 -218.032200 0 120 255
30.315524 -227.188506 -220.501860 0 120 255
30.376211 -227.199850 -222.975374 0 120 255
30.436897 -227.211195 -225.448887 0 120 255
30.497583 -227.222539 -227.922401 0 120 255
30.559532 -227.233928 -230.395829 0 120 255
30.831566 -227.252917 -232.855040 0 120 255
31.103601 -227.271905 -235.314251 0 120 255
31.375635 -227.290894 -237.773462 0 120 255
31.647670 -227.309883 -240.232673 0 120 255
32.118602 -227.335994 -242.661277 0 120 255
32.596914 -227.362370 -245.088746 0 120 255
33.075225 -227.388747 -247.516215 0 120 255
33.553537 -227.415123 -249.943683 0 120 255
34.216250 -227.448063 -252.326702 0 120 255
34.894462 -227.481556 -254.705986 0 120 255
35.572673 -227.515048 -257.085269 0 120 255
36.250885 -227.548540 -259.464552 0 120 255
37.098378 -227.587974 -261.787906 0 120 255
37.968801 -227.628212 -264.103684 0 120 255
38.839224 -227.668451 -266.419461 0 120 255
39.709646 -227.708689 -268.735239 0 120 255
40.734016 -227.754298 -270.985861 0 120 255
41.787942 -227.800938 -273.223973 0 120 255
42.841868 -227.847578 -275.462085 0 120 255
43.895794 -227.894219 -277.700198 0 120 255
45.088256 -227.945639 -279.866129 0 120 255
46.315968 -227.998276 -282.013694 0 120 255
47.543679 -228.050912 -284.161259 0 120 255
48.771391 -228.103549 -286.308824 0 120 255
50.122432 -228.160426 -288.379252 0 120 255
51.513416 -228.218677 -290.424699 0 120 255
52.904399 -228.276928 -292.470146 0 120 255
54.295383 -228.335180 -294.515593 0 120 255
55.794888 -228.397140 -296.480896 0 120 255
57.337962 -228.460590 -298.414022 0 120 255
58.881037 -228.524040 -300.347148 0 120 255
60.424112 -228.587490 -302.280274 0 120 255
62.061504 -228.654238 -304.132026 0 120 255
63.744997 -228.722598 -305.944002 0 120 255
65.428490 -228.790958 -307.755979 0 120 255
67.111984 -228.859318 -309.567955 0 120 255
68.876299 -228.930450 -311.299001 0 120 255
70.688123 -229.003213 -312.982473 0 120 255
72.499947 -229.075975 -314.665946 0 120 255
74.311771 -229.148737 -316.349419 0 120 255
76.191670 -229.223175 -317.954073 0 120 255
78.119296 -229.298788 -319.503468 0 120 255
80.046921 -229.374401 -321.052863 0 120 255
81.974546 -229.450015 -322.602258 0 120 255
83.958168 -229.524197 -324.076899 0 120 255
85.988369 -229.597188 -325.489358 0 120 255
88.018569 -229.670180 -326.901816 0 120 255
90.048770 -229.743172 -328.314275 0 120 255
92.123883 -229.810168 -329.657697 0 120 255
94.243216 -229.871261 -330.933150 0 120 255
96.362548 -229.932354 -332.208602 0 120 255
98.481881 -229.993447 -333.484055 0 120 255
100.636489 -230.045031 -334.696885 0 120 255
102.832203 -230.085536 -335.836746 0 120 255
105.027917 -230.126041 -336.976606 0 120 255
107.223631 -230.166546 -338.116466 0 120 255
109.446471 -230.195645 -339.200293 0 120 255
111.706808 -230.208977 -340.206664 0 120 255
113.967144 -230.222309 -341.213035 0 120 255
116.227481 -230.235641 -342.219405 0 120 255
118.508087 -230.236647 -343.176476 0 120 255
120.822097 -230.217339 -344.052300 0 120 255
123.136106 -230.198032 -344.928125 0 120 255
125.450116 -230.178724 -345.803949 0 120 255
127.778732 -230.147036 -346.637199 0 120 255
130.136279 -230.090831 -347.386131 0 120 255
132.493825 -230.034625 -348.135062 0 120 255
134.851372 -229.978419 -348.883993 0 120 255
137.218966 -229.910493 -349.596920 0 120 255
139.610768 -229.814330 -350.223114 0 120 255
142.002570 -229.718167 -350.849308 0 120 255
144.394371 -229.622004 -351.475502 0 120 255
146.792664 -229.515351 -352.072007 0 120 255
149.210311 -229.377418 -352.579981 0 120 255
151.627959 -229.239486 -353.087955 0 120 255
154.045606 -229.101553 -353.595929 0 120 255
156.467079 -228.954767 -354.080209 0 120 255
158.903038 -228.774455 -354.474759 0 120 255
161.338998 -228.594142 -354.869308 0 120 255
163.774958 -228.413830 -355.263858 0 120 255
166.212846 -228.226718 -355.640605 0 120 255
168.660378 -228.005596 -355.928309 0 120 255
171.107910 -227.784475 -356.216014 0 120 255
173.555442 -227.563353 -356.503719 0 120 255
176.002941 -227.340945 -356.790684 0 120 255
178.450208 -227.109502 -357.072462 0 120 255
180.897475 -226.878060 -357.354240 0 120 255
183.344743 -226.646617 -357.636018 0 120 255
185.792010 -226.415174 -357.917797 0 120 255
188.239275 -226.183720 -358.199588 0 120 255
190.686539 -225.952266 -358.481378 0 120 255
193.133804 -225.720812 -358.763169 0 120 255
195.581069 -225.489359 -359.044959 0 120 255
198.028335 -225.257909 -359.326742 0 120 255
200.475601 -225.026460 -359.608525 0 120 255
202.922867 -224.795010 -359.890308 0 120 255
205.370133 -224.563560 -360.172091 0 120 255
