ply
format ascii 1.0
element vertex 385
property float x
property float y
property float z
property uchar red
property uchar green
property uchar blue
end_header
77.430455 -42.474882 -360.397637 0 120 255
77.187554 -42.528711 -357.935948 0 120 255
76.944653 -42.582540 -355.474259 0 120 255
76.701752 -42.636369 -353.012570 0 120 255
76.458850 -42.690198 -350.550881 0 120 255
76.213985 -42.754336 -348.089634 0 120 255
75.969034 -42.818921 -345.628407 0 120 255
75.724082 -42.883507 -343.167180 0 120 255
75.479131 -42.948092 -340.705953 0 120 255
75.067822 -43.408196 -338.313515 0 120 255
74.641380 -43.904278 -335.927333 0 120 255
74.214937 -44.400359 -333.541152 0 120 255
73.788495 -44.896441 -331.154971 0 120 255
73.227473 -45.674216 -328.877698 0 120 255
72.646558 -46.493628 -326.616523 0 120 255
72.065643 -47.313039 -324.355347 0 120 255
71.484728 -48.132451 -322.094172 0 120 255
70.802715 -49.146843 -319.945956 0 120 255
70.099411 -50.202298 -317.821529 0 120 255
69.396107 -51.257753 -315.697103 0 120 255
68.692802 -52.313208 -313.572676 0 120 255
67.922753 -53.500553 -311.545291 0 120 255
67.134006 -54.724844 -309.545091 0 120 255
66.345259 -55.949135 -307.544890 0 120 255
65.556512 -57.173425 -305.544690 0 120 255
64.734114 -58.489304 -303.618930 0 120 255
63.899685 -59.837930 -301.719787 0 120 255
63.065255 -61.186555 -299.820643 0 120 255
62.230825 -62.535181 -297.921499 0 120 255
61.392758 -63.953340 -296.076280 0 120 255
60.553075 -65.402397 -294.255023 0 120 255
59.713392 -66.851454 -292.433766 0 120 255
58.873709 -68.300511 -290.612509 0 120 255
58.055840 -69.809494 -288.831274 0 120 255
57.249807 -71.350991 -287.071754 0 120 255
56.443775 -72.892488 -285.312235 0 120 255
55.637743 -74.433985 -283.552715 0 120 255
54.873412 -76.032720 -281.827137 0 120 255
54.136390 -77.668935 -280.123785 0 120 255
53.399367 -79.305151 -278.420433 0 120 255
52.662345 -80.941366 -276.717081 0 120 255
51.980943 -82.634620 -275.048408 0 120 255
51.343175 -84.372621 -273.406939 0 120 255
50.705408 -86.110621 -271.765471 0 120 255
50.067640 -87.848622 -270.124003 0 120 255
49.493639 -89.642911 -268.522570 0 120 255
48.979332 -91.489894 -266.958616 0 120 255
48.465024 -93.336877 -265.394662 0 120 255
47.950717 -95.183861 -263.830708 0 120 255
47.503286 -97.084163 -262.314201 0 120 255
47.130474 -99.043956 -260.850632 0 120 255
46.757662 -101.003749 -259.387064 0 120 255
46.384850 -102.963542 -257.923495 0 120 255
46.078012 -104.970956 -256.514537 0 120 255
45.859047 -107.041795 -255.178315 0 120 255
45.640082 -109.112635 -253.842094 0 120 255
45.421117 -111.183475 -252.505872 0 120 255
45.264370 -113.293810 -251.229412 0 120 255
45.206978 -115.467216 -250.048384 0 120 255
45.149587 -117.640621 -248.867356 0 120 255
45.092196 -119.814026 -247.686328 0 120 255
45.091469 -122.017185 -246.567119 0 120 255
45.200048 -124.277737 -245.567157 0 120 255
45.308627 -126.538290 -244.567195 0 120 255
45.417206 -128.798842 -243.567233 0 120 255
45.575955 -131.078829 -242.627627 0 120 255
45.852958 -133.404623 -241.830279 0 120 255
46.129961 -135.730417 -241.032932 0 120 255
46.406964 -138.056211 -240.235585 0 120 255
46.727265 -140.391608 -239.493719 0 120 255
47.174393 -142.755130 -238.914367 0 120 255
47.621522 -145.118653 -238.335016 0 120 255
48.068650 -147.482175 -237.755664 0 120 255
48.552130 -149.846916 -237.224040 0 120 255
49.171268 -152.216200 -236.870531 0 120 255
49.790406 -154.585485 -236.517021 0 120 255
50.409544 -156.954770 -236.163512 0 120 255
51.058074 -159.319116 -235.847909 0 120 255
51.851761 -161.659070 -235.719517 0 120 255
52.645448 -163.999025 -235.591124 0 120 255
53.439135 -166.338980 -235.462732 0 120 255
54.255171 -168.670627 -235.361388 0 120 255
55.226689 -170.944484 -235.448221 0 120 255
56.198207 -173.218340 -235.535054 0 120 255
57.169725 -175.492197 -235.621887 0 120 255
58.156345 -177.757481 -235.725012 0 120 255
59.309297 -179.928351 -236.007567 0 120 255
60.462249 -182.099221 -236.290122 0 120 255
61.615201 -184.270091 -236.572677 0 120 255
62.775731 -186.435279 -236.862074 0 120 255
64.113240 -188.467794 -237.311257 0 120 255
65.450749 -190.500309 -237.760440 0 120 255
66.788258 -192.532823 -238.209623 0 120 255
68.125767 -194.565338 -238.658806 0 120 255
69.649139 -196.427536 -239.236127 0 120 255
71.172669 -198.289589 -239.813557 0 120 255
72.696200 -200.151641 -240.390987 0 120 255
74.219730 -202.013694 -240.968417 0 120 255
75.919853 -203.686586 -241.623844 0 120 255
77.627813 -205.351082 -242.282733 0 120 255
79.335773 -207.015579 -242.941623 0 120 255
81.043733 -208.680075 -243.600512 0 120 255
82.914999 -210.144969 -244.284701 0 120 255
84.801219 -211.591582 -244.971208 0 120 255
86.687440 -213.038196 -245.657715 0 120 255
88.573660 -214.484810 -246.344221 0 120 255
90.605218 -215.730243 -247.003440 0 120 255
92.657551 -216.946918 -247.658759 0 120 255
94.709884 -218.163594 -248.314077 0 120 255
96.762217 -219.380270 -248.969395 0 120 255
98.936977 -220.403086 -249.547690 0 120 255
101.136113 -221.387307 -250.110650 0 120 255
103.335249 -222.371527 -250.673610 0 120 255
105.534384 -223.355747 -251.236570 0 120 255
107.828417 -224.161692 -251.678402 0 120 255
110.147197 -224.921145 -252.088645 0 120 255
112.465978 -225.680598 -252.498888 0 120 255
114.784758 -226.440051 -252.909132 0 120 255
117.167124 -227.043920 -253.162266 0 120 255
119.570404 -227.596612 -253.363722 0 120 255
121.973685 -228.149305 -253.565178 0 120 255
124.376966 -228.701997 -253.766634 0 120 255
126.810121 -229.127110 -253.785066 0 120 255
129.255367 -229.500594 -253.729433 0 120 255
131.700612 -229.874078 -253.673799 0 120 255
134.145858 -230.247563 -253.618166 0 120 255
136.586593 -230.524689 -253.364890 0 120 255
139.025121 -230.754653 -253.014877 0 120 255
141.463649 -230.984616 -252.664865 0 120 255
143.902178 -231.214580 -252.314852 0 120 255
146.303010 -231.381036 -251.764090 0 120 255
148.681789 -231.510338 -251.095880 0 120 255
151.060567 -231.639640 -250.427671 0 120 255
153.439346 -231.768942 -249.759461 0 120 255
155.750476 -231.866417 -248.898464 0 120 255
158.014656 -231.941802 -247.903671 0 120 255
160.278837 -232.017188 -246.908877 0 120 255
162.543018 -232.092574 -245.914084 0 120 255
164.714641 -232.148538 -244.743580 0 120 255
166.810362 -232.188576 -243.428984 0 120 255
168.906082 -232.228614 -242.114388 0 120 255
171.001803 -232.268652 -240.799792 0 120 255
172.984620 -232.295867 -239.332024 0 120 255
174.858294 -232.310687 -237.716184 0 120 255
176.731969 -232.325506 -236.100345 0 120 255
178.605643 -232.340326 -234.484505 0 120 255
180.352190 -232.347526 -232.742457 0 120 255
181.954012 -232.346051 -230.856727 0 120 255
183.555833 -232.344576 -228.970997 0 120 255
185.157655 -232.343101 -227.085268 0 120 255
186.625272 -232.338139 -225.102582 0 120 255
187.912588 -232.328494 -222.989637 0 120 255
189.199905 -232.318850 -220.876693 0 120 255
190.487221 -232.309205 -218.763748 0 120 255
191.640375 -232.298621 -216.582938 0 120 255
192.579858 -232.286542 -214.294044 0 120 255
193.519342 -232.274463 -212.005150 0 120 255
194.458826 -232.262383 -209.716256 0 120 255
195.270713 -232.250632 -207.386374 0 120 255
195.839926 -232.239505 -204.978536 0 120 255
196.409139 -232.228378 -202.570698 0 120 255
196.978352 -232.217250 -200.162860 0 120 255
197.431907 -232.206790 -197.737054 0 120 255
197.619893 -232.197860 -195.269993 0 120 255
197.807880 -232.188930 -192.802931 0 120 255
197.995867 -232.180000 -190.335870 0 120 255
198.084059 -232.171517 -187.868905 0 120 255
197.891223 -232.164289 -185.402212 0 120 255
197.698387 -232.157062 -182.935519 0 120 255
197.505551 -232.149834 -180.468826 0 120 255
197.231120 -232.142581 -178.014777 0 120 255
196.668399 -232.135237 -175.605399 0 120 255
196.105677 -232.127893 -173.196021 0 120 255
195.542956 -232.120549 -170.786644 0 120 255
194.917615 -232.112715 -168.396884 0 120 255
194.005115 -232.102631 -166.097090 0 120 255
193.092615 -232.092548 -163.797296 0 120 255
192.180115 -232.082464 -161.497501 0 120 255
191.223365 -232.071599 -159.219092 0 120 255
189.988709 -232.055821 -157.074987 0 120 255
188.754053 -232.040044 -154.930882 0 120 255
187.519397 -232.024266 -152.786776 0 120 255
186.257135 -232.007673 -150.661280 0 120 255
184.733634 -231.983365 -148.711879 0 120 255
183.210134 -231.959057 -146.762477 0 120 255
181.686633 -231.934749 -144.813075 0 120 255
180.149621 -231.909858 -142.875820 0 120 255
178.374465 -231.874689 -141.152626 0 120 255
176.599310 -231.839519 -139.429432 0 120 255
174.824154 -231.804350 -137.706238 0 120 255
173.046508 -231.769035 -135.985980 0 120 255
171.059057 -231.721503 -134.513026 0 120 255
169.071607 -231.673970 -133.040073 0 120 255
167.084156 -231.626438 -131.567119 0 120 255
165.096706 -231.578905 -130.094166 0 120 255
162.942257 -231.518951 -128.880250 0 120 255
160.782587 -231.458609 -127.674433 0 120 255
158.622917 -231.398267 -126.468616 0 120 255
156.463246 -231.337925 -125.262798 0 120 255
154.180509 -231.266380 -124.314413 0 120 255
151.888161 -231.193959 -123.386130 0 120 255
149.595814 -231.121538 -122.457847 0 120 255
147.303466 -231.049118 -121.529564 0 120 255
144.927348 -230.967779 -120.851143 0 120 255
142.540385 -230.885285 -120.205066 0 120 255
140.153423 -230.802792 -119.558989 0 120 255
137.766460 -230.720298 -118.912912 0 120 255
135.330002 -230.632331 -118.504537 0 120 255
132.884335 -230.543345 -118.140383 0 120 255
130.438669 -230.454358 -117.776228 0 120 255
127.993002 -230.365372 -117.412074 0 120 255
125.526995 -230.275256 -117.270290 0 120 255
123.055931 -230.184860 -117.183791 0 120 255
120.584867 -230.094463 -117.097291 0 120 255
118.113803 -230.004066 -117.010791 0 120 255
115.646772 -229.914506 -117.129650 0 120 255
113.181024 -229.825212 -117.313835 0 120 255
110.715276 -229.735918 -117.498020 0 120 255
108.249528 -229.646624 -117.682206 0 120 255
105.807800 -229.558994 -118.053672 0 120 255
103.375579 -229.472021 -118.499258 0 120 255
100.943358 -229.385049 -118.944844 0 120 255
98.511137 -229.298076 -119.390431 0 120 255
96.118897 -229.213209 -120.004664 0 120 255
93.745971 -229.129359 -120.700367 0 120 255
91.373045 -229.045509 -121.396070 0 120 255
89.000119 -228.961659 -122.091773 0 120 255
86.679480 -228.880274 -122.937433 0 120 255
84.389271 -228.800323 -123.870365 0 120 255
82.099062 -228.720371 -124.803297 0 120 255
79.808853 -228.640420 -125.736229 0 120 255
77.579964 -228.563181 -126.800768 0 120 255
75.393689 -228.487827 -127.956768 0 120 255
73.207415 -228.412472 -129.112768 0 120 255
71.021140 -228.337118 -130.268768 0 120 255
68.902321 -228.264639 -131.538686 0 120 255
66.839165 -228.194532 -132.902609 0 120 255
64.776010 -228.124425 -134.266532 0 120 255
62.712854 -228.054318 -135.630454 0 120 255
60.720722 -227.987156 -137.091469 0 120 255
58.797980 -227.922871 -138.647343 0 120 255
56.875238 -227.858586 -140.203216 0 120 255
54.952496 -227.794301 -141.759089 0 120 255
53.102074 -227.732949 -143.396248 0 120 255
51.335264 -227.674989 -145.127384 0 120 255
49.568453 -227.617029 -146.858520 0 120 255
47.801642 -227.559070 -148.589656 0 120 255
46.106447 -227.503970 -150.387422 0 120 255
44.509422 -227.452791 -152.276523 0 120 255
42.912396 -227.401612 -154.165623 0 120 255
41.315370 -227.350433 -156.054723 0 120 255
39.787490 -227.301974 -157.997043 0 120 255
38.372497 -227.257955 -160.026247 0 120 255
36.957503 -227.213937 -162.055450 0 120 255
35.542510 -227.169918 -164.084654 0 120 255
34.192637 -227.128419 -166.154991 0 120 255
32.970337 -227.091855 -168.305911 0 120 255
31.748037 -227.055292 -170.456831 0 120 255
30.525736 -227.018728 -172.607751 0 120 255
29.363172 -226.984459 -174.789122 0 120 255
28.342625 -226.955644 -177.042889 0 120 255
27.322077 -226.926828 -179.296655 0 120 255
26.301530 -226.898013 -181.550422 0 120 255
25.334162 -226.871214 -183.825430 0 120 255
24.522764 -226.850326 -186.162738 0 120 255
23.711366 -226.829438 -188.500046 0 120 255
22.899968 -226.808551 -190.837354 0 120 255
22.134215 -226.789377 -193.188237 0 120 255
21.537627 -226.776554 -195.589430 0 120 255
20.941039 -226.763731 -197.990623 0 120 255
20.344451 -226.750908 -200.391817 0 120 255
19.785199 -226.739473 -202.800523 0 120 255
19.407279 -226.734781 -205.245715 0 120 255
19.029358 -226.730090 -207.690907 0 120 255
18.651438 -226.725398 -210.136099 0 120 255
18.301983 -226.721751 -212.584392 0 120 255
18.144674 -226.725158 -215.053613 0 120 255
17.987364 -226.728565 -217.522835 0 120 255
17.830055 -226.731972 -219.992056 0 120 255
17.692017 -226.736081 -222.461641 0 120 255
17.755339 -226.747532 -224.935034 0 120 255
17.818661 -226.758983 -227.408426 0 120 255
17.881984 -226.770433 -229.881819 0 120 255
17.955290 -226.782245 -232.354510 0 120 255
18.237174 -226.801588 -234.812554 0 120 255
18.519058 -226.820931 -237.270597 0 120 255
18.800941 -226.840274 -239.728641 0 120 255
19.083687 -226.859648 -242.186547 0 120 255
19.580086 -226.886681 -244.610318 0 120 255
20.076485 -226.913713 -247.034090 0 120 255
20.572885 -226.940746 -249.457861 0 120 255
21.069284 -226.967778 -251.881633 0 120 255
21.766364 -227.001918 -254.255037 0 120 255
22.471291 -227.036337 -256.626472 0 120 255
23.176219 -227.070755 -258.997907 0 120 255
23.881146 -227.105173 -261.369342 0 120 255
24.770814 -227.146093 -263.677011 0 120 255
25.676391 -227.187573 -265.979189 0 120 255
26.581967 -227.229053 -268.281366 0 120 255
27.487544 -227.270533 -270.583544 0 120 255
28.561108 -227.317847 -272.811184 0 120 255
29.657783 -227.365965 -275.028570 0 120 255
30.754458 -227.414082 -277.245956 0 120 255
31.851132 -227.462199 -279.463342 0 120 255
33.098635 -227.515515 -281.598044 0 120 255
34.375430 -227.569840 -283.716689 0 120 255
35.652224 -227.624165 -285.835334 0 120 255
36.929019 -227.678490 -287.953978 0 120 255
38.339452 -227.737336 -289.984356 0 120 255
39.784202 -227.797344 -291.992069 0 120 255
41.228951 -227.857351 -293.999781 0 120 255
42.673701 -227.917359 -296.007493 0 120 255
44.235178 -227.981280 -297.923828 0 120 255
45.834748 -228.046479 -299.810342 0 120 255
47.434319 -228.111678 -301.696856 0 120 255
49.033889 -228.176877 -303.583370 0 120 255
50.733941 -228.245403 -305.377643 0 120 255
52.474595 -228.315272 -307.134644 0 120 255
54.215249 -228.385142 -308.891645 0 120 255
55.955904 -228.455012 -310.648646 0 120 255
57.781732 -228.527717 -312.314547 0 120 255
59.649430 -228.601815 -313.935666 0 120 255
61.517127 -228.675913 -315.556785 0 120 255
63.384825 -228.750011 -317.177904 0 120 255
65.323526 -228.826545 -318.710814 0 120 255
67.304174 -228.904518 -320.191612 0 120 255
69.284822 -228.982491 -321.672411 0 120 255
71.265470 -229.060464 -323.153210 0 120 255
73.304210 -229.140473 -324.550215 0 120 255
75.383858 -229.221914 -325.888216 0 120 255
77.463505 -229.303355 -327.226216 0 120 255
79.543152 -229.384797 -328.564217 0 120 255
81.669215 -229.466804 -329.824411 0 120 255
83.834036 -229.549284 -331.019633 0 120 255
85.998857 -229.631764 -332.214856 0 120 255
88.163679 -229.714245 -333.410078 0 120 255
90.364063 -229.791473 -334.536206 0 120 255
92.599577 -229.863513 -335.594080 0 120 255
94.835091 -229.935553 -336.651954 0 120 255
97.070606 -230.007593 -337.709828 0 120 255
99.332667 -230.069630 -338.707779 0 120 255
101.625750 -230.119978 -339.635703 0 120 255
103.918834 -230.170325 -340.563628 0 120 255
106.211918 -230.220673 -341.491552 0 120 255
108.524275 -230.258247 -342.368516 0 120 255
110.863339 -230.278119 -343.174863 0 120 255
113.202403 -230.297990 -343.981210 0 120 255
115.541467 -230.317862 -344.787557 0 120 255
117.894021 -230.323750 -345.551546 0 120 255
120.268852 -230.306545 -346.245587 0 120 255
122.643683 -230.289339 -346.939629 0 120 255
125.018513 -230.272134 -347.633670 0 120 255
127.402366 -230.241029 -348.293371 0 120 255
129.804116 -230.182352 -348.884949 0 120 255
132.205867 -230.123674 -349.476527 0 120 255
134.607617 -230.064996 -350.068105 0 120 255
137.015051 -229.993538 -350.632667 0 120 255
139.436196 -229.891257 -351.132077 0 120 255
141.857340 -229.788976 -351.631486 0 120 255
144.278485 -229.686695 -352.130895 0 120 255
146.702948 -229.573507 -352.609784 0 120 255
149.137311 -229.427780 -353.027454 0 120 255
151.571675 -229.282053 -353.445124 0 120 255
154.006039 -229.136326 -353.862794 0 120 255
156.442149 -228.982019 -354.265579 0 120 255
158.884874 -228.795230 -354.612012 0 120 255
161.327599 -228.608442 -354.958446 0 120 255
163.770324 -228.421653 -355.304879 0 120 255
166.213837 -228.229034 -355.641479 0 120 255
168.661282 -228.007299 -355.928978 0 120 255
171.108728 -227.785565 -356.216477 0 120 255
173.556173 -227.563830 -356.503976 0 120 255
176.003590 -227.340884 -356.790759 0 120 255
178.450803 -227.109446 -357.072531 0 120 255
180.898016 -226.878009 -357.354303 0 120 255
183.345229 -226.646571 -357.636074 0 120 255
185.792442 -226.415133 -357.917847 0 120 255
188.239653 -226.183684 -358.199631 0 120 255
190.686864 -225.952235 -358.481416 0 120 255
193.134075 -225.720787 -358.763200 0 120 255
195.581285 -225.489338 -359.044984 0 120 255
198.028497 -225.257894 -359.326761 0 120 255
200.475709 -225.026449 -359.608537 0 120 255
202.922921 -224.795005 -359.890314 0 120 255
205.370133 -224.563560 -360.172091 0 120 255
