ply
format ascii 1.0
element vertex 385
property float x
property float y
property float z
property uchar red
property uchar green
property uchar blue
end_header
77.430455 -42.474882 -360.397637 0 120 255
77.187557 -42.528710 -357.935973 0 120 255
76.944658 -42.582539 -355.474309 0 120 255
76.701759 -42.636368 -353.012645 0 120 255
76.458860 -42.690196 -350.550981 0 120 255
76.213602 -42.754083 -348.089793 0 120 255
75.968240 -42.818409 -345.628625 0 120 255
75.722879 -42.882734 -343.167458 0 120 255
75.477517 -42.947059 -340.706290 0 120 255
75.068887 -43.376415 -338.307239 0 120 255
74.645386 -43.839021 -335.913847 0 120 255
74.221885 -44.301626 -333.520454 0 120 255
73.798383 -44.764231 -331.127061 0 120 255
73.247582 -45.487178 -328.828819 0 120 255
72.677983 -46.248568 -326.544629 0 120 255
72.108383 -47.009959 -324.260438 0 120 255
71.538784 -47.771350 -321.976248 0 120 255
70.878154 -48.716943 -319.789875 0 120 255
70.198394 -49.701248 -317.624060 0 120 255
69.518634 -50.685553 -315.458245 0 120 255
68.838874 -51.669858 -313.292429 0 120 255
68.103648 -52.784833 -311.211488 0 120 255
67.352926 -53.936313 -309.154257 0 120 255
66.602205 -55.087794 -307.097027 0 120 255
65.851484 -56.239274 -305.039797 0 120 255
65.077834 -57.488250 -303.050325 0 120 255
64.296010 -58.771988 -301.085012 0 120 255
63.514186 -60.055726 -299.119699 0 120 255
62.732362 -61.339463 -297.154386 0 120 255
61.955513 -62.702867 -295.242520 0 120 255
61.180869 -64.101575 -293.354339 0 120 255
60.406225 -65.500284 -291.466158 0 120 255
59.631581 -66.898992 -289.577977 0 120 255
58.884187 -68.369313 -287.734891 0 120 255
58.151543 -69.878398 -285.916215 0 120 255
57.418900 -71.387483 -284.097539 0 120 255
56.686257 -72.896568 -282.278863 0 120 255
55.997135 -74.474034 -280.503224 0 120 255
55.336458 -76.096190 -278.755711 0 120 255
54.675780 -77.718346 -277.008199 0 120 255
54.015102 -79.340502 -275.260686 0 120 255
53.408440 -81.028974 -273.559120 0 120 255
52.844087 -82.769388 -271.893542 0 120 255
52.279734 -84.509803 -270.227964 0 120 255
51.715382 -86.250218 -268.562387 0 120 255
51.210449 -88.053715 -266.948508 0 120 255
50.761070 -89.916192 -265.382965 0 120 255
50.311691 -91.778669 -263.817423 0 120 255
49.862312 -93.641146 -262.251880 0 120 255
49.473663 -95.561250 -260.744478 0 120 255
49.152709 -97.545589 -259.301885 0 120 255
48.831754 -99.529927 -257.859292 0 120 255
48.510799 -101.514266 -256.416699 0 120 255
48.248891 -103.548411 -255.037554 0 120 255
48.065566 -105.648843 -253.742847 0 120 255
47.882240 -107.749274 -252.448140 0 120 255
47.698915 -109.849705 -251.153433 0 120 255
47.571006 -111.990267 -249.925092 0 120 255
47.531526 -114.194867 -248.802653 0 120 255
47.492046 -116.399466 -247.680214 0 120 255
47.452566 -118.604066 -246.557776 0 120 255
47.463762 -120.838089 -245.501541 0 120 255
47.572635 -123.128828 -244.572913 0 120 255
47.681507 -125.419567 -243.644286 0 120 255
47.790380 -127.710306 -242.715659 0 120 255
47.944664 -130.019697 -241.849850 0 120 255
48.205884 -132.373013 -241.131968 0 120 255
48.467103 -134.726329 -240.414085 0 120 255
48.728323 -137.079645 -239.696203 0 120 255
49.029472 -139.441699 -239.034776 0 120 255
49.447425 -141.829315 -238.538498 0 120 255
49.865377 -144.216931 -238.042221 0 120 255
50.283330 -146.604547 -237.545943 0 120 255
50.735587 -148.992656 -237.097359 0 120 255
51.315609 -151.382603 -236.826410 0 120 255
51.895630 -153.772551 -236.555462 0 120 255
52.475652 -156.162498 -236.284514 0 120 255
53.084116 -158.547008 -236.050883 0 120 255
53.832632 -160.904745 -236.001007 0 120 255
54.581147 -163.262482 -235.951131 0 120 255
55.329663 -165.620218 -235.901255 0 120 255
56.100357 -167.969359 -235.877659 0 120 255
57.024597 -170.258986 -236.036010 0 120 255
57.948838 -172.548613 -236.194360 0 120 255
58.873078 -174.838239 -236.352710 0 120 255
59.812672 -177.119139 -236.526697 0 120 255
60.919921 -179.304739 -236.871428 0 120 255
62.027169 -181.490339 -237.216158 0 120 255
63.134417 -183.675939 -237.560888 0 120 255
64.249589 -185.855740 -237.912129 0 120 255
65.546092 -187.902821 -238.412355 0 120 255
66.842596 -189.949901 -238.912582 0 120 255
68.139099 -191.996982 -239.412808 0 120 255
69.435624 -194.044043 -239.913048 0 120 255
70.925156 -195.921144 -240.529061 0 120 255
72.414688 -197.798246 -241.145074 0 120 255
73.904220 -199.675347 -241.761087 0 120 255
75.393752 -201.552448 -242.377100 0 120 255
77.068069 -203.240928 -243.058415 0 120 255
78.750359 -204.921270 -243.742547 0 120 255
80.432649 -206.601612 -244.426680 0 120 255
82.114939 -208.281954 -245.110812 0 120 255
83.968613 -209.763095 -245.807641 0 120 255
85.837715 -211.226303 -246.505613 0 120 255
87.706818 -212.689510 -247.203586 0 120 255
89.575920 -214.152718 -247.901558 0 120 255
91.597317 -215.414752 -248.560129 0 120 255
93.640188 -216.648419 -249.213146 0 120 255
95.683059 -217.882086 -249.866162 0 120 255
97.725930 -219.115753 -250.519178 0 120 255
99.896291 -220.155014 -251.083971 0 120 255
102.091732 -221.156032 -251.631409 0 120 255
104.287173 -222.157050 -252.178847 0 120 255
106.482613 -223.158068 -252.726286 0 120 255
108.775653 -223.979666 -253.142757 0 120 255
111.093864 -224.754992 -253.525453 0 120 255
113.412074 -225.530318 -253.908148 0 120 255
115.730285 -226.305644 -254.290844 0 120 255
118.112324 -226.923711 -254.508357 0 120 255
120.515138 -227.490594 -254.672108 0 120 255
122.917952 -228.057478 -254.835859 0 120 255
125.320766 -228.624362 -254.999610 0 120 255
127.751510 -229.061604 -254.974369 0 120 255
130.193441 -229.446918 -254.873426 0 120 255
132.635373 -229.832232 -254.772483 0 120 255
135.077305 -230.217546 -254.671540 0 120 255
137.511188 -230.504211 -254.369316 0 120 255
139.941171 -230.743070 -253.969547 0 120 255
142.371154 -230.981928 -253.569779 0 120 255
144.801137 -231.220786 -253.170010 0 120 255
147.189116 -231.393839 -252.568245 0 120 255
149.552758 -231.528764 -251.849439 0 120 255
151.916399 -231.663689 -251.130634 0 120 255
154.280040 -231.798614 -250.411829 0 120 255
156.571921 -231.898924 -249.501199 0 120 255
158.814467 -231.975437 -248.458692 0 120 255
161.057013 -232.051949 -247.416186 0 120 255
163.299559 -232.128462 -246.373679 0 120 255
165.445891 -232.187632 -245.157467 0 120 255
167.514083 -232.232719 -243.800177 0 120 255
169.582274 -232.277805 -242.442887 0 120 255
171.650466 -232.322891 -241.085596 0 120 255
173.602937 -232.356210 -239.577696 0 120 255
175.444624 -232.378262 -237.925609 0 120 255
177.286310 -232.400313 -236.273522 0 120 255
179.127996 -232.422365 -234.621435 0 120 255
180.840590 -232.436739 -232.845919 0 120 255
182.407585 -232.442453 -230.931192 0 120 255
183.974581 -232.448167 -229.016465 0 120 255
185.541576 -232.453880 -227.101738 0 120 255
186.973194 -232.455736 -225.092780 0 120 255
188.224595 -232.452456 -222.958378 0 120 255
189.475997 -232.449176 -220.823977 0 120 255
190.727399 -232.445897 -218.689575 0 120 255
191.844123 -232.441116 -216.489755 0 120 255
192.748306 -232.433968 -214.186695 0 120 255
193.652489 -232.426820 -211.883634 0 120 255
194.556672 -232.419671 -209.580574 0 120 255
195.333209 -232.412212 -207.238554 0 120 255
195.869200 -232.404167 -204.823117 0 120 255
196.405191 -232.396122 -202.407680 0 120 255
196.941182 -232.388077 -199.992244 0 120 255
197.361743 -232.380075 -197.560406 0 120 255
197.519750 -232.372170 -195.091265 0 120 255
197.677757 -232.364266 -192.622124 0 120 255
197.835764 -232.356361 -190.152983 0 120 255
197.894307 -232.348361 -187.685068 0 120 255
197.675524 -232.340092 -185.220570 0 120 255
197.456742 -232.331824 -182.756071 0 120 255
197.237959 -232.323556 -180.291573 0 120 255
196.937876 -232.314837 -177.840486 0 120 255
196.353616 -232.304543 -175.436277 0 120 255
195.769357 -232.294249 -173.032068 0 120 255
195.185097 -232.283955 -170.627859 0 120 255
194.538392 -232.272873 -168.243781 0 120 255
193.608776 -232.258225 -165.950904 0 120 255
192.679159 -232.243577 -163.658027 0 120 255
191.749543 -232.228930 -161.365150 0 120 255
190.775698 -232.213322 -159.094021 0 120 255
189.528064 -232.191776 -156.957521 0 120 255
188.280431 -232.170230 -154.821021 0 120 255
187.032797 -232.148683 -152.684521 0 120 255
185.757429 -232.126236 -150.566941 0 120 255
184.224583 -232.095421 -148.625003 0 120 255
182.691738 -232.064605 -146.683066 0 120 255
181.158892 -232.033790 -144.741128 0 120 255
179.612291 -232.002361 -142.811665 0 120 255
177.830778 -231.960455 -141.095232 0 120 255
176.049265 -231.918549 -139.378799 0 120 255
174.267752 -231.876643 -137.662367 0 120 255
172.483443 -231.834576 -135.949252 0 120 255
170.491952 -231.780550 -134.482035 0 120 255
168.500460 -231.726524 -133.014817 0 120 255
166.508968 -231.672498 -131.547600 0 120 255
164.517476 -231.618472 -130.080382 0 120 255
162.360321 -231.552680 -128.871563 0 120 255
160.198258 -231.486539 -127.670398 0 120 255
158.036195 -231.420398 -126.469234 0 120 255
155.874132 -231.354257 -125.268069 0 120 255
153.589803 -231.277911 -124.323874 0 120 255
151.296139 -231.200786 -123.399295 0 120 255
149.002476 -231.123661 -122.474716 0 120 255
146.708813 -231.046536 -121.550137 0 120 255
144.331802 -230.961817 -120.875242 0 120 255
141.944159 -230.876131 -120.232200 0 120 255
139.556516 -230.790444 -119.589157 0 120 255
137.168873 -230.704757 -118.946114 0 120 255
134.731935 -230.615123 -118.540991 0 120 255
132.285929 -230.524763 -118.179641 0 120 255
129.839923 -230.434402 -117.818291 0 120 255
127.393916 -230.344042 -117.456941 0 120 255
124.927745 -230.253529 -117.318573 0 120 255
122.456607 -230.162979 -117.235138 0 120 255
119.985468 -230.072428 -117.151703 0 120 255
117.514330 -229.981878 -117.068268 0 120 255
115.047513 -229.892380 -117.191018 0 120 255
112.582061 -229.803213 -117.378845 0 120 255
110.116608 -229.714047 -117.566672 0 120 255
107.651156 -229.624881 -117.754499 0 120 255
105.210135 -229.537348 -118.130408 0 120 255
102.778717 -229.450457 -118.580231 0 120 255
100.347299 -229.363567 -119.030054 0 120 255
97.915880 -229.276676 -119.479877 0 120 255
95.524930 -229.191899 -120.099000 0 120 255
93.153404 -229.108136 -120.799381 0 120 255
90.781878 -229.024373 -121.499762 0 120 255
88.410352 -228.940609 -122.200144 0 120 255
86.091647 -228.859316 -123.051007 0 120 255
83.803499 -228.779451 -123.988923 0 120 255
81.515352 -228.699586 -124.926839 0 120 255
79.227204 -228.619721 -125.864755 0 120 255
77.000918 -228.542591 -126.934662 0 120 255
74.817380 -228.467352 -128.095776 0 120 255
72.633841 -228.392113 -129.256890 0 120 255
70.450303 -228.316873 -130.418004 0 120 255
68.334733 -228.244529 -131.693277 0 120 255
66.274946 -228.174560 -133.062243 0 120 255
64.215159 -228.104590 -134.431209 0 120 255
62.155372 -228.034621 -135.800174 0 120 255
60.167074 -227.967616 -137.266363 0 120 255
58.248251 -227.903492 -138.827033 0 120 255
56.329428 -227.839367 -140.387704 0 120 255
54.410606 -227.775243 -141.948375 0 120 255
52.564520 -227.714072 -143.590388 0 120 255
50.802089 -227.656300 -145.325953 0 120 255
49.039658 -227.598527 -147.061518 0 120 255
47.277228 -227.540754 -148.797083 0 120 255
45.586786 -227.485848 -150.599289 0 120 255
43.994514 -227.434849 -152.492369 0 120 255
42.402241 -227.383851 -154.385450 0 120 255
40.809968 -227.332852 -156.278530 0 120 255
39.287180 -227.284586 -158.224814 0 120 255
37.877228 -227.240757 -160.257497 0 120 255
36.467277 -227.196927 -162.290181 0 120 255
35.057325 -227.153098 -164.322864 0 120 255
33.712805 -227.111807 -166.396653 0 120 255
32.495767 -227.075461 -168.550530 0 120 255
31.278729 -227.039115 -170.704406 0 120 255
30.061692 -227.002769 -172.858283 0 120 255
28.904684 -226.968723 -175.042578 0 120 255
27.889578 -226.940115 -177.298775 0 120 255
26.874472 -226.911507 -179.554973 0 120 255
25.859366 -226.882899 -181.811170 0 120 255
24.897740 -226.856316 -184.088580 0 120 255
24.092010 -226.835635 -186.427823 0 120 255
23.286280 -226.814953 -188.767066 0 120 255
22.480549 -226.794272 -191.106308 0 120 255
21.720757 -226.775317 -193.459091 0 120 255
21.130078 -226.762714 -195.861720 0 120 255
20.539400 -226.750112 -198.264349 0 120 255
19.948721 -226.737510 -200.666978 0 120 255
19.395653 -226.726305 -203.077078 0 120 255
19.023853 -226.721836 -205.523183 0 120 255
18.652053 -226.717367 -207.969288 0 120 255
18.280253 -226.712898 -210.415394 0 120 255
17.937180 -226.709485 -212.864554 0 120 255
17.786204 -226.713135 -215.334145 0 120 255
17.635229 -226.716785 -217.803736 0 120 255
17.484253 -226.720435 -220.273327 0 120 255
17.352789 -226.724795 -222.743236 0 120 255
17.422621 -226.736479 -225.216427 0 120 255
17.492453 -226.748162 -227.689618 0 120 255
17.562285 -226.759846 -230.162808 0 120 255
17.642325 -226.771898 -232.635255 0 120 255
17.930901 -226.791482 -235.092494 0 120 255
18.219477 -226.811066 -237.549734 0 120 255
18.508054 -226.830650 -240.006974 0 120 255
18.797697 -226.850272 -242.464040 0 120 255
19.300926 -226.877541 -244.886374 0 120 255
19.804156 -226.904810 -247.308708 0 120 255
20.307385 -226.932078 -249.731042 0 120 255
20.810614 -226.959347 -252.153376 0 120 255
21.514727 -226.993760 -254.524681 0 120 255
22.226497 -227.028446 -256.894041 0 120 255
22.938267 -227.063132 -259.263401 0 120 255
23.650038 -227.097817 -261.632761 0 120 255
24.546666 -227.138983 -263.937709 0 120 255
25.459024 -227.180700 -266.237176 0 120 255
26.371382 -227.222417 -268.536643 0 120 255
27.283739 -227.264134 -270.836110 0 120 255
28.364077 -227.311683 -273.060445 0 120 255
29.467348 -227.360028 -275.274524 0 120 255
30.570618 -227.408373 -277.488602 0 120 255
31.673888 -227.456719 -279.702681 0 120 255
32.927886 -227.510248 -281.833545 0 120 255
34.210984 -227.564777 -283.948343 0 120 255
35.494082 -227.619306 -286.063142 0 120 255
36.777180 -227.673836 -288.177940 0 120 255
38.193719 -227.732898 -290.204032 0 120 255
39.644361 -227.793119 -292.207454 0 120 255
41.095003 -227.853340 -294.210875 0 120 255
42.545645 -227.913561 -296.214296 0 120 255
44.112792 -227.977684 -298.125963 0 120 255
45.717810 -228.043075 -300.007804 0 120 255
47.322829 -228.108466 -301.889646 0 120 255
48.927847 -228.173857 -303.771487 0 120 255
50.633083 -228.242557 -305.560799 0 120 255
52.378678 -228.312588 -307.312849 0 120 255
54.124274 -228.382620 -309.064899 0 120 255
55.869869 -228.452651 -310.816949 0 120 255
57.700346 -228.525496 -312.477706 0 120 255
59.572422 -228.599720 -314.093722 0 120 255
61.444498 -228.673944 -315.709738 0 120 255
63.316574 -228.748168 -317.325754 0 120 255
65.259361 -228.824840 -318.853446 0 120 255
67.243806 -228.902955 -320.329102 0 120 255
69.228251 -228.981069 -321.804759 0 120 255
71.212696 -229.059184 -323.280416 0 120 255
73.254954 -229.139286 -324.672236 0 120 255
75.337819 -229.220786 -326.005172 0 120 255
77.420685 -229.302285 -327.338107 0 120 255
79.503550 -229.383784 -328.671042 0 120 255
81.632554 -229.465821 -329.926225 0 120 255
83.800001 -229.548305 -331.116628 0 120 255
85.967447 -229.630789 -332.307030 0 120 255
88.134894 -229.713273 -333.497433 0 120 255
90.337663 -229.790452 -334.618855 0 120 255
92.575257 -229.862400 -335.672271 0 120 255
94.812850 -229.934348 -336.725687 0 120 255
97.050443 -230.006296 -337.779103 0 120 255
99.314385 -230.068207 -338.772746 0 120 255
101.609062 -230.118410 -339.696663 0 120 255
103.903739 -230.168613 -340.620580 0 120 255
106.198416 -230.218817 -341.544497 0 120 255
108.512210 -230.256241 -342.417620 0 120 255
110.852449 -230.275989 -343.220476 0 120 255
113.192688 -230.295737 -344.023331 0 120 255
115.532928 -230.315484 -344.826186 0 120 255
117.886542 -230.321263 -345.586842 0 120 255
120.262211 -230.304012 -346.277921 0 120 255
122.637879 -230.286761 -346.968999 0 120 255
125.013547 -230.269510 -347.660078 0 120 255
127.398152 -230.238382 -348.316979 0 120 255
129.800462 -230.179765 -348.906182 0 120 255
132.202771 -230.121148 -349.495385 0 120 255
134.605080 -230.062532 -350.084588 0 120 255
137.013019 -229.991149 -350.646918 0 120 255
139.434515 -229.889024 -351.144527 0 120 255
141.856010 -229.786899 -351.642137 0 120 255
144.277506 -229.684774 -352.139747 0 120 255
146.702284 -229.571743 -352.616963 0 120 255
149.136842 -229.426219 -353.033421 0 120 255
151.571400 -229.280695 -353.449878 0 120 255
154.005958 -229.135172 -353.866335 0 120 255
156.442240 -228.981058 -354.268016 0 120 255
158.885042 -228.794465 -354.613828 0 120 255
161.327845 -228.607872 -354.959641 0 120 255
163.770647 -228.421279 -355.305453 0 120 255
166.214221 -228.228825 -355.641527 0 120 255
168.661646 -228.007137 -355.929022 0 120 255
171.109070 -227.785449 -356.216518 0 120 255
173.556495 -227.563762 -356.504014 0 120 255
176.003890 -227.340855 -356.790793 0 120 255
178.451078 -227.109420 -357.072562 0 120 255
180.898266 -226.877985 -357.354331 0 120 255
183.345454 -226.646550 -357.636100 0 120 255
185.792642 -226.415114 -357.917870 0 120 255
188.239828 -226.183667 -358.199652 0 120 255
190.687014 -225.952221 -358.481433 0 120 255
193.134200 -225.720775 -358.763214 0 120 255
195.581385 -225.489329 -359.044995 0 120 255
198.028572 -225.257887 -359.326769 0 120 255
200.475759 -225.026445 -359.608543 0 120 255
202.922946 -224.795002 -359.890317 0 120 255
205.370133 -224.563560 -360.172091 0 120 255
