ply
format ascii 1.0
element vertex 385
property float x
property float y
property float z
property uchar red
property uchar green
property uchar blue
end_header
77.430455 -42.474882 -360.397637 0 120 255
77.187536 -42.528715 -357.935760 0 120 255
76.944616 -42.582548 -355.473884 0 120 255
76.701696 -42.636382 -353.012007 0 120 255
76.458776 -42.690215 -350.550131 0 120 255
76.225085 -42.756019 -348.087654 0 120 255
75.991791 -42.822339 -345.625151 0 120 255
75.758498 -42.888659 -343.162648 0 120 255
75.525204 -42.954979 -340.700146 0 120 255
75.303846 -43.037153 -338.237026 0 120 255
75.083586 -43.120786 -335.773851 0 120 255
74.863327 -43.204418 -333.310675 0 120 255
74.643067 -43.288050 -330.847499 0 120 255
74.418275 -43.372010 -328.384744 0 120 255
74.192812 -43.456018 -325.922052 0 120 255
73.967349 -43.540026 -323.459360 0 120 255
73.741886 -43.624034 -320.996668 0 120 255
73.504925 -43.705652 -318.534981 0 120 255
73.265551 -43.786770 -316.073505 0 120 255
73.026177 -43.867887 -313.612029 0 120 255
72.786803 -43.949004 -311.150553 0 120 255
72.529694 -44.025991 -308.690752 0 120 255
72.267644 -44.101828 -306.231418 0 120 255
72.005593 -44.177664 -303.772085 0 120 255
71.743543 -44.253501 -301.312751 0 120 255
71.458300 -44.324310 -298.855890 0 120 255
71.164814 -44.393332 -296.399909 0 120 255
70.871328 -44.462354 -293.943927 0 120 255
70.577841 -44.531376 -291.487945 0 120 255
70.256543 -44.595184 -289.035379 0 120 255
69.922958 -44.656688 -286.584322 0 120 255
69.589373 -44.718192 -284.133265 0 120 255
69.255788 -44.779696 -281.682207 0 120 255
68.890635 -44.836380 -279.235652 0 120 255
68.508448 -44.890463 -276.791526 0 120 255
68.126262 -44.944546 -274.347400 0 120 255
67.744075 -44.998629 -271.903274 0 120 255
67.327454 -45.048739 -269.464861 0 120 255
66.888405 -45.096262 -267.030170 0 120 255
66.449357 -45.143785 -264.595478 0 120 255
66.010309 -45.191308 -262.160787 0 120 255
65.534864 -45.236034 -259.733109 0 120 255
65.031033 -45.278579 -257.310902 0 120 255
64.527202 -45.321123 -254.888695 0 120 255
64.023371 -45.363668 -252.466487 0 120 255
63.482067 -45.404804 -250.052638 0 120 255
62.905926 -45.444630 -247.646558 0 120 255
62.329786 -45.484457 -245.240478 0 120 255
61.753645 -45.524283 -242.834399 0 120 255
61.139832 -45.564192 -240.438003 0 120 255
60.484345 -45.604192 -238.052321 0 120 255
59.828858 -45.644193 -235.666638 0 120 255
59.173371 -45.684193 -233.280956 0 120 255
58.480861 -45.725761 -230.906197 0 120 255
57.739574 -45.769395 -228.545830 0 120 255
56.998286 -45.813029 -226.185463 0 120 255
56.256999 -45.856663 -223.825096 0 120 255
55.480135 -45.903255 -221.476730 0 120 255
54.647245 -45.954503 -219.147264 0 120 255
53.814355 -46.005752 -216.817798 0 120 255
52.981465 -46.057000 -214.488332 0 120 255
52.115188 -46.112412 -212.171700 0 120 255
51.185653 -46.175711 -209.879387 0 120 255
50.256118 -46.239009 -207.587073 0 120 255
49.326583 -46.302308 -205.294759 0 120 255
48.366518 -46.370713 -203.015785 0 120 255
47.336131 -46.450881 -200.767537 0 120 255
46.305744 -46.531049 -198.519289 0 120 255
45.275357 -46.611217 -196.271041 0 120 255
44.217876 -46.697111 -194.036224 0 120 255
43.083353 -46.799288 -191.839599 0 120 255
41.948829 -46.901465 -189.642975 0 120 255
40.814305 -47.003641 -187.446350 0 120 255
39.656603 -47.111784 -185.262750 0 120 255
38.415683 -47.241344 -183.125912 0 120 255
37.174763 -47.370905 -180.989074 0 120 255
35.933844 -47.500466 -178.852236 0 120 255
34.674021 -47.635811 -176.727440 0 120 255
33.325536 -47.798290 -174.659124 0 120 255
31.977050 -47.960769 -172.590808 0 120 255
30.628565 -48.123248 -170.522491 0 120 255
29.265686 -48.290884 -168.464583 0 120 255
27.809650 -48.491893 -166.474031 0 120 255
26.353614 -48.692903 -164.483478 0 120 255
24.897578 -48.893912 -162.492926 0 120 255
23.431746 -49.098989 -160.510434 0 120 255
21.869435 -49.344122 -158.607321 0 120 255
20.307124 -49.589256 -156.704208 0 120 255
18.744813 -49.834389 -154.801096 0 120 255
17.177240 -50.082040 -152.902929 0 120 255
15.511254 -50.376782 -151.097282 0 120 255
13.845268 -50.671523 -149.291635 0 120 255
12.179282 -50.966265 -147.485988 0 120 255
10.512341 -51.261532 -145.681372 0 120 255
8.746679 -51.611160 -143.983449 0 120 255
6.981017 -51.960788 -142.285527 0 120 255
5.215355 -52.310416 -140.587604 0 120 255
3.449693 -52.660043 -138.889681 0 120 255
1.592733 -53.067650 -137.306172 0 120 255
-0.267181 -53.477133 -135.726367 0 120 255
-2.127095 -53.886615 -134.146561 0 120 255
-3.987010 -54.296098 -132.566755 0 120 255
-5.927979 -54.765358 -131.106177 0 120 255
-7.875237 -55.239257 -129.654851 0 120 255
-9.822496 -55.713155 -128.203525 0 120 255
-11.769755 -56.187054 -126.752199 0 120 255
-13.787097 -56.721716 -125.423965 0 120 255
-15.813314 -57.264074 -124.111322 0 120 255
-17.839532 -57.806433 -122.798679 0 120 255
-19.865750 -58.348791 -121.486036 0 120 255
-21.950522 -58.952076 -120.299283 0 120 255
-24.045834 -59.566328 -119.135194 0 120 255
-26.141147 -60.180581 -117.971106 0 120 255
-28.236460 -60.794834 -116.807017 0 120 255
-30.378434 -61.469344 -115.770451 0 120 255
-32.531527 -62.158213 -114.764275 0 120 255
-34.684621 -62.847083 -113.758100 0 120 255
-36.837715 -63.535953 -112.751924 0 120 255
-39.025427 -64.283595 -111.873665 0 120 255
-41.223602 -65.048999 -111.034065 0 120 255
-43.421777 -65.814403 -110.194466 0 120 255
-45.619952 -66.579807 -109.354866 0 120 255
-47.840774 -67.401716 -108.642290 0 120 255
-50.070036 -68.244679 -107.977045 0 120 255
-52.299297 -69.087643 -107.311800 0 120 255
-54.528558 -69.930606 -106.646555 0 120 255
-56.768790 -70.827089 -106.106129 0 120 255
-59.013964 -71.747685 -105.621939 0 120 255
-61.259138 -72.668280 -105.137750 0 120 255
-63.504313 -73.588876 -104.653560 0 120 255
-65.749307 -74.559349 -104.290676 0 120 255
-67.994204 -75.556622 -103.992973 0 120 255
-70.239101 -76.553895 -103.695269 0 120 255
-72.483998 -77.551168 -103.397566 0 120 255
-74.718309 -78.594126 -103.216389 0 120 255
-76.945902 -79.666076 -103.109159 0 120 255
-79.173494 -80.738027 -103.001929 0 120 255
-81.401086 -81.809977 -102.894699 0 120 255
-83.608650 -82.922965 -102.898031 0 120 255
-85.801305 -84.066502 -102.983665 0 120 255
-87.993960 -85.210039 -103.069299 0 120 255
-90.186614 -86.353575 -103.154933 0 120 255
-92.350952 -87.533180 -103.344077 0 120 255
-94.490670 -88.744144 -103.623216 0 120 255
-96.630387 -89.955108 -103.902356 0 120 255
-98.770105 -91.166072 -104.181495 0 120 255
-100.874541 -92.407944 -104.556159 0 120 255
-102.943227 -93.681134 -105.027611 0 120 255
-105.011914 -94.954323 -105.499064 0 120 255
-107.080601 -96.227513 -105.970516 0 120 255
-109.108506 -97.526397 -106.528741 0 120 255
-111.088270 -98.855613 -107.189394 0 120 255
-113.068035 -100.184828 -107.850047 0 120 255
-115.047799 -101.514043 -108.510701 0 120 255
-116.982842 -102.863837 -109.248812 0 120 255
-118.856283 -104.241976 -110.093618 0 120 255
-120.729724 -105.620115 -110.938423 0 120 255
-122.603165 -106.998253 -111.783229 0 120 255
-124.429566 -108.392088 -112.695833 0 120 255
-126.180080 -109.811243 -113.717811 0 120 255
-127.930595 -111.230399 -114.739790 0 120 255
-129.681110 -112.649554 -115.761768 0 120 255
-131.383899 -114.079889 -116.841781 0 120 255
-132.995969 -115.531475 -118.032105 0 120 255
-134.608039 -116.983061 -119.222430 0 120 255
-136.220109 -118.434647 -120.412754 0 120 255
-137.785364 -119.893389 -121.651476 0 120 255
-139.244826 -121.368302 -122.999565 0 120 255
-140.704288 -122.843216 -124.347654 0 120 255
-142.163750 -124.318129 -125.695744 0 120 255
-143.578826 -125.796764 -127.082963 0 120 255
-144.873123 -127.285529 -128.576657 0 120 255
-146.167420 -128.774293 -130.070350 0 120 255
-147.461717 -130.263057 -131.564044 0 120 255
-148.715441 -131.752792 -133.088190 0 120 255
-149.833806 -133.245766 -134.713930 0 120 255
-150.952171 -134.738740 -136.339670 0 120 255
-152.070536 -136.231715 -137.965411 0 120 255
-153.153364 -137.723640 -139.613725 0 120 255
-154.086999 -139.211162 -141.356811 0 120 255
-155.020635 -140.698684 -143.099896 0 120 255
-155.954270 -142.186206 -144.842981 0 120 255
-156.858430 -143.671428 -146.601732 0 120 255
-157.600617 -145.144011 -148.446563 0 120 255
-158.342804 -146.616593 -150.291395 0 120 255
-159.084992 -148.089176 -152.136226 0 120 255
-159.804562 -149.558981 -153.990924 0 120 255
-160.350683 -151.007486 -155.921295 0 120 255
-160.896804 -152.455991 -157.851665 0 120 255
-161.442926 -153.904496 -159.782035 0 120 255
-161.973855 -155.350496 -161.717686 0 120 255
-162.321456 -156.766275 -163.717058 0 120 255
-162.669057 -158.182053 -165.716430 0 120 255
-163.016658 -159.597831 -167.715802 0 120 255
-163.356807 -161.012084 -169.717138 0 120 255
-163.505476 -162.387140 -171.768933 0 120 255
-163.654146 -163.762196 -173.820728 0 120 255
-163.802815 -165.137251 -175.872524 0 120 255
-163.951484 -166.512307 -177.924319 0 120 255
-163.903186 -167.839479 -180.012127 0 120 255
-163.854516 -169.166561 -182.100004 0 120 255
-163.805847 -170.493643 -184.187880 0 120 255
-163.757177 -171.820725 -186.275757 0 120 255
-163.522621 -173.095708 -188.383010 0 120 255
-163.280014 -174.368434 -190.491103 0 120 255
-163.037408 -175.641160 -192.599195 0 120 255
-162.794802 -176.913887 -194.707288 0 120 255
-162.378719 -178.131648 -196.820044 0 120 255
-161.947258 -179.344535 -198.933214 0 120 255
-161.515796 -180.557423 -201.046384 0 120 255
-161.084334 -181.770311 -203.159555 0 120 255
-160.492718 -182.926689 -205.264672 0 120 255
-159.878918 -184.075240 -207.368674 0 120 255
-159.265118 -185.223792 -209.472676 0 120 255
-158.651318 -186.372343 -211.576678 0 120 255
-157.891253 -187.464025 -213.661969 0 120 255
-157.102870 -188.544697 -215.743637 0 120 255
-156.314488 -189.625370 -217.825306 0 120 255
-155.526106 -190.706043 -219.906974 0 120 255
-154.605569 -191.730587 -221.961292 0 120 255
-153.651363 -192.740831 -224.008642 0 120 255
-152.697156 -193.751075 -226.055992 0 120 255
-151.742950 -194.761319 -228.103342 0 120 255
-150.670627 -195.717123 -230.116664 0 120 255
-149.560139 -196.655337 -232.118991 0 120 255
-148.449650 -197.593551 -234.121318 0 120 255
-147.339161 -198.531765 -236.123645 0 120 255
-146.124229 -199.418026 -238.087106 0 120 255
-144.867527 -200.283509 -240.035023 0 120 255
-143.610824 -201.148993 -241.982941 0 120 255
-142.354122 -202.014476 -243.930858 0 120 255
-141.006082 -202.831140 -245.836772 0 120 255
-139.613572 -203.624036 -247.722237 0 120 255
-138.221063 -204.416932 -249.607702 0 120 255
-136.828554 -205.209828 -251.493167 0 120 255
-135.357065 -205.957558 -253.335014 0 120 255
-133.839294 -206.678820 -255.151300 0 120 255
-132.321523 -207.400081 -256.967586 0 120 255
-130.803751 -208.121343 -258.783872 0 120 255
-129.218490 -208.801435 -260.556284 0 120 255
-127.585977 -209.452704 -262.297977 0 120 255
-125.953465 -210.103972 -264.039670 0 120 255
-124.320952 -210.755241 -265.781364 0 120 255
-122.631459 -211.369570 -267.480063 0 120 255
-120.894511 -211.953134 -269.142954 0 120 255
-119.157562 -212.536697 -270.805845 0 120 255
-117.420614 -213.120261 -272.468736 0 120 255
-115.636191 -213.671214 -274.090487 0 120 255
-113.804819 -214.189916 -275.671553 0 120 255
-111.973447 -214.708619 -277.252618 0 120 255
-110.142075 -215.227321 -278.833684 0 120 255
-108.271695 -215.717737 -280.376228 0 120 255
-106.355471 -216.174909 -281.873500 0 120 255
-104.439246 -216.632080 -283.370771 0 120 255
-102.523021 -217.089252 -284.868042 0 120 255
-100.575243 -217.522361 -286.330016 0 120 255
-98.583245 -217.921747 -287.742524 0 120 255
-96.591247 -218.321133 -289.155032 0 120 255
-94.599248 -218.720519 -290.567539 0 120 255
-92.582162 -219.099882 -291.948399 0 120 255
-90.522889 -219.445576 -293.276041 0 120 255
-88.463616 -219.791270 -294.603684 0 120 255
-86.404343 -220.136964 -295.931326 0 120 255
-84.325525 -220.466421 -297.231263 0 120 255
-82.206888 -220.762799 -298.474759 0 120 255
-80.088251 -221.059177 -299.718255 0 120 255
-77.969615 -221.355556 -300.961751 0 120 255
-75.836111 -221.639173 -302.181633 0 120 255
-73.665386 -221.890837 -303.342391 0 120 255
-71.494660 -222.142501 -304.503149 0 120 255
-69.323934 -222.394165 -305.663906 0 120 255
-67.142238 -222.636191 -306.805182 0 120 255
-64.926072 -222.847932 -307.885235 0 120 255
-62.709905 -223.059673 -308.965288 0 120 255
-60.493738 -223.271414 -310.045342 0 120 255
-58.269794 -223.476252 -311.109978 0 120 255
-56.014198 -223.652999 -312.111872 0 120 255
-53.758603 -223.829747 -313.113766 0 120 255
-51.503007 -224.006494 -314.115660 0 120 255
-49.242206 -224.178661 -315.106055 0 120 255
-46.952586 -224.325467 -316.032789 0 120 255
-44.662967 -224.472272 -316.959523 0 120 255
-42.373348 -224.619078 -317.886257 0 120 255
-40.080558 -224.763189 -318.805197 0 120 255
-37.761747 -224.885178 -319.660170 0 120 255
-35.442937 -225.007168 -320.515144 0 120 255
-33.124126 -225.129157 -321.370117 0 120 255
-30.803719 -225.249951 -322.220721 0 120 255
-28.460019 -225.353301 -323.007570 0 120 255
-26.116319 -225.456651 -323.794420 0 120 255
-23.772619 -225.560001 -324.581270 0 120 255
-21.428516 -225.663169 -325.366890 0 120 255
-19.064234 -225.757221 -326.090816 0 120 255
-16.699952 -225.851274 -326.814741 0 120 255
-14.335670 -225.945326 -327.538666 0 120 255
-11.971387 -226.039378 -328.262591 0 120 255
-9.589978 -226.131229 -328.928248 0 120 255
-7.208125 -226.223023 -329.592397 0 120 255
-4.826272 -226.314817 -330.256546 0 120 255
-2.444419 -226.406611 -330.920695 0 120 255
-0.048317 -226.496505 -331.531540 0 120 255
2.348858 -226.586255 -332.138366 0 120 255
4.746034 -226.676006 -332.745193 0 120 255
7.143209 -226.765756 -333.352020 0 120 255
9.551403 -226.854285 -333.913468 0 120 255
11.961031 -226.942655 -334.469010 0 120 255
14.370659 -227.031025 -335.024553 0 120 255
16.780287 -227.119395 -335.580096 0 120 255
19.198530 -227.207866 -336.096538 0 120 255
21.618417 -227.296355 -336.605520 0 120 255
24.038303 -227.384845 -337.114502 0 120 255
26.458190 -227.473335 -337.623485 0 120 255
28.884862 -227.562075 -338.098694 0 120 255
31.313287 -227.650880 -338.565178 0 120 255
33.741713 -227.739686 -339.031662 0 120 255
36.170138 -227.828491 -339.498146 0 120 255
38.603809 -227.917365 -339.936109 0 120 255
41.039231 -228.006262 -340.364548 0 120 255
43.474653 -228.095158 -340.792988 0 120 255
45.910075 -228.184055 -341.221427 0 120 255
48.349508 -228.272688 -341.626169 0 120 255
50.790620 -228.361210 -342.020984 0 120 255
53.231732 -228.449732 -342.415800 0 120 255
55.672844 -228.538254 -342.810615 0 120 255
58.117098 -228.625880 -343.185419 0 120 255
60.562971 -228.713044 -343.549907 0 120 255
63.008844 -228.800208 -343.914394 0 120 255
65.454717 -228.887372 -344.278881 0 120 255
67.903104 -228.971120 -344.626655 0 120 255
70.353066 -229.052725 -344.963952 0 120 255
72.803028 -229.134330 -345.301250 0 120 255
75.252991 -229.215936 -345.638547 0 120 255
77.704919 -229.290751 -345.962619 0 120 255
80.158334 -229.360434 -346.276693 0 120 255
82.611750 -229.430117 -346.590767 0 120 255
85.065165 -229.499799 -346.904841 0 120 255
87.520058 -229.560700 -347.208761 0 120 255
89.976292 -229.613637 -347.503473 0 120 255
92.432527 -229.666573 -347.798185 0 120 255
94.888761 -229.719510 -348.092896 0 120 255
97.346041 -229.762780 -348.380092 0 120 255
99.804457 -229.795555 -348.659128 0 120 255
102.262873 -229.828329 -348.938164 0 120 255
104.721289 -229.861104 -349.217199 0 120 255
107.180371 -229.883657 -349.491025 0 120 255
109.640319 -229.892908 -349.758069 0 120 255
112.100267 -229.902158 -350.025114 0 120 255
114.560216 -229.911409 -350.292158 0 120 255
117.020496 -229.910207 -350.555926 0 120 255
119.481298 -229.892633 -350.814560 0 120 255
121.942099 -229.875059 -351.073195 0 120 255
124.402900 -229.857485 -351.331830 0 120 255
126.863740 -229.829539 -351.588778 0 120 255
129.324652 -229.781892 -351.842521 0 120 255
131.785564 -229.734245 -352.096265 0 120 255
134.246476 -229.686598 -352.350009 0 120 255
136.707170 -229.628969 -352.603332 0 120 255
139.167358 -229.548067 -352.855672 0 120 255
141.627546 -229.467165 -353.108012 0 120 255
144.087733 -229.386263 -353.360352 0 120 255
146.547493 -229.296061 -353.613212 0 120 255
149.006004 -229.178769 -353.867587 0 120 255
151.464516 -229.061477 -354.121961 0 120 255
153.923028 -228.944185 -354.376336 0 120 255
156.380956 -228.818567 -354.631852 0 120 255
158.836701 -228.661817 -354.891636 0 120 255
161.292447 -228.505068 -355.151420 0 120 255
163.748192 -228.348318 -355.411204 0 120 255
166.202927 -228.182741 -355.674187 0 120 255
168.652604 -227.973003 -355.953179 0 120 255
171.102281 -227.763265 -356.232171 0 120 255
173.551958 -227.553527 -356.511162 0 120 255
176.001353 -227.341095 -356.790501 0 120 255
178.448752 -227.109640 -357.072295 0 120 255
180.896152 -226.878185 -357.354088 0 120 255
183.343551 -226.646730 -357.635881 0 120 255
185.790951 -226.415274 -357.917675 0 120 255
188.238348 -226.183807 -358.199481 0 120 255
190.685745 -225.952341 -358.481287 0 120 255
193.133142 -225.720875 -358.763093 0 120 255
195.580540 -225.489409 -359.044898 0 120 255
198.027938 -225.257947 -359.326696 0 120 255
200.475336 -225.026485 -359.608494 0 120 255
202.922735 -224.795022 -359.890293 0 120 255
205.370133 -224.563560 -360.172091 0 120 255
