ply
format ascii 1.0
element vertex 385
property float x
property float y
property float z
property uchar red
property uchar green
property uchar blue
end_header
77.430455 -42.474882 -360.397637 0 120 255
77.187214 -42.528786 -357.932499 0 120 255
76.943972 -42.582691 -355.467361 0 120 255
76.700731 -42.636595 -353.002224 0 120 255
76.457489 -42.690500 -350.537086 0 120 255
76.249071 -42.811837 -348.071199 0 120 255
76.041953 -42.935693 -345.605284 0 120 255
75.834836 -43.059549 -343.139369 0 120 255
75.627718 -43.183405 -340.673454 0 120 255
75.521221 -43.223068 -338.198666 0 120 255
75.423361 -43.255505 -335.723116 0 120 255
75.325501 -43.287942 -333.247566 0 120 255
75.227641 -43.320378 -330.772016 0 120 255
75.192516 -43.207460 -328.297881 0 120 255
75.166517 -43.073396 -325.823952 0 120 255
75.140518 -42.939332 -323.350023 0 120 255
75.114519 -42.805268 -320.876093 0 120 255
75.146366 -42.528168 -318.415169 0 120 255
75.190345 -42.221069 -315.956972 0 120 255
75.234324 -41.913969 -313.498775 0 120 255
75.278303 -41.606870 -311.040579 0 120 255
75.374168 -41.159915 -308.606724 0 120 255
75.484499 -40.673968 -306.179657 0 120 255
75.594829 -40.188020 -303.752589 0 120 255
75.705160 -39.702073 -301.325521 0 120 255
75.860531 -39.080325 -298.933743 0 120 255
76.031790 -38.410672 -296.554413 0 120 255
76.203049 -37.741019 -294.175083 0 120 255
76.374308 -37.071367 -291.795753 0 120 255
76.583045 -36.270868 -289.462149 0 120 255
76.807956 -35.413904 -287.148277 0 120 255
77.032866 -34.556940 -284.834404 0 120 255
77.257777 -33.699976 -282.520532 0 120 255
77.512065 -32.718021 -280.262215 0 120 255
77.781483 -31.671697 -278.032507 0 120 255
78.050900 -30.625374 -275.802800 0 120 255
78.320318 -29.579051 -273.573092 0 120 255
78.610634 -28.414494 -271.408077 0 120 255
78.913544 -27.178686 -269.282048 0 120 255
79.216454 -25.942877 -267.156019 0 120 255
79.519364 -24.707069 -265.029990 0 120 255
79.834470 -23.360691 -262.977026 0 120 255
80.158036 -21.937605 -260.974751 0 120 255
80.481602 -20.514520 -258.972475 0 120 255
80.805169 -19.091434 -256.970200 0 120 255
81.132163 -17.566314 -255.048552 0 120 255
81.461857 -15.960843 -253.190396 0 120 255
81.791551 -14.355373 -251.332240 0 120 255
82.121245 -12.749903 -249.474085 0 120 255
82.445642 -11.051796 -247.703251 0 120 255
82.765364 -9.271948 -246.009471 0 120 255
83.085087 -7.492099 -244.315690 0 120 255
83.404809 -5.712251 -242.621909 0 120 255
83.710684 -3.850001 -241.021237 0 120 255
84.003032 -1.907252 -239.511524 0 120 255
84.295379 0.035497 -238.001810 0 120 255
84.587727 1.978245 -236.492096 0 120 255
84.857958 3.992350 -235.080321 0 120 255
85.104543 6.082749 -233.773261 0 120 255
85.351127 8.173147 -232.466201 0 120 255
85.597712 10.263546 -231.159142 0 120 255
85.814280 12.413470 -229.953832 0 120 255
85.996106 14.632292 -228.866290 0 120 255
86.177933 16.851113 -227.778749 0 120 255
86.359760 19.069934 -226.691207 0 120 255
86.504157 21.335700 -225.708136 0 120 255
86.602148 23.659670 -224.854594 0 120 255
86.700140 25.983641 -224.001051 0 120 255
86.798131 28.307611 -223.147509 0 120 255
86.851878 30.665240 -222.399957 0 120 255
86.847437 33.067135 -221.791800 0 120 255
86.842996 35.469030 -221.183642 0 120 255
86.838555 37.870926 -220.575485 0 120 255
86.783782 40.292572 -220.073520 0 120 255
86.659417 42.741528 -219.718383 0 120 255
86.535052 45.190485 -219.363247 0 120 255
86.410687 47.639441 -219.008110 0 120 255
86.230795 50.093751 -218.757891 0 120 255
85.970807 52.555783 -218.659013 0 120 255
85.710819 55.017816 -218.560135 0 120 255
85.450830 57.479849 -218.461256 0 120 255
85.131182 59.932555 -218.464409 0 120 255
84.722303 62.371311 -218.620165 0 120 255
84.313424 64.810068 -218.775920 0 120 255
83.904545 67.248824 -218.931675 0 120 255
83.433137 69.663589 -219.184828 0 120 255
82.865168 72.041304 -219.588387 0 120 255
82.297200 74.419018 -219.991946 0 120 255
81.729232 76.796733 -220.395504 0 120 255
81.097313 79.136202 -220.890016 0 120 255
80.363631 81.414810 -221.529257 0 120 255
79.629949 83.693419 -222.168499 0 120 255
78.896267 85.972027 -222.807741 0 120 255
78.098817 88.199036 -223.529695 0 120 255
77.196755 90.341396 -224.387339 0 120 255
76.294692 92.483755 -225.244984 0 120 255
75.392630 94.626115 -226.102629 0 120 255
74.428677 96.704970 -227.033109 0 120 255
73.359727 98.676088 -228.087155 0 120 255
72.290777 100.647207 -229.141201 0 120 255
71.221828 102.618325 -230.195248 0 120 255
70.094557 104.516052 -231.310894 0 120 255
68.864368 106.284264 -232.535245 0 120 255
67.634179 108.052476 -233.759596 0 120 255
66.403990 109.820689 -234.983947 0 120 255
65.120628 111.508153 -236.257755 0 120 255
63.738822 113.046123 -237.623125 0 120 255
62.357016 114.584094 -238.988494 0 120 255
60.975209 116.122064 -240.353864 0 120 255
59.546707 117.574874 -241.756179 0 120 255
58.026472 118.860390 -243.231072 0 120 255
56.506237 120.145906 -244.705965 0 120 255
54.986002 121.431422 -246.180858 0 120 255
53.426529 122.630548 -247.680455 0 120 255
51.784101 123.647036 -249.232280 0 120 255
50.141673 124.663524 -250.784104 0 120 255
48.499246 125.680012 -252.335929 0 120 255
46.825568 126.612095 -253.901124 0 120 255
45.079566 127.348837 -255.497264 0 120 255
43.333563 128.085578 -257.093405 0 120 255
41.587561 128.822319 -258.689545 0 120 255
39.818343 129.479668 -260.289235 0 120 255
37.989091 129.931721 -261.898104 0 120 255
36.159839 130.383775 -263.506974 0 120 255
34.330587 130.835828 -265.115843 0 120 255
32.485696 131.216154 -266.720427 0 120 255
30.594487 131.384049 -268.312317 0 120 255
28.703278 131.551944 -269.904208 0 120 255
26.812069 131.719840 -271.496098 0 120 255
24.911887 131.825784 -273.078190 0 120 255
22.980313 131.714991 -274.626003 0 120 255
21.048739 131.604197 -276.173815 0 120 255
19.117165 131.493404 -277.721627 0 120 255
17.181999 131.331889 -279.256614 0 120 255
15.231374 130.952111 -280.736414 0 120 255
13.280750 130.572332 -282.216213 0 120 255
11.330125 130.192554 -283.696013 0 120 255
9.379721 129.774069 -285.162424 0 120 255
7.430553 129.138517 -286.553752 0 120 255
5.481385 128.502964 -287.945080 0 120 255
3.532217 127.867412 -289.336408 0 120 255
1.585354 127.205281 -290.716074 0 120 255
-0.343016 126.329846 -292.002145 0 120 255
-2.271386 125.454411 -293.288216 0 120 255
-4.199756 124.578977 -294.574287 0 120 255
-6.125529 123.688623 -295.852403 0 120 255
-8.015245 122.591126 -297.020071 0 120 255
-9.904961 121.493629 -298.187739 0 120 255
-11.794677 120.396132 -299.355407 0 120 255
-13.683254 119.294417 -300.520417 0 120 255
-15.518097 117.993899 -301.560117 0 120 255
-17.352940 116.693380 -302.599818 0 120 255
-19.187783 115.392862 -303.639518 0 120 255
-21.022627 114.092343 -304.679219 0 120 255
-22.790078 112.613568 -305.588488 0 120 255
-24.555577 111.129629 -306.493979 0 120 255
-26.321076 109.645689 -307.399469 0 120 255
-28.086575 108.161750 -308.304960 0 120 255
-29.776530 106.527008 -309.083944 0 120 255
-31.459980 104.879279 -309.852034 0 120 255
-33.143430 103.231551 -310.620123 0 120 255
-34.826880 101.583822 -311.388212 0 120 255
-36.429602 99.810660 -312.036733 0 120 255
-38.020011 98.018366 -312.667017 0 120 255
-39.610421 96.226073 -313.297302 0 120 255
-41.200830 94.433780 -313.927586 0 120 255
-42.708000 92.538968 -314.447479 0 120 255
-44.196022 90.620574 -314.941977 0 120 255
-45.684043 88.702179 -315.436476 0 120 255
-47.172064 86.783784 -315.930974 0 120 255
-48.576679 84.783145 -316.325793 0 120 255
-49.954506 82.756093 -316.688598 0 120 255
-51.332333 80.729041 -317.051404 0 120 255
-52.710160 78.701989 -317.414209 0 120 255
-54.006409 76.610285 -317.689008 0 120 255
-55.267649 74.490836 -317.926039 0 120 255
-56.528888 72.371386 -318.163070 0 120 255
-57.790128 70.251936 -318.400101 0 120 255
-58.973293 68.082800 -318.561146 0 120 255
-60.112844 65.885909 -318.679744 0 120 255
-61.252396 63.689017 -318.798343 0 120 255
-62.391947 61.492126 -318.916942 0 120 255
-63.458283 59.258035 -318.971541 0 120 255
-64.472199 56.997311 -318.980319 0 120 255
-65.486116 54.736588 -318.989097 0 120 255
-66.500032 52.475864 -318.997875 0 120 255
-67.446675 50.188149 -318.954173 0 120 255
-68.332056 47.875855 -318.862682 0 120 255
-69.217437 45.563560 -318.771191 0 120 255
-70.102818 43.251266 -318.679700 0 120 255
-70.927689 40.920138 -318.546493 0 120 255
-71.682551 38.567219 -318.365021 0 120 255
-72.437413 36.214300 -318.183548 0 120 255
-73.192274 33.861381 -318.002075 0 120 255
-73.894000 31.495983 -317.788679 0 120 255
-74.517190 29.112140 -317.528101 0 120 255
-75.140380 26.728297 -317.267522 0 120 255
-75.763570 24.344453 -317.006943 0 120 255
-76.341404 21.952926 -316.723056 0 120 255
-76.832493 19.546700 -316.394593 0 120 255
-77.323581 17.140475 -316.066129 0 120 255
-77.814670 14.734250 -315.737666 0 120 255
-78.268426 12.323809 -315.393233 0 120 255
-78.627634 9.902691 -315.008354 0 120 255
-78.986841 7.481573 -314.623476 0 120 255
-79.346049 5.060454 -314.238598 0 120 255
-79.676047 2.637476 -313.843733 0 120 255
-79.904168 0.208012 -313.414038 0 120 255
-80.132290 -2.221453 -312.984343 0 120 255
-80.360411 -4.650917 -312.554648 0 120 255
-80.567421 -7.080806 -312.119542 0 120 255
-80.665761 -9.512878 -311.656585 0 120 255
-80.764101 -11.944951 -311.193628 0 120 255
-80.862441 -14.377023 -310.730671 0 120 255
-80.947634 -16.808845 -310.265475 0 120 255
-80.917936 -19.238475 -309.780721 0 120 255
-80.888238 -21.668106 -309.295966 0 120 255
-80.858540 -24.097737 -308.811211 0 120 255
-80.823443 -26.527071 -308.326005 0 120 255
-80.667871 -28.949770 -307.830725 0 120 255
-80.512299 -31.372469 -307.335444 0 120 255
-80.356727 -33.795168 -306.840164 0 120 255
-80.201155 -36.217867 -306.344884 0 120 255
-79.924255 -38.629750 -305.850039 0 120 255
-79.645305 -41.041450 -305.355202 0 120 255
-79.366354 -43.453150 -304.860365 0 120 255
-79.087404 -45.864850 -304.365527 0 120 255
-78.697030 -48.262914 -303.880934 0 120 255
-78.297512 -50.659859 -303.397182 0 120 255
-77.897994 -53.056804 -302.913430 0 120 255
-77.498477 -55.453749 -302.429677 0 120 255
-76.997297 -57.834830 -301.964332 0 120 255
-76.480293 -60.213442 -301.501852 0 120 255
-75.963288 -62.592054 -301.039372 0 120 255
-75.446284 -64.970665 -300.576892 0 120 255
-74.837149 -67.331659 -300.139417 0 120 255
-74.205955 -69.688433 -299.707929 0 120 255
-73.574762 -72.045208 -299.276440 0 120 255
-72.943569 -74.401983 -298.844952 0 120 255
-72.229491 -76.739759 -298.443522 0 120 255
-71.487607 -79.071160 -298.052177 0 120 255
-70.745722 -81.402561 -297.660831 0 120 255
-70.003837 -83.733962 -297.269486 0 120 255
-69.187960 -86.045292 -296.911795 0 120 255
-68.339026 -88.347655 -296.569139 0 120 255
-67.490092 -90.650017 -296.226483 0 120 255
-66.641158 -92.952380 -295.883827 0 120 255
-65.726735 -95.233871 -295.577013 0 120 255
-64.774521 -97.503319 -295.290881 0 120 255
-63.822308 -99.772767 -295.004749 0 120 255
-62.870095 -102.042215 -294.718617 0 120 255
-61.860459 -104.290254 -294.469226 0 120 255
-60.808818 -106.522632 -294.246712 0 120 255
-59.757177 -108.755011 -294.024198 0 120 255
-58.705536 -110.987389 -293.801684 0 120 255
-57.604080 -113.198097 -293.615630 0 120 255
-56.456920 -115.388921 -293.463029 0 120 255
-55.309759 -117.579746 -293.310427 0 120 255
-54.162599 -119.770570 -293.157825 0 120 255
-52.972755 -121.939764 -293.040314 0 120 255
-51.734015 -124.084181 -292.962998 0 120 255
-50.495276 -126.228597 -292.885682 0 120 255
-49.256536 -128.373014 -292.808366 0 120 255
-47.981750 -130.496187 -292.763846 0 120 255
-46.655364 -132.588953 -292.766274 0 120 255
-45.328978 -134.681719 -292.768702 0 120 255
-44.002592 -136.774485 -292.771129 0 120 255
-42.646305 -138.846798 -292.803238 0 120 255
-41.236186 -140.882289 -292.888784 0 120 255
-39.826068 -142.917780 -292.974330 0 120 255
-38.415949 -144.953271 -293.059876 0 120 255
-36.981584 -146.969557 -293.171346 0 120 255
-35.491595 -148.941786 -293.342286 0 120 255
-34.001607 -150.914016 -293.513227 0 120 255
-32.511618 -152.886245 -293.684167 0 120 255
-31.002557 -154.841034 -293.876804 0 120 255
-29.436507 -156.743709 -294.134272 0 120 255
-27.870457 -158.646384 -294.391740 0 120 255
-26.304407 -160.549060 -294.649208 0 120 255
-24.723990 -162.436623 -294.923835 0 120 255
-23.085602 -164.263208 -295.267702 0 120 255
-21.447213 -166.089793 -295.611569 0 120 255
-19.808824 -167.916379 -295.955437 0 120 255
-18.160326 -169.730785 -296.311808 0 120 255
-16.453235 -171.474606 -296.740646 0 120 255
-14.746144 -173.218428 -297.169485 0 120 255
-13.039053 -174.962249 -297.598323 0 120 255
-11.325680 -176.697446 -298.035088 0 120 255
-9.553427 -178.351808 -298.546146 0 120 255
-7.781174 -180.006170 -299.057204 0 120 255
-6.008920 -181.660532 -299.568262 0 120 255
-4.233806 -183.310443 -300.082939 0 120 255
-2.399820 -184.868769 -300.672084 0 120 255
-0.565833 -186.427095 -301.261228 0 120 255
1.268153 -187.985420 -301.850372 0 120 255
3.102139 -189.543746 -302.439516 0 120 255
4.994343 -191.000073 -303.101026 0 120 255
6.886723 -192.456090 -303.762756 0 120 255
8.779104 -193.912107 -304.424485 0 120 255
10.671484 -195.368124 -305.086214 0 120 255
12.616179 -196.721624 -305.810258 0 120 255
14.563729 -198.069530 -306.537701 0 120 255
16.511279 -199.417436 -307.265145 0 120 255
18.458829 -200.765342 -307.992589 0 120 255
20.453229 -202.011319 -308.771815 0 120 255
22.452825 -203.245989 -309.556786 0 120 255
24.452421 -204.480660 -310.341756 0 120 255
26.452018 -205.715331 -311.126726 0 120 255
28.493400 -206.849830 -311.952750 0 120 255
30.542005 -207.967016 -312.785871 0 120 255
32.590609 -209.084202 -313.618991 0 120 255
34.639214 -210.201388 -314.452112 0 120 255
36.724939 -211.221385 -315.315536 0 120 255
38.819620 -212.217932 -316.186272 0 120 255
40.914301 -213.214478 -317.057008 0 120 255
43.008982 -214.211024 -317.927745 0 120 255
45.136468 -215.114578 -318.818339 0 120 255
47.274367 -215.988613 -319.715237 0 120 255
49.412266 -216.862648 -320.612136 0 120 255
51.550165 -217.736683 -321.509034 0 120 255
53.716897 -218.523098 -322.415858 0 120 255
55.895245 -219.274218 -323.326680 0 120 255
58.073592 -220.025338 -324.237502 0 120 255
60.251939 -220.776458 -325.148324 0 120 255
62.455455 -221.446419 -326.059939 0 120 255
64.671539 -222.075850 -326.971949 0 120 255
66.887623 -222.705282 -327.883960 0 120 255
69.103707 -223.334713 -328.795970 0 120 255
71.341593 -223.890389 -329.700638 0 120 255
73.592775 -224.401089 -330.600828 0 120 255
75.843957 -224.911788 -331.501018 0 120 255
78.095138 -225.422487 -332.401209 0 120 255
80.365034 -225.867610 -333.287116 0 120 255
82.648734 -226.264366 -334.162490 0 120 255
84.932433 -226.661121 -335.037863 0 120 255
87.216132 -227.057877 -335.913236 0 120 255
89.515713 -227.397770 -336.768768 0 120 255
91.829387 -227.687201 -337.606692 0 120 255
94.143061 -227.976631 -338.444616 0 120 255
96.456735 -228.266062 -339.282540 0 120 255
98.783709 -228.507638 -340.096524 0 120 255
101.124862 -228.698190 -340.884982 0 120 255
103.466015 -228.888742 -341.673441 0 120 255
105.807168 -229.079294 -342.461900 0 120 255
108.159273 -229.230995 -343.223852 0 120 255
110.525438 -229.332822 -343.951775 0 120 255
112.891602 -229.434650 -344.679699 0 120 255
115.257766 -229.536478 -345.407623 0 120 255
117.632762 -229.608169 -346.107994 0 120 255
120.021486 -229.633006 -346.765530 0 120 255
122.410211 -229.657844 -347.423065 0 120 255
124.798936 -229.682681 -348.080600 0 120 255
127.194589 -229.685512 -348.710998 0 120 255
129.603421 -229.646477 -349.289769 0 120 255
132.012254 -229.607442 -349.868540 0 120 255
134.421087 -229.568407 -350.447311 0 120 255
136.835161 -229.514629 -351.000686 0 120 255
139.261635 -229.425974 -351.493982 0 120 255
141.688109 -229.337320 -351.987278 0 120 255
144.114583 -229.248665 -352.480573 0 120 255
146.544826 -229.151413 -352.951361 0 120 255
148.986433 -229.028243 -353.354302 0 120 255
151.428040 -228.905073 -353.757243 0 120 255
153.869646 -228.781903 -354.160183 0 120 255
156.313771 -228.654957 -354.544417 0 120 255
158.767941 -228.512948 -354.854026 0 120 255
161.222111 -228.370940 -355.163636 0 120 255
163.676281 -228.228931 -355.473246 0 120 255
166.131038 -228.080777 -355.774174 0 120 255
168.589091 -227.898102 -356.026325 0 120 255
171.047144 -227.715426 -356.278477 0 120 255
173.505197 -227.532750 -356.530629 0 120 255
175.962450 -227.344774 -356.786022 0 120 255
178.413091 -227.113013 -357.068189 0 120 255
180.863733 -226.881251 -357.350355 0 120 255
183.314374 -226.649489 -357.632522 0 120 255
185.765016 -226.417727 -357.914689 0 120 255
188.215655 -226.185954 -358.196868 0 120 255
190.666294 -225.954181 -358.479047 0 120 255
193.116933 -225.722408 -358.761226 0 120 255
195.567572 -225.490635 -359.043405 0 120 255
198.018212 -225.258867 -359.325576 0 120 255
200.468853 -225.027098 -359.607748 0 120 255
202.919493 -224.795329 -359.889919 0 120 255
205.370133 -224.563560 -360.172091 0 120 255
