ply
format ascii 1.0
element vertex 385
property float x
property float y
property float z
property uchar red
property uchar green
property uchar blue
end_header
77.430455 -42.474882 -360.397637 0 120 255
77.187536 -42.528715 -357.935765 0 120 255
76.944617 -42.582548 -355.473893 0 120 255
76.701697 -42.636381 -353.012021 0 120 255
76.458778 -42.690214 -350.550149 0 120 255
76.213460 -42.755727 -348.088799 0 120 255
75.968039 -42.821744 -345.627472 0 120 255
75.722617 -42.887761 -343.166145 0 120 255
75.477196 -42.953778 -340.704818 0 120 255
75.127319 -43.186424 -338.267076 0 120 255
74.767874 -43.434336 -335.831494 0 120 255
74.408429 -43.682247 -333.395911 0 120 255
74.048984 -43.930158 -330.960329 0 120 255
73.601066 -44.310553 -328.557528 0 120 255
73.139989 -44.710651 -326.159601 0 120 255
72.678913 -45.110750 -323.761675 0 120 255
72.217837 -45.510849 -321.363749 0 120 255
71.680053 -46.023150 -319.004337 0 120 255
71.125994 -46.559256 -316.653097 0 120 255
70.571936 -47.095362 -314.301857 0 120 255
70.017878 -47.631468 -311.950616 0 120 255
69.397246 -48.261741 -309.640628 0 120 255
68.757779 -48.918656 -307.342310 0 120 255
68.118313 -49.575571 -305.043992 0 120 255
67.478846 -50.232487 -302.745674 0 120 255
66.781429 -50.967760 -300.489210 0 120 255
66.063010 -51.731431 -298.247916 0 120 255
65.344591 -52.495101 -296.006621 0 120 255
64.626173 -53.258772 -293.765326 0 120 255
63.857095 -54.087095 -291.565028 0 120 255
63.065107 -54.944654 -289.383270 0 120 255
62.273120 -55.802213 -287.201512 0 120 255
61.481132 -56.659772 -285.019753 0 120 255
60.644626 -57.570213 -282.877190 0 120 255
59.783433 -58.509976 -280.756362 0 120 255
58.922241 -59.449739 -278.635533 0 120 255
58.061049 -60.389502 -276.514705 0 120 255
57.160511 -61.372115 -274.430709 0 120 255
56.233530 -62.383524 -272.371467 0 120 255
55.306549 -63.394933 -270.312224 0 120 255
54.379569 -64.406343 -268.252982 0 120 255
53.417637 -65.452109 -266.227916 0 120 255
52.427444 -66.525655 -264.230483 0 120 255
51.437252 -67.599201 -262.233049 0 120 255
50.447060 -68.672747 -260.235616 0 120 255
49.425685 -69.773507 -258.269598 0 120 255
48.374097 -70.900634 -256.334019 0 120 255
47.322508 -72.027762 -254.398441 0 120 255
46.270919 -73.154890 -252.462862 0 120 255
45.191443 -74.303258 -250.555947 0 120 255
44.079616 -75.476266 -248.682284 0 120 255
42.967789 -76.649274 -246.808621 0 120 255
41.855962 -77.822282 -244.934957 0 120 255
40.719196 -79.011570 -243.087282 0 120 255
39.547727 -80.223515 -241.275771 0 120 255
38.376258 -81.435459 -239.464261 0 120 255
37.204788 -82.647404 -237.652750 0 120 255
36.011093 -83.871544 -235.864652 0 120 255
34.780104 -85.116148 -234.115839 0 120 255
33.549115 -86.360752 -232.367025 0 120 255
32.318126 -87.605355 -230.618212 0 120 255
31.067480 -88.858824 -228.890329 0 120 255
29.776717 -90.130386 -227.205163 0 120 255
28.485954 -91.401949 -225.519998 0 120 255
27.195191 -92.673511 -223.834833 0 120 255
25.887274 -93.951259 -222.168180 0 120 255
24.536189 -95.244573 -220.548109 0 120 255
23.185104 -96.537887 -218.928038 0 120 255
21.834019 -97.831201 -217.307967 0 120 255
20.468276 -99.128587 -215.704003 0 120 255
19.056128 -100.438864 -214.151027 0 120 255
17.643980 -101.749141 -212.598052 0 120 255
16.231833 -103.059419 -211.045076 0 120 255
14.807558 -104.372149 -209.505755 0 120 255
13.333498 -105.694950 -208.022494 0 120 255
11.859438 -107.017751 -206.539233 0 120 255
10.385377 -108.340552 -205.055971 0 120 255
8.901789 -109.664623 -203.583789 0 120 255
7.364968 -110.995786 -202.173502 0 120 255
5.828148 -112.326949 -200.763215 0 120 255
4.291328 -113.658113 -199.352928 0 120 255
2.747653 -114.989754 -197.950945 0 120 255
1.147312 -116.325350 -196.617597 0 120 255
-0.453028 -117.660946 -195.284250 0 120 255
-2.053368 -118.996542 -193.950902 0 120 255
-3.657821 -120.332180 -192.622792 0 120 255
-5.322226 -121.668434 -191.371033 0 120 255
-6.986632 -123.004688 -190.119274 0 120 255
-8.651038 -124.340942 -188.867515 0 120 255
-10.316768 -125.677134 -187.617549 0 120 255
-12.045469 -127.010387 -186.452752 0 120 255
-13.774170 -128.343640 -185.287955 0 120 255
-15.502871 -129.676892 -184.123158 0 120 255
-17.231572 -131.010145 -182.958362 0 120 255
-19.022882 -132.336951 -181.884476 0 120 255
-20.815653 -133.663606 -180.812712 0 120 255
-22.608424 -134.990262 -179.740949 0 120 255
-24.401195 -136.316917 -178.669185 0 120 255
-26.253059 -137.634068 -177.690631 0 120 255
-28.109101 -138.950546 -176.718667 0 120 255
-29.965143 -140.267025 -175.746704 0 120 255
-31.821185 -141.583504 -174.774740 0 120 255
-33.732230 -142.887716 -173.898298 0 120 255
-35.650010 -144.190427 -173.033552 0 120 255
-37.567790 -145.493138 -172.168806 0 120 255
-39.485570 -146.795849 -171.304060 0 120 255
-41.453668 -148.083774 -170.537016 0 120 255
-43.430783 -149.369049 -169.787478 0 120 255
-45.407897 -150.654324 -169.037940 0 120 255
-47.385012 -151.939599 -168.288402 0 120 255
-49.407141 -153.207815 -167.638492 0 120 255
-51.440149 -154.471908 -167.012657 0 120 255
-53.473156 -155.736001 -166.386823 0 120 255
-55.506164 -157.000095 -165.760988 0 120 255
-57.578282 -158.245082 -165.236313 0 120 255
-59.662554 -159.484133 -164.743075 0 120 255
-61.746827 -160.723184 -164.249837 0 120 255
-63.831099 -161.962234 -163.756599 0 120 255
-65.948002 -163.180367 -163.365487 0 120 255
-68.077554 -164.390392 -163.013960 0 120 255
-70.207105 -165.600416 -162.662433 0 120 255
-72.336657 -166.810441 -162.310905 0 120 255
-74.491861 -167.997976 -162.061783 0 120 255
-76.659212 -169.174860 -161.861156 0 120 255
-78.826564 -170.351744 -161.660528 0 120 255
-80.993916 -171.528628 -161.459901 0 120 255
-83.179535 -172.681713 -161.361112 0 120 255
-85.375571 -173.821225 -161.320403 0 120 255
-87.571607 -174.960737 -161.279694 0 120 255
-89.767644 -176.100249 -161.238986 0 120 255
-91.974293 -177.214937 -161.298577 0 120 255
-94.188160 -178.312744 -161.426377 0 120 255
-96.402027 -179.410552 -161.554178 0 120 255
-98.615894 -180.508359 -161.681978 0 120 255
-100.832615 -181.580651 -161.907466 0 120 255
-103.051634 -182.632388 -162.211643 0 120 255
-105.270652 -183.684126 -162.515821 0 120 255
-107.489671 -184.735864 -162.819999 0 120 255
-109.703889 -185.761742 -163.218106 0 120 255
-111.913545 -186.763044 -163.705484 0 120 255
-114.123201 -187.764346 -164.192862 0 120 255
-116.332857 -188.765648 -164.680240 0 120 255
-118.530395 -189.741139 -165.256599 0 120 255
-120.714367 -190.687732 -165.932577 0 120 255
-122.898340 -191.634326 -166.608555 0 120 255
-125.082312 -192.580919 -167.284533 0 120 255
-127.247442 -193.502173 -168.043380 0 120 255
-129.387706 -194.389985 -168.911585 0 120 255
-131.527969 -195.277797 -169.779791 0 120 255
-133.668233 -196.165610 -170.647996 0 120 255
-135.783792 -197.028997 -171.591862 0 120 255
-137.860808 -197.854279 -172.653763 0 120 255
-139.937824 -198.679562 -173.715664 0 120 255
-142.014840 -199.504844 -174.777564 0 120 255
-144.062418 -200.307065 -175.906965 0 120 255
-146.055403 -201.066521 -177.161540 0 120 255
-148.048387 -201.825977 -178.416116 0 120 255
-150.041372 -202.585433 -179.670692 0 120 255
-152.001574 -203.323633 -180.983842 0 120 255
-153.888882 -204.014567 -182.427242 0 120 255
-155.776189 -204.705502 -183.870641 0 120 255
-157.663496 -205.396436 -185.314040 0 120 255
-159.516276 -206.068330 -186.806609 0 120 255
-161.275824 -206.688806 -188.431946 0 120 255
-163.035371 -207.309283 -190.057284 0 120 255
-164.794919 -207.929760 -191.682621 0 120 255
-166.519961 -208.533764 -193.347557 0 120 255
-168.129778 -209.082761 -195.144725 0 120 255
-169.739596 -209.631758 -196.941892 0 120 255
-171.349413 -210.180755 -198.739060 0 120 255
-172.926607 -210.716122 -200.566457 0 120 255
-174.365399 -211.193668 -202.522102 0 120 255
-175.804192 -211.671214 -204.477747 0 120 255
-177.242984 -212.148761 -206.433392 0 120 255
-178.652903 -212.615688 -208.410493 0 120 255
-179.900667 -213.022977 -210.508092 0 120 255
-181.148432 -213.430266 -212.605691 0 120 255
-182.396196 -213.837555 -214.703289 0 120 255
-183.620622 -214.237278 -216.814556 0 120 255
-184.659267 -214.576777 -219.034618 0 120 255
-185.697912 -214.916276 -221.254681 0 120 255
-186.736557 -215.255775 -223.474743 0 120 255
-187.759002 -215.590659 -225.702041 0 120 255
-188.572922 -215.866144 -228.022464 0 120 255
-189.386841 -216.141630 -230.342887 0 120 255
-190.200760 -216.417115 -232.663311 0 120 255
-191.006949 -216.690681 -234.986213 0 120 255
-191.583511 -216.907257 -237.382750 0 120 255
-192.160073 -217.123833 -239.779288 0 120 255
-192.736635 -217.340409 -242.175825 0 120 255
-193.313197 -217.556985 -244.572363 0 120 255
-193.644901 -217.721420 -247.018829 0 120 255
-193.974884 -217.885488 -249.465646 0 120 255
-194.304866 -218.049556 -251.912463 0 120 255
-194.634849 -218.213625 -254.359280 0 120 255
-194.724454 -218.334897 -256.828501 0 120 255
-194.802318 -218.454079 -259.298815 0 120 255
-194.880182 -218.573261 -261.769130 0 120 255
-194.958047 -218.692443 -264.239444 0 120 255
-194.803981 -218.778587 -266.706504 0 120 255
-194.628025 -218.861613 -269.173256 0 120 255
-194.452069 -218.944638 -271.640008 0 120 255
-194.276113 -219.027664 -274.106761 0 120 255
-193.880173 -219.087563 -276.547090 0 120 255
-193.452515 -219.144128 -278.983611 0 120 255
-193.024857 -219.200693 -281.420131 0 120 255
-192.597200 -219.257257 -283.856651 0 120 255
-191.964009 -219.302696 -286.246392 0 120 255
-191.289942 -219.345922 -288.626830 0 120 255
-190.615874 -219.389148 -291.007268 0 120 255
-189.941807 -219.432374 -293.387707 0 120 255
-189.079293 -219.474756 -295.704327 0 120 255
-188.167922 -219.516919 -298.004402 0 120 255
-187.256550 -219.559082 -300.304477 0 120 255
-186.345178 -219.601245 -302.604552 0 120 255
-185.265090 -219.647462 -304.827786 0 120 255
-184.129913 -219.695003 -307.025929 0 120 255
-182.994735 -219.742544 -309.224072 0 120 255
-181.859557 -219.790085 -311.422215 0 120 255
-180.576445 -219.843240 -313.534500 0 120 255
-179.233898 -219.898651 -315.612293 0 120 255
-177.891352 -219.954061 -317.690085 0 120 255
-176.548806 -220.009472 -319.767877 0 120 255
-175.079320 -220.069694 -321.754794 0 120 255
-173.548104 -220.132257 -323.697521 0 120 255
-172.016888 -220.194819 -325.640247 0 120 255
-170.485672 -220.257382 -327.582973 0 120 255
-168.847548 -220.323716 -329.433168 0 120 255
-167.147180 -220.392245 -331.229490 0 120 255
-165.446812 -220.460775 -333.025813 0 120 255
-163.746445 -220.529304 -334.822135 0 120 255
-161.957764 -220.600798 -336.527145 0 120 255
-160.107977 -220.674342 -338.168974 0 120 255
-158.258191 -220.747886 -339.810803 0 120 255
-156.408404 -220.821431 -341.452631 0 120 255
-154.487212 -220.897292 -343.006826 0 120 255
-152.507574 -220.975050 -344.489293 0 120 255
-150.527935 -221.052808 -345.971760 0 120 255
-148.548297 -221.130567 -347.454226 0 120 255
-146.512154 -221.210086 -348.854551 0 120 255
-144.421413 -221.291308 -350.175507 0 120 255
-142.330671 -221.372529 -351.496463 0 120 255
-140.239930 -221.453751 -352.817420 0 120 255
-138.105575 -221.536289 -354.063134 0 120 255
-135.921465 -221.620330 -355.223015 0 120 255
-133.737355 -221.704370 -356.382896 0 120 255
-131.553246 -221.788411 -357.542776 0 120 255
-129.336400 -221.873397 -358.635257 0 120 255
-127.075362 -221.959660 -359.636748 0 120 255
-124.814323 -222.045923 -360.638239 0 120 255
-122.553285 -222.132185 -361.639730 0 120 255
-120.268449 -222.219099 -362.582167 0 120 255
-117.945414 -222.307057 -363.429805 0 120 255
-115.622378 -222.395015 -364.277443 0 120 255
-113.299343 -222.482973 -365.125081 0 120 255
-110.959660 -222.571353 -365.922164 0 120 255
-108.587951 -222.660543 -366.621996 0 120 255
-106.216242 -222.749733 -367.321827 0 120 255
-103.844534 -222.838924 -368.021659 0 120 255
-101.461728 -222.928358 -368.679329 0 120 255
-99.053048 -223.018363 -369.238686 0 120 255
-96.644369 -223.108368 -369.798044 0 120 255
-94.235689 -223.198373 -370.357402 0 120 255
-91.820065 -223.288505 -370.882643 0 120 255
-89.384489 -223.379002 -371.309839 0 120 255
-86.948912 -223.469500 -371.737034 0 120 255
-84.513335 -223.559998 -372.164230 0 120 255
-82.073780 -223.650542 -372.564814 0 120 255
-79.619792 -223.741253 -372.868847 0 120 255
-77.165804 -223.831965 -373.172880 0 120 255
-74.711816 -223.922676 -373.476913 0 120 255
-72.255841 -224.013387 -373.761173 0 120 255
-69.790429 -224.104096 -373.951531 0 120 255
-67.325017 -224.194806 -374.141889 0 120 255
-64.859605 -224.285515 -374.332247 0 120 255
-62.393425 -224.376201 -374.508918 0 120 255
-59.922181 -224.466733 -374.595411 0 120 255
-57.450938 -224.557266 -374.681904 0 120 255
-54.979694 -224.647798 -374.768397 0 120 255
-52.508316 -224.738305 -374.846482 0 120 255
-50.035560 -224.828551 -374.839099 0 120 255
-47.562804 -224.918797 -374.831716 0 120 255
-45.090048 -225.009044 -374.824333 0 120 255
-42.617370 -225.099272 -374.812989 0 120 255
-40.146268 -225.189132 -374.721886 0 120 255
-37.675166 -225.278992 -374.630783 0 120 255
-35.204063 -225.368853 -374.539679 0 120 255
-32.732980 -225.458711 -374.448207 0 120 255
-30.265675 -225.548160 -374.283516 0 120 255
-27.798369 -225.637609 -374.118826 0 120 255
-25.331063 -225.727058 -373.954136 0 120 255
-22.863758 -225.816507 -373.789445 0 120 255
-20.401314 -225.905544 -373.563570 0 120 255
-17.939059 -225.994565 -373.335324 0 120 255
-15.476804 -226.083587 -373.107078 0 120 255
-13.014549 -226.172608 -372.878831 0 120 255
-10.557394 -226.261271 -372.601280 0 120 255
-8.100680 -226.349903 -372.319463 0 120 255
-5.643966 -226.438534 -372.037646 0 120 255
-3.187251 -226.527166 -371.755829 0 120 255
-0.735272 -226.615480 -371.435653 0 120 255
1.716049 -226.703749 -371.110149 0 120 255
4.167371 -226.792018 -370.784645 0 120 255
6.618692 -226.880287 -370.459141 0 120 255
9.066064 -226.968305 -370.105329 0 120 255
11.512660 -227.056272 -369.745952 0 120 255
13.959256 -227.144240 -369.386575 0 120 255
16.405851 -227.232207 -369.027198 0 120 255
18.849538 -227.319977 -368.648632 0 120 255
21.292468 -227.407696 -368.265069 0 120 255
23.735398 -227.495414 -367.881506 0 120 255
26.178328 -227.583133 -367.497943 0 120 255
28.619527 -227.670742 -367.103542 0 120 255
31.060153 -227.758316 -366.705549 0 120 255
33.500778 -227.845889 -366.307556 0 120 255
35.941404 -227.933463 -365.909562 0 120 255
38.381483 -228.020957 -365.508221 0 120 255
40.821337 -228.108418 -365.105504 0 120 255
43.261192 -228.195880 -364.702787 0 120 255
45.701047 -228.283341 -364.300070 0 120 255
48.141443 -228.370697 -363.900632 0 120 255
50.582110 -228.458000 -363.502835 0 120 255
53.022777 -228.545302 -363.105038 0 120 255
55.463445 -228.632605 -362.707242 0 120 255
57.905562 -228.719547 -362.318432 0 120 255
60.348553 -228.806272 -361.935027 0 120 255
62.791543 -228.892998 -361.551623 0 120 255
65.234533 -228.979723 -361.168219 0 120 255
67.679645 -229.064724 -360.798373 0 120 255
70.126279 -229.148488 -360.438253 0 120 255
72.572913 -229.232253 -360.078132 0 120 255
75.019547 -229.316017 -359.718012 0 120 255
77.468668 -229.394755 -359.374401 0 120 255
79.919905 -229.469217 -359.044837 0 120 255
82.371142 -229.543678 -358.715273 0 120 255
84.822379 -229.618139 -358.385709 0 120 255
87.276209 -229.684745 -358.074931 0 120 255
89.732647 -229.743444 -357.783063 0 120 255
92.189085 -229.802142 -357.491196 0 120 255
94.645523 -229.860841 -357.199329 0 120 255
97.104409 -229.910155 -356.928125 0 120 255
99.566208 -229.948295 -356.681528 0 120 255
102.028007 -229.986435 -356.434930 0 120 255
104.489807 -230.024575 -356.188332 0 120 255
106.953672 -230.052292 -355.963649 0 120 255
109.420454 -230.065294 -355.769904 0 120 255
111.887237 -230.078296 -355.576158 0 120 255
114.354019 -230.091298 -355.382413 0 120 255
116.822285 -230.093301 -355.211188 0 120 255
119.293048 -230.076805 -355.077842 0 120 255
121.763810 -230.060310 -354.944495 0 120 255
124.234573 -230.043814 -354.811148 0 120 255
126.706089 -230.016195 -354.700278 0 120 255
129.179129 -229.966112 -354.634798 0 120 255
131.652169 -229.916030 -354.569319 0 120 255
134.125208 -229.865947 -354.503839 0 120 255
136.598192 -229.805021 -354.460169 0 120 255
139.071037 -229.717495 -354.470005 0 120 255
141.543882 -229.629969 -354.479841 0 120 255
144.016727 -229.542443 -354.489676 0 120 255
146.488704 -229.444748 -354.520003 0 120 255
148.958047 -229.316226 -354.612452 0 120 255
151.427390 -229.187704 -354.704901 0 120 255
153.896734 -229.059182 -354.797351 0 120 255
156.364486 -228.921520 -354.908341 0 120 255
158.826126 -228.748750 -355.090552 0 120 255
161.287765 -228.575979 -355.272763 0 120 255
163.749405 -228.403209 -355.454974 0 120 255
166.208820 -228.222632 -355.654029 0 120 255
168.656991 -228.002601 -355.938223 0 120 255
171.105162 -227.782570 -356.222417 0 120 255
173.553333 -227.562538 -356.506611 0 120 255
176.001408 -227.341090 -356.790508 0 120 255
178.448803 -227.109635 -357.072300 0 120 255
180.896198 -226.878181 -357.354093 0 120 255
183.343593 -226.646726 -357.635886 0 120 255
185.790988 -226.415270 -357.917680 0 120 255
188.238380 -226.183804 -358.199485 0 120 255
190.685773 -225.952339 -358.481290 0 120 255
193.133165 -225.720873 -358.763095 0 120 255
195.580558 -225.489407 -359.044900 0 120 255
198.027952 -225.257945 -359.326698 0 120 255
200.475346 -225.026484 -359.608495 0 120 255
202.922739 -224.795022 -359.890293 0 120 255
205.370133 -224.563560 -360.172091 0 120 255
